<?xml version="1.0" standalone="no"?>
<!DOCTYPE svg PUBLIC "-//W3C//DTD SVG 1.1//EN" "http://www.w3.org/Graphics/SVG/1.1/DTD/svg11.dtd" >
<svg xmlns="http://www.w3.org/2000/svg" xmlns:xlink="http://www.w3.org/1999/xlink" version="1.1">
<metadata>
Created by FontForge 20170731 at Wed Apr 17 11:03:24 2019
 By Aleksey,,,
Copyright (c) 2019 by Studio Sun. All rights reserved. Desktop use is strictly prohibited.
</metadata>
<defs>
<font id="Tropiline-SemiBoldItalic" horiz-adv-x="1224" >
  <font-face 
    font-family="Tropiline SemiBold Italic"
    font-weight="600"
    font-style="italic"
    font-stretch="normal"
    units-per-em="2048"
    panose-1="0 0 0 0 0 0 0 0 0 0"
    ascent="1536"
    descent="-512"
    x-height="1108"
    cap-height="1434"
    bbox="-635 -1231 2943 2224"
    underline-thickness="0"
    underline-position="0"
    unicode-range="U+0020-FB06"
  />
<missing-glyph horiz-adv-x="1183" 
d="M231 0v1434h953v-1434h-953zM389 129h639v1176h-639v-1176z" />
    <glyph glyph-name="uniFB00" unicode="ff" horiz-adv-x="1247" 
d="M1303 1540q96 0 161.5 -35t63.5 -96q0 -41 -29 -67.5t-76 -26.5q-37 0 -60.5 18.5t-31.5 39t-25.5 39t-45.5 18.5q-37 0 -72 -61.5t-51 -170.5l-21 -129h275l-19 -113h-274l-189 -1157q-41 -266 -172 -395t-370 -129q-72 0 -141.5 34t-69.5 95q2 45 31.5 71.5t74.5 26.5
t75 -29.5t55.5 -58t62.5 -28.5q154 0 198 274l217 1296h-307l-141 -858q-41 -266 -172 -395t-371 -129q-72 0 -141.5 34t-67.5 95q0 45 30 72.5t75 27.5q57 0 105 -59t89 -59q154 0 197 274l170 997h-248l21 113h245l60 342q72 428 401 428q94 0 160.5 -35t66.5 -96
q0 -41 -28.5 -67.5t-73.5 -26.5q-37 0 -60.5 18.5t-31.5 39t-26.5 39t-47.5 18.5q-37 0 -71.5 -60.5t-51.5 -171.5l-69 -428h307l8 43q39 215 137.5 321.5t268.5 106.5z" />
    <glyph glyph-name="uniFB01" unicode="fi" horiz-adv-x="1216" 
d="M586 1114l-6 -45h278l-20 -113h-277l-139 -893q-41 -266 -172 -394t-371 -128q-72 0 -141.5 34t-69.5 95q2 45 32 72t73 27q57 0 105 -58.5t89 -58.5q154 0 199 274l170 1030h-170l20 113h168l4 27q20 123 82 219t144 151.5t172 83t180 27.5q170 0 260 -69.5t90 -151.5
q0 -55 -33.5 -87t-89.5 -32q-53 0 -77.5 36t-28.5 80t-39 79.5t-107 35.5q-117 0 -205.5 -80.5t-119.5 -273.5zM1174 70q31 0 75 32l21 -49q-98 -92 -236 -92q-80 0 -131 49t-29 180l99 568q10 59 -16.5 95t-69.5 46l18 57q211 31 328 158l27 -8l-156 -866q-30 -170 70 -170
z" />
    <glyph glyph-name="uniFB02" unicode="fl" horiz-adv-x="1179" 
d="M1098 70q29 0 73 32l23 -49q-100 -92 -236 -92q-80 0 -132 49t-29 180l200 1164q-8 53 -47 88t-106 35q-80 0 -150.5 -72t-89.5 -191l-22 -145h260l-21 -113h-258l-141 -893q-41 -266 -172 -394t-371 -128q-72 0 -141.5 34t-69.5 95q2 45 32 72t73 27q57 0 105 -58.5
t89 -58.5q154 0 199 274l170 1030h-170l22 113h166l11 59q41 217 176 337t340 120q158 0 241 -88q66 31 119 84l25 -6l-238 -1335q-30 -170 70 -170z" />
    <glyph glyph-name="uniFB03" unicode="ffi" horiz-adv-x="1753" 
d="M1122 1114l-8 -45h277l-21 -113h-272l-189 -1161q-41 -266 -171 -394t-369 -128q-74 0 -142.5 34t-68.5 95q0 45 29.5 71.5t74.5 26.5q55 0 104.5 -58t90.5 -58q154 0 196 272l217 1300h-309l-139 -858q-41 -268 -172 -396t-371 -128q-72 0 -141.5 34t-67.5 95
q0 45 30 72.5t75 27.5t74.5 -29.5t56 -59t63.5 -29.5q152 0 197 274l168 997h-248l23 113h245l58 342q37 213 135 320.5t268 107.5q94 0 160.5 -36t66.5 -95q0 -41 -28.5 -67.5t-75.5 -26.5q-37 0 -60.5 18.5t-31.5 39t-26.5 39t-47.5 18.5q-37 0 -71.5 -61.5t-51.5 -170.5
l-69 -428h309l4 27q29 162 126 275.5t213 159.5t241 46q170 0 259 -69.5t89 -151.5q0 -55 -33 -87t-88 -32q-53 0 -78 36t-30 80t-39.5 79.5t-106.5 35.5q-53 0 -101.5 -17t-93.5 -55t-79 -110t-50 -172zM1710 70q33 0 74 32l22 -49q-102 -92 -237 -92q-35 0 -62.5 8
t-59.5 33t-38 70t2 118l98 568q10 57 -16.5 94t-71.5 47l19 57q211 29 329 158l25 -8l-154 -866q-30 -170 70 -170z" />
    <glyph glyph-name="uniFB04" unicode="ffl" horiz-adv-x="1712" 
d="M1632 70q31 0 72 32l22 -49q-98 -92 -235 -92q-80 0 -132 49t-30 180l203 1166q-27 121 -156 121q-80 0 -150.5 -72t-88.5 -191l-25 -145h274l-18 -113h-272l-189 -1157q-41 -266 -171 -394t-369 -128q-74 0 -142.5 33t-68.5 94q0 45 29.5 72.5t74.5 27.5t75 -29.5
t56.5 -59t63.5 -29.5q154 0 196 274l219 1296h-309l-139 -858q-41 -266 -172 -394t-371 -128q-72 0 -141.5 34t-67.5 95q0 45 30 71.5t75 26.5q55 0 103 -58t89 -58q154 0 199 272l168 997h-250l22 113h248l58 344q37 213 135 319.5t268 106.5q94 0 160.5 -35t66.5 -94
q0 -43 -28.5 -69.5t-75.5 -26.5q-37 0 -60.5 18.5t-31.5 40t-26.5 40t-47.5 18.5q-37 0 -71.5 -62.5t-51.5 -171.5l-69 -428h309l10 61q39 215 174 335t340 120q160 0 242 -90q74 39 121 86l22 -6l-237 -1335q-31 -170 71 -170z" />
    <glyph glyph-name="T_h.liga" unicode="Th" horiz-adv-x="2336" 
d="M2415 104l18 -49q-100 -92 -231 -92q-35 0 -65 8.5t-61.5 33t-37.5 69.5t6 119l106 471q35 143 -10 226t-160 83q-125 0 -243.5 -137.5t-153.5 -329.5l-2 -8q-25 -147 -36 -271.5t-9 -175.5v-51h-260l233 1356q-145 -51 -342 -51q-43 0 -63 2l-195 -1106
q-20 -117 76 -144l-18 -55h-443l2 55q106 27 127 144l205 1147q-18 4 -61 16t-63.5 17t-54.5 12.5t-62.5 10.5t-57.5 3q-168 0 -168 -104q0 -31 32 -80t32 -88q0 -51 -34 -83t-87 -32q-59 0 -99 49t-38 115q0 133 106.5 230t294.5 97q129 0 342 -31.5t332 -31.5
q127 0 258 35t219 102l23 -10l-125 -707h18q162 240 406 240q182 0 266 -120t35 -337l-95 -409q-45 -170 62 -170q31 -1 76 32z" />
    <glyph glyph-name="f_j.liga" unicode="fj" horiz-adv-x="1241" 
d="M535 956l-125 -782q-41 -266 -172.5 -394t-370.5 -128q-72 0 -140.5 32.5t-68.5 94.5q0 47 29.5 73.5t74.5 26.5q57 0 104.5 -59.5t88.5 -59.5q76 0 127 72t72 203l153 921h-168l21 113h168l4 29q29 162 125 274.5t211.5 158.5t240.5 46q172 0 261.5 -68.5t89.5 -152.5
q0 -55 -34 -86t-89 -31q-53 0 -78 36t-29 80t-39 79.5t-106 35.5q-117 0 -206 -80.5t-120 -275.5l-6 -45h276l-20 -113h-274zM881 956q217 37 329 160l25 -8l-221 -1245q-37 -205 -138.5 -299t-295.5 -94q-102 0 -172 40.5t-68 104.5q6 86 96 86q49 0 78 -30.5t55.5 -61.5
t71.5 -31t81 37t48 111l180 1032q10 59 -16.5 95t-71.5 46z" />
    <glyph glyph-name="f_t.liga" unicode="ft" horiz-adv-x="1423" 
d="M1239 954l-127 -714q-27 -158 100 -158q78 0 140 24l8 -96q-106 -49 -246 -49q-133 0 -192.5 65.5t-30.5 219.5l125 710h-434l-142 -890q-41 -266 -171 -394.5t-369 -128.5q-72 0 -140.5 34t-68.5 95q0 45 29.5 71t74.5 26q55 0 103.5 -57.5t89.5 -57.5q156 0 198 272
l170 1030h-170l21 113h168l14 82q37 213 135.5 319.5t270.5 106.5q94 0 159.5 -35t65.5 -94q0 -41 -28.5 -67.5t-73.5 -26.5q-39 0 -63 17.5t-32 40t-25.5 39.5t-45.5 17q-37 0 -72 -61t-53 -170l-27 -168h334q119 33 180.5 99.5t126.5 203.5h72l-53 -305l280 2l-18 -113z
" />
    <glyph glyph-name=".notdef" horiz-adv-x="1183" 
d="M231 0v1434h953v-1434h-953zM389 129h639v1176h-639v-1176z" />
    <glyph glyph-name="glyph1" horiz-adv-x="0" 
 />
    <glyph glyph-name="glyph2" horiz-adv-x="681" 
 />
    <glyph glyph-name="space" unicode=" " horiz-adv-x="665" 
 />
    <glyph glyph-name="exclam" unicode="!" horiz-adv-x="696" 
d="M338 420q39 283 28.5 523.5t4.5 326.5q16 106 70.5 152t121.5 46q158 0 127 -198q-14 -98 -94 -335t-129 -515h-129zM329.5 -39q-67.5 0 -107.5 45t-29 117q10 70 64 115t121.5 45t107.5 -44t30 -116t-64.5 -117t-122 -45z" />
    <glyph glyph-name="quotedbl" unicode="&#x22;" horiz-adv-x="958" 
d="M340 915q4 115 -10.5 245t-7.5 177q10 59 53 96t96 37t83 -36.5t21 -96.5q-6 -47 -60 -177t-87 -245h-88zM723 915q4 113 -10.5 244t-5.5 178q8 59 51 96t96 37t84 -36.5t20 -96.5q-6 -49 -60 -179t-87 -243h-88z" />
    <glyph glyph-name="numbersign" unicode="#" horiz-adv-x="1650" 
d="M291 0l186 408h-241l14 94h272l201 430h-270l14 94h301l190 408h123l-188 -408h309l187 408h124l-188 -408h244l-17 -94h-272l-201 -430h273l-15 -94h-305l-186 -408h-125l188 408h-307l-188 -408h-123zM647 502h307l201 430h-309z" />
    <glyph glyph-name="dollar" unicode="$" horiz-adv-x="1404" 
d="M975 1468q178 -8 289.5 -83.5t95.5 -178.5q-8 -45 -38 -72.5t-73 -27.5q-39 0 -60.5 27.5t-33.5 65.5t-32.5 77t-77 66.5t-146.5 27.5q-125 0 -219 -67.5t-111 -161.5q-14 -98 62 -165t248 -114q227 -63 338.5 -166.5t82.5 -289.5q-31 -188 -184 -306t-379 -135l-45 -276
h-125l43 276q-233 12 -354 104.5t-104 204.5q8 47 43.5 79t87.5 32q43 0 67.5 -23.5t32.5 -59.5t25.5 -77t42 -76.5t85 -59t152.5 -23.5q143 0 244.5 70.5t118.5 182.5q16 104 -68 177t-264 125q-213 61 -318.5 166.5t-76.5 289.5q25 164 170 268.5t356 120.5l39 252h125z
" />
    <glyph glyph-name="percent" unicode="%" horiz-adv-x="1634" 
d="M442 696q-168 0 -259 114t-66 275q25 170 145.5 277.5t292.5 107.5q166 0 255 -110.5t62 -278.5q-23 -164 -143.5 -274.5t-286.5 -110.5zM373 0l878 1434h119l-876 -1434h-121zM455 797q84 0 147.5 79.5t81.5 204.5q20 127 -20.5 207t-124.5 80q-86 0 -149.5 -78
t-84.5 -207q-18 -123 24 -204.5t126 -81.5zM1194 -39q-168 0 -259 112.5t-67 276.5q27 168 147 276.5t292 108.5q164 0 254 -110.5t65 -278.5q-25 -164 -146.5 -274.5t-285.5 -110.5zM1206 59q84 0 147.5 80t82.5 205q20 127 -21 208t-125 81q-86 0 -149.5 -78t-83.5 -207
q-18 -125 22.5 -207t126.5 -82z" />
    <glyph glyph-name="ampersand" unicode="&#x26;" horiz-adv-x="1757" 
d="M1798 299q2 -158 -99.5 -247t-256.5 -89q-205 0 -326 160q-242 -160 -522 -160q-252 0 -384 135t-106 324q25 168 150 293t289 176l2 12q-145 90 -121 258q23 139 138.5 224t287.5 85q168 0 260 -86t72 -227q-14 -102 -87 -178t-184 -109l-2 -16q45 -16 84 -44t70 -69
t52.5 -74.5t45 -91t34.5 -89t32 -95.5q109 158 135 340q20 127 -121 158l16 57h410l-2 -57q-55 -12 -104.5 -54t-59.5 -114q-39 -266 -227 -463q37 -90 84 -138t117 -48q57 0 102 37.5t45 99.5q-2 59 -55.5 108.5t-53.5 98.5q-2 41 32 70.5t83 29.5q84 0 127 -64.5
t43 -152.5zM612 1153q-14 -92 31 -155.5t129 -63.5t144.5 61.5t74.5 155.5q14 96 -29.5 157.5t-125.5 61.5q-86 0 -147 -59.5t-77 -157.5zM680 92q201 0 377 127q-37 72 -91.5 228.5t-109.5 253t-141 133.5q-131 -59 -234.5 -157.5t-124.5 -227.5q-25 -164 65.5 -260.5
t258.5 -96.5z" />
    <glyph glyph-name="quotesingle" unicode="'" horiz-adv-x="581" 
d="M352 915q4 115 -10 245t-8 177q10 59 53 96t96.5 37t83 -36.5t21.5 -96.5q-6 -47 -60.5 -177t-87.5 -245h-88z" />
    <glyph glyph-name="parenleft" unicode="(" horiz-adv-x="765" 
d="M598 -442q-219 150 -339 401.5t-73 568.5q49 317 247 570.5t462 402.5l39 -57q-190 -127 -341 -381t-194 -534.5t30 -532.5t226 -381z" />
    <glyph glyph-name="parenright" unicode=")" horiz-adv-x="765" 
d="M-6 -442l-37 57q190 129 339.5 381t192.5 534q43 281 -29.5 534t-223.5 380l57 57q219 -150 339 -402.5t70 -568.5q-49 -317 -245.5 -569.5t-462.5 -402.5z" />
    <glyph glyph-name="asterisk" unicode="*" horiz-adv-x="1116" 
d="M369 584q-27 20 -28 54t28 69q20 25 110 102.5t139 126.5l-6 39q-63 10 -170.5 20.5t-136.5 18.5q-37 12 -48 44t3 64q41 80 121 58q29 -10 119 -60.5t145 -77.5l37 25q0 66 -8 174.5t-4 138.5q6 41 33.5 65.5t64.5 24.5t58.5 -23.5t17.5 -64.5q-4 -29 -39 -137t-51 -178
l28 -23q63 29 167 86.5t136 67.5q41 14 70 -1t35 -52q6 -35 -13.5 -64.5t-60.5 -44.5q-31 -10 -143.5 -27.5t-177.5 -31.5l-17 -39q37 -45 111 -117.5t88 -99.5q18 -33 8 -66.5t-43 -56.5q-31 -23 -65.5 -17.5t-53.5 37.5q-14 25 -49 123.5t-59 153.5l-41 -2
q-43 -61 -100.5 -161.5t-77.5 -123.5q-29 -35 -65.5 -41t-61.5 17z" />
    <glyph glyph-name="plus" unicode="+" horiz-adv-x="1314" 
d="M586 168l76 494h-492l18 112h492l76 492h116l-73 -492h491l-16 -112h-494l-75 -494h-119z" />
    <glyph glyph-name="comma" unicode="," horiz-adv-x="722" 
d="M432 264q78 0 117 -57t24 -150q-18 -131 -114.5 -268t-231.5 -217l-55 80q174 115 246 315l-4 4q-25 -10 -45 -10q-63 0 -101.5 42t-27.5 112q10 66 65 107.5t127 41.5z" />
    <glyph glyph-name="hyphen" unicode="-" horiz-adv-x="628" 
d="M115 449l26 167h508l-26 -167h-508z" />
    <glyph glyph-name="period" unicode="." horiz-adv-x="647" 
d="M315 -39q-66 0 -105.5 45t-29.5 117q10 70 64.5 115t122.5 45q66 0 106.5 -45t30.5 -115q-10 -72 -65.5 -117t-123.5 -45z" />
    <glyph glyph-name="slash" unicode="/" horiz-adv-x="1097" 
d="M125 -444l866 1939h107l-867 -1939h-106z" />
    <glyph glyph-name="zero" unicode="0" horiz-adv-x="1286" 
d="M614.5 -39q-274.5 0 -386 210t-58.5 546t231.5 544.5t452.5 208.5q184 0 298 -100t147.5 -267t-1.5 -386q-53 -336 -231 -546t-452.5 -210zM633 74q309 0 409.5 643t-206.5 643q-309 0 -409.5 -643t206.5 -643z" />
    <glyph glyph-name="one" unicode="1" horiz-adv-x="1148" 
d="M279 0l2 57q143 33 159 142l156 989h-143l2 63l360 185h76l-197 -1237q-16 -111 113 -142l-16 -57h-512z" />
    <glyph glyph-name="two" unicode="2" horiz-adv-x="1251" 
d="M1235 1047q-23 -145 -99.5 -274.5t-198.5 -233t-240.5 -179t-276.5 -155.5v-6h166q53 0 101 4t87 11t75 17.5t61.5 20.5t52 24.5t41 23.5t33 23.5t24.5 21.5t18 20l13 12l59 -29l-162 -348h-854l19 121q29 20 105.5 74.5t110 79t103.5 78t105.5 85t94 84.5t91.5 92
t75 95.5t66.5 106.5t45 109.5t30.5 121.5q25 147 -34.5 232t-192.5 85t-246 -91t-146 -251l-86 16q41 199 195 315.5t352 116.5q213 0 328 -115t84 -308z" />
    <glyph glyph-name="three" unicode="3" horiz-adv-x="1210" 
d="M508 -37q-170 0 -291 63.5t-104 172.5q10 53 45 88t92 35q43 0 67.5 -26t37 -62.5t26.5 -73.5t49 -62.5t94 -25.5q145 0 240.5 91t120.5 247q25 162 -52 259t-241 97h-47l16 96h53q129 0 211 75t99 183q16 100 -37 171t-178 71q-115 0 -208 -79t-124 -218l-86 14
q45 178 183 284.5t333 106.5q199 0 293 -95t74 -228q-16 -109 -90 -188.5t-193 -120.5l-2 -11q131 -31 203.5 -133t50.5 -239q-33 -213 -205 -352.5t-430 -139.5z" />
    <glyph glyph-name="four" unicode="4" horiz-adv-x="1226" 
d="M987 362l-26 -165q-16 -109 112 -140l-16 -57h-514v57q55 12 104 47t60 95l26 163h-608l-4 82l848 1000h188l-153 -973h239l-45 -109h-211zM270 471h480l106 676h-10l-576 -668v-8z" />
    <glyph glyph-name="five" unicode="5" horiz-adv-x="1234" 
d="M707 936q248 0 361.5 -127t80.5 -330q-35 -211 -207 -362.5t-426 -151.5q-160 0 -269.5 52.5t-92.5 156.5q8 51 43.5 85t83.5 34q51 0 77.5 -22.5t34.5 -54.5t19.5 -64.5t47.5 -55t103 -22.5q156 0 255.5 93t123.5 245q23 137 -63 229t-254 92q-170 0 -301 -69l-60 20
l117 750h803l-60 -201h-657l-55 -344q109 47 295 47z" />
    <glyph glyph-name="six" unicode="6" horiz-adv-x="1220" 
d="M848 936q221 0 312 -136t59 -339q-33 -207 -206 -352.5t-403 -145.5q-242 0 -355.5 176t-68.5 467q27 174 98.5 318.5t171 244t224.5 169t260 101t279 31.5l-7 -88q-231 0 -428.5 -142t-296.5 -441h11q61 61 158.5 99t191.5 38zM961 461q51 348 -201 348q-80 0 -171 -50
t-147 -132l-10 -60q-39 -246 4 -375t191 -129q127 0 216 110t118 288z" />
    <glyph glyph-name="seven" unicode="7" horiz-adv-x="1222" 
d="M412 1434h876l-18 -117q-188 -201 -314.5 -367t-230.5 -387t-141 -454q-12 -74 -58.5 -111t-106 -37t-92 42t-22.5 106q23 143 100.5 302.5t191.5 307t227.5 270.5t238.5 234l2 10h-256q-66 0 -125 -7t-103 -19.5t-85 -30t-67 -33t-51.5 -34.5t-36.5 -31.5t-25.5 -28
t-16.5 -17.5l-61 29z" />
    <glyph glyph-name="eight" unicode="8" horiz-adv-x="1249" 
d="M588 -39q-231 0 -354 116t-101 265q39 254 352 393v10q-98 61 -144 142.5t-26 214.5q23 141 168.5 257t380.5 116q209 0 311.5 -99.5t79.5 -234.5q-37 -233 -309 -355l-2 -12q141 -70 209 -154.5t43 -242.5q-29 -178 -196.5 -297t-411.5 -119zM811 846q254 113 283 293
q16 104 -39.5 166.5t-184.5 62.5q-125 0 -202.5 -55.5t-94.5 -157.5q-18 -113 45.5 -180.5t192.5 -128.5zM594 68q145 0 236.5 73.5t105.5 169.5q10 70 -7.5 124t-71.5 97t-97 67t-125 63l-27 12q-268 -119 -301 -326q-18 -117 57.5 -198.5t229.5 -81.5z" />
    <glyph glyph-name="nine" unicode="9" horiz-adv-x="1200" 
d="M782 1470q244 0 357.5 -176t66.5 -467q-35 -217 -134 -386t-241.5 -271t-309.5 -155.5t-347 -53.5l8 88q231 0 429 143.5t296 442.5h-10q-61 -61 -158.5 -99t-193.5 -38q-150 0 -242 68.5t-119.5 173t-7.5 233.5q31 205 205 351t401 146zM635 625q78 0 170 51t147 133
q8 35 11 57q39 246 -4.5 375t-192.5 129q-127 0 -215 -108.5t-117 -288.5q-55 -348 201 -348z" />
    <glyph glyph-name="colon" unicode=":" horiz-adv-x="647" 
d="M426 678q-66 0 -105.5 45t-29.5 117q8 70 63.5 114.5t122.5 44.5q66 0 107 -45t30 -114q-12 -72 -66 -117t-122 -45zM315 -39q-66 0 -105.5 45t-29.5 117q10 70 64.5 115t122 45t107.5 -44t30 -116t-65.5 -117t-123.5 -45z" />
    <glyph glyph-name="semicolon" unicode=";" horiz-adv-x="708" 
d="M539 999q66 0 105.5 -45t31.5 -114q-12 -72 -66.5 -117t-122 -45t-107.5 45t-28 117q8 70 63.5 114.5t123.5 44.5zM432 264q78 0 117 -57t24 -150q-18 -131 -114.5 -268t-231.5 -217l-55 80q174 115 246 315l-4 4q-25 -10 -45 -10q-63 0 -101.5 42t-27.5 112
q10 66 65 107.5t127 41.5z" />
    <glyph glyph-name="less" unicode="&#x3c;" horiz-adv-x="1294" 
d="M1108 223l-952 420l20 123l1086 420l-21 -119l-919 -360v-7l804 -356z" />
    <glyph glyph-name="equal" unicode="=" horiz-adv-x="1351" 
d="M233 864l17 111h1077l-16 -111h-1078zM170 459l16 110h1080l-19 -110h-1077z" />
    <glyph glyph-name="greater" unicode="&#x3e;" horiz-adv-x="1292" 
d="M174 223l19 121l919 356v7l-805 360l19 119l952 -420l-21 -123z" />
    <glyph glyph-name="question" unicode="?" horiz-adv-x="1058" 
d="M338 420l55 377h80q92 0 162 5t156 21.5t134 57.5t48 104q-2 127 -107.5 249t-228.5 122q-49 0 -82 -20.5t-50.5 -49.5t-33.5 -57.5t-48 -49t-79 -20.5t-80 34t-33 85q-2 92 87.5 143.5t226.5 51.5q225 0 404 -175.5t181 -361.5q0 -82 -37.5 -143.5t-97 -97.5
t-147.5 -57.5t-170 -29.5t-180 -8l-27 -180h-133zM342 -37q-68 0 -108.5 44t-30.5 118q10 70 64.5 114t122 44t108.5 -44t28 -114q-10 -74 -63 -118t-121 -44z" />
    <glyph glyph-name="at" unicode="@" horiz-adv-x="1990" 
d="M1004 -358q-190 0 -347 56t-270 164.5t-164 277.5t-24 382q33 244 194.5 451t401 324.5t497.5 117.5q348 0 547 -187.5t158 -514.5q-35 -270 -223.5 -448.5t-421.5 -178.5q-154 0 -168 137h-10q-131 -137 -316 -137q-182 0 -249.5 139.5t9.5 337.5q70 186 229 304
t349 118q164 0 211 -108h12l62 108h192l-254 -653q-53 -131 51 -131q135 0 270.5 150.5t164.5 361.5q20 154 -21 274.5t-130 193t-209 109.5t-263 37q-350 0 -644 -232.5t-339 -572.5q-49 -373 154.5 -583.5t562.5 -210.5q180 0 356 65l19 -84q-188 -67 -387 -67zM948 193
q147 0 250 149l168 430q-6 49 -46 79t-103 30q-233 0 -367 -346q-133 -342 98 -342z" />
    <glyph glyph-name="A" unicode="A" horiz-adv-x="1325" 
d="M1204 199q12 -61 48 -97t79 -45l-18 -57h-453l2 57q39 8 62.5 44t11.5 98l-39 188h-543l-104 -188q-33 -68 -22.5 -100.5t44.5 -41.5l-18 -57h-299l2 57q111 20 176 142l567 1022q-29 33 -88 49l15 57q174 59 299 141h16zM426 518h446l-116 580h-8z" />
    <glyph glyph-name="B" unicode="B" horiz-adv-x="1406" 
d="M1427 1085q-18 -104 -99 -187t-204 -124l-2 -10q145 -43 219 -142.5t52 -234.5q-35 -190 -192 -303t-402 -113q-119 0 -286 14.5t-265 14.5h-197v57q104 23 129 142l182 1034q10 59 -12 95t-65 48l18 58h717q209 0 320.5 -99.5t86.5 -249.5zM909 1323q-168 0 -278 -14
l-86 -488h297q129 0 219 73t110 179q18 109 -49.5 179.5t-212.5 70.5zM1141 406q25 137 -62.5 221t-240.5 84h-314l-100 -572q27 -4 94.5 -17t118.5 -19.5t104 -6.5q172 0 273.5 85.5t126.5 224.5z" />
    <glyph glyph-name="C" unicode="C" horiz-adv-x="1368" 
d="M725 -39q-205 0 -342 107.5t-187.5 284.5t-11.5 392q55 311 282.5 518t541.5 207q209 0 335.5 -101t102.5 -236q-10 -57 -49 -101.5t-94 -44.5q-66 0 -93.5 39t-29.5 94.5t-9.5 109.5t-54.5 93t-143 39q-164 0 -315.5 -168t-200.5 -449q-59 -330 39 -501.5t311 -171.5
q266 0 467 350l76 -47q-84 -184 -240 -299t-385 -115z" />
    <glyph glyph-name="D" unicode="D" horiz-adv-x="1458" 
d="M850 1434q326 0 509 -213t126 -533q-57 -326 -281.5 -507t-533.5 -181h-635l2 57q47 10 83 47t46 95l182 1034q10 59 -12.5 95t-65.5 48l19 58h561zM1223 639q51 291 -65 487.5t-376 196.5q-68 0 -166 -8l-206 -1176q131 -29 262 -28q223 0 367.5 155.5t183.5 372.5z" />
    <glyph glyph-name="E" unicode="E" horiz-adv-x="1296" 
d="M719 111q98 0 188 24.5t148.5 60t101.5 71.5t64 61l18 24l59 -26l-133 -359h-20q-74 33 -271 33h-839l2 57q47 10 83 47t46 95l182 1034q10 59 -12.5 95t-65.5 48l19 58h1009l66 -293l-68 -21q-2 8 -9 21.5t-37.5 48.5t-73.5 61.5t-126 48t-188 21.5q-113 0 -248 -21
l-77 -442l6 -2q76 59 159 59q82 0 206 -66.5t184 -66.5q82 0 159 72l39 -43q-129 -188 -286 -188q-74 0 -201 66.5t-193 66.5q-49 0 -98 -33l-102 -588q168 -24 309 -24z" />
    <glyph glyph-name="F" unicode="F" horiz-adv-x="1189" 
d="M860 1321q-133 0 -242 -10l-90 -506l7 -4q72 61 153.5 61t206.5 -66.5t182 -66.5q84 0 160 72l37 -43q-47 -88 -123 -138.5t-158 -50.5q-80 0 -200.5 66.5t-192.5 66.5q-51 0 -96 -32l-84 -471q-10 -57 13.5 -94t64.5 -48l-19 -57h-442v57q47 10 83 47t46 95l182 1034
q10 59 -12.5 95t-65.5 48l19 58h1009l64 -293l-68 -21q-2 8 -9 21.5t-37.5 48.5t-74 61.5t-126.5 48t-187 21.5z" />
    <glyph glyph-name="G" unicode="G" horiz-adv-x="1445" 
d="M1051 733h458l-2 -59q-45 -8 -80.5 -45t-46.5 -97l-94 -532h-78l-45 139h-6q-164 -178 -432 -178q-205 0 -343 109.5t-187.5 287t-12.5 387.5q55 311 282.5 518t543.5 207q207 0 332.5 -101t103.5 -236q-10 -59 -48 -102.5t-95.5 -43.5t-85 27.5t-30.5 69.5t-9.5 90.5
t-17.5 90.5t-57 69.5t-128 27.5q-166 0 -317.5 -168t-200.5 -449q-57 -326 43 -499.5t299 -173.5q156 0 272 127l59 333q20 115 -96 142z" />
    <glyph glyph-name="H" unicode="H" horiz-adv-x="1517" 
d="M1212 1434h443l-2 -58q-106 -27 -127 -143l-183 -1034q-10 -59 12.5 -95t65.5 -47l-18 -57h-445l3 57q104 23 129 142l86 487h-670l-86 -487q-10 -59 12.5 -95t65.5 -47l-19 -57h-444l2 57q47 10 83 47t46 95l182 1034q23 117 -78 143l19 58h442l-2 -58
q-106 -29 -127 -143l-72 -408h670l72 408q10 59 -12.5 95t-65.5 48z" />
    <glyph glyph-name="I" unicode="I" horiz-adv-x="591" 
d="M37 0v57q47 10 83 47t46 95l182 1034q10 59 -12.5 95t-65.5 48l19 58h444l-2 -58q-106 -27 -129 -143l-182 -1034q-10 -57 13.5 -94t64.5 -48l-19 -57h-442z" />
    <glyph glyph-name="J" unicode="J" horiz-adv-x="550" 
d="M-164 -424q-150 0 -213 58.5t-49 134.5q10 55 51 90t90 35q53 0 81 -30t33 -67t22.5 -66.5t52.5 -29.5q78 0 128 74.5t81 255.5l211 1202q20 117 -76 143l16 58h445l-2 -58q-106 -27 -127 -143l-205 -1161q-45 -256 -188.5 -376t-350.5 -120z" />
    <glyph glyph-name="K" unicode="K" horiz-adv-x="1521" 
d="M1419 1470q133 0 198.5 -53t55.5 -143q-4 -59 -44 -92t-87 -33q-51 0 -85 23.5t-49 50t-47 50t-77 23.5q-137 0 -412 -335l443 -762q66 -121 170 -142l-17 -57h-487v57q39 10 51 44t-18 98l-316 524h-6q-111 -154 -243 -358l-29 -166q-10 -57 13.5 -94t64.5 -48l-19 -57
h-442v57q47 10 83 47t46 95l182 1034q10 59 -12.5 95t-65.5 48l19 58h444l-2 -58q-106 -27 -129 -143l-92 -520h8q160 227 297 383.5t299 265t305 108.5z" />
    <glyph glyph-name="L" unicode="L" horiz-adv-x="1200" 
d="M1231 352l59 -26l-133 -359h-20q-70 33 -271 33h-829v57q47 10 83 47t46 95l182 1034q10 59 -12.5 95t-65.5 48l19 58h444l-2 -58q-106 -27 -129 -143l-192 -1100q154 -23 301 -22q100 0 190 24.5t147.5 60t100.5 71.5t63 61z" />
    <glyph glyph-name="M" unicode="M" horiz-adv-x="1654" 
d="M778 -39q-92 0 -141 57.5t-49 145.5q0 209 246 514q-80 299 -222 496h-6l-307 -975q-35 -119 57 -142l-18 -57h-309l2 57q111 25 147 142l324 1034q37 117 -56 143l19 58h264q100 -113 180 -265.5t113 -273.5h6q25 29 100.5 121t118.5 142t120 129t155 147h282l-2 -58
q-100 -27 -106 -143l-41 -1034q-2 -57 26.5 -94t71.5 -48l-18 -57h-441l2 57q43 10 74 46t33 96l39 995h-8q-57 -55 -114.5 -117.5t-93.5 -103.5t-93.5 -109.5t-81.5 -97.5q35 -150 34 -293q0 -201 -87 -356.5t-220 -155.5zM774 66q43 0 73 62t30 175q0 111 -13 215h-8
q-137 -201 -137 -354q0 -98 55 -98z" />
    <glyph glyph-name="N" unicode="N" horiz-adv-x="1396" 
d="M1249 1434h301l-2 -58q-106 -27 -127 -143l-219 -1233h-139q-23 125 -84 241.5t-138 210t-155 185.5t-146.5 208t-101.5 236h-10l-156 -882q-10 -57 13.5 -94t66.5 -48l-18 -57h-301l2 57q45 10 81 47t46 95l182 1034q20 117 -78 143l19 58h260q49 -160 145 -319
t184.5 -264.5t169 -235.5t105.5 -242h8l152 860q20 117 -78 143z" />
    <glyph glyph-name="O" unicode="O" horiz-adv-x="1548" 
d="M752 -39q-293 0 -460 220t-112 534q57 332 284.5 543.5t543.5 211.5q291 0 454.5 -219t106.5 -542q-55 -319 -286.5 -533.5t-530.5 -214.5zM770 72q186 0 340 186t203 457q47 279 -45 462t-279 183q-195 0 -347.5 -179.5t-201.5 -459.5q-49 -268 44 -458.5t286 -190.5z
" />
    <glyph glyph-name="P" unicode="P" horiz-adv-x="1417" 
d="M1006 1434q266 0 405 -142.5t102 -351.5q-39 -219 -231 -365.5t-489 -146.5q-170 0 -324 53l-49 -282q-10 -57 13.5 -94t64.5 -48l-19 -57h-444l2 57q47 10 83 47t46 95l182 1034q23 117 -78 143l19 58h717zM1255 940q29 160 -75.5 270.5t-288.5 110.5q-160 0 -279 -27
l-120 -686q133 -63 284 -63q199 0 324.5 114.5t154.5 280.5z" />
    <glyph glyph-name="Q" unicode="Q" horiz-adv-x="1638" 
d="M1298 -424q-98 0 -188 35t-161.5 96.5t-128 124t-113.5 133.5q-16 23 -25 33q-168 -37 -301 -37q-150 0 -240 60.5t-90 169t89 166t208 57.5q133 0 238.5 -64.5t212.5 -181.5q555 258 555 717q0 207 -126 342t-345 135q-233 0 -390 -141.5t-157 -346.5q0 -143 78 -233
t225 -90q111 0 181.5 59.5t70.5 134.5q0 43 -25.5 71t-56.5 39t-56.5 40t-25.5 74q0 49 40 88t112 39q82 0 138 -65.5t56 -178.5q0 -176 -124 -291t-304 -115q-195 0 -314.5 118t-119.5 310q0 250 203.5 423t507.5 173q340 0 524 -164.5t184 -435.5q0 -539 -735 -815v-6
q16 -23 72.5 -95.5t83 -102t71.5 -76.5t85 -65.5t79 -18.5q59 0 97 25.5t55.5 60.5t33 70.5t46 61t79.5 25.5q53 0 85 -33.5t32 -80.5q0 -111 -125 -177.5t-291 -66.5zM381 68q92 0 221 28v8q-162 207 -283 207q-66 0 -108.5 -31.5t-42.5 -84.5q0 -127 213 -127z" />
    <glyph glyph-name="R" unicode="R" horiz-adv-x="1456" 
d="M1497 1026q-51 -289 -403 -375l-2 -12q59 -2 99 -21.5t62.5 -43t36 -73.5t17.5 -85t10 -109q8 -135 38.5 -187t131.5 -50l-2 -62q-98 -35 -185 -35q-49 0 -84.5 7.5t-78.5 32t-69 82t-28 145.5q-8 227 -65 299.5t-252 72.5l-229 2l-74 -415q-10 -57 13.5 -94t64.5 -48
l-19 -57h-444l2 57q47 10 83 47t46 95l182 1034q10 59 -12.5 95t-65.5 48l19 58h690q268 0 409.5 -107.5t108.5 -300.5zM883 1321q-156 0 -269 -23l-100 -569h287q193 0 302 78t136 213q25 141 -72.5 221t-283.5 80z" />
    <glyph glyph-name="S" unicode="S" horiz-adv-x="1370" 
d="M686 -37q-281 0 -433.5 115t-127.5 252q20 115 137 114q63 0 98 -37.5t52.5 -93t41 -111t89 -93t174.5 -37.5q135 0 219 56t104 161q23 131 -64 206.5t-267 139.5q-98 35 -173 72.5t-139.5 94t-90 133.5t-9.5 169q29 162 189.5 264t392.5 102q246 0 394 -117.5
t126 -246.5q-23 -113 -129 -113q-66 0 -98.5 38t-45 92.5t-31 108.5t-78 92t-163.5 38q-125 0 -208 -60.5t-99 -158.5q-18 -115 55.5 -175.5t241.5 -117.5q84 -31 144.5 -56.5t131 -70.5t110.5 -95t60.5 -124t3.5 -160q-35 -182 -202.5 -281.5t-405.5 -99.5z" />
    <glyph glyph-name="T" unicode="T" horiz-adv-x="1280" 
d="M1403 1470l45 -368l-70 -29l-11 27.5t-39 60.5t-75 76t-122.5 60.5t-178.5 27.5h-4l-196 -1124q-10 -59 13 -96t64 -48l-18 -57h-444l2 57q104 23 129 144l196 1124h-2q-98 0 -187 -25.5t-146.5 -62.5t-100.5 -75t-61 -64l-21 -25l-59 29l174 368h20q70 -37 248 -36h563
q176 0 260 36h21z" />
    <glyph glyph-name="U" unicode="U" horiz-adv-x="1390" 
d="M709 -37q-285 0 -406 158t-63 457l116 655q10 59 -12 96t-63 47l18 58h446l-2 -58q-45 -10 -80.5 -47t-48.5 -96l-114 -653q-47 -238 22.5 -372t261.5 -134q199 0 306.5 132t146.5 374l113 649q8 55 -14.5 96t-67.5 51l18 58h309l-2 -60q-49 -10 -84.5 -49t-46.5 -96
l-112 -651q-49 -289 -208 -452t-433 -163z" />
    <glyph glyph-name="V" unicode="V" horiz-adv-x="1310" 
d="M1235 1434h301l-2 -58q-106 -20 -168 -141l-598 -1143q14 -29 43 -51l-14 -41q-129 6 -275 -33h-14l-221 1268q-20 121 -119 141l18 58h451l-2 -58q-39 -8 -64.5 -45t-15.5 -96l170 -971h12l510 971q29 66 17.5 99.5t-47.5 41.5z" />
    <glyph glyph-name="W" unicode="W" horiz-adv-x="2021" 
d="M1937 1434h301l-2 -58q-104 -20 -163 -141l-549 -1151q18 -29 35 -43l-17 -41q-178 0 -285 -33h-22l-105 959h-10l-411 -842q16 -25 36 -43l-14 -41q-135 6 -282 -33h-17l-143 1268q-14 121 -113 141l23 58h452l-4 -58q-39 -8 -66.5 -45t-21.5 -96l113 -971h8l428 875
q-16 102 -74 155l23 58q152 47 278 123h15l129 -1211h12l465 971q27 66 13.5 99.5t-48.5 41.5z" />
    <glyph glyph-name="X" unicode="X" horiz-adv-x="1347" 
d="M1200 1434h326l-4 -58q-94 -18 -199 -143l-408 -483l271 -549q57 -125 147 -144l-18 -57h-486l2 57q43 10 60.5 45t-4.5 99l-213 432h-15l-368 -432q-47 -66 -40 -99.5t46 -44.5l-18 -57h-324v57q96 18 201 144l460 547l-239 485q-57 125 -150 143l19 58h487v-58
q-45 -10 -63.5 -45t6.5 -98l182 -369h14l316 369q47 66 40 99.5t-46 43.5z" />
    <glyph glyph-name="Y" unicode="Y" horiz-adv-x="1284" 
d="M383 0l2 57q45 10 81 47t46 97l84 483l-268 549q-57 125 -150 143l19 58h487l-2 -58q-43 -10 -61.5 -44t6.5 -99l198 -399h13l344 399q45 63 37.5 98t-45.5 45l20 58h324l-5 -58q-92 -18 -196 -143l-465 -549l-86 -483q-10 -59 12.5 -96t65.5 -48l-19 -57h-442z" />
    <glyph glyph-name="Z" unicode="Z" horiz-adv-x="1372" 
d="M983 -229q-168 0 -486.5 114.5t-473.5 114.5l4 61l1149 1264h-326q-102 0 -194.5 -28.5t-152 -70.5t-104.5 -84t-63 -71l-21 -29l-59 27l147 401h19q70 -37 252 -36h842l-5 -62l-1136 -1247q109 -23 234.5 -86.5t229 -114.5t179.5 -51q164 0 164 90q0 23 -31 71t-31 91
q0 55 37 92t92 37q59 0 101.5 -45t42.5 -111q0 -137 -114 -232t-296 -95z" />
    <glyph glyph-name="bracketleft" unicode="[" horiz-adv-x="798" 
d="M111 -416l288 1882h494l-14 -90h-295l-260 -1702h294l-14 -90h-493z" />
    <glyph glyph-name="backslash" unicode="\" horiz-adv-x="702" 
d="M559 -444l-446 1939h106l447 -1939h-107z" />
    <glyph glyph-name="bracketright" unicode="]" horiz-adv-x="800" 
d="M49 -416l12 90h295l260 1702h-292l14 90h493l-290 -1882h-492z" />
    <glyph glyph-name="asciicircum" unicode="^" horiz-adv-x="1095" 
d="M195 840l481 594h98l301 -594h-98l-291 346l-397 -346h-94z" />
    <glyph glyph-name="underscore" unicode="_" horiz-adv-x="1140" 
d="M12 -184l17 90h1099l-16 -90h-1100z" />
    <glyph glyph-name="grave" unicode="`" horiz-adv-x="612" 
d="M578 1157l-209 180q-55 47 -47 103q6 33 33.5 55.5t62.5 22.5q55 0 94 -62l135 -248z" />
    <glyph glyph-name="a" unicode="a" horiz-adv-x="1257" 
d="M1178 70q29 0 73 32l23 -49q-100 -92 -238 -92q-80 0 -131 49t-28 178h-9q-61 -104 -159.5 -165.5t-200.5 -61.5q-178 0 -282.5 111.5t-104.5 318.5q0 176 75.5 339t219 270.5t319.5 107.5q180 0 279 -123h6l20 84h260q-72 -139 -118 -412l-74 -417q-18 -68 -0.5 -119
t70.5 -51zM586 98q100 0 191 88t136 220l80 452q-72 119 -213 119q-137 0 -238.5 -90t-148.5 -220t-47 -276q0 -143 68 -218t172 -75z" />
    <glyph glyph-name="b" unicode="b" horiz-adv-x="1296" 
d="M905 1106q186 0 290.5 -125t104.5 -319q0 -285 -183 -493t-439 -208q-233 0 -344 176h-6l-109 -135h-67l217 1225q10 57 -17.5 94t-70.5 47l18 57q217 37 330 158l24 -6l-114 -643h10q143 172 356 172zM657 74q180 0 303 191.5t123 414.5q0 135 -63.5 219t-169.5 84
q-111 0 -207 -85t-147 -208l-78 -436q75 -180 239 -180z" />
    <glyph glyph-name="c" unicode="c" horiz-adv-x="1161" 
d="M629 -39q-219 0 -362.5 135t-116.5 406q27 276 223 441t452 165q186 0 292 -88t97 -199q-4 -55 -37.5 -94t-89.5 -39q-51 0 -80.5 28.5t-29.5 76.5q0 6 5 30.5t5 34.5q0 57 -49 99t-154 42q-141 0 -262 -146t-141 -341q-27 -203 62 -313.5t266 -110.5q113 0 223 80
t192 197l47 -33q-59 -152 -205.5 -261.5t-336.5 -109.5z" />
    <glyph glyph-name="d" unicode="d" horiz-adv-x="1286" 
d="M1200 70q29 0 74 32l20 -49q-98 -92 -235 -92q-78 0 -129 48t-33 173h-6q-66 -102 -163 -161.5t-200 -59.5q-178 0 -281.5 111.5t-103.5 318.5q0 178 72 339t217.5 269.5t333.5 108.5q158 0 266 -104h10l39 219q10 59 -16.5 96t-71.5 47l19 57q211 29 329 158l25 -6
l-238 -1335q-30 -170 72 -170zM606 98q100 0 194.5 90.5t137.5 219.5l80 454q-37 55 -96.5 85t-116.5 30q-141 0 -244.5 -91t-149.5 -220t-46 -275q0 -141 69.5 -217t171.5 -76z" />
    <glyph glyph-name="e" unicode="e" horiz-adv-x="1138" 
d="M627 88q246 0 477 246l41 -41q-106 -168 -260 -250t-320 -82q-195 0 -322.5 111.5t-127.5 330.5q0 180 82 339t243.5 262.5t368.5 103.5q158 0 263.5 -65.5t105.5 -194.5q0 -100 -67 -173t-192.5 -117t-260 -68.5t-318.5 -40.5q-2 -14 -2 -39q0 -156 91.5 -239t197.5 -83
zM780 997q-145 0 -268 -128t-162 -324q166 14 299 49t224.5 101.5t91.5 154.5q0 68 -50.5 107.5t-134.5 39.5z" />
    <glyph glyph-name="f" unicode="f" horiz-adv-x="708" 
d="M774 1577q94 0 159.5 -35t65.5 -94q0 -41 -28.5 -67.5t-73.5 -26.5q-39 0 -62.5 17.5t-31.5 40t-25.5 39.5t-46.5 17q-37 0 -71.5 -61t-53.5 -170l-26 -168h274l-18 -113h-275l-141 -890q-41 -266 -171 -394.5t-370 -128.5q-72 0 -141.5 34t-67.5 95q0 45 30 72t75 27
q55 0 103 -58.5t89 -58.5q154 0 199 272l170 1030h-172l22 113h168l15 82q37 213 135 319.5t270 106.5z" />
    <glyph glyph-name="g" unicode="g" horiz-adv-x="1296" 
d="M1284 1253q61 0 101 -30.5t40 -83.5q0 -45 -27.5 -76t-80.5 -31q-37 0 -79 32t-69 32q-45 0 -90 -64q166 -117 127 -348q-33 -188 -182.5 -300t-357.5 -112q-162 0 -273 70q-90 -6 -100 -68q-12 -61 75 -92.5t357 -70.5q246 -37 341 -108t83 -181q-12 -133 -169 -205
t-384 -72q-84 0 -169 13.5t-180 44t-149.5 98.5t-46.5 162q8 63 51 110t105 66v8q-109 74 -84 195q14 68 68.5 110.5t123.5 50.5v7q-94 113 -63 288q33 186 184.5 298t364.5 112q117 0 205 -37q116 182 278 182zM1004 686q25 145 -41 229t-185 84q-121 0 -211 -81.5
t-112 -219.5q-25 -145 40.5 -232t188.5 -87q121 0 209 83t111 224zM346 -14q-51 -8 -84 -43t-39 -82q-10 -70 55.5 -122t155.5 -73.5t178 -19.5q152 0 243 41t91 98q0 53 -58.5 79.5t-248.5 57.5q-164 25 -293 64z" />
    <glyph glyph-name="h" unicode="h" 
d="M1300 102l19 -49q-100 -92 -232 -92q-35 0 -63.5 8t-60 33t-37.5 70t6 118l106 472q35 143 -11 227t-163 84q-123 0 -241.5 -138.5t-153.5 -330.5q-27 -150 -38 -276t-9 -177v-51h-258l209 1223q14 59 -11.5 96t-70.5 47l18 57q203 29 326 158l24 -8l-127 -705h21
q162 238 403 238q184 0 268.5 -120t32.5 -337l-94 -409q-20 -68 -6 -119t68 -51q30 -1 75 32z" />
    <glyph glyph-name="i" unicode="i" horiz-adv-x="542" 
d="M465 1241q-70 0 -112 44t-42 103.5t42 103.5t112 44t113 -44t43 -103.5t-43 -103.5t-113 -44zM334 -39q-80 0 -131 49t-29 180l98 568q10 59 -16.5 95t-69.5 46l19 57q211 31 327 160l27 -10l-153 -866q-16 -68 0 -119t67 -51q31 0 76 32l20 -49q-98 -92 -235 -92z" />
    <glyph glyph-name="j" unicode="j" horiz-adv-x="534" 
d="M461 1241q-70 0 -112 44t-42 103.5t42 103.5t112 44q68 0 111.5 -44t43.5 -103.5t-43.5 -103.5t-111.5 -44zM-98 -455q-104 0 -173 41t-67 105q6 86 96 86q59 0 105.5 -60.5t97.5 -60.5q104 0 131 145l160 957q10 59 -16.5 95t-71.5 46l18 57q211 29 330 158l25 -8
l-203 -1167q-37 -205 -137 -299.5t-295 -94.5z" />
    <glyph glyph-name="k" unicode="k" horiz-adv-x="1208" 
d="M1237 137l35 -49q-109 -127 -264 -127q-162 0 -293 148.5t-191 349.5q-16 -2 -53 -2q-63 -213 -57 -457h-262l208 1225q14 59 -11 96t-70 47l18 57q205 29 328 158l22 -8l-137 -772h16q113 158 249 232.5t267 74.5q78 0 134.5 -40t56.5 -118q0 -129 -140.5 -256
t-336.5 -194q152 -414 370 -414q54 0 111 49zM903 922q-117 0 -225.5 -101.5t-175.5 -277.5q184 6 332.5 102t148.5 205q0 31 -19.5 51.5t-60.5 20.5z" />
    <glyph glyph-name="l" unicode="l" horiz-adv-x="577" 
d="M356 -39q-80 0 -132 49t-29 180l182 1033q12 59 -15.5 96t-72.5 47l18 57q211 29 332 158l25 -6l-238 -1335q-35 -170 70 -170q29 0 73 32l23 -49q-101 -92 -236 -92z" />
    <glyph glyph-name="m" unicode="m" horiz-adv-x="1812" 
d="M1870 102l18 -49q-106 -92 -233 -92q-35 0 -63.5 8t-60.5 33t-38 70t6 118l107 472q78 311 -127 311q-109 0 -211.5 -139.5t-139.5 -337.5q-25 -143 -37 -267.5t-12 -177.5v-53h-258l115 664q33 143 11.5 227t-126.5 84q-109 0 -211 -137.5t-137 -331.5
q-27 -150 -39 -276t-12 -179v-51h-258l131 760q10 59 -16.5 95t-71.5 46l18 57q211 29 330 160l27 -10l-43 -238h12q88 127 174 182.5t195 55.5q238 0 254 -248h12q158 248 385 248q170 0 238.5 -118t17.5 -339l-96 -409q-20 -68 -6 -119t67 -51q29 -1 78 32z" />
    <glyph glyph-name="n" unicode="n" horiz-adv-x="1243" 
d="M1300 102l21 -49q-106 -92 -242 -92q-35 0 -62.5 8t-57 33t-34.5 70t7 118l104 472q35 143 -10 227t-162 84q-123 0 -241.5 -138.5t-153.5 -330.5q-27 -150 -38 -276t-9 -179v-51h-258l131 760q10 59 -16.5 95t-71.5 46l18 57q213 29 330 160l27 -10l-45 -238h14
q166 238 405 238q182 0 267.5 -120t36.5 -337l-97 -409q-20 -68 -6 -119t68 -51q30 -1 75 32z" />
    <glyph glyph-name="o" unicode="o" horiz-adv-x="1232" 
d="M602 -39q-252 0 -383 168t-90 416q39 244 218 403.5t423 159.5q246 0 376 -165t89 -417q-39 -246 -215 -405.5t-418 -159.5zM623 72q141 0 249.5 129t137.5 325q31 203 -43 337t-219 134q-141 0 -253 -128t-141 -324q-31 -199 44 -336t225 -137z" />
    <glyph glyph-name="p" unicode="p" horiz-adv-x="1275" 
d="M883 1108q188 0 291.5 -126t103.5 -323q0 -291 -181.5 -494.5t-428.5 -203.5q-199 0 -301 135h-7l-57 -315q-12 -59 11.5 -96t64.5 -45l-17 -60h-411l2 60q45 8 81 44.5t46 96.5l172 977q12 57 -15.5 94t-70.5 47l18 57q217 31 332 160l25 -10l-31 -174h8
q146 176 365 176zM637 72q180 0 302 191.5t122 414.5q0 135 -62.5 219t-171.5 84q-111 0 -212 -87t-150 -210l-74 -416q33 -88 94.5 -142t151.5 -54z" />
    <glyph glyph-name="q" unicode="q" horiz-adv-x="1275" 
d="M1036 -219q-10 -59 13.5 -96t64.5 -45l-18 -60h-410l2 60q45 8 81 44.5t46 96.5l72 407h-10q-61 -104 -164 -165.5t-207 -61.5q-178 0 -282.5 111.5t-104.5 318.5q0 176 76.5 339t222 270.5t323.5 107.5q119 0 208 -50t138 -122h9l100 131h68zM584 98q102 0 201.5 93.5
t142.5 226.5l80 438q-90 121 -226 121q-137 0 -239.5 -91t-150.5 -221t-48 -273.5t68 -218.5t172 -75z" />
    <glyph glyph-name="r" unicode="r" horiz-adv-x="1003" 
d="M915 1106q104 0 157.5 -52.5t41.5 -125.5q-10 -59 -53 -102.5t-107 -43.5q-51 0 -79.5 24.5t-38 53.5t-30 53.5t-54.5 24.5q-74 0 -162 -128t-127 -325q-23 -123 -34 -244.5t-11 -183.5l2 -59h-260l131 760q10 59 -16.5 95t-69.5 46l18 57q211 31 330 160l25 -10
l-41 -213h12q176 213 366 213z" />
    <glyph glyph-name="s" unicode="s" horiz-adv-x="1163" 
d="M584 -39q-207 0 -347.5 81t-134.5 185q4 47 35 75t78 28q45 0 70.5 -27t42 -64.5t38 -75.5t76 -64.5t140.5 -26.5q127 0 211 51t92 133q8 61 -40 104t-91 57.5t-144 39.5q-14 4 -22 6q-74 18 -129.5 38.5t-115.5 57.5t-91 96.5t-23 135.5q10 135 144.5 226t347.5 91
q188 0 307 -72.5t111 -171.5q-4 -41 -28 -68.5t-69 -27.5q-47 0 -69.5 23.5t-31.5 57.5t-23.5 67.5t-62.5 57t-134 23.5q-111 0 -188.5 -46t-86.5 -120q-2 -27 6.5 -50t31 -40.5t41 -30t57.5 -23.5t57 -15t61 -13.5t52 -11.5q84 -18 145 -40.5t120.5 -61.5t87.5 -100.5
t19 -143.5q-12 -133 -149 -236.5t-391 -103.5z" />
    <glyph glyph-name="t" unicode="t" horiz-adv-x="727" 
d="M434 -39q-133 0 -192.5 65.5t-30.5 219.5l123 708h-178l14 76q145 45 233.5 123t155.5 219h74l-53 -305l280 2l-18 -113l-283 -2l-127 -723q-29 -156 98 -155q78 0 140 22l10 -88q-107 -49 -246 -49z" />
    <glyph glyph-name="u" unicode="u" horiz-adv-x="1232" 
d="M1286 102l23 -49q-104 -92 -240 -92q-78 0 -130 49t-30 180l2 11h-10q-162 -240 -395 -240q-193 0 -273.5 118t-19.5 341l115 407q45 172 -58 172q-29 0 -75 -34l-25 49q109 94 240 94q80 0 132 -50t17 -179l-127 -473q-43 -145 -2 -227.5t164 -82.5q117 0 226.5 127
t150.5 316l22 127q18 121 26.5 221t6.5 141l-2 39h258l-139 -827q-16 -68 0 -119t67 -51q31 -1 76 32z" />
    <glyph glyph-name="v" unicode="v" horiz-adv-x="1316" 
d="M1210 1108q70 0 113 -55.5t39 -155.5q-4 -127 -54.5 -300t-142.5 -308q-217 -328 -520 -328q-143 0 -239.5 89t-94.5 229q4 252 316 567l-4 10l-207 2q-78 0 -136.5 -26.5t-66.5 -79.5q-6 -37 23 -66l-50 -27q-70 70 -55 166q6 94 85 169t224 73h447l6 -14l-25 -33
q-23 -31 -34 -47.5t-38.5 -57.5t-45 -69.5t-44 -74.5t-45 -82t-40 -83t-35 -88t-23.5 -85t-12 -85q-6 -135 54.5 -199.5t154.5 -64.5q86 0 175 70.5t159 183.5q102 168 106 354q2 49 -11 83t-32.5 53.5t-39 38t-33 47t-11.5 67.5q2 51 40 89t97 38z" />
    <glyph glyph-name="w" unicode="w" horiz-adv-x="1867" 
d="M1874 897q8 -119 -24.5 -296t-108.5 -314q-172 -326 -438 -326q-90 0 -172 56.5t-109 162.5h-14q-168 -219 -387 -219q-137 0 -225.5 88t-86.5 230q6 256 318 567l-4 10l-203 2q-82 0 -140.5 -26.5t-66.5 -79.5q-6 -37 23 -66l-50 -27q-70 70 -55 166q6 94 85 169t224 73
h447l6 -14q-4 -4 -31.5 -43t-48 -68t-55.5 -82t-61.5 -97t-56.5 -105.5t-50.5 -115t-33.5 -113.5t-15 -114q-2 -131 57 -181t141 -50q123 0 263.5 201.5t150.5 367.5q6 88 -16.5 176.5t-20.5 145.5q2 53 37 93t94 40q47 0 78 -39t31 -92q-2 -66 -38 -158t-74 -208.5
t-44 -239.5q-6 -143 45 -215t146 -72q82 0 158.5 70.5t121.5 177.5q76 172 60 360q-2 57 -26 96t-51.5 56.5t-51 50.5t-23.5 82q0 53 37 92t98 39q70 0 114 -55.5t46 -155.5z" />
    <glyph glyph-name="x" unicode="x" horiz-adv-x="1325" 
d="M1235 1108q84 0 144.5 -50t58.5 -122q-2 -57 -37 -93t-84 -36q-47 0 -77 20.5t-40 45t-30.5 45t-51.5 20.5q-76 0 -180 -174q-41 -63 -111 -197l107 -221q102 -262 229 -262q59 0 117 53l39 -49q-94 -127 -250 -127q-117 0 -212 67.5t-171 250.5l-31 61l-4 -8h-16
q-35 -63 -86 -135q-90 -139 -165 -188.5t-183 -49.5q-86 0 -145.5 50t-57.5 120q2 57 37 93t84 36q47 0 76.5 -20.5t40 -45t30 -45t49.5 -20.5q78 0 185 176q43 72 92 164l-148 291q-29 61 -87 97t-119 44l2 57q80 8 173 46t124 114l28 -10l201 -414h10q43 78 111 178
q90 139 166 188.5t182 49.5z" />
    <glyph glyph-name="y" unicode="y" horiz-adv-x="1277" 
d="M1141 1108q72 0 110.5 -49t34.5 -119q-14 -158 -132 -421t-230 -447q-12 -18 -84 -127q-123 -188 -245 -295t-261 -107q-72 0 -120 41t-44 99q2 55 42 89.5t95 34.5q53 0 96 -37.5t60 -37.5q70 0 124 48t132 163q-63 397 -133 630.5t-135.5 316.5t-147.5 83
q-68 0 -127 -47l-37 47q109 127 271 127q178 0 293.5 -204t185.5 -671h12q184 313 201 510q4 45 -50.5 117t-50.5 139q2 53 43.5 85t96.5 32z" />
    <glyph glyph-name="z" unicode="z" horiz-adv-x="1388" 
d="M143 -39q-20 0 -35.5 13.5t-17.5 35.5q-4 59 67.5 139t190.5 127l674 519v12q-74 18 -201 104t-215 86q-55 0 -86 -36.5t-42 -80.5t-43 -81t-87 -37q-49 0 -83 32.5t-34 84.5q0 98 98.5 163.5t233.5 65.5q139 0 316.5 -52t283.5 -52q47 0 104.5 34.5t80.5 69.5h18l41 -45
q-16 -45 -49 -91t-83 -94.5t-87 -78t-96 -76.5q-213 -168 -576 -440v-13q109 -25 252 -110.5t240 -85.5q68 0 104.5 28.5t36.5 71.5q0 23 -29.5 65t-29.5 85q0 59 35.5 98t95.5 39q61 0 101 -42t40 -110q0 -145 -106.5 -246.5t-276.5 -101.5q-164 0 -336 56.5t-274 56.5
q-66 0 -105 -29t-64.5 -56.5t-56.5 -27.5z" />
    <glyph glyph-name="braceleft" unicode="{" horiz-adv-x="804" 
d="M635 -440q-190 0 -296 102t-48 299l90 315q27 92 -24.5 143.5t-163.5 51.5l18 115q113 0 179.5 52t68.5 144l6 316q2 197 138 299t327 102l-8 -63q-98 0 -174 -54.5t-76 -167.5l-4 -335q-4 -145 -91.5 -229.5t-209.5 -114.5l-2 -11q115 -33 176 -116.5t18 -227.5
l-98 -336q-33 -113 25.5 -167t156.5 -54z" />
    <glyph glyph-name="bar" unicode="|" horiz-adv-x="1110" 
d="M416 -444l297 1931h104l-297 -1931h-104z" />
    <glyph glyph-name="braceright" unicode="}" horiz-adv-x="829" 
d="M4 -440l10 63q98 0 173 54.5t77 166.5l4 336q2 145 90 229.5t211 114.5l2 11q-115 31 -176 114.5t-18 229.5l98 335q33 113 -25.5 167.5t-158.5 54.5l8 63q190 0 296.5 -102.5t49.5 -298.5l-92 -316q-27 -92 24.5 -144t165.5 -52l-18 -113q-113 0 -180.5 -52t-69.5 -145
l-6 -315q-2 -197 -139.5 -299t-325.5 -102z" />
    <glyph glyph-name="asciitilde" unicode="~" horiz-adv-x="1165" 
d="M803 559q-66 0 -124 28.5t-93 64.5t-79 64.5t-85 28.5q-57 0 -93 -34.5t-48 -120.5h-93q27 170 113 252t209 82q66 0 126 -29t95 -64.5t80 -64.5t84 -29q59 0 94 34t47 120h88q-27 -168 -111.5 -250t-209.5 -82z" />
    <glyph glyph-name="uni00A0" unicode="&#xa0;" horiz-adv-x="665" 
 />
    <glyph glyph-name="exclamdown" unicode="&#xa1;" horiz-adv-x="704" 
d="M438 1147q-70 0 -109.5 44t-29.5 116q12 72 66.5 116.5t122 44.5t107.5 -45t30 -116q-12 -70 -66.5 -115t-120.5 -45zM256 -39q-68 0 -105.5 46t-21.5 153q14 94 95 331.5t128 518.5h131q-39 -281 -29.5 -522.5t-4.5 -327.5q-16 -106 -70.5 -152.5t-122.5 -46.5z" />
    <glyph glyph-name="cent" unicode="&#xa2;" horiz-adv-x="1368" 
d="M952 1223q168 -12 265.5 -101.5t82.5 -189.5q-6 -43 -41.5 -77t-80.5 -34q-51 0 -76 32t-34 77t-23.5 90t-60.5 76.5t-130 31.5q-123 0 -237.5 -107.5t-135.5 -248.5q-35 -207 60.5 -318.5t277.5 -111.5q117 0 223.5 65.5t161.5 159.5l47 -18q-47 -129 -168.5 -229.5
t-289.5 -118.5l-31 -201h-137l30 201q-197 23 -301 159t-71 340q33 213 181 352.5t353 166.5l35 215h135z" />
    <glyph glyph-name="sterling" unicode="&#xa3;" horiz-adv-x="1247" 
d="M1276 469q49 -29 75.5 -88t16.5 -125q-23 -141 -111 -218t-229 -77q-31 0 -60.5 5t-62.5 18.5t-55.5 23.5t-59 35t-52 35t-57.5 41t-54 39q-76 -94 -180.5 -144.5t-213.5 -50.5q-127 0 -194.5 59.5t-50.5 159.5q16 102 108 161.5t201 59.5q92 0 207 -28q2 45 -5 94
t-15.5 79t-27 87t-24.5 82h-285l21 135h235q-10 84 5 172q35 213 196.5 329.5t382.5 116.5q190 0 296 -93t83 -226q-10 -68 -51 -114t-101 -46q-53 0 -80.5 30t-19.5 73q4 23 23.5 59.5t21.5 54.5q12 61 -42 106.5t-152 45.5q-119 0 -206 -88t-106 -211q-14 -88 15 -209h366
l-20 -135h-307q55 -176 36 -287q-12 -72 -36 -133q20 -10 79.5 -38t85 -39t69.5 -28.5t78 -23.5t66 -6q68 0 121.5 38t65.5 107q6 41 -10.5 71t-38.5 40zM244 82q72 0 136 47t97 121q-98 47 -188 47q-63 0 -112.5 -29.5t-57.5 -81.5q-6 -45 30 -74.5t95 -29.5z" />
    <glyph glyph-name="currency" unicode="&#xa4;" horiz-adv-x="1619" 
d="M1266 240l-174 206q-127 -82 -283 -81q-154 0 -256 81l-238 -204l-102 123l240 204q-66 113 -41 269q25 152 127 268l-177 207l142 121l174 -207q135 84 282.5 84t253.5 -84l240 209l107 -123l-244 -207q66 -115 41 -268.5t-127 -268.5l176 -207zM838 541q123 0 223 87
t121 210q20 121 -53.5 209t-196.5 88q-121 0 -222.5 -88.5t-121.5 -208.5q-20 -123 54.5 -210t195.5 -87z" />
    <glyph glyph-name="yen" unicode="&#xa5;" horiz-adv-x="1316" 
d="M1178 1434h323v-58q-94 -18 -198 -143l-359 -432h285l-21 -121h-360l-31 -191h363l-21 -122h-360l-27 -166q-8 -59 15.5 -96t64.5 -48l-16 -57h-443v57q106 25 125 144l27 166h-359l19 122h358l31 191h-361l21 121h281l-220 432q-63 125 -151 143l16 58h486v-58
q-41 -10 -59.5 -44t5.5 -99l209 -399h13l333 399q47 66 39 99.5t-47 43.5z" />
    <glyph glyph-name="brokenbar" unicode="&#xa6;" horiz-adv-x="1110" 
d="M750 1055l-39 -248h4l-125 -819h-105l37 248h-4l127 819h105z" />
    <glyph glyph-name="section" unicode="&#xa7;" horiz-adv-x="1110" 
d="M684 1368q-96 0 -172 -53t-88 -131q-6 -39 13.5 -69t69.5 -53.5t82 -33.5t97 -27q20 -6 31 -8q188 -47 277 -119.5t65 -222.5q-18 -98 -115 -194q76 -72 55 -189q-23 -127 -158.5 -217t-314.5 -90q-201 0 -312.5 80t-94.5 180q6 39 36.5 68.5t71.5 29.5q43 0 65.5 -26.5
t34 -63t29 -74.5t69.5 -65t138 -27q96 0 166 52.5t84 132.5q16 96 -149 151q-37 12 -146 39q-188 49 -276 121t-64 221q16 102 111 201q-68 74 -51 184q20 125 157 215t313.5 90t283 -78.5t87.5 -174.5q-6 -45 -35.5 -74t-74.5 -29t-64.5 26.5t-25 63.5t-15.5 74t-54 63.5
t-126 26.5zM635 834q-182 41 -268 90q-27 -47 -35 -88q-14 -90 61.5 -148.5t206.5 -87.5q178 -41 260 -84q37 47 45 94q29 154 -270 224z" />
    <glyph glyph-name="dieresis" unicode="&#xa8;" horiz-adv-x="770" 
d="M383 1247q-57 0 -87 36t-22 85q12 51 54.5 88t99.5 37t87 -37t20 -88q-10 -49 -52.5 -85t-99.5 -36zM755.5 1247q-57.5 0 -87 36t-21.5 85q12 51 53 88t98.5 37t88.5 -37t20 -88q-10 -49 -52 -85t-99.5 -36z" />
    <glyph glyph-name="copyright" unicode="&#xa9;" horiz-adv-x="1669" 
d="M823 -35q-315 0 -504.5 220.5t-142.5 531.5q47 309 305 530t572 221q315 0 503.5 -220t141.5 -531q-47 -309 -304.5 -530.5t-570.5 -221.5zM833.5 39q282.5 0 514 198.5t274.5 479t-127 478.5t-455 198q-283 0 -514 -199t-274 -477q-41 -281 129 -479.5t452.5 -198.5z
M868 256q-195 0 -297 129t-69 344q29 190 172 323.5t334 133.5q45 0 128 -11.5t138 -11.5h29l16 -272l-45 -10q-66 225 -262 225q-131 0 -220.5 -105.5t-115.5 -273.5q-27 -180 31.5 -282.5t189.5 -102.5q113 0 200 68.5t128 158.5l67 -16q-51 -131 -162.5 -214t-261.5 -83z
" />
    <glyph glyph-name="ordfeminine" unicode="&#xaa;" horiz-adv-x="663" 
d="M758 1034q14 0 26 13l9 -25q-41 -39 -107 -39q-90 0 -76 90h-6q-55 -90 -147 -90q-76 0 -120 47t-44 135q0 117 74.5 211t185.5 94q82 0 115 -51h4l14 51h127q-35 -63 -59 -204l-29 -160q-14 -72 33 -72zM500 1051q37 0 71.5 33.5t55.5 86.5l30 191q-27 45 -79 45
q-80 0 -126 -73.5t-46 -166.5q0 -55 26.5 -85.5t67.5 -30.5zM266 821l15 82h458l-14 -82h-459z" />
    <glyph glyph-name="guillemotleft" unicode="&#xab;" horiz-adv-x="1083" 
d="M459 8l-342 430l16 101l473 430l51 -39l-299 -443l164 -442zM877 8l-340 430l14 101l475 430l49 -39l-297 -443l162 -442z" />
    <glyph glyph-name="logicalnot" unicode="&#xac;" horiz-adv-x="1294" 
d="M1040 489l68 349h-938l25 133h1075l-92 -482h-138z" />
    <glyph glyph-name="uni00AD" unicode="&#xad;" horiz-adv-x="530" 
d="M115 434l22 123h414l-23 -123h-413z" />
    <glyph glyph-name="registered" unicode="&#xae;" horiz-adv-x="956" 
d="M643 1470q168 0 270.5 -118.5t77.5 -286.5q-27 -164 -165 -282.5t-306 -118.5t-270.5 118.5t-77.5 282.5q27 168 165 286.5t306 118.5zM920 1065q20 141 -63 238.5t-224 97.5t-255 -97.5t-134 -238.5q-20 -137 63.5 -234.5t223 -97.5t254.5 97.5t135 234.5zM645 1286
q82 0 126 -32.5t36 -90.5q-12 -88 -123 -112l-2 -7q43 -4 56.5 -25.5t19.5 -68.5q2 -23 3 -29t5 -18t13 -15t26 -3l-2 -25q-37 -10 -70 -10q-86 0 -92 82q-4 66 -21.5 85t-72.5 19h-37l-16 -104q-4 -45 24 -51l-6 -23h-160v23q33 8 39 51l43 280q6 43 -24 50l8 24h227z
M702 1159q4 39 -22.5 61.5t-75.5 22.5q-29 0 -61 -4l-25 -156h68q102 0 116 76z" />
    <glyph glyph-name="macron" unicode="&#xaf;" horiz-adv-x="724" 
d="M268 1284l23 125h569l-24 -125h-568z" />
    <glyph glyph-name="degree" unicode="&#xb0;" horiz-adv-x="647" 
d="M418 1036q-90 0 -142.5 64.5t-35.5 150.5q18 90 94 154.5t168 64.5q90 0 141 -64.5t35 -154.5q-16 -86 -93 -150.5t-167 -64.5zM434 1118q55 0 103.5 39t56.5 94q12 57 -19.5 97.5t-89.5 40.5q-55 0 -102 -40t-59 -98q-10 -57 21.5 -95t88.5 -38z" />
    <glyph glyph-name="plusminus" unicode="&#xb1;" horiz-adv-x="1445" 
d="M702 201l91 465h-496l20 112h496l94 494h111l-94 -494h497l-20 -112h-498l-88 -465h-113zM170 0l18 102h1104l-18 -102h-1104z" />
    <glyph glyph-name="uni00B2" unicode="&#xb2;" horiz-adv-x="444" 
d="M578 1282q-16 -102 -99.5 -176t-212.5 -137v-4h76q119 0 188 69l25 -12l-70 -148h-346l8 60q74 51 107 75.5t87 72.5t82 96.5t36 103.5q8 53 -14.5 84t-69.5 31q-49 0 -90 -35t-54 -98l-36 6q16 82 76.5 129t140.5 47q84 0 131 -45t35 -119z" />
    <glyph glyph-name="uni00B3" unicode="&#xb3;" horiz-adv-x="430" 
d="M299 860q-68 0 -117 25.5t-41 70.5q8 51 58 52q23 0 35 -15.5t15 -35t16.5 -35t39.5 -15.5q51 0 86 34t45 93.5t-18.5 96t-87.5 36.5h-21l6 43h21q47 0 76.5 29t36 68t-14 64.5t-65.5 25.5q-41 0 -76 -30t-47 -83l-33 6q16 72 71.5 113t131.5 41q80 0 118.5 -36t30.5 -89
q-12 -88 -110 -119l-2 -4q53 -10 82.5 -50t21.5 -95q-14 -82 -83 -136.5t-175 -54.5z" />
    <glyph glyph-name="acute" unicode="&#xb4;" horiz-adv-x="628" 
d="M430 1157l-51 51l227 248q66 61 117 62q37 0 55.5 -24t12.5 -54q-12 -57 -84 -103z" />
    <glyph glyph-name="mu" unicode="&#xb5;" horiz-adv-x="1251" 
d="M1198 90q39 0 82 23l8 -93q-84 -57 -205 -57q-186 0 -163 178h-7q-158 -178 -360 -178q-102 0 -166 29q6 -41 19.5 -103.5t18.5 -103.5t-1 -72q-14 -70 -63.5 -108.5t-112.5 -38.5q-61 0 -96 44t-23 114l117 593q2 14 10 68l109 573h221l-111 -585q-57 -274 182 -275
q100 0 185.5 67.5t113.5 170.5l119 622h219l-143 -759q-21 -109 47 -109z" />
    <glyph glyph-name="paragraph" unicode="&#xb6;" horiz-adv-x="1218" 
d="M479 -416q-141 0 -219 54.5t-65 130.5q8 47 41.5 76.5t76.5 29.5q45 0 74 -27.5t42 -59.5t47 -59.5t85 -27.5q268 0 322 360l100 660q-207 0 -305 102.5t-76 255.5q25 158 152 256.5t303 98.5h303l-2 -48q-121 -33 -137 -143l-174 -1139q-41 -264 -195 -392t-373 -128z
" />
    <glyph glyph-name="periodcentered" unicode="&#xb7;" horiz-adv-x="653" 
d="M368.5 635q-67.5 0 -107.5 45t-25 117q14 70 68 113.5t122 43.5q66 0 105.5 -44t25.5 -113q-12 -72 -66.5 -117t-122 -45z" />
    <glyph glyph-name="cedilla" unicode="&#xb8;" horiz-adv-x="763" 
d="M279 -475q-102 0 -163 40t-50 93q4 29 28.5 49.5t52.5 20.5q35 0 51.5 -19.5t19.5 -44t24.5 -44t64.5 -19.5q59 0 97 28.5t49 73.5q6 33 -13.5 53.5t-56.5 20.5q-47 0 -88 -31l-51 27l168 272l84 -37l-90 -143q31 10 61 10q76 0 116 -37t25 -104q-14 -84 -106 -146.5
t-223 -62.5z" />
    <glyph glyph-name="uni00B9" unicode="&#xb9;" horiz-adv-x="264" 
d="M139 874v25q57 14 68 62l57 370h-55v29l156 74h36l-75 -473q-6 -45 45 -62l-9 -25h-223z" />
    <glyph glyph-name="ordmasculine" unicode="&#xba;" horiz-adv-x="710" 
d="M546.5 983q-106.5 0 -162.5 69.5t-40 178.5q16 104 92 171.5t182.5 67.5t162 -69.5t39 -176t-91.5 -174t-181.5 -67.5zM557 1036q55 0 96 53.5t53.5 135.5t-15 137t-83.5 55q-53 0 -96 -53t-53 -135q-14 -82 13.5 -137.5t84.5 -55.5zM285 821l14 82h459l-15 -82h-458z
" />
    <glyph glyph-name="guillemotright" unicode="&#xbb;" horiz-adv-x="1089" 
d="M166 8l-49 37l299 442l-164 443l63 39l342 -430l-14 -101zM586 8l-51 37l299 442l-164 443l63 39l344 -430l-16 -101z" />
    <glyph glyph-name="onequarter" unicode="&#xbc;" horiz-adv-x="962" 
d="M723 901l-8 -24h-223l2 24q59 16 67 60l72 370h-58l3 29l157 74h35l-90 -473q-6 -46 43 -60zM256 764h651l-18 -90h-651zM645 555l-70 -371h91l-21 -47h-78l-10 -53q-10 -45 43 -59l-6 -25h-225v25q57 14 67 59l10 53h-239l6 35l346 383h86zM281 184h176l45 238h-4
l-215 -236z" />
    <glyph glyph-name="onehalf" unicode="&#xbd;" horiz-adv-x="911" 
d="M696 901l-8 -24h-223l2 24q59 14 68 60l71 370h-55v29l158 74h36l-92 -473q-6 -46 43 -60zM229 764h652l-19 -90h-651zM516 569q84 0 129 -45t31 -118q-20 -102 -104.5 -175t-217.5 -139v-4h80q121 0 191 70l24 -11l-78 -161h-10q-33 14 -102 14h-234l11 59
q72 47 108.5 74t90.5 74t83 95t39 104q10 53 -11.5 84.5t-68.5 31.5t-91 -35.5t-56 -99.5l-35 6q16 80 78.5 128t142.5 48z" />
    <glyph glyph-name="threequarters" unicode="&#xbe;" horiz-adv-x="978" 
d="M594 864q-68 0 -115 25.5t-39 71.5q10 51 60 51q23 0 34 -15.5t14 -34t15 -34t39 -15.5q53 0 89 34t46 91q10 61 -16.5 97t-85.5 36h-19l9 43h20q45 0 77 29t38 70q6 37 -13.5 62.5t-64.5 25.5q-41 0 -76 -30t-49 -81l-33 4q20 72 75.5 114t131.5 42q80 0 118 -37t28 -90
q-16 -84 -117 -119v-4q53 -10 80.5 -50t17.5 -95q-14 -82 -86 -136.5t-178 -54.5zM272 764h652l-19 -90h-651zM662 555l-70 -371h90l-20 -47h-78l-11 -53q-10 -45 43 -59l-6 -25h-225v25q57 14 68 59l10 53h-240l6 35l346 383h87zM297 184h176l45 238h-4l-215 -236z" />
    <glyph glyph-name="questiondown" unicode="&#xbf;" horiz-adv-x="1083" 
d="M766 1151q-68 0 -109 45t-28 115q10 72 63 117t121 45t109 -45.5t28 -116.5q-8 -70 -62 -115t-122 -45zM610 -37q-225 0 -404 174t-181 361q0 102 54 171.5t153.5 103.5t198.5 47.5t226 15.5l27 178h133l-57 -377h-80q-72 0 -126 -2t-129 -13.5t-124 -30t-84 -55
t-35 -87.5q2 -127 106.5 -248t229.5 -121q49 0 82 20.5t50.5 49t33.5 57.5t48 49t79 20t80 -34.5t33 -83.5q2 -92 -86.5 -143.5t-227.5 -51.5z" />
    <glyph glyph-name="Agrave" unicode="&#xc0;" horiz-adv-x="1325" 
d="M604 1702q-55 47 -45 102q4 31 30.5 54.5t63.5 23.5q53 0 97 -61l135 -248l-72 -51zM1204 199q12 -61 48 -97t79 -45l-18 -57h-453l2 57q39 8 62.5 44t11.5 98l-39 188h-543l-104 -188q-33 -68 -22.5 -100.5t44.5 -41.5l-18 -57h-299l2 57q111 20 176 142l567 1022
q-29 33 -88 49l15 57q174 59 299 141h16zM426 518h446l-116 580h-8z" />
    <glyph glyph-name="Aacute" unicode="&#xc1;" horiz-adv-x="1325" 
d="M1044 1702l-276 -180l-53 51l229 248q61 61 117 61q35 0 53.5 -22.5t11.5 -55.5q-8 -55 -82 -102zM1204 199q12 -61 48 -97t79 -45l-18 -57h-453l2 57q39 8 62.5 44t11.5 98l-39 188h-543l-104 -188q-33 -68 -22.5 -100.5t44.5 -41.5l-18 -57h-299l2 57q111 20 176 142
l567 1022q-29 33 -88 49l15 57q174 59 299 141h16zM426 518h446l-116 580h-8z" />
    <glyph glyph-name="Acircumflex" unicode="&#xc2;" horiz-adv-x="1325" 
d="M842 1649l-305 -138l-33 66l368 268l283 -268l-53 -66zM1204 199q12 -61 48 -97t79 -45l-18 -57h-453l2 57q39 8 62.5 44t11.5 98l-39 188h-543l-104 -188q-33 -68 -22.5 -100.5t44.5 -41.5l-18 -57h-299l2 57q111 20 176 142l567 1022q-29 33 -88 49l15 57
q174 59 299 141h16zM426 518h446l-116 580h-8z" />
    <glyph glyph-name="Atilde" unicode="&#xc3;" horiz-adv-x="1325" 
d="M680 1735q-63 0 -94 -86l-74 22q29 104 87 152.5t128 48.5q57 0 134 -55.5t114 -55.5q63 0 96 84l70 -20q-27 -104 -85.5 -153.5t-127.5 -49.5q-57 0 -134 56.5t-114 56.5zM1204 199q12 -61 48 -97t79 -45l-18 -57h-453l2 57q39 8 62.5 44t11.5 98l-39 188h-543
l-104 -188q-33 -68 -22.5 -100.5t44.5 -41.5l-18 -57h-299l2 57q111 20 176 142l567 1022q-29 33 -88 49l15 57q174 59 299 141h16zM426 518h446l-116 580h-8z" />
    <glyph glyph-name="Adieresis" unicode="&#xc4;" horiz-adv-x="1325" 
d="M669.5 1612q-57.5 0 -86 35.5t-20.5 85.5q10 51 52 88t99.5 37t87 -37t19.5 -88q-8 -49 -51 -85t-100.5 -36zM1042.5 1612q-57.5 0 -87 35.5t-19.5 85.5q10 51 52 88t99.5 37t87 -37t19.5 -88q-8 -49 -51 -85t-100.5 -36zM1204 199q12 -61 48 -97t79 -45l-18 -57h-453
l2 57q39 8 62.5 44t11.5 98l-39 188h-543l-104 -188q-33 -68 -22.5 -100.5t44.5 -41.5l-18 -57h-299l2 57q111 20 176 142l567 1022q-29 33 -88 49l15 57q174 59 299 141h16zM426 518h446l-116 580h-8z" />
    <glyph glyph-name="Aring" unicode="&#xc5;" horiz-adv-x="1325" 
d="M821 1538q-90 0 -143 63.5t-39 151.5q14 90 88 153.5t164 63.5t144.5 -63.5t39.5 -153.5q-14 -88 -89 -151.5t-165 -63.5zM743 1753q-8 -49 18.5 -82t76.5 -33q47 0 86 34t47 81t-20.5 81t-76 34t-85.5 -34t-46 -81zM1204 199q12 -61 48 -97t79 -45l-18 -57h-453l2 57
q39 8 62.5 44t11.5 98l-39 188h-543l-104 -188q-33 -68 -22.5 -100.5t44.5 -41.5l-18 -57h-299l2 57q111 20 176 142l567 1022q-29 33 -88 49l15 57q174 59 299 141h16zM426 518h446l-116 580h-8z" />
    <glyph glyph-name="AE" unicode="&#xc6;" horiz-adv-x="2334" 
d="M1679 113q100 0 190.5 24.5t148 60t100.5 71.5t61 61l19 24l59 -28l-166 -359h-18q-66 33 -273 33h-801l2 57q45 10 80 47t45 97l31 188h-604v2l-172 -192q-41 -41 -54.5 -73t-5 -47.5t28.5 -21.5l-16 -57h-324v57q117 25 223 142l1024 1128q-35 37 -90 49l19 58h1079
l41 -291l-65 -23q-2 8 -9.5 21.5t-39 49.5t-75.5 62.5t-127 48t-188 21.5q-115 0 -246 -20l-71 -443l8 -4q80 59 160 59q84 0 208 -66.5t181 -66.5q84 0 160 72l39 -43q-129 -188 -285 -188q-76 0 -202 66.5t-191 66.5q-49 0 -99 -33l-94 -586q172 -24 309 -24zM668 518h510
l106 674h-10z" />
    <glyph glyph-name="Ccedilla" unicode="&#xc7;" horiz-adv-x="1425" 
d="M1008 1470q209 0 335.5 -101t102.5 -236q-10 -57 -49 -101.5t-94 -44.5q-66 0 -93.5 39t-29.5 94.5t-9.5 109.5t-54.5 93t-143 39q-164 0 -315.5 -168t-200.5 -449q-59 -330 39 -501.5t311 -171.5q266 0 467 350l76 -47q-74 -166 -208 -276.5t-329 -133.5l-63 -100
q20 10 61 10q76 0 116 -37t25 -104q-14 -84 -106 -146.5t-223 -62.5q-102 0 -163 40t-50 93q4 29 28.5 49.5t53.5 20.5q35 0 50 -19.5t18 -44t24.5 -44t66.5 -19.5q59 0 97 28.5t49 73.5q6 33 -13.5 53.5t-56.5 20.5q-47 0 -88 -31l-53 27l119 188q-197 6 -330 114.5
t-180.5 284t-10.5 385.5q55 311 283 518t541 207z" />
    <glyph glyph-name="Egrave" unicode="&#xc8;" horiz-adv-x="1296" 
d="M639 1702q-53 49 -45 102q6 33 33.5 55.5t62.5 22.5q55 0 94 -61l136 -248l-70 -51zM719 111q98 0 188 24.5t148.5 60t101.5 71.5t64 61l18 24l59 -26l-133 -359h-20q-74 33 -271 33h-839l2 57q47 10 83 47t46 95l182 1034q10 59 -12.5 95t-65.5 48l19 58h1009l66 -293
l-68 -21q-2 8 -9 21.5t-37.5 48.5t-73.5 61.5t-126 48t-188 21.5q-113 0 -248 -21l-77 -442l6 -2q76 59 159 59q82 0 206 -66.5t184 -66.5q82 0 159 72l39 -43q-129 -188 -286 -188q-74 0 -201 66.5t-193 66.5q-49 0 -98 -33l-102 -588q168 -24 309 -24z" />
    <glyph glyph-name="Eacute" unicode="&#xc9;" horiz-adv-x="1296" 
d="M885 1702l-277 -180l-53 51l227 248q66 61 117 61q37 0 55.5 -23.5t12.5 -54.5q-8 -55 -82 -102zM719 111q98 0 188 24.5t148.5 60t101.5 71.5t64 61l18 24l59 -26l-133 -359h-20q-74 33 -271 33h-839l2 57q47 10 83 47t46 95l182 1034q10 59 -12.5 95t-65.5 48l19 58
h1009l66 -293l-68 -21q-2 8 -9 21.5t-37.5 48.5t-73.5 61.5t-126 48t-188 21.5q-113 0 -248 -21l-77 -442l6 -2q76 59 159 59q82 0 206 -66.5t184 -66.5q82 0 159 72l39 -43q-129 -188 -286 -188q-74 0 -201 66.5t-193 66.5q-49 0 -98 -33l-102 -588q168 -24 309 -24z" />
    <glyph glyph-name="Ecircumflex" unicode="&#xca;" horiz-adv-x="1296" 
d="M735 1649l-305 -138l-33 66l369 268l283 -268l-54 -66zM719 111q98 0 188 24.5t148.5 60t101.5 71.5t64 61l18 24l59 -26l-133 -359h-20q-74 33 -271 33h-839l2 57q47 10 83 47t46 95l182 1034q10 59 -12.5 95t-65.5 48l19 58h1009l66 -293l-68 -21q-2 8 -9 21.5
t-37.5 48.5t-73.5 61.5t-126 48t-188 21.5q-113 0 -248 -21l-77 -442l6 -2q76 59 159 59q82 0 206 -66.5t184 -66.5q82 0 159 72l39 -43q-129 -188 -286 -188q-74 0 -201 66.5t-193 66.5q-49 0 -98 -33l-102 -588q168 -24 309 -24z" />
    <glyph glyph-name="Edieresis" unicode="&#xcb;" horiz-adv-x="1296" 
d="M637 1612q-57 0 -86 35.5t-21 85.5q10 51 52.5 88t99.5 37t87 -37t19 -88q-8 -49 -51 -85t-100 -36zM1009.5 1612q-57.5 0 -87 35.5t-19.5 85.5q10 51 52 88t99.5 37t87 -37t19.5 -88q-8 -49 -51 -85t-100.5 -36zM719 111q98 0 188 24.5t148.5 60t101.5 71.5t64 61l18 24
l59 -26l-133 -359h-20q-74 33 -271 33h-839l2 57q47 10 83 47t46 95l182 1034q10 59 -12.5 95t-65.5 48l19 58h1009l66 -293l-68 -21q-2 8 -9 21.5t-37.5 48.5t-73.5 61.5t-126 48t-188 21.5q-113 0 -248 -21l-77 -442l6 -2q76 59 159 59q82 0 206 -66.5t184 -66.5
q82 0 159 72l39 -43q-129 -188 -286 -188q-74 0 -201 66.5t-193 66.5q-49 0 -98 -33l-102 -588q168 -24 309 -24z" />
    <glyph glyph-name="Igrave" unicode="&#xcc;" horiz-adv-x="593" 
d="M481 1522l-209 180q-55 47 -45 102q4 31 31 54.5t64 23.5q53 0 96 -61l135 -248zM33 0v57q47 10 83 47t46 95l182 1034q10 59 -12.5 95t-65.5 48l19 58h444l-2 -58q-106 -27 -129 -143l-182 -1034q-10 -57 13.5 -94t64.5 -48l-19 -57h-442z" />
    <glyph glyph-name="Iacute" unicode="&#xcd;" horiz-adv-x="598" 
d="M467 1522l-51 51l227 248q66 61 117 61q37 0 55.5 -23.5t11.5 -54.5q-8 -57 -84 -102zM37 0v57q47 10 83 47t46 95l182 1034q10 59 -12.5 95t-65.5 48l19 58h444l-2 -58q-106 -27 -129 -143l-182 -1034q-10 -57 13.5 -94t64.5 -48l-19 -57h-442z" />
    <glyph glyph-name="Icircumflex" unicode="&#xce;" horiz-adv-x="598" 
d="M233 1511l-34 66l368 268l283 -268l-53 -66l-260 138zM37 0v57q47 10 83 47t46 95l182 1034q10 59 -12.5 95t-65.5 48l19 58h444l-2 -58q-106 -27 -129 -143l-182 -1034q-10 -57 13.5 -94t64.5 -48l-19 -57h-442z" />
    <glyph glyph-name="Idieresis" unicode="&#xcf;" horiz-adv-x="598" 
d="M346 1612q-57 0 -87 35.5t-19 85.5q10 51 52 88t99.5 37t87 -37t19.5 -88q-8 -49 -51.5 -85t-100.5 -36zM719 1612q-57 0 -87 35.5t-20 85.5q10 51 52.5 88t99.5 37t87 -37t19 -88q-8 -49 -51 -85t-100 -36zM37 0v57q47 10 83 47t46 95l182 1034q10 59 -12.5 95t-65.5 48
l19 58h444l-2 -58q-106 -27 -129 -143l-182 -1034q-10 -57 13.5 -94t64.5 -48l-19 -57h-442z" />
    <glyph glyph-name="Eth" unicode="&#xd0;" horiz-adv-x="1458" 
d="M840 1434q326 0 512 -213t135 -533q-53 -326 -273.5 -507t-529.5 -181h-633v57q45 10 80 47t45 97l72 454h-250l18 123h252l72 457q10 57 -13.5 94t-66.5 47l19 58h561zM1227 641q45 291 -74 487.5t-379 196.5q-70 0 -168 -8l-84 -539h254l-18 -121h-256l-80 -516
q131 -29 262 -28q223 0 365.5 155.5t177.5 372.5z" />
    <glyph glyph-name="Ntilde" unicode="&#xd1;" horiz-adv-x="1396" 
d="M827 1735q-66 0 -94 -86l-74 22q55 201 213 201q57 0 135 -55.5t115 -55.5q61 0 97 84l69 -20q-29 -104 -86 -153.5t-129 -49.5q-57 0 -133 56.5t-113 56.5zM1249 1434h301l-2 -58q-106 -27 -127 -143l-219 -1233h-139q-23 125 -84 241.5t-138 210t-155 185.5t-146.5 208
t-101.5 236h-10l-156 -882q-10 -57 13.5 -94t66.5 -48l-18 -57h-301l2 57q45 10 81 47t46 95l182 1034q20 117 -78 143l19 58h260q49 -160 145 -319t184.5 -264.5t169 -235.5t105.5 -242h8l152 860q20 117 -78 143z" />
    <glyph glyph-name="Ograve" unicode="&#xd2;" horiz-adv-x="1548" 
d="M1001 1522l-208 180q-55 47 -48 102q6 33 34 55.5t63 22.5q55 0 94 -61l135 -248zM752 -39q-293 0 -460 220t-112 534q57 332 284.5 543.5t543.5 211.5q291 0 454.5 -219t106.5 -542q-55 -319 -286.5 -533.5t-530.5 -214.5zM770 72q186 0 340 186t203 457q47 279 -45 462
t-279 183q-195 0 -347.5 -179.5t-201.5 -459.5q-49 -268 44 -458.5t286 -190.5z" />
    <glyph glyph-name="Oacute" unicode="&#xd3;" horiz-adv-x="1548" 
d="M983 1522l-51 51l227 248q66 61 117 61q37 0 55.5 -23.5t11.5 -54.5q-12 -57 -83 -102zM752 -39q-293 0 -460 220t-112 534q57 332 284.5 543.5t543.5 211.5q291 0 454.5 -219t106.5 -542q-55 -319 -286.5 -533.5t-530.5 -214.5zM770 72q186 0 340 186t203 457
q47 279 -45 462t-279 183q-195 0 -347.5 -179.5t-201.5 -459.5q-49 -268 44 -458.5t286 -190.5z" />
    <glyph glyph-name="Ocircumflex" unicode="&#xd4;" horiz-adv-x="1548" 
d="M754 1511l-35 66l371 268l282 -268l-55 -66l-260 138zM752 -39q-293 0 -460 220t-112 534q57 332 284.5 543.5t543.5 211.5q291 0 454.5 -219t106.5 -542q-55 -319 -286.5 -533.5t-530.5 -214.5zM770 72q186 0 340 186t203 457q47 279 -45 462t-279 183
q-195 0 -347.5 -179.5t-201.5 -459.5q-49 -268 44 -458.5t286 -190.5z" />
    <glyph glyph-name="Otilde" unicode="&#xd5;" horiz-adv-x="1548" 
d="M1174 1622q-57 0 -133 56.5t-113 56.5q-66 0 -94 -86l-74 22q55 201 213 201q57 0 135 -55.5t115 -55.5q61 0 96 84l70 -20q-29 -104 -86 -153.5t-129 -49.5zM752 -39q-293 0 -460 220t-112 534q57 332 284.5 543.5t543.5 211.5q291 0 454.5 -219t106.5 -542
q-55 -319 -286.5 -533.5t-530.5 -214.5zM770 72q186 0 340 186t203 457q47 279 -45 462t-279 183q-195 0 -347.5 -179.5t-201.5 -459.5q-49 -268 44 -458.5t286 -190.5z" />
    <glyph glyph-name="Odieresis" unicode="&#xd6;" horiz-adv-x="1548" 
d="M845.5 1612q-57.5 0 -87 35.5t-21.5 85.5q12 51 54.5 88t99.5 37t87 -37t19 -88q-10 -49 -52 -85t-99.5 -36zM1218.5 1612q-57.5 0 -87 35.5t-21.5 85.5q12 51 53 88t98.5 37t88 -37t20.5 -88q-10 -49 -52 -85t-99.5 -36zM752 -39q-293 0 -460 220t-112 534
q57 332 284.5 543.5t543.5 211.5q291 0 454.5 -219t106.5 -542q-55 -319 -286.5 -533.5t-530.5 -214.5zM770 72q186 0 340 186t203 457q47 279 -45 462t-279 183q-195 0 -347.5 -179.5t-201.5 -459.5q-49 -268 44 -458.5t286 -190.5z" />
    <glyph glyph-name="multiply" unicode="&#xd7;" horiz-adv-x="1161" 
d="M258 283l-68 77l420 357l-307 354l92 78l310 -354l421 356l70 -78l-424 -356l309 -357l-92 -79l-311 358z" />
    <glyph glyph-name="Oslash" unicode="&#xd8;" horiz-adv-x="1548" 
d="M1372 1346q125 -102 179.5 -269.5t17.5 -367.5q-55 -319 -286.5 -533.5t-530.5 -214.5q-168 0 -297 76l-97 -135l-82 51l99 141q-123 102 -175.5 265t-19.5 356q57 332 284.5 543.5t543.5 211.5q158 0 284 -69l99 139l84 -47zM440 721q-51 -276 49 -467l713 1016
q-86 90 -213 90q-195 0 -347.5 -179t-201.5 -460zM1313 715q49 291 -51 473l-715 -1018q92 -98 223 -98q186 0 340 186.5t203 456.5z" />
    <glyph glyph-name="Ugrave" unicode="&#xd9;" horiz-adv-x="1390" 
d="M1028 1522l-209 180q-55 47 -45 102q6 33 33 55.5t63 22.5q55 0 95 -61l135 -248zM709 -37q-285 0 -406 158t-63 457l116 655q10 59 -12 96t-63 47l18 58h446l-2 -58q-45 -10 -80.5 -47t-48.5 -96l-114 -653q-47 -238 22.5 -372t261.5 -134q199 0 306.5 132t146.5 374
l113 649q8 55 -14.5 96t-67.5 51l18 58h309l-2 -60q-49 -10 -84.5 -49t-46.5 -96l-112 -651q-49 -289 -208 -452t-433 -163z" />
    <glyph glyph-name="Uacute" unicode="&#xda;" horiz-adv-x="1390" 
d="M1014 1522l-53 51l227 248q66 61 117 61q37 0 55 -23.5t12 -54.5q-8 -55 -82 -102zM709 -37q-285 0 -406 158t-63 457l116 655q10 59 -12 96t-63 47l18 58h446l-2 -58q-45 -10 -80.5 -47t-48.5 -96l-114 -653q-47 -238 22.5 -372t261.5 -134q199 0 306.5 132t146.5 374
l113 649q8 55 -14.5 96t-67.5 51l18 58h309l-2 -60q-49 -10 -84.5 -49t-46.5 -96l-112 -651q-49 -289 -208 -452t-433 -163z" />
    <glyph glyph-name="Ucircumflex" unicode="&#xdb;" horiz-adv-x="1390" 
d="M727 1511l-33 66l369 268l283 -268l-56 -66l-258 138zM709 -37q-285 0 -406 158t-63 457l116 655q10 59 -12 96t-63 47l18 58h446l-2 -58q-45 -10 -80.5 -47t-48.5 -96l-114 -653q-47 -238 22.5 -372t261.5 -134q199 0 306.5 132t146.5 374l113 649q8 55 -14.5 96
t-67.5 51l18 58h309l-2 -60q-49 -10 -84.5 -49t-46.5 -96l-112 -651q-49 -289 -208 -452t-433 -163z" />
    <glyph glyph-name="Udieresis" unicode="&#xdc;" horiz-adv-x="1390" 
d="M848 1612q-57 0 -87 35.5t-22 85.5q10 51 53.5 88t98.5 37q57 0 88 -37t20 -88q-10 -49 -52 -85t-99 -36zM1218.5 1612q-57.5 0 -86 35.5t-20.5 85.5q10 51 52 88t99.5 37t87 -37t19.5 -88q-8 -49 -51 -85t-100.5 -36zM709 -37q-285 0 -406 158t-63 457l116 655
q10 59 -12 96t-63 47l18 58h446l-2 -58q-45 -10 -80.5 -47t-48.5 -96l-114 -653q-47 -238 22.5 -372t261.5 -134q199 0 306.5 132t146.5 374l113 649q8 55 -14.5 96t-67.5 51l18 58h309l-2 -60q-49 -10 -84.5 -49t-46.5 -96l-112 -651q-49 -289 -208 -452t-433 -163z" />
    <glyph glyph-name="Yacute" unicode="&#xdd;" horiz-adv-x="1284" 
d="M926 1522l-52 51l228 248q66 61 117 61q37 0 55 -23.5t12 -54.5q-8 -57 -84 -102zM383 0l2 57q45 10 81 47t46 97l84 483l-268 549q-57 125 -150 143l19 58h487l-2 -58q-43 -10 -61.5 -44t6.5 -99l198 -399h13l344 399q45 63 37.5 98t-45.5 45l20 58h324l-5 -58
q-92 -18 -196 -143l-465 -549l-86 -483q-10 -59 12.5 -96t65.5 -48l-19 -57h-442z" />
    <glyph glyph-name="Thorn" unicode="&#xde;" horiz-adv-x="1648" 
d="M1001 1141q270 0 401.5 -113t100.5 -311q-31 -197 -198.5 -310.5t-438.5 -113.5h-295l-14 -92q-8 -59 15.5 -96t66.5 -48l-18 -57h-443v57q45 10 80 47t45 97l164 1034q8 59 -14.5 95t-65.5 46l19 58h442l-2 -58q-45 -10 -81 -47t-44 -94l-14 -94h294zM1245 717
q25 150 -68.5 231.5t-279.5 81.5q-119 0 -211 -14l-94 -596q82 -16 207 -17q184 0 303.5 82t142.5 232z" />
    <glyph glyph-name="germandbls" unicode="&#xdf;" horiz-adv-x="1705" 
d="M1405 1014q-88 -10 -151.5 -54.5t-75.5 -117.5q-4 -33 8 -66t28.5 -52t48 -51t42.5 -44q2 -2 22.5 -24.5t24.5 -29t22.5 -28t23.5 -31.5t17 -32.5t15.5 -39t9.5 -39t5 -46t-5 -50.5q-27 -170 -158 -258t-324 -88q-119 0 -196.5 34t-67.5 107q8 43 44 70t79 27
q45 0 73 -20.5t38 -46t31.5 -46t54.5 -20.5q88 0 141 47t68 135q-2 23 1 35t-6.5 34.5t-13.5 34t-18.5 32t-21.5 30.5t-22.5 29.5t-22.5 26.5t-22.5 23.5t-19.5 20.5q-6 6 -23.5 25.5t-25.5 28t-25.5 30t-24.5 31.5t-22.5 33.5t-17.5 38t-12.5 40t-6 42t2.5 46.5
q16 96 96 164t194 76q29 45 43 109q16 102 -38 172.5t-160 70.5q-313 0 -385 -448l-123 -774q-8 -59 15.5 -96t64.5 -48l-17 -57h-438l2 57q47 10 82 47t43 97l119 749h-225l20 121h229q61 227 219 350t410 123q188 0 312 -99t100 -259q-17 -109 -80 -172z" />
    <glyph glyph-name="agrave" unicode="&#xe0;" horiz-adv-x="1222" 
d="M502 1337q-53 49 -45 103q6 33 32.5 55.5t63.5 22.5q55 0 94 -62l135 -248l-71 -51zM1176 70q29 0 73 32l21 -49q-98 -92 -236 -92q-80 0 -131 49t-29 178h-8q-63 -104 -160.5 -165.5t-199.5 -61.5q-178 0 -282.5 111.5t-104.5 318.5q0 176 74.5 339t219 270.5
t320.5 107.5q82 0 157 -33t120 -90h8l24 105h258q-72 -145 -120 -433l-74 -417q-34 -170 70 -170zM584 98q100 0 193 92.5t136 225.5l78 442q-35 57 -93 88t-122 31q-135 0 -237.5 -90t-149.5 -220t-47 -276q0 -143 69 -218t173 -75z" />
    <glyph glyph-name="aacute" unicode="&#xe1;" horiz-adv-x="1222" 
d="M1061 1337l-277 -180l-51 51l228 248q66 61 116 62q37 0 55.5 -24t12.5 -54q-12 -58 -84 -103zM1176 70q29 0 73 32l21 -49q-98 -92 -236 -92q-80 0 -131 49t-29 178h-8q-63 -104 -160.5 -165.5t-199.5 -61.5q-178 0 -282.5 111.5t-104.5 318.5q0 176 74.5 339t219 270.5
t320.5 107.5q82 0 157 -33t120 -90h8l24 105h258q-72 -145 -120 -433l-74 -417q-34 -170 70 -170zM584 98q100 0 193 92.5t136 225.5l78 442q-35 57 -93 88t-122 31q-135 0 -237.5 -90t-149.5 -220t-47 -276q0 -143 69 -218t173 -75z" />
    <glyph glyph-name="acircumflex" unicode="&#xe2;" horiz-adv-x="1222" 
d="M858 1284l-303 -137l-35 65l369 269l282 -269l-53 -65zM1176 70q29 0 73 32l21 -49q-98 -92 -236 -92q-80 0 -131 49t-29 178h-8q-63 -104 -160.5 -165.5t-199.5 -61.5q-178 0 -282.5 111.5t-104.5 318.5q0 176 74.5 339t219 270.5t320.5 107.5q82 0 157 -33t120 -90h8
l24 105h258q-72 -145 -120 -433l-74 -417q-34 -170 70 -170zM584 98q100 0 193 92.5t136 225.5l78 442q-35 57 -93 88t-122 31q-135 0 -237.5 -90t-149.5 -220t-47 -276q0 -143 69 -218t173 -75z" />
    <glyph glyph-name="atilde" unicode="&#xe3;" horiz-adv-x="1222" 
d="M719 1370q-63 0 -94 -86l-74 23q29 104 87 152t128 48q57 0 134 -55t114 -55q63 0 96 84l70 -21q-27 -104 -85.5 -153.5t-127.5 -49.5q-57 0 -134 56.5t-114 56.5zM1176 70q29 0 73 32l21 -49q-98 -92 -236 -92q-80 0 -131 49t-29 178h-8q-63 -104 -160.5 -165.5
t-199.5 -61.5q-178 0 -282.5 111.5t-104.5 318.5q0 176 74.5 339t219 270.5t320.5 107.5q82 0 157 -33t120 -90h8l24 105h258q-72 -145 -120 -433l-74 -417q-34 -170 70 -170zM584 98q100 0 193 92.5t136 225.5l78 442q-35 57 -93 88t-122 31q-135 0 -237.5 -90t-149.5 -220
t-47 -276q0 -143 69 -218t173 -75z" />
    <glyph glyph-name="adieresis" unicode="&#xe4;" horiz-adv-x="1222" 
d="M653.5 1247q-57.5 0 -87 36t-21.5 85q10 51 53 88t98 37q57 0 88 -37t21 -88q-10 -49 -52 -85t-99.5 -36zM1024 1247q-57 0 -86 36t-20 85q10 51 52 88t99 37t87 -37t20 -88q-8 -49 -51.5 -85t-100.5 -36zM1176 70q29 0 73 32l21 -49q-98 -92 -236 -92q-80 0 -131 49
t-29 178h-8q-63 -104 -160.5 -165.5t-199.5 -61.5q-178 0 -282.5 111.5t-104.5 318.5q0 176 74.5 339t219 270.5t320.5 107.5q82 0 157 -33t120 -90h8l24 105h258q-72 -145 -120 -433l-74 -417q-34 -170 70 -170zM584 98q100 0 193 92.5t136 225.5l78 442q-35 57 -93 88
t-122 31q-135 0 -237.5 -90t-149.5 -220t-47 -276q0 -143 69 -218t173 -75z" />
    <glyph glyph-name="aring" unicode="&#xe5;" horiz-adv-x="1222" 
d="M803 1174q-92 0 -145.5 63t-39.5 152q14 90 88 153.5t166 63.5q88 0 142.5 -63.5t40.5 -153.5q-14 -88 -89 -151.5t-163 -63.5zM725 1389q-10 -47 17.5 -81t74.5 -34t86 33.5t49 81.5q6 47 -21.5 80.5t-74.5 33.5q-49 0 -87 -33.5t-44 -80.5zM1176 70q29 0 73 32l21 -49
q-98 -92 -236 -92q-80 0 -131 49t-29 178h-8q-63 -104 -160.5 -165.5t-199.5 -61.5q-178 0 -282.5 111.5t-104.5 318.5q0 176 74.5 339t219 270.5t320.5 107.5q82 0 157 -33t120 -90h8l24 105h258q-72 -145 -120 -433l-74 -417q-34 -170 70 -170zM584 98q100 0 193 92.5
t136 225.5l78 442q-35 57 -93 88t-122 31q-135 0 -237.5 -90t-149.5 -220t-47 -276q0 -143 69 -218t173 -75z" />
    <glyph glyph-name="ae" unicode="&#xe6;" horiz-adv-x="1908" 
d="M1470 104q246 0 426 252l48 -28q-82 -176 -237 -270.5t-325 -94.5q-147 0 -266 69.5t-170 203.5h-10q-63 -113 -195.5 -193t-269.5 -80q-176 0 -263 73t-69 193q12 82 62.5 144.5t116 99.5t171 64.5t193.5 41t221 27.5l6 203q4 84 -45 136t-131 52q-84 0 -140 -39.5
t-69 -107.5q-20 -119 -125 -119q-51 0 -77.5 34t-16.5 87q16 96 130 176t294 80q115 0 211 -57.5t129 -163.5h6q190 221 514 221q182 0 273.5 -73.5t91.5 -172.5q0 -68 -29 -120t-92.5 -89t-125.5 -61.5t-173 -43t-186.5 -27.5t-210.5 -21q-12 -182 79.5 -289t253.5 -107z
M1565 1001q-150 0 -265.5 -113.5t-150.5 -293.5q600 74 600 254q0 66 -46 109.5t-138 43.5zM553 96q102 0 203.5 77t140.5 181l4 166q-106 -10 -186 -25.5t-157 -43t-123 -74.5t-56 -113q-12 -78 38 -123t136 -45z" />
    <glyph glyph-name="ccedilla" unicode="&#xe7;" horiz-adv-x="1161" 
d="M825 1108q186 0 292 -88t97 -199q-4 -55 -37.5 -94t-89.5 -39q-51 0 -80.5 28.5t-29.5 76.5q0 6 5 30.5t5 34.5q0 57 -49 99t-154 42q-141 0 -262 -146t-141 -341q-27 -203 62 -313.5t266 -110.5q113 0 223 80t192 197l47 -33q-51 -129 -166.5 -230.5t-269.5 -130.5
l-67 -106q31 10 61 10q78 0 118 -37t25 -104q-14 -84 -106 -146.5t-223 -62.5q-102 0 -163 40t-50 93q4 29 27.5 49.5t52.5 20.5q35 0 51 -19.5t19 -44t24.5 -44t66.5 -19.5q57 0 96.5 27.5t49.5 74.5q4 33 -15.5 53.5t-56.5 20.5q-49 0 -86 -31l-53 27l117 188
q-217 2 -358.5 137t-114.5 404q27 276 223 441t452 165z" />
    <glyph glyph-name="egrave" unicode="&#xe8;" horiz-adv-x="1138" 
d="M467 1337q-55 47 -47 103q6 33 33.5 55.5t62.5 22.5q55 0 94 -62l135 -248l-69 -51zM631 88q246 0 477 246l41 -41q-106 -168 -260 -250t-320 -82q-195 0 -322.5 111.5t-127.5 330.5q0 180 82 339t243.5 262.5t368.5 103.5q158 0 263.5 -65.5t105.5 -194.5
q0 -80 -46 -143.5t-121 -104.5t-188.5 -72.5t-225.5 -48t-257 -30.5v-39q0 -156 90.5 -239t196.5 -83zM784 997q-145 0 -268 -128t-160 -324q262 23 437.5 99.5t175.5 205.5q0 68 -50.5 107.5t-134.5 39.5z" />
    <glyph glyph-name="eacute" unicode="&#xe9;" horiz-adv-x="1138" 
d="M893 1337l-277 -180l-51 51l228 248q66 61 116 62q37 0 55.5 -24t12.5 -54q-8 -58 -84 -103zM631 88q246 0 477 246l41 -41q-106 -168 -260 -250t-320 -82q-195 0 -322.5 111.5t-127.5 330.5q0 180 82 339t243.5 262.5t368.5 103.5q158 0 263.5 -65.5t105.5 -194.5
q0 -80 -46 -143.5t-121 -104.5t-188.5 -72.5t-225.5 -48t-257 -30.5v-39q0 -156 90.5 -239t196.5 -83zM784 997q-145 0 -268 -128t-160 -324q262 23 437.5 99.5t175.5 205.5q0 68 -50.5 107.5t-134.5 39.5z" />
    <glyph glyph-name="ecircumflex" unicode="&#xea;" horiz-adv-x="1138" 
d="M778 1284l-305 -137l-33 65l369 269l283 -269l-56 -65zM631 88q246 0 477 246l41 -41q-106 -168 -260 -250t-320 -82q-195 0 -322.5 111.5t-127.5 330.5q0 180 82 339t243.5 262.5t368.5 103.5q158 0 263.5 -65.5t105.5 -194.5q0 -80 -46 -143.5t-121 -104.5
t-188.5 -72.5t-225.5 -48t-257 -30.5v-39q0 -156 90.5 -239t196.5 -83zM784 997q-145 0 -268 -128t-160 -324q262 23 437.5 99.5t175.5 205.5q0 68 -50.5 107.5t-134.5 39.5z" />
    <glyph glyph-name="edieresis" unicode="&#xeb;" horiz-adv-x="1138" 
d="M585.5 1247q-57.5 0 -87 36t-21.5 85q12 51 54 88t99.5 37t87.5 -37t19 -88q-10 -49 -52 -85t-99.5 -36zM958.5 1247q-57.5 0 -87 36t-21.5 85q12 51 53 88t98.5 37t88 -37t20.5 -88q-10 -49 -52 -85t-99.5 -36zM631 88q246 0 477 246l41 -41q-106 -168 -260 -250
t-320 -82q-195 0 -322.5 111.5t-127.5 330.5q0 180 82 339t243.5 262.5t368.5 103.5q158 0 263.5 -65.5t105.5 -194.5q0 -80 -46 -143.5t-121 -104.5t-188.5 -72.5t-225.5 -48t-257 -30.5v-39q0 -156 90.5 -239t196.5 -83zM784 997q-145 0 -268 -128t-160 -324
q262 23 437.5 99.5t175.5 205.5q0 68 -50.5 107.5t-134.5 39.5z" />
    <glyph glyph-name="igrave" unicode="&#xec;" horiz-adv-x="495" 
d="M406 1157l-211 180q-53 49 -45 103q6 33 33.5 55.5t62.5 22.5q55 0 94 -62l135 -248zM334 -39q-80 0 -131 49t-29 180l98 568q10 59 -16.5 95t-69.5 46l19 57q211 31 327 160l27 -10l-153 -866q-16 -68 0 -119t67 -51q31 0 76 32l20 -49q-98 -92 -235 -92z" />
    <glyph glyph-name="iacute" unicode="&#xed;" horiz-adv-x="628" 
d="M344 1157l-51 51l227 248q66 61 117 62q37 0 55.5 -24t12.5 -54q-12 -57 -84 -103zM334 -39q-80 0 -131 49t-29 180l98 568q10 59 -16.5 95t-69.5 46l19 57q211 31 327 160l27 -10l-153 -866q-16 -68 0 -119t67 -51q31 0 76 32l20 -49q-98 -92 -235 -92z" />
    <glyph glyph-name="icircumflex" unicode="&#xee;" horiz-adv-x="673" 
d="M133 1147l-33 65l369 269l283 -269l-56 -65l-258 137zM334 -39q-80 0 -131 49t-29 180l98 568q10 59 -16.5 95t-69.5 46l19 57q211 31 327 160l27 -10l-153 -866q-16 -68 0 -119t67 -51q31 0 76 32l20 -49q-98 -92 -235 -92z" />
    <glyph glyph-name="idieresis" unicode="&#xef;" horiz-adv-x="692" 
d="M243.5 1247q-57.5 0 -87 36t-21.5 85q12 51 54 88t99.5 37t87.5 -37t19 -88q-10 -49 -52 -85t-99.5 -36zM616.5 1247q-57.5 0 -87 36t-21.5 85q12 51 53 88t98.5 37t88 -37t20.5 -88q-10 -49 -52 -85t-99.5 -36zM334 -39q-80 0 -131 49t-29 180l98 568q10 59 -16.5 95
t-69.5 46l19 57q211 31 327 160l27 -10l-153 -866q-16 -68 0 -119t67 -51q31 0 76 32l20 -49q-98 -92 -235 -92z" />
    <glyph glyph-name="eth" unicode="&#xf0;" 
d="M590 -35q-262 0 -395.5 161t-94.5 411q39 248 218.5 410.5t418.5 162.5q162 0 271 -98l6 4q-2 199 -62 340l-297 -105l-16 74l289 107q-31 84 -82 163l98 54q55 -55 137 -166l281 100l18 -76l-250 -92q182 -319 117 -743q-53 -340 -225 -523.5t-432 -183.5zM606 72
q160 0 248 139t129 403q18 111 29 254q-94 133 -267 133q-164 0 -264 -123.5t-135 -347.5q-33 -211 29.5 -334.5t230.5 -123.5z" />
    <glyph glyph-name="ntilde" unicode="&#xf1;" horiz-adv-x="1249" 
d="M723 1370q-63 0 -94 -86l-74 23q29 104 87 152t128 48q57 0 134 -55t114 -55q63 0 96 84l70 -21q-27 -104 -85.5 -153.5t-127.5 -49.5q-57 0 -134 56.5t-114 56.5zM1300 102l21 -49q-106 -92 -242 -92q-35 0 -62.5 8t-57 33t-34.5 70t7 118l104 472q35 143 -10 227
t-162 84q-123 0 -241.5 -138.5t-153.5 -330.5q-27 -150 -38 -276t-9 -179v-51h-258l131 760q10 59 -16.5 95t-71.5 46l18 57q213 29 330 160l27 -10l-45 -238h14q166 238 405 238q182 0 267.5 -120t36.5 -337l-97 -409q-20 -68 -6 -119t68 -51q30 -1 75 32z" />
    <glyph glyph-name="ograve" unicode="&#xf2;" horiz-adv-x="1232" 
d="M698 1157l-209 180q-55 47 -47 103q6 33 34 55.5t63 22.5q55 0 94 -62l135 -248zM602 -39q-252 0 -383 168t-90 416q39 244 218 403.5t423 159.5q246 0 376 -165t89 -417q-39 -246 -215 -405.5t-418 -159.5zM623 72q141 0 249.5 129t137.5 325q31 203 -43 337t-219 134
q-141 0 -253 -128t-141 -324q-31 -199 44 -336t225 -137z" />
    <glyph glyph-name="oacute" unicode="&#xf3;" horiz-adv-x="1232" 
d="M676 1157l-51 51l227 248q66 61 117 62q37 0 55 -24t12 -54q-8 -57 -84 -103zM602 -39q-252 0 -383 168t-90 416q39 244 218 403.5t423 159.5q246 0 376 -165t89 -417q-39 -246 -215 -405.5t-418 -159.5zM623 72q141 0 249.5 129t137.5 325q31 203 -43 337t-219 134
q-141 0 -253 -128t-141 -324q-31 -199 44 -336t225 -137z" />
    <glyph glyph-name="ocircumflex" unicode="&#xf4;" horiz-adv-x="1232" 
d="M492 1147l-35 65l368 269l283 -269l-53 -65l-260 137zM602 -39q-252 0 -383 168t-90 416q39 244 218 403.5t423 159.5q246 0 376 -165t89 -417q-39 -246 -215 -405.5t-418 -159.5zM623 72q141 0 249.5 129t137.5 325q31 203 -43 337t-219 134q-141 0 -253 -128t-141 -324
q-31 -199 44 -336t225 -137z" />
    <glyph glyph-name="otilde" unicode="&#xf5;" horiz-adv-x="1232" 
d="M932 1257q-57 0 -134 56.5t-114 56.5q-63 0 -94 -86l-74 23q29 104 87.5 152t127.5 48q57 0 134 -55t114 -55q63 0 96 84l70 -21q-27 -104 -85 -153.5t-128 -49.5zM602 -39q-252 0 -383 168t-90 416q39 244 218 403.5t423 159.5q246 0 376 -165t89 -417
q-39 -246 -215 -405.5t-418 -159.5zM623 72q141 0 249.5 129t137.5 325q31 203 -43 337t-219 134q-141 0 -253 -128t-141 -324q-31 -199 44 -336t225 -137z" />
    <glyph glyph-name="odieresis" unicode="&#xf6;" horiz-adv-x="1232" 
d="M622.5 1247q-57.5 0 -87 36t-21.5 85q12 51 54 88t99.5 37t87 -37t19.5 -88q-10 -49 -52 -85t-99.5 -36zM995.5 1247q-57.5 0 -87 36t-21.5 85q12 51 53 88t98.5 37t88 -37t20.5 -88q-10 -49 -52 -85t-99.5 -36zM602 -39q-252 0 -383 168t-90 416q39 244 218 403.5
t423 159.5q246 0 376 -165t89 -417q-39 -246 -215 -405.5t-418 -159.5zM623 72q141 0 249.5 129t137.5 325q31 203 -43 337t-219 134q-141 0 -253 -128t-141 -324q-31 -199 44 -336t225 -137z" />
    <glyph glyph-name="divide" unicode="&#xf7;" horiz-adv-x="1181" 
d="M737 932q-74 0 -108.5 42t-24.5 105q10 61 58.5 103.5t120 42.5t106.5 -42t24 -104q-10 -63 -58 -105t-118 -42zM123 662l16 110h1143l-16 -110h-1143zM620.5 209q-71.5 0 -105.5 43t-23 104q8 61 56 104.5t119.5 43.5t106.5 -43t24.5 -104.5t-58.5 -104.5t-119.5 -43z
" />
    <glyph glyph-name="oslash" unicode="&#xf8;" horiz-adv-x="1232" 
d="M1077 1008q98 -78 140.5 -203t19.5 -277q-37 -248 -211 -406.5t-418 -158.5q-127 0 -231 47l-76 -108l-82 49l76 110q-100 78 -144.5 205t-21.5 281q35 244 213 402.5t422 158.5q129 0 231 -49l76 110l84 -51zM354 569q-31 -213 49 -354l504 719q-70 66 -172 65
q-137 0 -244.5 -121t-136.5 -309zM1008 502q33 209 -39 350l-502 -715q70 -63 172 -63q133 0 237.5 121t131.5 307z" />
    <glyph glyph-name="ugrave" unicode="&#xf9;" 
d="M545 1337q-53 49 -45 103q6 33 32.5 55.5t63.5 22.5q55 0 94 -62l135 -248l-71 -51zM1276 102l22 -49q-102 -92 -237 -92q-80 0 -131 49t-29 180l2 11h-12q-162 -240 -393 -240q-193 0 -274 118t-19 341l112 407q45 172 -55 172q-29 0 -76 -34l-24 49q109 94 239 94
q80 0 132.5 -50t17.5 -179l-127 -473q-43 -145 -2 -227.5t164 -82.5q117 0 226.5 128t150.5 319l22 121q18 121 25.5 222t5.5 142l-2 39h260l-139 -827q-35 -170 67 -170q33 -1 74 32z" />
    <glyph glyph-name="uacute" unicode="&#xfa;" 
d="M999 1337l-276 -180l-53 51l229 248q61 61 117 62q35 0 53 -22.5t12 -55.5q-8 -56 -82 -103zM1276 102l22 -49q-102 -92 -237 -92q-80 0 -131 49t-29 180l2 11h-12q-162 -240 -393 -240q-193 0 -274 118t-19 341l112 407q45 172 -55 172q-29 0 -76 -34l-24 49
q109 94 239 94q80 0 132.5 -50t17.5 -179l-127 -473q-43 -145 -2 -227.5t164 -82.5q117 0 226.5 128t150.5 319l22 121q18 121 25.5 222t5.5 142l-2 39h260l-139 -827q-35 -170 67 -170q33 -1 74 32z" />
    <glyph glyph-name="ucircumflex" unicode="&#xfb;" 
d="M862 1284l-303 -137l-35 65l369 269l283 -269l-54 -65zM1276 102l22 -49q-102 -92 -237 -92q-80 0 -131 49t-29 180l2 11h-12q-162 -240 -393 -240q-193 0 -274 118t-19 341l112 407q45 172 -55 172q-29 0 -76 -34l-24 49q109 94 239 94q80 0 132.5 -50t17.5 -179
l-127 -473q-43 -145 -2 -227.5t164 -82.5q117 0 226.5 128t150.5 319l22 121q18 121 25.5 222t5.5 142l-2 39h260l-139 -827q-35 -170 67 -170q33 -1 74 32z" />
    <glyph glyph-name="udieresis" unicode="&#xfc;" 
d="M653.5 1247q-57.5 0 -87 36t-19.5 85q10 51 52 88t99.5 37t87 -37t19.5 -88q-8 -49 -51 -85t-100.5 -36zM1026 1247q-57 0 -87 36t-21 85q12 51 54 88t99 37t87 -37t20 -88q-10 -49 -52.5 -85t-99.5 -36zM1276 102l22 -49q-102 -92 -237 -92q-80 0 -131 49t-29 180l2 11
h-12q-162 -240 -393 -240q-193 0 -274 118t-19 341l112 407q45 172 -55 172q-29 0 -76 -34l-24 49q109 94 239 94q80 0 132.5 -50t17.5 -179l-127 -473q-43 -145 -2 -227.5t164 -82.5q117 0 226.5 128t150.5 319l22 121q18 121 25.5 222t5.5 142l-2 39h260l-139 -827
q-35 -170 67 -170q33 -1 74 32z" />
    <glyph glyph-name="yacute" unicode="&#xfd;" horiz-adv-x="1253" 
d="M1079 1337l-276 -180l-51 51l227 248q66 61 117 62q37 0 55 -24t12 -54q-12 -58 -84 -103zM1114 1108q74 0 113 -49t33 -119q-14 -158 -132 -423t-231 -445q-53 -86 -84 -127q-256 -401 -504 -402q-72 0 -120 41t-46 99q2 55 42 89.5t96 34.5q53 0 97 -37.5t58 -37.5
q72 0 126 48t130 163q-61 397 -130.5 630.5t-135.5 316.5t-150 83q-70 0 -124 -47l-39 47q109 127 272 127q176 0 292 -204t185 -671h12q186 317 203 510q2 45 -52 117t-50 139q2 53 43 85t96 32z" />
    <glyph glyph-name="thorn" unicode="&#xfe;" horiz-adv-x="1423" 
d="M895 1108q219 0 339 -166t81 -414q-41 -248 -203 -406.5t-383 -158.5q-213 0 -321 172h-9l-55 -352q-10 -59 13.5 -96t66.5 -47l-18 -58h-410v58q47 10 82 47t43 96l231 1452q8 57 -15.5 94t-66.5 47l19 58q184 31 348 139l20 -10q-45 -106 -88 -359l-39 -250h7
q155 154 358 154zM1087 440q20 129 -1 253t-92.5 212t-180.5 88q-123 0 -215 -101t-117 -259q-20 -129 -0.5 -253t91 -213t184.5 -89q119 0 212.5 103t118.5 259z" />
    <glyph glyph-name="ydieresis" unicode="&#xff;" horiz-adv-x="1253" 
d="M637 1247q-57 0 -87 36t-20 85q10 51 52.5 88t99.5 37t87 -37t19 -88q-8 -49 -51 -85t-100 -36zM1009.5 1247q-57.5 0 -87 36t-19.5 85q10 51 52 88t99.5 37t87 -37t19.5 -88q-8 -49 -51 -85t-100.5 -36zM1114 1108q74 0 113 -49t33 -119q-14 -158 -132 -423t-231 -445
q-53 -86 -84 -127q-256 -401 -504 -402q-72 0 -120 41t-46 99q2 55 42 89.5t96 34.5q53 0 97 -37.5t58 -37.5q72 0 126 48t130 163q-61 397 -130.5 630.5t-135.5 316.5t-150 83q-70 0 -124 -47l-39 47q109 127 272 127q176 0 292 -204t185 -671h12q186 317 203 510
q2 45 -52 117t-50 139q2 53 43 85t96 32z" />
    <glyph glyph-name="Amacron" unicode="&#x100;" horiz-adv-x="1325" 
d="M1161 1774l-22 -125h-570l25 125h567zM1204 199q12 -61 48 -97t79 -45l-18 -57h-453l2 57q39 8 62.5 44t11.5 98l-39 188h-543l-104 -188q-33 -68 -22.5 -100.5t44.5 -41.5l-18 -57h-299l2 57q111 20 176 142l567 1022q-29 33 -88 49l15 57q174 59 299 141h16zM426 518
h446l-116 580h-8z" />
    <glyph glyph-name="amacron" unicode="&#x101;" horiz-adv-x="1222" 
d="M1110 1409l-23 -125h-569l23 125h569zM1176 70q29 0 73 32l21 -49q-98 -92 -236 -92q-80 0 -131 49t-29 178h-8q-63 -104 -160.5 -165.5t-199.5 -61.5q-178 0 -282.5 111.5t-104.5 318.5q0 176 74.5 339t219 270.5t320.5 107.5q82 0 157 -33t120 -90h8l24 105h258
q-72 -145 -120 -433l-74 -417q-34 -170 70 -170zM584 98q100 0 193 92.5t136 225.5l78 442q-35 57 -93 88t-122 31q-135 0 -237.5 -90t-149.5 -220t-47 -276q0 -143 69 -218t173 -75z" />
    <glyph glyph-name="Abreve" unicode="&#x102;" horiz-adv-x="1325" 
d="M860 1585q-115 0 -179.5 58.5t-80.5 144.5l86 41q14 -47 67.5 -82t127.5 -35q72 0 138 34t95 81l74 -39q-109 -203 -328 -203zM1204 199q12 -61 48 -97t79 -45l-18 -57h-453l2 57q39 8 62.5 44t11.5 98l-39 188h-543l-104 -188q-33 -68 -22.5 -100.5t44.5 -41.5l-18 -57
h-299l2 57q111 20 176 142l567 1022q-29 33 -88 49l15 57q174 59 299 141h16zM426 518h446l-116 580h-8z" />
    <glyph glyph-name="abreve" unicode="&#x103;" horiz-adv-x="1222" 
d="M778 1221q-115 0 -179 58t-79 144l84 41q14 -47 68.5 -81.5t126 -34.5t139.5 34.5t94 79.5l74 -39q-109 -202 -328 -202zM1176 70q29 0 73 32l21 -49q-98 -92 -236 -92q-80 0 -131 49t-29 178h-8q-63 -104 -160.5 -165.5t-199.5 -61.5q-178 0 -282.5 111.5t-104.5 318.5
q0 176 74.5 339t219 270.5t320.5 107.5q82 0 157 -33t120 -90h8l24 105h258q-72 -145 -120 -433l-74 -417q-34 -170 70 -170zM584 98q100 0 193 92.5t136 225.5l78 442q-35 57 -93 88t-122 31q-135 0 -237.5 -90t-149.5 -220t-47 -276q0 -143 69 -218t173 -75z" />
    <glyph glyph-name="Aogonek" unicode="&#x104;" horiz-adv-x="1325" 
d="M1106 -332q90 0 156 90l69 -37q-113 -162 -291 -161q-104 0 -161.5 56t-42.5 148q23 139 174 236h-150l2 57q39 8 62.5 44t11.5 98l-39 188h-543l-104 -188q-33 -68 -22.5 -100.5t44.5 -41.5l-18 -57h-299l2 57q111 20 176 142l567 1022q-29 33 -88 49l15 57
q174 59 299 141h16l262 -1269q12 -61 48 -97t79 -45l-18 -57h-137q-72 -35 -118 -90t-54 -117q-8 -53 22.5 -89t79.5 -36zM426 518h446l-116 580h-8z" />
    <glyph glyph-name="aogonek" unicode="&#x105;" horiz-adv-x="1222" 
d="M1051 -332q90 0 155 90l68 -37q-113 -162 -289 -161q-104 0 -161.5 56t-43.5 148q18 127 152 222q-84 53 -58 202h-8q-63 -104 -160.5 -165.5t-199.5 -61.5q-178 0 -282.5 111.5t-104.5 318.5q0 176 74.5 339t219 270.5t320.5 107.5q82 0 157 -33t120 -90h8l24 105h258
q-72 -145 -120 -433l-74 -417q-35 -170 70 -170q29 0 73 32l21 -49q-88 -82 -211 -92q-96 -72 -113 -168q-8 -53 23 -89t82 -36zM584 98q100 0 193 92.5t136 225.5l78 442q-35 57 -93 88t-122 31q-135 0 -237.5 -90t-149.5 -220t-47 -276q0 -143 69 -218t173 -75z" />
    <glyph glyph-name="Cacute" unicode="&#x106;" horiz-adv-x="1425" 
d="M836 1522l-54 51l230 248q61 61 116 61q35 0 53.5 -22.5t12.5 -55.5q-8 -55 -82 -102zM725 -39q-205 0 -342 107.5t-187.5 284.5t-11.5 392q55 311 282.5 518t541.5 207q209 0 335.5 -101t102.5 -236q-10 -57 -49 -101.5t-94 -44.5q-66 0 -93.5 39t-29.5 94.5t-9.5 109.5
t-54.5 93t-143 39q-164 0 -315.5 -168t-200.5 -449q-59 -330 39 -501.5t311 -171.5q266 0 467 350l76 -47q-84 -184 -240 -299t-385 -115z" />
    <glyph glyph-name="cacute" unicode="&#x107;" horiz-adv-x="1161" 
d="M682 1157l-53 51l229 248q61 61 117 62q35 0 53.5 -22.5t11.5 -55.5q-8 -55 -82 -103zM606 -39q-102 0 -191 31t-161 93t-106.5 169.5t-20.5 247.5q25 276 221.5 441t452.5 165q186 0 292.5 -88t96.5 -199q-2 -55 -36 -94t-91 -39q-51 0 -80 28.5t-29 76.5q0 6 4.5 30.5
t4.5 34.5q0 57 -49.5 99t-153.5 42q-139 0 -261 -146t-143 -341q-27 -203 63.5 -313.5t266.5 -110.5q113 0 222.5 80t191.5 197l49 -33q-61 -152 -208 -261.5t-335 -109.5z" />
    <glyph glyph-name="Ccircumflex" unicode="&#x108;" horiz-adv-x="1425" 
d="M668 1511l-35 66l371 268l282 -268l-55 -66l-260 138zM725 -39q-205 0 -342 107.5t-187.5 284.5t-11.5 392q55 311 282.5 518t541.5 207q209 0 335.5 -101t102.5 -236q-10 -57 -49 -101.5t-94 -44.5q-66 0 -93.5 39t-29.5 94.5t-9.5 109.5t-54.5 93t-143 39
q-164 0 -315.5 -168t-200.5 -449q-59 -330 39 -501.5t311 -171.5q266 0 467 350l76 -47q-84 -184 -240 -299t-385 -115z" />
    <glyph glyph-name="ccircumflex" unicode="&#x109;" horiz-adv-x="1161" 
d="M483 1147l-34 65l368 269l283 -269l-53 -65l-261 137zM606 -39q-102 0 -191 31t-161 93t-106.5 169.5t-20.5 247.5q25 276 221.5 441t452.5 165q186 0 292.5 -88t96.5 -199q-2 -55 -36 -94t-91 -39q-51 0 -80 28.5t-29 76.5q0 6 4.5 30.5t4.5 34.5q0 57 -49.5 99
t-153.5 42q-139 0 -261 -146t-143 -341q-27 -203 63.5 -313.5t266.5 -110.5q113 0 222.5 80t191.5 197l49 -33q-61 -152 -208 -261.5t-335 -109.5z" />
    <glyph glyph-name="Cdotaccent" unicode="&#x10a;" horiz-adv-x="1425" 
d="M956.5 1630q-57.5 0 -88 36t-20.5 85q6 51 47 88t98 37q59 0 89 -37t22 -88q-8 -49 -49 -85t-98.5 -36zM725 -39q-205 0 -342 107.5t-187.5 284.5t-11.5 392q55 311 282.5 518t541.5 207q209 0 335.5 -101t102.5 -236q-10 -57 -49 -101.5t-94 -44.5q-66 0 -93.5 39
t-29.5 94.5t-9.5 109.5t-54.5 93t-143 39q-164 0 -315.5 -168t-200.5 -449q-59 -330 39 -501.5t311 -171.5q266 0 467 350l76 -47q-84 -184 -240 -299t-385 -115z" />
    <glyph glyph-name="cdotaccent" unicode="&#x10b;" horiz-adv-x="1161" 
d="M786.5 1266q-57.5 0 -87 35.5t-21.5 84.5q8 51 49 88t98.5 37t87 -36.5t23.5 -88.5q-10 -49 -51 -84.5t-98.5 -35.5zM606 -39q-102 0 -191 31t-161 93t-106.5 169.5t-20.5 247.5q25 276 221.5 441t452.5 165q186 0 292.5 -88t96.5 -199q-2 -55 -36 -94t-91 -39
q-51 0 -80 28.5t-29 76.5q0 6 4.5 30.5t4.5 34.5q0 57 -49.5 99t-153.5 42q-139 0 -261 -146t-143 -341q-27 -203 63.5 -313.5t266.5 -110.5q113 0 222.5 80t191.5 197l49 -33q-61 -152 -208 -261.5t-335 -109.5z" />
    <glyph glyph-name="Ccaron" unicode="&#x10c;" horiz-adv-x="1425" 
d="M956 1524l-282 268l53 66l260 -136l303 136l35 -66zM725 -39q-205 0 -342 107.5t-187.5 284.5t-11.5 392q55 311 282.5 518t541.5 207q209 0 335.5 -101t102.5 -236q-10 -57 -49 -101.5t-94 -44.5q-66 0 -93.5 39t-29.5 94.5t-9.5 109.5t-54.5 93t-143 39
q-164 0 -315.5 -168t-200.5 -449q-59 -330 39 -501.5t311 -171.5q266 0 467 350l76 -47q-84 -184 -240 -299t-385 -115z" />
    <glyph glyph-name="ccaron" unicode="&#x10d;" horiz-adv-x="1161" 
d="M748 1159l-283 268l53 66l260 -135l303 135l35 -66zM606 -39q-102 0 -191 31t-161 93t-106.5 169.5t-20.5 247.5q25 276 221.5 441t452.5 165q186 0 292.5 -88t96.5 -199q-2 -55 -36 -94t-91 -39q-51 0 -80 28.5t-29 76.5q0 6 4.5 30.5t4.5 34.5q0 57 -49.5 99t-153.5 42
q-139 0 -261 -146t-143 -341q-27 -203 63.5 -313.5t266.5 -110.5q113 0 222.5 80t191.5 197l49 -33q-61 -152 -208 -261.5t-335 -109.5z" />
    <glyph glyph-name="Dcaron" unicode="&#x10e;" horiz-adv-x="1458" 
d="M1221 1792l-369 -268l-285 268l56 66l260 -136l303 136zM850 1434q326 0 509 -213t126 -533q-57 -326 -281.5 -507t-533.5 -181h-635l2 57q47 10 83 47t46 95l182 1034q10 59 -12.5 95t-65.5 48l19 58h561zM1223 639q51 291 -65 487.5t-376 196.5q-68 0 -166 -8
l-206 -1176q131 -29 262 -28q223 0 367.5 155.5t183.5 372.5z" />
    <glyph glyph-name="dcaron" unicode="&#x10f;" horiz-adv-x="1609" 
d="M1366 1575l-238 -1335q-31 -170 72 -170q29 0 74 32l20 -49q-98 -92 -235 -92q-78 0 -129 48t-33 173h-6q-66 -102 -163 -161.5t-200 -59.5q-178 0 -281.5 111.5t-103.5 318.5q0 178 72 339t217.5 269.5t333.5 108.5q158 0 266 -104h10l39 219q10 59 -16.5 96t-71.5 47
l19 57q211 29 329 158zM1722 1470q80 0 117 -56t21 -148q-25 -131 -126.5 -268.5t-236.5 -217.5l-55 80q80 51 150.5 135t107.5 181l-2 4q-27 -10 -45 -11q-66 0 -103 42t-24 112q14 66 70 106.5t126 40.5zM606 98q100 0 194.5 90.5t137.5 219.5l80 454q-37 55 -96.5 85
t-116.5 30q-141 0 -244.5 -91t-149.5 -220t-46 -275q0 -141 69.5 -217t171.5 -76z" />
    <glyph glyph-name="Dcroat" unicode="&#x110;" horiz-adv-x="1458" 
d="M840 1434q326 0 512 -213t135 -533q-53 -326 -273.5 -507t-529.5 -181h-633v57q45 10 80 47t45 97l72 454h-250l18 123h252l72 457q10 57 -13.5 94t-66.5 47l19 58h561zM1227 641q45 291 -74 487.5t-379 196.5q-70 0 -168 -8l-84 -539h254l-18 -121h-256l-80 -516
q131 -29 262 -28q223 0 365.5 155.5t177.5 372.5z" />
    <glyph glyph-name="dcroat" unicode="&#x111;" horiz-adv-x="1286" 
d="M1296 1180l-168 -940q-31 -170 72 -170q29 0 74 32l20 -49q-98 -92 -235 -92q-78 0 -129 48t-33 173h-4q-66 -102 -162 -161.5t-201 -59.5q-178 0 -281.5 111.5t-103.5 318.5q0 178 72 339t217.5 269.5t333.5 108.5q158 0 266 -104h8l31 176h-317l16 90h311
q-12 78 -90 96l19 57q211 29 329 158l25 -6l-55 -305h219l-12 -90h-222zM608 98q100 0 192.5 89t137.5 221l80 458q-35 53 -94.5 82t-116.5 29q-141 0 -244.5 -91t-148.5 -220t-45 -275q0 -141 68.5 -217t170.5 -76z" />
    <glyph glyph-name="Emacron" unicode="&#x112;" horiz-adv-x="1296" 
d="M1169 1774l-22 -125h-567l22 125h567zM719 111q98 0 188 24.5t148.5 60t101.5 71.5t64 61l18 24l59 -26l-133 -359h-20q-74 33 -271 33h-839l2 57q47 10 83 47t46 95l182 1034q10 59 -12.5 95t-65.5 48l19 58h1009l66 -293l-68 -21q-2 8 -9 21.5t-37.5 48.5t-73.5 61.5
t-126 48t-188 21.5q-113 0 -248 -21l-77 -442l6 -2q76 59 159 59q82 0 206 -66.5t184 -66.5q82 0 159 72l39 -43q-129 -188 -286 -188q-74 0 -201 66.5t-193 66.5q-49 0 -98 -33l-102 -588q168 -24 309 -24z" />
    <glyph glyph-name="emacron" unicode="&#x113;" horiz-adv-x="1157" 
d="M1065 1409l-23 -125h-569l23 125h569zM631 88q246 0 477 246l41 -41q-106 -168 -260 -250t-320 -82q-195 0 -322.5 111.5t-127.5 330.5q0 180 82 339t243.5 262.5t368.5 103.5q158 0 263.5 -65.5t105.5 -194.5q0 -80 -46 -143.5t-121 -104.5t-188.5 -72.5t-225.5 -48
t-257 -30.5v-39q0 -156 90.5 -239t196.5 -83zM784 997q-145 0 -268 -128t-160 -324q262 23 437.5 99.5t175.5 205.5q0 68 -50.5 107.5t-134.5 39.5z" />
    <glyph glyph-name="Ebreve" unicode="&#x114;" horiz-adv-x="1296" 
d="M854 1585q-115 0 -179.5 58.5t-80.5 144.5l86 41q14 -47 67.5 -82t126.5 -35q72 0 138.5 34t95.5 81l74 -39q-109 -203 -328 -203zM719 111q98 0 188 24.5t148.5 60t101.5 71.5t64 61l18 24l59 -26l-133 -359h-20q-74 33 -271 33h-839l2 57q47 10 83 47t46 95l182 1034
q10 59 -12.5 95t-65.5 48l19 58h1009l66 -293l-68 -21q-2 8 -9 21.5t-37.5 48.5t-73.5 61.5t-126 48t-188 21.5q-113 0 -248 -21l-77 -442l6 -2q76 59 159 59q82 0 206 -66.5t184 -66.5q82 0 159 72l39 -43q-129 -188 -286 -188q-74 0 -201 66.5t-193 66.5q-49 0 -98 -33
l-102 -588q168 -24 309 -24z" />
    <glyph glyph-name="ebreve" unicode="&#x115;" horiz-adv-x="1157" 
d="M755.5 1221q-114.5 0 -179 58t-80.5 144l86 41q12 -47 66 -81.5t128 -34.5q72 0 138.5 33.5t95.5 80.5l73 -39q-47 -88 -130 -145t-197.5 -57zM631 88q246 0 477 246l41 -41q-106 -168 -260 -250t-320 -82q-195 0 -322.5 111.5t-127.5 330.5q0 180 82 339t243.5 262.5
t368.5 103.5q158 0 263.5 -65.5t105.5 -194.5q0 -80 -46 -143.5t-121 -104.5t-188.5 -72.5t-225.5 -48t-257 -30.5v-39q0 -156 90.5 -239t196.5 -83zM784 997q-145 0 -268 -128t-160 -324q262 23 437.5 99.5t175.5 205.5q0 68 -50.5 107.5t-134.5 39.5z" />
    <glyph glyph-name="Edotaccent" unicode="&#x116;" horiz-adv-x="1296" 
d="M852 1630q-57 0 -87 36t-22 85q8 51 49.5 88t98.5 37q59 0 89 -37t21 -88q-8 -49 -49 -85t-100 -36zM719 111q98 0 188 24.5t148.5 60t101.5 71.5t64 61l18 24l59 -26l-133 -359h-20q-74 33 -271 33h-839l2 57q47 10 83 47t46 95l182 1034q10 59 -12.5 95t-65.5 48l19 58
h1009l66 -293l-68 -21q-2 8 -9 21.5t-37.5 48.5t-73.5 61.5t-126 48t-188 21.5q-113 0 -248 -21l-77 -442l6 -2q76 59 159 59q82 0 206 -66.5t184 -66.5q82 0 159 72l39 -43q-129 -188 -286 -188q-74 0 -201 66.5t-193 66.5q-49 0 -98 -33l-102 -588q168 -24 309 -24z" />
    <glyph glyph-name="edotaccent" unicode="&#x117;" horiz-adv-x="1157" 
d="M776.5 1266q-57.5 0 -88.5 35.5t-20 84.5q6 51 47 88t98 37q59 0 89 -36.5t22 -88.5q-8 -49 -49 -84.5t-98.5 -35.5zM631 88q246 0 477 246l41 -41q-106 -168 -260 -250t-320 -82q-195 0 -322.5 111.5t-127.5 330.5q0 180 82 339t243.5 262.5t368.5 103.5
q158 0 263.5 -65.5t105.5 -194.5q0 -80 -46 -143.5t-121 -104.5t-188.5 -72.5t-225.5 -48t-257 -30.5v-39q0 -156 90.5 -239t196.5 -83zM784 997q-145 0 -268 -128t-160 -324q262 23 437.5 99.5t175.5 205.5q0 68 -50.5 107.5t-134.5 39.5z" />
    <glyph glyph-name="Eogonek" unicode="&#x118;" horiz-adv-x="1296" 
d="M1110 -332q88 0 156 90l67 -37q-113 -162 -289 -161q-104 0 -162.5 56t-43.5 148q25 139 174 236h-977l2 57q47 10 83 47t46 95l182 1034q10 59 -12.5 95t-65.5 48l19 58h1009l66 -293l-68 -21q-2 8 -9 21.5t-37.5 48.5t-73.5 61.5t-126 48t-188 21.5q-113 0 -248 -21
l-77 -442l6 -2q76 59 159 59q82 0 206 -66.5t184 -66.5q82 0 159 72l39 -43q-129 -188 -286 -188q-74 0 -201 66.5t-193 66.5q-49 0 -98 -33l-102 -588q168 -25 309 -24q98 0 188 24.5t148.5 60t101.5 71.5t64 61l18 24l59 -26l-120 -326q-154 -78 -172 -207
q-8 -53 22.5 -89t81.5 -36z" />
    <glyph glyph-name="eogonek" unicode="&#x119;" horiz-adv-x="1157" 
d="M631 88q246 0 477 246l41 -41q-176 -279 -485 -326q-102 -72 -119 -174q-8 -53 22.5 -89t81.5 -36q88 0 156 90l67 -37q-113 -162 -288 -161q-104 0 -163 56t-44 148q18 113 125 201q-170 18 -276.5 128t-106.5 310q0 180 82 339t243.5 262.5t368.5 103.5
q158 0 263.5 -65.5t105.5 -194.5q0 -80 -46 -143.5t-121 -104.5t-188.5 -72.5t-225.5 -48t-257 -30.5v-39q0 -156 90.5 -239t196.5 -83zM784 997q-145 0 -268 -128t-160 -324q262 23 437.5 99.5t175.5 205.5q0 68 -50.5 107.5t-134.5 39.5z" />
    <glyph glyph-name="Ecaron" unicode="&#x11a;" horiz-adv-x="1296" 
d="M1217 1792l-369 -268l-285 268l55 66l261 -136l303 136zM719 111q98 0 188 24.5t148.5 60t101.5 71.5t64 61l18 24l59 -26l-133 -359h-20q-74 33 -271 33h-839l2 57q47 10 83 47t46 95l182 1034q10 59 -12.5 95t-65.5 48l19 58h1009l66 -293l-68 -21q-2 8 -9 21.5
t-37.5 48.5t-73.5 61.5t-126 48t-188 21.5q-113 0 -248 -21l-77 -442l6 -2q76 59 159 59q82 0 206 -66.5t184 -66.5q82 0 159 72l39 -43q-129 -188 -286 -188q-74 0 -201 66.5t-193 66.5q-49 0 -98 -33l-102 -588q168 -24 309 -24z" />
    <glyph glyph-name="ecaron" unicode="&#x11b;" horiz-adv-x="1157" 
d="M1085 1427l-368 -268l-285 268l55 66l261 -135l303 135zM631 88q246 0 477 246l41 -41q-106 -168 -260 -250t-320 -82q-195 0 -322.5 111.5t-127.5 330.5q0 180 82 339t243.5 262.5t368.5 103.5q158 0 263.5 -65.5t105.5 -194.5q0 -80 -46 -143.5t-121 -104.5
t-188.5 -72.5t-225.5 -48t-257 -30.5v-39q0 -156 90.5 -239t196.5 -83zM784 997q-145 0 -268 -128t-160 -324q262 23 437.5 99.5t175.5 205.5q0 68 -50.5 107.5t-134.5 39.5z" />
    <glyph glyph-name="Gcircumflex" unicode="&#x11c;" horiz-adv-x="1445" 
d="M969 1649l-303 -138l-35 66l368 268l283 -268l-53 -66zM1051 733h458l-2 -59q-45 -8 -80.5 -45t-46.5 -97l-94 -532h-78l-45 139h-6q-164 -178 -432 -178q-205 0 -343 109.5t-187.5 287t-12.5 387.5q55 311 282.5 518t543.5 207q207 0 332.5 -101t103.5 -236
q-10 -59 -48 -102.5t-95.5 -43.5t-85 27.5t-30.5 69.5t-9.5 90.5t-17.5 90.5t-57 69.5t-128 27.5q-166 0 -317.5 -168t-200.5 -449q-57 -326 43 -499.5t299 -173.5q156 0 272 127l59 333q20 115 -96 142z" />
    <glyph glyph-name="gcircumflex" unicode="&#x11d;" horiz-adv-x="1351" 
d="M719 1284l-303 -137l-35 65l371 269l282 -269l-55 -65zM1225 1253q61 0 100 -30.5t39 -83.5q0 -47 -26.5 -77t-80.5 -30q-37 0 -78.5 32t-68.5 32q-49 0 -90 -64q166 -117 127 -348q-35 -188 -183.5 -300t-359.5 -112q-162 0 -272 70q-90 -6 -100.5 -67.5t76.5 -93
t356 -70.5q246 -37 342 -108t84 -181q-12 -133 -170 -205t-385 -72q-84 0 -169 13.5t-179.5 44t-149.5 98.5t-45 162q6 63 49 110t106 66v8q-109 74 -84 195q12 68 66.5 110.5t124.5 50.5v7q-94 113 -64 288q33 186 184.5 298t364.5 112q117 0 205 -37q121 182 281 182z
M942 686q25 145 -39.5 229t-185.5 84t-210 -81.5t-112 -219.5q-27 -145 39 -232t191 -87q119 0 206.5 83t110.5 224zM285 -14q-51 -8 -83 -43t-38 -82q-10 -70 55.5 -122t155.5 -73.5t178 -19.5q152 0 243 41t91 98q0 53 -59.5 79.5t-249.5 57.5q-158 25 -293 64z" />
    <glyph glyph-name="Gbreve" unicode="&#x11e;" horiz-adv-x="1445" 
d="M983 1585q-115 0 -179.5 58.5t-80.5 144.5l86 41q14 -47 67.5 -82t127.5 -35q72 0 138 34t95 81l74 -39q-109 -203 -328 -203zM1051 733h458l-2 -59q-45 -8 -80.5 -45t-46.5 -97l-94 -532h-78l-45 139h-6q-164 -178 -432 -178q-205 0 -343 109.5t-187.5 287t-12.5 387.5
q55 311 282.5 518t543.5 207q207 0 332.5 -101t103.5 -236q-10 -59 -48 -102.5t-95.5 -43.5t-85 27.5t-30.5 69.5t-9.5 90.5t-17.5 90.5t-57 69.5t-128 27.5q-166 0 -317.5 -168t-200.5 -449q-57 -326 43 -499.5t299 -173.5q156 0 272 127l59 333q20 115 -96 142z" />
    <glyph glyph-name="gbreve" unicode="&#x11f;" horiz-adv-x="1351" 
d="M717 1221q-115 0 -179.5 58t-78.5 144l84 41q14 -47 68.5 -81.5t126 -34.5t139 34.5t94.5 79.5l73 -39q-108 -202 -327 -202zM1225 1253q61 0 100 -30.5t39 -83.5q0 -47 -26.5 -77t-80.5 -30q-37 0 -78.5 32t-68.5 32q-49 0 -90 -64q166 -117 127 -348
q-35 -188 -183.5 -300t-359.5 -112q-162 0 -272 70q-90 -6 -100.5 -67.5t76.5 -93t356 -70.5q246 -37 342 -108t84 -181q-12 -133 -170 -205t-385 -72q-84 0 -169 13.5t-179.5 44t-149.5 98.5t-45 162q6 63 49 110t106 66v8q-109 74 -84 195q12 68 66.5 110.5t124.5 50.5v7
q-94 113 -64 288q33 186 184.5 298t364.5 112q117 0 205 -37q121 182 281 182zM942 686q25 145 -39.5 229t-185.5 84t-210 -81.5t-112 -219.5q-27 -145 39 -232t191 -87q119 0 206.5 83t110.5 224zM285 -14q-51 -8 -83 -43t-38 -82q-10 -70 55.5 -122t155.5 -73.5t178 -19.5
q152 0 243 41t91 98q0 53 -59.5 79.5t-249.5 57.5q-158 25 -293 64z" />
    <glyph glyph-name="Gdotaccent" unicode="&#x120;" horiz-adv-x="1445" 
d="M979 1630q-57 0 -87 36t-22 85q8 51 49.5 88t98.5 37t87 -37t23 -88q-10 -49 -51 -85t-98 -36zM1051 733h458l-2 -59q-45 -8 -80.5 -45t-46.5 -97l-94 -532h-78l-45 139h-6q-164 -178 -432 -178q-205 0 -343 109.5t-187.5 287t-12.5 387.5q55 311 282.5 518t543.5 207
q207 0 332.5 -101t103.5 -236q-10 -59 -48 -102.5t-95.5 -43.5t-85 27.5t-30.5 69.5t-9.5 90.5t-17.5 90.5t-57 69.5t-128 27.5q-166 0 -317.5 -168t-200.5 -449q-57 -326 43 -499.5t299 -173.5q156 0 272 127l59 333q20 115 -96 142z" />
    <glyph glyph-name="gdotaccent" unicode="&#x121;" horiz-adv-x="1351" 
d="M743.5 1266q-57.5 0 -88 35.5t-20.5 84.5q6 51 47 88t98 37q59 0 89 -36.5t22 -88.5q-8 -49 -49 -84.5t-98.5 -35.5zM1225 1253q61 0 100 -30.5t39 -83.5q0 -47 -26.5 -77t-80.5 -30q-37 0 -78.5 32t-68.5 32q-49 0 -90 -64q166 -117 127 -348q-35 -188 -183.5 -300
t-359.5 -112q-162 0 -272 70q-90 -6 -100.5 -67.5t76.5 -93t356 -70.5q246 -37 342 -108t84 -181q-12 -133 -170 -205t-385 -72q-84 0 -169 13.5t-179.5 44t-149.5 98.5t-45 162q6 63 49 110t106 66v8q-109 74 -84 195q12 68 66.5 110.5t124.5 50.5v7q-94 113 -64 288
q33 186 184.5 298t364.5 112q117 0 205 -37q121 182 281 182zM942 686q25 145 -39.5 229t-185.5 84t-210 -81.5t-112 -219.5q-27 -145 39 -232t191 -87q119 0 206.5 83t110.5 224zM285 -14q-51 -8 -83 -43t-38 -82q-10 -70 55.5 -122t155.5 -73.5t178 -19.5q152 0 243 41
t91 98q0 53 -59.5 79.5t-249.5 57.5q-158 25 -293 64z" />
    <glyph glyph-name="uni0122" unicode="&#x122;" horiz-adv-x="1445" 
d="M1051 733h458l-2 -59q-45 -8 -80.5 -45t-46.5 -97l-94 -532h-78l-45 139h-6q-164 -178 -432 -178q-205 0 -343 109.5t-187.5 287t-12.5 387.5q55 311 282.5 518t543.5 207q207 0 332.5 -101t103.5 -236q-10 -59 -48 -102.5t-95.5 -43.5t-85 27.5t-30.5 69.5t-9.5 90.5
t-17.5 90.5t-57 69.5t-128 27.5q-166 0 -317.5 -168t-200.5 -449q-57 -326 43 -499.5t299 -173.5q156 0 272 127l59 333q20 115 -96 142zM680 -102q78 0 114.5 -57.5t20.5 -147.5q-23 -129 -125 -266.5t-237 -219.5l-52 80q80 51 150 135t106 181l-2 4q-27 -10 -47 -10
q-63 0 -100 43t-25 110q12 66 68.5 107t128.5 41z" />
    <glyph glyph-name="uni0123" unicode="&#x123;" horiz-adv-x="1351" 
d="M743 1264q-80 0 -116.5 57t-20.5 147q23 129 125.5 267.5t237.5 218.5l53 -78q-178 -115 -256 -315l4 -5q29 8 43 9q63 0 101 -42t24 -110q-12 -66 -68.5 -107.5t-126.5 -41.5zM1225 1253q61 0 100 -30.5t39 -83.5q0 -47 -26.5 -77t-80.5 -30q-37 0 -78.5 32t-68.5 32
q-49 0 -90 -64q166 -117 127 -348q-35 -188 -183.5 -300t-359.5 -112q-162 0 -272 70q-90 -6 -100.5 -67.5t76.5 -93t356 -70.5q246 -37 342 -108t84 -181q-12 -133 -170 -205t-385 -72q-84 0 -169 13.5t-179.5 44t-149.5 98.5t-45 162q6 63 49 110t106 66v8
q-109 74 -84 195q12 68 66.5 110.5t124.5 50.5v7q-94 113 -64 288q33 186 184.5 298t364.5 112q117 0 205 -37q121 182 281 182zM942 686q25 145 -39.5 229t-185.5 84t-210 -81.5t-112 -219.5q-27 -145 39 -232t191 -87q119 0 206.5 83t110.5 224zM285 -14q-51 -8 -83 -43
t-38 -82q-10 -70 55.5 -122t155.5 -73.5t178 -19.5q152 0 243 41t91 98q0 53 -59.5 79.5t-249.5 57.5q-158 25 -293 64z" />
    <glyph glyph-name="Hcircumflex" unicode="&#x124;" horiz-adv-x="1517" 
d="M1004 1649l-304 -138l-34 66l370 268l283 -268l-55 -66zM1212 1434h443l-2 -58q-106 -27 -127 -143l-183 -1034q-10 -59 12.5 -95t65.5 -47l-18 -57h-445l3 57q104 23 129 142l86 487h-670l-86 -487q-10 -59 12.5 -95t65.5 -47l-19 -57h-444l2 57q47 10 83 47t46 95
l182 1034q23 117 -78 143l19 58h442l-2 -58q-106 -29 -127 -143l-72 -408h670l72 408q10 59 -12.5 95t-65.5 48z" />
    <glyph glyph-name="hcircumflex" unicode="&#x125;" 
d="M571 1731l-303 -136l-35 66l371 268l283 -268l-56 -66zM1237 102l18 -49q-104 -92 -231 -92q-35 0 -63.5 8t-60.5 33t-38 70t6 118l105 472q35 143 -10 227t-162 84q-123 0 -242 -138.5t-153 -330.5q-27 -150 -38.5 -276t-11.5 -177l2 -51h-258l209 1223q14 59 -11.5 96
t-70.5 47l19 57q205 29 325 158l23 -8l-125 -705h18q162 238 406 238q184 0 268 -120t33 -337l-94 -409q-20 -68 -6 -119t67 -51q31 -1 76 32z" />
    <glyph glyph-name="Hbar" unicode="&#x126;" horiz-adv-x="1517" 
d="M1481 999l-129 -798q-8 -59 15.5 -96t66.5 -48l-19 -57h-442v57q47 10 82 47t45 97l78 487h-670l-78 -487q-10 -59 13.5 -96t66.5 -48l-18 -57h-443v57q47 10 82 47t45 97l127 798h-164l13 93h165l23 143q8 57 -15.5 94t-66.5 47l18 58h443v-58q-47 -10 -82 -47t-43 -94
l-23 -143h670l23 143q8 57 -15.5 94t-66.5 47l18 58h442v-58q-47 -10 -81.5 -47t-42.5 -94l-23 -143h160l-13 -93h-161zM528 825h670l29 174h-670z" />
    <glyph glyph-name="hbar" unicode="&#x127;" 
d="M1237 102l18 -49q-104 -92 -231 -92q-35 0 -63.5 8t-60.5 33t-38 70t6 118l105 472q35 143 -10 227t-162 84q-123 0 -242 -138.5t-153 -330.5q-27 -150 -38.5 -276t-11.5 -177l2 -51h-258l201 1180h-166l15 90h163q-6 76 -86 96l19 57q205 29 325 158l23 -8l-53 -303h368
l-14 -90h-371l-55 -312h18q162 238 406 238q184 0 268 -120t33 -337l-94 -409q-20 -68 -6 -119t67 -51q31 -1 76 32z" />
    <glyph glyph-name="Itilde" unicode="&#x128;" horiz-adv-x="604" 
d="M639 1622q-59 0 -135 56.5t-113 56.5q-63 0 -94 -86l-74 22q29 104 86.5 152.5t126.5 48.5q59 0 136 -55.5t114 -55.5q63 0 96 84l70 -20q-57 -203 -213 -203zM43 0l2 57q45 10 81 47t46 95l182 1034q20 117 -75 143l16 58h444l-2 -58q-106 -27 -127 -143l-184 -1034
q-10 -57 13.5 -94t64.5 -48l-19 -57h-442z" />
    <glyph glyph-name="itilde" unicode="&#x129;" horiz-adv-x="616" 
d="M582 1257q-57 0 -133 56.5t-113 56.5q-66 0 -94 -86l-74 23q55 201 213 200q57 0 134 -55t114 -55q63 0 96 84l72 -21q-57 -203 -215 -203zM334 -39q-80 0 -131 49t-29 180l98 568q10 59 -16.5 95t-69.5 46l19 57q211 31 327 160l27 -10l-153 -866q-16 -68 0 -119t67 -51
q31 0 76 32l20 -49q-98 -92 -235 -92z" />
    <glyph glyph-name="Imacron" unicode="&#x12a;" horiz-adv-x="604" 
d="M283 1649l24 125h567l-22 -125h-569zM43 0l2 57q45 10 81 47t46 95l182 1034q20 117 -75 143l16 58h444l-2 -58q-106 -27 -127 -143l-184 -1034q-10 -57 13.5 -94t64.5 -48l-19 -57h-442z" />
    <glyph glyph-name="imacron" unicode="&#x12b;" horiz-adv-x="516" 
d="M176 1284l25 125h567l-23 -125h-569zM334 -39q-80 0 -131 49t-29 180l98 568q10 59 -16.5 95t-69.5 46l19 57q211 31 327 160l27 -10l-153 -866q-16 -68 0 -119t67 -51q31 0 76 32l20 -49q-98 -92 -235 -92z" />
    <glyph glyph-name="Iogonek" unicode="&#x12e;" horiz-adv-x="604" 
d="M295 1434h444l-2 -58q-106 -27 -127 -143l-184 -1034q-10 -57 13.5 -94t64.5 -48l-19 -57h-129q-72 -35 -117.5 -90t-54.5 -117q-8 -53 23 -89t82 -36q88 0 155 90l68 -37q-113 -162 -289 -161q-104 0 -162.5 56t-44.5 148q23 139 174 236h-147l2 57q45 10 81 47t46 95
l182 1034q20 117 -75 143z" />
    <glyph glyph-name="iogonek" unicode="&#x12f;" horiz-adv-x="542" 
d="M465 1536q70 0 113 -44t43 -103.5t-43 -103.5t-113 -44t-112 44t-42 103.5t42 103.5t112 44zM301 -37q-96 -72 -113 -170q-8 -53 23 -89t82 -36q88 0 156 90l67 -37q-113 -162 -289 -161q-104 0 -162.5 56t-44.5 148q23 145 187 244q-55 57 -33 182l98 568
q10 59 -16.5 95t-69.5 46l19 57q211 31 327 160l27 -10l-153 -866q-16 -68 0 -119t67 -51q31 0 76 32l20 -49q-98 -92 -235 -92q-23 0 -33 2z" />
    <glyph glyph-name="Idotaccent" unicode="&#x130;" horiz-adv-x="598" 
d="M528 1630q-57 0 -86.5 36t-21.5 85q8 51 49 88t98 37q59 0 89 -37t22 -88q-8 -49 -49.5 -85t-100.5 -36zM37 0v57q47 10 83 47t46 95l182 1034q10 59 -12.5 95t-65.5 48l19 58h444l-2 -58q-106 -27 -129 -143l-182 -1034q-10 -57 13.5 -94t64.5 -48l-19 -57h-442z" />
    <glyph glyph-name="dotlessi" unicode="&#x131;" horiz-adv-x="495" 
d="M334 -39q-80 0 -131 49t-29 180l98 568q10 59 -16.5 95t-69.5 46l19 57q211 31 327 160l27 -10l-153 -866q-16 -68 0 -119t67 -51q31 0 76 32l20 -49q-98 -92 -235 -92z" />
    <glyph glyph-name="IJ" unicode="&#x132;" horiz-adv-x="1177" 
d="M53 0l2 57q45 10 81 46t46 96l183 1034q20 117 -76 143l16 58h445l-2 -58q-106 -27 -127 -143l-185 -1034q-8 -57 14.5 -94t63.5 -48l-18 -57h-443zM463 -424q-147 0 -211 58.5t-51 134.5q10 55 52 90t91 35q51 0 79 -30t33 -67t23.5 -66.5t52.5 -29.5q76 0 126.5 74.5
t80.5 255.5l211 1202q12 59 -10 95t-66 48l17 58h444l-2 -58q-106 -29 -127 -143l-205 -1161q-45 -256 -188 -376t-350 -120z" />
    <glyph glyph-name="ij" unicode="&#x133;" horiz-adv-x="999" 
d="M419.5 1241q-69.5 0 -111.5 44t-42 103.5t42 103.5t111.5 44t114 -44t44.5 -103.5t-44.5 -103.5t-114 -44zM921.5 1241q-69.5 0 -111.5 44t-42 103.5t42 103.5t111.5 44t112.5 -44t43 -103.5t-43 -103.5t-112.5 -44zM289 -39q-80 0 -131.5 49t-28.5 180l100 568
q10 59 -16.5 95t-71.5 46l19 57q211 29 329 160l25 -10l-154 -866q-31 -170 70 -170q29 0 74 32l22 -49q-100 -92 -237 -92zM362 -455q-104 0 -172.5 41t-66.5 105q6 86 96 86q59 0 105.5 -60.5t97.5 -60.5q104 0 131 145l160 957q10 59 -16.5 95t-71.5 46l18 57
q211 29 330 158l26 -8l-204 -1167q-37 -205 -137.5 -299.5t-295.5 -94.5z" />
    <glyph glyph-name="Jcircumflex" unicode="&#x134;" horiz-adv-x="552" 
d="M215 1511l-33 66l369 268l283 -268l-54 -66l-260 138zM-152 -424q-147 0 -210.5 58.5t-49.5 134.5q8 55 50.5 90t91.5 35q53 0 79.5 -30t31.5 -67t23.5 -66.5t53.5 -29.5q76 0 126 74.5t81 255.5l213 1202q10 59 -12.5 95t-65.5 48l19 58h444l-2 -58q-106 -27 -129 -143
l-203 -1161q-47 -256 -190.5 -376t-350.5 -120z" />
    <glyph glyph-name="jcircumflex" unicode="&#x135;" horiz-adv-x="641" 
d="M104 1147l-34 65l370 269l283 -269l-55 -65l-260 137zM-86 -455q-102 0 -172 41t-68 105q6 86 99 86q59 0 104 -60.5t98 -60.5q47 0 82 36t47 109l160 957q10 59 -16.5 95t-69.5 46l19 57q211 31 327 158l27 -8l-203 -1167q-37 -205 -138 -299.5t-296 -94.5z" />
    <glyph glyph-name="uni0136" unicode="&#x136;" horiz-adv-x="1521" 
d="M1419 1470q133 0 198.5 -53t55.5 -143q-4 -59 -44 -92t-87 -33q-51 0 -85 23.5t-49 50t-47 50t-77 23.5q-137 0 -412 -335l443 -762q66 -121 170 -142l-17 -57h-487v57q39 10 51 44t-18 98l-316 524h-6q-111 -154 -243 -358l-29 -166q-10 -57 13.5 -94t64.5 -48l-19 -57
h-442v57q47 10 83 47t46 95l182 1034q10 59 -12.5 95t-65.5 48l19 58h444l-2 -58q-106 -27 -129 -143l-92 -520h8q160 227 297 383.5t299 265t305 108.5zM729 -102q80 0 117 -56.5t20 -148.5q-23 -129 -125 -266.5t-237 -219.5l-53 80q178 115 256 316l-2 4q-25 -10 -46 -10
q-63 0 -101 43t-23 110q12 66 68 107t126 41z" />
    <glyph glyph-name="uni0137" unicode="&#x137;" horiz-adv-x="1208" 
d="M1237 137l35 -49q-109 -127 -264 -127q-162 0 -293 147.5t-191 348.5q-18 -2 -53 -2q-63 -213 -57 -457h-262l208 1225q14 59 -11 96t-70 47l18 57q203 29 328 158l22 -8l-137 -772h16q113 160 249 233.5t267 73.5q78 0 134.5 -40t56.5 -118q0 -129 -140.5 -256
t-336.5 -194q150 -412 370 -412q54 0 111 49zM903 922q-117 0 -224.5 -102.5t-176.5 -278.5q184 6 332.5 103t148.5 206q0 29 -19.5 50.5t-60.5 21.5zM631 -102q80 0 116.5 -56.5t20.5 -148.5q-23 -129 -125 -266.5t-237 -219.5l-54 80q178 115 256 316l-2 4
q-25 -10 -45 -10q-63 0 -101 43t-24 110q12 66 68.5 107t126.5 41z" />
    <glyph glyph-name="kgreenlandic" unicode="&#x138;" horiz-adv-x="1208" 
d="M1237 137l35 -49q-109 -127 -264 -127q-162 0 -293 147.5t-191 348.5q-18 -2 -53 -2q-63 -213 -57 -457h-262l129 760q12 59 -13.5 96t-70.5 47l18 57q209 29 328 158l22 -8l-55 -307h16q113 160 249 233.5t267 73.5q78 0 134.5 -40t56.5 -118q0 -129 -140.5 -256
t-336.5 -194q150 -412 370 -412q54 0 111 49zM903 922q-117 0 -224.5 -102.5t-176.5 -278.5q184 6 332.5 103t148.5 206q0 29 -19.5 50.5t-60.5 21.5z" />
    <glyph glyph-name="Lacute" unicode="&#x139;" horiz-adv-x="1183" 
d="M768 1702l-276 -180l-52 51l228 248q61 61 116 61q35 0 53.5 -22.5t14.5 -55.5q-10 -55 -84 -102zM1231 352l59 -26l-133 -359h-20q-70 33 -271 33h-829v57q47 10 83 47t46 95l182 1034q10 59 -12.5 95t-65.5 48l19 58h444l-2 -58q-106 -27 -129 -143l-192 -1100
q154 -23 301 -22q100 0 190 24.5t147.5 60t100.5 71.5t63 61z" />
    <glyph glyph-name="lacute" unicode="&#x13a;" horiz-adv-x="577" 
d="M492 1642l-52 52l228 248q66 61 116 61q37 0 55.5 -23.5t12.5 -54.5q-8 -57 -84 -102zM356 -39q-80 0 -132 49t-29 180l182 1033q12 59 -15.5 96t-72.5 47l18 57q211 29 332 158l25 -6l-238 -1335q-35 -170 70 -170q29 0 73 32l23 -49q-101 -92 -236 -92z" />
    <glyph glyph-name="uni013B" unicode="&#x13b;" horiz-adv-x="1183" 
d="M1231 352l59 -26l-133 -359h-20q-70 33 -271 33h-829v57q47 10 83 47t46 95l182 1034q10 59 -12.5 95t-65.5 48l19 58h444l-2 -58q-106 -27 -129 -143l-192 -1100q154 -23 301 -22q100 0 190 24.5t147.5 60t100.5 71.5t63 61zM684 -102q78 0 115 -57.5t20 -147.5
q-23 -129 -125 -266.5t-237 -219.5l-51 80q80 51 149.5 135t106.5 181l-3 4q-27 -10 -47 -10q-63 0 -100 43t-25 110q12 66 68.5 107t128.5 41z" />
    <glyph glyph-name="uni013C" unicode="&#x13c;" horiz-adv-x="577" 
d="M496 70q29 0 73 32l23 -49q-100 -92 -236 -92q-80 0 -132 49t-29 180l182 1033q12 59 -15.5 96t-72.5 47l18 57q211 29 332 158l25 -6l-238 -1335q-34 -170 70 -170zM319 -102q78 0 115 -57.5t21 -147.5q-23 -129 -125.5 -266.5t-237.5 -219.5l-51 80q80 51 149.5 135
t106.5 181l-2 4q-27 -10 -47 -10q-63 0 -100 43t-25 110q12 66 68 107t128 41z" />
    <glyph glyph-name="Lcaron" unicode="&#x13d;" horiz-adv-x="1183" 
d="M819 860q80 51 150.5 135t107.5 181l-2 4q-27 -10 -45 -11q-66 0 -102.5 42t-24.5 112q12 63 69.5 105t127.5 42q80 0 116.5 -56t20.5 -148q-25 -131 -126 -268.5t-237 -217.5zM1231 352l59 -26l-133 -359h-20q-70 33 -271 33h-829v57q47 10 83 47t46 95l182 1034
q10 59 -12.5 95t-65.5 48l19 58h444l-2 -58q-106 -27 -129 -143l-192 -1100q154 -23 301 -22q100 0 190 24.5t147.5 60t100.5 71.5t63 61z" />
    <glyph glyph-name="lcaron" unicode="&#x13e;" horiz-adv-x="962" 
d="M664 1575l-238 -1335q-35 -170 70 -170q29 0 73 32l23 -49q-100 -92 -236 -92q-80 0 -132 49t-29 180l182 1033q12 59 -15.5 96t-72.5 47l18 57q211 29 332 158zM954 1470q78 0 115 -57t21 -147q-23 -131 -124.5 -268.5t-236.5 -217.5l-55 80q80 51 150.5 135t107.5 181
l-4 4q-25 -10 -45 -11q-63 0 -100.5 42t-24.5 112q12 66 68 106.5t128 40.5z" />
    <glyph glyph-name="Ldot" unicode="&#x13f;" horiz-adv-x="1183" 
d="M1231 352l59 -26l-133 -359h-20q-70 33 -271 33h-829v57q47 10 83 47t46 95l182 1034q10 59 -12.5 95t-65.5 48l19 58h444l-2 -58q-106 -27 -129 -143l-192 -1100q154 -23 301 -22q100 0 190 24.5t147.5 60t100.5 71.5t63 61zM846 692q-68 0 -108 45t-27 117
q14 70 69.5 114t123 44t106.5 -44t24 -114q-14 -72 -68 -117t-120 -45z" />
    <glyph glyph-name="ldot" unicode="&#x140;" horiz-adv-x="835" 
d="M356 -39q-80 0 -132 49t-29 180l182 1033q12 59 -15.5 96t-72.5 47l18 57q211 29 332 158l25 -6l-238 -1335q-35 -170 70 -170q29 0 73 32l23 -49q-101 -92 -236 -92zM784.5 635q-67.5 0 -107.5 45t-26 117q14 70 69.5 113.5t121.5 43.5q68 0 107.5 -44t25.5 -113
q-14 -72 -68.5 -117t-122 -45z" />
    <glyph glyph-name="Lslash" unicode="&#x141;" horiz-adv-x="1161" 
d="M1198 379l59 -29l-174 -383h-20q-61 33 -270 33h-744v57q45 10 80 47t47 97l76 483l-227 -121l12 92l229 123l72 457q10 57 -13.5 94t-66.5 47l18 58h443l-2 -58q-45 -10 -80 -47t-45 -94l-49 -309l239 127l-14 -92l-240 -130l-110 -702q147 -16 254 -16q98 0 189 27.5
t149.5 66.5t103.5 78t66 67z" />
    <glyph glyph-name="lslash" unicode="&#x142;" horiz-adv-x="577" 
d="M664 1575l-158 -891l143 78l-14 -92l-146 -78l-63 -352q-35 -170 70 -170q29 0 73 32l23 -49q-100 -92 -236 -92q-80 0 -132 49t-29 180l47 271l-144 -78l15 92l145 78l119 670q12 59 -15.5 96t-72.5 47l18 57q211 29 332 158z" />
    <glyph glyph-name="Nacute" unicode="&#x143;" horiz-adv-x="1396" 
d="M1182 1702l-277 -180l-53 51l229 248q61 61 117 61q35 0 53.5 -22.5t12.5 -55.5q-8 -55 -82 -102zM1249 1434h301l-2 -58q-106 -27 -127 -143l-219 -1233h-139q-23 125 -84 241.5t-138 210t-155 185.5t-146.5 208t-101.5 236h-10l-156 -882q-10 -57 13.5 -94t66.5 -48
l-18 -57h-301l2 57q45 10 81 47t46 95l182 1034q20 117 -78 143l19 58h260q49 -160 145 -319t184.5 -264.5t169 -235.5t105.5 -242h8l152 860q20 117 -78 143z" />
    <glyph glyph-name="nacute" unicode="&#x144;" horiz-adv-x="1249" 
d="M942 1337l-276 -180l-54 51l230 248q61 61 116 62q35 0 53.5 -22.5t12.5 -55.5q-8 -56 -82 -103zM1300 102l21 -49q-106 -92 -242 -92q-35 0 -62.5 8t-57 33t-34.5 70t7 118l104 472q35 143 -10 227t-162 84q-123 0 -241.5 -138.5t-153.5 -330.5q-27 -150 -38 -276
t-9 -179v-51h-258l131 760q10 59 -16.5 95t-71.5 46l18 57q213 29 330 160l27 -10l-45 -238h14q166 238 405 238q182 0 267.5 -120t36.5 -337l-97 -409q-20 -68 -6 -119t68 -51q30 -1 75 32z" />
    <glyph glyph-name="uni0145" unicode="&#x145;" horiz-adv-x="1396" 
d="M1249 1434h301l-2 -58q-106 -27 -127 -143l-219 -1233h-139q-23 125 -84 241.5t-138 210t-155 185.5t-146.5 208t-101.5 236h-10l-156 -882q-10 -57 13.5 -94t66.5 -48l-18 -57h-301l2 57q45 10 81 47t46 95l182 1034q20 117 -78 143l19 58h260q49 -160 145 -319
t184.5 -264.5t169 -235.5t105.5 -242h8l152 860q20 117 -78 143zM680 -102q78 0 114.5 -57.5t20.5 -147.5q-23 -129 -125 -266.5t-237 -219.5l-52 80q80 51 150 135t106 181l-2 4q-27 -10 -47 -10q-63 0 -100 43t-25 110q12 66 68.5 107t128.5 41z" />
    <glyph glyph-name="uni0146" unicode="&#x146;" horiz-adv-x="1249" 
d="M1300 102l21 -49q-106 -92 -242 -92q-35 0 -62.5 8t-57 33t-34.5 70t7 118l104 472q35 143 -10 227t-162 84q-123 0 -241.5 -138.5t-153.5 -330.5q-27 -150 -38 -276t-9 -179v-51h-258l131 760q10 59 -16.5 95t-71.5 46l18 57q213 29 330 160l27 -10l-45 -238h14
q166 238 405 238q182 0 267.5 -120t36.5 -337l-97 -409q-20 -68 -6 -119t68 -51q30 -1 75 32zM700 -102q78 0 115 -57.5t21 -147.5q-23 -129 -125.5 -266.5t-237.5 -219.5l-51 80q80 51 149.5 135t106.5 181l-2 4q-27 -10 -47 -10q-63 0 -100 43t-25 110q12 66 68 107
t128 41z" />
    <glyph glyph-name="Ncaron" unicode="&#x147;" horiz-adv-x="1396" 
d="M1303 1792l-369 -268l-285 268l56 66l260 -136l303 136zM1249 1434h301l-2 -58q-106 -27 -127 -143l-219 -1233h-139q-23 125 -84 241.5t-138 210t-155 185.5t-146.5 208t-101.5 236h-10l-156 -882q-10 -57 13.5 -94t66.5 -48l-18 -57h-301l2 57q45 10 81 47t46 95
l182 1034q20 117 -78 143l19 58h260q49 -160 145 -319t184.5 -264.5t169 -235.5t105.5 -242h8l152 860q20 117 -78 143z" />
    <glyph glyph-name="ncaron" unicode="&#x148;" horiz-adv-x="1249" 
d="M1174 1427l-369 -268l-283 268l53 66l263 -135l303 135zM1300 102l21 -49q-106 -92 -242 -92q-35 0 -62.5 8t-57 33t-34.5 70t7 118l104 472q35 143 -10 227t-162 84q-123 0 -241.5 -138.5t-153.5 -330.5q-27 -150 -38 -276t-9 -179v-51h-258l131 760q10 59 -16.5 95
t-71.5 46l18 57q213 29 330 160l27 -10l-45 -238h14q166 238 405 238q182 0 267.5 -120t36.5 -337l-97 -409q-20 -68 -6 -119t68 -51q30 -1 75 32z" />
    <glyph glyph-name="napostrophe" unicode="&#x149;" horiz-adv-x="1363" 
d="M315 1470q78 0 115 -57t21 -147q-23 -129 -125.5 -267.5t-237.5 -218.5l-53 80q80 51 150.5 135t105.5 181l-2 4q-25 -10 -45 -11q-63 0 -100.5 42t-24.5 112q12 66 68 106.5t128 40.5zM1415 102l21 -49q-106 -92 -242 -92q-35 0 -62.5 8t-57.5 33t-35 70t8 118l104 472
q35 143 -10 227t-162 84q-123 0 -242 -138.5t-153 -330.5q-27 -150 -38 -276t-9 -179v-51h-258l131 760q10 59 -16.5 95t-71.5 46l18 57q213 29 330 160l26 -10l-45 -238h15q166 238 405 238q182 0 267 -120t36 -337l-96 -409q-20 -68 -6 -119t67 -51q31 -1 76 32z" />
    <glyph glyph-name="Eng" unicode="&#x14a;" horiz-adv-x="1452" 
d="M1298 1434h301v-58q-47 -10 -81.5 -47t-42.5 -94l-193 -1217q-70 -442 -430 -442q-133 0 -207 55.5t-61 128.5q8 51 43 83t80 32q49 0 74.5 -29.5t32.5 -64.5t35 -64.5t79 -29.5q84 0 148.5 78.5t90.5 248.5q-27 123 -97.5 238t-156.5 207t-172 183t-161.5 205
t-108.5 234h-10l-139 -880q-8 -59 15 -96t66 -48l-18 -57h-301v57q47 10 82 47t45 97l164 1034q8 57 -15.5 94t-66.5 47l18 58h250q43 -131 120 -254t158 -216.5t159.5 -182.5t140 -184t84.5 -189h6l133 827q8 59 -14.5 95t-65.5 46z" />
    <glyph glyph-name="eng" unicode="&#x14b;" horiz-adv-x="1216" 
d="M961 1106q182 0 263 -118t38 -339l-136 -733q-31 -176 -139 -273.5t-270 -97.5q-117 0 -195 51.5t-63 135.5q6 43 37.5 73.5t79 30.5t64.5 -31.5t15 -70.5t15.5 -71t64.5 -32q49 0 85 49.5t50.5 97.5t28.5 124l141 760q29 147 -14 229t-158 82q-123 0 -241.5 -138.5
t-153.5 -330.5q-27 -150 -39 -276t-10 -179l2 -51h-258l131 760q10 59 -16.5 95t-71.5 46l18 57q213 29 330 160l25 -10l-45 -238h16q162 238 406 238z" />
    <glyph glyph-name="Omacron" unicode="&#x14c;" horiz-adv-x="1548" 
d="M791 1649l22 125h569l-22 -125h-569zM752 -39q-293 0 -460 220t-112 534q57 332 284.5 543.5t543.5 211.5q291 0 454.5 -219t106.5 -542q-55 -319 -286.5 -533.5t-530.5 -214.5zM770 72q186 0 340 186t203 457q47 279 -45 462t-279 183q-195 0 -347.5 -179.5
t-201.5 -459.5q-49 -268 44 -458.5t286 -190.5z" />
    <glyph glyph-name="omacron" unicode="&#x14d;" horiz-adv-x="1232" 
d="M483 1284l23 125h569l-22 -125h-570zM602 -39q-252 0 -383 168t-90 416q39 244 218 403.5t423 159.5q246 0 376 -165t89 -417q-39 -246 -215 -405.5t-418 -159.5zM623 72q141 0 249.5 129t137.5 325q31 203 -43 337t-219 134q-141 0 -253 -128t-141 -324
q-31 -199 44 -336t225 -137z" />
    <glyph glyph-name="Obreve" unicode="&#x14e;" horiz-adv-x="1548" 
d="M1036.5 1585q-114.5 0 -179 58.5t-81.5 144.5l86 41q12 -47 66.5 -82t126.5 -35q74 0 140.5 34t92.5 81l76 -39q-47 -88 -130 -145.5t-197.5 -57.5zM752 -39q-293 0 -460 220t-112 534q57 332 284.5 543.5t543.5 211.5q291 0 454.5 -219t106.5 -542
q-55 -319 -286.5 -533.5t-530.5 -214.5zM770 72q186 0 340 186t203 457q47 279 -45 462t-279 183q-195 0 -347.5 -179.5t-201.5 -459.5q-49 -268 44 -458.5t286 -190.5z" />
    <glyph glyph-name="obreve" unicode="&#x14f;" horiz-adv-x="1232" 
d="M784 1221q-115 0 -179 58t-79 144l84 41q14 -47 68.5 -81.5t126.5 -34.5t139.5 34.5t93.5 79.5l74 -39q-109 -202 -328 -202zM602 -39q-252 0 -383 168t-90 416q39 244 218 403.5t423 159.5q246 0 376 -165t89 -417q-39 -246 -215 -405.5t-418 -159.5zM623 72
q141 0 249.5 129t137.5 325q31 203 -43 337t-219 134q-141 0 -253 -128t-141 -324q-31 -199 44 -336t225 -137z" />
    <glyph glyph-name="Ohungarumlaut" unicode="&#x150;" horiz-adv-x="1548" 
d="M825 1516l-75 34q100 186 137 258q45 82 112 82q37 0 54.5 -23.5t13.5 -54.5q-6 -35 -55 -92zM1100 1516l-76 34l139 258q41 82 109 82q37 0 55.5 -23.5t14 -54t-55.5 -92.5zM752 -39q-293 0 -460 220t-112 534q57 332 284.5 543.5t543.5 211.5q291 0 454.5 -219
t106.5 -542q-55 -319 -286.5 -533.5t-530.5 -214.5zM770 72q186 0 340 186t203 457q47 279 -45 462t-279 183q-195 0 -347.5 -179.5t-201.5 -459.5q-49 -268 44 -458.5t286 -190.5z" />
    <glyph glyph-name="ohungarumlaut" unicode="&#x151;" horiz-adv-x="1232" 
d="M602 1151l-78 35q102 186 140 258q41 82 110 82q37 0 55.5 -23.5t14.5 -54.5q-6 -35 -56 -92zM877 1151l-76 35q98 186 137 258q45 82 111 82q37 0 55 -23.5t14 -54.5q-6 -35 -55 -92zM602 -39q-252 0 -383 168t-90 416q39 244 218 403.5t423 159.5q246 0 376 -165
t89 -417q-39 -246 -215 -405.5t-418 -159.5zM623 72q141 0 249.5 129t137.5 325q31 203 -43 337t-219 134q-141 0 -253 -128t-141 -324q-31 -199 44 -336t225 -137z" />
    <glyph glyph-name="OE" unicode="&#x152;" horiz-adv-x="2220" 
d="M1657 111q100 0 190 24.5t147.5 60t100.5 71.5t62 61l18 24l59 -26l-141 -359h-20q-66 33 -273 33h-809q-125 -33 -262 -33q-293 0 -465 220.5t-123 533.5q53 332 276.5 544t538.5 212q133 0 261 -43h1019l54 -291l-68 -23q-2 8 -9 21.5t-38 48.5t-74 61.5t-127 48
t-188 21.5q-113 0 -248 -21l-76 -444h2q80 59 162 59t206 -66.5t183 -66.5q82 0 160 72l39 -43q-129 -188 -287 -188q-76 0 -202 66.5t-191 66.5q-47 0 -92 -29l-101 -592q173 -24 316 -24zM1098 199l170 1007q-121 160 -363 160q-195 0 -333 -152.5t-173 -375.5
q-31 -195 8 -367t149 -282.5t269 -110.5q141 0 250 61q17 27 23 60z" />
    <glyph glyph-name="oe" unicode="&#x153;" horiz-adv-x="2213" 
d="M1688 88q246 0 477 246l41 -41q-106 -168 -260 -250t-320 -82q-137 0 -242.5 61.5t-152.5 186.5h-2q-82 -115 -205 -180.5t-270 -65.5q-252 0 -384 168t-96 416q35 244 213.5 402.5t421.5 158.5q150 0 259.5 -76t154.5 -205h6q195 281 541 281q158 0 263 -65.5
t105 -194.5q0 -100 -66.5 -173t-192.5 -117t-260 -68.5t-318 -40.5q-2 -14 -2 -39q0 -156 91.5 -239t197.5 -83zM1147 526q31 203 -43 337t-219 134q-143 0 -254 -128t-139 -324q-31 -201 43.5 -337t224.5 -136q141 0 249.5 128.5t137.5 325.5zM1841 997q-145 0 -268 -128
t-162 -324q166 14 299 49t224 101.5t91 154.5q0 68 -50 107.5t-134 39.5z" />
    <glyph glyph-name="Racute" unicode="&#x154;" horiz-adv-x="1456" 
d="M1141 1702l-277 -180l-51 51l227 248q61 61 117 61q35 0 53.5 -22.5t14.5 -55.5q-10 -55 -84 -102zM1497 1026q-51 -289 -403 -375l-2 -12q59 -2 99 -21.5t62.5 -43t36 -73.5t17.5 -85t10 -109q8 -135 38.5 -187t131.5 -50l-2 -62q-98 -35 -185 -35q-49 0 -84.5 7.5
t-78.5 32t-69 82t-28 145.5q-8 227 -65 299.5t-252 72.5l-229 2l-74 -415q-10 -57 13.5 -94t64.5 -48l-19 -57h-444l2 57q47 10 83 47t46 95l182 1034q10 59 -12.5 95t-65.5 48l19 58h690q268 0 409.5 -107.5t108.5 -300.5zM883 1321q-156 0 -269 -23l-100 -569h287
q193 0 302 78t136 213q25 141 -72.5 221t-283.5 80z" />
    <glyph glyph-name="racute" unicode="&#x155;" horiz-adv-x="1005" 
d="M799 1337l-277 -180l-51 51l227 248q61 61 117 62q35 0 53.5 -22.5t14.5 -55.5q-10 -56 -84 -103zM915 1106q104 0 157.5 -52.5t41.5 -125.5q-10 -59 -53 -102.5t-107 -43.5q-51 0 -79.5 24.5t-38 53.5t-30 53.5t-54.5 24.5q-74 0 -162 -128t-127 -325
q-23 -123 -34 -244.5t-11 -183.5l2 -59h-260l131 760q10 59 -16.5 95t-69.5 46l18 57q211 31 330 160l25 -10l-41 -213h12q176 213 366 213z" />
    <glyph glyph-name="uni0156" unicode="&#x156;" horiz-adv-x="1456" 
d="M1497 1026q-51 -289 -403 -375l-2 -12q59 -2 99 -21.5t62.5 -43t36 -73.5t17.5 -85t10 -109q8 -135 38.5 -187t131.5 -50l-2 -62q-98 -35 -185 -35q-49 0 -84.5 7.5t-78.5 32t-69 82t-28 145.5q-8 227 -65 299.5t-252 72.5l-229 2l-74 -415q-10 -57 13.5 -94t64.5 -48
l-19 -57h-444l2 57q47 10 83 47t46 95l182 1034q10 59 -12.5 95t-65.5 48l19 58h690q268 0 409.5 -107.5t108.5 -300.5zM883 1321q-156 0 -269 -23l-100 -569h287q193 0 302 78t136 213q25 141 -72.5 221t-283.5 80zM729 -102q80 0 117 -56.5t20 -148.5
q-23 -129 -125 -266.5t-237 -219.5l-53 80q80 51 149.5 135t106.5 181l-2 4q-27 -10 -46 -10q-66 0 -102.5 43t-24.5 110q12 66 69.5 107t127.5 41z" />
    <glyph glyph-name="uni0157" unicode="&#x157;" horiz-adv-x="1005" 
d="M915 1106q104 0 157.5 -52.5t41.5 -125.5q-10 -59 -53 -102.5t-107 -43.5q-51 0 -79.5 24.5t-38 53.5t-30 53.5t-54.5 24.5q-74 0 -162 -128t-127 -325q-23 -123 -34 -244.5t-11 -183.5l2 -59h-260l131 760q10 59 -16.5 95t-69.5 46l18 57q211 31 330 160l25 -10
l-41 -213h12q176 213 366 213zM301 -102q78 0 115 -57.5t20 -147.5q-23 -129 -125 -266.5t-237 -219.5l-51 80q80 51 149.5 135t106.5 181l-3 4q-27 -10 -47 -10q-63 0 -100 43t-25 110q12 66 68.5 107t128.5 41z" />
    <glyph glyph-name="Rcaron" unicode="&#x158;" horiz-adv-x="1456" 
d="M1290 1792l-368 -268l-283 268l55 66l260 -136l303 136zM1497 1026q-51 -289 -403 -375l-2 -12q59 -2 99 -21.5t62.5 -43t36 -73.5t17.5 -85t10 -109q8 -135 38.5 -187t131.5 -50l-2 -62q-98 -35 -185 -35q-49 0 -84.5 7.5t-78.5 32t-69 82t-28 145.5q-8 227 -65 299.5
t-252 72.5l-229 2l-74 -415q-10 -57 13.5 -94t64.5 -48l-19 -57h-444l2 57q47 10 83 47t46 95l182 1034q10 59 -12.5 95t-65.5 48l19 58h690q268 0 409.5 -107.5t108.5 -300.5zM883 1321q-156 0 -269 -23l-100 -569h287q193 0 302 78t136 213q25 141 -72.5 221t-283.5 80z
" />
    <glyph glyph-name="rcaron" unicode="&#x159;" horiz-adv-x="1005" 
d="M938 1427l-369 -268l-282 268l55 66l260 -135l303 135zM915 1106q104 0 157.5 -52.5t41.5 -125.5q-10 -59 -53 -102.5t-107 -43.5q-51 0 -79.5 24.5t-38 53.5t-30 53.5t-54.5 24.5q-74 0 -162 -128t-127 -325q-23 -123 -34 -244.5t-11 -183.5l2 -59h-260l131 760
q10 59 -16.5 95t-69.5 46l18 57q211 31 330 160l25 -10l-41 -213h12q176 213 366 213z" />
    <glyph glyph-name="Sacute" unicode="&#x15a;" horiz-adv-x="1370" 
d="M770 1522l-51 51l227 248q66 61 117 61q37 0 55.5 -23.5t11.5 -54.5q-8 -57 -83 -102zM686 -37q-281 0 -433.5 115t-127.5 252q20 115 137 114q63 0 98 -37.5t52.5 -93t41 -111t89 -93t174.5 -37.5q135 0 219 56t104 161q23 131 -64 206.5t-267 139.5q-98 35 -173 72.5
t-139.5 94t-90 133.5t-9.5 169q29 162 189.5 264t392.5 102q246 0 394 -117.5t126 -246.5q-23 -113 -129 -113q-66 0 -98.5 38t-45 92.5t-31 108.5t-78 92t-163.5 38q-125 0 -208 -60.5t-99 -158.5q-18 -115 55.5 -175.5t241.5 -117.5q84 -31 144.5 -56.5t131 -70.5
t110.5 -95t60.5 -124t3.5 -160q-35 -182 -202.5 -281.5t-405.5 -99.5z" />
    <glyph glyph-name="sacute" unicode="&#x15b;" horiz-adv-x="1171" 
d="M612 1157l-51 51l227 248q61 61 117 62q35 0 53.5 -22.5t14.5 -55.5q-10 -55 -84 -103zM592 -39q-207 0 -347.5 81t-133.5 185q4 47 34.5 75t77.5 28q45 0 70.5 -27t42 -64.5t38 -75.5t76 -64.5t140.5 -26.5q127 0 211 51t92 133q8 61 -40 104t-91 57.5t-144 39.5
q-14 4 -22 6q-74 18 -129 38.5t-115.5 57.5t-91.5 96.5t-22 135.5q10 135 144 226t347 91q188 0 307 -72.5t111 -171.5q-4 -41 -27.5 -68.5t-68.5 -27.5q-47 0 -70 23.5t-32 57.5t-23.5 67.5t-62.5 57t-134 23.5q-111 0 -188.5 -46t-85.5 -120q-2 -27 6 -50t30.5 -40.5
t41 -30t57.5 -23.5t57.5 -15t61.5 -13.5t51 -11.5q84 -18 145.5 -40.5t120.5 -61.5t87 -100.5t20 -143.5q-12 -133 -149.5 -236.5t-391.5 -103.5z" />
    <glyph glyph-name="Scircumflex" unicode="&#x15c;" horiz-adv-x="1370" 
d="M639 1511l-33 66l369 268l282 -268l-53 -66l-260 138zM686 -37q-281 0 -433.5 115t-127.5 252q20 115 137 114q63 0 98 -37.5t52.5 -93t41 -111t89 -93t174.5 -37.5q135 0 219 56t104 161q23 131 -64 206.5t-267 139.5q-98 35 -173 72.5t-139.5 94t-90 133.5t-9.5 169
q29 162 189.5 264t392.5 102q246 0 394 -117.5t126 -246.5q-23 -113 -129 -113q-66 0 -98.5 38t-45 92.5t-31 108.5t-78 92t-163.5 38q-125 0 -208 -60.5t-99 -158.5q-18 -115 55.5 -175.5t241.5 -117.5q84 -31 144.5 -56.5t131 -70.5t110.5 -95t60.5 -124t3.5 -160
q-35 -182 -202.5 -281.5t-405.5 -99.5z" />
    <glyph glyph-name="scircumflex" unicode="&#x15d;" horiz-adv-x="1171" 
d="M465 1147l-35 65l371 269l282 -269l-55 -65l-260 137zM592 -39q-207 0 -347.5 81t-133.5 185q4 47 34.5 75t77.5 28q45 0 70.5 -27t42 -64.5t38 -75.5t76 -64.5t140.5 -26.5q127 0 211 51t92 133q8 61 -40 104t-91 57.5t-144 39.5q-14 4 -22 6q-74 18 -129 38.5
t-115.5 57.5t-91.5 96.5t-22 135.5q10 135 144 226t347 91q188 0 307 -72.5t111 -171.5q-4 -41 -27.5 -68.5t-68.5 -27.5q-47 0 -70 23.5t-32 57.5t-23.5 67.5t-62.5 57t-134 23.5q-111 0 -188.5 -46t-85.5 -120q-2 -27 6 -50t30.5 -40.5t41 -30t57.5 -23.5t57.5 -15
t61.5 -13.5t51 -11.5q84 -18 145.5 -40.5t120.5 -61.5t87 -100.5t20 -143.5q-12 -133 -149.5 -236.5t-391.5 -103.5z" />
    <glyph glyph-name="Scedilla" unicode="&#x15e;" horiz-adv-x="1370" 
d="M874 1470q246 0 396.5 -117.5t128.5 -246.5q-23 -113 -129 -113q-66 0 -98.5 38t-45 92.5t-32 108.5t-80 92t-164.5 38q-131 0 -208 -59.5t-95 -159.5q-10 -61 6 -107.5t64.5 -81t95.5 -55t131 -49.5q84 -31 144.5 -56.5t131 -70.5t110.5 -95t60.5 -124t3.5 -160
q-29 -162 -166 -258t-337 -117l-66 -104q20 10 61 10q76 0 116 -37t26 -104q-14 -84 -106.5 -146.5t-223.5 -62.5q-102 0 -162.5 40t-50.5 93q4 29 28.5 49.5t53.5 20.5q35 0 50 -19.5t18.5 -44t25 -44t66.5 -19.5q59 0 97 28.5t48 73.5q6 33 -13.5 53.5t-56.5 20.5
q-47 0 -88 -31l-53 27l119 190q-276 2 -428 117t-127 250q20 115 137 114q63 0 98 -37.5t52.5 -93t41 -111t89 -93t174.5 -37.5q135 0 219 56t104 161q23 131 -64 207.5t-267 138.5q-100 33 -176 71.5t-138.5 94t-88 132.5t-9.5 169q31 166 184 267t393 101z" />
    <glyph glyph-name="scedilla" unicode="&#x15f;" horiz-adv-x="1171" 
d="M729 997q-111 0 -188.5 -46t-85.5 -120q-2 -27 6 -50t30.5 -40.5t41 -30t57.5 -23.5t57.5 -15t61.5 -13.5t51 -11.5q72 -14 117 -27.5t103 -40t90 -60.5t50.5 -89t12.5 -129q-10 -119 -126 -218t-327 -118l-64 -100q31 10 62 10q76 0 117 -37t26 -104
q-14 -84 -106 -146.5t-223 -62.5q-102 0 -163 40t-50 93q4 29 27.5 49.5t51.5 20.5q35 0 51.5 -19.5t19.5 -44t24.5 -44t64.5 -19.5q59 0 97 28.5t49 73.5q6 33 -12.5 53.5t-57.5 20.5q-49 0 -86 -31l-53 27l116 188q-199 4 -333 85t-127 181q4 47 34.5 75t77.5 28
q45 0 70.5 -27t42 -64.5t38 -75.5t76 -64.5t140.5 -26.5q127 0 211 51t92 133q6 47 -15.5 81t-63.5 55.5t-87 34.5t-102 28q-20 4 -29 6q-84 20 -137 38.5t-115.5 55.5t-90.5 96.5t-20 139.5q10 133 145.5 225t350.5 92q188 0 307 -72.5t111 -171.5q-4 -41 -27.5 -68.5
t-68.5 -27.5q-47 0 -70 23.5t-32 57.5t-23.5 67.5t-62.5 57t-134 23.5z" />
    <glyph glyph-name="Scaron" unicode="&#x160;" horiz-adv-x="1370" 
d="M915 1524l-282 268l53 66l260 -136l303 136l35 -66zM686 -37q-281 0 -433.5 115t-127.5 252q20 115 137 114q63 0 98 -37.5t52.5 -93t41 -111t89 -93t174.5 -37.5q135 0 219 56t104 161q23 131 -64 206.5t-267 139.5q-98 35 -173 72.5t-139.5 94t-90 133.5t-9.5 169
q29 162 189.5 264t392.5 102q246 0 394 -117.5t126 -246.5q-23 -113 -129 -113q-66 0 -98.5 38t-45 92.5t-31 108.5t-78 92t-163.5 38q-125 0 -208 -60.5t-99 -158.5q-18 -115 55.5 -175.5t241.5 -117.5q84 -31 144.5 -56.5t131 -70.5t110.5 -95t60.5 -124t3.5 -160
q-35 -182 -202.5 -281.5t-405.5 -99.5z" />
    <glyph glyph-name="scaron" unicode="&#x161;" horiz-adv-x="1171" 
d="M729 1159l-285 268l56 66l260 -135l303 135l35 -66zM592 -39q-207 0 -347.5 81t-133.5 185q4 47 34.5 75t77.5 28q45 0 70.5 -27t42 -64.5t38 -75.5t76 -64.5t140.5 -26.5q127 0 211 51t92 133q8 61 -40 104t-91 57.5t-144 39.5q-14 4 -22 6q-74 18 -129 38.5
t-115.5 57.5t-91.5 96.5t-22 135.5q10 135 144 226t347 91q188 0 307 -72.5t111 -171.5q-4 -41 -27.5 -68.5t-68.5 -27.5q-47 0 -70 23.5t-32 57.5t-23.5 67.5t-62.5 57t-134 23.5q-111 0 -188.5 -46t-85.5 -120q-2 -27 6 -50t30.5 -40.5t41 -30t57.5 -23.5t57.5 -15
t61.5 -13.5t51 -11.5q84 -18 145.5 -40.5t120.5 -61.5t87 -100.5t20 -143.5q-12 -133 -149.5 -236.5t-391.5 -103.5z" />
    <glyph glyph-name="uni0162" unicode="&#x162;" horiz-adv-x="1271" 
d="M1393 1470l51 -368l-70 -29l-11 27.5t-40 60.5t-77 76t-125 60.5t-179 27.5h-2l-176 -1124q-10 -59 13.5 -96t66.5 -48l-19 -57h-168l-84 -135q31 10 62 10q76 0 116 -37t25 -104q-14 -84 -106 -146.5t-224 -62.5q-102 0 -161.5 40t-48.5 93q4 29 27.5 49.5t51.5 20.5
q35 0 51.5 -19.5t19.5 -44t24.5 -44t64.5 -19.5q59 0 97 28.5t49 73.5q6 33 -13.5 53.5t-56.5 20.5q-49 0 -86 -31l-53 27l139 227h-168l2 57q43 10 79 47t46 97l178 1124h-6q-98 0 -186 -25.5t-144.5 -62.5t-99.5 -75t-62 -64l-18 -25l-59 29l168 368h20q70 -37 248 -36
h563q176 0 260 36h21z" />
    <glyph glyph-name="uni0163" unicode="&#x163;" horiz-adv-x="757" 
d="M575 958l-114 -716q-25 -158 102 -158q70 0 131 22l11 -96q-63 -29 -170 -43l-66 -102q31 10 61 10q76 0 116 -37t26 -104q-14 -84 -106.5 -146.5t-223.5 -62.5q-102 0 -162.5 40t-50.5 93q4 29 28.5 49.5t53.5 20.5q35 0 51.5 -19.5t19.5 -44t24.5 -44t64.5 -19.5
q59 0 97 28.5t48 73.5q6 33 -13.5 53.5t-56.5 20.5q-49 0 -88 -31l-51 27l119 192q-229 16 -188 281l112 712h-178l10 74q145 43 232.5 122t152.5 220h72l-47 -303h282l-18 -113h-281z" />
    <glyph glyph-name="Tcaron" unicode="&#x164;" horiz-adv-x="1271" 
d="M1204 1792l-368 -268l-283 268l53 66l260 -136l303 136zM1403 1470l45 -368l-70 -29l-11 27.5t-39 60.5t-75 76t-122.5 60.5t-178.5 27.5h-4l-196 -1124q-10 -59 13 -96t64 -48l-18 -57h-444l2 57q104 23 129 144l196 1124h-2q-98 0 -187 -25.5t-146.5 -62.5t-100.5 -75
t-61 -64l-21 -25l-59 29l174 368h20q70 -37 248 -36h563q176 0 260 36h21z" />
    <glyph glyph-name="tcaron" unicode="&#x165;" horiz-adv-x="1210" 
d="M1210 1470q80 0 117 -56t21 -148q-25 -131 -126.5 -268.5t-236.5 -217.5l-55 80q80 51 150.5 135t107.5 181l-2 4q-27 -10 -45 -11q-66 0 -103 42t-24 112q14 66 70 106.5t126 40.5zM649 1372l-53 -305l281 2l-19 -113l-280 -2l-127 -714q-31 -158 98 -158q80 0 139 24
l8 -96q-106 -49 -245 -49q-133 0 -192.5 66.5t-31.5 218.5l125 708h-178l12 76q145 45 234.5 123t157.5 219h71z" />
    <glyph glyph-name="Tbar" unicode="&#x166;" horiz-adv-x="1271" 
d="M1393 1470l51 -368l-70 -29l-11 27.5t-40 60.5t-77 76t-125 60.5t-179 27.5h-2l-86 -551h274l-12 -90h-276l-76 -483q-10 -59 13.5 -96t66.5 -48l-19 -57h-442l2 57q43 10 79 47t46 97l78 483h-279l15 90h278l86 551h-6q-98 0 -186 -25.5t-144.5 -62.5t-99.5 -75t-62 -64
l-18 -25l-59 29l168 368h20q70 -37 248 -36h563q176 0 260 36h21z" />
    <glyph glyph-name="tbar" unicode="&#x167;" horiz-adv-x="757" 
d="M856 958h-281l-55 -342h273l-13 -90h-274l-45 -284q-25 -158 102 -158q70 0 131 22l11 -96q-111 -47 -238 -47q-133 0 -192.5 64.5t-36.5 218.5l45 280h-179l13 90h180l53 342h-178l10 74q145 43 232.5 122t152.5 220h72l-47 -303h282z" />
    <glyph glyph-name="Utilde" unicode="&#x168;" horiz-adv-x="1390" 
d="M1165 1622q-57 0 -134 56.5t-113 56.5q-63 0 -95 -86l-73 22q29 104 87 152.5t128 48.5q57 0 134 -55.5t113 -55.5q63 0 97 84l69 -20q-27 -104 -85 -153.5t-128 -49.5zM709 -37q-285 0 -406 158t-63 457l116 655q10 59 -12 96t-63 47l18 58h446l-2 -58
q-45 -10 -80.5 -47t-48.5 -96l-114 -653q-47 -238 22.5 -372t261.5 -134q199 0 306.5 132t146.5 374l113 649q8 55 -14.5 96t-67.5 51l18 58h309l-2 -60q-49 -10 -84.5 -49t-46.5 -96l-112 -651q-49 -289 -208 -452t-433 -163z" />
    <glyph glyph-name="utilde" unicode="&#x169;" 
d="M668 1370q-66 0 -95 -86l-73 23q55 201 213 200q57 0 134 -55t114 -55q63 0 96 84l71 -21q-29 -104 -86 -153.5t-129 -49.5q-57 0 -132.5 56.5t-112.5 56.5zM1276 102l22 -49q-102 -92 -237 -92q-80 0 -131 49t-29 180l2 11h-12q-162 -240 -393 -240q-193 0 -274 118
t-19 341l112 407q45 172 -55 172q-29 0 -76 -34l-24 49q109 94 239 94q80 0 132.5 -50t17.5 -179l-127 -473q-43 -145 -2 -227.5t164 -82.5q117 0 226.5 128t150.5 319l22 121q18 121 25.5 222t5.5 142l-2 39h260l-139 -827q-35 -170 67 -170q33 -1 74 32z" />
    <glyph glyph-name="Umacron" unicode="&#x16a;" horiz-adv-x="1390" 
d="M748 1649l22 125h567l-22 -125h-567zM709 -37q-285 0 -406 158t-63 457l116 655q10 59 -12 96t-63 47l18 58h446l-2 -58q-45 -10 -80.5 -47t-48.5 -96l-114 -653q-47 -238 22.5 -372t261.5 -134q199 0 306.5 132t146.5 374l113 649q8 55 -14.5 96t-67.5 51l18 58h309
l-2 -60q-49 -10 -84.5 -49t-46.5 -96l-112 -651q-49 -289 -208 -452t-433 -163z" />
    <glyph glyph-name="umacron" unicode="&#x16b;" 
d="M1100 1409l-23 -125h-569l22 125h570zM1276 102l22 -49q-102 -92 -237 -92q-80 0 -131 49t-29 180l2 11h-12q-162 -240 -393 -240q-193 0 -274 118t-19 341l112 407q45 172 -55 172q-29 0 -76 -34l-24 49q109 94 239 94q80 0 132.5 -50t17.5 -179l-127 -473
q-43 -145 -2 -227.5t164 -82.5q117 0 226.5 128t150.5 319l22 121q18 121 25.5 222t5.5 142l-2 39h260l-139 -827q-35 -170 67 -170q33 -1 74 32z" />
    <glyph glyph-name="Ubreve" unicode="&#x16c;" horiz-adv-x="1390" 
d="M1018 1585q-115 0 -179.5 58.5t-80.5 144.5l86 41q14 -47 68.5 -82t126 -35t139 35t94.5 80l74 -39q-109 -203 -328 -203zM709 -37q-285 0 -406 158t-63 457l116 655q10 59 -12 96t-63 47l18 58h446l-2 -58q-45 -10 -80.5 -47t-48.5 -96l-114 -653q-47 -238 22.5 -372
t261.5 -134q199 0 306.5 132t146.5 374l113 649q8 55 -14.5 96t-67.5 51l18 58h309l-2 -60q-49 -10 -84.5 -49t-46.5 -96l-112 -651q-49 -289 -208 -452t-433 -163z" />
    <glyph glyph-name="ubreve" unicode="&#x16d;" 
d="M805 1221q-115 0 -179.5 58t-80.5 144l86 41q12 -47 66.5 -81.5t127.5 -34.5q72 0 138.5 33.5t95.5 80.5l74 -39q-47 -88 -130 -145t-198 -57zM1276 102l22 -49q-102 -92 -237 -92q-80 0 -131 49t-29 180l2 11h-12q-162 -240 -393 -240q-193 0 -274 118t-19 341l112 407
q45 172 -55 172q-29 0 -76 -34l-24 49q109 94 239 94q80 0 132.5 -50t17.5 -179l-127 -473q-43 -145 -2 -227.5t164 -82.5q117 0 226.5 128t150.5 319l22 121q18 121 25.5 222t5.5 142l-2 39h260l-139 -827q-35 -170 67 -170q33 -1 74 32z" />
    <glyph glyph-name="Uring" unicode="&#x16e;" horiz-adv-x="1390" 
d="M1012 1538q-90 0 -144.5 63.5t-40.5 151.5q14 90 89 153.5t165 63.5t144.5 -63.5t40.5 -153.5q-14 -88 -89 -151.5t-165 -63.5zM1028 1638q47 0 86 34t47 81t-20.5 81t-75.5 34t-85 -34t-46 -81q-8 -49 18.5 -82t75.5 -33zM709 -37q-285 0 -406 158t-63 457l116 655
q10 59 -12 96t-63 47l18 58h446l-2 -58q-45 -10 -80.5 -47t-48.5 -96l-114 -653q-47 -238 22.5 -372t261.5 -134q199 0 306.5 132t146.5 374l113 649q8 55 -14.5 96t-67.5 51l18 58h309l-2 -60q-49 -10 -84.5 -49t-46.5 -96l-112 -651q-49 -289 -208 -452t-433 -163z" />
    <glyph glyph-name="uring" unicode="&#x16f;" 
d="M819 1174q-90 0 -143 63t-39 152q14 90 88 153.5t164 63.5t144 -63.5t40 -153.5q-14 -88 -89 -151.5t-165 -63.5zM741 1389q-8 -49 18.5 -82t76.5 -33q47 0 86 33.5t47 81t-20.5 81t-76 33.5t-85.5 -33.5t-46 -80.5zM1276 102l22 -49q-102 -92 -237 -92q-80 0 -131 49
t-29 180l2 11h-12q-162 -240 -393 -240q-193 0 -274 118t-19 341l112 407q45 172 -55 172q-29 0 -76 -34l-24 49q109 94 239 94q80 0 132.5 -50t17.5 -179l-127 -473q-43 -145 -2 -227.5t164 -82.5q117 0 226.5 128t150.5 319l22 121q18 121 25.5 222t5.5 142l-2 39h260
l-139 -827q-35 -170 67 -170q33 -1 74 32z" />
    <glyph glyph-name="Uhungarumlaut" unicode="&#x170;" horiz-adv-x="1390" 
d="M909 1516l-78 34q102 186 140 258q41 82 110 82q37 0 55.5 -23.5t14.5 -54.5q-6 -35 -55 -92zM1184 1516l-76 34q98 186 137 258q45 82 111 82q37 0 55.5 -23.5t13.5 -54.5q-6 -35 -55 -92zM709 -37q-285 0 -406 158t-63 457l116 655q10 59 -12 96t-63 47l18 58h446
l-2 -58q-45 -10 -80.5 -47t-48.5 -96l-114 -653q-47 -238 22.5 -372t261.5 -134q199 0 306.5 132t146.5 374l113 649q8 55 -14.5 96t-67.5 51l18 58h309l-2 -60q-49 -10 -84.5 -49t-46.5 -96l-112 -651q-49 -289 -208 -452t-433 -163z" />
    <glyph glyph-name="uhungarumlaut" unicode="&#x171;" 
d="M846 1356l-187 -205l-77 35q102 186 139 258q41 82 110 82q37 0 55.5 -23.5t14.5 -54.5q-6 -35 -55 -92zM934 1151l-76 35q98 186 137 258q45 82 111 82q37 0 55.5 -23.5t14.5 -54.5q-6 -35 -56 -92zM1276 102l22 -49q-102 -92 -237 -92q-80 0 -131 49t-29 180l2 11h-12
q-162 -240 -393 -240q-193 0 -274 118t-19 341l112 407q45 172 -55 172q-29 0 -76 -34l-24 49q109 94 239 94q80 0 132.5 -50t17.5 -179l-127 -473q-43 -145 -2 -227.5t164 -82.5q117 0 226.5 128t150.5 319l22 121q18 121 25.5 222t5.5 142l-2 39h260l-139 -827
q-35 -170 67 -170q33 -1 74 32z" />
    <glyph glyph-name="Uogonek" unicode="&#x172;" horiz-adv-x="1390" 
d="M1286 1434h309l-2 -60q-49 -10 -84.5 -49t-46.5 -96l-112 -651q-47 -276 -194.5 -437t-401.5 -176q-100 -76 -115 -172q-8 -53 22.5 -89t81.5 -36q90 0 156 90l68 -37q-113 -162 -289 -161q-104 0 -161.5 56t-43.5 148q18 119 131 205q-229 29 -322.5 183.5t-41.5 425.5
l116 655q10 59 -12 96t-63 47l18 58h446l-2 -58q-45 -10 -80.5 -47t-48.5 -96l-114 -653q-47 -238 22.5 -372t261.5 -134q199 0 306.5 132t146.5 374l113 649q8 55 -14.5 96t-67.5 51z" />
    <glyph glyph-name="uogonek" unicode="&#x173;" 
d="M1235 -242l68 -37q-113 -162 -289 -161q-104 0 -162.5 56t-44.5 148q20 129 154 222q-86 53 -60 204l2 11h-12q-162 -240 -393 -240q-193 0 -274 118t-19 341l112 407q45 172 -55 172q-29 0 -76 -34l-24 49q109 94 239 94q80 0 132.5 -50t17.5 -179l-127 -473
q-43 -145 -2 -227.5t164 -82.5q117 0 226.5 128t150.5 319l22 121q18 121 25.5 222t5.5 142l-2 39h260l-139 -827q-35 -170 67 -170q33 0 74 32l22 -49q-90 -84 -213 -90q-96 -76 -110 -170q-8 -53 22.5 -89t81.5 -36q88 0 156 90z" />
    <glyph glyph-name="Wcircumflex" unicode="&#x174;" horiz-adv-x="2021" 
d="M1288 1649l-305 -138l-33 66l369 268l283 -268l-56 -66zM1937 1434h301l-2 -58q-104 -20 -163 -141l-549 -1151q18 -29 35 -43l-17 -41q-178 0 -285 -33h-22l-105 959h-10l-411 -842q16 -25 36 -43l-14 -41q-135 6 -282 -33h-17l-143 1268q-14 121 -113 141l23 58h452
l-4 -58q-39 -8 -66.5 -45t-21.5 -96l113 -971h8l428 875q-16 102 -74 155l23 58q152 47 278 123h15l129 -1211h12l465 971q27 66 13.5 99.5t-48.5 41.5z" />
    <glyph glyph-name="wcircumflex" unicode="&#x175;" horiz-adv-x="1904" 
d="M1243 1284l-303 -137l-35 65l371 269l283 -269l-56 -65zM1911 897q8 -119 -25 -296t-108 -314q-172 -326 -439 -326q-90 0 -172 56.5t-108 162.5h-15q-168 -219 -387 -219q-137 0 -225 88t-86 230q6 256 318 567l-5 10l-202 2q-82 0 -140.5 -26.5t-66.5 -79.5
q-6 -37 22 -66l-49 -27q-70 70 -55 166q6 94 85 169t224 73h447l6 -14q-4 -4 -32 -43t-48.5 -68t-55 -82t-61 -97t-56.5 -105.5t-50.5 -115t-33.5 -113.5t-15 -114q-2 -131 57 -181t141 -50q123 0 263.5 201.5t150.5 367.5q6 88 -16.5 176.5t-20.5 145.5q2 53 37 93t94 40
q47 0 78 -39t31 -92q-2 -66 -38 -158t-74 -208.5t-44 -239.5q-6 -143 45 -215t145 -72q82 0 159 70.5t122 177.5q76 172 59 360q-2 57 -25.5 96t-51 56.5t-51 50.5t-23.5 82q0 53 37 92t98 39q70 0 114 -55.5t46 -155.5z" />
    <glyph glyph-name="Ycircumflex" unicode="&#x176;" horiz-adv-x="1284" 
d="M627 1511l-35 66l371 268l282 -268l-55 -66l-260 138zM383 0l2 57q45 10 81 47t46 97l84 483l-268 549q-57 125 -150 143l19 58h487l-2 -58q-43 -10 -61.5 -44t6.5 -99l198 -399h13l344 399q45 63 37.5 98t-45.5 45l20 58h324l-5 -58q-92 -18 -196 -143l-465 -549
l-86 -483q-10 -59 12.5 -96t65.5 -48l-19 -57h-442z" />
    <glyph glyph-name="ycircumflex" unicode="&#x177;" horiz-adv-x="1253" 
d="M844 1284l-303 -137l-35 65l368 269l283 -269l-53 -65zM1114 1108q74 0 113 -49t33 -119q-14 -158 -132 -423t-231 -445q-53 -86 -84 -127q-256 -401 -504 -402q-72 0 -120 41t-46 99q2 55 42 89.5t96 34.5q53 0 97 -37.5t58 -37.5q72 0 126 48t130 163
q-61 397 -130.5 630.5t-135.5 316.5t-150 83q-70 0 -124 -47l-39 47q109 127 272 127q176 0 292 -204t185 -671h12q186 317 203 510q2 45 -52 117t-50 139q2 53 43 85t96 32z" />
    <glyph glyph-name="Ydieresis" unicode="&#x178;" horiz-adv-x="1284" 
d="M741.5 1612q-57.5 0 -87 35.5t-21.5 85.5q10 51 53 88t98 37q57 0 88 -37t21 -88q-10 -49 -52 -85t-99.5 -36zM1112 1612q-57 0 -86 35.5t-20 85.5q10 51 52 88t99 37t87 -37t20 -88q-8 -49 -51.5 -85t-100.5 -36zM383 0l2 57q45 10 81 47t46 97l84 483l-268 549
q-57 125 -150 143l19 58h487l-2 -58q-43 -10 -61.5 -44t6.5 -99l198 -399h13l344 399q45 63 37.5 98t-45.5 45l20 58h324l-5 -58q-92 -18 -196 -143l-465 -549l-86 -483q-10 -59 12.5 -96t65.5 -48l-19 -57h-442z" />
    <glyph glyph-name="Zacute" unicode="&#x179;" horiz-adv-x="1372" 
d="M977 1522l-53 51l229 248q61 61 117 61q35 0 53 -22.5t12 -55.5q-8 -55 -82 -102zM983 -229q-168 0 -486.5 114.5t-473.5 114.5l4 61l1149 1264h-326q-102 0 -194.5 -28.5t-152 -70.5t-104.5 -84t-63 -71l-21 -29l-59 27l147 401h19q70 -37 252 -36h842l-5 -62
l-1136 -1247q109 -23 234.5 -86.5t229 -114.5t179.5 -51q164 0 164 90q0 23 -31 71t-31 91q0 55 37 92t92 37q59 0 101.5 -45t42.5 -111q0 -137 -114 -232t-296 -95z" />
    <glyph glyph-name="zacute" unicode="&#x17a;" horiz-adv-x="1374" 
d="M764 1157l-53 51l227 248q66 61 117 62q37 0 55 -24t12 -54q-8 -55 -82 -103zM137 -39q-49 0 -53 49q-4 59 67.5 139t190.5 127l674 519v12q-68 18 -141.5 67.5t-140 86t-134.5 36.5q-55 0 -87 -36.5t-42 -80.5t-42 -81t-87 -37q-49 0 -83 32.5t-34 84.5q0 98 98.5 163.5
t231.5 65.5q141 0 318.5 -52t283.5 -52q47 0 104.5 34.5t79.5 69.5h19l41 -45q-16 -45 -49 -91t-83 -94.5t-87 -78t-97 -76.5q-213 -168 -575 -440v-13q94 -20 182 -71.5t160 -88t147 -36.5q68 0 106 28.5t38 71.5q0 23 -31 65t-31 85q0 59 37 98t94 39q61 0 102.5 -42
t41.5 -110q0 -145 -106.5 -246.5t-276.5 -101.5q-164 0 -337 56.5t-274 56.5q-66 0 -104.5 -29t-64 -56.5t-56.5 -27.5z" />
    <glyph glyph-name="Zdotaccent" unicode="&#x17b;" horiz-adv-x="1372" 
d="M973 1630q-57 0 -87 36t-22 85q8 51 49 88t98.5 37t88 -37t22.5 -88q-8 -49 -49 -85t-100 -36zM983 -229q-168 0 -486.5 114.5t-473.5 114.5l4 61l1149 1264h-326q-102 0 -194.5 -28.5t-152 -70.5t-104.5 -84t-63 -71l-21 -29l-59 27l147 401h19q70 -37 252 -36h842
l-5 -62l-1136 -1247q109 -23 234.5 -86.5t229 -114.5t179.5 -51q164 0 164 90q0 23 -31 71t-31 91q0 55 37 92t92 37q59 0 101.5 -45t42.5 -111q0 -137 -114 -232t-296 -95z" />
    <glyph glyph-name="zdotaccent" unicode="&#x17c;" horiz-adv-x="1374" 
d="M917.5 1266q-57.5 0 -88 35.5t-20.5 84.5q6 51 47 88t98 37q59 0 89 -36.5t22 -88.5q-8 -49 -49 -84.5t-98.5 -35.5zM137 -39q-49 0 -53 49q-4 59 67.5 139t190.5 127l674 519v12q-68 18 -141.5 67.5t-140 86t-134.5 36.5q-55 0 -87 -36.5t-42 -80.5t-42 -81t-87 -37
q-49 0 -83 32.5t-34 84.5q0 98 98.5 163.5t231.5 65.5q141 0 318.5 -52t283.5 -52q47 0 104.5 34.5t79.5 69.5h19l41 -45q-16 -45 -49 -91t-83 -94.5t-87 -78t-97 -76.5q-213 -168 -575 -440v-13q94 -20 182 -71.5t160 -88t147 -36.5q68 0 106 28.5t38 71.5q0 23 -31 65
t-31 85q0 59 37 98t94 39q61 0 102.5 -42t41.5 -110q0 -145 -106.5 -246.5t-276.5 -101.5q-164 0 -337 56.5t-274 56.5q-66 0 -104.5 -29t-64 -56.5t-56.5 -27.5z" />
    <glyph glyph-name="Zcaron" unicode="&#x17d;" horiz-adv-x="1372" 
d="M967 1524l-283 268l55 66l260 -136l304 136l32 -66zM983 -229q-168 0 -486.5 114.5t-473.5 114.5l4 61l1149 1264h-326q-102 0 -194.5 -28.5t-152 -70.5t-104.5 -84t-63 -71l-21 -29l-59 27l147 401h19q70 -37 252 -36h842l-5 -62l-1136 -1247q109 -23 234.5 -86.5
t229 -114.5t179.5 -51q164 0 164 90q0 23 -31 71t-31 91q0 55 37 92t92 37q59 0 101.5 -45t42.5 -111q0 -137 -114 -232t-296 -95z" />
    <glyph glyph-name="zcaron" unicode="&#x17e;" horiz-adv-x="1374" 
d="M901 1159l-283 268l54 66l262 -135l303 135l33 -66zM137 -39q-49 0 -53 49q-4 59 67.5 139t190.5 127l674 519v12q-68 18 -141.5 67.5t-140 86t-134.5 36.5q-55 0 -87 -36.5t-42 -80.5t-42 -81t-87 -37q-49 0 -83 32.5t-34 84.5q0 98 98.5 163.5t231.5 65.5
q141 0 318.5 -52t283.5 -52q47 0 104.5 34.5t79.5 69.5h19l41 -45q-16 -45 -49 -91t-83 -94.5t-87 -78t-97 -76.5q-213 -168 -575 -440v-13q94 -20 182 -71.5t160 -88t147 -36.5q68 0 106 28.5t38 71.5q0 23 -31 65t-31 85q0 59 37 98t94 39q61 0 102.5 -42t41.5 -110
q0 -145 -106.5 -246.5t-276.5 -101.5q-164 0 -337 56.5t-274 56.5q-66 0 -104.5 -29t-64 -56.5t-56.5 -27.5z" />
    <glyph glyph-name="longs" unicode="&#x17f;" horiz-adv-x="534" 
d="M713 1577q94 0 159.5 -35t65.5 -94q0 -41 -28.5 -67.5t-73.5 -26.5q-39 0 -62.5 17.5t-32 40t-26 39.5t-45.5 17q-37 0 -72 -61t-53 -170l-187 -1171q-41 -266 -171 -394.5t-369 -128.5q-72 0 -141.5 34t-67.5 95q0 45 29.5 72t74.5 27q55 0 103.5 -58.5t89.5 -58.5
q154 0 198 272l170 1030h-172l23 113h168l14 82q37 213 135.5 319.5t270.5 106.5z" />
    <glyph glyph-name="florin" unicode="&#x192;" horiz-adv-x="989" 
d="M1004 1470q94 0 153.5 -30.5t50.5 -87.5q-6 -39 -35.5 -62.5t-68.5 -23.5q-37 0 -58.5 14t-27.5 32.5t-20.5 33t-41.5 14.5q-80 0 -135 -189l-65 -219h250l-19 -131h-270l-180 -600q-70 -252 -171.5 -365.5t-297.5 -113.5q-100 0 -164 37t-56 96q14 84 107 84
q37 0 57.5 -16.5t27.5 -37t22.5 -36.5t43.5 -16q96 0 154 198l229 770h-231l21 131h251l39 133q113 385 435 385z" />
    <glyph glyph-name="Aringacute" unicode="&#x1fa;" horiz-adv-x="1429" 
d="M909 1538q-92 0 -145 63.5t-39 151.5q18 121 135 186l205 222q63 63 117 63q35 0 54 -23.5t13 -54.5q-12 -57 -84 -102l-127 -82q66 -20 99.5 -77.5t23.5 -131.5q-14 -88 -89 -151.5t-163 -63.5zM829.5 1753q-8.5 -47 19.5 -81t75 -34t86 34t47 81t-19.5 81t-74.5 34
q-49 0 -87 -34t-46.5 -81zM1309 199q12 -61 48 -97t79 -45l-19 -57h-450l2 57q39 8 62.5 44t10.5 98l-38 188h-543l-105 -188q-33 -68 -22.5 -100.5t45.5 -41.5l-19 -57h-299l2 57q109 20 177 142l565 1022q-29 33 -88 49l16 57q172 59 299 141h17zM532 518h445l-117 580h-8
z" />
    <glyph glyph-name="aringacute" unicode="&#x1fb;" horiz-adv-x="1304" 
d="M825 1174q-92 0 -145 63t-39 152q18 125 137 186l197 213q61 61 117 61q35 0 54 -22.5t13 -52.5q-12 -57 -84 -103l-117 -76q63 -23 96 -79t23 -127q-14 -88 -89 -151.5t-163 -63.5zM745.5 1388.5q-8.5 -47.5 19.5 -81t75 -33.5t86 33.5t47 81t-19.5 81t-74.5 33.5
q-49 0 -87 -33.5t-46.5 -81zM1227 70q29 0 73 32l21 -49q-98 -92 -236 -92q-80 0 -132 49t-29 178h-6q-63 -104 -162 -165.5t-199 -61.5q-178 0 -282.5 111.5t-104.5 318.5q0 176 74.5 339t218 270.5t319.5 107.5q82 0 158 -33t121 -90h8l21 84h258q-68 -141 -119 -412
l-74 -417q-34 -170 72 -170zM633 98q100 0 192.5 89t137.5 221l77 450q-70 119 -213 119q-135 0 -237.5 -90t-149.5 -220t-47 -276q0 -143 68 -218t172 -75z" />
    <glyph glyph-name="uni0218" unicode="&#x218;" horiz-adv-x="1370" 
d="M874 1470q246 0 396.5 -117.5t128.5 -246.5q-23 -113 -129 -113q-66 0 -98.5 38t-45 92.5t-32 108.5t-80 92t-164.5 38q-131 0 -208 -59.5t-95 -159.5q-10 -61 6 -107.5t64.5 -81t95.5 -55t131 -49.5q84 -31 144.5 -56.5t131 -70.5t110.5 -95t60.5 -124t3.5 -160
q-35 -182 -202.5 -281.5t-405.5 -99.5q-281 0 -433.5 115t-127.5 252q20 115 137 114q63 0 98 -37.5t52.5 -93t41 -111t89 -93t174.5 -37.5q135 0 219 56t104 161q23 131 -64 207.5t-267 138.5q-100 33 -176 71.5t-138.5 94t-88 132.5t-9.5 169q31 166 184 267t393 101z
M686 -102q78 0 115 -57.5t20 -147.5q-23 -129 -124 -266.5t-236 -219.5l-53 80q80 51 149.5 135t106.5 181l-2 4q-27 -10 -48 -10q-63 0 -100 43t-25 110q12 66 68.5 107t128.5 41z" />
    <glyph glyph-name="uni0219" unicode="&#x219;" horiz-adv-x="1171" 
d="M729 997q-111 0 -188.5 -46t-85.5 -120q-2 -27 6 -50t30.5 -40.5t41 -30t57.5 -23.5t57.5 -15t61.5 -13.5t51 -11.5q72 -14 117 -27.5t103 -40t90 -60.5t50.5 -89t12.5 -129q-12 -133 -149.5 -236.5t-391.5 -103.5q-207 0 -347.5 81t-133.5 185q4 47 34.5 75t77.5 28
q45 0 70.5 -27t42 -64.5t38 -75.5t76 -64.5t140.5 -26.5q127 0 211 51t92 133q6 47 -15.5 81t-63.5 55.5t-87 34.5t-102 28q-20 4 -29 6q-84 20 -137 38.5t-115.5 55.5t-90.5 96.5t-20 139.5q10 133 145.5 225t350.5 92q188 0 307 -72.5t111 -171.5q-4 -41 -27.5 -68.5
t-68.5 -27.5q-47 0 -70 23.5t-32 57.5t-23.5 67.5t-62.5 57t-134 23.5zM621 -102q80 0 116.5 -56.5t20.5 -148.5q-23 -129 -125.5 -266.5t-237.5 -219.5l-53 80q178 115 256 316l-2 4q-25 -10 -45 -10q-63 0 -101 43t-24 110q12 66 68.5 107t126.5 41z" />
    <glyph glyph-name="uni021A" unicode="&#x21a;" horiz-adv-x="1271" 
d="M1403 1470l45 -368l-70 -29l-11 27.5t-39 60.5t-75 76t-122.5 60.5t-178.5 27.5h-4l-196 -1124q-10 -59 13 -96t64 -48l-18 -57h-444l2 57q104 23 129 144l196 1124h-2q-98 0 -187 -25.5t-146.5 -62.5t-100.5 -75t-61 -64l-21 -25l-59 29l174 368h20q70 -37 248 -36h563
q176 0 260 36h21zM563 -102q80 0 117 -56.5t20 -148.5q-23 -129 -125 -266.5t-237 -219.5l-53 80q178 115 256 316l-2 4q-25 -10 -45 -10q-63 0 -101.5 43t-23.5 110q12 66 68 107t126 41z" />
    <glyph glyph-name="uni021B" unicode="&#x21b;" horiz-adv-x="755" 
d="M578 954l-127 -714q-31 -158 98 -158q80 0 139 24l8 -96q-106 -49 -245 -49q-133 0 -192.5 66.5t-31.5 218.5l125 708h-178l12 76q145 45 234.5 123t157.5 219h71l-53 -305l281 2l-19 -113zM459 -102q80 0 116.5 -56.5t20.5 -148.5q-23 -129 -125 -266.5t-238 -219.5
l-53 80q178 115 256 316l-2 4q-25 -10 -45 -10q-63 0 -101 43t-24 110q12 66 68.5 107t126.5 41z" />
    <glyph glyph-name="uni0237" unicode="&#x237;" horiz-adv-x="401" 
d="M-154 -455q-104 0 -172.5 41t-66.5 105q6 86 96 86q59 0 105.5 -60.5t97.5 -60.5q104 0 131 145l160 957q10 59 -16.5 95t-71.5 46l18 57q211 29 330 158l24 -8l-202 -1167q-37 -205 -137.5 -299.5t-295.5 -94.5z" />
    <glyph glyph-name="uni02B0" unicode="&#x2b0;" horiz-adv-x="507" 
d="M637 899l8 -25q-45 -39 -104 -38q-100 0 -78 98l47 205q12 53 -5.5 84.5t-60.5 31.5q-49 0 -95 -55t-60 -133q-12 -61 -17.5 -114.5t-5.5 -75.5l2 -25h-129l90 514q12 53 -36 66l10 28q100 14 155 72l11 -4l-54 -303h9q66 98 170 98q76 0 111.5 -49t15.5 -144l-39 -169
q-18 -74 26 -74q13 0 29 12z" />
    <glyph glyph-name="circumflex" unicode="&#x2c6;" horiz-adv-x="993" 
d="M416 1147l-35 65l369 269l282 -269l-53 -65l-260 137z" />
    <glyph glyph-name="caron" unicode="&#x2c7;" horiz-adv-x="993" 
d="M729 1159l-283 268l56 66l260 -135l303 135l33 -66z" />
    <glyph glyph-name="uni02C9" unicode="&#x2c9;" horiz-adv-x="942" 
d="M395 1284l21 125h569l-20 -125h-570z" />
    <glyph glyph-name="breve" unicode="&#x2d8;" horiz-adv-x="929" 
d="M676 1221q-115 0 -179.5 58t-80.5 144l86 41q12 -47 66.5 -81.5t127.5 -34.5q72 0 138.5 33.5t95.5 80.5l74 -39q-47 -88 -130 -145t-198 -57z" />
    <glyph glyph-name="dotaccent" unicode="&#x2d9;" horiz-adv-x="739" 
d="M583.5 1266q-57.5 0 -87 35.5t-21.5 84.5q8 51 49 88t98.5 37t88 -36.5t22.5 -88.5q-8 -49 -50 -84.5t-99.5 -35.5z" />
    <glyph glyph-name="ring" unicode="&#x2da;" horiz-adv-x="897" 
d="M631 1174q-90 0 -144.5 63t-40.5 152q14 90 89 153.5t165.5 63.5t144.5 -63.5t40 -153.5q-14 -88 -89 -151.5t-165 -63.5zM647 1274q47 0 86 33.5t47 81t-20.5 81t-75.5 33.5t-85 -33.5t-46 -80.5q-8 -49 18.5 -82t75.5 -33z" />
    <glyph glyph-name="ogonek" unicode="&#x2db;" horiz-adv-x="804" 
d="M467 -440q-104 0 -162.5 56t-44.5 148q14 90 89 166t183 119l68 -49q-154 -78 -172 -207q-8 -53 22.5 -89t81.5 -36q88 0 156 90l68 -37q-113 -161 -289 -161z" />
    <glyph glyph-name="tilde" unicode="&#x2dc;" horiz-adv-x="960" 
d="M809 1257q-59 0 -135 56.5t-113 56.5q-63 0 -94 -86l-74 23q29 104 86.5 152t126.5 48q59 0 136 -55t114 -55q63 0 96 84l70 -21q-29 -104 -86 -153.5t-127 -49.5z" />
    <glyph glyph-name="hungarumlaut" unicode="&#x2dd;" horiz-adv-x="741" 
d="M498 1151l-76 35q100 186 137 258q45 82 113 82q37 0 54 -23.5t13 -54.5q-6 -35 -55 -92zM772 1151l-76 35l140 258q41 82 108 82q37 0 55.5 -23.5t14.5 -54.5t-56 -92z" />
    <glyph glyph-name="uni0394" unicode="&#x394;" horiz-adv-x="1374" 
d="M18 0l820 1434h170l276 -1434h-1266zM190 106h795l-199 1033z" />
    <glyph glyph-name="uni03A9" unicode="&#x3a9;" horiz-adv-x="1660" 
d="M139 -41l-45 391l70 29q8 -23 21.5 -45.5t47 -57t100 -55t156.5 -20.5h80l4 8q-387 319 -315 688q47 258 268.5 415.5t544.5 157.5q322 0 481.5 -157.5t110.5 -415.5q-72 -369 -584 -688v-8h80q90 0 166 21.5t122 54t69.5 57t35.5 45.5l60 -29l-187 -391h-22
q-61 41 -184 41h-349l29 193q221 164 334 321.5t153 368.5q94 487 -333.5 487t-522.5 -487q-39 -211 9.5 -369t199.5 -321l-28 -193h-351q-125 0 -198 -41h-23z" />
    <glyph glyph-name="uni03BC" unicode="&#x3bc;" horiz-adv-x="1198" 
d="M1108 90q39 0 80 23l10 -93q-84 -57 -207 -57q-184 0 -162 178h-6q-162 -178 -362 -178q-96 0 -166 29q6 -37 21.5 -108.5t16.5 -92t-1 -78.5q-12 -70 -61.5 -108.5t-112.5 -38.5q-61 0 -97 44t-22 114l117 593q2 14 10 68l108 573h222l-111 -585q-57 -274 182 -275
q106 0 193.5 75t109.5 187l2 9l111 589h221l-143 -759q-21 -109 47 -109z" />
    <glyph glyph-name="pi" unicode="&#x3c0;" horiz-adv-x="1263" 
d="M668 958h710l-2 -18q-57 -90 -102 -121q-68 -47 -164 -49l-111 -582q-20 -104 45 -104q35 0 78 22l8 -90q-80 -53 -196 -53q-184 0 -152 195l115 594h-211l-84 -422q-35 -174 -123 -270.5t-219 -96.5q-80 0 -131 38t-39 101q8 41 44 72t79 31q33 0 52.5 -18.5t24.5 -41
t18.5 -41t35.5 -18.5q45 0 83 38t50 107l103 521h-50q-70 0 -117.5 -40t-58.5 -102h-82q10 61 35 116.5t70 111t120 88t171 32.5z" />
    <glyph glyph-name="Wgrave" unicode="&#x1e80;" horiz-adv-x="2021" 
d="M938 1702q-55 47 -45 102q6 33 32.5 55.5t63.5 22.5q55 0 94 -61l136 -248l-72 -51zM1937 1434h301l-2 -58q-104 -20 -163 -141l-549 -1151q18 -29 35 -43l-17 -41q-178 0 -285 -33h-22l-105 959h-10l-411 -842q16 -25 36 -43l-14 -41q-135 6 -282 -33h-17l-143 1268
q-14 121 -113 141l23 58h452l-4 -58q-39 -8 -66.5 -45t-21.5 -96l113 -971h8l428 875q-16 102 -74 155l23 58q152 47 278 123h15l129 -1211h12l465 971q27 66 13.5 99.5t-48.5 41.5z" />
    <glyph glyph-name="wgrave" unicode="&#x1e81;" horiz-adv-x="1867" 
d="M889 1337q-55 47 -45 103q4 31 30.5 54.5t63.5 23.5q53 0 96 -62l135 -248l-71 -51zM1874 897q8 -119 -24.5 -296t-108.5 -314q-172 -326 -438 -326q-90 0 -172 56.5t-109 162.5h-14q-168 -219 -387 -219q-137 0 -225.5 88t-86.5 230q6 256 318 567l-4 10l-203 2
q-82 0 -140.5 -26.5t-66.5 -79.5q-6 -37 23 -66l-50 -27q-70 70 -55 166q6 94 85 169t224 73h447l6 -14q-4 -4 -31.5 -43t-48 -68t-55.5 -82t-61.5 -97t-56.5 -105.5t-50.5 -115t-33.5 -113.5t-15 -114q-2 -131 57 -181t141 -50q123 0 263.5 201.5t150.5 367.5
q6 88 -16.5 176.5t-20.5 145.5q2 53 37 93t94 40q47 0 78 -39t31 -92q-2 -66 -38 -158t-74 -208.5t-44 -239.5q-6 -143 45 -215t146 -72q82 0 158.5 70.5t121.5 177.5q76 172 60 360q-2 57 -26 96t-51.5 56.5t-51 50.5t-23.5 82q0 53 37 92t98 39q70 0 114 -55.5t46 -155.5z
" />
    <glyph glyph-name="Wacute" unicode="&#x1e82;" horiz-adv-x="2021" 
d="M1380 1702l-276 -180l-51 51l227 248q66 61 117 61q37 0 55 -23.5t12 -54.5q-8 -57 -84 -102zM1937 1434h301l-2 -58q-104 -20 -163 -141l-549 -1151q18 -29 35 -43l-17 -41q-178 0 -285 -33h-22l-105 959h-10l-411 -842q16 -25 36 -43l-14 -41q-135 6 -282 -33h-17
l-143 1268q-14 121 -113 141l23 58h452l-4 -58q-39 -8 -66.5 -45t-21.5 -96l113 -971h8l428 875q-16 102 -74 155l23 58q152 47 278 123h15l129 -1211h12l465 971q27 66 13.5 99.5t-48.5 41.5z" />
    <glyph glyph-name="wacute" unicode="&#x1e83;" horiz-adv-x="1867" 
d="M1462 1337l-276 -180l-51 51l227 248q61 61 117 62q35 0 53 -22.5t14 -55.5q-10 -56 -84 -103zM1874 897q8 -119 -24.5 -296t-108.5 -314q-172 -326 -438 -326q-90 0 -172 56.5t-109 162.5h-14q-168 -219 -387 -219q-137 0 -225.5 88t-86.5 230q6 256 318 567l-4 10
l-203 2q-82 0 -140.5 -26.5t-66.5 -79.5q-6 -37 23 -66l-50 -27q-70 70 -55 166q6 94 85 169t224 73h447l6 -14q-4 -4 -31.5 -43t-48 -68t-55.5 -82t-61.5 -97t-56.5 -105.5t-50.5 -115t-33.5 -113.5t-15 -114q-2 -131 57 -181t141 -50q123 0 263.5 201.5t150.5 367.5
q6 88 -16.5 176.5t-20.5 145.5q2 53 37 93t94 40q47 0 78 -39t31 -92q-2 -66 -38 -158t-74 -208.5t-44 -239.5q-6 -143 45 -215t146 -72q82 0 158.5 70.5t121.5 177.5q76 172 60 360q-2 57 -26 96t-51.5 56.5t-51 50.5t-23.5 82q0 53 37 92t98 39q70 0 114 -55.5t46 -155.5z
" />
    <glyph glyph-name="Wdieresis" unicode="&#x1e84;" horiz-adv-x="2021" 
d="M1054.5 1612q-57.5 0 -87 35.5t-19.5 85.5q10 51 52 88t99.5 37t87.5 -37t19 -88q-8 -49 -51 -85t-100.5 -36zM1427.5 1612q-57.5 0 -87 35.5t-19.5 85.5q10 51 52 88t99.5 37t87 -37t19.5 -88q-8 -49 -51 -85t-100.5 -36zM1937 1434h301l-2 -58q-104 -20 -163 -141
l-549 -1151q18 -29 35 -43l-17 -41q-178 0 -285 -33h-22l-105 959h-10l-411 -842q16 -25 36 -43l-14 -41q-135 6 -282 -33h-17l-143 1268q-14 121 -113 141l23 58h452l-4 -58q-39 -8 -66.5 -45t-21.5 -96l113 -971h8l428 875q-16 102 -74 155l23 58q152 47 278 123h15
l129 -1211h12l465 971q27 66 13.5 99.5t-48.5 41.5z" />
    <glyph glyph-name="wdieresis" unicode="&#x1e85;" horiz-adv-x="1867" 
d="M1042.5 1247q-57.5 0 -87 36t-19.5 85q10 51 52 88t99.5 37t87 -37t19.5 -88q-8 -49 -51 -85t-100.5 -36zM1415.5 1247q-57.5 0 -87.5 36t-21 85q12 51 54 88t99.5 37t87 -37t19.5 -88q-10 -49 -52 -85t-99.5 -36zM1874 897q8 -119 -24.5 -296t-108.5 -314
q-172 -326 -438 -326q-90 0 -172 56.5t-109 162.5h-14q-168 -219 -387 -219q-137 0 -225.5 88t-86.5 230q6 256 318 567l-4 10l-203 2q-82 0 -140.5 -26.5t-66.5 -79.5q-6 -37 23 -66l-50 -27q-70 70 -55 166q6 94 85 169t224 73h447l6 -14q-4 -4 -31.5 -43t-48 -68
t-55.5 -82t-61.5 -97t-56.5 -105.5t-50.5 -115t-33.5 -113.5t-15 -114q-2 -131 57 -181t141 -50q123 0 263.5 201.5t150.5 367.5q6 88 -16.5 176.5t-20.5 145.5q2 53 37 93t94 40q47 0 78 -39t31 -92q-2 -66 -38 -158t-74 -208.5t-44 -239.5q-6 -143 45 -215t146 -72
q82 0 158.5 70.5t121.5 177.5q76 172 60 360q-2 57 -26 96t-51.5 56.5t-51 50.5t-23.5 82q0 53 37 92t98 39q70 0 114 -55.5t46 -155.5z" />
    <glyph glyph-name="endash" unicode="&#x2013;" horiz-adv-x="628" 
d="M74 449l30 167h639l-30 -167h-639z" />
    <glyph glyph-name="emdash" unicode="&#x2014;" horiz-adv-x="808" 
d="M74 449l30 167h820l-31 -167h-819z" />
    <glyph glyph-name="quoteleft" unicode="&#x2018;" horiz-adv-x="634" 
d="M528 1092q63 0 100.5 -42t24.5 -110q-10 -66 -67.5 -107.5t-126.5 -41.5q-78 0 -116 57t-21 147q23 129 125 267.5t237 218.5l51 -78q-80 -51 -149.5 -135t-106.5 -181l4 -6q25 11 45 11z" />
    <glyph glyph-name="quoteright" unicode="&#x2019;" horiz-adv-x="634" 
d="M557 1470q78 0 115 -57t20 -147q-23 -131 -124 -268.5t-236 -217.5l-56 80q80 51 151 135t108 181l-5 4q-25 -10 -45 -11q-63 0 -100 42t-25 112q12 66 68.5 106.5t128.5 40.5z" />
    <glyph glyph-name="quotesinglbase" unicode="&#x201a;" horiz-adv-x="684" 
d="M412 264q80 0 116.5 -56t20.5 -149q-23 -129 -125 -267t-238 -218l-53 80q78 49 148.5 133t107.5 180l-4 6q-25 -10 -43 -10q-66 0 -102.5 42t-24.5 110q12 66 69.5 107.5t127.5 41.5z" />
    <glyph glyph-name="quotedblleft" unicode="&#x201c;" horiz-adv-x="1052" 
d="M735 1403q-80 -51 -149.5 -135t-106.5 -181l4 -6q25 10 45 11q63 0 100.5 -42t24.5 -110q-10 -66 -67.5 -107.5t-126.5 -41.5q-78 0 -116 57t-21 147q23 129 125 267.5t237 218.5zM948 1092q63 0 100 -42t25 -110q-12 -66 -68.5 -107.5t-127.5 -41.5q-78 0 -115 57
t-21 147q23 131 124.5 268.5t236.5 217.5l55 -78q-80 -51 -150.5 -135t-107.5 -181l4 -6q25 11 45 11z" />
    <glyph glyph-name="quotedblright" unicode="&#x201d;" horiz-adv-x="1050" 
d="M557 1470q78 0 115 -57t20 -147q-23 -131 -124 -268.5t-236 -217.5l-56 80q80 51 151 135t108 181l-5 4q-25 -10 -45 -11q-63 0 -100 42t-25 112q12 66 68.5 106.5t128.5 40.5zM975 1470q80 0 116.5 -56t20.5 -148q-23 -129 -125 -267.5t-237 -218.5l-54 80
q80 51 151 135t107 181l-4 4q-25 -10 -45 -11q-63 0 -100 42t-25 112q12 66 68.5 106.5t126.5 40.5z" />
    <glyph glyph-name="quotedblbase" unicode="&#x201e;" horiz-adv-x="1099" 
d="M412 264q80 0 116.5 -56t20.5 -149q-23 -129 -125 -267t-238 -218l-53 80q78 49 148.5 133t107.5 180l-4 6q-25 -10 -43 -10q-66 0 -102.5 42t-24.5 110q12 66 69.5 107.5t127.5 41.5zM829 264q80 0 117 -56t21 -149q-23 -131 -124.5 -268t-236.5 -217l-53 80
q78 49 148.5 133t107.5 180l-4 6q-25 -10 -45 -10q-63 0 -100 42t-25 110q12 66 68 107.5t126 41.5z" />
    <glyph glyph-name="dagger" unicode="&#x2020;" horiz-adv-x="1122" 
d="M481 0q123 664 99 911q53 70 94 148l-2 6q-78 -10 -159 -32.5t-114 -22.5q-45 0 -66.5 22.5t-15.5 61.5q18 84 113 84q35 0 107.5 -20.5t146.5 -31.5l6 4q4 72 -6 139.5t-4 104.5q18 96 111 96q39 0 59 -24.5t10 -71.5q-6 -37 -42 -105.5t-58 -138.5l2 -4q78 10 158.5 31
t115.5 21q43 0 65.5 -24t14.5 -60q-6 -39 -36.5 -61.5t-75.5 -22.5q-33 0 -105 22.5t-145 32.5l-6 -6l36 -148q-115 -248 -245 -911h-58z" />
    <glyph glyph-name="daggerdbl" unicode="&#x2021;" horiz-adv-x="1163" 
d="M537 -37q-39 0 -59.5 24.5t-12.5 71.5q6 31 42 100.5t60 147.5l-2 4q-80 -10 -160.5 -32.5t-113.5 -22.5q-45 0 -65.5 22.5t-14.5 61.5q8 37 39 61.5t74 24.5q33 0 104.5 -23.5t144.5 -33.5l5 6q6 51 6 127t-6 145l-5 70q119 254 136 340l-2 6q-78 -10 -158 -32.5
t-113 -22.5q-45 0 -67.5 23.5t-14.5 60.5q14 84 113 84q35 0 107.5 -20.5t146.5 -31.5l4 4q4 74 -6 142.5t-4 103.5q10 47 40.5 71.5t69.5 24.5q41 0 60.5 -24.5t11.5 -71.5q-6 -37 -42 -105.5t-60 -140.5l4 -4q74 10 154.5 31t117.5 21q45 0 66.5 -23t13.5 -61
q-6 -37 -36 -60.5t-75 -23.5q-35 0 -106.5 22.5t-145.5 32.5l-6 -6q-6 -51 -5 -127t7 -144l7 -69q-121 -256 -138 -342l4 -6q78 10 158 33.5t113 23.5q43 0 65.5 -24.5t14.5 -61.5q-14 -84 -111 -84q-33 0 -105.5 22.5t-148.5 32.5l-6 -4q-4 -76 6 -145.5t4 -102.5
q-20 -96 -110 -96z" />
    <glyph glyph-name="bullet" unicode="&#x2022;" horiz-adv-x="681" 
d="M389 319q-104 0 -164.5 74t-42.5 180q20 102 107.5 176t194 74t167 -73.5t41.5 -176.5q-20 -106 -108.5 -180t-194.5 -74z" />
    <glyph glyph-name="ellipsis" unicode="&#x2026;" horiz-adv-x="1685" 
d="M293 -37q-66 0 -106 45t-27 117q12 70 67.5 115t122.5 45q66 0 106 -45t27 -115q-12 -72 -67 -117t-123 -45zM825 -37q-66 0 -105.5 45t-27.5 117q12 70 67.5 115t123.5 45q66 0 105.5 -45t27.5 -115q-12 -72 -67.5 -117t-123.5 -45zM1358 -37q-66 0 -106 45t-27 117
q12 70 67.5 115t122.5 45q66 0 106 -45t27 -115q-12 -72 -67 -117t-123 -45z" />
    <glyph glyph-name="perthousand" unicode="&#x2030;" horiz-adv-x="2461" 
d="M467 696q-168 0 -256 114t-57 275q33 170 157.5 277.5t296.5 107.5q164 0 249 -110.5t54 -278.5q-31 -164 -155.5 -274.5t-288.5 -110.5zM371 0l932 1434h118l-929 -1434h-121zM481 797q84 0 151.5 79.5t90.5 202.5q25 129 -13 209t-122 80q-86 0 -152.5 -78t-91.5 -207
q-23 -123 15 -204.5t122 -81.5zM1190 -39q-166 0 -254 112.5t-57 276.5q31 168 155.5 276.5t296.5 108.5q164 0 250 -110.5t55 -278.5q-31 -164 -155.5 -274.5t-290.5 -110.5zM2044 -39q-168 0 -255 112.5t-58 276.5q33 168 156.5 276.5t295.5 108.5q166 0 252 -111.5
t55 -277.5q-31 -164 -155.5 -274.5t-290.5 -110.5zM1204 59q84 0 151.5 80t90.5 205q25 127 -13 207t-120 80q-88 0 -154.5 -78t-91.5 -205q-23 -125 15 -207t122 -82zM2058 59q84 0 151.5 80t90.5 205q25 127 -13 207t-122 80q-86 0 -152.5 -78t-91.5 -205
q-23 -125 15 -207t122 -82z" />
    <glyph glyph-name="guilsinglleft" unicode="&#x2039;" horiz-adv-x="628" 
d="M469 6l-326 430l17 103l489 430l53 -39l-317 -443l147 -442z" />
    <glyph glyph-name="guilsinglright" unicode="&#x203a;" horiz-adv-x="628" 
d="M162 6l-51 39l315 442l-147 443l65 39l326 -430l-19 -103z" />
    <glyph glyph-name="fraction" unicode="&#x2044;" horiz-adv-x="366" 
d="M-94 0l807 1434h84l-807 -1434h-84z" />
    <glyph glyph-name="uni2070" unicode="&#x2070;" horiz-adv-x="471" 
d="M327.5 860q-108.5 0 -154.5 80t-25.5 213t92 213t180 80t156 -81t24.5 -212q-20 -133 -92 -213t-180.5 -80zM336 909q109 0 143 244q39 244 -67 244q-104 0 -144 -244q-34 -244 68 -244z" />
    <glyph glyph-name="uni2074" unicode="&#x2074;" horiz-adv-x="458" 
d="M498 1014l-9 -53q-6 -45 46 -62l-9 -25h-223v25q57 14 68 62l8 53h-240l6 35l332 385h88l-59 -375h90l-18 -45h-80zM211 1059h176l37 241h-4l-207 -237z" />
    <glyph glyph-name="uni2075" unicode="&#x2075;" horiz-adv-x="436" 
d="M365 1237q100 0 146 -49t34 -127q-14 -84 -84 -142.5t-172 -58.5q-63 0 -108.5 23.5t-39.5 66.5q2 20 19.5 34.5t36.5 14.5q27 0 39 -14t13 -30.5t16.5 -31t47.5 -14.5q55 0 91 33t45 86q10 51 -23 85t-98 34q-68 0 -119 -29l-27 8l92 304h299l-26 -91h-252l-37 -118
q44 16 107 16z" />
    <glyph glyph-name="uni2076" unicode="&#x2076;" horiz-adv-x="430" 
d="M418 1239q86 0 121.5 -52t23.5 -130q-14 -82 -83.5 -138.5t-162.5 -56.5q-96 0 -142 68.5t-30 181.5q27 164 140.5 249t267.5 85l-2 -35q-82 0 -154.5 -54t-111.5 -163h4q49 45 129 45zM440 1055q20 127 -69 127q-66 0 -107 -64q-2 -4 -2 -12t-2 -12q-29 -188 63 -188.5
t117 149.5z" />
    <glyph glyph-name="uni2077" unicode="&#x2077;" horiz-adv-x="413" 
d="M209 1430h342l-8 -56q-111 -119 -173.5 -219t-82.5 -229q-8 -66 -74 -66q-27 0 -42 18.5t-11 47.5q16 106 102 214.5t193 194.5v4h-97q-121 0 -194 -73l-25 10z" />
    <glyph glyph-name="uni2078" unicode="&#x2078;" horiz-adv-x="456" 
d="M324 862q-92 0 -142.5 44t-40.5 104q18 96 131 151l2 4q-76 47 -61 138q8 57 68.5 101t152.5 44q84 0 125 -38t33 -91q-14 -92 -115 -135v-4q53 -29 79 -62t15 -92q-10 -72 -78.5 -118t-168.5 -46zM420 1210q88 45 98 107q6 39 -13.5 61.5t-64.5 22.5q-90 0 -106 -76
q-10 -70 86 -115zM326 907q53 0 84.5 25.5t38.5 64.5q4 27 -4.5 47.5t-30 38t-38 26.5t-48.5 24q-92 -43 -105 -121q-6 -43 21 -74t82 -31z" />
    <glyph glyph-name="uni2079" unicode="&#x2079;" horiz-adv-x="430" 
d="M389 1446q96 0 142.5 -68.5t29.5 -181.5q-27 -164 -141.5 -249t-267.5 -85l4 35q84 0 155.5 53.5t110.5 163.5h-4q-51 -47 -129 -47q-86 0 -122 53.5t-22 130.5q12 82 81 138.5t163 56.5zM336 1124q63 0 106 64q0 10 4 26q29 186 -65 187q-90 0 -115 -150
q-20 -127 70 -127z" />
    <glyph glyph-name="uni207F" unicode="&#x207f;" horiz-adv-x="507" 
d="M639 899l6 -25q-47 -39 -108 -38q-94 0 -72 98l45 205q12 53 -5.5 84.5t-62.5 31.5q-49 0 -94 -55t-59 -133q-10 -61 -15.5 -114.5t-5.5 -75.5v-25h-129l54 309q6 27 -5.5 44.5t-29.5 21.5l8 28q106 20 158 72l12 -4l-19 -98h7q68 98 168 98q78 0 113.5 -49t12.5 -144
l-36 -169q-18 -74 26 -74q11 0 31 12z" />
    <glyph glyph-name="uni2080" unicode="&#x2080;" horiz-adv-x="471" 
d="M328 -14q-109 0 -155 78.5t-26 214.5q20 131 93 210.5t180 79.5q111 0 157 -78.5t23 -211.5q-20 -135 -90.5 -214t-181.5 -79zM336 35q109 0 143 244q39 244 -67 243q-104 0 -144 -243q-34 -244 68 -244z" />
    <glyph glyph-name="uni2081" unicode="&#x2081;" horiz-adv-x="264" 
d="M141 0v25q57 16 66 61l57 371h-55v26l156 76h36l-75 -473q-6 -45 45 -61l-9 -25h-221z" />
    <glyph glyph-name="uni2082" unicode="&#x2082;" horiz-adv-x="442" 
d="M578 406q-16 -102 -98.5 -175t-213.5 -139v-2h76q119 0 188 70l25 -13l-68 -147h-348l11 59q63 45 83.5 59.5t72.5 57.5t74.5 70.5t47.5 70.5t31 89q8 53 -14.5 84.5t-69.5 31.5q-49 0 -90 -35.5t-54 -99.5l-36 8q16 80 76.5 127t140.5 47q84 0 130 -43.5t36 -119.5z" />
    <glyph glyph-name="uni2083" unicode="&#x2083;" horiz-adv-x="430" 
d="M299 -14q-68 0 -117 25.5t-41 70.5q8 51 58 51q35 0 49 -49t55 -49q51 0 86 32.5t45 92.5q10 61 -17.5 97t-88.5 36h-19l6 43h21q47 0 76.5 28.5t36.5 67.5q10 90 -80 90q-41 0 -76 -29.5t-47 -80.5l-33 4q16 72 71.5 112.5t133.5 40.5t116.5 -35.5t30.5 -87.5
q-14 -86 -110 -120l-2 -4q51 -10 80.5 -51.5t21.5 -94.5q-12 -82 -81 -136t-175 -54z" />
    <glyph glyph-name="uni2084" unicode="&#x2084;" horiz-adv-x="458" 
d="M498 137l-9 -53q-6 -43 46 -59l-7 -25h-223l-2 25q59 14 68 61l8 51h-240l6 35l332 387h88l-59 -375h90l-18 -47h-80zM213 184h174l37 242h-4l-207 -240v-2z" />
    <glyph glyph-name="uni2085" unicode="&#x2085;" horiz-adv-x="438" 
d="M549 465h-254l-37 -121q41 18 109 18q98 0 144 -49t34 -127q-12 -84 -82 -142t-172 -58q-63 0 -109.5 22.5t-40.5 65.5q2 23 19.5 37t36.5 14q27 0 39 -14.5t13 -31t17.5 -30.5t48.5 -14q53 0 89 32.5t45 86.5q10 51 -23 84.5t-98 33.5q-68 0 -119 -28l-27 8l94 303h299z
" />
    <glyph glyph-name="uni2086" unicode="&#x2086;" horiz-adv-x="430" 
d="M418 367q86 0 120.5 -52.5t22.5 -130.5q-12 -84 -80.5 -139t-163.5 -55q-96 0 -143 68.5t-29 181.5q27 164 140.5 247.5t269.5 83.5l-4 -32q-82 0 -154.5 -54.5t-109.5 -165.5h4q47 48 127 48zM440 182q20 127 -67 127q-61 0 -105 -57l-6 -33q-31 -186 62 -186
q93 -1 116 149z" />
    <glyph glyph-name="uni2087" unicode="&#x2087;" horiz-adv-x="415" 
d="M211 555h342l-10 -57q-111 -119 -172.5 -218.5t-81.5 -228.5q-12 -66 -74 -65q-29 0 -43 18.5t-10 46.5q27 190 293 410v4h-97q-119 0 -194 -76l-25 12z" />
    <glyph glyph-name="uni2088" unicode="&#x2088;" horiz-adv-x="456" 
d="M324 -12q-92 0 -142.5 45t-40.5 104q16 98 131 150v4q-74 51 -59 137q8 57 68.5 101t152.5 44q84 0 125 -37.5t33 -91.5q-14 -92 -115 -135v-4q51 -29 77 -61.5t15 -91.5q-10 -70 -77.5 -117t-167.5 -47zM418 336q88 43 100 106q10 84 -80 84q-92 0 -102 -75
q-12 -66 82 -115zM326 35q53 0 84.5 25.5t38.5 62.5q4 27 -4.5 47t-30 37.5t-38 27t-48.5 23.5q-90 -41 -105 -121q-6 -43 21 -72.5t82 -29.5z" />
    <glyph glyph-name="uni2089" unicode="&#x2089;" horiz-adv-x="430" 
d="M389 569q98 0 144.5 -67.5t27.5 -182.5q-27 -164 -140.5 -247.5t-266.5 -83.5l4 35q82 0 153.5 53t110.5 164h-4q-51 -47 -129 -47q-86 0 -121 52t-23 132q12 84 81 138t163 54zM336 250q61 0 104 61l6 29q29 186 -63 186t-117 -149q-20 -127 70 -127z" />
    <glyph glyph-name="Euro" unicode="&#x20ac;" horiz-adv-x="1370" 
d="M1128 1470q197 0 301.5 -77.5t104.5 -167.5q0 -57 -27.5 -88t-70.5 -31q-45 0 -75 40t-45.5 88t-65.5 88t-134 40q-150 0 -284 -114.5t-207 -313.5h551l-17 -121h-571q-12 -43 -19 -90q-8 -51 -12 -98h569l-18 -125h-553q8 -209 106.5 -313.5t260.5 -104.5q225 0 397 199
l47 -41q-88 -119 -224 -198t-286 -79q-246 0 -390 148.5t-157 388.5h-256l19 125h239q4 45 8 67q6 45 27 121h-244l19 121h266q100 242 295.5 389t445.5 147z" />
    <glyph glyph-name="uni2113" unicode="&#x2113;" horiz-adv-x="899" 
d="M434 -37q-145 0 -203.5 120t-33.5 288l16 121l-162 -111l-28 51l202 150l27 178q53 383 143 551t264 168q98 0 152.5 -84t36.5 -224q-12 -94 -60.5 -181t-129 -166t-134 -122t-139.5 -106q-14 -10 -23 -16l-28 -203q-47 -317 145 -318q16 0 33.5 3.5t36 13.5t32 16
t34 23.5t29.5 24.5t31.5 30t28 28t29 30.5t25.5 27.5l39 -43q-76 -102 -173.5 -176t-189.5 -74zM375 674q326 256 364 518q14 96 -15.5 156.5t-98.5 60.5q-80 0 -130.5 -117.5t-84.5 -365.5z" />
    <glyph glyph-name="trademark" unicode="&#x2122;" horiz-adv-x="1030" 
d="M207 1014v22q33 8 39 49l59 308q-41 -2 -78 -22.5t-55 -39.5l-16 -20l-21 10l58 113h346l14 -113l-27 -10q-2 8 -9 21.5t-36.5 36t-70.5 24.5l-60 -308q-6 -43 23 -49l-8 -22h-158zM528 1014l2 22q31 8 37 49l54 275q8 45 -21 51l8 23h129l45 -258h2l142 258h131l-2 -23
q-31 -6 -39 -51l-55 -275q-6 -43 24 -49l-10 -22h-156l2 22q31 8 37 49l41 203h-4l-152 -274h-41l-45 274h-2l-41 -203q-6 -43 23 -49l-10 -22h-99z" />
    <glyph glyph-name="Omega" unicode="&#x2126;" horiz-adv-x="1728" 
d="M133 -41l-47 391l72 29q55 -178 323 -178h82l2 8q-387 324 -315 688q47 258 268 415.5t544.5 157.5t482.5 -157.5t110 -415.5q-74 -373 -584 -688v-8h82q90 0 166 21.5t121 54t68.5 56t37.5 46.5l60 -29l-189 -391h-20q-61 41 -185 41h-350l31 193q221 166 333.5 323.5
t151.5 366.5q94 487 -334 487t-522 -487q-39 -209 9.5 -368t199.5 -322l-29 -193h-348q-127 0 -200 -41h-21z" />
    <glyph glyph-name="estimated" unicode="&#x212e;" horiz-adv-x="1894" 
d="M1063 -37q-315 0 -539.5 221.5t-224.5 532.5q0 313 223 533t541 220q315 0 538.5 -220t223.5 -533v-21h-1194v-503q213 -160 434 -160q307 0 479 223h90q-209 -293 -571 -293zM633 764h850v481q-172 156 -418 156q-258 0 -432 -166v-471z" />
    <glyph glyph-name="partialdiff" unicode="&#x2202;" horiz-adv-x="1251" 
d="M690 1470q272 0 400.5 -242.5t31.5 -643.5q-68 -285 -247 -453t-416.5 -168t-350 150.5t-61.5 371.5q51 211 221 339t381 128q166 0 250 -80q23 207 -3 340.5t-105 133.5q-39 0 -91.5 -62.5t-101.5 -62.5q-51 0 -81 28.5t-30 75.5q0 63 51.5 104t151.5 41zM481 59
q133 0 218 122t141 351q31 125 45 230q-74 96 -215 96q-131 0 -220.5 -102.5t-130.5 -276.5q-25 -109 -25.5 -202t47.5 -155.5t140 -62.5z" />
    <glyph glyph-name="Delta" unicode="&#x2206;" horiz-adv-x="1374" 
d="M27 0l821 1434h170l276 -1434h-1267zM199 106h794l-198 1033z" />
    <glyph glyph-name="product" unicode="&#x220f;" horiz-adv-x="1794" 
d="M133 0l2 57q129 29 150 142l200 1034q20 117 -98 143l19 58h1337l-2 -58q-127 -27 -150 -143l-200 -1034q-20 -115 98 -142l-19 -57h-485l2 57q127 27 148 142l217 1114h-598l-215 -1114q-20 -113 96 -142l-17 -57h-485z" />
    <glyph glyph-name="summation" unicode="&#x2211;" horiz-adv-x="1548" 
d="M125 0l10 70l582 628l-307 666l10 70h1044l43 -299l-69 -31q-72 117 -179.5 170t-281.5 53h-248l236 -512l-551 -608h399q219 0 328.5 34.5t216.5 135.5l51 -45l-205 -332h-1079z" />
    <glyph glyph-name="minus" unicode="&#x2212;" horiz-adv-x="851" 
d="M170 449l31 167h626l-30 -167h-627z" />
    <glyph glyph-name="uni2215" unicode="&#x2215;" horiz-adv-x="184" 
d="M-279 594l25 145h631l-25 -145h-631z" />
    <glyph glyph-name="uni2219" unicode="&#x2219;" horiz-adv-x="653" 
d="M368.5 635q-67.5 0 -107.5 45t-25 117q14 70 68 113.5t122 43.5q66 0 105.5 -44t25.5 -113q-12 -72 -66.5 -117t-122 -45z" />
    <glyph glyph-name="radical" unicode="&#x221a;" horiz-adv-x="1417" 
d="M438 0l-102 455h-221l18 110h297l94 -418l779 1287h122l-866 -1434h-121z" />
    <glyph glyph-name="infinity" unicode="&#x221e;" horiz-adv-x="2160" 
d="M582 309q-164 0 -260.5 120t-63.5 290q33 172 175 291.5t306 119.5q156 0 240 -78.5t145 -222.5h6q76 94 137.5 151.5t157 103.5t199.5 46q164 0 261 -119.5t65 -291.5q-33 -170 -176.5 -290t-305.5 -120q-156 0 -240.5 79t-148.5 222h-6q-113 -141 -226 -221t-265 -80z
M1491 438q125 0 224.5 85t124 210t-43 213t-190.5 88q-127 0 -223.5 -74.5t-211.5 -218.5q29 -74 51.5 -117.5t60.5 -92t89 -71t119 -22.5zM600 408q88 0 171 45t135 99t126 146q-29 72 -51.5 116t-59 92t-88 70.5t-118.5 22.5q-125 0 -225.5 -84t-124.5 -208
q-23 -125 44.5 -212t190.5 -87z" />
    <glyph glyph-name="integral" unicode="&#x222b;" horiz-adv-x="2363" 
d="M713 -408q-82 0 -127 35t-35 101q8 41 46 73.5t81 32.5q35 0 57.5 -18.5t30.5 -41t23.5 -41t37.5 -18.5q92 0 123 144l297 1546q37 201 175.5 319.5t316.5 118.5q82 0 127 -34.5t35 -90.5q-10 -49 -47 -81.5t-87 -32.5q-35 0 -57 18t-29.5 39.5t-23 40t-39.5 18.5
q-90 0 -119 -143l-293 -1528q-41 -221 -178 -339t-315 -118z" />
    <glyph glyph-name="approxequal" unicode="&#x2248;" horiz-adv-x="1527" 
d="M1049 756q-92 0 -180.5 37.5t-162 74.5t-131.5 37q-84 0 -137 -84l-63 33q90 162 262 162q92 0 182 -37t165 -73t130 -36q63 0 121 58l55 -45q-91 -127 -241 -127zM991 457q-92 0 -180 37.5t-162 74.5t-129 37q-88 0 -141 -84l-62 33q88 164 263 164q92 0 182 -37
t164.5 -74t130.5 -37q61 0 121 60l55 -45q-95 -129 -242 -129z" />
    <glyph glyph-name="notequal" unicode="&#x2260;" horiz-adv-x="1374" 
d="M399 168l140 295h-420l18 110h453l139 297h-534l20 111h565l140 291h114l-139 -291h424l-21 -111h-452l-141 -297h538l-20 -110h-570l-137 -295h-117z" />
    <glyph glyph-name="lessequal" unicode="&#x2264;" horiz-adv-x="1517" 
d="M1264 223l-940 420l22 123l1098 420l-21 -119l-931 -360v-7l794 -356zM158 0l18 102h1104l-18 -102h-1104z" />
    <glyph glyph-name="greaterequal" unicode="&#x2265;" horiz-adv-x="1437" 
d="M244 223l20 121l932 356l2 7l-795 360l23 119l938 -420l-23 -123zM158 0l18 102h1104l-18 -102h-1104z" />
    <glyph glyph-name="lozenge" unicode="&#x25ca;" horiz-adv-x="1585" 
d="M637 0l-285 719l557 715h123l285 -715l-557 -719h-123zM713 109h8l475 610l-242 606h-8l-471 -606z" />
    <glyph glyph-name="uniF6E0" unicode="&#xf6e0;" horiz-adv-x="401" 
d="M274 784l13 76q-76 8 -116 62.5t-28 132.5q12 84 69.5 137t137.5 63l12 82h60l-12 -82q61 -6 97 -39.5t30 -74.5q-4 -18 -19.5 -33.5t-34.5 -15.5q-27 0 -39 19t-13 42t-18.5 42t-52.5 19q-43 0 -81.5 -37.5t-47.5 -89.5q-14 -78 22 -120.5t103 -42.5q92 0 142 80l18 -9
q-16 -49 -62 -87t-108 -46l-12 -78h-60z" />
    <glyph glyph-name="uniF6E4" unicode="&#xf6e4;" horiz-adv-x="487" 
d="M305 668l19 112q-94 4 -141.5 40t-41.5 81q8 47 58 47q25 0 37 -19.5t15 -43t28.5 -43t77 -19.5t87 25.5t41.5 64.5q14 72 -125 113q-174 49 -151 178q8 66 65.5 107t141.5 49l14 100h55l-16 -98q72 -4 117 -34t37 -71q-4 -43 -48 -43q-20 0 -30 16.5t-14.5 35t-27 35
t-63.5 16.5q-45 0 -78.5 -23.5t-39.5 -58.5q-6 -37 23.5 -60.5t94.5 -41.5q184 -49 164 -177q-12 -76 -74.5 -123t-152.5 -53l-19 -112h-53z" />
    <glyph glyph-name="uniF6E6" unicode="&#xf6e6;" horiz-adv-x="653" 
d="M115 449l26 167h508l-26 -167h-508z" />
    <glyph glyph-name="uniF6E9" unicode="&#xf6e9;" horiz-adv-x="522" 
d="M604 887q10 0 27 12l8 -25q-41 -39 -107 -38q-88 0 -77 90h-4q-55 -90 -148 -90q-76 0 -120 47t-44 137q0 115 75 209t185 94q82 0 115 -51h4l14 51h127q-33 -61 -59 -203l-29 -159q-14 -74 33 -74zM346 905q37 0 72 33t55 88l31 188q-27 45 -80 46q-80 0 -126 -74
t-46 -166q0 -55 26.5 -85t67.5 -30z" />
    <glyph glyph-name="uniF6EA" unicode="&#xf6ea;" horiz-adv-x="507" 
d="M475 1323q80 0 125 -54.5t45 -138.5q0 -121 -81 -207.5t-189 -86.5q-100 0 -150 73h-4l-47 -57h-35l92 514q8 53 -38 66l10 28q100 14 157 72l13 -4l-49 -279h4q59 74 147 74zM365 889q72 0 121 81t49 171q0 53 -24 87t-67 34t-81.5 -35t-59.5 -88l-33 -181
q32 -69 95 -69z" />
    <glyph glyph-name="uniF6EB" unicode="&#xf6eb;" horiz-adv-x="536" 
d="M604 887q8 0 29 12l8 -25q-45 -39 -109 -38q-86 0 -77 86h-2q-55 -86 -150 -86q-76 0 -120 47t-44 137q0 117 74 210t193 93q63 0 108 -39h6l15 82q6 53 -39 66l10 28q102 14 158 72l10 -4l-101 -567q-14 -74 31 -74zM344 905q41 0 77 34t54 91l33 189q-31 41 -82 41
q-84 0 -129 -74t-45 -166q0 -55 26.5 -85t65.5 -30z" />
    <glyph glyph-name="uniF6EC" unicode="&#xf6ec;" horiz-adv-x="460" 
d="M367 899q102 0 200 105l19 -21q-88 -147 -250 -147q-84 0 -140.5 47t-56.5 143q0 119 82 208t215 89q70 0 115 -27.5t45 -83.5q0 -80 -91 -116.5t-255 -55.5v-8q0 -61 37 -97t80 -36zM424 1270q-55 0 -104.5 -51.5t-63.5 -133.5q100 12 168 44t68 83q0 58 -68 58z" />
    <glyph glyph-name="uniF6ED" unicode="&#xf6ed;" horiz-adv-x="208" 
d="M272 1370q-35 0 -55 21.5t-20 48.5q0 29 20.5 50t54.5 21q33 0 53.5 -21.5t20.5 -49.5q0 -27 -20.5 -48.5t-53.5 -21.5zM221 836q-92 0 -76 98l39 227q8 57 -37 66l11 28q109 23 155 72l13 -4l-66 -362q-10 -74 31 -74q12 0 28 12l9 -25q-41 -38 -107 -38z" />
    <glyph glyph-name="uniF6EE" unicode="&#xf6ee;" horiz-adv-x="223" 
d="M219 836q-92 0 -76 98l76 432q8 53 -39 66l10 28q100 14 158 72l12 -4l-102 -567q-10 -74 31 -74q12 0 28 12l9 -25q-46 -38 -107 -38z" />
    <glyph glyph-name="uniF6EF" unicode="&#xf6ef;" horiz-adv-x="751" 
d="M883 899l6 -25q-45 -39 -105 -38q-37 0 -62.5 21.5t-12.5 76.5l45 205q27 117 -49 116q-43 0 -82 -55t-56 -135q-10 -59 -15 -112.5t-5 -75.5v-25h-129l51 287q12 53 3 84.5t-50 31.5q-43 0 -81 -54t-52 -134q-12 -61 -17.5 -114.5t-5.5 -75.5l2 -25h-129l54 309
q6 27 -6.5 44.5t-30.5 21.5l10 28q106 23 158 72l10 -4l-19 -98h9q66 98 153 98q100 0 109 -98h6q68 98 162 98q72 0 101.5 -49t8.5 -144l-39 -169q-18 -74 29 -74q9 0 29 12z" />
    <glyph glyph-name="uniF6F0" unicode="&#xf6f0;" horiz-adv-x="485" 
d="M348 836q-109 0 -165 69.5t-40 177.5q16 106 92 173t182.5 67t162 -69.5t39 -176t-91.5 -174t-179 -67.5zM356.5 889q55.5 0 96.5 53t53 135q12 84 -15.5 138.5t-82.5 54.5q-53 0 -96.5 -52.5t-53.5 -134.5q-12 -82 15.5 -138t83 -56z" />
    <glyph glyph-name="uniF6F1" unicode="&#xf6f1;" horiz-adv-x="432" 
d="M477 1323q45 0 69.5 -23.5t20.5 -60.5q-4 -29 -25.5 -50.5t-52 -21.5t-43 18.5t-20.5 37t-27 18.5q-29 0 -63.5 -53t-50.5 -131q-8 -53 -12.5 -104.5t-4.5 -75.5v-25h-129l54 309q6 27 -6.5 44.5t-30.5 21.5l10 28q109 23 156 72l12 -4l-17 -90h5q71 90 155 90z" />
    <glyph glyph-name="uniF6F2" unicode="&#xf6f2;" horiz-adv-x="462" 
d="M350 836q-88 0 -150.5 32.5t-58.5 77.5q0 49 52 49q23 0 37 -16t22 -36.5t32.5 -37t65.5 -16.5q53 0 85 20.5t36 53.5q0 8 -1 15t-6 13t-9 11.5t-14.5 9.5t-16.5 7t-18.5 6t-19.5 5t-21.5 5t-18.5 5q-35 8 -57.5 17.5t-48 25t-38 41t-9.5 58.5q4 61 63 101t160 40
q80 0 132 -28.5t50 -71.5q0 -45 -45 -45q-25 0 -36 14t-14 31.5t-24.5 32t-64.5 14.5q-45 0 -76 -17.5t-33 -46.5q-2 -14 6 -26.5t26.5 -19.5t31 -11t37 -10t28.5 -6q37 -8 62.5 -15.5t51 -24t37 -43t7.5 -63.5q-4 -59 -63.5 -105t-178.5 -46z" />
    <glyph glyph-name="uniF6F3" unicode="&#xf6f3;" horiz-adv-x="319" 
d="M268 836q-127 0 -104 125l51 290h-76l6 37q117 37 181 148h34l-22 -127h119l-11 -58h-116l-54 -295q-12 -63 41 -63q33 0 60 10l4 -47q-54 -20 -113 -20z" />
    <glyph glyph-name="uniFB06" unicode="&#xfb06;" horiz-adv-x="1931" 
d="M592 -39q-207 0 -348.5 82t-132.5 184q10 102 112 103q45 0 70.5 -27t42 -64.5t38 -75.5t76 -64.5t140.5 -26.5q125 0 209 51t94 133q6 47 -15.5 81t-63.5 55.5t-87 34.5t-102 28q-20 4 -29 6q-86 20 -138 38.5t-114.5 55.5t-90.5 96.5t-20 139.5q10 133 145.5 225
t350.5 92q86 0 158 -23q-35 252 102 409t365 157q242 0 361.5 -160t53.5 -422h283l-20 -113h-281l-127 -716q-27 -158 100 -158q70 0 140 24l8 -96q-115 -49 -246 -49q-133 0 -192.5 65.5t-30.5 219.5l125 710h-180l12 74q127 43 180 111.5t53 181.5q0 92 -68.5 166
t-199.5 74q-139 0 -230 -99.5t-91 -238.5q0 -74 24.5 -127.5t54 -78t53 -62t21.5 -83.5q0 -45 -29.5 -74.5t-76.5 -31.5q-47 0 -70 23.5t-32 57.5t-23.5 67.5t-63.5 57t-135 23.5q-109 0 -186.5 -46t-85.5 -120q-2 -27 5 -49t30.5 -40.5t41 -30t58.5 -23.5t56.5 -16
t62.5 -14.5t51 -10.5q90 -18 146.5 -35.5t120 -55.5t90 -101.5t16.5 -153.5q-12 -133 -149.5 -236.5t-391.5 -103.5z" />
    <glyph glyph-name="glyph422" horiz-adv-x="0" 
 />
    <glyph glyph-name="glyph423" horiz-adv-x="368" 
 />
    <glyph glyph-name="glyph424" horiz-adv-x="692" 
d="M995 -424q-127 0 -232.5 44t-178 105.5t-144 124t-165 106.5t-201.5 44l2 57q104 23 129 142l182 1034q10 59 -12.5 95t-65.5 48l19 58h442l-2 -58q-106 -29 -127 -143l-203 -1149q74 -33 145.5 -103.5t118 -133t118 -111.5t153.5 -49q68 0 108.5 36.5t56 79.5t52.5 80
t96 37q51 0 80 -28.5t29 -77.5q0 -104 -112 -171t-288 -67z" />
    <glyph glyph-name="glyph425" horiz-adv-x="2052" 
d="M2241 1434l-13 -13l-2 -45q-47 -10 -83 -47t-44 -94l-182 -1034q-12 -59 11.5 -96t66.5 -48l-19 -57h-444l2 57q104 23 129 144l6 37q-14 145 -114.5 277t-247.5 214q-254 -391 -256 -393q-131 -195 -246 -288t-291 -93q-150 0 -234.5 52t-84.5 134q0 49 31.5 84t84.5 35
q43 0 71 -19.5t41 -46t27.5 -54t42 -47t70.5 -19.5q113 0 194 75.5t197 249.5q45 66 135.5 201t114.5 174q-98 35 -188 35q-125 0 -192.5 -38t-67.5 -91q0 -25 19.5 -65t19.5 -72q0 -55 -38 -93t-98 -38q-61 0 -101 46t-40 113q0 147 142.5 248t355.5 101q123 0 254 -48
q41 61 61 91q55 76 104.5 135t106.5 116.5t112.5 95.5t123 71.5t136 46t153 18.5t174.5 -12zM1710 537h12l136 774q-74 -27 -136.5 -70t-120 -106.5t-93 -109.5t-91.5 -128q-4 -6 -19.5 -29.5t-25.5 -36.5q238 -116 338 -294z" />
    <glyph glyph-name="glyph426" horiz-adv-x="2045" 
d="M2116 1702l-277 -180l-51 51l227 248q66 61 117 61q37 0 55.5 -23.5t12.5 -54.5q-8 -57 -84 -102zM2241 1434l-13 -13l-2 -45q-47 -10 -83 -47t-44 -94l-182 -1034q-12 -59 11.5 -96t66.5 -48l-19 -57h-444l2 57q104 23 129 144l6 37q-14 145 -114.5 277t-247.5 214
q-254 -391 -256 -393q-131 -195 -246 -288t-291 -93q-150 0 -234.5 52t-84.5 134q0 49 31.5 84t84.5 35q43 0 71 -19.5t41 -46t27.5 -54t42 -47t70.5 -19.5q113 0 194 75.5t197 249.5q45 66 135.5 201t114.5 174q-98 35 -188 35q-125 0 -192.5 -38t-67.5 -91q0 -25 19.5 -65
t19.5 -72q0 -55 -38 -93t-98 -38q-61 0 -101 46t-40 113q0 147 142.5 248t355.5 101q123 0 254 -48q41 61 61 91q55 76 104.5 135t106.5 116.5t112.5 95.5t123 71.5t136 46t153 18.5t174.5 -12zM1710 537h12l136 774q-74 -27 -136.5 -70t-120 -106.5t-93 -109.5t-91.5 -128
q-4 -6 -19.5 -29.5t-25.5 -36.5q238 -116 338 -294z" />
    <glyph glyph-name="glyph427" horiz-adv-x="2050" 
d="M1970 1585q-115 0 -179.5 58.5t-80.5 144.5l86 41q12 -47 66.5 -82t126.5 -35q74 0 140 34t93 81l76 -39q-47 -88 -130 -145.5t-198 -57.5zM1331 963q55 76 104.5 135t106.5 116.5t112.5 95.5t123 71.5t136 46t152.5 18.5t175 -12l-13 -13l-2 -45q-47 -10 -83 -47
t-44 -94l-182 -1034q-12 -59 11.5 -96t66.5 -48l-19 -57h-444l2 57q104 23 129 144l6 37q-14 145 -114.5 277t-247.5 214q-254 -391 -256 -393q-131 -195 -246 -288t-291 -93q-150 0 -234.5 52t-84.5 134q0 49 31.5 84t84.5 35q43 0 71 -19.5t41 -46t27.5 -54t42 -47
t70.5 -19.5q113 0 194 75.5t197 249.5q45 66 135.5 201t114.5 174q-98 35 -188 35q-125 0 -192.5 -38t-67.5 -91q0 -25 19.5 -65t19.5 -72q0 -55 -38 -93t-98 -38q-61 0 -101 46t-40 113q0 147 142.5 248t355.5 101q123 0 254 -48q41 62 61 91zM1710 537h12l136 774
q-74 -27 -136.5 -70t-120 -106.5t-93 -109.5t-91.5 -128q-4 -6 -19.5 -29.5t-25.5 -36.5q238 -116 338 -294z" />
    <glyph glyph-name="glyph428" horiz-adv-x="2045" 
d="M1966 1649l-303 -138l-35 66l371 268l282 -268l-55 -66zM1331 963q55 76 104.5 135t106.5 116.5t112.5 95.5t123 71.5t136 46t152.5 18.5t175 -12l-13 -13l-2 -45q-47 -10 -83 -47t-44 -94l-182 -1034q-12 -59 11.5 -96t66.5 -48l-19 -57h-444l2 57q104 23 129 144l6 37
q-14 145 -114.5 277t-247.5 214q-254 -391 -256 -393q-131 -195 -246 -288t-291 -93q-150 0 -234.5 52t-84.5 134q0 49 31.5 84t84.5 35q43 0 71 -19.5t41 -46t27.5 -54t42 -47t70.5 -19.5q113 0 194 75.5t197 249.5q45 66 135.5 201t114.5 174q-98 35 -188 35
q-125 0 -192.5 -38t-67.5 -91q0 -25 19.5 -65t19.5 -72q0 -55 -38 -93t-98 -38q-61 0 -101 46t-40 113q0 147 142.5 248t355.5 101q123 0 254 -48q41 62 61 91zM1710 537h12l136 774q-74 -27 -136.5 -70t-120 -106.5t-93 -109.5t-91.5 -128q-4 -6 -19.5 -29.5t-25.5 -36.5
q238 -116 338 -294z" />
    <glyph glyph-name="glyph429" horiz-adv-x="2043" 
d="M1708 1612q-57 0 -87 35.5t-22 85.5q12 51 54.5 88t99.5 37t87 -37t20 -88q-10 -49 -52.5 -85t-99.5 -36zM2080.5 1612q-57.5 0 -87 35.5t-21.5 85.5q12 51 53 88t98.5 37t88.5 -37t20 -88q-10 -49 -52 -85t-99.5 -36zM2241 1434l-13 -13l-2 -45q-47 -10 -83 -47t-44 -94
l-182 -1034q-12 -59 11.5 -96t66.5 -48l-19 -57h-444l2 57q104 23 129 144l6 37q-14 145 -114.5 277t-247.5 214q-254 -391 -256 -393q-131 -195 -246 -288t-291 -93q-150 0 -234.5 52t-84.5 134q0 49 31.5 84t84.5 35q43 0 71 -19.5t41 -46t27.5 -54t42 -47t70.5 -19.5
q113 0 194 75.5t197 249.5q45 66 135.5 201t114.5 174q-98 35 -188 35q-125 0 -192.5 -38t-67.5 -91q0 -25 19.5 -65t19.5 -72q0 -55 -38 -93t-98 -38q-61 0 -101 46t-40 113q0 147 142.5 248t355.5 101q123 0 254 -48q41 61 61 91q55 76 104.5 135t106.5 116.5t112.5 95.5
t123 71.5t136 46t153 18.5t174.5 -12zM1710 537h12l136 774q-74 -27 -136.5 -70t-120 -106.5t-93 -109.5t-91.5 -128q-4 -6 -19.5 -29.5t-25.5 -36.5q238 -116 338 -294z" />
    <glyph glyph-name="glyph430" horiz-adv-x="2050" 
d="M1708 1702q-55 47 -47 102q6 33 33.5 55.5t62.5 22.5q55 0 94 -61l136 -248l-70 -51zM2241 1434l-13 -13l-2 -45q-47 -10 -83 -47t-44 -94l-182 -1034q-12 -59 11.5 -96t66.5 -48l-19 -57h-444l2 57q104 23 129 144l6 37q-14 145 -114.5 277t-247.5 214
q-254 -391 -256 -393q-131 -195 -246 -288t-291 -93q-150 0 -234.5 52t-84.5 134q0 49 31.5 84t84.5 35q43 0 71 -19.5t41 -46t27.5 -54t42 -47t70.5 -19.5q113 0 194 75.5t197 249.5q45 66 135.5 201t114.5 174q-98 35 -188 35q-125 0 -192.5 -38t-67.5 -91q0 -25 19.5 -65
t19.5 -72q0 -55 -38 -93t-98 -38q-61 0 -101 46t-40 113q0 147 142.5 248t355.5 101q123 0 254 -48q41 61 61 91q55 76 104.5 135t106.5 116.5t112.5 95.5t123 71.5t136 46t153 18.5t174.5 -12zM1710 537h12l136 774q-74 -27 -136.5 -70t-120 -106.5t-93 -109.5t-91.5 -128
q-4 -6 -19.5 -29.5t-25.5 -36.5q238 -116 338 -294z" />
    <glyph glyph-name="glyph431" horiz-adv-x="2035" 
d="M1708 1774h569l-24 -125h-567zM1331 963q55 76 104.5 135t106.5 116.5t112.5 95.5t123 71.5t136 46t152.5 18.5t175 -12l-13 -13l-2 -45q-47 -10 -83 -47t-44 -94l-182 -1034q-12 -59 11.5 -96t66.5 -48l-19 -57h-444l2 57q104 23 129 144l6 37q-14 145 -114.5 277
t-247.5 214q-254 -391 -256 -393q-131 -195 -246 -288t-291 -93q-150 0 -234.5 52t-84.5 134q0 49 31.5 84t84.5 35q43 0 71 -19.5t41 -46t27.5 -54t42 -47t70.5 -19.5q113 0 194 75.5t197 249.5q45 66 135.5 201t114.5 174q-98 35 -188 35q-125 0 -192.5 -38t-67.5 -91
q0 -25 19.5 -65t19.5 -72q0 -55 -38 -93t-98 -38q-61 0 -101 46t-40 113q0 147 142.5 248t355.5 101q123 0 254 -48q41 62 61 91zM1710 537h12l136 774q-74 -27 -136.5 -70t-120 -106.5t-93 -109.5t-91.5 -128q-4 -6 -19.5 -29.5t-25.5 -36.5q238 -116 338 -294z" />
    <glyph glyph-name="glyph432" horiz-adv-x="2043" 
d="M2241 1434l-13 -13l-2 -45q-47 -10 -83 -47t-44 -94l-182 -1034q-12 -59 11.5 -96t66.5 -48l-19 -57h-92q-72 -35 -118 -90t-54 -117q-8 -53 22.5 -89t80.5 -36q90 0 155 90l70 -37q-113 -162 -291 -161q-104 0 -161.5 56t-43.5 148q23 139 174 236h-186l2 57
q104 23 129 144l6 37q-14 145 -114.5 277t-247.5 214q-254 -391 -256 -393q-131 -195 -246 -288t-291 -93q-150 0 -234.5 52t-84.5 134q0 49 31.5 84t84.5 35q43 0 71 -19.5t41 -46t27.5 -54t42 -47t70.5 -19.5q113 0 194 75.5t197 249.5q45 66 135.5 201t114.5 174
q-98 35 -188 35q-125 0 -192.5 -38t-67.5 -91q0 -25 19.5 -65t19.5 -72q0 -55 -38 -93t-98 -38q-61 0 -101 46t-40 113q0 147 142.5 248t355.5 101q123 0 254 -48q41 61 61 91q55 76 104.5 135t106.5 116.5t112.5 95.5t123 71.5t136 46t153 18.5t174.5 -12zM1710 537h12
l136 774q-74 -27 -136.5 -70t-120 -106.5t-93 -109.5t-91.5 -128q-4 -6 -19.5 -29.5t-25.5 -36.5q238 -116 338 -294z" />
    <glyph glyph-name="glyph433" horiz-adv-x="2041" 
d="M1917 1538q-92 0 -145.5 63.5t-38.5 151.5q14 90 87.5 153.5t166.5 63.5q88 0 142 -63.5t40 -153.5q-14 -88 -89 -151.5t-163 -63.5zM1839 1753q-8 -49 18.5 -82t75.5 -33q47 0 86 34t47.5 81t-20.5 81t-76 34q-49 0 -86 -33t-45 -82zM2241 1434l-13 -13l-2 -45
q-47 -10 -83 -47t-44 -94l-182 -1034q-12 -59 11.5 -96t66.5 -48l-19 -57h-444l2 57q104 23 129 144l6 37q-14 145 -114.5 277t-247.5 214q-254 -391 -256 -393q-131 -195 -246 -288t-291 -93q-150 0 -234.5 52t-84.5 134q0 49 31.5 84t84.5 35q43 0 71 -19.5t41 -46
t27.5 -54t42 -47t70.5 -19.5q113 0 194 75.5t197 249.5q45 66 135.5 201t114.5 174q-98 35 -188 35q-125 0 -192.5 -38t-67.5 -91q0 -25 19.5 -65t19.5 -72q0 -55 -38 -93t-98 -38q-61 0 -101 46t-40 113q0 147 142.5 248t355.5 101q123 0 254 -48q41 61 61 91
q55 76 104.5 135t106.5 116.5t112.5 95.5t123 71.5t136 46t153 18.5t174.5 -12zM1710 537h12l136 774q-74 -27 -136.5 -70t-120 -106.5t-93 -109.5t-91.5 -128q-4 -6 -19.5 -29.5t-25.5 -36.5q238 -116 338 -294z" />
    <glyph glyph-name="glyph434" horiz-adv-x="2041" 
d="M2284 2224q35 0 53 -23.5t12 -54.5q-8 -55 -82 -102l-127 -84q63 -20 97 -77.5t24 -129.5q-14 -88 -89 -151.5t-163 -63.5q-92 0 -145.5 63.5t-38.5 151.5q18 121 135 186l207 222q60 63 117 63zM2156.5 1753q8.5 47 -19.5 81t-75 34q-49 0 -87 -34t-46 -81t19.5 -81
t75 -34t86 34t47 81zM1331 963q55 76 104.5 135t106.5 116.5t112.5 95.5t123 71.5t136 46t152.5 18.5t175 -12l-13 -13l-2 -45q-47 -10 -83 -47t-44 -94l-182 -1034q-12 -59 11.5 -96t66.5 -48l-19 -57h-444l2 57q104 23 129 144l6 37q-14 145 -114.5 277t-247.5 214
q-254 -391 -256 -393q-131 -195 -246 -288t-291 -93q-150 0 -234.5 52t-84.5 134q0 49 31.5 84t84.5 35q43 0 71 -19.5t41 -46t27.5 -54t42 -47t70.5 -19.5q113 0 194 75.5t197 249.5q45 66 135.5 201t114.5 174q-98 35 -188 35q-125 0 -192.5 -38t-67.5 -91q0 -25 19.5 -65
t19.5 -72q0 -55 -38 -93t-98 -38q-61 0 -101 46t-40 113q0 147 142.5 248t355.5 101q123 0 254 -48q41 62 61 91zM1710 537h12l136 774q-74 -27 -136.5 -70t-120 -106.5t-93 -109.5t-91.5 -128q-4 -6 -19.5 -29.5t-25.5 -36.5q238 -116 338 -294z" />
    <glyph glyph-name="glyph435" horiz-adv-x="2070" 
d="M1751 1735q-63 0 -94 -86l-74 22q29 104 86 152.5t127 48.5q59 0 136 -55.5t114 -55.5q63 0 96 84l70 -20q-57 -203 -213 -203q-59 0 -135 56.5t-113 56.5zM2241 1434l-13 -13l-2 -45q-47 -10 -83 -47t-44 -94l-182 -1034q-12 -59 11.5 -96t66.5 -48l-19 -57h-444l2 57
q104 23 129 144l6 37q-14 145 -114.5 277t-247.5 214q-254 -391 -256 -393q-131 -195 -246 -288t-291 -93q-150 0 -234.5 52t-84.5 134q0 49 31.5 84t84.5 35q43 0 71 -19.5t41 -46t27.5 -54t42 -47t70.5 -19.5q113 0 194 75.5t197 249.5q45 66 135.5 201t114.5 174
q-98 35 -188 35q-125 0 -192.5 -38t-67.5 -91q0 -25 19.5 -65t19.5 -72q0 -55 -38 -93t-98 -38q-61 0 -101 46t-40 113q0 147 142.5 248t355.5 101q123 0 254 -48q41 61 61 91q55 76 104.5 135t106.5 116.5t112.5 95.5t123 71.5t136 46t153 18.5t174.5 -12zM1710 537h12
l136 774q-74 -27 -136.5 -70t-120 -106.5t-93 -109.5t-91.5 -128q-4 -6 -19.5 -29.5t-25.5 -36.5q238 -116 338 -294z" />
    <glyph glyph-name="glyph436" horiz-adv-x="1902" 
d="M1923 1085q-18 -106 -99 -188t-204 -123l-2 -10q145 -43 219 -142.5t51 -234.5q-35 -190 -191.5 -303t-402.5 -113q-119 0 -285.5 14.5t-265.5 14.5h-196v57q47 10 83 47t46 95l182 1034q10 59 -16 100q-201 33 -271 33q-84 0 -132 -29.5t-48 -83.5q0 -31 32 -75.5
t32 -85.5q0 -49 -34 -81t-87 -32q-59 0 -99 49t-40 113q2 139 106.5 234t312.5 95q86 0 268.5 -18t350.5 -18h283q209 0 320.5 -99.5t86.5 -249.5zM1407 1323q-166 0 -281 -14l-86 -488h297q129 0 220.5 73t109.5 179q18 109 -49.5 179.5t-210.5 70.5zM1636 406
q25 137 -62 221t-241 84h-313l-100 -572q27 -4 94 -17t118.5 -19.5t104.5 -6.5q172 0 274 85.5t125 224.5z" />
    <glyph glyph-name="glyph437" horiz-adv-x="1939" 
d="M1341 88q86 0 168 39t144.5 103.5t106.5 126t79 128.5l70 -22q-82 -219 -248 -360.5t-414 -141.5q-154 0 -273.5 61.5t-186 167t-94 243.5t2.5 292q53 301 254 504q-188 131 -340 131q-102 0 -163.5 -47t-61.5 -121q0 -29 32 -72t32 -76q0 -49 -34 -80.5t-87 -31.5
q-61 0 -97 53t-36 131q0 152 117.5 250t299.5 98q211 0 430 -155q215 162 488 161q205 0 310.5 -79.5t105.5 -219.5q0 -121 -95.5 -198.5t-232.5 -77.5q-141 0 -258 56.5t-252 158.5q-115 -154 -147 -350q-57 -330 54 -501t326 -171zM1550 1362q-197 0 -364 -164
q125 -98 221 -148.5t211 -50.5q96 0 152.5 49.5t56.5 118.5q-1 195 -277 195z" />
    <glyph glyph-name="glyph438" horiz-adv-x="1708" 
d="M1393 1702l-277 -180l-51 51l227 248q61 61 117 61q35 0 53.5 -22.5t14.5 -55.5q-10 -55 -84 -102zM1104 88q86 0 168 39t144.5 103.5t106.5 126t79 128.5l69 -22q-80 -219 -247 -360.5t-414 -141.5q-303 0 -455 223.5t-96 540.5q53 301 254 504q-188 131 -340 131
q-102 0 -164 -47t-62 -121q0 -29 32 -72t32 -76q0 -49 -34 -80.5t-85 -31.5q-61 0 -98 53t-37 131q0 152 118 250t300 98q211 0 430 -155q213 162 487 161q205 0 310.5 -79.5t105.5 -219.5q0 -123 -95 -199.5t-233 -76.5q-141 0 -257.5 56.5t-252.5 158.5
q-115 -154 -147 -350q-57 -330 54.5 -501t326.5 -171zM1313 1362q-197 0 -365 -164q84 -66 137.5 -100.5t135.5 -66.5t159 -32q96 0 153.5 49.5t57.5 118.5q1 195 -278 195z" />
    <glyph glyph-name="glyph439" horiz-adv-x="1939" 
d="M1839 1792l-369 -268l-284 268l55 66l260 -136l303 136zM1341 88q86 0 168 39t144.5 103.5t106.5 126t79 128.5l70 -22q-82 -219 -248 -360.5t-414 -141.5q-154 0 -273.5 61.5t-186 167t-94 243.5t2.5 292q53 301 254 504q-188 131 -340 131q-102 0 -163.5 -47
t-61.5 -121q0 -29 32 -72t32 -76q0 -49 -34 -80.5t-87 -31.5q-61 0 -97 53t-36 131q0 152 117.5 250t299.5 98q211 0 430 -155q215 162 488 161q205 0 310.5 -79.5t105.5 -219.5q0 -121 -95.5 -198.5t-232.5 -77.5q-141 0 -258 56.5t-252 158.5q-115 -154 -147 -350
q-57 -330 54 -501t326 -171zM1550 1362q-197 0 -364 -164q125 -98 221 -148.5t211 -50.5q96 0 152.5 49.5t56.5 118.5q-1 195 -277 195z" />
    <glyph glyph-name="glyph440" horiz-adv-x="1939" 
d="M1341 88q86 0 168 39t144.5 103.5t106.5 126t79 128.5l70 -22q-74 -201 -221.5 -338t-362.5 -160l-63 -100q31 10 61 10q76 0 117 -37t26 -104q-14 -84 -106 -146.5t-223 -62.5q-102 0 -163 40t-50 93q4 29 27.5 49.5t52.5 20.5q35 0 51 -19.5t19 -44t24.5 -44
t64.5 -19.5q59 0 97 28.5t49 73.5q6 33 -12.5 53.5t-57.5 20.5q-49 0 -86 -31l-53 27l117 188q-291 14 -432.5 234.5t-88.5 529.5q53 301 254 504q-188 131 -340 131q-102 0 -163.5 -47t-61.5 -121q0 -29 32 -72t32 -76q0 -49 -34 -80.5t-87 -31.5q-61 0 -97 53t-36 131
q0 152 117.5 250t299.5 98q211 0 430 -155q215 162 488 161q205 0 310.5 -79.5t105.5 -219.5q0 -121 -95.5 -198.5t-232.5 -77.5q-141 0 -258 56.5t-252 158.5q-115 -154 -147 -350q-57 -330 54 -501t326 -171zM1550 1362q-197 0 -364 -164q125 -98 221 -148.5t211 -50.5
q96 0 152.5 49.5t56.5 118.5q-1 195 -277 195z" />
    <glyph glyph-name="glyph441" horiz-adv-x="1939" 
d="M1485 1649l-303 -138l-35 66l369 268l282 -268l-53 -66zM1341 88q86 0 168 39t144.5 103.5t106.5 126t79 128.5l70 -22q-82 -219 -248 -360.5t-414 -141.5q-154 0 -273.5 61.5t-186 167t-94 243.5t2.5 292q53 301 254 504q-188 131 -340 131q-102 0 -163.5 -47
t-61.5 -121q0 -29 32 -72t32 -76q0 -49 -34 -80.5t-87 -31.5q-61 0 -97 53t-36 131q0 152 117.5 250t299.5 98q211 0 430 -155q215 162 488 161q205 0 310.5 -79.5t105.5 -219.5q0 -121 -95.5 -198.5t-232.5 -77.5q-141 0 -258 56.5t-252 158.5q-115 -154 -147 -350
q-57 -330 54 -501t326 -171zM1550 1362q-197 0 -364 -164q125 -98 221 -148.5t211 -50.5q96 0 152.5 49.5t56.5 118.5q-1 195 -277 195z" />
    <glyph glyph-name="glyph442" horiz-adv-x="1939" 
d="M1468 1630q-57 0 -86.5 36t-21.5 85q8 51 49 88t98.5 37t88 -37t22.5 -88q-8 -49 -49.5 -85t-100.5 -36zM1341 88q86 0 168 39t144.5 103.5t106.5 126t79 128.5l70 -22q-82 -219 -248 -360.5t-414 -141.5q-154 0 -273.5 61.5t-186 167t-94 243.5t2.5 292q53 301 254 504
q-188 131 -340 131q-102 0 -163.5 -47t-61.5 -121q0 -29 32 -72t32 -76q0 -49 -34 -80.5t-87 -31.5q-61 0 -97 53t-36 131q0 152 117.5 250t299.5 98q211 0 430 -155q215 162 488 161q205 0 310.5 -79.5t105.5 -219.5q0 -121 -95.5 -198.5t-232.5 -77.5q-141 0 -258 56.5
t-252 158.5q-115 -154 -147 -350q-57 -330 54 -501t326 -171zM1550 1362q-197 0 -364 -164q125 -98 221 -148.5t211 -50.5q96 0 152.5 49.5t56.5 118.5q-1 195 -277 195z" />
    <glyph glyph-name="glyph443" horiz-adv-x="1968" 
d="M1362 1434q326 0 508 -213t127 -533q-59 -326 -282.5 -507t-532.5 -181h-635l2 57q45 10 82 47t47 97l196 1126q-233 39 -303 39q-84 0 -132 -29.5t-48 -83.5q0 -31 32 -75.5t32 -85.5q0 -49 -34 -81t-87 -32q-59 0 -99 49t-38 113q0 139 104.5 234t312.5 95
q86 0 268.5 -17t350.5 -17l-2 -2h131zM1735 639q49 293 -66 489.5t-375 196.5q-66 0 -164 -8l-4 -6l-206 -1170q119 -29 264 -28q223 0 367.5 154.5t183.5 371.5z" />
    <glyph glyph-name="glyph444" horiz-adv-x="1953" 
d="M1716 1792l-368 -268l-285 268l55 66l260 -136l303 136zM1348 1434q324 0 507 -213t125 -533q-57 -326 -280 -507t-533 -181h-620l2 57q45 10 82 47t47 97l196 1126q-233 39 -303 39q-84 0 -132 -29.5t-48 -83.5q0 -31 32 -75.5t32 -85.5q0 -49 -34 -81t-87 -32
q-59 0 -99 49t-38 113q0 139 104.5 234t312.5 95q86 0 268.5 -17t350.5 -17l-2 -2h117zM1718 639q51 293 -63.5 489.5t-376.5 196.5q-82 0 -145 -6l-7 -8l-206 -1172q119 -27 249 -26q223 0 367.5 154.5t181.5 371.5z" />
    <glyph glyph-name="glyph445" horiz-adv-x="1953" 
d="M1341 1434q326 0 509.5 -213t129.5 -533q-53 -326 -276 -507t-533 -181h-624l2 57q45 10 82 47t47 97l80 454h-264l18 123h266l96 549q-233 39 -303 39q-84 0 -132 -29.5t-48 -83.5q0 -31 32 -75.5t32 -85.5q0 -49 -34 -81t-87 -32q-59 0 -99 49t-38 113q0 139 104.5 234
t312.5 95q86 0 268.5 -17t350.5 -17l-2 -2h110zM1720 641q49 291 -67.5 487.5t-378.5 196.5q-78 0 -141 -6l-7 -8l-94 -533h240l-19 -121h-243l-90 -518q121 -27 251 -26q223 0 366.5 154.5t182.5 373.5z" />
    <glyph glyph-name="glyph446" horiz-adv-x="1826" 
d="M1581 961q-139 0 -251.5 48t-237.5 134q-16 -45 -17 -92q0 -104 75 -176t210 -72h119l-27 -111h-184q-182 0 -288 -93t-106 -234q0 -137 99.5 -218t286.5 -81q164 0 298 94t207 250l95 -35q-98 -203 -252 -308.5t-389 -105.5q-260 0 -438.5 103.5t-178.5 289.5
q0 162 109.5 269.5t318.5 134.5v10q-199 70 -199 281q0 123 80 219q-158 96 -301 96q-102 0 -162.5 -46t-60.5 -120q0 -29 29.5 -72t29.5 -75q0 -49 -32.5 -81t-85.5 -32q-61 0 -97 53t-36 131q0 150 118.5 249t298.5 99q201 0 396 -120q186 121 473 120q225 0 335.5 -70.5
t110.5 -185.5q0 -119 -101.5 -186t-244.5 -67zM1503 1368q-94 0 -187 -32.5t-157 -92.5q82 -59 131 -90t130 -59.5t161 -28.5q102 0 163.5 39t61.5 104q0 160 -303 160z" />
    <glyph glyph-name="glyph447" horiz-adv-x="1826" 
d="M1384 1585q-115 0 -179 58.5t-81 144.5l86 41q14 -47 68.5 -82t126.5 -35t139.5 35t93.5 80l74 -39q-109 -203 -328 -203zM1581 961q-139 0 -251.5 48t-237.5 134q-16 -45 -17 -92q0 -104 75 -176t210 -72h119l-27 -111h-184q-182 0 -288 -93t-106 -234q0 -137 99.5 -218
t286.5 -81q164 0 298 94t207 250l95 -35q-98 -203 -252 -308.5t-389 -105.5q-260 0 -438.5 103.5t-178.5 289.5q0 162 109.5 269.5t318.5 134.5v10q-199 70 -199 281q0 123 80 219q-158 96 -301 96q-102 0 -162.5 -46t-60.5 -120q0 -29 29.5 -72t29.5 -75q0 -49 -32.5 -81
t-85.5 -32q-61 0 -97 53t-36 131q0 150 118.5 249t298.5 99q201 0 396 -120q186 121 473 120q225 0 335.5 -70.5t110.5 -185.5q0 -119 -101.5 -186t-244.5 -67zM1503 1368q-94 0 -187 -32.5t-157 -92.5q82 -59 131 -90t130 -59.5t161 -28.5q102 0 163.5 39t61.5 104
q0 160 -303 160z" />
    </font>
</defs>
</svg>
