<?xml version="1.0" standalone="no"?>
<!DOCTYPE svg PUBLIC "-//W3C//DTD SVG 1.1//EN" "http://www.w3.org/Graphics/SVG/1.1/DTD/svg11.dtd" >
<svg xmlns="http://www.w3.org/2000/svg" xmlns:xlink="http://www.w3.org/1999/xlink" version="1.1">
<metadata>
Created by FontForge 20170731 at Wed Apr 17 11:03:24 2019
 By Aleksey,,,
Copyright (c) 2019 by Studio Sun. All rights reserved. Desktop use is strictly prohibited.
</metadata>
<defs>
<font id="Tropiline-Regular" horiz-adv-x="481" >
  <font-face 
    font-family="Tropiline"
    font-weight="400"
    font-stretch="normal"
    units-per-em="2048"
    panose-1="0 0 0 0 0 0 0 0 0 0"
    ascent="1536"
    descent="-512"
    x-height="1069"
    cap-height="1434"
    bbox="-567 -1163 2722 2232"
    underline-thickness="0"
    underline-position="0"
    unicode-range="U+0020-FB00"
  />
<missing-glyph horiz-adv-x="1370" 
d="M217 0v1434h936v-1434h-936zM354 117h664v1200h-664v-1200z" />
    <glyph glyph-name="uniFB00" unicode="ff" horiz-adv-x="1286" 
d="M920 1364q0 -57 49 -158.5t57 -136.5h281v-88h-271v-813q0 -51 30 -83t71 -40l-4 -45h-363l-4 45q43 8 72.5 40t29.5 83v813h-442v-813q0 -51 29.5 -83t70.5 -40l-4 -45h-362l-4 45q43 8 72.5 40t29.5 83v813h-203v88h199q-4 27 -34 119t-30 158q0 100 71 170.5t183 70.5
q106 0 181 -54t75 -132q0 -90 -77 -90q-41 0 -64.5 28.5t-31 63.5t-33 63.5t-72.5 28.5q-53 0 -83 -35t-30 -96q0 -57 49.5 -158.5t57.5 -136.5h448q-4 27 -33.5 119t-29.5 158q0 100 70.5 170.5t183.5 70.5q106 0 181 -54t75 -132q0 -90 -78 -90q-41 0 -64.5 28.5t-31 63.5
t-33 63.5t-72.5 28.5q-53 0 -82.5 -35t-29.5 -96z" />
    <glyph glyph-name="T_h.liga" unicode="Th" horiz-adv-x="2349" 
d="M2214 170q8 -102 110 -123l-4 -47h-364l-4 47q41 8 68.5 39t23.5 84l-35 512q-8 162 -82 248t-190 86q-121 0 -208 -81t-87 -200v-565q0 -102 100 -123l-4 -47h-364l-5 47q102 20 103 123v1231q-168 -61 -371 -62q-35 0 -96 4v-1173q0 -53 29.5 -84t70.5 -39l-4 -47h-383
l-4 47q100 20 100 123v1210q-176 45 -256 45q-182 0 -182 -114q0 -29 26.5 -71t26.5 -75q0 -43 -26.5 -67.5t-69.5 -24.5q-53 0 -86 42t-33 99q2 121 96.5 208t268.5 87q111 0 308.5 -32.5t303.5 -32.5q307 0 463 119l23 -11q-35 -111 -35 -362v-252h8q111 170 315 170
q180 0 291 -113.5t125 -337.5z" />
    <glyph glyph-name="f_t.liga" unicode="ft" horiz-adv-x="1286" 
d="M1237 981h-289v-754q0 -164 135 -164q61 0 131 25l23 -78q-98 -47 -211 -47q-119 0 -183.5 61.5t-64.5 208.5v748h-352v-813q0 -51 29.5 -83t70.5 -40l-4 -45h-362l-4 45q43 8 72.5 40t29.5 83v813h-203v88h199q-4 27 -34 119t-30 158q0 100 71 170.5t183 70.5
q106 0 181 -54t75 -132q0 -90 -77 -90q-41 0 -64.5 28.5t-31 63.5t-33 63.5t-72.5 28.5q-53 0 -83 -35t-30 -96q0 -57 49.5 -158.5t57.5 -136.5h272q88 43 132 111.5t71 193.5h57v-305h289v-88z" />
    <glyph glyph-name=".notdef" horiz-adv-x="1370" 
d="M217 0v1434h936v-1434h-936zM354 117h664v1200h-664v-1200z" />
    <glyph glyph-name="glyph1" horiz-adv-x="0" 
 />
    <glyph glyph-name="glyph2" horiz-adv-x="681" 
 />
    <glyph glyph-name="space" unicode=" " horiz-adv-x="577" 
 />
    <glyph glyph-name="exclam" unicode="!" horiz-adv-x="542" 
d="M223 375q-4 315 -41 571t-37 346q-2 178 127 178t129 -178q0 -88 -38.5 -345t-40.5 -572h-99zM270.5 -37q-55.5 0 -94.5 37t-39 98q0 57 39 93t94.5 36t94 -35.5t38.5 -93.5q0 -61 -38.5 -98t-94 -37z" />
    <glyph glyph-name="quotedbl" unicode="&#x22;" horiz-adv-x="839" 
d="M205 950q-10 111 -39 239t-29 167q0 51 30 82.5t75 31.5q43 0 73.5 -31.5t30.5 -80.5q0 -43 -27.5 -172t-39.5 -236h-74zM561 950q-12 109 -39.5 237t-27.5 169q0 51 29.5 82.5t74.5 31.5q43 0 73.5 -31.5t30.5 -80.5q0 -41 -28.5 -170t-38.5 -238h-74z" />
    <glyph glyph-name="numbersign" unicode="#" horiz-adv-x="1196" 
d="M129 0l123 422h-232v74h256l132 442h-271v78h293l125 418h96l-125 -418h320l125 418h96l-127 -418h234v-78h-256l-132 -442h273v-74h-297l-123 -422h-94l123 422h-320l-123 -422h-96zM373 496h317l131 442h-319z" />
    <glyph glyph-name="dollar" unicode="$" horiz-adv-x="1232" 
d="M1141 385q0 -180 -124 -291.5t-339 -128.5v-258h-113v258q-219 10 -355 103.5t-136 201.5q0 41 25.5 68t68.5 27t69.5 -33t47 -80t51.5 -93t102.5 -79t182.5 -33q156 0 255 79t97 204q0 215 -391 317q-465 117 -465 447q0 152 124 255t324 119v242h113v-242
q170 -10 286.5 -86.5t116.5 -169.5q0 -37 -21.5 -60.5t-53.5 -23.5q-35 0 -56.5 27t-40 64.5t-47 74.5t-92 63.5t-158.5 26.5q-137 0 -228 -74.5t-91 -174.5q0 -203 358 -297q242 -61 366 -168t124 -285z" />
    <glyph glyph-name="percent" unicode="%" horiz-adv-x="1705" 
d="M440 705q-162 0 -268 113.5t-106 271.5q0 166 100 273t266 107q158 0 262.5 -111.5t104.5 -273.5q0 -160 -99.5 -270t-259.5 -110zM463 0l674 1434h108l-676 -1434h-106zM438 784q92 0 148.5 85t56.5 212q0 131 -59.5 217t-151.5 86q-96 0 -152.5 -82.5t-56.5 -216.5
q0 -125 60.5 -213t154.5 -88zM1280 -37q-162 0 -268.5 112.5t-106.5 270.5q0 166 100.5 273.5t266.5 107.5q158 0 263 -111.5t105 -273.5q0 -160 -100 -269.5t-260 -109.5zM1278 41q92 0 148.5 86t56.5 211q0 131 -59.5 217t-151.5 86q-96 0 -152.5 -83t-56.5 -214
q0 -125 60.5 -214t154.5 -89z" />
    <glyph glyph-name="ampersand" unicode="&#x26;" horiz-adv-x="1773" 
d="M1573 496q78 0 117 -64.5t39 -146.5q0 -156 -89.5 -239t-224.5 -83q-188 0 -319 170q-207 -170 -488 -170q-238 0 -389 131t-151 324q0 170 110.5 293t263.5 170v10q-80 41 -126 111.5t-46 154.5q0 139 99.5 226t267.5 87q160 0 263.5 -91t103.5 -226q0 -104 -62.5 -182
t-171.5 -109v-14q55 -18 105.5 -56t83 -77t70.5 -104.5t57.5 -105.5t52.5 -116q10 -25 16 -37q102 172 102 389q0 115 -131 142l4 45h357l4 -45q-49 -10 -87 -48t-38 -104q0 -279 -162 -485q51 -96 104.5 -146.5t127.5 -50.5q61 0 108 41t47 105q0 45 -18.5 74.5t-41 42
t-40.5 37t-18 59.5q0 37 28.5 62.5t71.5 25.5zM637 1384q-96 0 -153.5 -65.5t-57.5 -167.5q0 -96 61.5 -166t153.5 -70t148.5 68t56.5 166q0 100 -59.5 167.5t-149.5 67.5zM662 63q219 0 378 150q-41 66 -99 186.5t-98 197.5t-108.5 150.5t-148.5 94.5
q-129 -49 -229.5 -151.5t-100.5 -241.5q0 -188 114 -287t292 -99z" />
    <glyph glyph-name="quotesingle" unicode="'" horiz-adv-x="483" 
d="M205 950q-10 111 -39 239t-29 167q0 51 30 82.5t75 31.5q43 0 73.5 -31.5t30.5 -80.5q0 -43 -27.5 -172t-39.5 -236h-74z" />
    <glyph glyph-name="parenleft" unicode="(" horiz-adv-x="643" 
d="M586 -446q-225 152 -372.5 410.5t-147.5 561.5t148 564.5t372 410.5l45 -53q-172 -127 -285 -386t-113 -535.5t112 -533.5t286 -386z" />
    <glyph glyph-name="parenright" unicode=")" horiz-adv-x="643" 
d="M57 -446l-45 53q174 129 286 386t112 533.5t-113 535.5t-285 386l45 53q223 -150 372 -411t149 -564t-148 -561.5t-373 -410.5z" />
    <glyph glyph-name="asterisk" unicode="*" horiz-adv-x="1067" 
d="M244 580q-31 23 -35 56.5t22 70.5q20 29 99.5 101.5t130.5 129.5l-10 29q-74 14 -180.5 26.5t-141.5 24.5q-41 12 -57.5 44t-5.5 68q10 33 42.5 49.5t73.5 2.5q35 -10 129.5 -62.5t161.5 -83.5l25 17q-8 76 -30 181t-22 142q0 41 25 67.5t61.5 26.5t62.5 -26.5t26 -67.5
q0 -37 -21.5 -142.5t-30.5 -180.5l23 -19q72 33 165 85t128 63q39 14 72.5 -2.5t43.5 -49.5q10 -37 -6 -68.5t-57 -43.5q-35 -12 -142.5 -24.5t-181.5 -26.5l-8 -29q51 -57 130 -130t100 -101q25 -35 21.5 -70t-34.5 -57q-29 -23 -65.5 -16t-59.5 42q-23 31 -67.5 128
t-81.5 163h-31q-35 -66 -80 -163t-67 -128q-25 -35 -61.5 -42t-65.5 16z" />
    <glyph glyph-name="plus" unicode="+" horiz-adv-x="1126" 
d="M512 174v496h-492v100h492v490h102v-490h492v-100h-492v-496h-102z" />
    <glyph glyph-name="comma" unicode="," horiz-adv-x="548" 
d="M285 219q68 0 106.5 -49t38.5 -125q0 -113 -64.5 -247t-166.5 -216l-68 68q59 47 113.5 134t68.5 181l-4 4q-14 -6 -33 -6q-53 0 -91 37t-38 94q0 55 40.5 90t97.5 35z" />
    <glyph glyph-name="hyphen" unicode="-" horiz-adv-x="503" 
d="M20 449v131h461v-131h-461z" />
    <glyph glyph-name="period" unicode="." horiz-adv-x="507" 
d="M254 -37q-55 0 -95 39t-40 94q0 57 40 96t95 39q57 0 96 -38.5t39 -96t-39 -95.5t-96 -38z" />
    <glyph glyph-name="slash" unicode="/" horiz-adv-x="643" 
d="M0 -442l557 1937h86l-555 -1937h-88z" />
    <glyph glyph-name="zero" unicode="0" horiz-adv-x="1280" 
d="M639 -37q-184 0 -310 106.5t-181.5 272.5t-55.5 375t55.5 374.5t181.5 272t310 106.5t311 -106.5t182.5 -272t55.5 -374.5t-55.5 -375t-182.5 -272.5t-311 -106.5zM639 53q98 0 170 53.5t113 147.5t59 209t18 254q0 141 -18 257t-59 210t-113 146t-170 52
q-127 0 -210 -94t-114.5 -237.5t-31.5 -333.5q0 -188 31.5 -330.5t114.5 -238t210 -95.5z" />
    <glyph glyph-name="one" unicode="1" horiz-adv-x="933" 
d="M254 0l-4 47q133 23 133 123v1069h-143l-4 47l280 176h55v-1292q0 -102 127 -123l-4 -47h-440z" />
    <glyph glyph-name="two" unicode="2" horiz-adv-x="1218" 
d="M1024 330l53 -23l-104 -346h-15q-72 39 -223 39h-579v80q45 39 137 112.5t145.5 119.5t132 119t125.5 135.5t94.5 140t69 162.5t21.5 175q0 160 -79 250t-227 90q-141 0 -249.5 -90t-116.5 -245l-72 14q14 188 146.5 297.5t318.5 109.5q207 0 337 -118.5t130 -307.5
q0 -125 -43 -240.5t-106.5 -201.5t-163 -173t-186.5 -144.5t-201 -124.5v-6h188q336 0 467 176z" />
    <glyph glyph-name="three" unicode="3" horiz-adv-x="1193" 
d="M549 -37q-168 0 -294 61.5t-126 161.5q0 45 25.5 75t74.5 30q37 0 62.5 -24.5t44 -59.5t41 -70t65.5 -59.5t107 -24.5q162 0 252 95.5t90 261.5q0 168 -100.5 269t-276.5 101h-43v82h53q145 0 221 77t76 187q0 106 -66.5 182t-205.5 76q-123 0 -210 -82.5t-97 -226.5
l-74 15q16 172 133 276t303 104q195 0 299.5 -96t104.5 -225q0 -229 -232 -313v-11q127 -29 214 -132t87 -240q0 -211 -143 -350.5t-385 -139.5z" />
    <glyph glyph-name="four" unicode="4" horiz-adv-x="1261" 
d="M1145 377h-219v-209q0 -55 39 -84t88 -37l-4 -47h-443l-4 47q47 8 90 39t43 82v209h-637l-8 67l690 990h146v-971h243zM215 463h520v735h-8l-512 -727v-8z" />
    <glyph glyph-name="five" unicode="5" horiz-adv-x="1157" 
d="M530 934q246 0 373 -126t127 -329t-145.5 -359.5t-384.5 -156.5q-156 0 -264.5 45t-108.5 142q0 43 27.5 70.5t64.5 27.5q45 0 71.5 -20.5t40 -50.5t29 -58.5t54.5 -49t100 -20.5q174 0 267 106.5t93 274.5q0 150 -103 247t-277 97q-170 0 -291 -63l-47 16v707h569
q143 0 184 39h15l-27 -197h-643v-381q92 39 276 39z" />
    <glyph glyph-name="six" unicode="6" horiz-adv-x="1202" 
d="M662 934q223 0 335.5 -135t112.5 -338t-145.5 -350.5t-364.5 -147.5q-233 0 -370.5 177t-137.5 460q0 217 74 388t200 274.5t280.5 155.5t326.5 52l8 -71q-256 0 -448.5 -149.5t-241.5 -471.5h12q57 70 157 113t202 43zM600 47q147 0 231 117t84 297q0 172 -70.5 273.5
t-217.5 101.5q-98 0 -199.5 -61.5t-151.5 -158.5v-36q0 -533 324 -533z" />
    <glyph glyph-name="seven" unicode="7" horiz-adv-x="1236" 
d="M1094 1434v-78q-246 -313 -385.5 -621.5t-139.5 -654.5q0 -57 -32.5 -87t-79.5 -30q-43 0 -75 34t-32 83q0 193 95.5 424t215 411.5t267.5 352.5v8h-277q-76 0 -141.5 -10.5t-111.5 -27.5t-81.5 -36.5t-60.5 -43t-39 -39t-24 -32.5l-11 -16l-53 23l104 379h17
q68 -39 235 -39h609z" />
    <glyph glyph-name="eight" unicode="8" horiz-adv-x="1204" 
d="M596 -37q-227 0 -365.5 113.5t-138.5 255.5q0 270 309 407v11q-121 66 -183 143.5t-62 214.5q0 57 25.5 117.5t76.5 117t146.5 92t218.5 35.5q203 0 315.5 -98t112.5 -233q0 -133 -72 -215t-201 -142v-10q160 -70 247 -160t87 -252q0 -170 -141.5 -283.5t-374.5 -113.5z
M655 827q131 55 203 124t72 179q0 115 -74 184.5t-221 69.5q-145 0 -222 -62t-77 -177q0 -63 24.5 -113.5t74.5 -88.5t97 -61.5t123 -54.5zM592 49q166 0 252 82t86 182q0 41 -7.5 76t-31 66.5t-37.5 53t-57 48.5t-58.5 38t-74 36.5t-69.5 31t-77 31.5q-293 -125 -293 -354
q0 -117 96.5 -204t270.5 -87z" />
    <glyph glyph-name="nine" unicode="9" horiz-adv-x="1200" 
d="M600 1470q236 0 372 -177t136 -459q0 -217 -73.5 -388.5t-199.5 -274.5t-281 -155.5t-327 -52.5l-8 72q256 0 449.5 149.5t242.5 470.5h-12q-59 -70 -157.5 -112.5t-202.5 -42.5q-223 0 -335 135t-112 338q0 201 145.5 349t362.5 148zM573 596q96 0 198.5 61.5
t154.5 157.5v39q0 532 -326 532q-145 0 -229 -116.5t-84 -296.5q0 -172 70.5 -274.5t215.5 -102.5z" />
    <glyph glyph-name="colon" unicode=":" horiz-adv-x="505" 
d="M254 709q-55 0 -94 37.5t-39 93.5q-2 57 37 95t96 38t96 -38t39 -95.5t-39 -94t-96 -36.5zM254 -37q-55 0 -94 38t-39 93q-2 57 37 95t96 38t96 -37.5t39 -95t-39 -94.5t-96 -37z" />
    <glyph glyph-name="semicolon" unicode=";" horiz-adv-x="548" 
d="M272 709q-55 0 -95 37.5t-40 93.5q0 57 40 95t95 38q57 0 96.5 -38t39.5 -95.5t-39.5 -94t-96.5 -36.5zM285 219q68 0 106.5 -49t38.5 -125q0 -113 -64.5 -247t-166.5 -216l-68 68q59 47 113.5 134t68.5 181l-4 4q-14 -6 -33 -6q-53 0 -91 37t-38 94q0 55 40.5 90
t97.5 35z" />
    <glyph glyph-name="less" unicode="&#x3c;" horiz-adv-x="1130" 
d="M1069 242l-1006 415v111l1006 416v-109l-864 -360v-6l864 -359v-108z" />
    <glyph glyph-name="equal" unicode="=" horiz-adv-x="1116" 
d="M20 872v99h1076v-99h-1076zM20 467v98h1076v-98h-1076z" />
    <glyph glyph-name="greater" unicode="&#x3e;" horiz-adv-x="1130" 
d="M61 242v108l867 359v6l-867 360v109l1008 -416v-111z" />
    <glyph glyph-name="question" unicode="?" horiz-adv-x="976" 
d="M283 375v377h71q90 0 151.5 6t131.5 24.5t105.5 62.5t35.5 111q0 135 -113.5 275.5t-230.5 140.5q-57 0 -93 -28.5t-49 -62.5t-46 -62.5t-86 -28.5q-37 0 -65.5 29.5t-28.5 72.5q0 86 81.5 132t206.5 46q223 0 391 -185t168 -378q0 -98 -37.5 -162.5t-113.5 -97.5
t-164 -46t-215 -15v-211h-100zM336 -37q-55 0 -95 38t-40 97q0 57 40 94t95 37t95 -36.5t40 -94.5q0 -59 -40 -97t-95 -38z" />
    <glyph glyph-name="at" unicode="@" horiz-adv-x="1937" 
d="M1012 -356q-188 0 -352 57t-290 165.5t-201 278.5t-77 381q-2 236 131 443t355.5 326.5t470.5 119.5q344 0 568 -187.5t228 -514.5q2 -268 -158.5 -448.5t-390.5 -180.5q-141 0 -170 129h-8q-119 -129 -291 -129q-180 0 -262 142.5t-33 340.5q43 178 182.5 298t323.5 120
q160 0 219 -100h13l37 100h157l-164 -668q-18 -53 -3.5 -99t79.5 -46q145 0 270.5 161t122.5 380q-2 158 -61 281.5t-159.5 197.5t-227.5 111.5t-270 37.5q-352 0 -614.5 -238.5t-258.5 -576.5q2 -250 113.5 -436t298 -279.5t422.5 -93.5q182 0 364 68l29 -68
q-184 -73 -393 -73zM879 166q156 0 247 153l113 465q-35 119 -180 119q-129 0 -214 -99t-124 -269q-90 -369 158 -369z" />
    <glyph glyph-name="A" unicode="A" horiz-adv-x="1261" 
d="M1149 168q41 -106 139 -121l-4 -47h-383l-4 47q33 6 53.5 37t1.5 84l-92 250h-555l-92 -250q-20 -53 -1 -84t54 -37l-4 -47h-285l-4 47q41 6 80 36t60 85l411 1110q-35 41 -112 70l2 47q143 14 239 69h13zM346 530h471l-233 631h-6z" />
    <glyph glyph-name="B" unicode="B" horiz-adv-x="1390" 
d="M975 768q147 -45 235 -145.5t88 -231.5q0 -190 -135 -303t-389 -113q-115 0 -281.5 12.5t-244.5 12.5h-180l-5 47q41 6 72 38t31 85v1094q0 53 -31 84.5t-72 37.5l5 48h665q219 0 351.5 -99.5t132.5 -249.5q0 -100 -65 -183t-177 -124v-10zM688 1346q-219 0 -334 -15
v-516h363q141 0 226 77t85 187q0 115 -90 191t-250 76zM733 74q186 0 280.5 88t94.5 239q0 141 -108.5 232.5t-278.5 91.5h-367v-612q47 -4 124 -15.5t137.5 -17.5t117.5 -6z" />
    <glyph glyph-name="C" unicode="C" horiz-adv-x="1366" 
d="M735 -37q-293 0 -468 210t-175 515q0 205 80 382t236.5 288.5t359.5 111.5q66 0 153 -18t119 -18q92 0 152 36h18l76 -395l-63 -12q-109 319 -447 319q-182 0 -338.5 -170t-156.5 -438q0 -332 152.5 -502t373.5 -170q303 0 432 351l64 -21q-47 -207 -187.5 -338
t-380.5 -131z" />
    <glyph glyph-name="D" unicode="D" horiz-adv-x="1449" 
d="M598 1434q324 0 542 -212t218 -532q0 -311 -187.5 -500.5t-488.5 -189.5h-612l-4 47q41 6 70.5 38t29.5 85v1094q0 53 -30 84.5t-70 37.5l4 48h528zM664 90q125 0 224 48t158.5 128t90 178.5t30.5 206.5q0 307 -161.5 501t-440.5 194q-123 0 -211 -11v-1212
q148 -33 310 -33z" />
    <glyph glyph-name="E" unicode="E" horiz-adv-x="1255" 
d="M1184 317l55 -22l-98 -326h-17q-72 31 -266 31h-790l-5 45q43 8 73 40t30 85v1094q0 53 -30 84.5t-73 37.5l5 48h997l88 -258l-51 -19q-4 8 -13.5 20.5t-47 44t-86 56.5t-135.5 45t-191 20q-147 0 -275 -20v-524h492q49 0 86 30.5t45 75.5l47 -4l-2 -295l-45 -4
q-10 45 -46 76t-85 31h-492v-596q176 -23 357 -23q102 0 189 23.5t137 57.5t85 66.5t49 57.5z" />
    <glyph glyph-name="F" unicode="F" horiz-adv-x="1165" 
d="M1061 1434l88 -258l-53 -19q-4 8 -13.5 20.5t-46.5 44t-85 56.5t-135 45t-191 20q-156 0 -271 -14v-590h455q51 0 88 30t45 75l45 -4v-293l-47 -4q-8 45 -44 75.5t-85 30.5h-457v-479q0 -104 101 -125l-4 -45h-383l-5 45q41 8 71 40t30 85v1094q0 53 -30 84.5t-71 37.5
l5 48h993z" />
    <glyph glyph-name="G" unicode="G" horiz-adv-x="1429" 
d="M1405 725l4 -45q-41 -8 -71.5 -40t-30.5 -85v-555h-70l-59 152h-11q-158 -188 -432 -189q-293 0 -468 210t-175 515q0 319 186.5 550.5t489.5 231.5q66 0 153 -18t119 -18q92 0 152 36h18l76 -395l-63 -12q-109 319 -445 319q-184 0 -339.5 -173t-155.5 -441
q0 -334 149.5 -504t374.5 -170q193 0 311 144v317q0 100 -114 125l4 45h397z" />
    <glyph glyph-name="H" unicode="H" horiz-adv-x="1447" 
d="M1284 170q0 -53 29.5 -85t70.5 -38l-2 -47h-385l-4 47q41 6 72 38t31 85v543h-742v-543q0 -53 30 -85t71 -38l-4 -47h-383l-5 47q41 6 72 38t31 85v1094q0 53 -31 84.5t-72 37.5l5 48h383l4 -48q-41 -6 -71 -37.5t-30 -84.5v-435h742v435q0 53 -31 84.5t-72 37.5l4 48
h385l2 -48q-41 -6 -70.5 -37.5t-29.5 -84.5v-1094z" />
    <glyph glyph-name="I" unicode="I" horiz-adv-x="520" 
d="M68 0l-5 47q43 6 73 38t30 85v1094q0 53 -30 84.5t-73 37.5l5 48h385l4 -48q-43 -6 -73 -37.5t-30 -84.5v-1094q0 -53 30 -85t73 -38l-4 -47h-385z" />
    <glyph glyph-name="J" unicode="J" horiz-adv-x="512" 
d="M-33 -391q-135 0 -209.5 56t-74.5 118q0 47 28.5 76.5t69.5 29.5q45 0 75.5 -28.5t45 -63.5t46.5 -63.5t77 -28.5q76 0 110.5 77t34.5 277v1205q0 53 -28.5 84.5t-69.5 37.5l4 48h381l4 -48q-41 -6 -71 -37.5t-30 -84.5v-1184q0 -471 -393 -471z" />
    <glyph glyph-name="K" unicode="K" horiz-adv-x="1374" 
d="M1235 170q63 -106 174 -123l-6 -47h-418l-4 47q37 6 48 36t-19 87l-387 633h-9l-260 -238v-395q0 -53 30 -85t73 -38l-4 -47h-385l-2 47q41 6 70.5 38t29.5 85v1094q0 53 -30 84.5t-70 37.5l4 48h383l4 -48q-43 -6 -73 -37.5t-30 -84.5v-551h8l603 551q51 57 43.5 85.5
t-45.5 36.5l4 48h372l4 -48q-102 -14 -223 -122l-356 -326z" />
    <glyph glyph-name="L" unicode="L" horiz-adv-x="1198" 
d="M1126 340l56 -23l-103 -346h-14q-78 29 -266 29h-729l-4 47q41 6 70.5 38t29.5 85v1094q0 53 -30 84.5t-70 37.5l4 48h383l4 -48q-43 -6 -73 -37.5t-30 -84.5v-1158q131 -16 297 -16q102 0 189.5 25.5t137.5 62.5t86 74t50 63z" />
    <glyph glyph-name="M" unicode="M" horiz-adv-x="1726" 
d="M18 0l-4 47q43 6 79 38t42 85l154 1094q8 53 -16.5 84.5t-65.5 37.5l4 48h278l375 -1125h10l365 1125h274l5 -48q-37 -6 -62.5 -35.5t-21.5 -72.5l157 -1108q8 -53 43 -85t78 -38l-4 -47h-385l-4 47q41 6 66.5 38t17.5 85l-146 995h-6l-379 -1165h-98l-387 1167h-12
l-142 -997q-8 -53 16.5 -85t65.5 -38l-4 -47h-293z" />
    <glyph glyph-name="N" unicode="N" horiz-adv-x="1388" 
d="M1323 1434l4 -48q-43 -6 -72.5 -37.5t-29.5 -84.5v-1264h-115q-51 135 -140 263t-187.5 228.5t-196 200t-186.5 220t-138 245.5h-8v-987q0 -53 29.5 -85t72.5 -38l-4 -47h-284l-5 47q41 6 71 38t30 85v1094q0 53 -30 84.5t-71 37.5l5 48h227q57 -133 152.5 -268.5
t195.5 -244t196.5 -213t175.5 -215t113 -210.5h7v981q0 53 -29 84.5t-72 37.5l4 48h285z" />
    <glyph glyph-name="O" unicode="O" horiz-adv-x="1550" 
d="M788.5 -37q-292.5 0 -494.5 223.5t-202 532.5q0 328 186.5 539.5t497.5 211.5q289 0 485.5 -221t196.5 -540q0 -311 -188.5 -528.5t-481 -217.5zM829 53q197 0 319 164t122 385q0 201 -67.5 378t-195.5 288.5t-288 111.5q-203 0 -323 -157.5t-120 -395.5
q0 -197 68 -372.5t196.5 -288.5t288.5 -113z" />
    <glyph glyph-name="P" unicode="P" horiz-adv-x="1384" 
d="M735 1434q264 0 426 -139.5t162 -346.5q0 -201 -162 -343t-430 -142q-197 0 -377 45v-338q0 -53 31 -85t72 -38l-4 -47h-385l-5 47q43 6 73 38t30 85v1094q0 53 -30 84.5t-73 37.5l5 48h667zM709 555q195 0 308 115.5t113 277.5q0 168 -130 281.5t-328.5 113.5
t-317.5 -32v-693q169 -63 355 -63z" />
    <glyph glyph-name="Q" unicode="Q" horiz-adv-x="1550" 
d="M1110 -160q78 0 147.5 35t98.5 70l30 35l46 -35q-2 -10 -8.5 -27.5t-32 -61.5t-58.5 -77t-92 -60.5t-129 -27.5q-84 0 -163 39t-132 86t-134 86t-169 39q-72 0 -138.5 -34t-96.5 -67l-29 -35l-45 43q39 72 116.5 123.5t172.5 61.5v8q-182 92 -292 278.5t-110 407.5
q0 326 186.5 538t497.5 212q289 0 485.5 -221.5t196.5 -540.5q0 -309 -183 -524.5t-470 -221.5v-6q14 -8 66.5 -40t76 -44t69.5 -25.5t93 -13.5zM276 836q0 -197 68 -374t197 -291t288 -114q197 0 320 165t123 386q0 201 -67.5 378t-196.5 288.5t-289 111.5
q-203 0 -323 -157t-120 -393z" />
    <glyph glyph-name="R" unicode="R" horiz-adv-x="1413" 
d="M1434 57l6 -47q-96 -37 -144 -37q-215 0 -252 285q-27 225 -109.5 299t-291.5 74h-289v-461q0 -53 30 -85t71 -38l-4 -47h-383l-5 47q41 6 72 38t31 85v1094q0 53 -31 84.5t-72 37.5l5 48h639q266 0 420.5 -103.5t154.5 -296.5q0 -291 -338 -366v-15q137 -20 197.5 -101
t87.5 -245q23 -141 63 -195.5t142 -54.5zM662 1343q-184 0 -308 -24v-594h330q201 0 303.5 80t102.5 225q0 147 -116.5 230t-311.5 83z" />
    <glyph glyph-name="S" unicode="S" horiz-adv-x="1392" 
d="M752 -37q-96 0 -224.5 35t-195.5 35q-27 0 -52.5 -8.5t-37.5 -16.5l-15 -8h-16l-137 432l57 25q211 -408 617 -408q162 0 273.5 85t111.5 218q0 51 -15.5 91t-53.5 72t-70.5 53.5t-99.5 43t-103.5 31.5t-116.5 31q-76 20 -112 29.5t-103.5 33t-102 42t-82 51t-70 68.5
t-40 86t-17.5 110q0 160 140.5 268t343.5 108q109 0 233.5 -32.5t161.5 -32.5q18 0 36.5 7t29.5 13l10 9h22l127 -396l-53 -20q-86 172 -228.5 269t-328.5 97q-150 0 -240 -66.5t-90 -164.5q0 -80 69 -137.5t132 -80t213 -61.5q14 -4 20 -6q70 -18 103 -27.5t95.5 -29.5
t96 -37.5t82.5 -44.5t75 -57.5t53.5 -69.5t38.5 -87t11 -105q0 -195 -154 -321t-394 -126z" />
    <glyph glyph-name="T" unicode="T" horiz-adv-x="1339" 
d="M1204 1468l101 -333l-54 -23q-4 10 -13 25.5t-46 55.5t-85 70.5t-133 56.5t-188 26h-20v-1176q0 -53 29.5 -85t70.5 -38l-4 -47h-383l-4 47q41 6 72 38t31 85v1176h-23q-102 0 -187 -24t-134.5 -58.5t-84 -69.5t-47.5 -59l-12 -23l-55 23l102 333h17q68 -35 233 -34h567
q166 0 234 34h16z" />
    <glyph glyph-name="U" unicode="U" horiz-adv-x="1298" 
d="M664 -37q-301 0 -459 163t-133 452l59 686q6 53 -20.5 84.5t-67.5 37.5l4 48h391l4 -48q-43 -6 -75.5 -37.5t-38.5 -84.5l-60 -684q-20 -238 91.5 -382.5t330.5 -144.5q231 0 346 144.5t94 382.5l-59 675q-4 49 -39 86t-80 45l4 48h295l4 -48q-45 -10 -70.5 -45.5
t-21.5 -85.5l58 -677q23 -276 -123.5 -445.5t-433.5 -169.5z" />
    <glyph glyph-name="V" unicode="V" horiz-adv-x="1277" 
d="M1300 1434l5 -48q-98 -18 -136 -122l-419 -1186q20 -25 49 -41l-2 -37q-102 2 -213 -31h-13l-462 1295q-37 104 -136 122l4 48h385l5 -48q-37 -8 -57.5 -37.5t-2.5 -84.5l375 -1053h14l373 1053q18 55 -2 84.5t-55 37.5l4 48h284z" />
    <glyph glyph-name="W" unicode="W" horiz-adv-x="1959" 
d="M1980 1434l7 -48q-102 -18 -132 -122l-362 -1190q18 -20 43 -37l-4 -37q-129 0 -219 -31h-19l-309 1047h-12l-291 -944q23 -23 45 -35l-4 -37q-106 2 -219 -31h-12l-390 1295q-31 104 -129 122l7 48h385l2 -48q-35 -8 -57.5 -37.5t-8.5 -84.5l315 -1053h9l305 989l-4 17
q-25 76 -46.5 112.5t-66.5 63.5l6 47q119 -2 219 30h13l372 -1257v-2h11l323 1053q16 55 -7.5 84.5t-57.5 37.5l2 48h286z" />
    <glyph glyph-name="X" unicode="X" horiz-adv-x="1316" 
d="M1169 170q74 -111 164 -123l-4 -47h-420l-4 47q41 8 55.5 37t-16.5 86l-332 485h-14l-334 -485q-31 -57 -15.5 -86t54.5 -37l-4 -47h-311l-4 47q86 12 163 123l398 582l-350 512q-78 111 -166 122l4 48h422l4 -48q-41 -8 -56.5 -36.5t15.5 -85.5l287 -418h12l287 418
q33 57 17.5 85.5t-54.5 36.5l4 48h311l4 -48q-92 -12 -164 -122l-352 -514z" />
    <glyph glyph-name="Y" unicode="Y" horiz-adv-x="1243" 
d="M430 0l-4 47q41 6 70.5 38t29.5 85v524l-389 570q-74 111 -164 122l4 48h420l4 -48q-41 -8 -56 -36.5t15 -85.5l310 -445h12l305 445q33 57 17.5 85.5t-54.5 36.5l4 48h312l4 -48q-90 -12 -164 -122l-391 -570v-524q0 -53 30.5 -85t71.5 -38l-4 -47h-383z" />
    <glyph glyph-name="Z" unicode="Z" horiz-adv-x="1327" 
d="M1108 -37q-74 37 -236 37h-802l-4 47l919 1299h-334q-100 0 -187 -29t-138.5 -69t-89 -80t-52.5 -68l-14 -29l-55 21l118 378h17q74 -37 233 -36h752l4 -48l-920 -1298h388q102 0 191 33t145.5 81t97.5 95t59 80l17 33l53 -21l-146 -426h-16z" />
    <glyph glyph-name="bracketleft" unicode="[" horiz-adv-x="675" 
d="M180 -418l-2 1886h453v-82h-291v-1724h293v-80h-453z" />
    <glyph glyph-name="backslash" unicode="\" horiz-adv-x="643" 
d="M557 -442l-557 1937h88l555 -1937h-86z" />
    <glyph glyph-name="bracketright" unicode="]" horiz-adv-x="675" 
d="M43 -418v80h293v1724h-293v82h453v-1886h-453z" />
    <glyph glyph-name="asciicircum" unicode="^" horiz-adv-x="1056" 
d="M109 848l378 586h82l377 -586h-76l-344 364l-342 -364h-75z" />
    <glyph glyph-name="underscore" unicode="_" horiz-adv-x="1105" 
d="M0 -180v80h1108v-80h-1108z" />
    <glyph glyph-name="grave" unicode="`" horiz-adv-x="993" 
d="M461 1159l-221 178q-53 43 -54 88q0 29 19.5 48.5t52.5 19.5q49 0 88 -51l166 -240z" />
    <glyph glyph-name="a" unicode="a" horiz-adv-x="1110" 
d="M1112 74l21 -39q-59 -72 -162 -72q-158 0 -193 184h-8q-53 -94 -151.5 -139t-200.5 -45q-158 0 -259.5 80t-101.5 219q0 92 49.5 165t143.5 123t204.5 83t260.5 59l-13 107q-10 98 -66 159.5t-142 61.5q-84 0 -140.5 -46t-54.5 -114q4 -51 -22.5 -78.5t-65.5 -27.5
q-43 0 -67.5 25.5t-24.5 70.5q2 96 103.5 176t273.5 80q145 0 254.5 -88t128.5 -250l63 -575q16 -143 94 -144q33 0 76 25zM477 61q115 0 197 82t84 187l-35 295q-221 -37 -352 -122t-131 -220q0 -100 66.5 -161t170.5 -61z" />
    <glyph glyph-name="b" unicode="b" horiz-adv-x="1257" 
d="M668 1106q221 0 368.5 -167t147.5 -415q0 -244 -138.5 -402.5t-355.5 -158.5q-242 0 -395 209q-74 -96 -111 -172h-47v1262q0 53 -30.5 85.5t-71.5 38.5l4 48q147 27 280 127l21 -9q-35 -119 -35 -364v-250h12q140 168 351 168zM705 53q135 0 225 116t90 290
q0 223 -109.5 390t-283.5 167q-141 0 -230.5 -112.5t-89.5 -291.5q0 -139 45 -265t138.5 -210t214.5 -84z" />
    <glyph glyph-name="c" unicode="c" horiz-adv-x="1140" 
d="M633 -37q-233 0 -396 166t-163 412q0 254 158.5 409.5t398.5 155.5q188 0 314 -94t126 -197q0 -37 -24.5 -65.5t-63.5 -28.5q-37 0 -60.5 22.5t-34.5 56.5t-31.5 72.5t-46.5 72.5t-81 56.5t-135 22.5q-141 0 -246.5 -119t-105.5 -291q0 -250 121.5 -385t332.5 -135
q113 0 207 72t139 166l48 -15q-33 -143 -152 -248.5t-305 -105.5z" />
    <glyph glyph-name="d" unicode="d" horiz-adv-x="1282" 
d="M1124 170q0 -53 31 -85t72 -38l-4 -47q-133 -14 -224 -37h-24l-10 180h-15q-78 -94 -160.5 -137t-199.5 -43q-221 0 -368.5 167t-147.5 415q0 244 138 402.5t357 158.5q227 0 377 -193h10v349q0 53 -29.5 85.5t-70.5 38.5l4 48q143 25 277 127l22 -9q-35 -119 -35 -364
v-1018zM631 53q143 0 232 114t89 290q0 139 -46 265t-139 210t-214 84q-135 0 -225 -116t-90 -290q0 -223 110.5 -390t282.5 -167z" />
    <glyph glyph-name="e" unicode="e" horiz-adv-x="1214" 
d="M705 94q123 0 217 72t135 168l47 -17q-29 -141 -158 -247.5t-321 -106.5q-231 0 -391 163t-160 419q0 244 155.5 402.5t386.5 158.5q178 0 291 -81t158 -198q29 -74 65 -86l11 -67l-881 -228q35 -168 151 -260t294 -92zM602 1020q-156 0 -256 -126t-100 -304q0 -39 2 -58
l678 177q-14 125 -99.5 218t-224.5 93z" />
    <glyph glyph-name="f" unicode="f" horiz-adv-x="675" 
d="M309 1364q0 -57 49.5 -158.5t57.5 -136.5h280v-88h-270v-813q0 -51 29.5 -83t70.5 -40l-4 -45h-362l-4 45q43 8 72.5 40t29.5 83v813h-203v88h199q-4 27 -34 119t-30 158q0 100 71 170.5t183 70.5q106 0 181 -54t75 -132q0 -90 -77 -90q-41 0 -64.5 28.5t-31 63.5
t-33 63.5t-72.5 28.5q-53 0 -83 -35t-30 -96z" />
    <glyph glyph-name="g" unicode="g" horiz-adv-x="1200" 
d="M936 1073q-39 0 -74 -49q174 -117 174 -344q0 -190 -124 -302t-322 -112q-143 0 -260 62q-61 -8 -98 -41t-37 -68q0 -68 94 -93.5t360 -25.5q272 0 372.5 -53t100.5 -178q0 -145 -150.5 -235.5t-383.5 -90.5q-512 0 -512 250q0 61 33.5 113.5t87.5 83.5v12
q-119 53 -119 180q0 76 47 127t121 66v12q-131 121 -131 311q0 188 128 298t330 110q123 0 226 -45q96 150 235 149q59 0 97 -28.5t38 -77.5q0 -94 -88 -94q-33 0 -74.5 31.5t-70.5 31.5zM612 350q115 0 191 75t76 210q0 170 -92.5 278.5t-235.5 108.5q-123 0 -201 -75
t-78 -208q0 -162 95 -275.5t245 -113.5zM322 -35q-55 -20 -83 -62t-28 -89q0 -182 387 -183q180 0 285.5 60.5t105.5 138.5q0 72 -69.5 92.5t-292.5 20.5q-162 -1 -305 22z" />
    <glyph glyph-name="h" unicode="h" horiz-adv-x="1218" 
d="M1098 168q4 -51 36.5 -83t73.5 -40l-4 -45h-362l-4 45q41 8 68.5 40t23.5 83l-37 512q-8 164 -82 250t-190 86q-121 0 -208 -81t-87 -202v-565q0 -51 29.5 -83t70.5 -40l-4 -45h-363l-4 45q41 8 72 40t31 83v1096q0 53 -31 84.5t-72 37.5l4 48q147 27 279 127l22 -9
q-35 -113 -34 -364v-250h10q113 168 313 168q180 0 291 -113.5t125 -337.5z" />
    <glyph glyph-name="i" unicode="i" horiz-adv-x="483" 
d="M240 1288q-53 0 -88 35t-35 84q0 51 34.5 88t88.5 37q55 0 91 -37t36 -88q0 -49 -36 -84t-91 -35zM61 0l-4 45q41 8 71 40t30 83v643q0 53 -30 85t-71 38l4 47q37 4 104.5 35t137.5 90h23v-938q0 -51 30.5 -83t71.5 -40l-4 -45h-363z" />
    <glyph glyph-name="j" unicode="j" horiz-adv-x="552" 
d="M284.5 1288q-55.5 0 -90 35t-34.5 84q0 51 34.5 88t90 37t91.5 -37t36 -88q0 -49 -36 -84t-91.5 -35zM106 -457q-111 0 -177 53.5t-66 133.5q0 37 23.5 61.5t62.5 24.5q43 0 64.5 -30t25.5 -66.5t26.5 -66.5t67.5 -30q47 0 76 40t29 101q0 47 -16.5 140.5t-16.5 146.5
v760q0 53 -31 85t-72 38l4 47q104 12 242 125h25v-1204q0 -176 -71 -267.5t-196 -91.5z" />
    <glyph glyph-name="k" unicode="k" horiz-adv-x="1155" 
d="M1010 168q72 -102 184 -123l-4 -45h-393l-4 45q37 8 45 37t-27 86l-317 477h-13l-155 -166v-311q0 -51 29.5 -83t70.5 -40l-4 -45h-363l-4 45q41 8 72 40t31 83v1096q0 53 -31 84.5t-72 37.5l4 48q147 27 281 127l20 -9q-35 -119 -34 -364v-580h10l291 314
q84 92 154.5 138t154.5 46q72 0 113 -33t41 -94q0 -49 -29 -81t-80 -32q-45 0 -89 42t-77 42q-47 0 -139 -96l-72 -78z" />
    <glyph glyph-name="l" unicode="l" 
d="M59 0l-4 45q41 8 71 40t30 83v1096q0 53 -30 84.5t-71 37.5l4 48q150 27 281 127l20 -9q-35 -119 -34 -364v-1020q0 -51 29.5 -83t70.5 -40l-4 -45h-363z" />
    <glyph glyph-name="m" unicode="m" horiz-adv-x="1851" 
d="M1702 168q4 -51 35.5 -83t74.5 -40l-4 -45h-364l-4 45q43 8 69.5 40t22.5 83l-35 496q-10 172 -65.5 257t-171.5 85q-115 0 -184.5 -79t-69.5 -202v-557q0 -51 28.5 -83t69.5 -40l-4 -45h-363l-4 45q41 8 71 40t30 83v496q0 342 -234 342q-119 0 -196.5 -87.5
t-77.5 -209.5v-541q0 -51 29.5 -83t72.5 -40l-4 -45h-365l-4 45q41 8 72 40t31 83v641q0 53 -31 85t-72 38l4 45q104 18 238 129h22l5 -191h10q113 190 307 191q225 0 315 -191h11q119 190 321 191q350 0 381 -451z" />
    <glyph glyph-name="n" unicode="n" horiz-adv-x="1214" 
d="M1094 168q2 -51 34.5 -83t75.5 -40l-4 -45h-364l-5 45q43 8 70 40t23 83l-35 496q-10 166 -83 254t-192 88q-121 0 -205.5 -84t-84.5 -205v-549q0 -51 29.5 -83t72.5 -40l-6 -45h-361l-4 45q41 8 71 40t30 83v641q0 53 -30 85t-71 38l4 45q104 18 238 129h22l3 -178h8
q113 178 321 178q178 0 287 -113.5t123 -337.5z" />
    <glyph glyph-name="o" unicode="o" horiz-adv-x="1247" 
d="M641 -37q-248 0 -407.5 171t-159.5 417q0 240 154.5 397.5t392.5 157.5q242 0 397.5 -166t155.5 -416q0 -244 -147.5 -402.5t-385.5 -158.5zM676 55q145 0 239.5 116t94.5 288q0 217 -120 387t-304 170q-152 0 -249 -114t-97 -290q0 -211 123 -384t313 -173z" />
    <glyph glyph-name="p" unicode="p" horiz-adv-x="1259" 
d="M670 1106q221 0 368.5 -167t147.5 -415q0 -244 -138.5 -402.5t-355.5 -158.5q-229 0 -379 193h-6v-406q0 -53 30 -85t73 -38l-4 -47h-365l-4 47q43 6 72.5 38t29.5 85v1059q0 53 -29.5 85t-72.5 38l4 47q35 4 102.5 37t132.5 90h23l4 -170h10q144 170 357 170zM707 55
q135 0 225 115t90 289q0 223 -109.5 390t-283.5 167q-141 0 -230.5 -112.5t-89.5 -291.5q0 -217 110 -387t288 -170z" />
    <glyph glyph-name="q" unicode="q" horiz-adv-x="1257" 
d="M1128 -250q0 -53 31 -85t72 -38l-4 -47h-363l-4 47q41 6 71 38t30 85v389h-17q-78 -90 -158.5 -133t-193.5 -43q-223 0 -370.5 167t-147.5 415q0 244 138 402.5t357 158.5q238 0 392 -221q80 98 120 184h47v-1319zM631 53q143 0 232 113t89 291q0 139 -46 265t-139 210
t-214 84q-135 0 -225 -116t-90 -290q0 -223 110.5 -390t282.5 -167z" />
    <glyph glyph-name="r" unicode="r" horiz-adv-x="876" 
d="M662 1106q100 0 148 -43t48 -107q0 -49 -35 -82.5t-88 -33.5q-41 0 -68.5 20.5t-39 46t-34 46t-54.5 20.5q-61 0 -137 -76t-76 -178v-549q0 -53 29.5 -85t70.5 -38l-4 -47h-363l-4 47q41 6 71 38t30 85v639q0 53 -30 84t-71 39l4 45q100 18 236 129h24l5 -203h8
q142 203 330 203z" />
    <glyph glyph-name="s" unicode="s" horiz-adv-x="1081" 
d="M612 -37q-82 0 -201.5 34t-162.5 34q-23 0 -44.5 -8.5t-31.5 -14.5l-10 -8h-17l-94 356l45 15q205 -322 514 -322q109 0 185.5 51.5t76.5 149.5t-90 151.5t-247 85.5q-68 14 -119 28.5t-114.5 41.5t-104.5 58.5t-69 79.5t-28 108q0 127 111 215t278 88q82 0 181.5 -33
t140.5 -33q47 0 76 29h18l70 -301l-49 -20q-156 276 -424 276q-109 0 -173.5 -47t-64.5 -117q0 -47 26.5 -84t82 -62.5t105.5 -41t132 -33.5q68 -16 100.5 -25.5t93 -29t92.5 -42t67.5 -54t51 -76.5t15.5 -101q0 -158 -118 -253t-300 -95z" />
    <glyph glyph-name="t" unicode="t" horiz-adv-x="727" 
d="M461 -37q-119 0 -183.5 62.5t-64.5 210.5v745h-176v53q137 47 196.5 119t92.5 221h57v-305h289v-88h-289v-752q0 -84 31.5 -123.5t103.5 -39.5q70 0 131 24l23 -78q-94 -49 -211 -49z" />
    <glyph glyph-name="u" unicode="u" horiz-adv-x="1208" 
d="M1053 170q0 -53 29.5 -85t70.5 -38l-4 -47q-133 -14 -223 -37h-23l-16 187h-10q-125 -186 -338 -187q-186 0 -294 113.5t-108 335.5v399q0 53 -29.5 85t-70.5 38l4 47q104 12 244 125h22v-700q0 -166 74 -254.5t205 -88.5q123 0 211 83t88 208v457q0 53 -31 86t-72 39
l4 45q119 20 244 125h23v-936z" />
    <glyph glyph-name="v" unicode="v" horiz-adv-x="1058" 
d="M887 1106q66 0 96.5 -42t30.5 -110q0 -88 -94 -284l-316 -670h-143l-287 809q-41 117 -164 125l4 45q33 6 96.5 41t112.5 86h23l334 -948h14l254 553q41 90 41 110q0 31 -19.5 51.5t-43 33t-43 38t-19.5 64.5q0 45 36 71.5t87 26.5z" />
    <glyph glyph-name="w" unicode="w" horiz-adv-x="1583" 
d="M1405 1106q66 0 100.5 -44t34.5 -110q0 -109 -78 -282l-270 -670h-164l-217 752h-8l-244 -752h-176l-223 809q-33 117 -154 125l6 45q33 6 100.5 41t123.5 86h20l262 -942h10l289 905h86l262 -905h11l215 549q33 78 32.5 108.5t-22 51t-46 33t-46 38t-21.5 64.5
q0 45 33 71.5t84 26.5z" />
    <glyph glyph-name="x" unicode="x" horiz-adv-x="1171" 
d="M977 170q76 -109 174 -123l-4 -47h-397l-5 47q39 8 50.5 37t-21.5 86l-227 324h-10l-232 -324q-37 -57 -26.5 -86t49.5 -37l-9 -47h-296l-3 47q104 16 181 123l286 395l-233 336q-74 104 -174 123l4 45h397l4 -45q-39 -8 -50 -37t22 -86l178 -252h10l182 252q35 57 26 86
t-48 37l6 45h299v-45q-98 -18 -180 -123l-236 -326z" />
    <glyph glyph-name="y" unicode="y" horiz-adv-x="1071" 
d="M895 1106q66 0 100.5 -45t34.5 -111q0 -150 -168 -495q-152 -332 -270 -539q-106 -199 -185 -286t-165 -87q-55 0 -96.5 35t-41.5 86t31 80t76 29q33 0 69.5 -24.5t55.5 -24.5q37 0 77 50t109 181q8 16 25 45h-45l-316 809q-45 117 -176 125l4 45q35 6 99.5 41t111.5 86
h27l371 -946h10v-2q84 164 153 334q80 166 100.5 227t18.5 106q0 31 -19.5 52.5t-43 32t-43 36t-19.5 62.5q0 45 33 71.5t82 26.5z" />
    <glyph glyph-name="z" unicode="z" horiz-adv-x="1097" 
d="M889 -37q-70 37 -234 37h-596l-4 61l695 916v10h-224q-162 0 -239.5 -43t-136.5 -164l-44 19l66 270h807l4 -59l-698 -914v-12h286q86 0 163 31.5t125 77t83 90.5t49 77l17 31l43 -18l-146 -410h-16z" />
    <glyph glyph-name="braceleft" unicode="{" horiz-adv-x="641" 
d="M598 -440q-193 0 -298 105.5t-77 303.5l47 314q14 92 -46 143t-179 51v103q119 0 179.5 51t45.5 143l-47 313q-29 199 77 305.5t298 106.5v-51q-102 0 -171 -59.5t-52 -178.5l51 -340q20 -145 -50.5 -226t-180.5 -112v-8q111 -31 181 -111.5t50 -226.5l-51 -340
q-16 -117 52.5 -176t170.5 -59v-51z" />
    <glyph glyph-name="bar" unicode="|" horiz-adv-x="630" 
d="M272 -446v1935h86v-1935h-86z" />
    <glyph glyph-name="braceright" unicode="}" horiz-adv-x="641" 
d="M45 -440v51q102 0 170 59.5t51 175.5l-51 340q-20 145 50.5 226.5t180.5 111.5v8q-111 31 -181 112t-50 226l51 340q16 119 -51.5 178.5t-169.5 59.5v51q193 0 297 -106.5t76 -305.5l-45 -313q-14 -92 46 -143t179 -51v-103q-119 0 -179.5 -51t-45.5 -143l45 -314
q29 -199 -75.5 -304t-297.5 -105z" />
    <glyph glyph-name="asciitilde" unicode="~" horiz-adv-x="1058" 
d="M702 561q-66 0 -127 31t-99 68.5t-85 68.5t-88 31q-119 0 -119 -164h-73q0 299 243 299q84 0 158 -49t134.5 -98.5t109.5 -49.5q123 0 123 162h67q0 -150 -64.5 -224.5t-179.5 -74.5z" />
    <glyph glyph-name="uni00A0" unicode="&#xa0;" horiz-adv-x="94" 
 />
    <glyph glyph-name="exclamdown" unicode="&#xa1;" horiz-adv-x="509" 
d="M254 1204q-55 0 -94 37t-39 94q0 59 39 97t94 38t94 -37.5t39 -97.5q0 -57 -39 -94t-94 -37zM256 -37q-129 0 -127 176q0 88 37 346t41 574h98q2 -317 41 -574.5t39 -345.5q0 -176 -129 -176z" />
    <glyph glyph-name="cent" unicode="&#xa2;" horiz-adv-x="1320" 
d="M1108 545q-31 -127 -146.5 -229.5t-281.5 -114.5v-201h-117v203q-201 23 -326.5 154.5t-125.5 336.5q0 211 127 350.5t325 167.5v222h117v-215q176 -8 293 -98.5t117 -184.5q0 -35 -24 -62.5t-60 -27.5q-41 0 -66 30.5t-41 73.5t-40.5 86t-84 74t-153.5 31
q-139 0 -249 -116t-110 -273q0 -211 117 -324t305 -113q129 0 232.5 72t146.5 174z" />
    <glyph glyph-name="sterling" unicode="&#xa3;" horiz-adv-x="1425" 
d="M1255 442q53 -25 89 -81t36 -119q0 -127 -79.5 -203t-210.5 -76q-43 0 -85 9.5t-96.5 37t-79 39.5t-96 57.5t-84.5 53.5q-113 -197 -342 -197q-115 0 -186.5 53.5t-71.5 151.5t77 152.5t181 54.5q117 0 242 -43q-4 51 -19.5 108.5t-29 90t-44 103.5t-40.5 93h-293v117
h250q-27 94 -27 184q0 209 135 325.5t344 116.5q182 0 299 -93t117 -222q0 -59 -27.5 -99t-80.5 -40q-41 0 -70 25.5t-29 64.5q0 25 16.5 61.5t16.5 55.5q0 63 -68.5 110t-181.5 47q-133 0 -215 -92t-82 -223q0 -94 53 -221h396v-117h-344q88 -201 88 -311q0 -70 -17 -140
q41 -16 119 -51t121 -53t97 -33.5t93 -15.5q74 0 123 40t49 111q0 86 -75 123zM309 55q74 0 138.5 49.5t91.5 120.5q-123 61 -222 62q-72 0 -117.5 -32t-45.5 -87q0 -51 43.5 -82t111.5 -31z" />
    <glyph glyph-name="currency" unicode="&#xa4;" horiz-adv-x="1249" 
d="M625 395q-156 0 -271 88l-213 -213l-96 99l211 211q-88 115 -88 270q0 150 88 268l-211 213l96 99l213 -213q117 88 271 88q152 0 268 -88l215 215l98 -99l-215 -215q88 -115 88 -268q0 -156 -88 -270l213 -213l-96 -97l-213 213q-116 -88 -270 -88zM625 532
q131 0 224 93.5t93 224.5t-93 223t-224 92t-224.5 -92t-93.5 -223t93.5 -224.5t224.5 -93.5z" />
    <glyph glyph-name="yen" unicode="&#xa5;" horiz-adv-x="1372" 
d="M1331 1434l4 -45q-90 -16 -164 -125l-321 -467h311v-105h-381v-205h381v-104h-381v-213q0 -53 30 -85t73 -40l-4 -45h-385l-5 45q43 8 73 40t30 85v213h-381v104h381v205h-381v105h311l-319 467q-74 109 -166 125l4 45h420l4 -45q-41 -10 -55.5 -38t18.5 -87l305 -443h15
l305 443q33 59 18.5 86.5t-55.5 38.5l4 45h311z" />
    <glyph glyph-name="brokenbar" unicode="&#xa6;" horiz-adv-x="630" 
d="M272 676v813h86v-813h-86zM272 -446v811h86v-811h-86z" />
    <glyph glyph-name="section" unicode="&#xa7;" horiz-adv-x="1071" 
d="M92 797q2 100 74 196q-76 74 -74 178q4 121 122 210t292 89q170 0 286.5 -77.5t114.5 -171.5q-2 -41 -23.5 -68t-58.5 -27q-53 0 -74.5 41t-26.5 89.5t-58.5 89t-161.5 40.5q-106 0 -183 -59t-79 -145q0 -43 25.5 -76t73.5 -53.5t94 -33.5t106 -28q20 -4 28 -6
q98 -23 157.5 -42t126.5 -58t97.5 -100.5t28.5 -149.5q0 -94 -78 -189q80 -72 78 -186q0 -119 -119 -208t-293 -89q-205 0 -328.5 79t-123.5 173q2 35 24.5 61.5t55.5 26.5q43 0 66.5 -26.5t39.5 -64.5t41 -76t86 -64.5t158 -26.5q104 0 172.5 58.5t72.5 146.5
q0 43 -25.5 75.5t-81.5 55t-93 33t-111 26.5q-12 2 -18 4q-98 23 -156.5 43.5t-125 59.5t-98.5 100.5t-30 149.5zM203 844q-2 -104 97 -168t247 -94q211 -47 284 -93q37 66 37 115q2 102 -92 156.5t-252 89.5q-209 45 -297 100q-22 -47 -24 -106z" />
    <glyph glyph-name="dieresis" unicode="&#xa8;" horiz-adv-x="718" 
d="M186 1270q-47 0 -79.5 31.5t-32.5 74.5q0 47 31.5 80t81 33t81 -33t31.5 -80q0 -43 -32 -74.5t-81 -31.5zM530.5 1270q-49.5 0 -81 31.5t-31.5 74.5q0 47 31.5 80t81 33t82 -33t32.5 -80q0 -43 -32.5 -74.5t-82 -31.5z" />
    <glyph glyph-name="copyright" unicode="&#xa9;" horiz-adv-x="1638" 
d="M821 -37q-311 0 -533 221.5t-222 532.5q0 309 222 531t531 222q311 0 533.5 -222t222.5 -531q0 -311 -222.5 -532.5t-531.5 -221.5zM821 31q283 0 484.5 200.5t201.5 485.5q0 283 -201.5 484.5t-486.5 201.5q-283 0 -484.5 -202t-201.5 -484q0 -285 201.5 -485.5
t486.5 -200.5zM821 264q-188 0 -307 127t-119 334q0 193 120 323t304 130q45 0 113.5 -10.5t124.5 -10.5h47l57 -256l-35 -10q-51 111 -119.5 166t-175.5 55q-137 0 -208.5 -107.5t-71.5 -281.5q0 -180 72.5 -284.5t207.5 -104.5q109 0 189 61.5t106 151.5l62 -17
q-37 -125 -130.5 -195.5t-236.5 -70.5z" />
    <glyph glyph-name="ordfeminine" unicode="&#xaa;" horiz-adv-x="593" 
d="M55 1094q0 82 75 122.5t208 67.5q-2 14 -4 31.5t-2 21.5q-4 37 -25.5 60.5t-54.5 23.5q-31 0 -53.5 -18.5t-20.5 -44.5q2 -25 -11 -39t-35.5 -14t-37 14t-12.5 37q2 43 48 78.5t128 35.5q70 0 120 -40.5t60 -118.5l25 -236q6 -66 45 -65q18 0 31 10l10 -25
q-33 -33 -84 -32q-78 0 -94 79h-6q-45 -80 -152 -79q-70 0 -114 35t-44 96zM344 1247q-186 -37 -186 -139q0 -39 27.5 -63.5t66.5 -24.5q47 0 77.5 37t26.5 82l2 -2q-2 16 -7 53t-7 57zM72 827v70h450v-70h-450z" />
    <glyph glyph-name="guillemotleft" unicode="&#xab;" horiz-adv-x="1099" 
d="M526 23l-397 413v92l397 414l45 -29l-243 -432l243 -430zM924 23l-396 413v92l396 414l45 -29l-244 -432l244 -430z" />
    <glyph glyph-name="logicalnot" unicode="&#xac;" horiz-adv-x="1116" 
d="M983 489v371h-963v111h1076v-482h-113z" />
    <glyph glyph-name="uni00AD" unicode="&#xad;" horiz-adv-x="454" 
d="M20 442v107h414v-107h-414z" />
    <glyph glyph-name="registered" unicode="&#xae;" horiz-adv-x="931" 
d="M467 1470q168 0 285.5 -118.5t117.5 -284.5t-117.5 -283.5t-285.5 -117.5t-288 118.5t-120 282.5q0 166 120 284.5t288 118.5zM467 731q141 0 240.5 97.5t99.5 238.5t-99.5 239.5t-240.5 98.5t-241.5 -98.5t-100.5 -239.5t100.5 -238.5t241.5 -97.5zM719 881l2 -23
q-41 -12 -66 -12q-82 0 -98 86q-16 68 -36.5 87t-78.5 19h-47v-112q0 -43 33 -49l-6 -21h-150l-4 21q33 8 33 49v293q0 41 -33 49l4 20h222q84 0 133 -32.5t49 -92.5q0 -86 -107 -114v-2q41 -4 60.5 -28t29.5 -69q6 -23 8.5 -31t8.5 -20t16.5 -15t26.5 -3zM463 1247
q-35 0 -68 -4v-162h74q111 0 111 80q0 41 -32 63.5t-85 22.5z" />
    <glyph glyph-name="macron" unicode="&#xaf;" horiz-adv-x="714" 
d="M88 1303v108h537v-108h-537z" />
    <glyph glyph-name="degree" unicode="&#xb0;" horiz-adv-x="552" 
d="M276.5 1049q-88.5 0 -149.5 61t-61 147q0 88 61 150.5t149.5 62.5t150.5 -62t62 -151q0 -84 -62 -146t-150.5 -62zM276.5 1118q59.5 0 100.5 40t41 99.5t-41 100.5t-101 41q-57 0 -97 -41t-40 -100.5t39 -99.5t98.5 -40z" />
    <glyph glyph-name="plusminus" unicode="&#xb1;" horiz-adv-x="1130" 
d="M516 193v479h-496v100h496v494h98v-494h496v-100h-496v-479h-98zM20 0v88h1090v-88h-1090z" />
    <glyph glyph-name="uni00B2" unicode="&#xb2;" horiz-adv-x="563" 
d="M453 1024l22 -8l-45 -150h-6q-39 14 -100 15h-232v47q6 4 40 31.5t43 34.5t39 33t40 37t32.5 35.5t31 43t20.5 43t16 48t4 50.5q0 59 -28.5 92t-79.5 33t-90 -36t-41 -97l-33 4q4 78 57.5 124t126.5 46q82 0 135.5 -46t53.5 -120q0 -104 -73 -180t-193 -146v-2h90
q49 0 91 16.5t58.5 30t20.5 21.5z" />
    <glyph glyph-name="uni00B3" unicode="&#xb3;" horiz-adv-x="548" 
d="M252 866q-68 0 -118 23.5t-50 66.5q0 47 45 48q29 0 53.5 -48.5t69.5 -48.5q55 0 87 35t32 96.5t-36 99.5t-99 38h-19v38h21q49 0 76.5 29t27.5 72q0 39 -24.5 65.5t-73.5 26.5q-45 0 -77 -29.5t-34 -85.5l-33 4q8 72 54.5 113t122 41t118.5 -37t43 -88q0 -88 -90 -121
v-4q51 -10 86 -51t35 -94q0 -82 -58.5 -135.5t-158.5 -53.5z" />
    <glyph glyph-name="acute" unicode="&#xb4;" horiz-adv-x="540" 
d="M184 1159l-53 45l166 238q43 51 90 51q33 0 52.5 -20.5t19.5 -47.5q0 -43 -56 -88z" />
    <glyph glyph-name="mu" unicode="&#xb5;" horiz-adv-x="1230" 
d="M1192 90l22 -78q-66 -49 -174 -49q-166 0 -168 182h-6q-59 -84 -133 -132t-190 -48q-135 0 -224 51q14 -53 37 -119.5t36.5 -111.5t13.5 -76q0 -57 -35 -93t-88 -36q-51 0 -86 37t-35 96v1239h168v-577q-2 -164 63.5 -238t196.5 -74q121 0 201.5 83t80.5 208v598h168
v-770q0 -117 70 -116q43 -1 82 24z" />
    <glyph glyph-name="paragraph" unicode="&#xb6;" horiz-adv-x="712" 
d="M80 -403q-133 0 -223 54t-90 124q0 45 25.5 70.5t64.5 25.5t70.5 -26.5t50 -57.5t59.5 -57.5t98 -26.5q287 0 285 387v635q-201 0 -311.5 100.5t-110.5 255.5q0 158 108.5 255.5t276.5 97.5h283l2 -39q-43 -10 -75 -42t-32 -83v-1157q0 -258 -133 -387t-348 -129z" />
    <glyph glyph-name="periodcentered" unicode="&#xb7;" horiz-adv-x="505" 
d="M254 686q-55 0 -95 37t-40 98q0 57 40 94t95 37t94 -36.5t39 -94.5q0 -61 -39 -98t-94 -37z" />
    <glyph glyph-name="cedilla" unicode="&#xb8;" horiz-adv-x="1081" 
d="M555 -471q-100 0 -163.5 35t-63.5 84q0 27 18.5 46t44.5 19q33 0 50.5 -18.5t24.5 -41t31.5 -41t69.5 -18.5q63 0 97 29t34 76q0 33 -24.5 55.5t-65.5 22.5q-57 0 -90 -33l-51 23l115 272l77 -31l-63 -147q12 12 63 12q76 0 125.5 -39t49.5 -108q0 -78 -76 -137.5
t-203 -59.5z" />
    <glyph glyph-name="uni00B9" unicode="&#xb9;" horiz-adv-x="552" 
d="M178 874l-2 23q55 10 55 55v385h-57l-2 25l129 72h29v-482q0 -45 53 -55l-2 -23h-203z" />
    <glyph glyph-name="ordmasculine" unicode="&#xba;" horiz-adv-x="577" 
d="M295 963q-113 0 -182.5 74.5t-69.5 185.5q0 109 67.5 178t176 69t178.5 -72.5t70 -183t-67 -181t-173 -70.5zM313 1014q57 0 91 46t34 114q0 88 -48 166.5t-122 78.5q-59 0 -95 -45t-36 -114q0 -86 49 -166t127 -80zM72 827v70h450v-70h-450z" />
    <glyph glyph-name="guillemotright" unicode="&#xbb;" horiz-adv-x="1099" 
d="M174 23l-45 28l244 430l-244 432l45 29l397 -414v-92zM573 23l-45 28l244 430l-244 432l45 29l396 -414v-92z" />
    <glyph glyph-name="onequarter" unicode="&#xbc;" horiz-adv-x="512" 
d="M211 1337h-57l-2 25l129 72h28v-482q0 -45 53 -55l-2 -23h-202l-2 23q55 10 55 55v385zM-61 758h634v-80h-634v80zM356 555v-373h93l-11 -43h-82v-63q0 -43 54 -53v-23h-205l-2 23q53 10 53 53v63h-242v33l271 383h71zM72 182h184v256h-2l-182 -254v-2z" />
    <glyph glyph-name="onehalf" unicode="&#xbd;" horiz-adv-x="512" 
d="M211 1337h-57l-2 25l129 72h28v-482q0 -45 53 -55l-2 -23h-202l-2 23q55 10 55 55v385zM-61 758h634v-80h-634v80zM268 76q102 0 170 67l23 -8l-45 -149h-8q-39 14 -101 14h-229v47q6 4 36.5 28.5t38 31t35 30t36.5 32.5t30.5 31.5t30 37t23 37t19.5 41t10 42t5 45.5
q0 59 -27.5 92t-78.5 33q-53 0 -91.5 -35.5t-40.5 -97.5l-32 6q2 76 55 122t129 46q82 0 134 -46t52 -120q0 -104 -72.5 -181t-193.5 -144v-2h92z" />
    <glyph glyph-name="threequarters" unicode="&#xbe;" horiz-adv-x="512" 
d="M242 866q-68 0 -118 23.5t-50 66.5q0 47 45 48q29 0 53.5 -48.5t69.5 -48.5q55 0 86.5 35t31.5 96.5t-35.5 99.5t-99.5 38h-18v38h20q49 0 77 29t28 72q0 39 -24.5 65.5t-74.5 26.5q-45 0 -76.5 -29.5t-33.5 -85.5l-33 4q8 72 54 113t122 41t119 -37t43 -88
q0 -88 -90 -121v-4q51 -10 86 -51t35 -94q0 -82 -58.5 -135.5t-158.5 -53.5zM-61 758h634v-80h-634v80zM356 555v-373h93l-11 -43h-82v-63q0 -43 54 -53v-23h-205l-2 23q53 10 53 53v63h-242v33l271 383h71zM72 182h184v256h-2l-182 -254v-2z" />
    <glyph glyph-name="questiondown" unicode="&#xbf;" horiz-adv-x="976" 
d="M874.5 1204q-55.5 0 -95.5 37t-40 94q0 59 40 97t95.5 38t95.5 -37.5t40 -97.5q0 -57 -40 -94t-95.5 -37zM856 -37q-223 0 -391 185.5t-168 377.5q0 98 38 163t113.5 97.5t163.5 46t215 15.5v211h101v-377h-72q-90 0 -151.5 -6t-131 -24.5t-105.5 -62.5t-36 -112
q0 -135 113.5 -275.5t230.5 -140.5q57 0 93 29t49.5 62.5t46 62.5t86.5 29q37 0 65.5 -30t28.5 -73q0 -86 -82 -132t-207 -46z" />
    <glyph glyph-name="Agrave" unicode="&#xc0;" horiz-adv-x="1261" 
d="M346 1702q-55 45 -55 88q0 27 20.5 47.5t53.5 20.5q45 0 88 -52l165 -239l-53 -43zM1149 168q41 -106 139 -121l-4 -47h-383l-4 47q33 6 53.5 37t1.5 84l-92 250h-555l-92 -250q-20 -53 -1 -84t54 -37l-4 -47h-285l-4 47q41 6 80 36t60 85l411 1110q-35 41 -112 70l2 47
q143 14 239 69h13zM346 530h471l-233 631h-6z" />
    <glyph glyph-name="Aacute" unicode="&#xc1;" horiz-adv-x="1261" 
d="M827 1702l-221 -178l-51 45l166 237q41 53 88 54q33 0 52.5 -20.5t19.5 -49.5q-1 -45 -54 -88zM1149 168q41 -106 139 -121l-4 -47h-383l-4 47q33 6 53.5 37t1.5 84l-92 250h-555l-92 -250q-20 -53 -1 -84t54 -37l-4 -47h-285l-4 47q41 6 80 36t60 85l411 1110
q-35 41 -112 70l2 47q143 14 239 69h13zM346 530h471l-233 631h-6z" />
    <glyph glyph-name="Acircumflex" unicode="&#xc2;" horiz-adv-x="1261" 
d="M631 1657l-281 -144l-41 58l322 256l321 -256l-41 -58zM1149 168q41 -106 139 -121l-4 -47h-383l-4 47q33 6 53.5 37t1.5 84l-92 250h-555l-92 -250q-20 -53 -1 -84t54 -37l-4 -47h-285l-4 47q41 6 80 36t60 85l411 1110q-35 41 -112 70l2 47q143 14 239 69h13zM346 530
h471l-233 631h-6z" />
    <glyph glyph-name="Atilde" unicode="&#xc3;" horiz-adv-x="1261" 
d="M487 1747q-63 0 -79 -88l-64 20q25 184 172 185q53 0 137 -58.5t121 -58.5q63 0 84 86l60 -18q-27 -186 -173 -187q-55 0 -139 59.5t-119 59.5zM1149 168q41 -106 139 -121l-4 -47h-383l-4 47q33 6 53.5 37t1.5 84l-92 250h-555l-92 -250q-20 -53 -1 -84t54 -37l-4 -47
h-285l-4 47q41 6 80 36t60 85l411 1110q-35 41 -112 70l2 47q143 14 239 69h13zM346 530h471l-233 631h-6z" />
    <glyph glyph-name="Adieresis" unicode="&#xc4;" horiz-adv-x="1261" 
d="M459 1634q-49 0 -81 32t-32 75q0 47 32 79.5t81 32.5t80.5 -32.5t31.5 -79.5q0 -43 -31.5 -75t-80.5 -32zM803 1634q-49 0 -81 32t-32 75q0 47 32 79.5t81 32.5t80.5 -32.5t31.5 -79.5q0 -43 -31.5 -75t-80.5 -32zM1149 168q41 -106 139 -121l-4 -47h-383l-4 47
q33 6 53.5 37t1.5 84l-92 250h-555l-92 -250q-20 -53 -1 -84t54 -37l-4 -47h-285l-4 47q41 6 80 36t60 85l411 1110q-35 41 -112 70l2 47q143 14 239 69h13zM346 530h471l-233 631h-6z" />
    <glyph glyph-name="Aring" unicode="&#xc5;" horiz-adv-x="1261" 
d="M621 1538q-92 0 -156 63.5t-64 151.5q0 90 63.5 153.5t156.5 63.5q90 0 153.5 -63.5t63.5 -153.5q0 -88 -64.5 -151.5t-152.5 -63.5zM620.5 1880q-53.5 0 -89 -37t-35.5 -90t35.5 -89t89.5 -36q51 0 87.5 36t36.5 89t-35.5 90t-89 37zM1149 168q41 -106 139 -121l-4 -47
h-383l-4 47q33 6 53.5 37t1.5 84l-92 250h-555l-92 -250q-20 -53 -1 -84t54 -37l-4 -47h-285l-4 47q41 6 80 36t60 85l411 1110q-35 41 -112 70l2 47q143 14 239 69h13zM346 530h471l-233 631h-6z" />
    <glyph glyph-name="AE" unicode="&#xc6;" horiz-adv-x="2377" 
d="M2200 317l55 -22l-98 -326h-17q-72 31 -266 31h-791l-4 45q102 20 103 125v246h-627l2 6l-192 -254q-43 -61 -37 -88t39 -35l-5 -45h-307l-4 45q104 18 187 123l907 1188q-27 25 -66 30l4 48h998l90 -258l-53 -19q-4 8 -13.5 20.5t-46.5 44t-85 56.5t-136 44t-192 19
q-145 0 -273 -20v-522h490q49 0 86 30.5t45 75.5l47 -4l-2 -295l-45 -4q-8 45 -45 76t-84 31h-492v-598q160 -20 354 -21q102 0 189.5 23.5t137.5 57.5t85 66.5t49 57.5zM637 530h545v709h-11z" />
    <glyph glyph-name="Ccedilla" unicode="&#xc7;" horiz-adv-x="1366" 
d="M1303 432q-43 -193 -169 -321.5t-339 -145.5l-47 -104q12 12 63 12q78 0 126 -39t48 -108q0 -78 -75.5 -137.5t-202.5 -59.5q-100 0 -164 35t-64 84q0 27 18.5 46t45.5 19q33 0 51 -18.5t24.5 -41t32 -41t68.5 -18.5q63 0 98 29t35 76q0 33 -24.5 55.5t-65.5 22.5
q-57 0 -92 -33l-49 23l84 196q-281 14 -447 221t-166 504q0 205 80 382t236.5 288.5t359.5 111.5q66 0 153 -18t119 -18q92 0 152 36h18l76 -395l-63 -12q-109 319 -447 319q-182 0 -338.5 -170t-156.5 -438q0 -332 152.5 -502t373.5 -170q303 0 432 351z" />
    <glyph glyph-name="Egrave" unicode="&#xc8;" horiz-adv-x="1255" 
d="M514 1702q-53 43 -53 88q0 29 19.5 48.5t51.5 19.5q49 0 89 -52l165 -239l-51 -43zM1184 317l55 -22l-98 -326h-17q-72 31 -266 31h-790l-5 45q43 8 73 40t30 85v1094q0 53 -30 84.5t-73 37.5l5 48h997l88 -258l-51 -19q-4 8 -13.5 20.5t-47 44t-86 56.5t-135.5 45
t-191 20q-147 0 -275 -20v-524h492q49 0 86 30.5t45 75.5l47 -4l-2 -295l-45 -4q-10 45 -46 76t-85 31h-492v-596q176 -23 357 -23q102 0 189 23.5t137 57.5t85 66.5t49 57.5z" />
    <glyph glyph-name="Eacute" unicode="&#xc9;" horiz-adv-x="1255" 
d="M739 1702l-221 -178l-51 45l166 237q39 51 90 52q33 0 51.5 -19.5t18.5 -48.5q-1 -45 -54 -88zM1184 317l55 -22l-98 -326h-17q-72 31 -266 31h-790l-5 45q43 8 73 40t30 85v1094q0 53 -30 84.5t-73 37.5l5 48h997l88 -258l-51 -19q-4 8 -13.5 20.5t-47 44t-86 56.5
t-135.5 45t-191 20q-147 0 -275 -20v-524h492q49 0 86 30.5t45 75.5l47 -4l-2 -295l-45 -4q-10 45 -46 76t-85 31h-492v-596q176 -23 357 -23q102 0 189 23.5t137 57.5t85 66.5t49 57.5z" />
    <glyph glyph-name="Ecircumflex" unicode="&#xca;" horiz-adv-x="1255" 
d="M629 1657l-281 -144l-43 58l324 256l321 -256l-43 -58zM1184 317l55 -22l-98 -326h-17q-72 31 -266 31h-790l-5 45q43 8 73 40t30 85v1094q0 53 -30 84.5t-73 37.5l5 48h997l88 -258l-51 -19q-4 8 -13.5 20.5t-47 44t-86 56.5t-135.5 45t-191 20q-147 0 -275 -20v-524
h492q49 0 86 30.5t45 75.5l47 -4l-2 -295l-45 -4q-10 45 -46 76t-85 31h-492v-596q176 -23 357 -23q102 0 189 23.5t137 57.5t85 66.5t49 57.5z" />
    <glyph glyph-name="Edieresis" unicode="&#xcb;" horiz-adv-x="1255" 
d="M455 1634q-49 0 -81 32t-32 75q0 47 32 79.5t81 32.5t80.5 -32.5t31.5 -79.5q0 -43 -31.5 -75t-80.5 -32zM799 1634q-49 0 -81 32t-32 75q0 47 32 79.5t81 32.5t80.5 -32.5t31.5 -79.5q0 -43 -31.5 -75t-80.5 -32zM1184 317l55 -22l-98 -326h-17q-72 31 -266 31h-790
l-5 45q43 8 73 40t30 85v1094q0 53 -30 84.5t-73 37.5l5 48h997l88 -258l-51 -19q-4 8 -13.5 20.5t-47 44t-86 56.5t-135.5 45t-191 20q-147 0 -275 -20v-524h492q49 0 86 30.5t45 75.5l47 -4l-2 -295l-45 -4q-10 45 -46 76t-85 31h-492v-596q176 -23 357 -23
q102 0 189 23.5t137 57.5t85 66.5t49 57.5z" />
    <glyph glyph-name="Igrave" unicode="&#xcc;" horiz-adv-x="520" 
d="M266 1524l-221 178q-53 43 -53 88q0 29 19.5 48.5t51.5 19.5q49 0 89 -52l165 -239zM68 0l-5 47q43 6 73 38t30 85v1094q0 53 -30 84.5t-73 37.5l5 48h385l4 -48q-43 -6 -73 -37.5t-30 -84.5v-1094q0 -53 30 -85t73 -38l-4 -47h-385z" />
    <glyph glyph-name="Iacute" unicode="&#xcd;" horiz-adv-x="520" 
d="M250 1524l-51 45l166 237q39 51 90 52q33 0 51 -19.5t18 -48.5q0 -45 -53 -88zM68 0l-5 47q43 6 73 38t30 85v1094q0 53 -30 84.5t-73 37.5l5 48h385l4 -48q-43 -6 -73 -37.5t-30 -84.5v-1094q0 -53 30 -85t73 -38l-4 -47h-385z" />
    <glyph glyph-name="Icircumflex" unicode="&#xce;" horiz-adv-x="520" 
d="M-18 1513l-43 58l323 256l322 -256l-43 -58l-279 144zM68 0l-5 47q43 6 73 38t30 85v1094q0 53 -30 84.5t-73 37.5l5 48h385l4 -48q-43 -6 -73 -37.5t-30 -84.5v-1094q0 -53 30 -85t73 -38l-4 -47h-385z" />
    <glyph glyph-name="Idieresis" unicode="&#xcf;" horiz-adv-x="520" 
d="M88 1634q-49 0 -81 32t-32 75q0 47 32 79.5t81 32.5t81 -32.5t32 -79.5q0 -43 -32 -75t-81 -32zM432 1634q-49 0 -81 32t-32 75q0 47 32 79.5t81 32.5t81 -32.5t32 -79.5q0 -43 -32 -75t-81 -32zM68 0l-5 47q43 6 73 38t30 85v1094q0 53 -30 84.5t-73 37.5l5 48h385
l4 -48q-43 -6 -73 -37.5t-30 -84.5v-1094q0 -53 30 -85t73 -38l-4 -47h-385z" />
    <glyph glyph-name="Eth" unicode="&#xd0;" horiz-adv-x="1466" 
d="M623 1434q324 0 541.5 -212t217.5 -532q0 -313 -187 -501.5t-488 -188.5h-615l-4 45q102 20 102 125v498h-270v96h270v500q0 102 -102 122l4 48h531zM688 90q125 0 224.5 48t158.5 128t90 178.5t31 206.5q0 307 -162 501t-442 194q-121 0 -209 -11v-571h276l2 -96h-278
v-545q147 -33 309 -33z" />
    <glyph glyph-name="Ntilde" unicode="&#xd1;" horiz-adv-x="1372" 
d="M543 1747q-63 0 -80 -88l-64 20q25 184 172 185q55 0 138.5 -58.5t119.5 -58.5q63 0 84 86l60 -18q-27 -186 -172 -187q-55 0 -139 59.5t-119 59.5zM1323 1434l4 -48q-43 -6 -72.5 -37.5t-29.5 -84.5v-1264h-115q-51 135 -140 263t-187.5 228.5t-196 200t-186.5 220
t-138 245.5h-8v-987q0 -53 29.5 -85t72.5 -38l-4 -47h-284l-5 47q41 6 71 38t30 85v1094q0 53 -30 84.5t-71 37.5l5 48h227q57 -133 152.5 -268.5t195.5 -244t196.5 -213t175.5 -215t113 -210.5h7v981q0 53 -29 84.5t-72 37.5l4 48h285z" />
    <glyph glyph-name="Ograve" unicode="&#xd2;" horiz-adv-x="1550" 
d="M770 1524l-221 178q-53 43 -53 88q0 27 19.5 47.5t51.5 20.5q49 0 88 -52l166 -239zM788.5 -37q-292.5 0 -494.5 223.5t-202 532.5q0 328 186.5 539.5t497.5 211.5q289 0 485.5 -221t196.5 -540q0 -311 -188.5 -528.5t-481 -217.5zM829 53q197 0 319 164t122 385
q0 201 -67.5 378t-195.5 288.5t-288 111.5q-203 0 -323 -157.5t-120 -395.5q0 -197 68 -372.5t196.5 -288.5t288.5 -113z" />
    <glyph glyph-name="Oacute" unicode="&#xd3;" horiz-adv-x="1550" 
d="M766 1524l-51 45l166 237q39 51 88 52q33 0 52 -20.5t19 -47.5q0 -45 -53 -88zM788.5 -37q-292.5 0 -494.5 223.5t-202 532.5q0 328 186.5 539.5t497.5 211.5q289 0 485.5 -221t196.5 -540q0 -311 -188.5 -528.5t-481 -217.5zM829 53q197 0 319 164t122 385
q0 201 -67.5 378t-195.5 288.5t-288 111.5q-203 0 -323 -157.5t-120 -395.5q0 -197 68 -372.5t196.5 -288.5t288.5 -113z" />
    <glyph glyph-name="Ocircumflex" unicode="&#xd4;" horiz-adv-x="1550" 
d="M496 1513l-43 58l321 256l322 -256l-41 -58l-281 144zM788.5 -37q-292.5 0 -494.5 223.5t-202 532.5q0 328 186.5 539.5t497.5 211.5q289 0 485.5 -221t196.5 -540q0 -311 -188.5 -528.5t-481 -217.5zM829 53q197 0 319 164t122 385q0 201 -67.5 378t-195.5 288.5
t-288 111.5q-203 0 -323 -157.5t-120 -395.5q0 -197 68 -372.5t196.5 -288.5t288.5 -113z" />
    <glyph glyph-name="Otilde" unicode="&#xd5;" horiz-adv-x="1550" 
d="M889 1628q-53 0 -137 59.5t-119 59.5q-27 0 -50.5 -21.5t-31.5 -66.5l-64 20q14 92 59.5 138.5t112.5 46.5q55 0 140.5 -58.5t120.5 -58.5q61 0 81 86l60 -18q-12 -92 -58 -139.5t-114 -47.5zM788.5 -37q-292.5 0 -494.5 223.5t-202 532.5q0 328 186.5 539.5t497.5 211.5
q289 0 485.5 -221t196.5 -540q0 -311 -188.5 -528.5t-481 -217.5zM829 53q197 0 319 164t122 385q0 201 -67.5 378t-195.5 288.5t-288 111.5q-203 0 -323 -157.5t-120 -395.5q0 -197 68 -372.5t196.5 -288.5t288.5 -113z" />
    <glyph glyph-name="Odieresis" unicode="&#xd6;" horiz-adv-x="1550" 
d="M602 1634q-49 0 -81 32t-32 75q0 47 32 79.5t81 32.5t81 -32.5t32 -79.5q0 -43 -32 -75t-81 -32zM946 1634q-49 0 -80.5 32t-31.5 75q0 47 31.5 79.5t80.5 32.5t81 -32.5t32 -79.5q0 -43 -32 -75t-81 -32zM788.5 -37q-292.5 0 -494.5 223.5t-202 532.5q0 328 186.5 539.5
t497.5 211.5q289 0 485.5 -221t196.5 -540q0 -311 -188.5 -528.5t-481 -217.5zM829 53q197 0 319 164t122 385q0 201 -67.5 378t-195.5 288.5t-288 111.5q-203 0 -323 -157.5t-120 -395.5q0 -197 68 -372.5t196.5 -288.5t288.5 -113z" />
    <glyph glyph-name="multiply" unicode="&#xd7;" horiz-adv-x="1138" 
d="M207 289l-72 69l361 359l-361 356l72 70l360 -357l363 357l71 -70l-364 -356l364 -359l-71 -69l-363 358z" />
    <glyph glyph-name="Oslash" unicode="&#xd8;" horiz-adv-x="1550" 
d="M1110 1343q139 -102 219 -269t80 -363q0 -311 -187.5 -529.5t-480.5 -218.5q-176 0 -325 86l-78 -143l-76 43l80 149q-137 106 -218 270t-81 351q0 328 186.5 539.5t497.5 211.5q166 0 309 -79l74 137l78 -39zM227 827q0 -166 50.5 -320.5t142.5 -264.5l547 1020
q-135 119 -297 118q-203 0 -323 -157.5t-120 -395.5zM780 53q197 0 320 165t123 386q0 354 -193 590l-549 -1020q133 -121 299 -121z" />
    <glyph glyph-name="Ugrave" unicode="&#xd9;" horiz-adv-x="1300" 
d="M678 1524l-221 178q-53 43 -54 88q0 27 19.5 47.5t52.5 20.5q49 0 88 -52l168 -239zM664 -37q-301 0 -459 163t-131 452l59 686q4 53 -21.5 84.5t-66.5 37.5l4 48h389l4 -48q-43 -6 -75.5 -37.5t-36.5 -84.5l-60 -684q-23 -238 89 -382.5t331 -144.5q233 0 348 144.5
t92 382.5l-57 675q-4 49 -40 86t-81 45l4 48h295l4 -48q-43 -10 -68.5 -45.5t-23.5 -85.5l60 -677q23 -276 -124.5 -445.5t-434.5 -169.5z" />
    <glyph glyph-name="Uacute" unicode="&#xda;" horiz-adv-x="1300" 
d="M662 1524l-54 45l166 237q43 51 90 52q33 0 52.5 -20.5t19.5 -47.5q0 -43 -55 -88zM664 -37q-301 0 -459 163t-131 452l59 686q4 53 -21.5 84.5t-66.5 37.5l4 48h389l4 -48q-43 -6 -75.5 -37.5t-36.5 -84.5l-60 -684q-23 -238 89 -382.5t331 -144.5q233 0 348 144.5
t92 382.5l-57 675q-4 49 -40 86t-81 45l4 48h295l4 -48q-43 -10 -68.5 -45.5t-23.5 -85.5l60 -677q23 -276 -124.5 -445.5t-434.5 -169.5z" />
    <glyph glyph-name="Ucircumflex" unicode="&#xdb;" horiz-adv-x="1300" 
d="M369 1513l-41 58l321 256l322 -256l-41 -58l-281 144zM664 -37q-301 0 -459 163t-131 452l59 686q4 53 -21.5 84.5t-66.5 37.5l4 48h389l4 -48q-43 -6 -75.5 -37.5t-36.5 -84.5l-60 -684q-23 -238 89 -382.5t331 -144.5q233 0 348 144.5t92 382.5l-57 675q-4 49 -40 86
t-81 45l4 48h295l4 -48q-43 -10 -68.5 -45.5t-23.5 -85.5l60 -677q23 -276 -124.5 -445.5t-434.5 -169.5z" />
    <glyph glyph-name="Udieresis" unicode="&#xdc;" horiz-adv-x="1300" 
d="M477 1634q-47 0 -79.5 32t-32.5 75q0 47 31.5 79.5t80.5 32.5t81 -32.5t32 -79.5q0 -43 -32 -75t-81 -32zM823 1634q-49 0 -80.5 32t-31.5 75q0 47 31.5 79.5t80.5 32.5t81 -32.5t32 -79.5q0 -43 -32 -75t-81 -32zM664 -37q-301 0 -459 163t-131 452l59 686
q4 53 -21.5 84.5t-66.5 37.5l4 48h389l4 -48q-43 -6 -75.5 -37.5t-36.5 -84.5l-60 -684q-23 -238 89 -382.5t331 -144.5q233 0 348 144.5t92 382.5l-57 675q-4 49 -40 86t-81 45l4 48h295l4 -48q-43 -10 -68.5 -45.5t-23.5 -85.5l60 -677q23 -276 -124.5 -445.5
t-434.5 -169.5z" />
    <glyph glyph-name="Yacute" unicode="&#xdd;" horiz-adv-x="1243" 
d="M655 1524l-51 45l166 237q39 51 88 52q33 0 52.5 -20.5t19.5 -47.5q0 -45 -53 -88zM430 0l-4 47q41 6 70.5 38t29.5 85v524l-389 570q-74 111 -164 122l4 48h420l4 -48q-41 -8 -56 -36.5t15 -85.5l310 -445h12l305 445q33 57 17.5 85.5t-54.5 36.5l4 48h312l4 -48
q-90 -12 -164 -122l-391 -570v-524q0 -53 30.5 -85t71.5 -38l-4 -47h-383z" />
    <glyph glyph-name="Thorn" unicode="&#xde;" horiz-adv-x="1271" 
d="M668 1141q266 0 411.5 -114t145.5 -312q0 -197 -145.5 -310.5t-411.5 -113.5h-301v-121q0 -53 28.5 -85t71.5 -40l-4 -45h-383l-4 45q43 8 71.5 40t28.5 85v1094q0 53 -29.5 83.5t-70.5 38.5l4 48h383l4 -48q-41 -8 -70.5 -38.5t-29.5 -83.5v-123h301zM608 381
q201 0 312.5 87t111.5 247q0 162 -111.5 250t-312.5 88q-127 0 -241 -17v-637q106 -18 241 -18z" />
    <glyph glyph-name="germandbls" unicode="&#xdf;" horiz-adv-x="1288" 
d="M1055 612q61 -57 87.5 -83.5t60.5 -93t34 -140.5q0 -160 -110.5 -246t-290.5 -86q-260 0 -261 121q0 39 28 62.5t67 23.5q61 0 114.5 -61.5t96.5 -61.5q102 0 156.5 55.5t54.5 153.5q0 27 -10.5 55.5t-24 49t-38 49t-38.5 41t-43 39t-33 30.5q-2 2 -31.5 27.5t-36 32
t-32 31t-34.5 36.5t-26.5 38t-24.5 45.5t-13.5 46t-6.5 52.5q0 100 69 166t173 78q27 45 27 111q0 106 -70 180t-176 74q-324 0 -324 -459l2 -809q0 -104 103 -125l-4 -45h-383l-4 45q102 20 102 125v799h-233v100h237q23 221 149 342t353 121q176 0 300 -93t124 -247
q0 -104 -53 -172q-90 -8 -150.5 -53t-60.5 -125q0 -37 20.5 -73t41 -57.5t60.5 -54.5t52 -45z" />
    <glyph glyph-name="agrave" unicode="&#xe0;" horiz-adv-x="1110" 
d="M291 1337q-53 43 -53 88q0 27 19 47.5t52 20.5q49 0 88 -51l168 -240l-53 -43zM1112 74l21 -39q-59 -72 -162 -72q-158 0 -193 184h-8q-53 -94 -151.5 -139t-200.5 -45q-158 0 -259.5 80t-101.5 219q0 92 49.5 165t143.5 123t204.5 83t260.5 59l-13 107q-10 98 -66 159.5
t-142 61.5q-84 0 -140.5 -46t-54.5 -114q4 -51 -22.5 -78.5t-65.5 -27.5q-43 0 -67.5 25.5t-24.5 70.5q2 96 103.5 176t273.5 80q145 0 254.5 -88t128.5 -250l63 -575q16 -143 94 -144q33 0 76 25zM477 61q115 0 197 82t84 187l-35 295q-221 -37 -352 -122t-131 -220
q0 -100 66.5 -161t170.5 -61z" />
    <glyph glyph-name="aacute" unicode="&#xe1;" horiz-adv-x="1110" 
d="M700 1337l-221 -178l-51 45l166 238q39 51 88 51q33 0 52.5 -20.5t19.5 -47.5q-1 -45 -54 -88zM1112 74l21 -39q-59 -72 -162 -72q-158 0 -193 184h-8q-53 -94 -151.5 -139t-200.5 -45q-158 0 -259.5 80t-101.5 219q0 92 49.5 165t143.5 123t204.5 83t260.5 59l-13 107
q-10 98 -66 159.5t-142 61.5q-84 0 -140.5 -46t-54.5 -114q4 -51 -22.5 -78.5t-65.5 -27.5q-43 0 -67.5 25.5t-24.5 70.5q2 96 103.5 176t273.5 80q145 0 254.5 -88t128.5 -250l63 -575q16 -143 94 -144q33 0 76 25zM477 61q115 0 197 82t84 187l-35 295q-221 -37 -352 -122
t-131 -220q0 -100 66.5 -161t170.5 -61z" />
    <glyph glyph-name="acircumflex" unicode="&#xe2;" horiz-adv-x="1110" 
d="M504 1292l-281 -143l-41 57l322 256l321 -256l-41 -57zM1112 74l21 -39q-59 -72 -162 -72q-158 0 -193 184h-8q-53 -94 -151.5 -139t-200.5 -45q-158 0 -259.5 80t-101.5 219q0 92 49.5 165t143.5 123t204.5 83t260.5 59l-13 107q-10 98 -66 159.5t-142 61.5
q-84 0 -140.5 -46t-54.5 -114q4 -51 -22.5 -78.5t-65.5 -27.5q-43 0 -67.5 25.5t-24.5 70.5q2 96 103.5 176t273.5 80q145 0 254.5 -88t128.5 -250l63 -575q16 -143 94 -144q33 0 76 25zM477 61q115 0 197 82t84 187l-35 295q-221 -37 -352 -122t-131 -220q0 -100 66.5 -161
t170.5 -61z" />
    <glyph glyph-name="atilde" unicode="&#xe3;" horiz-adv-x="1110" 
d="M426 1382q-63 0 -80 -88l-63 21q12 92 58 138t114 46q55 0 139 -58.5t121 -58.5q61 0 82 86l59 -18q-27 -186 -172 -186q-55 0 -138 59t-120 59zM1112 74l21 -39q-59 -72 -162 -72q-158 0 -193 184h-8q-53 -94 -151.5 -139t-200.5 -45q-158 0 -259.5 80t-101.5 219
q0 92 49.5 165t143.5 123t204.5 83t260.5 59l-13 107q-10 98 -66 159.5t-142 61.5q-84 0 -140.5 -46t-54.5 -114q4 -51 -22.5 -78.5t-65.5 -27.5q-43 0 -67.5 25.5t-24.5 70.5q2 96 103.5 176t273.5 80q145 0 254.5 -88t128.5 -250l63 -575q16 -143 94 -144q33 0 76 25z
M477 61q115 0 197 82t84 187l-35 295q-221 -37 -352 -122t-131 -220q0 -100 66.5 -161t170.5 -61z" />
    <glyph glyph-name="adieresis" unicode="&#xe4;" horiz-adv-x="1110" 
d="M395 1270q-47 0 -79.5 31.5t-32.5 74.5q0 47 31.5 80t80.5 33t81 -33t32 -80q0 -43 -32 -74.5t-81 -31.5zM741.5 1270q-49.5 0 -81 31.5t-31.5 74.5q0 47 31.5 80t81 33t81 -33t31.5 -80q0 -43 -31.5 -74.5t-81 -31.5zM1112 74l21 -39q-59 -72 -162 -72q-158 0 -193 184
h-8q-53 -94 -151.5 -139t-200.5 -45q-158 0 -259.5 80t-101.5 219q0 92 49.5 165t143.5 123t204.5 83t260.5 59l-13 107q-10 98 -66 159.5t-142 61.5q-84 0 -140.5 -46t-54.5 -114q4 -51 -22.5 -78.5t-65.5 -27.5q-43 0 -67.5 25.5t-24.5 70.5q2 96 103.5 176t273.5 80
q145 0 254.5 -88t128.5 -250l63 -575q16 -143 94 -144q33 0 76 25zM477 61q115 0 197 82t84 187l-35 295q-221 -37 -352 -122t-131 -220q0 -100 66.5 -161t170.5 -61z" />
    <glyph glyph-name="aring" unicode="&#xe5;" horiz-adv-x="1110" 
d="M522 1174q-92 0 -155.5 63t-63.5 152q0 90 63.5 153.5t155.5 63.5q90 0 153.5 -63.5t63.5 -153.5q0 -88 -64.5 -151.5t-152.5 -63.5zM522 1516q-53 0 -89 -37t-36 -90.5t36 -89t89 -35.5q51 0 88 35.5t37 89t-36 90.5t-89 37zM1112 74l21 -39q-59 -72 -162 -72
q-158 0 -193 184h-8q-53 -94 -151.5 -139t-200.5 -45q-158 0 -259.5 80t-101.5 219q0 92 49.5 165t143.5 123t204.5 83t260.5 59l-13 107q-10 98 -66 159.5t-142 61.5q-84 0 -140.5 -46t-54.5 -114q4 -51 -22.5 -78.5t-65.5 -27.5q-43 0 -67.5 25.5t-24.5 70.5
q2 96 103.5 176t273.5 80q145 0 254.5 -88t128.5 -250l63 -575q16 -143 94 -144q33 0 76 25zM477 61q115 0 197 82t84 187l-35 295q-221 -37 -352 -122t-131 -220q0 -100 66.5 -161t170.5 -61z" />
    <glyph glyph-name="ae" unicode="&#xe6;" horiz-adv-x="1900" 
d="M1403 94q125 0 218 72t136 168l47 -17q-31 -143 -158.5 -248.5t-318.5 -105.5q-145 0 -271 75t-196 208h-10q-45 -117 -164 -200t-262 -83q-172 0 -271.5 71.5t-99.5 192.5q0 68 24.5 122t75 92t111 66t147.5 46t169 28.5t190 18.5l-25 199q-10 96 -76.5 157.5
t-156.5 61.5q-98 0 -156.5 -46t-60.5 -118q0 -51 -24.5 -75.5t-63.5 -24.5q-41 0 -67.5 26.5t-24.5 69.5q2 96 103 176t282 80q117 0 222 -62.5t148 -175.5h11q72 111 185.5 173.5t250.5 64.5q176 0 286.5 -80t157.5 -197q33 -88 68 -100l12 -65l-893 -134
q14 -207 136 -321.5t319 -114.5zM1300 1020q-147 0 -245.5 -116t-108.5 -286l680 99q-14 125 -99.5 214t-226.5 89zM459 66q115 0 214 85t126 201l-21 174q-121 -10 -209 -25.5t-169 -44t-122.5 -78.5t-41.5 -122q0 -88 62.5 -139t160.5 -51z" />
    <glyph glyph-name="ccedilla" unicode="&#xe7;" horiz-adv-x="1140" 
d="M1090 317q-31 -137 -140.5 -240.5t-283.5 -113.5l-45 -102q12 12 63 12q76 0 125 -39t49 -108q0 -78 -75.5 -137.5t-202.5 -59.5q-100 0 -164 35t-64 84q0 27 18.5 46t45.5 19q33 0 51 -18.5t24.5 -41t32 -41t68.5 -18.5q63 0 97 29t34 76q0 33 -23.5 55.5t-64.5 22.5
q-59 0 -92 -33l-49 23l81 198q-215 23 -358 184.5t-143 391.5q0 254 158.5 409.5t398.5 155.5q188 0 314 -94t126 -197q0 -37 -24.5 -65.5t-63.5 -28.5q-37 0 -60.5 22.5t-34.5 56.5t-31.5 72.5t-46.5 72.5t-81 56.5t-135 22.5q-141 0 -246.5 -119t-105.5 -291
q0 -250 121.5 -385t332.5 -135q113 0 207 72t139 166z" />
    <glyph glyph-name="egrave" unicode="&#xe8;" horiz-adv-x="1214" 
d="M473 1337q-53 43 -53 88q0 27 19.5 47.5t52.5 20.5q49 0 88 -51l165 -240l-51 -43zM705 94q123 0 217 72t135 168l47 -17q-29 -141 -158 -247.5t-321 -106.5q-231 0 -391 163t-160 419q0 244 155.5 402.5t386.5 158.5q178 0 291 -81t158 -198q29 -74 65 -86l11 -67
l-881 -228q35 -168 151 -260t294 -92zM602 1020q-156 0 -256 -126t-100 -304q0 -39 2 -58l678 177q-14 125 -99.5 218t-224.5 93z" />
    <glyph glyph-name="eacute" unicode="&#xe9;" horiz-adv-x="1214" 
d="M729 1337l-221 -178l-51 45l166 238q39 51 90 51q33 0 51 -19.5t18 -48.5q0 -45 -53 -88zM705 94q123 0 217 72t135 168l47 -17q-29 -141 -158 -247.5t-321 -106.5q-231 0 -391 163t-160 419q0 244 155.5 402.5t386.5 158.5q178 0 291 -81t158 -198q29 -74 65 -86l11 -67
l-881 -228q35 -168 151 -260t294 -92zM602 1020q-156 0 -256 -126t-100 -304q0 -39 2 -58l678 177q-14 125 -99.5 218t-224.5 93z" />
    <glyph glyph-name="ecircumflex" unicode="&#xea;" horiz-adv-x="1214" 
d="M606 1292l-280 -143l-43 57l323 256l322 -256l-43 -57zM705 94q123 0 217 72t135 168l47 -17q-29 -141 -158 -247.5t-321 -106.5q-231 0 -391 163t-160 419q0 244 155.5 402.5t386.5 158.5q178 0 291 -81t158 -198q29 -74 65 -86l11 -67l-881 -228q35 -168 151 -260
t294 -92zM602 1020q-156 0 -256 -126t-100 -304q0 -39 2 -58l678 177q-14 125 -99.5 218t-224.5 93z" />
    <glyph glyph-name="edieresis" unicode="&#xeb;" horiz-adv-x="1214" 
d="M434 1270q-49 0 -80.5 31.5t-31.5 74.5q0 47 31.5 80t80.5 33t81 -33t32 -80q0 -43 -32 -74.5t-81 -31.5zM778 1270q-49 0 -80.5 31.5t-31.5 74.5q0 47 31.5 80t80.5 33t81 -33t32 -80q0 -43 -32 -74.5t-81 -31.5zM705 94q123 0 217 72t135 168l47 -17
q-29 -141 -158 -247.5t-321 -106.5q-231 0 -391 163t-160 419q0 244 155.5 402.5t386.5 158.5q178 0 291 -81t158 -198q29 -74 65 -86l11 -67l-881 -228q35 -168 151 -260t294 -92zM602 1020q-156 0 -256 -126t-100 -304q0 -39 2 -58l678 177q-14 125 -99.5 218t-224.5 93z
" />
    <glyph glyph-name="igrave" unicode="&#xec;" 
d="M225 1159l-221 178q-53 43 -53 88q0 29 19.5 48.5t52.5 19.5q49 0 88 -51l165 -240zM59 0l-4 45q41 8 72 40t31 83v643q0 53 -31 85t-72 38l4 47q37 4 104.5 35t137.5 90h25v-938q0 -51 29.5 -83t70.5 -40l-4 -45h-363z" />
    <glyph glyph-name="iacute" unicode="&#xed;" 
d="M172 1159l-51 45l166 238q39 51 90 51q33 0 51 -19.5t18 -48.5q0 -45 -53 -88zM59 0l-4 45q41 8 72 40t31 83v643q0 53 -31 85t-72 38l4 47q37 4 104.5 35t137.5 90h25v-938q0 -51 29.5 -83t70.5 -40l-4 -45h-363z" />
    <glyph glyph-name="icircumflex" unicode="&#xee;" 
d="M-39 1149l-41 57l322 256l321 -256l-41 -57l-280 143zM59 0l-4 45q41 8 72 40t31 83v643q0 53 -31 85t-72 38l4 47q37 4 104.5 35t137.5 90h25v-938q0 -51 29.5 -83t70.5 -40l-4 -45h-363z" />
    <glyph glyph-name="idieresis" unicode="&#xef;" 
d="M69.5 1270q-49.5 0 -81 31.5t-31.5 74.5q0 47 31.5 80t81 33t81 -33t31.5 -80q0 -43 -31.5 -74.5t-81 -31.5zM414 1270q-49 0 -81 31.5t-32 74.5q0 47 32 80t81 33t80.5 -33t31.5 -80q0 -43 -31.5 -74.5t-80.5 -31.5zM59 0l-4 45q41 8 72 40t31 83v643q0 53 -31 85
t-72 38l4 47q37 4 104.5 35t137.5 90h25v-938q0 -51 29.5 -83t70.5 -40l-4 -45h-363z" />
    <glyph glyph-name="eth" unicode="&#xf0;" horiz-adv-x="1198" 
d="M625 -37q-254 0 -409 162t-155 410q0 246 150.5 408.5t388.5 162.5q176 0 309 -113l9 2q-43 223 -127 369l-291 -115l-29 68l285 113q-45 76 -109 149l64 59q90 -76 161 -163l277 106l29 -68l-254 -100q217 -289 217 -745q0 -336 -135 -520.5t-381 -184.5zM625 51
q176 0 250.5 153.5t74.5 434.5q0 115 -12 215q-129 164 -324 164q-182 0 -275 -132t-93 -360q0 -211 96.5 -343t282.5 -132z" />
    <glyph glyph-name="ntilde" unicode="&#xf1;" horiz-adv-x="1259" 
d="M487 1382q-66 0 -81 -88l-64 21q14 92 59 138t113 46q55 0 140 -58.5t120 -58.5q61 0 82 86l59 -18q-12 -92 -58 -139t-114 -47q-55 0 -138 59t-118 59zM1094 168q2 -51 34.5 -83t75.5 -40l-6 -45h-362l-5 45q43 8 70 40t23 83l-35 496q-10 166 -83 254t-192 88
q-121 0 -205.5 -84t-84.5 -205v-549q0 -51 29.5 -83t72.5 -40l-6 -45h-361l-4 45q41 8 71 40t30 83v641q0 53 -30 85t-71 38l4 45q104 18 238 129h22l3 -178h8q113 178 321 178q178 0 287 -113.5t123 -337.5z" />
    <glyph glyph-name="ograve" unicode="&#xf2;" horiz-adv-x="1247" 
d="M647 1159l-221 178q-53 43 -53 88q0 27 19.5 47.5t51.5 20.5q49 0 88 -51l168 -240zM641 -37q-248 0 -407.5 171t-159.5 417q0 240 154.5 397.5t392.5 157.5q242 0 397.5 -166t155.5 -416q0 -244 -147.5 -402.5t-385.5 -158.5zM676 55q145 0 239.5 116t94.5 288
q0 217 -120 387t-304 170q-152 0 -249 -114t-97 -290q0 -211 123 -384t313 -173z" />
    <glyph glyph-name="oacute" unicode="&#xf3;" horiz-adv-x="1247" 
d="M573 1159l-51 45l166 238q39 51 90 51q33 0 51.5 -19.5t18.5 -48.5q0 -45 -53 -88zM641 -37q-248 0 -407.5 171t-159.5 417q0 240 154.5 397.5t392.5 157.5q242 0 397.5 -166t155.5 -416q0 -244 -147.5 -402.5t-385.5 -158.5zM676 55q145 0 239.5 116t94.5 288
q0 217 -120 387t-304 170q-152 0 -249 -114t-97 -290q0 -211 123 -384t313 -173z" />
    <glyph glyph-name="ocircumflex" unicode="&#xf4;" horiz-adv-x="1247" 
d="M344 1149l-43 57l322 256l321 -256l-41 -57l-280 143zM641 -37q-248 0 -407.5 171t-159.5 417q0 240 154.5 397.5t392.5 157.5q242 0 397.5 -166t155.5 -416q0 -244 -147.5 -402.5t-385.5 -158.5zM676 55q145 0 239.5 116t94.5 288q0 217 -120 387t-304 170
q-152 0 -249 -114t-97 -290q0 -211 123 -384t313 -173z" />
    <glyph glyph-name="otilde" unicode="&#xf5;" horiz-adv-x="1247" 
d="M737 1264q-53 0 -137 59t-119 59q-27 0 -50 -21.5t-32 -66.5l-63 21q14 92 59 138t113 46q55 0 140 -58.5t120 -58.5q61 0 82 86l59 -18q-12 -92 -58 -139t-114 -47zM641 -37q-248 0 -407.5 171t-159.5 417q0 240 154.5 397.5t392.5 157.5q242 0 397.5 -166t155.5 -416
q0 -244 -147.5 -402.5t-385.5 -158.5zM676 55q145 0 239.5 116t94.5 288q0 217 -120 387t-304 170q-152 0 -249 -114t-97 -290q0 -211 123 -384t313 -173z" />
    <glyph glyph-name="odieresis" unicode="&#xf6;" horiz-adv-x="1247" 
d="M451 1270q-47 0 -80 31.5t-33 74.5q0 47 31.5 80t81 33t82 -33t32.5 -80q0 -43 -32.5 -74.5t-81.5 -31.5zM797 1270q-49 0 -81 31.5t-32 74.5q0 47 32 80t81 33t80.5 -33t31.5 -80q0 -43 -31.5 -74.5t-80.5 -31.5zM641 -37q-248 0 -407.5 171t-159.5 417
q0 240 154.5 397.5t392.5 157.5q242 0 397.5 -166t155.5 -416q0 -244 -147.5 -402.5t-385.5 -158.5zM676 55q145 0 239.5 116t94.5 288q0 217 -120 387t-304 170q-152 0 -249 -114t-97 -290q0 -211 123 -384t313 -173z" />
    <glyph glyph-name="divide" unicode="&#xf7;" horiz-adv-x="1146" 
d="M571 952q-55 0 -90 35t-35 88q0 51 35 85t90.5 34t91 -34t35.5 -85q0 -53 -35 -88t-92 -35zM20 668v100h1106v-100h-1106zM571 240q-55 0 -90 33.5t-35 87t35 88t90.5 34.5t91 -34.5t35.5 -88t-35 -87t-92 -33.5z" />
    <glyph glyph-name="oslash" unicode="&#xf8;" horiz-adv-x="1249" 
d="M930 1016q117 -78 182.5 -207t65.5 -285q0 -244 -148.5 -402.5t-386.5 -158.5q-135 0 -248 53l-57 -106l-76 43l57 108q-115 78 -179 207t-64 283q0 240 154.5 397.5t392.5 157.5q123 0 233 -49l57 106l76 -39zM240 612q0 -246 151 -419l406 753q-96 70 -207 70
q-154 0 -252 -114t-98 -290zM678 53q145 0 239.5 116t94.5 290q0 258 -152 426l-403 -754q100 -78 221 -78z" />
    <glyph glyph-name="ugrave" unicode="&#xf9;" horiz-adv-x="1208" 
d="M408 1337q-53 43 -54 88q0 27 19.5 47.5t52.5 20.5q49 0 88 -51l168 -240l-53 -43zM1053 170q0 -53 29.5 -85t70.5 -38l-4 -47q-133 -14 -223 -37h-23l-10 187h-16q-125 -186 -338 -187q-186 0 -294 113.5t-108 335.5v399q0 53 -29.5 85t-70.5 38l4 47q104 12 244 125h22
v-700q0 -166 74 -254.5t205 -88.5q123 0 211 83t88 208v457q0 53 -31 86t-72 39l4 45q119 20 244 125h23v-936z" />
    <glyph glyph-name="uacute" unicode="&#xfa;" horiz-adv-x="1208" 
d="M819 1337l-221 -178l-51 45l166 238q39 51 88 51q33 0 52 -20.5t19 -47.5q0 -45 -53 -88zM1053 170q0 -53 29.5 -85t70.5 -38l-4 -47q-133 -14 -223 -37h-23l-10 187h-16q-125 -186 -338 -187q-186 0 -294 113.5t-108 335.5v399q0 53 -29.5 85t-70.5 38l4 47
q104 12 244 125h22v-700q0 -166 74 -254.5t205 -88.5q123 0 211 83t88 208v457q0 53 -31 86t-72 39l4 45q119 20 244 125h23v-936z" />
    <glyph glyph-name="ucircumflex" unicode="&#xfb;" horiz-adv-x="1208" 
d="M604 1292l-280 -143l-41 57l321 256l322 -256l-41 -57zM1053 170q0 -53 29.5 -85t70.5 -38l-4 -47q-133 -14 -223 -37h-23l-10 187h-16q-125 -186 -338 -187q-186 0 -294 113.5t-108 335.5v399q0 53 -29.5 85t-70.5 38l4 47q104 12 244 125h22v-700q0 -166 74 -254.5
t205 -88.5q123 0 211 83t88 208v457q0 53 -31 86t-72 39l4 45q119 20 244 125h23v-936z" />
    <glyph glyph-name="udieresis" unicode="&#xfc;" horiz-adv-x="1208" 
d="M432 1270q-49 0 -81 31.5t-32 74.5q0 47 32 80t81 33t81 -33t32 -80q0 -43 -32 -74.5t-81 -31.5zM776 1270q-49 0 -80.5 31.5t-31.5 74.5q0 47 31.5 80t80.5 33t81 -33t32 -80q0 -43 -32 -74.5t-81 -31.5zM1053 170q0 -53 29.5 -85t70.5 -38l-4 -47q-133 -14 -223 -37
h-23l-10 187h-16q-125 -186 -338 -187q-186 0 -294 113.5t-108 335.5v399q0 53 -29.5 85t-70.5 38l4 47q104 12 244 125h22v-700q0 -166 74 -254.5t205 -88.5q123 0 211 83t88 208v457q0 53 -31 86t-72 39l4 45q119 20 244 125h23v-936z" />
    <glyph glyph-name="yacute" unicode="&#xfd;" horiz-adv-x="1046" 
d="M739 1337l-221 -178l-51 45l166 238q39 51 88 51q33 0 52.5 -20.5t19.5 -47.5q-1 -45 -54 -88zM874 1106q66 0 101 -45t35 -111q0 -150 -168 -495q-152 -332 -271 -539q-106 -199 -185 -286t-165 -87q-55 0 -96 35t-41 86t30.5 80t75.5 29q33 0 70 -24.5t55 -24.5
q37 0 77 50t110 181q8 16 24 45h-45l-315 809q-45 117 -176 125l4 45q35 6 99.5 41t111.5 86h26l371 -946h10v-2q84 164 154 334q80 166 100.5 227t18.5 106q0 31 -19.5 52.5t-43 32t-43 36t-19.5 62.5q0 45 32.5 71.5t81.5 26.5z" />
    <glyph glyph-name="thorn" unicode="&#xfe;" horiz-adv-x="1234" 
d="M674 1106q223 0 370.5 -166t147.5 -414q0 -244 -138.5 -403.5t-357.5 -159.5q-227 0 -377 195h-6v-406q0 -100 101 -125l-4 -45h-365l-4 45q102 25 102 125v1512q0 104 -102 125l4 47q135 14 281 127l22 -11q-35 -111 -35 -362v-250h9q137 166 352 166zM711 55
q137 0 227 116t90 290q0 221 -110.5 388t-282.5 167q-143 0 -232.5 -112.5t-89.5 -291.5q0 -217 110 -387t288 -170z" />
    <glyph glyph-name="ydieresis" unicode="&#xff;" horiz-adv-x="1046" 
d="M350 1270q-49 0 -80.5 31.5t-31.5 74.5q0 47 31.5 80t80.5 33t81 -33t32 -80q0 -43 -32 -74.5t-81 -31.5zM694 1270q-49 0 -80.5 31.5t-31.5 74.5q0 47 31.5 80t80.5 33t81 -33t32 -80q0 -43 -32 -74.5t-81 -31.5zM874 1106q66 0 101 -45t35 -111q0 -150 -168 -495
q-152 -332 -271 -539q-106 -199 -185 -286t-165 -87q-55 0 -96 35t-41 86t30.5 80t75.5 29q33 0 70 -24.5t55 -24.5q37 0 77 50t110 181q8 16 24 45h-45l-315 809q-45 117 -176 125l4 45q35 6 99.5 41t111.5 86h26l371 -946h10v-2q84 164 154 334q80 166 100.5 227t18.5 106
q0 31 -19.5 52.5t-43 32t-43 36t-19.5 62.5q0 45 32.5 71.5t81.5 26.5z" />
    <glyph glyph-name="Amacron" unicode="&#x100;" horiz-adv-x="1261" 
d="M899 1776v-109h-537v109h537zM1149 168q41 -106 139 -121l-4 -47h-383l-4 47q33 6 53.5 37t1.5 84l-92 250h-555l-92 -250q-20 -53 -1 -84t54 -37l-4 -47h-285l-4 47q41 6 80 36t60 85l411 1110q-35 41 -112 70l2 47q143 14 239 69h13zM346 530h471l-233 631h-6z" />
    <glyph glyph-name="amacron" unicode="&#x101;" horiz-adv-x="1110" 
d="M838 1411v-108h-537v108h537zM1112 74l21 -39q-59 -72 -162 -72q-158 0 -193 184h-8q-53 -94 -151.5 -139t-200.5 -45q-158 0 -259.5 80t-101.5 219q0 92 49.5 165t143.5 123t204.5 83t260.5 59l-13 107q-10 98 -66 159.5t-142 61.5q-84 0 -140.5 -46t-54.5 -114
q4 -51 -22.5 -78.5t-65.5 -27.5q-43 0 -67.5 25.5t-24.5 70.5q2 96 103.5 176t273.5 80q145 0 254.5 -88t128.5 -250l63 -575q16 -143 94 -144q33 0 76 25zM477 61q115 0 197 82t84 187l-35 295q-221 -37 -352 -122t-131 -220q0 -100 66.5 -161t170.5 -61z" />
    <glyph glyph-name="Abreve" unicode="&#x102;" horiz-adv-x="1261" 
d="M631 1587q-213 0 -281 201l70 31q23 -47 80 -84t131 -37q68 0 129 37t82 84l67 -31q-67 -201 -278 -201zM1149 168q41 -106 139 -121l-4 -47h-383l-4 47q33 6 53.5 37t1.5 84l-92 250h-555l-92 -250q-20 -53 -1 -84t54 -37l-4 -47h-285l-4 47q41 6 80 36t60 85l411 1110
q-35 41 -112 70l2 47q143 14 239 69h13zM346 530h471l-233 631h-6z" />
    <glyph glyph-name="abreve" unicode="&#x103;" horiz-adv-x="1110" 
d="M569 1223q-213 0 -280 200l69 31q23 -47 81.5 -84t129.5 -37q68 0 129.5 37t81.5 84l70 -31q-72 -200 -281 -200zM1112 74l21 -39q-59 -72 -162 -72q-158 0 -193 184h-8q-53 -94 -151.5 -139t-200.5 -45q-158 0 -259.5 80t-101.5 219q0 92 49.5 165t143.5 123t204.5 83
t260.5 59l-13 107q-10 98 -66 159.5t-142 61.5q-84 0 -140.5 -46t-54.5 -114q4 -51 -22.5 -78.5t-65.5 -27.5q-43 0 -67.5 25.5t-24.5 70.5q2 96 103.5 176t273.5 80q145 0 254.5 -88t128.5 -250l63 -575q16 -143 94 -144q33 0 76 25zM477 61q115 0 197 82t84 187l-35 295
q-221 -37 -352 -122t-131 -220q0 -100 66.5 -161t170.5 -61z" />
    <glyph glyph-name="Aogonek" unicode="&#x104;" horiz-adv-x="1261" 
d="M1325 -246l61 -33q-80 -156 -256 -155q-98 0 -164.5 53t-66.5 143q0 135 137 238h-135l-4 47q33 6 53.5 37t1.5 84l-92 250h-555l-92 -250q-20 -53 -1 -84t54 -37l-4 -47h-285l-4 47q41 6 80 36t60 85l411 1110q-35 41 -112 70l2 47q143 14 239 69h13l483 -1296
q41 -106 139 -121l-4 -47h-113q-63 -33 -100 -89t-37 -115.5t42 -99.5t98 -40q98 0 151 98zM346 530h471l-233 631h-6z" />
    <glyph glyph-name="aogonek" unicode="&#x105;" horiz-adv-x="1200" 
d="M1159 -246l64 -33q-82 -156 -256 -155q-100 0 -166 53t-66 143q0 131 133 228q-70 45 -90 157h-8q-53 -94 -151.5 -139t-200.5 -45q-158 0 -259.5 80t-101.5 219q0 92 49.5 165t143.5 123t204.5 83t260.5 59l-13 107q-10 98 -66 159.5t-142 61.5q-84 0 -140.5 -46
t-54.5 -114q4 -51 -22.5 -78.5t-65.5 -27.5q-43 0 -67.5 25.5t-24.5 70.5q2 96 103.5 176t273.5 80q145 0 254.5 -88t128.5 -250l63 -575q16 -143 94 -144q33 0 76 25l21 -39q-59 -72 -162 -72h-13q-88 -72 -88 -168q0 -61 41 -100t97 -39q98 0 151 98zM477 61q115 0 197 82
t84 187l-35 295q-221 -37 -352 -122t-131 -220q0 -100 66.5 -161t170.5 -61z" />
    <glyph glyph-name="Cacute" unicode="&#x106;" horiz-adv-x="1366" 
d="M641 1524l-51 45l166 237q39 51 90 52q33 0 51 -19.5t18 -48.5q0 -45 -53 -88zM735 -37q-293 0 -468 210t-175 515q0 205 80 382t236.5 288.5t359.5 111.5q66 0 153 -18t119 -18q92 0 152 36h18l76 -395l-63 -12q-109 319 -447 319q-182 0 -338.5 -170t-156.5 -438
q0 -332 152.5 -502t373.5 -170q303 0 432 351l64 -21q-47 -207 -187.5 -338t-380.5 -131z" />
    <glyph glyph-name="cacute" unicode="&#x107;" horiz-adv-x="1140" 
d="M522 1159l-51 45l166 238q39 51 90 51q33 0 51.5 -19.5t18.5 -48.5q0 -45 -54 -88zM633 -37q-233 0 -396 166t-163 412q0 254 158.5 409.5t398.5 155.5q188 0 314 -94t126 -197q0 -37 -24.5 -65.5t-63.5 -28.5q-37 0 -60.5 22.5t-34.5 56.5t-31.5 72.5t-46.5 72.5
t-81 56.5t-135 22.5q-141 0 -246.5 -119t-105.5 -291q0 -250 121.5 -385t332.5 -135q113 0 207 72t139 166l48 -15q-33 -143 -152 -248.5t-305 -105.5z" />
    <glyph glyph-name="Ccircumflex" unicode="&#x108;" horiz-adv-x="1366" 
d="M403 1513l-41 58l322 256l322 -256l-41 -58l-281 144zM735 -37q-293 0 -468 210t-175 515q0 205 80 382t236.5 288.5t359.5 111.5q66 0 153 -18t119 -18q92 0 152 36h18l76 -395l-63 -12q-109 319 -447 319q-182 0 -338.5 -170t-156.5 -438q0 -332 152.5 -502t373.5 -170
q303 0 432 351l64 -21q-47 -207 -187.5 -338t-380.5 -131z" />
    <glyph glyph-name="ccircumflex" unicode="&#x109;" horiz-adv-x="1140" 
d="M289 1149l-41 57l321 256l322 -256l-41 -57l-281 143zM633 -37q-233 0 -396 166t-163 412q0 254 158.5 409.5t398.5 155.5q188 0 314 -94t126 -197q0 -37 -24.5 -65.5t-63.5 -28.5q-37 0 -60.5 22.5t-34.5 56.5t-31.5 72.5t-46.5 72.5t-81 56.5t-135 22.5
q-141 0 -246.5 -119t-105.5 -291q0 -250 121.5 -385t332.5 -135q113 0 207 72t139 166l48 -15q-33 -143 -152 -248.5t-305 -105.5z" />
    <glyph glyph-name="Cdotaccent" unicode="&#x10a;" horiz-adv-x="1366" 
d="M682 1645q-47 0 -79 31.5t-32 74.5q0 47 31 79t80 32t81 -32t32 -79q0 -45 -32 -75.5t-81 -30.5zM735 -37q-293 0 -468 210t-175 515q0 205 80 382t236.5 288.5t359.5 111.5q66 0 153 -18t119 -18q92 0 152 36h18l76 -395l-63 -12q-109 319 -447 319q-182 0 -338.5 -170
t-156.5 -438q0 -332 152.5 -502t373.5 -170q303 0 432 351l64 -21q-47 -207 -187.5 -338t-380.5 -131z" />
    <glyph glyph-name="cdotaccent" unicode="&#x10b;" horiz-adv-x="1140" 
d="M569 1280q-49 0 -79.5 31.5t-30.5 74.5q0 47 30.5 79t79.5 32t81 -31.5t32 -79.5q0 -45 -32 -75.5t-81 -30.5zM633 -37q-233 0 -396 166t-163 412q0 254 158.5 409.5t398.5 155.5q188 0 314 -94t126 -197q0 -37 -24.5 -65.5t-63.5 -28.5q-37 0 -60.5 22.5t-34.5 56.5
t-31.5 72.5t-46.5 72.5t-81 56.5t-135 22.5q-141 0 -246.5 -119t-105.5 -291q0 -250 121.5 -385t332.5 -135q113 0 207 72t139 166l48 -15q-33 -143 -152 -248.5t-305 -105.5z" />
    <glyph glyph-name="Ccaron" unicode="&#x10c;" horiz-adv-x="1366" 
d="M684 1530l-322 256l41 57l281 -143l279 143l43 -57zM735 -37q-293 0 -468 210t-175 515q0 205 80 382t236.5 288.5t359.5 111.5q66 0 153 -18t119 -18q92 0 152 36h18l76 -395l-63 -12q-109 319 -447 319q-182 0 -338.5 -170t-156.5 -438q0 -332 152.5 -502t373.5 -170
q303 0 432 351l64 -21q-47 -207 -187.5 -338t-380.5 -131z" />
    <glyph glyph-name="ccaron" unicode="&#x10d;" horiz-adv-x="1140" 
d="M569 1165l-321 256l41 58l280 -144l281 144l41 -58zM633 -37q-233 0 -396 166t-163 412q0 254 158.5 409.5t398.5 155.5q188 0 314 -94t126 -197q0 -37 -24.5 -65.5t-63.5 -28.5q-37 0 -60.5 22.5t-34.5 56.5t-31.5 72.5t-46.5 72.5t-81 56.5t-135 22.5
q-141 0 -246.5 -119t-105.5 -291q0 -250 121.5 -385t332.5 -135q113 0 207 72t139 166l48 -15q-33 -143 -152 -248.5t-305 -105.5z" />
    <glyph glyph-name="Dcaron" unicode="&#x10e;" horiz-adv-x="1449" 
d="M977 1786l-322 -256l-321 256l41 57l280 -143l281 143zM598 1434q324 0 542 -212t218 -532q0 -311 -187.5 -500.5t-488.5 -189.5h-612l-4 47q41 6 70.5 38t29.5 85v1094q0 53 -30 84.5t-70 37.5l4 48h528zM664 90q125 0 224 48t158.5 128t90 178.5t30.5 206.5
q0 307 -161.5 501t-440.5 194q-123 0 -211 -11v-1212q148 -33 310 -33z" />
    <glyph glyph-name="dcaron" unicode="&#x10f;" horiz-adv-x="1538" 
d="M1090 170q0 -53 29.5 -85t70.5 -38l-4 -47q-133 -14 -223 -37h-23l-10 180h-15q-80 -94 -161.5 -137t-200.5 -43q-221 0 -368.5 167t-147.5 415q0 244 138 402.5t357 158.5q227 0 377 -193h13v349q0 53 -31 85.5t-72 38.5l4 48q145 25 279 127l20 -9q-33 -113 -32 -364
v-1018zM1346 1470q68 0 106.5 -49t38.5 -125q0 -115 -64.5 -249t-166.5 -213l-68 65q59 47 113.5 134t68.5 181l-4 5q-20 -4 -33 -5q-53 0 -91 36t-38 93q0 55 40.5 91t97.5 36zM596 53q141 0 230 114t89 290q0 219 -109.5 389t-287.5 170q-137 0 -226 -115t-89 -291
q0 -223 109.5 -390t283.5 -167z" />
    <glyph glyph-name="Dcroat" unicode="&#x110;" horiz-adv-x="1466" 
d="M623 1434q324 0 541.5 -212t217.5 -532q0 -313 -187 -501.5t-488 -188.5h-615l-4 45q102 20 102 125v498h-270v96h270v500q0 102 -102 122l4 48h531zM688 90q125 0 224.5 48t158.5 128t90 178.5t31 206.5q0 307 -162 501t-442 194q-121 0 -209 -11v-571h276l2 -96h-278
v-545q147 -33 309 -33z" />
    <glyph glyph-name="dcroat" unicode="&#x111;" horiz-adv-x="1329" 
d="M1124 172q0 -53 30 -85t73 -40l-4 -45q-133 -16 -224 -39h-24l-10 182h-13q-80 -96 -162.5 -139t-199.5 -43q-221 0 -368.5 167t-147.5 415q0 244 138 402.5t357 158.5q227 0 377 -191h10v277h-338v80h338q-6 96 -100 117l4 47q135 16 279 127l22 -11q-31 -98 -35 -280
h228l2 -80h-230v-2zM631 55q143 0 232 113t89 291q0 139 -46 264t-139 209t-214 84q-135 0 -225 -116t-90 -290q0 -221 110.5 -388t282.5 -167z" />
    <glyph glyph-name="Emacron" unicode="&#x112;" horiz-adv-x="1255" 
d="M895 1776v-109h-535v109h535zM1184 317l55 -22l-98 -326h-17q-72 31 -266 31h-790l-5 45q43 8 73 40t30 85v1094q0 53 -30 84.5t-73 37.5l5 48h997l88 -258l-51 -19q-4 8 -13.5 20.5t-47 44t-86 56.5t-135.5 45t-191 20q-147 0 -275 -20v-524h492q49 0 86 30.5t45 75.5
l47 -4l-2 -295l-45 -4q-10 45 -46 76t-85 31h-492v-596q176 -23 357 -23q102 0 189 23.5t137 57.5t85 66.5t49 57.5z" />
    <glyph glyph-name="emacron" unicode="&#x113;" horiz-adv-x="1214" 
d="M872 1411v-108h-534v108h534zM705 94q123 0 217 72t135 168l47 -17q-29 -141 -158 -247.5t-321 -106.5q-231 0 -391 163t-160 419q0 244 155.5 402.5t386.5 158.5q178 0 291 -81t158 -198q29 -74 65 -86l11 -67l-881 -228q35 -168 151 -260t294 -92zM602 1020
q-156 0 -256 -126t-100 -304q0 -39 2 -58l678 177q-14 125 -99.5 218t-224.5 93z" />
    <glyph glyph-name="Ebreve" unicode="&#x114;" horiz-adv-x="1255" 
d="M627 1587q-211 0 -279 201l68 31q23 -47 81 -84t130 -37q70 0 130 37t83 84l67 -31q-67 -201 -280 -201zM1184 317l55 -22l-98 -326h-17q-72 31 -266 31h-790l-5 45q43 8 73 40t30 85v1094q0 53 -30 84.5t-73 37.5l5 48h997l88 -258l-51 -19q-4 8 -13.5 20.5t-47 44
t-86 56.5t-135.5 45t-191 20q-147 0 -275 -20v-524h492q49 0 86 30.5t45 75.5l47 -4l-2 -295l-45 -4q-10 45 -46 76t-85 31h-492v-596q176 -23 357 -23q102 0 189 23.5t137 57.5t85 66.5t49 57.5z" />
    <glyph glyph-name="ebreve" unicode="&#x115;" horiz-adv-x="1214" 
d="M604 1223q-211 0 -278 200l67 31q23 -47 81 -84t130 -37q70 0 130.5 37t82.5 84l68 -31q-68 -200 -281 -200zM705 94q123 0 217 72t135 168l47 -17q-29 -141 -158 -247.5t-321 -106.5q-231 0 -391 163t-160 419q0 244 155.5 402.5t386.5 158.5q178 0 291 -81t158 -198
q29 -74 65 -86l11 -67l-881 -228q35 -168 151 -260t294 -92zM602 1020q-156 0 -256 -126t-100 -304q0 -39 2 -58l678 177q-14 125 -99.5 218t-224.5 93z" />
    <glyph glyph-name="Edotaccent" unicode="&#x116;" horiz-adv-x="1255" 
d="M627 1645q-49 0 -81 30.5t-32 75.5q0 47 32 79t81 32t80.5 -32t31.5 -79q0 -45 -31.5 -75.5t-80.5 -30.5zM1184 317l55 -22l-98 -326h-17q-72 31 -266 31h-790l-5 45q43 8 73 40t30 85v1094q0 53 -30 84.5t-73 37.5l5 48h997l88 -258l-51 -19q-4 8 -13.5 20.5t-47 44
t-86 56.5t-135.5 45t-191 20q-147 0 -275 -20v-524h492q49 0 86 30.5t45 75.5l47 -4l-2 -295l-45 -4q-10 45 -46 76t-85 31h-492v-596q176 -23 357 -23q102 0 189 23.5t137 57.5t85 66.5t49 57.5z" />
    <glyph glyph-name="edotaccent" unicode="&#x117;" horiz-adv-x="1214" 
d="M604 1280q-47 0 -78.5 31.5t-31.5 74.5q0 47 30.5 79t79.5 32q51 0 83 -31.5t32 -79.5q0 -45 -32 -75.5t-83 -30.5zM705 94q123 0 217 72t135 168l47 -17q-29 -141 -158 -247.5t-321 -106.5q-231 0 -391 163t-160 419q0 244 155.5 402.5t386.5 158.5q178 0 291 -81
t158 -198q29 -74 65 -86l11 -67l-881 -228q35 -168 151 -260t294 -92zM602 1020q-156 0 -256 -126t-100 -304q0 -39 2 -58l678 177q-14 125 -99.5 218t-224.5 93z" />
    <glyph glyph-name="Eogonek" unicode="&#x118;" horiz-adv-x="1255" 
d="M1292 -246l64 -33q-80 -156 -256 -155q-100 0 -166 53t-66 143q0 137 148 238h-948l-5 45q43 8 73 40t30 85v1094q0 53 -30 84.5t-73 37.5l5 48h997l88 -258l-51 -19q-4 8 -13.5 20.5t-47 44t-86 56.5t-135.5 45t-191 20q-147 0 -275 -20v-524h492q49 0 86 30.5t45 75.5
l47 -4l-2 -295l-45 -4q-10 45 -46 76t-85 31h-492v-596q141 -23 357 -23q102 0 189 23.5t137 57.5t85 66.5t49 57.5l13 22l55 -22l-90 -295q-68 -35 -106.5 -89t-38.5 -115.5t41.5 -100.5t97.5 -39q96 0 149 98z" />
    <glyph glyph-name="eogonek" unicode="&#x119;" horiz-adv-x="1214" 
d="M705 94q123 0 217 72t135 168l47 -17q-27 -129 -136.5 -230t-275.5 -120q-94 -72 -94 -172q0 -61 41 -100t96 -39q98 0 152 98l63 -33q-82 -156 -258 -155q-98 0 -163.5 53t-65.5 143q0 113 102 203q-209 23 -350 182.5t-141 397.5q0 244 155.5 402.5t386.5 158.5
q178 0 291 -81t158 -198q29 -74 65 -86l11 -67l-881 -228q35 -168 151 -260t294 -92zM602 1020q-156 0 -256 -126t-100 -304q0 -39 2 -58l678 177q-14 125 -99.5 218t-224.5 93z" />
    <glyph glyph-name="Ecaron" unicode="&#x11a;" horiz-adv-x="1255" 
d="M950 1786l-321 -256l-324 256l43 57l281 -143l278 143zM1184 317l55 -22l-98 -326h-17q-72 31 -266 31h-790l-5 45q43 8 73 40t30 85v1094q0 53 -30 84.5t-73 37.5l5 48h997l88 -258l-51 -19q-4 8 -13.5 20.5t-47 44t-86 56.5t-135.5 45t-191 20q-147 0 -275 -20v-524
h492q49 0 86 30.5t45 75.5l47 -4l-2 -295l-45 -4q-10 45 -46 76t-85 31h-492v-596q176 -23 357 -23q102 0 189 23.5t137 57.5t85 66.5t49 57.5z" />
    <glyph glyph-name="ecaron" unicode="&#x11b;" horiz-adv-x="1214" 
d="M928 1421l-322 -256l-323 256l43 58l280 -144l279 144zM705 94q123 0 217 72t135 168l47 -17q-29 -141 -158 -247.5t-321 -106.5q-231 0 -391 163t-160 419q0 244 155.5 402.5t386.5 158.5q178 0 291 -81t158 -198q29 -74 65 -86l11 -67l-881 -228q35 -168 151 -260
t294 -92zM602 1020q-156 0 -256 -126t-100 -304q0 -39 2 -58l678 177q-14 125 -99.5 218t-224.5 93z" />
    <glyph glyph-name="Gcircumflex" unicode="&#x11c;" horiz-adv-x="1429" 
d="M715 1657l-281 -144l-43 58l324 256l321 -256l-43 -58zM1405 725l4 -45q-41 -8 -71.5 -40t-30.5 -85v-555h-70l-59 152h-11q-158 -188 -432 -189q-293 0 -468 210t-175 515q0 319 186.5 550.5t489.5 231.5q66 0 153 -18t119 -18q92 0 152 36h18l76 -395l-63 -12
q-109 319 -445 319q-184 0 -339.5 -173t-155.5 -441q0 -334 149.5 -504t374.5 -170q193 0 311 144v317q0 100 -114 125l4 45h397z" />
    <glyph glyph-name="gcircumflex" unicode="&#x11d;" horiz-adv-x="1200" 
d="M936 1073q-39 0 -74 -49q174 -117 174 -344q0 -190 -124 -302t-322 -112q-137 0 -244 53q-70 -4 -110.5 -33.5t-40.5 -66.5q0 -68 94 -93.5t360 -25.5q272 0 372.5 -53t100.5 -178q0 -145 -150.5 -235.5t-383.5 -90.5q-512 0 -512 250q0 61 33.5 113.5t87.5 83.5v12
q-119 53 -119 180q0 76 47 127t121 66v12q-131 121 -131 311q0 188 128 298t330 110q123 0 226 -45q35 55 80 90l-279 141l-281 -143l-40 57l321 256l322 -256l-35 -49q70 53 147 53q59 0 97 -28.5t38 -77.5q0 -94 -88 -94q-33 0 -74.5 31.5t-70.5 31.5zM612 350
q115 0 191 75t76 210q0 170 -92.5 278.5t-235.5 108.5q-123 0 -201 -75t-78 -208q0 -162 95 -275.5t245 -113.5zM322 -35q-55 -20 -83 -62t-28 -89q0 -182 387 -183q180 0 285.5 60.5t105.5 138.5q0 72 -69.5 92.5t-292.5 20.5q-162 -1 -305 22z" />
    <glyph glyph-name="Gbreve" unicode="&#x11e;" horiz-adv-x="1429" 
d="M713 1587q-211 0 -279 201l68 31q23 -47 81 -84t130 -37q70 0 130 37t83 84l67 -31q-67 -201 -280 -201zM1405 725l4 -45q-41 -8 -71.5 -40t-30.5 -85v-555h-70l-59 152h-11q-158 -188 -432 -189q-293 0 -468 210t-175 515q0 319 186.5 550.5t489.5 231.5q66 0 153 -18
t119 -18q92 0 152 36h18l76 -395l-63 -12q-109 319 -445 319q-184 0 -339.5 -173t-155.5 -441q0 -334 149.5 -504t374.5 -170q193 0 311 144v317q0 100 -114 125l4 45h397z" />
    <glyph glyph-name="gbreve" unicode="&#x11f;" horiz-adv-x="1200" 
d="M600 1223q-213 0 -281 200l70 31q23 -47 80 -84t131 -37q68 0 129.5 37t81.5 84l68 -31q-68 -200 -279 -200zM936 1073q-39 0 -74 -49q174 -117 174 -344q0 -190 -124 -302t-322 -112q-137 0 -244 53q-70 -4 -110.5 -33.5t-40.5 -66.5q0 -68 94 -93.5t360 -25.5
q272 0 372.5 -53t100.5 -178q0 -145 -150.5 -235.5t-383.5 -90.5q-512 0 -512 250q0 61 33.5 113.5t87.5 83.5v12q-119 53 -119 180q0 76 47 127t121 66v12q-131 121 -131 311q0 188 128 298t330 110q123 0 226 -45q96 150 235 149q59 0 97 -28.5t38 -77.5q0 -94 -88 -94
q-33 0 -74.5 31.5t-70.5 31.5zM612 350q115 0 191 75t76 210q0 170 -92.5 278.5t-235.5 108.5q-123 0 -201 -75t-78 -208q0 -162 95 -275.5t245 -113.5zM322 -35q-55 -20 -83 -62t-28 -89q0 -182 387 -183q180 0 285.5 60.5t105.5 138.5q0 72 -69.5 92.5t-292.5 20.5
q-162 -1 -305 22z" />
    <glyph glyph-name="Gdotaccent" unicode="&#x120;" horiz-adv-x="1429" 
d="M713 1645q-49 0 -80 31.5t-31 74.5q0 47 31 79t80 32q51 0 82.5 -32t31.5 -79q0 -45 -31.5 -75.5t-82.5 -30.5zM1405 725l4 -45q-41 -8 -71.5 -40t-30.5 -85v-555h-70l-59 152h-11q-158 -188 -432 -189q-293 0 -468 210t-175 515q0 319 186.5 550.5t489.5 231.5
q66 0 153 -18t119 -18q92 0 152 36h18l76 -395l-63 -12q-109 319 -445 319q-184 0 -339.5 -173t-155.5 -441q0 -334 149.5 -504t374.5 -170q193 0 311 144v317q0 100 -114 125l4 45h397z" />
    <glyph glyph-name="gdotaccent" unicode="&#x121;" horiz-adv-x="1200" 
d="M600 1280q-49 0 -81 30.5t-32 75.5q0 47 32 79t81 32t81 -31.5t32 -79.5q0 -45 -32 -75.5t-81 -30.5zM936 1073q-39 0 -74 -49q174 -117 174 -344q0 -190 -124 -302t-322 -112q-137 0 -244 53q-70 -4 -110.5 -33.5t-40.5 -66.5q0 -68 94 -93.5t360 -25.5q272 0 372.5 -53
t100.5 -178q0 -145 -150.5 -235.5t-383.5 -90.5q-512 0 -512 250q0 61 33.5 113.5t87.5 83.5v12q-119 53 -119 180q0 76 47 127t121 66v12q-131 121 -131 311q0 188 128 298t330 110q123 0 226 -45q96 150 235 149q59 0 97 -28.5t38 -77.5q0 -94 -88 -94q-33 0 -74.5 31.5
t-70.5 31.5zM612 350q115 0 191 75t76 210q0 170 -92.5 278.5t-235.5 108.5q-123 0 -201 -75t-78 -208q0 -162 95 -275.5t245 -113.5zM322 -35q-55 -20 -83 -62t-28 -89q0 -182 387 -183q180 0 285.5 60.5t105.5 138.5q0 72 -69.5 92.5t-292.5 20.5q-162 -1 -305 22z" />
    <glyph glyph-name="uni0122" unicode="&#x122;" horiz-adv-x="1439" 
d="M1405 725l4 -45q-41 -8 -71.5 -40t-30.5 -85v-555h-70l-59 152h-11q-158 -188 -432 -189q-293 0 -468 210t-175 515q0 319 186.5 550.5t489.5 231.5q66 0 153 -18t119 -18q92 0 152 36h18l76 -395l-63 -12q-109 319 -445 319q-184 0 -339.5 -173t-155.5 -441
q0 -334 149.5 -504t374.5 -170q193 0 311 144v317q0 100 -114 125l4 45h397zM758 -117q68 0 105.5 -49t37.5 -125q0 -115 -63.5 -248t-167.5 -215l-68 66q61 47 115.5 134t68.5 181l-4 6q-16 -6 -32 -6q-53 0 -91 37t-38 94q0 55 40 90t97 35z" />
    <glyph glyph-name="uni0123" unicode="&#x123;" horiz-adv-x="1189" 
d="M573 1221q-66 0 -104.5 50t-38.5 124q0 117 63.5 250t168.5 213l67 -66q-61 -45 -115.5 -133t-66.5 -182l4 -4q20 4 31 4q55 0 93 -36t38 -93q0 -55 -41.5 -91t-98.5 -36zM936 1073q-39 0 -74 -49q174 -117 174 -344q0 -190 -124 -302t-322 -112q-137 0 -244 53
q-70 -4 -110.5 -33.5t-40.5 -66.5q0 -68 94 -93.5t360 -25.5q272 0 372.5 -53t100.5 -178q0 -145 -150.5 -235.5t-383.5 -90.5q-512 0 -512 250q0 61 33.5 113.5t87.5 83.5v12q-119 53 -119 180q0 76 47 127t121 66v12q-131 121 -131 311q0 188 128 298t330 110
q123 0 226 -45q96 150 235 149q59 0 97 -28.5t38 -77.5q0 -94 -88 -94q-33 0 -74.5 31.5t-70.5 31.5zM612 350q115 0 191 75t76 210q0 170 -92.5 278.5t-235.5 108.5q-123 0 -201 -75t-78 -208q0 -162 95 -275.5t245 -113.5zM322 -35q-55 -20 -83 -62t-28 -89
q0 -182 387 -183q180 0 285.5 60.5t105.5 138.5q0 72 -69.5 92.5t-292.5 20.5q-162 -1 -305 22z" />
    <glyph glyph-name="Hcircumflex" unicode="&#x124;" horiz-adv-x="1447" 
d="M725 1657l-281 -144l-41 58l322 256l322 -256l-41 -58zM1284 170q0 -53 29.5 -85t70.5 -38l-2 -47h-385l-4 47q41 6 72 38t31 85v543h-742v-543q0 -53 30 -85t71 -38l-4 -47h-383l-5 47q41 6 72 38t31 85v1094q0 53 -31 84.5t-72 37.5l5 48h383l4 -48q-41 -6 -71 -37.5
t-30 -84.5v-435h742v435q0 53 -31 84.5t-72 37.5l4 48h385l2 -48q-41 -6 -70.5 -37.5t-29.5 -84.5v-1094z" />
    <glyph glyph-name="hcircumflex" unicode="&#x125;" horiz-adv-x="1234" 
d="M535 1548l-281 144l-279 -144l-43 58l322 256l321 -256zM1098 168q4 -51 36.5 -83t73.5 -40l-4 -45h-362l-4 45q41 8 68.5 40t23.5 83l-37 512q-8 164 -82 250t-190 86q-121 0 -208 -81t-87 -202v-565q0 -51 29.5 -83t70.5 -40l-4 -45h-363l-4 45q41 8 72 40t31 83v1096
q0 53 -31 84.5t-72 37.5l4 48q147 27 279 127l22 -9q-35 -113 -34 -364v-250h10q113 168 313 168q180 0 291 -113.5t125 -337.5z" />
    <glyph glyph-name="Hbar" unicode="&#x126;" horiz-adv-x="1478" 
d="M1298 170q0 -104 103 -125l-4 -45h-385l-4 45q102 20 102 125v541h-741v-541q0 -53 28.5 -85t71.5 -40l-4 -45h-383l-4 45q43 8 72.5 40t29.5 85v842h-155v80h155v172q0 53 -29.5 83.5t-72.5 38.5l4 48h383l4 -48q-41 -8 -70.5 -38.5t-29.5 -83.5v-172h741v172
q0 102 -102 122l4 48h385l4 -48q-102 -20 -103 -122v-172h154l2 -80h-156v-842zM369 829h741v183h-741v-183z" />
    <glyph glyph-name="hbar" unicode="&#x127;" horiz-adv-x="1259" 
d="M1124 170q4 -53 37 -85t76 -40l-6 -45h-363l-4 45q43 8 70 40t22 85l-34 510q-10 162 -84 248t-189 86q-121 2 -209 -80t-88 -203v-561q0 -53 29 -85t72 -40l-4 -45h-363l-4 45q43 8 72.5 40t29.5 85v1020h-227v80h227q-2 94 -102 116l4 48q145 25 279 127l22 -9
q-31 -98 -35 -282h340l2 -80h-342v-2v-252h10q111 170 314 170q180 0 290.5 -113.5t127.5 -335.5z" />
    <glyph glyph-name="Itilde" unicode="&#x128;" horiz-adv-x="520" 
d="M375 1628q-55 0 -137 59.5t-119 59.5q-63 0 -80 -88l-64 20q25 184 172 185q53 0 137.5 -58.5t121.5 -58.5q66 0 81 86l60 -18q-25 -187 -172 -187zM68 0l-5 47q43 6 73 38t30 85v1094q0 53 -30 84.5t-73 37.5l5 48h385l4 -48q-43 -6 -73 -37.5t-30 -84.5v-1094
q0 -53 30 -85t73 -38l-4 -47h-385z" />
    <glyph glyph-name="itilde" unicode="&#x129;" 
d="M356 1264q-55 0 -139 59t-119 59q-63 0 -80 -88l-63 21q25 184 172 184q55 0 138 -58.5t120 -58.5q63 0 84 86l59 -18q-27 -186 -172 -186zM59 0l-4 45q41 8 72 40t31 83v643q0 53 -31 85t-72 38l4 47q37 4 104.5 35t137.5 90h25v-938q0 -51 29.5 -83t70.5 -40l-4 -45
h-363z" />
    <glyph glyph-name="Imacron" unicode="&#x12a;" horiz-adv-x="520" 
d="M-6 1667v109h534v-109h-534zM68 0l-5 47q43 6 73 38t30 85v1094q0 53 -30 84.5t-73 37.5l5 48h385l4 -48q-43 -6 -73 -37.5t-30 -84.5v-1094q0 -53 30 -85t73 -38l-4 -47h-385z" />
    <glyph glyph-name="imacron" unicode="&#x12b;" 
d="M-27 1303v108h537v-108h-537zM59 0l-4 45q41 8 72 40t31 83v643q0 53 -31 85t-72 38l4 47q37 4 104.5 35t137.5 90h25v-938q0 -51 29.5 -83t70.5 -40l-4 -45h-363z" />
    <glyph glyph-name="Iogonek" unicode="&#x12e;" horiz-adv-x="520" 
d="M473 -246l64 -33q-80 -156 -256 -155q-98 0 -165 53t-67 143q0 137 148 238h-129l-5 47q43 6 73 38t30 85v1094q0 53 -30 84.5t-73 37.5l5 48h385l4 -48q-43 -6 -73 -37.5t-30 -84.5v-1094q0 -53 30 -85t73 -38l-4 -47h-123q-68 -35 -107 -89t-39 -115.5t42 -100.5
t98 -39q98 0 149 98z" />
    <glyph glyph-name="iogonek" unicode="&#x12f;" horiz-adv-x="483" 
d="M240 1288q-53 0 -88 35t-35 84q0 51 34.5 88t88.5 37q55 0 91 -37t36 -88q0 -49 -36 -84t-91 -35zM457 -246l63 -33q-80 -156 -256 -155q-98 0 -164.5 53t-66.5 143q0 137 147 238h-119l-4 45q41 8 71 40t30 83v643q0 53 -30 85t-71 38l4 47q37 4 104.5 35t137.5 90h23
v-938q0 -51 30.5 -83t71.5 -40l-4 -45h-109q-145 -74 -145 -205q0 -61 41 -100t96 -39q99 0 150 98z" />
    <glyph glyph-name="Idotaccent" unicode="&#x130;" horiz-adv-x="520" 
d="M260 1645q-49 0 -81 30.5t-32 75.5q0 47 32 79t81 32t81 -32t32 -79q0 -45 -32 -75.5t-81 -30.5zM68 0l-5 47q43 6 73 38t30 85v1094q0 53 -30 84.5t-73 37.5l5 48h385l4 -48q-43 -6 -73 -37.5t-30 -84.5v-1094q0 -53 30 -85t73 -38l-4 -47h-385z" />
    <glyph glyph-name="dotlessi" unicode="&#x131;" 
d="M59 0l-4 45q41 8 72 40t31 83v643q0 53 -31 85t-72 38l4 47q37 4 104.5 35t137.5 90h25v-938q0 -51 29.5 -83t70.5 -40l-4 -45h-363z" />
    <glyph glyph-name="IJ" unicode="&#x132;" horiz-adv-x="1005" 
d="M55 0l-4 47q43 6 72 38t29 85v1094q0 53 -29 84.5t-72 37.5l4 48h385l4 -48q-43 -6 -72.5 -37.5t-29.5 -84.5v-1094q0 -53 29.5 -85t72.5 -38l-4 -47h-385zM463 -399q-137 0 -212 56t-75 118q0 47 28.5 77.5t69.5 30.5q45 0 76 -28.5t45.5 -64.5t46 -64.5t76.5 -28.5
q76 0 112 78t36 276v1213q0 53 -30 84.5t-71 37.5l4 48h381l4 -48q-41 -6 -70.5 -37.5t-29.5 -84.5v-1192q0 -471 -391 -471z" />
    <glyph glyph-name="ij" unicode="&#x133;" horiz-adv-x="921" 
d="M276.5 1288q-55.5 0 -90 35t-34.5 84q0 51 34.5 88t90 37t91 -37t35.5 -88q0 -49 -35.5 -84t-91 -35zM694 1288q-53 0 -88 35t-35 84q0 51 35 88t88 37q55 0 91 -37t36 -88q0 -49 -36 -84t-91 -35zM96 0l-4 45q43 8 73 40t30 83v643q0 53 -30 85t-73 38l4 47
q104 12 242 125h24v-938q0 -51 30 -83t73 -40l-4 -45h-365zM516 -457q-109 0 -176.5 53.5t-67.5 133.5q0 37 23.5 61.5t64.5 24.5q43 0 64.5 -30t25 -66.5t27 -66.5t68.5 -30q47 0 75.5 40t28.5 101q0 49 -17.5 140.5t-17.5 146.5v760q0 53 -29.5 85t-70.5 38l4 47
q102 12 240 125h24v-1204q0 -176 -69.5 -267.5t-196.5 -91.5z" />
    <glyph glyph-name="Jcircumflex" unicode="&#x134;" horiz-adv-x="512" 
d="M-25 1513l-41 58l322 256l322 -256l-41 -58l-281 144zM-33 -391q-135 0 -209.5 56t-74.5 118q0 47 28.5 76.5t69.5 29.5q45 0 75.5 -28.5t45 -63.5t46.5 -63.5t77 -28.5q76 0 110.5 77t34.5 277v1205q0 53 -28.5 84.5t-69.5 37.5l4 48h381l4 -48q-41 -6 -71 -37.5
t-30 -84.5v-1184q0 -471 -393 -471z" />
    <glyph glyph-name="jcircumflex" unicode="&#x135;" horiz-adv-x="546" 
d="M-6 1149l-41 57l321 256l322 -256l-41 -57l-281 143zM102 -457q-111 0 -177 53.5t-66 133.5q0 37 23.5 61.5t62.5 24.5q43 0 64.5 -30t25.5 -66.5t26.5 -66.5t67.5 -30q47 0 75.5 40t28.5 101q0 47 -16 140.5t-16 146.5v760q0 53 -31 85t-72 38l4 47q37 4 104.5 35
t137.5 90h25v-1204q0 -176 -71 -267.5t-196 -91.5z" />
    <glyph glyph-name="uni0136" unicode="&#x136;" horiz-adv-x="1374" 
d="M1235 170q63 -106 174 -123l-6 -47h-418l-4 47q37 6 48 36t-19 87l-387 633h-9l-260 -238v-395q0 -53 30 -85t73 -38l-4 -47h-385l-2 47q41 6 70.5 38t29.5 85v1094q0 53 -30 84.5t-70 37.5l2 48h385l4 -48q-43 -6 -73 -37.5t-30 -84.5v-551h8l603 551q51 57 43.5 85.5
t-45.5 36.5l4 48h372l4 -48q-102 -14 -223 -122l-356 -326zM651 -117q66 0 105 -50t39 -124q0 -115 -63.5 -248t-168.5 -215l-67 66q61 49 115.5 135t66.5 180l-4 6q-14 -6 -31 -6q-53 0 -92 37t-39 94q0 55 40 90t99 35z" />
    <glyph glyph-name="uni0137" unicode="&#x137;" horiz-adv-x="1198" 
d="M1010 168q72 -102 184 -123l-4 -45h-393l-4 45q37 8 45 37t-27 86l-317 477h-13l-155 -166v-311q0 -51 29.5 -83t70.5 -40l-4 -45h-363l-4 45q41 8 72 40t31 83v1096q0 53 -31 84.5t-72 37.5l4 48q147 27 281 127l20 -9q-35 -119 -34 -364v-580h10l291 314
q84 92 154.5 138t154.5 46q72 0 113 -33t41 -94q0 -49 -29 -81t-80 -32q-45 0 -89 42t-77 42q-47 0 -139 -96l-72 -78zM582 -117q66 0 104.5 -50t38.5 -124q0 -115 -63.5 -248t-167.5 -215l-68 66q61 49 115.5 135t66.5 180l-4 6q-14 -6 -31 -6q-53 0 -92 37t-39 94
q0 55 40.5 90t99.5 35z" />
    <glyph glyph-name="kgreenlandic" unicode="&#x138;" horiz-adv-x="1155" 
d="M1010 168q72 -102 184 -123l-4 -45h-393l-4 45q37 8 45 37t-27 86l-317 477h-13l-155 -166v-311q0 -51 29.5 -83t70.5 -40l-4 -45h-363l-4 45q41 8 72 40t31 83v643q0 53 -31 86t-72 39l4 45q94 16 240 125h27v-498h10l291 314q84 92 154.5 138t154.5 46q72 0 113 -33
t41 -94q0 -49 -29 -81t-80 -32q-45 0 -89 42t-77 42q-47 0 -139 -96l-72 -78z" />
    <glyph glyph-name="Lacute" unicode="&#x139;" horiz-adv-x="1198" 
d="M498 1702l-222 -178l-51 45l166 237q39 51 90 52q33 0 51.5 -19.5t18.5 -48.5q0 -45 -53 -88zM1126 340l56 -23l-103 -346h-14q-78 29 -266 29h-729l-4 47q41 6 70.5 38t29.5 85v1094q0 53 -30 84.5t-70 37.5l4 48h383l4 -48q-43 -6 -73 -37.5t-30 -84.5v-1158
q131 -16 297 -16q102 0 189.5 25.5t137.5 62.5t86 74t50 63z" />
    <glyph glyph-name="lacute" unicode="&#x13a;" 
d="M213 1593l-51 45l166 238q39 51 90 51q33 0 51 -19.5t18 -47.5q0 -45 -53 -88zM59 0l-4 45q41 8 71 40t30 83v1096q0 53 -30 84.5t-71 37.5l4 48q147 27 279 127l22 -9q-35 -113 -34 -364v-1020q0 -51 29.5 -83t70.5 -40l-4 -45h-363z" />
    <glyph glyph-name="uni013B" unicode="&#x13b;" horiz-adv-x="1210" 
d="M1126 340l56 -23l-103 -346h-14q-78 29 -266 29h-729l-4 47q41 6 70.5 38t29.5 85v1094q0 53 -30 84.5t-70 37.5l4 48h383l4 -48q-43 -6 -73 -37.5t-30 -84.5v-1158q131 -16 297 -16q102 0 189.5 25.5t137.5 62.5t86 74t50 63zM598 -117q68 0 106.5 -49t38.5 -125
q0 -115 -63.5 -248t-167.5 -215l-68 66q61 49 114.5 135t68.5 180l-4 6q-16 -6 -31 -6q-55 0 -93 36t-38 95q0 55 40 90t97 35z" />
    <glyph glyph-name="uni013C" unicode="&#x13c;" 
d="M326 168q0 -51 29.5 -83t70.5 -40l-4 -45h-363l-4 45q41 8 71 40t30 83v1096q0 53 -30 84.5t-71 37.5l4 48q147 27 279 127l22 -9q-35 -113 -34 -364v-1020zM244 -117q68 0 105.5 -49t37.5 -125q0 -115 -63.5 -248t-167.5 -215l-68 66q61 47 115.5 134t68.5 181l-4 6
q-16 -6 -32 -6q-53 0 -91.5 37t-38.5 94q0 55 40.5 90t97.5 35z" />
    <glyph glyph-name="Lcaron" unicode="&#x13d;" horiz-adv-x="1198" 
d="M639 899q61 45 115.5 133t68.5 182l-4 5q-20 -4 -33 -5q-53 0 -91 36t-38 93q0 55 40 91t98 36q68 0 105.5 -49t37.5 -125q0 -117 -63.5 -250t-167.5 -212zM1126 340l56 -23l-103 -346h-14q-78 29 -266 29h-729l-4 47q41 6 70.5 38t29.5 85v1094q0 53 -30 84.5t-70 37.5
l4 48h383l4 -48q-43 -6 -73 -37.5t-30 -84.5v-1158q131 -16 297 -16q102 0 189.5 25.5t137.5 62.5t86 74t50 63z" />
    <glyph glyph-name="lcaron" unicode="&#x13e;" horiz-adv-x="870" 
d="M342 168q0 -51 29.5 -83t70.5 -40l-4 -45h-362l-4 45q41 8 70.5 40t29.5 83v1096q0 53 -29.5 84.5t-70.5 37.5l4 48q147 27 278 127l23 -9q-35 -113 -35 -364v-1020zM637 1470q66 0 104.5 -50t38.5 -124q0 -117 -63.5 -250t-167.5 -212l-68 65q61 45 115.5 133t67.5 182
l-5 5q-20 -4 -30 -5q-55 0 -93 36t-38 93q0 55 41 91t98 36z" />
    <glyph glyph-name="Ldot" unicode="&#x13f;" horiz-adv-x="1198" 
d="M1126 340l56 -23l-103 -346h-14q-78 29 -266 29h-729l-4 47q41 6 70.5 38t29.5 85v1094q0 53 -30 84.5t-70 37.5l4 48h383l4 -48q-43 -6 -73 -37.5t-30 -84.5v-1158q131 -16 297 -16q102 0 189.5 25.5t137.5 62.5t86 74t50 63zM762 649q-57 0 -96 37t-39 98q0 57 39 93
t96 36q53 0 93 -35.5t40 -93.5q0 -61 -39 -98t-94 -37z" />
    <glyph glyph-name="ldot" unicode="&#x140;" horiz-adv-x="811" 
d="M82 0l-6 45q43 8 71.5 40t28.5 83v1096q0 53 -28.5 84.5t-71.5 37.5l6 48q147 27 276 127l23 -9q-35 -113 -35 -364v-1020q0 -51 31 -83t72 -40l-5 -45h-362zM625 649q-57 0 -96.5 37t-39.5 98q0 57 39 93t97 36q53 0 93 -35.5t40 -93.5q0 -61 -39 -98t-94 -37z" />
    <glyph glyph-name="Lslash" unicode="&#x141;" horiz-adv-x="1210" 
d="M1141 338l55 -21l-100 -348h-19q-72 31 -264 31h-731l-4 45q102 20 102 125v563l-219 -127v80l219 127v451q0 102 -102 122l4 48h385l4 -48q-102 -20 -102 -122v-340l237 137v-80l-237 -137v-740q143 -14 297 -14q102 0 189 25.5t137 61.5t86 73t48 61z" />
    <glyph glyph-name="lslash" unicode="&#x142;" horiz-adv-x="489" 
d="M467 651l-141 -82v-399q0 -53 29.5 -85t72.5 -40l-4 -45h-363l-4 45q43 8 72 40t29 85v301l-135 -78v82l135 78v711q0 53 -30 83.5t-71 38.5l4 46q143 25 281 129l20 -9q-37 -125 -36 -364v-537l141 82v-82z" />
    <glyph glyph-name="Nacute" unicode="&#x143;" horiz-adv-x="1372" 
d="M897 1702l-221 -178l-51 45l166 237q39 51 88 52q33 0 52 -20.5t19 -47.5q0 -45 -53 -88zM1323 1434l4 -48q-43 -6 -72.5 -37.5t-29.5 -84.5v-1264h-115q-51 135 -140 263t-187.5 228.5t-196 200t-186.5 220t-138 245.5h-8v-987q0 -53 29.5 -85t72.5 -38l-4 -47h-284
l-5 47q41 6 71 38t30 85v1094q0 53 -30 84.5t-71 37.5l5 48h227q57 -133 152.5 -268.5t195.5 -244t196.5 -213t175.5 -215t113 -210.5h7v981q0 53 -29 84.5t-72 37.5l4 48h285z" />
    <glyph glyph-name="nacute" unicode="&#x144;" horiz-adv-x="1259" 
d="M756 1337l-219 -178l-54 45l166 238q43 51 90 51q33 0 52.5 -20.5t19.5 -47.5q0 -43 -55 -88zM1094 168q2 -51 34.5 -83t75.5 -40l-6 -45h-362l-5 45q43 8 70 40t23 83l-35 496q-10 166 -83 254t-192 88q-121 0 -205.5 -84t-84.5 -205v-549q0 -51 29.5 -83t72.5 -40
l-6 -45h-361l-4 45q41 8 71 40t30 83v641q0 53 -30 85t-71 38l4 45q104 18 238 129h22l3 -178h8q113 178 321 178q178 0 287 -113.5t123 -337.5z" />
    <glyph glyph-name="uni0145" unicode="&#x145;" horiz-adv-x="1386" 
d="M1323 1434l4 -48q-43 -6 -72.5 -37.5t-29.5 -84.5v-1264h-115q-51 135 -140 263t-187.5 228.5t-196 200t-186.5 220t-138 245.5h-8v-987q0 -53 29.5 -85t72.5 -38l-4 -47h-284l-5 47q41 6 71 38t30 85v1094q0 53 -30 84.5t-71 37.5l5 48h227q57 -133 152.5 -268.5
t195.5 -244t196.5 -213t175.5 -215t113 -210.5h7v981q0 53 -29 84.5t-72 37.5l4 48h285zM700 -117q68 0 106 -49t38 -125q0 -115 -63.5 -248t-168.5 -215l-67 66q61 47 115.5 134t68.5 181l-4 6q-16 -6 -33 -6q-53 0 -91 37t-38 94q0 55 40 90t97 35z" />
    <glyph glyph-name="uni0146" unicode="&#x146;" horiz-adv-x="1253" 
d="M1094 168q2 -51 34.5 -83t75.5 -40l-6 -45h-362l-5 45q43 8 70 40t23 83l-35 496q-10 166 -83 254t-192 88q-121 0 -205.5 -84t-84.5 -205v-549q0 -51 29.5 -83t72.5 -40l-6 -45h-361l-4 45q41 8 71 40t30 83v641q0 53 -30 85t-71 38l4 45q104 18 238 129h22l3 -178h8
q113 178 321 178q178 0 287 -113.5t123 -337.5zM621 -117q68 0 105.5 -49t37.5 -125q0 -115 -63.5 -248t-168.5 -215l-67 66q61 47 115.5 134t68.5 181l-4 6q-14 -6 -33 -6q-53 0 -91 37t-38 94q0 55 40.5 90t97.5 35z" />
    <glyph glyph-name="Ncaron" unicode="&#x147;" horiz-adv-x="1372" 
d="M1008 1786l-322 -256l-321 256l41 57l280 -143l279 143zM1323 1434l4 -48q-43 -6 -72.5 -37.5t-29.5 -84.5v-1264h-115q-51 135 -140 263t-187.5 228.5t-196 200t-186.5 220t-138 245.5h-8v-987q0 -53 29.5 -85t72.5 -38l-4 -47h-284l-5 47q41 6 71 38t30 85v1094
q0 53 -30 84.5t-71 37.5l5 48h227q57 -133 152.5 -268.5t195.5 -244t196.5 -213t175.5 -215t113 -210.5h7v981q0 53 -29 84.5t-72 37.5l4 48h285z" />
    <glyph glyph-name="ncaron" unicode="&#x148;" horiz-adv-x="1259" 
d="M950 1421l-321 -256l-322 256l41 58l281 -144l280 144zM1094 168q2 -51 34.5 -83t75.5 -40l-6 -45h-362l-5 45q43 8 70 40t23 83l-35 496q-10 166 -83 254t-192 88q-121 0 -205.5 -84t-84.5 -205v-549q0 -51 29.5 -83t72.5 -40l-6 -45h-361l-4 45q41 8 71 40t30 83v641
q0 53 -30 85t-71 38l4 45q104 18 238 129h22l3 -178h8q113 178 321 178q178 0 287 -113.5t123 -337.5z" />
    <glyph glyph-name="napostrophe" unicode="&#x149;" horiz-adv-x="1521" 
d="M197 1470q66 0 104.5 -50t38.5 -124q0 -117 -63.5 -250t-167.5 -212l-68 65q61 45 115.5 133t66.5 182l-4 5q-20 -4 -31 -5q-55 0 -93 36t-38 93q0 55 41.5 91t98.5 36zM1356 168q4 -51 35.5 -83t74.5 -40l-4 -45h-364l-4 45q43 8 69.5 40t22.5 83l-35 496
q-8 166 -81 254t-193.5 88t-205.5 -84t-85 -205v-549q0 -51 30.5 -83t71.5 -40l-4 -45h-362l-3 45q41 8 70 40t29 83v641q0 53 -29 85t-72 38l5 45q102 16 237 129h23l2 -178h8q113 178 321 178q178 0 287 -113.5t123 -337.5z" />
    <glyph glyph-name="Eng" unicode="&#x14a;" horiz-adv-x="1372" 
d="M1321 1434l4 -48q-41 -8 -70.5 -38.5t-29.5 -83.5v-1219q0 -225 -86 -335.5t-267 -110.5q-127 0 -204.5 55t-77.5 117q0 45 27.5 73.5t64.5 28.5q45 0 73.5 -28.5t42 -63.5t46.5 -63.5t84 -28.5q86 0 143 74.5t64 244.5q-51 133 -143.5 259t-194 226.5t-202.5 199
t-192.5 218t-140.5 244.5h-10l2 -985q0 -53 28.5 -85t71.5 -40l-4 -45h-284l-5 45q43 8 73 40t30 85v1094q0 53 -30 83.5t-73 38.5l5 48h225q57 -133 153.5 -264.5t196.5 -232.5t197.5 -199.5t176.5 -204t113 -205.5h7l2 936q0 53 -30 83.5t-73 38.5l4 48h283z" />
    <glyph glyph-name="eng" unicode="&#x14b;" horiz-adv-x="1245" 
d="M662 1106q182 0 299.5 -116t119.5 -333v-757q0 -170 -87 -263.5t-222 -93.5q-102 0 -178 46t-76 122q0 39 21.5 62.5t62.5 23.5t60.5 -27.5t24.5 -60.5t28.5 -60.5t68.5 -27.5q125 0 125 254v787q2 162 -81 253t-205.5 91t-210.5 -85t-88 -206v-545q0 -53 28.5 -85
t71.5 -40l-4 -45h-363l-4 45q43 8 73 40t30 85v637q0 53 -31 86t-72 39l4 47q35 4 101.5 36t138.5 91h22l3 -178h10q47 78 132 128t198 50z" />
    <glyph glyph-name="Omacron" unicode="&#x14c;" horiz-adv-x="1550" 
d="M506 1667v109h536v-109h-536zM788.5 -37q-292.5 0 -494.5 223.5t-202 532.5q0 328 186.5 539.5t497.5 211.5q289 0 485.5 -221t196.5 -540q0 -311 -188.5 -528.5t-481 -217.5zM829 53q197 0 319 164t122 385q0 201 -67.5 378t-195.5 288.5t-288 111.5q-203 0 -323 -157.5
t-120 -395.5q0 -197 68 -372.5t196.5 -288.5t288.5 -113z" />
    <glyph glyph-name="omacron" unicode="&#x14d;" horiz-adv-x="1247" 
d="M354 1303v108h537v-108h-537zM641 -37q-248 0 -407.5 171t-159.5 417q0 240 154.5 397.5t392.5 157.5q242 0 397.5 -166t155.5 -416q0 -244 -147.5 -402.5t-385.5 -158.5zM676 55q145 0 239.5 116t94.5 288q0 217 -120 387t-304 170q-152 0 -249 -114t-97 -290
q0 -211 123 -384t313 -173z" />
    <glyph glyph-name="Obreve" unicode="&#x14e;" horiz-adv-x="1550" 
d="M774 1587q-113 0 -182.5 58.5t-95.5 142.5l67 31q23 -47 81 -84t130 -37q70 0 130.5 37t82.5 84l68 -31q-72 -201 -281 -201zM788.5 -37q-292.5 0 -494.5 223.5t-202 532.5q0 328 186.5 539.5t497.5 211.5q289 0 485.5 -221t196.5 -540q0 -311 -188.5 -528.5t-481 -217.5
zM829 53q197 0 319 164t122 385q0 201 -67.5 378t-195.5 288.5t-288 111.5q-203 0 -323 -157.5t-120 -395.5q0 -197 68 -372.5t196.5 -288.5t288.5 -113z" />
    <glyph glyph-name="obreve" unicode="&#x14f;" horiz-adv-x="1247" 
d="M623 1223q-113 0 -182.5 58t-96.5 142l68 31q23 -47 81 -84t130 -37q70 0 130 37t83 84l67 -31q-71 -200 -280 -200zM641 -37q-248 0 -407.5 171t-159.5 417q0 240 154.5 397.5t392.5 157.5q242 0 397.5 -166t155.5 -416q0 -244 -147.5 -402.5t-385.5 -158.5zM676 55
q145 0 239.5 116t94.5 288q0 217 -120 387t-304 170q-152 0 -249 -114t-97 -290q0 -211 123 -384t313 -173z" />
    <glyph glyph-name="Ohungarumlaut" unicode="&#x150;" horiz-adv-x="1550" 
d="M655 1522l-69 28l92 244q27 68 86 68q31 2 50.5 -18.5t19.5 -45.5q0 -31 -37 -86zM911 1522l-69 28l92 244q27 68 86 68q33 2 52.5 -18.5t19.5 -45.5q0 -27 -39 -86zM788.5 -37q-292.5 0 -494.5 223.5t-202 532.5q0 328 186.5 539.5t497.5 211.5q289 0 485.5 -221
t196.5 -540q0 -311 -188.5 -528.5t-481 -217.5zM829 53q197 0 319 164t122 385q0 201 -67.5 378t-195.5 288.5t-288 111.5q-203 0 -323 -157.5t-120 -395.5q0 -197 68 -372.5t196.5 -288.5t288.5 -113z" />
    <glyph glyph-name="ohungarumlaut" unicode="&#x151;" horiz-adv-x="1247" 
d="M487 1157l-69 29l94 244q27 68 86 67q31 2 50.5 -18.5t19.5 -44.5q0 -29 -39 -86zM745 1157l-69 29q63 174 92 244q27 68 86 67q31 2 50.5 -18.5t19.5 -44.5q0 -31 -37 -86zM641 -37q-248 0 -407.5 171t-159.5 417q0 240 154.5 397.5t392.5 157.5q242 0 397.5 -166
t155.5 -416q0 -244 -147.5 -402.5t-385.5 -158.5zM676 55q145 0 239.5 116t94.5 288q0 217 -120 387t-304 170q-152 0 -249 -114t-97 -290q0 -211 123 -384t313 -173z" />
    <glyph glyph-name="OE" unicode="&#x152;" horiz-adv-x="2203" 
d="M2126 317l53 -22l-98 -326h-17q-72 31 -264 31h-778q-113 -31 -254 -31q-295 0 -496.5 223.5t-201.5 532.5q0 328 186 539t498 211q127 0 254 -41h997l90 -258l-53 -19q-4 8 -13.5 20.5t-46 44t-85 56.5t-136.5 44t-192 19q-145 0 -273 -20v-522h492q49 0 86 30.5
t45 75.5l45 -4v-295l-47 -4q-8 45 -44 76t-85 31h-492v-598q160 -20 357 -21q102 0 189 23.5t137.5 57.5t85 66.5t49.5 57.5zM252 817q0 -197 69.5 -369t200.5 -281.5t295 -109.5q182 0 291 72v4v1118q-152 135 -391 135q-213 0 -339 -163.5t-126 -405.5z" />
    <glyph glyph-name="oe" unicode="&#x153;" horiz-adv-x="2115" 
d="M1626 94q123 0 218 72t136 168l48 -17q-31 -143 -159 -248.5t-321 -105.5q-139 0 -262 70.5t-196 195.5q-66 -123 -185 -194.5t-270 -71.5q-246 0 -403.5 170t-157.5 418q0 240 152.5 397.5t387.5 157.5q152 0 276 -72.5t191 -199.5q68 125 190 197.5t269 74.5
q176 0 286.5 -81t155.5 -196q33 -86 70 -100l12 -65l-895 -134q14 -207 136 -321.5t321 -114.5zM1524 1020q-147 0 -246.5 -116t-110.5 -286l682 99q-14 123 -100 213t-225 90zM676 53q145 0 239.5 116t94.5 290q0 217 -120 387t-302 170q-154 0 -251 -114t-97 -290
q0 -211 124 -385t312 -174z" />
    <glyph glyph-name="Racute" unicode="&#x154;" horiz-adv-x="1413" 
d="M815 1702l-221 -178l-51 45l166 237q39 51 88 52q33 0 52 -20.5t19 -47.5q0 -45 -53 -88zM1434 57l6 -47q-96 -37 -144 -37q-215 0 -252 285q-27 225 -109.5 299t-291.5 74h-289v-461q0 -53 30 -85t71 -38l-4 -47h-383l-5 47q41 6 72 38t31 85v1094q0 53 -31 84.5
t-72 37.5l5 48h639q266 0 420.5 -103.5t154.5 -296.5q0 -291 -338 -366v-15q137 -20 197.5 -101t87.5 -245q23 -141 63 -195.5t142 -54.5zM662 1343q-184 0 -308 -24v-594h330q201 0 303.5 80t102.5 225q0 147 -116.5 230t-311.5 83z" />
    <glyph glyph-name="racute" unicode="&#x155;" horiz-adv-x="876" 
d="M444 1337l-221 -178l-51 45l166 238q39 51 88 51q33 0 52.5 -20.5t19.5 -47.5q-1 -45 -54 -88zM662 1106q100 0 148 -43t48 -107q0 -49 -35 -82.5t-88 -33.5q-41 0 -68.5 20.5t-39 46t-34 46t-54.5 20.5q-61 0 -137 -76t-76 -178v-549q0 -53 29.5 -85t70.5 -38l-4 -47
h-363l-4 47q41 6 71 38t30 85v639q0 53 -30 84t-71 39l4 45q100 18 236 129h24l5 -203h8q142 203 330 203z" />
    <glyph glyph-name="uni0156" unicode="&#x156;" horiz-adv-x="1449" 
d="M1434 57l6 -47q-96 -37 -144 -37q-215 0 -252 285q-27 223 -108.5 295t-292.5 72h-289v-455q0 -53 30 -85t71 -38l-4 -47h-383l-5 47q41 6 72 38t31 85v1094q0 53 -31 84.5t-72 37.5l5 48h639q266 0 420.5 -104.5t154.5 -297.5q0 -147 -93 -244.5t-267 -132.5v-8
q147 -4 213.5 -88t93.5 -252q23 -141 63 -195.5t142 -54.5zM662 1343q-184 0 -308 -24v-600h330q201 0 303.5 83t102.5 226q0 147 -116.5 231t-311.5 84zM668 -117q66 0 104.5 -50t38.5 -124q0 -115 -63.5 -248t-167.5 -215l-68 66q61 49 115.5 135t66.5 180l-4 6
q-14 -6 -31 -6q-53 0 -92 37t-39 94q0 55 40.5 90t99.5 35z" />
    <glyph glyph-name="uni0157" unicode="&#x157;" horiz-adv-x="882" 
d="M662 1106q100 0 148 -43t48 -107q0 -49 -35 -82.5t-88 -33.5q-41 0 -68.5 20.5t-39 46t-34 46t-54.5 20.5q-61 0 -137 -76t-76 -178v-549q0 -53 29.5 -85t70.5 -38l-4 -47h-363l-4 47q41 6 71 38t30 85v639q0 53 -30 84t-71 39l4 45q100 18 236 129h24l5 -203h8
q142 203 330 203zM242 -117q68 0 105.5 -49t37.5 -125q0 -115 -63.5 -248t-167.5 -215l-68 66q61 47 115.5 134t68.5 181l-4 6q-16 -6 -33 -6q-53 0 -91 37t-38 94q0 55 40.5 90t97.5 35z" />
    <glyph glyph-name="Rcaron" unicode="&#x158;" horiz-adv-x="1413" 
d="M1028 1786l-321 -256l-322 256l41 57l281 -143l280 143zM1434 57l6 -47q-96 -37 -144 -37q-215 0 -252 285q-27 225 -109.5 299t-291.5 74h-289v-461q0 -53 30 -85t71 -38l-4 -47h-383l-5 47q41 6 72 38t31 85v1094q0 53 -31 84.5t-72 37.5l5 48h639q266 0 420.5 -103.5
t154.5 -296.5q0 -291 -338 -366v-15q137 -20 197.5 -101t87.5 -245q23 -141 63 -195.5t142 -54.5zM662 1343q-184 0 -308 -24v-594h330q201 0 303.5 80t102.5 225q0 147 -116.5 230t-311.5 83z" />
    <glyph glyph-name="rcaron" unicode="&#x159;" horiz-adv-x="876" 
d="M760 1421l-322 -256l-321 256l41 58l280 -144l281 144zM662 1106q100 0 148 -43t48 -107q0 -49 -35 -82.5t-88 -33.5q-41 0 -68.5 20.5t-39 46t-34 46t-54.5 20.5q-61 0 -137 -76t-76 -178v-549q0 -53 29.5 -85t70.5 -38l-4 -47h-363l-4 47q41 6 71 38t30 85v639
q0 53 -30 84t-71 39l4 45q100 18 236 129h24l5 -203h8q142 203 330 203z" />
    <glyph glyph-name="Sacute" unicode="&#x15a;" horiz-adv-x="1392" 
d="M584 1524l-52 45l166 237q39 51 88 52q33 0 52.5 -20.5t19.5 -47.5q0 -45 -53 -88zM752 -37q-96 0 -224.5 35t-195.5 35q-27 0 -52.5 -8.5t-37.5 -16.5l-15 -8h-16l-137 432l57 25q211 -408 617 -408q162 0 273.5 85t111.5 218q0 51 -15.5 91t-53.5 72t-70.5 53.5
t-99.5 43t-103.5 31.5t-116.5 31q-76 20 -112 29.5t-103.5 33t-102 42t-82 51t-70 68.5t-40 86t-17.5 110q0 160 140.5 268t343.5 108q109 0 233.5 -32.5t161.5 -32.5q18 0 36.5 7t29.5 13l10 9h22l127 -396l-53 -20q-86 172 -228.5 269t-328.5 97q-150 0 -240 -66.5
t-90 -164.5q0 -80 69 -137.5t132 -80t213 -61.5q14 -4 20 -6q70 -18 103 -27.5t95.5 -29.5t96 -37.5t82.5 -44.5t75 -57.5t53.5 -69.5t38.5 -87t11 -105q0 -195 -154 -321t-394 -126z" />
    <glyph glyph-name="sacute" unicode="&#x15b;" horiz-adv-x="1087" 
d="M432 1159l-51 45l166 238q39 51 90 51q33 0 51.5 -19.5t18.5 -48.5q0 -45 -54 -88zM616 -37q-82 0 -201.5 34t-162.5 34q-23 0 -44.5 -8.5t-31.5 -14.5l-10 -8h-16l-95 356l43 15q109 -168 233 -245t281 -77q109 0 187 51.5t78 149.5t-90.5 151.5t-249.5 85.5
q-68 14 -119 28.5t-113.5 41.5t-103.5 58.5t-69 79.5t-28 108q0 127 110 215t278 88q84 0 183 -33t138 -33q49 0 78 29h16l72 -301l-49 -20q-156 276 -424 276q-109 0 -173.5 -47t-64.5 -117q0 -47 27 -84t82 -62.5t105 -41t130 -33.5q59 -14 88 -21.5t81.5 -23.5t81 -31.5
t66.5 -41t56.5 -53.5t32.5 -69t14 -88q0 -158 -117 -253t-299 -95z" />
    <glyph glyph-name="Scircumflex" unicode="&#x15c;" horiz-adv-x="1392" 
d="M416 1513l-41 58l321 256l322 -256l-41 -58l-281 144zM752 -37q-96 0 -224.5 35t-195.5 35q-27 0 -52.5 -8.5t-37.5 -16.5l-15 -8h-16l-137 432l57 25q211 -408 617 -408q162 0 273.5 85t111.5 218q0 51 -15.5 91t-53.5 72t-70.5 53.5t-99.5 43t-103.5 31.5t-116.5 31
q-76 20 -112 29.5t-103.5 33t-102 42t-82 51t-70 68.5t-40 86t-17.5 110q0 160 140.5 268t343.5 108q109 0 233.5 -32.5t161.5 -32.5q18 0 36.5 7t29.5 13l10 9h22l127 -396l-53 -20q-86 172 -228.5 269t-328.5 97q-150 0 -240 -66.5t-90 -164.5q0 -80 69 -137.5t132 -80
t213 -61.5q14 -4 20 -6q70 -18 103 -27.5t95.5 -29.5t96 -37.5t82.5 -44.5t75 -57.5t53.5 -69.5t38.5 -87t11 -105q0 -195 -154 -321t-394 -126z" />
    <glyph glyph-name="scircumflex" unicode="&#x15d;" horiz-adv-x="1087" 
d="M264 1149l-43 57l322 256l321 -256l-41 -57l-280 143zM616 -37q-82 0 -201.5 34t-162.5 34q-23 0 -44.5 -8.5t-31.5 -14.5l-10 -8h-16l-95 356l43 15q109 -168 233 -245t281 -77q109 0 187 51.5t78 149.5t-90.5 151.5t-249.5 85.5q-68 14 -119 28.5t-113.5 41.5
t-103.5 58.5t-69 79.5t-28 108q0 127 110 215t278 88q84 0 183 -33t138 -33q49 0 78 29h16l72 -301l-49 -20q-156 276 -424 276q-109 0 -173.5 -47t-64.5 -117q0 -47 27 -84t82 -62.5t105 -41t130 -33.5q59 -14 88 -21.5t81.5 -23.5t81 -31.5t66.5 -41t56.5 -53.5t32.5 -69
t14 -88q0 -158 -117 -253t-299 -95z" />
    <glyph glyph-name="Scedilla" unicode="&#x15e;" horiz-adv-x="1392" 
d="M1300 410q0 -195 -153.5 -320t-390.5 -127l-45 -102q25 12 63 12q78 0 126 -39t48 -108q0 -78 -75.5 -137.5t-202.5 -59.5q-100 0 -164 35t-64 84q0 27 18.5 46t45.5 19q33 0 51 -18.5t25.5 -41t32 -41t67.5 -18.5q63 0 98 29t35 76q0 33 -24.5 55.5t-65.5 22.5
q-57 0 -92 -33l-49 23l84 200q-53 6 -161 36t-175 30q-27 0 -52.5 -8.5t-37.5 -16.5l-15 -8h-16l-137 432l57 25q211 -408 617 -408q162 0 273.5 85t111.5 218q0 51 -15.5 91t-53.5 72t-70.5 53.5t-99.5 43t-103.5 31.5t-116.5 31q-76 20 -112 29.5t-103.5 33t-102 42
t-82 51t-70 68.5t-40 86t-17.5 110q0 160 140.5 268t343.5 108q109 0 233.5 -32.5t161.5 -32.5q18 0 36.5 7t29.5 13l10 9h22l127 -396l-53 -20q-86 172 -228.5 269t-328.5 97q-150 0 -240 -66.5t-90 -164.5q0 -80 69 -137.5t132 -80t213 -61.5q14 -4 20 -6
q70 -18 103 -27.5t95.5 -29.5t96 -37.5t82.5 -44.5t75 -57.5t53.5 -69.5t38.5 -87t11 -105z" />
    <glyph glyph-name="scedilla" unicode="&#x15f;" horiz-adv-x="1087" 
d="M616 -37h-12l-45 -102q25 12 64 12q78 0 127 -39t49 -108q0 -78 -77 -137.5t-204 -59.5q-100 0 -162.5 35t-62.5 84q0 27 18.5 46t44.5 19q33 0 50.5 -18.5t24.5 -41t31.5 -41t67.5 -18.5q63 0 98.5 29t35.5 76q0 33 -25 55.5t-66 22.5q-57 0 -90 -33l-51 23l86 204
q-41 6 -132 33t-134 27q-23 0 -44.5 -8.5t-31.5 -14.5l-10 -8h-16l-95 356l43 15q109 -168 233 -245t281 -77q109 0 187 51.5t78 149.5t-90.5 151.5t-249.5 85.5q-68 14 -119 28.5t-113.5 41.5t-103.5 58.5t-69 79.5t-28 108q0 127 110 215t278 88q84 0 183 -33t138 -33
q49 0 78 29h16l72 -301l-49 -20q-156 276 -424 276q-109 0 -173.5 -47t-64.5 -117q0 -47 27 -84t82 -62.5t105 -41t130 -33.5q59 -14 88 -21.5t81.5 -23.5t81 -31.5t66.5 -41t56.5 -53.5t32.5 -69t14 -88q0 -158 -117 -253t-299 -95z" />
    <glyph glyph-name="Scaron" unicode="&#x160;" horiz-adv-x="1392" 
d="M696 1530l-321 256l41 57l280 -143l281 143l41 -57zM752 -37q-96 0 -224.5 35t-195.5 35q-27 0 -52.5 -8.5t-37.5 -16.5l-15 -8h-16l-137 432l57 25q211 -408 617 -408q162 0 273.5 85t111.5 218q0 51 -15.5 91t-53.5 72t-70.5 53.5t-99.5 43t-103.5 31.5t-116.5 31
q-76 20 -112 29.5t-103.5 33t-102 42t-82 51t-70 68.5t-40 86t-17.5 110q0 160 140.5 268t343.5 108q109 0 233.5 -32.5t161.5 -32.5q18 0 36.5 7t29.5 13l10 9h22l127 -396l-53 -20q-86 172 -228.5 269t-328.5 97q-150 0 -240 -66.5t-90 -164.5q0 -80 69 -137.5t132 -80
t213 -61.5q14 -4 20 -6q70 -18 103 -27.5t95.5 -29.5t96 -37.5t82.5 -44.5t75 -57.5t53.5 -69.5t38.5 -87t11 -105q0 -195 -154 -321t-394 -126z" />
    <glyph glyph-name="scaron" unicode="&#x161;" horiz-adv-x="1087" 
d="M543 1165l-322 256l41 58l281 -144l280 144l41 -58zM616 -37q-82 0 -201.5 34t-162.5 34q-23 0 -44.5 -8.5t-31.5 -14.5l-10 -8h-16l-95 356l43 15q109 -168 233 -245t281 -77q109 0 187 51.5t78 149.5t-90.5 151.5t-249.5 85.5q-68 14 -119 28.5t-113.5 41.5
t-103.5 58.5t-69 79.5t-28 108q0 127 110 215t278 88q84 0 183 -33t138 -33q49 0 78 29h16l72 -301l-49 -20q-156 276 -424 276q-109 0 -173.5 -47t-64.5 -117q0 -47 27 -84t82 -62.5t105 -41t130 -33.5q59 -14 88 -21.5t81.5 -23.5t81 -31.5t66.5 -41t56.5 -53.5t32.5 -69
t14 -88q0 -158 -117 -253t-299 -95z" />
    <glyph glyph-name="uni0162" unicode="&#x162;" horiz-adv-x="1333" 
d="M1204 1468l101 -333l-54 -23q-4 10 -13 25.5t-46 55.5t-85 70.5t-133 56.5t-188 26h-20v-1176q0 -53 29.5 -85t70.5 -38l-4 -47h-147l-60 -139q12 12 64 12q76 0 125 -39t49 -108q0 -78 -76 -137.5t-203 -59.5q-100 0 -163.5 35t-63.5 84q0 27 18.5 46t45.5 19
q33 0 51 -18.5t24 -41t31 -41t70 -18.5q63 0 97 29t34 76q0 33 -23.5 55.5t-64.5 22.5q-59 0 -92 -33l-50 23l97 233h-146l-4 47q41 6 72 38t31 85v1176h-23q-102 0 -187 -24t-134.5 -58.5t-84 -69.5t-47.5 -59l-12 -23l-55 23l102 333h17q68 -35 233 -34h567q166 0 234 34
h16z" />
    <glyph glyph-name="uni0163" unicode="&#x163;" horiz-adv-x="702" 
d="M524 -127q78 0 126 -39t48 -108q0 -78 -75.5 -137.5t-202.5 -59.5q-100 0 -163.5 35t-63.5 84q0 27 18 46t45 19q33 0 51.5 -18.5t25.5 -41t31.5 -41t67.5 -18.5q63 0 98 29t35 76q0 33 -24.5 55.5t-65.5 22.5q-57 0 -92 -33l-49 23l84 198q-205 20 -205 271v745h-176v53
q137 47 196.5 119t92.5 221h57v-305h289v-88h-289v-752q0 -84 31.5 -123.5t103.5 -39.5q70 0 131 24l23 -78q-68 -35 -164 -47l-47 -104q24 12 63 12z" />
    <glyph glyph-name="Tcaron" unicode="&#x164;" horiz-adv-x="1339" 
d="M991 1786l-321 -256l-322 256l41 57l281 -143l278 143zM1204 1468l101 -333l-54 -23q-4 10 -13 25.5t-46 55.5t-85 70.5t-133 56.5t-188 26h-20v-1176q0 -53 29.5 -85t70.5 -38l-4 -47h-383l-4 47q41 6 72 38t31 85v1176h-23q-102 0 -187 -24t-134.5 -58.5t-84 -69.5
t-47.5 -59l-12 -23l-55 23l102 333h17q68 -35 233 -34h567q166 0 234 34h16z" />
    <glyph glyph-name="tcaron" unicode="&#x165;" horiz-adv-x="1128" 
d="M915 1470q68 0 106 -49t38 -125q0 -117 -63.5 -250t-168.5 -212l-67 65q61 45 115.5 133t68.5 182l-4 5q-20 -4 -33 -5q-53 0 -91 36t-38 93q0 55 40 91t97 36zM403 1374v-305h287v-88h-287v-752q0 -84 32 -123.5t104 -39.5q70 0 131 24l20 -78q-90 -49 -211 -49
q-119 0 -182.5 61.5t-63.5 211.5v745h-176v53q137 47 196.5 119t90.5 221h59z" />
    <glyph glyph-name="Tbar" unicode="&#x166;" horiz-adv-x="1339" 
d="M1202 1470l103 -337l-54 -21q-4 10 -13 25.5t-47 55.5t-85 70.5t-133 55t-187 24.5h-20v-587h293l2 -82h-295v-504q0 -104 100 -125l-4 -45h-383l-4 45q43 8 71.5 40t28.5 85v504h-294v80h294v589h-22q-100 0 -185 -23.5t-134.5 -57t-84 -68.5t-47.5 -59l-12 -23l-55 21
l100 337h17q74 -37 235 -36h565q166 0 236 36h14z" />
    <glyph glyph-name="tbar" unicode="&#x167;" horiz-adv-x="729" 
d="M672 981h-289v-358h279v-80h-279v-314q0 -86 31.5 -124.5t103.5 -38.5q70 0 131 22l23 -78q-98 -47 -211 -47q-119 0 -182.5 61.5t-63.5 208.5v310h-176v80h176v358h-176v53q135 47 194.5 119t92.5 221h57v-305h289v-88z" />
    <glyph glyph-name="Utilde" unicode="&#x168;" horiz-adv-x="1300" 
d="M764 1628q-55 0 -138 59.5t-118 59.5q-66 0 -82 -88l-64 20q14 92 59.5 138.5t113.5 46.5q55 0 140 -58.5t120 -58.5q61 0 82 86l59 -18q-12 -92 -58 -139.5t-114 -47.5zM664 -37q-301 0 -459 163t-131 452l59 686q4 53 -21.5 84.5t-66.5 37.5l4 48h389l4 -48
q-43 -6 -75.5 -37.5t-36.5 -84.5l-60 -684q-23 -238 89 -382.5t331 -144.5q233 0 348 144.5t92 382.5l-57 675q-4 49 -40 86t-81 45l4 48h295l4 -48q-43 -10 -68.5 -45.5t-23.5 -85.5l60 -677q23 -276 -124.5 -445.5t-434.5 -169.5z" />
    <glyph glyph-name="utilde" unicode="&#x169;" horiz-adv-x="1208" 
d="M461 1382q-63 0 -80 -88l-64 21q25 184 172 184q55 0 139.5 -58.5t119.5 -58.5q63 0 83 86l60 -18q-27 -186 -172 -186q-55 0 -139 59t-119 59zM1053 170q0 -53 29.5 -85t70.5 -38l-4 -47q-133 -14 -223 -37h-23l-10 187h-16q-125 -186 -338 -187q-186 0 -294 113.5
t-108 335.5v399q0 53 -29.5 85t-70.5 38l4 47q104 12 244 125h22v-700q0 -166 74 -254.5t205 -88.5q123 0 211 83t88 208v457q0 53 -31 86t-72 39l4 45q119 20 244 125h23v-936z" />
    <glyph glyph-name="Umacron" unicode="&#x16a;" horiz-adv-x="1300" 
d="M381 1667v109h537v-109h-537zM664 -37q-301 0 -459 163t-131 452l59 686q4 53 -21.5 84.5t-66.5 37.5l4 48h389l4 -48q-43 -6 -75.5 -37.5t-36.5 -84.5l-60 -684q-23 -238 89 -382.5t331 -144.5q233 0 348 144.5t92 382.5l-57 675q-4 49 -40 86t-81 45l4 48h295l4 -48
q-43 -10 -68.5 -45.5t-23.5 -85.5l60 -677q23 -276 -124.5 -445.5t-434.5 -169.5z" />
    <glyph glyph-name="umacron" unicode="&#x16b;" horiz-adv-x="1208" 
d="M872 1411v-108h-536v108h536zM1053 170q0 -53 29.5 -85t70.5 -38l-4 -47q-133 -14 -223 -37h-23l-10 187h-16q-125 -186 -338 -187q-186 0 -294 113.5t-108 335.5v399q0 53 -29.5 85t-70.5 38l4 47q104 12 244 125h22v-700q0 -166 74 -254.5t205 -88.5q123 0 211 83
t88 208v457q0 53 -31 86t-72 39l4 45q119 20 244 125h23v-936z" />
    <glyph glyph-name="Ubreve" unicode="&#x16c;" horiz-adv-x="1300" 
d="M649 1587q-113 0 -182.5 57.5t-97.5 143.5l69 31q23 -47 81.5 -84t129.5 -37q70 0 129.5 37t81.5 84l70 -31q-72 -201 -281 -201zM664 -37q-301 0 -459 163t-131 452l59 686q4 53 -21.5 84.5t-66.5 37.5l4 48h389l4 -48q-43 -6 -75.5 -37.5t-36.5 -84.5l-60 -684
q-23 -238 89 -382.5t331 -144.5q233 0 348 144.5t92 382.5l-57 675q-4 49 -40 86t-81 45l4 48h295l4 -48q-43 -10 -68.5 -45.5t-23.5 -85.5l60 -677q23 -276 -124.5 -445.5t-434.5 -169.5z" />
    <glyph glyph-name="ubreve" unicode="&#x16d;" horiz-adv-x="1208" 
d="M604 1223q-213 0 -280 200l69 31q23 -47 80 -84t131 -37q68 0 129.5 37t81.5 84l68 -31q-68 -200 -279 -200zM1053 170q0 -53 29.5 -85t70.5 -38l-4 -47q-133 -14 -223 -37h-23l-10 187h-16q-125 -186 -338 -187q-186 0 -294 113.5t-108 335.5v399q0 53 -29.5 85
t-70.5 38l4 47q104 12 244 125h22v-700q0 -166 74 -254.5t205 -88.5q123 0 211 83t88 208v457q0 53 -31 86t-72 39l4 45q119 20 244 125h23v-936z" />
    <glyph glyph-name="Uring" unicode="&#x16e;" horiz-adv-x="1300" 
d="M649 1538q-92 0 -154.5 63.5t-62.5 151.5q0 90 62.5 153.5t154.5 63.5q90 0 153.5 -63.5t63.5 -153.5q0 -88 -64.5 -151.5t-152.5 -63.5zM649 1628q53 0 90 37t37 88q0 53 -37 90t-90 37t-88 -37t-35 -90t35 -89t88 -36zM664 -37q-301 0 -459 163t-131 452l59 686
q4 53 -21.5 84.5t-66.5 37.5l4 48h389l4 -48q-43 -6 -75.5 -37.5t-36.5 -84.5l-60 -684q-23 -238 89 -382.5t331 -144.5q233 0 348 144.5t92 382.5l-57 675q-4 49 -40 86t-81 45l4 48h295l4 -48q-43 -10 -68.5 -45.5t-23.5 -85.5l60 -677q23 -276 -124.5 -445.5
t-434.5 -169.5z" />
    <glyph glyph-name="uring" unicode="&#x16f;" horiz-adv-x="1208" 
d="M604 1174q-92 0 -155.5 63t-63.5 152q0 90 63.5 153.5t155.5 63.5q90 0 153.5 -63.5t63.5 -153.5q0 -88 -64.5 -151.5t-152.5 -63.5zM604 1516q-53 0 -89 -37t-36 -90.5t36 -89t89 -35.5q51 0 88 35.5t37 89t-36 90.5t-89 37zM1053 170q0 -53 29.5 -85t70.5 -38l-4 -47
q-133 -14 -223 -37h-23l-10 187h-16q-125 -186 -338 -187q-186 0 -294 113.5t-108 335.5v399q0 53 -29.5 85t-70.5 38l4 47q104 12 244 125h22v-700q0 -166 74 -254.5t205 -88.5q123 0 211 83t88 208v457q0 53 -31 86t-72 39l4 45q119 20 244 125h23v-936z" />
    <glyph glyph-name="Uhungarumlaut" unicode="&#x170;" horiz-adv-x="1300" 
d="M586 1522l-70 28l92 244q27 68 88 68q31 2 50.5 -18.5t19.5 -45.5q0 -27 -39 -86zM844 1522l-70 28l92 244q27 68 86 68q31 2 50.5 -18.5t19.5 -45.5q0 -31 -37 -86zM664 -37q-301 0 -459 163t-131 452l59 686q4 53 -21.5 84.5t-66.5 37.5l4 48h389l4 -48
q-43 -6 -75.5 -37.5t-36.5 -84.5l-60 -684q-23 -238 89 -382.5t331 -144.5q233 0 348 144.5t92 382.5l-57 675q-4 49 -40 86t-81 45l4 48h295l4 -48q-43 -10 -68.5 -45.5t-23.5 -85.5l60 -677q23 -276 -124.5 -445.5t-434.5 -169.5z" />
    <glyph glyph-name="uhungarumlaut" unicode="&#x171;" horiz-adv-x="1208" 
d="M635 1348l-141 -191l-70 29l92 244q27 68 86 67q31 2 50.5 -18.5t19.5 -44.5q0 -31 -37 -86zM891 1348l-141 -191l-70 29l92 244q27 68 86 67q33 2 52.5 -18.5t19.5 -44.5q0 -29 -39 -86zM1053 170q0 -53 29.5 -85t70.5 -38l-4 -47q-133 -14 -223 -37h-23l-10 187h-16
q-125 -186 -338 -187q-186 0 -294 113.5t-108 335.5v399q0 53 -29.5 85t-70.5 38l4 47q104 12 244 125h22v-700q0 -166 74 -254.5t205 -88.5q123 0 211 83t88 208v457q0 53 -31 86t-72 39l4 45q119 20 244 125h23v-936z" />
    <glyph glyph-name="Uogonek" unicode="&#x172;" horiz-adv-x="1300" 
d="M1163 1255l60 -677q23 -270 -119.5 -439.5t-421.5 -175.5q-88 -72 -88 -168q0 -61 41 -100t96 -39q98 0 152 98l63 -33q-82 -156 -258 -155q-98 0 -163.5 53t-65.5 143q0 115 106 205q-256 29 -386 187.5t-105 423.5l59 686q4 53 -21.5 84.5t-66.5 37.5l4 48h389l4 -48
q-43 -6 -75.5 -37.5t-36.5 -84.5l-60 -684q-23 -238 89 -382.5t331 -144.5q233 0 348 144.5t92 382.5l-57 675q-4 49 -40 86t-81 45l4 48h295l4 -48q-43 -10 -68.5 -46t-23.5 -85z" />
    <glyph glyph-name="uogonek" unicode="&#x173;" horiz-adv-x="1208" 
d="M1167 -246l64 -33q-80 -156 -256 -155q-98 0 -165 53t-67 143q0 143 158 244l-8 144h-16q-125 -186 -338 -187q-186 0 -294 113.5t-108 335.5v399q0 53 -29.5 85t-70.5 38l4 47q104 12 244 125h22v-700q0 -166 74 -254.5t205 -88.5q123 0 211 83t88 208v457q0 53 -31 86
t-72 39l4 45q119 20 244 125h23v-936q0 -53 29.5 -85t70.5 -38l-4 -47q-86 -8 -166 -25q-104 -74 -104 -180q0 -61 42 -100t97 -39q98 0 149 98z" />
    <glyph glyph-name="Wcircumflex" unicode="&#x174;" horiz-adv-x="1959" 
d="M979 1657l-281 -144l-41 58l322 256l321 -256l-40 -58zM1980 1434l7 -48q-102 -18 -132 -122l-362 -1190q18 -20 43 -37l-8 -37q-125 0 -215 -31h-19l-309 1047h-12l-291 -944q23 -23 45 -35l-6 -37q-104 2 -217 -31h-12l-390 1295q-31 104 -129 122l7 48h385l2 -48
q-35 -8 -57.5 -37.5t-8.5 -84.5l315 -1053h9l305 989l-4 17q-25 74 -47.5 111.5t-67.5 64.5l8 47q119 -2 219 30h13l372 -1257v-2h11l323 1053q16 55 -6 84.5t-57 37.5v48h286z" />
    <glyph glyph-name="wcircumflex" unicode="&#x175;" horiz-adv-x="1554" 
d="M768 1292l-281 -143l-41 57l322 256l322 -256l-41 -57zM1389 1106q66 0 100.5 -44t34.5 -110q0 -109 -78 -282l-270 -670h-164l-217 752h-9l-243 -752h-176l-224 809q-33 117 -153 125l6 45q33 6 100.5 41t122.5 86h21l262 -942h10l289 905h86l262 -905h10l215 549
q33 78 33 108.5t-21.5 51t-46 33t-46 38t-21.5 64.5q0 45 33 71.5t84 26.5z" />
    <glyph glyph-name="Ycircumflex" unicode="&#x176;" horiz-adv-x="1243" 
d="M342 1513l-43 58l324 256l321 -256l-43 -58l-278 144zM430 0l-4 47q41 6 70.5 38t29.5 85v524l-389 570q-74 111 -164 122l4 48h420l4 -48q-41 -8 -56 -36.5t15 -85.5l310 -445h12l305 445q33 57 17.5 85.5t-54.5 36.5l4 48h312l4 -48q-90 -12 -164 -122l-391 -570v-524
q0 -53 30.5 -85t71.5 -38l-4 -47h-383z" />
    <glyph glyph-name="ycircumflex" unicode="&#x177;" horiz-adv-x="1046" 
d="M522 1292l-278 -143l-43 57l321 256l322 -256l-41 -57zM874 1106q66 0 101 -45t35 -111q0 -150 -168 -495q-152 -332 -271 -539q-106 -199 -185 -286t-165 -87q-55 0 -96 35t-41 86t30.5 80t75.5 29q33 0 70 -24.5t55 -24.5q37 0 77 50t110 181q8 16 24 45h-45l-315 809
q-45 117 -176 125l4 45q35 6 99.5 41t111.5 86h26l371 -946h10v-2q84 164 154 334q80 166 100.5 227t18.5 106q0 31 -19.5 52.5t-43 32t-43 36t-19.5 62.5q0 45 32.5 71.5t81.5 26.5z" />
    <glyph glyph-name="Ydieresis" unicode="&#x178;" horiz-adv-x="1243" 
d="M448.5 1634q-49.5 0 -81 32t-31.5 75q0 47 31.5 79.5t81 32.5t81 -32.5t31.5 -79.5q0 -43 -31.5 -75t-81 -32zM792.5 1634q-49.5 0 -81 32t-31.5 75q0 47 31.5 79.5t81 32.5t81 -32.5t31.5 -79.5q0 -43 -31.5 -75t-81 -32zM430 0l-4 47q41 6 70.5 38t29.5 85v524
l-389 570q-74 111 -164 122l4 48h420l4 -48q-41 -8 -56 -36.5t15 -85.5l310 -445h12l305 445q33 57 17.5 85.5t-54.5 36.5l4 48h312l4 -48q-90 -12 -164 -122l-391 -570v-524q0 -53 30.5 -85t71.5 -38l-4 -47h-383z" />
    <glyph glyph-name="Zacute" unicode="&#x179;" horiz-adv-x="1327" 
d="M573 1524l-53 45l168 237q39 51 88 52q33 0 52.5 -20.5t19.5 -47.5q0 -45 -53 -88zM1108 -37q-74 37 -236 37h-802l-4 47l919 1299h-334q-100 0 -187 -29t-138.5 -69t-89 -80t-52.5 -68l-14 -29l-55 21l118 378h17q74 -37 233 -36h752l4 -48l-920 -1298h388q102 0 191 33
t145.5 81t97.5 95t59 80l17 33l53 -21l-146 -426h-16z" />
    <glyph glyph-name="zacute" unicode="&#x17a;" horiz-adv-x="1097" 
d="M469 1159l-51 45l166 238q39 51 88 51q33 0 52 -20.5t19 -47.5q0 -45 -53 -88zM889 -37q-70 37 -234 37h-596l-4 61l695 916v10h-224q-162 0 -239.5 -43t-136.5 -164l-44 19l66 270h807l4 -59l-698 -914v-12h286q86 0 163 31.5t125 77t83 90.5t49 77l17 31l43 -18
l-146 -410h-16z" />
    <glyph glyph-name="Zdotaccent" unicode="&#x17b;" horiz-adv-x="1327" 
d="M663.5 1645q-49.5 0 -81 30.5t-31.5 75.5q0 47 31.5 79t81 32t81 -32t31.5 -79q0 -45 -31.5 -75.5t-81 -30.5zM1108 -37q-74 37 -236 37h-802l-4 47l919 1299h-334q-100 0 -187 -29t-138.5 -69t-89 -80t-52.5 -68l-14 -29l-55 21l118 378h17q74 -37 233 -36h752l4 -48
l-920 -1298h388q102 0 191 33t145.5 81t97.5 95t59 80l17 33l53 -21l-146 -426h-16z" />
    <glyph glyph-name="zdotaccent" unicode="&#x17c;" horiz-adv-x="1097" 
d="M547 1280q-47 0 -79 31.5t-32 74.5q0 47 31 79t80 32t80.5 -31.5t31.5 -79.5q0 -45 -31.5 -75.5t-80.5 -30.5zM889 -37q-70 37 -234 37h-596l-4 61l695 916v10h-224q-162 0 -239.5 -43t-136.5 -164l-44 19l66 270h807l4 -59l-698 -914v-12h286q86 0 163 31.5t125 77
t83 90.5t49 77l17 31l43 -18l-146 -410h-16z" />
    <glyph glyph-name="Zcaron" unicode="&#x17d;" horiz-adv-x="1327" 
d="M664 1530l-322 256l41 57l281 -143l278 143l43 -57zM1108 -37q-74 37 -236 37h-802l-4 47l919 1299h-334q-100 0 -187 -29t-138.5 -69t-89 -80t-52.5 -68l-14 -29l-55 21l118 378h17q74 -37 233 -36h752l4 -48l-920 -1298h388q102 0 191 33t145.5 81t97.5 95t59 80l17 33
l53 -21l-146 -426h-16z" />
    <glyph glyph-name="zcaron" unicode="&#x17e;" horiz-adv-x="1097" 
d="M549 1165l-322 256l41 58l281 -144l280 144l41 -58zM889 -37q-70 37 -234 37h-596l-4 61l695 916v10h-224q-162 0 -239.5 -43t-136.5 -164l-44 19l66 270h807l4 -59l-698 -914v-12h286q86 0 163 31.5t125 77t83 90.5t49 77l17 31l43 -18l-146 -410h-16z" />
    <glyph glyph-name="longs" unicode="&#x17f;" horiz-adv-x="649" 
d="M444 1587q106 0 181 -54t75 -132q0 -90 -77 -90q-41 0 -64.5 28.5t-31 63.5t-33 63.5t-72.5 28.5q-53 0 -83 -35t-30 -96q0 -57 58.5 -171t58.5 -173v-852q0 -51 29.5 -83t70.5 -40l-4 -45h-362l-4 45q43 8 72.5 40t29.5 83v813h-203v88h199q-4 27 -34 119t-30 158
q0 100 70.5 170.5t183.5 70.5z" />
    <glyph glyph-name="florin" unicode="&#x192;" horiz-adv-x="1030" 
d="M825 1470q74 0 134.5 -26.5t60.5 -75.5q0 -31 -21.5 -49.5t-54.5 -18.5q-49 0 -83 40t-70 40q-82 0 -105 -161l-43 -269h254v-112h-272l-109 -682q-31 -227 -107.5 -325.5t-256.5 -98.5q-80 0 -143.5 30.5t-63.5 85.5q0 68 78 68q49 0 86.5 -48t78.5 -48q109 0 131 172
l134 846h-246v112h264l25 154q50 366 329 366z" />
    <glyph glyph-name="Aringacute" unicode="&#x1fa;" horiz-adv-x="1261" 
d="M631 1538q-92 0 -155.5 63.5t-63.5 151.5q0 80 49 138.5t125 74.5l149 213q39 53 90 53q33 0 51.5 -20.5t18.5 -46.5q0 -45 -53 -88l-146 -117q68 -23 110 -79t42 -128q0 -88 -64.5 -151.5t-152.5 -63.5zM631 1880q-53 0 -89 -37t-36 -90t36 -89t89 -36t89 36t36 89
t-36 90t-89 37zM1149 168q41 -106 139 -121l-4 -47h-383l-4 47q33 6 53.5 37t1.5 84l-92 250h-555l-92 -250q-20 -53 -1 -84t54 -37l-4 -47h-285l-4 47q41 6 80 36t60 85l411 1110q-35 41 -112 70l2 47q143 14 239 69h13zM346 530h471l-233 631h-6z" />
    <glyph glyph-name="aringacute" unicode="&#x1fb;" horiz-adv-x="1110" 
d="M569 1174q-92 0 -154.5 63t-62.5 152q0 78 47 136t121 74l146 209q41 53 90 54q33 0 52 -20.5t19 -49.5q0 -45 -55 -86l-137 -111q68 -23 109.5 -79t41.5 -127q0 -88 -64.5 -151.5t-152.5 -63.5zM569.5 1516q-53.5 0 -89.5 -37t-36 -90.5t36 -89t89.5 -35.5t89 35.5
t35.5 89t-35.5 90.5t-89 37zM1112 74l21 -39q-59 -72 -162 -72q-158 0 -193 184h-8q-53 -94 -151.5 -139t-200.5 -45q-158 0 -259.5 80t-101.5 219q0 92 49.5 165t143.5 123t204.5 83t260.5 59l-13 107q-10 98 -66 159.5t-142 61.5q-84 0 -140.5 -46t-54.5 -114
q4 -51 -22.5 -78.5t-65.5 -27.5q-43 0 -67.5 25.5t-24.5 70.5q2 96 103.5 176t273.5 80q145 0 254.5 -88t128.5 -250l63 -575q16 -143 94 -144q33 0 76 25zM477 61q115 0 197 82t84 187l-35 295q-221 -37 -352 -122t-131 -220q0 -100 66.5 -161t170.5 -61z" />
    <glyph glyph-name="uni0218" unicode="&#x218;" horiz-adv-x="1353" 
d="M745 868q70 -18 103 -27.5t95.5 -29.5t96 -37.5t82.5 -44.5t75 -57.5t53.5 -69.5t38.5 -87t11 -105q0 -195 -154.5 -321t-393.5 -126q-96 0 -224.5 35t-195.5 35q-27 0 -52.5 -8.5t-37.5 -16.5l-15 -8h-16l-137 432l57 25q211 -408 617 -408q162 0 273.5 85t111.5 218
q0 51 -15.5 91t-53.5 72t-70.5 53.5t-99.5 43t-103.5 31.5t-116.5 31q-76 20 -112 29.5t-103.5 33t-102 42t-82 51t-70 68.5t-40 86t-17.5 110q0 160 140.5 268t343.5 108q109 0 233.5 -32.5t161.5 -32.5q18 0 36.5 7t29.5 13l10 9h22l127 -396l-53 -20q-86 172 -228.5 269
t-328.5 97q-150 0 -240 -66.5t-90 -164.5q0 -80 69 -137.5t132 -80t213 -61.5q14 -4 20 -6zM743 -117q66 0 105 -50t39 -124q0 -115 -63.5 -248t-168.5 -215l-67 66q61 49 115.5 135t66.5 180l-4 6q-16 -6 -31 -6q-53 0 -92 37t-39 94q0 55 40 90t99 35z" />
    <glyph glyph-name="uni0219" unicode="&#x219;" horiz-adv-x="1081" 
d="M612 639q59 -14 88 -21.5t81.5 -23.5t81 -31.5t66.5 -41t56.5 -53.5t32.5 -69t14 -88q0 -158 -116.5 -253t-299.5 -95q-82 0 -201.5 34t-162.5 34q-23 0 -44.5 -8.5t-31.5 -14.5l-10 -8h-16l-95 356l43 15q109 -168 233 -245t281 -77q109 0 187 51.5t78 149.5
t-90.5 151.5t-249.5 85.5q-68 14 -119 28.5t-113.5 41.5t-103.5 58.5t-69 79.5t-28 108q0 127 110 215t278 88q84 0 183 -33t138 -33q49 0 78 29h16l72 -301l-49 -20q-156 276 -424 276q-109 0 -173.5 -47t-64.5 -117q0 -47 27 -84t82 -62.5t105 -41t130 -33.5zM580 -117
q68 0 105.5 -49t37.5 -125q0 -115 -63.5 -248t-167.5 -215l-68 66q61 47 115.5 134t68.5 181l-4 6q-14 -6 -33 -6q-53 0 -91 37t-38 94q0 55 40.5 90t97.5 35z" />
    <glyph glyph-name="uni021A" unicode="&#x21a;" horiz-adv-x="1339" 
d="M1204 1468l101 -333l-54 -23q-4 10 -13 25.5t-46 55.5t-85 70.5t-133 56.5t-188 26h-20v-1176q0 -53 29.5 -85t70.5 -38l-4 -47h-383l-4 47q41 6 72 38t31 85v1176h-23q-102 0 -187 -24t-134.5 -58.5t-84 -69.5t-47.5 -59l-12 -23l-55 23l102 333h17q68 -35 233 -34h567
q166 0 234 34h16zM674 -117q66 0 104.5 -50t38.5 -124q0 -115 -63.5 -248t-167.5 -215l-68 66q61 49 115.5 135t66.5 180l-4 6q-16 -6 -30 -6q-53 0 -92 37t-39 94q0 55 40 90t99 35z" />
    <glyph glyph-name="uni021B" unicode="&#x21b;" horiz-adv-x="727" 
d="M672 981h-289v-752q0 -84 31.5 -123.5t103.5 -39.5q70 0 131 24l23 -78q-94 -49 -211 -49q-119 0 -183.5 62.5t-64.5 210.5v745h-176v53q137 47 196.5 119t92.5 221h57v-305h289v-88zM453 -117q68 0 106.5 -49t38.5 -125q0 -113 -64.5 -247t-166.5 -216l-68 66
q61 49 114.5 135t67.5 180l-4 6q-14 -6 -33 -6q-53 0 -91 37t-38 94q0 55 40.5 90t97.5 35z" />
    <glyph glyph-name="uni0237" unicode="&#x237;" horiz-adv-x="458" 
d="M92 -457q-111 0 -177.5 53.5t-66.5 133.5q0 37 24 61.5t62 24.5q43 0 64.5 -30t26 -66.5t27 -66.5t67.5 -30q47 0 75.5 40t28.5 101q0 47 -16.5 140.5t-16.5 146.5v760q0 53 -30.5 85t-71.5 38l4 47q104 12 242 125h24v-1204q0 -176 -70.5 -267.5t-195.5 -91.5z" />
    <glyph glyph-name="uni02B0" unicode="&#x2b0;" horiz-adv-x="614" 
d="M522 940q2 -51 49 -63l-2 -25h-182l-6 25q47 12 41 63l-19 225q-4 61 -32.5 93t-71.5 32q-47 0 -81 -30.5t-34 -77.5v-242q0 -51 45 -63l-2 -25h-182l-4 25q45 12 45 63v459q0 53 -45 61l4 27q76 10 145 61l11 -4q-16 -51 -17 -158v-110h6q47 66 134 65q78 0 126 -49
t56 -147z" />
    <glyph glyph-name="circumflex" unicode="&#x2c6;" horiz-adv-x="808" 
d="M125 1149l-43 57l324 256l321 -256l-43 -57l-278 143z" />
    <glyph glyph-name="caron" unicode="&#x2c7;" horiz-adv-x="808" 
d="M406 1165l-324 256l43 58l281 -144l278 144l43 -58z" />
    <glyph glyph-name="uni02C9" unicode="&#x2c9;" horiz-adv-x="714" 
d="M88 1303v108h537v-108h-537z" />
    <glyph glyph-name="breve" unicode="&#x2d8;" horiz-adv-x="729" 
d="M365 1223q-113 0 -182.5 57t-98.5 143l70 31q23 -47 81 -84t130 -37q70 0 129 37t81 84l70 -31q-71 -200 -280 -200z" />
    <glyph glyph-name="dotaccent" unicode="&#x2d9;" horiz-adv-x="456" 
d="M227 1280q-47 0 -78.5 31.5t-31.5 74.5q0 47 30.5 79t79.5 32t81 -31.5t32 -79.5q0 -45 -32 -75.5t-81 -30.5z" />
    <glyph glyph-name="ring" unicode="&#x2da;" horiz-adv-x="653" 
d="M326 1174q-90 0 -153.5 63t-63.5 152q0 90 63.5 153.5t153.5 63.5t154.5 -63.5t64.5 -153.5q0 -88 -64.5 -151.5t-154.5 -63.5zM326 1264q53 0 90 36.5t37 88.5q0 53 -37 90t-90 37q-51 0 -87 -37t-36 -90.5t36 -89t87 -35.5z" />
    <glyph glyph-name="ogonek" unicode="&#x2db;" horiz-adv-x="688" 
d="M362 -434q-98 0 -163.5 53t-65.5 143q0 82 58.5 156t152.5 117l70 -35q-68 -35 -107 -89t-39 -115.5t41 -100.5t97 -39q98 0 151 98l64 -33q-83 -155 -259 -155z" />
    <glyph glyph-name="tilde" unicode="&#x2dc;" horiz-adv-x="743" 
d="M485 1264q-55 0 -137 59t-119 59q-27 0 -50 -21.5t-32 -66.5l-63 21q14 92 59 138t113 46q55 0 140 -58.5t120 -58.5q61 0 82 86l59 -18q-12 -92 -58 -139t-114 -47z" />
    <glyph glyph-name="hungarumlaut" unicode="&#x2dd;" horiz-adv-x="663" 
d="M166 1157l-70 29l94 244q27 68 86 67q31 2 50.5 -18.5t19.5 -44.5q0 -29 -39 -86zM424 1157l-70 29l92 244q27 68 86 67q31 2 50.5 -18.5t19.5 -44.5q0 -31 -37 -86z" />
    <glyph glyph-name="uni0394" unicode="&#x394;" horiz-adv-x="1284" 
d="M35 0l547 1434h110l545 -1434h-1202zM160 86h841l-423 1100z" />
    <glyph glyph-name="uni03A9" unicode="&#x3a9;" horiz-adv-x="1595" 
d="M162 -39l-105 348l56 21q4 -12 13 -26.5t39 -42.5t68.5 -49.5t106.5 -38.5t149 -17h58l2 6q-207 166 -318.5 342t-111.5 385q0 256 185 418.5t493 162.5q309 0 493.5 -161.5t184.5 -419.5q0 -209 -111 -385t-317 -342l2 -6h57q82 0 149.5 17t106.5 38.5t68.5 49.5t39 42
t13.5 27l55 -21l-104 -348h-17q-72 39 -174 39h-358v115q207 197 294 370.5t87 395.5q0 236 -113 370.5t-356.5 134.5t-356 -135t-110.5 -370q0 -219 87 -393.5t292 -372.5v-115h-357q-102 0 -174 -39h-16z" />
    <glyph glyph-name="uni03BC" unicode="&#x3bc;" horiz-adv-x="1193" 
d="M1147 90l22 -78q-66 -49 -174 -49q-164 0 -166 182h-8q-59 -84 -133 -132t-188 -48q-139 0 -224 49q12 -53 48 -159.5t36 -145.5q0 -59 -34.5 -94t-86 -35t-87 37t-35.5 96v1239h168v-577q-2 -164 63.5 -238t198.5 -74q121 0 201.5 83t80.5 208v598h166l2 -770
q0 -117 70 -116q41 -1 80 24z" />
    <glyph glyph-name="pi" unicode="&#x3c0;" horiz-adv-x="1179" 
d="M424 950h706v-16q-25 -41 -43 -62.5t-72 -47t-134 -25.5v-621q0 -117 69 -117q37 0 80 25l21 -74q-61 -49 -168 -49q-164 0 -164 187v638h-234v-458q0 -178 -69.5 -272.5t-188.5 -94.5q-68 0 -121 33t-53 88q0 35 24.5 60.5t59.5 25.5q43 0 77 -50t69 -50q51 0 85.5 41
t34.5 120v557h-47q-76 0 -117.5 -40.5t-41.5 -106.5h-68q0 51 12.5 100.5t42 99.5t92 79.5t148.5 29.5z" />
    <glyph glyph-name="Wgrave" unicode="&#x1e80;" horiz-adv-x="1959" 
d="M711 1702q-53 43 -54 88q0 27 19.5 47.5t52.5 20.5q49 0 88 -52l168 -239l-53 -43zM1980 1434l7 -48q-102 -18 -132 -122l-362 -1190q18 -20 43 -37l-8 -37q-125 0 -215 -31h-19l-309 1047h-12l-291 -944q23 -23 45 -35l-6 -37q-104 2 -217 -31h-12l-390 1295
q-31 104 -129 122l7 48h385l2 -48q-35 -8 -57.5 -37.5t-8.5 -84.5l315 -1053h9l305 989l-4 17q-25 74 -47.5 111.5t-67.5 64.5l8 47q119 -2 219 30h13l372 -1257v-2h11l323 1053q16 55 -6 84.5t-57 37.5v48h286z" />
    <glyph glyph-name="wgrave" unicode="&#x1e81;" horiz-adv-x="1554" 
d="M608 1337q-53 43 -53 88q0 27 19.5 47.5t52.5 20.5q49 0 88 -51l168 -240l-54 -43zM1389 1106q66 0 100.5 -44t34.5 -110q0 -109 -78 -282l-270 -670h-164l-217 752h-9l-243 -752h-176l-224 809q-33 117 -153 125l6 45q33 6 100.5 41t122.5 86h21l262 -942h10l289 905h86
l262 -905h10l215 549q33 78 33 108.5t-21.5 51t-46 33t-46 38t-21.5 64.5q0 45 33 71.5t84 26.5z" />
    <glyph glyph-name="Wacute" unicode="&#x1e82;" horiz-adv-x="1959" 
d="M1196 1702l-221 -178l-51 45l166 237q39 51 88 52q33 0 52 -20.5t19 -47.5q0 -45 -53 -88zM1980 1434l7 -48q-102 -18 -132 -122l-362 -1190q18 -20 43 -37l-6 -37q-127 0 -217 -31h-19l-309 1047h-12l-291 -944q23 -23 45 -35l-4 -37q-106 2 -219 -31h-12l-390 1295
q-31 104 -129 122l7 48h385l2 -48q-35 -8 -57.5 -37.5t-8.5 -84.5l315 -1053h9l305 989l-4 17q-25 74 -47.5 111.5t-67.5 64.5l6 47q121 -2 221 30h13l372 -1257v-2h11l323 1053q16 55 -6 84.5t-57 37.5l2 48h284z" />
    <glyph glyph-name="wacute" unicode="&#x1e83;" horiz-adv-x="1554" 
d="M1042 1339l-221 -178l-53 43l168 240q39 51 88 51q33 0 52.5 -20.5t19.5 -47.5q-1 -45 -54 -88zM1389 1106q66 0 100.5 -44t34.5 -110q0 -109 -78 -282l-270 -670h-164l-217 752h-9l-243 -752h-176l-224 809q-33 117 -153 125l6 45q33 6 100.5 41t122.5 86h21l262 -942
h10l289 905h86l262 -905h10l215 549q33 78 33 108.5t-21.5 51t-46 33t-46 38t-21.5 64.5q0 45 33 71.5t84 26.5z" />
    <glyph glyph-name="Wdieresis" unicode="&#x1e84;" horiz-adv-x="1959" 
d="M807 1634q-47 0 -80 32t-33 75q0 47 32 79.5t81 32.5t81 -32.5t32 -79.5q0 -43 -32 -75t-81 -32zM1151 1634q-49 0 -81 32t-32 75q0 47 32 79.5t81 32.5t82 -32.5t33 -79.5q0 -43 -33 -75t-82 -32zM1980 1434l7 -48q-102 -18 -132 -122l-362 -1190q18 -20 43 -37l-4 -37
q-129 0 -219 -31h-19l-309 1047h-12l-291 -944q23 -23 45 -35l-4 -37q-106 2 -219 -31h-12l-390 1295q-31 104 -129 122l7 48h385l2 -48q-35 -8 -57.5 -37.5t-8.5 -84.5l315 -1053h9l305 989l-4 17q-25 76 -46.5 112.5t-66.5 63.5l6 47q119 -2 219 30h13l372 -1257v-2h11
l323 1053q16 55 -7.5 84.5t-57.5 37.5l2 48h286z" />
    <glyph glyph-name="wdieresis" unicode="&#x1e85;" horiz-adv-x="1554" 
d="M627 1270q-49 0 -81 31.5t-32 74.5q0 47 32 80t81 33t80.5 -33t31.5 -80q0 -43 -31.5 -74.5t-80.5 -31.5zM971 1270q-49 0 -81 31.5t-32 74.5q0 47 32 80t81 33t80.5 -33t31.5 -80q0 -43 -31.5 -74.5t-80.5 -31.5zM1389 1106q66 0 100.5 -44t34.5 -110q0 -109 -78 -282
l-270 -670h-164l-217 752h-9l-243 -752h-176l-224 809q-33 117 -153 125l6 45q33 6 100.5 41t122.5 86h21l262 -942h10l289 905h86l262 -905h10l215 549q33 78 33 108.5t-21.5 51t-46 33t-46 38t-21.5 64.5q0 45 33 71.5t84 26.5z" />
    <glyph glyph-name="endash" unicode="&#x2013;" horiz-adv-x="677" 
d="M43 449v131h594v-131h-594z" />
    <glyph glyph-name="emdash" unicode="&#x2014;" horiz-adv-x="864" 
d="M43 449v131h778v-131h-778z" />
    <glyph glyph-name="quoteleft" unicode="&#x2018;" horiz-adv-x="411" 
d="M205 1094q53 0 90 -36t37 -95q0 -53 -40 -89t-95 -36q-68 0 -107 49t-39 125q0 117 63.5 250t168.5 213l65 -66q-61 -49 -114.5 -135t-67.5 -180l6 -7q17 7 33 7z" />
    <glyph glyph-name="quoteright" unicode="&#x2019;" horiz-adv-x="413" 
d="M217 1470q68 0 106.5 -49t38.5 -125q0 -117 -63 -250t-168 -212l-68 65q59 47 113.5 134t69.5 181l-4 5q-20 -4 -31 -5q-55 0 -93 36t-38 93q0 55 40 91t97 36z" />
    <glyph glyph-name="quotesinglbase" unicode="&#x201a;" horiz-adv-x="413" 
d="M217 219q68 0 106.5 -49t38.5 -125q0 -115 -63 -248t-168 -215l-68 68q59 47 113.5 134t69.5 181l-4 4q-16 -6 -31 -6q-55 0 -93 36t-38 95q0 55 40 90t97 35z" />
    <glyph glyph-name="quotedblleft" unicode="&#x201c;" horiz-adv-x="778" 
d="M348 1409q-61 -49 -114.5 -135t-67.5 -180l6 -7q16 6 33 7q53 0 90 -36t37 -95q0 -53 -40 -89t-95 -36q-68 0 -107 49t-39 125q0 117 63.5 250t168.5 213zM567 1094q55 0 93 -36t38 -95q0 -53 -40 -89t-97 -36q-68 0 -106.5 49t-38.5 125q0 117 63.5 250t167.5 213
l68 -66q-61 -49 -114.5 -135t-68.5 -180l5 -7q16 7 30 7z" />
    <glyph glyph-name="quotedblright" unicode="&#x201d;" horiz-adv-x="778" 
d="M217 1470q68 0 106.5 -49t38.5 -125q0 -117 -63 -250t-168 -212l-68 65q59 47 113.5 134t69.5 181l-4 5q-20 -4 -31 -5q-55 0 -93 36t-38 93q0 55 40 91t97 36zM582 1470q68 0 106.5 -49t38.5 -125q0 -117 -63.5 -250t-167.5 -212l-66 65q59 47 113.5 134t68.5 181l-4 5
q-25 -4 -35 -5q-53 0 -90 36t-37 93q0 55 40.5 91t95.5 36z" />
    <glyph glyph-name="quotedblbase" unicode="&#x201e;" horiz-adv-x="778" 
d="M217 219q68 0 106.5 -49t38.5 -125q0 -115 -63 -248t-168 -215l-68 68q59 47 113.5 134t69.5 181l-4 4q-16 -6 -31 -6q-55 0 -93 36t-38 95q0 55 40 90t97 35zM582 219q68 0 106.5 -49t38.5 -125q0 -115 -63.5 -248t-167.5 -215l-66 68q59 47 113.5 134t68.5 181l-4 4
q-14 -6 -35 -6q-53 0 -90 37t-37 94q0 55 40.5 90t95.5 35z" />
    <glyph glyph-name="dagger" unicode="&#x2020;" horiz-adv-x="878" 
d="M410 0q-2 664 -70 911q37 76 63 148l-4 6q-82 -10 -156.5 -31.5t-107.5 -21.5q-41 0 -65.5 21.5t-24.5 56.5q0 78 90 77q33 0 108.5 -17t157.5 -28l5 4q-8 78 -29 144.5t-21 103.5q0 47 23.5 71.5t58.5 24.5q37 0 60.5 -24.5t23.5 -71.5q0 -37 -20.5 -104.5t-30.5 -143.5
l4 -4q82 10 159 27.5t109 17.5q41 0 66 -20.5t25 -56.5q0 -35 -25 -56.5t-66 -21.5q-33 0 -107.5 21.5t-156.5 31.5l-4 -6l62 -148q-63 -250 -70 -911h-57z" />
    <glyph glyph-name="daggerdbl" unicode="&#x2021;" horiz-adv-x="878" 
d="M438 -37q-82 0 -82 96q0 31 20.5 100.5t29.5 153.5l-5 4q-84 -10 -158.5 -31.5t-105.5 -21.5q-43 0 -67.5 21.5t-24.5 56.5t24.5 57.5t67.5 22.5q31 0 104.5 -21.5t157.5 -31.5l4 6q0 37 -16 122t-33 152l-16 68q66 258 65 340l-4 6q-82 -10 -156.5 -30.5t-105.5 -20.5
q-43 0 -67.5 21.5t-24.5 56t24.5 56t67.5 21.5q33 0 107.5 -17t156.5 -28l5 4q-8 78 -29 145.5t-21 102.5q0 47 23.5 71.5t58.5 24.5q37 0 60.5 -24.5t23.5 -71.5q0 -37 -20.5 -104.5t-30.5 -143.5l4 -4q82 10 159 27.5t109 17.5q41 0 66 -21.5t25 -56t-25 -56t-66 -21.5
q-33 0 -108.5 20.5t-155.5 30.5l-4 -6q0 -35 16.5 -120t32.5 -153l17 -67q-66 -260 -66 -342l4 -6q82 10 157 31.5t107 21.5q41 0 66 -22.5t25 -57.5t-25 -56.5t-66 -21.5q-33 0 -108.5 21.5t-159.5 31.5l-4 -4q10 -82 30.5 -152.5t20.5 -101.5q0 -96 -84 -96z" />
    <glyph glyph-name="bullet" unicode="&#x2022;" horiz-adv-x="550" 
d="M276.5 295q-96.5 0 -164 66.5t-67.5 163t67.5 163t164 66.5t163 -68t66.5 -162t-66.5 -161.5t-163 -67.5z" />
    <glyph glyph-name="ellipsis" unicode="&#x2026;" horiz-adv-x="1523" 
d="M254 -37q-55 0 -94 38t-41 97q0 57 40 95t95 38t94 -36.5t41 -96.5q0 -59 -40 -97t-95 -38zM762 -37q-55 0 -94 38t-41 97q0 57 40 95t95 38t94 -36.5t41 -96.5q0 -59 -40 -97t-95 -38zM1269.5 -37q-55.5 0 -94 38t-40.5 97q0 57 39.5 95t95 38t94.5 -36.5t41 -96.5
q0 -59 -40 -97t-95.5 -38z" />
    <glyph glyph-name="perthousand" unicode="&#x2030;" horiz-adv-x="2494" 
d="M416 705q-162 0 -269.5 113.5t-107.5 271.5q0 166 100.5 273t268.5 107q158 0 261 -110.5t103 -274.5q0 -160 -99 -270t-257 -110zM436 0l674 1434h109l-676 -1434h-107zM412 784q92 0 148 85t56 212q0 131 -59 217t-149 86q-98 0 -154.5 -82.5t-56.5 -216.5
q0 -125 60.5 -213t154.5 -88zM1255 -37q-162 0 -269 112.5t-107 270.5q0 166 100 273.5t268 107.5q158 0 262.5 -111.5t104.5 -273.5q0 -160 -99.5 -269.5t-259.5 -109.5zM2095 -37q-162 0 -269.5 112.5t-107.5 270.5q0 166 100.5 273.5t268.5 107.5q158 0 263.5 -111.5
t105.5 -273.5q0 -160 -100.5 -269.5t-260.5 -109.5zM1251 41q92 0 148.5 86t56.5 211q0 131 -59.5 217t-149.5 86q-96 0 -153.5 -83t-57.5 -214q0 -125 60.5 -214t154.5 -89zM2091 41q92 0 149.5 86t57.5 211q0 131 -60.5 217t-150.5 86q-96 0 -153.5 -83t-57.5 -214
q0 -125 61.5 -214t153.5 -89z" />
    <glyph glyph-name="guilsinglleft" unicode="&#x2039;" horiz-adv-x="542" 
d="M446 23l-395 413v92l395 414l48 -29l-244 -432l244 -430z" />
    <glyph glyph-name="guilsinglright" unicode="&#x203a;" horiz-adv-x="542" 
d="M96 23l-45 28l244 430l-244 432l45 29l398 -414v-92z" />
    <glyph glyph-name="fraction" unicode="&#x2044;" horiz-adv-x="335" 
d="M-430 0l1112 1434h84l-1112 -1434h-84z" />
    <glyph glyph-name="uni2070" unicode="&#x2070;" horiz-adv-x="471" 
d="M236 860q-109 0 -165.5 81t-56.5 210q0 131 56.5 213t165.5 82q106 0 162.5 -82t56.5 -213q0 -129 -56.5 -210t-162.5 -81zM236 903q119 0 118 248q0 250 -118 250q-121 0 -121 -250q0 -248 121 -248z" />
    <glyph glyph-name="uni2074" unicode="&#x2074;" horiz-adv-x="471" 
d="M442 1016h-82v-64q0 -45 54 -55l-2 -23h-203l-4 23q20 4 37.5 18.5t17.5 36.5v64h-242v33l271 385h71v-377h93zM76 1057h184v262h-4l-180 -258v-4z" />
    <glyph glyph-name="uni2075" unicode="&#x2075;" horiz-adv-x="458" 
d="M213 1241q96 0 148.5 -49t52.5 -129q0 -82 -57.5 -140.5t-157.5 -58.5q-63 0 -109.5 20.5t-46.5 59.5q0 20 13.5 33.5t31.5 13.5q25 0 37 -13t16 -28.5t20.5 -29t47.5 -13.5q61 0 95 36t34 93q0 53 -39 89t-106 36q-66 0 -113 -26l-25 8l45 291h193q72 0 86 14h10
l-14 -92h-246l-20 -133q36 18 104 18z" />
    <glyph glyph-name="uni2076" unicode="&#x2076;" horiz-adv-x="466" 
d="M264 1239q86 0 130 -53t44 -131q0 -80 -58 -136.5t-149 -56.5q-94 0 -149 67.5t-55 180.5q0 166 100 251t250 85v-33q-88 0 -156.5 -55t-87.5 -172h2q49 53 129 53zM231 901q49 0 78 42t29 112q0 135 -100 135q-31 0 -64 -20.5t-49 -51.5v-22q0 -195 106 -195z" />
    <glyph glyph-name="uni2077" unicode="&#x2077;" horiz-adv-x="456" 
d="M193 1434h225v-45q-94 -117 -144.5 -226.5t-50.5 -240.5q0 -57 -53 -58q-23 0 -38 16.5t-15 41.5q0 201 227 432v2h-104q-49 -2 -93.5 -20.5t-61.5 -33t-22 -22.5l-22 8l47 160h4q29 -14 101 -14z" />
    <glyph glyph-name="uni2078" unicode="&#x2078;" horiz-adv-x="466" 
d="M227 868q-90 0 -145 44t-55 102q0 98 112 151v4q-88 51 -88 140q0 55 49.5 100t141.5 45q82 0 128 -39t46 -92q0 -90 -99 -135v-4q39 -20 61.5 -35.5t41 -47.5t18.5 -73q0 -70 -58.5 -115t-152.5 -45zM260 1210q92 41 92 113q0 41 -25.5 65.5t-74.5 24.5q-102 0 -102 -84
q-1 -74 110 -119zM223 907q57 0 88 29t31 68q0 12 -3 22t-5 19.5t-10.5 17.5t-12.5 14t-16 14.5t-17.5 11.5t-20.5 10t-20.5 10t-22.5 10.5t-21 9.5q-96 -45 -97 -125q0 -45 34 -78t93 -33z" />
    <glyph glyph-name="uni2079" unicode="&#x2079;" horiz-adv-x="466" 
d="M233 1450q92 0 148.5 -69.5t56.5 -180.5q0 -164 -100 -249t-250 -85l-2 31q90 0 157.5 56.5t88.5 172.5h-2q-49 -53 -129 -53q-86 0 -130 53.5t-44 131t59 135t147 57.5zM227 1122q72 0 111 66v29q0 193 -105 192q-51 0 -78.5 -42t-27.5 -110q0 -135 100 -135z" />
    <glyph glyph-name="uni207F" unicode="&#x207f;" horiz-adv-x="612" 
d="M518 940q6 -53 53 -63l-6 -25h-180l-4 25q43 12 41 63l-19 211q-4 61 -31.5 97t-74.5 36t-79 -33.5t-32 -83.5v-227q0 -51 45 -63l-4 -25h-182l-4 25q45 12 45 63v254q0 49 -45 63l4 25q55 6 125 59h10l4 -75h4q49 76 138 75q164 0 178 -196z" />
    <glyph glyph-name="uni2080" unicode="&#x2080;" horiz-adv-x="471" 
d="M236 -14q-109 0 -165.5 79.5t-56.5 211t56.5 212t165.5 80.5q106 0 162.5 -80.5t56.5 -212.5q0 -129 -56.5 -209.5t-162.5 -80.5zM236 27q119 0 118.5 249.5t-118.5 249.5q-121 0 -121 -249.5t121 -249.5z" />
    <glyph glyph-name="uni2081" unicode="&#x2081;" horiz-adv-x="434" 
d="M119 0l-2 23q53 10 53 53v383h-55l-4 24l131 72h28v-479q0 -43 52 -53l-3 -23h-200z" />
    <glyph glyph-name="uni2082" unicode="&#x2082;" horiz-adv-x="462" 
d="M399 143l25 -8l-47 -149h-6q-39 14 -101 14h-225v47q6 4 40 31.5t43 35t39 33t40 37t32.5 36t31 43t20.5 43t16 48t4 49.5q0 57 -28.5 91t-79.5 34t-90 -35.5t-41 -97.5l-33 6q4 76 56 122t128 46q84 0 135.5 -45t51.5 -121q0 -104 -73 -181t-194 -144v-2h86
q102 -1 170 67z" />
    <glyph glyph-name="uni2083" unicode="&#x2083;" horiz-adv-x="460" 
d="M205 -14q-66 0 -117 24.5t-51 65.5q0 47 45 47q27 0 40 -23.5t30.5 -47t52.5 -23.5q57 0 89 33.5t32 95.5q0 63 -36 100t-102 37h-16v39h21q49 0 76.5 29.5t27.5 70.5q0 39 -25.5 65.5t-74.5 26.5q-43 0 -75 -29.5t-36 -82.5l-31 4q8 70 54.5 110.5t119.5 40.5
q78 0 121 -36.5t43 -88.5q0 -86 -92 -118v-7q53 -10 88 -50t35 -95q0 -82 -59.5 -135t-159.5 -53z" />
    <glyph glyph-name="uni2084" unicode="&#x2084;" horiz-adv-x="471" 
d="M442 139h-82v-63q0 -43 54 -53v-23h-205l-2 23q53 10 53 53v63h-242v33l271 383h71v-373h93zM76 182h184v256h-2l-182 -254v-2z" />
    <glyph glyph-name="uni2085" unicode="&#x2085;" horiz-adv-x="458" 
d="M213 362q96 0 148.5 -49t52.5 -129q0 -82 -57.5 -140t-157.5 -58q-63 0 -109.5 20.5t-46.5 61.5q0 20 13.5 32.5t31.5 12.5q25 0 37 -13.5t16 -29t20.5 -28.5t47.5 -13q61 0 95 35.5t34 93.5q0 53 -39 89t-104 36q-68 0 -115 -27l-25 8l45 291h193q72 0 86 14h10l-14 -92
h-246l-20 -133q36 18 104 18z" />
    <glyph glyph-name="uni2086" unicode="&#x2086;" horiz-adv-x="466" 
d="M264 365q86 0 130 -53.5t44 -131.5q0 -82 -58 -137t-149 -55q-94 0 -149 67.5t-55 180.5q0 166 100 250.5t250 84.5v-32q-88 0 -156.5 -55.5t-87.5 -172.5h2q49 54 129 54zM231 27q49 0 78 42t29 111q0 135 -100 135q-31 0 -64 -20.5t-49 -50.5v-23q0 -194 106 -194z" />
    <glyph glyph-name="uni2087" unicode="&#x2087;" horiz-adv-x="456" 
d="M193 555h225v-47q-94 -117 -144.5 -226.5t-50.5 -240.5q0 -57 -53 -57q-23 0 -38 16t-15 41q0 199 227 434v2h-104q-49 -2 -93.5 -21.5t-60.5 -33.5t-23 -23l-22 11l47 159h4q25 -14 101 -14z" />
    <glyph glyph-name="uni2088" unicode="&#x2088;" horiz-adv-x="466" 
d="M229 -12q-90 0 -146 45t-56 102q0 98 112 152v4q-88 51 -88 139q0 55 50.5 99t140.5 44q82 0 128 -37.5t46 -91.5q0 -88 -99 -137v-4q57 -27 89 -60.5t32 -95.5q0 -70 -57.5 -114.5t-151.5 -44.5zM260 330q92 45 92 112q0 90 -100 90q-102 0 -102 -81q-1 -72 110 -121z
M223.5 29q59.5 0 89 27.5t29.5 66.5q0 29 -10 50.5t-40 39.5t-43 24.5t-56 26.5q-96 -47 -97 -127q0 -45 34 -76.5t93.5 -31.5z" />
    <glyph glyph-name="uni2089" unicode="&#x2089;" horiz-adv-x="466" 
d="M233 569q94 0 149.5 -68.5t55.5 -181.5q0 -164 -100 -248.5t-250 -84.5l-2 32q90 0 157.5 55.5t88.5 172.5h-2q-49 -53 -129 -53q-86 0 -130 53t-44 131q0 80 58 136t148 56zM227 242q72 0 111 65v29q0 195 -105 194q-51 0 -78.5 -43t-27.5 -110q0 -135 100 -135z" />
    <glyph glyph-name="Euro" unicode="&#x20ac;" horiz-adv-x="1452" 
d="M956 59q119 0 221.5 57.5t163.5 145.5l43 -33q-68 -119 -185.5 -192.5t-266.5 -73.5q-256 0 -416 150.5t-203 396.5h-264v106h252q-2 23 -2 70q0 76 8 135h-258v105h279q57 242 221 393t403 151q59 0 141.5 -16t118.5 -16q61 0 113 35h18l56 -349l-58 -12
q-47 123 -130 197.5t-242.5 74.5t-287.5 -121.5t-175 -336.5h602v-105h-619q-4 -70 -4 -106.5t4 -98.5h619v-106h-606q39 -229 162.5 -340t291.5 -111z" />
    <glyph glyph-name="uni2113" unicode="&#x2113;" horiz-adv-x="894" 
d="M446 -37q-82 0 -138 38t-77.5 98.5t-29.5 132t6 139.5l18 131l-168 -113l-32 47l213 158l24 168q53 389 136 554t255 165q96 0 148.5 -85t34.5 -222q-14 -98 -63.5 -188.5t-140.5 -176.5t-134 -121t-142 -106l-30 -222q-47 -317 145 -317q31 0 60.5 12.5t64.5 42t52.5 46
t57 61.5t46.5 51l39 -41q-72 -98 -166.5 -175t-178.5 -77zM369 676q332 260 368 518q14 96 -16.5 158.5t-102.5 62.5q-80 0 -130 -119.5t-85 -369.5z" />
    <glyph glyph-name="trademark" unicode="&#x2122;" horiz-adv-x="960" 
d="M74 1434h334l34 -105l-22 -10q-4 8 -13.5 20.5t-44 34t-75.5 23.5v-312q0 -37 30 -45l-4 -18h-145l-4 18q31 8 31 45v312q-41 -2 -75 -21.5t-46 -38.5l-15 -18l-20 10zM887 1085q0 -39 31 -45l-5 -18h-145l-2 18q29 8 29 45v220h-7l-96 -283h-39l-100 283h-2v-220
q0 -37 29 -45l-5 -18h-94l-2 18q29 8 29 45v281q0 43 -29 47l4 21h119l96 -269h2l93 269h122l3 -21q-31 -4 -31 -47v-281z" />
    <glyph glyph-name="Omega" unicode="&#x2126;" horiz-adv-x="1552" 
d="M139 -39l-104 348l55 21q6 -12 14.5 -25.5t38 -43.5t67.5 -50.5t106.5 -37.5t150.5 -17h57l2 6q-207 166 -318.5 342t-111.5 385q0 256 185.5 418.5t492.5 162.5q309 0 493.5 -161.5t184.5 -419.5q0 -209 -111.5 -385t-318.5 -342l2 -6h59q281 0 377 174l56 -21
l-105 -348h-18q-41 23 -72 31t-102 8h-357v115q207 197 294 370.5t87 395.5q0 236 -112.5 370.5t-356.5 134.5t-356.5 -135t-112.5 -370q0 -219 87 -393.5t294 -372.5v-115h-358q-100 0 -172 -39h-17z" />
    <glyph glyph-name="estimated" unicode="&#x212e;" horiz-adv-x="1634" 
d="M819 -37q-315 0 -538.5 221.5t-223.5 532.5t223.5 532t539 221t538.5 -221t223 -532v-21h-1200v-506q217 -164 440 -163q309 0 490 229h80q-214 -293 -572 -293zM381 756h866v491q-174 158 -426 158q-264 0 -440 -168v-481z" />
    <glyph glyph-name="partialdiff" unicode="&#x2202;" horiz-adv-x="1146" 
d="M649 1470q270 0 384 -244.5t32 -647.5q-59 -285 -223 -450t-385 -165q-225 0 -335 146.5t-67 361.5q45 209 207 344t369 135q74 0 148.5 -24.5t117.5 -67.5q16 227 -21.5 368.5t-130.5 141.5q-37 0 -84 -57.5t-88 -57.5q-43 0 -69.5 25t-26.5 65q0 53 41 90t131 37z
M473 45q150 0 240 131t139 375q23 115 35 205q-92 117 -250 116q-150 0 -244 -110.5t-133 -298.5q-35 -182 12 -300t201 -118z" />
    <glyph glyph-name="Delta" unicode="&#x2206;" horiz-adv-x="1259" 
d="M27 0l546 1434h111l547 -1434h-1204zM154 86h839l-422 1100z" />
    <glyph glyph-name="product" unicode="&#x220f;" horiz-adv-x="1386" 
d="M68 0l-5 45q45 10 79 41t34 84v1094q0 55 -33.5 84.5t-79.5 37.5l5 48h1249l4 -48q-45 -8 -79 -37.5t-34 -84.5v-1094q0 -102 113 -125l-4 -45h-406l-4 45q113 23 113 125v1169h-655v-1169q0 -55 32.5 -85t77.5 -40l-4 -45h-403z" />
    <glyph glyph-name="summation" unicode="&#x2211;" horiz-adv-x="1263" 
d="M43 0v51l475 668l-446 663v52h1028l92 -269l-55 -28q-90 109 -206 160t-284 51h-325l366 -545l-448 -641h430q215 0 322.5 38t197.5 140l49 -41l-125 -299h-1071z" />
    <glyph glyph-name="minus" unicode="&#x2212;" horiz-adv-x="671" 
d="M43 449v131h588v-131h-588z" />
    <glyph glyph-name="uni2215" unicode="&#x2215;" horiz-adv-x="665" 
d="M27 643v98h624v-98h-624z" />
    <glyph glyph-name="uni2219" unicode="&#x2219;" horiz-adv-x="362" 
d="M182 686q-57 0 -96 37t-39 98q0 57 39 94t96 37q53 0 93 -36.5t40 -94.5q0 -61 -39 -98t-94 -37z" />
    <glyph glyph-name="radical" unicode="&#x221a;" horiz-adv-x="1130" 
d="M446 0l-188 457h-221v100h289l174 -424l540 1301h111l-596 -1434h-109z" />
    <glyph glyph-name="infinity" unicode="&#x221e;" horiz-adv-x="1742" 
d="M426 307q-164 0 -283.5 121t-119.5 293q0 174 119.5 295t283.5 121q160 0 259 -82t185 -230h7q86 150 182 231t254 81q164 0 283.5 -121t119.5 -295q0 -172 -119.5 -293t-283.5 -121q-162 0 -261.5 81t-185.5 228h-6q-84 -147 -181 -228t-253 -81zM1313 422q131 0 217 88
t86 219t-87 223t-216 92q-137 0 -220 -77.5t-167 -227.5q43 -78 72.5 -123t76.5 -96t105.5 -74.5t132.5 -23.5zM426 399q135 0 219 78t166 225q-45 78 -72.5 121t-76 96.5t-106.5 77t-130 23.5q-131 0 -218 -88t-87 -219t88 -222.5t217 -91.5z" />
    <glyph glyph-name="integral" unicode="&#x222b;" horiz-adv-x="774" 
d="M102 -410q-66 0 -107.5 29t-41.5 80q0 35 25.5 61.5t62.5 26.5q43 0 80 -45t72 -45q109 0 108 160v1575q0 188 102.5 301.5t266.5 113.5q68 0 109.5 -28.5t41.5 -75.5q0 -41 -26.5 -67.5t-65.5 -26.5q-45 0 -82 46t-76 46q-47 0 -74.5 -41t-27.5 -119v-1548
q0 -219 -101.5 -331t-265.5 -112z" />
    <glyph glyph-name="approxequal" unicode="&#x2248;" horiz-adv-x="985" 
d="M731 766q-92 0 -187 38t-175 76t-136 38q-90 0 -127 -82l-63 28q53 154 227 154q119 0 281 -74t221 -74q68 0 113 56l59 -39q-63 -121 -213 -121zM731 467q-92 0 -187 38t-175 75.5t-136 37.5q-90 0 -127 -81l-63 30q53 154 227 154q92 0 188.5 -37t177.5 -75t136 -38
q68 0 113 58l59 -41q-66 -121 -213 -121z" />
    <glyph glyph-name="notequal" unicode="&#x2260;" horiz-adv-x="1175" 
d="M379 176l84 293h-420v100h446l89 308h-535v98h561l82 291h105l-82 -291h424v-98h-451l-88 -308h539v-100h-568l-80 -293h-106z" />
    <glyph glyph-name="lessequal" unicode="&#x2264;" horiz-adv-x="1173" 
d="M1090 242l-1006 415v111l1006 416v-109l-865 -360v-6l865 -359v-108zM43 0v88h1090v-88h-1090z" />
    <glyph glyph-name="greaterequal" unicode="&#x2265;" horiz-adv-x="1173" 
d="M84 242v108l864 359v6l-864 360v109l1006 -416v-111zM43 0v88h1090v-88h-1090z" />
    <glyph glyph-name="lozenge" unicode="&#x25ca;" horiz-adv-x="1048" 
d="M469 0l-416 719l416 715h111l415 -715l-415 -719h-111zM520 100h8l359 619l-359 614h-8l-356 -614z" />
    <glyph glyph-name="uniF6E0" unicode="&#xf6e0;" horiz-adv-x="485" 
d="M227 817v76q-78 10 -126 62.5t-48 131.5q0 82 49.5 135.5t124.5 63.5v84h54v-82q66 -4 108.5 -39t42.5 -73q0 -16 -11 -29.5t-30 -13.5q-23 0 -36 18t-18 40.5t-27.5 41t-61.5 18.5q-47 0 -85 -41t-38 -96q0 -80 44 -123t114 -43q45 0 81.5 25.5t53.5 62.5l18 -10
q-10 -49 -52 -87t-103 -44v-78h-54z" />
    <glyph glyph-name="uniF6E4" unicode="&#xf6e4;" horiz-adv-x="526" 
d="M242 700v107q-92 4 -144.5 40t-52.5 79q0 18 12.5 30.5t32.5 12.5q23 0 37 -19.5t21.5 -43t36 -43t79.5 -19.5q55 0 91 28.5t34 69.5q0 78 -145 117q-182 49 -183 178q0 61 50.5 102t130.5 47v97h49v-97q70 -4 117 -32.5t47 -67.5t-37 -39q-18 0 -30.5 16.5t-20 35
t-33 35t-68.5 16.5q-47 0 -79.5 -27t-32.5 -63q0 -70 137 -107q190 -51 190 -176q0 -72 -52 -118t-138 -52v-107h-49z" />
    <glyph glyph-name="uniF6E6" unicode="&#xf6e6;" horiz-adv-x="544" 
d="M27 1124v86h491v-86h-491z" />
    <glyph glyph-name="uniF6E9" unicode="&#xf6e9;" horiz-adv-x="581" 
d="M528 891l11 -23q-33 -33 -84 -32q-78 0 -95 77h-6q-41 -78 -151 -77q-70 0 -114 34.5t-44 96.5q0 82 75 121.5t210 66.5q-2 10 -4 23.5t-3 20.5t-1 9q-4 39 -26 62.5t-54 23.5q-31 0 -52.5 -18.5t-19.5 -45t-12.5 -40.5t-37 -14t-36.5 14t-12 39q2 43 48 77.5t128 34.5
q70 0 120 -40.5t60 -118.5q14 -154 25 -234q6 -68 45 -67q14 0 30 10zM242 893q47 0 78.5 35t27.5 80l-14 112q-186 -37 -187 -139q0 -41 28 -64.5t67 -23.5z" />
    <glyph glyph-name="uniF6EA" unicode="&#xf6ea;" horiz-adv-x="604" 
d="M336 1341q96 0 161.5 -72.5t65.5 -183.5q0 -109 -61.5 -179t-157.5 -70q-102 0 -170 88q-37 -33 -61 -72h-27v547q0 53 -45 61l4 27q76 10 145 61l9 -4q-14 -51 -15 -158v-112h4q58 67 148 67zM348 887q53 0 87 45t34 115q0 90 -45 166.5t-117 76.5q-55 0 -89 -44
t-34 -116q0 -90 45 -166.5t119 -76.5z" />
    <glyph glyph-name="uniF6EB" unicode="&#xf6eb;" horiz-adv-x="606" 
d="M520 940q0 -51 45 -63l-4 -25q-68 -4 -112 -16h-11l-8 73h-6q-66 -74 -154 -73q-98 0 -162.5 72.5t-64.5 183.5q0 109 60.5 179t158.5 70q94 0 154 -73h6v131q0 53 -45 61l4 27q76 10 143 61l8 -4q-12 -51 -12 -158v-446zM297 887q55 0 88 44t33 116q0 92 -43 167.5
t-117 75.5q-53 0 -87 -45t-34 -115q0 -90 44 -166.5t116 -76.5z" />
    <glyph glyph-name="uniF6EC" unicode="&#xf6ec;" horiz-adv-x="561" 
d="M336 913q98 0 147 93l23 -9q-10 -66 -67.5 -113.5t-145.5 -47.5q-106 0 -178 72.5t-72 183.5q0 109 69.5 179t174.5 70q78 0 129 -34.5t69 -87.5q12 -29 33 -35l4 -35l-370 -100q37 -136 184 -136zM279 1292q-59 0 -97.5 -48t-38.5 -118q0 -20 2 -30l258 67
q-6 51 -37.5 90t-86.5 39z" />
    <glyph glyph-name="uniF6ED" unicode="&#xf6ed;" horiz-adv-x="272" 
d="M133 1409q-29 0 -47 18.5t-18 45t18 45t47 18.5q31 0 49.5 -18.5t18.5 -45t-18.5 -45t-49.5 -18.5zM45 852l-4 25q45 12 45 63v254q0 55 -45 63l4 27q63 8 129 57h12v-401q0 -51 45 -63l-4 -25h-182z" />
    <glyph glyph-name="uniF6EE" unicode="&#xf6ee;" horiz-adv-x="272" 
d="M45 852l-4 25q45 12 45 63v459q0 53 -45 61l4 27q76 10 145 61l11 -4q-14 -45 -15 -158v-446q0 -51 45 -63l-4 -25h-182z" />
    <glyph glyph-name="uniF6EF" unicode="&#xf6ef;" horiz-adv-x="882" 
d="M788 940q6 -53 54 -63l-6 -25h-183l-2 25q45 12 39 63l-16 211q-10 133 -92 133q-43 0 -71 -33.5t-28 -85.5v-8v-12v-205q0 -51 47 -63l-4 -25h-184l-4 25q47 12 47 63v211q0 133 -94 133q-45 0 -73 -33.5t-30 -83.5l-4 -73v-154q0 -51 45 -63l-2 -25h-182l-4 25
q45 12 45 63v254q0 49 -45 63l4 25q55 6 125 59h10l2 -81h6q49 82 136 81q100 0 139 -81h4q49 82 139 81q150 0 168 -196z" />
    <glyph glyph-name="uniF6F0" unicode="&#xf6f0;" horiz-adv-x="577" 
d="M295 836q-113 0 -182.5 73.5t-69.5 184.5q0 109 67.5 178t176.5 69q111 0 179.5 -72.5t68.5 -183.5q0 -109 -67 -179t-173 -70zM313 887q57 0 91 45t34 115q0 88 -48 165.5t-122 77.5q-59 0 -95 -44t-36 -116q0 -84 49 -163.5t127 -79.5z" />
    <glyph glyph-name="uniF6F1" unicode="&#xf6f1;" horiz-adv-x="462" 
d="M330 1341q45 0 68.5 -21.5t23.5 -53.5q0 -29 -18.5 -46.5t-47.5 -17.5q-35 0 -54 34t-38 34q-25 0 -52.5 -31t-27.5 -72v-227q0 -51 47 -63l-4 -25h-182l-4 25q45 12 45 63v254q0 49 -45 63l4 25q55 8 125 59h10l2 -84h4q56 84 144 84z" />
    <glyph glyph-name="uniF6F2" unicode="&#xf6f2;" horiz-adv-x="526" 
d="M291 836q-35 0 -88 15t-72 15q-10 0 -20.5 -3t-16.5 -7l-4 -4h-6l-43 162l22 8q94 -141 226 -141q43 0 71.5 19.5t28.5 57.5q0 68 -145 103q-43 12 -64.5 19t-54.5 24.5t-47.5 42t-14.5 57.5q0 59 51.5 98t129.5 39q37 0 81 -14t60 -14q10 0 19.5 3t13.5 7l4 2h10
l31 -139l-27 -8q-72 121 -182 120q-41 0 -65.5 -18t-24.5 -45q0 -37 36 -56.5t105 -35.5q55 -14 87 -26.5t62.5 -44.5t30.5 -77q0 -74 -54 -116.5t-140 -42.5z" />
    <glyph glyph-name="uniF6F3" unicode="&#xf6f3;" horiz-adv-x="389" 
d="M242 836q-121 0 -121 125v315h-80v33q61 20 95 55t52 96h31v-135h125v-49h-125v-318q0 -70 57 -69q29 0 56 10l12 -43q-49 -20 -102 -20z" />
    <glyph glyph-name="glyph417" horiz-adv-x="0" 
 />
    <glyph glyph-name="glyph418" horiz-adv-x="1024" 
 />
    <glyph glyph-name="glyph419" horiz-adv-x="1804" 
d="M1739 1386q-41 -6 -71 -37.5t-30 -84.5v-1094q0 -53 30 -85t71 -38l-4 -47h-383l-4 47q43 6 71.5 38t28.5 85v66q-37 162 -172 308t-309 222q-190 -406 -209 -438q-94 -178 -208 -273.5t-278 -95.5q-141 0 -226 46t-85 122q0 45 25.5 73.5t72.5 28.5t74 -27.5t36 -60
t39 -60.5t81 -28q117 0 203 81t167 237q16 31 211 430q-92 27 -172 26q-137 0 -208.5 -41t-71.5 -94q0 -25 17.5 -63.5t17.5 -69.5q0 -47 -33 -82t-86 -35t-89 41t-36 101q0 137 139 235.5t350 98.5q102 0 213 -35q14 29 43 82q70 129 139.5 217t163 157.5t214 93t268.5 1.5
l-4 -4zM1438 500h10v829q-137 -39 -227.5 -141.5t-178.5 -267.5q-12 -23 -36 -72q270 -117 432 -348z" />
    <glyph glyph-name="glyph420" horiz-adv-x="1804" 
d="M1692 1702l-222 -178l-53 45l168 237q39 51 88 52q33 0 52.5 -20.5t19.5 -47.5q0 -45 -53 -88zM954 965q72 129 141.5 217t163 157.5t213 93t267.5 1.5l-4 -4l4 -44q-41 -6 -71 -37.5t-30 -84.5v-1094q0 -53 30 -85t71 -38l-4 -47h-383l-4 47q43 6 71.5 38t28.5 85v66
q-37 162 -173 307t-310 223q-182 -391 -207 -438q-94 -178 -208 -273.5t-278 -95.5q-141 0 -226 46t-85 122q0 45 25.5 73.5t72.5 28.5t74 -27.5t36 -60t39 -60.5t81 -28q117 0 203 81t167 237q33 57 68 128.5t77 161t66 140.5q-92 27 -172 26q-137 0 -208.5 -41t-71.5 -94
q0 -25 17.5 -63.5t17.5 -69.5q0 -47 -33 -82t-86 -35t-89 41t-36 101q0 137 139 235.5t350 98.5q102 0 213 -35q14 29 43 82zM1438 500h10v829q-137 -39 -227.5 -141.5t-178.5 -267.5q-12 -23 -36 -72q270 -117 432 -348z" />
    <glyph glyph-name="glyph421" horiz-adv-x="1804" 
d="M1786 1819l69 -31q-72 -201 -280 -201q-113 0 -182.5 57.5t-98.5 143.5l70 31q23 -47 81 -84t130 -37q70 0 129 37t82 84zM954 965q72 129 140.5 217t162 157.5t214 93t268.5 1.5l-4 -4l4 -44q-41 -6 -71 -37.5t-30 -84.5v-1094q0 -53 30 -85t71 -38l-4 -47h-383l-4 47
q43 6 71.5 38t28.5 85v66q-37 162 -173 307t-310 223q-182 -391 -207 -438q-94 -178 -208 -273.5t-278 -95.5q-141 0 -226 46t-85 122q0 45 25.5 73.5t72.5 28.5t74 -27.5t36 -60t39 -60.5t81 -28q117 0 203 81t167 237q33 57 68 128.5t77 161t66 140.5q-92 27 -172 26
q-137 0 -208.5 -41t-71.5 -94q0 -25 17.5 -63.5t17.5 -69.5q0 -47 -33 -82t-86 -35t-89 41t-36 101q0 137 139 235.5t350 98.5q102 0 213 -35q14 29 43 82zM1438 500h10v829q-137 -39 -227.5 -141.5t-178.5 -267.5q-12 -23 -36 -72q270 -117 432 -348z" />
    <glyph glyph-name="glyph422" horiz-adv-x="1804" 
d="M1503 1827l322 -256l-41 -58l-281 144l-278 -144l-43 58zM954 965q72 129 140.5 217t162 157.5t214 93t268.5 1.5l-4 -4l4 -44q-41 -6 -71 -37.5t-30 -84.5v-1094q0 -53 30 -85t71 -38l-4 -47h-383l-4 47q43 6 71.5 38t28.5 85v66q-37 162 -173 307t-310 223
q-182 -391 -207 -438q-94 -178 -208 -273.5t-278 -95.5q-141 0 -226 46t-85 122q0 45 25.5 73.5t72.5 28.5t74 -27.5t36 -60t39 -60.5t81 -28q117 0 203 81t167 237q33 57 68 128.5t77 161t66 140.5q-92 27 -172 26q-137 0 -208.5 -41t-71.5 -94q0 -25 17.5 -63.5
t17.5 -69.5q0 -47 -33 -82t-86 -35t-89 41t-36 101q0 137 139 235.5t350 98.5q102 0 213 -35q14 29 43 82zM1438 500h10v829q-137 -39 -227.5 -141.5t-178.5 -267.5q-12 -23 -36 -72q270 -117 432 -348z" />
    <glyph glyph-name="glyph423" horiz-adv-x="1804" 
d="M1358 1634q-47 0 -80 32t-33 75q0 47 32 79.5t81 32.5t80.5 -32.5t31.5 -79.5q0 -43 -31.5 -75t-80.5 -32zM1702 1853q49 0 82 -32.5t33 -79.5q0 -43 -33 -75t-82 -32t-81 32t-32 75q0 47 32 79.5t81 32.5zM954 965q72 129 140.5 217t162 157.5t214 93t268.5 1.5l-4 -4
l4 -44q-41 -6 -71 -37.5t-30 -84.5v-1094q0 -53 30 -85t71 -38l-4 -47h-383l-4 47q43 6 71.5 38t28.5 85v66q-37 162 -173 307t-310 223q-182 -391 -207 -438q-94 -178 -208 -273.5t-278 -95.5q-141 0 -226 46t-85 122q0 45 25.5 73.5t72.5 28.5t74 -27.5t36 -60t39 -60.5
t81 -28q117 0 203 81t167 237q33 57 68 128.5t77 161t66 140.5q-92 27 -172 26q-137 0 -208.5 -41t-71.5 -94q0 -25 17.5 -63.5t17.5 -69.5q0 -47 -33 -82t-86 -35t-89 41t-36 101q0 137 139 235.5t350 98.5q102 0 213 -35q14 29 43 82zM1438 500h10v829
q-137 -39 -227.5 -141.5t-178.5 -267.5q-12 -23 -36 -72q270 -117 432 -348z" />
    <glyph glyph-name="glyph424" horiz-adv-x="1804" 
d="M1290 1702q-53 43 -53 88q0 27 19.5 47.5t52.5 20.5q49 0 88 -52l168 -239l-54 -43zM1739 1386q-41 -6 -71 -37.5t-30 -84.5v-1094q0 -53 30 -85t71 -38l-4 -47h-383l-4 47q43 6 71.5 38t28.5 85v66q-37 162 -173 307t-310 223q-182 -391 -207 -438q-94 -178 -208 -273.5
t-278 -95.5q-141 0 -226 46t-85 122q0 45 25.5 73.5t72.5 28.5t74 -27.5t36 -60t39 -60.5t81 -28q117 0 203 81t167 237q33 57 68 128.5t77 161t66 140.5q-92 27 -172 26q-137 0 -208.5 -41t-71.5 -94q0 -25 17.5 -63.5t17.5 -69.5q0 -47 -33 -82t-86 -35t-89 41t-36 101
q0 137 139 235.5t350 98.5q102 0 213 -35q14 29 43 82q72 129 140.5 217t162 157.5t214 93t268.5 1.5l-4 -4zM1438 500h10v829q-137 -39 -227.5 -141.5t-178.5 -267.5q-12 -23 -36 -72q270 -117 432 -348z" />
    <glyph glyph-name="glyph425" horiz-adv-x="1804" 
d="M1221 1776h536v-109h-536v109zM954 965q72 129 140.5 217t162 157.5t214 93t268.5 1.5l-4 -4l4 -44q-41 -6 -71 -37.5t-30 -84.5v-1094q0 -53 30 -85t71 -38l-4 -47h-383l-4 47q43 6 71.5 38t28.5 85v66q-37 162 -173 307t-310 223q-182 -391 -207 -438
q-94 -178 -208 -273.5t-278 -95.5q-141 0 -226 46t-85 122q0 45 25.5 73.5t72.5 28.5t74 -27.5t36 -60t39 -60.5t81 -28q117 0 203 81t167 237q33 57 68 128.5t77 161t66 140.5q-92 27 -172 26q-137 0 -208.5 -41t-71.5 -94q0 -25 17.5 -63.5t17.5 -69.5q0 -47 -33 -82
t-86 -35t-89 41t-36 101q0 137 139 235.5t350 98.5q102 0 213 -35q14 29 43 82zM1438 500h10v829q-137 -39 -227.5 -141.5t-178.5 -267.5q-12 -23 -36 -72q270 -117 432 -348z" />
    <glyph glyph-name="glyph426" horiz-adv-x="1804" 
d="M1774 -246l63 -33q-82 -156 -256 -155q-100 0 -165.5 53t-65.5 143q0 137 147 238h-145l-4 47q43 6 71.5 38t28.5 85v66q-37 162 -173 307t-310 223q-182 -391 -207 -438q-94 -178 -208 -273.5t-278 -95.5q-141 0 -226 46t-85 122q0 45 25.5 73.5t72.5 28.5t74 -27.5
t36 -60t39 -60.5t81 -28q117 0 203 81t167 237q33 57 68 128.5t77 161t66 140.5q-92 27 -172 26q-137 0 -208.5 -41t-71.5 -94q0 -25 17.5 -63.5t17.5 -69.5q0 -47 -33 -82t-86 -35t-89 41t-36 101q0 137 139 235.5t350 98.5q102 0 213 -35q14 29 43 82q72 129 140.5 217
t162 157.5t214 93t268.5 1.5l-4 -4l4 -44q-41 -6 -71 -37.5t-30 -84.5v-1094q0 -53 30 -85t71 -38l-4 -47h-105q-68 -35 -106.5 -89t-38.5 -115.5t41 -100.5t96 -39q99 0 152 98zM1438 500h10v829q-137 -39 -227.5 -141.5t-178.5 -267.5q-12 -23 -36 -72q270 -117 432 -348z
" />
    <glyph glyph-name="glyph427" horiz-adv-x="1804" 
d="M1511.5 1538q-90.5 0 -154 63.5t-63.5 151.5q0 90 63.5 153.5t154 63.5t155 -63.5t64.5 -153.5q0 -88 -64.5 -151.5t-155 -63.5zM1511 1880q-51 0 -86.5 -37t-35.5 -90t35.5 -89t86.5 -36q53 0 90 37t37 88q0 53 -37 90t-90 37zM1739 1386q-41 -6 -71 -37.5t-30 -84.5
v-1094q0 -53 30 -85t71 -38l-4 -47h-383l-4 47q43 6 71.5 38t28.5 85v66q-37 162 -173 307t-310 223q-182 -391 -207 -438q-94 -178 -208 -273.5t-278 -95.5q-141 0 -226 46t-85 122q0 45 25.5 73.5t72.5 28.5t74 -27.5t36 -60t39 -60.5t81 -28q117 0 203 81t167 237
q33 57 68 128.5t77 161t66 140.5q-92 27 -172 26q-137 0 -208.5 -41t-71.5 -94q0 -25 17.5 -63.5t17.5 -69.5q0 -47 -33 -82t-86 -35t-89 41t-36 101q0 137 139 235.5t350 98.5q102 0 213 -35q14 29 43 82q72 129 140.5 217t162 157.5t214 93t268.5 1.5l-4 -4zM1438 500h10
v829q-137 -39 -227.5 -141.5t-178.5 -267.5q-12 -23 -36 -72q270 -117 432 -348z" />
    <glyph glyph-name="glyph428" horiz-adv-x="1804" 
d="M1804 2165q0 -45 -53 -88l-145 -117q68 -23 109.5 -79t41.5 -128q0 -88 -64.5 -151.5t-152.5 -63.5q-92 0 -155.5 63.5t-63.5 151.5q0 80 49 138.5t125 74.5l150 213q39 53 88 53q33 0 52 -20t19 -47zM1665 1753q0 53 -36 90t-89 37t-89 -37t-36 -90t36 -89t89 -36t89 36
t36 89zM954 965q72 129 140.5 217t162 157.5t214 93t268.5 1.5l-4 -4l4 -44q-41 -6 -71 -37.5t-30 -84.5v-1094q0 -53 30 -85t71 -38l-4 -47h-383l-4 47q43 6 71.5 38t28.5 85v66q-37 162 -173 307t-310 223q-182 -391 -207 -438q-94 -178 -208 -273.5t-278 -95.5
q-141 0 -226 46t-85 122q0 45 25.5 73.5t72.5 28.5t74 -27.5t36 -60t39 -60.5t81 -28q117 0 203 81t167 237q33 57 68 128.5t77 161t66 140.5q-92 27 -172 26q-137 0 -208.5 -41t-71.5 -94q0 -25 17.5 -63.5t17.5 -69.5q0 -47 -33 -82t-86 -35t-89 41t-36 101
q0 137 139 235.5t350 98.5q102 0 213 -35q14 29 43 82zM1438 500h10v829q-137 -39 -227.5 -141.5t-178.5 -267.5q-12 -23 -36 -72q270 -117 432 -348z" />
    <glyph glyph-name="glyph429" horiz-adv-x="1804" 
d="M1339 1747q-27 0 -50 -21.5t-32 -66.5l-63 20q14 92 59 138.5t113 46.5q55 0 140 -58.5t120 -58.5q61 0 82 86l59 -18q-12 -92 -58 -139.5t-114 -47.5q-55 0 -137 59.5t-119 59.5zM954 965q72 129 140.5 217t162 157.5t214 93t268.5 1.5l-4 -4l4 -44q-41 -6 -71 -37.5
t-30 -84.5v-1094q0 -53 30 -85t71 -38l-4 -47h-383l-4 47q43 6 71.5 38t28.5 85v66q-37 162 -173 307t-310 223q-182 -391 -207 -438q-94 -178 -208 -273.5t-278 -95.5q-141 0 -226 46t-85 122q0 45 25.5 73.5t72.5 28.5t74 -27.5t36 -60t39 -60.5t81 -28q117 0 203 81
t167 237q33 57 68 128.5t77 161t66 140.5q-92 27 -172 26q-137 0 -208.5 -41t-71.5 -94q0 -25 17.5 -63.5t17.5 -69.5q0 -47 -33 -82t-86 -35t-89 41t-36 101q0 137 139 235.5t350 98.5q102 0 213 -35q14 29 43 82zM1438 500h10v829q-137 -39 -227.5 -141.5t-178.5 -267.5
q-12 -23 -36 -72q270 -117 432 -348z" />
    <glyph glyph-name="glyph430" horiz-adv-x="1835" 
d="M1419 768q147 -45 235.5 -145.5t88.5 -231.5q0 -190 -135 -303t-389 -113q-115 0 -282 12.5t-245 12.5h-180l-4 47q41 6 71.5 38t30.5 85v1182q-240 33 -299 32q-188 0 -188 -116q0 -31 27.5 -70t27.5 -72q0 -43 -27.5 -68.5t-70.5 -25.5q-53 0 -86 42t-31 100
q2 123 94.5 209.5t278.5 86.5q90 0 253 -18t296 -18h291q219 0 352 -99.5t133 -249.5q0 -100 -64.5 -183t-177.5 -124v-10zM1130 1348q-178 0 -290 -11l-2 -4h-23q-4 0 -8 -1t-8 -1v-516h362q143 0 227.5 77t84.5 189q0 115 -90.5 191t-252.5 76zM1178 74q186 0 280 88
t94 239q0 141 -107.5 232.5t-279.5 91.5h-366v-612q47 -4 124.5 -15.5t137.5 -17.5t117 -6z" />
    <glyph glyph-name="glyph431" horiz-adv-x="1814" 
d="M1688 455l65 -21q-47 -207 -187.5 -339t-379.5 -132q-293 0 -468 210t-175 517q0 301 182 529q-223 164 -385 163q-106 0 -168.5 -48t-62.5 -128q0 -29 33.5 -70.5t33.5 -74.5q0 -41 -26.5 -68.5t-69.5 -27.5q-55 0 -87 51t-32 127q0 143 106.5 233t274.5 90
q211 0 453 -174q195 178 454 178q203 0 314.5 -79.5t111.5 -212.5q0 -115 -90 -191t-221 -76q-143 0 -263 57.5t-263 166.5q-109 -160 -109 -361q0 -336 152.5 -504t375.5 -168q306 1 431 353zM1257 1382q-193 0 -356 -170q94 -72 149.5 -108.5t142.5 -71.5t171 -35
q100 0 157.5 53.5t57.5 125.5q0 100 -84 153t-238 53z" />
    <glyph glyph-name="glyph432" horiz-adv-x="1814" 
d="M1454 1786l-321 -256l-322 256l41 57l281 -143l278 143zM1688 455l65 -21q-47 -207 -187.5 -339t-379.5 -132q-293 0 -468 210t-175 517q0 301 182 529q-223 164 -385 163q-106 0 -168.5 -48t-62.5 -128q0 -29 33.5 -70.5t33.5 -74.5q0 -41 -26.5 -68.5t-69.5 -27.5
q-55 0 -87 51t-32 127q0 143 106.5 233t274.5 90q211 0 453 -174q195 178 454 178q203 0 314.5 -79.5t111.5 -212.5q0 -115 -90 -191t-221 -76q-143 0 -263 57.5t-263 166.5q-109 -160 -109 -361q0 -336 152.5 -504t375.5 -168q306 1 431 353zM1257 1382q-193 0 -356 -170
q94 -72 149.5 -108.5t142.5 -71.5t171 -35q100 0 157.5 53.5t57.5 125.5q0 100 -84 153t-238 53z" />
    <glyph glyph-name="glyph433" horiz-adv-x="1814" 
d="M1753 434q-43 -195 -170 -323.5t-340 -145.5l-47 -104q12 12 64 12q78 0 126 -39t48 -108q0 -78 -76 -137.5t-203 -59.5q-100 0 -163.5 35t-63.5 84q0 27 18.5 46t44.5 19q33 0 51.5 -18.5t24.5 -41t30.5 -41t69.5 -18.5q63 0 98 29t35 76q0 33 -24.5 55.5t-65.5 22.5
q-57 0 -92 -33l-49 23l84 196q-279 14 -444.5 222t-165.5 505q0 301 182 529q-223 164 -385 163q-106 0 -168.5 -48t-62.5 -128q0 -29 33.5 -70.5t33.5 -74.5q0 -41 -26.5 -68.5t-69.5 -27.5q-55 0 -87 51t-32 127q0 143 106.5 233t274.5 90q211 0 453 -174q195 178 454 178
q203 0 314.5 -79.5t111.5 -212.5q0 -115 -90 -191t-221 -76q-143 0 -263 57.5t-263 166.5q-109 -160 -109 -361q0 -336 152.5 -504t375.5 -168q305 0 431 353zM1257 1382q-193 0 -356 -170q94 -72 149.5 -108.5t142.5 -71.5t171 -35q100 0 157.5 53.5t57.5 125.5
q0 100 -84 153t-238 53z" />
    <glyph glyph-name="glyph434" horiz-adv-x="1814" 
d="M1133 1657l-281 -144l-41 58l322 256l321 -256l-41 -58zM1688 455l65 -21q-47 -207 -187.5 -339t-379.5 -132q-293 0 -468 210t-175 517q0 301 182 529q-223 164 -385 163q-106 0 -168.5 -48t-62.5 -128q0 -29 33.5 -70.5t33.5 -74.5q0 -41 -26.5 -68.5t-69.5 -27.5
q-55 0 -87 51t-32 127q0 143 106.5 233t274.5 90q211 0 453 -174q195 178 454 178q203 0 314.5 -79.5t111.5 -212.5q0 -115 -90 -191t-221 -76q-143 0 -263 57.5t-263 166.5q-109 -160 -109 -361q0 -336 152.5 -504t375.5 -168q306 1 431 353zM1257 1382q-193 0 -356 -170
q94 -72 149.5 -108.5t142.5 -71.5t171 -35q100 0 157.5 53.5t57.5 125.5q0 100 -84 153t-238 53z" />
    <glyph glyph-name="glyph435" horiz-adv-x="1814" 
d="M1130.5 1645q-49.5 0 -80 31.5t-30.5 74.5q0 47 30.5 79t80 32t81 -32t31.5 -79q0 -45 -31.5 -75.5t-81 -30.5zM1688 455l65 -21q-47 -207 -187.5 -339t-379.5 -132q-293 0 -468 210t-175 517q0 301 182 529q-223 164 -385 163q-106 0 -168.5 -48t-62.5 -128
q0 -29 33.5 -70.5t33.5 -74.5q0 -41 -26.5 -68.5t-69.5 -27.5q-55 0 -87 51t-32 127q0 143 106.5 233t274.5 90q211 0 453 -174q195 178 454 178q203 0 314.5 -79.5t111.5 -212.5q0 -115 -90 -191t-221 -76q-143 0 -263 57.5t-263 166.5q-109 -160 -109 -361
q0 -336 152.5 -504t375.5 -168q306 1 431 353zM1257 1382q-193 0 -356 -170q94 -72 149.5 -108.5t142.5 -71.5t171 -35q100 0 157.5 53.5t57.5 125.5q0 100 -84 153t-238 53z" />
    <glyph glyph-name="glyph436" horiz-adv-x="1884" 
d="M1032 1434q324 0 541 -207t217 -525q0 -313 -188.5 -507.5t-487.5 -194.5h-610l-4 47q41 6 70.5 38t29.5 85v1184q-215 31 -289 30q-86 0 -138 -29.5t-52 -86.5q0 -31 27.5 -70t27.5 -72q0 -43 -26.5 -68.5t-69.5 -25.5q-53 0 -86 42t-31 100q2 123 94.5 209.5
t276.5 86.5q92 0 255 -18t296 -18h147zM1098 90q125 0 224 50t158.5 133t90.5 183.5t31 209.5q0 303 -162 491.5t-441 188.5q-92 0 -159 -7l-2 -6q-33 0 -50 2v-1212q148 -33 310 -33z" />
    <glyph glyph-name="glyph437" horiz-adv-x="1884" 
d="M1354 1786l-322 -256l-321 256l41 57l280 -143l281 143zM1032 1434q324 0 541 -207t217 -525q0 -313 -188.5 -507.5t-487.5 -194.5h-610l-4 47q41 6 70.5 38t29.5 85v1184q-215 31 -289 30q-86 0 -138 -29.5t-52 -86.5q0 -31 27.5 -70t27.5 -72q0 -43 -26.5 -68.5
t-69.5 -25.5q-53 0 -86 42t-31 100q2 123 94.5 209.5t276.5 86.5q92 0 255 -18t296 -18h147zM1098 90q125 0 224 50t158.5 133t90.5 183.5t31 209.5q0 303 -162 491.5t-441 188.5q-92 0 -159 -7l-2 -6q-33 0 -50 2v-1212q148 -33 310 -33z" />
    <glyph glyph-name="glyph438" horiz-adv-x="1900" 
d="M1032 1434q324 0 541 -207t217 -525q0 -313 -188.5 -507.5t-487.5 -194.5h-610l-4 47q41 6 70.5 38t29.5 85v498h-262v96h262v590q-215 31 -289 30q-86 0 -138 -29.5t-52 -86.5q0 -31 27.5 -70t27.5 -72q0 -43 -26.5 -68.5t-69.5 -25.5q-53 0 -86 42t-31 100
q2 123 94.5 209.5t276.5 86.5q92 0 255 -18t296 -18h147zM1098 90q125 0 224 50t158.5 133t90.5 183.5t31 209.5q0 303 -162 491.5t-441 188.5q-92 0 -159 -7l-2 -6q-33 0 -50 2v-571h285l2 -96h-287v-545q148 -33 310 -33z" />
    <glyph glyph-name="glyph439" horiz-adv-x="1755" 
d="M1686 317l53 -22l-99 -324h-16q-76 29 -266 29h-791l-4 47q43 6 73 38t30 85v1178q-305 37 -355 36q-86 0 -138 -29.5t-52 -86.5q0 -31 27.5 -70t27.5 -72q0 -43 -27.5 -68.5t-70.5 -25.5q-51 0 -84 42t-33 100q4 121 96.5 208.5t276.5 87.5q92 0 255 -18t294 -18h682
l90 -256l-53 -19q-4 8 -13.5 20.5t-46.5 44t-85 56.5t-136 44t-193 19q-127 0 -274 -14v-530h492q51 0 87.5 30.5t45.5 75.5l45 -4v-295l-47 -4q-8 45 -44 76t-85 31h-494v-596q176 -23 356 -23q104 0 191.5 23.5t137.5 57.5t85 66.5t47 57.5z" />
    <glyph glyph-name="glyph440" horiz-adv-x="1755" 
d="M1128 1587q-213 0 -280 201l70 31q23 -47 81 -84t129 -37q68 0 129.5 37t81.5 84l70 -31q-72 -201 -281 -201zM1686 317l53 -22l-99 -324h-16q-76 29 -266 29h-791l-4 47q43 6 73 38t30 85v1178q-305 37 -355 36q-86 0 -138 -29.5t-52 -86.5q0 -31 27.5 -70t27.5 -72
q0 -43 -27.5 -68.5t-70.5 -25.5q-51 0 -84 42t-33 100q4 121 96.5 208.5t276.5 87.5q92 0 255 -18t294 -18h682l90 -256l-53 -19q-4 8 -13.5 20.5t-46.5 44t-85 56.5t-136 44t-193 19q-127 0 -274 -14v-530h492q51 0 87.5 30.5t45.5 75.5l45 -4v-295l-47 -4q-8 45 -44 76
t-85 31h-494v-596q176 -23 356 -23q104 0 191.5 23.5t137.5 57.5t85 66.5t47 57.5z" />
    <glyph glyph-name="glyph441" horiz-adv-x="1755" 
d="M1450 1786l-322 -256l-321 256l41 57l280 -143l281 143zM1686 317l53 -22l-99 -324h-16q-76 29 -266 29h-791l-4 47q43 6 73 38t30 85v1178q-305 37 -355 36q-86 0 -138 -29.5t-52 -86.5q0 -31 27.5 -70t27.5 -72q0 -43 -27.5 -68.5t-70.5 -25.5q-51 0 -84 42t-33 100
q4 121 96.5 208.5t276.5 87.5q92 0 255 -18t294 -18h682l90 -256l-53 -19q-4 8 -13.5 20.5t-46.5 44t-85 56.5t-136 44t-193 19q-127 0 -274 -14v-530h492q51 0 87.5 30.5t45.5 75.5l45 -4v-295l-47 -4q-8 45 -44 76t-85 31h-494v-596q176 -23 356 -23q104 0 191.5 23.5
t137.5 57.5t85 66.5t47 57.5z" />
    <glyph glyph-name="glyph442" horiz-adv-x="1755" 
d="M1122 1645q-49 0 -79.5 31.5t-30.5 74.5q0 47 30.5 79t79.5 32t81 -32t32 -79q0 -45 -32 -75.5t-81 -30.5zM1686 317l53 -22l-99 -324h-16q-76 29 -266 29h-791l-4 47q43 6 73 38t30 85v1178q-305 37 -355 36q-86 0 -138 -29.5t-52 -86.5q0 -31 27.5 -70t27.5 -72
q0 -43 -27.5 -68.5t-70.5 -25.5q-51 0 -84 42t-33 100q4 121 96.5 208.5t276.5 87.5q92 0 255 -18t294 -18h682l90 -256l-53 -19q-4 8 -13.5 20.5t-46.5 44t-85 56.5t-136 44t-193 19q-127 0 -274 -14v-530h492q51 0 87.5 30.5t45.5 75.5l45 -4v-295l-47 -4q-8 45 -44 76
t-85 31h-494v-596q176 -23 356 -23q104 0 191.5 23.5t137.5 57.5t85 66.5t47 57.5z" />
    <glyph glyph-name="glyph443" horiz-adv-x="1755" 
d="M1397 1776v-109h-537v109h537zM1686 317l53 -22l-99 -324h-16q-76 29 -266 29h-791l-4 47q43 6 73 38t30 85v1178q-305 37 -355 36q-86 0 -138 -29.5t-52 -86.5q0 -31 27.5 -70t27.5 -72q0 -43 -27.5 -68.5t-70.5 -25.5q-51 0 -84 42t-33 100q4 121 96.5 208.5
t276.5 87.5q92 0 255 -18t294 -18h682l90 -256l-53 -19q-4 8 -13.5 20.5t-46.5 44t-85 56.5t-136 44t-193 19q-127 0 -274 -14v-530h492q51 0 87.5 30.5t45.5 75.5l45 -4v-295l-47 -4q-8 45 -44 76t-85 31h-494v-596q176 -23 356 -23q104 0 191.5 23.5t137.5 57.5t85 66.5
t47 57.5z" />
    <glyph glyph-name="glyph444" horiz-adv-x="1755" 
d="M1792 -246l63 -33q-80 -156 -256 -155q-98 0 -164.5 53t-66.5 143q0 137 148 238h-949l-4 47q43 6 73 38t30 85v1178q-305 37 -355 36q-86 0 -138 -29.5t-52 -86.5q0 -31 27.5 -70t27.5 -72q0 -43 -27.5 -68.5t-70.5 -25.5q-51 0 -84 42t-33 100q4 121 96.5 208.5
t276.5 87.5q92 0 255 -18t294 -18h682l90 -256l-53 -19q-4 8 -13.5 20.5t-46.5 44t-85 56.5t-136 44t-193 19q-127 0 -274 -14v-530h492q51 0 87.5 30.5t45.5 75.5l45 -4v-295l-47 -4q-8 45 -44 76t-85 31h-494v-596q176 -23 356 -23q104 0 191.5 23.5t137.5 57.5t85 66.5
t47 57.5l15 22l53 -22l-88 -295q-145 -74 -146 -205q0 -61 41 -100t96 -39q99 0 150 98z" />
    <glyph glyph-name="glyph445" horiz-adv-x="1673" 
d="M1567 1434l90 -258l-53 -17q-4 8 -13.5 20.5t-47.5 44t-86 56.5t-135 44t-192 19q-154 0 -280 -16v-504h440q51 0 88 31t43 76l47 -4v-297l-49 -4q-6 45 -42 75.5t-85 30.5h-442v-647q0 -471 -406 -471q-135 0 -203.5 55.5t-68.5 118.5q0 47 28.5 78t69.5 31q45 0 75 -29
t41 -64.5t35.5 -64.5t63.5 -29q88 0 131 78t43 276v1283q-291 39 -348 38q-86 0 -137 -30.5t-51 -87.5q0 -31 27.5 -70t27.5 -72q0 -43 -27.5 -68.5t-70.5 -25.5q-51 0 -85 43t-32 98q2 123 95.5 210t277.5 87q92 0 232.5 -15t217.5 -19h781z" />
    <glyph glyph-name="glyph446" horiz-adv-x="1851" 
d="M1827 725l4 -45q-100 -20 -100 -125l-2 -563q0 -123 -47.5 -213t-128 -139.5t-173 -73t-198.5 -23.5q-193 0 -320 65.5t-127 155.5q0 39 24.5 68t67.5 29t64.5 -23.5t35 -57.5t35 -66.5t80 -56.5t154.5 -24q61 0 115.5 14.5t109 48.5t87 104.5t32.5 170.5v99
q-154 -106 -366 -107q-287 0 -459 206t-172 509q0 305 182 536q-225 166 -385 166q-106 0 -170 -48t-64 -126q0 -31 35 -73.5t35 -73.5q0 -43 -26.5 -69.5t-71.5 -26.5q-55 0 -86 50t-31 126q0 143 106.5 234t274.5 91q207 0 453 -176q195 180 452 180q203 0 315.5 -79.5
t112.5 -212.5q0 -115 -93 -192t-222 -77q-141 0 -260 57.5t-262 163.5q-109 -160 -109 -364q0 -332 150.5 -498t365.5 -166q172 0 295 103v352q0 53 -28.5 85t-71.5 40l4 45h383zM1257 1380q-88 0 -184 -46t-174 -128q92 -70 147.5 -106.5t143.5 -71.5t170 -35
q100 0 159.5 54.5t59.5 126.5q0 102 -84 154t-238 52z" />
    <glyph glyph-name="glyph447" horiz-adv-x="1851" 
d="M1235 1587q-213 0 -281 201l70 31q23 -47 81 -84t130 -37q68 0 129 37t82 84l70 -31q-72 -201 -281 -201zM1827 725l4 -45q-100 -20 -100 -125l-2 -563q0 -123 -47.5 -213t-128 -139.5t-173 -73t-198.5 -23.5q-193 0 -320 65.5t-127 155.5q0 39 24.5 68t67.5 29
t64.5 -23.5t35 -57.5t35 -66.5t80 -56.5t154.5 -24q61 0 115.5 14.5t109 48.5t87 104.5t32.5 170.5v99q-154 -106 -366 -107q-287 0 -459 206t-172 509q0 305 182 536q-225 166 -385 166q-106 0 -170 -48t-64 -126q0 -31 35 -73.5t35 -73.5q0 -43 -26.5 -69.5t-71.5 -26.5
q-55 0 -86 50t-31 126q0 143 106.5 234t274.5 91q207 0 453 -176q195 180 452 180q203 0 315.5 -79.5t112.5 -212.5q0 -115 -93 -192t-222 -77q-141 0 -260 57.5t-262 163.5q-109 -160 -109 -364q0 -332 150.5 -498t365.5 -166q172 0 295 103v352q0 53 -28.5 85t-71.5 40
l4 45h383zM1257 1380q-88 0 -184 -46t-174 -128q92 -70 147.5 -106.5t143.5 -71.5t170 -35q100 0 159.5 54.5t59.5 126.5q0 102 -84 154t-238 52z" />
    <glyph glyph-name="glyph448" horiz-adv-x="1851" 
d="M1219 1657l-281 -144l-41 58l322 256l321 -256l-41 -58zM1827 725l4 -45q-100 -20 -100 -125l-2 -563q0 -123 -47.5 -213t-128 -139.5t-173 -73t-198.5 -23.5q-193 0 -320 65.5t-127 155.5q0 39 24.5 68t67.5 29t64.5 -23.5t35 -57.5t35 -66.5t80 -56.5t154.5 -24
q61 0 115.5 14.5t109 48.5t87 104.5t32.5 170.5v99q-154 -106 -366 -107q-287 0 -459 206t-172 509q0 305 182 536q-225 166 -385 166q-106 0 -170 -48t-64 -126q0 -31 35 -73.5t35 -73.5q0 -43 -26.5 -69.5t-71.5 -26.5q-55 0 -86 50t-31 126q0 143 106.5 234t274.5 91
q207 0 453 -176q195 180 452 180q203 0 315.5 -79.5t112.5 -212.5q0 -115 -93 -192t-222 -77q-141 0 -260 57.5t-262 163.5q-109 -160 -109 -364q0 -332 150.5 -498t365.5 -166q172 0 295 103v352q0 53 -28.5 85t-71.5 40l4 45h383zM1257 1380q-88 0 -184 -46t-174 -128
q92 -70 147.5 -106.5t143.5 -71.5t170 -35q100 0 159.5 54.5t59.5 126.5q0 102 -84 154t-238 52z" />
    <glyph glyph-name="glyph449" horiz-adv-x="1861" 
d="M1827 725l4 -45q-100 -20 -100 -125l-2 -530q0 -123 -47.5 -213.5t-128 -139.5t-173 -72.5t-198.5 -23.5q-193 0 -320 65.5t-127 155.5q0 39 24.5 68t67.5 29t64.5 -24t35 -57.5t35 -66.5t80 -56.5t154.5 -23.5q61 0 115.5 14.5t109 48t87 104.5t32.5 171v66
q-154 -106 -366 -107q-287 0 -459 206t-172 509q0 305 182 536q-225 166 -385 166q-106 0 -170 -48t-64 -126q0 -31 35 -73.5t35 -73.5q0 -43 -26.5 -69.5t-71.5 -26.5q-55 0 -86 50t-31 126q0 143 106.5 234t274.5 91q207 0 453 -176q195 180 452 180q203 0 315.5 -79.5
t112.5 -212.5q0 -115 -93 -192t-222 -77q-141 0 -260 57.5t-262 163.5q-109 -160 -109 -364q0 -332 150.5 -498t365.5 -166q172 0 295 103v352q0 53 -28.5 85t-71.5 40l4 45h383zM1257 1380q-88 0 -184 -46t-174 -128q92 -70 147.5 -106.5t143.5 -71.5t170 -35
q100 0 159.5 54.5t59.5 126.5q0 102 -84 154t-238 52zM1196 -526q66 0 104.5 -49.5t38.5 -124.5q0 -115 -63.5 -248t-167.5 -215l-68 67q61 45 115.5 133.5t67.5 182.5l-4 4q-12 -6 -31 -6q-53 0 -92 36.5t-39 94.5q0 55 40 90t99 35z" />
    <glyph glyph-name="glyph450" horiz-adv-x="1851" 
d="M1219 1645q-47 0 -79 31.5t-32 74.5q0 47 30.5 79t80 32t81 -32t31.5 -79q0 -45 -31.5 -75.5t-80.5 -30.5zM1827 725l4 -45q-100 -20 -100 -125l-2 -563q0 -123 -47.5 -213t-128 -139.5t-173 -73t-198.5 -23.5q-193 0 -320 65.5t-127 155.5q0 39 24.5 68t67.5 29
t64.5 -23.5t35 -57.5t35 -66.5t80 -56.5t154.5 -24q61 0 115.5 14.5t109 48.5t87 104.5t32.5 170.5v99q-154 -106 -366 -107q-287 0 -459 206t-172 509q0 305 182 536q-225 166 -385 166q-106 0 -170 -48t-64 -126q0 -31 35 -73.5t35 -73.5q0 -43 -26.5 -69.5t-71.5 -26.5
q-55 0 -86 50t-31 126q0 143 106.5 234t274.5 91q207 0 453 -176q195 180 452 180q203 0 315.5 -79.5t112.5 -212.5q0 -115 -93 -192t-222 -77q-141 0 -260 57.5t-262 163.5q-109 -160 -109 -364q0 -332 150.5 -498t365.5 -166q172 0 295 103v352q0 53 -28.5 85t-71.5 40
l4 45h383zM1257 1380q-88 0 -184 -46t-174 -128q92 -70 147.5 -106.5t143.5 -71.5t170 -35q100 0 159.5 54.5t59.5 126.5q0 102 -84 154t-238 52z" />
    <glyph glyph-name="glyph451" horiz-adv-x="1949" 
d="M1784 170q0 -53 30.5 -85t71.5 -38l-4 -47h-383l-4 47q41 6 70.5 38t29.5 85v543h-741v-543q0 -53 29.5 -85t72.5 -38l-4 -47h-385l-4 47q43 6 72 38t29 85v1176q-41 4 -116 15t-131.5 17t-105.5 6q-86 0 -138 -29.5t-52 -86.5q0 -31 27.5 -70t27.5 -72
q0 -43 -26.5 -68.5t-69.5 -25.5q-53 0 -86 42t-31 100q0 123 93.5 209.5t277.5 86.5q92 0 255 -18t294 -18h67l6 -48q-43 -6 -72.5 -37.5t-29.5 -84.5v-435h741v435q0 53 -29.5 84.5t-70.5 37.5l4 48h383l4 -48q-41 -6 -71.5 -37.5t-30.5 -84.5v-1094z" />
    <glyph glyph-name="glyph452" horiz-adv-x="1961" 
d="M1784 170q0 -53 30.5 -85t71.5 -38l-4 -47h-383l-4 47q41 6 70.5 38t29.5 85v543h-741v-543q0 -53 29.5 -85t72.5 -38l-4 -47h-385l-4 47q43 6 72 38t29 85v842h-156v80h156v254q-41 4 -116 15t-131.5 17t-105.5 6q-86 0 -138 -29.5t-52 -86.5q0 -31 27.5 -70t27.5 -72
q0 -43 -26.5 -68.5t-69.5 -25.5q-53 0 -86 42t-31 100q0 123 93.5 209.5t277.5 86.5q92 0 255 -18t294 -18h67l6 -48q-43 -6 -72.5 -37.5t-29.5 -84.5v-172h741v172q0 53 -29.5 84.5t-70.5 37.5l4 48h383l4 -48q-41 -6 -71.5 -37.5t-30.5 -84.5v-172h151l2 -80h-153v-842z
M854 829h741v183h-741v-183z" />
    <glyph glyph-name="glyph453" horiz-adv-x="1949" 
d="M1225 1657l-281 -144l-41 58l322 256l321 -256l-41 -58zM1784 170q0 -53 30.5 -85t71.5 -38l-4 -47h-383l-4 47q41 6 70.5 38t29.5 85v543h-741v-543q0 -53 29.5 -85t72.5 -38l-4 -47h-385l-4 47q43 6 72 38t29 85v1176q-41 4 -116 15t-131.5 17t-105.5 6
q-86 0 -138 -29.5t-52 -86.5q0 -31 27.5 -70t27.5 -72q0 -43 -26.5 -68.5t-69.5 -25.5q-53 0 -86 42t-31 100q0 123 93.5 209.5t277.5 86.5q92 0 255 -18t294 -18h67l6 -48q-43 -6 -72.5 -37.5t-29.5 -84.5v-435h741v435q0 53 -29.5 84.5t-70.5 37.5l4 48h383l4 -48
q-41 -6 -71.5 -37.5t-30.5 -84.5v-1094z" />
    <glyph glyph-name="glyph454" horiz-adv-x="1019" 
d="M856 170q0 -53 28.5 -85t71.5 -38l-4 -47h-385l-4 47q43 6 73 38t30 85v1176q-41 4 -116 15t-132.5 17t-106.5 6q-188 0 -188 -116q0 -31 27.5 -70t27.5 -72q0 -43 -27.5 -68.5t-70.5 -25.5q-51 0 -85 43t-32 99q2 123 94.5 209.5t278.5 86.5q90 0 254 -18t295 -18h67
l4 -48q-43 -6 -71.5 -37.5t-28.5 -84.5v-1094z" />
    <glyph glyph-name="glyph455" horiz-adv-x="1521" 
d="M956 47l-4 -47h-385l-4 47q43 6 73 38t30 85v1176q-41 4 -116 15t-132.5 17t-106.5 6q-188 0 -188 -116q0 -31 27.5 -70t27.5 -72q0 -43 -27.5 -68.5t-70.5 -25.5q-51 0 -85 43t-32 99q2 123 94.5 209.5t278.5 86.5q90 0 254 -18t295 -18h67l4 -48q-43 -6 -71.5 -37.5
t-28.5 -84.5v-1094q0 -53 28.5 -85t71.5 -38zM1466 1434l4 -48q-43 -6 -71.5 -37.5t-28.5 -84.5v-1192q0 -471 -393 -471q-135 0 -211 56t-76 118q0 47 30 77.5t68 30.5q45 0 77 -28.5t45.5 -64.5t45 -64.5t76.5 -28.5q76 0 112 78t36 276v1213q0 53 -30 84.5t-71 37.5l4 48
h383z" />
    <glyph glyph-name="glyph456" horiz-adv-x="1019" 
d="M760 1645q-47 0 -79 31.5t-32 74.5q0 47 31 79t80 32t80.5 -32t31.5 -79q0 -45 -31.5 -75.5t-80.5 -30.5zM856 170q0 -53 28.5 -85t71.5 -38l-4 -47h-385l-4 47q43 6 73 38t30 85v1176q-41 4 -116 15t-132.5 17t-106.5 6q-188 0 -188 -116q0 -31 27.5 -70t27.5 -72
q0 -43 -27.5 -68.5t-70.5 -25.5q-51 0 -85 43t-32 99q2 123 94.5 209.5t278.5 86.5q90 0 254 -18t295 -18h67l4 -48q-43 -6 -71.5 -37.5t-28.5 -84.5v-1094z" />
    <glyph glyph-name="glyph457" horiz-adv-x="1019" 
d="M494 1776h536v-109h-536v109zM956 1386q-43 -6 -71.5 -37.5t-28.5 -84.5v-1094q0 -53 28.5 -85t71.5 -38l-4 -47h-385l-4 47q43 6 73 38t30 85v1176q-41 4 -116 15t-132.5 17t-106.5 6q-188 0 -188 -116q0 -31 27.5 -70t27.5 -72q0 -43 -27.5 -68.5t-70.5 -25.5
q-51 0 -85 43t-32 99q2 123 94.5 209.5t278.5 86.5q90 0 254 -18t295 -18h67z" />
    <glyph glyph-name="glyph458" horiz-adv-x="1019" 
d="M973 -246l63 -33q-80 -156 -256 -155q-98 0 -164.5 53t-66.5 143q0 137 147 238h-129l-4 47q43 6 73 38t30 85v1176q-41 4 -116 15t-132.5 17t-106.5 6q-188 0 -188 -116q0 -31 27.5 -70t27.5 -72q0 -43 -27.5 -68.5t-70.5 -25.5q-51 0 -85 43t-32 99q2 123 94.5 209.5
t278.5 86.5q90 0 254 -18t295 -18h67l4 -48q-43 -6 -71.5 -37.5t-28.5 -84.5v-1094q0 -53 28.5 -85t71.5 -38l-4 -47h-121q-145 -74 -145 -205q0 -61 41 -100t96 -39q99 0 150 98z" />
    <glyph glyph-name="glyph459" horiz-adv-x="1019" 
d="M989 1833l60 -18q-27 -186 -172 -187q-55 0 -139.5 59.5t-119.5 59.5q-63 0 -79 -88l-64 20q25 184 172 185q53 0 137 -58.5t121 -58.5q64 0 84 86zM956 1386q-43 -6 -71.5 -37.5t-28.5 -84.5v-1094q0 -53 28.5 -85t71.5 -38l-4 -47h-385l-4 47q43 6 73 38t30 85v1176
q-41 4 -116 15t-132.5 17t-106.5 6q-188 0 -188 -116q0 -31 27.5 -70t27.5 -72q0 -43 -27.5 -68.5t-70.5 -25.5q-51 0 -85 43t-32 99q2 123 94.5 209.5t278.5 86.5q90 0 254 -18t295 -18h67z" />
    <glyph glyph-name="glyph460" horiz-adv-x="1099" 
d="M897 1319v-453h176v-110h-176v-676q0 -471 -405 -471q-133 0 -203 55t-70 121q0 47 30 76.5t68 29.5q45 0 75 -28.5t41 -64.5t36 -64.5t63 -28.5q90 0 133.5 78t43.5 276v697h-371v110h371v273q0 117 53 170v8q-70 6 -222.5 42t-232.5 36q-84 0 -135 -32t-51 -91
q0 -31 27.5 -72t27.5 -74q0 -43 -27.5 -68.5t-70.5 -25.5q-53 0 -85 43t-32 99q4 123 96.5 214t276.5 91q98 0 268 -39t258 -39q33 31 85 54.5t102 23.5l36 -76l-14 -10q-14 -10 -31.5 -21.5t-40 -24t-49 -20.5t-51.5 -8z" />
    <glyph glyph-name="glyph461" horiz-adv-x="1161" 
d="M793 1661l-281 -143l-41 57l322 256l321 -256l-41 -57zM1083 1403l-14 -10q-14 -10 -31.5 -21.5t-40 -24t-49 -20.5t-51.5 -8v-453h176v-110h-176v-676q0 -471 -405 -471q-133 0 -203 55t-70 121q0 47 30 76.5t68 29.5q45 0 75 -28.5t41 -64.5t36 -64.5t63 -28.5
q90 0 133.5 78t43.5 276v697h-371v110h371v273q0 117 53 170v8q-70 6 -222.5 42t-232.5 36q-84 0 -135 -32t-51 -91q0 -31 27.5 -72t27.5 -74q0 -43 -27.5 -68.5t-70.5 -25.5q-53 0 -85 43t-32 99q4 123 96.5 214t276.5 91q98 0 268 -39t258 -39q33 31 85 54.5t102 23.5z
" />
    <glyph glyph-name="glyph462" horiz-adv-x="1871" 
d="M2476 -135q47 0 75.5 -29t28.5 -72q0 -80 -86 -123.5t-239 -43.5q-147 0 -271 56t-211 149.5t-159 207t-131.5 236.5t-114.5 229.5t-123.5 193.5t-142.5 124l-248 -228v-395q0 -53 29.5 -85t70.5 -38l-4 -47h-385l-4 47q43 6 74 38t31 85v1176q-41 4 -117 15t-132.5 17
t-105.5 6q-190 0 -190 -116q0 -31 27.5 -70t27.5 -72q0 -43 -27.5 -68.5t-70.5 -25.5q-53 0 -85 42t-32 100q4 123 96.5 209.5t276.5 86.5q92 0 255 -18t294 -18h67l4 -48q-41 -6 -70.5 -37.5t-29.5 -84.5v-551h8l600 551q53 57 45 85.5t-47 36.5l4 48h373l4 -48
q-102 -14 -223 -122l-422 -385v-9q100 -29 187 -110.5t150.5 -187t124 -227.5t120 -237.5t124 -210t152.5 -151.5t191 -57q53 0 83.5 27.5t40 60.5t35 60.5t72.5 27.5z" />
    <glyph glyph-name="glyph463" horiz-adv-x="1873" 
d="M2476 -135q47 0 75.5 -29t28.5 -72q0 -80 -86 -123.5t-239 -43.5q-147 0 -271 56t-211 149.5t-159 207t-131.5 236.5t-114.5 229.5t-123.5 193.5t-142.5 124l-248 -228v-395q0 -53 29.5 -85t70.5 -38l-4 -47h-385l-4 47q43 6 74 38t31 85v1176q-41 4 -117 15t-132.5 17
t-105.5 6q-190 0 -190 -116q0 -31 27.5 -70t27.5 -72q0 -43 -27.5 -68.5t-70.5 -25.5q-53 0 -85 42t-32 100q4 123 96.5 209.5t276.5 86.5q92 0 255 -18t294 -18h67l4 -48q-41 -6 -70.5 -37.5t-29.5 -84.5v-551h8l600 551q53 57 45 85.5t-47 36.5l4 48h373l4 -48
q-102 -14 -223 -122l-422 -385v-9q100 -29 187 -110.5t150.5 -187t124 -227.5t120 -237.5t124 -210t152.5 -151.5t191 -57q53 0 83.5 27.5t40 60.5t35 60.5t72.5 27.5zM1231 -117q68 0 105.5 -49t37.5 -125q0 -115 -63.5 -248t-167.5 -215l-68 66q61 47 115.5 134t69.5 181
l-5 6q-14 -6 -32 -6q-53 0 -91 37t-38 94q0 55 40 90t97 35z" />
    <glyph glyph-name="glyph464" horiz-adv-x="1339" 
d="M1657 -147q96 0 96 -95q0 -70 -78 -117t-211 -47q-106 0 -209.5 42t-186.5 103.5t-160 123t-161.5 108.5t-164.5 54q-86 -74 -181 -76l-34 76q61 80 165 88q8 55 9 157v500q0 268 143 463q-90 72 -166 109.5t-178 37.5q-106 0 -168.5 -47t-62.5 -127q0 -29 34.5 -70.5
t34.5 -74.5q0 -43 -27.5 -68.5t-72.5 -25.5q-53 0 -85 50t-32 126q0 141 106.5 233t274.5 92q131 0 224 -42t184 -117q166 160 397 159q162 0 249 -67.5t87 -167.5q0 -102 -89 -165.5t-204 -63.5q-211 0 -393 137q-70 -139 -70 -336v-518q0 -106 -47 -168v-15
q109 -8 228.5 -76.5t202.5 -144.5t174 -138t151 -62q49 0 77.5 26.5t38 58t35 58.5t70.5 27zM1149 1380q-186 0 -301 -153q82 -68 159.5 -104t182.5 -36q84 0 140 42t56 102q0 70 -62 109.5t-175 39.5z" />
    <glyph glyph-name="glyph465" horiz-adv-x="1339" 
d="M975 1702l-221 -178l-54 45l168 237q39 51 88 52q33 0 52.5 -20.5t19.5 -47.5q0 -45 -53 -88zM1657 -147q96 0 96 -95q0 -70 -78 -117t-211 -47q-106 0 -209.5 42t-186.5 103.5t-160 123t-161.5 108.5t-164.5 54q-86 -74 -181 -76l-34 76q61 80 165 88q8 55 9 157v500
q0 268 143 463q-90 72 -166 109.5t-178 37.5q-106 0 -168.5 -47t-62.5 -127q0 -29 34.5 -70.5t34.5 -74.5q0 -43 -27.5 -68.5t-72.5 -25.5q-53 0 -85 50t-32 126q0 141 106.5 233t274.5 92q131 0 224 -42t184 -117q166 160 397 159q162 0 249 -67.5t87 -167.5
q0 -102 -89 -165.5t-204 -63.5q-211 0 -393 137q-70 -139 -70 -336v-518q0 -106 -47 -168v-15q88 -8 182 -54t171 -106.5t147.5 -120t137 -100t118.5 -40.5q49 0 77.5 26.5t38 58t35 58.5t70.5 27zM1149 1380q-186 0 -301 -153q82 -68 159.5 -104t182.5 -36q84 0 140 42
t56 102q0 70 -62 109.5t-175 39.5z" />
    <glyph glyph-name="glyph466" horiz-adv-x="1759" 
d="M1544 1184q59 47 113.5 134t68.5 181l-4 4q-20 -4 -32 -4q-53 0 -91 36t-38 93q0 55 39.5 91t97.5 36q68 0 106.5 -49t38.5 -125q0 -115 -64.5 -249t-166.5 -214zM1657 -147q96 0 96 -95q0 -70 -78 -117t-211 -47q-106 0 -209.5 42t-186.5 103.5t-160 123t-161.5 108.5
t-164.5 54q-86 -74 -181 -76l-34 76q61 80 165 88q8 55 9 157v500q0 268 143 463q-90 72 -166 109.5t-178 37.5q-106 0 -168.5 -47t-62.5 -127q0 -29 34.5 -70.5t34.5 -74.5q0 -43 -27.5 -68.5t-72.5 -25.5q-53 0 -85 50t-32 126q0 141 106.5 233t274.5 92q131 0 224 -42
t184 -117q166 160 397 159q162 0 249 -67.5t87 -167.5q0 -102 -89 -165.5t-204 -63.5q-211 0 -393 137q-70 -139 -70 -336v-518q0 -106 -47 -168v-15q88 -8 182 -54t171 -106.5t147.5 -120t137 -100t118.5 -40.5q49 0 77.5 26.5t38 58t35 58.5t70.5 27zM1149 1380
q-186 0 -301 -153q82 -68 159.5 -104t182.5 -36q84 0 140 42t56 102q0 70 -62 109.5t-175 39.5z" />
    </font>
</defs>
</svg>
