<?xml version="1.0" standalone="no"?>
<!DOCTYPE svg PUBLIC "-//W3C//DTD SVG 1.1//EN" "http://www.w3.org/Graphics/SVG/1.1/DTD/svg11.dtd" >
<svg xmlns="http://www.w3.org/2000/svg" xmlns:xlink="http://www.w3.org/1999/xlink" version="1.1">
<metadata>
Created by FontForge 20170731 at Wed Apr 17 11:03:24 2019
 By Aleksey,,,
Copyright (c) 2019 by Studio Sun. All rights reserved. Desktop use is strictly prohibited.
</metadata>
<defs>
<font id="Tropiline-ExtraBoldItalic" horiz-adv-x="1437" >
  <font-face 
    font-family="Tropiline ExtraBold Italic"
    font-weight="800"
    font-style="italic"
    font-stretch="normal"
    units-per-em="2048"
    panose-1="0 0 0 0 0 0 0 0 0 0"
    ascent="1536"
    descent="-512"
    x-height="1110"
    cap-height="1434"
    bbox="-711 -1389 3148 2247"
    underline-thickness="0"
    underline-position="0"
    unicode-range="U+0020-FB06"
  />
<missing-glyph horiz-adv-x="1202" 
d="M217 0v1434h985v-1434h-985zM416 154h590v1126h-590v-1126z" />
    <glyph glyph-name="uniFB00" unicode="ff" horiz-adv-x="1409" 
d="M1460 1589q137 0 215 -49t76 -131q0 -59 -40 -98t-109 -39q-49 0 -78 25.5t-36 55t-25.5 55.5t-49.5 26q-37 0 -78 -92.5t-59 -235.5l-6 -37h252l-27 -164h-252l-160 -1009q-47 -336 -238.5 -508t-508.5 -172q-86 0 -167 43t-81 116q2 61 45 101.5t107 40.5
q45 0 77.5 -22.5t49 -51.5t41 -51.5t53.5 -22.5q195 0 256 406l194 1130h-262l-110 -694q-45 -334 -239 -507t-509 -173q-86 0 -167 44t-79 118q0 61 42 101t108 40q55 0 92 -37t65.5 -73.5t65.5 -36.5q104 0 164.5 103.5t89.5 299.5l139 815h-237l30 164h236l55 324
q45 242 168 377t352 135q135 0 213 -49.5t78 -129.5q-2 -61 -41 -100t-108 -39q-51 0 -79 25.5t-35 56.5t-24.5 56.5t-48.5 25.5q-39 0 -80.5 -92t-58.5 -238l-55 -352h262l2 8q45 242 168 377t352 135z" />
    <glyph glyph-name="uniFB01" unicode="fi" horiz-adv-x="1382" 
d="M664 1083l-2 -14h256l-29 -164h-252l-98 -684q-47 -336 -240 -508t-508 -172q-88 0 -168 43t-80 117q2 63 44 103t106 40q45 0 77.5 -23.5t49 -51t42 -51t54.5 -23.5q195 0 256 405l131 805h-176l29 164h174l2 8q27 143 102.5 251t177 166t204 86t204.5 28
q205 0 310.5 -81t105.5 -177q0 -74 -46.5 -115t-117.5 -41q-66 0 -105 41t-51 89t-49 89t-100 41q-106 0 -191 -83t-112 -288zM1364 104q18 0 59 17l13 -70q-115 -92 -277 -92q-98 0 -163.5 51t-47.5 183l84 481q12 72 -14.5 118t-75.5 60l31 82q289 45 438 182l27 -8
l-148 -829q-14 -82 5.5 -128.5t68.5 -46.5z" />
    <glyph glyph-name="uniFB02" unicode="fl" horiz-adv-x="1374" 
d="M1276 104q20 0 57 17l15 -70q-117 -92 -277 -92q-100 0 -165.5 51t-45.5 183l199 1132q2 63 -28 104t-95 41q-86 0 -167 -94t-99 -258l-8 -49h223l-29 -164h-217l-100 -684q-47 -336 -240 -508t-508 -172q-88 0 -168 43t-80 117q2 63 44 103t106 40q45 0 77.5 -23.5
t49 -51t42 -51t54.5 -23.5q195 0 256 405l131 805h-176l31 164h172l4 21q47 250 213 392t434 142q184 0 283 -106q78 35 147 96l29 -8l-238 -1327q-32 -175 74 -175z" />
    <glyph glyph-name="uniFB03" unicode="ffi" horiz-adv-x="1988" 
d="M1268 1083l-2 -14h256l-29 -164h-252l-158 -1009q-45 -336 -237.5 -509t-507.5 -173q-86 0 -167 44t-81 117q0 61 42 101.5t108 40.5q55 0 92 -37t65.5 -74t65.5 -37q197 0 254 404l190 1132h-260l-108 -694q-47 -334 -240 -507t-508 -173q-86 0 -167 44t-79 118
q0 61 42 101t108 40q45 0 77.5 -23.5t49 -50t41 -50t55.5 -23.5q193 0 254 403l139 815h-239l30 164h236l55 324q47 242 170 377t352 135q135 0 213 -49.5t76 -129.5q0 -61 -40 -100t-109 -39q-49 0 -78 25.5t-36 56.5t-24.5 56.5t-48.5 25.5q-37 0 -78.5 -92t-60.5 -238
l-55 -352h260l2 8q27 143 102.5 251t177 166t204 86t204.5 28q205 0 310.5 -81t105.5 -177q-2 -74 -47 -115t-115 -41q-68 0 -106.5 41t-51 89t-50.5 89t-101 41q-106 0 -191 -83t-110 -288zM1970 104q16 0 58 17l12 -70q-115 -92 -277 -92q-98 0 -163.5 51t-47.5 183
l86 481q12 70 -15.5 118t-76.5 60l31 82q287 43 438 182l27 -8l-148 -829q-28 -175 76 -175z" />
    <glyph glyph-name="uniFB04" unicode="ffl" horiz-adv-x="1976" 
d="M1880 104q23 0 55 17l15 -70q-115 -92 -277 -92q-100 0 -165.5 51t-45.5 183l201 1140q-4 137 -125 137q-86 0 -167 -94t-99 -258l-8 -47h252l-27 -164h-250l-156 -1009q-47 -336 -238.5 -508t-508.5 -172q-88 0 -168 43t-80 116q2 61 44 101.5t106 40.5q45 0 77.5 -23.5
t50 -50.5t42 -50.5t53.5 -23.5q195 0 256 404l190 1132h-260l-108 -694q-47 -334 -240 -507t-508 -173q-86 0 -167 44t-79 118q0 61 42 101t108 40q45 0 77.5 -22.5t49 -51t41 -51t53.5 -22.5q106 0 166.5 103.5t89.5 299.5l139 815h-241l30 164h240l55 324q45 242 168 377
t352 135q135 0 213 -49.5t78 -128.5q-2 -63 -41 -102.5t-108 -39.5q-51 0 -80 25.5t-36 57.5t-24.5 57.5t-48.5 25.5q-37 0 -78.5 -92t-60.5 -238l-55 -352h260l4 21q45 248 211 390t434 142q184 0 283 -106q82 37 149 96l27 -8l-238 -1327q-33 -175 76 -175z" />
    <glyph glyph-name="T_h.liga" unicode="Th" horiz-adv-x="2551" 
d="M2609 123l10 -72q-111 -90 -260 -90q-45 0 -84 9.5t-77.5 32t-54 71.5t-3.5 119l107 501q23 98 -11 154.5t-114 56.5q-100 0 -190.5 -115.5t-121.5 -279.5q-27 -133 -39 -260t-10 -189v-59h-372l225 1262q-125 -39 -277 -39q-41 0 -61 2l-170 -967q-25 -150 74 -180
l-31 -80h-561l-2 80q109 31 135 180l182 1036q-211 63 -301 64q-137 0 -137 -88q0 -37 41 -98.5t41 -114.5q0 -66 -47 -111t-119 -45q-78 0 -132 61.5t-54 143.5q0 164 132 280.5t351 116.5q162 0 402.5 -29.5t389.5 -29.5q123 0 259.5 45t246.5 125l27 -10l-129 -717l2 2
h16q150 219 385 219q172 0 257 -112.5t36 -327.5l-86 -389q-39 -174 70 -175q18 1 55 17z" />
    <glyph glyph-name="f_j.liga" unicode="fj" horiz-adv-x="1480" 
d="M629 907l-94 -647q-47 -336 -240 -508t-508 -172q-88 0 -168 42t-80 118q0 61 43 101t107 40q55 0 92 -37t65.5 -73.5t65.5 -36.5q195 0 256 405l127 768h-178l30 164h175l2 8q20 115 75.5 208t126 151.5t156.5 97.5t167 55.5t161 16.5q207 0 312 -80t103 -178
q0 -72 -46 -113t-115 -41q-66 0 -105 41t-51 89t-50 89t-102 41q-106 0 -191 -83t-110 -288l-2 -14h256l-28 -164h-252zM1409 1118l29 -8l-242 -1294q-74 -422 -528 -422q-154 0 -234 58.5t-74 135.5q8 119 134 119q49 0 81.5 -24.5t47 -55t43 -55.5t71.5 -25q94 0 117 152
l178 977q12 70 -14.5 117t-75.5 61l31 80q289 49 436 184z" />
    <glyph glyph-name="f_t.liga" unicode="ft" horiz-adv-x="1683" 
d="M1450 907l-115 -645q-27 -145 88 -145q70 0 140 24l8 -133q-49 -16 -141.5 -32.5t-149.5 -16.5q-332 0 -276 309l112 637h-405l-101 -682q-47 -336 -239.5 -509t-507.5 -173q-88 0 -168 44t-80 118q2 61 44 101t105 40q45 0 78 -22.5t50.5 -51t42 -51t53.5 -22.5
q195 0 256 403l133 805h-176l28 164h174l5 27q45 242 167.5 377t352.5 135q135 0 213 -49.5t78 -128.5q0 -61 -39 -100.5t-109 -39.5q-51 0 -79.5 25.5t-36 56.5t-25 56.5t-47.5 25.5q-39 0 -80 -92t-60 -238l-8 -55h287q84 10 144.5 33.5t111.5 74t74.5 82t79.5 111.5h100
l-53 -301h268l-27 -162h-270z" />
    <glyph glyph-name=".notdef" horiz-adv-x="1202" 
d="M217 0v1434h985v-1434h-985zM416 154h590v1126h-590v-1126z" />
    <glyph glyph-name="glyph1" horiz-adv-x="0" 
 />
    <glyph glyph-name="glyph2" horiz-adv-x="681" 
 />
    <glyph glyph-name="space" unicode=" " horiz-adv-x="716" 
 />
    <glyph glyph-name="exclam" unicode="!" horiz-adv-x="829" 
d="M350 508q23 213 -4 416.5t-10 306.5q20 129 95 185.5t167 56.5q90 0 147.5 -56.5t36.5 -185.5q-14 -92 -57 -190.5t-95 -231.5t-87 -301h-193zM356 -41q-92 0 -145 60.5t-39 154.5t87 154.5t165 60.5q90 0 144.5 -60.5t40 -154.5t-88.5 -154.5t-164 -60.5z" />
    <glyph glyph-name="quotedbl" unicode="&#x22;" horiz-adv-x="1202" 
d="M379 844q-2 127 -26.5 262t-16.5 192q14 80 70.5 127.5t128.5 47.5q74 0 115.5 -47.5t27.5 -127.5q-8 -59 -77 -194t-109 -260h-113zM819 844q-2 129 -27.5 263t-17.5 191q14 80 70.5 127.5t130.5 47.5t114.5 -47.5t26.5 -127.5q-8 -59 -75.5 -193t-108.5 -261h-113z" />
    <glyph glyph-name="numbersign" unicode="#" horiz-adv-x="1882" 
d="M326 0l188 383h-262l20 129h308l206 410h-274l23 129h317l190 383h181l-189 -383h285l190 383h183l-193 -383h264l-20 -129h-309l-205 -410h272l-18 -129h-322l-188 -383h-180l188 383h-287l-188 -383h-180zM762 512h285l204 410h-284z" />
    <glyph glyph-name="dollar" unicode="$" horiz-adv-x="1540" 
d="M952 1335q-100 0 -177 -53t-89 -131q-14 -92 60.5 -143.5t240.5 -102.5q84 -25 140.5 -46t123 -59t103.5 -83t55 -116t4 -157q-31 -203 -206 -331.5t-419 -147.5l-49 -317h-157l51 315q-266 12 -389 105.5t-103 212.5q8 59 57.5 101t114.5 42q63 0 95 -34t44.5 -82
t31 -96t79 -82t164.5 -34q113 0 196 56.5t97 142.5q16 100 -63.5 160.5t-247.5 113.5q-100 33 -166 65t-132.5 86t-92 135t-9.5 187q29 182 182.5 292t378.5 132l41 267h158l-43 -263q197 -8 322 -84.5t106 -193.5q-10 -61 -51 -97t-105 -36q-51 0 -78.5 28.5t-39 68.5
t-28.5 81t-66.5 69.5t-133.5 28.5z" />
    <glyph glyph-name="percent" unicode="%" horiz-adv-x="1751" 
d="M457 682q-178 0 -274.5 110.5t-71.5 284.5q29 176 157.5 286t309.5 110q178 0 272 -111t65 -287q-27 -172 -153.5 -282.5t-304.5 -110.5zM420 0l850 1434h143l-848 -1434h-145zM477.5 819q67.5 0 116.5 67.5t68 188.5q20 123 -9.5 190.5t-97.5 67.5t-118 -66.5
t-70 -189.5q-18 -121 12.5 -189.5t98 -68.5zM1255.5 -41q-178.5 0 -273.5 111.5t-69 285.5q29 176 156 285t309 109q178 0 272.5 -111t67.5 -285q-29 -174 -156.5 -284.5t-306 -110.5zM1275.5 96q67.5 0 118 68.5t68.5 189.5q20 121 -9.5 189.5t-97 68.5t-117.5 -67.5
t-71 -190.5q-18 -121 11.5 -189.5t97 -68.5z" />
    <glyph glyph-name="ampersand" unicode="&#x26;" horiz-adv-x="1861" 
d="M1886 326q2 -168 -124 -266.5t-322 -98.5q-221 0 -348 117q-233 -117 -496 -117q-283 0 -418 143.5t-108 323.5q27 168 142.5 296t287.5 185l2 15q-121 84 -96 243q20 145 142 225.5t306 80.5q182 0 280.5 -81t75.5 -227q-31 -207 -256 -280l-2 -17q66 -29 117 -76
t88 -111.5t58.5 -115.5t48.5 -129q82 123 104 273q23 152 -141 190l28 82h508l6 -82q-68 -14 -126 -63.5t-70 -133.5q-39 -260 -240 -454q66 -133 166 -133q53 0 92 32.5t39 85.5q0 39 -41 94.5t-41 102.5q-2 53 39 89t105 36q94 0 144 -66.5t50 -162.5zM657 1155
q-12 -86 21 -134t100.5 -48t114.5 49t59 133q14 86 -18.5 135t-100 49t-115 -49t-61.5 -135zM442 451q-18 -117 52.5 -208t220.5 -91q141 0 276 59q-41 80 -79 212t-76.5 232.5t-100.5 149.5q-262 -151 -293 -354z" />
    <glyph glyph-name="quotesingle" unicode="'" horiz-adv-x="763" 
d="M383 844q-2 127 -26.5 262t-16.5 192q14 80 70.5 127.5t128.5 47.5q74 0 115.5 -47.5t27.5 -127.5q-8 -59 -76.5 -194t-109.5 -260h-113z" />
    <glyph glyph-name="parenleft" unicode="(" horiz-adv-x="866" 
d="M645 -436q-119 68 -212 154.5t-168 204.5t-102.5 274.5t1.5 335t104.5 335t186 274.5t232.5 206t261 155l45 -67q-190 -125 -335.5 -369t-190.5 -535q-47 -291 23.5 -530.5t222.5 -370.5z" />
    <glyph glyph-name="parenright" unicode=")" horiz-adv-x="866" 
d="M-29 -436l-41 67q190 131 334 371t191 530q45 293 -25 536t-219 368l68 67q119 -68 212 -155.5t166.5 -205.5t101 -274.5t-1 -335t-104 -335t-186.5 -274.5t-233 -204.5t-263 -154.5z" />
    <glyph glyph-name="asterisk" unicode="*" horiz-adv-x="1142" 
d="M328 590q-35 27 -36 71t36 87q25 29 102.5 83t120.5 91l-6 51q-45 4 -103.5 4t-95.5 3t-63 11q-47 14 -60.5 55t6.5 87q25 45 67 66.5t89 6.5q35 -12 102.5 -63t102.5 -74l49 31q-2 51 -16.5 137t-8.5 121q8 53 46 84t85.5 31t76 -31t20.5 -82q-6 -37 -45 -123t-58 -139
l37 -31q49 27 131 79t119 64q51 16 87 -4t46 -67q6 -45 -19.5 -85t-76.5 -57q-29 -8 -67 -11t-96 -5t-107 -6l-23 -51q29 -29 95.5 -85.5t84.5 -86.5q23 -43 8.5 -86t-59.5 -72q-39 -29 -83 -21.5t-68 48.5q-16 29 -35 113.5t-33 129.5l-53 -2q-27 -45 -69 -130t-69 -116
q-37 -43 -82.5 -49t-78.5 23z" />
    <glyph glyph-name="plus" unicode="+" horiz-adv-x="1349" 
d="M571 154l76 497h-491l22 133h492l78 496h147l-78 -496h496l-23 -133h-495l-76 -497h-148z" />
    <glyph glyph-name="comma" unicode="," horiz-adv-x="798" 
d="M463 352q102 0 156.5 -72.5t33.5 -195.5q-25 -160 -145.5 -305.5t-286.5 -224.5l-55 106q186 115 276 313l-6 9q-37 -23 -67 -23q-84 0 -133.5 55.5t-34.5 143.5q14 86 90 140t172 54z" />
    <glyph glyph-name="hyphen" unicode="-" horiz-adv-x="704" 
d="M68 446l38 246h605l-39 -246h-604z" />
    <glyph glyph-name="period" unicode="." horiz-adv-x="739" 
d="M346 -41q-90 0 -144.5 60.5t-40 154.5t88.5 154.5t164 60.5q92 0 145 -60.5t39 -154.5t-88 -154.5t-164 -60.5z" />
    <glyph glyph-name="slash" unicode="/" horiz-adv-x="1003" 
d="M37 -446l899 1941h145l-901 -1941h-143z" />
    <glyph glyph-name="zero" unicode="0" horiz-adv-x="1349" 
d="M622.5 -41q-280.5 0 -408.5 200.5t-71 559.5q57 356 249 555t472.5 199t407.5 -198t69.5 -556.5t-248 -559t-471 -200.5zM647 117q111 0 181.5 142t121.5 460q49 317 23.5 457.5t-135.5 140.5q-109 0 -180.5 -141.5t-120.5 -456.5q-49 -317 -24 -459.5t134 -142.5z" />
    <glyph glyph-name="one" unicode="1" horiz-adv-x="1261" 
d="M242 0l-4 80q160 45 180 178l139 879h-143l-2 96l462 201h113l-184 -1176q-20 -135 121 -178l-29 -80h-653z" />
    <glyph glyph-name="two" unicode="2" horiz-adv-x="1343" 
d="M1284 1053q-20 -129 -89 -243t-180.5 -207t-226 -163.5t-268.5 -144.5l-2 -8h123q123 0 218 17.5t157.5 52t88 55t62.5 57.5l80 -39l-198 -430h-914l33 205q150 98 253 178t213.5 187.5t178.5 228.5t88 254q18 123 -33 195.5t-153 72.5q-111 0 -208 -93t-126 -257
l-123 16q37 223 201 354.5t387 131.5q219 0 344 -112.5t94 -307.5z" />
    <glyph glyph-name="three" unicode="3" horiz-adv-x="1304" 
d="M524 -39q-174 0 -304 69.5t-109 194.5q12 70 57 113t113 43q57 0 88.5 -27.5t42 -67.5t20.5 -80t37 -67.5t78 -27.5q109 0 185.5 79.5t96.5 221.5q25 147 -37.5 235t-201.5 88h-53l20 129h51q98 0 167 71t85 173q16 94 -34 152.5t-148 58.5t-177 -71.5t-110 -203.5
l-110 13q47 190 196.5 303t360.5 113q205 0 310 -92.5t83 -235.5q-16 -102 -89 -181t-196 -122l-2 -13q141 -31 219 -131t56 -241q-33 -215 -218.5 -355.5t-476.5 -140.5z" />
    <glyph glyph-name="four" unicode="4" horiz-adv-x="1290" 
d="M1044 340l-12 -84q-20 -131 121 -176l-29 -80h-653l-4 80q160 47 180 178l12 82h-553l-16 106l852 992h275l-150 -953h227l-61 -145h-189zM297 485h387l84 537h-14l-457 -528v-9z" />
    <glyph glyph-name="five" unicode="5" horiz-adv-x="1351" 
d="M766 938q254 0 378 -127t93 -330q-37 -227 -216 -373.5t-458 -146.5q-106 0 -200.5 26.5t-156 87t-46.5 146.5q10 68 57 110t107 42q66 0 97.5 -27t39.5 -63.5t19.5 -74.5t50 -64.5t112.5 -26.5q119 0 200 68.5t99 187.5q18 117 -62.5 196.5t-240.5 79.5q-164 0 -299 -78
l-90 25l133 838h879l-86 -289l-689 2l-43 -268q132 59 322 59z" />
    <glyph glyph-name="six" unicode="6" horiz-adv-x="1312" 
d="M915 940q217 0 307.5 -138t59.5 -343q-33 -213 -216 -355.5t-431 -142.5q-256 0 -381 177t-78 478q33 213 131.5 380t241.5 269.5t317 155t371 52.5l-18 -121q-182 0 -341 -127t-253 -383h10q45 41 122.5 69.5t157.5 28.5zM893 459q47 297 -139 297q-45 0 -98.5 -30
t-88.5 -81l-18 -104q-39 -229 -14.5 -336t122.5 -107q179 1 236 361z" />
    <glyph glyph-name="seven" unicode="7" horiz-adv-x="1269" 
d="M383 1434h911l-30 -197q-139 -150 -222.5 -249t-169.5 -231t-136 -273.5t-77 -311.5q-16 -109 -82.5 -161t-150.5 -52q-88 0 -133 61.5t-31 151.5q23 141 99.5 285.5t186 268.5t222.5 224.5t234 184.5l2 10h-215q-100 0 -185.5 -15.5t-133.5 -32t-100.5 -51t-64.5 -47
t-47 -45.5l-78 41z" />
    <glyph glyph-name="eight" unicode="8" horiz-adv-x="1388" 
d="M614 -41q-242 0 -372.5 114.5t-106.5 278.5q41 246 311 377l3 10q-82 63 -118 140t-18 200q27 164 194 280t400 116q225 0 337 -101.5t89 -238.5q-37 -227 -268 -338l-2 -9q61 -37 98 -67.5t73 -76.5t47 -108.5t-1 -140.5q-31 -193 -214.5 -314.5t-451.5 -121.5zM891 889
q176 92 203 252q12 86 -29 136t-135 50q-88 0 -146.5 -43t-70.5 -123q-25 -155 178 -272zM618 106q109 0 178.5 52.5t84.5 142.5q10 61 -7.5 112.5t-66.5 93.5t-89 66.5t-116 65.5q-182 -109 -207 -289q-18 -109 43 -176.5t180 -67.5z" />
    <glyph glyph-name="nine" unicode="9" horiz-adv-x="1282" 
d="M793 1473q256 0 380.5 -177.5t75.5 -478.5q-45 -283 -200.5 -480.5t-373.5 -287.5t-485 -90l19 121q182 0 342 128t252 384h-8q-47 -41 -125 -69.5t-160 -28.5q-215 0 -306 139t-59 342q35 213 217.5 355.5t430.5 142.5zM674 678q45 0 98 30.5t88 82.5l19 102
q39 229 14 335.5t-125 106.5q-176 0 -233 -360q-47 -297 139 -297z" />
    <glyph glyph-name="colon" unicode=":" horiz-adv-x="751" 
d="M449 623q-90 0 -143.5 59t-39.5 156q14 94 87 153.5t165 59.5q90 0 144.5 -59.5t39.5 -153.5q-14 -96 -87.5 -155.5t-165.5 -59.5zM346 -41q-90 0 -144.5 60.5t-40 154.5t87.5 154.5t165 60.5t145 -60.5t39 -154.5t-88 -154.5t-164 -60.5z" />
    <glyph glyph-name="semicolon" unicode=";" horiz-adv-x="792" 
d="M561 1051q90 0 143.5 -59.5t38.5 -153.5q-14 -96 -86.5 -155.5t-164.5 -59.5q-90 0 -143.5 59t-39.5 156q12 94 85 153.5t167 59.5zM463 352q102 0 156.5 -72.5t33.5 -195.5q-25 -160 -145.5 -305.5t-286.5 -224.5l-55 106q186 115 276 313l-6 9q-37 -23 -67 -23
q-84 0 -133.5 55.5t-34.5 143.5q14 86 90 140t172 54z" />
    <glyph glyph-name="less" unicode="&#x3c;" horiz-adv-x="1327" 
d="M1126 184l-976 432l24 146l1112 430l-22 -143l-918 -357v-8l803 -354z" />
    <glyph glyph-name="equal" unicode="=" horiz-adv-x="1361" 
d="M219 852l21 133h1085l-20 -133h-1086zM156 449l20 131h1086l-21 -131h-1085z" />
    <glyph glyph-name="greater" unicode="&#x3e;" horiz-adv-x="1327" 
d="M156 184l22 146l918 354v8l-803 357l22 143l977 -430l-24 -146z" />
    <glyph glyph-name="question" unicode="?" horiz-adv-x="1183" 
d="M334 508l57 377h92q61 0 101.5 1t109 5t114.5 14t93 26.5t70.5 44.5t23.5 64q-2 102 -94 191.5t-217 89.5q-53 0 -88 -23.5t-54.5 -56.5t-40 -65.5t-57 -56t-94.5 -23.5q-61 0 -105 45t-44 106q-2 106 101.5 167t268.5 61q229 0 428 -153t201 -331q0 -92 -43 -160.5
t-107.5 -106.5t-157.5 -60.5t-171 -29.5t-172 -7l-17 -119h-198zM356 -39q-90 0 -144 60.5t-40 154.5t87 154.5t163 60.5q92 0 145.5 -60.5t39 -154.5t-86.5 -154.5t-164 -60.5z" />
    <glyph glyph-name="at" unicode="@" horiz-adv-x="2029" 
d="M1016 -362q-193 0 -354.5 54t-279.5 159.5t-174 275.5t-32 385q29 258 194 468t405.5 322.5t496.5 112.5q356 0 563 -186.5t172 -513.5q-31 -279 -219.5 -453t-429.5 -174q-172 0 -205 154h-10q-57 -70 -148.5 -112t-181.5 -42q-184 0 -267 133t-7 336
q72 199 231.5 313.5t357.5 114.5q84 0 144.5 -33.5t83.5 -89.5h12l86 123h262l-237 -629q-16 -41 -4 -72.5t55 -31.5q109 0 219.5 135t132.5 328q23 195 -59 330t-227.5 195t-335.5 60q-223 0 -430 -94t-352.5 -278.5t-172.5 -415.5q-39 -367 166 -564.5t559 -197.5
q164 0 320 55l20 -110q-168 -57 -354 -57zM958 242q129 0 201 139l141 369q-4 37 -38.5 60.5t-83.5 23.5q-197 0 -308 -297q-57 -162 -35.5 -228.5t123.5 -66.5z" />
    <glyph glyph-name="A" unicode="A" horiz-adv-x="1441" 
d="M1288 258q33 -145 144 -178l-31 -80h-584l-2 80q98 33 64 178l-17 74h-520l-43 -74q-86 -145 0 -178l-31 -80h-327l-2 80q123 31 206 178l517 893q-27 45 -101 76l27 80q240 57 401 172h19zM434 494h391l-106 477h-10z" />
    <glyph glyph-name="B" unicode="B" horiz-adv-x="1470" 
d="M1483 1083q-18 -111 -103.5 -195.5t-210.5 -119.5l-2 -10q154 -35 236 -135.5t57 -241.5q-33 -193 -195.5 -304.5t-390.5 -111.5q-123 0 -293.5 17.5t-310.5 17.5h-233l-4 80q113 31 137 178l162 916q27 150 -74 180l31 80h821q188 0 294 -99.5t79 -251.5zM903 1280
q-96 0 -168 -10l-78 -434h168q102 0 178 64.5t93 162.5q18 96 -33 156.5t-160 60.5zM1083 416q23 127 -52 197.5t-200 70.5h-200l-90 -510q111 -31 211 -31q145 0 228 77t103 196z" />
    <glyph glyph-name="C" unicode="C" horiz-adv-x="1447" 
d="M723 -41q-319 0 -476 233.5t-97 567.5q53 311 292.5 512t558.5 201q225 0 364.5 -110t113.5 -269q-14 -78 -65.5 -133.5t-127.5 -55.5q-84 0 -122 43t-42 103.5t-7 121t-39 103.5t-118 43q-129 0 -244.5 -159t-156.5 -396q-113 -649 285 -649q242 0 436 340l104 -62
q-80 -197 -244.5 -315.5t-414.5 -118.5z" />
    <glyph glyph-name="D" unicode="D" horiz-adv-x="1531" 
d="M889 1434q213 0 373.5 -96.5t233.5 -269.5t36 -386q-61 -352 -288.5 -517t-555.5 -165h-680l-2 80q111 31 137 178l162 916q25 150 -74 180l31 80h627zM1139 612q27 119 14.5 238t-49.5 214t-121 154.5t-203 59.5q-20 0 -73 -4l-193 -1104q86 -16 180 -16q182 0 297 134
t148 324z" />
    <glyph glyph-name="E" unicode="E" horiz-adv-x="1363" 
d="M686 711q-43 0 -84 -31l-88 -504q139 -23 227 -22q92 0 180.5 27.5t150 67.5t109.5 80t72 68l23 27l76 -39l-148 -424h-28q-27 16 -124.5 27.5t-166.5 11.5h-877l-2 80q111 31 137 178l162 916q25 150 -74 180l31 80h1088l53 -361l-88 -29q-2 10 -8.5 25.5t-36 55.5
t-70.5 71t-123 56.5t-184 25.5q-82 0 -188 -18l-68 -386l6 -2q90 70 180 70q84 0 191.5 -66.5t169 -66.5t119.5 53l55 -61q-135 -221 -320 -221q-68 0 -182.5 65.5t-169.5 65.5z" />
    <glyph glyph-name="F" unicode="F" horiz-adv-x="1294" 
d="M1174 764q61 0 114 53l53 -61q-41 -106 -121.5 -163.5t-185.5 -57.5q-76 0 -182.5 65.5t-171.5 65.5q-45 0 -86 -37l-66 -371q-27 -147 74 -178l-31 -80h-561l-4 80q111 31 137 178l162 916q25 150 -74 180l31 80h1088l55 -361l-88 -29q-2 10 -8 25.5t-36 55.5t-72 71
t-124 56.5t-184 25.5q-106 0 -186 -8l-78 -443l8 -4q80 74 174 74q82 0 193 -66.5t170 -66.5z" />
    <glyph glyph-name="G" unicode="G" horiz-adv-x="1499" 
d="M1540 748l2 -80q-113 -31 -137 -179l-86 -489h-92l-74 117h-4q-158 -158 -426 -158q-213 0 -359.5 114.5t-199.5 296t-17 390.5q53 311 292 512t558 201q225 0 365.5 -110t112.5 -269q-12 -78 -63.5 -133.5t-129.5 -55.5q-84 0 -121 43t-41 103.5t-7 121t-39 103.5
t-118 43q-129 0 -244.5 -159t-156.5 -396q-55 -309 20.5 -479t247.5 -170q74 0 142 37l59 337q14 78 -10.5 119t-89.5 60l30 80h586z" />
    <glyph glyph-name="H" unicode="H" horiz-adv-x="1617" 
d="M1731 1434l2 -80q-111 -31 -136 -180l-161 -916q-29 -147 73 -178l-30 -80h-564l-2 80q51 14 88 60t50 118l67 379h-524l-66 -379q-29 -147 74 -178l-31 -80h-563l-2 80q111 31 137 178l160 916q27 150 -74 180l31 80h563l2 -80q-113 -31 -137 -180l-63 -359h524l63 359
q27 150 -73 180l30 80h562z" />
    <glyph glyph-name="I" unicode="I" horiz-adv-x="708" 
d="M10 0l-4 80q111 31 137 178l162 916q25 150 -74 180l31 80h563l2 -80q-113 -31 -137 -180l-162 -916q-27 -147 74 -178l-31 -80h-561z" />
    <glyph glyph-name="J" unicode="J" horiz-adv-x="667" 
d="M-178 -471q-172 0 -246 63.5t-57 161.5q14 70 68.5 114t121.5 44q66 0 100.5 -32t41 -69.5t20.5 -69.5t43 -32q51 0 86 67.5t61 213.5l207 1184q27 150 -71 180l28 80h563l3 -80q-111 -31 -136 -180l-194 -1102q-27 -147 -90.5 -256t-152.5 -170.5t-187 -89t-209 -27.5z
" />
    <glyph glyph-name="K" unicode="K" horiz-adv-x="1679" 
d="M1473 1473q150 0 223 -59.5t63 -166.5q-6 -82 -57 -126t-113 -44q-92 0 -176 57.5t-141 57.5q-100 0 -260 -168l411 -766q84 -154 183 -178l-29 -80h-633l-2 80q43 14 53.5 58t-24.5 120l-226 406h-10q-98 -147 -190 -312l-17 -94q-27 -147 74 -178l-31 -80h-561l-4 80
q111 31 137 178l162 916q25 150 -74 180l31 80h563l2 -80q-113 -31 -137 -180l-67 -381h8q215 315 431 497.5t411 182.5z" />
    <glyph glyph-name="L" unicode="L" horiz-adv-x="1341" 
d="M1311 424l75 -39l-145 -424h-29q-27 16 -125 27.5t-167 11.5h-910l-4 80q111 31 137 178l162 916q25 150 -74 180l31 80h563l2 -80q-113 -31 -137 -180l-176 -992q147 -29 262 -28q92 0 181.5 27.5t149.5 67.5t108.5 80t70.5 68z" />
    <glyph glyph-name="M" unicode="M" horiz-adv-x="1714" 
d="M727 -41q-102 0 -158.5 55.5t-56.5 155.5q0 195 221 465q-68 248 -168 397h-8l-235 -774q-43 -147 51 -178l-31 -80h-342l-2 80q111 31 158 178l276 916q43 150 -49 180l31 80h334q84 -80 164.5 -222.5t113.5 -263.5h8q260 311 445 486h360l2 -80q-104 -31 -112 -180
l-48 -916q-6 -147 97 -178l-31 -80h-557l-2 80q104 31 112 178l41 823h-8q-76 -78 -268 -305q23 -129 22 -252q0 -231 -106.5 -398t-253.5 -167zM717 102q72 0 71 170q0 72 -12 148h-8q-92 -145 -92 -250q0 -68 41 -68z" />
    <glyph glyph-name="N" unicode="N" horiz-adv-x="1488" 
d="M1608 1434l2 -80q-111 -31 -137 -180l-207 -1174h-185q-14 106 -72.5 201.5t-138 173.5t-161.5 155.5t-162 182t-123 219.5h-10l-119 -674q-25 -147 76 -178l-31 -80h-334l-2 80q113 31 137 178l162 916q25 150 -76 180l31 80h322q53 -127 127.5 -240t145.5 -189.5
t137.5 -148.5t122.5 -148.5t85 -156.5h8l111 623q25 150 -74 180l31 80h334z" />
    <glyph glyph-name="O" unicode="O" horiz-adv-x="1591" 
d="M737 -41q-190 0 -338.5 92t-219 266.5t-34.5 391.5q59 342 295 553t561 211q297 0 471.5 -217.5t114.5 -548.5q-57 -332 -299 -540t-551 -208zM764 115q139 0 265 172t171 434q47 264 -18.5 430t-206.5 166q-139 0 -264 -165t-172 -429q-47 -266 15.5 -437t209.5 -171z
" />
    <glyph glyph-name="P" unicode="P" horiz-adv-x="1542" 
d="M1081 1434q266 0 409.5 -143.5t106.5 -354.5q-39 -219 -239.5 -370.5t-517.5 -151.5q-160 0 -279 28l-33 -184q-27 -147 74 -178l-31 -80h-563l-2 80q111 31 137 178l162 916q25 150 -74 180l31 80h819zM1208 934q25 139 -67 241.5t-244 102.5q-106 0 -192 -16l-115 -654
q94 -33 209 -33q174 0 279 108t130 251z" />
    <glyph glyph-name="Q" unicode="Q" horiz-adv-x="1658" 
d="M1251 -471q-68 0 -132 17.5t-113.5 38t-108.5 65.5t-91 72.5t-86 90t-72.5 84t-69.5 87.5q-141 -25 -248 -25q-170 0 -270.5 64.5t-100.5 185.5q0 115 96.5 176t231.5 61q131 0 234.5 -58t209.5 -169q100 57 177 115.5t149.5 139.5t111.5 184.5t39 224.5
q0 190 -110.5 313t-315.5 123q-203 0 -348 -122t-145 -300q0 -131 68.5 -211t193.5 -80q72 0 115 36t43 85q0 33 -25 59.5t-53.5 44t-53 52.5t-24.5 82q0 66 51 114.5t146 48.5q96 0 162.5 -74.5t66.5 -195.5q0 -172 -125 -280.5t-293 -108.5q-195 0 -320.5 115.5
t-125.5 312.5q0 244 214 410t529 166q377 0 575.5 -163t198.5 -442q0 -528 -760 -815v-8q23 -27 73 -94.5t77 -101t67.5 -77.5t73.5 -63.5t64 -19.5q51 0 81.5 25.5t46 61.5t33 72.5t55.5 62.5t99 26q66 0 103.5 -43.5t37.5 -96.5q0 -123 -124 -195.5t-308 -72.5zM330 102
q41 0 139 17v8q-70 90 -125 138t-113 48q-53 0 -84.5 -25.5t-31.5 -70.5q0 -115 215 -115z" />
    <glyph glyph-name="R" unicode="R" horiz-adv-x="1593" 
d="M1597 1020q-53 -297 -419 -389l-2 -15q59 -6 100 -25.5t63.5 -41t38 -68.5t21.5 -76.5t14 -95.5q6 -55 9 -74.5t13.5 -56.5t26 -50t44 -23.5t69.5 -8.5l-6 -90q-143 -43 -258 -43q-57 0 -100.5 8.5t-97.5 33t-88 83.5t-42 150q-10 115 -22.5 175t-45 105t-88 59.5
t-151.5 14.5h-88l-60 -334q-27 -147 74 -178l-31 -80h-563l-2 80q111 31 137 178l162 916q25 150 -74 180l31 80h793q276 0 425.5 -110.5t116.5 -303.5zM891 1278q-96 0 -186 -14l-89 -508h203q342 0 385 250q23 127 -62 199.5t-251 72.5z" />
    <glyph glyph-name="S" unicode="S" 
d="M688 -39q-283 0 -449.5 113.5t-140.5 261.5q29 150 185 149q76 0 121 -37.5t65 -93t43 -110t77 -92t146 -37.5q207 0 238 159q20 104 -59.5 166t-247.5 119q-201 70 -320 196t-88 302q35 190 213 303t438 113q258 0 418 -116t131 -259q-12 -70 -60 -111t-128 -41t-123 38
t-58.5 93.5t-30 110.5t-58.5 93t-126 38q-96 0 -154 -48t-73 -126q-10 -57 1 -98t56.5 -73t77 -47.5t113.5 -45.5q121 -45 185.5 -76t151.5 -92.5t116.5 -148.5t9.5 -199q-35 -195 -224.5 -299.5t-445.5 -104.5z" />
    <glyph glyph-name="T" unicode="T" horiz-adv-x="1462" 
d="M1511 1473l50 -437l-91 -39q-4 10 -12 28.5t-42 65t-76 82t-113.5 68.5t-153.5 39l-180 -1020q-25 -150 74 -180l-31 -80h-563l-2 80q113 31 137 180l180 1020q-86 -6 -169 -37t-140 -70.5t-102.5 -79.5t-67.5 -69l-23 -27l-75 39l202 437h29q29 -16 122 -27.5t163 -11.5
h559q68 0 165 11t132 28h28z" />
    <glyph glyph-name="U" unicode="U" 
d="M686 -39q-274 0 -410.5 141.5t-82.5 440.5l114 631q25 150 -74 180l31 80h563l4 -80q-113 -31 -139 -180l-112 -629q-37 -211 27.5 -319.5t215.5 -108.5q319 0 394 428l110 629q25 150 -76 180l33 80h334l2 -82q-111 -27 -137 -178l-111 -631q-49 -283 -229.5 -432.5
t-456.5 -149.5z" />
    <glyph glyph-name="V" unicode="V" horiz-adv-x="1378" 
d="M1575 1434l2 -80q-121 -31 -193 -178l-534 -1049q12 -43 41 -84l-19 -43q-186 12 -391 -39h-18l-195 1215q-25 147 -131 178l31 80h586l2 -80q-100 -31 -80 -178l131 -805h10l412 805q76 145 -15 178l31 80h330z" />
    <glyph glyph-name="W" unicode="W" horiz-adv-x="2129" 
d="M2306 1434l4 -80q-119 -33 -186 -178l-506 -1070q18 -39 33 -61l-25 -43q-283 0 -405 -41h-33l-64 784h-10l-315 -632q12 -35 35 -70l-23 -43q-197 12 -403 -39h-19l-115 1215q-16 147 -120 178l39 80h587l-4 -80q-45 -14 -70.5 -60.5t-17.5 -117.5l78 -805h8l326 655
q-6 104 -29 148q-16 31 -43 61l39 82q238 55 401 164h19l88 -1110h14l381 805q70 145 -20 178l26 80h330z" />
    <glyph glyph-name="X" unicode="X" horiz-adv-x="1419" 
d="M1559 1354q-104 -27 -226 -180l-346 -426l221 -488q66 -156 164 -180l-31 -80h-620l-2 80q45 14 60.5 59t-13.5 121l-148 326h-18l-266 -326q-55 -70 -55 -118t40 -62l-30 -80h-348l-4 80q104 25 225 180l387 479l-199 435q-66 156 -162 180l31 80h621l2 -80
q-45 -14 -60.5 -59.5t13.5 -120.5l125 -277v2h16l225 275q37 47 49.5 85.5t3 61t-35.5 33.5l30 80h348z" />
    <glyph glyph-name="Y" unicode="Y" horiz-adv-x="1388" 
d="M344 0l-2 80q113 31 137 180l70 404l-227 510q-66 154 -164 180l30 80h621l2 -80q-45 -14 -60.5 -59.5t13.5 -120.5l143 -312h15l254 312q37 47 49 85.5t3 61t-36 33.5l31 80h348l2 -80q-104 -27 -225 -180l-412 -512l-72 -402q-25 -150 74 -180l-31 -80h-563z" />
    <glyph glyph-name="Z" unicode="Z" horiz-adv-x="1513" 
d="M961 -227q-111 0 -243 35.5t-234.5 77.5t-233.5 78t-242 36v90l1088 1192h-260q-92 0 -182.5 -30.5t-153 -73.5t-111.5 -86t-74 -74l-22 -31l-76 39l176 447h31q27 -16 121 -27.5t164 -11.5h874v-91l-1079 -1183q104 -20 198.5 -82t171 -111t150.5 -49q137 0 137 80
q0 33 -41 96.5t-41 118.5q0 66 48.5 112t123.5 46q78 0 134.5 -60.5t56.5 -142.5q0 -164 -134 -279.5t-347 -115.5z" />
    <glyph glyph-name="bracketleft" unicode="[" horiz-adv-x="933" 
d="M88 -414l293 1878h575l-18 -110h-299l-260 -1657h301l-16 -111h-576z" />
    <glyph glyph-name="backslash" unicode="\" horiz-adv-x="462" 
d="M383 -446l-350 1941h145l350 -1941h-145z" />
    <glyph glyph-name="bracketright" unicode="]" horiz-adv-x="935" 
d="M47 -414l16 111h299l259 1657h-299l18 110h575l-294 -1878h-574z" />
    <glyph glyph-name="asciicircum" unicode="^" horiz-adv-x="1150" 
d="M168 821l510 613h135l317 -613h-135l-299 314l-393 -314h-135z" />
    <glyph glyph-name="underscore" unicode="_" horiz-adv-x="1112" 
d="M4 -193l19 113h1085l-18 -113h-1086z" />
    <glyph glyph-name="grave" unicode="`" horiz-adv-x="647" 
d="M571 1155l-258 184q-76 53 -63 129q6 39 40 68t77 29q72 0 127 -82l168 -264z" />
    <glyph glyph-name="a" unicode="a" horiz-adv-x="1308" 
d="M1231 104q18 0 55 17l14 -70q-115 -92 -274 -92q-92 0 -156.5 43t-60.5 152h-10q-53 -94 -143.5 -144.5t-186.5 -50.5q-174 0 -276.5 109.5t-102.5 324.5q0 270 178 493.5t428 223.5q76 0 149 -31.5t109 -91.5h11l24 82h363q-10 -23 -32 -76t-55.5 -172t-56.5 -241
l-53 -301q-33 -175 76 -175zM608 164q74 0 141.5 67.5t104.5 194.5l72 414q-51 82 -156 82q-109 0 -190.5 -85t-119.5 -200t-38 -231q0 -111 51 -176.5t135 -65.5z" />
    <glyph glyph-name="b" unicode="b" horiz-adv-x="1361" 
d="M950 1108q188 0 293 -126t105 -329q0 -283 -198 -488.5t-460 -205.5q-135 0 -217 44t-141 132h-10l-121 -135h-99l209 1171q12 72 -15.5 119t-74.5 60l31 82q281 39 436 182l29 -6l-119 -666h10q145 166 342 166zM664 117q152 0 257 185t105 382q0 104 -41 176t-129 72
q-102 0 -189 -98.5t-132 -241.5l-62 -344q62 -131 191 -131z" />
    <glyph glyph-name="c" unicode="c" horiz-adv-x="1191" 
d="M647 -41q-98 0 -183 22.5t-165 73.5t-124 152.5t-40 243.5q6 205 110.5 358.5t259 227t331.5 73.5q188 0 295.5 -83t103.5 -216q-2 -82 -49 -136t-129 -54q-68 0 -110 34.5t-42 98.5q0 10 9.5 49t9.5 53q0 45 -34 72.5t-95 27.5q-121 0 -218.5 -146t-103.5 -345
q-8 -147 68.5 -232.5t206.5 -85.5q199 0 407 261l59 -50q-66 -170 -219 -284.5t-348 -114.5z" />
    <glyph glyph-name="d" unicode="d" horiz-adv-x="1366" 
d="M1276 104q16 0 57 17l13 -70q-115 -92 -277 -92q-88 0 -150.5 40t-64.5 140h-10q-55 -84 -145.5 -132t-186.5 -48q-176 0 -277.5 109.5t-101.5 324.5q0 178 71.5 339t217 269.5t334.5 108.5q141 0 237 -84h13l26 145q12 70 -14.5 117t-75.5 62l31 80q283 43 436 184
l29 -8l-238 -1327q-14 -82 5.5 -128.5t70.5 -46.5zM649 164q74 0 143.5 62.5t104.5 183.5l78 442q-59 70 -156 70q-119 0 -203 -87t-117.5 -200t-33.5 -229q0 -109 51 -175.5t133 -66.5z" />
    <glyph glyph-name="e" unicode="e" horiz-adv-x="1140" 
d="M662 147q135 0 237 58.5t215 181.5l53 -51q-205 -377 -600 -377q-92 0 -174 23.5t-153.5 75t-113.5 145.5t-42 219q0 276 188.5 482t505.5 206q182 0 290 -68.5t108 -199.5q0 -94 -57.5 -165t-169 -116t-237.5 -73.5t-298 -49.5q2 -135 79 -213t169 -78zM748 956
q-96 0 -195.5 -109.5t-128.5 -283.5q188 27 317 104.5t129 176.5q0 49 -33.5 80.5t-88.5 31.5z" />
    <glyph glyph-name="f" unicode="f" horiz-adv-x="800" 
d="M858 1608q135 0 213 -49.5t76 -128.5q0 -61 -40 -100.5t-110 -39.5q-49 0 -77.5 25.5t-35.5 56.5t-24.5 56.5t-48.5 25.5q-39 0 -81 -93t-60 -237l-8 -55h256l-29 -164h-252l-100 -682q-45 -336 -238 -509t-508 -173q-86 0 -167 44t-79 118q0 61 42 102t108 41
q45 0 77.5 -23.5t48 -51t41 -51t54.5 -23.5q195 0 256 403l133 805h-180l31 164h176l4 27q45 242 168 377t354 135z" />
    <glyph glyph-name="g" unicode="g" horiz-adv-x="1355" 
d="M1245 1319q68 0 111 -33t43 -96q0 -57 -35 -94t-98 -37q-41 0 -84 31.5t-70 31.5q-49 0 -94 -69q209 -106 164 -357q-33 -184 -190.5 -296.5t-389.5 -112.5q-139 0 -242 43q-51 -6 -57 -41q-10 -47 70 -70q59 -18 346 -57q233 -33 329.5 -110t73.5 -206
q-23 -147 -200 -223t-430 -78q-90 0 -175.5 13.5t-168 44t-131 93t-46.5 146.5q2 57 41 104.5t101 69.5v9q-94 74 -74 196q14 72 72.5 119t136.5 57v4q-117 111 -84 299q33 184 191.5 297t389.5 113q84 0 162 -16q139 225 338 225zM879 696q23 125 -23.5 195t-136.5 70
q-94 0 -163 -71t-89 -190q-23 -123 23.5 -193.5t138.5 -70.5q94 0 162 71.5t88 188.5zM563 -111q-154 25 -268 54q-37 -2 -62.5 -30t-27.5 -67q-6 -68 83 -118t230 -47q137 0 210 31.5t73 74.5t-42 61t-196 41z" />
    <glyph glyph-name="h" unicode="h" horiz-adv-x="1288" 
d="M1348 121l10 -70q-117 -92 -262 -92q-45 0 -84 9t-77 33t-54.5 73t-3.5 119l106 499q23 100 -11 156.5t-114 56.5q-100 0 -190 -116.5t-123 -278.5q-25 -133 -37 -260t-12 -189l2 -61h-371l207 1171q14 70 -12.5 117t-75.5 62l30 80q283 43 437 184l26 -8l-127 -717v2h17
q150 217 387 217q170 0 255 -112.5t36 -327.5l-84 -389q-41 -174 67 -175q21 1 58 17z" />
    <glyph glyph-name="i" unicode="i" horiz-adv-x="602" 
d="M446 1176q-96 0 -151 58t-55 136t55 136.5t151 58.5q94 0 151.5 -58.5t57.5 -136.5t-57.5 -136t-151.5 -58zM348 -41q-98 0 -163.5 51t-47.5 183l84 481q12 72 -14.5 118t-75.5 60l31 82q289 45 438 184l27 -10l-148 -829q-14 -82 5.5 -128.5t68.5 -46.5q18 0 59 17
l13 -70q-115 -92 -277 -92z" />
    <glyph glyph-name="j" unicode="j" horiz-adv-x="663" 
d="M508 1176q-94 0 -150.5 58t-56.5 136t56.5 136.5t150.5 58.5q96 0 153.5 -58.5t57.5 -136.5t-57.5 -136t-153.5 -58zM-72 -455q-156 0 -235.5 58.5t-73.5 136.5q12 119 135 119q49 0 82 -24.5t47.5 -54.5t43 -54.5t69.5 -24.5q96 0 119 149l135 824q12 72 -14.5 118
t-75.5 60l30 82q285 45 439 182l28 -8l-202 -1139q-70 -424 -527 -424z" />
    <glyph glyph-name="k" unicode="k" horiz-adv-x="1337" 
d="M1329 190l39 -71q-147 -160 -350 -160q-170 0 -288 127t-159 336h-26q-66 -203 -64 -422h-379l207 1171q14 70 -12.5 117t-75.5 62l31 82q281 39 436 182l29 -8l-154 -858h15q125 188 277.5 276t291.5 88q96 0 155.5 -45t59.5 -123q0 -137 -131 -266t-330 -201
q55 -193 127 -267.5t164 -74.5q59 0 137 55zM922 838q-88 0 -176.5 -82t-153.5 -219q168 4 280.5 70.5t112.5 170.5q0 25 -16 42.5t-47 17.5z" />
    <glyph glyph-name="l" unicode="l" horiz-adv-x="669" 
d="M367 -41q-100 0 -166 51t-45 183l172 978q12 70 -14.5 117t-75.5 62l30 80q283 43 439 184l28 -8l-237 -1327q-16 -82 3 -128.5t70 -46.5q20 0 58 17l14 -70q-116 -92 -276 -92z" />
    <glyph glyph-name="m" unicode="m" horiz-adv-x="1896" 
d="M1937 121l11 -70q-117 -92 -262 -92q-45 0 -84 9t-77 33t-54.5 73t-4.5 119l109 499q49 213 -96 213q-88 0 -168 -116.5t-111 -282.5q-25 -131 -37 -257t-12 -188v-61h-369l123 692q20 100 0 156.5t-94 56.5q-90 0 -160.5 -113.5t-105.5 -281.5q-25 -133 -37 -260
t-12 -189l2 -61h-371l121 674q12 72 -15.5 119t-76.5 59l30 82q289 43 439 184l28 -10l-41 -217h15q84 119 163.5 168t192.5 49q223 0 256 -219h14q152 219 381 219q160 0 236 -112.5t28 -327.5l-88 -389q-35 -174 70 -175q16 1 57 17z" />
    <glyph glyph-name="n" unicode="n" horiz-adv-x="1304" 
d="M1348 121l8 -70q-117 -92 -279 -92q-98 0 -161.5 51t-38.5 183l104 499q23 98 -10 155.5t-113 57.5q-100 0 -191.5 -116.5t-121.5 -278.5q-27 -133 -38 -260t-11 -189l2 -61h-371l121 674q12 72 -15.5 119t-76.5 59l30 82q291 45 441 184l26 -10l-41 -217h15
q154 217 387 217q172 0 257 -112.5t36 -327.5l-86 -389q-39 -174 67 -175q19 1 60 17z" />
    <glyph glyph-name="o" unicode="o" horiz-adv-x="1249" 
d="M578 -41q-258 0 -389.5 163t-94.5 417q35 254 212 412.5t433 158.5t387 -161t95 -417q-35 -254 -212 -413.5t-431 -159.5zM600 115q104 0 183 116.5t106 300.5q27 186 -20.5 305t-152 119t-184 -116.5t-106.5 -300.5q-29 -184 19.5 -304t154.5 -120z" />
    <glyph glyph-name="p" unicode="p" horiz-adv-x="1357" 
d="M946 1110q190 0 292.5 -126t102.5 -331q0 -293 -192.5 -493.5t-437.5 -200.5q-176 0 -269 96h-12l-39 -215q-25 -147 76 -178l-31 -80h-508l-2 80q113 31 137 178l150 834q12 72 -15.5 119t-74.5 59l31 82q289 45 438 184l26 -10l-30 -166h14q149 168 344 168zM662 115
q102 0 187 93t129 223t44 253q0 104 -42 176t-130 72q-104 0 -195.5 -106.5t-132.5 -254.5l-57 -317q62 -139 197 -139z" />
    <glyph glyph-name="q" unicode="q" horiz-adv-x="1370" 
d="M1100 -160q-25 -147 74 -178l-31 -80h-504l-2 80q111 33 135 178l55 314h-10q-53 -92 -152.5 -143.5t-197.5 -51.5q-176 0 -279.5 109.5t-103.5 324.5q0 174 81 338t228.5 271.5t317.5 107.5q137 0 229 -55.5t137 -130.5h13l129 145h100zM879 434l71 400q-70 88 -172 88
q-109 0 -193.5 -86t-124.5 -202t-40 -228q0 -109 51 -175.5t133 -66.5q78 0 159 70.5t116 199.5z" />
    <glyph glyph-name="r" unicode="r" horiz-adv-x="1126" 
d="M981 1108q109 0 176.5 -66.5t50.5 -160.5q-14 -86 -71.5 -146.5t-137.5 -60.5q-68 0 -105.5 31.5t-46.5 68.5t-27.5 68.5t-53.5 31.5q-59 0 -132 -119.5t-104 -283.5q-20 -125 -30.5 -242.5t-7.5 -173.5v-55h-371l119 674q12 72 -14.5 118t-75.5 60l30 82q289 45 438 184
l29 -10l-41 -209h15q86 113 165.5 161t194.5 48z" />
    <glyph glyph-name="s" unicode="s" horiz-adv-x="1228" 
d="M569 -41q-211 0 -365.5 71.5t-152.5 186.5q2 59 40 93t102 34q59 0 98 -36t60.5 -79t76.5 -78.5t143 -35.5q117 0 179.5 40t66.5 103q2 20 -6 38.5t-26.5 32t-38 25t-50 20.5t-53 15t-57.5 15.5t-54 13.5q-74 20 -128 41.5t-110 59.5t-85 97.5t-27 135.5q4 154 150.5 256
t400.5 102q201 0 329 -65.5t126 -170.5q-4 -115 -123 -114q-51 0 -80 20.5t-43 48t-31.5 56t-60.5 49t-115 20.5q-102 0 -163.5 -33.5t-65.5 -91.5q-2 -31 19.5 -55t66.5 -39.5t76.5 -24t86 -17.5t60.5 -11q82 -16 140.5 -37.5t114.5 -58.5t84 -96.5t26 -141.5
q-2 -66 -34 -129t-97.5 -124.5t-189.5 -98.5t-290 -37z" />
    <glyph glyph-name="t" unicode="t" horiz-adv-x="794" 
d="M449 -41q-330 0 -273 309l111 639h-183l19 113q299 84 479 350h98l-53 -301h271l-29 -162h-271l-112 -647q-25 -145 86 -145q72 0 141 24l8 -131q-49 -18 -141 -33.5t-151 -15.5z" />
    <glyph glyph-name="u" unicode="u" horiz-adv-x="1288" 
d="M1321 121l14 -70q-115 -92 -276 -92q-98 0 -164 48t-51 171h-10q-84 -119 -169 -169t-198 -50q-176 0 -262 113.5t-33 328.5l96 392q39 172 -65 172q-29 0 -58 -17l-18 72q121 90 279 90q102 0 168.5 -50t39.5 -179l-118 -504q-27 -100 2.5 -156.5t111.5 -56.5
q102 0 186.5 116.5t118.5 290.5q27 133 38.5 257t9.5 184l-2 57h372l-143 -790q-33 -174 76 -175q18 1 55 17z" />
    <glyph glyph-name="v" unicode="v" horiz-adv-x="1415" 
d="M1249 1110q88 0 143.5 -66.5t49.5 -209.5q-8 -143 -61.5 -316.5t-157.5 -302.5q-203 -256 -506 -256q-186 0 -298 101.5t-106 246.5q10 254 283 438l-4 11l-166 2q-86 0 -147.5 -34t-63.5 -89q0 -25 14 -43l-65 -25q-49 74 -47 170q2 129 97 230.5t249 101.5h495l11 -18
q-256 -358 -293 -650q-14 -129 42 -205.5t154 -76.5q150 0 265 168q90 137 96 321q4 68 -12.5 112t-42 65.5t-51 40t-42 50t-14.5 78.5q4 68 55 112t123 44z" />
    <glyph glyph-name="w" unicode="w" horiz-adv-x="1959" 
d="M1784 1110q88 0 143 -66.5t51 -209.5q-2 -133 -51 -311.5t-143 -311.5q-170 -252 -418 -252q-88 0 -176 51t-127 148h-12q-68 -82 -168.5 -140.5t-216.5 -58.5q-176 0 -268.5 99.5t-86.5 248.5q12 256 283 438l-2 11l-166 2q-86 0 -147.5 -34t-63.5 -89q0 -25 14 -43
l-65 -25q-49 74 -47 170q2 129 97 230.5t249 101.5h495l11 -18l-15 -19q-16 -20 -31.5 -42.5t-40 -58.5t-47 -75t-48 -86t-47 -99.5t-40 -105.5t-30 -112.5t-13.5 -116.5q-6 -119 49.5 -168t124.5 -49q100 0 218 160.5t135 314.5q16 123 -10.5 212t-22.5 146q4 70 48 114
t116 44q51 0 88 -39t35 -88q-4 -80 -64.5 -236.5t-75.5 -300.5q-12 -147 31 -237t148 -90q141 0 223 155q82 141 78 334q2 63 -15.5 107.5t-44 66t-52.5 41t-44 51t-16 80.5q2 66 54 111t124 45z" />
    <glyph glyph-name="x" unicode="x" horiz-adv-x="1429" 
d="M1262 1110q98 0 170.5 -60.5t68.5 -152.5q-2 -80 -49 -127t-108.5 -47t-98.5 23.5t-47 52t-29.5 52t-52.5 23.5q-78 0 -172 -178q-14 -23 -63 -125l32 -84q127 -352 273 -352q63 0 133 55l47 -71q-129 -160 -332 -160q-135 0 -236.5 60.5t-181.5 224.5h-14
q-10 -18 -35 -54q-82 -135 -162.5 -185t-205.5 -50q-98 0 -172 60.5t-72 152.5q4 80 50 127t107.5 47t99.5 -23.5t49 -52t30.5 -52.5t50.5 -24q76 0 172 181q8 12 29 53l-107 250q-29 78 -102.5 124t-151.5 54l23 82q119 10 244.5 59t185.5 125l31 -10l141 -356h12
q31 66 70 125q82 135 164 184t209 49z" />
    <glyph glyph-name="y" unicode="y" horiz-adv-x="1284" 
d="M1122 1110q86 0 136.5 -55.5t46.5 -136.5q-12 -168 -116 -418t-214 -430q-55 -94 -117 -174q-256 -350 -530 -351q-90 0 -151.5 52.5t-57.5 124t56 116.5t126 45q57 0 94 -29.5t57.5 -58t39.5 -28.5q72 0 182 122q-57 317 -110.5 529.5t-101.5 322t-90 151.5t-91 42
q-66 0 -144 -53l-45 69q145 158 352 158q176 0 283 -181.5t193 -654.5h12v-2q125 225 131 394q0 37 -29.5 78.5t-59.5 96t-30 122.5q2 68 53 108.5t125 40.5z" />
    <glyph glyph-name="z" unicode="z" horiz-adv-x="1439" 
d="M158 -41q-29 0 -51.5 18.5t-24.5 49.5q-8 72 87 182t267 180l477 356v13q-72 25 -174 111.5t-159 86.5q-41 0 -68 -34.5t-41 -77.5t-51 -78t-94 -35q-53 0 -88 40t-35 97q0 102 89 172t245 70q143 0 326.5 -52t275.5 -52q53 0 113.5 32.5t84.5 71.5h23l53 -57
q-4 -47 -74.5 -123t-134 -128t-164.5 -128q-233 -180 -391 -289v-12q66 -33 118 -81t76.5 -85t65.5 -63.5t97 -26.5q53 0 82.5 31.5t29.5 72.5q0 25 -38 71t-38 99q0 68 44 118t116 50q78 0 128 -53t50 -133q0 -172 -112.5 -293t-306.5 -121q-133 0 -241 35t-188.5 68.5
t-146.5 33.5q-43 0 -74.5 -21.5t-46 -47t-42 -47t-64.5 -21.5z" />
    <glyph glyph-name="braceleft" unicode="{" horiz-adv-x="851" 
d="M633 -440q-63 0 -126 11t-126.5 39t-104 72t-60 108.5t6.5 152.5l86 319q25 90 -22 144.5t-152 54.5l21 135q104 0 169.5 55.5t69.5 145.5l13 319q4 104 58 182t137 120t167 61.5t166 19.5l-12 -90q-92 0 -162 -43t-72 -147l-12 -326q-6 -145 -101.5 -234.5
t-234.5 -126.5l-2 -8q129 -37 195.5 -125t27.5 -233l-90 -328q-29 -102 26.5 -145t145.5 -43z" />
    <glyph glyph-name="bar" unicode="|" horiz-adv-x="792" 
d="M229 -442l303 1927h142l-303 -1927h-142z" />
    <glyph glyph-name="braceright" unicode="}" horiz-adv-x="860" 
d="M-18 -440l14 90q92 0 160.5 43t72.5 145l13 328q6 145 100 234t233 124l3 8q-129 37 -196 125t-28 236l90 326q29 104 -25 147t-147 43l13 90q82 0 159.5 -19.5t147.5 -61.5t99.5 -119.5t0.5 -182.5l-84 -319q-27 -90 21.5 -145.5t152.5 -55.5l-20 -133
q-104 0 -170 -55.5t-70 -145.5l-14 -319q-4 -104 -58.5 -182t-137.5 -120t-166.5 -61.5t-163.5 -19.5z" />
    <glyph glyph-name="asciitilde" unicode="~" horiz-adv-x="1314" 
d="M858 549q-68 0 -130 25.5t-101 57.5t-86 57.5t-86 25.5q-55 0 -89 -30t-47 -110h-129q33 205 138.5 305.5t246.5 100.5q84 0 162 -42t139.5 -83t110.5 -41q55 0 88 29.5t45 109.5h121q-33 -207 -136.5 -306t-246.5 -99z" />
    <glyph glyph-name="uni00A0" unicode="&#xa0;" horiz-adv-x="716" 
 />
    <glyph glyph-name="exclamdown" unicode="&#xa1;" horiz-adv-x="825" 
d="M453 1042q-90 0 -144.5 60.5t-40 155t88 155t165.5 60.5q90 0 143.5 -60.5t39 -155t-87 -155t-164.5 -60.5zM287 -41q-92 0 -148.5 56.5t-36.5 185.5q16 104 106.5 308t133.5 417h193q-25 -213 2.5 -418t11.5 -307q-20 -129 -95 -185.5t-167 -56.5z" />
    <glyph glyph-name="cent" unicode="&#xa2;" horiz-adv-x="1357" 
d="M961 1229q152 -23 239.5 -109t71.5 -198q-8 -57 -60.5 -104.5t-109.5 -47.5q-70 0 -104.5 34t-44 83t-17.5 98t-39 83t-94 34q-84 0 -170 -88t-105 -203q-31 -201 54.5 -309.5t251.5 -108.5q94 0 184 52.5t143 132.5l56 -23q-45 -133 -152 -230.5t-266 -123.5l-31 -201
h-176l31 195q-199 20 -299.5 167.5t-69.5 348.5q35 215 182.5 353t349.5 165l31 205h176z" />
    <glyph glyph-name="sterling" unicode="&#xa3;" horiz-adv-x="1331" 
d="M1327 520q51 -35 78 -100.5t14 -138.5q-25 -162 -125 -242t-252 -80q-66 0 -136 32t-108 58.5t-120 91.5q-88 -92 -205 -136t-221 -44q-156 0 -230.5 69.5t-58.5 176.5q18 113 122.5 180.5t229.5 67.5q66 0 142 -11q0 27 -4 52.5t-12.5 54.5t-13.5 44t-17.5 49t-16.5 46
h-272l29 176h202q-4 70 8 152q35 221 213.5 338t419.5 117q207 0 322 -94.5t90 -241.5q-12 -86 -66.5 -141.5t-130.5 -55.5q-74 0 -108.5 35t-24.5 88q4 20 19.5 59t17.5 56q10 55 -26.5 96t-106.5 41q-96 0 -160.5 -80t-81.5 -188q-14 -94 6 -181h310l-27 -176h-225
q43 -131 26 -233q-6 -45 -30 -123q184 -78 268 -88q27 -4 53 -4q57 0 105.5 32.5t58.5 96.5q6 31 -7 55.5t-24 30.5zM250 137q131 0 184 158q-74 25 -139 24q-53 0 -96 -26.5t-49 -67.5q-6 -39 22.5 -63.5t77.5 -24.5z" />
    <glyph glyph-name="currency" unicode="&#xa4;" horiz-adv-x="1722" 
d="M1284 180l-162 195q-129 -74 -278 -74q-147 0 -252 74l-225 -193l-144 172l223 193q-53 113 -30 264q25 154 116 264l-163 197l196 170l164 -195q127 74 279 74q147 0 252 -74l225 195l147 -172l-227 -193q55 -119 31 -266q-20 -143 -117 -264l164 -195zM885 555
q106 0 194 76t105 180q16 106 -47.5 182t-169.5 76q-104 0 -193.5 -75.5t-105.5 -182.5q-16 -104 48.5 -180t168.5 -76z" />
    <glyph glyph-name="yen" unicode="&#xa5;" horiz-adv-x="1460" 
d="M1593 1434l4 -80q-102 -25 -223 -180l-287 -365h230l-25 -156h-321l-25 -157h322l-27 -160h-319l-13 -76q-25 -150 76 -180l-29 -80h-561l-4 80q109 31 133 180l13 76h-320l27 160h317l25 157h-318l25 156h227l-170 365q-74 156 -168 180l29 80h620l5 -80
q-45 -14 -60.5 -59.5t15.5 -120.5l151 -312h12l248 312q55 76 54 120.5t-42 59.5l31 80h348z" />
    <glyph glyph-name="brokenbar" unicode="&#xa6;" horiz-adv-x="792" 
d="M639 1260l-129 -838h-2l-102 -639h-142l133 835h2l99 642h141z" />
    <glyph glyph-name="section" unicode="&#xa7;" horiz-adv-x="1249" 
d="M727 1333q-80 0 -136 -41t-67 -102q-6 -33 18.5 -61.5t68.5 -49t88 -35t89 -26.5q16 -4 25 -6q176 -49 251 -128t54 -200q-18 -109 -123 -205q80 -76 60 -196q-20 -137 -169 -230.5t-333 -93.5q-188 0 -300 82t-95 186q8 49 46 84t93 35q47 0 74.5 -25.5t40 -62.5
t28 -72.5t55.5 -61.5t107 -26q80 0 135.5 40t65.5 106q6 35 -18.5 63.5t-76 50t-88 32.5t-92.5 26q-12 2 -16 4q-176 51 -251 129t-54 199q18 109 123 208q-80 80 -60 195q20 135 170 228.5t332 93.5q180 0 291 -82t92 -185q-8 -51 -47 -85t-94 -34q-49 0 -75 26t-36 61.5
t-22.5 71.5t-50 61.5t-103.5 25.5zM694 799q-158 39 -237 75q-18 -25 -25 -57q-10 -61 38 -109.5t161 -72.5q156 -39 235 -74q20 29 27 60q10 59 -38 105t-161 73z" />
    <glyph glyph-name="dieresis" unicode="&#xa8;" horiz-adv-x="739" 
d="M307 1200q-76 0 -111.5 44t-25.5 106q12 63 62.5 108t124 45t111.5 -46t28 -107q-10 -59 -61.5 -104.5t-127.5 -45.5zM733 1200q-74 0 -109.5 44t-27.5 106q12 63 63.5 108t124.5 45q76 0 113 -46t25 -107q-10 -59 -61.5 -104.5t-127.5 -45.5z" />
    <glyph glyph-name="copyright" unicode="&#xa9;" horiz-adv-x="1736" 
d="M825.5 -39q-319.5 0 -511 222.5t-144.5 533.5q49 311 311 533.5t581.5 222.5t511 -222.5t142.5 -533.5q-47 -311 -309 -533.5t-581.5 -222.5zM839.5 49q282.5 0 512 195.5t272.5 472t-126 471t-451 194.5q-281 0 -511.5 -195.5t-273.5 -469.5q-41 -276 127 -472
t450.5 -196zM874 242q-209 0 -318.5 130t-72.5 363q29 188 181.5 326.5t349.5 138.5q47 0 145 -11t154 -11h24l15 -306l-62 -14q-27 111 -95.5 174.5t-168.5 63.5q-123 0 -213 -104.5t-115 -258.5q-29 -178 33 -275.5t184 -97.5q125 0 207 80t121 172l80 -16
q-41 -147 -164 -250.5t-285 -103.5z" />
    <glyph glyph-name="ordfeminine" unicode="&#xaa;" horiz-adv-x="694" 
d="M788 1047q10 0 23 6l4 -33q-45 -37 -119 -37q-39 0 -67.5 17.5t-26.5 62.5h-4q-45 -80 -139 -80q-74 0 -118 46t-44 138q0 115 76 210.5t182 95.5q78 0 111 -52h4l14 52h160q-39 -80 -68 -230l-20 -123q-13 -73 32 -73zM522 1073q29 0 56.5 27.5t44.5 83.5l28 172
q-23 33 -63 33q-66 0 -105 -69t-39 -146q0 -45 21.5 -73t56.5 -28zM266 809l17 106h475l-17 -106h-475z" />
    <glyph glyph-name="guillemotleft" unicode="&#xab;" horiz-adv-x="1187" 
d="M446 -23l-356 463l16 117l504 463l74 -57l-278 -465l133 -467zM907 -23l-356 463l18 117l504 463l74 -57l-281 -465l133 -467z" />
    <glyph glyph-name="logicalnot" unicode="&#xac;" horiz-adv-x="1298" 
d="M991 489l53 306h-888l28 176h1076l-82 -482h-187z" />
    <glyph glyph-name="uni00AD" unicode="&#xad;" horiz-adv-x="499" 
d="M68 418l26 155h414l-27 -155h-413z" />
    <glyph glyph-name="registered" unicode="&#xae;" horiz-adv-x="1013" 
d="M645 1473q172 0 275.5 -119t76.5 -287q-27 -166 -167 -285.5t-312 -119.5q-170 0 -273.5 119.5t-78.5 285.5q27 168 168 287t311 119zM915 1067q23 135 -61 231.5t-221 96.5t-249 -96.5t-134 -231.5q-20 -135 61.5 -230.5t218.5 -95.5q139 0 252 95.5t133 230.5z
M647 1280q82 0 126 -31.5t36 -87.5q-12 -88 -121 -112h2l-2 -7q39 -4 52.5 -24.5t19.5 -61.5q6 -49 18 -57q8 -4 25 -4l-2 -29q-45 -10 -78 -10q-94 0 -102 80q-6 61 -20.5 79.5t-65.5 18.5h-17l-14 -88q-4 -49 24 -55l-10 -27h-172v27q33 8 39 55l39 256q6 47 -23 53l11 25
h235zM688 1155q4 37 -20.5 57.5t-69.5 20.5q-20 0 -49 -4l-23 -144h56q90 0 106 70z" />
    <glyph glyph-name="macron" unicode="&#xaf;" horiz-adv-x="651" 
d="M172 1249l25 158h632l-24 -158h-633z" />
    <glyph glyph-name="degree" unicode="&#xb0;" horiz-adv-x="665" 
d="M422 1014q-94 0 -151.5 67.5t-41.5 159.5q14 96 94 164t176.5 68t152 -68t40.5 -164q-16 -92 -96 -159.5t-174 -67.5zM440.5 1116q53.5 0 96.5 37t51 88q8 53 -21.5 91t-83 38t-97.5 -38t-52 -91q-10 -53 21.5 -89t85 -36z" />
    <glyph glyph-name="plusminus" unicode="&#xb1;" horiz-adv-x="1456" 
d="M688 219l74 434h-496l21 135h497l84 496h133l-83 -496h501l-22 -135h-500l-76 -434h-133zM156 0l20 131h1131l-21 -131h-1130z" />
    <glyph glyph-name="uni00B2" unicode="&#xb2;" horiz-adv-x="462" 
d="M596 1284q-14 -92 -92 -159.5t-207 -129.5v-4h57q133 0 207 74l31 -16l-84 -172h-369l15 84q123 80 196.5 153.5t87.5 169.5q6 47 -14.5 74.5t-58.5 27.5q-43 0 -79 -35.5t-48 -101.5l-45 8q16 86 79.5 138.5t149.5 52.5q88 0 137 -44t37 -120z" />
    <glyph glyph-name="uni00B3" unicode="&#xb3;" horiz-adv-x="452" 
d="M305 862q-70 0 -121 28t-43 77q10 59 68 59q29 0 42 -16.5t15 -36t12.5 -35.5t34.5 -16q43 0 73 29.5t38 84.5q8 57 -15.5 91t-76.5 34h-23l8 51h19q39 0 65.5 27t30.5 66q6 37 -12.5 59t-57.5 22q-86 0 -110 -104l-37 4q16 76 72.5 118t138.5 42t126 -35t36 -90
q-12 -82 -115 -117l-2 -6q57 -10 89 -50t24 -95q-14 -84 -88 -137.5t-191 -53.5z" />
    <glyph glyph-name="acute" unicode="&#xb4;" horiz-adv-x="667" 
d="M399 1155l-67 64l254 264q82 82 153 82q43 0 67.5 -29t18.5 -68q-12 -78 -108 -129z" />
    <glyph glyph-name="mu" unicode="&#xb5;" horiz-adv-x="1267" 
d="M1294 160l13 -125q-43 -31 -118 -52.5t-132 -21.5q-113 0 -170.5 38t-55.5 132h-6q-154 -170 -368 -170q-41 0 -78 6q4 -8 15.5 -32.5t14.5 -31.5t14 -32t12 -31t9.5 -29.5t6.5 -28.5t2 -29.5t-2 -28.5q-16 -92 -79 -139.5t-151 -47.5q-84 0 -133 55.5t-35 149.5l103 580
q4 45 8 69l98 582h328l-101 -606q-18 -98 24 -149.5t130 -51.5q74 0 137.5 54t85.5 134l105 619h325l-122 -744q-18 -88 47 -88q36 1 73 19z" />
    <glyph glyph-name="paragraph" unicode="&#xb6;" horiz-adv-x="1273" 
d="M442 -440q-154 0 -226.5 55t-59.5 143q10 57 54 92t97 35t86 -28.5t45.5 -64.5t40 -64.5t72.5 -28.5q221 0 270 307l111 709q-225 0 -326.5 106.5t-79.5 259.5q25 158 158 255.5t326 97.5h344l2 -62q-57 -16 -101.5 -62t-56.5 -116l-172 -1104q-43 -276 -200 -403
t-384 -127z" />
    <glyph glyph-name="periodcentered" unicode="&#xb7;" horiz-adv-x="749" 
d="M369 532q-92 0 -145.5 60.5t-39.5 155.5q16 94 89 153.5t165 59.5q90 0 144.5 -59.5t38.5 -153.5q-14 -94 -88 -155t-164 -61z" />
    <glyph glyph-name="cedilla" unicode="&#xb8;" horiz-adv-x="765" 
d="M268 -481q-109 0 -174 47t-55 110q4 31 30.5 55.5t59.5 24.5q39 0 58.5 -22.5t22.5 -48t25.5 -48t67.5 -22.5q49 0 85 26.5t44 71.5q4 29 -13.5 45.5t-45.5 16.5q-37 0 -68 -23l-67 33l168 274l110 -51l-84 -135q20 8 53 8q74 0 112 -35.5t26 -97.5q-14 -92 -115 -160.5
t-240 -68.5z" />
    <glyph glyph-name="uni00B9" unicode="&#xb9;" horiz-adv-x="307" 
d="M141 877l-2 32q63 14 74 70l53 338h-57l-2 37l188 80h49l-71 -455q-10 -53 47 -70l-12 -32h-267z" />
    <glyph glyph-name="ordmasculine" unicode="&#xba;" horiz-adv-x="718" 
d="M553 985q-111 0 -167 68.5t-40 177.5q16 106 91 174t184 68q111 0 167 -68t39 -176q-14 -109 -88.5 -176.5t-185.5 -67.5zM563 1053q43 0 75 49t42 127q12 78 -7.5 128t-62.5 50q-41 0 -73.5 -50t-42.5 -126q-10 -80 8 -129t61 -49zM285 809l16 106h475l-16 -106h-475z
" />
    <glyph glyph-name="guillemotright" unicode="&#xbb;" horiz-adv-x="1202" 
d="M184 -23l-73 54l278 467l-133 465l92 57l359 -463l-17 -117zM645 -23l-74 54l281 467l-135 465l92 57l360 -463l-18 -117z" />
    <glyph glyph-name="onequarter" unicode="&#xbc;" horiz-adv-x="991" 
d="M754 909l-13 -30h-266v30q63 18 72 70l59 338h-57l-2 37l190 80h47l-77 -455q-6 -50 47 -70zM252 774h684l-21 -110h-684zM668 555l-62 -367h88l-22 -57h-76l-4 -29q-8 -51 47 -71l-8 -31h-269l-4 31q63 18 74 71l4 29h-229l8 43l340 381h113zM299 188h147l35 199h-6
l-174 -194z" />
    <glyph glyph-name="onehalf" unicode="&#xbd;" horiz-adv-x="942" 
d="M731 909l-12 -30h-268v30q66 20 73 70l58 338h-58v37l189 80h47l-76 -455q-10 -52 47 -70zM227 774h684l-18 -110h-684zM530 571q88 0 138.5 -44t36.5 -119q-16 -94 -95.5 -162t-208.5 -127v-4h60q135 0 207 71l30 -16l-88 -186h-12q-27 16 -113 16h-241l14 84
q123 76 197.5 151.5t91.5 172.5q8 45 -12.5 73.5t-59.5 28.5q-43 0 -80 -37t-49 -100l-45 6q16 88 79.5 140t149.5 52z" />
    <glyph glyph-name="threequarters" unicode="&#xbe;" horiz-adv-x="1007" 
d="M588 862q-70 0 -120 28t-42 77q10 61 68 61q29 0 42 -16.5t15 -36t12 -35.5t33 -16q43 0 73.5 30.5t39.5 83.5q10 57 -14.5 90t-78.5 33h-20l8 53h19q39 0 65.5 27t32.5 66q6 37 -12.5 59.5t-57.5 22.5q-84 0 -112 -105l-37 4q18 74 75.5 117t139.5 43t125 -36t32 -91
q-12 -82 -116 -115v-6q57 -10 88 -50t22 -95q-14 -84 -87.5 -138.5t-192.5 -54.5zM268 774h684l-20 -110h-684zM684 555l-61 -367h88l-23 -57h-76l-4 -29q-8 -51 47 -71l-8 -31h-268l-4 31q63 18 74 71l4 29h-230l8 43l340 381h113zM315 188h148l35 199h-6l-175 -194z" />
    <glyph glyph-name="questiondown" unicode="&#xbf;" horiz-adv-x="1191" 
d="M809 1047q-92 0 -146.5 59t-39.5 154q14 96 85.5 155.5t164 59.5t146.5 -59.5t40 -155.5q-14 -94 -87 -153.5t-163 -59.5zM659 -39q-231 0 -428.5 151.5t-199.5 331.5q0 115 60.5 192t167 111.5t204.5 48t217 13.5l18 119h199l-57 -375h-92q-94 0 -160 -4t-159 -17.5
t-144.5 -48t-51.5 -88.5q2 -102 94.5 -191t217.5 -89q53 0 89 23.5t55.5 56t39 65.5t56 56.5t94.5 23.5q63 0 106 -45t43 -107q2 -106 -101.5 -166.5t-267.5 -60.5z" />
    <glyph glyph-name="Agrave" unicode="&#xc0;" horiz-adv-x="1441" 
d="M602 1704q-78 51 -65 129q8 39 41.5 67.5t76.5 28.5q74 0 125 -82l168 -264l-90 -63zM1288 258q33 -145 144 -178l-31 -80h-584l-2 80q98 33 64 178l-17 74h-520l-43 -74q-86 -145 0 -178l-31 -80h-327l-2 80q123 31 206 178l517 893q-27 45 -101 76l27 80
q240 57 401 172h19zM434 494h391l-106 477h-10z" />
    <glyph glyph-name="Aacute" unicode="&#xc1;" horiz-adv-x="1441" 
d="M1096 1704l-318 -184l-69 63l254 264q82 82 153 82q43 0 67.5 -28.5t18.5 -67.5q-12 -76 -106 -129zM1288 258q33 -145 144 -178l-31 -80h-584l-2 80q98 33 64 178l-17 74h-520l-43 -74q-86 -145 0 -178l-31 -80h-327l-2 80q123 31 206 178l517 893q-27 45 -101 76l27 80
q240 57 401 172h19zM434 494h391l-106 477h-10z" />
    <glyph glyph-name="Acircumflex" unicode="&#xc2;" horiz-adv-x="1441" 
d="M872 1630l-305 -121l-37 82l381 293l287 -293l-61 -82zM1288 258q33 -145 144 -178l-31 -80h-584l-2 80q98 33 64 178l-17 74h-520l-43 -74q-86 -145 0 -178l-31 -80h-327l-2 80q123 31 206 178l517 893q-27 45 -101 76l27 80q240 57 401 172h19zM434 494h391l-106 477
h-10z" />
    <glyph glyph-name="Atilde" unicode="&#xc3;" horiz-adv-x="1441" 
d="M694 1708q-66 0 -94 -78l-102 27q33 127 99.5 180t139.5 53q63 0 145.5 -49t118.5 -49q68 0 97 76l98 -25q-33 -127 -98.5 -181t-141.5 -54q-63 0 -143 50t-119 50zM1288 258q33 -145 144 -178l-31 -80h-584l-2 80q98 33 64 178l-17 74h-520l-43 -74q-86 -145 0 -178
l-31 -80h-327l-2 80q123 31 206 178l517 893q-27 45 -101 76l27 80q240 57 401 172h19zM434 494h391l-106 477h-10z" />
    <glyph glyph-name="Adieresis" unicode="&#xc4;" horiz-adv-x="1441" 
d="M643 1565q-76 0 -111.5 44t-25.5 105q12 63 62 108.5t124 45.5q76 0 114 -46t25 -108q-10 -59 -61 -104t-127 -45zM1069 1565q-74 0 -109.5 44t-25.5 105.5t61.5 107.5t124.5 46q76 0 113 -46t24 -108q-8 -59 -60 -104t-128 -45zM1288 258q33 -145 144 -178l-31 -80h-584
l-2 80q98 33 64 178l-17 74h-520l-43 -74q-86 -145 0 -178l-31 -80h-327l-2 80q123 31 206 178l517 893q-27 45 -101 76l27 80q240 57 401 172h19zM434 494h391l-106 477h-10z" />
    <glyph glyph-name="Aring" unicode="&#xc5;" horiz-adv-x="1441" 
d="M840 1536q-90 0 -145.5 63.5t-41.5 153.5q14 88 90 152.5t166 64.5t144.5 -64.5t40.5 -152.5q-14 -90 -89 -153.5t-165 -63.5zM782 1753q-6 -41 15.5 -67.5t60.5 -26.5t69.5 27.5t37.5 66.5q6 37 -15.5 63.5t-60.5 26.5t-70 -26.5t-37 -63.5zM1288 258q33 -145 144 -178
l-31 -80h-584l-2 80q98 33 64 178l-17 74h-520l-43 -74q-86 -145 0 -178l-31 -80h-327l-2 80q123 31 206 178l517 893q-27 45 -101 76l27 80q240 57 401 172h19zM434 494h391l-106 477h-10z" />
    <glyph glyph-name="AE" unicode="&#xc6;" horiz-adv-x="2234" 
d="M1520 711q-47 0 -86 -33l-80 -500q139 -23 227 -22q92 0 180 27.5t149.5 67.5t108.5 80t70 66l25 29l75 -41l-194 -424h-27q-29 16 -124 27.5t-169 11.5h-823l-2 80q109 31 133 180l12 72h-553l-63 -74q-66 -70 -77 -119t26 -59l-29 -80h-356l-4 80q127 31 256 178
l903 1036q-33 41 -88 60l28 80h1168l22 -359l-88 -31q-2 10 -8 25.5t-37 56.5t-73 72t-123.5 56.5t-184.5 25.5q-84 0 -186 -18l-62 -385l11 -5q90 70 178 70q86 0 193.5 -66.5t166.5 -66.5q66 0 119 53l55 -61q-135 -221 -317 -221q-66 0 -182.5 65.5t-169.5 65.5zM586 496
h434l96 598h-12z" />
    <glyph glyph-name="Ccedilla" unicode="&#xc7;" horiz-adv-x="1468" 
d="M1001 1473q225 0 364.5 -110t113.5 -269q-14 -78 -65.5 -133.5t-127.5 -55.5q-84 0 -122 43t-42 103.5t-7 121t-39 103.5t-118 43q-129 0 -244.5 -159t-156.5 -396q-113 -649 285 -649q242 0 436 340l104 -62q-154 -377 -546 -428l-60 -92q25 8 53 8q76 0 114 -35.5
t26 -97.5q-14 -92 -114.5 -160.5t-240.5 -68.5q-109 0 -175 47t-56 110q4 31 30.5 55.5t59.5 24.5q39 0 58.5 -22.5t23.5 -48t26.5 -48t67.5 -22.5q49 0 85 26.5t44 71.5q2 29 -14 45.5t-47 16.5q-37 0 -68 -23l-65 33l106 174q-303 14 -450.5 244.5t-89.5 556.5
q53 311 292.5 512t558.5 201z" />
    <glyph glyph-name="Egrave" unicode="&#xc8;" horiz-adv-x="1363" 
d="M580 1704q-76 53 -66 129q8 39 42 67.5t77 28.5q74 0 125 -82l168 -264l-90 -63zM686 711q-43 0 -84 -31l-88 -504q139 -23 227 -22q92 0 180.5 27.5t150 67.5t109.5 80t72 68l23 27l76 -39l-148 -424h-28q-27 16 -124.5 27.5t-166.5 11.5h-877l-2 80q111 31 137 178
l162 916q25 150 -74 180l31 80h1088l53 -361l-88 -29q-2 10 -8.5 25.5t-36 55.5t-70.5 71t-123 56.5t-184 25.5q-82 0 -188 -18l-68 -386l6 -2q90 70 180 70q84 0 191.5 -66.5t169 -66.5t119.5 53l55 -61q-135 -221 -320 -221q-68 0 -182.5 65.5t-169.5 65.5z" />
    <glyph glyph-name="Eacute" unicode="&#xc9;" horiz-adv-x="1363" 
d="M1051 1704l-318 -184l-69 63l256 264q82 82 153 82q43 0 67.5 -28.5t16.5 -67.5q-10 -78 -106 -129zM686 711q-43 0 -84 -31l-88 -504q139 -23 227 -22q92 0 180.5 27.5t150 67.5t109.5 80t72 68l23 27l76 -39l-148 -424h-28q-27 16 -124.5 27.5t-166.5 11.5h-877l-2 80
q111 31 137 178l162 916q25 150 -74 180l31 80h1088l53 -361l-88 -29q-2 10 -8.5 25.5t-36 55.5t-70.5 71t-123 56.5t-184 25.5q-82 0 -188 -18l-68 -386l6 -2q90 70 180 70q84 0 191.5 -66.5t169 -66.5t119.5 53l55 -61q-135 -221 -320 -221q-68 0 -182.5 65.5t-169.5 65.5
z" />
    <glyph glyph-name="Ecircumflex" unicode="&#xca;" horiz-adv-x="1363" 
d="M840 1630l-305 -121l-37 82l381 293l286 -293l-61 -82zM686 711q-43 0 -84 -31l-88 -504q139 -23 227 -22q92 0 180.5 27.5t150 67.5t109.5 80t72 68l23 27l76 -39l-148 -424h-28q-27 16 -124.5 27.5t-166.5 11.5h-877l-2 80q111 31 137 178l162 916q25 150 -74 180
l31 80h1088l53 -361l-88 -29q-2 10 -8.5 25.5t-36 55.5t-70.5 71t-123 56.5t-184 25.5q-82 0 -188 -18l-68 -386l6 -2q90 70 180 70q84 0 191.5 -66.5t169 -66.5t119.5 53l55 -61q-135 -221 -320 -221q-68 0 -182.5 65.5t-169.5 65.5z" />
    <glyph glyph-name="Edieresis" unicode="&#xcb;" horiz-adv-x="1363" 
d="M651 1565q-76 0 -111.5 44t-25.5 105q12 63 62.5 108.5t123.5 45.5q76 0 114 -46t26 -108q-10 -59 -61.5 -104t-127.5 -45zM1077 1565q-74 0 -109.5 44t-25.5 105.5t61.5 107.5t124.5 46q76 0 113 -46t25 -108q-8 -59 -60.5 -104t-128.5 -45zM686 711q-43 0 -84 -31
l-88 -504q139 -23 227 -22q92 0 180.5 27.5t150 67.5t109.5 80t72 68l23 27l76 -39l-148 -424h-28q-27 16 -124.5 27.5t-166.5 11.5h-877l-2 80q111 31 137 178l162 916q25 150 -74 180l31 80h1088l53 -361l-88 -29q-2 10 -8.5 25.5t-36 55.5t-70.5 71t-123 56.5t-184 25.5
q-82 0 -188 -18l-68 -386l6 -2q90 70 180 70q84 0 191.5 -66.5t169 -66.5t119.5 53l55 -61q-135 -221 -320 -221q-68 0 -182.5 65.5t-169.5 65.5z" />
    <glyph glyph-name="Igrave" unicode="&#xcc;" horiz-adv-x="714" 
d="M498 1520l-256 184q-78 51 -66 129q8 39 42 67.5t77 28.5q74 0 125 -82l168 -264zM2 0l-4 80q111 31 137 178l162 916q25 150 -74 180l31 80h563l2 -80q-113 -31 -137 -180l-162 -916q-27 -147 74 -178l-31 -80h-561z" />
    <glyph glyph-name="Iacute" unicode="&#xcd;" horiz-adv-x="722" 
d="M473 1520l-70 63l254 264q45 43 78 62.5t76 19.5t68.5 -28.5t17.5 -67.5q-12 -78 -106 -129zM10 0l-4 80q111 31 137 178l162 916q25 150 -74 180l31 80h563l2 -80q-113 -31 -137 -180l-162 -916q-27 -147 74 -178l-31 -80h-561z" />
    <glyph glyph-name="Icircumflex" unicode="&#xce;" horiz-adv-x="722" 
d="M272 1509l-36 82l382 293l287 -293l-61 -82l-266 121zM10 0l-4 80q111 31 137 178l162 916q25 150 -74 180l31 80h563l2 -80q-113 -31 -137 -180l-162 -916q-27 -147 74 -178l-31 -80h-561z" />
    <glyph glyph-name="Idieresis" unicode="&#xcf;" horiz-adv-x="722" 
d="M356 1565q-74 0 -109.5 44t-25.5 105q10 63 60.5 108.5t126 45.5t112.5 -46t25 -108q-8 -59 -60.5 -104t-128.5 -45zM784 1565q-74 0 -110.5 44t-26.5 105q12 63 63.5 108.5t125.5 45.5q76 0 112.5 -46t24.5 -108q-10 -59 -61.5 -104t-127.5 -45zM10 0l-4 80
q111 31 137 178l162 916q25 150 -74 180l31 80h563l2 -80q-113 -31 -137 -180l-162 -916q-27 -147 74 -178l-31 -80h-561z" />
    <glyph glyph-name="Eth" unicode="&#xd0;" horiz-adv-x="1531" 
d="M874 1434q330 0 520.5 -214t139.5 -538q-57 -352 -282.5 -517t-553.5 -165h-678l-4 80q113 31 134 180l59 369h-213l27 176h215l59 371q20 147 -78 178l29 80h626zM1143 614q23 119 8.5 238t-53.5 214t-124 154.5t-202 59.5q-23 0 -76 -4l-73 -471h208l-26 -174h-211
l-74 -459q88 -16 182 -16q182 0 295 134t146 324z" />
    <glyph glyph-name="Ntilde" unicode="&#xd1;" horiz-adv-x="1488" 
d="M854 1708q-66 0 -94 -78l-103 27q33 127 98.5 180t139.5 53q66 0 146.5 -49t119.5 -49q68 0 96 76l99 -25q-33 -127 -99.5 -181t-140.5 -54q-66 0 -145.5 50t-116.5 50zM1608 1434l2 -80q-111 -31 -137 -180l-207 -1174h-185q-14 106 -72.5 201.5t-138 173.5
t-161.5 155.5t-162 182t-123 219.5h-10l-119 -674q-25 -147 76 -178l-31 -80h-334l-2 80q113 31 137 178l162 916q25 150 -76 180l31 80h322q53 -127 127.5 -240t145.5 -189.5t137.5 -148.5t122.5 -148.5t85 -156.5h8l111 623q25 150 -74 180l31 80h334z" />
    <glyph glyph-name="Ograve" unicode="&#xd2;" horiz-adv-x="1591" 
d="M979 1520l-258 184q-76 53 -64 129q6 39 40 67.5t77 28.5q72 0 127 -82l168 -264zM737 -41q-190 0 -338.5 92t-219 266.5t-34.5 391.5q59 342 295 553t561 211q297 0 471.5 -217.5t114.5 -548.5q-57 -332 -299 -540t-551 -208zM764 115q139 0 265 172t171 434
q47 264 -18.5 430t-206.5 166q-139 0 -264 -165t-172 -429q-47 -266 15.5 -437t209.5 -171z" />
    <glyph glyph-name="Oacute" unicode="&#xd3;" horiz-adv-x="1591" 
d="M965 1520l-68 63l254 264q82 82 154 82q43 0 67.5 -28.5t18.5 -67.5q-12 -78 -109 -129zM737 -41q-190 0 -338.5 92t-219 266.5t-34.5 391.5q59 342 295 553t561 211q297 0 471.5 -217.5t114.5 -548.5q-57 -332 -299 -540t-551 -208zM764 115q139 0 265 172t171 434
q47 264 -18.5 430t-206.5 166q-139 0 -264 -165t-172 -429q-47 -266 15.5 -437t209.5 -171z" />
    <glyph glyph-name="Ocircumflex" unicode="&#xd4;" horiz-adv-x="1591" 
d="M735 1509l-39 82l383 293l287 -293l-61 -82l-267 121zM737 -41q-190 0 -338.5 92t-219 266.5t-34.5 391.5q59 342 295 553t561 211q297 0 471.5 -217.5t114.5 -548.5q-57 -332 -299 -540t-551 -208zM764 115q139 0 265 172t171 434q47 264 -18.5 430t-206.5 166
q-139 0 -264 -165t-172 -429q-47 -266 15.5 -437t209.5 -171z" />
    <glyph glyph-name="Otilde" unicode="&#xd5;" horiz-adv-x="1591" 
d="M1176 1608q-66 0 -146 50t-117 50q-66 0 -94 -78l-102 27q33 127 98.5 180t138.5 53q66 0 147 -49t120 -49q68 0 96 76l98 -25q-33 -127 -99 -181t-140 -54zM737 -41q-190 0 -338.5 92t-219 266.5t-34.5 391.5q59 342 295 553t561 211q297 0 471.5 -217.5t114.5 -548.5
q-57 -332 -299 -540t-551 -208zM764 115q139 0 265 172t171 434q47 264 -18.5 430t-206.5 166q-139 0 -264 -165t-172 -429q-47 -266 15.5 -437t209.5 -171z" />
    <glyph glyph-name="Odieresis" unicode="&#xd6;" horiz-adv-x="1591" 
d="M786.5 1565q-75.5 0 -111.5 44t-26 105q12 63 62.5 108.5t124 45.5t111.5 -46t28 -108q-10 -59 -61.5 -104t-127 -45zM1212 1565q-74 0 -109.5 44t-27.5 105q12 63 63.5 108.5t125.5 45.5q76 0 112.5 -46t24.5 -108q-10 -59 -61.5 -104t-127.5 -45zM737 -41
q-190 0 -338.5 92t-219 266.5t-34.5 391.5q59 342 295 553t561 211q297 0 471.5 -217.5t114.5 -548.5q-57 -332 -299 -540t-551 -208zM764 115q139 0 265 172t171 434q47 264 -18.5 430t-206.5 166q-139 0 -264 -165t-172 -429q-47 -266 15.5 -437t209.5 -171z" />
    <glyph glyph-name="multiply" unicode="&#xd7;" horiz-adv-x="1208" 
d="M272 268l-84 94l428 355l-315 352l113 94l317 -352l428 354l84 -94l-428 -354l318 -355l-115 -96l-318 357z" />
    <glyph glyph-name="Oslash" unicode="&#xd8;" horiz-adv-x="1591" 
d="M1389 1341q125 -102 180 -267t18 -367q-57 -332 -298.5 -540t-551.5 -208q-158 0 -288 66l-101 -142l-108 70l100 141q-121 102 -175 261t-20 354q59 342 295 553t561 211q150 0 281 -64l102 145l109 -67zM539 723q-35 -201 -7 -358l613 856q-63 96 -170 96
q-139 0 -264 -165t-172 -429zM1200 721q37 211 2 358l-614 -860q63 -104 176 -104q139 0 265 172t171 434z" />
    <glyph glyph-name="Ugrave" unicode="&#xd9;" 
d="M1042 1520l-256 184q-76 53 -63 129q6 39 40 67.5t77 28.5q72 0 127 -82l168 -264zM686 -39q-274 0 -410.5 141.5t-82.5 440.5l114 631q25 150 -74 180l31 80h563l4 -80q-113 -31 -139 -180l-112 -629q-37 -211 27.5 -319.5t215.5 -108.5q319 0 394 428l110 629
q25 150 -76 180l33 80h334l2 -82q-111 -27 -137 -178l-111 -631q-49 -283 -229.5 -432.5t-456.5 -149.5z" />
    <glyph glyph-name="Uacute" unicode="&#xda;" 
d="M1049 1520l-70 63l256 264q82 82 154 82q43 0 67.5 -28.5t16.5 -67.5q-10 -78 -107 -129zM686 -39q-274 0 -410.5 141.5t-82.5 440.5l114 631q25 150 -74 180l31 80h563l4 -80q-113 -31 -139 -180l-112 -629q-37 -211 27.5 -319.5t215.5 -108.5q319 0 394 428l110 629
q25 150 -76 180l33 80h334l2 -82q-111 -27 -137 -178l-111 -631q-49 -283 -229.5 -432.5t-456.5 -149.5z" />
    <glyph glyph-name="Ucircumflex" unicode="&#xdb;" 
d="M770 1509l-37 82l383 293l287 -293l-62 -82l-266 121zM686 -39q-274 0 -410.5 141.5t-82.5 440.5l114 631q25 150 -74 180l31 80h563l4 -80q-113 -31 -139 -180l-112 -629q-37 -211 27.5 -319.5t215.5 -108.5q319 0 394 428l110 629q25 150 -76 180l33 80h334l2 -82
q-111 -27 -137 -178l-111 -631q-49 -283 -229.5 -432.5t-456.5 -149.5z" />
    <glyph glyph-name="Udieresis" unicode="&#xdc;" 
d="M866 1565q-74 0 -109.5 44t-27.5 105q12 63 62.5 108.5t126 45.5t112.5 -46t25 -108q-10 -59 -61.5 -104t-127.5 -45zM1294 1565q-74 0 -110.5 44t-26.5 105q12 63 62.5 108.5t123.5 45.5q76 0 114 -46t26 -108q-10 -59 -61.5 -104t-127.5 -45zM686 -39
q-274 0 -410.5 141.5t-82.5 440.5l114 631q25 150 -74 180l31 80h563l4 -80q-113 -31 -139 -180l-112 -629q-37 -211 27.5 -319.5t215.5 -108.5q319 0 394 428l110 629q25 150 -76 180l33 80h334l2 -82q-111 -27 -137 -178l-111 -631q-49 -283 -229.5 -432.5t-456.5 -149.5z
" />
    <glyph glyph-name="Yacute" unicode="&#xdd;" horiz-adv-x="1388" 
d="M997 1520l-69 63l254 264q45 43 77.5 62.5t75.5 19.5t69 -28.5t17 -67.5q-12 -78 -106 -129zM344 0l-2 80q113 31 137 180l70 404l-227 510q-66 154 -164 180l30 80h621l2 -80q-45 -14 -60.5 -59.5t13.5 -120.5l143 -312h15l254 312q37 47 49 85.5t3 61t-36 33.5l31 80
h348l2 -80q-104 -27 -225 -180l-412 -512l-72 -402q-25 -150 74 -180l-31 -80h-563z" />
    <glyph glyph-name="Thorn" unicode="&#xde;" horiz-adv-x="1593" 
d="M1061 1139q276 0 417.5 -113t110.5 -309q-33 -197 -210 -309.5t-451 -112.5h-281l-6 -35q-20 -150 78 -180l-29 -80h-563l-4 80q51 14 87 60t46 120l145 916q23 147 -77 178l30 80h561l5 -80q-51 -14 -87 -60.5t-47 -117.5l-6 -37h281zM1200 717q20 129 -62.5 197.5
t-240.5 68.5q-61 0 -143 -8l-82 -516q78 -8 141 -8q152 0 259.5 69.5t127.5 196.5z" />
    <glyph glyph-name="germandbls" unicode="&#xdf;" horiz-adv-x="1705" 
d="M1575 997q-180 -25 -203 -157q-4 -27 7.5 -53.5t23.5 -42t39.5 -45t36.5 -40.5q10 -12 34.5 -40.5t36 -43t33 -48t25.5 -55t13 -64.5t-3 -76q-29 -186 -173.5 -278.5t-361.5 -92.5q-129 0 -224 43t-81 135q8 53 51 87t97 34q55 0 84.5 -24.5t37 -54t28 -54.5t57.5 -25
q119 0 141 134q2 18 -1 39.5t-14.5 45t-21.5 42t-29.5 44t-30 38t-31 35t-22.5 26.5q-102 119 -131 186q-31 72 -20 142q14 92 96 161.5t213 71.5q18 25 37 102q14 94 -30 157t-152 63q-299 0 -365 -420l-113 -709q-20 -150 78 -180l-28 -80h-553l-2 80q109 31 133 180
l102 647h-207l27 164h215q72 242 257 369t478 127q207 0 364.5 -112t131.5 -279q-19 -113 -80 -179z" />
    <glyph glyph-name="agrave" unicode="&#xe0;" horiz-adv-x="1294" 
d="M516 1339q-76 53 -63 129q8 39 41.5 68t76.5 29q74 0 125 -82l168 -264l-90 -64zM1227 104q18 0 55 17l14 -70q-115 -92 -276 -92q-90 0 -154.5 43t-62.5 152h-8q-53 -92 -144.5 -143.5t-185.5 -51.5q-176 0 -278.5 109.5t-102.5 324.5q0 174 78 338t220 271.5t308 107.5
q78 0 150.5 -31.5t109.5 -91.5h8l27 88h363q-10 -18 -32 -75.5t-55.5 -177.5t-56.5 -242l-53 -301q-33 -175 76 -175zM602 164q72 0 138.5 62.5t105.5 183.5l74 432q-55 80 -154 80q-109 0 -190.5 -85t-119.5 -200t-38 -231q0 -111 51 -176.5t133 -65.5z" />
    <glyph glyph-name="aacute" unicode="&#xe1;" horiz-adv-x="1294" 
d="M1149 1339l-318 -184l-67 64l254 264q82 82 153 82q43 0 68 -29t18 -68q-12 -78 -108 -129zM1227 104q18 0 55 17l14 -70q-115 -92 -276 -92q-90 0 -154.5 43t-62.5 152h-8q-53 -92 -144.5 -143.5t-185.5 -51.5q-176 0 -278.5 109.5t-102.5 324.5q0 174 78 338t220 271.5
t308 107.5q78 0 150.5 -31.5t109.5 -91.5h8l27 88h363q-10 -18 -32 -75.5t-55.5 -177.5t-56.5 -242l-53 -301q-33 -175 76 -175zM602 164q72 0 138.5 62.5t105.5 183.5l74 432q-55 80 -154 80q-109 0 -190.5 -85t-119.5 -200t-38 -231q0 -111 51 -176.5t133 -65.5z" />
    <glyph glyph-name="acircumflex" unicode="&#xe2;" horiz-adv-x="1294" 
d="M874 1266l-305 -121l-37 82l383 293l287 -293l-61 -82zM1227 104q18 0 55 17l14 -70q-115 -92 -276 -92q-90 0 -154.5 43t-62.5 152h-8q-53 -92 -144.5 -143.5t-185.5 -51.5q-176 0 -278.5 109.5t-102.5 324.5q0 174 78 338t220 271.5t308 107.5q78 0 150.5 -31.5
t109.5 -91.5h8l27 88h363q-10 -18 -32 -75.5t-55.5 -177.5t-56.5 -242l-53 -301q-33 -175 76 -175zM602 164q72 0 138.5 62.5t105.5 183.5l74 432q-55 80 -154 80q-109 0 -190.5 -85t-119.5 -200t-38 -231q0 -111 51 -176.5t133 -65.5z" />
    <glyph glyph-name="atilde" unicode="&#xe3;" horiz-adv-x="1294" 
d="M766 1343q-66 0 -94 -77l-103 26q33 127 99.5 180.5t140.5 53.5q63 0 145 -49.5t119 -49.5q68 0 96 76l99 -24q-33 -127 -98.5 -181.5t-141.5 -54.5q-63 0 -143 50t-119 50zM1227 104q18 0 55 17l14 -70q-115 -92 -276 -92q-90 0 -154.5 43t-62.5 152h-8
q-53 -92 -144.5 -143.5t-185.5 -51.5q-176 0 -278.5 109.5t-102.5 324.5q0 174 78 338t220 271.5t308 107.5q78 0 150.5 -31.5t109.5 -91.5h8l27 88h363q-10 -18 -32 -75.5t-55.5 -177.5t-56.5 -242l-53 -301q-33 -175 76 -175zM602 164q72 0 138.5 62.5t105.5 183.5l74 432
q-55 80 -154 80q-109 0 -190.5 -85t-119.5 -200t-38 -231q0 -111 51 -176.5t133 -65.5z" />
    <glyph glyph-name="adieresis" unicode="&#xe4;" horiz-adv-x="1294" 
d="M639 1200q-74 0 -109.5 44t-27.5 106q12 63 62 108t126 45t113 -46t24 -107q-10 -59 -61 -104.5t-127 -45.5zM1067 1200q-74 0 -110.5 44t-26.5 106q12 63 62 108t124 45q76 0 114 -46t25 -107q-10 -59 -61 -104.5t-127 -45.5zM1227 104q18 0 55 17l14 -70
q-115 -92 -276 -92q-90 0 -154.5 43t-62.5 152h-8q-53 -92 -144.5 -143.5t-185.5 -51.5q-176 0 -278.5 109.5t-102.5 324.5q0 174 78 338t220 271.5t308 107.5q78 0 150.5 -31.5t109.5 -91.5h8l27 88h363q-10 -18 -32 -75.5t-55.5 -177.5t-56.5 -242l-53 -301
q-33 -175 76 -175zM602 164q72 0 138.5 62.5t105.5 183.5l74 432q-55 80 -154 80q-109 0 -190.5 -85t-119.5 -200t-38 -231q0 -111 51 -176.5t133 -65.5z" />
    <glyph glyph-name="aring" unicode="&#xe5;" horiz-adv-x="1294" 
d="M846 1171q-92 0 -146.5 63.5t-40.5 154.5q14 88 89 152.5t167 64.5q88 0 142.5 -64.5t40 -153t-88 -153t-163.5 -64.5zM788 1389q-6 -41 15.5 -68t60.5 -27t70 28t37 67q6 37 -15.5 63.5t-60.5 26.5t-70 -26.5t-37 -63.5zM1227 104q18 0 55 17l14 -70q-115 -92 -276 -92
q-90 0 -154.5 43t-62.5 152h-8q-53 -92 -144.5 -143.5t-185.5 -51.5q-176 0 -278.5 109.5t-102.5 324.5q0 174 78 338t220 271.5t308 107.5q78 0 150.5 -31.5t109.5 -91.5h8l27 88h363q-10 -18 -32 -75.5t-55.5 -177.5t-56.5 -242l-53 -301q-33 -175 76 -175zM602 164
q72 0 138.5 62.5t105.5 183.5l74 432q-55 80 -154 80q-109 0 -190.5 -85t-119.5 -200t-38 -231q0 -111 51 -176.5t133 -65.5z" />
    <glyph glyph-name="ae" unicode="&#xe6;" horiz-adv-x="1939" 
d="M1485 154q133 0 231.5 59t202.5 182l55 -49q-57 -115 -136 -195.5t-163 -119.5t-154.5 -54.5t-140.5 -15.5q-147 0 -269 60.5t-179 189.5h-6q-66 -104 -196 -177t-259 -73q-184 0 -270 75t-68 200q10 59 40 107t65.5 82t101.5 63.5t114 46t136 34t136 24.5t146 21l2 211
q2 61 -35.5 95t-99.5 34q-53 0 -92 -31.5t-47 -86.5q-25 -152 -170 -152q-70 0 -102.5 48t-20.5 120q16 100 128 179t294 79q111 0 207 -49t145 -141h6q186 190 492 190q190 0 292.5 -71.5t102.5 -192.5q0 -94 -56 -163t-169 -112t-233.5 -68.5t-294.5 -47.5q2 -139 80 -220
t184 -81zM1550 958q-98 0 -194 -103t-125 -273q172 27 307 99.5t135 160.5q0 51 -32 83.5t-91 32.5zM612 156q78 0 152 54t104 130l2 160q-76 -12 -134 -26.5t-117.5 -39t-95.5 -62.5t-44 -89q-10 -61 30 -94t103 -33z" />
    <glyph glyph-name="ccedilla" unicode="&#xe7;" horiz-adv-x="1191" 
d="M1057 621q-68 0 -110 34.5t-42 98.5q0 10 9.5 49t9.5 53q0 45 -34 72.5t-95 27.5q-121 0 -218.5 -146t-103.5 -345q-8 -147 68.5 -232.5t206.5 -85.5q199 0 407 261l59 -50q-51 -131 -157.5 -233t-245.5 -143l-68 -109q20 8 54 8q74 0 111.5 -35.5t27.5 -97.5
q-14 -92 -114.5 -160.5t-239.5 -68.5q-111 0 -176.5 47t-55.5 110q4 31 31 55.5t59 24.5q39 0 58.5 -22.5t23.5 -48t25.5 -48t66.5 -22.5q51 0 86 26.5t43 71.5q4 29 -12 45.5t-47 16.5q-37 0 -68 -23l-67 33l106 174h-8q-98 0 -183 22.5t-165 73.5t-124 152.5t-40 243.5
q6 205 110.5 358.5t259 227t331.5 73.5q188 0 295.5 -83t103.5 -216q-2 -82 -49 -136t-129 -54z" />
    <glyph glyph-name="egrave" unicode="&#xe8;" horiz-adv-x="1140" 
d="M453 1339q-76 53 -64 129q6 39 40 68t77 29q72 0 127 -82l168 -264l-90 -64zM664 147q135 0 237.5 58.5t214.5 181.5l53 -51q-207 -377 -602 -377q-92 0 -174 23.5t-153.5 75t-113.5 145.5t-42 219q0 276 189.5 482t506.5 206q182 0 289 -68.5t107 -199.5
q0 -94 -57.5 -165t-168 -116t-236.5 -73.5t-298 -49.5q2 -135 79 -213t169 -78zM750 956q-98 0 -197.5 -109.5t-126.5 -283.5q188 27 317 104.5t129 176.5q0 49 -33.5 80.5t-88.5 31.5z" />
    <glyph glyph-name="eacute" unicode="&#xe9;" horiz-adv-x="1140" 
d="M907 1339l-317 -184l-70 64l254 264q45 43 78 62.5t76 19.5t68.5 -29t17.5 -68q-13 -78 -107 -129zM664 147q135 0 237.5 58.5t214.5 181.5l53 -51q-207 -377 -602 -377q-92 0 -174 23.5t-153.5 75t-113.5 145.5t-42 219q0 276 189.5 482t506.5 206q182 0 289 -68.5
t107 -199.5q0 -94 -57.5 -165t-168 -116t-236.5 -73.5t-298 -49.5q2 -135 79 -213t169 -78zM750 956q-98 0 -197.5 -109.5t-126.5 -283.5q188 27 317 104.5t129 176.5q0 49 -33.5 80.5t-88.5 31.5z" />
    <glyph glyph-name="ecircumflex" unicode="&#xea;" horiz-adv-x="1140" 
d="M743 1266l-305 -121l-37 82l383 293l287 -293l-61 -82zM664 147q135 0 237.5 58.5t214.5 181.5l53 -51q-207 -377 -602 -377q-92 0 -174 23.5t-153.5 75t-113.5 145.5t-42 219q0 276 189.5 482t506.5 206q182 0 289 -68.5t107 -199.5q0 -94 -57.5 -165t-168 -116
t-236.5 -73.5t-298 -49.5q2 -135 79 -213t169 -78zM750 956q-98 0 -197.5 -109.5t-126.5 -283.5q188 27 317 104.5t129 176.5q0 49 -33.5 80.5t-88.5 31.5z" />
    <glyph glyph-name="edieresis" unicode="&#xeb;" horiz-adv-x="1140" 
d="M534.5 1200q-75.5 0 -111.5 44t-26 106q12 63 62.5 108t124 45t111.5 -46t28 -107q-10 -59 -61.5 -104.5t-127 -45.5zM961 1200q-74 0 -110 44t-28 106q12 63 63.5 108t125.5 45q76 0 112.5 -46t24.5 -107q-10 -59 -61 -104.5t-127 -45.5zM664 147q135 0 237.5 58.5
t214.5 181.5l53 -51q-207 -377 -602 -377q-92 0 -174 23.5t-153.5 75t-113.5 145.5t-42 219q0 276 189.5 482t506.5 206q182 0 289 -68.5t107 -199.5q0 -94 -57.5 -165t-168 -116t-236.5 -73.5t-298 -49.5q2 -135 79 -213t169 -78zM750 956q-98 0 -197.5 -109.5
t-126.5 -283.5q188 27 317 104.5t129 176.5q0 49 -33.5 80.5t-88.5 31.5z" />
    <glyph glyph-name="igrave" unicode="&#xec;" horiz-adv-x="579" 
d="M403 1155l-256 184q-76 53 -65 129q8 39 42 68t77 29q74 0 125 -82l168 -264zM348 -41q-98 0 -163.5 51t-47.5 183l84 481q12 72 -14.5 118t-75.5 60l31 82q289 45 438 184l27 -10l-148 -829q-14 -82 5.5 -128.5t68.5 -46.5q18 0 59 17l13 -70q-115 -92 -277 -92z" />
    <glyph glyph-name="iacute" unicode="&#xed;" horiz-adv-x="716" 
d="M342 1155l-68 64l254 264q82 82 154 82q43 0 67.5 -29t18.5 -68q-12 -78 -109 -129zM348 -41q-98 0 -163.5 51t-47.5 183l84 481q12 72 -14.5 118t-75.5 60l31 82q289 45 438 184l27 -10l-148 -829q-14 -82 5.5 -128.5t68.5 -46.5q18 0 59 17l13 -70q-115 -92 -277 -92z
" />
    <glyph glyph-name="icircumflex" unicode="&#xee;" horiz-adv-x="714" 
d="M135 1145l-37 82l383 293l287 -293l-61 -82l-267 121zM348 -41q-98 0 -163.5 51t-47.5 183l84 481q12 72 -14.5 118t-75.5 60l31 82q289 45 438 184l27 -10l-148 -829q-14 -82 5.5 -128.5t68.5 -46.5q18 0 59 17l13 -70q-115 -92 -277 -92z" />
    <glyph glyph-name="idieresis" unicode="&#xef;" horiz-adv-x="804" 
d="M241.5 1200q-75.5 0 -111.5 44t-26 106q12 63 62.5 108t124.5 45t111.5 -46t27.5 -107q-10 -59 -61.5 -104.5t-127 -45.5zM668 1200q-74 0 -110 44t-28 106q12 63 63.5 108t125.5 45q76 0 112.5 -46t24.5 -107q-10 -59 -61 -104.5t-127 -45.5zM348 -41q-98 0 -163.5 51
t-47.5 183l84 481q12 72 -14.5 118t-75.5 60l31 82q289 45 438 184l27 -10l-148 -829q-14 -82 5.5 -128.5t68.5 -46.5q18 0 59 17l13 -70q-115 -92 -277 -92z" />
    <glyph glyph-name="eth" unicode="&#xf0;" horiz-adv-x="1290" 
d="M616 -37q-281 0 -423 160t-101 414q39 254 223.5 414.5t432.5 160.5q131 0 225 -61l6 4q4 152 -51 282l-266 -88l-19 88l262 93q-18 78 -74 184l140 57q29 -27 143 -178l254 88l23 -92l-211 -72q207 -381 151 -743q-55 -344 -243.5 -527.5t-471.5 -183.5zM639 106
q125 0 192.5 112t104.5 345q27 178 37 324q-74 80 -201 80q-129 0 -200.5 -106.5t-104.5 -325.5q-33 -213 6 -321t166 -108z" />
    <glyph glyph-name="ntilde" unicode="&#xf1;" horiz-adv-x="1296" 
d="M684 1343q-66 0 -94 -77l-103 26q33 127 99.5 180.5t140.5 53.5q63 0 145 -49.5t119 -49.5q68 0 96 76l99 -24q-33 -127 -98.5 -181.5t-141.5 -54.5q-63 0 -143 50t-119 50zM1348 121l8 -70q-117 -92 -279 -92q-98 0 -161.5 51t-38.5 183l104 499q23 98 -10 155.5
t-113 57.5q-100 0 -191.5 -116.5t-121.5 -278.5q-27 -133 -38 -260t-11 -189l2 -61h-371l121 674q12 72 -15.5 119t-76.5 59l30 82q291 45 441 184l26 -10l-41 -217h15q154 217 387 217q172 0 257 -112.5t36 -327.5l-86 -389q-39 -174 67 -175q19 1 60 17z" />
    <glyph glyph-name="ograve" unicode="&#xf2;" horiz-adv-x="1249" 
d="M717 1155l-258 184q-76 53 -64 129q6 39 40 68t77 29q72 0 127 -82l168 -264zM578 -41q-258 0 -389.5 163t-94.5 417q35 254 212 412.5t433 158.5t387 -161t95 -417q-35 -254 -212 -413.5t-431 -159.5zM600 115q104 0 183 116.5t106 300.5q27 186 -20.5 305t-152 119
t-184 -116.5t-106.5 -300.5q-29 -184 19.5 -304t154.5 -120z" />
    <glyph glyph-name="oacute" unicode="&#xf3;" horiz-adv-x="1249" 
d="M616 1155l-69 64l254 264q45 43 77.5 62.5t75.5 19.5t69 -29t17 -68q-12 -78 -106 -129zM578 -41q-258 0 -389.5 163t-94.5 417q35 254 212 412.5t433 158.5t387 -161t95 -417q-35 -254 -212 -413.5t-431 -159.5zM600 115q104 0 183 116.5t106 300.5q27 186 -20.5 305
t-152 119t-184 -116.5t-106.5 -300.5q-29 -184 19.5 -304t154.5 -120z" />
    <glyph glyph-name="ocircumflex" unicode="&#xf4;" horiz-adv-x="1249" 
d="M469 1145l-37 82l383 293l287 -293l-62 -82l-266 121zM578 -41q-258 0 -389.5 163t-94.5 417q35 254 212 412.5t433 158.5t387 -161t95 -417q-35 -254 -212 -413.5t-431 -159.5zM600 115q104 0 183 116.5t106 300.5q27 186 -20.5 305t-152 119t-184 -116.5t-106.5 -300.5
q-29 -184 19.5 -304t154.5 -120z" />
    <glyph glyph-name="otilde" unicode="&#xf5;" horiz-adv-x="1249" 
d="M903 1243q-63 0 -143 50t-119 50q-66 0 -94 -77l-103 26q33 127 99.5 180.5t140.5 53.5q63 0 145 -49.5t119 -49.5q68 0 96 76l99 -24q-33 -127 -98.5 -181.5t-141.5 -54.5zM578 -41q-258 0 -389.5 163t-94.5 417q35 254 212 412.5t433 158.5t387 -161t95 -417
q-35 -254 -212 -413.5t-431 -159.5zM600 115q104 0 183 116.5t106 300.5q27 186 -20.5 305t-152 119t-184 -116.5t-106.5 -300.5q-29 -184 19.5 -304t154.5 -120z" />
    <glyph glyph-name="odieresis" unicode="&#xf6;" horiz-adv-x="1249" 
d="M575.5 1200q-75.5 0 -111.5 44t-26 106q12 63 62.5 108t124 45t111.5 -46t28 -107q-10 -59 -61.5 -104.5t-127 -45.5zM1001 1200q-74 0 -109.5 44t-27.5 106q12 63 63.5 108t125.5 45q76 0 112.5 -46t24.5 -107q-10 -59 -61.5 -104.5t-127.5 -45.5zM578 -41
q-258 0 -389.5 163t-94.5 417q35 254 212 412.5t433 158.5t387 -161t95 -417q-35 -254 -212 -413.5t-431 -159.5zM600 115q104 0 183 116.5t106 300.5q27 186 -20.5 305t-152 119t-184 -116.5t-106.5 -300.5q-29 -184 19.5 -304t154.5 -120z" />
    <glyph glyph-name="divide" unicode="&#xf7;" horiz-adv-x="1249" 
d="M764 889q-104 0 -150.5 58.5t-31.5 137.5q14 82 77.5 140.5t166 58.5t148.5 -58.5t34 -140.5q-14 -80 -78 -138t-166 -58zM117 649l20 133h1217l-21 -133h-1216zM647 150q-104 0 -149 57t-33 139q12 80 75.5 138.5t168.5 58.5q102 0 148 -58.5t34 -138.5
q-14 -80 -79 -138t-165 -58z" />
    <glyph glyph-name="oslash" unicode="&#xf8;" horiz-adv-x="1249" 
d="M1081 993q182 -162 142 -461q-37 -254 -213 -412.5t-430 -158.5q-119 0 -211 37l-82 -115l-107 66l78 108q-100 76 -143 202t-21 280q35 254 211 412.5t432 158.5q131 0 236 -47l80 113l110 -68zM426 547q-20 -139 2 -248l416 582q-47 76 -131 75q-102 0 -181 -113.5
t-106 -295.5zM887 524q16 115 6 205l-404 -561q47 -51 117 -51q100 0 178 113.5t103 293.5z" />
    <glyph glyph-name="ugrave" unicode="&#xf9;" horiz-adv-x="1286" 
d="M514 1339q-76 53 -63 129q8 39 41.5 68t76.5 29q74 0 125 -82l168 -264l-90 -64zM1319 121l14 -70q-117 -92 -278 -92q-96 0 -162 48t-53 171h-9q-84 -119 -170 -169t-198 -50q-174 0 -260 113.5t-33 328.5l96 392q39 172 -67 172q-27 0 -56 -17l-20 72q121 90 280 90
q102 0 169 -50t40 -179l-120 -504q-27 -102 3.5 -157.5t112.5 -55.5q96 0 177 104.5t120 263.5l15 80l2 2q20 123 29.5 237t6.5 165v53h371l-141 -790q-33 -174 74 -175q20 1 57 17z" />
    <glyph glyph-name="uacute" unicode="&#xfa;" horiz-adv-x="1286" 
d="M1042 1339l-317 -184l-70 64l254 264q82 82 154 82q43 0 67.5 -29t18.5 -68q-13 -76 -107 -129zM1319 121l14 -70q-117 -92 -278 -92q-96 0 -162 48t-53 171h-9q-84 -119 -170 -169t-198 -50q-174 0 -260 113.5t-33 328.5l96 392q39 172 -67 172q-27 0 -56 -17l-20 72
q121 90 280 90q102 0 169 -50t40 -179l-120 -504q-27 -102 3.5 -157.5t112.5 -55.5q96 0 177 104.5t120 263.5l15 80l2 2q20 123 29.5 237t6.5 165v53h371l-141 -790q-33 -174 74 -175q20 1 57 17z" />
    <glyph glyph-name="ucircumflex" unicode="&#xfb;" horiz-adv-x="1286" 
d="M866 1266l-305 -121l-37 82l383 293l287 -293l-61 -82zM1319 121l14 -70q-117 -92 -278 -92q-96 0 -162 48t-53 171h-9q-84 -119 -170 -169t-198 -50q-174 0 -260 113.5t-33 328.5l96 392q39 172 -67 172q-27 0 -56 -17l-20 72q121 90 280 90q102 0 169 -50t40 -179
l-120 -504q-27 -102 3.5 -157.5t112.5 -55.5q96 0 177 104.5t120 263.5l15 80l2 2q20 123 29.5 237t6.5 165v53h371l-141 -790q-33 -174 74 -175q20 1 57 17z" />
    <glyph glyph-name="udieresis" unicode="&#xfc;" horiz-adv-x="1286" 
d="M629 1200q-76 0 -112 44t-25 106q12 63 62 108t126 45t112.5 -46t24.5 -107q-10 -59 -61 -104.5t-127 -45.5zM1057 1200q-74 0 -111 44t-26 106q12 63 62 108t124 45t111.5 -46t27.5 -107q-10 -59 -61 -104.5t-127 -45.5zM1319 121l14 -70q-117 -92 -278 -92
q-96 0 -162 48t-53 171h-9q-84 -119 -170 -169t-198 -50q-174 0 -260 113.5t-33 328.5l96 392q39 172 -67 172q-27 0 -56 -17l-20 72q121 90 280 90q102 0 169 -50t40 -179l-120 -504q-27 -102 3.5 -157.5t112.5 -55.5q96 0 177 104.5t120 263.5l15 80l2 2q20 123 29.5 237
t6.5 165v53h371l-141 -790q-33 -174 74 -175q20 1 57 17z" />
    <glyph glyph-name="yacute" unicode="&#xfd;" horiz-adv-x="1275" 
d="M1114 1339l-317 -184l-68 64l254 264q82 82 154 82q43 0 67.5 -29t18.5 -68q-13 -78 -109 -129zM1112 1110q88 0 138 -55.5t44 -136.5q-12 -168 -114.5 -419t-212.5 -429q-55 -94 -117 -174q-256 -350 -531 -351q-90 0 -151.5 52.5t-56.5 123.5q2 72 55 117t125 45
q59 0 96 -29.5t57.5 -58t38.5 -28.5q74 0 183 124q-78 420 -149 655.5t-125 311.5t-122 76q-66 0 -141 -53l-47 69q150 158 354 158q176 0 282.5 -181.5t192.5 -654.5h13v-2q125 229 131 394q0 37 -30 78.5t-59.5 96t-29.5 122t52 108.5t124 41z" />
    <glyph glyph-name="thorn" unicode="&#xfe;" horiz-adv-x="1380" 
d="M965 1110q217 0 332.5 -163t76.5 -415q-41 -252 -201.5 -411.5t-384.5 -159.5q-178 0 -272 129h-12l-39 -248q-20 -150 78 -180l-29 -80h-506l-4 80q113 31 133 180l213 1334q20 147 -78 178l29 80q240 37 444 157l25 -10q-43 -109 -84 -346l-39 -250h6q138 125 312 125z
M1040 397q16 68 9 162t-24 180t-68.5 146.5t-125.5 60.5q-86 0 -148 -75.5t-83 -198.5q-16 -72 -10 -167t23.5 -179t68.5 -142.5t127 -58.5q84 0 148.5 77.5t82.5 194.5z" />
    <glyph glyph-name="ydieresis" unicode="&#xff;" horiz-adv-x="1275" 
d="M541 1200q-74 0 -110 44t-25 106q10 63 60 108t126 45t112.5 -46t24.5 -107q-8 -59 -60 -104.5t-128 -45.5zM969 1200q-74 0 -111 44t-27 106q12 63 63.5 108t125.5 45q76 0 112.5 -46t24.5 -107q-10 -59 -61 -104.5t-127 -45.5zM1112 1110q88 0 138 -55.5t44 -136.5
q-12 -168 -114.5 -419t-212.5 -429q-55 -94 -117 -174q-256 -350 -531 -351q-90 0 -151.5 52.5t-56.5 123.5q2 72 55 117t125 45q59 0 96 -29.5t57.5 -58t38.5 -28.5q74 0 183 124q-78 420 -149 655.5t-125 311.5t-122 76q-66 0 -141 -53l-47 69q150 158 354 158
q176 0 282.5 -181.5t192.5 -654.5h13v-2q125 229 131 394q0 37 -30 78.5t-59.5 96t-29.5 122t52 108.5t124 41z" />
    <glyph glyph-name="Amacron" unicode="&#x100;" horiz-adv-x="1441" 
d="M1212 1772l-24 -158h-633l25 158h632zM1288 258q33 -145 144 -178l-31 -80h-584l-2 80q98 33 64 178l-17 74h-520l-43 -74q-86 -145 0 -178l-31 -80h-327l-2 80q123 31 206 178l517 893q-27 45 -101 76l27 80q240 57 401 172h19zM434 494h391l-106 477h-10z" />
    <glyph glyph-name="amacron" unicode="&#x101;" horiz-adv-x="1294" 
d="M1145 1407l-27 -158h-633l25 158h635zM1227 104q18 0 55 17l14 -70q-115 -92 -276 -92q-90 0 -154.5 43t-62.5 152h-8q-53 -92 -144.5 -143.5t-185.5 -51.5q-176 0 -278.5 109.5t-102.5 324.5q0 174 78 338t220 271.5t308 107.5q78 0 150.5 -31.5t109.5 -91.5h8l27 88
h363q-10 -18 -32 -75.5t-55.5 -177.5t-56.5 -242l-53 -301q-33 -175 76 -175zM602 164q72 0 138.5 62.5t105.5 183.5l74 432q-55 80 -154 80q-109 0 -190.5 -85t-119.5 -200t-38 -231q0 -111 51 -176.5t133 -65.5z" />
    <glyph glyph-name="Abreve" unicode="&#x102;" horiz-adv-x="1441" 
d="M901 1581q-121 0 -193.5 58.5t-93.5 150.5l113 59q12 -49 68.5 -78.5t132.5 -29.5t143.5 28.5t93.5 75.5l92 -55q-51 -92 -143 -150.5t-213 -58.5zM1288 258q33 -145 144 -178l-31 -80h-584l-2 80q98 33 64 178l-17 74h-520l-43 -74q-86 -145 0 -178l-31 -80h-327l-2 80
q123 31 206 178l517 893q-27 45 -101 76l27 80q240 57 401 172h19zM434 494h391l-106 477h-10z" />
    <glyph glyph-name="abreve" unicode="&#x103;" horiz-adv-x="1294" 
d="M788.5 1217q-120.5 0 -193.5 58t-93 150l112 60q12 -49 68.5 -79t130.5 -30q78 0 144.5 29t93.5 76l94 -56q-51 -92 -143.5 -150t-213 -58zM1227 104q18 0 55 17l14 -70q-115 -92 -276 -92q-90 0 -154.5 43t-62.5 152h-8q-53 -92 -144.5 -143.5t-185.5 -51.5
q-176 0 -278.5 109.5t-102.5 324.5q0 174 78 338t220 271.5t308 107.5q78 0 150.5 -31.5t109.5 -91.5h8l27 88h363q-10 -18 -32 -75.5t-55.5 -177.5t-56.5 -242l-53 -301q-33 -175 76 -175zM602 164q72 0 138.5 62.5t105.5 183.5l74 432q-55 80 -154 80q-109 0 -190.5 -85
t-119.5 -200t-38 -231q0 -111 51 -176.5t133 -65.5z" />
    <glyph glyph-name="Aogonek" unicode="&#x104;" horiz-adv-x="1441" 
d="M1210 -309q74 0 136 78l86 -50q-125 -170 -304 -170q-119 0 -177 62.5t-42 157.5q20 137 154 231h-246l-2 80q98 33 64 178l-17 74h-520l-43 -74q-86 -145 0 -178l-31 -80h-327l-2 80q123 31 206 178l517 893q-27 45 -101 76l27 80q240 57 401 172h19l280 -1221
q33 -145 144 -178l-31 -80h-111q-141 -86 -162 -209q-6 -43 17.5 -71.5t64.5 -28.5zM434 494h391l-106 477h-10z" />
    <glyph glyph-name="aogonek" unicode="&#x105;" horiz-adv-x="1294" 
d="M1087 -35q-92 -80 -110 -174q-6 -43 17.5 -71.5t64.5 -28.5q74 0 135 78l86 -50q-125 -170 -303 -170q-119 0 -177.5 62.5t-41.5 157.5q20 125 133 217q-90 43 -88 168h-8q-53 -92 -144.5 -143.5t-185.5 -51.5q-176 0 -278.5 109.5t-102.5 324.5q0 174 78 338t220 271.5
t308 107.5q78 0 150.5 -31.5t109.5 -91.5h8l27 88h363q-10 -18 -32 -75.5t-55.5 -177.5t-56.5 -242l-53 -301q-33 -174 76 -175q18 0 55 17l14 -70q-84 -68 -209 -86zM602 164q72 0 138.5 62.5t105.5 183.5l74 432q-55 80 -154 80q-109 0 -190.5 -85t-119.5 -200t-38 -231
q0 -111 51 -176.5t133 -65.5z" />
    <glyph glyph-name="Cacute" unicode="&#x106;" horiz-adv-x="1468" 
d="M788 1520l-69 63l254 264q82 82 153 82q43 0 68 -28.5t18 -67.5q-12 -76 -106 -129zM723 -41q-319 0 -476 233.5t-97 567.5q53 311 292.5 512t558.5 201q225 0 364.5 -110t113.5 -269q-14 -78 -65.5 -133.5t-127.5 -55.5q-84 0 -122 43t-42 103.5t-7 121t-39 103.5
t-118 43q-129 0 -244.5 -159t-156.5 -396q-113 -649 285 -649q242 0 436 340l104 -62q-80 -197 -244.5 -315.5t-414.5 -118.5z" />
    <glyph glyph-name="cacute" unicode="&#x107;" horiz-adv-x="1191" 
d="M643 1155l-70 64l254 264q82 82 154 82q43 0 67.5 -29t18.5 -68q-12 -76 -106 -129zM600 -41q-98 0 -183 22.5t-165 73.5t-124 152.5t-40 243.5q8 303 216 481t484 178q188 0 296 -83t104 -216q-2 -82 -49 -136t-131 -54q-66 0 -108 34.5t-42 98.5q0 10 8 49t8 53
q0 45 -32.5 72.5t-93.5 27.5q-121 0 -218.5 -146t-105.5 -345q-8 -147 69.5 -232.5t206.5 -85.5q201 0 406 261l61 -50q-66 -168 -219 -283.5t-348 -115.5z" />
    <glyph glyph-name="Ccircumflex" unicode="&#x108;" horiz-adv-x="1468" 
d="M639 1509l-37 82l383 293l287 -293l-64 -82l-264 121zM723 -41q-319 0 -476 233.5t-97 567.5q53 311 292.5 512t558.5 201q225 0 364.5 -110t113.5 -269q-14 -78 -65.5 -133.5t-127.5 -55.5q-84 0 -122 43t-42 103.5t-7 121t-39 103.5t-118 43q-129 0 -244.5 -159
t-156.5 -396q-113 -649 285 -649q242 0 436 340l104 -62q-80 -197 -244.5 -315.5t-414.5 -118.5z" />
    <glyph glyph-name="ccircumflex" unicode="&#x109;" horiz-adv-x="1191" 
d="M449 1145l-37 82l383 293l286 -293l-61 -82l-266 121zM600 -41q-98 0 -183 22.5t-165 73.5t-124 152.5t-40 243.5q8 303 216 481t484 178q188 0 296 -83t104 -216q-2 -82 -49 -136t-131 -54q-66 0 -108 34.5t-42 98.5q0 10 8 49t8 53q0 45 -32.5 72.5t-93.5 27.5
q-121 0 -218.5 -146t-105.5 -345q-8 -147 69.5 -232.5t206.5 -85.5q201 0 406 261l61 -50q-66 -168 -219 -283.5t-348 -115.5z" />
    <glyph glyph-name="Cdotaccent" unicode="&#x10a;" horiz-adv-x="1468" 
d="M918 1599q-74 0 -111 45.5t-27 104.5q10 63 61.5 109.5t125.5 46.5q76 0 111.5 -46.5t27.5 -109.5q-12 -59 -62 -104.5t-126 -45.5zM723 -41q-319 0 -476 233.5t-97 567.5q53 311 292.5 512t558.5 201q225 0 364.5 -110t113.5 -269q-14 -78 -65.5 -133.5t-127.5 -55.5
q-84 0 -122 43t-42 103.5t-7 121t-39 103.5t-118 43q-129 0 -244.5 -159t-156.5 -396q-113 -649 285 -649q242 0 436 340l104 -62q-80 -197 -244.5 -315.5t-414.5 -118.5z" />
    <glyph glyph-name="cdotaccent" unicode="&#x10b;" horiz-adv-x="1191" 
d="M751.5 1235q-73.5 0 -111.5 45t-26 104q8 61 59.5 108.5t125.5 47.5q76 0 112.5 -46t26.5 -110q-10 -59 -61.5 -104t-125 -45zM600 -41q-98 0 -183 22.5t-165 73.5t-124 152.5t-40 243.5q8 303 216 481t484 178q188 0 296 -83t104 -216q-2 -82 -49 -136t-131 -54
q-66 0 -108 34.5t-42 98.5q0 10 8 49t8 53q0 45 -32.5 72.5t-93.5 27.5q-121 0 -218.5 -146t-105.5 -345q-8 -147 69.5 -232.5t206.5 -85.5q201 0 406 261l61 -50q-66 -168 -219 -283.5t-348 -115.5z" />
    <glyph glyph-name="Ccaron" unicode="&#x10c;" horiz-adv-x="1468" 
d="M936 1513l-289 293l62 82l268 -119l303 119l37 -82zM723 -41q-319 0 -476 233.5t-97 567.5q53 311 292.5 512t558.5 201q225 0 364.5 -110t113.5 -269q-14 -78 -65.5 -133.5t-127.5 -55.5q-84 0 -122 43t-42 103.5t-7 121t-39 103.5t-118 43q-129 0 -244.5 -159
t-156.5 -396q-113 -649 285 -649q242 0 436 340l104 -62q-80 -197 -244.5 -315.5t-414.5 -118.5z" />
    <glyph glyph-name="ccaron" unicode="&#x10d;" horiz-adv-x="1191" 
d="M731 1149l-289 293l62 82l268 -119l303 119l37 -82zM600 -41q-98 0 -183 22.5t-165 73.5t-124 152.5t-40 243.5q8 303 216 481t484 178q188 0 296 -83t104 -216q-2 -82 -49 -136t-131 -54q-66 0 -108 34.5t-42 98.5q0 10 8 49t8 53q0 45 -32.5 72.5t-93.5 27.5
q-121 0 -218.5 -146t-105.5 -345q-8 -147 69.5 -232.5t206.5 -85.5q201 0 406 261l61 -50q-66 -168 -219 -283.5t-348 -115.5z" />
    <glyph glyph-name="Dcaron" unicode="&#x10e;" horiz-adv-x="1531" 
d="M1243 1806l-381 -293l-289 293l64 82l266 -119l303 119zM889 1434q213 0 373.5 -96.5t233.5 -269.5t36 -386q-61 -352 -288.5 -517t-555.5 -165h-680l-2 80q111 31 137 178l162 916q25 150 -74 180l31 80h627zM1139 612q27 119 14.5 238t-49.5 214t-121 154.5t-203 59.5
q-20 0 -73 -4l-193 -1104q86 -16 180 -16q182 0 297 134t148 324z" />
    <glyph glyph-name="dcaron" unicode="&#x10f;" horiz-adv-x="1783" 
d="M1438 1606l-238 -1327q-14 -82 5.5 -128.5t70.5 -46.5q16 0 57 17l13 -70q-115 -92 -277 -92q-88 0 -150.5 40t-64.5 140h-10q-55 -84 -145.5 -132t-186.5 -48q-176 0 -277.5 109.5t-101.5 324.5q0 178 71.5 339t217 269.5t334.5 108.5q141 0 237 -84h13l26 145
q12 70 -14.5 117t-75.5 62l31 80q283 43 436 184zM1880 1473q102 0 155.5 -71t35.5 -196q-27 -160 -149 -305t-290 -225l-57 106q190 115 283 314l-5 6q-45 -20 -67 -21q-84 0 -133 56.5t-35 142.5t90 139.5t172 53.5zM649 164q74 0 143.5 62.5t104.5 183.5l78 442
q-59 70 -156 70q-119 0 -203 -87t-117.5 -200t-33.5 -229q0 -109 51 -175.5t133 -66.5z" />
    <glyph glyph-name="Dcroat" unicode="&#x110;" horiz-adv-x="1531" 
d="M874 1434q330 0 520.5 -214t139.5 -538q-57 -352 -282.5 -517t-553.5 -165h-678l-4 80q113 31 134 180l59 369h-213l27 176h215l59 371q20 147 -78 178l29 80h626zM1143 614q23 119 8.5 238t-53.5 214t-124 154.5t-202 59.5q-23 0 -76 -4l-73 -471h208l-26 -174h-211
l-74 -459q88 -16 182 -16q182 0 295 134t146 324z" />
    <glyph glyph-name="dcroat" unicode="&#x111;" horiz-adv-x="1366" 
d="M1356 1153l-156 -874q-14 -82 5.5 -128.5t70.5 -46.5q16 0 57 17l13 -70q-115 -92 -277 -92q-88 0 -150.5 40t-64.5 140h-8q-57 -84 -147.5 -132t-186.5 -48q-174 0 -276.5 109.5t-102.5 324.5q0 178 71.5 339t218 269.5t335.5 108.5q137 0 237 -84h11l22 127h-276
l18 115h256q-20 61 -84 82l31 80q283 43 436 184l29 -8l-62 -338h201l-14 -115h-207zM651 164q72 0 141.5 63.5t104.5 182.5l78 444q-61 68 -154 68q-119 0 -204 -87t-118.5 -200t-33.5 -229q0 -109 52 -175.5t134 -66.5z" />
    <glyph glyph-name="Emacron" unicode="&#x112;" horiz-adv-x="1363" 
d="M1229 1772l-27 -158h-633l27 158h633zM686 711q-43 0 -84 -31l-88 -504q139 -23 227 -22q92 0 180.5 27.5t150 67.5t109.5 80t72 68l23 27l76 -39l-148 -424h-28q-27 16 -124.5 27.5t-166.5 11.5h-877l-2 80q111 31 137 178l162 916q25 150 -74 180l31 80h1088l53 -361
l-88 -29q-2 10 -8.5 25.5t-36 55.5t-70.5 71t-123 56.5t-184 25.5q-82 0 -188 -18l-68 -386l6 -2q90 70 180 70q84 0 191.5 -66.5t169 -66.5t119.5 53l55 -61q-135 -221 -320 -221q-68 0 -182.5 65.5t-169.5 65.5z" />
    <glyph glyph-name="emacron" unicode="&#x113;" horiz-adv-x="1179" 
d="M1063 1407l-27 -158h-633l25 158h635zM664 147q135 0 237.5 58.5t214.5 181.5l53 -51q-207 -377 -602 -377q-92 0 -174 23.5t-153.5 75t-113.5 145.5t-42 219q0 276 189.5 482t506.5 206q182 0 289 -68.5t107 -199.5q0 -94 -57.5 -165t-168 -116t-236.5 -73.5t-298 -49.5
q2 -135 79 -213t169 -78zM750 956q-98 0 -197.5 -109.5t-126.5 -283.5q188 27 317 104.5t129 176.5q0 49 -33.5 80.5t-88.5 31.5z" />
    <glyph glyph-name="Ebreve" unicode="&#x114;" horiz-adv-x="1363" 
d="M858 1581q-121 0 -193.5 58.5t-93.5 150.5l113 59q12 -49 68.5 -78.5t132.5 -29.5t143.5 28.5t93.5 75.5l92 -55q-51 -92 -143 -150.5t-213 -58.5zM686 711q-43 0 -84 -31l-88 -504q139 -23 227 -22q92 0 180.5 27.5t150 67.5t109.5 80t72 68l23 27l76 -39l-148 -424h-28
q-27 16 -124.5 27.5t-166.5 11.5h-877l-2 80q111 31 137 178l162 916q25 150 -74 180l31 80h1088l53 -361l-88 -29q-2 10 -8.5 25.5t-36 55.5t-70.5 71t-123 56.5t-184 25.5q-82 0 -188 -18l-68 -386l6 -2q90 70 180 70q84 0 191.5 -66.5t169 -66.5t119.5 53l55 -61
q-135 -221 -320 -221q-68 0 -182.5 65.5t-169.5 65.5z" />
    <glyph glyph-name="ebreve" unicode="&#x115;" horiz-adv-x="1179" 
d="M749.5 1217q-120.5 0 -193.5 58t-93 150l112 60q12 -49 68.5 -79t130.5 -30q78 0 144.5 29t93.5 76l94 -56q-51 -92 -143.5 -150t-213 -58zM664 147q135 0 237.5 58.5t214.5 181.5l53 -51q-207 -377 -602 -377q-92 0 -174 23.5t-153.5 75t-113.5 145.5t-42 219
q0 276 189.5 482t506.5 206q182 0 289 -68.5t107 -199.5q0 -94 -57.5 -165t-168 -116t-236.5 -73.5t-298 -49.5q2 -135 79 -213t169 -78zM750 956q-98 0 -197.5 -109.5t-126.5 -283.5q188 27 317 104.5t129 176.5q0 49 -33.5 80.5t-88.5 31.5z" />
    <glyph glyph-name="Edotaccent" unicode="&#x116;" horiz-adv-x="1363" 
d="M866 1599q-74 0 -111.5 45.5t-25.5 104.5q8 61 59.5 108.5t124.5 47.5q76 0 113 -46.5t27 -109.5q-10 -59 -60.5 -104.5t-126.5 -45.5zM686 711q-43 0 -84 -31l-88 -504q139 -23 227 -22q92 0 180.5 27.5t150 67.5t109.5 80t72 68l23 27l76 -39l-148 -424h-28
q-27 16 -124.5 27.5t-166.5 11.5h-877l-2 80q111 31 137 178l162 916q25 150 -74 180l31 80h1088l53 -361l-88 -29q-2 10 -8.5 25.5t-36 55.5t-70.5 71t-123 56.5t-184 25.5q-82 0 -188 -18l-68 -386l6 -2q90 70 180 70q84 0 191.5 -66.5t169 -66.5t119.5 53l55 -61
q-135 -221 -320 -221q-68 0 -182.5 65.5t-169.5 65.5z" />
    <glyph glyph-name="edotaccent" unicode="&#x117;" horiz-adv-x="1179" 
d="M721 1235q-74 0 -111 45t-26 104q10 63 61 109.5t125 46.5q76 0 112 -46t27 -110q-12 -59 -62 -104t-126 -45zM664 147q135 0 237.5 58.5t214.5 181.5l53 -51q-207 -377 -602 -377q-92 0 -174 23.5t-153.5 75t-113.5 145.5t-42 219q0 276 189.5 482t506.5 206
q182 0 289 -68.5t107 -199.5q0 -94 -57.5 -165t-168 -116t-236.5 -73.5t-298 -49.5q2 -135 79 -213t169 -78zM750 956q-98 0 -197.5 -109.5t-126.5 -283.5q188 27 317 104.5t129 176.5q0 49 -33.5 80.5t-88.5 31.5z" />
    <glyph glyph-name="Eogonek" unicode="&#x118;" horiz-adv-x="1363" 
d="M1141 -309q74 0 135 78l86 -50q-125 -170 -303 -170q-119 0 -177.5 62.5t-41.5 157.5q20 137 153 231h-985l-2 80q111 31 137 178l162 916q25 150 -74 180l31 80h1088l53 -361l-88 -29q-2 10 -8.5 25.5t-36 55.5t-70.5 71t-123 56.5t-184 25.5q-82 0 -188 -18l-68 -386
l6 -2q90 70 180 70q84 0 191.5 -66.5t169 -66.5t119.5 53l55 -61q-135 -221 -320 -221q-68 0 -182.5 65.5t-169.5 65.5q-43 0 -84 -31l-88 -504q139 -23 227 -22q92 0 180.5 27.5t150 67.5t109.5 80t72 68l23 27l76 -39l-131 -385q-141 -86 -162 -209q-8 -43 16.5 -71.5
t65.5 -28.5z" />
    <glyph glyph-name="eogonek" unicode="&#x119;" horiz-adv-x="1179" 
d="M664 147q135 0 237.5 58.5t214.5 181.5l53 -51q-168 -309 -477 -367q-102 -76 -117 -178q-8 -43 15.5 -71.5t64.5 -28.5q74 0 136 78l88 -50q-125 -170 -306 -170q-117 0 -175 62.5t-44 157.5q18 115 113 198q-168 25 -275.5 135.5t-107.5 319.5q0 276 189.5 482
t506.5 206q182 0 289 -68.5t107 -199.5q0 -94 -57.5 -165t-168 -116t-236.5 -73.5t-298 -49.5q2 -135 79 -213t169 -78zM750 956q-98 0 -197.5 -109.5t-126.5 -283.5q188 27 317 104.5t129 176.5q0 49 -33.5 80.5t-88.5 31.5z" />
    <glyph glyph-name="Ecaron" unicode="&#x11a;" horiz-adv-x="1363" 
d="M1243 1806l-381 -293l-289 293l64 82l266 -119l303 119zM686 711q-43 0 -84 -31l-88 -504q139 -23 227 -22q92 0 180.5 27.5t150 67.5t109.5 80t72 68l23 27l76 -39l-148 -424h-28q-27 16 -124.5 27.5t-166.5 11.5h-877l-2 80q111 31 137 178l162 916q25 150 -74 180
l31 80h1088l53 -361l-88 -29q-2 10 -8.5 25.5t-36 55.5t-70.5 71t-123 56.5t-184 25.5q-82 0 -188 -18l-68 -386l6 -2q90 70 180 70q84 0 191.5 -66.5t169 -66.5t119.5 53l55 -61q-135 -221 -320 -221q-68 0 -182.5 65.5t-169.5 65.5z" />
    <glyph glyph-name="ecaron" unicode="&#x11b;" horiz-adv-x="1179" 
d="M1075 1442l-381 -293l-288 293l61 82l266 -119l303 119zM664 147q135 0 237.5 58.5t214.5 181.5l53 -51q-207 -377 -602 -377q-92 0 -174 23.5t-153.5 75t-113.5 145.5t-42 219q0 276 189.5 482t506.5 206q182 0 289 -68.5t107 -199.5q0 -94 -57.5 -165t-168 -116
t-236.5 -73.5t-298 -49.5q2 -135 79 -213t169 -78zM750 956q-98 0 -197.5 -109.5t-126.5 -283.5q188 27 317 104.5t129 176.5q0 49 -33.5 80.5t-88.5 31.5z" />
    <glyph glyph-name="Gcircumflex" unicode="&#x11c;" horiz-adv-x="1499" 
d="M944 1630l-305 -121l-37 82l383 293l287 -293l-62 -82zM1540 748l2 -80q-113 -31 -137 -179l-86 -489h-92l-74 117h-4q-158 -158 -426 -158q-213 0 -359.5 114.5t-199.5 296t-17 390.5q53 311 292 512t558 201q225 0 365.5 -110t112.5 -269q-12 -78 -63.5 -133.5
t-129.5 -55.5q-84 0 -121 43t-41 103.5t-7 121t-39 103.5t-118 43q-129 0 -244.5 -159t-156.5 -396q-55 -309 20.5 -479t247.5 -170q74 0 142 37l59 337q14 78 -10.5 119t-89.5 60l30 80h586z" />
    <glyph glyph-name="gcircumflex" unicode="&#x11d;" horiz-adv-x="1374" 
d="M1225 1319q68 0 110.5 -33t42.5 -96q0 -57 -34.5 -94t-98.5 -37q-41 0 -84 31.5t-69 31.5q-49 0 -95 -69q209 -106 164 -357q-33 -184 -190.5 -296.5t-388.5 -112.5q-139 0 -242 43q-51 -6 -57 -41q-10 -47 69 -70q59 -18 346 -57q233 -33 329.5 -110t76.5 -206
q-23 -147 -200 -223t-433 -78q-90 0 -175 13.5t-168 44t-131 93t-46 146.5q2 57 41 104.5t100 69.5v9q-96 74 -72 196q12 72 71 119t136 57v4q-117 111 -84 299q35 184 193 297t389 113q84 0 162 -16q35 53 47 67l-229 105l-304 -121l-39 82l383 293l269 -275q94 74 211 74z
M858 696q25 125 -22.5 195t-137.5 70q-94 0 -162.5 -71t-89.5 -190q-23 -123 23.5 -193.5t140.5 -70.5q92 0 160 71.5t88 188.5zM543 -111q-154 25 -269 54q-37 -2 -62.5 -30t-27.5 -67q-6 -68 83 -118t231 -47q137 0 209.5 31.5t72.5 74.5t-41.5 61t-195.5 41z" />
    <glyph glyph-name="Gbreve" unicode="&#x11e;" horiz-adv-x="1499" 
d="M946 1581q-121 0 -193.5 58.5t-93.5 150.5l113 59q12 -49 68.5 -78.5t132.5 -29.5t143.5 28.5t93.5 75.5l93 -55q-51 -92 -143.5 -150.5t-213.5 -58.5zM1540 748l2 -80q-113 -31 -137 -179l-86 -489h-92l-74 117h-4q-158 -158 -426 -158q-213 0 -359.5 114.5t-199.5 296
t-17 390.5q53 311 292 512t558 201q225 0 365.5 -110t112.5 -269q-12 -78 -63.5 -133.5t-129.5 -55.5q-84 0 -121 43t-41 103.5t-7 121t-39 103.5t-118 43q-129 0 -244.5 -159t-156.5 -396q-55 -309 20.5 -479t247.5 -170q74 0 142 37l59 337q14 78 -10.5 119t-89.5 60
l30 80h586z" />
    <glyph glyph-name="gbreve" unicode="&#x11f;" horiz-adv-x="1374" 
d="M678 1217q-121 0 -193.5 58t-93.5 150l113 60q12 -49 68.5 -79t129.5 -30q78 0 144.5 29t93.5 76l94 -56q-51 -92 -143 -150t-213 -58zM1225 1319q68 0 110.5 -33t42.5 -96q0 -57 -34.5 -94t-98.5 -37q-41 0 -84 31.5t-69 31.5q-49 0 -95 -69q209 -106 164 -357
q-33 -184 -190.5 -296.5t-388.5 -112.5q-139 0 -242 43q-51 -6 -57 -41q-10 -47 69 -70q59 -18 346 -57q233 -33 329.5 -110t76.5 -206q-23 -147 -200 -223t-433 -78q-90 0 -175 13.5t-168 44t-131 93t-46 146.5q2 57 41 104.5t100 69.5v9q-96 74 -72 196q12 72 71 119
t136 57v4q-117 111 -84 299q35 184 193 297t389 113q84 0 162 -16q78 123 159 174t179 51zM858 696q25 125 -22.5 195t-137.5 70q-94 0 -162.5 -71t-89.5 -190q-23 -123 23.5 -193.5t140.5 -70.5q92 0 160 71.5t88 188.5zM543 -111q-154 25 -269 54q-37 -2 -62.5 -30
t-27.5 -67q-6 -68 83 -118t231 -47q137 0 209.5 31.5t72.5 74.5t-41.5 61t-195.5 41z" />
    <glyph glyph-name="Gdotaccent" unicode="&#x120;" horiz-adv-x="1499" 
d="M952.5 1599q-73.5 0 -111.5 45.5t-26 104.5q8 61 59.5 108.5t124.5 47.5q76 0 113 -46.5t27 -109.5q-10 -59 -61.5 -104.5t-125 -45.5zM1540 748l2 -80q-113 -31 -137 -179l-86 -489h-92l-74 117h-4q-158 -158 -426 -158q-213 0 -359.5 114.5t-199.5 296t-17 390.5
q53 311 292 512t558 201q225 0 365.5 -110t112.5 -269q-12 -78 -63.5 -133.5t-129.5 -55.5q-84 0 -121 43t-41 103.5t-7 121t-39 103.5t-118 43q-129 0 -244.5 -159t-156.5 -396q-55 -309 20.5 -479t247.5 -170q74 0 142 37l59 337q14 78 -10.5 119t-89.5 60l30 80h586z" />
    <glyph glyph-name="gdotaccent" unicode="&#x121;" horiz-adv-x="1374" 
d="M692 1235q-74 0 -110.5 45t-26.5 104q10 63 61.5 109.5t124.5 46.5q76 0 112 -46t28 -110q-12 -59 -62.5 -104t-126.5 -45zM1225 1319q68 0 110.5 -33t42.5 -96q0 -57 -34.5 -94t-98.5 -37q-41 0 -84 31.5t-69 31.5q-49 0 -95 -69q209 -106 164 -357
q-33 -184 -190.5 -296.5t-388.5 -112.5q-139 0 -242 43q-51 -6 -57 -41q-10 -47 69 -70q59 -18 346 -57q233 -33 329.5 -110t76.5 -206q-23 -147 -200 -223t-433 -78q-90 0 -175 13.5t-168 44t-131 93t-46 146.5q2 57 41 104.5t100 69.5v9q-96 74 -72 196q12 72 71 119
t136 57v4q-117 111 -84 299q35 184 193 297t389 113q84 0 162 -16q78 123 159 174t179 51zM858 696q25 125 -22.5 195t-137.5 70q-94 0 -162.5 -71t-89.5 -190q-23 -123 23.5 -193.5t140.5 -70.5q92 0 160 71.5t88 188.5zM543 -111q-154 25 -269 54q-37 -2 -62.5 -30
t-27.5 -67q-6 -68 83 -118t231 -47q137 0 209.5 31.5t72.5 74.5t-41.5 61t-195.5 41z" />
    <glyph glyph-name="uni0122" unicode="&#x122;" horiz-adv-x="1499" 
d="M1540 748l2 -80q-113 -31 -137 -179l-86 -489h-92l-74 117h-4q-158 -158 -426 -158q-213 0 -359.5 114.5t-199.5 296t-17 390.5q53 311 292 512t558 201q225 0 365.5 -110t112.5 -269q-12 -78 -63.5 -133.5t-129.5 -55.5q-84 0 -121 43t-41 103.5t-7 121t-39 103.5
t-118 43q-129 0 -244.5 -159t-156.5 -396q-55 -309 20.5 -479t247.5 -170q74 0 142 37l59 337q14 78 -10.5 119t-89.5 60l30 80h586zM686 -92q102 0 155.5 -73t32.5 -193q-27 -162 -147.5 -307.5t-288.5 -223.5l-55 105q188 113 281 315l-5 6q-45 -20 -69 -20q-82 0 -131 55
t-35 141t90 140.5t172 54.5z" />
    <glyph glyph-name="uni0123" unicode="&#x123;" horiz-adv-x="1374" 
d="M692 1237q-102 0 -155.5 71.5t-32.5 194.5q27 160 148.5 305.5t289.5 225.5l53 -107q-184 -109 -280 -313l4 -6q45 20 69 20q84 0 133.5 -55t35 -141t-91.5 -140.5t-173 -54.5zM1225 1319q68 0 110.5 -33t42.5 -96q0 -57 -34.5 -94t-98.5 -37q-41 0 -84 31.5t-69 31.5
q-49 0 -95 -69q209 -106 164 -357q-33 -184 -190.5 -296.5t-388.5 -112.5q-139 0 -242 43q-51 -6 -57 -41q-10 -47 69 -70q59 -18 346 -57q233 -33 329.5 -110t76.5 -206q-23 -147 -200 -223t-433 -78q-90 0 -175 13.5t-168 44t-131 93t-46 146.5q2 57 41 104.5t100 69.5v9
q-96 74 -72 196q12 72 71 119t136 57v4q-117 111 -84 299q35 184 193 297t389 113q84 0 162 -16q78 123 159 174t179 51zM858 696q25 125 -22.5 195t-137.5 70q-94 0 -162.5 -71t-89.5 -190q-23 -123 23.5 -193.5t140.5 -70.5q92 0 160 71.5t88 188.5zM543 -111
q-154 25 -269 54q-37 -2 -62.5 -30t-27.5 -67q-6 -68 83 -118t231 -47q137 0 209.5 31.5t72.5 74.5t-41.5 61t-195.5 41z" />
    <glyph glyph-name="Hcircumflex" unicode="&#x124;" horiz-adv-x="1617" 
d="M1026 1630l-303 -121l-39 82l383 293l287 -293l-62 -82zM1731 1434l2 -80q-111 -31 -136 -180l-161 -916q-29 -147 73 -178l-30 -80h-564l-2 80q51 14 88 60t50 118l67 379h-524l-66 -379q-29 -147 74 -178l-31 -80h-563l-2 80q111 31 137 178l160 916q27 150 -74 180
l31 80h563l2 -80q-113 -31 -137 -180l-63 -359h524l63 359q27 150 -73 180l30 80h562z" />
    <glyph glyph-name="hcircumflex" unicode="&#x125;" horiz-adv-x="1288" 
d="M606 1761l-303 -119l-39 82l383 293l287 -293l-62 -82zM1325 121l10 -70q-115 -92 -260 -92q-45 0 -84 9t-76.5 33t-54 73t-4.5 119l107 499q23 98 -12.5 155.5t-114.5 57.5q-100 0 -190.5 -116.5t-121.5 -278.5q-25 -133 -37 -260t-12 -189l2 -61h-371l207 1171
q12 70 -13.5 117t-74.5 62l31 80q281 43 436 184l27 -8l-129 -715h18q150 217 385 217q170 0 256 -113.5t37 -326.5l-86 -389q-39 -174 70 -175q18 1 55 17z" />
    <glyph glyph-name="Hbar" unicode="&#x126;" horiz-adv-x="1617" 
d="M1561 973l-113 -713q-25 -150 78 -180l-31 -80h-561l-4 80q109 31 135 180l59 379h-524l-61 -379q-20 -150 77 -180l-28 -80h-563l-5 80q111 31 136 180l112 713h-180l16 114h183l14 89q20 147 -78 178l29 80h563l4 -80q-111 -31 -133 -178l-14 -89h522l14 89
q25 147 -78 178l31 80h561l4 -80q-109 -31 -133 -178l-14 -89h176l-14 -114h-180zM629 815h522l25 158h-523z" />
    <glyph glyph-name="hbar" unicode="&#x127;" horiz-adv-x="1288" 
d="M1325 121l10 -70q-115 -92 -260 -92q-45 0 -84 9t-76.5 33t-54 73t-4.5 119l107 499q23 98 -12.5 155.5t-114.5 57.5q-100 0 -190.5 -116.5t-121.5 -278.5q-25 -133 -37 -260t-12 -189l2 -61h-371l203 1153h-209l17 115h192q-20 61 -84 82l31 80q281 43 436 184l27 -8
l-62 -338h269l-17 -115h-272l-47 -262h18q150 217 385 217q170 0 256 -113.5t37 -326.5l-86 -389q-39 -174 70 -175q18 1 55 17z" />
    <glyph glyph-name="Itilde" unicode="&#x128;" horiz-adv-x="735" 
d="M698 1608q-63 0 -143 50t-119 50q-66 0 -94 -78l-102 27q33 127 99.5 180t139.5 53q63 0 145.5 -49t120.5 -49q66 0 97 76l96 -25q-33 -127 -98.5 -181t-141.5 -54zM23 0l-5 80q113 31 138 178l161 916q25 150 -73 180l30 80h564l2 -80q-111 -31 -138 -180l-161 -916
q-25 -147 73 -178l-30 -80h-561z" />
    <glyph glyph-name="itilde" unicode="&#x129;" horiz-adv-x="774" 
d="M621 1243q-63 0 -143.5 50t-119.5 50q-66 0 -94 -77l-102 26q33 127 99.5 180.5t139.5 53.5q63 0 145.5 -49.5t121.5 -49.5q66 0 96 76l96 -24q-33 -127 -98 -181.5t-141 -54.5zM348 -41q-98 0 -163.5 51t-47.5 183l84 481q12 72 -14.5 118t-75.5 60l31 82
q289 45 438 184l27 -10l-148 -829q-14 -82 5.5 -128.5t68.5 -46.5q18 0 59 17l13 -70q-115 -92 -277 -92z" />
    <glyph glyph-name="Imacron" unicode="&#x12a;" horiz-adv-x="735" 
d="M289 1614l24 158h633l-24 -158h-633zM23 0l-5 80q113 31 138 178l161 916q25 150 -73 180l30 80h564l2 -80q-111 -31 -138 -180l-161 -916q-25 -147 73 -178l-30 -80h-561z" />
    <glyph glyph-name="imacron" unicode="&#x12b;" horiz-adv-x="571" 
d="M158 1249l24 158h633l-24 -158h-633zM348 -41q-98 0 -163.5 51t-47.5 183l84 481q12 72 -14.5 118t-75.5 60l31 82q289 45 438 184l27 -10l-148 -829q-14 -82 5.5 -128.5t68.5 -46.5q18 0 59 17l13 -70q-115 -92 -277 -92z" />
    <glyph glyph-name="Iogonek" unicode="&#x12e;" horiz-adv-x="735" 
d="M838 1434l2 -80q-111 -31 -138 -180l-161 -916q-25 -147 73 -178l-30 -80h-152q-141 -88 -160 -209q-8 -43 15.5 -71.5t64.5 -28.5q74 0 135 78l88 -50q-125 -170 -305 -170q-117 0 -175 62.5t-44 157.5q20 137 154 231h-182l-5 80q113 31 138 178l161 916
q25 150 -73 180l30 80h564z" />
    <glyph glyph-name="iogonek" unicode="&#x12f;" horiz-adv-x="602" 
d="M446 1176q-96 0 -151 58t-55 136t55 136.5t151 58.5q94 0 151.5 -58.5t57.5 -136.5t-57.5 -136t-151.5 -58zM627 1108l-148 -829q-14 -82 5.5 -128.5t68.5 -46.5q18 0 59 17l13 -70q-111 -88 -267 -92q-88 -74 -102 -168q-8 -43 15.5 -71.5t64.5 -28.5q74 0 135 78
l88 -50q-125 -170 -305 -170q-117 0 -175.5 62.5t-43.5 157.5q20 139 158 233q-74 59 -56 191l84 481q12 72 -14.5 118t-75.5 60l31 82q289 45 438 184z" />
    <glyph glyph-name="Idotaccent" unicode="&#x130;" horiz-adv-x="722" 
d="M559 1599q-74 0 -111.5 45.5t-25.5 104.5q8 61 59 108.5t125 47.5q76 0 113 -46.5t26 -109.5q-10 -59 -60 -104.5t-126 -45.5zM10 0l-4 80q111 31 137 178l162 916q25 150 -74 180l31 80h563l2 -80q-113 -31 -137 -180l-162 -916q-27 -147 74 -178l-31 -80h-561z" />
    <glyph glyph-name="dotlessi" unicode="&#x131;" horiz-adv-x="579" 
d="M348 -41q-98 0 -163.5 51t-47.5 183l84 481q12 72 -14.5 118t-75.5 60l31 82q289 45 438 184l27 -10l-148 -829q-14 -82 5.5 -128.5t68.5 -46.5q18 0 59 17l13 -70q-115 -92 -277 -92z" />
    <glyph glyph-name="IJ" unicode="&#x132;" horiz-adv-x="1400" 
d="M14 0l-2 80q111 31 135 178l162 916q27 150 -71 180l28 80h563l2 -80q-111 -31 -135 -180l-164 -916q-25 -147 74 -178l-31 -80h-561zM553 -471q-172 0 -246 63.5t-55 161.5q12 70 65.5 114t122.5 44q66 0 100.5 -32t41 -69.5t20.5 -69.5t43 -32q100 0 148 281l208 1184
q25 150 -73 180l30 80h564l2 -80q-113 -31 -138 -180l-194 -1102q-27 -147 -89.5 -256t-151.5 -170.5t-187 -89t-211 -27.5z" />
    <glyph glyph-name="ij" unicode="&#x133;" horiz-adv-x="1218" 
d="M430 1176q-94 0 -150.5 58t-56.5 136t56.5 136.5t150.5 58.5q96 0 153.5 -58.5t57.5 -136.5t-57.5 -136t-153.5 -58zM1063 1176q-96 0 -151.5 58t-55.5 136t55.5 136.5t151.5 58.5q94 0 151.5 -58.5t57.5 -136.5t-57.5 -136t-151.5 -58zM334 -41q-100 0 -166 51t-45 183
l84 481q12 72 -14.5 118t-75.5 60l30 82q287 45 439 184l26 -10l-147 -829q-33 -174 74 -175q20 0 57 17l14 -70q-114 -92 -276 -92zM481 -455q-154 0 -233.5 58.5t-73.5 136.5q12 119 133 119q49 0 82 -24.5t47.5 -54.5t43 -54.5t71.5 -24.5q92 0 119 149l135 824
q12 72 -15.5 119t-76.5 59l30 82q287 43 439 182l28 -8l-200 -1139q-74 -424 -529 -424z" />
    <glyph glyph-name="Jcircumflex" unicode="&#x134;" horiz-adv-x="651" 
d="M233 1509l-36 82l381 293l286 -293l-61 -82l-264 121zM-174 -471q-172 0 -246 63.5t-55 161.5q12 70 65.5 114t122.5 44q66 0 100.5 -32t41 -69.5t20.5 -69.5t43 -32q53 0 87 66.5t61 214.5l208 1184q25 150 -73 180l30 80h564l2 -80q-113 -31 -138 -180l-194 -1102
q-27 -147 -90.5 -256t-152.5 -170.5t-187 -89t-209 -27.5z" />
    <glyph glyph-name="jcircumflex" unicode="&#x135;" horiz-adv-x="765" 
d="M188 1145l-38 82l382 293l287 -293l-61 -82l-266 121zM-68 -455q-154 0 -234.5 58.5t-74.5 136.5q12 119 135 119q49 0 82 -24.5t47.5 -54.5t43 -54.5t71.5 -24.5q94 0 117 149l135 824q12 72 -14.5 118t-75.5 60l31 82q289 45 438 182l29 -8l-201 -1139
q-74 -424 -529 -424z" />
    <glyph glyph-name="uni0136" unicode="&#x136;" horiz-adv-x="1679" 
d="M1473 1473q150 0 223 -59.5t63 -166.5q-6 -82 -57 -126t-113 -44q-92 0 -176 57.5t-141 57.5q-100 0 -260 -168l411 -766q84 -154 183 -178l-29 -80h-633l-2 80q43 14 53.5 58t-24.5 120l-226 406h-10q-98 -147 -190 -312l-17 -94q-27 -147 74 -178l-31 -80h-561l-4 80
q111 31 137 178l162 916q25 150 -74 180l31 80h563l2 -80q-113 -31 -137 -180l-67 -381h8q215 315 431 497.5t411 182.5zM788 -92q102 0 155.5 -73t33.5 -193q-27 -160 -148.5 -306.5t-289.5 -224.5l-54 105q188 113 281 315l-4 6q-45 -20 -70 -20q-84 0 -133 54t-35 142
q14 86 91 140.5t173 54.5z" />
    <glyph glyph-name="uni0137" unicode="&#x137;" horiz-adv-x="1337" 
d="M1329 190l39 -71q-147 -160 -350 -160q-172 0 -289 126t-158 335h-26q-66 -203 -64 -420h-379l207 1171q14 70 -12.5 117t-75.5 62l31 80q283 43 436 184l29 -8l-154 -858h15q125 188 277.5 276t291.5 88q96 0 155.5 -45t59.5 -123q0 -139 -131 -268t-330 -199
q55 -193 127 -267.5t164 -74.5q59 0 137 55zM922 838q-88 0 -177.5 -82t-154.5 -221q166 4 280.5 71.5t114.5 171.5q0 25 -16 42.5t-47 17.5zM678 -92q102 0 155.5 -73t32.5 -193q-27 -160 -148.5 -306.5t-289.5 -224.5l-53 105q188 113 280 315l-4 6q-45 -20 -69 -20
q-84 0 -133.5 54t-34.5 142q14 86 91 140.5t173 54.5z" />
    <glyph glyph-name="kgreenlandic" unicode="&#x138;" horiz-adv-x="1337" 
d="M1329 190l39 -71q-147 -160 -350 -160q-172 0 -289 126t-158 335h-26q-66 -203 -64 -420h-379l119 676q12 70 -14.5 118t-73.5 60l31 82q281 39 436 182l29 -8l-66 -362h15q125 188 277.5 276t291.5 88q96 0 155.5 -45t59.5 -123q0 -139 -131 -268t-330 -199
q55 -193 127 -267.5t164 -74.5q59 0 137 55zM922 838q-88 0 -177.5 -82t-154.5 -221q166 4 280.5 71.5t114.5 171.5q0 25 -16 42.5t-47 17.5z" />
    <glyph glyph-name="Lacute" unicode="&#x139;" horiz-adv-x="1308" 
d="M809 1704l-317 -184l-70 63l256 264q82 82 153 82q43 0 68 -28.5t16 -67.5q-12 -78 -106 -129zM1311 424l75 -39l-145 -424h-29q-27 16 -125 27.5t-167 11.5h-910l-4 80q111 31 137 178l162 916q25 150 -74 180l31 80h563l2 -80q-113 -31 -137 -180l-176 -992
q147 -29 262 -28q92 0 181.5 27.5t149.5 67.5t108.5 80t70.5 68z" />
    <glyph glyph-name="lacute" unicode="&#x13a;" horiz-adv-x="669" 
d="M485 1645l-69 63l254 264q45 43 77.5 62.5t75.5 19.5t69 -28.5t17 -67.5q-12 -78 -106 -129zM367 -41q-100 0 -166 51t-45 183l172 978q12 70 -14.5 117t-75.5 62l30 80q283 43 439 184l28 -8l-237 -1327q-16 -82 3 -128.5t70 -46.5q20 0 58 17l14 -70q-116 -92 -276 -92
z" />
    <glyph glyph-name="uni013B" unicode="&#x13b;" horiz-adv-x="1308" 
d="M1311 424l75 -39l-145 -424h-29q-27 16 -125 27.5t-167 11.5h-910l-4 80q111 31 137 178l162 916q25 150 -74 180l31 80h563l2 -80q-113 -31 -137 -180l-176 -992q147 -29 262 -28q92 0 181.5 27.5t149.5 67.5t108.5 80t70.5 68zM694 -92q102 0 155.5 -73t33.5 -193
q-27 -162 -148 -307.5t-289 -223.5l-55 105q188 113 281 315l-4 6q-45 -20 -70 -20q-82 0 -131 55t-35 141t90 140.5t172 54.5z" />
    <glyph glyph-name="uni013C" unicode="&#x13c;" horiz-adv-x="669" 
d="M571 104q20 0 58 17l14 -70q-117 -92 -276 -92q-100 0 -166 51t-45 183l172 978q12 70 -14.5 117t-75.5 62l30 80q283 43 439 184l28 -8l-237 -1327q-16 -82 3 -128.5t70 -46.5zM330 -92q102 0 155.5 -73t32.5 -193q-27 -162 -147.5 -307.5t-288.5 -223.5l-55 105
q188 113 280 315l-4 6q-45 -20 -70 -20q-82 0 -131 55t-34.5 141t90.5 140.5t172 54.5z" />
    <glyph glyph-name="Lcaron" unicode="&#x13d;" horiz-adv-x="1308" 
d="M1300 1473q102 0 155.5 -72t33.5 -195q-27 -160 -147.5 -305t-288.5 -225l-58 106q190 115 281 314l-4 6q-45 -20 -68 -21q-84 0 -133 55.5t-35 143.5q14 86 91 139.5t173 53.5zM776 154q92 0 181.5 27.5t149.5 67.5t108.5 80t70.5 68l25 27l75 -39l-145 -424h-29
q-27 16 -125 27.5t-167 11.5h-910l-4 80q111 31 137 178l162 916q25 150 -74 180l31 80h563l2 -80q-113 -31 -137 -180l-176 -992q147 -28 262 -28z" />
    <glyph glyph-name="lcaron" unicode="&#x13e;" horiz-adv-x="1083" 
d="M571 104q20 0 58 17l14 -70q-117 -92 -276 -92q-100 0 -166 51t-45 183l172 978q12 70 -14.5 117t-75.5 62l30 80q283 43 439 184l28 -8l-237 -1327q-16 -82 3 -128.5t70 -46.5zM1038 1473q102 0 155.5 -72t33.5 -195q-27 -160 -149 -305t-290 -225l-55 106
q190 115 281 314l-4 6q-45 -20 -68 -21q-84 0 -133 55.5t-35 143.5q14 86 91 139.5t173 53.5z" />
    <glyph glyph-name="Ldot" unicode="&#x13f;" horiz-adv-x="1308" 
d="M1311 424l75 -39l-145 -424h-29q-27 16 -125 27.5t-167 11.5h-910l-4 80q111 31 137 178l162 916q25 150 -74 180l31 80h563l2 -80q-113 -31 -137 -180l-176 -992q147 -29 262 -28q92 0 181.5 27.5t149.5 67.5t108.5 80t70.5 68zM954 600q-90 0 -144 60.5t-40 154.5
q16 94 90 154.5t164 60.5q92 0 145.5 -60.5t36.5 -154.5q-14 -94 -87 -154.5t-165 -60.5z" />
    <glyph glyph-name="ldot" unicode="&#x140;" horiz-adv-x="1028" 
d="M367 -41q-100 0 -166 51t-45 183l172 978q12 70 -14.5 117t-75.5 62l30 80q283 43 439 184l28 -8l-237 -1327q-16 -82 3 -128.5t70 -46.5q20 0 58 17l14 -70q-116 -92 -276 -92zM881 532q-92 0 -145.5 60.5t-39.5 155.5q16 94 89 153.5t165 59.5q90 0 144.5 -59.5
t38 -154t-89 -155t-162.5 -60.5z" />
    <glyph glyph-name="Lslash" unicode="&#x141;" horiz-adv-x="1261" 
d="M1249 457l78 -39l-213 -457h-29q-27 16 -123 27.5t-167 11.5h-772l-5 80q111 31 136 180l51 326l-203 -111l16 115l205 110l76 476q20 147 -78 178l29 80h563l4 -80q-111 -31 -133 -178l-39 -248l201 108l-19 -114l-200 -109l-103 -643q104 -14 176 -14q92 0 182.5 30.5
t154 75.5t113.5 89t75 75z" />
    <glyph glyph-name="lslash" unicode="&#x142;" horiz-adv-x="669" 
d="M735 1606l-153 -861l135 74l-19 -114l-137 -74l-63 -352q-16 -82 3 -128.5t70 -46.5q20 0 58 17l14 -70q-117 -92 -276 -92q-100 0 -166 51t-45 183l43 243l-140 -76l19 113l141 76l109 622q12 70 -14.5 117t-75.5 62l30 80q283 43 439 184z" />
    <glyph glyph-name="Nacute" unicode="&#x143;" horiz-adv-x="1488" 
d="M1196 1704l-317 -184l-70 63l254 264q82 82 154 82q43 0 67.5 -28.5t18.5 -67.5q-13 -76 -107 -129zM1608 1434l2 -80q-111 -31 -137 -180l-207 -1174h-185q-14 106 -72.5 201.5t-138 173.5t-161.5 155.5t-162 182t-123 219.5h-10l-119 -674q-25 -147 76 -178l-31 -80
h-334l-2 80q113 31 137 178l162 916q25 150 -76 180l31 80h322q53 -127 127.5 -240t145.5 -189.5t137.5 -148.5t122.5 -148.5t85 -156.5h8l111 623q25 150 -74 180l31 80h334z" />
    <glyph glyph-name="nacute" unicode="&#x144;" horiz-adv-x="1296" 
d="M969 1339l-318 -184l-69 64l254 264q82 82 153 82q43 0 67.5 -29t18.5 -68q-12 -76 -106 -129zM1348 121l8 -70q-117 -92 -279 -92q-98 0 -161.5 51t-38.5 183l104 499q23 98 -10 155.5t-113 57.5q-100 0 -191.5 -116.5t-121.5 -278.5q-27 -133 -38 -260t-11 -189l2 -61
h-371l121 674q12 72 -15.5 119t-76.5 59l30 82q291 45 441 184l26 -10l-41 -217h15q154 217 387 217q172 0 257 -112.5t36 -327.5l-86 -389q-39 -174 67 -175q19 1 60 17z" />
    <glyph glyph-name="uni0145" unicode="&#x145;" horiz-adv-x="1488" 
d="M1608 1434l2 -80q-111 -31 -137 -180l-207 -1174h-185q-14 106 -72.5 201.5t-138 173.5t-161.5 155.5t-162 182t-123 219.5h-10l-119 -674q-25 -147 76 -178l-31 -80h-334l-2 80q113 31 137 178l162 916q25 150 -76 180l31 80h322q53 -127 127.5 -240t145.5 -189.5
t137.5 -148.5t122.5 -148.5t85 -156.5h8l111 623q25 150 -74 180l31 80h334zM686 -92q102 0 155.5 -73t32.5 -193q-27 -162 -147.5 -307.5t-288.5 -223.5l-55 105q188 113 281 315l-5 6q-45 -20 -69 -20q-82 0 -131 55t-35 141t90 140.5t172 54.5z" />
    <glyph glyph-name="uni0146" unicode="&#x146;" horiz-adv-x="1296" 
d="M1348 121l8 -70q-117 -92 -279 -92q-98 0 -161.5 51t-38.5 183l104 499q23 98 -10 155.5t-113 57.5q-100 0 -191.5 -116.5t-121.5 -278.5q-27 -133 -38 -260t-11 -189l2 -61h-371l121 674q12 72 -15.5 119t-76.5 59l30 82q291 45 441 184l26 -10l-41 -217h15
q154 217 387 217q172 0 257 -112.5t36 -327.5l-86 -389q-39 -174 67 -175q19 1 60 17zM698 -92q102 0 155.5 -73t33.5 -193q-27 -162 -148 -307.5t-288 -223.5l-56 105q188 113 281 315l-4 6q-45 -20 -70 -20q-82 0 -131 55t-34.5 141t90 140.5t171.5 54.5z" />
    <glyph glyph-name="Ncaron" unicode="&#x147;" horiz-adv-x="1488" 
d="M1341 1806l-380 -293l-289 293l63 82l266 -119l304 119zM1608 1434l2 -80q-111 -31 -137 -180l-207 -1174h-185q-14 106 -72.5 201.5t-138 173.5t-161.5 155.5t-162 182t-123 219.5h-10l-119 -674q-25 -147 76 -178l-31 -80h-334l-2 80q113 31 137 178l162 916
q25 150 -76 180l31 80h322q53 -127 127.5 -240t145.5 -189.5t137.5 -148.5t122.5 -148.5t85 -156.5h8l111 623q25 150 -74 180l31 80h334z" />
    <glyph glyph-name="ncaron" unicode="&#x148;" horiz-adv-x="1296" 
d="M1204 1442l-381 -293l-286 293l61 82l266 -119l303 119zM1348 121l8 -70q-117 -92 -279 -92q-98 0 -161.5 51t-38.5 183l104 499q23 98 -10 155.5t-113 57.5q-100 0 -191.5 -116.5t-121.5 -278.5q-27 -133 -38 -260t-11 -189l2 -61h-371l121 674q12 72 -15.5 119
t-76.5 59l30 82q291 45 441 184l26 -10l-41 -217h15q154 217 387 217q172 0 257 -112.5t36 -327.5l-86 -389q-39 -174 67 -175q19 1 60 17z" />
    <glyph glyph-name="napostrophe" unicode="&#x149;" horiz-adv-x="1525" 
d="M313 1473q102 0 155.5 -72t33.5 -195q-27 -160 -148 -305t-288 -225l-58 106q190 115 281 314l-4 6q-41 -20 -68 -21q-82 0 -131 56.5t-34.5 142.5t90 139.5t171.5 53.5zM1577 121l8 -70q-117 -92 -278 -92q-98 0 -162 51t-39 183l104 499q23 98 -10 155.5t-113 57.5
q-100 0 -191 -116.5t-122 -278.5q-27 -133 -38 -260t-11 -189l2 -61h-371l121 674q12 72 -15.5 119t-76.5 59l31 82q291 45 440 184l27 -10l-41 -217h14q154 217 387 217q172 0 257 -112.5t36 -327.5l-86 -389q-39 -174 68 -175q18 1 59 17z" />
    <glyph glyph-name="Eng" unicode="&#x14a;" horiz-adv-x="1548" 
d="M1655 1434l4 -80q-51 -14 -87 -60.5t-46 -117.5l-193 -1213q-72 -434 -446 -434q-141 0 -225 57.5t-68 151.5q8 59 51 98t100.5 39t87 -30.5t34.5 -66.5t31 -66.5t77 -30.5q154 0 199 282l8 49q-18 104 -83 197.5t-151 171.5t-175 154.5t-172 180t-128 216.5h-10
l-107 -672q-20 -150 78 -180l-28 -80h-334l-4 80q113 31 133 180l147 916q20 147 -78 178l29 80h303q57 -127 136 -238t155 -186.5t147.5 -144t131 -146.5t90.5 -158h6l98 615q23 147 -78 178l29 80h338z" />
    <glyph glyph-name="eng" unicode="&#x14b;" horiz-adv-x="1284" 
d="M1016 1108q170 0 254 -112.5t39 -327.5l-135 -725q-33 -182 -158 -291t-342 -109q-145 0 -238.5 63.5t-79.5 162.5q8 57 50.5 98t105.5 41q61 0 82.5 -40t15.5 -89t8.5 -89t63.5 -40q57 0 93 81t65 222l143 739q20 100 -12.5 156.5t-112.5 56.5q-100 0 -190 -116.5
t-123 -278.5q-25 -133 -37 -260t-12 -189l2 -61h-369l119 674q12 72 -14.5 118t-75.5 60l30 82q289 45 439 184l28 -10l-41 -217h15q154 217 387 217z" />
    <glyph glyph-name="Omacron" unicode="&#x14c;" horiz-adv-x="1591" 
d="M754 1614l24 158h635l-27 -158h-632zM737 -41q-190 0 -338.5 92t-219 266.5t-34.5 391.5q59 342 295 553t561 211q297 0 471.5 -217.5t114.5 -548.5q-57 -332 -299 -540t-551 -208zM764 115q139 0 265 172t171 434q47 264 -18.5 430t-206.5 166q-139 0 -264 -165
t-172 -429q-47 -266 15.5 -437t209.5 -171z" />
    <glyph glyph-name="omacron" unicode="&#x14d;" horiz-adv-x="1249" 
d="M410 1249l24 158h635l-27 -158h-632zM578 -41q-258 0 -389.5 163t-94.5 417q35 254 212 412.5t433 158.5t387 -161t95 -417q-35 -254 -212 -413.5t-431 -159.5zM600 115q104 0 183 116.5t106 300.5q27 186 -20.5 305t-152 119t-184 -116.5t-106.5 -300.5
q-29 -184 19.5 -304t154.5 -120z" />
    <glyph glyph-name="Obreve" unicode="&#x14e;" horiz-adv-x="1591" 
d="M1042 1581q-119 0 -192.5 58.5t-91.5 150.5l110 59q12 -49 68.5 -78.5t132.5 -29.5t143.5 28.5t94.5 75.5l92 -55q-51 -92 -143.5 -150.5t-213.5 -58.5zM737 -41q-190 0 -338.5 92t-219 266.5t-34.5 391.5q59 342 295 553t561 211q297 0 471.5 -217.5t114.5 -548.5
q-57 -332 -299 -540t-551 -208zM764 115q139 0 265 172t171 434q47 264 -18.5 430t-206.5 166q-139 0 -264 -165t-172 -429q-47 -266 15.5 -437t209.5 -171z" />
    <glyph glyph-name="obreve" unicode="&#x14f;" horiz-adv-x="1249" 
d="M758 1217q-121 0 -193.5 58t-93.5 150l113 60q12 -49 68.5 -79t129.5 -30q78 0 144.5 29t93.5 76l94 -56q-51 -92 -143 -150t-213 -58zM578 -41q-258 0 -389.5 163t-94.5 417q35 254 212 412.5t433 158.5t387 -161t95 -417q-35 -254 -212 -413.5t-431 -159.5zM600 115
q104 0 183 116.5t106 300.5q27 186 -20.5 305t-152 119t-184 -116.5t-106.5 -300.5q-29 -184 19.5 -304t154.5 -120z" />
    <glyph glyph-name="Ohungarumlaut" unicode="&#x150;" horiz-adv-x="1591" 
d="M811 1505l-100 45q115 213 153 289q49 106 137 107q47 0 70 -31t19 -72q-6 -39 -64 -104zM1120 1505l-98 45q113 213 152 289q53 106 137 107q49 0 71.5 -31t16.5 -72t-62 -104zM737 -41q-190 0 -338.5 92t-219 266.5t-34.5 391.5q59 342 295 553t561 211
q297 0 471.5 -217.5t114.5 -548.5q-57 -332 -299 -540t-551 -208zM764 115q139 0 265 172t171 434q47 264 -18.5 430t-206.5 166q-139 0 -264 -165t-172 -429q-47 -266 15.5 -437t209.5 -171z" />
    <glyph glyph-name="ohungarumlaut" unicode="&#x151;" horiz-adv-x="1249" 
d="M559 1141l-98 45q115 213 151 289q53 106 140 106q47 0 69.5 -30.5t16 -71.5t-61.5 -105zM870 1141l-100 45q115 213 154 289q49 106 137 106q47 0 69.5 -30.5t18.5 -71.5q-6 -39 -64 -105zM578 -41q-258 0 -389.5 163t-94.5 417q35 254 212 412.5t433 158.5t387 -161
t95 -417q-35 -254 -212 -413.5t-431 -159.5zM600 115q104 0 183 116.5t106 300.5q27 186 -20.5 305t-152 119t-184 -116.5t-106.5 -300.5q-29 -184 19.5 -304t154.5 -120z" />
    <glyph glyph-name="OE" unicode="&#x152;" horiz-adv-x="2316" 
d="M1638 711q-37 0 -71 -25l-84 -512q119 -20 217 -20q92 0 181 27.5t149.5 67.5t108.5 80t73 68l22 27l76 -39l-149 -424h-29q-29 16 -124 27.5t-169 11.5h-840q-137 -39 -288 -39q-293 0 -474.5 212t-130.5 538q53 342 285 553t555 211q139 0 275 -41h1087l49 -361
l-88 -29q-2 10 -8 25.5t-36 55.5t-72 71t-123.5 56.5t-184.5 25.5q-80 0 -186 -18l-62 -388q90 70 179 70q86 0 193.5 -66.5t166.5 -66.5q61 0 119 53l55 -61q-135 -221 -317 -221q-66 0 -183 65.5t-172 65.5zM1112 258l137 846q-90 219 -354 219q-158 0 -269.5 -134
t-138.5 -312q-31 -190 1 -362.5t131.5 -286t248.5 -113.5q131 0 228 84q8 18 16 59z" />
    <glyph glyph-name="oe" unicode="&#x153;" horiz-adv-x="2373" 
d="M1858 147q135 0 237.5 58.5t214.5 181.5l53 -51q-205 -377 -600 -377q-264 0 -377 199h-12q-164 -197 -436 -197q-258 0 -390 162t-95 416q35 254 211 412.5t432 158.5q274 0 385 -211h12q184 211 481 211q182 0 290 -68.5t108 -199.5q0 -94 -57.5 -165t-169 -116
t-237.5 -73.5t-298 -49.5q2 -135 79 -213t169 -78zM1243 532q29 186 -19 305t-152.5 119t-184.5 -116.5t-106.5 -301t21.5 -304t154 -119.5q104 0 183 116.5t104 300.5zM1944 956q-96 0 -195.5 -109.5t-128.5 -283.5q188 27 317 104.5t129 176.5q0 49 -33.5 80.5t-88.5 31.5
z" />
    <glyph glyph-name="Racute" unicode="&#x154;" horiz-adv-x="1593" 
d="M1194 1704l-317 -184l-70 63l256 264q82 82 154 82q43 0 67.5 -28.5t15.5 -67.5q-12 -78 -106 -129zM1597 1020q-53 -297 -419 -389l-2 -15q59 -6 100 -25.5t63.5 -41t38 -68.5t21.5 -76.5t14 -95.5q6 -55 9 -74.5t13.5 -56.5t26 -50t44 -23.5t69.5 -8.5l-6 -90
q-143 -43 -258 -43q-57 0 -100.5 8.5t-97.5 33t-88 83.5t-42 150q-10 115 -22.5 175t-45 105t-88 59.5t-151.5 14.5h-88l-60 -334q-27 -147 74 -178l-31 -80h-563l-2 80q111 31 137 178l162 916q25 150 -74 180l31 80h793q276 0 425.5 -110.5t116.5 -303.5zM891 1278
q-96 0 -186 -14l-89 -508h203q342 0 385 250q23 127 -62 199.5t-251 72.5z" />
    <glyph glyph-name="racute" unicode="&#x155;" horiz-adv-x="1134" 
d="M840 1339l-318 -184l-69 64l256 264q82 82 153 82q43 0 67.5 -29t16.5 -68q-12 -78 -106 -129zM981 1108q109 0 176.5 -66.5t50.5 -160.5q-14 -86 -71.5 -146.5t-137.5 -60.5q-68 0 -105.5 31.5t-46.5 68.5t-27.5 68.5t-53.5 31.5q-59 0 -132 -119.5t-104 -283.5
q-20 -125 -30.5 -242.5t-7.5 -173.5v-55h-371l119 674q12 72 -14.5 118t-75.5 60l30 82q289 45 438 184l29 -10l-41 -209h15q86 113 165.5 161t194.5 48z" />
    <glyph glyph-name="uni0156" unicode="&#x156;" horiz-adv-x="1593" 
d="M1597 1020q-53 -297 -419 -389l-2 -15q59 -6 100 -25.5t63.5 -41t38 -68.5t21.5 -76.5t14 -95.5q6 -55 9 -74.5t13.5 -56.5t26 -50t44 -23.5t69.5 -8.5l-6 -90q-143 -43 -258 -43q-57 0 -100.5 8.5t-97.5 33t-88 83.5t-42 150q-10 115 -22.5 175t-45 105t-88 59.5
t-151.5 14.5h-88l-60 -334q-27 -147 74 -178l-31 -80h-563l-2 80q111 31 137 178l162 916q25 150 -74 180l31 80h793q276 0 425.5 -110.5t116.5 -303.5zM891 1278q-96 0 -186 -14l-89 -508h203q342 0 385 250q23 127 -62 199.5t-251 72.5zM758 -92q102 0 155.5 -73
t32.5 -193q-27 -162 -147.5 -307.5t-288.5 -223.5l-55 105q188 113 280 315l-4 6q-45 -20 -69 -20q-84 0 -133.5 54t-34.5 142q14 86 91 140.5t173 54.5z" />
    <glyph glyph-name="uni0157" unicode="&#x157;" horiz-adv-x="1134" 
d="M981 1108q109 0 176.5 -66.5t50.5 -160.5q-14 -86 -71.5 -146.5t-137.5 -60.5q-68 0 -105.5 31.5t-46.5 68.5t-27.5 68.5t-53.5 31.5q-59 0 -132 -119.5t-104 -283.5q-20 -125 -30.5 -242.5t-7.5 -173.5v-55h-371l119 674q12 72 -14.5 118t-75.5 60l30 82q289 45 438 184
l29 -10l-41 -209h15q86 113 165.5 161t194.5 48zM307 -92q102 0 155.5 -73t33.5 -193q-27 -162 -148 -307.5t-289 -223.5l-55 105q188 113 281 315l-4 6q-45 -20 -70 -20q-82 0 -131 55t-35 141t90 140.5t172 54.5z" />
    <glyph glyph-name="Rcaron" unicode="&#x158;" horiz-adv-x="1593" 
d="M1337 1806l-381 -293l-288 293l61 82l268 -119l303 119zM1597 1020q-53 -297 -419 -389l-2 -15q59 -6 100 -25.5t63.5 -41t38 -68.5t21.5 -76.5t14 -95.5q6 -55 9 -74.5t13.5 -56.5t26 -50t44 -23.5t69.5 -8.5l-6 -90q-143 -43 -258 -43q-57 0 -100.5 8.5t-97.5 33
t-88 83.5t-42 150q-10 115 -22.5 175t-45 105t-88 59.5t-151.5 14.5h-88l-60 -334q-27 -147 74 -178l-31 -80h-563l-2 80q111 31 137 178l162 916q25 150 -74 180l31 80h793q276 0 425.5 -110.5t116.5 -303.5zM891 1278q-96 0 -186 -14l-89 -508h203q342 0 385 250
q23 127 -62 199.5t-251 72.5z" />
    <glyph glyph-name="rcaron" unicode="&#x159;" horiz-adv-x="1134" 
d="M940 1442l-381 -293l-289 293l62 82l268 -119l303 119zM981 1108q109 0 176.5 -66.5t50.5 -160.5q-14 -86 -71.5 -146.5t-137.5 -60.5q-68 0 -105.5 31.5t-46.5 68.5t-27.5 68.5t-53.5 31.5q-59 0 -132 -119.5t-104 -283.5q-20 -125 -30.5 -242.5t-7.5 -173.5v-55h-371
l119 674q12 72 -14.5 118t-75.5 60l30 82q289 45 438 184l29 -10l-41 -209h15q86 113 165.5 161t194.5 48z" />
    <glyph glyph-name="Sacute" unicode="&#x15a;" 
d="M801 1520l-70 63l254 264q45 43 78 62.5t76 19.5t68.5 -28.5t17.5 -67.5q-12 -78 -107 -129zM688 -39q-283 0 -449.5 113.5t-140.5 261.5q29 150 185 149q76 0 121 -37.5t65 -93t43 -110t77 -92t146 -37.5q207 0 238 159q20 104 -59.5 166t-247.5 119q-201 70 -320 196
t-88 302q35 190 213 303t438 113q258 0 418 -116t131 -259q-12 -70 -60 -111t-128 -41t-123 38t-58.5 93.5t-30 110.5t-58.5 93t-126 38q-96 0 -154 -48t-73 -126q-10 -57 1 -98t56.5 -73t77 -47.5t113.5 -45.5q121 -45 185.5 -76t151.5 -92.5t116.5 -148.5t9.5 -199
q-35 -195 -224.5 -299.5t-445.5 -104.5z" />
    <glyph glyph-name="sacute" unicode="&#x15b;" horiz-adv-x="1245" 
d="M502 1155l-70 64l256 264q82 82 154 82q43 0 67.5 -29t16.5 -68q-12 -78 -107 -129zM586 -41q-211 0 -365.5 71.5t-152.5 186.5q2 59 39.5 93t101.5 34q59 0 98 -36t60.5 -79t77 -78.5t143.5 -35.5q117 0 179 40t67 103q2 20 -6.5 38.5t-27 32t-38 25t-50 20.5t-53 15
t-57.5 15.5t-53 13.5q-74 20 -128 41.5t-110.5 59.5t-85 97.5t-26.5 135.5q4 154 150.5 256t400.5 102q201 0 328.5 -65.5t125.5 -170.5q-4 -115 -123 -114q-51 0 -79.5 20.5t-43 48t-32 56t-60.5 49t-114 20.5q-102 0 -164 -33.5t-66 -91.5q-2 -31 19.5 -55t66.5 -39.5
t77 -24t86 -17.5t60 -11q82 -16 140.5 -37.5t115 -58.5t84 -96.5t25.5 -141.5q-2 -66 -34 -129t-97.5 -124.5t-189 -98.5t-289.5 -37z" />
    <glyph glyph-name="Scircumflex" unicode="&#x15c;" 
d="M633 1509l-37 82l381 293l287 -293l-62 -82l-264 121zM688 -39q-283 0 -449.5 113.5t-140.5 261.5q29 150 185 149q76 0 121 -37.5t65 -93t43 -110t77 -92t146 -37.5q207 0 238 159q20 104 -59.5 166t-247.5 119q-201 70 -320 196t-88 302q35 190 213 303t438 113
q258 0 418 -116t131 -259q-12 -70 -60 -111t-128 -41t-123 38t-58.5 93.5t-30 110.5t-58.5 93t-126 38q-96 0 -154 -48t-73 -126q-10 -57 1 -98t56.5 -73t77 -47.5t113.5 -45.5q121 -45 185.5 -76t151.5 -92.5t116.5 -148.5t9.5 -199q-35 -195 -224.5 -299.5t-445.5 -104.5z
" />
    <glyph glyph-name="scircumflex" unicode="&#x15d;" horiz-adv-x="1245" 
d="M469 1145l-37 82l383 293l287 -293l-64 -82l-264 121zM586 -41q-211 0 -365.5 71.5t-152.5 186.5q2 59 39.5 93t101.5 34q59 0 98 -36t60.5 -79t77 -78.5t143.5 -35.5q117 0 179 40t67 103q2 20 -6.5 38.5t-27 32t-38 25t-50 20.5t-53 15t-57.5 15.5t-53 13.5
q-74 20 -128 41.5t-110.5 59.5t-85 97.5t-26.5 135.5q4 154 150.5 256t400.5 102q201 0 328.5 -65.5t125.5 -170.5q-4 -115 -123 -114q-51 0 -79.5 20.5t-43 48t-32 56t-60.5 49t-114 20.5q-102 0 -164 -33.5t-66 -91.5q-2 -31 19.5 -55t66.5 -39.5t77 -24t86 -17.5t60 -11
q82 -16 140.5 -37.5t115 -58.5t84 -96.5t25.5 -141.5q-2 -66 -34 -129t-97.5 -124.5t-189 -98.5t-289.5 -37z" />
    <glyph glyph-name="Scedilla" unicode="&#x15e;" 
d="M907 1473q258 0 419 -116t132 -259q-12 -70 -60 -111t-128 -41t-123 38t-58.5 93.5t-31 110.5t-59.5 93t-126 38q-98 0 -154 -48t-71 -126q-10 -59 1 -99t56.5 -72t78 -47.5t112.5 -45.5q121 -45 185.5 -76t151.5 -92.5t116.5 -148.5t9.5 -199q-29 -164 -174.5 -266.5
t-354.5 -129.5l-61 -96q25 8 53 8q76 0 114 -35.5t26 -97.5q-14 -92 -115 -160.5t-240 -68.5q-109 0 -175 47t-56 110q4 31 30.5 55.5t59.5 24.5q39 0 58.5 -22.5t23.5 -48t26.5 -48t67.5 -22.5q49 0 85 26.5t44 71.5q2 29 -14.5 45.5t-46.5 16.5q-37 0 -68 -23l-66 33
l107 176q-281 2 -445.5 114.5t-138.5 260.5q29 150 185 149q76 0 121 -37.5t65 -93t43 -110t77 -92t146 -37.5q207 0 238 159q20 104 -59.5 166t-247.5 119q-201 70 -320 195t-88 301q35 193 210 305.5t439 112.5z" />
    <glyph glyph-name="scedilla" unicode="&#x15f;" horiz-adv-x="1245" 
d="M752 954q-102 0 -164 -33.5t-66 -91.5q-2 -31 19.5 -55t66.5 -39.5t77 -24t86 -17.5t60 -11q84 -16 141.5 -35.5t115 -56.5t84 -97.5t24.5 -144.5q-6 -131 -119.5 -243.5t-361.5 -139.5l-60 -92q25 8 54 8q76 0 113.5 -35.5t25.5 -97.5q-14 -92 -114.5 -160.5
t-239.5 -68.5q-109 0 -174.5 47t-55.5 110q4 31 31 55.5t57 24.5q39 0 58.5 -22.5t23.5 -48t26.5 -48t67.5 -22.5q49 0 85 26.5t44 71.5q2 29 -14 45.5t-47 16.5q-37 0 -66 -23l-67 33l104 174q-205 4 -353 74.5t-146 183.5q2 59 39.5 93t101.5 34q59 0 98 -36t60.5 -79
t77 -78.5t143.5 -35.5q117 0 179 40t67 103q2 29 -13.5 51.5t-52.5 40t-63.5 26.5t-82 22.5t-73.5 19.5q-59 16 -103.5 31.5t-95.5 43t-82.5 60.5t-52 84t-18.5 115q4 154 151.5 256t401.5 102q201 0 328.5 -65.5t125.5 -170.5q-4 -115 -123 -114q-51 0 -79.5 20.5t-43 48
t-32 56t-60 49t-114.5 20.5z" />
    <glyph glyph-name="Scaron" unicode="&#x160;" 
d="M911 1513l-288 293l61 82l268 -119l303 119l37 -82zM688 -39q-283 0 -449.5 113.5t-140.5 261.5q29 150 185 149q76 0 121 -37.5t65 -93t43 -110t77 -92t146 -37.5q207 0 238 159q20 104 -59.5 166t-247.5 119q-201 70 -320 196t-88 302q35 190 213 303t438 113
q258 0 418 -116t131 -259q-12 -70 -60 -111t-128 -41t-123 38t-58.5 93.5t-30 110.5t-58.5 93t-126 38q-96 0 -154 -48t-73 -126q-10 -57 1 -98t56.5 -73t77 -47.5t113.5 -45.5q121 -45 185.5 -76t151.5 -92.5t116.5 -148.5t9.5 -199q-35 -195 -224.5 -299.5t-445.5 -104.5z
" />
    <glyph glyph-name="scaron" unicode="&#x161;" horiz-adv-x="1245" 
d="M752 1149l-289 293l61 82l267 -119l303 119l39 -82zM586 -41q-211 0 -365.5 71.5t-152.5 186.5q2 59 39.5 93t101.5 34q59 0 98 -36t60.5 -79t77 -78.5t143.5 -35.5q117 0 179 40t67 103q2 20 -6.5 38.5t-27 32t-38 25t-50 20.5t-53 15t-57.5 15.5t-53 13.5
q-74 20 -128 41.5t-110.5 59.5t-85 97.5t-26.5 135.5q4 154 150.5 256t400.5 102q201 0 328.5 -65.5t125.5 -170.5q-4 -115 -123 -114q-51 0 -79.5 20.5t-43 48t-32 56t-60.5 49t-114 20.5q-102 0 -164 -33.5t-66 -91.5q-2 -31 19.5 -55t66.5 -39.5t77 -24t86 -17.5t60 -11
q82 -16 140.5 -37.5t115 -58.5t84 -96.5t25.5 -141.5q-2 -66 -34 -129t-97.5 -124.5t-189 -98.5t-289.5 -37z" />
    <glyph glyph-name="uni0162" unicode="&#x162;" horiz-adv-x="1445" 
d="M1497 1473l59 -437l-90 -39q-4 10 -13 28.5t-44 65t-77 83t-114.5 68.5t-156.5 38l-160 -1020q-25 -150 78 -180l-31 -80h-205l-79 -127q25 8 53 8q74 0 112.5 -35.5t26.5 -97.5q-14 -92 -114.5 -160.5t-239.5 -68.5q-111 0 -176.5 47t-55.5 110q4 31 31 55.5t59 24.5
q39 0 58.5 -22.5t23.5 -48t27 -48t66 -22.5q51 0 85.5 26.5t43.5 71.5q4 29 -12.5 45.5t-47.5 16.5q-37 0 -67 -23l-66 33l129 215h-213l-4 80q51 14 87 60t46 120l162 1022q-86 -6 -168 -37t-139.5 -71.5t-102.5 -80.5t-67 -69l-21 -27l-76 39l195 437h29q31 -16 124 -27.5
t162 -11.5h557q70 0 167.5 11t129.5 28h29z" />
    <glyph glyph-name="uni0163" unicode="&#x163;" horiz-adv-x="845" 
d="M668 909l-103 -645q-23 -145 90 -145q66 0 123 22l10 -133q-80 -29 -194 -41l-57 -94q20 8 53 8q74 0 111.5 -35.5t25.5 -97.5q-14 -92 -114.5 -160.5t-239.5 -68.5q-109 0 -174.5 47t-55.5 110q4 31 31 55.5t59 24.5q39 0 58.5 -22.5t22.5 -48t25.5 -48t68.5 -22.5
q49 0 84.5 26.5t44.5 71.5q4 29 -13.5 45.5t-46.5 16.5q-37 0 -67 -23l-68 33l109 178q-129 14 -184.5 87t-35.5 218l103 641h-184l18 113q297 84 471 350h100l-47 -301h271l-27 -162h-268z" />
    <glyph glyph-name="Tcaron" unicode="&#x164;" horiz-adv-x="1445" 
d="M1282 1806l-381 -293l-289 293l62 82l268 -119l303 119zM1511 1473l50 -437l-91 -39q-4 10 -12 28.5t-42 65t-76 82t-113.5 68.5t-153.5 39l-180 -1020q-25 -150 74 -180l-31 -80h-563l-2 80q113 31 137 180l180 1020q-86 -6 -169 -37t-140 -70.5t-102.5 -79.5t-67.5 -69
l-23 -27l-75 39l202 437h29q29 -16 122 -27.5t163 -11.5h559q68 0 165 11t132 28h28z" />
    <glyph glyph-name="tcaron" unicode="&#x165;" horiz-adv-x="1458" 
d="M1389 1473q102 0 155 -71t35 -196q-27 -160 -148.5 -305t-289.5 -225l-58 106q190 115 283 314l-4 6q-45 -20 -68 -21q-84 0 -133 56.5t-34.5 142.5t90.5 139.5t172 53.5zM743 1370l-53 -301h271l-29 -162h-270l-113 -645q-27 -145 86 -145q72 0 141 24l8 -133
q-143 -49 -292 -49q-330 0 -275 309l113 639h-183l19 113q299 84 479 350h98z" />
    <glyph glyph-name="Tbar" unicode="&#x166;" horiz-adv-x="1445" 
d="M1497 1473l59 -437l-90 -39q-4 10 -13 28.5t-44 65t-77 83t-114.5 68.5t-156.5 38l-74 -467h238l-17 -115h-237l-70 -438q-25 -150 78 -180l-31 -80h-561l-4 80q51 14 87 60t46 120l70 438h-238l19 115h237l74 469q-86 -6 -168 -37t-139.5 -71.5t-102.5 -80.5t-67 -69
l-21 -27l-76 39l195 437h29q31 -16 124 -27.5t162 -11.5h557q70 0 167.5 11t129.5 28h29z" />
    <glyph glyph-name="tbar" unicode="&#x167;" horiz-adv-x="845" 
d="M936 909h-268l-50 -307h267l-17 -115h-268l-35 -223q-23 -145 90 -145q66 0 123 22l10 -133q-137 -47 -274 -47q-162 0 -234.5 72.5t-48.5 234.5l35 219h-180l16 115h183l49 307h-184l18 113q297 84 471 350h100l-47 -301h271z" />
    <glyph glyph-name="Utilde" unicode="&#x168;" 
d="M1208 1608q-66 0 -145.5 50t-118.5 50q-63 0 -94 -78l-102 27q33 125 99 179t140 54q66 0 146.5 -49t119.5 -49q68 0 97 76l96 -25q-33 -127 -98.5 -181t-139.5 -54zM686 -39q-274 0 -410.5 141.5t-82.5 440.5l114 631q25 150 -74 180l31 80h563l4 -80
q-113 -31 -139 -180l-112 -629q-37 -211 27.5 -319.5t215.5 -108.5q319 0 394 428l110 629q25 150 -76 180l33 80h334l2 -82q-111 -27 -137 -178l-111 -631q-49 -283 -229.5 -432.5t-456.5 -149.5z" />
    <glyph glyph-name="utilde" unicode="&#x169;" horiz-adv-x="1286" 
d="M666 1343q-66 0 -95 -77l-102 26q33 127 99.5 180.5t140.5 53.5q63 0 145 -49.5t121 -49.5q66 0 96 76l96 -24q-33 -127 -98 -181.5t-141 -54.5q-63 0 -143 50t-119 50zM1319 121l14 -70q-117 -92 -278 -92q-96 0 -162 48t-53 171h-9q-84 -119 -170 -169t-198 -50
q-174 0 -260 113.5t-33 328.5l96 392q39 172 -67 172q-27 0 -56 -17l-20 72q121 90 280 90q102 0 169 -50t40 -179l-120 -504q-27 -102 3.5 -157.5t112.5 -55.5q96 0 177 104.5t120 263.5l15 80l2 2q20 123 29.5 237t6.5 165v53h371l-141 -790q-33 -174 74 -175q20 1 57 17z
" />
    <glyph glyph-name="Umacron" unicode="&#x16a;" 
d="M741 1614l27 158h633l-27 -158h-633zM686 -39q-274 0 -410.5 141.5t-82.5 440.5l114 631q25 150 -74 180l31 80h563l4 -80q-113 -31 -139 -180l-112 -629q-37 -211 27.5 -319.5t215.5 -108.5q319 0 394 428l110 629q25 150 -76 180l33 80h334l2 -82q-111 -27 -137 -178
l-111 -631q-49 -283 -229.5 -432.5t-456.5 -149.5z" />
    <glyph glyph-name="umacron" unicode="&#x16b;" horiz-adv-x="1286" 
d="M1145 1407l-25 -158h-635l27 158h633zM1319 121l14 -70q-117 -92 -278 -92q-96 0 -162 48t-53 171h-9q-84 -119 -170 -169t-198 -50q-174 0 -260 113.5t-33 328.5l96 392q39 172 -67 172q-27 0 -56 -17l-20 72q121 90 280 90q102 0 169 -50t40 -179l-120 -504
q-27 -102 3.5 -157.5t112.5 -55.5q96 0 177 104.5t120 263.5l15 80l2 2q20 123 29.5 237t6.5 165v53h371l-141 -790q-33 -174 74 -175q20 1 57 17z" />
    <glyph glyph-name="Ubreve" unicode="&#x16c;" 
d="M1044 1581q-119 0 -192.5 58.5t-91.5 150.5l110 59q14 -49 70.5 -78.5t130.5 -29.5q76 0 143.5 28.5t94.5 75.5l92 -55q-51 -92 -142.5 -150.5t-214.5 -58.5zM686 -39q-274 0 -410.5 141.5t-82.5 440.5l114 631q25 150 -74 180l31 80h563l4 -80q-113 -31 -139 -180
l-112 -629q-37 -211 27.5 -319.5t215.5 -108.5q319 0 394 428l110 629q25 150 -76 180l33 80h334l2 -82q-111 -27 -137 -178l-111 -631q-49 -283 -229.5 -432.5t-456.5 -149.5z" />
    <glyph glyph-name="ubreve" unicode="&#x16d;" horiz-adv-x="1286" 
d="M811 1217q-121 0 -193.5 58t-93.5 150l113 60q12 -49 68.5 -79t130.5 -30q78 0 144.5 29t92.5 76l94 -56q-51 -92 -143 -150t-213 -58zM1319 121l14 -70q-117 -92 -278 -92q-96 0 -162 48t-53 171h-9q-84 -119 -170 -169t-198 -50q-174 0 -260 113.5t-33 328.5l96 392
q39 172 -67 172q-27 0 -56 -17l-20 72q121 90 280 90q102 0 169 -50t40 -179l-120 -504q-27 -102 3.5 -157.5t112.5 -55.5q96 0 177 104.5t120 263.5l15 80l2 2q20 123 29.5 237t6.5 165v53h371l-141 -790q-33 -174 74 -175q20 1 57 17z" />
    <glyph glyph-name="Uring" unicode="&#x16e;" 
d="M1051 1536q-90 0 -144.5 63.5t-40.5 153.5q14 88 89 152.5t165 64.5t144.5 -64.5t40.5 -152.5q-14 -90 -89 -153.5t-165 -63.5zM1071 1659q39 0 69.5 27.5t37.5 66.5q6 37 -16.5 63.5t-61.5 26.5t-69 -26.5t-36 -63.5q-6 -41 15.5 -67.5t60.5 -26.5zM686 -39
q-274 0 -410.5 141.5t-82.5 440.5l114 631q25 150 -74 180l31 80h563l4 -80q-113 -31 -139 -180l-112 -629q-37 -211 27.5 -319.5t215.5 -108.5q319 0 394 428l110 629q25 150 -76 180l33 80h334l2 -82q-111 -27 -137 -178l-111 -631q-49 -283 -229.5 -432.5t-456.5 -149.5z
" />
    <glyph glyph-name="uring" unicode="&#x16f;" horiz-adv-x="1286" 
d="M817 1171q-90 0 -145.5 63.5t-40.5 154.5q14 88 90 152.5t166 64.5t144 -64.5t40 -152.5q-14 -90 -89 -154t-165 -64zM760 1389q-6 -41 15.5 -68t60 -27t69.5 28t37 67q6 37 -15.5 63.5t-60.5 26.5t-69.5 -26.5t-36.5 -63.5zM1319 121l14 -70q-117 -92 -278 -92
q-96 0 -162 48t-53 171h-9q-84 -119 -170 -169t-198 -50q-174 0 -260 113.5t-33 328.5l96 392q39 172 -67 172q-27 0 -56 -17l-20 72q121 90 280 90q102 0 169 -50t40 -179l-120 -504q-27 -102 3.5 -157.5t112.5 -55.5q96 0 177 104.5t120 263.5l15 80l2 2q20 123 29.5 237
t6.5 165v53h371l-141 -790q-33 -174 74 -175q20 1 57 17z" />
    <glyph glyph-name="Uhungarumlaut" unicode="&#x170;" 
d="M928 1505l-99 45q115 213 152 289q53 106 139 107q47 0 69.5 -31t16.5 -72t-61 -104zM1239 1505l-100 45q115 213 153 289q49 106 138 107q47 0 69.5 -31t18.5 -72q-6 -39 -64 -104zM686 -39q-274 0 -410.5 141.5t-82.5 440.5l114 631q25 150 -74 180l31 80h563l4 -80
q-113 -31 -139 -180l-112 -629q-37 -211 27.5 -319.5t215.5 -108.5q319 0 394 428l110 629q25 150 -76 180l33 80h334l2 -82q-111 -27 -137 -178l-111 -631q-49 -283 -229.5 -432.5t-456.5 -149.5z" />
    <glyph glyph-name="uhungarumlaut" unicode="&#x171;" horiz-adv-x="1286" 
d="M870 1374l-217 -233l-98 45q115 213 152 289q53 106 139 106q47 0 69.5 -30.5t16 -72t-61.5 -104.5zM965 1141l-101 45q115 213 154 289q49 106 137 106q47 0 69.5 -30.5t18.5 -71.5q-6 -39 -63 -105zM1319 121l14 -70q-117 -92 -278 -92q-96 0 -162 48t-53 171h-9
q-84 -119 -170 -169t-198 -50q-174 0 -260 113.5t-33 328.5l96 392q39 172 -67 172q-27 0 -56 -17l-20 72q121 90 280 90q102 0 169 -50t40 -179l-120 -504q-27 -102 3.5 -157.5t112.5 -55.5q96 0 177 104.5t120 263.5l15 80l2 2q20 123 29.5 237t6.5 165v53h371l-141 -790
q-33 -174 74 -175q20 1 57 17z" />
    <glyph glyph-name="Uogonek" unicode="&#x172;" 
d="M1618 1434l2 -82q-111 -27 -137 -178l-111 -631q-47 -262 -205.5 -410.5t-406.5 -169.5q-92 -74 -111 -172q-8 -43 15.5 -71.5t64.5 -28.5q78 0 135 78l88 -50q-125 -170 -305 -170q-117 0 -175 62.5t-42 157.5q18 117 117 202q-207 33 -304.5 173.5t-49.5 398.5l114 631
q25 150 -74 180l31 80h563l4 -80q-113 -31 -139 -180l-112 -629q-37 -211 27.5 -319.5t215.5 -108.5q319 0 394 428l110 629q25 150 -76 180l33 80h334z" />
    <glyph glyph-name="uogonek" unicode="&#x173;" horiz-adv-x="1286" 
d="M1253 -231l86 -50q-125 -170 -303 -170q-119 0 -177 62.5t-42 157.5q18 119 125 208q-117 49 -102 201h-9q-84 -119 -170 -169t-198 -50q-174 0 -260 113.5t-33 328.5l96 392q39 172 -67 172q-27 0 -56 -17l-20 72q121 90 280 90q102 0 169 -50t40 -179l-120 -504
q-27 -102 3.5 -157.5t112.5 -55.5q96 0 177 104.5t120 263.5l15 80l2 2q20 123 29.5 237t6.5 165v53h371l-141 -790q-33 -174 74 -175q20 0 57 17l14 -70q-72 -57 -178 -82q-100 -76 -119 -178q-8 -43 16.5 -71.5t65.5 -28.5q74 0 135 78z" />
    <glyph glyph-name="Wcircumflex" unicode="&#x174;" horiz-adv-x="2129" 
d="M1368 1630l-305 -121l-37 82l383 293l287 -293l-62 -82zM2306 1434l4 -80q-119 -33 -186 -178l-506 -1070q18 -39 33 -61l-25 -43q-283 0 -405 -41h-33l-64 784h-10l-315 -632q12 -35 35 -70l-23 -43q-197 12 -403 -39h-19l-115 1215q-16 147 -120 178l39 80h587l-4 -80
q-45 -14 -70.5 -60.5t-17.5 -117.5l78 -805h8l326 655q-6 104 -29 148q-16 31 -43 61l39 82q238 55 401 164h19l88 -1110h14l381 805q70 145 -20 178l26 80h330z" />
    <glyph glyph-name="wcircumflex" unicode="&#x175;" horiz-adv-x="1972" 
d="M1266 1266l-303 -121l-39 82l383 293l286 -293l-61 -82zM1796 1110q88 0 143.5 -66.5t51.5 -209.5q-2 -133 -51.5 -311.5t-143.5 -311.5q-170 -252 -418 -252q-88 0 -176 51t-127 148h-12q-68 -82 -168 -140.5t-217 -58.5q-176 0 -268.5 99.5t-85.5 248.5q12 256 282 438
l-2 11l-166 2q-86 0 -147.5 -34t-63.5 -89q0 -25 15 -43l-66 -25q-49 74 -47 170q2 129 97.5 230.5t248.5 101.5h496l10 -18l-14 -19q-16 -20 -31.5 -42.5t-40.5 -58.5t-47.5 -75t-48 -86t-47 -99.5t-40 -105.5t-29.5 -112.5t-13 -116.5q-6 -119 49 -168t125 -49
q100 0 218 160.5t134 314.5q16 123 -10.5 212t-22.5 146q4 70 48 114t116 44q51 0 88 -39t35 -88q-4 -80 -64.5 -236.5t-74.5 -300.5q-12 -147 30.5 -237t147.5 -90q141 0 223 155q82 141 78 334q2 63 -15.5 107.5t-44 66t-52 41t-44 51t-16.5 80.5q2 66 54 111t124 45z" />
    <glyph glyph-name="Ycircumflex" unicode="&#x176;" horiz-adv-x="1388" 
d="M707 1509l-39 82l383 293l286 -293l-61 -82l-266 121zM344 0l-2 80q113 31 137 180l70 404l-227 510q-66 154 -164 180l30 80h621l2 -80q-45 -14 -60.5 -59.5t13.5 -120.5l143 -312h15l254 312q37 47 49 85.5t3 61t-36 33.5l31 80h348l2 -80q-104 -27 -225 -180
l-412 -512l-72 -402q-25 -150 74 -180l-31 -80h-563z" />
    <glyph glyph-name="ycircumflex" unicode="&#x177;" horiz-adv-x="1275" 
d="M852 1266l-305 -121l-37 82l383 293l287 -293l-62 -82zM1112 1110q88 0 138 -55.5t44 -136.5q-12 -168 -114.5 -419t-212.5 -429q-55 -94 -117 -174q-256 -350 -531 -351q-90 0 -151.5 52.5t-56.5 123.5q2 72 55 117t125 45q59 0 96 -29.5t57.5 -58t38.5 -28.5
q74 0 183 124q-78 420 -149 655.5t-125 311.5t-122 76q-66 0 -141 -53l-47 69q150 158 354 158q176 0 282.5 -181.5t192.5 -654.5h13v-2q125 229 131 394q0 37 -30 78.5t-59.5 96t-29.5 122t52 108.5t124 41z" />
    <glyph glyph-name="Ydieresis" unicode="&#x178;" horiz-adv-x="1388" 
d="M805 1565q-74 0 -110 44t-27 105q12 63 62 108.5t126 45.5t113 -46t24 -108q-10 -59 -61 -104t-127 -45zM1233 1565q-74 0 -111 44t-26 105q12 63 62 108.5t124 45.5q76 0 114 -46t25 -108q-10 -59 -61 -104t-127 -45zM344 0l-2 80q113 31 137 180l70 404l-227 510
q-66 154 -164 180l30 80h621l2 -80q-45 -14 -60.5 -59.5t13.5 -120.5l143 -312h15l254 312q37 47 49 85.5t3 61t-36 33.5l31 80h348l2 -80q-104 -27 -225 -180l-412 -512l-72 -402q-25 -150 74 -180l-31 -80h-563z" />
    <glyph glyph-name="Zacute" unicode="&#x179;" horiz-adv-x="1513" 
d="M1016 1520l-70 63l254 264q82 82 154 82q43 0 67.5 -28.5t18.5 -67.5q-12 -76 -107 -129zM961 -227q-111 0 -243 35.5t-234.5 77.5t-233.5 78t-242 36v90l1088 1192h-260q-92 0 -182.5 -30.5t-153 -73.5t-111.5 -86t-74 -74l-22 -31l-76 39l176 447h31q27 -16 121 -27.5
t164 -11.5h874v-91l-1079 -1183q104 -20 198.5 -82t171 -111t150.5 -49q137 0 137 80q0 33 -41 96.5t-41 118.5q0 66 48.5 112t123.5 46q78 0 134.5 -60.5t56.5 -142.5q0 -164 -134 -279.5t-347 -115.5z" />
    <glyph glyph-name="zacute" unicode="&#x17a;" horiz-adv-x="1413" 
d="M795 1155l-70 64l256 264q82 82 154 82q43 0 67.5 -29t16.5 -68q-10 -78 -107 -129zM143 -41q-27 0 -49 18.5t-24 49.5q-8 72 87 182t267 180l475 356v13q-70 25 -173 111.5t-161 86.5q-39 0 -66.5 -34.5t-41 -77.5t-51 -78t-95.5 -35q-51 0 -86 40t-35 97
q0 102 89.5 172t244.5 70q143 0 326.5 -52t275.5 -52q53 0 112.5 32.5t84.5 71.5h23l53 -57q-2 -47 -73 -123t-134.5 -128t-163.5 -128q-272 -211 -393 -289v-12q66 -33 118 -81t76.5 -85t66.5 -63.5t97 -26.5q53 0 82 31.5t29 72.5q0 25 -37 71t-37 99q0 68 43 118t117 50
q76 0 126 -53t50 -133q0 -172 -111.5 -293t-306.5 -121q-133 0 -240.5 35t-188.5 68.5t-146 33.5q-43 0 -75 -21.5t-47 -47t-43 -47t-65 -21.5z" />
    <glyph glyph-name="Zdotaccent" unicode="&#x17b;" horiz-adv-x="1513" 
d="M1020 1599q-74 0 -111 45.5t-26 104.5q10 63 61 109.5t125 46.5q76 0 113 -46.5t26 -109.5q-10 -59 -61 -104.5t-127 -45.5zM961 -227q-111 0 -243 35.5t-234.5 77.5t-233.5 78t-242 36v90l1088 1192h-260q-92 0 -182.5 -30.5t-153 -73.5t-111.5 -86t-74 -74l-22 -31
l-76 39l176 447h31q27 -16 121 -27.5t164 -11.5h874v-91l-1079 -1183q104 -20 198.5 -82t171 -111t150.5 -49q137 0 137 80q0 33 -41 96.5t-41 118.5q0 66 48.5 112t123.5 46q78 0 134.5 -60.5t56.5 -142.5q0 -164 -134 -279.5t-347 -115.5z" />
    <glyph glyph-name="zdotaccent" unicode="&#x17c;" horiz-adv-x="1413" 
d="M940 1235q-74 0 -110.5 45t-26.5 104q10 63 61 109.5t125 46.5q76 0 112 -46t27 -110q-12 -59 -62 -104t-126 -45zM143 -41q-27 0 -49 18.5t-24 49.5q-8 72 87 182t267 180l475 356v13q-70 25 -173 111.5t-161 86.5q-39 0 -66.5 -34.5t-41 -77.5t-51 -78t-95.5 -35
q-51 0 -86 40t-35 97q0 102 89.5 172t244.5 70q143 0 326.5 -52t275.5 -52q53 0 112.5 32.5t84.5 71.5h23l53 -57q-2 -47 -73 -123t-134.5 -128t-163.5 -128q-272 -211 -393 -289v-12q66 -33 118 -81t76.5 -85t66.5 -63.5t97 -26.5q53 0 82 31.5t29 72.5q0 25 -37 71t-37 99
q0 68 43 118t117 50q76 0 126 -53t50 -133q0 -172 -111.5 -293t-306.5 -121q-133 0 -240.5 35t-188.5 68.5t-146 33.5q-43 0 -75 -21.5t-47 -47t-43 -47t-65 -21.5z" />
    <glyph glyph-name="Zcaron" unicode="&#x17d;" horiz-adv-x="1513" 
d="M1022 1513l-289 293l62 82l268 -119l303 119l37 -82zM961 -227q-111 0 -243 35.5t-234.5 77.5t-233.5 78t-242 36v90l1088 1192h-260q-92 0 -182.5 -30.5t-153 -73.5t-111.5 -86t-74 -74l-22 -31l-76 39l176 447h31q27 -16 121 -27.5t164 -11.5h874v-91l-1079 -1183
q104 -20 198.5 -82t171 -111t150.5 -49q137 0 137 80q0 33 -41 96.5t-41 118.5q0 66 48.5 112t123.5 46q78 0 134.5 -60.5t56.5 -142.5q0 -164 -134 -279.5t-347 -115.5z" />
    <glyph glyph-name="zcaron" unicode="&#x17e;" horiz-adv-x="1413" 
d="M891 1149l-287 293l62 82l266 -119l303 119l37 -82zM143 -41q-27 0 -49 18.5t-24 49.5q-8 72 87 182t267 180l475 356v13q-70 25 -173 111.5t-161 86.5q-39 0 -66.5 -34.5t-41 -77.5t-51 -78t-95.5 -35q-51 0 -86 40t-35 97q0 102 89.5 172t244.5 70q143 0 326.5 -52
t275.5 -52q53 0 112.5 32.5t84.5 71.5h23l53 -57q-2 -47 -73 -123t-134.5 -128t-163.5 -128q-272 -211 -393 -289v-12q66 -33 118 -81t76.5 -85t66.5 -63.5t97 -26.5q53 0 82 31.5t29 72.5q0 25 -37 71t-37 99q0 68 43 118t117 50q76 0 126 -53t50 -133q0 -172 -111.5 -293
t-306.5 -121q-133 0 -240.5 35t-188.5 68.5t-146 33.5q-43 0 -75 -21.5t-47 -47t-43 -47t-65 -21.5z" />
    <glyph glyph-name="longs" unicode="&#x17f;" horiz-adv-x="743" 
d="M838 1608q135 0 212.5 -49.5t75.5 -128.5q0 -61 -39.5 -100.5t-109.5 -39.5q-49 0 -78 25.5t-36 56.5t-24.5 56.5t-47.5 25.5q-39 0 -81 -93t-61 -237l-133 -901q-45 -336 -237.5 -509t-507.5 -173q-86 0 -167 44t-79 118q0 61 42 102t107 41q45 0 78 -23.5t48.5 -51
t41 -51t54.5 -23.5q195 0 256 403l133 805h-181l31 164h176l4 27q45 242 168.5 377t354.5 135z" />
    <glyph glyph-name="florin" unicode="&#x192;" horiz-adv-x="909" 
d="M893 1473q135 0 203.5 -42t56.5 -114q-8 -57 -47 -90t-94 -33q-49 0 -76 19.5t-32 42t-18.5 42t-37.5 19.5q-39 0 -72 -49t-67 -193l-31 -125h244l-27 -164h-260l-109 -432q-72 -301 -194.5 -448.5t-351.5 -147.5q-143 0 -216 49.5t-61 118.5q6 49 43 82t96 33
q47 0 71 -19.5t28 -43t17 -43t40 -19.5q43 0 74.5 52t66.5 200l160 618h-203l25 164h221l25 97q53 211 188 318.5t338 107.5z" />
    <glyph glyph-name="Aringacute" unicode="&#x1fa;" horiz-adv-x="1652" 
d="M956.5 1536q-90.5 0 -144.5 63.5t-40 153.5q20 117 125 178l225 236q84 80 154 80q43 0 67.5 -28t18.5 -67q-12 -76 -109 -131l-131 -75q49 -29 73 -80t15 -113q-14 -90 -88.5 -153.5t-165 -63.5zM1083 1753q4 37 -17.5 63.5t-60 26.5t-69.5 -26.5t-35 -63.5
q-8 -39 13.5 -66.5t60.5 -27.5t69.5 26.5t38.5 67.5zM1499 258q33 -145 143 -178l-30 -80h-584l-2 80q98 33 64 178l-17 74h-520l-43 -74q-84 -147 2 -178l-31 -80h-327l-2 80q121 33 204 178l516 893q-27 45 -100 76l27 80q240 57 401 172h19zM645 494h391l-106 477h-10z
" />
    <glyph glyph-name="aringacute" unicode="&#x1fb;" horiz-adv-x="1404" 
d="M786.5 1171q-90.5 0 -144.5 63.5t-40 154.5q18 119 133 184l211 217q82 82 154 82q43 0 67.5 -28.5t18.5 -67.5q-12 -78 -109 -129l-119 -70q47 -29 69 -79t13 -109q-14 -90 -88.5 -154t-165 -64zM913 1389q4 37 -17.5 63.5t-60 26.5t-69.5 -27t-35 -63q-8 -39 13.5 -67
t60.5 -28t69.5 27t38.5 68zM1327 104q20 0 57 17l13 -70q-115 -92 -275 -92q-92 0 -156.5 43t-60.5 152h-10q-53 -94 -143 -144.5t-185 -50.5q-176 0 -278.5 109.5t-102.5 324.5q0 270 178.5 493.5t428.5 223.5q76 0 148.5 -31.5t109.5 -91.5h10l24 82h363
q-10 -23 -31.5 -76t-55.5 -172t-56 -241l-54 -301q-33 -175 76 -175zM705 164q74 0 141 67.5t104 194.5l72 416q-55 80 -156 80q-158 0 -253 -165t-95 -351q0 -111 52.5 -176.5t134.5 -65.5z" />
    <glyph glyph-name="uni0218" unicode="&#x218;" 
d="M907 1473q258 0 419 -116t132 -259q-12 -70 -60 -111t-128 -41t-123 38t-58.5 93.5t-31 110.5t-59.5 93t-126 38q-98 0 -154 -48t-71 -126q-10 -59 1 -99t56.5 -72t78 -47.5t112.5 -45.5q121 -45 185.5 -76t151.5 -92.5t116.5 -148.5t9.5 -199q-35 -195 -224.5 -299.5
t-445.5 -104.5q-283 0 -449.5 113.5t-140.5 261.5q29 150 185 149q76 0 121 -37.5t65 -93t43 -110t77 -92t146 -37.5q207 0 238 159q20 104 -59.5 166t-247.5 119q-201 70 -320 195t-88 301q35 193 210 305.5t439 112.5zM672 -92q102 0 155.5 -72t32.5 -194
q-27 -160 -148.5 -306.5t-289.5 -224.5l-53 105q188 115 280 315l-4 6q-45 -20 -70 -20q-84 0 -133 54t-34 142q14 86 91 140.5t173 54.5z" />
    <glyph glyph-name="uni0219" unicode="&#x219;" horiz-adv-x="1245" 
d="M752 954q-102 0 -164 -33.5t-66 -91.5q-2 -31 19.5 -55t66.5 -39.5t77 -24t86 -17.5t60 -11q84 -16 141.5 -35.5t115 -56.5t84 -97.5t24.5 -144.5q-2 -66 -34 -129t-97.5 -124.5t-189 -98.5t-289.5 -37q-211 0 -365.5 71.5t-152.5 186.5q2 59 39.5 93t101.5 34
q59 0 98 -36t60.5 -79t77 -78.5t143.5 -35.5q117 0 179 40t67 103q2 29 -13.5 51.5t-52.5 40t-63.5 26.5t-82 22.5t-73.5 19.5q-59 16 -103.5 31.5t-95.5 43t-82.5 60.5t-52 84t-18.5 115q4 154 151.5 256t401.5 102q201 0 328.5 -65.5t125.5 -170.5q-4 -115 -123 -114
q-51 0 -79.5 20.5t-43 48t-32 56t-60 49t-114.5 20.5zM623 -92q102 0 155 -73t33 -193q-27 -160 -148.5 -306.5t-289.5 -224.5l-54 105q188 113 281 315l-4 6q-45 -20 -70 -20q-84 0 -133 54t-35 142q14 86 91.5 140.5t173.5 54.5z" />
    <glyph glyph-name="uni021A" unicode="&#x21a;" horiz-adv-x="1445" 
d="M1511 1473l50 -437l-91 -39q-4 10 -12 28.5t-42 65t-76 82t-113.5 68.5t-153.5 39l-180 -1020q-25 -150 74 -180l-31 -80h-563l-2 80q113 31 137 180l180 1020q-86 -6 -169 -37t-140 -70.5t-102.5 -79.5t-67.5 -69l-23 -27l-75 39l202 437h29q29 -16 122 -27.5t163 -11.5
h559q68 0 165 11t132 28h28zM631 -92q102 0 155.5 -73t32.5 -193q-27 -160 -148.5 -306.5t-289.5 -224.5l-53 105q188 113 280 315l-4 6q-45 -20 -69 -20q-84 0 -133.5 54t-34.5 142q14 86 91 140.5t173 54.5z" />
    <glyph glyph-name="uni021B" unicode="&#x21b;" horiz-adv-x="841" 
d="M662 907l-113 -645q-27 -145 86 -145q72 0 141 24l8 -133q-143 -49 -292 -49q-330 0 -275 309l113 639h-183l19 113q299 84 479 350h98l-53 -301h271l-29 -162h-270zM510 -92q102 0 155.5 -73t32.5 -193q-27 -160 -148.5 -306.5t-289.5 -224.5l-53 105q188 113 280 315
l-4 6q-45 -20 -69 -20q-84 0 -133.5 54t-34.5 142q14 86 91 140.5t173 54.5z" />
    <glyph glyph-name="uni0237" unicode="&#x237;" horiz-adv-x="583" 
d="M-90 -455q-156 0 -236 58.5t-73 136.5q12 119 135 119q49 0 81.5 -24.5t47 -54.5t43.5 -54.5t69 -24.5q96 0 119 149l135 824q12 72 -14.5 118t-75.5 60l31 82q285 45 438 182l29 -8l-203 -1139q-71 -424 -526 -424z" />
    <glyph glyph-name="uni02B0" unicode="&#x2b0;" horiz-adv-x="530" 
d="M664 905l4 -33q-49 -39 -113 -38q-115 0 -98 98l47 215q8 39 -5.5 62.5t-43.5 23.5q-43 0 -80 -48t-51 -116q-10 -57 -15.5 -111.5t-5.5 -80.5v-27h-164l88 498q12 61 -37 77l15 37q121 14 190 80l13 -4l-56 -307h8q61 92 164 92q72 0 108 -47t15 -139l-35 -166
q-16 -74 29 -74q13 0 23 8z" />
    <glyph glyph-name="circumflex" unicode="&#x2c6;" horiz-adv-x="1073" 
d="M438 1145l-37 82l383 293l287 -293l-61 -82l-267 121z" />
    <glyph glyph-name="caron" unicode="&#x2c7;" horiz-adv-x="1073" 
d="M735 1149l-289 293l62 82l268 -119l303 119l37 -82z" />
    <glyph glyph-name="uni02C9" unicode="&#x2c9;" horiz-adv-x="1087" 
d="M426 1249l25 158h634l-24 -158h-635z" />
    <glyph glyph-name="breve" unicode="&#x2d8;" horiz-adv-x="1058" 
d="M727 1217q-121 0 -193.5 58t-93.5 150l113 60q12 -49 68.5 -79t130.5 -30q78 0 144.5 29t92.5 76l94 -56q-51 -92 -143 -150t-213 -58z" />
    <glyph glyph-name="dotaccent" unicode="&#x2d9;" horiz-adv-x="999" 
d="M698 1235q-74 0 -110.5 45t-26.5 104q10 63 61.5 109.5t125 46.5t110.5 -46t29 -110q-12 -59 -62.5 -104t-126.5 -45z" />
    <glyph glyph-name="ring" unicode="&#x2da;" horiz-adv-x="1054" 
d="M711 1171q-90 0 -144.5 63.5t-40.5 154.5q14 88 89 152.5t165 64.5t144.5 -64.5t40.5 -152.5q-14 -90 -89 -154t-165 -64zM731 1294q39 0 69.5 28t37.5 67q6 37 -16.5 63.5t-61.5 26.5t-68.5 -27t-36.5 -63q-6 -41 15.5 -68t60.5 -27z" />
    <glyph glyph-name="ogonek" unicode="&#x2db;" horiz-adv-x="1038" 
d="M592 -451q-119 0 -177.5 62.5t-41.5 157.5q14 104 97 185t212 126l72 -80q-141 -86 -162 -209q-8 -43 16.5 -71.5t65.5 -28.5q74 0 135 78l86 -50q-125 -170 -303 -170z" />
    <glyph glyph-name="tilde" unicode="&#x2dc;" horiz-adv-x="1091" 
d="M877 1243q-63 0 -143.5 50t-119.5 50q-66 0 -94 -77l-102 26q33 127 99.5 180.5t139.5 53.5q63 0 145.5 -49.5t121.5 -49.5q66 0 96 76l96 -24q-33 -127 -98 -181.5t-141 -54.5z" />
    <glyph glyph-name="hungarumlaut" unicode="&#x2dd;" horiz-adv-x="968" 
d="M557 1141l-100 45q115 213 153 289q49 106 138 106q47 0 69.5 -30.5t18.5 -71.5q-6 -39 -64 -105zM866 1141l-98 45q113 213 152 289q53 106 137 106q49 0 71.5 -30.5t16.5 -71.5t-62 -105z" />
    <glyph glyph-name="uni0394" unicode="&#x394;" horiz-adv-x="1531" 
d="M4 0l795 1434h288l314 -1434h-1397zM238 145h700l-195 902z" />
    <glyph glyph-name="uni03A9" unicode="&#x3a9;" horiz-adv-x="1761" 
d="M137 -47l-63 481l92 41q61 -186 291 -186h127l4 14q-190 102 -304 256t-81 352q43 260 269 411t576.5 151t524.5 -151t133 -411q-35 -199 -203 -352t-393 -256v-14h125q133 0 222 56t134 130l76 -41l-219 -481h-31q-55 47 -221 47h-332l54 348q166 98 256 224t120 317
q39 213 -18 330.5t-250 117.5q-190 0 -287.5 -116.5t-134.5 -331.5q-31 -190 13.5 -316.5t170.5 -224.5l-51 -348h-334q-168 0 -235 -47h-31z" />
    <glyph glyph-name="uni03BC" unicode="&#x3bc;" horiz-adv-x="1249" 
d="M1264 160l12 -125q-41 -31 -117 -52.5t-133 -21.5q-113 0 -170 38t-55 132h-6q-154 -170 -369 -170q-41 0 -78 6q4 -8 15.5 -32.5t14.5 -31.5t14 -32t12.5 -31t9.5 -29.5t6 -28.5t2 -29.5t-2 -28.5q-14 -92 -77.5 -139.5t-152.5 -47.5q-84 0 -133 55.5t-32 149.5l102 598
q4 33 8 51l96 582h328l-100 -606q-18 -98 23.5 -149.5t129.5 -51.5q74 0 137.5 54t86.5 134l104 619h326l-123 -744q-18 -88 49 -88q35 1 72 19z" />
    <glyph glyph-name="pi" unicode="&#x3c0;" horiz-adv-x="1384" 
d="M752 973h723l-2 -19q-49 -135 -109 -186q-59 -53 -139 -57l-84 -500q-14 -82 47 -82q33 0 67 16l11 -118q-39 -29 -110 -47.5t-122 -18.5q-119 0 -171 47t-34 164l86 504h-176l-59 -348q-29 -164 -118 -265.5t-243 -101.5q-102 0 -161.5 47t-44.5 133q8 51 56 91t103 40
q45 0 70 -23.5t30 -53t16 -53t32 -23.5q72 0 96 114l76 443h-55q-127 0 -150 -127h-113q29 174 145 299t333 125z" />
    <glyph glyph-name="Wgrave" unicode="&#x1e80;" horiz-adv-x="2129" 
d="M942 1704q-76 53 -63 129q6 39 39.5 67.5t76.5 28.5q72 0 127 -82l168 -264l-92 -63zM2306 1434l4 -80q-119 -33 -186 -178l-506 -1070q18 -39 33 -61l-25 -43q-283 0 -405 -41h-33l-64 784h-10l-315 -632q12 -35 35 -70l-23 -43q-197 12 -403 -39h-19l-115 1215
q-16 147 -120 178l39 80h587l-4 -80q-45 -14 -70.5 -60.5t-17.5 -117.5l78 -805h8l326 655q-6 104 -29 148q-16 31 -43 61l39 82q238 55 401 164h19l88 -1110h14l381 805q70 145 -20 178l26 80h330z" />
    <glyph glyph-name="wgrave" unicode="&#x1e81;" horiz-adv-x="1959" 
d="M866 1339q-78 51 -65 129q8 39 42 68t77 29q74 0 124 -82l168 -264l-90 -64zM1784 1110q88 0 143 -66.5t51 -209.5q-2 -133 -51 -311.5t-143 -311.5q-170 -252 -418 -252q-88 0 -176 51t-127 148h-12q-68 -82 -168.5 -140.5t-216.5 -58.5q-176 0 -268.5 99.5t-86.5 248.5
q12 256 283 438l-2 11l-166 2q-86 0 -147.5 -34t-63.5 -89q0 -25 14 -43l-65 -25q-49 74 -47 170q2 129 97 230.5t249 101.5h495l11 -18l-15 -19q-16 -20 -31.5 -42.5t-40 -58.5t-47 -75t-48 -86t-47 -99.5t-40 -105.5t-30 -112.5t-13.5 -116.5q-6 -119 49.5 -168t124.5 -49
q100 0 218 160.5t135 314.5q16 123 -10.5 212t-22.5 146q4 70 48 114t116 44q51 0 88 -39t35 -88q-4 -80 -64.5 -236.5t-75.5 -300.5q-12 -147 31 -237t148 -90q141 0 223 155q82 141 78 334q2 63 -15.5 107.5t-44 66t-52.5 41t-44 51t-16 80.5q2 66 54 111t124 45z" />
    <glyph glyph-name="Wacute" unicode="&#x1e82;" horiz-adv-x="2129" 
d="M1513 1704l-317 -184l-70 63l254 264q45 43 78 62.5t76 19.5t68.5 -28.5t17.5 -67.5q-13 -78 -107 -129zM2306 1434l4 -80q-119 -33 -186 -178l-506 -1070q18 -39 33 -61l-25 -43q-283 0 -405 -41h-33l-64 784h-10l-315 -632q12 -35 35 -70l-23 -43q-197 12 -403 -39h-19
l-115 1215q-16 147 -120 178l39 80h587l-4 -80q-45 -14 -70.5 -60.5t-17.5 -117.5l78 -805h8l326 655q-6 104 -29 148q-16 31 -43 61l39 82q238 55 401 164h19l88 -1110h14l381 805q70 145 -20 178l26 80h330z" />
    <glyph glyph-name="wacute" unicode="&#x1e83;" horiz-adv-x="1959" 
d="M1528 1339l-318 -184l-69 64l256 264q82 82 153 82q43 0 67.5 -29t16.5 -68q-12 -78 -106 -129zM1784 1110q88 0 143 -66.5t51 -209.5q-2 -133 -51 -311.5t-143 -311.5q-170 -252 -418 -252q-88 0 -176 51t-127 148h-12q-68 -82 -168.5 -140.5t-216.5 -58.5
q-176 0 -268.5 99.5t-86.5 248.5q12 256 283 438l-2 11l-166 2q-86 0 -147.5 -34t-63.5 -89q0 -25 14 -43l-65 -25q-49 74 -47 170q2 129 97 230.5t249 101.5h495l11 -18l-15 -19q-16 -20 -31.5 -42.5t-40 -58.5t-47 -75t-48 -86t-47 -99.5t-40 -105.5t-30 -112.5
t-13.5 -116.5q-6 -119 49.5 -168t124.5 -49q100 0 218 160.5t135 314.5q16 123 -10.5 212t-22.5 146q4 70 48 114t116 44q51 0 88 -39t35 -88q-4 -80 -64.5 -236.5t-75.5 -300.5q-12 -147 31 -237t148 -90q141 0 223 155q82 141 78 334q2 63 -15.5 107.5t-44 66t-52.5 41
t-44 51t-16 80.5q2 66 54 111t124 45z" />
    <glyph glyph-name="Wdieresis" unicode="&#x1e84;" horiz-adv-x="2129" 
d="M1094 1565q-74 0 -110 44t-26 105q10 63 60.5 108.5t126.5 45.5t112.5 -46t24.5 -108q-8 -59 -60 -104t-128 -45zM1522 1565q-74 0 -111 44t-27 105q12 63 63.5 108.5t125.5 45.5q76 0 112.5 -46t24.5 -108q-10 -59 -61 -104t-127 -45zM2306 1434l4 -80
q-119 -33 -186 -178l-506 -1070q18 -39 33 -61l-25 -43q-283 0 -405 -41h-33l-64 784h-10l-315 -632q12 -35 35 -70l-23 -43q-197 12 -403 -39h-19l-115 1215q-16 147 -120 178l39 80h587l-4 -80q-45 -14 -70.5 -60.5t-17.5 -117.5l78 -805h8l326 655q-6 104 -29 148
q-16 31 -43 61l39 82q238 55 401 164h19l88 -1110h14l381 805q70 145 -20 178l26 80h330z" />
    <glyph glyph-name="wdieresis" unicode="&#x1e85;" horiz-adv-x="1959" 
d="M1067 1200q-76 0 -111.5 44t-25.5 106q12 63 62 108t126 45t113 -46t24 -107q-10 -59 -61 -104.5t-127 -45.5zM1495 1200q-74 0 -110.5 44t-26.5 106q12 63 62 108t124 45t112 -46t27 -107q-10 -59 -61 -104.5t-127 -45.5zM1784 1110q88 0 143 -66.5t51 -209.5
q-2 -133 -51 -311.5t-143 -311.5q-170 -252 -418 -252q-88 0 -176 51t-127 148h-12q-68 -82 -168.5 -140.5t-216.5 -58.5q-176 0 -268.5 99.5t-86.5 248.5q12 256 283 438l-2 11l-166 2q-86 0 -147.5 -34t-63.5 -89q0 -25 14 -43l-65 -25q-49 74 -47 170q2 129 97 230.5
t249 101.5h495l11 -18l-15 -19q-16 -20 -31.5 -42.5t-40 -58.5t-47 -75t-48 -86t-47 -99.5t-40 -105.5t-30 -112.5t-13.5 -116.5q-6 -119 49.5 -168t124.5 -49q100 0 218 160.5t135 314.5q16 123 -10.5 212t-22.5 146q4 70 48 114t116 44q51 0 88 -39t35 -88
q-4 -80 -64.5 -236.5t-75.5 -300.5q-12 -147 31 -237t148 -90q141 0 223 155q82 141 78 334q2 63 -15.5 107.5t-44 66t-52.5 41t-44 51t-16 80.5q2 66 54 111t124 45z" />
    <glyph glyph-name="endash" unicode="&#x2013;" horiz-adv-x="745" 
d="M80 446l41 246h729l-41 -246h-729z" />
    <glyph glyph-name="emdash" unicode="&#x2014;" horiz-adv-x="913" 
d="M80 446l41 246h899l-41 -246h-899z" />
    <glyph glyph-name="quoteleft" unicode="&#x2018;" horiz-adv-x="636" 
d="M530 1090q82 0 131.5 -55.5t35 -141.5t-90.5 -140.5t-172 -54.5q-102 0 -155.5 72t-32.5 195q27 160 147.5 305t288.5 225l55 -106q-184 -109 -280 -314l4 -6q44 21 69 21z" />
    <glyph glyph-name="quoteright" unicode="&#x2019;" horiz-adv-x="636" 
d="M555 1473q102 0 155.5 -72t32.5 -195q-27 -160 -148.5 -305t-289.5 -225l-55 106q190 115 280 314l-4 6q-45 -20 -67 -21q-84 0 -133.5 55.5t-34.5 143.5q14 86 91 139.5t173 53.5z" />
    <glyph glyph-name="quotesinglbase" unicode="&#x201a;" horiz-adv-x="653" 
d="M391 352q102 0 155.5 -72.5t33.5 -193.5q-27 -162 -148 -307.5t-289 -222.5l-55 104q186 113 281 313l-7 9q-35 -20 -67 -21q-84 0 -133 54.5t-35 142.5q14 86 91 140t173 54z" />
    <glyph glyph-name="quotedblleft" unicode="&#x201c;" horiz-adv-x="1165" 
d="M737 1389q-184 -109 -280 -314l4 -6q45 20 69 21q82 0 131.5 -55.5t35 -141.5t-90.5 -140.5t-172 -54.5q-102 0 -155.5 72t-32.5 195q27 160 147.5 305t288.5 225zM1057 1090q84 0 133 -55.5t34.5 -141.5t-91 -140.5t-172.5 -54.5q-102 0 -155.5 72t-33.5 195
q27 160 148.5 305t289.5 225l56 -106q-188 -111 -283 -314l4 -6q45 21 70 21z" />
    <glyph glyph-name="quotedblright" unicode="&#x201d;" horiz-adv-x="1163" 
d="M555 1473q102 0 155.5 -72t32.5 -195q-27 -160 -148.5 -305t-289.5 -225l-55 106q190 115 280 314l-4 6q-45 -20 -67 -21q-84 0 -133.5 55.5t-34.5 143.5q14 86 91 139.5t173 53.5zM1081 1473q102 0 155.5 -72t33.5 -195q-27 -160 -148 -305t-288 -225l-58 106
q190 115 283 314l-6 8q-37 -23 -68 -23q-82 0 -131 56.5t-34.5 142.5t90 139.5t171.5 53.5z" />
    <glyph glyph-name="quotedblbase" unicode="&#x201e;" horiz-adv-x="1179" 
d="M391 352q102 0 155.5 -72.5t33.5 -193.5q-27 -162 -148 -307.5t-289 -222.5l-55 104q186 113 281 313l-7 9q-35 -20 -67 -21q-84 0 -133 54.5t-35 142.5q14 86 91 140t173 54zM918 352q102 0 156 -71.5t34 -194.5q-27 -160 -148.5 -306.5t-289.5 -223.5l-54 104
q188 115 281 313l-6 9q-35 -20 -68 -21q-84 0 -133 54.5t-35 142.5q14 86 91.5 140t171.5 54z" />
    <glyph glyph-name="dagger" unicode="&#x2020;" horiz-adv-x="964" 
d="M434 0q106 643 74 913q53 55 96 148l-4 6q-63 -12 -147 -37.5t-119 -25.5q-49 0 -75 26.5t-17 69.5q6 41 39.5 68.5t83.5 27.5q37 0 113.5 -25.5t133.5 -37.5l6 4q-2 59 -19 130.5t-11 104.5q8 47 44 74t83 27q45 0 69.5 -27t16.5 -74q-6 -35 -44 -106.5t-61 -128.5l2 -4
q61 12 146.5 37.5t122.5 25.5q49 0 73.5 -27.5t18.5 -68.5q-8 -43 -42 -69.5t-85 -26.5q-33 0 -106.5 25.5t-137.5 37.5l-4 -6q6 -41 16.5 -78t18.5 -53l8 -17q-121 -268 -231 -913h-62z" />
    <glyph glyph-name="daggerdbl" unicode="&#x2021;" horiz-adv-x="976" 
d="M469 -39q-47 0 -71.5 26.5t-16.5 73.5q6 33 45 105t61 131l-4 4q-66 -12 -148.5 -37.5t-119.5 -25.5q-49 0 -73.5 26.5t-18.5 69.5q8 43 42 70.5t83 27.5q35 0 110.5 -25.5t135.5 -37.5l4 4q6 57 1 133t-16 143l-10 68q125 244 141 342l-2 6q-66 -12 -148.5 -38
t-117.5 -26q-49 0 -74.5 27t-17.5 70q6 43 39 69.5t82 26.5q37 0 113.5 -25.5t136.5 -38.5l4 5q-2 59 -18.5 130.5t-10.5 106.5q8 47 44 74t81 27q47 0 71.5 -27t16.5 -74q-6 -35 -45 -106.5t-61 -130.5l4 -5q61 12 145 38t121 26q49 0 74.5 -26.5t19.5 -69.5
q-8 -43 -42 -70t-85 -27q-35 0 -108.5 26t-135.5 38l-6 -6q-6 -57 0 -133t17 -144l10 -65q-127 -246 -143 -344l4 -4q66 12 148.5 37.5t117.5 25.5q49 0 74.5 -27.5t17.5 -70.5q-6 -43 -40 -69.5t-83 -26.5q-37 0 -111.5 25.5t-136.5 37.5l-4 -4q2 -59 17.5 -131t9.5 -105
q-8 -47 -42 -73.5t-81 -26.5z" />
    <glyph glyph-name="bullet" unicode="&#x2022;" horiz-adv-x="700" 
d="M408 371q-127 0 -200 87t-52 212q20 121 122.5 208t227.5 87t198.5 -87t55.5 -208q-20 -125 -123.5 -212t-228.5 -87z" />
    <glyph glyph-name="ellipsis" unicode="&#x2026;" horiz-adv-x="1773" 
d="M295 -39q-92 0 -144.5 59.5t-37.5 155.5q14 94 87.5 153.5t164.5 59.5q92 0 144 -59.5t38 -153.5q-14 -96 -88 -155.5t-164 -59.5zM877 -39q-92 0 -144.5 59.5t-38.5 155.5q14 94 88 153.5t164 59.5q92 0 144.5 -59.5t37.5 -153.5q-14 -96 -87.5 -155.5t-163.5 -59.5z
M1458 -39q-92 0 -144 59.5t-38 155.5q14 94 88 153.5t164 59.5q92 0 144 -59.5t38 -153.5q-14 -96 -88 -155.5t-164 -59.5z" />
    <glyph glyph-name="perthousand" unicode="&#x2030;" horiz-adv-x="2631" 
d="M522 682q-178 0 -273 110.5t-67 284.5q31 176 161 286t312 110q178 0 270.5 -111t61.5 -287q-29 -174 -157 -283.5t-308 -109.5zM479 0l867 1434h143l-864 -1434h-146zM544.5 819q67.5 0 118 67.5t71 188.5t-8.5 189.5t-94 68.5q-70 0 -121 -66.5t-72 -189.5
q-20 -121 9.5 -189.5t97 -68.5zM1313 -41q-178 0 -272.5 111.5t-65.5 285.5q31 176 160 285t309 109q178 0 271 -110t65 -286q-29 -174 -159 -284.5t-308 -110.5zM2193.5 -41q-178.5 0 -272.5 111.5t-66 285.5q29 176 158 285t311 109q178 0 271.5 -110t64.5 -286
q-29 -174 -158.5 -284.5t-308 -110.5zM1333.5 96q67.5 0 119.5 68.5t72.5 189.5t-8 189.5t-96 68.5t-120 -67.5t-72.5 -190.5q-20 -121 8.5 -189.5t96 -68.5zM2213.5 96q67.5 0 119 68.5t72 189.5t-8.5 189.5t-94 68.5q-68 0 -120 -67.5t-73 -190.5q-20 -121 8.5 -189.5
t96 -68.5z" />
    <glyph glyph-name="guilsinglleft" unicode="&#x2039;" horiz-adv-x="645" 
d="M483 -25l-350 463l17 119l509 463l74 -57l-284 -465l126 -467z" />
    <glyph glyph-name="guilsinglright" unicode="&#x203a;" horiz-adv-x="645" 
d="M152 -25l-76 56l286 467l-129 465l93 57l354 -463l-18 -119z" />
    <glyph glyph-name="fraction" unicode="&#x2044;" horiz-adv-x="415" 
d="M-59 0l807 1434h98l-807 -1434h-98z" />
    <glyph glyph-name="uni2070" unicode="&#x2070;" horiz-adv-x="497" 
d="M340 862q-111 0 -162 76t-31 217q20 139 97.5 216t189.5 77q111 0 162 -77t31 -216q-23 -141 -98.5 -217t-188.5 -76zM350 924q41 0 67.5 53t47.5 178q35 231 -43 231q-76 0 -111 -231q-37 -231 39 -231z" />
    <glyph glyph-name="uni2074" unicode="&#x2074;" horiz-adv-x="489" 
d="M528 1008l-4 -29q-8 -55 49 -70l-12 -32h-268v32q61 12 72 70l4 29h-230l8 43l336 383h113l-57 -369h88l-23 -57h-76zM229 1065h150l31 201h-4l-175 -197z" />
    <glyph glyph-name="uni2075" unicode="&#x2075;" horiz-adv-x="466" 
d="M383 1239q100 0 150.5 -48t37.5 -128q-14 -88 -85.5 -144.5t-182.5 -56.5q-68 0 -119 26.5t-43 76.5q4 27 23.5 44t42.5 17q33 0 47 -16.5t15 -35t16.5 -34.5t52.5 -16q45 0 74.5 25.5t38.5 70.5q6 43 -25 73.5t-94 30.5q-66 0 -121 -30l-35 10l100 328h328l-35 -115
h-266l-31 -98q43 20 111 20z" />
    <glyph glyph-name="uni2076" unicode="&#x2076;" horiz-adv-x="456" 
d="M444 1245q86 0 122 -52t24 -132q-14 -86 -87 -141.5t-173 -55.5q-102 0 -152.5 68.5t-32.5 185.5q27 164 142.5 247t279.5 83l-6 -41q-70 0 -131 -50t-98 -149h4q40 37 108 37zM428 1057q18 113 -53 112q-43 0 -68 -43q-4 -14 -8 -39q-27 -168 39 -167q67 0 90 137z" />
    <glyph glyph-name="uni2077" unicode="&#x2077;" horiz-adv-x="440" 
d="M219 1432h359l-13 -80q-109 -115 -161 -198t-72 -208q-6 -43 -34 -63.5t-60 -20.5q-37 0 -55.5 23.5t-12.5 60.5q31 193 291 367v4h-82q-135 0 -209 -74l-31 17z" />
    <glyph glyph-name="uni2078" unicode="&#x2078;" horiz-adv-x="483" 
d="M334 864q-96 0 -149.5 44t-43.5 108q16 94 121 145l2 4q-68 49 -53 131q10 63 76.5 108.5t161.5 45.5q90 0 134 -40t35 -91q-14 -88 -102 -129l-2 -4q49 -31 71.5 -63.5t14.5 -90.5q-12 -74 -86 -121t-180 -47zM446 1225q66 39 74 94q14 72 -61 72q-74 0 -82 -62
q-11 -59 69 -104zM334 922q88 0 100 73q4 31 -12 56.5t-35.5 38t-60.5 34.5q-63 -37 -76 -110q-6 -41 16.5 -66.5t67.5 -25.5z" />
    <glyph glyph-name="uni2079" unicode="&#x2079;" horiz-adv-x="456" 
d="M403.5 1448q100.5 0 150.5 -68.5t34 -185.5q-27 -164 -142.5 -247t-279.5 -83l6 43q72 0 132.5 49.5t96.5 147.5h-2q-47 -35 -110 -35q-86 0 -122 53.5t-24 130.5q12 84 86 139.5t174.5 55.5zM358 1143q37 0 66 39q4 14 8 43q14 88 6 128t-45 40q-66 0 -88 -140
q-19 -110 53 -110z" />
    <glyph glyph-name="uni207F" unicode="&#x207f;" horiz-adv-x="530" 
d="M666 905l2 -33q-53 -39 -121 -38q-106 0 -88 98l45 215q8 39 -5.5 62.5t-45.5 23.5q-41 0 -78 -48t-51 -116q-10 -57 -15.5 -111.5t-5.5 -80.5v-27h-164l51 285q12 61 -38 77l14 35q125 18 192 80l13 -4l-17 -92h4q68 92 164 92q72 0 109 -47t14 -139l-33 -166
q-18 -74 29 -74q11 0 25 8z" />
    <glyph glyph-name="uni2080" unicode="&#x2080;" horiz-adv-x="497" 
d="M340 -16q-111 0 -162 76.5t-30.5 216t98.5 217t188.5 77.5t161.5 -76.5t31 -218.5q-23 -139 -98.5 -215.5t-188.5 -76.5zM350 47q41 0 67.5 53.5t47.5 175.5q18 125 8 178.5t-51 53.5q-76 0 -111 -232q-37 -229 39 -229z" />
    <glyph glyph-name="uni2081" unicode="&#x2081;" horiz-adv-x="307" 
d="M143 0l-4 31q66 20 74 71l53 336h-57l-2 39l188 80h49l-71 -455q-8 -51 47 -71l-10 -31h-267z" />
    <glyph glyph-name="uni2082" unicode="&#x2082;" horiz-adv-x="460" 
d="M596 408q-16 -94 -94 -162t-205 -127v-4h55q135 0 207 71l31 -16l-78 -170h-373l13 84q123 76 196.5 151.5t87.5 172.5q8 45 -12.5 73.5t-58.5 28.5q-43 0 -80 -37t-47 -100l-45 8q14 86 77.5 138t149.5 52q88 0 137 -43.5t39 -119.5z" />
    <glyph glyph-name="uni2083" unicode="&#x2083;" horiz-adv-x="452" 
d="M305 -14q-70 0 -121 27.5t-43 76.5q10 61 68 62q29 0 42 -16.5t15 -37t12.5 -37t34.5 -16.5q41 0 72 30.5t39 86t-16.5 89.5t-77.5 34h-21l8 53h21q39 0 64.5 26.5t31.5 65.5q4 37 -14.5 59.5t-57.5 22.5q-37 0 -67.5 -27.5t-42.5 -78.5l-37 4q16 76 73.5 118.5
t139.5 42.5t125 -34.5t35 -92.5q-16 -84 -115 -116v-4q55 -10 86 -50.5t23 -95.5q-12 -84 -86 -138t-191 -54z" />
    <glyph glyph-name="uni2084" unicode="&#x2084;" horiz-adv-x="489" 
d="M528 131l-4 -29q-6 -53 49 -71l-10 -31h-268l-2 31q63 18 72 71l4 29h-230l8 43l336 383h113l-57 -369h88l-23 -57h-76zM231 188h148l31 201h-4l-175 -196v-5z" />
    <glyph glyph-name="uni2085" unicode="&#x2085;" horiz-adv-x="464" 
d="M385 362q100 0 149.5 -49t36.5 -127q-12 -88 -84.5 -145t-183.5 -57q-68 0 -119 27.5t-43 76.5q4 25 23.5 42t42.5 17q33 0 47 -15t15 -34.5t16.5 -35t52.5 -15.5q96 0 113 96q6 43 -25 74t-94 31q-59 0 -121 -31l-35 8l103 330h323l-33 -115h-266l-31 -98q43 20 113 20z
" />
    <glyph glyph-name="uni2086" unicode="&#x2086;" horiz-adv-x="456" 
d="M444 371q84 0 120 -52.5t24 -132.5q-12 -88 -84 -141t-174.5 -53t-153.5 68.5t-31 185.5q25 162 140.5 244.5t279.5 82.5l-4 -41q-72 0 -133 -50t-96 -148h2q44 37 110 37zM428 184q14 111 -53 111q-37 0 -66 -35q-2 -8 -4 -23.5t-4 -23.5q-16 -88 -8 -128t45 -40
q67 0 90 139z" />
    <glyph glyph-name="uni2087" unicode="&#x2087;" horiz-adv-x="442" 
d="M221 555h359l-15 -80q-109 -117 -161 -199.5t-70 -205.5q-14 -86 -96 -86q-37 0 -55.5 24.5t-10.5 61.5q16 104 100 200.5t189 163.5l2 6h-84q-135 0 -209 -73l-31 16z" />
    <glyph glyph-name="uni2088" unicode="&#x2088;" horiz-adv-x="483" 
d="M334 -10q-96 0 -149.5 43t-43.5 106q16 94 121 146v4q-63 49 -51 133q10 63 77.5 107t160.5 44q90 0 134 -38.5t35 -92.5q-14 -90 -102 -129v-4q47 -31 69.5 -62.5t14.5 -88.5q-12 -76 -86 -122t-180 -46zM444 350q68 37 76 94q10 72 -61 72q-70 0 -80 -63
q-13 -62 65 -103zM334 45q88 0 100 76q6 43 -22.5 70.5t-85.5 56.5q-63 -39 -76 -109q-6 -41 16.5 -67.5t67.5 -26.5z" />
    <glyph glyph-name="uni2089" unicode="&#x2089;" horiz-adv-x="456" 
d="M403 571q102 0 152.5 -68.5t32.5 -185.5q-27 -164 -140.5 -246.5t-279.5 -82.5l6 41q70 0 131.5 50t97.5 148h-4q-45 -37 -110 -37q-84 0 -121 52.5t-25 132.5q14 88 87 142t173 54zM358 266q39 0 68 39q4 14 8 43q14 90 6 129t-45 39q-68 0 -90 -137q-19 -113 53 -113z
" />
    <glyph glyph-name="Euro" unicode="&#x20ac;" horiz-adv-x="1347" 
d="M1106 1473q225 0 325.5 -85t100.5 -190q0 -70 -34 -108.5t-89 -38.5q-57 0 -93 42t-53.5 93t-60.5 93t-108 42q-131 0 -240 -98.5t-172 -270.5h455l-25 -153h-473q-2 -8 -4 -18.5t-4 -24t-4 -19.5l-13 -94h473l-26 -162h-447q16 -168 102.5 -256t229.5 -88q201 0 361 182
l61 -57q-90 -127 -236.5 -214t-302.5 -87q-242 0 -398.5 141.5t-180.5 378.5h-240l27 162h211q4 45 8 68q6 45 18 88h-213l25 153h238q102 244 311 382.5t471 138.5z" />
    <glyph glyph-name="uni2113" unicode="&#x2113;" horiz-adv-x="905" 
d="M412 -39q-125 0 -193.5 112.5t-44.5 295.5l12 100l-149 -102l-21 55l183 137l30 199q51 371 158 545t285 174q102 0 161.5 -85t40.5 -223q-6 -45 -21 -89t-41 -86t-49.5 -75.5t-64.5 -73.5t-65.5 -64.5t-71.5 -61.5t-66.5 -52.5t-66.5 -49t-55 -39.5l-25 -168
q-45 -319 146 -320q123 0 274 164l39 -43q-184 -250 -395 -250zM385 672q322 252 358 518q12 92 -16.5 150.5t-91.5 58.5q-80 0 -130 -115t-85 -360z" />
    <glyph glyph-name="trademark" unicode="&#x2122;" horiz-adv-x="1019" 
d="M211 999v27q35 10 41 57l51 299q-41 -2 -78 -24.5t-53 -42.5l-18 -21l-25 13l61 127h371l17 -127l-29 -13q-4 8 -12.5 22.5t-39 38t-67.5 27.5l-51 -299q-6 -49 24 -57l-12 -27h-180zM549 999v27q35 10 41 57l45 267q6 49 -23 57l9 27h151l49 -240h2l129 240h148v-27
q-31 -10 -41 -57l-47 -267q-6 -47 24 -57l-10 -27h-178v27q35 10 41 57l29 174h-5l-139 -258h-47l-51 258h-2l-31 -174q-6 -49 25 -57l-15 -27h-104z" />
    <glyph glyph-name="Omega" unicode="&#x2126;" horiz-adv-x="1783" 
d="M135 -47l-63 481l92 41q61 -186 291 -186h127l2 14q-190 102 -304 256t-79 352q43 260 269 411t576.5 151t524.5 -151t131 -411q-23 -135 -120 -259t-214 -203.5t-260 -145.5l-2 -14h127q236 0 356 186l76 -41l-219 -481h-31q-55 47 -221 47h-332l53 348
q166 98 256.5 224t120.5 317q20 133 11 232.5t-78.5 157.5t-200.5 58q-193 0 -290 -117.5t-132 -330.5q-31 -190 13 -316.5t171 -224.5l-53 -348h-332q-168 0 -237 -47h-29z" />
    <glyph glyph-name="estimated" unicode="&#x212e;" horiz-adv-x="1884" 
d="M1051 -39q-317 0 -541.5 221t-224.5 535q0 315 223 535.5t540.5 220.5t542 -220.5t224.5 -535.5v-19h-1182v-499q201 -152 422 -152q152 0 262 47t196 160h111q-208 -293 -573 -293zM637 778h817v461q-168 152 -401 152q-244 0 -416 -162v-451z" />
    <glyph glyph-name="partialdiff" unicode="&#x2202;" horiz-adv-x="1400" 
d="M700 1473q127 0 242 -55.5t201 -166t115.5 -275.5t-15.5 -382q-66 -287 -261.5 -460t-463.5 -173q-264 0 -396 162t-81 389q47 213 220 329.5t396 116.5q127 0 226 -55q43 399 -70 400q-41 0 -73.5 -37t-68.5 -73t-85 -36q-63 0 -104.5 37t-41.5 92q0 84 66.5 135.5
t193.5 51.5zM549 90q96 0 157.5 101.5t106.5 306.5q29 113 53 276q-57 57 -153 57q-94 0 -162 -83.5t-102 -237.5q-18 -78 -24.5 -148.5t0.5 -133t39 -100.5t85 -38z" />
    <glyph glyph-name="Delta" unicode="&#x2206;" horiz-adv-x="1531" 
d="M8 0l793 1434h289l313 -1434h-1395zM240 145h702l-197 902z" />
    <glyph glyph-name="product" unicode="&#x220f;" horiz-adv-x="2045" 
d="M229 0l-4 80q152 43 176 178l156 916q20 137 -119 180l31 80h1513l3 -80q-154 -43 -175 -180l-157 -916q-23 -137 116 -178l-28 -80h-645l-4 80q152 43 176 178l172 1004h-484l-170 -1004q-25 -135 117 -178l-29 -80h-645z" />
    <glyph glyph-name="summation" unicode="&#x2211;" horiz-adv-x="1648" 
d="M217 0l16 106l525 553l-297 668l14 107h1075l47 -359l-88 -37q-74 133 -185.5 191.5t-295.5 58.5h-92l194 -450l-493 -543h334q227 0 328.5 27.5t195.5 126.5l72 -50l-246 -399h-1104z" />
    <glyph glyph-name="minus" unicode="&#x2212;" horiz-adv-x="937" 
d="M156 446l39 246h704l-39 -246h-704z" />
    <glyph glyph-name="uni2215" unicode="&#x2215;" horiz-adv-x="366" 
d="M-92 494l39 239h645l-39 -239h-645z" />
    <glyph glyph-name="uni2219" unicode="&#x2219;" horiz-adv-x="749" 
d="M369 532q-92 0 -145.5 60.5t-39.5 155.5q16 94 89 153.5t165 59.5q90 0 144.5 -59.5t38.5 -153.5q-14 -94 -88 -155t-164 -61z" />
    <glyph glyph-name="radical" unicode="&#x221a;" horiz-adv-x="1544" 
d="M571 0l-110 449h-225l22 133h313l99 -406l733 1258h147l-833 -1434h-146z" />
    <glyph glyph-name="infinity" unicode="&#x221e;" horiz-adv-x="2045" 
d="M559 313q-166 0 -264 118t-70 286q27 168 166 285.5t305 117.5q141 0 229.5 -74.5t159.5 -207.5h7q121 135 232.5 208.5t252.5 73.5q166 0 264 -117.5t70 -285.5q-27 -166 -165 -285t-304 -119q-143 0 -231.5 75t-161.5 208h-7q-115 -133 -228.5 -208t-254.5 -75z
M1468 473q109 0 201 79t111 189q20 113 -44.5 193t-176.5 80q-109 0 -199 -68.5t-207 -202.5q35 -66 59.5 -104.5t63.5 -81.5t86 -63.5t106 -20.5zM578 422q109 0 200.5 68.5t202.5 197.5q-68 133 -135.5 203t-178 70t-202.5 -78t-110.5 -190.5t46 -191.5t177.5 -79z" />
    <glyph glyph-name="integral" unicode="&#x222b;" horiz-adv-x="1988" 
d="M571 -406q-117 0 -179 47.5t-48 141.5q8 57 60.5 100t111.5 43q47 0 78 -27.5t40 -60.5t22.5 -60.5t33.5 -27.5q70 0 90 113l252 1491q39 225 202 354t372 129q109 0 171 -45t50 -123q-10 -68 -59.5 -110.5t-116.5 -42.5q-49 0 -77 25.5t-35 56t-20.5 56t-33.5 25.5
q-70 0 -90 -112l-252 -1485q-39 -231 -201 -359.5t-371 -128.5z" />
    <glyph glyph-name="approxequal" unicode="&#x2248;" horiz-adv-x="1320" 
d="M952 733q-119 0 -269.5 73t-211.5 73q-78 0 -133 -88l-72 40q43 80 115 130.5t158 50.5q92 0 183 -36t168 -72t132 -36t117 62l63 -53q-45 -61 -112.5 -102.5t-137.5 -41.5zM901 434q-92 0 -182 37t-166 73t-131 36q-82 0 -135 -88l-70 40q41 80 112.5 130.5t157.5 50.5
q92 0 184.5 -36t169.5 -72t132 -36q53 0 117 64l61 -53q-43 -59 -111.5 -102.5t-138.5 -43.5z" />
    <glyph glyph-name="notequal" unicode="&#x2260;" horiz-adv-x="1519" 
d="M498 154l133 297h-420l22 133h457l123 272h-534l22 135h571l136 293h137l-135 -293h422l-21 -135h-459l-123 -272h535l-21 -133h-573l-133 -297h-139z" />
    <glyph glyph-name="lessequal" unicode="&#x2264;" horiz-adv-x="1644" 
d="M1384 184l-972 432l22 146l1118 430l-24 -143l-920 -357v-8l799 -354zM262 0l23 131h1132l-22 -131h-1133z" />
    <glyph glyph-name="greaterequal" unicode="&#x2265;" horiz-adv-x="1570" 
d="M336 184l24 146l920 354l2 8l-799 357l25 143l971 -430l-25 -146zM262 0l23 131h1132l-22 -131h-1133z" />
    <glyph glyph-name="lozenge" unicode="&#x25ca;" horiz-adv-x="1472" 
d="M627 0l-312 717l553 717h146l313 -717l-553 -717h-147zM715 127h8l459 590l-258 592h-9l-454 -592z" />
    <glyph glyph-name="uniF6E0" unicode="&#xf6e0;" horiz-adv-x="403" 
d="M274 774l13 76q-76 8 -115 65.5t-29 133.5q14 84 71.5 137t135.5 63l12 78h70l-12 -78q57 -10 91 -42.5t28 -78.5q-4 -23 -25.5 -41t-44.5 -18q-33 0 -47 20.5t-14 44t-12.5 44t-41.5 20.5q-31 0 -61.5 -32.5t-38.5 -75.5q-14 -76 19.5 -118t97.5 -42q80 0 123 67l20 -8
q-35 -117 -158 -137l-12 -78h-70z" />
    <glyph glyph-name="uniF6E4" unicode="&#xf6e4;" horiz-adv-x="518" 
d="M313 659l21 123q-102 4 -150.5 41t-42.5 84q4 25 24.5 40.5t47.5 15.5q29 0 42 -19.5t16 -44.5t27 -44t73 -19q43 0 74.5 20.5t33.5 52.5q6 39 -23.5 61.5t-93.5 43.5q-39 12 -64.5 24.5t-52 33t-35.5 52t-3 74.5q12 70 71.5 113t147.5 51l14 104h64l-17 -102
q78 -4 126.5 -34t39.5 -75q-4 -51 -59 -51q-25 0 -37 16.5t-15 37t-22.5 37t-60.5 16.5q-37 0 -67 -19.5t-34 -50.5q-6 -35 24 -54.5t93 -37.5q55 -14 89 -30.5t59.5 -54.5t17.5 -93q-14 -80 -81.5 -130t-164.5 -59l-18 -123h-64z" />
    <glyph glyph-name="uniF6E6" unicode="&#xf6e6;" horiz-adv-x="712" 
d="M68 446l38 246h605l-39 -246h-604z" />
    <glyph glyph-name="uniF6E9" unicode="&#xf6e9;" horiz-adv-x="548" 
d="M631 897q12 0 22 8l4 -33q-47 -39 -118 -38q-39 0 -68 17t-27 64h-4q-45 -82 -139 -81q-74 0 -118 46t-44 138q0 117 76 212t182 95q78 0 111 -53h4l14 51h160q-39 -80 -68 -229l-20 -123q-12 -74 33 -74zM365 924q29 0 56.5 27.5t43.5 82.5l29 172q-20 35 -64 35
q-66 0 -104.5 -69.5t-38.5 -147.5q0 -45 21.5 -72.5t56.5 -27.5z" />
    <glyph glyph-name="uniF6EA" unicode="&#xf6ea;" horiz-adv-x="538" 
d="M506 1323q80 0 125 -53t45 -142q0 -121 -85 -207.5t-198 -86.5q-102 0 -153 73h-4l-52 -57h-45l90 498q8 63 -41 77l15 37q123 14 192 80l13 -4l-52 -287h6q62 72 144 72zM383 903q63 0 106 79t43 161q0 102 -69 102q-41 0 -77 -39t-54 -96l-29 -156q27 -51 80 -51z" />
    <glyph glyph-name="uniF6EB" unicode="&#xf6eb;" horiz-adv-x="563" 
d="M631 897q10 0 24 8l4 -33q-49 -39 -120 -38q-92 0 -95 73h-2q-55 -74 -141 -73q-76 0 -119 46t-43 138q0 121 74 214t193 93q55 0 100 -35h4l10 58q12 61 -39 77l15 37q123 14 192 80l12 -4l-100 -567q-16 -74 31 -74zM362 924q31 0 61 28.5t42 83.5l33 178
q-27 27 -64 27q-72 0 -109.5 -68.5t-37.5 -148.5q0 -45 21 -72.5t54 -27.5z" />
    <glyph glyph-name="uniF6EC" unicode="&#xf6ec;" horiz-adv-x="471" 
d="M389 918q94 0 193 102l22 -23q-88 -164 -258 -163q-86 0 -146.5 47t-60.5 151q0 117 80 204t215 87q80 0 126 -28.5t46 -84.5q0 -76 -85 -115.5t-236 -58.5q2 -55 34.5 -86.5t69.5 -31.5zM422 1255q-39 0 -80 -45t-53 -116q78 10 130 42.5t52 73.5q0 45 -49 45z" />
    <glyph glyph-name="uniF6ED" unicode="&#xf6ed;" horiz-adv-x="233" 
d="M279 1348q-43 0 -68 25.5t-25 60.5q0 33 25 59.5t68 26.5q41 0 66.5 -27t25.5 -59q0 -35 -25.5 -60.5t-66.5 -25.5zM240 834q-109 0 -93 98l35 203q8 63 -41 77l15 35q125 18 192 80l12 -4l-63 -352q-12 -74 33 -74q14 0 24 8l4 -33q-48 -38 -118 -38z" />
    <glyph glyph-name="uniF6EE" unicode="&#xf6ee;" horiz-adv-x="258" 
d="M236 834q-106 0 -95 98l76 416q8 63 -41 77l14 37q123 14 193 80l12 -4l-102 -567q-10 -74 33 -74q14 0 22 8l6 -33q-52 -38 -118 -38z" />
    <glyph glyph-name="uniF6EF" unicode="&#xf6ef;" horiz-adv-x="782" 
d="M918 905l2 -33q-49 -39 -113 -38q-115 0 -96 98l45 215q20 86 -39 86q-37 0 -70 -49t-45 -117q-10 -55 -15 -109.5t-5 -80.5v-27h-164l53 297q12 86 -39 86q-39 0 -67.5 -47t-40.5 -117q0 -2 -1 -6t-1 -6l-5 -21q-8 -49 -11 -95t-3 -69v-22h-164l51 285q12 61 -38 77
l12 35q123 18 194 80l11 -4l-17 -92h6q63 92 150 92q96 0 110 -92h7q63 92 161 92q68 0 101 -47t12 -139l-35 -166q-18 -74 29 -74q11 0 25 8z" />
    <glyph glyph-name="uniF6F0" unicode="&#xf6f0;" horiz-adv-x="491" 
d="M350 834q-109 0 -165 68.5t-42 178.5q16 106 92 174t184.5 68t165 -68.5t40.5 -175.5q-14 -111 -89 -178t-186 -67zM360 903q43 0 75 48t44 128q10 78 -8 127t-61 49q-41 0 -74 -49t-43 -125q-12 -78 6 -128t61 -50z" />
    <glyph glyph-name="uniF6F1" unicode="&#xf6f1;" horiz-adv-x="475" 
d="M512 1323q47 0 75.5 -28.5t22.5 -71.5q-6 -37 -31.5 -63.5t-62.5 -26.5q-29 0 -45 13t-19 29.5t-11.5 30t-22.5 13.5q-23 0 -52.5 -45.5t-43.5 -108.5l-5 -29q-8 -49 -11 -96t-3 -68v-22h-164l51 285q12 61 -40 77l14 35q125 18 192 80l13 -4l-17 -88h4q39 49 72 68.5
t84 19.5z" />
    <glyph glyph-name="uniF6F2" unicode="&#xf6f2;" horiz-adv-x="493" 
d="M360 834q-88 0 -154.5 29.5t-66.5 78.5q0 27 16.5 42t45.5 15q25 0 42 -15t26.5 -32.5t34 -33t61.5 -15.5q49 0 74.5 16.5t25.5 41.5q0 12 -6 21t-21.5 15.5t-28 10.5t-35 10t-30.5 8q-68 16 -109.5 48t-39.5 93q2 68 65.5 113t173.5 45q86 0 141.5 -27.5t53.5 -72.5
q0 -51 -54 -51q-33 0 -46 20t-31.5 40.5t-63.5 20.5q-94 0 -94 -51q0 -12 9 -22.5t27.5 -17.5t33 -10t36 -7t23.5 -4q78 -14 119 -44t39 -98q-2 -63 -65 -115t-202 -52z" />
    <glyph glyph-name="uniF6F3" unicode="&#xf6f3;" horiz-adv-x="354" 
d="M291 834q-143 0 -121 133l47 268h-78l8 49q127 37 209 150h43l-22 -127h115l-15 -72h-112l-50 -272q-12 -59 37 -60q39 0 60 10l4 -59q-53 -20 -125 -20z" />
    <glyph glyph-name="uniFB06" unicode="&#xfb06;" horiz-adv-x="2129" 
d="M586 -41q-211 0 -365.5 71.5t-152.5 186.5q2 59 39.5 93t101.5 34q59 0 98 -36t60.5 -79t78 -78.5t144.5 -35.5q115 0 177 40t67 103q2 29 -13.5 51.5t-52.5 40t-62.5 26.5t-82 22.5t-74.5 19.5q-76 20 -130 41.5t-111.5 58.5t-85 95.5t-25.5 136.5q4 156 151.5 258
t403.5 102q55 0 116 -10q-25 229 122 397t425 168q256 0 408.5 -159.5t99.5 -436.5h270l-28 -162h-271l-112 -645q-27 -145 88 -145q70 0 139 24l8 -133q-51 -18 -142 -33.5t-149 -15.5q-332 0 -276 309l113 639h-185l21 113q219 86 219 289q0 94 -75 162.5t-189 68.5
q-129 0 -217 -88t-88 -217q0 -55 18 -97t45 -68t53.5 -49.5t45 -55t18.5 -72.5q0 -55 -42 -94t-104 -41q-51 0 -80.5 20.5t-44 49t-32 57t-60.5 49t-114 20.5q-102 0 -164 -33.5t-66 -91.5q-2 -31 20.5 -54t67.5 -39.5t75 -25t86 -18.5t60 -10q86 -16 142.5 -35.5t115 -56.5
t85 -97.5t22.5 -144.5q-2 -66 -32.5 -129t-97.5 -124.5t-190.5 -98.5t-289.5 -37z" />
    <glyph glyph-name="glyph422" horiz-adv-x="0" 
 />
    <glyph glyph-name="glyph423" horiz-adv-x="122" 
 />
    <glyph glyph-name="glyph424" horiz-adv-x="819" 
d="M1067 -471q-127 0 -234.5 35t-177 87t-143.5 113.5t-136.5 113.5t-151.5 87t-193 35l-2 80q113 31 137 178l162 916q27 150 -74 180l31 80h561l2 -80q-109 -31 -135 -180l-191 -1088q68 -33 127.5 -87t100.5 -106.5t80.5 -100.5t87 -77.5t102.5 -29.5q59 0 95 25.5
t52.5 61t33 72.5t54 62.5t101 25.5t103.5 -36.5t40 -96.5q0 -121 -107.5 -195.5t-324.5 -74.5z" />
    <glyph glyph-name="glyph425" horiz-adv-x="2115" 
d="M2294 1389v-35q-4 -2 -12.5 -4t-12.5 -4v-3h-2q-88 -43 -108 -167l-162 -916q-27 -150 74 -180l-31 -80h-563l-2 80q106 31 137 176q-18 123 -103.5 235.5t-205.5 188.5q-184 -279 -275 -412q-61 -90 -97 -135t-94.5 -96t-130 -71.5t-169.5 -20.5q-164 0 -253 66.5
t-89 160.5q0 63 39.5 107.5t107.5 44.5q61 0 100 -33t54.5 -72t50.5 -71.5t90 -32.5q31 0 57.5 8t43 16t41 36t34.5 41t43 61.5t47 66.5q127 184 271 399q-80 31 -160 31q-106 0 -162.5 -33.5t-56.5 -87.5q0 -25 19.5 -67.5t19.5 -77.5q0 -70 -47.5 -113t-121 -43
t-120.5 57.5t-47 135.5q0 166 147.5 271.5t368.5 105.5q117 0 252 -43l43 61q63 90 116.5 156.5t115 127t121.5 100.5t131 70.5t149.5 43t172 12.5t201.5 -16zM1399 825q180 -84 264 -213h10l113 645q-41 -25 -82 -56.5t-67.5 -57t-63.5 -72.5t-50.5 -65.5t-51 -75
t-46.5 -66.5z" />
    <glyph glyph-name="glyph426" horiz-adv-x="2113" 
d="M2122 1704l-318 -184l-69 63l254 264q45 43 77.5 62.5t75.5 19.5t68.5 -28.5t17.5 -67.5q-12 -78 -106 -129zM2294 1389v-35q-4 -2 -12.5 -4t-12.5 -4v-3h-2q-88 -43 -108 -167l-162 -916q-27 -150 74 -180l-31 -80h-563l-2 80q106 31 137 176q-18 123 -103.5 235.5
t-205.5 188.5q-184 -279 -275 -412q-61 -90 -97 -135t-94.5 -96t-130 -71.5t-169.5 -20.5q-164 0 -253 66.5t-89 160.5q0 63 39.5 107.5t107.5 44.5q61 0 100 -33t54.5 -72t50.5 -71.5t90 -32.5q31 0 57.5 8t43 16t41 36t34.5 41t43 61.5t47 66.5q127 184 271 399
q-80 31 -160 31q-106 0 -162.5 -33.5t-56.5 -87.5q0 -25 19.5 -67.5t19.5 -77.5q0 -70 -47.5 -113t-121 -43t-120.5 57.5t-47 135.5q0 166 147.5 271.5t368.5 105.5q117 0 252 -43l43 61q63 90 116.5 156.5t115 127t121.5 100.5t131 70.5t149.5 43t172 12.5t201.5 -16z
M1399 825q180 -84 264 -213h10l113 645q-41 -25 -82 -56.5t-67.5 -57t-63.5 -72.5t-50.5 -65.5t-51 -75t-46.5 -66.5z" />
    <glyph glyph-name="glyph427" horiz-adv-x="2113" 
d="M1976 1581q-119 0 -192.5 58.5t-91.5 150.5l110 59q12 -49 68.5 -78.5t132.5 -29.5t143.5 28.5t94.5 75.5l92 -55q-51 -92 -143.5 -150.5t-213.5 -58.5zM1309 940q63 90 116.5 156.5t115 127t121.5 100.5t131 70.5t149.5 43t172 12.5t201.5 -16l-22 -45v-35
q-4 -2 -12.5 -4t-12.5 -4v-3h-2q-88 -43 -108 -167l-162 -916q-27 -150 74 -180l-31 -80h-563l-2 80q106 31 137 176q-18 123 -103.5 235.5t-205.5 188.5q-184 -279 -275 -412q-61 -90 -97 -135t-94.5 -96t-130 -71.5t-169.5 -20.5q-164 0 -253 66.5t-89 160.5
q0 63 39.5 107.5t107.5 44.5q61 0 100 -33t54.5 -72t50.5 -71.5t90 -32.5q31 0 57.5 8t43 16t41 36t34.5 41t43 61.5t47 66.5q127 184 271 399q-80 31 -160 31q-106 0 -162.5 -33.5t-56.5 -87.5q0 -25 19.5 -67.5t19.5 -77.5q0 -70 -47.5 -113t-121 -43t-120.5 57.5
t-47 135.5q0 166 147.5 271.5t368.5 105.5q117 0 252 -43zM1399 825q180 -84 264 -213h10l113 645q-41 -25 -82 -56.5t-67.5 -57t-63.5 -72.5t-50.5 -65.5t-51 -75t-46.5 -66.5z" />
    <glyph glyph-name="glyph428" horiz-adv-x="2113" 
d="M1952 1630l-303 -121l-39 82l383 293l286 -293l-61 -82zM2294 1389v-35q-4 -2 -12.5 -4t-12.5 -4v-3h-2q-88 -43 -108 -167l-162 -916q-27 -150 74 -180l-31 -80h-563l-2 80q106 31 137 176q-18 123 -103.5 235.5t-205.5 188.5q-184 -279 -275 -412q-61 -90 -97 -135
t-94.5 -96t-130 -71.5t-169.5 -20.5q-164 0 -253 66.5t-89 160.5q0 63 39.5 107.5t107.5 44.5q61 0 100 -33t54.5 -72t50.5 -71.5t90 -32.5q31 0 57.5 8t43 16t41 36t34.5 41t43 61.5t47 66.5q127 184 271 399q-80 31 -160 31q-106 0 -162.5 -33.5t-56.5 -87.5
q0 -25 19.5 -67.5t19.5 -77.5q0 -70 -47.5 -113t-121 -43t-120.5 57.5t-47 135.5q0 166 147.5 271.5t368.5 105.5q117 0 252 -43l43 61q63 90 116.5 156.5t115 127t121.5 100.5t131 70.5t149.5 43t172 12.5t201.5 -16zM1399 825q180 -84 264 -213h10l113 645
q-41 -25 -82 -56.5t-67.5 -57t-63.5 -72.5t-50.5 -65.5t-51 -75t-46.5 -66.5z" />
    <glyph glyph-name="glyph429" horiz-adv-x="2111" 
d="M1685.5 1565q-75.5 0 -111.5 44t-26 105q12 63 62.5 108.5t124 45.5t111.5 -46t28 -108q-10 -59 -61.5 -104t-127 -45zM2111 1565q-74 0 -109.5 44t-27.5 105q12 63 63.5 108.5t125.5 45.5q76 0 112.5 -46t24.5 -108q-10 -59 -61.5 -104t-127.5 -45zM2294 1389v-35
q-4 -2 -12.5 -4t-12.5 -4v-3h-2q-88 -43 -108 -167l-162 -916q-27 -150 74 -180l-31 -80h-563l-2 80q106 31 137 176q-18 123 -103.5 235.5t-205.5 188.5q-184 -279 -275 -412q-61 -90 -97 -135t-94.5 -96t-130 -71.5t-169.5 -20.5q-164 0 -253 66.5t-89 160.5
q0 63 39.5 107.5t107.5 44.5q61 0 100 -33t54.5 -72t50.5 -71.5t90 -32.5q31 0 57.5 8t43 16t41 36t34.5 41t43 61.5t47 66.5q127 184 271 399q-80 31 -160 31q-106 0 -162.5 -33.5t-56.5 -87.5q0 -25 19.5 -67.5t19.5 -77.5q0 -70 -47.5 -113t-121 -43t-120.5 57.5
t-47 135.5q0 166 147.5 271.5t368.5 105.5q117 0 252 -43l43 61q63 90 116.5 156.5t115 127t121.5 100.5t131 70.5t149.5 43t172 12.5t201.5 -16zM1399 825q180 -84 264 -213h10l113 645q-41 -25 -82 -56.5t-67.5 -57t-63.5 -72.5t-50.5 -65.5t-51 -75t-46.5 -66.5z" />
    <glyph glyph-name="glyph430" horiz-adv-x="2113" 
d="M1722 1704q-76 53 -63 129q6 39 40 67.5t77 28.5q72 0 127 -82l168 -264l-91 -63zM2294 1389v-35q-4 -2 -12.5 -4t-12.5 -4v-3h-2q-88 -43 -108 -167l-162 -916q-27 -150 74 -180l-31 -80h-563l-2 80q106 31 137 176q-18 123 -103.5 235.5t-205.5 188.5
q-184 -279 -275 -412q-61 -90 -97 -135t-94.5 -96t-130 -71.5t-169.5 -20.5q-164 0 -253 66.5t-89 160.5q0 63 39.5 107.5t107.5 44.5q61 0 100 -33t54.5 -72t50.5 -71.5t90 -32.5q31 0 57.5 8t43 16t41 36t34.5 41t43 61.5t47 66.5q127 184 271 399q-80 31 -160 31
q-106 0 -162.5 -33.5t-56.5 -87.5q0 -25 19.5 -67.5t19.5 -77.5q0 -70 -47.5 -113t-121 -43t-120.5 57.5t-47 135.5q0 166 147.5 271.5t368.5 105.5q117 0 252 -43l43 61q63 90 116.5 156.5t115 127t121.5 100.5t131 70.5t149.5 43t172 12.5t201.5 -16zM1399 825
q180 -84 264 -213h10l113 645q-41 -25 -82 -56.5t-67.5 -57t-63.5 -72.5t-50.5 -65.5t-51 -75t-46.5 -66.5z" />
    <glyph glyph-name="glyph431" horiz-adv-x="2109" 
d="M2308 1772l-24 -158h-633l24 158h633zM2294 1389v-35q-4 -2 -12.5 -4t-12.5 -4v-3h-2q-88 -43 -108 -167l-162 -916q-27 -150 74 -180l-31 -80h-563l-2 80q106 31 137 176q-18 123 -103.5 235.5t-205.5 188.5q-184 -279 -275 -412q-61 -90 -97 -135t-94.5 -96t-130 -71.5
t-169.5 -20.5q-164 0 -253 66.5t-89 160.5q0 63 39.5 107.5t107.5 44.5q61 0 100 -33t54.5 -72t50.5 -71.5t90 -32.5q31 0 57.5 8t43 16t41 36t34.5 41t43 61.5t47 66.5q127 184 271 399q-80 31 -160 31q-106 0 -162.5 -33.5t-56.5 -87.5q0 -25 19.5 -67.5t19.5 -77.5
q0 -70 -47.5 -113t-121 -43t-120.5 57.5t-47 135.5q0 166 147.5 271.5t368.5 105.5q117 0 252 -43l43 61q63 90 116.5 156.5t115 127t121.5 100.5t131 70.5t149.5 43t172 12.5t201.5 -16zM1399 825q180 -84 264 -213h10l113 645q-41 -25 -82 -56.5t-67.5 -57t-63.5 -72.5
t-50.5 -65.5t-51 -75t-46.5 -66.5z" />
    <glyph glyph-name="glyph432" horiz-adv-x="2111" 
d="M2294 1389v-35q-4 -2 -12.5 -4t-12.5 -4v-3h-2q-88 -43 -108 -167l-162 -916q-27 -150 74 -180l-31 -80h-82q-141 -86 -162 -209q-6 -43 17.5 -71.5t64.5 -28.5q74 0 135 78l86 -50q-125 -170 -303 -170q-119 0 -177 62.5t-42 157.5q20 137 154 231h-254l-2 80
q106 31 137 176q-18 123 -103.5 235.5t-205.5 188.5q-184 -279 -275 -412q-61 -90 -97 -135t-94.5 -96t-130 -71.5t-169.5 -20.5q-164 0 -253 66.5t-89 160.5q0 63 39.5 107.5t107.5 44.5q61 0 100 -33t54.5 -72t50.5 -71.5t90 -32.5q31 0 57.5 8t43 16t41 36t34.5 41
t43 61.5t47 66.5q127 184 271 399q-80 31 -160 31q-106 0 -162.5 -33.5t-56.5 -87.5q0 -25 19.5 -67.5t19.5 -77.5q0 -70 -47.5 -113t-121 -43t-120.5 57.5t-47 135.5q0 166 147.5 271.5t368.5 105.5q117 0 252 -43l43 61q63 90 116.5 156.5t115 127t121.5 100.5t131 70.5
t149.5 43t172 12.5t201.5 -16zM1399 825q180 -84 264 -213h10l113 645q-41 -25 -82 -56.5t-67.5 -57t-63.5 -72.5t-50.5 -65.5t-51 -75t-46.5 -66.5z" />
    <glyph glyph-name="glyph433" horiz-adv-x="2111" 
d="M1962 1536q-90 0 -145.5 63.5t-40.5 153.5q14 88 90 152.5t166 64.5t144 -64.5t40 -152.5q-14 -90 -89 -153.5t-165 -63.5zM1907 1753q-8 -39 13.5 -66.5t60 -27.5t69.5 26.5t39 67.5q4 37 -17.5 63.5t-60.5 26.5t-69.5 -26.5t-34.5 -63.5zM2294 1389v-35q-4 -2 -12.5 -4
t-12.5 -4v-3h-2q-88 -43 -108 -167l-162 -916q-27 -150 74 -180l-31 -80h-563l-2 80q106 31 137 176q-18 123 -103.5 235.5t-205.5 188.5q-184 -279 -275 -412q-61 -90 -97 -135t-94.5 -96t-130 -71.5t-169.5 -20.5q-164 0 -253 66.5t-89 160.5q0 63 39.5 107.5t107.5 44.5
q61 0 100 -33t54.5 -72t50.5 -71.5t90 -32.5q31 0 57.5 8t43 16t41 36t34.5 41t43 61.5t47 66.5q127 184 271 399q-80 31 -160 31q-106 0 -162.5 -33.5t-56.5 -87.5q0 -25 19.5 -67.5t19.5 -77.5q0 -70 -47.5 -113t-121 -43t-120.5 57.5t-47 135.5q0 166 147.5 271.5
t368.5 105.5q117 0 252 -43l43 61q63 90 116.5 156.5t115 127t121.5 100.5t131 70.5t149.5 43t172 12.5t201.5 -16zM1399 825q180 -84 264 -213h10l113 645q-41 -25 -82 -56.5t-67.5 -57t-63.5 -72.5t-50.5 -65.5t-51 -75t-46.5 -66.5z" />
    <glyph glyph-name="glyph434" horiz-adv-x="2111" 
d="M2232 2247q43 0 67.5 -28t18.5 -67q-12 -74 -106 -131l-131 -75q47 -29 70.5 -80t15.5 -113q-14 -90 -89 -153.5t-165 -63.5t-144.5 63.5t-39.5 153.5q20 117 124 178l226 236q83 80 153 80zM2040 1753q4 37 -17.5 63.5t-60.5 26.5t-69.5 -26.5t-34.5 -63.5
q-8 -39 13 -66.5t60 -27.5t70 26.5t39 67.5zM1309 940q63 90 116.5 156.5t115 127t121.5 100.5t131 70.5t149.5 43t172 12.5t201.5 -16l-22 -45v-35q-4 -2 -12.5 -4t-12.5 -4v-3h-2q-88 -43 -108 -167l-162 -916q-27 -150 74 -180l-31 -80h-563l-2 80q106 31 137 176
q-18 123 -103.5 235.5t-205.5 188.5q-184 -279 -275 -412q-61 -90 -97 -135t-94.5 -96t-130 -71.5t-169.5 -20.5q-164 0 -253 66.5t-89 160.5q0 63 39.5 107.5t107.5 44.5q61 0 100 -33t54.5 -72t50.5 -71.5t90 -32.5q31 0 57.5 8t43 16t41 36t34.5 41t43 61.5t47 66.5
q127 184 271 399q-80 31 -160 31q-106 0 -162.5 -33.5t-56.5 -87.5q0 -25 19.5 -67.5t19.5 -77.5q0 -70 -47.5 -113t-121 -43t-120.5 57.5t-47 135.5q0 166 147.5 271.5t368.5 105.5q117 0 252 -43zM1399 825q180 -84 264 -213h10l113 645q-41 -25 -82 -56.5t-67.5 -57
t-63.5 -72.5t-50.5 -65.5t-51 -75t-46.5 -66.5z" />
    <glyph glyph-name="glyph435" horiz-adv-x="2121" 
d="M1763 1708q-66 0 -94 -78l-102 27q33 127 99.5 180t139.5 53q63 0 145.5 -49t121.5 -49q66 0 96 76l96 -25q-33 -127 -98.5 -181t-141.5 -54q-63 0 -143 50t-119 50zM2294 1389v-35q-4 -2 -12.5 -4t-12.5 -4v-3h-2q-88 -43 -108 -167l-162 -916q-27 -150 74 -180l-31 -80
h-563l-2 80q106 31 137 176q-18 123 -103.5 235.5t-205.5 188.5q-184 -279 -275 -412q-61 -90 -97 -135t-94.5 -96t-130 -71.5t-169.5 -20.5q-164 0 -253 66.5t-89 160.5q0 63 39.5 107.5t107.5 44.5q61 0 100 -33t54.5 -72t50.5 -71.5t90 -32.5q31 0 57.5 8t43 16t41 36
t34.5 41t43 61.5t47 66.5q127 184 271 399q-80 31 -160 31q-106 0 -162.5 -33.5t-56.5 -87.5q0 -25 19.5 -67.5t19.5 -77.5q0 -70 -47.5 -113t-121 -43t-120.5 57.5t-47 135.5q0 166 147.5 271.5t368.5 105.5q117 0 252 -43l43 61q63 90 116.5 156.5t115 127t121.5 100.5
t131 70.5t149.5 43t172 12.5t201.5 -16zM1399 825q180 -84 264 -213h10l113 645q-41 -25 -82 -56.5t-67.5 -57t-63.5 -72.5t-50.5 -65.5t-51 -75t-46.5 -66.5z" />
    <glyph glyph-name="glyph436" horiz-adv-x="2027" 
d="M2040 1083q-20 -111 -105.5 -195.5t-210.5 -119.5l-2 -10q154 -35 237 -135.5t58 -241.5q-33 -193 -195.5 -304.5t-389.5 -111.5q-125 0 -296 17.5t-309 17.5h-233l-4 80q111 31 137 178l162 916q12 66 -4 110q-223 43 -262 43q-74 0 -116 -28.5t-42 -73.5
q0 -37 40 -92.5t40 -108.5q0 -63 -46 -107.5t-118 -44.5q-78 0 -132 61.5t-54 143.5q0 170 128 283t388 113q78 0 262 -19.5t426 -19.5h266q186 0 293 -99.5t82 -251.5zM1458 1280q-96 0 -168 -10l-78 -434h168q102 0 178 64.5t95 162.5q16 96 -35 156.5t-160 60.5z
M1638 416q23 125 -52 196.5t-197 71.5h-201l-90 -510q111 -31 211 -31q143 0 226 77t103 196z" />
    <glyph glyph-name="glyph437" horiz-adv-x="2033" 
d="M1446 139q82 0 164 45t143.5 114t104.5 131.5t69 119.5l88 -25q-70 -240 -249 -402.5t-447 -162.5q-332 0 -499 219t-107 557q51 283 258 488q-147 94 -287 94q-94 0 -151.5 -44t-57.5 -108q0 -27 24.5 -69.5t24.5 -77.5q0 -68 -46 -109t-116 -41q-76 0 -121.5 58.5
t-45.5 142.5q0 168 141 280.5t348 112.5q223 0 414 -137q221 147 483 148q211 0 325.5 -83t114.5 -229q0 -135 -103 -214t-255 -79q-227 0 -459 179q-76 -127 -100 -273q-55 -313 42 -474t300 -161zM1626 1323q-182 0 -330 -154q96 -80 180.5 -121.5t186.5 -41.5
q92 0 143.5 40.5t51.5 106.5q0 78 -48.5 124t-183.5 46z" />
    <glyph glyph-name="glyph438" horiz-adv-x="1955" 
d="M1593 1704l-317 -184l-70 63l256 264q82 82 154 82q43 0 67.5 -28.5t16.5 -67.5q-13 -78 -107 -129zM1368 139q82 0 164 45t143.5 114t104.5 131.5t69 119.5l86 -25q-70 -240 -249 -402.5t-445 -162.5q-332 0 -499 218t-109 558q51 283 258 488q-147 94 -287 94
q-94 0 -151.5 -44t-57.5 -108q0 -27 25.5 -69.5t25.5 -77.5q0 -68 -46 -109t-117 -41q-74 0 -121 59.5t-47 141.5q0 168 141 280.5t350 112.5q219 0 414 -137q217 147 483 148q211 0 326 -83t115 -229q0 -135 -104.5 -214t-256.5 -79q-227 0 -459 179q-74 -127 -100 -273
q-55 -313 43 -474t301 -161zM1548 1323q-182 0 -331 -156q199 -162 366 -161q92 0 143.5 40.5t51.5 106.5q0 78 -47.5 124t-182.5 46z" />
    <glyph glyph-name="glyph439" horiz-adv-x="2033" 
d="M1882 1806l-381 -293l-289 293l64 82l266 -119l303 119zM1446 139q82 0 164 45t143.5 114t104.5 131.5t69 119.5l88 -25q-70 -240 -249 -402.5t-447 -162.5q-332 0 -499 219t-107 557q51 283 258 488q-147 94 -287 94q-94 0 -151.5 -44t-57.5 -108q0 -27 24.5 -69.5
t24.5 -77.5q0 -68 -46 -109t-116 -41q-76 0 -121.5 58.5t-45.5 142.5q0 168 141 280.5t348 112.5q223 0 414 -137q221 147 483 148q211 0 325.5 -83t114.5 -229q0 -135 -103 -214t-255 -79q-227 0 -459 179q-76 -127 -100 -273q-55 -313 42 -474t300 -161zM1626 1323
q-182 0 -330 -154q96 -80 180.5 -121.5t186.5 -41.5q92 0 143.5 40.5t51.5 106.5q0 78 -48.5 124t-183.5 46z" />
    <glyph glyph-name="glyph440" horiz-adv-x="2033" 
d="M1446 139q82 0 164 45t143.5 114t104.5 131.5t69 119.5l88 -25q-63 -219 -222 -377.5t-394 -183.5l-58 -90q25 8 54 8q76 0 113.5 -35.5t25.5 -97.5q-14 -92 -114.5 -160.5t-239.5 -68.5q-109 0 -174.5 47t-55.5 110q4 31 31 55.5t57 24.5q39 0 58.5 -22.5t23.5 -48
t26.5 -48t67.5 -22.5q49 0 85 26.5t44 71.5q2 29 -14 45.5t-47 16.5q-37 0 -65 -23l-68 33l106 176q-301 23 -449.5 238t-92.5 536q51 283 258 488q-147 94 -287 94q-94 0 -151.5 -44t-57.5 -108q0 -27 24.5 -69.5t24.5 -77.5q0 -68 -46 -109t-116 -41q-76 0 -121.5 58.5
t-45.5 142.5q0 168 141 280.5t348 112.5q223 0 414 -137q221 147 483 148q211 0 325.5 -83t114.5 -229q0 -135 -103 -214t-255 -79q-227 0 -459 179q-76 -127 -100 -273q-55 -313 42 -474t300 -161zM1626 1323q-182 0 -330 -154q96 -80 180.5 -121.5t186.5 -41.5
q92 0 143.5 40.5t51.5 106.5q0 78 -48.5 124t-183.5 46z" />
    <glyph glyph-name="glyph441" horiz-adv-x="2033" 
d="M1509 1630l-305 -121l-37 82l383 293l287 -293l-61 -82zM1446 139q82 0 164 45t143.5 114t104.5 131.5t69 119.5l88 -25q-70 -240 -249 -402.5t-447 -162.5q-332 0 -499 219t-107 557q51 283 258 488q-147 94 -287 94q-94 0 -151.5 -44t-57.5 -108q0 -27 24.5 -69.5
t24.5 -77.5q0 -68 -46 -109t-116 -41q-76 0 -121.5 58.5t-45.5 142.5q0 168 141 280.5t348 112.5q223 0 414 -137q221 147 483 148q211 0 325.5 -83t114.5 -229q0 -135 -103 -214t-255 -79q-227 0 -459 179q-76 -127 -100 -273q-55 -313 42 -474t300 -161zM1626 1323
q-182 0 -330 -154q96 -80 180.5 -121.5t186.5 -41.5q92 0 143.5 40.5t51.5 106.5q0 78 -48.5 124t-183.5 46z" />
    <glyph glyph-name="glyph442" horiz-adv-x="2033" 
d="M1483 1599q-74 0 -111 45.5t-26 104.5q10 63 61 109.5t125 46.5q76 0 112.5 -46.5t26.5 -109.5q-10 -59 -61 -104.5t-127 -45.5zM1446 139q82 0 164 45t143.5 114t104.5 131.5t69 119.5l88 -25q-70 -240 -249 -402.5t-447 -162.5q-332 0 -499 219t-107 557
q51 283 258 488q-147 94 -287 94q-94 0 -151.5 -44t-57.5 -108q0 -27 24.5 -69.5t24.5 -77.5q0 -68 -46 -109t-116 -41q-76 0 -121.5 58.5t-45.5 142.5q0 168 141 280.5t348 112.5q223 0 414 -137q221 147 483 148q211 0 325.5 -83t114.5 -229q0 -135 -103 -214t-255 -79
q-227 0 -459 179q-76 -127 -100 -273q-55 -313 42 -474t300 -161zM1626 1323q-182 0 -330 -154q96 -80 180.5 -121.5t186.5 -41.5q92 0 143.5 40.5t51.5 106.5q0 78 -48.5 124t-183.5 46z" />
    <glyph glyph-name="glyph443" horiz-adv-x="2117" 
d="M1475 1434q213 0 373.5 -96.5t233 -269.5t36.5 -386q-33 -180 -112 -315.5t-193.5 -213t-248.5 -115.5t-290 -38h-680l-2 80q111 33 137 180l180 1018q-233 49 -286 49q-74 0 -116 -28.5t-42 -73.5q0 -37 40 -92.5t40 -108.5q0 -63 -46 -107.5t-118 -44.5
q-78 0 -132 61.5t-54 143.5q0 170 128 283t388 113q78 0 262 -19.5t426 -19.5h76zM1724 612q27 121 14.5 240t-49 213t-120.5 153.5t-203 59.5q-23 0 -76 -4l-192 -1102q86 -16 182 -16q182 0 296.5 134t147.5 322z" />
    <glyph glyph-name="glyph444" horiz-adv-x="2086" 
d="M1800 1806l-381 -293l-289 293l62 82l266 -119l303 119zM1444 1434q328 0 515 -214t130 -538q-33 -180 -112 -315.5t-193.5 -213t-249.5 -115.5t-291 -38h-649l-2 80q111 33 137 180l180 1018q-233 49 -286 49q-74 0 -116 -28.5t-42 -73.5q0 -37 40 -92.5t40 -108.5
q0 -63 -46 -107.5t-118 -44.5q-78 0 -132 61.5t-54 143.5q0 170 128 283t388 113q78 0 262 -19.5t426 -19.5h45zM1696 612q27 121 13.5 240t-50.5 213t-121 153.5t-201 59.5q-31 0 -47 -2l-194 -1108q72 -12 153 -12q182 0 297 133t150 323z" />
    <glyph glyph-name="glyph445" horiz-adv-x="2086" 
d="M1434 1434q328 0 517 -214t138 -538q-31 -180 -107.5 -314.5t-190.5 -213t-248 -116.5t-292 -38h-657l-2 80q111 33 137 180l66 369h-244l29 176h245l84 473q-233 49 -286 49q-74 0 -116 -28.5t-42 -73.5q0 -37 40 -92.5t40 -108.5q0 -63 -46 -107.5t-118 -44.5
q-78 0 -132 61.5t-54 143.5q0 170 128 283t388 113q78 0 262 -19.5t426 -19.5h35zM1698 614q27 168 1 314.5t-121 249t-249 102.5h-39l-82 -475h178l-26 -174h-182l-82 -463q74 -12 159 -12q182 0 296 134t147 324z" />
    <glyph glyph-name="glyph446" horiz-adv-x="1912" 
d="M1608 938q-219 0 -422 143q-2 -12 -2 -41q0 -88 64.5 -152.5t189.5 -64.5h84l-37 -151h-146q-166 0 -257 -89t-91 -212q0 -131 86 -199t226 -68q162 0 284.5 102.5t184.5 248.5l131 -49q-102 -217 -264 -332t-410 -115q-164 0 -305.5 39t-241.5 133t-100 227
q0 158 108.5 261.5t323.5 140.5l2 10q-215 74 -215 272q0 135 98 238q-109 49 -217 49q-94 0 -150.5 -45t-56.5 -106q0 -27 23.5 -71t23.5 -79q0 -68 -45 -108.5t-117 -40.5q-74 0 -119.5 59t-45.5 141q0 168 140 281t349 113q199 0 356 -95q190 94 455 95q248 0 367.5 -70
t119.5 -186q0 -131 -109 -205t-265 -74zM1546 1335q-182 0 -293 -112q92 -72 172 -110t183 -38q94 0 151.5 37t57.5 94q-1 129 -271 129z" />
    </font>
</defs>
</svg>
