<?xml version="1.0" standalone="no"?>
<!DOCTYPE svg PUBLIC "-//W3C//DTD SVG 1.1//EN" "http://www.w3.org/Graphics/SVG/1.1/DTD/svg11.dtd" >
<svg xmlns="http://www.w3.org/2000/svg" xmlns:xlink="http://www.w3.org/1999/xlink" version="1.1">
<metadata>
Created by FontForge 20170731 at Wed Apr 17 11:03:24 2019
 By Aleksey,,,
Copyright (c) 2019 by Studio Sun. All rights reserved. Desktop use is strictly prohibited.
</metadata>
<defs>
<font id="Tropiline-Bold" horiz-adv-x="569" >
  <font-face 
    font-family="Tropiline Bold"
    font-weight="700"
    font-stretch="normal"
    units-per-em="2048"
    panose-1="0 0 0 0 0 0 0 0 0 0"
    ascent="1536"
    descent="-512"
    x-height="1069"
    cap-height="1434"
    bbox="-586 -1309 2961 2249"
    underline-thickness="0"
    underline-position="0"
    unicode-range="U+0020-FB00"
  />
<missing-glyph horiz-adv-x="1353" 
d="M193 0v1434h968v-1434h-968zM371 141h614v1151h-614v-1151z" />
    <glyph glyph-name="uniFB00" unicode="ff" horiz-adv-x="1509" 
d="M1106 1366q0 -55 51 -170t55 -127h308v-137h-289v-705q0 -66 28.5 -107.5t75.5 -51.5l-12 -68h-459l-12 68q47 10 75.5 52t28.5 107v705h-438v-705q0 -66 28.5 -107.5t76.5 -51.5l-13 -68h-458l-13 68q47 10 76 52t29 107v705h-201v137h195q-4 25 -24.5 105.5
t-20.5 132.5q0 127 90 215t241 88q121 0 205 -65.5t84 -162.5q0 -55 -29.5 -91t-85.5 -36q-57 0 -86.5 34t-37 73t-30 72.5t-67.5 33.5q-39 0 -61.5 -27.5t-22.5 -74.5q0 -55 51.5 -170t55.5 -127h450q-4 25 -24.5 105.5t-20.5 132.5q0 127 90 215t242 88q121 0 205 -65.5
t84 -162.5q0 -55 -30 -91t-85 -36q-57 0 -87 34t-37 73t-29.5 72.5t-67.5 33.5q-39 0 -61.5 -27.5t-22.5 -74.5z" />
    <glyph glyph-name="T_h.liga" unicode="Th" horiz-adv-x="2551" 
d="M2417 229q12 -133 118 -159l-12 -70h-459l-12 70q102 27 88 159l-47 508q-8 111 -63.5 170.5t-135.5 61.5q-90 0 -155.5 -60.5t-65.5 -154.5v-525q0 -135 105 -159l-13 -70h-458l-13 70q104 25 105 159v1078q-166 -59 -328 -60q-51 0 -76 2v-1020q0 -135 103 -159
l-13 -70h-503l-13 70q104 25 105 159v1082q-190 55 -277 55q-150 0 -149 -96q0 -33 34.5 -89.5t34.5 -103.5q0 -57 -39.5 -95t-101.5 -38q-70 0 -117 55.5t-47 128.5q2 150 121 256.5t324 106.5q143 0 370.5 -30.5t362.5 -30.5q123 0 257 39.5t232 111.5l25 -10
q-31 -121 -31 -350v-248h13q102 137 282 137q178 0 285.5 -110.5t126.5 -331.5z" />
    <glyph glyph-name="f_t.liga" unicode="ft" horiz-adv-x="1423" 
d="M1399 930h-277v-680q0 -152 121 -152q68 0 123 25l29 -115q-111 -47 -248 -47q-150 0 -226.5 68.5t-76.5 226.5v674h-326v-703q0 -66 28.5 -107.5t76.5 -51.5l-13 -70h-458l-13 70q47 10 76 52t29 107v703h-201v139h195q-4 25 -24.5 105.5t-20.5 132.5q0 127 90 215
t241 88q121 0 205 -65.5t84 -162.5q0 -55 -29.5 -91t-85.5 -36q-57 0 -86.5 34t-37 73t-30 72.5t-67.5 33.5q-39 0 -61.5 -27.5t-22.5 -74.5q0 -55 51.5 -170t55.5 -127h274q174 88 262 301h86v-303h277v-137z" />
    <glyph glyph-name=".notdef" horiz-adv-x="1353" 
d="M193 0v1434h968v-1434h-968zM371 141h614v1151h-614v-1151z" />
    <glyph glyph-name="glyph1" horiz-adv-x="0" 
 />
    <glyph glyph-name="glyph2" horiz-adv-x="681" 
 />
    <glyph glyph-name="space" unicode=" " horiz-adv-x="522" 
 />
    <glyph glyph-name="exclam" unicode="!" horiz-adv-x="585" 
d="M213 463q-8 248 -59.5 469t-51.5 321q-2 117 54.5 168.5t136.5 51.5t136 -51.5t56 -168.5q0 -100 -52 -321t-60 -469h-160zM289 -39q-78 0 -133.5 52.5t-55.5 136.5q0 82 55.5 134t133.5 52q80 0 135 -52.5t55 -133.5q0 -84 -55 -136.5t-135 -52.5z" />
    <glyph glyph-name="quotedbl" unicode="&#x22;" horiz-adv-x="935" 
d="M213 879q-18 121 -58 254t-40 184q0 70 42 113t105.5 43t106.5 -42t43 -112q0 -53 -40 -186.5t-59 -253.5h-100zM625 879q-18 121 -59.5 254t-41.5 184q0 70 43 113t106.5 43t106.5 -42t43 -112q0 -53 -41 -187.5t-59 -252.5h-98z" />
    <glyph glyph-name="numbersign" unicode="#" horiz-adv-x="1357" 
d="M143 0l127 395h-252v111h289l139 422h-272v110h309l131 396h152l-129 -396h297l129 396h154l-132 -396h254v-110h-290l-138 -422h273v-111h-314l-127 -395h-151l127 395h-297l-127 -395h-152zM461 506h297l137 422h-297z" />
    <glyph glyph-name="dollar" unicode="$" horiz-adv-x="1316" 
d="M1245 424q0 -197 -144.5 -319.5t-375.5 -141.5v-295h-141v295q-250 12 -388.5 105.5t-138.5 207.5q0 53 38 90t95.5 37t90 -33.5t53 -80.5t48.5 -94.5t95.5 -81t173.5 -33.5q127 0 210 64.5t81 162.5q0 102 -92 169t-275 120q-221 63 -346 166.5t-125 296.5
q0 174 132.5 281.5t347.5 127.5v256h141v-254q188 -10 318.5 -86.5t130.5 -185.5q0 -53 -31 -85t-84 -32q-45 0 -74 28t-47 68t-43 79.5t-82 67.5t-145 28q-113 0 -190 -60.5t-77 -146.5q0 -96 86 -154.5t261 -107.5q113 -31 191.5 -64t153 -85t113.5 -130t39 -180z" />
    <glyph glyph-name="percent" unicode="%" horiz-adv-x="1765" 
d="M442 690q-174 0 -284.5 111.5t-110.5 279.5q0 174 107.5 283t283.5 109q172 0 281.5 -111t109.5 -283q0 -170 -107.5 -279.5t-279.5 -109.5zM498 0l641 1434h133l-643 -1434h-131zM440.5 807q75.5 0 121.5 74.5t46 195.5q0 125 -47 199t-123 74q-78 0 -123 -72t-45 -199
q0 -121 47.5 -196.5t123 -75.5zM1331 -39q-172 0 -283.5 111.5t-111.5 279.5q0 174 107.5 281.5t283.5 107.5q172 0 281.5 -110.5t109.5 -280.5t-107.5 -279.5t-279.5 -109.5zM1329 78q76 0 122 74.5t46 195.5q0 125 -47 200t-123 75q-78 0 -123 -74t-45 -199
q0 -121 47 -196.5t123 -75.5z" />
    <glyph glyph-name="ampersand" unicode="&#x26;" horiz-adv-x="1880" 
d="M1661 535q88 0 134 -66t46 -158q0 -164 -113.5 -257t-289.5 -93q-207 0 -336 123q-205 -123 -465 -123q-268 0 -423 139.5t-155 323.5q0 168 101.5 294t261.5 181v12q-145 90 -146 252q0 143 105.5 226.5t286.5 83.5q174 0 282.5 -85t108.5 -229q0 -102 -58.5 -176
t-162.5 -106v-17q72 -29 129 -77t104 -120.5t72.5 -121.5t66.5 -140q82 141 82 318q0 139 -155 174l12 70h457l14 -70q-59 -12 -106.5 -58.5t-47.5 -123.5q0 -274 -176 -473q86 -145 193 -146q57 0 99 35t42 92q0 49 -46 102.5t-46 100.5q0 49 36 81t93 32zM668 1354
q-78 0 -124 -54.5t-46 -146.5q0 -88 48 -144.5t122 -56.5q76 0 122 55.5t46 143.5q0 90 -47 146.5t-121 56.5zM369 449q0 -139 95 -232.5t251 -93.5q158 0 293 76q-53 80 -113.5 226t-119 249.5t-138.5 146.5q-113 -63 -190.5 -159t-77.5 -213z" />
    <glyph glyph-name="quotesingle" unicode="'" horiz-adv-x="526" 
d="M213 879q-18 121 -58 254t-40 184q0 70 42 113t105.5 43t106.5 -42t43 -112q0 -53 -40 -186.5t-59 -253.5h-100z" />
    <glyph glyph-name="parenleft" unicode="(" horiz-adv-x="708" 
d="M643 -440q-260 147 -428 394t-168 576.5t168 577.5t426 395l53 -63q-170 -125 -279.5 -374t-109.5 -536q0 -285 108.5 -531.5t280.5 -375.5z" />
    <glyph glyph-name="parenright" unicode=")" horiz-adv-x="708" 
d="M66 -440l-52 63q172 129 280.5 376t108.5 531q0 287 -109.5 536t-279.5 374l54 63q258 -147 426 -395t168 -577.5t-168 -576.5t-428 -394z" />
    <glyph glyph-name="asterisk" unicode="*" horiz-adv-x="1034" 
d="M229 586q-37 27 -43 67.5t23 83.5q23 31 95.5 90.5t113.5 98.5l-15 43q-55 8 -149 13t-131 17q-47 14 -66.5 52.5t-5 81.5t52 62t84.5 5q37 -10 116 -61.5t130 -79.5l37 24q-10 53 -26.5 112.5t-24.5 97.5t-8 69q0 49 29.5 80t74.5 31t76 -31t31 -80q0 -39 -25 -130
t-35 -149l35 -26q53 29 132 81t116 62q47 14 85 -5t52 -62t-5.5 -81t-66.5 -53q-37 -12 -133 -17t-151 -13l-13 -41q43 -41 116 -100.5t95 -90.5q29 -43 23 -84t-43 -67q-35 -27 -78 -21t-72 47q-23 31 -56.5 119t-59.5 141h-43q-25 -53 -59 -141t-56 -119q-31 -41 -74 -47
t-78 21z" />
    <glyph glyph-name="plus" unicode="+" horiz-adv-x="1153" 
d="M510 160v497h-492v123h492v494h131v-494h496v-123h-496v-497h-131z" />
    <glyph glyph-name="comma" unicode="," horiz-adv-x="593" 
d="M303 307q90 0 146.5 -64.5t56.5 -170.5q0 -145 -86 -286.5t-223 -221.5l-72 92q166 117 213 315l-4 6q-29 -16 -55 -16q-74 0 -125.5 49t-51.5 127q0 76 58.5 123t142.5 47z" />
    <glyph glyph-name="hyphen" unicode="-" horiz-adv-x="591" 
d="M18 446v209h555v-209h-555z" />
    <glyph glyph-name="period" unicode="." horiz-adv-x="557" 
d="M278.5 -39q-79.5 0 -135 53.5t-55.5 132.5q0 82 55.5 135.5t135 53.5t135 -53.5t55.5 -135.5q0 -80 -55.5 -133t-135 -53z" />
    <glyph glyph-name="slash" unicode="/" horiz-adv-x="710" 
d="M0 -444l584 1939h127l-584 -1939h-127z" />
    <glyph glyph-name="zero" unicode="0" horiz-adv-x="1306" 
d="M653 -39q-276 0 -428.5 205t-152.5 553q0 346 152.5 550t428.5 204q279 0 430.5 -204t151.5 -550q0 -348 -151.5 -553t-430.5 -205zM653 96q137 0 197.5 156t60.5 467q0 309 -60 464.5t-198 155.5q-135 0 -195.5 -155.5t-60.5 -464.5t60.5 -466t195.5 -157z" />
    <glyph glyph-name="one" unicode="1" horiz-adv-x="1046" 
d="M238 0l-13 70q145 35 146 159v947h-144l-12 79l381 193h94v-1219q0 -125 141 -159l-12 -70h-581z" />
    <glyph glyph-name="two" unicode="2" horiz-adv-x="1263" 
d="M1079 422l74 -33l-129 -434h-25q-70 45 -237 45h-612v164q92 72 133 104.5t125 104t124.5 118t99 120t87.5 136t50.5 142.5t21.5 162q0 133 -68 211.5t-186 78.5q-121 0 -212.5 -92t-97.5 -252l-106 15q6 211 145.5 336t349.5 125q215 0 353.5 -115t138.5 -307
q0 -137 -53.5 -259t-155.5 -220.5t-206.5 -171t-248.5 -150.5v-8h146q51 0 99 4t85 10t72 16.5t58.5 19.5t49 23.5t39 22.5t30.5 25.5t23.5 22.5t18.5 20z" />
    <glyph glyph-name="three" unicode="3" horiz-adv-x="1216" 
d="M541 -39q-109 0 -207 26.5t-167 86t-69 139.5q0 61 34 99t95 38q49 0 82 -26.5t50.5 -64.5t36 -76t53 -64.5t90.5 -26.5q127 0 199.5 85t72.5 235q0 154 -84 246t-235 92h-52v114h54q115 0 177 72t62 178q0 98 -61.5 162.5t-173.5 64.5q-104 0 -178 -75.5t-84 -210.5
l-99 12q14 186 140 296t329 110t317.5 -93.5t114.5 -232.5q0 -106 -60 -186t-175 -121v-13q139 -29 231 -131t92 -241q0 -213 -155.5 -353.5t-429.5 -140.5z" />
    <glyph glyph-name="four" unicode="4" horiz-adv-x="1292" 
d="M1192 352h-199v-125q0 -123 144 -157l-13 -70h-585l-13 70q145 37 146 157v125h-580l-24 94l694 988h231v-957h232zM242 477h430v602h-10l-420 -594v-8z" />
    <glyph glyph-name="five" unicode="5" horiz-adv-x="1181" 
d="M557 936q252 0 390 -126t138 -329q0 -221 -151.5 -370.5t-417.5 -149.5q-166 0 -293 60.5t-127 175.5q0 57 36 96t87 39q70 0 106.5 -38t47 -82t54.5 -82t130 -38q135 0 214 82t79 217q0 127 -96.5 213t-261.5 86q-168 0 -287 -72l-80 21v795h639q139 0 184 47h25
l-41 -293l-674 2v-305q111 51 299 51z" />
    <glyph glyph-name="six" unicode="6" horiz-adv-x="1236" 
d="M721 938q219 0 331.5 -137t112.5 -342q0 -209 -155.5 -353.5t-393.5 -144.5q-248 0 -396 177t-148 472q0 215 71.5 383t198.5 271.5t289 156t350 52.5l4 -105q-205 0 -361.5 -135t-209.5 -412h10q45 51 127 84t170 33zM616 82q111 0 167.5 99.5t56.5 277.5
q0 324 -219 323q-63 0 -129 -40t-101 -107q-2 -27 -2 -82q0 -240 52 -355.5t175 -115.5z" />
    <glyph glyph-name="seven" unicode="7" horiz-adv-x="1253" 
d="M1130 1434v-158q-156 -201 -245.5 -347.5t-154 -352t-64.5 -433.5q0 -92 -49.5 -137t-120.5 -45q-74 0 -121 52.5t-47 129.5q0 186 96 392t219 357.5t270 287.5v8h-235q-117 0 -207 -19.5t-145.5 -54.5t-80 -57.5t-48.5 -52.5q-6 -8 -9 -11l-73 35l129 453h24
q57 -47 273 -47h589z" />
    <glyph glyph-name="eight" unicode="8" horiz-adv-x="1243" 
d="M602 -39q-238 0 -384 113.5t-146 271.5q0 254 270 387v10q-100 63 -153.5 140.5t-53.5 203.5q0 154 137.5 270t372.5 116q217 0 339 -100.5t122 -235.5q0 -229 -234 -344v-11q143 -74 221 -160.5t78 -238.5q0 -184 -156.5 -303t-412.5 -119zM707 868q201 102 200 269
q0 94 -58 151.5t-171 57.5q-106 0 -165.5 -49.5t-59.5 -141.5q0 -100 65.5 -165t188.5 -122zM586 88q129 0 198.5 61.5t69.5 153.5q0 68 -27.5 122t-88 98t-108.5 69.5t-134 64.5q-207 -109 -207 -311q0 -113 80 -185.5t217 -72.5z" />
    <glyph glyph-name="nine" unicode="9" horiz-adv-x="1234" 
d="M618 1473q250 0 397.5 -177.5t147.5 -472.5q0 -215 -71.5 -383t-198.5 -271t-289 -155.5t-350 -52.5l-4 105q207 0 363.5 135t209.5 411h-10q-45 -51 -128 -83.5t-171 -32.5q-219 0 -330.5 137t-111.5 342q0 209 154 353.5t392 144.5zM616 651q61 0 127 40t101 106
q2 27 2 84q0 242 -51.5 356.5t-176.5 114.5q-111 0 -167 -99.5t-56 -277.5q0 -324 221 -324z" />
    <glyph glyph-name="colon" unicode=":" horiz-adv-x="557" 
d="M280.5 651q-79.5 0 -135 52.5t-55.5 134.5q-2 82 53.5 134t137.5 52q80 0 134 -52t54 -134t-54.5 -134.5t-134 -52.5zM280.5 -39q-79.5 0 -135 52.5t-55.5 133.5q-2 82 53.5 135.5t137.5 53.5q80 0 134 -52.5t54 -136.5q0 -82 -54.5 -134t-134 -52z" />
    <glyph glyph-name="semicolon" unicode=";" horiz-adv-x="593" 
d="M289 651q-80 0 -135.5 52.5t-55.5 134.5t55.5 134t135.5 52t135 -52t55 -134t-55 -134.5t-135 -52.5zM303 307q90 0 146.5 -64.5t56.5 -170.5q0 -145 -86 -286.5t-223 -221.5l-72 92q166 117 213 315l-4 6q-29 -16 -55 -16q-74 0 -125.5 49t-51.5 127q0 76 58.5 123
t142.5 47z" />
    <glyph glyph-name="less" unicode="&#x3c;" horiz-adv-x="1153" 
d="M1092 203l-1031 428v133l1031 426v-133l-861 -357v-8l861 -356v-133z" />
    <glyph glyph-name="equal" unicode="=" horiz-adv-x="1118" 
d="M18 858v123h1082v-123h-1082zM18 455v120h1082v-120h-1082z" />
    <glyph glyph-name="greater" unicode="&#x3e;" horiz-adv-x="1153" 
d="M59 203v133l863 356v8l-863 357v133l1033 -426v-133z" />
    <glyph glyph-name="question" unicode="?" horiz-adv-x="1040" 
d="M281 463v377h86q72 0 120 2t115.5 11t108.5 26.5t71.5 51.5t30.5 81q0 113 -99.5 219t-219.5 106q-51 0 -86 -21.5t-53.5 -52t-37 -62.5t-52.5 -53.5t-87 -21.5q-55 0 -93 40t-38 96q0 100 96.5 155.5t247.5 55.5q227 0 414.5 -164t187.5 -346q0 -88 -31.5 -153
t-79.5 -101.5t-124 -59t-146.5 -30t-165.5 -7.5v-149h-165zM369 -39q-80 0 -135.5 52.5t-55.5 136.5q0 82 55.5 134t135.5 52t135 -52.5t55 -133.5q0 -84 -55 -136.5t-135 -52.5z" />
    <glyph glyph-name="at" unicode="@" horiz-adv-x="1929" 
d="M1030 -360q-190 0 -358 55t-300 161.5t-211 276.5t-87 383q-8 250 126 459t355 324.5t473 115.5q352 0 584.5 -186.5t242.5 -513.5q10 -274 -150.5 -451.5t-397.5 -177.5q-162 0 -209 145h-11q-49 -66 -129.5 -105.5t-169.5 -39.5q-182 0 -279 137t-52 338
q41 193 182 308.5t336 115.5q80 0 143.5 -31.5t91.5 -83.5h13l57 115h227l-147 -641q-25 -119 72 -119q121 0 222 144.5t93 345.5q-6 199 -108.5 338t-258 200.5t-348.5 61.5q-225 0 -420.5 -99.5t-313.5 -285t-110 -414.5q12 -369 248 -572.5t592 -203.5q168 0 330 59
l35 -96q-166 -63 -363 -63zM885 217q137 0 202 143l93 402q-29 94 -150 94q-104 0 -179 -81t-108 -238q-37 -160 -4 -240t146 -80z" />
    <glyph glyph-name="A" unicode="A" horiz-adv-x="1398" 
d="M1253 227q53 -131 164 -157l-12 -70h-518l-13 70q90 29 39 157l-51 133h-530l-51 -133q-51 -131 41 -157l-13 -70h-315l-12 70q115 27 163 157l381 977q-41 57 -116 109l8 69q205 8 327 93h17zM387 506h418l-205 528h-8z" />
    <glyph glyph-name="B" unicode="B" horiz-adv-x="1445" 
d="M1026 762q156 -39 252 -139.5t96 -237.5q0 -193 -139 -304.5t-377 -111.5q-121 0 -293 15.5t-289 15.5h-217l-12 70q104 25 105 159v975q0 135 -105 160l12 70h770q199 0 325 -99.5t126 -251.5q0 -109 -68.5 -192.5t-185.5 -118.5v-10zM694 1303q-137 0 -223 -11v-463
h234q115 0 185.5 69t70.5 171t-71 168t-196 66zM741 121q158 0 236 81t78 210q0 131 -94.5 208.5t-233.5 77.5h-256v-536q182 -41 270 -41z" />
    <glyph glyph-name="C" unicode="C" horiz-adv-x="1413" 
d="M770 -39q-319 0 -508.5 213t-189.5 541q0 322 199.5 540t502.5 218q76 0 169 -19.5t128 -19.5q104 0 166 39h25l88 -465l-84 -17q-55 154 -171 251t-288 97q-160 0 -289 -140t-129 -370q0 -303 148.5 -479t353.5 -176q276 0 391 342l84 -22q-33 -225 -185.5 -379
t-410.5 -154z" />
    <glyph glyph-name="D" unicode="D" horiz-adv-x="1497" 
d="M653 1434q328 0 550 -214t222 -536q0 -338 -195.5 -511t-512.5 -173h-658l-12 70q104 25 105 159v975q0 135 -105 160l12 70h594zM698 133q203 0 306.5 144.5t103.5 347.5q0 178 -56.5 328.5t-176 248.5t-283.5 98q-63 0 -121 -6v-1136q108 -25 227 -25z" />
    <glyph glyph-name="E" unicode="E" horiz-adv-x="1308" 
d="M1227 389l73 -35l-116 -391h-25q-31 16 -122 26.5t-167 10.5h-811l-12 68q104 29 105 161v975q0 135 -105 160l12 70h1082l84 -326l-72 -27q-4 8 -13.5 23.5t-46 53.5t-83.5 66.5t-134.5 52t-191.5 23.5q-111 0 -213 -20v-475h381q66 0 110 29.5t54 76.5l69 -12v-324
l-69 -12q-12 49 -55 78t-109 29h-381v-514q154 -23 272 -23q96 0 181.5 26.5t137.5 64.5t92 75t56 63z" />
    <glyph glyph-name="F" unicode="F" horiz-adv-x="1232" 
d="M1141 1434l84 -326l-74 -27q-4 8 -12.5 23.5t-45 53.5t-84.5 66.5t-134.5 52t-190.5 23.5q-106 0 -213 -10v-532h358q66 0 110 28.5t54 75.5l70 -12v-322l-70 -12q-12 47 -56 77t-108 30h-358v-394q0 -133 104 -161l-12 -68h-504l-12 68q102 29 103 161v975
q0 135 -103 160l12 70h1082z" />
    <glyph glyph-name="G" unicode="G" horiz-adv-x="1490" 
d="M1458 739l12 -67q-104 -29 -104 -160v-512h-84l-82 129h-8q-158 -168 -422 -168q-319 0 -508.5 213t-189.5 541q0 322 199.5 540t502.5 218q76 0 169 -19.5t128 -19.5q104 0 166 39h25l88 -465l-84 -17q-55 154 -170 251t-287 97q-162 0 -290 -148.5t-128 -379.5
q0 -309 141.5 -484t362.5 -175q86 0 156 36v324q0 127 -127 160l12 67h522z" />
    <glyph glyph-name="H" unicode="H" horiz-adv-x="1536" 
d="M1384 229q0 -133 105 -159l-10 -70h-504l-12 70q104 27 104 159v435h-596v-435q0 -135 104 -159l-12 -70h-504l-12 70q104 25 105 159v975q0 135 -105 160l12 70h502l14 -70q-104 -25 -104 -160v-385h596v385q0 133 -104 160l12 70h504l10 -70q-104 -27 -105 -160v-975z
" />
    <glyph glyph-name="I" unicode="I" horiz-adv-x="622" 
d="M59 0l-12 70q104 25 105 159v975q0 135 -105 160l12 70h504l12 -70q-104 -25 -104 -160v-975q0 -135 104 -159l-12 -70h-504z" />
    <glyph glyph-name="J" unicode="J" horiz-adv-x="636" 
d="M6 -426q-160 0 -242.5 61.5t-82.5 147.5q0 61 40.5 101t98.5 40q59 0 97 -30.5t52.5 -67.5t39 -67.5t59.5 -30.5q57 0 82.5 70.5t25.5 234.5v1171q0 66 -28.5 107t-73.5 53l12 70h502l12 -70q-102 -25 -102 -160v-1110q0 -272 -135.5 -396t-356.5 -124z" />
    <glyph glyph-name="K" unicode="K" horiz-adv-x="1511" 
d="M1343 229q82 -137 191 -159l-14 -70h-562l-12 70q43 12 51.5 51t-30.5 108l-310 506h-12l-174 -157v-349q0 -135 104 -159l-12 -70h-504l-12 70q104 25 105 159v975q0 135 -105 160l12 70h504l12 -70q-104 -25 -104 -160v-420h12l459 420q45 41 53.5 78t-7 55.5
t-40.5 26.5l13 70h473l12 -70q-137 -27 -283 -160l-266 -241z" />
    <glyph glyph-name="L" unicode="L" horiz-adv-x="1265" 
d="M1182 416l75 -33l-127 -418h-26q-31 14 -123 24.5t-164 10.5h-758l-12 70q104 25 105 159v975q0 135 -105 160l12 70h504l12 -70q-104 -25 -104 -160v-1054q111 -16 219 -17q94 0 180 28.5t140.5 70.5t95.5 84t57 71z" />
    <glyph glyph-name="M" unicode="M" horiz-adv-x="1806" 
d="M35 0l-12 70q47 12 80.5 53t41.5 106l129 975q18 135 -81 160l12 70h373l327 -934h13l323 934h361l12 -70q-43 -10 -67.5 -51t-16.5 -103l129 -981q18 -135 125 -159l-12 -70h-500l-12 70q98 25 83 159l-104 758h-14l-342 -987h-129l-348 993h-13l-104 -764
q-14 -135 82 -159l-11 -70h-325z" />
    <glyph glyph-name="N" unicode="N" horiz-adv-x="1435" 
d="M1382 1434l13 -70q-106 -27 -107 -160v-1204h-160q-39 117 -118.5 222.5t-176 191.5t-193.5 171t-193.5 194.5t-153.5 228.5h-8v-779q0 -135 104 -159l-12 -70h-318l-12 70q102 25 103 159v975q0 135 -103 160l12 70h289q70 -129 165 -249t185 -208t176.5 -170t160 -170
t112.5 -176h10v743q0 135 -104 160l12 70h317z" />
    <glyph glyph-name="O" unicode="O" horiz-adv-x="1560" 
d="M786 -39q-295 0 -504.5 215t-209.5 537q0 338 192.5 549t513.5 211q295 0 503 -219.5t208 -546.5q0 -324 -200 -535t-503 -211zM858 92q139 0 227.5 130t88.5 302q0 184 -57.5 368.5t-173.5 315.5t-259 131q-141 0 -228 -127t-87 -309q0 -195 58 -378t173 -308t258 -125z
" />
    <glyph glyph-name="P" unicode="P" horiz-adv-x="1466" 
d="M829 1434q266 0 431 -138.5t165 -345.5t-170 -351t-469 -144q-166 0 -315 28v-254q0 -135 104 -159l-12 -70h-504l-12 70q104 25 105 159v975q0 135 -105 160l12 70h770zM731 594q178 0 274.5 106.5t96.5 249.5q0 145 -115 247.5t-285 102.5q-127 0 -231 -22v-645
q123 -39 260 -39z" />
    <glyph glyph-name="Q" unicode="Q" horiz-adv-x="1560" 
d="M1120 -133q84 0 153.5 30.5t98.5 61.5l29 31l61 -43q-2 -12 -9 -31.5t-33.5 -70t-61.5 -88.5t-99.5 -69.5t-140.5 -31.5t-142.5 25.5t-118.5 62.5t-104.5 75t-121 63.5t-144.5 25.5q-66 0 -131 -30t-98 -58l-31 -29l-57 72q35 57 108.5 110.5t170.5 69.5v8
q-170 96 -273.5 272.5t-103.5 393.5q0 336 193.5 547t514.5 211q295 0 502 -218.5t207 -545.5q0 -307 -181.5 -515t-459.5 -231v-6q125 -72 192 -84q39 -8 80 -8zM684 1343q-141 0 -228 -126.5t-87 -309.5q0 -195 58 -378t174 -308t259 -125q139 0 227.5 130t88.5 302
q0 184 -57.5 368.5t-174.5 315.5t-260 131z" />
    <glyph glyph-name="R" unicode="R" horiz-adv-x="1533" 
d="M1546 84l6 -76q-119 -41 -213 -41q-272 0 -331 281q-41 219 -115 288.5t-268 69.5h-154v-377q0 -135 104 -159l-12 -70h-504l-12 70q104 25 105 159v975q0 135 -105 160l12 70h744q272 0 436 -108.5t164 -301.5q0 -143 -88 -240.5t-258 -138.5v-16q137 -18 195.5 -93
t93.5 -227q29 -127 66.5 -179t133.5 -46zM696 1300q-125 0 -225 -18v-534h248q182 0 271 70.5t89 195.5q0 135 -103.5 210.5t-279.5 75.5z" />
    <glyph glyph-name="S" unicode="S" horiz-adv-x="1382" 
d="M717 -39q-90 0 -219 35t-189 35q-29 0 -56.5 -8.5t-39.5 -14.5l-14 -8h-27l-115 451l82 30q88 -180 236.5 -290.5t329.5 -110.5q129 0 216 66.5t87 170.5q0 43 -13.5 79t-46.5 63.5t-60.5 47t-86 40t-89 31t-102.5 30.5q-80 25 -120.5 39.5t-110.5 42t-108 58t-78.5 75.5
t-59 103.5t-18.5 132.5q0 188 150.5 301t369.5 113q111 0 231.5 -32t157.5 -32q25 0 47.5 6t32.5 12l10 7h31l106 -406l-80 -22q-74 160 -207 253t-296 93q-119 0 -189.5 -56.5t-70.5 -140.5q0 -37 12 -67.5t45 -56t56.5 -41t84 -36t85 -27.5t100.5 -28q98 -29 151 -45
t135 -56t125 -83t76 -116t33 -163q0 -213 -169 -344t-425 -131z" />
    <glyph glyph-name="T" unicode="T" horiz-adv-x="1435" 
d="M1296 1470l117 -401l-74 -35q-6 10 -16 27.5t-51 63.5t-90 81t-130 64.5t-173 32.5v-1074q0 -133 104 -159l-12 -70h-502l-12 70q45 12 73.5 53t28.5 106v1074q-92 -2 -173 -31t-131 -68t-88 -78t-54 -65l-17 -27l-73 35l118 401h25q68 -37 272 -36h559q203 0 275 36h24z
" />
    <glyph glyph-name="U" unicode="U" horiz-adv-x="1343" 
d="M678 -39q-287 0 -465 154.5t-154 435.5l58 653q12 135 -88 160l12 70h506l12 -70q-106 -25 -119 -160l-57 -651q-18 -203 90.5 -330t284.5 -127q188 0 296.5 126t90.5 331l-55 647q-6 66 -40 110t-83 54l12 70h324l12 -70q-47 -12 -71.5 -55t-20.5 -109l57 -649
q23 -264 -147 -427t-455 -163z" />
    <glyph glyph-name="V" unicode="V" horiz-adv-x="1370" 
d="M1376 1434l13 -70q-111 -27 -154 -160l-377 -1095q16 -31 55 -70l-8 -39q-160 8 -327 -37h-17l-426 1241q-47 133 -153 160l14 70h516l12 -70q-41 -12 -56 -50t5 -110l305 -889h15l307 889q20 72 5 110t-54 50l12 70h313z" />
    <glyph glyph-name="W" unicode="W" horiz-adv-x="2072" 
d="M2077 1434l14 -70q-47 -12 -88 -52t-59 -108l-334 -1112q33 -43 43 -51l-13 -39q-233 0 -337 -39h-29l-236 873h-14l-231 -738q10 -18 47 -59l-13 -39q-168 8 -338 -37h-16l-348 1241q-39 135 -143 160l16 70h520l10 -70q-41 -12 -60 -53t-1 -107l250 -889h10l244 770
l-19 72q-2 8 -9 34t-9 33t-9 27.5t-13.5 29.5t-17.5 25.5t-24.5 31t-29.5 28.5l18 70q205 -8 340 41h14l316 -1162h12l268 889q18 72 1 110t-58 50l10 70h316z" />
    <glyph glyph-name="X" unicode="X" horiz-adv-x="1390" 
d="M1214 229q86 -139 185 -159l-13 -70h-552l-13 70q43 12 52.5 51t-29.5 108l-246 379h-18l-250 -379q-39 -70 -29 -108.5t53 -50.5l-12 -70h-338l-12 70q94 18 184 159l334 514l-299 461q-90 139 -186 160l12 70h555l12 -70q-41 -12 -52 -51t28 -109l211 -323h16l213 323
q39 70 29.5 109t-52.5 51l13 70h336l12 -70q-98 -20 -184 -160l-297 -456z" />
    <glyph glyph-name="Y" unicode="Y" horiz-adv-x="1339" 
d="M416 0l-10 70q45 12 73.5 53t28.5 106v445l-342 530q-86 139 -184 160l10 70h555l12 -70q-41 -12 -52 -51t28 -109l235 -356h14l234 356q39 70 29.5 109t-52.5 51l13 70h338l12 -70q-98 -20 -184 -160l-347 -532v-443q0 -135 105 -159l-12 -70h-504z" />
    <glyph glyph-name="Z" unicode="Z" horiz-adv-x="1341" 
d="M1147 -39q-72 39 -273 39h-806l-13 76l803 1227h-217q-94 0 -179 -30t-139.5 -72t-95.5 -85t-59 -72l-16 -30l-74 35l127 424h26q72 -39 271 -39h747l13 -76l-805 -1227h280q94 0 181.5 34t142.5 82t98 95t62 80l18 35l74 -33l-142 -463h-24z" />
    <glyph glyph-name="bracketleft" unicode="[" horiz-adv-x="718" 
d="M141 -416l-2 1882h535v-102h-295v-1679h297v-101h-535z" />
    <glyph glyph-name="backslash" unicode="\" horiz-adv-x="710" 
d="M584 -444l-584 1939h127l584 -1939h-127z" />
    <glyph glyph-name="bracketright" unicode="]" horiz-adv-x="718" 
d="M45 -416v101h297v1679h-297v102h535v-1882h-535z" />
    <glyph glyph-name="asciicircum" unicode="^" horiz-adv-x="1099" 
d="M90 829l402 605h116l402 -605h-115l-346 332l-344 -332h-115z" />
    <glyph glyph-name="underscore" unicode="_" horiz-adv-x="1091" 
d="M0 -188v102h1094v-102h-1094z" />
    <glyph glyph-name="grave" unicode="`" horiz-adv-x="1064" 
d="M508 1157l-266 182q-74 47 -74 115q0 35 25.5 60.5t66.5 25.5q66 0 121 -72l199 -256z" />
    <glyph glyph-name="a" unicode="a" horiz-adv-x="1157" 
d="M1180 102l24 -61q-78 -80 -213 -80q-195 0 -241 178h-11q-51 -92 -144 -135t-194 -43q-152 0 -252 80t-100 215q0 80 37 144.5t91 105.5t143.5 74.5t167 52t186.5 39.5l-21 145q-8 74 -50 117t-101.5 43t-98 -35t-32.5 -88q12 -66 -27 -106.5t-100.5 -40.5t-96 36.5
t-34.5 102.5q2 102 108.5 182t300.5 80q170 0 290 -96.5t142 -286.5l56 -475q20 -164 108 -164q25 0 62 16zM520 123q82 0 142.5 69.5t56.5 155.5l-33 234q-352 -70 -352 -277q0 -84 52 -133t134 -49z" />
    <glyph glyph-name="b" unicode="b" horiz-adv-x="1284" 
d="M721 1108q219 0 362.5 -164t143.5 -413.5t-136.5 -409.5t-357.5 -160q-227 0 -368 201q-96 -70 -166 -162h-72v1202q0 133 -104 162l12 68q211 37 373 147l24 -8q-31 -115 -31 -352v-250h13q121 139 307 139zM735 100q100 0 165 91.5t65 224.5q0 117 -35 239.5t-113 218
t-180 95.5q-104 0 -169 -88t-65 -230q0 -119 34 -240.5t113 -216t185 -94.5z" />
    <glyph glyph-name="c" unicode="c" horiz-adv-x="1130" 
d="M639 -39q-252 0 -417 169t-165 409q0 258 164 413.5t408 155.5q197 0 333 -98.5t136 -225.5q0 -53 -41 -96t-96 -43q-63 0 -101.5 35t-56 85t-36.5 100t-65.5 85t-121.5 35q-100 0 -175 -92t-75 -231q0 -233 106.5 -359.5t298.5 -126.5q98 0 183.5 56.5t125.5 127.5
l60 -20q-29 -162 -143.5 -270.5t-321.5 -108.5z" />
    <glyph glyph-name="d" unicode="d" horiz-adv-x="1304" 
d="M1159 229q0 -66 29 -106.5t74 -52.5l-13 -70q-168 -8 -282 -39h-27l-29 154h-12q-133 -154 -336 -154q-217 0 -361.5 164t-144.5 413.5t136.5 409.5t357.5 160q195 0 321 -152h13v246q0 133 -105 162l13 68q201 33 370 147l25 -8q-29 -115 -29 -352v-990zM649 100
q104 0 168 89.5t64 228.5q0 119 -33 239.5t-112 216t-185 95.5q-102 0 -165.5 -91.5t-63.5 -226.5q0 -115 33.5 -237.5t112.5 -218t181 -95.5z" />
    <glyph glyph-name="e" unicode="e" horiz-adv-x="1212" 
d="M752 176q102 0 185 57.5t122 131.5l59 -23q-18 -154 -151 -267.5t-334 -113.5q-250 0 -413 167t-163 411q0 254 162 411.5t404 157.5q168 0 284.5 -78t163.5 -201q29 -70 70 -77l14 -90l-788 -222q86 -264 385 -264zM592 973q-109 0 -181.5 -94.5t-72.5 -229.5
q0 -33 4 -86l492 135q-10 109 -74 192t-168 83z" />
    <glyph glyph-name="f" unicode="f" horiz-adv-x="796" 
d="M393 1366q0 -55 51.5 -170t55.5 -127h307v-137h-289v-705q0 -66 28.5 -107.5t76.5 -51.5l-13 -68h-458l-13 68q47 10 76 52t29 107v705h-201v137h195q-4 25 -24.5 105.5t-20.5 132.5q0 127 90 215t241 88q121 0 205 -65.5t84 -162.5q0 -55 -29.5 -91t-85.5 -36
q-57 0 -86.5 34t-37 73t-30 72.5t-67.5 33.5q-39 0 -61.5 -27.5t-22.5 -74.5z" />
    <glyph glyph-name="g" unicode="g" horiz-adv-x="1189" 
d="M922 1075q-35 0 -64 -33q205 -117 205 -352q0 -186 -132 -297.5t-347 -111.5q-143 0 -254 49q-72 -18 -72 -72q0 -57 92 -77.5t340 -20.5q246 0 349.5 -61.5t103.5 -194.5q0 -170 -163 -266.5t-413 -96.5q-510 0 -510 246q0 117 113 176v10q-111 59 -111 193
q0 82 47.5 138t120.5 77v12q-137 115 -137 307q0 184 133 296t352 112q96 0 181 -25q98 168 264 168q66 0 111 -31.5t45 -89.5q0 -51 -27 -84.5t-82 -33.5q-39 0 -79.5 31.5t-65.5 31.5zM614 403q78 0 129.5 58.5t51.5 156.5q0 137 -69 251t-181 114q-82 0 -135.5 -58.5
t-53.5 -154.5q0 -129 70.5 -248t187.5 -119zM338 -76q-84 -33 -84 -112q0 -70 80 -110t237 -40q152 0 241 50t89 108q0 55 -54 71.5t-231 16.5q-157 0 -278 16z" />
    <glyph glyph-name="h" unicode="h" horiz-adv-x="1263" 
d="M1165 227q12 -131 119 -159l-12 -68h-457l-12 68q45 12 69.5 54t18.5 105l-49 508q-8 113 -63.5 172.5t-139.5 59.5q-90 0 -153.5 -60.5t-63.5 -154.5v-525q0 -131 104 -159l-12 -68h-459l-12 68q104 29 104 159v977q0 135 -104 160l12 68q211 37 373 149l25 -10
q-31 -115 -31 -352v-246h14q100 135 281 135q178 0 285.5 -110.5t125.5 -331.5z" />
    <glyph glyph-name="i" unicode="i" horiz-adv-x="575" 
d="M283 1229q-80 0 -126 47t-46 113q0 68 46 116.5t126 48.5q78 0 127 -50t49 -115q0 -63 -49 -111.5t-127 -48.5zM59 0l-12 68q104 29 105 159v512q0 131 -105 160l12 68q180 27 340 141h27v-881q0 -131 106 -159l-14 -68h-459z" />
    <glyph glyph-name="j" unicode="j" horiz-adv-x="587" 
d="M301 1229q-80 0 -126 47t-46 113q0 68 46 116.5t126 48.5q78 0 126 -50t48 -115.5t-48 -112.5t-126 -47zM98 -459q-133 0 -212 61.5t-79 153.5q0 51 35 87t92 36q63 0 92 -37t29 -82t18.5 -81.5t65.5 -36.5q41 0 64.5 43t23.5 102q0 51 -28.5 158.5t-28.5 181.5v612
q0 131 -102 160l12 68q178 27 338 141h26l2 -1180q0 -180 -88 -283.5t-260 -103.5z" />
    <glyph glyph-name="k" unicode="k" horiz-adv-x="1253" 
d="M1079 227q90 -131 209 -159l-12 -68h-508l-12 68q84 29 0 159l-228 346h-16q-18 -20 -49 -54t-41 -44v-248q0 -131 104 -159l-12 -68h-459l-12 68q104 31 104 159v977q0 133 -104 160l12 68q207 37 373 149l25 -10q-31 -115 -31 -352v-547h12l209 235q82 96 162 148.5
t186 52.5q100 0 160.5 -48t60.5 -130q0 -76 -38.5 -124t-112.5 -48q-70 0 -124 60.5t-95 60.5q-47 0 -131 -86z" />
    <glyph glyph-name="l" unicode="l" 
d="M57 0l-14 68q104 29 104 159v977q0 135 -104 160l14 68q211 37 371 149l25 -10q-31 -115 -31 -352v-992q0 -129 104 -159l-12 -68h-457z" />
    <glyph glyph-name="m" unicode="m" horiz-adv-x="1886" 
d="M1774 227q4 -63 37.5 -105t80.5 -54l-12 -68h-459l-12 68q102 29 88 159l-43 459q-10 125 -49 188.5t-127 63.5q-84 0 -134 -70.5t-50 -173.5v-6v-22v-439q0 -131 102 -159l-12 -68h-461l-12 68q104 29 104 159v459q0 119 -47 185.5t-139 66.5q-90 0 -148.5 -68.5
t-58.5 -171.5v-471q0 -129 104 -159l-12 -68h-459l-12 68q104 29 104 159v504q0 66 -28.5 108t-75.5 52l12 67q160 27 326 150h27l8 -186h12q115 186 305 186q223 0 311 -186h13q113 186 307 186q334 0 373 -442z" />
    <glyph glyph-name="n" unicode="n" horiz-adv-x="1253" 
d="M1153 227q12 -131 121 -159l-12 -68h-459l-15 68q102 29 89 159l-41 459q-10 119 -62.5 185.5t-144.5 66.5q-90 0 -149.5 -67.5t-59.5 -168.5v-475q0 -66 29.5 -106.5t76.5 -52.5l-14 -68h-457l-10 68q100 29 100 159v504q0 135 -102 160l12 67q160 27 326 150h27l6 -166
h10q106 166 299 166q356 0 395 -442z" />
    <glyph glyph-name="o" unicode="o" horiz-adv-x="1232" 
d="M627 -39q-254 0 -412 165t-158 417q0 248 154 406.5t403 158.5q252 0 407 -163t155 -415q0 -250 -150.5 -409.5t-398.5 -159.5zM682 102q109 0 169 89.5t60 226.5q0 104 -38.5 227t-123.5 223.5t-192 100.5q-111 0 -172 -88t-61 -230q0 -106 38.5 -228t124.5 -221.5
t195 -99.5z" />
    <glyph glyph-name="p" unicode="p" horiz-adv-x="1290" 
d="M727 1108q219 0 362.5 -164t143.5 -413.5t-136 -409.5t-358 -160q-195 0 -321 152h-10v-303q0 -133 104 -160l-10 -70h-459l-12 70q102 25 102 160v921q0 66 -28.5 108t-75.5 52l14 70q170 29 313 147h27l12 -150h11q126 150 321 150zM739 102q102 0 167 90.5t65 225.5
q0 115 -35 237.5t-113 218t-180 95.5q-104 0 -168.5 -88t-64.5 -230q0 -119 33.5 -239.5t112.5 -215t183 -94.5z" />
    <glyph glyph-name="q" unicode="q" horiz-adv-x="1284" 
d="M1163 -190q0 -133 103 -160l-13 -70h-456l-13 70q104 27 105 160v294h-17q-125 -143 -307 -143q-219 0 -363.5 164t-144.5 413.5t136.5 409.5t357.5 160q223 0 364 -207q106 74 177 168h71v-1259zM649 100q104 0 168 88t64 230q0 86 -20.5 178t-59.5 177t-104.5 140.5
t-145.5 55.5q-102 0 -167 -91.5t-65 -226.5q0 -115 35 -237.5t114 -218t181 -95.5z" />
    <glyph glyph-name="r" unicode="r" horiz-adv-x="968" 
d="M733 1108q100 0 160.5 -57.5t60.5 -141.5q0 -72 -49 -123t-119 -51q-57 0 -93 28t-47 59.5t-31.5 59t-53.5 27.5q-47 0 -93 -59t-46 -139v-482q0 -133 104 -159l-12 -70h-459l-12 70q102 25 102 159v500q0 135 -102 160l12 69q145 23 324 150h29l8 -178h8
q121 178 309 178z" />
    <glyph glyph-name="s" unicode="s" horiz-adv-x="1095" 
d="M598 -39q-78 0 -200 36t-160 36q-25 0 -47.5 -8.5t-32.5 -16.5l-11 -8h-24l-90 375l61 18q96 -152 227.5 -230.5t266.5 -78.5q86 0 141 38t55 109q0 78 -84 128.5t-229 93.5q-387 106 -387 331q0 141 122 232.5t298 91.5q90 0 190.5 -35t134.5 -35q51 0 89 31h22l72 -328
l-72 -24q-78 133 -184.5 203.5t-212.5 70.5q-78 0 -124 -35.5t-46 -89.5q0 -39 21.5 -68.5t67.5 -53t88 -38t112 -34.5q90 -27 147 -49.5t122.5 -62.5t97.5 -97t32 -133q0 -174 -130 -271.5t-333 -97.5z" />
    <glyph glyph-name="t" unicode="t" horiz-adv-x="806" 
d="M512 -39q-147 0 -224 69.5t-77 227.5v672h-182v94q270 86 372 348h86v-303h277v-139h-277v-678q0 -152 121 -152q66 0 125 25l27 -115q-111 -49 -248 -49z" />
    <glyph glyph-name="u" unicode="u" horiz-adv-x="1280" 
d="M1133 229q0 -133 104 -159l-12 -72q-172 -6 -287 -37h-25l-43 191h-6q-123 -190 -352 -191q-172 0 -276.5 110.5t-104.5 329.5v336q0 66 -28.5 107t-73.5 53l12 70q182 29 340 141h27v-725q0 -121 60 -186.5t161 -65.5q94 0 161.5 67.5t67.5 166.5v372q0 66 -28.5 108
t-73.5 52l12 70q190 33 338 141h27v-879z" />
    <glyph glyph-name="v" unicode="v" horiz-adv-x="1093" 
d="M901 1108q80 0 120 -46t40 -126q0 -88 -103 -301l-299 -635h-192l-281 729q-53 141 -176 162l10 70q182 27 291 147h27l313 -825h11l188 409q25 49 24 72q0 25 -20 46t-46 35.5t-46.5 47.5t-20.5 78q0 61 44 99t116 38z" />
    <glyph glyph-name="w" unicode="w" horiz-adv-x="1613" 
d="M1413 1108q80 0 124 -50t44 -128q0 -92 -88 -295l-270 -635h-226l-176 561h-8l-186 -561h-262l-207 729q-43 141 -160 162l12 70q188 27 314 147h24l230 -807h10l252 768h129l243 -768h11l161 393q18 45 19 68q0 25 -22.5 47t-48 36.5t-48 48.5t-22.5 79q0 61 40.5 98
t110.5 37z" />
    <glyph glyph-name="x" unicode="x" horiz-adv-x="1267" 
d="M1044 229q90 -135 203 -159l-12 -70h-510l-12 70q39 12 43 51t-39 108l-152 222h-10l-162 -222q-49 -66 -50 -108.5t36 -50.5l-21 -70h-333l-5 70q119 25 224 159l235 316l-196 297q-84 131 -205 159l12 68h512l12 -68q-39 -12 -43 -52t39 -107l107 -156h10l115 156
q35 43 46 77.5t2 54t-34 27.5l21 68h333l4 -68q-119 -29 -221 -159l-188 -250z" />
    <glyph glyph-name="y" unicode="y" horiz-adv-x="1118" 
d="M922 1108q78 0 124 -53.5t46 -130.5q0 -152 -117 -430q-145 -397 -336 -654q-106 -156 -196.5 -227.5t-198.5 -71.5q-78 0 -132.5 45t-54.5 115q0 66 42 105.5t106 39.5q35 0 63.5 -15t44 -32.5t31.5 -33t31 -15.5q66 0 166 166q18 27 55 84h-61l-320 729
q-61 137 -205 162l13 70q82 12 169 51t134 96h28l373 -842h14q61 127 105 269q68 166 65 231q-2 27 -24.5 49.5t-49 36.5t-49 46t-22.5 75q0 61 44 98t112 37z" />
    <glyph glyph-name="z" unicode="z" horiz-adv-x="1107" 
d="M926 -39q-72 39 -273 39h-600l-12 84l621 860v12h-162q-125 0 -205 -49t-135 -162l-64 27l70 297h852l12 -82l-616 -852v-12h188q82 0 155.5 28.5t120 70.5t82 84t52.5 71l14 29l64 -31l-138 -414h-26z" />
    <glyph glyph-name="braceleft" unicode="{" horiz-adv-x="704" 
d="M657 -440q-84 0 -163.5 21.5t-147 65.5t-102.5 122.5t-23 181.5l39 317q10 90 -47 144.5t-166 54.5v123q109 0 166 54t47 144l-39 318q-12 102 23 181t102.5 124t147 66.5t163.5 21.5v-78q-96 0 -160.5 -48t-50.5 -156l43 -332q18 -145 -58.5 -232.5t-203.5 -120.5v-8
q127 -33 204 -120t58 -232l-43 -332q-12 -106 52.5 -154t158.5 -48v-78z" />
    <glyph glyph-name="bar" unicode="|" horiz-adv-x="673" 
d="M274 -444v1931h123v-1931h-123z" />
    <glyph glyph-name="braceright" unicode="}" horiz-adv-x="704" 
d="M47 -440v78q94 0 158.5 48t50.5 154l-43 332q-18 145 59.5 231t204.5 121v8q-127 35 -204.5 121t-59.5 232l43 332q14 109 -50.5 156.5t-158.5 47.5v78q84 0 164 -21.5t147.5 -66.5t102.5 -124t22 -181l-39 -318q-12 -90 46.5 -144t166.5 -54v-123q-109 0 -167 -54.5
t-46 -144.5l39 -317q12 -102 -22.5 -181t-103 -123t-147.5 -65.5t-163 -21.5z" />
    <glyph glyph-name="asciitilde" unicode="~" horiz-adv-x="1105" 
d="M729 553q-84 0 -164 44t-143.5 88t-112.5 44q-57 0 -85.5 -32.5t-28.5 -114.5h-111q0 188 81 279t212 91q84 0 165 -44t146.5 -88t114.5 -44q57 0 86 33t29 115h104q0 -188 -80 -279.5t-213 -91.5z" />
    <glyph glyph-name="uni00A0" unicode="&#xa0;" horiz-adv-x="280" 
 />
    <glyph glyph-name="exclamdown" unicode="&#xa1;" 
d="M280.5 1098q-79.5 0 -134 52t-54.5 134q0 84 55.5 136.5t133.5 52.5q80 0 135 -52.5t55 -136.5q0 -82 -55.5 -134t-135 -52zM285 -39q-80 0 -136.5 51t-54.5 168q0 98 51.5 320.5t59.5 470.5h160q8 -248 60 -470t52 -321q0 -117 -56 -168t-136 -51z" />
    <glyph glyph-name="cent" unicode="&#xa2;" horiz-adv-x="1261" 
d="M1077 551q-25 -129 -124 -228.5t-259 -123.5v-199h-157v197q-201 23 -326 165t-125 343q0 213 126 352t325 166v211h157v-209q162 -18 268.5 -105.5t106.5 -193.5q0 -51 -37 -91t-90 -40q-59 0 -94 32.5t-51.5 79.5t-35 94.5t-62.5 80t-117 32.5q-104 0 -188.5 -97
t-84.5 -226q0 -203 107.5 -313.5t281.5 -110.5q104 0 194.5 59t131.5 145z" />
    <glyph glyph-name="sterling" unicode="&#xa3;" horiz-adv-x="1490" 
d="M1323 494q55 -31 92 -93.5t37 -132.5q0 -152 -86 -229.5t-229 -77.5q-23 0 -46.5 3t-49 11.5t-43 13.5t-47 21.5t-42 21.5t-47.5 27.5t-42 27.5t-46 31.5t-43 28.5q-68 -92 -171 -139t-210 -47q-141 0 -222 64.5t-81 169.5q0 106 87 169.5t206 63.5q94 0 176 -18
q-6 39 -19.5 82t-25.5 68.5t-35.5 73.5t-34.5 68h-276v156h219q-20 82 -20 164q0 217 151.5 334t380.5 117q201 0 326 -94.5t125 -235.5q0 -78 -39 -128t-109 -50q-61 0 -98 32.5t-37 79.5q0 23 12.5 61t12.5 54q0 59 -51.5 102t-135.5 43q-109 0 -170 -85t-61 -199
q0 -96 41 -195h338v-156h-265q72 -147 72 -260q0 -72 -14 -127q219 -94 303 -106q35 -6 65 -6q61 0 107.5 34.5t46.5 100.5q0 35 -18.5 62.5t-36.5 35.5zM332 111q68 0 117 44t65 119q-94 35 -170 35q-57 0 -99 -28.5t-42 -73.5q0 -43 37 -69.5t92 -26.5z" />
    <glyph glyph-name="currency" unicode="&#xa4;" horiz-adv-x="1316" 
d="M659 332q-150 0 -268 80l-201 -201l-145 147l199 199q-78 115 -78 266q0 154 80 267l-201 202l145 146l201 -201q113 78 268 78q152 0 265 -78l202 201l148 -148l-203 -198q80 -121 80 -269q0 -145 -80 -266l201 -201l-146 -145l-200 201q-122 -80 -267 -80zM659 547
q113 0 195 82t82 194q0 115 -82 197t-195 82q-115 0 -196.5 -82t-81.5 -197q0 -113 81.5 -194.5t196.5 -81.5z" />
    <glyph glyph-name="yen" unicode="&#xa5;" horiz-adv-x="1423" 
d="M1386 1434l13 -68q-94 -23 -185 -162l-258 -399h256v-139h-342v-172h342v-142h-342v-123q0 -133 105 -161l-12 -68h-504l-13 68q104 29 105 161v123h-338v142h338v172h-338v139h254l-258 399q-88 137 -186 162l12 68h555l12 -68q-43 -14 -53 -53t29 -109l235 -356h14
l234 356q39 72 29.5 110t-52.5 52l13 68h335z" />
    <glyph glyph-name="brokenbar" unicode="&#xa6;" horiz-adv-x="673" 
d="M274 657v830h123v-830h-123zM274 -444v827h123v-827h-123z" />
    <glyph glyph-name="section" unicode="&#xa7;" horiz-adv-x="1052" 
d="M72 764q0 104 84 205q-84 74 -84 188q2 131 131 223.5t307 92.5t298 -81t120 -182q0 -47 -30 -78.5t-79 -31.5q-47 0 -73.5 25.5t-40 62.5t-31 74.5t-62.5 63.5t-118 26q-88 0 -147.5 -47.5t-59.5 -116.5q0 -27 12 -48.5t42 -40t51.5 -30.5t68.5 -26.5t64.5 -18.5
t66.5 -16q10 -2 16 -4q188 -49 281.5 -125t91.5 -211q0 -104 -86 -199q88 -80 86 -195q0 -131 -128 -222t-308 -91q-195 0 -320 81t-125 181q2 45 31 77t78 32q47 0 74.5 -25.5t45 -62.5t40 -75t71.5 -63.5t127 -25.5q88 0 143.5 46t57.5 120q0 37 -30.5 67.5t-76 50
t-97.5 35t-97 25.5q-14 2 -21 4q-188 49 -282 126t-92 210zM252 825q0 -152 266 -209q178 -39 258 -79q25 39 25 77q2 74 -67.5 123t-198.5 78q-188 45 -265 84q-18 -33 -18 -74z" />
    <glyph glyph-name="dieresis" unicode="&#xa8;" horiz-adv-x="937" 
d="M268.5 1223q-65.5 0 -105.5 41t-40 94q0 57 40 99t105.5 42t106.5 -42t41 -99q0 -53 -41 -94t-106.5 -41zM667.5 1223q-65.5 0 -105.5 41t-40 94q0 57 40 99t105.5 42t106.5 -42t41 -99q0 -53 -41 -94t-106.5 -41z" />
    <glyph glyph-name="copyright" unicode="&#xa9;" horiz-adv-x="1628" 
d="M815 -39q-317 0 -542.5 222.5t-225.5 533.5t225.5 533.5t540.5 222.5q317 0 542.5 -222.5t225.5 -533.5t-225.5 -533.5t-540.5 -222.5zM815 43q283 0 482.5 197.5t199.5 476t-199.5 475.5t-484.5 197q-283 0 -482.5 -197t-199.5 -475q0 -281 199.5 -477.5t484.5 -196.5z
M817 250q-203 0 -329 129t-126 352q0 190 127 325.5t320 135.5q47 0 119.5 -11.5t124.5 -11.5h69l62 -286l-51 -15q-100 233 -299 234q-127 0 -201 -105.5t-74 -267.5q0 -178 76 -277.5t203 -99.5q117 0 190.5 74t99.5 164l74 -17q-25 -139 -127 -231t-258 -92z" />
    <glyph glyph-name="ordfeminine" unicode="&#xaa;" horiz-adv-x="595" 
d="M551 1030l12 -29q-35 -37 -100 -36q-90 0 -113 75h-4q-43 -76 -147 -75q-68 0 -112 34.5t-44 94.5q0 45 21.5 77.5t67.5 52t83 30t100 22.5l-10 67q-10 66 -59 66q-25 0 -40.5 -14.5t-12.5 -36.5q6 -29 -12.5 -48.5t-47.5 -19.5t-46 19.5t-15 48.5q2 45 49 80t135 35
q78 0 131 -44.5t66 -132.5l20 -200q8 -72 53 -72q13 0 25 6zM256 1042q35 0 58.5 30t19.5 69l2 -2q-2 8 -7 43t-7 53q-141 -33 -142 -117q0 -35 21.5 -55.5t54.5 -20.5zM61 815v94h467v-94h-467z" />
    <glyph glyph-name="guillemotleft" unicode="&#xab;" horiz-adv-x="1118" 
d="M512 -8l-418 446v109l418 446l72 -47l-219 -454l219 -455zM954 -8l-419 446v109l419 446l70 -47l-219 -454l219 -455z" />
    <glyph glyph-name="logicalnot" unicode="&#xac;" horiz-adv-x="1110" 
d="M932 489v328h-914v154h1076v-482h-162z" />
    <glyph glyph-name="uni00AD" unicode="&#xad;" horiz-adv-x="448" 
d="M18 426v139h414v-139h-414z" />
    <glyph glyph-name="registered" unicode="&#xae;" horiz-adv-x="913" 
d="M457 1473q170 0 290.5 -119t120.5 -287q0 -166 -120.5 -284.5t-290.5 -118.5t-291 118.5t-121 284.5q0 168 121 287t291 119zM456.5 737q139.5 0 238 96.5t98.5 233.5t-98.5 234.5t-238 97.5t-237.5 -97.5t-98 -234.5t98 -233.5t237.5 -96.5zM705 891l2 -27
q-41 -12 -72 -12q-88 0 -109 82q-16 66 -33.5 84t-72.5 18h-27v-96q0 -47 33 -53l-6 -25h-164l-6 25q33 6 33 53v268q0 45 -33 52l6 22h231q82 0 131.5 -31.5t49.5 -89.5q0 -88 -105 -112v-5q41 -4 58.5 -25.5t29.5 -64.5q0 -4 3 -14t4 -12t3.5 -10.5t4.5 -10.5t6 -7t8 -6
t10.5 -2t14.5 -1zM449 1237q-27 0 -56 -4v-150h62q100 0 100 74q0 37 -28.5 58.5t-77.5 21.5z" />
    <glyph glyph-name="macron" unicode="&#xaf;" horiz-adv-x="937" 
d="M168 1268v141h602v-141h-602z" />
    <glyph glyph-name="degree" unicode="&#xb0;" horiz-adv-x="542" 
d="M270 1026q-92 0 -157.5 65.5t-65.5 155.5q0 94 65.5 160t157.5 66q94 0 160 -66t66 -160q0 -90 -66 -155.5t-160 -65.5zM270 1116q55 0 94 38t39 93.5t-38.5 94t-94.5 38.5q-53 0 -91 -38.5t-38 -94t38 -93.5t91 -38z" />
    <glyph glyph-name="plusminus" unicode="&#xb1;" horiz-adv-x="1153" 
d="M514 211v448h-496v123h496v496h123v-496h498v-123h-498v-448h-123zM18 0v117h1117v-117h-1117z" />
    <glyph glyph-name="uni00B2" unicode="&#xb2;" horiz-adv-x="536" 
d="M446 1051l31 -13l-53 -174h-10q-37 14 -113 15h-235v71q115 84 179 161t64 175q0 49 -25.5 79t-68.5 30q-47 0 -81 -36t-34 -99l-41 6q2 84 55.5 134t137.5 50q86 0 141.5 -44t55.5 -120q0 -98 -70 -167.5t-189 -133.5v-4h70q125 0 186 70z" />
    <glyph glyph-name="uni00B3" unicode="&#xb3;" horiz-adv-x="526" 
d="M233 864q-70 0 -123 25.5t-53 73.5q0 57 54 57q27 0 42 -16.5t20 -35t20.5 -34.5t39.5 -16q47 0 74 31.5t27 89t-32 92t-89 34.5h-18v49h18q43 0 66.5 28t23.5 67t-24.5 62.5t-65.5 23.5q-39 0 -67.5 -29t-30.5 -80l-37 4q6 74 55 116t129 42t127 -36t47 -89
q0 -86 -94 -117v-6q55 -10 92 -50t37 -95q0 -84 -62.5 -137.5t-175.5 -53.5z" />
    <glyph glyph-name="acute" unicode="&#xb4;" horiz-adv-x="837" 
d="M350 1157l-69 57l194 254q57 72 123 72q39 0 65.5 -25.5t26.5 -60.5q0 -68 -76 -115z" />
    <glyph glyph-name="mu" unicode="&#xb5;" horiz-adv-x="1306" 
d="M1264 137l28 -110q-35 -29 -99.5 -47.5t-117.5 -18.5q-205 0 -223 174h-8q-125 -172 -332 -172q-76 0 -125 17q10 -25 33.5 -72t35 -71.5t21.5 -58.5t10 -59q0 -82 -49 -125t-125 -43q-74 0 -124 49.5t-50 131.5v1235h275v-598q0 -238 215 -238q92 0 156.5 67.5
t64.5 168.5v600h272l2 -754q0 -96 66 -96q39 0 74 20z" />
    <glyph glyph-name="paragraph" unicode="&#xb6;" horiz-adv-x="829" 
d="M180 -428q-147 0 -232 55.5t-85 136.5q0 51 34.5 84t84 33t84 -28.5t53 -61.5t53.5 -61.5t84 -28.5q244 0 244 334v684q-217 0 -334 104.5t-117 257.5q0 156 116 254.5t298 98.5h323l11 -54q-53 -14 -88 -56t-35 -105v-1121q0 -270 -136.5 -398t-357.5 -128z" />
    <glyph glyph-name="periodcentered" unicode="&#xb7;" horiz-adv-x="557" 
d="M278.5 584q-79.5 0 -135 52t-55.5 136q0 82 55.5 134t135 52t134 -52t54.5 -134q0 -84 -54.5 -136t-134 -52z" />
    <glyph glyph-name="cedilla" unicode="&#xb8;" horiz-adv-x="1120" 
d="M541 -477q-106 0 -177 43t-71 100q0 31 20.5 53.5t51.5 22.5q37 0 58 -20.5t29.5 -46t34 -46t70.5 -20.5q55 0 87 26.5t32 73.5q0 29 -21.5 47.5t-56.5 18.5q-43 0 -74 -25l-63 29l119 274l106 -45l-63 -139q20 10 55 10q76 0 121 -37t45 -102q0 -88 -84 -152.5
t-219 -64.5z" />
    <glyph glyph-name="uni00B9" unicode="&#xb9;" horiz-adv-x="460" 
d="M111 877l-7 28q59 14 60 66v352h-58l-6 33l162 78h41v-463q0 -51 57 -66l-6 -28h-243z" />
    <glyph glyph-name="ordmasculine" unicode="&#xba;" horiz-adv-x="555" 
d="M281 965q-115 0 -183.5 71.5t-68.5 184.5q0 111 68.5 181.5t178.5 70.5q113 0 181.5 -72t68.5 -184.5t-67 -182t-178 -69.5zM307 1032q43 0 66.5 37t23.5 92q0 74 -41 159t-106 85q-45 0 -69.5 -36t-24.5 -95q0 -74 42.5 -158t108.5 -84zM47 815v94h467v-94h-467z" />
    <glyph glyph-name="guillemotright" unicode="&#xbb;" horiz-adv-x="1118" 
d="M164 -8l-70 45l219 455l-219 454l70 47l420 -446v-109zM604 -8l-69 45l219 455l-219 454l69 47l420 -446v-109z" />
    <glyph glyph-name="onequarter" unicode="&#xbc;" horiz-adv-x="636" 
d="M250 1323h-57l-7 33l162 78h41v-463q0 -51 57 -66l-6 -28h-243l-7 28q59 14 60 66v352zM-14 768h667v-100h-667v100zM428 555v-369h88l-12 -53h-76v-39q0 -51 57 -65l-4 -29h-248l-4 29q57 14 58 65v39h-234v41l275 381h100zM127 186h160v217h-4l-156 -213v-4z" />
    <glyph glyph-name="onehalf" unicode="&#xbd;" horiz-adv-x="636" 
d="M250 1323h-57l-7 33l162 78h41v-463q0 -51 57 -66l-6 -28h-243l-7 28q59 14 60 66v352zM-14 768h667v-100h-667v100zM324 102q133 0 186 70l31 -14l-54 -174h-10q-33 16 -110 16h-238v72q76 55 120 95t84 104.5t40 134.5q0 51 -25.5 80.5t-68.5 29.5q-45 0 -79 -36
t-36 -99l-41 6q2 84 56 134t136 50q86 0 141.5 -45t55.5 -120q0 -98 -69.5 -168t-188.5 -134v-2h70z" />
    <glyph glyph-name="threequarters" unicode="&#xbe;" horiz-adv-x="636" 
d="M289 864q-70 0 -123 25.5t-53 73.5q0 57 53 57q27 0 42 -16.5t20 -35t20.5 -34.5t40.5 -16q47 0 73.5 31.5t26.5 89t-31.5 92t-89.5 34.5h-18v49h18q43 0 66.5 28t23.5 67t-23.5 62.5t-66.5 23.5q-39 0 -67.5 -29t-30.5 -80l-37 4q6 74 55.5 116t129 42t127 -36t47.5 -89
q0 -86 -95 -117v-6q55 -10 92 -50t37 -95q0 -84 -62 -137.5t-175 -53.5zM-14 768h667v-100h-667v100zM428 555v-369h88l-12 -53h-76v-39q0 -51 57 -65l-4 -29h-248l-4 29q57 14 58 65v39h-234v41l275 381h100zM127 186h160v217h-4l-156 -213v-4z" />
    <glyph glyph-name="questiondown" unicode="&#xbf;" horiz-adv-x="1040" 
d="M788.5 1098q-79.5 0 -135 52t-55.5 134q0 84 55.5 136.5t135 52.5t135 -52.5t55.5 -136.5q0 -82 -55.5 -134t-135 -52zM766 -39q-227 0 -414.5 164t-187.5 346q0 88 31.5 152.5t80 101.5t124 59.5t146 29.5t165.5 7v150h166v-377h-86q-72 0 -120 -2t-116 -11.5
t-108.5 -26.5t-71.5 -51t-31 -81q0 -113 99.5 -219.5t220.5 -106.5q51 0 85.5 21.5t53 52.5t37 62.5t52.5 53t87 21.5q55 0 93 -40t38 -95q0 -100 -96 -155.5t-248 -55.5z" />
    <glyph glyph-name="Agrave" unicode="&#xc0;" horiz-adv-x="1398" 
d="M381 1704q-76 47 -76 115q0 35 27.5 60.5t68.5 25.5q61 0 119 -72l197 -256l-72 -55zM1253 227q53 -131 164 -157l-12 -70h-518l-13 70q90 29 39 157l-51 133h-530l-51 -133q-51 -131 41 -157l-13 -70h-315l-12 70q115 27 163 157l381 977q-41 57 -116 109l8 69
q205 8 327 93h17zM387 506h418l-205 528h-8z" />
    <glyph glyph-name="Aacute" unicode="&#xc1;" horiz-adv-x="1398" 
d="M872 1704l-264 -182l-71 57l196 254q59 74 121 74q39 0 66.5 -27t27.5 -61q0 -68 -76 -115zM1253 227q53 -131 164 -157l-12 -70h-518l-13 70q90 29 39 157l-51 133h-530l-51 -133q-51 -131 41 -157l-13 -70h-315l-12 70q115 27 163 157l381 977q-41 57 -116 109l8 69
q205 8 327 93h17zM387 506h418l-205 528h-8z" />
    <glyph glyph-name="Acircumflex" unicode="&#xc2;" horiz-adv-x="1398" 
d="M698 1638l-282 -127l-47 74l329 281l330 -281l-45 -74zM1253 227q53 -131 164 -157l-12 -70h-518l-13 70q90 29 39 157l-51 133h-530l-51 -133q-51 -131 41 -157l-13 -70h-315l-12 70q115 27 163 157l381 977q-41 57 -116 109l8 69q205 8 327 93h17zM387 506h418
l-205 528h-8z" />
    <glyph glyph-name="Atilde" unicode="&#xc3;" horiz-adv-x="1398" 
d="M555 1720q-68 0 -84 -80l-92 25q14 115 67.5 166t124.5 51q61 0 149.5 -52t125.5 -52q63 0 84 77l88 -22q-12 -115 -66.5 -167t-126.5 -52q-61 0 -147 53t-123 53zM1253 227q53 -131 164 -157l-12 -70h-518l-13 70q90 29 39 157l-51 133h-530l-51 -133q-51 -131 41 -157
l-13 -70h-315l-12 70q115 27 163 157l381 977q-41 57 -116 109l8 69q205 8 327 93h17zM387 506h418l-205 528h-8z" />
    <glyph glyph-name="Adieresis" unicode="&#xc4;" horiz-adv-x="1398" 
d="M497.5 1587q-65.5 0 -105.5 41t-40 94q0 57 40 99.5t105.5 42.5t106.5 -42t41 -100q0 -53 -41 -94t-106.5 -41zM899.5 1587q-65.5 0 -105.5 41t-40 94q0 57 40 99.5t105.5 42.5t105 -42t39.5 -100q0 -53 -39.5 -94t-105 -41zM1253 227q53 -131 164 -157l-12 -70h-518
l-13 70q90 29 39 157l-51 133h-530l-51 -133q-51 -131 41 -157l-13 -70h-315l-12 70q115 27 163 157l381 977q-41 57 -116 109l8 69q205 8 327 93h17zM387 506h418l-205 528h-8z" />
    <glyph glyph-name="Aring" unicode="&#xc5;" horiz-adv-x="1398" 
d="M668 1536q-90 0 -154.5 63.5t-64.5 153.5t64.5 153.5t154.5 63.5t154.5 -63.5t64.5 -153.5t-64.5 -153.5t-154.5 -63.5zM668 1855q-43 0 -72 -29.5t-29 -72.5q0 -45 29 -74.5t72 -29.5t73.5 29.5t30.5 74.5q0 43 -30.5 72.5t-73.5 29.5zM1253 227q53 -131 164 -157
l-12 -70h-518l-13 70q90 29 39 157l-51 133h-530l-51 -133q-51 -131 41 -157l-13 -70h-315l-12 70q115 27 163 157l381 977q-41 57 -116 109l8 69q205 8 327 93h17zM387 506h418l-205 528h-8z" />
    <glyph glyph-name="AE" unicode="&#xc6;" horiz-adv-x="2285" 
d="M2148 389l76 -35l-117 -391h-26q-31 16 -121 26.5t-166 10.5h-811l-12 68q102 29 102 161v131h-577l-97 -133q-98 -127 -14 -159l-12 -68h-340l-13 68q117 29 216 159l800 1098q-27 29 -65 39l12 70h1083l82 -326l-73 -27q-4 8 -12.5 23.5t-45.5 52.5t-84 65.5t-134 52
t-189 23.5q-113 0 -215 -20v-473h379q66 0 109.5 28.5t53.5 77.5l72 -12l-2 -324l-70 -12q-10 49 -54 78t-107 29h-381v-514q154 -23 272 -23q94 0 179 26.5t138.5 64.5t92.5 75t55 63zM602 508h471v635h-10z" />
    <glyph glyph-name="Ccedilla" unicode="&#xc7;" horiz-adv-x="1413" 
d="M1366 494q-33 -213 -169 -362.5t-370 -168.5l-43 -94q20 10 56 10q76 0 122 -37t46 -102q0 -86 -85 -151.5t-221 -65.5q-106 0 -175.5 42t-69.5 101q0 31 20.5 53.5t50.5 22.5q37 0 58.5 -20.5t29 -46t33 -46t70.5 -20.5q55 0 87 26.5t32 73.5q0 29 -21.5 47.5
t-56.5 18.5q-45 0 -72 -25l-65 29l79 184q-291 25 -460.5 234t-169.5 518q0 322 199.5 540t502.5 218q76 0 169 -19.5t128 -19.5q104 0 166 39h25l88 -465l-84 -17q-55 154 -171 251t-288 97q-160 0 -289 -140t-129 -370q0 -303 148.5 -479t353.5 -176q276 0 391 342z" />
    <glyph glyph-name="Egrave" unicode="&#xc8;" horiz-adv-x="1308" 
d="M520 1704q-74 47 -74 115q0 35 26 60.5t67 25.5q66 0 120 -72l199 -256l-72 -55zM1227 389l73 -35l-116 -391h-25q-31 16 -122 26.5t-167 10.5h-811l-12 68q104 29 105 161v975q0 135 -105 160l12 70h1082l84 -326l-72 -27q-4 8 -13.5 23.5t-46 53.5t-83.5 66.5
t-134.5 52t-191.5 23.5q-111 0 -213 -20v-475h381q66 0 110 29.5t54 76.5l69 -12v-324l-69 -12q-12 49 -55 78t-109 29h-381v-514q154 -23 272 -23q96 0 181.5 26.5t137.5 64.5t92 75t56 63z" />
    <glyph glyph-name="Eacute" unicode="&#xc9;" horiz-adv-x="1308" 
d="M786 1704l-266 -182l-69 57l196 254q55 72 123 72q39 0 64.5 -26t25.5 -60q0 -68 -74 -115zM1227 389l73 -35l-116 -391h-25q-31 16 -122 26.5t-167 10.5h-811l-12 68q104 29 105 161v975q0 135 -105 160l12 70h1082l84 -326l-72 -27q-4 8 -13.5 23.5t-46 53.5
t-83.5 66.5t-134.5 52t-191.5 23.5q-111 0 -213 -20v-475h381q66 0 110 29.5t54 76.5l69 -12v-324l-69 -12q-12 49 -55 78t-109 29h-381v-514q154 -23 272 -23q96 0 181.5 26.5t137.5 64.5t92 75t56 63z" />
    <glyph glyph-name="Ecircumflex" unicode="&#xca;" horiz-adv-x="1308" 
d="M655 1638l-284 -127l-47 74l331 281l330 -281l-47 -74zM1227 389l73 -35l-116 -391h-25q-31 16 -122 26.5t-167 10.5h-811l-12 68q104 29 105 161v975q0 135 -105 160l12 70h1082l84 -326l-72 -27q-4 8 -13.5 23.5t-46 53.5t-83.5 66.5t-134.5 52t-191.5 23.5
q-111 0 -213 -20v-475h381q66 0 110 29.5t54 76.5l69 -12v-324l-69 -12q-12 49 -55 78t-109 29h-381v-514q154 -23 272 -23q96 0 181.5 26.5t137.5 64.5t92 75t56 63z" />
    <glyph glyph-name="Edieresis" unicode="&#xcb;" horiz-adv-x="1308" 
d="M452.5 1587q-65.5 0 -105.5 41t-40 94q0 57 40 99.5t105.5 42.5t106.5 -42t41 -100q0 -53 -41 -94t-106.5 -41zM854 1587q-66 0 -105.5 41t-39.5 94q0 57 39.5 99.5t105.5 42.5t105.5 -42t39.5 -100q0 -53 -39.5 -94t-105.5 -41zM1227 389l73 -35l-116 -391h-25
q-31 16 -122 26.5t-167 10.5h-811l-12 68q104 29 105 161v975q0 135 -105 160l12 70h1082l84 -326l-72 -27q-4 8 -13.5 23.5t-46 53.5t-83.5 66.5t-134.5 52t-191.5 23.5q-111 0 -213 -20v-475h381q66 0 110 29.5t54 76.5l69 -12v-324l-69 -12q-12 49 -55 78t-109 29h-381
v-514q154 -23 272 -23q96 0 181.5 26.5t137.5 64.5t92 75t56 63z" />
    <glyph glyph-name="Igrave" unicode="&#xcc;" horiz-adv-x="622" 
d="M362 1522l-266 182q-74 47 -73 115q0 35 25.5 60.5t66.5 25.5q66 0 121 -72l198 -256zM59 0l-12 70q104 25 105 159v975q0 135 -105 160l12 70h504l12 -70q-104 -25 -104 -160v-975q0 -135 104 -159l-12 -70h-504z" />
    <glyph glyph-name="Iacute" unicode="&#xcd;" horiz-adv-x="622" 
d="M268 1522l-69 57l196 254q55 72 123 72q39 0 64.5 -26t25.5 -60q0 -68 -73 -115zM59 0l-12 70q104 25 105 159v975q0 135 -105 160l12 70h504l12 -70q-104 -25 -104 -160v-975q0 -135 104 -159l-12 -70h-504z" />
    <glyph glyph-name="Icircumflex" unicode="&#xce;" horiz-adv-x="622" 
d="M29 1511l-47 74l331 281l330 -281l-47 -74l-283 127zM59 0l-12 70q104 25 105 159v975q0 135 -105 160l12 70h504l12 -70q-104 -25 -104 -160v-975q0 -135 104 -159l-12 -70h-504z" />
    <glyph glyph-name="Idieresis" unicode="&#xcf;" horiz-adv-x="622" 
d="M110.5 1587q-65.5 0 -105.5 41t-40 94q0 57 40 99.5t105.5 42.5t106.5 -42t41 -100q0 -53 -41 -94t-106.5 -41zM512 1587q-66 0 -105.5 41t-39.5 94q0 57 39.5 99.5t105.5 42.5t105.5 -42t39.5 -100q0 -53 -39.5 -94t-105.5 -41zM59 0l-12 70q104 25 105 159v975
q0 135 -105 160l12 70h504l12 -70q-104 -25 -104 -160v-975q0 -135 104 -159l-12 -70h-504z" />
    <glyph glyph-name="Eth" unicode="&#xd0;" horiz-adv-x="1550" 
d="M711 1434q328 0 550 -214t222 -536q0 -338 -195.5 -511t-513.5 -173h-657l-13 68q104 29 105 161v412h-234v150h234v413q0 135 -105 160l13 70h594zM756 133q203 0 306 144.5t103 347.5q0 178 -56 328.5t-176 248.5t-286 98q-61 0 -119 -6v-503h232l2 -150h-234v-483
q109 -25 228 -25z" />
    <glyph glyph-name="Ntilde" unicode="&#xd1;" horiz-adv-x="1427" 
d="M569 1720q-68 0 -84 -80l-92 25q14 115 67.5 166t125.5 51q61 0 149 -52t125 -52q66 0 84 77l88 -22q-12 -115 -66.5 -167t-125.5 -52q-61 0 -147.5 53t-123.5 53zM1382 1434l13 -70q-106 -27 -107 -160v-1204h-160q-39 117 -118.5 222.5t-176 191.5t-193.5 171
t-193.5 194.5t-153.5 228.5h-8v-779q0 -135 104 -159l-12 -70h-318l-12 70q102 25 103 159v975q0 135 -103 160l12 70h289q70 -129 165 -249t185 -208t176.5 -170t160 -170t112.5 -176h10v743q0 135 -104 160l12 70h317z" />
    <glyph glyph-name="Ograve" unicode="&#xd2;" horiz-adv-x="1560" 
d="M772 1522l-264 182q-76 47 -76 115q0 35 26.5 60.5t65.5 25.5q66 0 123 -72l197 -256zM786 -39q-295 0 -504.5 215t-209.5 537q0 338 192.5 549t513.5 211q295 0 503 -219.5t208 -546.5q0 -324 -200 -535t-503 -211zM858 92q139 0 227.5 130t88.5 302q0 184 -57.5 368.5
t-173.5 315.5t-259 131q-141 0 -228 -127t-87 -309q0 -195 58 -378t173 -308t258 -125z" />
    <glyph glyph-name="Oacute" unicode="&#xd3;" horiz-adv-x="1560" 
d="M764 1522l-72 57l197 254q57 72 123 72q39 0 65.5 -26t26.5 -60q0 -68 -76 -115zM786 -39q-295 0 -504.5 215t-209.5 537q0 338 192.5 549t513.5 211q295 0 503 -219.5t208 -546.5q0 -324 -200 -535t-503 -211zM858 92q139 0 227.5 130t88.5 302q0 184 -57.5 368.5
t-173.5 315.5t-259 131q-141 0 -228 -127t-87 -309q0 -195 58 -378t173 -308t258 -125z" />
    <glyph glyph-name="Ocircumflex" unicode="&#xd4;" horiz-adv-x="1560" 
d="M498 1511l-47 74l329 281l330 -281l-45 -74l-285 127zM786 -39q-295 0 -504.5 215t-209.5 537q0 338 192.5 549t513.5 211q295 0 503 -219.5t208 -546.5q0 -324 -200 -535t-503 -211zM858 92q139 0 227.5 130t88.5 302q0 184 -57.5 368.5t-173.5 315.5t-259 131
q-141 0 -228 -127t-87 -309q0 -195 58 -378t173 -308t258 -125z" />
    <glyph glyph-name="Otilde" unicode="&#xd5;" horiz-adv-x="1560" 
d="M907 1614q-61 0 -147 53t-125 53q-66 0 -82 -80l-92 25q12 113 66.5 165t125.5 52q61 0 148.5 -52t126.5 -52q63 0 84 77l88 -22q-14 -115 -67.5 -167t-125.5 -52zM786 -39q-295 0 -504.5 215t-209.5 537q0 338 192.5 549t513.5 211q295 0 503 -219.5t208 -546.5
q0 -324 -200 -535t-503 -211zM858 92q139 0 227.5 130t88.5 302q0 184 -57.5 368.5t-173.5 315.5t-259 131q-141 0 -228 -127t-87 -309q0 -195 58 -378t173 -308t258 -125z" />
    <glyph glyph-name="Odieresis" unicode="&#xd6;" horiz-adv-x="1560" 
d="M579.5 1587q-65.5 0 -105.5 41t-40 94q0 57 40 99.5t105.5 42.5t105.5 -42t40 -100q0 -53 -40 -94t-105.5 -41zM978.5 1587q-65.5 0 -105 41t-39.5 94q0 57 39.5 99.5t105 42.5t106.5 -42t41 -100q0 -53 -41 -94t-106.5 -41zM786 -39q-295 0 -504.5 215t-209.5 537
q0 338 192.5 549t513.5 211q295 0 503 -219.5t208 -546.5q0 -324 -200 -535t-503 -211zM858 92q139 0 227.5 130t88.5 302q0 184 -57.5 368.5t-173.5 315.5t-259 131q-141 0 -228 -127t-87 -309q0 -195 58 -378t173 -308t258 -125z" />
    <glyph glyph-name="multiply" unicode="&#xd7;" horiz-adv-x="1185" 
d="M223 274l-90 86l369 357l-369 354l90 86l367 -354l371 354l90 -86l-371 -354l371 -357l-90 -86l-371 357z" />
    <glyph glyph-name="Oslash" unicode="&#xd8;" horiz-adv-x="1560" 
d="M1163 1335q139 -102 220 -266t81 -360q0 -326 -199.5 -537t-502.5 -211q-168 0 -313 76l-80 -146l-105 60l82 147q-139 102 -219 263t-80 352q0 338 192.5 549t514.5 211q162 0 309 -74l78 143l106 -55zM344 903q0 -315 137 -557l461 836q-123 160 -283 159
q-141 0 -228 -128t-87 -310zM834 92q139 0 228 131t89 303q0 295 -133 543l-461 -833q123 -144 277 -144z" />
    <glyph glyph-name="Ugrave" unicode="&#xd9;" horiz-adv-x="1351" 
d="M727 1522l-264 182q-76 47 -76 115q0 35 25.5 60.5t66.5 25.5q66 0 123 -72l197 -256zM682 -39q-287 0 -465 154.5t-154 435.5l58 653q12 133 -88 160l12 70h506l12 -70q-106 -25 -119 -160l-57 -651q-18 -203 90.5 -330t284.5 -127q188 0 296.5 126t90.5 331l-55 647
q-6 66 -40 110t-83 54l12 70h324l12 -70q-47 -12 -71.5 -55t-20.5 -109l57 -649q23 -264 -148 -427t-454 -163z" />
    <glyph glyph-name="Uacute" unicode="&#xda;" horiz-adv-x="1351" 
d="M696 1522l-69 57l194 254q57 72 123 72q39 0 65.5 -26t26.5 -60q0 -68 -75 -115zM682 -39q-287 0 -465 154.5t-154 435.5l58 653q12 133 -88 160l12 70h506l12 -70q-106 -25 -119 -160l-57 -651q-18 -203 90.5 -330t284.5 -127q188 0 296.5 126t90.5 331l-55 647
q-6 66 -40 110t-83 54l12 70h324l12 -70q-47 -12 -71.5 -55t-20.5 -109l57 -649q23 -264 -148 -427t-454 -163z" />
    <glyph glyph-name="Ucircumflex" unicode="&#xdb;" horiz-adv-x="1351" 
d="M391 1511l-47 74l332 281l330 -281l-48 -74l-282 127zM682 -39q-287 0 -465 154.5t-154 435.5l58 653q12 133 -88 160l12 70h506l12 -70q-106 -25 -119 -160l-57 -651q-18 -203 90.5 -330t284.5 -127q188 0 296.5 126t90.5 331l-55 647q-6 66 -40 110t-83 54l12 70h324
l12 -70q-47 -12 -71.5 -55t-20.5 -109l57 -649q23 -264 -148 -427t-454 -163z" />
    <glyph glyph-name="Udieresis" unicode="&#xdc;" horiz-adv-x="1351" 
d="M475 1587q-68 0 -106.5 40t-38.5 95q0 59 39 100.5t106 41.5q66 0 106 -42t40 -100q0 -53 -40 -94t-106 -41zM874.5 1587q-65.5 0 -105.5 41t-40 94q0 57 40 99.5t105.5 42.5t105.5 -42t40 -100q0 -53 -40 -94t-105.5 -41zM682 -39q-287 0 -465 154.5t-154 435.5l58 653
q12 133 -88 160l12 70h506l12 -70q-106 -25 -119 -160l-57 -651q-18 -203 90.5 -330t284.5 -127q188 0 296.5 126t90.5 331l-55 647q-6 66 -40 110t-83 54l12 70h324l12 -70q-47 -12 -71.5 -55t-20.5 -109l57 -649q23 -264 -148 -427t-454 -163z" />
    <glyph glyph-name="Yacute" unicode="&#xdd;" horiz-adv-x="1339" 
d="M737 1522l-69 57l194 254q57 72 125 72q39 0 64.5 -26t25.5 -60q0 -68 -76 -115zM416 0l-10 70q45 12 73.5 53t28.5 106v445l-342 530q-86 139 -184 160l10 70h555l12 -70q-41 -12 -52 -51t28 -109l235 -356h14l234 356q39 70 29.5 109t-52.5 51l13 70h338l12 -70
q-98 -20 -184 -160l-347 -532v-443q0 -135 105 -159l-12 -70h-504z" />
    <glyph glyph-name="Thorn" unicode="&#xde;" horiz-adv-x="1380" 
d="M764 1139q272 0 427 -113t155 -309.5t-155 -310t-427 -113.5h-289v-64q0 -131 105 -161l-13 -68h-501l-13 68q104 31 105 161v975q0 133 -105 160l13 70h501l13 -70q-104 -27 -105 -160v-65h289zM651 428q168 0 269.5 76t101.5 213q0 139 -99.5 214t-271.5 75
q-106 0 -176 -13v-551q82 -14 176 -14z" />
    <glyph glyph-name="germandbls" unicode="&#xdf;" horiz-adv-x="1486" 
d="M1253 643q4 -4 39 -38t46.5 -46t37 -45t35.5 -57.5t20.5 -62.5t10.5 -77q0 -178 -123 -267t-328 -89q-125 0 -217 38t-92 120q0 51 34 80.5t83 29.5q51 0 83.5 -22.5t45 -51t37 -51t59.5 -22.5q74 0 112 42t38 118q0 20 -7.5 42.5t-22 45t-27.5 41t-35.5 42t-35 36
t-36 35t-27.5 26.5t-29.5 28.5t-35 34t-32 34t-33.5 40t-27.5 41t-24.5 46t-14.5 46t-6.5 51.5q0 94 71 163t191 75q23 49 23 105q0 98 -59.5 164.5t-167.5 66.5q-305 0 -306 -432v-744q0 -133 105 -161l-12 -68h-496l-12 68q104 29 104 161v697h-215v143h221
q29 236 181.5 360.5t425.5 124.5q199 0 356.5 -105.5t157.5 -266.5q0 -106 -54 -178q-84 -10 -136 -52.5t-52 -111.5q0 -29 16.5 -59.5t32.5 -47t52 -48.5t46 -42z" />
    <glyph glyph-name="agrave" unicode="&#xe0;" horiz-adv-x="1157" 
d="M297 1339q-74 47 -74 115q0 35 25.5 60.5t66.5 25.5q66 0 121 -72l197 -256l-70 -55zM1180 102l24 -61q-78 -80 -213 -80q-195 0 -241 178h-11q-51 -92 -144 -135t-194 -43q-152 0 -252 80t-100 215q0 80 37 144.5t91 105.5t143.5 74.5t167 52t186.5 39.5l-21 145
q-8 74 -50 117t-101.5 43t-98 -35t-32.5 -88q12 -66 -27 -106.5t-100.5 -40.5t-96 36.5t-34.5 102.5q2 102 108.5 182t300.5 80q170 0 290 -96.5t142 -286.5l56 -475q20 -164 108 -164q25 0 62 16zM520 123q82 0 142.5 69.5t56.5 155.5l-33 234q-352 -70 -352 -277
q0 -84 52 -133t134 -49z" />
    <glyph glyph-name="aacute" unicode="&#xe1;" horiz-adv-x="1157" 
d="M778 1339l-264 -182l-72 57l197 254q57 72 123 72q39 0 65.5 -25.5t26.5 -60.5q0 -68 -76 -115zM1180 102l24 -61q-78 -80 -213 -80q-195 0 -241 178h-11q-51 -92 -144 -135t-194 -43q-152 0 -252 80t-100 215q0 80 37 144.5t91 105.5t143.5 74.5t167 52t186.5 39.5
l-21 145q-8 74 -50 117t-101.5 43t-98 -35t-32.5 -88q12 -66 -27 -106.5t-100.5 -40.5t-96 36.5t-34.5 102.5q2 102 108.5 182t300.5 80q170 0 290 -96.5t142 -286.5l56 -475q20 -164 108 -164q25 0 62 16zM520 123q82 0 142.5 69.5t56.5 155.5l-33 234q-352 -70 -352 -277
q0 -84 52 -133t134 -49z" />
    <glyph glyph-name="acircumflex" unicode="&#xe2;" horiz-adv-x="1157" 
d="M549 1274l-283 -127l-49 74l332 280l330 -280l-48 -74zM1180 102l24 -61q-78 -80 -213 -80q-195 0 -241 178h-11q-51 -92 -144 -135t-194 -43q-152 0 -252 80t-100 215q0 80 37 144.5t91 105.5t143.5 74.5t167 52t186.5 39.5l-21 145q-8 74 -50 117t-101.5 43t-98 -35
t-32.5 -88q12 -66 -27 -106.5t-100.5 -40.5t-96 36.5t-34.5 102.5q2 102 108.5 182t300.5 80q170 0 290 -96.5t142 -286.5l56 -475q20 -164 108 -164q25 0 62 16zM520 123q82 0 142.5 69.5t56.5 155.5l-33 234q-352 -70 -352 -277q0 -84 52 -133t134 -49z" />
    <glyph glyph-name="atilde" unicode="&#xe3;" horiz-adv-x="1157" 
d="M436 1356q-66 0 -82 -80l-92 24q12 113 66.5 165.5t126.5 52.5q61 0 148 -52.5t126 -52.5q66 0 82 78l88 -23q-12 -115 -65.5 -167t-126.5 -52q-59 0 -145.5 53.5t-125.5 53.5zM1180 102l24 -61q-78 -80 -213 -80q-195 0 -241 178h-11q-51 -92 -144 -135t-194 -43
q-152 0 -252 80t-100 215q0 80 37 144.5t91 105.5t143.5 74.5t167 52t186.5 39.5l-21 145q-8 74 -50 117t-101.5 43t-98 -35t-32.5 -88q12 -66 -27 -106.5t-100.5 -40.5t-96 36.5t-34.5 102.5q2 102 108.5 182t300.5 80q170 0 290 -96.5t142 -286.5l56 -475
q20 -164 108 -164q25 0 62 16zM520 123q82 0 142.5 69.5t56.5 155.5l-33 234q-352 -70 -352 -277q0 -84 52 -133t134 -49z" />
    <glyph glyph-name="adieresis" unicode="&#xe4;" horiz-adv-x="1157" 
d="M381 1223q-68 0 -106.5 40t-38.5 95q0 59 38.5 100t106.5 41q66 0 105.5 -42t39.5 -99q0 -53 -39.5 -94t-105.5 -41zM780.5 1223q-65.5 0 -105.5 41t-40 94q0 57 40 99t105.5 42t105.5 -42t40 -99q0 -53 -40 -94t-105.5 -41zM1180 102l24 -61q-78 -80 -213 -80
q-195 0 -241 178h-11q-51 -92 -144 -135t-194 -43q-152 0 -252 80t-100 215q0 80 37 144.5t91 105.5t143.5 74.5t167 52t186.5 39.5l-21 145q-8 74 -50 117t-101.5 43t-98 -35t-32.5 -88q12 -66 -27 -106.5t-100.5 -40.5t-96 36.5t-34.5 102.5q2 102 108.5 182t300.5 80
q170 0 290 -96.5t142 -286.5l56 -475q20 -164 108 -164q25 0 62 16zM520 123q82 0 142.5 69.5t56.5 155.5l-33 234q-352 -70 -352 -277q0 -84 52 -133t134 -49z" />
    <glyph glyph-name="aring" unicode="&#xe5;" horiz-adv-x="1157" 
d="M557 1171q-90 0 -154.5 63.5t-64.5 154t64.5 154t154.5 63.5t154.5 -63.5t64.5 -154t-64.5 -154t-154.5 -63.5zM557 1491q-43 0 -71.5 -29.5t-28.5 -72.5q0 -45 28.5 -75t71.5 -30t74 29.5t31 75.5q0 43 -31 72.5t-74 29.5zM1180 102l24 -61q-78 -80 -213 -80
q-195 0 -241 178h-11q-51 -92 -144 -135t-194 -43q-152 0 -252 80t-100 215q0 80 37 144.5t91 105.5t143.5 74.5t167 52t186.5 39.5l-21 145q-8 74 -50 117t-101.5 43t-98 -35t-32.5 -88q12 -66 -27 -106.5t-100.5 -40.5t-96 36.5t-34.5 102.5q2 102 108.5 182t300.5 80
q170 0 290 -96.5t142 -286.5l56 -475q20 -164 108 -164q25 0 62 16zM520 123q82 0 142.5 69.5t56.5 155.5l-33 234q-352 -70 -352 -277q0 -84 52 -133t134 -49z" />
    <glyph glyph-name="ae" unicode="&#xe6;" horiz-adv-x="1871" 
d="M1421 178q104 0 186.5 56.5t123.5 130.5l59 -23q-20 -152 -153.5 -266.5t-331.5 -114.5q-133 0 -256 69.5t-197 190.5h-8q-47 -106 -167 -183t-253 -77q-180 0 -278.5 74t-98.5 198q0 68 24.5 121.5t78 91t108.5 63.5t144.5 45t157 30.5t171.5 23.5l-29 209
q-8 72 -59 115t-120.5 43t-111.5 -37t-42 -98q0 -133 -127 -133q-59 0 -95 40.5t-36 104.5q0 98 100 177t283 79q113 0 217 -53.5t161 -151.5h9q154 201 409 205q168 0 284 -77t165 -200q31 -76 71 -86l17 -88l-807 -141q29 -168 132 -253t269 -85zM1262 973
q-109 0 -180.5 -94.5t-71.5 -227.5v-6l493 82q-10 102 -72.5 174t-168.5 72zM510 125q86 0 160.5 59.5t99.5 145.5l-25 178q-414 -49 -413 -234q0 -70 51 -109.5t127 -39.5z" />
    <glyph glyph-name="ccedilla" unicode="&#xe7;" horiz-adv-x="1130" 
d="M1104 340q-27 -156 -132.5 -261.5t-293.5 -115.5l-43 -94q25 10 55 10q76 0 122 -37t46 -102q0 -86 -85 -151.5t-220 -65.5q-106 0 -176 42t-70 101q0 31 20.5 53.5t51.5 22.5q37 0 58.5 -20.5t29.5 -46t33.5 -46t68.5 -20.5q55 0 87 26.5t32 73.5q0 29 -21.5 47.5
t-54.5 18.5q-47 0 -73 -25l-64 29l80 188q-219 29 -358.5 192t-139.5 380q0 258 164 413.5t408 155.5q197 0 333 -98.5t136 -225.5q0 -53 -41 -96t-96 -43q-63 0 -101.5 35t-56 85t-36.5 100t-65.5 85t-121.5 35q-100 0 -175 -92t-75 -231q0 -233 106.5 -359.5t298.5 -126.5
q98 0 183.5 56.5t125.5 127.5z" />
    <glyph glyph-name="egrave" unicode="&#xe8;" horiz-adv-x="1212" 
d="M403 1339q-76 47 -75 115q0 35 26.5 60.5t65.5 25.5q66 0 123 -72l196 -256l-71 -55zM752 176q102 0 185 57.5t122 131.5l59 -23q-18 -154 -151 -267.5t-334 -113.5q-250 0 -413 167t-163 411q0 254 162 411.5t404 157.5q168 0 284.5 -78t163.5 -201q29 -70 70 -77
l14 -90l-788 -222q86 -264 385 -264zM592 973q-109 0 -181.5 -94.5t-72.5 -229.5q0 -33 4 -86l492 135q-10 109 -74 192t-168 83z" />
    <glyph glyph-name="eacute" unicode="&#xe9;" horiz-adv-x="1212" 
d="M776 1339l-266 -182l-70 57l197 254q55 72 123 72q39 0 64.5 -25.5t25.5 -60.5q0 -68 -74 -115zM752 176q102 0 185 57.5t122 131.5l59 -23q-18 -154 -151 -267.5t-334 -113.5q-250 0 -413 167t-163 411q0 254 162 411.5t404 157.5q168 0 284.5 -78t163.5 -201
q29 -70 70 -77l14 -90l-788 -222q86 -264 385 -264zM592 973q-109 0 -181.5 -94.5t-72.5 -229.5q0 -33 4 -86l492 135q-10 109 -74 192t-168 83z" />
    <glyph glyph-name="ecircumflex" unicode="&#xea;" horiz-adv-x="1212" 
d="M604 1274l-285 -127l-47 74l332 280l330 -280l-47 -74zM752 176q102 0 185 57.5t122 131.5l59 -23q-18 -154 -151 -267.5t-334 -113.5q-250 0 -413 167t-163 411q0 254 162 411.5t404 157.5q168 0 284.5 -78t163.5 -201q29 -70 70 -77l14 -90l-788 -222q86 -264 385 -264
zM592 973q-109 0 -181.5 -94.5t-72.5 -229.5q0 -33 4 -86l492 135q-10 109 -74 192t-168 83z" />
    <glyph glyph-name="edieresis" unicode="&#xeb;" horiz-adv-x="1212" 
d="M403.5 1223q-65.5 0 -105.5 41t-40 94q0 57 40 99t105.5 42t105.5 -42t40 -99q0 -53 -40 -94t-105.5 -41zM802.5 1223q-65.5 0 -105.5 41t-40 94q0 57 40 99t105.5 42t106.5 -42t41 -99q0 -53 -41 -94t-106.5 -41zM752 176q102 0 185 57.5t122 131.5l59 -23
q-18 -154 -151 -267.5t-334 -113.5q-250 0 -413 167t-163 411q0 254 162 411.5t404 157.5q168 0 284.5 -78t163.5 -201q29 -70 70 -77l14 -90l-788 -222q86 -264 385 -264zM592 973q-109 0 -181.5 -94.5t-72.5 -229.5q0 -33 4 -86l492 135q-10 109 -74 192t-168 83z" />
    <glyph glyph-name="igrave" unicode="&#xec;" 
d="M297 1157l-266 182q-74 47 -74 115q0 35 25.5 60.5t66.5 25.5q66 0 121 -72l199 -256zM55 0l-12 68q104 29 104 159v512q0 131 -104 160l12 68q178 27 338 141h29v-881q0 -131 104 -159l-12 -68h-459z" />
    <glyph glyph-name="iacute" unicode="&#xed;" 
d="M195 1157l-70 57l197 254q55 72 122 72q39 0 65 -25.5t26 -60.5q0 -68 -74 -115zM55 0l-12 68q104 29 104 159v512q0 131 -104 160l12 68q178 27 338 141h29v-881q0 -131 104 -159l-12 -68h-459z" />
    <glyph glyph-name="icircumflex" unicode="&#xee;" 
d="M2 1147l-47 74l330 280l329 -280l-45 -74l-284 127zM55 0l-12 68q104 29 104 159v512q0 131 -104 160l12 68q178 27 338 141h29v-881q0 -131 104 -159l-12 -68h-459z" />
    <glyph glyph-name="idieresis" unicode="&#xef;" 
d="M84 1223q-66 0 -105.5 41t-39.5 94q0 57 39.5 99t105.5 42t106.5 -42t40.5 -99q0 -53 -40.5 -94t-106.5 -41zM485.5 1223q-65.5 0 -105.5 41t-40 94q0 57 40 99t105.5 42t105.5 -42t40 -99q0 -53 -40 -94t-105.5 -41zM55 0l-12 68q104 29 104 159v512q0 131 -104 160
l12 68q178 27 338 141h29v-881q0 -131 104 -159l-12 -68h-459z" />
    <glyph glyph-name="eth" unicode="&#xf0;" horiz-adv-x="1267" 
d="M651 -39q-272 0 -436 160t-164 411q0 250 157 413t398 163q147 0 260 -80l8 4q-31 178 -106 311l-266 -98l-31 82l262 100q-39 80 -100 158l90 80q72 -57 180 -180l252 92l33 -82l-217 -82q252 -350 252 -743q0 -342 -151 -525.5t-421 -183.5zM651 86q141 0 198.5 126
t57.5 374q0 156 -12 286q-106 111 -250 111q-283 0 -283 -455q0 -442 289 -442z" />
    <glyph glyph-name="ntilde" unicode="&#xf1;" horiz-adv-x="1316" 
d="M514 1356q-66 0 -82 -80l-92 24q12 115 65.5 166.5t126.5 51.5q59 0 147.5 -52.5t125.5 -52.5q68 0 84 78l88 -23q-12 -115 -65.5 -167t-127.5 -52q-61 0 -147 53.5t-123 53.5zM1153 227q12 -131 121 -159l-12 -68h-459l-15 68q102 29 89 159l-41 459
q-10 119 -62.5 185.5t-144.5 66.5q-90 0 -149.5 -67.5t-59.5 -168.5v-475q0 -66 29.5 -106.5t76.5 -52.5l-14 -68h-457l-10 68q100 29 100 159v504q0 135 -102 160l12 67q160 27 326 150h27l6 -166h10q106 166 299 166q356 0 395 -442z" />
    <glyph glyph-name="ograve" unicode="&#xf2;" horiz-adv-x="1232" 
d="M655 1157l-264 182q-76 47 -76 115q0 35 26 60.5t67 25.5q66 0 122 -72l197 -256zM627 -39q-254 0 -412 165t-158 417q0 248 154 406.5t403 158.5q252 0 407 -163t155 -415q0 -250 -150.5 -409.5t-398.5 -159.5zM682 102q109 0 169 89.5t60 226.5q0 104 -38.5 227
t-123.5 223.5t-192 100.5q-111 0 -172 -88t-61 -230q0 -106 38.5 -228t124.5 -221.5t195 -99.5z" />
    <glyph glyph-name="oacute" unicode="&#xf3;" horiz-adv-x="1232" 
d="M543 1157l-70 57l197 254q55 72 123 72q39 0 64.5 -25.5t25.5 -60.5q0 -68 -74 -115zM627 -39q-254 0 -412 165t-158 417q0 248 154 406.5t403 158.5q252 0 407 -163t155 -415q0 -250 -150.5 -409.5t-398.5 -159.5zM682 102q109 0 169 89.5t60 226.5q0 104 -38.5 227
t-123.5 223.5t-192 100.5q-111 0 -172 -88t-61 -230q0 -106 38.5 -228t124.5 -221.5t195 -99.5z" />
    <glyph glyph-name="ocircumflex" unicode="&#xf4;" horiz-adv-x="1232" 
d="M334 1147l-47 74l329 280l330 -280l-45 -74l-285 127zM627 -39q-254 0 -412 165t-158 417q0 248 154 406.5t403 158.5q252 0 407 -163t155 -415q0 -250 -150.5 -409.5t-398.5 -159.5zM682 102q109 0 169 89.5t60 226.5q0 104 -38.5 227t-123.5 223.5t-192 100.5
q-111 0 -172 -88t-61 -230q0 -106 38.5 -228t124.5 -221.5t195 -99.5z" />
    <glyph glyph-name="otilde" unicode="&#xf5;" horiz-adv-x="1232" 
d="M743 1249q-61 0 -147 53.5t-125 53.5q-66 0 -82 -80l-92 24q12 113 66.5 165.5t125.5 52.5q61 0 148.5 -52.5t126.5 -52.5q63 0 84 78l88 -23q-14 -115 -67.5 -167t-125.5 -52zM627 -39q-254 0 -412 165t-158 417q0 248 154 406.5t403 158.5q252 0 407 -163t155 -415
q0 -250 -150.5 -409.5t-398.5 -159.5zM682 102q109 0 169 89.5t60 226.5q0 104 -38.5 227t-123.5 223.5t-192 100.5q-111 0 -172 -88t-61 -230q0 -106 38.5 -228t124.5 -221.5t195 -99.5z" />
    <glyph glyph-name="odieresis" unicode="&#xf6;" horiz-adv-x="1232" 
d="M415.5 1223q-65.5 0 -105.5 41t-40 94q0 57 40 99t105.5 42t106.5 -42t41 -99q0 -53 -41 -94t-106.5 -41zM815.5 1223q-65.5 0 -105.5 41t-40 94q0 57 40 99t105.5 42t106.5 -42t41 -99q0 -53 -41 -94t-106.5 -41zM627 -39q-254 0 -412 165t-158 417q0 248 154 406.5
t403 158.5q252 0 407 -163t155 -415q0 -250 -150.5 -409.5t-398.5 -159.5zM682 102q109 0 169 89.5t60 226.5q0 104 -38.5 227t-123.5 223.5t-192 100.5q-111 0 -172 -88t-61 -230q0 -106 38.5 -228t124.5 -221.5t195 -99.5z" />
    <glyph glyph-name="divide" unicode="&#xf7;" horiz-adv-x="1214" 
d="M606 909q-88 0 -135 50.5t-47 122t47 121.5t135 50q86 0 135.5 -51t49.5 -120.5t-49.5 -121t-135.5 -51.5zM18 655v123h1180v-123h-1180zM606 180q-88 0 -135 49.5t-47 121t47 121.5t135 50q86 0 135.5 -50t49.5 -122q0 -70 -49.5 -120t-135.5 -50z" />
    <glyph glyph-name="oslash" unicode="&#xf8;" horiz-adv-x="1234" 
d="M956 1004q106 -76 165 -199t59 -275q0 -250 -151.5 -409.5t-401.5 -159.5q-119 0 -224 41l-59 -111l-104 60l57 106q-113 78 -176.5 205t-63.5 281q0 248 155 406.5t404 158.5q125 0 234 -45l59 106l107 -55zM324 651q0 -186 100 -364l324 587q-84 94 -189 95
q-113 0 -174 -89.5t-61 -228.5zM684 100q109 0 169 90.5t60 227.5q0 172 -90 346l-319 -582q82 -82 180 -82z" />
    <glyph glyph-name="ugrave" unicode="&#xf9;" horiz-adv-x="1280" 
d="M414 1339q-74 47 -74 115q0 35 25.5 60.5t66.5 25.5q66 0 121 -72l197 -256l-70 -55zM1133 229q0 -133 104 -159l-12 -72q-172 -6 -287 -37h-25l-34 191h-15q-123 -190 -352 -191q-172 0 -276.5 110.5t-104.5 329.5v336q0 66 -28.5 107t-73.5 53l12 70q182 29 340 141h27
v-725q0 -121 60 -186.5t161 -65.5q94 0 161.5 67.5t67.5 166.5v372q0 66 -28.5 108t-73.5 52l12 70q190 33 338 141h27v-879z" />
    <glyph glyph-name="uacute" unicode="&#xfa;" horiz-adv-x="1280" 
d="M907 1339l-264 -182l-70 57l195 254q57 72 125 72q39 0 64.5 -25.5t25.5 -60.5q0 -68 -76 -115zM1133 229q0 -133 104 -159l-12 -72q-172 -6 -287 -37h-25l-34 191h-15q-123 -190 -352 -191q-172 0 -276.5 110.5t-104.5 329.5v336q0 66 -28.5 107t-73.5 53l12 70
q182 29 340 141h27v-725q0 -121 60 -186.5t161 -65.5q94 0 161.5 67.5t67.5 166.5v372q0 66 -28.5 108t-73.5 52l12 70q190 33 338 141h27v-879z" />
    <glyph glyph-name="ucircumflex" unicode="&#xfb;" horiz-adv-x="1280" 
d="M639 1274l-283 -127l-47 74l330 280l330 -280l-45 -74zM1133 229q0 -133 104 -159l-12 -72q-172 -6 -287 -37h-25l-34 191h-15q-123 -190 -352 -191q-172 0 -276.5 110.5t-104.5 329.5v336q0 66 -28.5 107t-73.5 53l12 70q182 29 340 141h27v-725q0 -121 60 -186.5
t161 -65.5q94 0 161.5 67.5t67.5 166.5v372q0 66 -28.5 108t-73.5 52l12 70q190 33 338 141h27v-879z" />
    <glyph glyph-name="udieresis" unicode="&#xfc;" horiz-adv-x="1280" 
d="M438.5 1223q-65.5 0 -105.5 41t-40 94q0 57 40 99t105.5 42t106.5 -42t41 -99q0 -53 -41 -94t-106.5 -41zM839.5 1223q-65.5 0 -105.5 41t-40 94q0 57 40 99t105.5 42t105.5 -42t40 -99q0 -53 -40 -94t-105.5 -41zM1133 229q0 -133 104 -159l-12 -72q-172 -6 -287 -37
h-25l-34 191h-15q-123 -190 -352 -191q-172 0 -276.5 110.5t-104.5 329.5v336q0 66 -28.5 107t-73.5 53l12 70q182 29 340 141h27v-725q0 -121 60 -186.5t161 -65.5q94 0 161.5 67.5t67.5 166.5v372q0 66 -28.5 108t-73.5 52l12 70q190 33 338 141h27v-879z" />
    <glyph glyph-name="yacute" unicode="&#xfd;" horiz-adv-x="1081" 
d="M817 1339l-264 -182l-72 57l197 254q57 72 123 72q39 0 65.5 -25.5t26.5 -60.5q0 -68 -76 -115zM901 1108q78 0 124 -53.5t46 -130.5q0 -152 -117 -430q-145 -397 -336 -654q-106 -156 -196 -227.5t-199 -71.5q-78 0 -132 45t-54 115q0 66 42 105.5t105 39.5
q35 0 63.5 -15t44 -32.5t32 -33t30.5 -15.5q66 0 166 166q18 27 55 84h-61l-319 729q-61 137 -205 162l12 70q82 12 169 51t134 96h29l373 -842h14q61 127 104 269q68 166 66 231q-2 27 -24.5 49.5t-49 36.5t-49.5 46t-23 75q0 61 44 98t112 37z" />
    <glyph glyph-name="thorn" unicode="&#xfe;" horiz-adv-x="1277" 
d="M729 1108q219 0 362.5 -163t143.5 -415q0 -250 -136 -409.5t-356 -159.5q-193 0 -323 152h-10v-301q0 -131 104 -162l-12 -70h-459l-12 70q104 29 104 162v1392q0 133 -104 162l12 68q201 31 375 147l22 -10q-31 -123 -30 -350v-250h8q123 137 311 137zM741 102
q102 0 167 90.5t65 225.5q0 115 -34 237.5t-112.5 218t-181.5 95.5q-104 0 -167.5 -88t-63.5 -230q0 -119 32.5 -239.5t111.5 -215t183 -94.5z" />
    <glyph glyph-name="ydieresis" unicode="&#xff;" horiz-adv-x="1081" 
d="M340 1223q-66 0 -105.5 41t-39.5 94q0 57 39.5 99t105.5 42t105.5 -42t39.5 -99q0 -53 -39.5 -94t-105.5 -41zM739.5 1223q-65.5 0 -105.5 41t-40 94q0 57 40 99t105.5 42t106.5 -42t41 -99q0 -53 -41 -94t-106.5 -41zM901 1108q78 0 124 -53.5t46 -130.5
q0 -152 -117 -430q-145 -397 -336 -654q-106 -156 -196 -227.5t-199 -71.5q-78 0 -132 45t-54 115q0 66 42 105.5t105 39.5q35 0 63.5 -15t44 -32.5t32 -33t30.5 -15.5q66 0 166 166q18 27 55 84h-61l-319 729q-61 137 -205 162l12 70q82 12 169 51t134 96h29l373 -842h14
q61 127 104 269q68 166 66 231q-2 27 -24.5 49.5t-49 36.5t-49.5 46t-23 75q0 61 44 98t112 37z" />
    <glyph glyph-name="Amacron" unicode="&#x100;" horiz-adv-x="1398" 
d="M999 1774v-142h-602v142h602zM1253 227q53 -131 164 -157l-12 -70h-518l-13 70q90 29 39 157l-51 133h-530l-51 -133q-51 -131 41 -157l-13 -70h-315l-12 70q115 27 163 157l381 977q-41 57 -116 109l8 69q205 8 327 93h17zM387 506h418l-205 528h-8z" />
    <glyph glyph-name="amacron" unicode="&#x101;" horiz-adv-x="1157" 
d="M881 1409v-141h-600v141h600zM1180 102l24 -61q-78 -80 -213 -80q-195 0 -241 178h-11q-51 -92 -144 -135t-194 -43q-152 0 -252 80t-100 215q0 80 37 144.5t91 105.5t143.5 74.5t167 52t186.5 39.5l-21 145q-8 74 -50 117t-101.5 43t-98 -35t-32.5 -88
q12 -66 -27 -106.5t-100.5 -40.5t-96 36.5t-34.5 102.5q2 102 108.5 182t300.5 80q170 0 290 -96.5t142 -286.5l56 -475q20 -164 108 -164q25 0 62 16zM520 123q82 0 142.5 69.5t56.5 155.5l-33 234q-352 -70 -352 -277q0 -84 52 -133t134 -49z" />
    <glyph glyph-name="Abreve" unicode="&#x102;" horiz-adv-x="1398" 
d="M698 1583q-117 0 -196.5 58.5t-110.5 148.5l92 49q20 -49 81 -81t134.5 -32t135 32t81.5 79l91 -47q-33 -90 -111 -148.5t-197 -58.5zM1253 227q53 -131 164 -157l-12 -70h-518l-13 70q90 29 39 157l-51 133h-530l-51 -133q-51 -131 41 -157l-13 -70h-315l-12 70
q115 27 163 157l381 977q-41 57 -116 109l8 69q205 8 327 93h17zM387 506h418l-205 528h-8z" />
    <glyph glyph-name="abreve" unicode="&#x103;" horiz-adv-x="1157" 
d="M580 1219q-117 0 -196 58t-110 148l91 50q20 -47 80.5 -80t134 -33t136 31.5t83.5 79.5l90 -48q-33 -90 -111.5 -148t-197.5 -58zM1180 102l24 -61q-78 -80 -213 -80q-195 0 -241 178h-11q-51 -92 -144 -135t-194 -43q-152 0 -252 80t-100 215q0 80 37 144.5t91 105.5
t143.5 74.5t167 52t186.5 39.5l-21 145q-8 74 -50 117t-101.5 43t-98 -35t-32.5 -88q12 -66 -27 -106.5t-100.5 -40.5t-96 36.5t-34.5 102.5q2 102 108.5 182t300.5 80q170 0 290 -96.5t142 -286.5l56 -475q20 -164 108 -164q25 0 62 16zM520 123q82 0 142.5 69.5
t56.5 155.5l-33 234q-352 -70 -352 -277q0 -84 52 -133t134 -49z" />
    <glyph glyph-name="Aogonek" unicode="&#x104;" horiz-adv-x="1398" 
d="M1384 -236l82 -45q-94 -164 -270 -163q-111 0 -178.5 59t-67.5 152q0 137 123 233h-186l-13 70q90 29 39 157l-51 133h-530l-51 -133q-51 -131 41 -157l-13 -70h-315l-12 70q115 27 163 157l381 977q-41 57 -116 109l8 69q205 8 327 93h17l491 -1248q53 -131 164 -157
l-12 -70h-139q-127 -86 -127 -205q0 -49 32.5 -83t77.5 -34q86 0 135 86zM387 506h418l-205 528h-8z" />
    <glyph glyph-name="aogonek" unicode="&#x105;" horiz-adv-x="1202" 
d="M1165 -236l84 -45q-90 -164 -268 -163q-111 0 -179.5 59t-68.5 152q0 133 121 227q-80 45 -104 145h-11q-51 -92 -144 -135t-194 -43q-152 0 -252 80t-100 215q0 80 37 144.5t91 105.5t143.5 74.5t167 52t186.5 39.5l-21 145q-8 74 -50 117t-101.5 43t-98 -35t-32.5 -88
q12 -66 -27 -106.5t-100.5 -40.5t-96 36.5t-34.5 102.5q2 102 108.5 182t300.5 80q170 0 290 -96.5t142 -286.5l56 -475q20 -164 108 -164q25 0 62 16l24 -61q-70 -72 -198 -80q-82 -76 -82 -168q0 -49 32.5 -82t77.5 -33q86 0 131 86zM520 123q82 0 142.5 69.5t56.5 155.5
l-33 234q-352 -70 -352 -277q0 -84 52 -133t134 -49z" />
    <glyph glyph-name="Cacute" unicode="&#x106;" horiz-adv-x="1413" 
d="M606 1522l-69 57l196 254q55 72 123 72q39 0 64.5 -26t25.5 -60q0 -68 -74 -115zM770 -39q-319 0 -508.5 213t-189.5 541q0 322 199.5 540t502.5 218q76 0 169 -19.5t128 -19.5q104 0 166 39h25l88 -465l-84 -17q-55 154 -171 251t-288 97q-160 0 -289 -140t-129 -370
q0 -303 148.5 -479t353.5 -176q276 0 391 342l84 -22q-33 -225 -185.5 -379t-410.5 -154z" />
    <glyph glyph-name="cacute" unicode="&#x107;" horiz-adv-x="1130" 
d="M463 1157l-70 57l197 254q55 72 123 72q39 0 64.5 -25.5t25.5 -60.5q0 -68 -74 -115zM639 -39q-252 0 -417 169t-165 409q0 258 164 413.5t408 155.5q197 0 333 -98.5t136 -225.5q0 -53 -41 -96t-96 -43q-63 0 -101.5 35t-56 85t-36.5 100t-65.5 85t-121.5 35
q-100 0 -175 -92t-75 -231q0 -233 106.5 -359.5t298.5 -126.5q98 0 183.5 56.5t125.5 127.5l60 -20q-29 -162 -143.5 -270.5t-321.5 -108.5z" />
    <glyph glyph-name="Ccircumflex" unicode="&#x108;" horiz-adv-x="1413" 
d="M424 1511l-47 74l330 281l329 -281l-45 -74l-284 127zM770 -39q-319 0 -508.5 213t-189.5 541q0 322 199.5 540t502.5 218q76 0 169 -19.5t128 -19.5q104 0 166 39h25l88 -465l-84 -17q-55 154 -171 251t-288 97q-160 0 -289 -140t-129 -370q0 -303 148.5 -479
t353.5 -176q276 0 391 342l84 -22q-33 -225 -185.5 -379t-410.5 -154z" />
    <glyph glyph-name="ccircumflex" unicode="&#x109;" horiz-adv-x="1130" 
d="M283 1147l-50 74l332 280l330 -280l-47 -74l-283 127zM639 -39q-252 0 -417 169t-165 409q0 258 164 413.5t408 155.5q197 0 333 -98.5t136 -225.5q0 -53 -41 -96t-96 -43q-63 0 -101.5 35t-56 85t-36.5 100t-65.5 85t-121.5 35q-100 0 -175 -92t-75 -231
q0 -233 106.5 -359.5t298.5 -126.5q98 0 183.5 56.5t125.5 127.5l60 -20q-29 -162 -143.5 -270.5t-321.5 -108.5z" />
    <glyph glyph-name="Cdotaccent" unicode="&#x10a;" horiz-adv-x="1413" 
d="M705 1614q-66 0 -105 41t-39 94q0 57 39 99t105 42q68 0 107.5 -42t39.5 -99q0 -53 -39.5 -94t-107.5 -41zM770 -39q-319 0 -508.5 213t-189.5 541q0 322 199.5 540t502.5 218q76 0 169 -19.5t128 -19.5q104 0 166 39h25l88 -465l-84 -17q-55 154 -171 251t-288 97
q-160 0 -289 -140t-129 -370q0 -303 148.5 -479t353.5 -176q276 0 391 342l84 -22q-33 -225 -185.5 -379t-410.5 -154z" />
    <glyph glyph-name="cdotaccent" unicode="&#x10b;" horiz-adv-x="1130" 
d="M565 1249q-66 0 -105.5 41t-39.5 94q0 57 40 99.5t105 42.5q68 0 108 -42t40 -100q0 -53 -40 -94t-108 -41zM639 -39q-252 0 -417 169t-165 409q0 258 164 413.5t408 155.5q197 0 333 -98.5t136 -225.5q0 -53 -41 -96t-96 -43q-63 0 -101.5 35t-56 85t-36.5 100t-65.5 85
t-121.5 35q-100 0 -175 -92t-75 -231q0 -233 106.5 -359.5t298.5 -126.5q98 0 183.5 56.5t125.5 127.5l60 -20q-29 -162 -143.5 -270.5t-321.5 -108.5z" />
    <glyph glyph-name="Ccaron" unicode="&#x10c;" horiz-adv-x="1413" 
d="M707 1520l-330 280l45 74l285 -127l282 127l47 -74zM770 -39q-319 0 -508.5 213t-189.5 541q0 322 199.5 540t502.5 218q76 0 169 -19.5t128 -19.5q104 0 166 39h25l88 -465l-84 -17q-55 154 -171 251t-288 97q-160 0 -289 -140t-129 -370q0 -303 148.5 -479t353.5 -176
q276 0 391 342l84 -22q-33 -225 -185.5 -379t-410.5 -154z" />
    <glyph glyph-name="ccaron" unicode="&#x10d;" horiz-adv-x="1130" 
d="M565 1155l-332 281l48 73l284 -127l283 127l47 -73zM639 -39q-252 0 -417 169t-165 409q0 258 164 413.5t408 155.5q197 0 333 -98.5t136 -225.5q0 -53 -41 -96t-96 -43q-63 0 -101.5 35t-56 85t-36.5 100t-65.5 85t-121.5 35q-100 0 -175 -92t-75 -231
q0 -233 106.5 -359.5t298.5 -126.5q98 0 183.5 56.5t125.5 127.5l60 -20q-29 -162 -143.5 -270.5t-321.5 -108.5z" />
    <glyph glyph-name="Dcaron" unicode="&#x10e;" horiz-adv-x="1497" 
d="M999 1800l-329 -280l-332 280l47 74l285 -127l280 127zM653 1434q328 0 550 -214t222 -536q0 -338 -195.5 -511t-512.5 -173h-658l-12 70q104 25 105 159v975q0 135 -105 160l12 70h594zM698 133q203 0 306.5 144.5t103.5 347.5q0 178 -56.5 328.5t-176 248.5t-283.5 98
q-63 0 -121 -6v-1136q108 -25 227 -25z" />
    <glyph glyph-name="dcaron" unicode="&#x10f;" horiz-adv-x="1683" 
d="M1141 229q0 -135 104 -159l-12 -70q-170 -8 -285 -39h-26l-29 154h-12q-131 -154 -334 -154q-219 0 -363.5 164t-144.5 413.5t137 409.5t359 160q193 0 319 -152h12v246q0 133 -102 162l12 68q205 35 369 147l24 -8q-29 -115 -28 -352v-990zM1438 1473q90 0 146 -65
t56 -171q0 -145 -86 -286.5t-223 -221.5l-71 92q166 113 213 314l-7 6q-29 -14 -53 -15q-74 0 -125 49.5t-51 125t58.5 124t142.5 48.5zM631 100q104 0 168.5 89.5t64.5 228.5q0 119 -33.5 239.5t-112.5 216t-186 95.5q-102 0 -165.5 -91.5t-63.5 -226.5q0 -115 35 -237.5
t113 -218t180 -95.5z" />
    <glyph glyph-name="Dcroat" unicode="&#x110;" horiz-adv-x="1550" 
d="M711 1434q328 0 550 -214t222 -536q0 -338 -195.5 -511t-513.5 -173h-657l-13 68q104 29 105 161v412h-234v150h234v413q0 135 -105 160l13 70h594zM756 133q203 0 306 144.5t103 347.5q0 178 -56 328.5t-176 248.5t-286 98q-61 0 -119 -6v-503h232l2 -150h-234v-483
q109 -25 228 -25z" />
    <glyph glyph-name="dcroat" unicode="&#x111;" horiz-adv-x="1376" 
d="M1159 231q0 -133 103 -161l-13 -70q-168 -8 -282 -39h-27l-29 156h-12q-72 -84 -150.5 -120t-185.5 -36q-217 0 -361.5 164t-144.5 413.5t136.5 409.5t357.5 160q195 0 319 -150h15v207h-297v105h286q-23 76 -94 96l13 68q199 31 372 147l25 -10q-29 -111 -29 -301h211
l2 -105h-213zM649 102q104 0 168 88.5t64 229.5q0 119 -34 239.5t-113 215t-183 94.5q-102 0 -167 -91.5t-65 -224.5q0 -115 35 -237.5t114 -218t181 -95.5z" />
    <glyph glyph-name="Emacron" unicode="&#x112;" horiz-adv-x="1308" 
d="M954 1774v-142h-600v142h600zM1227 389l73 -35l-116 -391h-25q-31 16 -122 26.5t-167 10.5h-811l-12 68q104 29 105 161v975q0 135 -105 160l12 70h1082l84 -326l-72 -27q-4 8 -13.5 23.5t-46 53.5t-83.5 66.5t-134.5 52t-191.5 23.5q-111 0 -213 -20v-475h381
q66 0 110 29.5t54 76.5l69 -12v-324l-69 -12q-12 49 -55 78t-109 29h-381v-514q154 -23 272 -23q96 0 181.5 26.5t137.5 64.5t92 75t56 63z" />
    <glyph glyph-name="emacron" unicode="&#x113;" horiz-adv-x="1212" 
d="M903 1409v-141h-600v141h600zM752 176q102 0 185 57.5t122 131.5l59 -23q-18 -154 -151 -267.5t-334 -113.5q-250 0 -413 167t-163 411q0 254 162 411.5t404 157.5q168 0 284.5 -78t163.5 -201q29 -70 70 -77l14 -90l-788 -222q86 -264 385 -264zM592 973
q-109 0 -181.5 -94.5t-72.5 -229.5q0 -33 4 -86l492 135q-10 109 -74 192t-168 83z" />
    <glyph glyph-name="Ebreve" unicode="&#x114;" horiz-adv-x="1308" 
d="M653 1583q-117 0 -195.5 58.5t-111.5 148.5l92 49q20 -47 81 -80t134.5 -33t135 32t81.5 79l93 -47q-33 -90 -112 -148.5t-198 -58.5zM1227 389l73 -35l-116 -391h-25q-31 16 -122 26.5t-167 10.5h-811l-12 68q104 29 105 161v975q0 135 -105 160l12 70h1082l84 -326
l-72 -27q-4 8 -13.5 23.5t-46 53.5t-83.5 66.5t-134.5 52t-191.5 23.5q-111 0 -213 -20v-475h381q66 0 110 29.5t54 76.5l69 -12v-324l-69 -12q-12 49 -55 78t-109 29h-381v-514q154 -23 272 -23q96 0 181.5 26.5t137.5 64.5t92 75t56 63z" />
    <glyph glyph-name="ebreve" unicode="&#x115;" horiz-adv-x="1212" 
d="M602 1219q-117 0 -195.5 58t-111.5 148l92 50q20 -47 80.5 -80t134.5 -33t135.5 31.5t81.5 79.5l92 -48q-33 -90 -111.5 -148t-197.5 -58zM752 176q102 0 185 57.5t122 131.5l59 -23q-18 -154 -151 -267.5t-334 -113.5q-250 0 -413 167t-163 411q0 254 162 411.5
t404 157.5q168 0 284.5 -78t163.5 -201q29 -70 70 -77l14 -90l-788 -222q86 -264 385 -264zM592 973q-109 0 -181.5 -94.5t-72.5 -229.5q0 -33 4 -86l492 135q-10 109 -74 192t-168 83z" />
    <glyph glyph-name="Edotaccent" unicode="&#x116;" horiz-adv-x="1308" 
d="M653.5 1614q-65.5 0 -105.5 41t-40 94q0 57 40 99t105.5 42t105.5 -42t40 -99q0 -53 -40 -94t-105.5 -41zM1227 389l73 -35l-116 -391h-25q-31 16 -122 26.5t-167 10.5h-811l-12 68q104 29 105 161v975q0 135 -105 160l12 70h1082l84 -326l-72 -27q-4 8 -13.5 23.5
t-46 53.5t-83.5 66.5t-134.5 52t-191.5 23.5q-111 0 -213 -20v-475h381q66 0 110 29.5t54 76.5l69 -12v-324l-69 -12q-12 49 -55 78t-109 29h-381v-514q154 -23 272 -23q96 0 181.5 26.5t137.5 64.5t92 75t56 63z" />
    <glyph glyph-name="edotaccent" unicode="&#x117;" horiz-adv-x="1212" 
d="M602 1249q-66 0 -104.5 41t-38.5 94q0 57 39 99.5t104 42.5q68 0 108 -42t40 -100q0 -53 -40 -94t-108 -41zM752 176q102 0 185 57.5t122 131.5l59 -23q-18 -154 -151 -267.5t-334 -113.5q-250 0 -413 167t-163 411q0 254 162 411.5t404 157.5q168 0 284.5 -78
t163.5 -201q29 -70 70 -77l14 -90l-788 -222q86 -264 385 -264zM592 973q-109 0 -181.5 -94.5t-72.5 -229.5q0 -33 4 -86l492 135q-10 109 -74 192t-168 83z" />
    <glyph glyph-name="Eogonek" unicode="&#x118;" horiz-adv-x="1308" 
d="M1305 -236l84 -45q-90 -164 -271 -163q-111 0 -178.5 59t-67.5 152q0 133 127 233h-940l-12 68q104 29 105 161v975q0 135 -105 160l12 70h1082l84 -326l-72 -27q-4 8 -13.5 23.5t-46 53.5t-83.5 66.5t-134.5 52t-191.5 23.5q-111 0 -213 -20v-475h381q66 0 110 29.5
t54 76.5l69 -12v-324l-69 -12q-12 49 -55 78t-109 29h-381v-518q147 -18 272 -19q96 0 181.5 26.5t137.5 64.5t92 75t56 63l17 27l73 -35l-104 -354q-133 -84 -133 -207q0 -49 32.5 -82t78.5 -33q82 0 131 86z" />
    <glyph glyph-name="eogonek" unicode="&#x119;" horiz-adv-x="1212" 
d="M752 176q102 0 185 57.5t122 131.5l59 -23q-16 -135 -124.5 -243.5t-276.5 -131.5q-88 -78 -88 -174q0 -49 32.5 -82t79.5 -33q82 0 131 86l84 -45q-90 -164 -270 -163q-111 0 -178.5 59t-67.5 152q0 117 90 202q-209 35 -341 195t-132 375q0 254 162 411.5t404 157.5
q168 0 284.5 -78t163.5 -201q29 -70 70 -77l14 -90l-788 -222q86 -264 385 -264zM592 973q-109 0 -181.5 -94.5t-72.5 -229.5q0 -33 4 -86l492 135q-10 109 -74 192t-168 83z" />
    <glyph glyph-name="Ecaron" unicode="&#x11a;" horiz-adv-x="1308" 
d="M985 1800l-330 -280l-331 280l47 74l284 -127l283 127zM1227 389l73 -35l-116 -391h-25q-31 16 -122 26.5t-167 10.5h-811l-12 68q104 29 105 161v975q0 135 -105 160l12 70h1082l84 -326l-72 -27q-4 8 -13.5 23.5t-46 53.5t-83.5 66.5t-134.5 52t-191.5 23.5
q-111 0 -213 -20v-475h381q66 0 110 29.5t54 76.5l69 -12v-324l-69 -12q-12 49 -55 78t-109 29h-381v-514q154 -23 272 -23q96 0 181.5 26.5t137.5 64.5t92 75t56 63z" />
    <glyph glyph-name="ecaron" unicode="&#x11b;" horiz-adv-x="1212" 
d="M934 1436l-330 -281l-332 281l47 73l285 -127l283 127zM752 176q102 0 185 57.5t122 131.5l59 -23q-18 -154 -151 -267.5t-334 -113.5q-250 0 -413 167t-163 411q0 254 162 411.5t404 157.5q168 0 284.5 -78t163.5 -201q29 -70 70 -77l14 -90l-788 -222q86 -264 385 -264
zM592 973q-109 0 -181.5 -94.5t-72.5 -229.5q0 -33 4 -86l492 135q-10 109 -74 192t-168 83z" />
    <glyph glyph-name="Gcircumflex" unicode="&#x11c;" horiz-adv-x="1490" 
d="M745 1638l-284 -127l-47 74l331 281l330 -281l-47 -74zM1458 739l12 -67q-104 -29 -104 -160v-512h-84l-82 129h-8q-158 -168 -422 -168q-319 0 -508.5 213t-189.5 541q0 322 199.5 540t502.5 218q76 0 169 -19.5t128 -19.5q104 0 166 39h25l88 -465l-84 -17
q-55 154 -170 251t-287 97q-162 0 -290 -148.5t-128 -379.5q0 -309 141.5 -484t362.5 -175q86 0 156 36v324q0 127 -127 160l12 67h522z" />
    <glyph glyph-name="gcircumflex" unicode="&#x11d;" horiz-adv-x="1189" 
d="M922 1075q-35 0 -64 -33q205 -117 205 -352q0 -186 -132 -297.5t-347 -111.5q-135 0 -246 47q-80 -16 -80 -70q0 -57 92 -77.5t340 -20.5q246 0 349.5 -61.5t103.5 -194.5q0 -170 -163 -266.5t-413 -96.5q-510 0 -510 246q0 117 113 176v10q-111 59 -111 193
q0 82 47.5 138t120.5 77v12q-137 115 -137 307q0 184 133 296t352 112q96 0 181 -25q29 49 67 88l-229 103l-283 -127l-47 74l330 280l317 -270q49 20 109 20q66 0 111 -31.5t45 -89.5q0 -51 -27 -84.5t-82 -33.5q-39 0 -79.5 31.5t-65.5 31.5zM614 403q78 0 129.5 58.5
t51.5 156.5q0 137 -69 251t-181 114q-82 0 -135.5 -58.5t-53.5 -154.5q0 -129 70.5 -248t187.5 -119zM338 -76q-84 -33 -84 -112q0 -70 80 -110t237 -40q152 0 241 50t89 108q0 55 -54 71.5t-231 16.5q-157 0 -278 16z" />
    <glyph glyph-name="Gbreve" unicode="&#x11e;" horiz-adv-x="1490" 
d="M743 1583q-117 0 -195.5 58.5t-111.5 148.5l92 49q20 -47 81 -80t134.5 -33t135 32t82.5 79l92 -47q-33 -90 -112 -148.5t-198 -58.5zM1458 739l12 -67q-104 -29 -104 -160v-512h-84l-82 129h-8q-158 -168 -422 -168q-319 0 -508.5 213t-189.5 541q0 322 199.5 540
t502.5 218q76 0 169 -19.5t128 -19.5q104 0 166 39h25l88 -465l-84 -17q-55 154 -170 251t-287 97q-162 0 -290 -148.5t-128 -379.5q0 -309 141.5 -484t362.5 -175q86 0 156 36v324q0 127 -127 160l12 67h522z" />
    <glyph glyph-name="gbreve" unicode="&#x11f;" horiz-adv-x="1189" 
d="M594 1219q-117 0 -197 58t-110 148l92 50q20 -49 80.5 -81t134.5 -32t135.5 31.5t81.5 79.5l90 -48q-33 -90 -110.5 -148t-196.5 -58zM922 1075q-35 0 -64 -33q205 -117 205 -352q0 -186 -132 -297.5t-347 -111.5q-135 0 -246 47q-80 -16 -80 -70q0 -57 92 -77.5
t340 -20.5q246 0 349.5 -61.5t103.5 -194.5q0 -170 -163 -266.5t-413 -96.5q-510 0 -510 246q0 117 113 176v10q-111 59 -111 193q0 82 47.5 138t120.5 77v12q-137 115 -137 307q0 184 133 296t352 112q96 0 181 -25q98 168 264 168q66 0 111 -31.5t45 -89.5
q0 -51 -27 -84.5t-82 -33.5q-39 0 -79.5 31.5t-65.5 31.5zM614 403q78 0 129.5 58.5t51.5 156.5q0 137 -69 251t-181 114q-82 0 -135.5 -58.5t-53.5 -154.5q0 -129 70.5 -248t187.5 -119zM338 -76q-84 -33 -84 -112q0 -70 80 -110t237 -40q152 0 241 50t89 108
q0 55 -54 71.5t-231 16.5q-157 0 -278 16z" />
    <glyph glyph-name="Gdotaccent" unicode="&#x120;" horiz-adv-x="1490" 
d="M743 1614q-63 0 -103 41t-40 94q0 57 39 99t104 42q68 0 108 -42t40 -99q0 -53 -40 -94t-108 -41zM1458 739l12 -67q-104 -29 -104 -160v-512h-84l-82 129h-8q-158 -168 -422 -168q-319 0 -508.5 213t-189.5 541q0 322 199.5 540t502.5 218q76 0 169 -19.5t128 -19.5
q104 0 166 39h25l88 -465l-84 -17q-55 154 -170 251t-287 97q-162 0 -290 -148.5t-128 -379.5q0 -309 141.5 -484t362.5 -175q86 0 156 36v324q0 127 -127 160l12 67h522z" />
    <glyph glyph-name="gdotaccent" unicode="&#x121;" horiz-adv-x="1189" 
d="M593.5 1249q-65.5 0 -105 41t-39.5 94q0 57 39.5 99.5t105 42.5t105.5 -42t40 -100q0 -53 -40 -94t-105.5 -41zM922 1075q-35 0 -64 -33q205 -117 205 -352q0 -186 -132 -297.5t-347 -111.5q-135 0 -246 47q-80 -16 -80 -70q0 -57 92 -77.5t340 -20.5q246 0 349.5 -61.5
t103.5 -194.5q0 -170 -163 -266.5t-413 -96.5q-510 0 -510 246q0 117 113 176v10q-111 59 -111 193q0 82 47.5 138t120.5 77v12q-137 115 -137 307q0 184 133 296t352 112q96 0 181 -25q98 168 264 168q66 0 111 -31.5t45 -89.5q0 -51 -27 -84.5t-82 -33.5q-39 0 -79.5 31.5
t-65.5 31.5zM614 403q78 0 129.5 58.5t51.5 156.5q0 137 -69 251t-181 114q-82 0 -135.5 -58.5t-53.5 -154.5q0 -129 70.5 -248t187.5 -119zM338 -76q-84 -33 -84 -112q0 -70 80 -110t237 -40q152 0 241 50t89 108q0 55 -54 71.5t-231 16.5q-157 0 -278 16z" />
    <glyph glyph-name="uni0122" unicode="&#x122;" horiz-adv-x="1495" 
d="M1458 739l12 -67q-104 -29 -104 -160v-512h-84l-82 129h-8q-158 -168 -422 -168q-319 0 -508.5 213t-189.5 541q0 322 199.5 540t502.5 218q76 0 169 -19.5t128 -19.5q104 0 166 39h25l88 -465l-84 -17q-55 154 -170 251t-287 97q-162 0 -290 -148.5t-128 -379.5
q0 -309 141.5 -484t362.5 -175q86 0 156 36v324q0 127 -127 160l12 67h522zM778 -117q90 0 146.5 -64.5t56.5 -170.5q0 -145 -86 -286.5t-223 -221.5l-72 92q166 113 213 315l-4 4q-29 -14 -53 -14q-74 0 -126 49t-52 125t58 124t142 48z" />
    <glyph glyph-name="uni0123" unicode="&#x123;" horiz-adv-x="1183" 
d="M580 1223q-90 0 -146.5 64.5t-56.5 170.5q0 145 86 286.5t223 221.5l72 -92q-166 -113 -213 -313l6 -7q29 14 53 15q72 0 124 -49.5t52 -125t-58 -123.5t-142 -48zM922 1075q-35 0 -64 -33q205 -117 205 -352q0 -186 -132 -297.5t-347 -111.5q-135 0 -246 47
q-80 -16 -80 -70q0 -57 92 -77.5t340 -20.5q246 0 349.5 -61.5t103.5 -194.5q0 -170 -163 -266.5t-413 -96.5q-510 0 -510 246q0 117 113 176v10q-111 59 -111 193q0 82 47.5 138t120.5 77v12q-137 115 -137 307q0 184 133 296t352 112q96 0 181 -25q98 168 264 168
q66 0 111 -31.5t45 -89.5q0 -51 -27 -84.5t-82 -33.5q-39 0 -79.5 31.5t-65.5 31.5zM614 403q78 0 129.5 58.5t51.5 156.5q0 137 -69 251t-181 114q-82 0 -135.5 -58.5t-53.5 -154.5q0 -129 70.5 -248t187.5 -119zM338 -76q-84 -33 -84 -112q0 -70 80 -110t237 -40
q152 0 241 50t89 108q0 55 -54 71.5t-231 16.5q-157 0 -278 16z" />
    <glyph glyph-name="Hcircumflex" unicode="&#x124;" horiz-adv-x="1536" 
d="M768 1638l-283 -127l-47 74l330 281l330 -281l-45 -74zM1384 229q0 -133 105 -159l-10 -70h-504l-12 70q104 27 104 159v435h-596v-435q0 -135 104 -159l-12 -70h-504l-12 70q104 25 105 159v975q0 135 -105 160l12 70h502l14 -70q-104 -25 -104 -160v-385h596v385
q0 133 -104 160l12 70h504l10 -70q-104 -27 -105 -160v-975z" />
    <glyph glyph-name="hcircumflex" unicode="&#x125;" horiz-adv-x="1312" 
d="M573 1583l-284 127l-283 -127l-47 74l330 280l329 -280zM1165 227q12 -131 119 -159l-12 -68h-457l-12 68q45 12 69.5 54t18.5 105l-49 508q-8 113 -63.5 172.5t-139.5 59.5q-90 0 -153.5 -60.5t-63.5 -154.5v-525q0 -131 104 -159l-12 -68h-459l-12 68q104 29 104 159
v977q0 135 -104 160l12 68q211 37 373 149l25 -10q-31 -115 -31 -352v-246h14q100 135 281 135q178 0 285.5 -110.5t125.5 -331.5z" />
    <glyph glyph-name="Hbar" unicode="&#x126;" horiz-adv-x="1624" 
d="M1430 229q0 -133 104 -161l-12 -68h-504l-12 68q104 29 104 161v435h-596v-435q0 -133 104 -161l-12 -68h-504l-12 68q104 29 105 161v756h-172v105h172v114q0 135 -105 160l12 70h504l12 -70q-104 -25 -104 -160v-114h596v114q0 135 -104 160l12 70h504l12 -70
q-104 -25 -104 -160v-114h167l5 -105h-172v-756zM514 819h596v166h-596v-166z" />
    <glyph glyph-name="hbar" unicode="&#x127;" horiz-adv-x="1384" 
d="M1237 229q14 -133 121 -161l-15 -68h-456l-13 68q100 29 89 161l-48 506q-8 113 -63 172.5t-135 59.5q-92 2 -157.5 -59.5t-65.5 -155.5v-523q0 -131 104 -161l-12 -68h-457l-12 68q102 29 102 161v936h-225v103h217q-25 80 -94 96l12 70q205 31 373 147l22 -10
q-27 -98 -30 -303h284v-103h-284v-194h14q98 137 280 137q178 0 286 -109.5t128 -330.5z" />
    <glyph glyph-name="Itilde" unicode="&#x128;" horiz-adv-x="622" 
d="M438 1614q-61 0 -146 53t-124 53q-66 0 -82 -80l-92 25q12 113 66.5 165t125.5 52q61 0 148.5 -52t126.5 -52q66 0 82 77l88 -22q-12 -115 -65.5 -167t-127.5 -52zM59 0l-12 70q104 25 105 159v975q0 135 -105 160l12 70h504l12 -70q-104 -25 -104 -160v-975
q0 -135 104 -159l-12 -70h-504z" />
    <glyph glyph-name="itilde" unicode="&#x129;" 
d="M412 1249q-61 0 -147.5 53.5t-123.5 53.5q-68 0 -84 -80l-92 24q14 115 67.5 166.5t125.5 51.5q61 0 149 -52.5t125 -52.5q63 0 84 78l88 -23q-12 -115 -66 -167t-126 -52zM55 0l-12 68q104 29 104 159v512q0 131 -104 160l12 68q178 27 338 141h29v-881q0 -131 104 -159
l-12 -68h-459z" />
    <glyph glyph-name="Imacron" unicode="&#x12a;" horiz-adv-x="622" 
d="M12 1632v142h600v-142h-600zM59 0l-12 70q104 25 105 159v975q0 135 -105 160l12 70h504l12 -70q-104 -25 -104 -160v-975q0 -135 104 -159l-12 -70h-504z" />
    <glyph glyph-name="imacron" unicode="&#x12b;" 
d="M-16 1268v141h602v-141h-602zM55 0l-12 68q104 29 104 159v512q0 131 -104 160l12 68q178 27 338 141h29v-881q0 -131 104 -159l-12 -68h-459z" />
    <glyph glyph-name="Iogonek" unicode="&#x12e;" horiz-adv-x="622" 
d="M532 -236l84 -45q-94 -164 -270 -163q-111 0 -178.5 59t-67.5 152q0 135 127 233h-168l-12 70q104 25 105 159v975q0 135 -105 160l12 70h504l12 -70q-104 -25 -104 -160v-975q0 -135 104 -159l-12 -70h-141q-133 -86 -133 -207q0 -49 32.5 -82t77.5 -33q84 0 133 86z
" />
    <glyph glyph-name="iogonek" unicode="&#x12f;" horiz-adv-x="575" 
d="M283 1229q-80 0 -126 47t-46 113q0 68 46 116.5t126 48.5q78 0 127 -50t49 -115q0 -63 -49 -111.5t-127 -48.5zM479 -236l84 -45q-90 -164 -268 -163q-113 0 -180.5 59t-67.5 152q0 133 127 233h-115l-12 68q104 29 105 159v512q0 131 -105 160l12 68q180 27 340 141h27
v-881q0 -131 106 -159l-14 -68h-147q-133 -84 -133 -207q0 -49 32.5 -82t77.5 -33q82 0 131 86z" />
    <glyph glyph-name="Idotaccent" unicode="&#x130;" horiz-adv-x="622" 
d="M311.5 1614q-65.5 0 -105.5 41t-40 94q0 57 40 99t105.5 42t105.5 -42t40 -99q0 -53 -40 -94t-105.5 -41zM59 0l-12 70q104 25 105 159v975q0 135 -105 160l12 70h504l12 -70q-104 -25 -104 -160v-975q0 -135 104 -159l-12 -70h-504z" />
    <glyph glyph-name="dotlessi" unicode="&#x131;" 
d="M55 0l-12 68q104 29 104 159v512q0 131 -104 160l12 68q178 27 338 141h29v-881q0 -131 104 -159l-12 -68h-459z" />
    <glyph glyph-name="IJ" unicode="&#x132;" horiz-adv-x="1245" 
d="M53 0l-12 70q104 25 104 159v975q0 135 -104 160l12 70h504l12 -70q-104 -25 -104 -160v-975q0 -135 104 -159l-12 -70h-504zM616 -446q-160 0 -242.5 60t-82.5 146q0 63 40 102.5t99 39.5t96 -31t51.5 -67.5t39 -67.5t61.5 -31q57 0 82.5 70.5t25.5 234.5v1194
q0 135 -104 160l14 70h502l12 -70q-104 -25 -104 -160v-1132q0 -272 -134.5 -395t-355.5 -123z" />
    <glyph glyph-name="ij" unicode="&#x133;" horiz-adv-x="1093" 
d="M301 1229q-80 0 -126 47t-46 113q0 68 46 116.5t126 48.5q78 0 126 -50t48 -115.5t-48 -112.5t-126 -47zM827 1229q-80 0 -126 47t-46 113q0 68 46.5 116.5t125.5 48.5q78 0 127.5 -50t49.5 -115q0 -63 -49.5 -111.5t-127.5 -48.5zM78 0l-12 68q104 29 104 159v512
q0 131 -104 160l12 68q180 29 340 141h26v-881q0 -131 105 -159l-12 -68h-459zM625 -459q-131 0 -210 61.5t-79 153.5q0 51 35 87t90 36q63 0 92 -37t29 -82t18 -81.5t66 -36.5q41 0 64.5 43t23.5 102q0 51 -28 158.5t-28 181.5v612q0 129 -104 160l12 68q178 27 338 141h29
v-1180q0 -180 -88 -283.5t-260 -103.5z" />
    <glyph glyph-name="Jcircumflex" unicode="&#x134;" horiz-adv-x="636" 
d="M35 1511l-47 74l331 281l330 -281l-47 -74l-283 127zM6 -426q-160 0 -242.5 61.5t-82.5 147.5q0 61 40.5 101t98.5 40q59 0 97 -30.5t52.5 -67.5t39 -67.5t59.5 -30.5q57 0 82.5 70.5t25.5 234.5v1171q0 66 -28.5 107t-73.5 53l12 70h502l12 -70q-102 -25 -102 -160
v-1110q0 -272 -135.5 -396t-356.5 -124z" />
    <glyph glyph-name="jcircumflex" unicode="&#x135;" horiz-adv-x="573" 
d="M4 1147l-47 74l332 280l329 -280l-47 -74l-282 127zM84 -459q-131 0 -210 61.5t-79 153.5q0 51 35 87t90 36q63 0 92 -37t29 -82t19.5 -81.5t66.5 -36.5q39 0 62.5 43t23.5 102q0 51 -27.5 158.5t-27.5 181.5v612q0 131 -105 160l13 68q178 27 337 141h29v-1180
q0 -180 -88 -283.5t-260 -103.5z" />
    <glyph glyph-name="uni0136" unicode="&#x136;" horiz-adv-x="1511" 
d="M1343 229q82 -137 191 -159l-14 -70h-562l-12 70q43 12 51.5 51t-30.5 108l-310 506h-12l-174 -157v-349q0 -135 104 -159l-12 -70h-504l-12 70q104 25 105 159v975q0 135 -105 160l12 70h504l12 -70q-104 -25 -104 -160v-420h12l459 420q45 41 53.5 78t-7 55.5
t-40.5 26.5l13 70h473l12 -70q-137 -27 -283 -160l-266 -241zM702 -117q90 0 146.5 -64.5t56.5 -170.5q0 -145 -86 -286.5t-223 -221.5l-72 92q166 113 213 315l-4 4q-29 -14 -55 -14q-72 0 -124 49t-52 125t58 124t142 48z" />
    <glyph glyph-name="uni0137" unicode="&#x137;" horiz-adv-x="1273" 
d="M1079 227q90 -131 209 -159l-12 -68h-508l-12 68q84 29 0 159l-228 346h-16q-18 -20 -49 -54t-41 -44v-248q0 -131 104 -159l-12 -68h-459l-12 68q104 31 104 159v977q0 133 -104 160l12 68q207 37 373 149l25 -10q-31 -115 -31 -352v-547h12l209 235q82 96 162 148.5
t186 52.5q100 0 160.5 -48t60.5 -130q0 -76 -38.5 -124t-112.5 -48q-70 0 -124 60.5t-95 60.5q-47 0 -131 -86zM629 -117q90 0 146 -64.5t56 -170.5q0 -145 -86 -286.5t-223 -221.5l-71 92q166 113 213 315l-5 4q-29 -14 -55 -14q-72 0 -124 49t-52 125t58.5 124t142.5 48z
" />
    <glyph glyph-name="kgreenlandic" unicode="&#x138;" horiz-adv-x="1253" 
d="M1079 227q90 -131 209 -159l-12 -68h-508l-12 68q84 29 0 159l-228 346h-16q-18 -20 -49 -54t-41 -44v-248q0 -131 104 -159l-12 -68h-459l-12 68q104 31 104 159v512q0 66 -29.5 107t-74.5 51l12 70q166 29 330 141h37v-436h12l209 235q82 96 162 148.5t186 52.5
q100 0 160.5 -48t60.5 -130q0 -76 -38.5 -124t-112.5 -48q-70 0 -124 60.5t-95 60.5q-47 0 -131 -86z" />
    <glyph glyph-name="Lacute" unicode="&#x139;" horiz-adv-x="1265" 
d="M578 1704l-267 -182l-69 57l196 254q55 72 123 72q39 0 64.5 -26t25.5 -60q1 -68 -73 -115zM1182 416l75 -33l-127 -418h-26q-31 14 -123 24.5t-164 10.5h-758l-12 70q104 25 105 159v975q0 135 -105 160l12 70h504l12 -70q-104 -25 -104 -160v-1054q111 -16 219 -17
q94 0 180 28.5t140.5 70.5t95.5 84t57 71z" />
    <glyph glyph-name="lacute" unicode="&#x13a;" 
d="M236 1591l-70 58l196 254q55 72 123 71q39 0 64.5 -25.5t25.5 -60.5q0 -68 -73 -114zM57 0l-14 68q104 29 104 159v977q0 135 -104 160l14 68q211 37 371 149l25 -10q-31 -115 -31 -352v-992q0 -129 104 -159l-12 -68h-457z" />
    <glyph glyph-name="uni013B" unicode="&#x13b;" horiz-adv-x="1271" 
d="M1182 416l75 -33l-127 -418h-26q-31 14 -123 24.5t-164 10.5h-758l-12 70q104 25 105 159v975q0 135 -105 160l12 70h504l12 -70q-104 -25 -104 -160v-1054q111 -16 219 -17q94 0 180 28.5t140.5 70.5t95.5 84t57 71zM637 -117q90 0 146.5 -64.5t56.5 -170.5
q0 -145 -86 -286.5t-224 -221.5l-71 92q164 111 215 315l-4 4q-33 -14 -56 -14q-74 0 -125 49t-51 125t58.5 124t140.5 48z" />
    <glyph glyph-name="uni013C" unicode="&#x13c;" 
d="M422 227q0 -129 104 -159l-12 -68h-457l-14 68q104 29 104 159v977q0 135 -104 160l14 68q211 37 371 149l25 -10q-31 -115 -31 -352v-992zM301 -117q90 0 146.5 -64.5t56.5 -170.5q0 -145 -86 -286.5t-223 -221.5l-72 92q166 113 213 315l-4 4q-29 -14 -53 -14
q-74 0 -126.5 49t-52.5 125t58.5 124t142.5 48z" />
    <glyph glyph-name="Lcaron" unicode="&#x13d;" horiz-adv-x="1265" 
d="M872 1126q-74 0 -125 49.5t-51 125t58.5 124t140.5 48.5q92 0 148.5 -65t56.5 -171q0 -145 -86 -286.5t-223 -221.5l-72 92q162 113 213 314l-6 6q-29 -15 -54 -15zM1182 416l75 -33l-127 -418h-26q-31 14 -123 24.5t-164 10.5h-758l-12 70q104 25 105 159v975
q0 135 -105 160l12 70h504l12 -70q-104 -25 -104 -160v-1054q111 -16 219 -17q94 0 180 28.5t140.5 70.5t95.5 84t57 71z" />
    <glyph glyph-name="lcaron" unicode="&#x13e;" horiz-adv-x="1019" 
d="M430 227q0 -129 105 -159l-13 -68h-456l-15 68q104 29 105 159v977q0 135 -105 160l15 68q211 37 370 149l25 -10q-31 -115 -31 -352v-992zM737 1473q90 0 146.5 -65t56.5 -171q0 -145 -86 -286.5t-223 -221.5l-72 92q166 113 213 314l-6 6q-29 -14 -53 -15
q-74 0 -125 49.5t-51 125t58 124t142 48.5z" />
    <glyph glyph-name="Ldot" unicode="&#x13f;" horiz-adv-x="1265" 
d="M1182 416l75 -33l-127 -418h-26q-31 14 -123 24.5t-164 10.5h-758l-12 70q104 25 105 159v975q0 135 -105 160l12 70h504l12 -70q-104 -25 -104 -160v-1054q111 -16 219 -17q94 0 180 28.5t140.5 70.5t95.5 84t57 71zM846 565q-80 0 -134.5 52.5t-54.5 136.5
q0 82 55.5 134t133.5 52t134 -52t56 -134q0 -84 -55 -136.5t-135 -52.5z" />
    <glyph glyph-name="ldot" unicode="&#x140;" horiz-adv-x="915" 
d="M68 0l-15 68q104 29 105 159v977q0 135 -105 160l15 68q211 37 370 149l25 -10q-29 -106 -29 -352v-992q0 -131 103 -159l-13 -68h-456zM725 565q-80 0 -134 52.5t-54 136.5q0 82 55 134t133 52t134 -52t56 -134q0 -84 -55 -136.5t-135 -52.5z" />
    <glyph glyph-name="Lslash" unicode="&#x141;" horiz-adv-x="1306" 
d="M1225 418l73 -35l-127 -420h-26q-31 16 -121 26.5t-166 10.5h-758l-12 68q104 29 105 161v406l-197 -117v105l197 114v467q0 135 -105 160l12 70h504l12 -70q-104 -25 -104 -160v-278l203 118v-102l-203 -119v-673q111 -16 219 -17q94 0 180 30t141.5 70.5t96.5 82.5
t59 73z" />
    <glyph glyph-name="lslash" unicode="&#x142;" horiz-adv-x="589" 
d="M563 686l-133 -78v-379q0 -133 105 -161l-13 -68h-459l-12 68q104 29 105 161v217l-129 -75v102l129 76v655q0 135 -105 160l12 70q199 27 375 147l25 -10q-33 -123 -33 -352v-506l133 78v-105z" />
    <glyph glyph-name="Nacute" unicode="&#x143;" horiz-adv-x="1427" 
d="M963 1704l-265 -182l-71 57l196 254q57 72 123 72q39 0 65.5 -26t26.5 -60q1 -68 -75 -115zM1382 1434l13 -70q-106 -27 -107 -160v-1204h-160q-39 117 -118.5 222.5t-176 191.5t-193.5 171t-193.5 194.5t-153.5 228.5h-8v-779q0 -135 104 -159l-12 -70h-318l-12 70
q102 25 103 159v975q0 135 -103 160l12 70h289q70 -129 165 -249t185 -208t176.5 -170t160 -170t112.5 -176h10v743q0 135 -104 160l12 70h317z" />
    <glyph glyph-name="nacute" unicode="&#x144;" horiz-adv-x="1316" 
d="M840 1339l-265 -182l-69 57l194 254q57 72 123 72q39 0 65.5 -25.5t26.5 -60.5q1 -68 -75 -115zM1153 227q12 -131 121 -159l-12 -68h-459l-15 68q102 29 89 159l-41 459q-10 119 -62.5 185.5t-144.5 66.5q-90 0 -149.5 -67.5t-59.5 -168.5v-475q0 -66 29.5 -106.5
t76.5 -52.5l-14 -68h-457l-10 68q100 29 100 159v504q0 135 -102 160l12 67q160 27 326 150h27l6 -166h10q106 166 299 166q356 0 395 -442z" />
    <glyph glyph-name="uni0145" unicode="&#x145;" horiz-adv-x="1433" 
d="M1382 1434l13 -70q-106 -27 -107 -160v-1204h-160q-39 117 -118.5 222.5t-176 191.5t-193.5 171t-193.5 194.5t-153.5 228.5h-8v-779q0 -135 104 -159l-12 -70h-318l-12 70q102 25 103 159v975q0 135 -103 160l12 70h289q70 -129 165 -249t185 -208t176.5 -170t160 -170
t112.5 -176h10v743q0 135 -104 160l12 70h317zM733 -117q90 0 146.5 -64.5t56.5 -170.5q0 -145 -86 -286.5t-223 -221.5l-72 92q166 113 213 315l-4 4q-29 -14 -53 -14q-74 0 -126.5 49t-52.5 125t58.5 124t142.5 48z" />
    <glyph glyph-name="uni0146" unicode="&#x146;" horiz-adv-x="1312" 
d="M1153 227q12 -131 121 -159l-12 -68h-459l-15 68q102 29 89 159l-41 459q-10 119 -62.5 185.5t-144.5 66.5q-90 0 -149.5 -67.5t-59.5 -168.5v-475q0 -66 29.5 -106.5t76.5 -52.5l-14 -68h-457l-10 68q100 29 100 159v504q0 135 -102 160l12 67q160 27 326 150h27l6 -166
h10q106 166 299 166q356 0 395 -442zM653 -117q90 0 146.5 -64.5t56.5 -170.5q0 -145 -86 -286.5t-223 -221.5l-72 92q166 113 213 315l-4 4q-29 -14 -53 -14q-74 0 -126 49t-52 125t58 124t142 48z" />
    <glyph glyph-name="Ncaron" unicode="&#x147;" horiz-adv-x="1427" 
d="M1042 1800l-329 -280l-330 280l45 74l285 -127l282 127zM1382 1434l13 -70q-106 -27 -107 -160v-1204h-160q-39 117 -118.5 222.5t-176 191.5t-193.5 171t-193.5 194.5t-153.5 228.5h-8v-779q0 -135 104 -159l-12 -70h-318l-12 70q102 25 103 159v975q0 135 -103 160
l12 70h289q70 -129 165 -249t185 -208t176.5 -170t160 -170t112.5 -176h10v743q0 135 -104 160l12 70h317z" />
    <glyph glyph-name="ncaron" unicode="&#x148;" horiz-adv-x="1316" 
d="M989 1436l-330 -281l-331 281l47 73l284 -127l281 127zM1153 227q12 -131 121 -159l-12 -68h-459l-15 68q102 29 89 159l-41 459q-10 119 -62.5 185.5t-144.5 66.5q-90 0 -149.5 -67.5t-59.5 -168.5v-475q0 -66 29.5 -106.5t76.5 -52.5l-14 -68h-457l-10 68
q100 29 100 159v504q0 135 -102 160l12 67q160 27 326 150h27l6 -166h10q106 166 299 166q356 0 395 -442z" />
    <glyph glyph-name="napostrophe" unicode="&#x149;" horiz-adv-x="1691" 
d="M244 1473q90 0 146 -65t56 -171q0 -145 -86 -286.5t-223 -221.5l-71 92q166 113 213 314l-7 6q-29 -14 -53 -15q-74 0 -125 49.5t-51 125t58.5 124t142.5 48.5zM1530 227q4 -63 38 -105t81 -54l-13 -68h-458l-13 68q100 29 88 159l-43 459q-10 119 -61 185.5t-143.5 66.5
t-151.5 -67.5t-59 -168.5v-475q0 -66 29.5 -106.5t76.5 -52.5l-14 -68h-457l-10 68q102 29 102 159v504q0 66 -28.5 108t-75.5 52l12 67q160 27 326 150h26l6 -166h11q111 166 299 166q358 0 395 -442z" />
    <glyph glyph-name="Eng" unicode="&#x14a;" horiz-adv-x="1427" 
d="M1380 1434l13 -70q-104 -27 -105 -160v-1214q0 -438 -368 -439q-135 0 -223.5 57.5t-88.5 139.5q0 55 34 91t83 36q53 0 87 -29.5t45 -66.5t43 -66.5t83 -29.5q78 0 124 77.5t46 229.5v22q-41 113 -125 217.5t-182 188.5t-199.5 168t-199 193.5t-154.5 226.5h-10l2 -777
q0 -133 104 -161l-12 -68h-318l-12 68q102 29 103 161v975q0 66 -29 107t-74 53l12 70h279q70 -129 166 -247t187 -202t179 -163t163 -166t114 -173h6l2 721q0 133 -106 160l14 70h317z" />
    <glyph glyph-name="eng" unicode="&#x14b;" horiz-adv-x="1275" 
d="M754 1108q180 0 281.5 -110.5t101.5 -329.5v-742q0 -178 -102.5 -281.5t-293.5 -103.5q-131 0 -225 58.5t-94 148.5q0 51 30.5 86t86.5 35q53 0 78.5 -36t28.5 -79t24.5 -78.5t70.5 -35.5q113 0 113 286l2 758q0 117 -54 185.5t-148.5 68.5t-164 -68.5t-69.5 -164.5v-476
q0 -131 104 -161l-12 -68h-457l-12 68q102 29 102 161v502q0 133 -102 160l12 70q152 23 326 147h27l6 -166h14q43 70 132.5 118t193.5 48z" />
    <glyph glyph-name="Omacron" unicode="&#x14c;" horiz-adv-x="1560" 
d="M479 1632v142h602v-142h-602zM786 -39q-295 0 -504.5 215t-209.5 537q0 338 192.5 549t513.5 211q295 0 503 -219.5t208 -546.5q0 -324 -200 -535t-503 -211zM858 92q139 0 227.5 130t88.5 302q0 184 -57.5 368.5t-173.5 315.5t-259 131q-141 0 -228 -127t-87 -309
q0 -195 58 -378t173 -308t258 -125z" />
    <glyph glyph-name="omacron" unicode="&#x14d;" horiz-adv-x="1232" 
d="M315 1268v141h603v-141h-603zM627 -39q-254 0 -412 165t-158 417q0 248 154 406.5t403 158.5q252 0 407 -163t155 -415q0 -250 -150.5 -409.5t-398.5 -159.5zM682 102q109 0 169 89.5t60 226.5q0 104 -38.5 227t-123.5 223.5t-192 100.5q-111 0 -172 -88t-61 -230
q0 -106 38.5 -228t124.5 -221.5t195 -99.5z" />
    <glyph glyph-name="Obreve" unicode="&#x14e;" horiz-adv-x="1560" 
d="M780.5 1583q-118.5 0 -196.5 58.5t-111 148.5l92 49q20 -49 81 -81t134.5 -32t135 32t81.5 79l90 -47q-33 -90 -110.5 -148.5t-196 -58.5zM786 -39q-295 0 -504.5 215t-209.5 537q0 338 192.5 549t513.5 211q295 0 503 -219.5t208 -546.5q0 -324 -200 -535t-503 -211z
M858 92q139 0 227.5 130t88.5 302q0 184 -57.5 368.5t-173.5 315.5t-259 131q-141 0 -228 -127t-87 -309q0 -195 58 -378t173 -308t258 -125z" />
    <glyph glyph-name="obreve" unicode="&#x14f;" horiz-adv-x="1232" 
d="M616.5 1219q-118.5 0 -196.5 58t-111 148l92 50q20 -49 81 -81t134.5 -32t135 31.5t82.5 79.5l90 -48q-33 -90 -111 -148t-196.5 -58zM627 -39q-254 0 -412 165t-158 417q0 248 154 406.5t403 158.5q252 0 407 -163t155 -415q0 -250 -150.5 -409.5t-398.5 -159.5z
M682 102q109 0 169 89.5t60 226.5q0 104 -38.5 227t-123.5 223.5t-192 100.5q-111 0 -172 -88t-61 -230q0 -106 38.5 -228t124.5 -221.5t195 -99.5z" />
    <glyph glyph-name="Ohungarumlaut" unicode="&#x150;" horiz-adv-x="1560" 
d="M608 1511l-94 39l100 275q33 92 111 92q43 2 67.5 -25.5t24.5 -62.5q0 -39 -43 -98zM901 1511l-94 39l100 275q33 92 111 92q41 2 66.5 -25.5t25.5 -62.5q0 -39 -43 -98zM786 -39q-295 0 -504.5 215t-209.5 537q0 338 192.5 549t513.5 211q295 0 503 -219.5t208 -546.5
q0 -324 -200 -535t-503 -211zM858 92q139 0 227.5 130t88.5 302q0 184 -57.5 368.5t-173.5 315.5t-259 131q-141 0 -228 -127t-87 -309q0 -195 58 -378t173 -308t258 -125z" />
    <glyph glyph-name="ohungarumlaut" unicode="&#x151;" horiz-adv-x="1232" 
d="M436 1147l-94 39q76 201 102 274q33 92 111 92q41 2 65.5 -25.5t24.5 -62.5q0 -39 -43 -98zM729 1147l-94 39q74 201 102 274q33 92 109 92q41 2 66.5 -25.5t25.5 -62.5q0 -39 -43 -98zM627 -39q-254 0 -412 165t-158 417q0 248 154 406.5t403 158.5q252 0 407 -163
t155 -415q0 -250 -150.5 -409.5t-398.5 -159.5zM682 102q109 0 169 89.5t60 226.5q0 104 -38.5 227t-123.5 223.5t-192 100.5q-111 0 -172 -88t-61 -230q0 -106 38.5 -228t124.5 -221.5t195 -99.5z" />
    <glyph glyph-name="OE" unicode="&#x152;" horiz-adv-x="2287" 
d="M2202 389l73 -35l-116 -391h-25q-31 16 -122 26.5t-165 10.5h-798q-129 -37 -275 -37q-293 0 -504 216t-211 536q0 336 193.5 548t515.5 212q133 0 268 -41h1082l82 -326l-72 -27q-4 8 -13.5 23.5t-46 52.5t-84 65.5t-134.5 52t-189 23.5q-113 0 -215 -20v-473h381
q66 0 109.5 28.5t54.5 77.5l69 -12v-324l-69 -12q-12 49 -55.5 78t-108.5 29h-381v-514q154 -23 274 -23q94 0 179.5 26.5t138.5 64.5t92 75t55 63zM356 856q0 -190 62.5 -362t185.5 -285t277 -113q150 0 243 82q2 10 2 33v944q-141 188 -389 188q-176 0 -278.5 -143
t-102.5 -344z" />
    <glyph glyph-name="oe" unicode="&#x153;" horiz-adv-x="2002" 
d="M1567 178q102 0 185 56.5t124 130.5l59 -23q-20 -152 -153 -266.5t-334 -114.5q-119 0 -230.5 56.5t-187.5 154.5q-147 -211 -422 -211q-246 0 -398.5 165t-152.5 417q0 248 148.5 406.5t390.5 158.5q274 0 426 -209q152 205 414 209q168 0 283.5 -77t164.5 -200
q31 -76 72 -86l16 -88l-809 -143q62 -336 404 -336zM1407 973q-109 0 -181.5 -94.5t-72.5 -227.5v-6l496 82q-10 102 -73 174t-169 72zM682 100q109 0 170 90.5t61 227.5q0 104 -38.5 227t-123.5 223.5t-192 100.5q-113 0 -174 -88t-61 -230q0 -106 38.5 -229t124.5 -222.5
t195 -99.5z" />
    <glyph glyph-name="Racute" unicode="&#x154;" horiz-adv-x="1533" 
d="M897 1704l-264 -182l-72 57l197 254q57 72 123 72q39 0 65.5 -26t26.5 -60q0 -68 -76 -115zM1546 84l6 -76q-119 -41 -213 -41q-272 0 -331 281q-41 219 -115 288.5t-268 69.5h-154v-377q0 -135 104 -159l-12 -70h-504l-12 70q104 25 105 159v975q0 135 -105 160l12 70
h744q272 0 436 -108.5t164 -301.5q0 -143 -88 -240.5t-258 -138.5v-16q137 -18 195.5 -93t93.5 -227q29 -127 66.5 -179t133.5 -46zM696 1300q-125 0 -225 -18v-534h248q182 0 271 70.5t89 195.5q0 135 -103.5 210.5t-279.5 75.5z" />
    <glyph glyph-name="racute" unicode="&#x155;" horiz-adv-x="968" 
d="M561 1339l-264 -182l-70 57l195 254q57 72 125 72q39 0 64.5 -25.5t25.5 -60.5q0 -68 -76 -115zM733 1108q100 0 160.5 -57.5t60.5 -141.5q0 -72 -49 -123t-119 -51q-57 0 -93 28t-47 59.5t-31.5 59t-53.5 27.5q-47 0 -93 -59t-46 -139v-482q0 -133 104 -159l-12 -70
h-459l-12 70q102 25 102 159v500q0 135 -102 160l12 69q145 23 324 150h29l8 -178h8q121 178 309 178z" />
    <glyph glyph-name="uni0156" unicode="&#x156;" horiz-adv-x="1554" 
d="M1546 84l6 -76q-119 -41 -213 -41q-272 0 -331 281q-41 217 -115 285.5t-268 68.5h-154v-373q0 -135 104 -159l-12 -70h-504l-12 70q104 25 105 159v975q0 135 -105 160l12 70h744q272 0 436 -108.5t164 -301.5q0 -145 -91 -244.5t-265 -140.5v-14q141 -10 202.5 -86
t96.5 -230q29 -127 66.5 -179t133.5 -46zM696 1300q-125 0 -225 -18v-539h248q182 0 271 73t89 198q0 133 -103.5 209.5t-279.5 76.5zM752 -117q90 0 146 -64.5t56 -170.5q0 -145 -86 -286.5t-223 -221.5l-72 92q166 113 213 315l-4 4q-29 -14 -55 -14q-72 0 -124 49
t-52 125t58.5 124t142.5 48z" />
    <glyph glyph-name="uni0157" unicode="&#x157;" horiz-adv-x="970" 
d="M733 1108q100 0 160.5 -57.5t60.5 -141.5q0 -72 -49 -123t-119 -51q-57 0 -93 28t-47 59.5t-31.5 59t-53.5 27.5q-47 0 -93 -59t-46 -139v-482q0 -133 104 -159l-12 -70h-459l-12 70q102 25 102 159v500q0 135 -102 160l12 69q145 23 324 150h29l8 -178h8
q121 178 309 178zM279 -117q90 0 146 -64.5t56 -170.5q0 -145 -86 -286.5t-223 -221.5l-72 92q166 113 213 315l-4 4q-29 -14 -53 -14q-74 0 -126 49t-52 125t58.5 124t142.5 48z" />
    <glyph glyph-name="Rcaron" unicode="&#x158;" horiz-adv-x="1533" 
d="M1098 1800l-330 -280l-332 280l47 74l285 -127l283 127zM1546 84l6 -76q-119 -41 -213 -41q-272 0 -331 281q-41 219 -115 288.5t-268 69.5h-154v-377q0 -135 104 -159l-12 -70h-504l-12 70q104 25 105 159v975q0 135 -105 160l12 70h744q272 0 436 -108.5t164 -301.5
q0 -143 -88 -240.5t-258 -138.5v-16q137 -18 195.5 -93t93.5 -227q29 -127 66.5 -179t133.5 -46zM696 1300q-125 0 -225 -18v-534h248q182 0 271 70.5t89 195.5q0 135 -103.5 210.5t-279.5 75.5z" />
    <glyph glyph-name="rcaron" unicode="&#x159;" horiz-adv-x="968" 
d="M815 1436l-330 -281l-331 281l47 73l284 -127l281 127zM733 1108q100 0 160.5 -57.5t60.5 -141.5q0 -72 -49 -123t-119 -51q-57 0 -93 28t-47 59.5t-31.5 59t-53.5 27.5q-47 0 -93 -59t-46 -139v-482q0 -133 104 -159l-12 -70h-459l-12 70q102 25 102 159v500
q0 135 -102 160l12 69q145 23 324 150h29l8 -178h8q121 178 309 178z" />
    <glyph glyph-name="Sacute" unicode="&#x15a;" horiz-adv-x="1382" 
d="M557 1522l-72 57l197 254q57 72 123 72q39 0 65.5 -26t26.5 -60q0 -68 -76 -115zM717 -39q-90 0 -219 35t-189 35q-29 0 -56.5 -8.5t-39.5 -14.5l-14 -8h-27l-115 451l82 30q88 -180 236.5 -290.5t329.5 -110.5q129 0 216 66.5t87 170.5q0 43 -13.5 79t-46.5 63.5
t-60.5 47t-86 40t-89 31t-102.5 30.5q-80 25 -120.5 39.5t-110.5 42t-108 58t-78.5 75.5t-59 103.5t-18.5 132.5q0 188 150.5 301t369.5 113q111 0 231.5 -32t157.5 -32q25 0 47.5 6t32.5 12l10 7h31l106 -406l-80 -22q-74 160 -207 253t-296 93q-119 0 -189.5 -56.5
t-70.5 -140.5q0 -37 12 -67.5t45 -56t56.5 -41t84 -36t85 -27.5t100.5 -28q98 -29 151 -45t135 -56t125 -83t76 -116t33 -163q0 -213 -169 -344t-425 -131z" />
    <glyph glyph-name="sacute" unicode="&#x15b;" horiz-adv-x="1114" 
d="M422 1157l-70 57l197 254q55 72 123 72q39 0 64.5 -25.5t25.5 -60.5q0 -68 -74 -115zM608 -39q-78 0 -199.5 36t-160.5 36q-25 0 -48.5 -8.5t-33.5 -16.5l-10 -8h-23l-90 375l61 18q96 -152 227.5 -230.5t266.5 -78.5q84 0 139.5 38t55.5 109q0 78 -83 128.5t-229 93.5
q-387 106 -387 331q0 141 122 232.5t298 91.5q88 0 190.5 -35t135.5 -35q55 0 86 31h24l72 -328l-74 -24q-76 133 -182.5 203.5t-212.5 70.5q-80 0 -125 -35.5t-45 -89.5q0 -39 21.5 -68.5t67.5 -53t88 -38t112 -34.5q90 -27 147.5 -49.5t123 -62.5t97 -97t31.5 -133
q0 -174 -130 -271.5t-333 -97.5z" />
    <glyph glyph-name="Scircumflex" unicode="&#x15c;" horiz-adv-x="1382" 
d="M410 1511l-50 74l332 281l330 -281l-47 -74l-283 127zM717 -39q-90 0 -219 35t-189 35q-29 0 -56.5 -8.5t-39.5 -14.5l-14 -8h-27l-115 451l82 30q88 -180 236.5 -290.5t329.5 -110.5q129 0 216 66.5t87 170.5q0 43 -13.5 79t-46.5 63.5t-60.5 47t-86 40t-89 31
t-102.5 30.5q-80 25 -120.5 39.5t-110.5 42t-108 58t-78.5 75.5t-59 103.5t-18.5 132.5q0 188 150.5 301t369.5 113q111 0 231.5 -32t157.5 -32q25 0 47.5 6t32.5 12l10 7h31l106 -406l-80 -22q-74 160 -207 253t-296 93q-119 0 -189.5 -56.5t-70.5 -140.5q0 -37 12 -67.5
t45 -56t56.5 -41t84 -36t85 -27.5t100.5 -28q98 -29 151 -45t135 -56t125 -83t76 -116t33 -163q0 -213 -169 -344t-425 -131z" />
    <glyph glyph-name="scircumflex" unicode="&#x15d;" horiz-adv-x="1114" 
d="M274 1147l-47 74l330 280l330 -280l-45 -74l-285 127zM608 -39q-78 0 -199.5 36t-160.5 36q-25 0 -48.5 -8.5t-33.5 -16.5l-10 -8h-23l-90 375l61 18q96 -152 227.5 -230.5t266.5 -78.5q84 0 139.5 38t55.5 109q0 78 -83 128.5t-229 93.5q-387 106 -387 331
q0 141 122 232.5t298 91.5q88 0 190.5 -35t135.5 -35q55 0 86 31h24l72 -328l-74 -24q-76 133 -182.5 203.5t-212.5 70.5q-80 0 -125 -35.5t-45 -89.5q0 -39 21.5 -68.5t67.5 -53t88 -38t112 -34.5q90 -27 147.5 -49.5t123 -62.5t97 -97t31.5 -133q0 -174 -130 -271.5
t-333 -97.5z" />
    <glyph glyph-name="Scedilla" unicode="&#x15e;" horiz-adv-x="1382" 
d="M1311 436q0 -197 -146.5 -325.5t-378.5 -147.5l-41 -94q20 10 56 10q74 0 120 -37t46 -102q0 -88 -84 -152.5t-219 -64.5q-106 0 -177 43t-71 100q0 31 20.5 53.5t50.5 22.5q37 0 58.5 -20.5t30 -46t34 -46t70.5 -20.5q53 0 85 26.5t32 73.5q0 29 -21.5 47.5t-54.5 18.5
q-47 0 -74 -25l-63 29l78 184q-66 6 -178.5 37t-174.5 31q-29 0 -56.5 -8.5t-39.5 -14.5l-14 -8h-27l-115 451l82 30q88 -180 236.5 -290.5t329.5 -110.5q129 0 216 66.5t87 170.5q0 43 -13.5 79t-46.5 63.5t-60.5 47t-86 40t-89 31t-102.5 30.5q-80 25 -120.5 39.5
t-110.5 42t-108 58t-78.5 75.5t-59 103.5t-18.5 132.5q0 188 150.5 301t369.5 113q111 0 231.5 -32t157.5 -32q25 0 47.5 6t32.5 12l10 7h31l106 -406l-80 -22q-74 160 -207 253t-296 93q-119 0 -189.5 -56.5t-70.5 -140.5q0 -37 12 -67.5t45 -56t56.5 -41t84 -36t85 -27.5
t100.5 -28q98 -29 151 -45t135 -56t125 -83t76 -116t33 -163z" />
    <glyph glyph-name="scedilla" unicode="&#x15f;" horiz-adv-x="1114" 
d="M1071 330q0 -162 -115.5 -259.5t-302.5 -107.5l-43 -94q20 10 56 10q76 0 122 -37t46 -102q0 -86 -85 -151.5t-221 -65.5q-106 0 -175.5 42t-69.5 101q0 31 20.5 53.5t50.5 22.5q37 0 58.5 -20.5t30 -46t34 -46t68.5 -20.5q55 0 87 26.5t32 73.5q0 29 -21.5 47.5
t-54.5 18.5q-47 0 -74 -25l-63 29l79 188q-47 8 -144 36t-138 30q-25 0 -48.5 -8.5t-33.5 -16.5l-10 -8h-23l-90 375l61 18q96 -152 227.5 -230.5t266.5 -78.5q84 0 139.5 38t55.5 109q0 78 -83 128.5t-229 93.5q-387 106 -387 331q0 141 122 232.5t298 91.5q88 0 190.5 -35
t135.5 -35q55 0 86 31h24l72 -328l-74 -24q-76 133 -182.5 203.5t-212.5 70.5q-80 0 -125 -35.5t-45 -89.5q0 -39 21.5 -68.5t67.5 -53t88 -38t112 -34.5q90 -27 147.5 -49.5t123 -62.5t97 -97t31.5 -133z" />
    <glyph glyph-name="Scaron" unicode="&#x160;" horiz-adv-x="1382" 
d="M692 1520l-332 280l48 74l284 -127l283 127l47 -74zM717 -39q-90 0 -219 35t-189 35q-29 0 -56.5 -8.5t-39.5 -14.5l-14 -8h-27l-115 451l82 30q88 -180 236.5 -290.5t329.5 -110.5q129 0 216 66.5t87 170.5q0 43 -13.5 79t-46.5 63.5t-60.5 47t-86 40t-89 31
t-102.5 30.5q-80 25 -120.5 39.5t-110.5 42t-108 58t-78.5 75.5t-59 103.5t-18.5 132.5q0 188 150.5 301t369.5 113q111 0 231.5 -32t157.5 -32q25 0 47.5 6t32.5 12l10 7h31l106 -406l-80 -22q-74 160 -207 253t-296 93q-119 0 -189.5 -56.5t-70.5 -140.5q0 -37 12 -67.5
t45 -56t56.5 -41t84 -36t85 -27.5t100.5 -28q98 -29 151 -45t135 -56t125 -83t76 -116t33 -163q0 -213 -169 -344t-425 -131z" />
    <glyph glyph-name="scaron" unicode="&#x161;" horiz-adv-x="1114" 
d="M557 1155l-330 281l45 73l285 -127l283 127l47 -73zM608 -39q-78 0 -199.5 36t-160.5 36q-25 0 -48.5 -8.5t-33.5 -16.5l-10 -8h-23l-90 375l61 18q96 -152 227.5 -230.5t266.5 -78.5q84 0 139.5 38t55.5 109q0 78 -83 128.5t-229 93.5q-387 106 -387 331
q0 141 122 232.5t298 91.5q88 0 190.5 -35t135.5 -35q55 0 86 31h24l72 -328l-74 -24q-76 133 -182.5 203.5t-212.5 70.5q-80 0 -125 -35.5t-45 -89.5q0 -39 21.5 -68.5t67.5 -53t88 -38t112 -34.5q90 -27 147.5 -49.5t123 -62.5t97 -97t31.5 -133q0 -174 -130 -271.5
t-333 -97.5z" />
    <glyph glyph-name="uni0162" unicode="&#x162;" horiz-adv-x="1433" 
d="M1296 1470l117 -401l-74 -35q-6 10 -16 27.5t-51 63.5t-90 81t-130 64.5t-173 32.5v-1074q0 -133 104 -159l-12 -70h-180l-60 -131q27 10 55 10q76 0 122 -37t46 -102q0 -86 -85 -151.5t-220 -65.5q-106 0 -176 42t-70 101q0 31 20.5 53.5t51.5 22.5q37 0 58.5 -20.5
t29.5 -46t34 -46t69 -20.5q55 0 86.5 26.5t31.5 73.5q0 29 -21.5 47.5t-53.5 18.5q-47 0 -74 -25l-64 29l95 221h-197l-12 70q45 12 73.5 53t28.5 106v1074q-92 -2 -173 -31t-131 -68t-88 -78t-54 -65l-17 -27l-73 35l118 401h25q68 -37 272 -36h559q203 0 275 36h24z" />
    <glyph glyph-name="uni0163" unicode="&#x163;" horiz-adv-x="794" 
d="M764 932h-277v-680q0 -152 121 -152q70 0 125 25l27 -115q-72 -33 -199 -47l-41 -94q20 10 55 10q74 0 120 -37t46 -102q0 -88 -84 -152.5t-219 -64.5q-106 0 -177 43t-71 100q0 31 20.5 53.5t51.5 22.5q37 0 58.5 -20.5t29.5 -46t34 -46t71 -20.5q53 0 84.5 26.5
t31.5 73.5q0 29 -21.5 47.5t-53.5 18.5q-47 0 -74 -25l-64 29l80 186q-227 33 -227 293v674h-182v92q270 86 372 348h86v-301h277v-139z" />
    <glyph glyph-name="Tcaron" unicode="&#x164;" horiz-adv-x="1435" 
d="M1047 1800l-330 -280l-330 280l45 74l285 -127l282 127zM1296 1470l117 -401l-74 -35q-6 10 -16 27.5t-51 63.5t-90 81t-130 64.5t-173 32.5v-1074q0 -133 104 -159l-12 -70h-502l-12 70q45 12 73.5 53t28.5 106v1074q-92 -2 -173 -31t-131 -68t-88 -78t-54 -65l-17 -27
l-73 35l118 401h25q68 -37 272 -36h559q203 0 275 36h24z" />
    <glyph glyph-name="tcaron" unicode="&#x165;" horiz-adv-x="1296" 
d="M1030 1473q90 0 146.5 -65t56.5 -171q0 -145 -86 -286.5t-223 -221.5l-72 92q166 113 213 314l-4 6q-29 -14 -53 -15q-74 0 -126.5 49.5t-52.5 125t58.5 124t142.5 48.5zM498 1372v-303h276v-139h-276v-678q0 -152 120 -152q68 0 123 25l29 -115q-115 -49 -248 -49
q-303 0 -303 297v672h-180v94q270 86 373 348h86z" />
    <glyph glyph-name="Tbar" unicode="&#x166;" horiz-adv-x="1435" 
d="M1294 1473l119 -404l-74 -35q-6 10 -17 27.5t-52 62.5t-89 80t-130 64.5t-172 31.5v-505h256l2 -105h-258v-461q0 -133 104 -161l-12 -68h-502l-12 68q104 31 104 161v461h-258v103h258v507q-92 -2 -174 -30.5t-132 -67.5t-88 -77t-54 -64l-17 -27l-73 35l118 404h25
q72 -39 272 -39h561q199 0 273 39h22z" />
    <glyph glyph-name="tbar" unicode="&#x167;" horiz-adv-x="808" 
d="M764 932h-277v-324h271l2 -102h-273v-254q0 -152 121 -152q66 0 125 23l27 -115q-115 -47 -248 -47q-147 0 -224 69.5t-77 225.5v250h-182v102h182v324h-182v92q270 86 372 348h86v-301h277v-139z" />
    <glyph glyph-name="Utilde" unicode="&#x168;" horiz-adv-x="1351" 
d="M801 1614q-61 0 -147.5 53t-123.5 53q-66 0 -81 -80l-93 25q12 115 65.5 166t127.5 51q59 0 147 -52t125 -52q68 0 84 77l88 -22q-12 -115 -65 -167t-127 -52zM682 -39q-287 0 -465 154.5t-154 435.5l58 653q12 133 -88 160l12 70h506l12 -70q-106 -25 -119 -160
l-57 -651q-18 -203 90.5 -330t284.5 -127q188 0 296.5 126t90.5 331l-55 647q-6 66 -40 110t-83 54l12 70h324l12 -70q-47 -12 -71.5 -55t-20.5 -109l57 -649q23 -264 -148 -427t-454 -163z" />
    <glyph glyph-name="utilde" unicode="&#x169;" horiz-adv-x="1280" 
d="M496 1356q-68 0 -84 -80l-93 24q14 115 67.5 166.5t125.5 51.5q61 0 149.5 -52.5t124.5 -52.5q66 0 84 78l88 -23q-12 -115 -66 -167t-126 -52q-61 0 -147 53.5t-123 53.5zM1133 229q0 -133 104 -159l-12 -72q-172 -6 -287 -37h-25l-34 191h-15q-123 -190 -352 -191
q-172 0 -276.5 110.5t-104.5 329.5v336q0 66 -28.5 107t-73.5 53l12 70q182 29 340 141h27v-725q0 -121 60 -186.5t161 -65.5q94 0 161.5 67.5t67.5 166.5v372q0 66 -28.5 108t-73.5 52l12 70q190 33 338 141h27v-879z" />
    <glyph glyph-name="Umacron" unicode="&#x16a;" horiz-adv-x="1351" 
d="M375 1632v142h600v-142h-600zM682 -39q-287 0 -465 154.5t-154 435.5l58 653q12 133 -88 160l12 70h506l12 -70q-106 -25 -119 -160l-57 -651q-18 -203 90.5 -330t284.5 -127q188 0 296.5 126t90.5 331l-55 647q-6 66 -40 110t-83 54l12 70h324l12 -70q-47 -12 -71.5 -55
t-20.5 -109l57 -649q23 -264 -148 -427t-454 -163z" />
    <glyph glyph-name="umacron" unicode="&#x16b;" horiz-adv-x="1280" 
d="M940 1409v-141h-602v141h602zM1133 229q0 -133 104 -159l-12 -72q-172 -6 -287 -37h-25l-34 191h-15q-123 -190 -352 -191q-172 0 -276.5 110.5t-104.5 329.5v336q0 66 -28.5 107t-73.5 53l12 70q182 29 340 141h27v-725q0 -121 60 -186.5t161 -65.5q94 0 161.5 67.5
t67.5 166.5v372q0 66 -28.5 108t-73.5 52l12 70q190 33 338 141h27v-879z" />
    <glyph glyph-name="Ubreve" unicode="&#x16c;" horiz-adv-x="1351" 
d="M674 1583q-117 0 -196 58.5t-111 148.5l92 49q20 -49 80.5 -81t134.5 -32t135 32t82 79l90 -47q-33 -90 -110.5 -148.5t-196.5 -58.5zM682 -39q-287 0 -465 154.5t-154 435.5l58 653q12 133 -88 160l12 70h506l12 -70q-106 -25 -119 -160l-57 -651q-18 -203 90.5 -330
t284.5 -127q188 0 296.5 126t90.5 331l-55 647q-6 66 -40 110t-83 54l12 70h324l12 -70q-47 -12 -71.5 -55t-20.5 -109l57 -649q23 -264 -148 -427t-454 -163z" />
    <glyph glyph-name="ubreve" unicode="&#x16d;" horiz-adv-x="1280" 
d="M639 1219q-117 0 -197 58t-110 148l92 50q20 -49 80.5 -81t134.5 -32t135.5 31.5t81.5 79.5l90 -48q-33 -90 -110.5 -148t-196.5 -58zM1133 229q0 -133 104 -159l-12 -72q-172 -6 -287 -37h-25l-34 191h-15q-123 -190 -352 -191q-172 0 -276.5 110.5t-104.5 329.5v336
q0 66 -28.5 107t-73.5 53l12 70q182 29 340 141h27v-725q0 -121 60 -186.5t161 -65.5q94 0 161.5 67.5t67.5 166.5v372q0 66 -28.5 108t-73.5 52l12 70q190 33 338 141h27v-879z" />
    <glyph glyph-name="Uring" unicode="&#x16e;" horiz-adv-x="1351" 
d="M676 1536q-92 0 -156.5 63.5t-64.5 153.5t64.5 153.5t156.5 63.5q90 0 153.5 -63.5t63.5 -153.5t-63.5 -153.5t-153.5 -63.5zM676 1649q43 0 72.5 29.5t29.5 74.5q0 43 -29.5 72.5t-72.5 29.5q-45 0 -74 -29.5t-29 -72.5q0 -45 29 -74.5t74 -29.5zM682 -39
q-287 0 -465 154.5t-154 435.5l58 653q12 133 -88 160l12 70h506l12 -70q-106 -25 -119 -160l-57 -651q-18 -203 90.5 -330t284.5 -127q188 0 296.5 126t90.5 331l-55 647q-6 66 -40 110t-83 54l12 70h324l12 -70q-47 -12 -71.5 -55t-20.5 -109l57 -649q23 -264 -148 -427
t-454 -163z" />
    <glyph glyph-name="uring" unicode="&#x16f;" horiz-adv-x="1280" 
d="M639 1171q-90 0 -154.5 63.5t-64.5 154t64.5 154t154.5 63.5t154.5 -63.5t64.5 -154t-64.5 -154t-154.5 -63.5zM639 1491q-43 0 -71.5 -29.5t-28.5 -72.5q0 -45 28.5 -75t71.5 -30t73.5 29.5t30.5 75.5q0 43 -30.5 72.5t-73.5 29.5zM1133 229q0 -133 104 -159l-12 -72
q-172 -6 -287 -37h-25l-34 191h-15q-123 -190 -352 -191q-172 0 -276.5 110.5t-104.5 329.5v336q0 66 -28.5 107t-73.5 53l12 70q182 29 340 141h27v-725q0 -121 60 -186.5t161 -65.5q94 0 161.5 67.5t67.5 166.5v372q0 66 -28.5 108t-73.5 52l12 70q190 33 338 141h27v-879
z" />
    <glyph glyph-name="Uhungarumlaut" unicode="&#x170;" horiz-adv-x="1351" 
d="M616 1511l-94 39l101 275q33 92 110 92q41 2 66.5 -25.5t25.5 -62.5q0 -39 -43 -98zM907 1511l-94 39l102 275q33 92 109 92q43 2 68.5 -25.5t25.5 -62.5t-45 -98zM682 -39q-287 0 -465 154.5t-154 435.5l58 653q12 133 -88 160l12 70h506l12 -70q-106 -25 -119 -160
l-57 -651q-18 -203 90.5 -330t284.5 -127q188 0 296.5 126t90.5 331l-55 647q-6 66 -40 110t-83 54l12 70h324l12 -70q-47 -12 -71.5 -55t-20.5 -109l57 -649q23 -264 -148 -427t-454 -163z" />
    <glyph glyph-name="uhungarumlaut" unicode="&#x171;" horiz-adv-x="1280" 
d="M727 1366l-166 -219l-94 39l100 274q33 92 111 92q43 2 67.5 -25.5t24.5 -62.5q0 -39 -43 -98zM854 1147l-94 39l100 274q33 92 111 92q41 2 66.5 -25.5t25.5 -62.5q0 -39 -43 -98zM1133 229q0 -133 104 -159l-12 -72q-172 -6 -287 -37h-25l-34 191h-15
q-123 -190 -352 -191q-172 0 -276.5 110.5t-104.5 329.5v336q0 66 -28.5 107t-73.5 53l12 70q182 29 340 141h27v-725q0 -121 60 -186.5t161 -65.5q94 0 161.5 67.5t67.5 166.5v372q0 66 -28.5 108t-73.5 52l12 70q190 33 338 141h27v-879z" />
    <glyph glyph-name="Uogonek" unicode="&#x172;" horiz-adv-x="1351" 
d="M1227 1200l57 -649q20 -240 -119 -396.5t-381 -187.5q-90 -76 -90 -174q0 -49 33 -82t80 -33q82 0 131 86l84 -45q-90 -164 -270 -163q-111 0 -178.5 59t-67.5 152q0 109 86 198q-252 25 -402.5 176.5t-126.5 409.5l58 653q12 133 -88 160l12 70h506l12 -70
q-106 -25 -119 -160l-57 -651q-18 -203 90.5 -330t284.5 -127q188 0 296.5 126t90.5 331l-55 647q-6 66 -40 110t-83 54l12 70h324l12 -70q-47 -12 -71.5 -55t-20.5 -109z" />
    <glyph glyph-name="uogonek" unicode="&#x173;" horiz-adv-x="1280" 
d="M1198 -236l84 -45q-94 -164 -270 -163q-111 0 -178.5 59t-67.5 152q0 145 139 241l-26 144h-15q-123 -190 -352 -191q-172 0 -276.5 110.5t-104.5 329.5v336q0 66 -28.5 107t-73.5 53l12 70q182 29 340 141h27v-725q0 -121 60 -186.5t161 -65.5q94 0 161.5 67.5
t67.5 166.5v372q0 66 -28.5 108t-73.5 52l12 70q190 33 338 141h27v-879q0 -133 104 -159l-12 -72q-76 -2 -160 -14q-111 -80 -111 -191q0 -49 33 -82t78 -33q84 0 133 86z" />
    <glyph glyph-name="Wcircumflex" unicode="&#x174;" horiz-adv-x="2072" 
d="M1036 1638l-282 -127l-49 74l331 281l330 -281l-47 -74zM2077 1434l14 -70q-47 -12 -88 -52t-59 -108l-334 -1112q33 -43 43 -51l-13 -39q-233 0 -337 -39h-29l-236 873h-14l-231 -738q10 -18 47 -59l-13 -39q-168 8 -338 -37h-16l-348 1241q-39 135 -143 160l16 70h520
l10 -70q-41 -12 -60 -53t-1 -107l250 -889h10l244 770l-19 72q0 4 -8 29.5t-9 30t-8 25t-10.5 26.5t-12.5 22.5t-17 25.5t-21.5 23.5t-27.5 26.5l20 70q205 -8 340 41h14l316 -1162h12l268 889q16 72 0 110t-55 50l8 70h316z" />
    <glyph glyph-name="wcircumflex" unicode="&#x175;" horiz-adv-x="1597" 
d="M786 1274l-284 -127l-47 74l331 280l330 -280l-47 -74zM1405 1108q80 0 124 -50t44 -128q0 -92 -88 -295l-271 -635h-225l-176 561h-8l-187 -561h-262l-206 729q-43 141 -160 162l12 70q188 27 313 147h25l229 -807h11l251 768h130l243 -768h10l162 393q18 45 19 68
q0 25 -22.5 47t-48.5 36.5t-48.5 48.5t-22.5 79q0 61 41 98t111 37z" />
    <glyph glyph-name="Ycircumflex" unicode="&#x176;" horiz-adv-x="1339" 
d="M385 1511l-47 74l332 281l329 -281l-47 -74l-282 127zM416 0l-10 70q45 12 73.5 53t28.5 106v445l-342 530q-86 139 -184 160l10 70h555l12 -70q-41 -12 -52 -51t28 -109l235 -356h14l234 356q39 70 29.5 109t-52.5 51l13 70h338l12 -70q-98 -20 -184 -160l-347 -532
v-443q0 -135 105 -159l-12 -70h-504z" />
    <glyph glyph-name="ycircumflex" unicode="&#x177;" horiz-adv-x="1081" 
d="M541 1274l-283 -127l-47 74l330 280l329 -280l-45 -74zM901 1108q78 0 124 -53.5t46 -130.5q0 -152 -117 -430q-145 -397 -336 -654q-106 -156 -196 -227.5t-199 -71.5q-78 0 -132 45t-54 115q0 66 42 105.5t105 39.5q35 0 63.5 -15t44 -32.5t32 -33t30.5 -15.5
q66 0 166 166q18 27 55 84h-61l-319 729q-61 137 -205 162l12 70q82 12 169 51t134 96h29l373 -842h14q61 127 104 269q68 166 66 231q-2 27 -24.5 49.5t-49 36.5t-49.5 46t-23 75q0 61 44 98t112 37z" />
    <glyph glyph-name="Ydieresis" unicode="&#x178;" horiz-adv-x="1339" 
d="M466.5 1587q-65.5 0 -105 41t-39.5 94q0 57 39.5 99.5t105 42.5t106.5 -42t41 -100q0 -53 -41 -94t-106.5 -41zM868.5 1587q-65.5 0 -105.5 41t-40 94q0 57 40 99.5t105.5 42.5t105.5 -42t40 -100q0 -53 -40 -94t-105.5 -41zM416 0l-10 70q45 12 73.5 53t28.5 106v445
l-342 530q-86 139 -184 160l10 70h555l12 -70q-41 -12 -52 -51t28 -109l235 -356h14l234 356q39 70 29.5 109t-52.5 51l13 70h338l12 -70q-98 -20 -184 -160l-347 -532v-443q0 -135 105 -159l-12 -70h-504z" />
    <glyph glyph-name="Zacute" unicode="&#x179;" horiz-adv-x="1341" 
d="M596 1522l-70 57l197 254q55 72 123 72q39 0 64.5 -26t25.5 -60q0 -68 -74 -115zM1147 -39q-72 39 -273 39h-806l-13 76l803 1227h-217q-94 0 -179 -30t-139.5 -72t-95.5 -85t-59 -72l-16 -30l-74 35l127 424h26q72 -39 271 -39h747l13 -76l-805 -1227h280q94 0 181.5 34
t142.5 82t98 95t62 80l18 35l74 -33l-142 -463h-24z" />
    <glyph glyph-name="zacute" unicode="&#x17a;" horiz-adv-x="1107" 
d="M516 1157l-72 57l197 254q57 72 123 72q39 0 65.5 -25.5t26.5 -60.5q0 -68 -76 -115zM926 -39q-72 39 -273 39h-600l-12 84l621 860v12h-162q-125 0 -205 -49t-135 -162l-64 27l70 297h852l12 -82l-616 -852v-12h188q82 0 155.5 28.5t120 70.5t82 84t52.5 71l14 29
l64 -31l-138 -414h-26z" />
    <glyph glyph-name="Zdotaccent" unicode="&#x17b;" horiz-adv-x="1341" 
d="M669.5 1614q-65.5 0 -105.5 41t-40 94q0 57 40 99t105.5 42t105.5 -42t40 -99q0 -53 -40 -94t-105.5 -41zM1147 -39q-72 39 -273 39h-806l-13 76l803 1227h-217q-94 0 -179 -30t-139.5 -72t-95.5 -85t-59 -72l-16 -30l-74 35l127 424h26q72 -39 271 -39h747l13 -76
l-805 -1227h280q94 0 181.5 34t142.5 82t98 95t62 80l18 35l74 -33l-142 -463h-24z" />
    <glyph glyph-name="zdotaccent" unicode="&#x17c;" horiz-adv-x="1107" 
d="M552.5 1249q-65.5 0 -105 41t-39.5 94q0 57 39.5 99.5t105 42.5t105.5 -42t40 -100q0 -53 -40 -94t-105.5 -41zM926 -39q-72 39 -273 39h-600l-12 84l621 860v12h-162q-125 0 -205 -49t-135 -162l-64 27l70 297h852l12 -82l-616 -852v-12h188q82 0 155.5 28.5t120 70.5
t82 84t52.5 71l14 29l64 -31l-138 -414h-26z" />
    <glyph glyph-name="Zcaron" unicode="&#x17d;" horiz-adv-x="1341" 
d="M670 1520l-330 280l45 74l285 -127l282 127l47 -74zM1147 -39q-72 39 -273 39h-806l-13 76l803 1227h-217q-94 0 -179 -30t-139.5 -72t-95.5 -85t-59 -72l-16 -30l-74 35l127 424h26q72 -39 271 -39h747l13 -76l-805 -1227h280q94 0 181.5 34t142.5 82t98 95t62 80l18 35
l74 -33l-142 -463h-24z" />
    <glyph glyph-name="zcaron" unicode="&#x17e;" horiz-adv-x="1107" 
d="M555 1155l-332 281l47 73l285 -127l281 127l49 -73zM926 -39q-72 39 -273 39h-600l-12 84l621 860v12h-162q-125 0 -205 -49t-135 -162l-64 27l70 297h852l12 -82l-616 -852v-12h188q82 0 155.5 28.5t120 70.5t82 84t52.5 71l14 29l64 -31l-138 -414h-26z" />
    <glyph glyph-name="longs" unicode="&#x17f;" horiz-adv-x="720" 
d="M524 1610q121 0 205 -65.5t84 -162.5q0 -55 -29.5 -91t-85.5 -36q-57 0 -86.5 34t-37 73t-30 72.5t-67.5 33.5q-39 0 -61.5 -27.5t-22.5 -74.5q0 -49 62.5 -175t62.5 -185v-779q0 -66 28.5 -107.5t76.5 -51.5l-13 -68h-458l-13 68q47 10 76 52t29 107v705h-201v137h197
q-4 27 -25.5 106.5t-21.5 131.5q0 127 89.5 215t241.5 88z" />
    <glyph glyph-name="florin" unicode="&#x192;" horiz-adv-x="950" 
d="M715 1473q115 0 185.5 -37t70.5 -103q0 -49 -30 -76.5t-77 -27.5q-45 0 -71.5 17.5t-35.5 37t-25.5 36.5t-41.5 17q-84 0 -102 -215l-21 -172h246v-147h-264l-64 -514q-25 -276 -118 -407.5t-304 -131.5q-123 0 -197.5 43t-74.5 107q0 45 27.5 72.5t79.5 27.5
q41 0 66.5 -18.5t33.5 -40t26.5 -40t45.5 -18.5q92 0 112 226l86 694h-219v147h238l14 115q41 408 414 408z" />
    <glyph glyph-name="Aringacute" unicode="&#x1fa;" horiz-adv-x="1398" 
d="M698 1536q-90 0 -154.5 63.5t-64.5 153.5q0 68 39 123t100 80l173 221q57 72 122 72q39 0 65 -25.5t26 -60.5q0 -66 -74 -117l-139 -96q57 -27 92 -80t35 -117q0 -90 -65 -153.5t-155 -63.5zM698 1649q43 0 74 29.5t31 74.5q0 43 -31 72.5t-74 29.5t-71.5 -29.5
t-28.5 -72.5q0 -45 28.5 -74.5t71.5 -29.5zM1253 227q53 -131 164 -157l-12 -70h-518l-13 70q90 29 39 157l-51 133h-530l-51 -133q-51 -131 41 -157l-13 -70h-315l-12 70q115 27 163 157l381 977q-41 57 -116 109l8 69q205 8 327 93h17zM387 506h418l-205 528h-8z" />
    <glyph glyph-name="aringacute" unicode="&#x1fb;" horiz-adv-x="1157" 
d="M582 1171q-90 0 -155 63.5t-65 154.5q0 66 37 120t95 78l157 207q59 70 123 70q39 0 65.5 -26t26.5 -60q0 -68 -75 -115l-115 -78q57 -29 91 -81t34 -115q0 -90 -64.5 -154t-154.5 -64zM582 1284q43 0 72.5 29.5t29.5 75.5q0 43 -29.5 72.5t-72.5 29.5t-73 -29.5
t-30 -72.5q0 -45 30 -75t73 -30zM1180 102l24 -61q-78 -80 -213 -80q-195 0 -241 178h-11q-51 -92 -144 -135t-194 -43q-152 0 -252 80t-100 215q0 80 37 144.5t91 105.5t143.5 74.5t167 52t186.5 39.5l-21 145q-8 74 -50 117t-101.5 43t-98 -35t-32.5 -88
q12 -66 -27 -106.5t-100.5 -40.5t-96 36.5t-34.5 102.5q2 102 108.5 182t300.5 80q170 0 290 -96.5t142 -286.5l56 -475q20 -164 108 -164q25 0 62 16zM520 123q82 0 142.5 69.5t56.5 155.5l-33 234q-352 -70 -352 -277q0 -84 52 -133t134 -49z" />
    <glyph glyph-name="uni0218" unicode="&#x218;" horiz-adv-x="1363" 
d="M791 899q98 -29 151 -45t135 -56t125 -83t76 -116t33 -163q0 -213 -169 -344t-425 -131q-90 0 -219 35t-189 35q-29 0 -56.5 -8.5t-39.5 -14.5l-14 -8h-27l-115 451l82 30q88 -180 236.5 -290.5t329.5 -110.5q129 0 216 66.5t87 170.5q0 43 -13.5 79t-46.5 63.5t-60.5 47
t-86 40t-89 31t-102.5 30.5q-80 25 -120.5 39.5t-110.5 42t-108 58t-78.5 75.5t-59 103.5t-18.5 132.5q0 188 150.5 301t369.5 113q111 0 231.5 -32t157.5 -32q25 0 47.5 6t32.5 12l10 7h31l106 -406l-80 -22q-74 160 -207 253t-296 93q-119 0 -189.5 -56.5t-70.5 -140.5
q0 -37 12 -67.5t45 -56t56.5 -41t84 -36t85 -28t100.5 -27.5zM741 -117q90 0 146.5 -64.5t56.5 -170.5q0 -145 -86 -286.5t-223 -221.5l-72 92q166 113 213 315l-4 4q-29 -14 -55 -14q-74 0 -125 49t-51 125t58 124t142 48z" />
    <glyph glyph-name="uni0219" unicode="&#x219;" horiz-adv-x="1112" 
d="M672 672q90 -27 147.5 -49.5t123 -62.5t97 -97t31.5 -133q0 -174 -130 -271.5t-333 -97.5q-78 0 -199.5 36t-160.5 36q-25 0 -48.5 -8.5t-33.5 -16.5l-10 -8h-23l-90 375l61 18q96 -152 227.5 -230.5t266.5 -78.5q84 0 139.5 38t55.5 109q0 78 -83 128.5t-229 93.5
q-387 106 -387 331q0 141 122 232.5t298 91.5q88 0 190.5 -35t135.5 -35q55 0 86 31h24l72 -328l-74 -24q-76 133 -182.5 203.5t-212.5 70.5q-80 0 -125 -35.5t-45 -89.5q0 -39 21.5 -68.5t67.5 -53t88 -38t112 -34.5zM588 -117q90 0 146.5 -64.5t56.5 -170.5
q0 -145 -86.5 -286.5t-223.5 -221.5l-71 92q166 113 213 315l-5 4q-29 -14 -53 -14q-74 0 -126 49t-52 125t58.5 124t142.5 48z" />
    <glyph glyph-name="uni021A" unicode="&#x21a;" horiz-adv-x="1435" 
d="M1296 1470l117 -401l-74 -35q-6 10 -16 27.5t-51 63.5t-90 81t-130 64.5t-173 32.5v-1074q0 -133 104 -159l-12 -70h-502l-12 70q45 12 73.5 53t28.5 106v1074q-92 -2 -173 -31t-131 -68t-88 -78t-54 -65l-17 -27l-73 35l118 401h25q68 -37 272 -36h559q203 0 275 36h24z
M717 -117q90 0 146.5 -64.5t56.5 -170.5q0 -145 -86 -286.5t-224 -221.5l-71 92q166 113 213 315l-4 4q-29 -14 -56 -14q-74 0 -125 49t-51 125t58.5 124t142.5 48z" />
    <glyph glyph-name="uni021B" unicode="&#x21b;" horiz-adv-x="806" 
d="M764 930h-277v-678q0 -152 121 -152q66 0 125 25l27 -115q-111 -49 -248 -49q-147 0 -224 69.5t-77 227.5v672h-182v94q270 86 372 348h86v-303h277v-139zM483 -117q90 0 146.5 -64.5t56.5 -170.5q0 -145 -86 -286.5t-223 -221.5l-72 92q166 113 213 315l-4 4
q-29 -14 -55 -14q-74 0 -125 49t-51 125t58 124t142 48z" />
    <glyph glyph-name="uni0237" unicode="&#x237;" horiz-adv-x="493" 
d="M55 -459q-133 0 -212 61.5t-79 153.5q0 51 35 87t92 36q63 0 92 -37t29 -82t18.5 -81.5t65.5 -36.5q41 0 64.5 43t23.5 102q0 51 -28.5 158.5t-28.5 181.5v612q0 131 -102 160l12 68q178 27 338 141h26l2 -1180q0 -180 -88 -283.5t-260 -103.5z" />
    <glyph glyph-name="uni02B0" unicode="&#x2b0;" horiz-adv-x="612" 
d="M532 961q2 -59 54 -76l-6 -33h-213l-9 33q47 14 39 76l-20 223q-4 45 -26.5 68.5t-53.5 23.5q-37 0 -63.5 -24.5t-26.5 -63.5v-227q0 -61 45 -76l-6 -33h-213l-6 33q45 14 45 76v419q0 59 -45 74l6 33q96 14 176 67l10 -4q-12 -51 -12 -153v-111h6q43 57 121 57
q164 0 182 -194z" />
    <glyph glyph-name="circumflex" unicode="&#x2c6;" horiz-adv-x="960" 
d="M197 1147l-47 74l331 280l330 -280l-47 -74l-283 127z" />
    <glyph glyph-name="caron" unicode="&#x2c7;" horiz-adv-x="960" 
d="M481 1155l-331 281l47 73l284 -127l283 127l47 -73z" />
    <glyph glyph-name="uni02C9" unicode="&#x2c9;" horiz-adv-x="937" 
d="M168 1268v141h602v-141h-602z" />
    <glyph glyph-name="breve" unicode="&#x2d8;" horiz-adv-x="927" 
d="M463 1219q-117 0 -196 58t-111 148l92 50q20 -49 80.5 -81t134.5 -32t135 31.5t82 79.5l90 -48q-33 -90 -110.5 -148t-196.5 -58z" />
    <glyph glyph-name="dotaccent" unicode="&#x2d9;" horiz-adv-x="792" 
d="M395 1249q-66 0 -105.5 41t-39.5 94q0 57 40 99.5t105 42.5q68 0 108 -42t40 -100q0 -53 -40 -94t-108 -41z" />
    <glyph glyph-name="ring" unicode="&#x2da;" horiz-adv-x="892" 
d="M446.5 1171q-90.5 0 -155 63.5t-64.5 154t64.5 154t155 63.5t155 -63.5t64.5 -154t-64.5 -154t-155 -63.5zM446 1284q43 0 73 29.5t30 75.5q0 43 -30 72.5t-73 29.5t-72.5 -29.5t-29.5 -72.5q0 -45 29.5 -75t72.5 -30z" />
    <glyph glyph-name="ogonek" unicode="&#x2db;" horiz-adv-x="921" 
d="M545 -444q-111 0 -178.5 59t-67.5 152q0 96 65.5 174.5t178.5 124.5l78 -66q-133 -86 -134 -207q0 -49 33 -82t80 -33q82 0 131 86l84 -45q-90 -163 -270 -163z" />
    <glyph glyph-name="tilde" unicode="&#x2dc;" horiz-adv-x="950" 
d="M602 1249q-61 0 -147 53.5t-125 53.5q-66 0 -82 -80l-92 24q12 113 66 165.5t126 52.5q61 0 148.5 -52.5t126.5 -52.5q66 0 84 78l88 -23q-14 -115 -67.5 -167t-125.5 -52z" />
    <glyph glyph-name="hungarumlaut" unicode="&#x2dd;" horiz-adv-x="872" 
d="M287 1147l-94 39l102 274q33 92 111 92q41 2 65.5 -25.5t24.5 -62.5q0 -39 -43 -98zM580 1147l-95 39l103 274q33 92 108 92q41 2 66.5 -25.5t25.5 -62.5q0 -39 -43 -98z" />
    <glyph glyph-name="uni0394" unicode="&#x394;" horiz-adv-x="1417" 
d="M41 0l551 1434h229l551 -1434h-1331zM223 125h748l-375 969z" />
    <glyph glyph-name="uni03A9" unicode="&#x3a9;" horiz-adv-x="1665" 
d="M184 -45l-129 438l74 33q18 -39 49 -74t110 -71.5t183 -36.5h102l2 12q-471 283 -471 647q0 258 196 414t531 156q338 0 533 -156t195 -414q0 -365 -469 -647l2 -12h102q104 0 183 36.5t110 71.5t49 74l74 -33l-129 -438h-25q-66 45 -211 45h-342v270q168 133 242 274.5
t74 342.5q0 221 -89.5 344t-298.5 123q-389 0 -385 -467q0 -201 74 -342.5t240 -274.5v-270h-340q-145 0 -211 -45h-25z" />
    <glyph glyph-name="uni03BC" unicode="&#x3bc;" horiz-adv-x="1290" 
d="M1241 137l29 -110q-35 -29 -98.5 -47.5t-116.5 -18.5q-207 0 -226 174h-6q-125 -172 -334 -172q-76 0 -124 17q10 -25 33.5 -72t34.5 -71.5t21.5 -58.5t10.5 -59q0 -82 -49 -125t-125 -43q-72 0 -122 49.5t-50 131.5v643v12v580h274v-598q-2 -119 54.5 -178.5
t158.5 -59.5q92 0 156.5 67.5t64.5 168.5v600h273l2 -754q0 -96 65 -96q37 0 74 20z" />
    <glyph glyph-name="pi" unicode="&#x3c0;" horiz-adv-x="1253" 
d="M1221 952q-33 -113 -78 -157q-55 -51 -144 -56l2 -538q0 -94 64 -95q33 0 70 19l26 -102q-33 -27 -93 -44.5t-110 -17.5q-104 0 -158.5 46t-54.5 157v549h-196v-385q0 -168 -71.5 -267.5t-213.5 -99.5q-92 0 -154.5 43t-62.5 119q0 45 37 80t84 35q39 0 64.5 -21.5
t36 -46.5t25.5 -46.5t38 -21.5q39 0 64.5 35t25.5 96v480h-53q-68 0 -103 -37t-35 -96h-98q0 70 17.5 133t56.5 122.5t115.5 94.5t181.5 35h717v-13z" />
    <glyph glyph-name="Wgrave" unicode="&#x1e80;" horiz-adv-x="2072" 
d="M827 1704q-76 47 -75 115q0 35 25.5 60.5t66.5 25.5q66 0 123 -72l196 -256l-71 -55zM2077 1434l14 -70q-47 -12 -88 -52t-59 -108l-334 -1112q33 -43 43 -51l-13 -39q-233 0 -337 -39h-29l-236 873h-14l-231 -738q10 -18 47 -59l-13 -39q-168 8 -338 -37h-16l-348 1241
q-39 135 -143 160l16 70h520l10 -70q-41 -12 -60 -53t-1 -107l250 -889h10l244 770l-19 72q0 4 -8 29.5t-9 30t-8 25t-10.5 26.5t-12.5 22.5t-17 25.5t-21.5 23.5t-27.5 26.5l20 70q205 -8 340 41h14l316 -1162h12l268 889q16 72 0 110t-55 50l8 70h316z" />
    <glyph glyph-name="wgrave" unicode="&#x1e81;" horiz-adv-x="1597" 
d="M631 1339q-76 47 -76 115q0 35 25.5 60.5t66.5 25.5q66 0 123 -72l197 -256l-72 -55zM1405 1108q80 0 124 -50t44 -128q0 -92 -88 -295l-271 -635h-225l-176 561h-8l-187 -561h-262l-206 729q-43 141 -160 162l12 70q188 27 313 147h25l229 -807h11l251 768h130l243 -768
h10l162 393q18 45 19 68q0 25 -22.5 47t-48.5 36.5t-48.5 48.5t-22.5 79q0 61 41 98t111 37z" />
    <glyph glyph-name="Wacute" unicode="&#x1e82;" horiz-adv-x="2072" 
d="M1280 1704l-264 -182l-70 57l195 254q57 72 125 72q39 0 64.5 -26t25.5 -60q0 -68 -76 -115zM2077 1434l14 -70q-47 -12 -88 -52t-59 -108l-334 -1112q33 -43 43 -51l-13 -39q-233 0 -337 -39h-29l-236 873h-14l-231 -738q10 -18 47 -59l-13 -39q-168 8 -338 -37h-16
l-348 1241q-39 135 -143 160l16 70h520l10 -70q-41 -12 -60 -53t-1 -107l250 -889h10l244 770l-19 72q0 4 -8 29.5t-9 30t-8 25t-10.5 26.5t-12.5 22.5t-17 25.5t-21.5 23.5t-27.5 26.5l18 70q207 -8 342 41h14l316 -1162h12l268 889q16 72 0 110t-55 50l10 70h314z" />
    <glyph glyph-name="wacute" unicode="&#x1e83;" horiz-adv-x="1597" 
d="M1102 1339l-266 -182l-70 57l197 256q57 72 122 72q39 0 65 -25.5t26 -62.5q0 -68 -74 -115zM1405 1108q80 0 124 -50t44 -128q0 -92 -88 -295l-271 -635h-225l-176 561h-8l-187 -561h-262l-206 729q-43 141 -160 162l12 70q188 27 313 147h25l229 -807h11l251 768h130
l243 -768h10l162 393q18 45 19 68q0 25 -22.5 47t-48.5 36.5t-48.5 48.5t-22.5 79q0 61 41 98t111 37z" />
    <glyph glyph-name="Wdieresis" unicode="&#x1e84;" horiz-adv-x="2072" 
d="M835.5 1587q-65.5 0 -105.5 41t-40 94q0 57 40 99.5t105.5 42.5t106.5 -42t41 -100q0 -53 -41 -94t-106.5 -41zM1234.5 1587q-65.5 0 -105 41t-39.5 94q0 57 39.5 99.5t105 42.5t106.5 -42t41 -100q0 -53 -41 -94t-106.5 -41zM2077 1434l14 -70q-47 -12 -88 -52t-59 -108
l-334 -1112q33 -43 43 -51l-13 -39q-233 0 -337 -39h-29l-236 873h-14l-231 -738q10 -18 47 -59l-13 -39q-168 8 -338 -37h-16l-348 1241q-39 135 -143 160l16 70h520l10 -70q-41 -12 -60 -53t-1 -107l250 -889h10l244 770l-19 72q-2 8 -9 34t-9 33t-9 27.5t-13.5 29.5
t-17.5 25.5t-24.5 31t-29.5 28.5l18 70q205 -8 340 41h14l316 -1162h12l268 889q18 72 1 110t-58 50l10 70h316z" />
    <glyph glyph-name="wdieresis" unicode="&#x1e85;" horiz-adv-x="1597" 
d="M600.5 1223q-65.5 0 -105.5 41t-40 94q0 57 40 99t105.5 42t105 -42t39.5 -99q0 -53 -39.5 -94t-105 -41zM999.5 1223q-65.5 0 -105.5 41t-40 94q0 57 40 99t105.5 42t106.5 -42t41 -99q0 -53 -41 -94t-106.5 -41zM1405 1108q80 0 124 -50t44 -128q0 -92 -88 -295
l-271 -635h-225l-176 561h-8l-187 -561h-262l-206 729q-43 141 -160 162l12 70q188 27 313 147h25l229 -807h11l251 768h130l243 -768h10l162 393q18 45 19 68q0 25 -22.5 47t-48.5 36.5t-48.5 48.5t-22.5 79q0 61 41 98t111 37z" />
    <glyph glyph-name="endash" unicode="&#x2013;" horiz-adv-x="741" 
d="M29 446v209h684v-209h-684z" />
    <glyph glyph-name="emdash" unicode="&#x2014;" horiz-adv-x="915" 
d="M29 446v209h858v-209h-858z" />
    <glyph glyph-name="quoteleft" unicode="&#x2018;" horiz-adv-x="524" 
d="M281 1092q74 0 125 -49.5t51 -127.5q0 -76 -58.5 -123t-140.5 -47q-92 0 -148.5 63.5t-56.5 172.5q0 145 86 286.5t223 221.5l72 -94q-162 -113 -213 -314l6 -6q27 17 54 17z" />
    <glyph glyph-name="quoteright" unicode="&#x2019;" horiz-adv-x="526" 
d="M268 1473q90 0 146.5 -65t56.5 -171q0 -145 -86 -286.5t-223 -221.5l-72 92q164 111 215 314l-6 6q-29 -14 -53 -15q-74 0 -125 49.5t-51 125t58 124t140 48.5z" />
    <glyph glyph-name="quotesinglbase" unicode="&#x201a;" horiz-adv-x="526" 
d="M268 307q90 0 146.5 -64.5t56.5 -170.5q0 -145 -86 -286.5t-223 -221.5l-72 92q166 115 215 315l-6 6q-27 -16 -53 -16q-74 0 -125 49t-51 127q0 76 58 123t140 47z" />
    <glyph glyph-name="quotedblleft" unicode="&#x201c;" horiz-adv-x="999" 
d="M281 1092q74 0 125 -49.5t51 -127.5q0 -76 -58.5 -123t-140.5 -47q-92 0 -148.5 63.5t-56.5 172.5q0 145 86 286.5t223 221.5l72 -94q-162 -113 -213 -314l6 -6q27 17 54 17zM754 1092q74 0 125 -49.5t51 -127.5q0 -76 -58.5 -123t-140.5 -47q-92 0 -147.5 63.5
t-55.5 172.5q0 145 86 286.5t224 221.5l71 -94q-164 -111 -215 -314l6 -6q27 17 54 17z" />
    <glyph glyph-name="quotedblright" unicode="&#x201d;" horiz-adv-x="999" 
d="M268 1473q90 0 146.5 -65t56.5 -171q0 -145 -86 -286.5t-223 -221.5l-72 92q164 111 215 314l-6 6q-29 -14 -53 -15q-74 0 -125 49.5t-51 125t58 124t140 48.5zM741 1473q92 0 148.5 -65t56.5 -171q0 -145 -86 -286.5t-223 -221.5l-72 92q162 113 213 314l-6 6
q-29 -14 -53 -15q-74 0 -125 49.5t-51 125t58 124t140 48.5z" />
    <glyph glyph-name="quotedblbase" unicode="&#x201e;" horiz-adv-x="999" 
d="M268 307q90 0 146.5 -64.5t56.5 -170.5q0 -145 -86 -286.5t-223 -221.5l-72 92q166 115 215 315l-6 6q-27 -16 -53 -16q-74 0 -125 49t-51 127q0 76 58 123t140 47zM741 307q92 0 148.5 -64.5t56.5 -170.5q0 -145 -86 -286.5t-223 -221.5l-72 92q164 117 213 315l-6 6
q-27 -16 -53 -16q-74 0 -125 49t-51 127q0 76 58 123t140 47z" />
    <glyph glyph-name="dagger" unicode="&#x2020;" horiz-adv-x="880" 
d="M412 0q-2 649 -78 913q41 61 67 148l-4 6q-70 -12 -147.5 -36.5t-110.5 -24.5q-47 0 -74.5 25.5t-27.5 64.5q0 41 27.5 65.5t72.5 24.5q37 0 117 -22.5t145 -35.5l4 5q-10 66 -35.5 135t-25.5 104q0 47 28.5 74t69.5 27q43 0 71 -27t28 -74q0 -35 -26 -104.5t-36 -134.5
l4 -5q68 12 147 35t113 23q47 0 75 -24.5t28 -65.5q0 -39 -28 -64.5t-75 -25.5q-33 0 -110.5 24.5t-147.5 36.5l-4 -6q12 -39 29.5 -76t28.5 -55l10 -17q-72 -254 -78 -913h-57z" />
    <glyph glyph-name="daggerdbl" unicode="&#x2021;" horiz-adv-x="880" 
d="M440 -39q-43 0 -70.5 25.5t-27.5 74.5q0 31 24.5 101.5t36.5 140.5l-4 4q-72 -12 -149.5 -36.5t-110.5 -24.5q-47 0 -74.5 25.5t-27.5 64.5q0 41 27.5 66.5t74.5 25.5q35 0 112 -24.5t146 -34.5l4 4q0 41 -19.5 127t-37.5 151l-20 66q78 248 77 342l-4 6
q-70 -10 -146.5 -34.5t-111.5 -24.5q-47 0 -74.5 24.5t-27.5 65.5q0 39 27.5 64.5t74.5 25.5q35 0 113 -23.5t147 -34.5l4 5q-12 66 -36.5 136t-24.5 103q0 47 28.5 74t69.5 27q43 0 71 -27t28 -74q0 -33 -25 -103.5t-37 -135.5l4 -5q70 10 148 34t112 24q47 0 75 -25.5
t28 -64.5q0 -41 -28 -65.5t-75 -24.5q-35 0 -111.5 24.5t-146.5 34.5l-4 -6q0 -41 19.5 -126t38.5 -151l20 -65q-78 -250 -78 -344l4 -4q70 10 147 34.5t111 24.5q47 0 75 -25.5t28 -66.5q0 -39 -28 -64.5t-73 -25.5q-35 0 -112.5 24.5t-149.5 36.5l-4 -4q12 -68 38 -139.5
t26 -102.5q0 -49 -29 -74.5t-72 -25.5z" />
    <glyph glyph-name="bullet" unicode="&#x2022;" horiz-adv-x="630" 
d="M315.5 346q-114.5 0 -196.5 81t-82 193.5t82 193.5t196.5 81t196.5 -81t82 -193.5t-82 -193.5t-196.5 -81z" />
    <glyph glyph-name="ellipsis" unicode="&#x2026;" horiz-adv-x="1671" 
d="M278.5 -39q-79.5 0 -134 52.5t-56.5 136.5q0 82 55.5 134t135.5 52q78 0 133 -52.5t57 -133.5q0 -84 -55.5 -136.5t-135 -52.5zM835.5 -39q-79.5 0 -134 52.5t-56.5 136.5q0 82 55.5 134t135.5 52q78 0 133 -52.5t57 -133.5q0 -84 -55.5 -136.5t-135 -52.5zM1393 -39
q-80 0 -134.5 52.5t-56.5 136.5q0 82 55.5 134t135.5 52q78 0 133 -52.5t57 -133.5q0 -84 -55 -136.5t-135 -52.5z" />
    <glyph glyph-name="perthousand" unicode="&#x2030;" horiz-adv-x="2607" 
d="M430 690q-174 0 -284.5 110.5t-112.5 280.5q0 174 108.5 283t284.5 109q172 0 280.5 -111t108.5 -283q0 -170 -106.5 -279.5t-278.5 -109.5zM483 0l643 1434h131l-641 -1434h-133zM428 807q76 0 121 74.5t45 195.5q0 125 -47 199t-121 74q-78 0 -124 -72t-46 -199
q0 -121 48 -196.5t124 -75.5zM1319 -39q-174 0 -284.5 111.5t-110.5 279.5q0 174 107.5 281.5t283.5 107.5q172 0 281.5 -110.5t109.5 -280.5t-107.5 -279.5t-279.5 -109.5zM2185 -39q-174 0 -284.5 111.5t-110.5 279.5q0 174 107.5 281.5t283.5 107.5q172 0 281.5 -110.5
t109.5 -280.5t-107.5 -279.5t-279.5 -109.5zM1317 78q76 0 121 74.5t45 195.5q0 125 -47 200t-121 75q-78 0 -124 -74t-46 -199q0 -121 48 -196.5t124 -75.5zM2183 78q76 0 121 74.5t45 195.5q0 125 -47 200t-121 75q-78 0 -123 -74t-45 -199q0 -121 47 -196.5t123 -75.5z
" />
    <glyph glyph-name="guilsinglleft" unicode="&#x2039;" horiz-adv-x="598" 
d="M473 -8l-420 446v109l420 446l72 -47l-219 -454l219 -455z" />
    <glyph glyph-name="guilsinglright" unicode="&#x203a;" horiz-adv-x="598" 
d="M125 -8l-72 45l219 455l-219 454l72 47l420 -446v-109z" />
    <glyph glyph-name="fraction" unicode="&#x2044;" horiz-adv-x="323" 
d="M-440 0l1087 1434h117l-1088 -1434h-116z" />
    <glyph glyph-name="uni2070" unicode="&#x2070;" horiz-adv-x="512" 
d="M256 862q-111 0 -172 78t-61 213q0 137 61 216t172 79t172 -79t61 -216q0 -135 -61 -213t-172 -78zM256 918q92 0 92 235q0 238 -92 238q-90 0 -90 -238q0 -235 90 -235z" />
    <glyph glyph-name="uni2074" unicode="&#x2074;" horiz-adv-x="512" 
d="M475 1010h-76v-39q0 -51 58 -66l-6 -28h-246l-6 28q59 14 59 66v39h-233v41l274 383h100v-371h88zM98 1063h160v221h-4l-156 -217v-4z" />
    <glyph glyph-name="uni2075" unicode="&#x2075;" horiz-adv-x="475" 
d="M227 1241q98 0 153.5 -48t55.5 -128q0 -86 -60.5 -144.5t-166.5 -58.5q-66 0 -119 25.5t-53 70.5q0 25 15.5 40.5t37.5 15.5q29 0 44.5 -14.5t18.5 -33t21.5 -32.5t52.5 -14q51 0 80 28.5t29 77.5t-37 81t-102 32q-59 0 -115 -31l-33 8l49 318h207q78 0 96 16h11
l-17 -119h-260l-16 -110q40 20 108 20z" />
    <glyph glyph-name="uni2076" unicode="&#x2076;" horiz-adv-x="497" 
d="M295 1243q84 0 129 -52t45 -132q0 -84 -62.5 -139.5t-161 -55.5t-157.5 68.5t-59 183.5q0 164 101 248t261 84v-39q-76 0 -134 -52t-79 -157h4q39 43 113 43zM246 913q82 0 82 144q0 119 -80 119q-51 0 -78 -50q-2 -12 -2 -36q0 -177 78 -177z" />
    <glyph glyph-name="uni2077" unicode="&#x2077;" horiz-adv-x="471" 
d="M211 1434h225v-68q-92 -115 -135 -208t-43 -218q0 -39 -21.5 -58.5t-50.5 -19.5q-33 0 -52 21.5t-19 56.5q0 104 68.5 206.5t162.5 180.5v4h-92q-125 -2 -188 -74l-31 13l55 180h8q29 -16 113 -16z" />
    <glyph glyph-name="uni2078" unicode="&#x2078;" horiz-adv-x="497" 
d="M240 866q-94 0 -152.5 44t-58.5 106q0 96 102 147v4q-78 51 -78 136q0 59 57.5 104t149.5 45q88 0 136 -39t48 -92q0 -88 -88 -131v-4q37 -20 57.5 -35.5t38 -46.5t17.5 -72q0 -74 -63.5 -120t-165.5 -46zM287 1221q72 41 71 100q0 78 -84 78q-82 0 -81 -68
q0 -65 94 -110zM233 918q47 0 73 22.5t26 58.5q0 33 -22.5 59.5t-45 39t-69.5 35.5q-72 -43 -72 -117q0 -43 30.5 -70.5t79.5 -27.5z" />
    <glyph glyph-name="uni2079" unicode="&#x2079;" horiz-adv-x="497" 
d="M250 1450q98 0 158.5 -69.5t60.5 -182.5q0 -166 -101.5 -249t-261.5 -83l-2 37q76 0 134.5 52.5t78.5 156.5h-2q-41 -41 -112 -41q-86 0 -130 53.5t-44 130.5q0 82 62.5 138.5t158.5 56.5zM250 1137q49 0 78 49v37q0 92 -17.5 134t-60.5 42q-80 0 -80 -144
q0 -118 80 -118z" />
    <glyph glyph-name="uni207F" unicode="&#x207f;" horiz-adv-x="608" 
d="M528 961q6 -61 54 -76l-7 -33h-213l-8 33q43 14 41 76l-20 196q-10 104 -84 105q-37 0 -60.5 -29t-23.5 -70v-202q0 -61 47 -76l-8 -33h-213l-6 33q45 14 45 76v206q0 61 -45 76l6 33q76 10 153 67h13l4 -71h4q51 72 131 71q156 0 174 -194z" />
    <glyph glyph-name="uni2080" unicode="&#x2080;" horiz-adv-x="512" 
d="M256 -16q-111 0 -172 78.5t-61 213.5q0 137 61 216t172 79t172 -78.5t61 -216.5q0 -135 -61 -213.5t-172 -78.5zM256 41q92 0 92 235q0 238 -92 238q-90 0 -90 -238q0 -235 90 -235z" />
    <glyph glyph-name="uni2081" unicode="&#x2081;" horiz-adv-x="401" 
d="M80 0l-6 29q59 14 59 65v350h-57l-4 33l159 78h41v-461q0 -49 58 -65l-4 -29h-246z" />
    <glyph glyph-name="uni2082" unicode="&#x2082;" horiz-adv-x="485" 
d="M420 172l31 -14l-54 -174h-10q-33 16 -111 16h-235v72q76 55 120 95t84 104.5t40 134.5q0 51 -26 80.5t-69 29.5q-45 0 -78.5 -36t-35.5 -99l-41 6q2 84 56 134t136 50q86 0 141.5 -45t55.5 -120q0 -98 -69.5 -168t-188.5 -134v-2h67q126 0 187 70z" />
    <glyph glyph-name="uni2083" unicode="&#x2083;" horiz-adv-x="483" 
d="M211 -14q-68 0 -122 26.5t-54 73.5q0 55 53 55q27 0 42 -16t20.5 -34.5t20.5 -35t40 -16.5q47 0 73.5 31.5t26.5 89t-31.5 93.5t-89.5 36h-20v47h20q41 0 65 27.5t24 68.5q0 37 -24 60.5t-64.5 23.5t-68.5 -28.5t-30 -79.5l-37 4q6 74 55.5 116.5t129 42.5t126 -36.5
t46.5 -90.5q0 -86 -93 -116v-6q55 -10 92.5 -50.5t37.5 -95.5q0 -82 -62.5 -136t-175.5 -54z" />
    <glyph glyph-name="uni2084" unicode="&#x2084;" horiz-adv-x="512" 
d="M475 133h-76v-39q0 -51 58 -65l-4 -29h-248l-4 29q57 14 57 65v39h-233v41l274 381h100v-369h88zM98 186h160v217h-4l-156 -213v-4z" />
    <glyph glyph-name="uni2085" unicode="&#x2085;" horiz-adv-x="475" 
d="M227 362q98 0 153.5 -48t55.5 -128q0 -86 -60.5 -144t-166.5 -58q-66 0 -119 25.5t-53 72.5q0 23 15.5 38t37.5 15q29 0 44.5 -14.5t18.5 -32.5t21.5 -32.5t52.5 -14.5q51 0 80 28.5t29 78t-37 81t-102 31.5q-59 0 -115 -31l-33 9l49 317h207q78 0 96 16h11l-17 -118
h-260l-16 -111q40 20 108 20z" />
    <glyph glyph-name="uni2086" unicode="&#x2086;" horiz-adv-x="497" 
d="M295 369q84 0 129 -52.5t45 -132.5q0 -86 -62.5 -140t-161 -54t-157.5 68.5t-59 183.5q0 164 101 247.5t261 83.5v-38q-76 0 -134 -52.5t-79 -156.5h4q39 43 113 43zM246 39q82 0 82 143q0 119 -80 119q-51 0 -78 -49q-2 -12 -2 -37q0 -176 78 -176z" />
    <glyph glyph-name="uni2087" unicode="&#x2087;" horiz-adv-x="471" 
d="M211 555h225v-70q-92 -115 -135 -207t-43 -219q0 -39 -21.5 -57t-50.5 -18q-33 0 -52 21.5t-19 53.5q0 104 68.5 208t162.5 182v4h-92q-123 -2 -188 -76l-31 14l55 180h8q25 -16 113 -16z" />
    <glyph glyph-name="uni2088" unicode="&#x2088;" horiz-adv-x="497" 
d="M240 -10q-94 0 -152.5 43t-58.5 104q0 96 102 148v4q-78 51 -78 135q0 59 57.5 104t149.5 45q88 0 136 -38.5t48 -92.5q0 -86 -88 -131v-4q113 -57 113 -153q0 -74 -62.5 -119t-166.5 -45zM287 344q72 37 71 100q0 78 -84 78q-82 0 -81 -69q0 -68 94 -109zM233 39
q45 0 72 23.5t27 58.5q0 33 -22.5 59.5t-45 38.5t-69.5 35q-72 -43 -72 -115q0 -43 30.5 -71.5t79.5 -28.5z" />
    <glyph glyph-name="uni2089" unicode="&#x2089;" horiz-adv-x="497" 
d="M250 571q98 0 158.5 -69.5t60.5 -184.5q0 -162 -101.5 -245.5t-261.5 -83.5l-2 37q76 0 134.5 52t78.5 156h-2q-43 -43 -112 -43q-86 0 -130 53.5t-44 131.5q0 86 61.5 141t159.5 55zM250 258q49 0 76 49q2 12 2 37q0 92 -17.5 134t-60.5 42q-80 0 -80 -141
q0 -121 80 -121z" />
    <glyph glyph-name="Euro" unicode="&#x20ac;" horiz-adv-x="1458" 
d="M1004 113q215 0 348 188l63 -49q-156 -291 -481 -291q-264 0 -432 140.5t-217 390.5h-242v143h223q-2 23 -2 70q0 37 4 102h-225v137h250q61 242 234 385.5t407 143.5q57 0 145 -16.5t135 -16.5q61 0 117 35h25l67 -385l-71 -19q-61 131 -143.5 201.5t-217.5 70.5
q-139 0 -246.5 -106.5t-150.5 -292.5h500v-137h-521q-2 -25 -2 -78q0 -33 4 -94h519v-143h-498q41 -186 148.5 -282.5t259.5 -96.5z" />
    <glyph glyph-name="uni2113" unicode="&#x2113;" horiz-adv-x="901" 
d="M424 -39q-135 0 -199.5 117t-40.5 291l15 110l-156 -104l-25 51l193 145l29 189q51 375 150 547t276 172q100 0 157.5 -85t38.5 -223q-6 -45 -20.5 -89t-41 -87t-48 -75.5t-63.5 -74.5l-63.5 -63.5t-72.5 -61.5t-65.5 -51.5t-66.5 -49t-54 -39.5l-27 -187
q-45 -319 145 -319q49 0 104.5 31.5t89.5 63.5t83 85l39 -41q-184 -252 -377 -252zM379 674q328 256 362 518q12 94 -17.5 153.5t-94.5 59.5q-80 0 -130 -115.5t-85 -365.5z" />
    <glyph glyph-name="trademark" unicode="&#x2122;" horiz-adv-x="983" 
d="M59 1434h359l35 -119l-25 -12q-4 8 -14.5 21t-45 36.5t-73.5 25.5v-303q0 -43 33 -53l-6 -22h-168l-7 22q33 10 33 53v303q-41 -2 -74.5 -22.5t-48.5 -40.5l-12 -20l-25 12zM918 1083q0 -43 30 -53l-4 -22h-166l-6 22q33 10 33 53l-2 191h-4l-97 -266h-43l-96 266h-4
v-191q0 -43 31 -53l-6 -22h-101l-6 22q33 10 33 53v273q-4 47 -33 53l4 25h142l90 -250h4l90 250h139l2 -25q-31 -6 -30 -53v-273z" />
    <glyph glyph-name="Omega" unicode="&#x2126;" horiz-adv-x="1644" 
d="M172 -45l-129 438l74 33q94 -182 342 -182h104v12q-469 283 -469 647q0 258 195.5 414t531.5 156t531.5 -156t195.5 -414q0 -367 -471 -647l2 -12h105q252 0 340 182l75 -33l-129 -438h-26q-66 45 -211 45h-340v270q168 133 241.5 275.5t73.5 341.5q0 467 -387 467
q-209 0 -298 -123t-89 -344q0 -199 74 -341.5t240 -275.5l2 -270h-342q-143 0 -209 -45h-27z" />
    <glyph glyph-name="estimated" unicode="&#x212e;" horiz-adv-x="1646" 
d="M825 -39q-317 0 -541.5 221t-224.5 534.5t223.5 535t541 221.5t540.5 -221.5t223 -534.5v-19h-1188v-501q205 -156 428 -156q301 0 469 213h101q-214 -293 -572 -293zM403 770h834v471q-170 154 -410 154q-250 0 -424 -164v-461z" />
    <glyph glyph-name="partialdiff" unicode="&#x2202;" horiz-adv-x="1255" 
d="M680 1473q129 0 238.5 -58.5t186.5 -171.5t100.5 -277.5t-19.5 -377.5q-59 -287 -243.5 -457t-436.5 -170t-378 156.5t-79 380.5q47 213 216 335.5t384 122.5q137 0 236 -65q33 434 -97 434q-43 0 -98 -67.5t-110 -67.5q-57 0 -93 32.5t-36 82.5q0 74 58 121t171 47z
M530 76q115 0 184.5 110.5t114.5 329.5q29 137 43 256q-74 74 -184 74q-225 0 -299 -352q-18 -106 -20 -198.5t38.5 -156t122.5 -63.5z" />
    <glyph glyph-name="Delta" unicode="&#x2206;" horiz-adv-x="1404" 
d="M37 0l551 1434h229l551 -1434h-1331zM219 125h748l-375 969z" />
    <glyph glyph-name="product" unicode="&#x220f;" horiz-adv-x="1544" 
d="M61 0l-12 68q133 39 133 161v975q0 127 -135 160l12 70h1426l12 -70q-135 -33 -135 -160v-975q0 -125 135 -161l-12 -68h-565l-13 68q135 37 135 161v1059h-540v-1059q0 -123 135 -161l-12 -68h-564z" />
    <glyph glyph-name="summation" unicode="&#x2211;" horiz-adv-x="1302" 
d="M37 0v88l444 592l-424 666v88h1061l101 -328l-72 -35q-96 125 -215 181.5t-299 56.5h-170l305 -484l-418 -575h367q223 0 323.5 30.5t182.5 131.5l67 -45l-162 -367h-1091z" />
    <glyph glyph-name="minus" unicode="&#x2212;" horiz-adv-x="722" 
d="M29 446v209h665v-209h-665z" />
    <glyph glyph-name="uni2215" unicode="&#x2215;" horiz-adv-x="561" 
d="M-20 543v192h636v-192h-636z" />
    <glyph glyph-name="uni2219" unicode="&#x2219;" horiz-adv-x="466" 
d="M233.5 584q-79.5 0 -134 52t-54.5 136q0 82 54.5 134t134 52t135 -52t55.5 -134q0 -84 -55.5 -136t-135 -52z" />
    <glyph glyph-name="radical" unicode="&#x221a;" horiz-adv-x="1153" 
d="M436 0l-188 451h-221v122h305l170 -411l526 1272h133l-592 -1434h-133z" />
    <glyph glyph-name="infinity" unicode="&#x221e;" horiz-adv-x="1740" 
d="M428 311q-166 0 -284.5 119t-118.5 289q0 168 118.5 287.5t284.5 119.5q147 0 246.5 -76.5t193.5 -215.5h6q94 139 192.5 215.5t244.5 76.5q166 0 284.5 -119.5t118.5 -287.5q0 -170 -118.5 -289t-282.5 -119q-150 0 -249 76t-196 215h-6q-90 -137 -189.5 -214
t-244.5 -77zM1313 457q117 0 197.5 82t80.5 198q0 119 -82 203t-198 84q-119 0 -200 -72.5t-167 -210.5q59 -92 101 -144t114 -96t154 -44zM428 414q119 0 199 70.5t170 207.5q-59 92 -101.5 145.5t-114 98.5t-153.5 45q-119 0 -200 -82t-81 -201q0 -117 82 -200.5
t199 -83.5z" />
    <glyph glyph-name="integral" unicode="&#x222b;" horiz-adv-x="692" 
d="M31 -408q-98 0 -159.5 42t-61.5 120q0 51 38.5 88t90.5 37q41 0 70.5 -23.5t43 -50t31.5 -50t41 -23.5q37 0 60.5 34.5t23.5 94.5v1519q0 213 128 337t322 124q94 0 154.5 -40t60.5 -107q0 -57 -36.5 -95t-94.5 -38q-43 0 -71.5 21.5t-39.5 48t-29.5 48t-41.5 21.5
q-78 0 -78 -129v-1505q0 -227 -128.5 -350.5t-323.5 -123.5z" />
    <glyph glyph-name="approxequal" unicode="&#x2248;" horiz-adv-x="974" 
d="M725 743q-119 0 -280.5 74t-221.5 74q-84 0 -123 -86l-71 37q27 78 89 125t146 47q119 0 283 -73t223 -73q61 0 109 60l67 -47q-33 -59 -92 -98.5t-129 -39.5zM725 444q-119 0 -280.5 74t-221.5 74q-86 0 -123 -86l-71 39q27 78 89 124t146 46q119 0 283 -73t223 -73
t109 62l67 -49q-33 -59 -92 -98.5t-129 -39.5z" />
    <glyph glyph-name="notequal" unicode="&#x2260;" horiz-adv-x="1173" 
d="M365 162l84 295h-420v123h454l80 282h-534v123h569l82 293h127l-84 -293h424v-123h-457l-82 -282h539v-123h-572l-83 -295h-127z" />
    <glyph glyph-name="lessequal" unicode="&#x2264;" horiz-adv-x="1175" 
d="M1104 203l-1032 428v133l1032 426v-133l-860 -357v-8l860 -356v-133zM29 0v117h1118v-117h-1118z" />
    <glyph glyph-name="greaterequal" unicode="&#x2265;" horiz-adv-x="1175" 
d="M70 203v133l862 356v8l-860 357v133l1032 -426v-133zM29 0v117h1118v-117h-1118z" />
    <glyph glyph-name="lozenge" unicode="&#x25ca;" horiz-adv-x="1112" 
d="M489 0l-426 717l426 717h134l428 -717l-428 -717h-134zM551 119h8l359 598l-359 600h-8l-354 -600z" />
    <glyph glyph-name="uniF6E0" unicode="&#xf6e0;" horiz-adv-x="489" 
d="M236 811v76q-78 8 -126.5 64.5t-48.5 133.5q0 82 49.5 135.5t125.5 63.5v80h63v-78q61 -8 102 -42t41 -75q0 -23 -16 -39t-37 -16q-31 0 -47 19.5t-20.5 43t-21.5 43t-48 19.5q-37 0 -66.5 -36t-29.5 -83q0 -78 40 -120t105 -42q84 0 121 76l20 -10q-8 -49 -46 -87
t-97 -48v-78h-63z" />
    <glyph glyph-name="uniF6E4" unicode="&#xf6e4;" horiz-adv-x="544" 
d="M244 696v117q-100 6 -153.5 42t-53.5 81q0 23 15.5 37t39.5 14q27 0 42.5 -19.5t22.5 -43t35.5 -43t77.5 -19.5q45 0 76 23.5t31 58.5q0 39 -35 63.5t-104 45.5q-86 27 -134.5 66.5t-48.5 115.5q0 68 52.5 109.5t136.5 50.5v102h57v-100q76 -4 126 -34t50 -75
q0 -47 -47 -47q-23 0 -36 16.5t-20 37t-31 37t-64.5 16.5t-68.5 -22.5t-28 -55.5q0 -35 33 -56.5t100 -37.5q92 -27 142.5 -65t50.5 -116q0 -76 -58.5 -124t-148.5 -58v-117h-57z" />
    <glyph glyph-name="uniF6E6" unicode="&#xf6e6;" horiz-adv-x="532" 
d="M20 1110v115h492v-115h-492z" />
    <glyph glyph-name="uniF6E9" unicode="&#xf6e9;" horiz-adv-x="589" 
d="M547 901l10 -31q-37 -37 -100 -36q-90 0 -113 77h-4q-41 -78 -147 -77q-66 0 -110 35.5t-44 95.5q0 45 21.5 76.5t66.5 52t83 31t99 22.5l-10 67q-2 31 -19.5 48.5t-40 17.5t-38 -14.5t-13.5 -36.5q6 -31 -12 -49.5t-49 -18.5q-29 0 -46.5 19.5t-14.5 48.5q2 45 49 79.5
t135 34.5q80 0 133 -44t63 -132q0 -4 23 -200q8 -72 51 -72q17 0 27 6zM252 913q33 0 56.5 27t21.5 64q-10 78 -15 100q-141 -31 -141 -115q0 -35 22.5 -55.5t55.5 -20.5z" />
    <glyph glyph-name="uniF6EA" unicode="&#xf6ea;" horiz-adv-x="593" 
d="M342 1343q96 0 159.5 -72.5t63.5 -183.5q0 -113 -60.5 -183t-158.5 -70t-162 88q-49 -31 -78 -70h-34v528q0 59 -45 74l6 33q96 14 176 67l8 -4q-10 -51 -10 -153v-113h4q49 59 131 59zM346 901q41 0 66.5 38t25.5 93q0 80 -36.5 162t-100.5 82q-43 0 -68.5 -36
t-25.5 -95q0 -84 36.5 -164t102.5 -80z" />
    <glyph glyph-name="uniF6EB" unicode="&#xf6eb;" horiz-adv-x="593" 
d="M522 961q0 -61 45 -76l-4 -33q-80 -2 -133 -18h-12l-15 65h-6q-57 -66 -145 -65q-96 0 -159.5 72.5t-63.5 183.5q0 113 60.5 183t158.5 70q80 0 135 -61h6v98q0 59 -47 74l8 33q96 14 176 67l9 -4q-12 -51 -13 -153v-436zM295 901q43 0 67.5 37t24.5 94q0 84 -36 164
t-103 80q-41 0 -66.5 -38t-25.5 -93q0 -80 36.5 -162t102.5 -82z" />
    <glyph glyph-name="uniF6EC" unicode="&#xf6ec;" horiz-adv-x="534" 
d="M342 940q86 0 133 76l29 -10q-8 -70 -67.5 -121t-149.5 -51q-113 0 -185.5 74.5t-72.5 181.5q0 115 71.5 184t180.5 69q74 0 126 -33.5t72 -88.5q12 -29 33 -35l8 -41l-340 -96q37 -109 162 -109zM266 1278q-43 0 -71.5 -38t-28.5 -93q0 -29 2 -41l197 55q-6 47 -31 82
t-68 35z" />
    <glyph glyph-name="uniF6ED" unicode="&#xf6ed;" horiz-adv-x="278" 
d="M135 1391q-39 0 -60.5 22.5t-21.5 53t22.5 54t59.5 23.5q39 0 61.5 -23.5t22.5 -54t-22.5 -53t-61.5 -22.5zM31 852l-4 33q45 14 45 76v210q0 61 -45 76l4 33q92 12 162 63h14v-382q0 -61 47 -76l-8 -33h-215z" />
    <glyph glyph-name="uniF6EE" unicode="&#xf6ee;" horiz-adv-x="278" 
d="M33 852l-6 33q45 14 45 76v419q0 59 -45 74l6 33q96 14 176 67l10 -4q-12 -51 -12 -153v-436q0 -61 47 -76l-8 -33h-213z" />
    <glyph glyph-name="uniF6EF" unicode="&#xf6ef;" horiz-adv-x="880" 
d="M801 961q6 -63 55 -76l-8 -33h-213l-6 33q45 14 39 76l-21 196q-10 104 -72 105q-33 0 -53 -31t-20 -74v-8v-188q0 -61 47 -76l-8 -33h-213l-9 33q47 14 48 76v196q0 104 -78 105q-35 0 -57.5 -29t-24.5 -70l-2 -53v-149q0 -61 47 -76l-6 -33h-215l-4 33q45 14 45 76v206
q0 61 -45 76l4 33q78 10 153 67h15l4 -81h4q53 82 135 81q96 0 139 -81h4q49 82 136 81q145 0 163 -194z" />
    <glyph glyph-name="uniF6F0" unicode="&#xf6f0;" horiz-adv-x="555" 
d="M281 834q-113 0 -182.5 72.5t-69.5 185.5q0 111 68.5 181t178.5 70q113 0 181.5 -71.5t68.5 -184t-67 -183t-178 -70.5zM307 901q43 0 66.5 38t23.5 93q0 74 -41 159t-106 85q-45 0 -69.5 -37t-24.5 -94q0 -74 42.5 -159t108.5 -85z" />
    <glyph glyph-name="uniF6F1" unicode="&#xf6f1;" horiz-adv-x="468" 
d="M340 1343q45 0 72.5 -26.5t27.5 -65.5q0 -37 -22.5 -60.5t-55.5 -23.5q-35 0 -51 20.5t-25.5 41t-27.5 20.5t-35.5 -24.5t-17.5 -59.5v-204q0 -61 47 -76l-6 -33h-215l-4 33q45 14 45 76v206q0 61 -45 76l4 33q76 10 153 67h15l4 -75h2q53 75 135 75z" />
    <glyph glyph-name="uniF6F2" unicode="&#xf6f2;" horiz-adv-x="512" 
d="M276 834q-33 0 -87 16t-72 16q-10 0 -20.5 -3t-14.5 -7l-6 -4h-10l-41 168l28 8q41 -63 100.5 -99t116.5 -36q80 0 80 59q0 57 -137 97q-164 53 -164 149q0 63 54.5 104t134.5 41q41 0 85 -15t58 -15q10 0 20.5 4t16.5 6l4 2h12l31 -147l-35 -11q-33 57 -81 89t-93 32
q-31 0 -48.5 -14t-17.5 -37q0 -31 31 -49.5t90 -34.5q55 -16 87 -30.5t60.5 -46.5t28.5 -75q0 -80 -59.5 -123.5t-151.5 -43.5z" />
    <glyph glyph-name="uniF6F3" unicode="&#xf6f3;" horiz-adv-x="395" 
d="M246 834q-139 0 -140 135v291h-79v47q119 33 174 151h41v-131h120v-67h-120v-295q0 -66 51 -66q29 0 53 12l14 -55q-59 -22 -114 -22z" />
    <glyph glyph-name="glyph417" horiz-adv-x="0" 
 />
    <glyph glyph-name="glyph418" horiz-adv-x="1024" 
 />
    <glyph glyph-name="glyph419" horiz-adv-x="1892" 
d="M1837 1364q-102 -25 -102 -160v-975q0 -135 102 -159l-12 -70h-504l-12 70q104 25 104 159v23q-41 141 -154.5 268t-257.5 201q-182 -381 -213 -440q-86 -162 -196.5 -247t-288.5 -85q-156 0 -249 61.5t-93 149.5q0 59 32 96t93 37q57 0 93 -31t50.5 -68.5t48 -68.5
t87.5 -31q96 0 161.5 60.5t135.5 189.5q27 51 212 428q-78 20 -137 21q-115 0 -177 -37t-62 -90q0 -25 19.5 -66t19.5 -76q0 -61 -42 -101t-110 -40t-111 51t-43 123q0 156 144.5 259.5t361.5 103.5q94 0 197 -31q10 20 31 57q45 84 85 146.5t89 123t100 98.5t115.5 71.5
t134.5 45t160 16.5t190 -13l-10 -21zM1403 575h10v711q-63 -31 -113.5 -75t-93.5 -107.5t-63.5 -101t-61.5 -117.5q-2 -6 -9 -20.5t-11 -22.5q209 -97 342 -267z" />
    <glyph glyph-name="glyph420" horiz-adv-x="1892" 
d="M1788 1704l-266 -182l-70 57l197 254q55 72 123 72q39 0 64.5 -26t25.5 -60q0 -68 -74 -115zM965 946q45 84 86 146.5t90 123t99 98.5t114.5 72.5t134.5 45t160 15.5t190 -13l-10 -21l8 -49q-102 -25 -102 -160v-975q0 -135 102 -159l-12 -70h-504l-12 70q104 25 104 159
v23q-41 141 -154.5 268t-257.5 201q-180 -375 -213 -440q-86 -162 -196.5 -247t-288.5 -85q-156 0 -249 61.5t-93 149.5q0 59 32 96t93 37q57 0 93 -31t50.5 -68.5t48 -68.5t87.5 -31q96 0 161.5 60.5t135.5 189.5q39 74 116.5 230.5t98.5 197.5q-78 20 -140 21
q-115 0 -177 -37t-62 -90q0 -25 19.5 -66t19.5 -76q0 -61 -42 -101t-110 -40t-111 51t-43 123q0 156 144.5 259.5t361.5 103.5q94 0 199 -31q9 20 29 57zM1403 575h10v711q-76 -39 -139.5 -105.5t-98 -123t-79.5 -144.5q-10 -18 -15 -28q-2 -6 -9 -20.5t-11 -22.5
q209 -97 342 -267z" />
    <glyph glyph-name="glyph421" horiz-adv-x="1892" 
d="M1858 1837l90 -47q-33 -90 -111 -148.5t-197 -58.5q-117 0 -195.5 58.5t-111.5 148.5l92 49q20 -49 81 -81t134.5 -32t135.5 32t82 79zM965 946q45 84 86 146.5t90 123t99 98.5t114.5 72.5t134.5 45t160 15.5t190 -13l-10 -21l8 -49q-102 -25 -102 -160v-975
q0 -135 102 -159l-12 -70h-504l-12 70q104 25 104 159v23q-41 141 -154.5 268t-257.5 201q-180 -375 -213 -440q-86 -162 -196.5 -247t-288.5 -85q-156 0 -249 61.5t-93 149.5q0 59 32 96t93 37q57 0 93 -31t50.5 -68.5t48 -68.5t87.5 -31q96 0 161.5 60.5t135.5 189.5
q39 74 116.5 230.5t98.5 197.5q-78 20 -140 21q-115 0 -177 -37t-62 -90q0 -25 19.5 -66t19.5 -76q0 -61 -42 -101t-110 -40t-111 51t-43 123q0 156 144.5 259.5t361.5 103.5q94 0 199 -31q9 20 29 57zM1403 575h10v711q-76 -39 -139.5 -105.5t-98 -123t-79.5 -144.5
q-10 -18 -15 -28q-2 -6 -9 -20.5t-11 -22.5q209 -97 342 -267z" />
    <glyph glyph-name="glyph422" horiz-adv-x="1892" 
d="M1546 1638l-282 -127l-47 74l329 281l330 -281l-45 -74zM965 946q45 84 86 146.5t90 123t99 98.5t114.5 72.5t134.5 45t160 15.5t190 -13l-10 -21l8 -49q-102 -25 -102 -160v-975q0 -135 102 -159l-12 -70h-504l-12 70q104 25 104 159v23q-41 141 -154.5 268t-257.5 201
q-180 -375 -213 -440q-86 -162 -196.5 -247t-288.5 -85q-156 0 -249 61.5t-93 149.5q0 59 32 96t93 37q57 0 93 -31t50.5 -68.5t48 -68.5t87.5 -31q96 0 161.5 60.5t135.5 189.5q39 74 116.5 230.5t98.5 197.5q-78 20 -140 21q-115 0 -177 -37t-62 -90q0 -25 19.5 -66
t19.5 -76q0 -61 -42 -101t-110 -40t-111 51t-43 123q0 156 144.5 259.5t361.5 103.5q94 0 199 -31q9 20 29 57zM1403 575h10v711q-76 -39 -139.5 -105.5t-98 -123t-79.5 -144.5q-10 -18 -15 -28q-2 -6 -9 -20.5t-11 -22.5q209 -97 342 -267z" />
    <glyph glyph-name="glyph423" horiz-adv-x="1892" 
d="M1353.5 1587q-65.5 0 -105.5 41t-40 94q0 57 40 99.5t105.5 42.5t106.5 -42t41 -100q0 -53 -41 -94t-106.5 -41zM1753.5 1864q65.5 0 106.5 -42t41 -100q0 -53 -41 -94t-106.5 -41t-105.5 41t-40 94q0 57 40 99.5t105.5 42.5zM965 946q45 84 86 146.5t90 123t99 98.5
t114.5 72.5t134.5 45t160 15.5t190 -13l-10 -21l8 -49q-102 -25 -102 -160v-975q0 -135 102 -159l-12 -70h-504l-12 70q104 25 104 159v23q-41 141 -154.5 268t-257.5 201q-180 -375 -213 -440q-86 -162 -196.5 -247t-288.5 -85q-156 0 -249 61.5t-93 149.5q0 59 32 96
t93 37q57 0 93 -31t50.5 -68.5t48 -68.5t87.5 -31q96 0 161.5 60.5t135.5 189.5q39 74 116.5 230.5t98.5 197.5q-78 20 -140 21q-115 0 -177 -37t-62 -90q0 -25 19.5 -66t19.5 -76q0 -61 -42 -101t-110 -40t-111 51t-43 123q0 156 144.5 259.5t361.5 103.5q94 0 199 -31
q9 20 29 57zM1403 575h10v711q-76 -39 -139.5 -105.5t-98 -123t-79.5 -144.5q-10 -18 -15 -28q-2 -6 -9 -20.5t-11 -22.5q209 -97 342 -267z" />
    <glyph glyph-name="glyph424" horiz-adv-x="1892" 
d="M1272 1704q-74 47 -74 115q0 35 25.5 60.5t66.5 25.5q66 0 121 -72l197 -256l-70 -55zM1837 1364q-102 -25 -102 -160v-975q0 -135 102 -159l-12 -70h-504l-12 70q104 25 104 159v23q-41 141 -154.5 268t-257.5 201q-180 -375 -213 -440q-86 -162 -196.5 -247t-288.5 -85
q-156 0 -249 61.5t-93 149.5q0 59 32 96t93 37q57 0 93 -31t50.5 -68.5t48 -68.5t87.5 -31q96 0 161.5 60.5t135.5 189.5q39 74 116.5 230.5t98.5 197.5q-78 20 -140 21q-115 0 -177 -37t-62 -90q0 -25 19.5 -66t19.5 -76q0 -61 -42 -101t-110 -40t-111 51t-43 123
q0 156 144.5 259.5t361.5 103.5q94 0 199 -31q8 20 29 57q45 84 86 146.5t90 123t99 98.5t114.5 72.5t134.5 45t160 15.5t190 -13l-10 -21zM1403 575h10v711q-76 -39 -139.5 -105.5t-98 -123t-79.5 -144.5q-10 -18 -15 -28q-2 -6 -9 -20.5t-11 -22.5q209 -97 342 -267z" />
    <glyph glyph-name="glyph425" horiz-adv-x="1892" 
d="M1276 1774h600v-142h-600v142zM965 946q45 84 86 146.5t90 123t99 98.5t114.5 72.5t134.5 45t160 15.5t190 -13l-10 -21l8 -49q-102 -25 -102 -160v-975q0 -135 102 -159l-12 -70h-504l-12 70q104 25 104 159v23q-41 141 -154.5 268t-257.5 201q-180 -375 -213 -440
q-86 -162 -196.5 -247t-288.5 -85q-156 0 -249 61.5t-93 149.5q0 59 32 96t93 37q57 0 93 -31t50.5 -68.5t48 -68.5t87.5 -31q96 0 161.5 60.5t135.5 189.5q39 74 116.5 230.5t98.5 197.5q-78 20 -140 21q-115 0 -177 -37t-62 -90q0 -25 19.5 -66t19.5 -76q0 -61 -42 -101
t-110 -40t-111 51t-43 123q0 156 144.5 259.5t361.5 103.5q94 0 199 -31q9 20 29 57zM1403 575h10v711q-76 -39 -139.5 -105.5t-98 -123t-79.5 -144.5q-10 -18 -15 -28q-2 -6 -9 -20.5t-11 -22.5q209 -97 342 -267z" />
    <glyph glyph-name="glyph426" horiz-adv-x="1892" 
d="M1829 -236l84 -45q-90 -164 -268 -163q-111 0 -179.5 59t-68.5 152q0 133 127 233h-203l-12 70q104 25 104 159v23q-41 141 -154.5 268t-257.5 201q-180 -375 -213 -440q-86 -162 -196.5 -247t-288.5 -85q-156 0 -249 61.5t-93 149.5q0 59 32 96t93 37q57 0 93 -31
t50.5 -68.5t48 -68.5t87.5 -31q96 0 161.5 60.5t135.5 189.5q39 74 116.5 230.5t98.5 197.5q-78 20 -140 21q-115 0 -177 -37t-62 -90q0 -25 19.5 -66t19.5 -76q0 -61 -42 -101t-110 -40t-111 51t-43 123q0 156 144.5 259.5t361.5 103.5q94 0 199 -31q8 20 29 57
q45 84 86 146.5t90 123t99 98.5t114.5 72.5t134.5 45t160 15.5t190 -13l-10 -21l8 -49q-102 -25 -102 -160v-975q0 -135 102 -159l-12 -70h-105q-133 -84 -133 -207q0 -49 33 -82t78 -33q86 0 131 86zM1403 575h10v711q-76 -39 -139.5 -105.5t-98 -123t-79.5 -144.5
q-10 -18 -15 -28q-2 -6 -9 -20.5t-11 -22.5q209 -97 342 -267z" />
    <glyph glyph-name="glyph427" horiz-adv-x="1892" 
d="M1567 1536q-90 0 -154.5 63.5t-64.5 153.5t64.5 153.5t154.5 63.5t154.5 -63.5t64.5 -153.5t-64.5 -153.5t-154.5 -63.5zM1567 1855q-43 0 -73 -29.5t-30 -72.5q0 -45 30 -74.5t73 -29.5t72.5 29.5t29.5 74.5q0 43 -29.5 72.5t-72.5 29.5zM1837 1364q-102 -25 -102 -160
v-975q0 -135 102 -159l-12 -70h-504l-12 70q104 25 104 159v23q-41 141 -154.5 268t-257.5 201q-180 -375 -213 -440q-86 -162 -196.5 -247t-288.5 -85q-156 0 -249 61.5t-93 149.5q0 59 32 96t93 37q57 0 93 -31t50.5 -68.5t48 -68.5t87.5 -31q96 0 161.5 60.5t135.5 189.5
q39 74 116.5 230.5t98.5 197.5q-78 20 -140 21q-115 0 -177 -37t-62 -90q0 -25 19.5 -66t19.5 -76q0 -61 -42 -101t-110 -40t-111 51t-43 123q0 156 144.5 259.5t361.5 103.5q94 0 199 -31q8 20 29 57q45 84 86 146.5t90 123t99 98.5t114.5 72.5t134.5 45t160 15.5t190 -13
l-10 -21zM1403 575h10v711q-76 -39 -139.5 -105.5t-98 -123t-79.5 -144.5q-10 -18 -15 -28q-2 -6 -9 -20.5t-11 -22.5q209 -97 342 -267z" />
    <glyph glyph-name="glyph428" horiz-adv-x="1892" 
d="M1821 2249q39 0 65.5 -25.5t26.5 -60.5q0 -66 -76 -117l-139 -96q57 -27 92 -80t35 -117q0 -90 -64.5 -153.5t-152.5 -63.5q-92 0 -155.5 63.5t-63.5 153.5q0 68 37.5 123t99.5 78l172 223q62 72 123 72zM1608 1649q43 0 72.5 29.5t29.5 74.5q0 43 -29.5 72.5t-72.5 29.5
q-45 0 -74 -29.5t-29 -72.5q0 -45 29 -74.5t74 -29.5zM965 946q45 84 86 146.5t90 123t99 98.5t114.5 72.5t134.5 45t160 15.5t190 -13l-10 -21l8 -49q-102 -25 -102 -160v-975q0 -135 102 -159l-12 -70h-504l-12 70q104 25 104 159v23q-41 141 -154.5 268t-257.5 201
q-180 -375 -213 -440q-86 -162 -196.5 -247t-288.5 -85q-156 0 -249 61.5t-93 149.5q0 59 32 96t93 37q57 0 93 -31t50.5 -68.5t48 -68.5t87.5 -31q96 0 161.5 60.5t135.5 189.5q39 74 116.5 230.5t98.5 197.5q-78 20 -140 21q-115 0 -177 -37t-62 -90q0 -25 19.5 -66
t19.5 -76q0 -61 -42 -101t-110 -40t-111 51t-43 123q0 156 144.5 259.5t361.5 103.5q94 0 199 -31q9 20 29 57zM1403 575h10v711q-76 -39 -139.5 -105.5t-98 -123t-79.5 -144.5q-10 -18 -15 -28q-2 -6 -9 -20.5t-11 -22.5q209 -97 342 -267z" />
    <glyph glyph-name="glyph429" horiz-adv-x="1892" 
d="M1391 1720q-66 0 -82 -80l-92 25q12 113 66 165t126 52q61 0 148.5 -52t125.5 -52q66 0 84 77l88 -22q-14 -115 -67 -167t-125 -52q-61 0 -147 53t-125 53zM965 946q45 84 86 146.5t90 123t99 98.5t114.5 72.5t134.5 45t160 15.5t190 -13l-10 -21l8 -49
q-102 -25 -102 -160v-975q0 -135 102 -159l-12 -70h-504l-12 70q104 25 104 159v23q-41 141 -154.5 268t-257.5 201q-180 -375 -213 -440q-86 -162 -196.5 -247t-288.5 -85q-156 0 -249 61.5t-93 149.5q0 59 32 96t93 37q57 0 93 -31t50.5 -68.5t48 -68.5t87.5 -31
q96 0 161.5 60.5t135.5 189.5q39 74 116.5 230.5t98.5 197.5q-78 20 -140 21q-115 0 -177 -37t-62 -90q0 -25 19.5 -66t19.5 -76q0 -61 -42 -101t-110 -40t-111 51t-43 123q0 156 144.5 259.5t361.5 103.5q94 0 199 -31q9 20 29 57zM1403 575h10v711q-76 -39 -139.5 -105.5
t-98 -123t-79.5 -144.5q-10 -18 -15 -28q-2 -6 -9 -20.5t-11 -22.5q209 -97 342 -267z" />
    <glyph glyph-name="glyph430" horiz-adv-x="1935" 
d="M1516 762q156 -39 252 -139.5t96 -237.5q0 -193 -139.5 -304.5t-376.5 -111.5q-121 0 -293 15.5t-289 15.5h-217l-12 70q104 25 104 159v1076q-238 41 -279 41q-78 0 -122.5 -29t-44.5 -78q0 -35 35.5 -84t35.5 -96q0 -57 -40 -95t-101 -38q-70 0 -117 55t-47 129
q2 154 119 258.5t352 104.5q80 0 242 -19.5t368 -19.5h275q199 0 325.5 -99.5t126.5 -249.5q0 -109 -68.5 -193.5t-184.5 -119.5v-10zM1182 1305q-135 0 -221 -11v-465h231q117 0 187.5 69t70.5 173q0 100 -70.5 167t-197.5 67zM1231 121q158 0 235.5 81t77.5 210
q0 131 -94 208.5t-233 77.5h-256v-536q182 -41 270 -41z" />
    <glyph glyph-name="glyph431" horiz-adv-x="1886" 
d="M1759 518l86 -24q-33 -225 -185.5 -379t-410.5 -154q-319 0 -508.5 213t-189.5 541q0 293 184 506q-172 119 -323 118q-98 0 -156.5 -46t-58.5 -113q0 -27 27.5 -71t27.5 -79q0 -57 -39 -93t-102 -36q-68 0 -109 56.5t-41 136.5q0 160 129 265t324 105q213 0 424 -147
q195 156 452 156q211 0 336 -83t125 -223q0 -129 -100.5 -206.5t-243.5 -77.5q-139 0 -252 51t-235 145q-61 -111 -62 -250q0 -317 150.5 -486t361.5 -169q278 0 389 344zM1321 1343q-178 0 -322 -153q115 -92 206 -139t202 -47q94 0 147.5 45t53.5 112q0 82 -71 132
t-216 50z" />
    <glyph glyph-name="glyph432" horiz-adv-x="1886" 
d="M1509 1800l-329 -280l-330 280l45 74l285 -127l282 127zM1759 518l86 -24q-33 -225 -185.5 -379t-410.5 -154q-319 0 -508.5 213t-189.5 541q0 293 184 506q-172 119 -323 118q-98 0 -156.5 -46t-58.5 -113q0 -27 27.5 -71t27.5 -79q0 -57 -39 -93t-102 -36
q-68 0 -109 56.5t-41 136.5q0 160 129 265t324 105q213 0 424 -147q195 156 452 156q211 0 336 -83t125 -223q0 -129 -100.5 -206.5t-243.5 -77.5q-139 0 -252 51t-235 145q-61 -111 -62 -250q0 -317 150.5 -486t361.5 -169q278 0 389 344zM1321 1343q-178 0 -322 -153
q115 -92 206 -139t202 -47q94 0 147.5 45t53.5 112q0 82 -71 132t-216 50z" />
    <glyph glyph-name="glyph433" horiz-adv-x="1886" 
d="M1845 494q-33 -215 -171 -364.5t-374 -166.5l-43 -94q20 10 56 10q76 0 122 -37t46 -102q0 -86 -85 -151.5t-220 -65.5q-106 0 -176 42t-70 101q0 31 20.5 53.5t50.5 22.5q37 0 58.5 -20.5t29 -46t33 -46t70.5 -20.5q55 0 87 26.5t32 73.5q0 29 -21.5 47.5t-56.5 18.5
q-45 0 -72 -25l-65 29l80 186q-287 25 -456 234t-169 516q0 293 184 506q-172 119 -323 118q-98 0 -156.5 -46t-58.5 -113q0 -27 27.5 -71t27.5 -79q0 -57 -39 -93t-102 -36q-68 0 -109 56.5t-41 136.5q0 160 129 265t324 105q213 0 424 -147q195 156 452 156q211 0 336 -83
t125 -223q0 -129 -100.5 -206.5t-243.5 -77.5q-139 0 -252 51t-235 145q-61 -111 -62 -250q0 -317 150.5 -486t361.5 -169q279 0 389 344zM1321 1343q-178 0 -322 -153q115 -92 206 -139t202 -47q94 0 147.5 45t53.5 112q0 82 -71 132t-216 50z" />
    <glyph glyph-name="glyph434" horiz-adv-x="1886" 
d="M1180 1638l-283 -127l-47 74l330 281l329 -281l-45 -74zM1759 518l86 -24q-33 -225 -185.5 -379t-410.5 -154q-319 0 -508.5 213t-189.5 541q0 293 184 506q-172 119 -323 118q-98 0 -156.5 -46t-58.5 -113q0 -27 27.5 -71t27.5 -79q0 -57 -39 -93t-102 -36
q-68 0 -109 56.5t-41 136.5q0 160 129 265t324 105q213 0 424 -147q195 156 452 156q211 0 336 -83t125 -223q0 -129 -100.5 -206.5t-243.5 -77.5q-139 0 -252 51t-235 145q-61 -111 -62 -250q0 -317 150.5 -486t361.5 -169q278 0 389 344zM1321 1343q-178 0 -322 -153
q115 -92 206 -139t202 -47q94 0 147.5 45t53.5 112q0 82 -71 132t-216 50z" />
    <glyph glyph-name="glyph435" horiz-adv-x="1886" 
d="M1178 1614q-63 0 -103.5 41t-40.5 94q0 57 39 99t105 42q68 0 107.5 -42t39.5 -99q0 -53 -39.5 -94t-107.5 -41zM1759 518l86 -24q-33 -225 -185.5 -379t-410.5 -154q-319 0 -508.5 213t-189.5 541q0 293 184 506q-172 119 -323 118q-98 0 -156.5 -46t-58.5 -113
q0 -27 27.5 -71t27.5 -79q0 -57 -39 -93t-102 -36q-68 0 -109 56.5t-41 136.5q0 160 129 265t324 105q213 0 424 -147q195 156 452 156q211 0 336 -83t125 -223q0 -129 -100.5 -206.5t-243.5 -77.5q-139 0 -252 51t-235 145q-61 -111 -62 -250q0 -317 150.5 -486t361.5 -169
q278 0 389 344zM1321 1343q-178 0 -322 -153q115 -92 206 -139t202 -47q94 0 147.5 45t53.5 112q0 82 -71 132t-216 50z" />
    <glyph glyph-name="glyph436" horiz-adv-x="1959" 
d="M1116 1434q330 0 550 -197t220 -516q0 -342 -197.5 -531.5t-510.5 -189.5h-656l-12 70q104 27 104 159v1080q-193 37 -252 37q-78 0 -122.5 -29t-44.5 -78q0 -35 35.5 -84t35.5 -96q0 -57 -40 -95t-101 -38q-70 0 -117 55t-47 129q2 154 119 258.5t350 104.5
q82 0 244 -19.5t368 -19.5h74zM1159 133q135 0 232.5 83t138.5 199.5t41 248.5q0 272 -136.5 454t-383.5 182q-59 0 -117 -6v-1138q116 -23 225 -23z" />
    <glyph glyph-name="glyph437" horiz-adv-x="1959" 
d="M1434 1800l-330 -280l-332 280l47 74l285 -127l280 127zM1116 1434q330 0 550 -197t220 -516q0 -342 -197.5 -531.5t-510.5 -189.5h-656l-12 70q104 27 104 159v1080q-193 37 -252 37q-78 0 -122.5 -29t-44.5 -78q0 -35 35.5 -84t35.5 -96q0 -57 -40 -95t-101 -38
q-70 0 -117 55t-47 129q2 154 119 258.5t350 104.5q82 0 244 -19.5t368 -19.5h74zM1159 133q135 0 232.5 83t138.5 199.5t41 248.5q0 272 -136.5 454t-383.5 182q-59 0 -117 -6v-1138q116 -23 225 -23z" />
    <glyph glyph-name="glyph438" horiz-adv-x="2013" 
d="M1116 1434q330 0 550 -197t220 -516q0 -342 -197.5 -531.5t-510.5 -189.5h-656l-12 70q104 27 104 159v412h-221v150h221v518q-193 37 -252 37q-78 0 -122.5 -29t-44.5 -78q0 -35 35.5 -84t35.5 -96q0 -57 -40 -95t-101 -38q-70 0 -117 55t-47 129q2 154 119 258.5
t350 104.5q82 0 244 -19.5t368 -19.5h74zM1159 133q135 0 232.5 83t138.5 199.5t41 248.5q0 272 -136.5 454t-383.5 182q-59 0 -117 -6v-503h244l2 -150h-246v-485q116 -23 225 -23z" />
    <glyph glyph-name="glyph439" horiz-adv-x="1822" 
d="M1741 389l74 -35l-117 -389h-25q-33 14 -124 24.5t-165 10.5h-811l-12 70q104 25 105 159v1078q-238 39 -301 39q-78 0 -123 -29t-45 -78q0 -35 35.5 -84t35.5 -96q0 -57 -40 -95t-103 -38q-70 0 -117 55t-47 129q2 154 119 258.5t350 104.5q82 0 245 -19.5t367 -19.5
h615l82 -324l-74 -27q-4 8 -12 23.5t-45 52.5t-84 65.5t-134 52t-190 23.5q-123 0 -215 -12v-483h381q66 0 110 29.5t54 76.5l69 -12v-324l-71 -12q-10 49 -53 78t-109 29h-381v-512q168 -25 272 -25q96 0 181.5 26.5t137.5 64.5t92 75t56 63z" />
    <glyph glyph-name="glyph440" horiz-adv-x="1822" 
d="M1167 1583q-117 0 -195.5 58.5t-109.5 148.5l90 49q20 -47 81 -80t134.5 -33t136 32t82.5 79l91 -47q-33 -90 -112 -148.5t-198 -58.5zM1741 389l74 -35l-117 -389h-25q-33 14 -124 24.5t-165 10.5h-811l-12 70q104 25 105 159v1080q-225 37 -301 37q-78 0 -123 -29
t-45 -78q0 -35 35.5 -84t35.5 -96q0 -57 -40 -95t-103 -38q-70 0 -117 55t-47 129q2 154 119 258.5t350 104.5q82 0 245 -19.5t367 -19.5h615l82 -324l-74 -27q-4 8 -12 23.5t-45 52.5t-84 65.5t-134 52t-190 23.5q-123 0 -215 -12v-483h381q66 0 110 29.5t54 76.5l69 -12
v-324l-71 -12q-10 49 -53 78t-109 29h-381v-512q168 -25 272 -25q96 0 181.5 26.5t137.5 64.5t92 75t56 63z" />
    <glyph glyph-name="glyph441" horiz-adv-x="1822" 
d="M1499 1800l-330 -280l-331 280l47 74l284 -127l283 127zM1741 389l74 -35l-117 -389h-25q-33 14 -124 24.5t-165 10.5h-811l-12 70q104 25 105 159v1078q-238 39 -301 39q-78 0 -123 -29t-45 -78q0 -35 35.5 -84t35.5 -96q0 -57 -40 -95t-103 -38q-70 0 -117 55t-47 129
q2 154 119 258.5t350 104.5q82 0 245 -19.5t367 -19.5h615l82 -324l-74 -27q-4 8 -12 23.5t-45 52.5t-84 65.5t-134 52t-190 23.5q-123 0 -215 -12v-483h381q66 0 110 29.5t54 76.5l69 -12v-324l-71 -12q-10 49 -53 78t-109 29h-381v-512q168 -25 272 -25q96 0 181.5 26.5
t137.5 64.5t92 75t56 63z" />
    <glyph glyph-name="glyph442" horiz-adv-x="1822" 
d="M1155 1614q-66 0 -105.5 41t-39.5 94q0 57 40 99t105 42q68 0 108 -42t40 -99q0 -53 -40 -94t-108 -41zM1741 389l74 -35l-117 -389h-25q-33 14 -124 24.5t-165 10.5h-811l-12 70q104 25 105 159v1078q-238 39 -301 39q-78 0 -123 -29t-45 -78q0 -35 35.5 -84t35.5 -96
q0 -57 -40 -95t-103 -38q-70 0 -117 55t-47 129q2 154 119 258.5t350 104.5q82 0 245 -19.5t367 -19.5h615l82 -324l-74 -27q-4 8 -12 23.5t-45 52.5t-84 65.5t-134 52t-190 23.5q-123 0 -215 -12v-483h381q66 0 110 29.5t54 76.5l69 -12v-324l-71 -12q-10 49 -53 78
t-109 29h-381v-512q168 -25 272 -25q96 0 181.5 26.5t137.5 64.5t92 75t56 63z" />
    <glyph glyph-name="glyph443" horiz-adv-x="1822" 
d="M1468 1774v-142h-600v142h600zM1741 389l74 -35l-117 -389h-25q-33 14 -124 24.5t-165 10.5h-811l-12 70q104 25 105 159v1078q-238 39 -301 39q-78 0 -123 -29t-45 -78q0 -35 35.5 -84t35.5 -96q0 -57 -40 -95t-103 -38q-70 0 -117 55t-47 129q2 154 119 258.5
t350 104.5q82 0 245 -19.5t367 -19.5h615l82 -324l-74 -27q-4 8 -12 23.5t-45 52.5t-84 65.5t-134 52t-190 23.5q-123 0 -215 -12v-483h381q66 0 110 29.5t54 76.5l69 -12v-324l-71 -12q-10 49 -53 78t-109 29h-381v-512q168 -25 272 -25q96 0 181.5 26.5t137.5 64.5t92 75
t56 63z" />
    <glyph glyph-name="glyph444" horiz-adv-x="1822" 
d="M1819 -236l84 -45q-90 -164 -269 -163q-113 0 -180.5 59t-67.5 152q0 133 127 233h-940l-12 70q104 25 105 159v1078q-238 39 -301 39q-78 0 -123 -29t-45 -78q0 -35 35.5 -84t35.5 -96q0 -57 -40 -95t-103 -38q-70 0 -117 55t-47 129q2 154 119 258.5t350 104.5
q82 0 245 -19.5t367 -19.5h615l82 -324l-74 -27q-4 8 -12 23.5t-45 52.5t-84 65.5t-134 52t-190 23.5q-123 0 -215 -12v-483h381q66 0 110 29.5t54 76.5l69 -12v-324l-71 -12q-10 49 -53 78t-109 29h-381v-512q168 -25 272 -25q96 0 181.5 26.5t137.5 64.5t92 75t56 63
l17 27l74 -35l-105 -354q-133 -84 -133 -207q0 -49 32.5 -82t78.5 -33q82 0 131 86z" />
    <glyph glyph-name="glyph445" horiz-adv-x="1748" 
d="M1657 1434l84 -326l-74 -25q-4 8 -13 23.5t-46 52.5t-84 65.5t-134 52t-190 23.5q-98 0 -229 -12v-489h307q66 0 110 28.5t54 77.5l69 -12v-324l-69 -12q-12 49 -55.5 78t-108.5 29h-307v-586q0 -270 -137.5 -395t-358.5 -125q-160 0 -239.5 60t-79.5 149q0 61 41 102
t100 41t95 -31t48.5 -68.5t34 -68.5t53.5 -31q125 0 125 305l-2 1287q-231 43 -286 43q-78 0 -123 -30t-45 -77q0 -35 35.5 -85t35.5 -97q0 -57 -40 -94t-103 -37q-70 0 -117 55t-47 127q2 156 119 259t352 103q82 0 244 -18t366 -18h615z" />
    <glyph glyph-name="glyph446" horiz-adv-x="1955" 
d="M1923 739l12 -69q-104 -25 -104 -160l-2 -461q0 -139 -53.5 -241.5t-142.5 -159t-189.5 -82t-212.5 -25.5q-211 0 -336 71t-125 175q0 45 28.5 83t92.5 38q49 0 75.5 -23.5t42 -58.5t36 -68.5t71.5 -57.5t135 -24q106 0 182 79t76 233v37q-131 -63 -297 -64
q-299 0 -480 203t-181 524q0 309 186 529q-170 121 -323 120q-100 0 -158.5 -45t-58.5 -112q0 -29 27.5 -73t27.5 -77q0 -57 -40 -94t-99 -37q-70 0 -111 56.5t-41 136.5q0 160 129 265t324 105q215 0 426 -147q195 156 450 155q211 0 336 -82.5t125 -222.5
q0 -127 -101.5 -205.5t-242.5 -78.5q-137 0 -250 51t-233 143q-66 -121 -66 -272q0 -305 144.5 -468t330.5 -163q94 0 176 39v299q0 135 -102 160l12 69h504zM1323 1341q-178 0 -322 -155q113 -90 204 -137.5t202 -47.5q94 0 148.5 45.5t54.5 112.5q0 82 -72 132t-215 50z
" />
    <glyph glyph-name="glyph447" horiz-adv-x="1955" 
d="M1257 1583q-117 0 -195.5 58.5t-109.5 148.5l90 49q20 -47 81 -80t134.5 -33t136 32t83.5 79l90 -47q-33 -90 -112 -148.5t-198 -58.5zM1923 739l12 -69q-104 -25 -104 -160l-2 -461q0 -139 -53.5 -241.5t-142.5 -159t-189.5 -82t-212.5 -25.5q-211 0 -336 71t-125 175
q0 45 28.5 83t92.5 38q49 0 75.5 -23.5t42 -58.5t36 -68.5t71.5 -57.5t135 -24q106 0 182 79t76 233v37q-131 -63 -297 -64q-299 0 -480 203t-181 524q0 309 186 529q-170 121 -323 120q-100 0 -158.5 -45t-58.5 -112q0 -29 27.5 -73t27.5 -77q0 -57 -40 -94t-99 -37
q-70 0 -111 56.5t-41 136.5q0 160 129 265t324 105q215 0 426 -147q195 156 450 155q211 0 336 -82.5t125 -222.5q0 -127 -101.5 -205.5t-242.5 -78.5q-137 0 -250 51t-233 143q-66 -121 -66 -272q0 -305 144.5 -468t330.5 -163q94 0 176 39v299q0 135 -102 160l12 69h504z
M1323 1341q-178 0 -322 -155q113 -90 204 -137.5t202 -47.5q94 0 148.5 45.5t54.5 112.5q0 82 -72 132t-215 50z" />
    <glyph glyph-name="glyph448" horiz-adv-x="1955" 
d="M1251 1638l-282 -127l-49 74l331 281l330 -281l-47 -74zM1923 739l12 -69q-104 -25 -104 -160l-2 -461q0 -139 -53.5 -241.5t-142.5 -159t-189.5 -82t-212.5 -25.5q-211 0 -336 71t-125 175q0 45 28.5 83t92.5 38q49 0 75.5 -23.5t42 -58.5t36 -68.5t71.5 -57.5t135 -24
q106 0 182 79t76 233v37q-131 -63 -297 -64q-299 0 -480 203t-181 524q0 309 186 529q-170 121 -323 120q-100 0 -158.5 -45t-58.5 -112q0 -29 27.5 -73t27.5 -77q0 -57 -40 -94t-99 -37q-70 0 -111 56.5t-41 136.5q0 160 129 265t324 105q215 0 426 -147q195 156 450 155
q211 0 336 -82.5t125 -222.5q0 -127 -101.5 -205.5t-242.5 -78.5q-137 0 -250 51t-233 143q-66 -121 -66 -272q0 -305 144.5 -468t330.5 -163q94 0 176 39v299q0 135 -102 160l12 69h504zM1323 1341q-178 0 -322 -155q113 -90 204 -137.5t202 -47.5q94 0 148.5 45.5
t54.5 112.5q0 82 -72 132t-215 50z" />
    <glyph glyph-name="glyph449" horiz-adv-x="1961" 
d="M1923 739l12 -69q-104 -25 -104 -160l-2 -444q0 -139 -53.5 -242t-142.5 -159t-189.5 -81.5t-212.5 -25.5q-211 0 -336 70.5t-125 174.5q0 45 28.5 83t92.5 38q49 0 75.5 -23.5t42 -58.5t36 -68.5t71.5 -57t135 -23.5q106 0 182 78.5t76 232.5v21q-131 -63 -297 -64
q-299 0 -480 203t-181 524q0 309 186 529q-170 121 -323 120q-100 0 -158.5 -45t-58.5 -112q0 -29 27.5 -73t27.5 -77q0 -57 -40 -94t-99 -37q-70 0 -111 56.5t-41 136.5q0 160 129 265t324 105q215 0 426 -147q195 156 450 155q211 0 336 -82.5t125 -222.5
q0 -127 -101.5 -205.5t-242.5 -78.5q-137 0 -250 51t-233 143q-66 -121 -66 -272q0 -305 144.5 -468t330.5 -163q94 0 176 39v299q0 135 -102 160l12 69h504zM1323 1341q-178 0 -322 -155q113 -90 204 -137.5t202 -47.5q94 0 148.5 45.5t54.5 112.5q0 82 -72 132t-215 50z
M1251 -532q90 0 146.5 -65t56.5 -171q0 -145 -86 -286.5t-223 -221.5l-72 92q166 117 213 316l-4 6q-27 -16 -55 -17q-74 0 -125 49.5t-51 127.5q0 76 58 123t142 47z" />
    <glyph glyph-name="glyph450" horiz-adv-x="1955" 
d="M1249 1614q-66 0 -104.5 41t-38.5 94q0 57 39 99t104 42q68 0 108 -42t40 -99q0 -53 -40 -94t-108 -41zM1923 739l12 -69q-104 -25 -104 -160l-2 -461q0 -139 -53.5 -241.5t-142.5 -159t-189.5 -82t-212.5 -25.5q-211 0 -336 71t-125 175q0 45 28.5 83t92.5 38
q49 0 75.5 -23.5t42 -58.5t36 -68.5t71.5 -57.5t135 -24q106 0 182 79t76 233v37q-131 -63 -297 -64q-299 0 -480 203t-181 524q0 309 186 529q-170 121 -323 120q-100 0 -158.5 -45t-58.5 -112q0 -29 27.5 -73t27.5 -77q0 -57 -40 -94t-99 -37q-70 0 -111 56.5t-41 136.5
q0 160 129 265t324 105q215 0 426 -147q195 156 450 155q211 0 336 -82.5t125 -222.5q0 -127 -101.5 -205.5t-242.5 -78.5q-137 0 -250 51t-233 143q-66 -121 -66 -272q0 -305 144.5 -468t330.5 -163q94 0 176 39v299q0 135 -102 160l12 69h504zM1323 1341q-178 0 -322 -155
q113 -90 204 -137.5t202 -47.5q94 0 148.5 45.5t54.5 112.5q0 82 -72 132t-215 50z" />
    <glyph glyph-name="glyph451" horiz-adv-x="2050" 
d="M1901 229q0 -135 104 -159l-12 -70h-504l-12 70q104 25 104 159v435h-596v-435q0 -135 105 -159l-13 -70h-504l-12 70q104 25 105 159v1071q-252 45 -301 46q-78 0 -123 -29t-45 -78q0 -35 35.5 -84t35.5 -96q0 -57 -40 -95t-101 -38q-70 0 -118 55t-48 129
q0 154 117 258.5t352 104.5q82 0 245 -19.5t365 -19.5h35l15 -70q-104 -25 -105 -160v-385h596v385q0 135 -104 160l12 70h502l14 -70q-104 -25 -104 -160v-975z" />
    <glyph glyph-name="glyph452" horiz-adv-x="2091" 
d="M1901 229q0 -135 104 -159l-12 -70h-504l-12 70q104 25 104 159v435h-596v-435q0 -135 105 -159l-13 -70h-504l-12 70q104 25 105 159v756h-177v105h177v210q-252 45 -301 46q-78 0 -123 -29t-45 -78q0 -35 35.5 -84t35.5 -96q0 -57 -40 -95t-101 -38q-70 0 -118 55
t-48 129q0 154 117 258.5t352 104.5q82 0 245 -19.5t365 -19.5h35l15 -70q-104 -25 -105 -160v-114h596v114q0 135 -104 160l12 70h502l14 -70q-104 -25 -104 -160v-114h163l2 -105h-165v-756zM985 819h596v166h-596v-166z" />
    <glyph glyph-name="glyph453" horiz-adv-x="2050" 
d="M1284 1638l-285 -127l-47 74l332 281l330 -281l-47 -74zM1901 229q0 -135 104 -159l-12 -70h-504l-12 70q104 25 104 159v435h-596v-435q0 -135 105 -159l-13 -70h-504l-12 70q104 25 105 159v1071q-252 45 -301 46q-78 0 -123 -29t-45 -78q0 -35 35.5 -84t35.5 -96
q0 -57 -40 -95t-101 -38q-70 0 -118 55t-48 129q0 154 117 258.5t352 104.5q82 0 245 -19.5t365 -19.5h35l15 -70q-104 -25 -105 -160v-385h596v385q0 135 -104 160l12 70h502l14 -70q-104 -25 -104 -160v-975z" />
    <glyph glyph-name="glyph454" horiz-adv-x="1134" 
d="M985 229q0 -135 105 -159l-13 -70h-504l-12 70q102 25 103 159v1071q-252 45 -302 46q-78 0 -122.5 -29t-44.5 -78q0 -35 36.5 -84t36.5 -96q0 -57 -40 -95t-103 -38q-70 0 -117 55t-47 129q2 154 119 258.5t352 104.5q80 0 243 -19.5t367 -19.5h35l13 -70
q-104 -25 -105 -160v-975z" />
    <glyph glyph-name="glyph455" horiz-adv-x="1765" 
d="M1090 70l-13 -70h-504l-12 70q102 25 103 159v1071q-252 45 -302 46q-78 0 -122.5 -29t-44.5 -78q0 -35 36.5 -84t36.5 -96q0 -57 -40 -95t-103 -38q-70 0 -117 55t-47 129q2 154 119 258.5t352 104.5q80 0 243 -19.5t367 -19.5h35l13 -70q-104 -25 -105 -160v-975
q1 -134 105 -159zM1718 1434l13 -70q-104 -25 -105 -160v-1132q0 -272 -134 -395t-355 -123q-160 0 -243 60t-83 146q0 63 40 102.5t99.5 39.5t97 -31t51 -67.5t39 -67.5t60.5 -31q57 0 83 70.5t26 234.5v1194q0 66 -29 107t-74 53l13 70h501z" />
    <glyph glyph-name="glyph456" horiz-adv-x="1136" 
d="M823 1614q-66 0 -104.5 41t-38.5 94q0 57 39 99t104 42q68 0 108 -42t40 -99q0 -53 -40 -94t-108 -41zM985 229q0 -135 105 -159l-13 -70h-504l-12 70q102 25 103 159v1071q-252 45 -302 46q-78 0 -122.5 -29t-44.5 -78q0 -35 36.5 -84t36.5 -96q0 -57 -40 -95t-103 -38
q-70 0 -117 55t-47 129q2 154 119 258.5t352 104.5q80 0 243 -19.5t367 -19.5h35l13 -70q-104 -25 -105 -160v-975z" />
    <glyph glyph-name="glyph457" horiz-adv-x="1136" 
d="M524 1774h602v-142h-602v142zM1090 1364q-104 -25 -105 -160v-975q0 -135 105 -159l-13 -70h-504l-12 70q102 25 103 159v1071q-252 45 -302 46q-78 0 -122.5 -29t-44.5 -78q0 -35 36.5 -84t36.5 -96q0 -57 -40 -95t-103 -38q-70 0 -117 55t-47 129q2 154 119 258.5
t352 104.5q80 0 243 -19.5t367 -19.5h35z" />
    <glyph glyph-name="glyph458" horiz-adv-x="1136" 
d="M1044 -236l84 -45q-90 -164 -268 -163q-113 0 -180.5 59t-67.5 152q0 133 127 233h-166l-12 70q102 25 103 159v1071q-252 45 -302 46q-78 0 -122.5 -29t-44.5 -78q0 -35 36.5 -84t36.5 -96q0 -57 -40 -95t-103 -38q-70 0 -117 55t-47 129q2 154 119 258.5t352 104.5
q80 0 243 -19.5t367 -19.5h35l13 -70q-104 -25 -105 -160v-975q0 -135 105 -159l-13 -70h-141q-133 -84 -133 -207q0 -49 32.5 -82t77.5 -33q82 0 131 86z" />
    <glyph glyph-name="glyph459" horiz-adv-x="1136" 
d="M682 1720q-68 0 -84 -80l-92 25q14 115 67.5 166t124.5 51q61 0 149.5 -52t125.5 -52q63 0 84 77l88 -22q-12 -115 -66.5 -167t-126.5 -52q-61 0 -147 53t-123 53zM1090 1364q-104 -25 -105 -160v-975q0 -135 105 -159l-13 -70h-504l-12 70q102 25 103 159v1071
q-252 45 -302 46q-78 0 -122.5 -29t-44.5 -78q0 -35 36.5 -84t36.5 -96q0 -57 -40 -95t-103 -38q-70 0 -117 55t-47 129q2 154 119 258.5t352 104.5q80 0 243 -19.5t367 -19.5h35z" />
    <glyph glyph-name="glyph460" horiz-adv-x="1257" 
d="M1051 1305v-449h184v-154h-184v-608q0 -272 -137.5 -396t-358.5 -124q-160 0 -239.5 60.5t-79.5 148.5q0 61 40.5 102t100 41t96.5 -30.5t48 -68.5t32.5 -68.5t54.5 -30.5q63 0 93 71.5t30 233.5v669h-346v154h346v160q0 162 76 254v6q-80 8 -229.5 50t-223.5 42
q-70 0 -114.5 -35t-44.5 -84q0 -35 36.5 -91t36.5 -103q0 -57 -40 -94t-103 -37q-70 0 -117 54t-47 128q2 160 119 273.5t350 113.5q100 0 288.5 -49t268.5 -49q45 43 113.5 68.5t124.5 29.5l47 -100q-123 -88 -221 -88z" />
    <glyph glyph-name="glyph461" horiz-adv-x="1282" 
d="M872 1651l-282 -127l-47 73l329 281l330 -281l-45 -73zM1051 1305v-449h184v-154h-184v-608q0 -272 -137.5 -396t-358.5 -124q-160 0 -239.5 60.5t-79.5 148.5q0 61 40.5 102t100 41t96.5 -30.5t48 -68.5t32.5 -68.5t54.5 -30.5q63 0 93 71.5t30 233.5v669h-346v154h346
v160q0 162 76 254v6q-80 8 -229.5 50t-223.5 42q-70 0 -114.5 -35t-44.5 -84q0 -35 36.5 -91t36.5 -103q0 -57 -40 -94t-103 -37q-70 0 -117 54t-47 128q2 160 119 273.5t350 113.5q100 0 288.5 -49t268.5 -49q45 43 113.5 68.5t124.5 29.5l47 -100q-123 -88 -221 -88z" />
    <glyph glyph-name="glyph462" horiz-adv-x="2023" 
d="M2638 -125q61 0 99 -35t38 -90q0 -94 -97.5 -151.5t-289.5 -57.5q-164 0 -301 52.5t-233.5 141.5t-176.5 197.5t-143.5 229.5t-119.5 227.5t-122.5 199.5t-136.5 140l-172 -156v-344q0 -133 104 -159l-12 -70h-504l-12 70q104 25 105 159v1071q-252 45 -302 46
q-78 0 -122.5 -29t-44.5 -78q0 -35 36.5 -84t36.5 -96q0 -57 -40 -95t-103 -38q-70 0 -117 55t-47 129q2 154 119 258.5t350 104.5q82 0 244 -19.5t366 -19.5h35l12 -70q-104 -27 -104 -160v-420h12l461 420q63 70 55 108t-51 52l13 70h473l12 -70q-133 -25 -283 -160
l-364 -332v-12q125 -29 235.5 -130t184 -230t151.5 -274.5t141.5 -265.5t149.5 -198.5t180 -78.5q51 0 83 19t48.5 48t31.5 57.5t45 48t77 19.5z" />
    <glyph glyph-name="glyph463" horiz-adv-x="2023" 
d="M2638 -125q61 0 99 -35t38 -90q0 -94 -97.5 -151.5t-289.5 -57.5q-164 0 -301 52.5t-233.5 141.5t-176.5 197.5t-143.5 229.5t-119.5 227.5t-122.5 199.5t-136.5 140l-172 -156v-344q0 -133 104 -159l-12 -70h-504l-12 70q104 25 105 159v1071q-252 45 -302 46
q-78 0 -122.5 -29t-44.5 -78q0 -35 36.5 -84t36.5 -96q0 -57 -40 -95t-103 -38q-70 0 -117 55t-47 129q2 154 119 258.5t350 104.5q82 0 244 -19.5t366 -19.5h35l12 -70q-104 -27 -104 -160v-420h12l461 420q63 70 55 108t-51 52l13 70h473l12 -70q-133 -25 -283 -160
l-364 -332v-12q125 -29 235.5 -130t184 -230t151.5 -274.5t141.5 -265.5t149.5 -198.5t180 -78.5q51 0 83 19t48.5 48t31.5 57.5t45 48t77 19.5zM1255 -117q90 0 146.5 -64.5t56.5 -170.5q0 -145 -86 -286.5t-223 -221.5l-72 92q166 113 213 315l-4 4q-29 -14 -53 -14
q-74 0 -126 49t-52 125t58 124t142 48z" />
    <glyph glyph-name="glyph464" horiz-adv-x="1427" 
d="M1792 -121q61 0 94 -34.5t33 -90.5q0 -96 -103.5 -155.5t-283.5 -59.5q-133 0 -244.5 45t-189.5 112.5t-148.5 137.5t-154.5 129.5t-174 75.5q-104 -80 -222 -84l-47 100q72 86 185 103q10 49 10 137v420q0 297 180 514q-154 117 -313 117q-100 0 -158.5 -45.5
t-58.5 -112.5q0 -29 28.5 -72t28.5 -78q0 -59 -40 -95t-101 -36q-68 0 -110 56.5t-42 136.5q0 160 129 265t324 105q231 0 411 -145q180 145 406 145q160 0 256 -66.5t96 -176.5q0 -115 -94 -180.5t-229 -65.5q-195 0 -349 102q-47 -119 -47 -272v-399q0 -145 -71 -238v-18
q117 -10 215 -63.5t163.5 -122t122 -137.5t115.5 -115t117 -46q59 0 92 33t42 71t41 70.5t91 32.5zM1241 1341q-164 0 -266 -141q135 -102 285 -102q84 0 133 34.5t49 88t-53.5 87t-147.5 33.5z" />
    <glyph glyph-name="glyph465" horiz-adv-x="1427" 
d="M1075 1704l-266 -182l-70 57l197 254q55 72 123 72q39 0 64.5 -26t25.5 -60q0 -68 -74 -115zM1792 -121q61 0 94 -34.5t33 -90.5q0 -96 -103.5 -155.5t-283.5 -59.5q-133 0 -244.5 45t-189.5 112.5t-148.5 137.5t-154.5 129.5t-174 75.5q-104 -80 -222 -84l-47 100
q72 86 185 103q10 49 10 137v420q0 297 180 514q-154 117 -313 117q-100 0 -158.5 -45.5t-58.5 -112.5q0 -29 28.5 -72t28.5 -78q0 -59 -40 -95t-101 -36q-68 0 -110 56.5t-42 136.5q0 160 129 265t324 105q231 0 411 -145q180 145 406 145q160 0 256 -66.5t96 -176.5
q0 -115 -94 -180.5t-229 -65.5q-195 0 -349 102q-47 -119 -47 -272v-399q0 -145 -71 -238v-18q117 -10 215 -63.5t163.5 -122t122 -137.5t115.5 -115t117 -46q59 0 92 33t42 71t41 70.5t91 32.5zM1241 1341q-164 0 -266 -141q135 -102 285 -102q84 0 133 34.5t49 88
t-53.5 87t-147.5 33.5z" />
    <glyph glyph-name="glyph466" horiz-adv-x="1755" 
d="M1778 1452q-74 0 -125 49t-51 125t58 124t142 48q90 0 146.5 -64.5t56.5 -170.5q0 -145 -86 -286.5t-223 -221.5l-72 92q166 113 213 313l-6 6q-28 -14 -53 -14zM1792 -121q61 0 94 -34.5t33 -90.5q0 -96 -103.5 -155.5t-283.5 -59.5q-133 0 -244.5 45t-189.5 112.5
t-148.5 137.5t-154.5 129.5t-174 75.5q-104 -80 -222 -84l-47 100q72 86 185 103q10 49 10 137v420q0 297 180 514q-154 117 -313 117q-100 0 -158.5 -45.5t-58.5 -112.5q0 -29 28.5 -72t28.5 -78q0 -59 -40 -95t-101 -36q-68 0 -110 56.5t-42 136.5q0 160 129 265t324 105
q231 0 411 -145q180 145 406 145q160 0 256 -66.5t96 -176.5q0 -115 -94 -180.5t-229 -65.5q-195 0 -349 102q-47 -119 -47 -272v-399q0 -145 -71 -238v-18q117 -10 215 -63.5t163.5 -122t122 -137.5t115.5 -115t117 -46q59 0 92 33t42 71t41 70.5t91 32.5zM1241 1341
q-164 0 -266 -141q135 -102 285 -102q84 0 133 34.5t49 88t-53.5 87t-147.5 33.5z" />
    <glyph glyph-name="glyph467" horiz-adv-x="1427" 
d="M1792 -121q61 0 94 -34.5t33 -90.5q0 -96 -103.5 -155.5t-283.5 -59.5q-133 0 -244.5 45t-189.5 112.5t-148.5 137.5t-154.5 129.5t-174 75.5q-104 -80 -222 -84l-47 100q72 86 185 103q10 49 10 137v420q0 297 180 514q-154 117 -313 117q-100 0 -158.5 -45.5
t-58.5 -112.5q0 -29 28.5 -72t28.5 -78q0 -59 -40 -95t-101 -36q-68 0 -110 56.5t-42 136.5q0 160 129 265t324 105q231 0 411 -145q180 145 406 145q160 0 256 -66.5t96 -176.5q0 -115 -94 -180.5t-229 -65.5q-195 0 -349 102q-47 -119 -47 -272v-399q0 -145 -71 -238v-18
q117 -10 215 -63.5t163.5 -122t122 -137.5t115.5 -115t117 -46q59 0 92 33t42 71t41 70.5t91 32.5zM1241 1341q-164 0 -266 -141q135 -102 285 -102q84 0 133 34.5t49 88t-53.5 87t-147.5 33.5zM666 -123q90 0 146 -64.5t56 -170.5q0 -145 -86 -286.5t-223 -221.5l-72 92
q166 113 213 313l-6 6q-29 -14 -53 -14q-72 0 -124 49t-52 125t58.5 124t142.5 48z" />
    <glyph glyph-name="glyph468" horiz-adv-x="1427" 
d="M1792 -121q61 0 94 -34.5t33 -90.5q0 -96 -103.5 -155.5t-283.5 -59.5q-133 0 -244.5 45t-189.5 112.5t-148.5 137.5t-154.5 129.5t-174 75.5q-104 -80 -222 -84l-47 100q72 86 185 103q10 49 10 137v420q0 297 180 514q-154 117 -313 117q-100 0 -158.5 -45.5
t-58.5 -112.5q0 -29 28.5 -72t28.5 -78q0 -59 -40 -95t-101 -36q-68 0 -110 56.5t-42 136.5q0 160 129 265t324 105q231 0 411 -145q180 145 406 145q160 0 256 -66.5t96 -176.5q0 -115 -94 -180.5t-229 -65.5q-195 0 -349 102q-47 -119 -47 -272v-399q0 -145 -71 -238v-18
q117 -10 215 -63.5t163.5 -122t122 -137.5t115.5 -115t117 -46q59 0 92 33t42 71t41 70.5t91 32.5zM1241 1341q-164 0 -266 -141q135 -102 285 -102q84 0 133 34.5t49 88t-53.5 87t-147.5 33.5zM1010 662q0 82 55 134t135 52t135.5 -52.5t55.5 -133.5q0 -84 -55.5 -136.5
t-135.5 -52.5t-135 52.5t-55 136.5z" />
    </font>
</defs>
</svg>
