<?xml version="1.0" standalone="no"?>
<!DOCTYPE svg PUBLIC "-//W3C//DTD SVG 1.1//EN" "http://www.w3.org/Graphics/SVG/1.1/DTD/svg11.dtd" >
<svg xmlns="http://www.w3.org/2000/svg" xmlns:xlink="http://www.w3.org/1999/xlink" version="1.1">
<metadata>
Created by FontForge 20170731 at Wed Apr 17 11:03:24 2019
 By Aleksey,,,
Copyright (c) 2019 by Studio Sun. All rights reserved. Desktop use is strictly prohibited.
</metadata>
<defs>
<font id="Tropiline-LightItalic" horiz-adv-x="1163" >
  <font-face 
    font-family="Tropiline Light Italic"
    font-weight="300"
    font-style="italic"
    font-stretch="normal"
    units-per-em="2048"
    panose-1="0 0 0 0 0 0 0 0 0 0"
    ascent="1536"
    descent="-512"
    x-height="1104"
    cap-height="1434"
    bbox="-573.126 -1092 2802 2200"
    underline-thickness="0"
    underline-position="0"
    unicode-range="U+0020-FB06"
  />
<missing-glyph horiz-adv-x="1165" 
d="M246 0v1434h919v-1434h-919zM362 104h689v1225h-689v-1225z" />
    <glyph glyph-name="uniFB00" unicode="ff" horiz-adv-x="1085" 
d="M1104 1425q-80 0 -107 -137l-36 -219h299l-11 -63h-299l-217 -1305q-37 -203 -105.5 -284t-232.5 -81q-57 0 -114.5 24t-57.5 73q0 55 60 55q41 0 82 -43t84 -43q45 0 85.5 37t53.5 106l243 1461h-354l-172 -1022q-35 -201 -104.5 -283t-231.5 -82q-57 0 -115.5 23.5
t-58.5 72.5q0 55 62 56q41 0 80.5 -43t82.5 -43q47 0 88.5 36.5t53.5 106.5l196 1178h-256l11 63h258l59 361q53 344 287 344q55 0 108.5 -20.5t53.5 -61.5q0 -25 -16.5 -38.5t-41.5 -13.5q-37 0 -70.5 34t-72.5 34q-80 0 -107 -137l-84 -502h357l12 78q55 344 289 344
q55 0 108.5 -20.5t53.5 -61.5q0 -23 -17.5 -37t-42.5 -14q-37 0 -70.5 33.5t-72.5 33.5z" />
    <glyph glyph-name="uniFB01" unicode="fi" horiz-adv-x="1050" 
d="M854 1546q135 0 209 -58t74 -126q0 -80 -82 -80q-35 0 -46.5 20.5t-11.5 51t-4 60.5t-37.5 50.5t-99.5 20.5q-125 0 -218 -81t-130 -261l-12 -74h301l-13 -63h-299l-180 -1100q-37 -203 -105.5 -284t-232.5 -81q-57 0 -114.5 23.5t-57.5 73.5q0 55 60 55q43 0 81.5 -43
t81.5 -43q47 0 88 37t54 106l207 1256h-160l10 63h160l8 45q33 205 166 318.5t303 113.5zM983 35q43 0 92 49l31 -27q-80 -94 -199 -94q-57 0 -95 48t-11 177l112 652q8 47 -18.5 72.5t-65.5 31.5l7 35q14 2 37.5 7t83 39t100.5 87l22 -8l-159 -901q-33 -168 63 -168z" />
    <glyph glyph-name="uniFB02" unicode="fl" horiz-adv-x="985" 
d="M920 35q41 0 90 49l30 -27q-80 -94 -196 -94q-59 0 -97 48t-12 177l201 1188q-45 104 -182 105q-76 0 -138.5 -47.5t-76.5 -122.5l-41 -242h299l-11 -63h-299l-182 -1100q-37 -203 -105.5 -284t-232.5 -81q-57 0 -114.5 23.5t-57.5 73.5q0 55 60 55q41 0 81.5 -43
t83.5 -43q45 0 86 37t54 106l211 1256h-164l12 63h162l16 100q31 182 135.5 279.5t249.5 97.5q131 0 201 -73q55 33 90 75l19 -6l-236 -1339q-36 -168 64 -168z" />
    <glyph glyph-name="uniFB03" unicode="ffi" horiz-adv-x="1517" 
d="M1321 1546q135 0 209 -58t74 -126q0 -37 -21.5 -58.5t-60.5 -21.5q-35 0 -46.5 20.5t-11.5 51t-4 60.5t-37.5 50.5t-99.5 20.5q-125 0 -218 -81t-130 -261l-12 -74h297l-13 -63h-295l-217 -1309q-35 -201 -104.5 -283t-231.5 -82q-59 0 -116.5 23.5t-57.5 73.5
q0 55 62 55q41 0 81 -43t83 -43q47 0 87 37t52 106l244 1465h-359l-170 -1022q-37 -203 -105.5 -284t-232.5 -81q-57 0 -114.5 23.5t-57.5 72.5q0 55 60 56q41 0 81.5 -43t83.5 -43q45 0 86 36.5t54 106.5l196 1178h-256l13 63h256l59 361q57 344 287 344q55 0 109.5 -20.5
t54.5 -61.5q0 -23 -17.5 -37.5t-42.5 -14.5q-37 0 -70.5 34t-72.5 34q-80 0 -107 -137l-84 -502h359l8 45q33 205 166 318.5t303 113.5zM1450 35q43 0 92 49l31 -27q-80 -94 -199 -94q-57 0 -95 48t-11 177l112 652q8 47 -18.5 72.5t-65.5 31.5l7 35q14 2 37.5 7t83 39
t100.5 87l22 -8l-160 -901q-32 -168 64 -168z" />
    <glyph glyph-name="uniFB04" unicode="ffl" horiz-adv-x="1447" 
d="M1382 35q41 0 91 49l30 -27q-78 -94 -196 -94q-59 0 -97.5 48t-11.5 177l201 1188q-45 104 -182 105q-76 0 -138.5 -47.5t-77.5 -122.5l-40 -242h296l-10 -63h-297l-219 -1305q-35 -201 -104.5 -283t-231.5 -82q-59 0 -116.5 24t-57.5 73q0 55 60 55q41 0 81.5 -43
t83.5 -43q47 0 87 37t53 106l245 1461h-356l-170 -1022q-37 -203 -105.5 -284t-232.5 -81q-57 0 -114.5 23.5t-57.5 72.5q0 55 60 56q43 0 81.5 -43t81.5 -43q47 0 88 36.5t54 106.5l196 1178h-256l13 63h256l59 361q57 344 287 344q55 0 109.5 -20.5t54.5 -61.5
q0 -23 -17.5 -37.5t-42.5 -14.5q-37 0 -70.5 34t-72.5 34q-80 0 -107 -137l-84 -502h359l16 100q31 182 135.5 279.5t249.5 97.5q131 0 201 -73q55 33 90 75l18 -6l-235 -1339q-37 -168 63 -168z" />
    <glyph glyph-name="T_h.liga" unicode="Th" horiz-adv-x="2123" 
d="M2218 86l29 -27q-84 -94 -203 -94q-25 0 -45.5 8.5t-42 32t-22.5 68.5t16 119l106 442q47 186 -10 295.5t-209 109.5q-147 0 -294.5 -157.5t-184.5 -380.5q-29 -166 -40 -291t-9 -168l2 -43h-148l242 1446q-164 -61 -408 -62q-45 0 -67 2l-217 -1245q-8 -47 16.5 -72.5
t63.5 -33.5l-7 -33h-323l6 33q102 18 119 106l223 1264q-25 4 -92.5 19.5t-111.5 22.5t-89 7q-201 0 -201 -123q0 -27 24 -61.5t24 -59.5q0 -74 -76 -73q-43 0 -68.5 35.5t-23.5 84.5q2 104 82.5 183.5t238.5 79.5q94 0 279.5 -34t275.5 -34q315 0 449 100l18 -8l-123 -698
h21q86 129 198.5 194.5t225.5 65.5q197 0 279.5 -126t31.5 -347l-105 -428q-47 -168 56 -168q41 0 94 49z" />
    <glyph glyph-name="f_j.liga" unicode="fj" horiz-adv-x="1001" 
d="M809 1546q135 0 209 -58t74 -126q0 -80 -82 -80q-35 0 -46.5 20.5t-11.5 51t-4 60.5t-37.5 50.5t-99.5 20.5q-125 0 -218 -81t-130 -261l-12 -74h301l-13 -63h-299l-153 -918q-37 -203 -105.5 -283.5t-232.5 -80.5q-57 0 -114.5 23.5t-57.5 72.5q0 55 59 55q41 0 81 -43
t83 -43q47 0 88 37t53 106l181 1074h-160l10 63h160l8 45q33 205 166 318.5t303 113.5zM791 979q14 2 37.5 7t83 39t100.5 87l22 -8l-205 -1194q-37 -203 -105.5 -284t-231.5 -81q-57 0 -115 23.5t-58 73.5q0 53 60 53q43 0 82 -42t82 -42q47 0 88 36t53 105l184 1088
q8 47 -18.5 72.5t-65.5 31.5z" />
    <glyph glyph-name="f_t.liga" unicode="ft" 
d="M1030 1004l-139 -789q-16 -86 9.5 -127t100.5 -41q74 0 140 23l8 -60q-90 -47 -201 -47q-104 0 -151 57.5t-21 200.5l137 787l-458 -2l-183 -1096q-35 -203 -104.5 -284t-230.5 -81q-57 0 -115 23.5t-58 73.5q0 53 60 53q41 0 82 -42t82 -42q47 0 88 36t53 105l209 1254
h-166l12 63h164l23 135q55 344 288 344q55 0 108.5 -20.5t53.5 -61.5q0 -23 -17.5 -36t-39.5 -13q-39 0 -73 34t-70 34q-78 0 -109 -137l-47 -279h360q94 43 137.5 105.5t86.5 199.5h45l-54 -307l293 2l-10 -63z" />
    <glyph glyph-name=".notdef" horiz-adv-x="1165" 
d="M246 0v1434h919v-1434h-919zM362 104h689v1225h-689v-1225z" />
    <glyph glyph-name="glyph1" horiz-adv-x="0" 
 />
    <glyph glyph-name="glyph2" horiz-adv-x="681" 
 />
    <glyph glyph-name="space" unicode=" " horiz-adv-x="614" 
 />
    <glyph glyph-name="exclam" unicode="!" horiz-adv-x="561" 
d="M326 332q53 350 61 624.5t21 352.5q25 156 121 155.5t71 -155.5q-12 -84 -83 -356.5t-124 -620.5h-67zM303 -37q-43 0 -70.5 30t-19.5 79q8 47 43 75.5t78 28.5q45 0 71.5 -28.5t20.5 -75.5q-8 -49 -44 -79t-79 -30z" />
    <glyph glyph-name="quotedbl" unicode="&#x22;" horiz-adv-x="716" 
d="M301 987q8 100 5 236.5t3 152.5q6 41 34 66.5t62.5 25.5t54 -25.5t13.5 -66.5q-6 -37 -46 -163t-65 -226h-61zM629 987q8 100 5 236.5t3 152.5q6 41 33.5 66.5t62.5 25.5t54.5 -25.5t13.5 -66.5q-6 -37 -46 -163t-65 -226h-61z" />
    <glyph glyph-name="numbersign" unicode="#" horiz-adv-x="1419" 
d="M254 0l186 432h-221l8 60h238l194 450h-268l8 59h285l188 433h68l-186 -433h329l187 433h67l-186 -433h223l-10 -59h-240l-194 -450h270l-8 -60h-287l-186 -432h-68l187 432h-330l-186 -432h-68zM532 492h330l195 450h-330z" />
    <glyph glyph-name="dollar" unicode="$" horiz-adv-x="1269" 
d="M924 1466q160 -10 257 -85.5t85 -159.5q-4 -29 -22.5 -48.5t-43.5 -19.5q-29 0 -43 25.5t-27.5 62.5t-37 74t-86 62.5t-160.5 25.5q-152 0 -262.5 -82t-128.5 -193q-18 -104 55.5 -183t259.5 -128q233 -63 337.5 -171.5t78.5 -276.5q-29 -174 -161 -281.5t-341 -120.5
l-37 -237h-94l37 237q-203 8 -324 101.5t-104 199.5q14 78 88 78q37 0 55.5 -32.5t30.5 -79t36.5 -91.5t93.5 -77.5t181 -32.5q174 0 294 86t140 225q16 109 -67.5 194t-284.5 134q-442 113 -391 438q23 143 158 243.5t331 112.5l37 238h97z" />
    <glyph glyph-name="percent" unicode="%" horiz-adv-x="1517" 
d="M428 713q-156 0 -244 114.5t-63 266.5q25 162 136.5 268t274.5 106q152 0 236 -110.5t61 -270.5q-23 -154 -135 -264t-266 -110zM326 0l907 1434h94l-907 -1434h-94zM434 772q100 0 176 92t95 221q20 133 -32 225.5t-151 92.5q-106 0 -182 -89t-96 -224
q-18 -127 35 -222.5t155 -95.5zM1133 -37q-158 0 -245 115t-65 266q25 162 137.5 268.5t274.5 106.5q152 0 236.5 -111.5t62.5 -269.5q-25 -154 -137 -264.5t-264 -110.5zM1137 23q100 0 177 92t95 221q18 133 -34 225t-150 92q-104 0 -181 -89t-98 -224q-18 -127 35.5 -222
t155.5 -95z" />
    <glyph glyph-name="ampersand" unicode="&#x26;" horiz-adv-x="1652" 
d="M1708 272q2 -152 -75 -229.5t-189 -77.5q-182 0 -303 221q-238 -221 -549 -221q-219 0 -350 128t-103 321q25 172 158 291.5t291 164.5l2 11q-80 41 -120 115.5t-26 158.5q18 135 129 224t273 89q152 0 240 -93t67 -226q-16 -102 -93 -184t-192 -111l-2 -12
q66 -20 116 -65.5t88 -117t59.5 -128t50.5 -148.5q8 -27 12 -39q133 186 166 408q8 57 -25 87.5t-78 39.5l5 34h309l-6 -34q-43 -8 -83 -43t-50 -95q-41 -272 -211 -473q43 -115 95 -177t136 -62q63 0 113.5 44t50.5 111q0 49 -21.5 80t-46 42t-46 35t-21.5 60
q0 31 25.5 52.5t60.5 21.5q72 0 107.5 -62.5t35.5 -140.5zM567 1151q-16 -100 41.5 -177t157.5 -77t174 73.5t88 176.5q16 106 -39 181t-153 75q-104 0 -178.5 -71.5t-90.5 -180.5zM645 35q260 0 465 211q-25 51 -63.5 148.5t-67.5 158.5t-71 131t-95 110t-119 52
q-57 -14 -120.5 -46t-129 -80t-113.5 -119t-61 -152q-31 -211 78 -312.5t297 -101.5z" />
    <glyph glyph-name="quotesingle" unicode="'" horiz-adv-x="397" 
d="M322 987q8 100 5 236.5t3 152.5q6 41 33.5 66.5t62.5 25.5t54.5 -25.5t13.5 -66.5q-6 -37 -46 -163t-65 -226h-61z" />
    <glyph glyph-name="parenleft" unicode="(" horiz-adv-x="663" 
d="M549 -449q-186 152 -283.5 417t-54.5 556q45 293 222 558.5t409 416.5l32 -47q-193 -127 -346 -391t-194 -536.5t33.5 -535.5t230.5 -390z" />
    <glyph glyph-name="parenright" unicode=")" horiz-adv-x="663" 
d="M16 -449l-32 48q193 127 346 391t194 536.5t-33.5 535.5t-230.5 390l49 47q186 -152 283.5 -417t54.5 -556q-45 -293 -222.5 -558t-408.5 -417z" />
    <glyph glyph-name="asterisk" unicode="*" horiz-adv-x="1089" 
d="M409.5 577.5q-18.5 14.5 -19.5 39t20 49.5q12 14 115.5 115.5t160.5 168.5l-4 25q-78 20 -208 39.5t-146 23.5q-27 8 -37 30t0 46q27 55 86 39q16 -4 132 -57.5t191 -77.5l23 16q6 88 3 217t-1 150q4 29 22.5 48t45 19t41 -17t12.5 -46q-2 -16 -35 -150.5t-43 -218.5
l18 -14q82 31 210 94.5t147 69.5q31 10 52.5 0t25.5 -35q14 -53 -52 -78q-16 -6 -152 -35.5t-220 -58.5l-11 -25q43 -63 125 -155t93 -109q14 -23 9 -47.5t-28 -40.5q-20 -16 -46 -13t-40 27q-10 14 -61.5 129t-89.5 181h-27q-55 -70 -131 -190t-90 -136q-18 -25 -45 -31
t-45.5 8.5z" />
    <glyph glyph-name="plus" unicode="+" horiz-adv-x="1280" 
d="M602 182l74 492h-490l15 88h489l74 489h88l-74 -489h492l-13 -88h-491l-74 -492h-90z" />
    <glyph glyph-name="comma" unicode="," horiz-adv-x="649" 
d="M401 176q55 0 79 -43t16 -102q-14 -100 -87 -229.5t-173 -211.5l-56 54q57 45 124 134t89 181l-4 6q-6 -2 -20 -2q-43 0 -70 30t-18 79q6 47 40.5 75.5t79.5 28.5z" />
    <glyph glyph-name="hyphen" unicode="-" horiz-adv-x="555" 
d="M160 453l14 88h414l-15 -88h-413z" />
    <glyph glyph-name="period" unicode="." horiz-adv-x="552" 
d="M287 -37q-43 0 -70 30t-18 79q6 47 40.5 75.5t79.5 28.5q43 0 70 -28.5t21 -75.5q-8 -49 -43 -79t-80 -30z" />
    <glyph glyph-name="slash" unicode="/" horiz-adv-x="1191" 
d="M213 -440l834 1935h67l-833 -1935h-68z" />
    <glyph glyph-name="zero" unicode="0" horiz-adv-x="1220" 
d="M606 -37q-139 0 -236.5 65.5t-137 171t-53 240.5t15.5 277q23 147 72.5 276t126.5 238.5t194 173t256 63.5t236.5 -64.5t137 -171t53 -240.5t-15.5 -275q-23 -147 -72.5 -277.5t-127.5 -240t-194 -173t-255 -63.5zM616.5 29q110.5 0 201.5 59t153.5 160.5t102.5 218.5
t61 250q25 127 18.5 250t-34 219t-101.5 156.5t-184.5 60.5t-202.5 -58.5t-153.5 -160t-101.5 -218t-61 -249.5q-25 -125 -18.5 -248t34 -221t101.5 -158.5t184.5 -60.5z" />
    <glyph glyph-name="one" unicode="1" horiz-adv-x="1038" 
d="M315 0l7 35q129 16 143 106l172 1096h-143l6 31l256 168h37l-205 -1295q-14 -90 102 -106l-6 -35h-369z" />
    <glyph glyph-name="two" unicode="2" horiz-adv-x="1159" 
d="M1186 1042q-20 -131 -85 -252.5t-144.5 -213t-196.5 -182.5t-214 -150.5t-224 -128.5v-4h208q104 0 192.5 17t139.5 43t88 51.5t49 43.5l15 17l43 -17l-129 -266h-793l4 37q66 51 186.5 139t199.5 145.5t181.5 148.5t167 171t119 185.5t70.5 215.5q29 172 -40 267.5
t-230 95.5q-154 0 -284 -89t-165 -241l-51 12q43 176 189.5 278.5t320.5 102.5q203 0 307.5 -120t75.5 -306z" />
    <glyph glyph-name="three" unicode="3" horiz-adv-x="1116" 
d="M492 -35q-166 0 -279 57.5t-98 149.5q16 90 102 90q31 0 49.5 -23.5t31.5 -57.5t31.5 -67.5t62.5 -57t110 -23.5q180 0 294.5 101.5t141.5 271.5q29 178 -62.5 283.5t-281.5 105.5h-41l12 65h56q158 0 254 80t114 193q16 109 -41 190.5t-209 81.5q-131 0 -237.5 -86
t-141.5 -234l-59 15q43 166 170 267t307 101q190 0 273.5 -97t64.5 -220q-35 -233 -280 -317l-2 -9q119 -31 187.5 -135t47.5 -237q-35 -209 -193.5 -348.5t-383.5 -139.5z" />
    <glyph glyph-name="four" unicode="4" 
d="M928 387l-39 -250q-6 -47 27.5 -71.5t76.5 -30.5l-4 -35h-373l5 35q43 6 91 33.5t54 70.5l39 248h-664l9 55l847 1010h101l-158 -995h252l-31 -70h-233zM246 457h569l129 813h-6l-692 -807v-6z" />
    <glyph glyph-name="five" unicode="5" horiz-adv-x="1118" 
d="M1071 1319h-627l-65 -418q92 33 268 33q242 0 344.5 -127t69.5 -328q-31 -195 -196 -352.5t-394 -157.5q-152 0 -246 38t-80 122q4 35 32 59.5t61 24.5q47 0 68.5 -28.5t26.5 -62.5t41 -62.5t107 -28.5q193 0 312.5 117.5t148.5 300.5q27 160 -64.5 263t-269.5 103
t-301 -57l-31 14l105 662h725z" />
    <glyph glyph-name="six" unicode="6" horiz-adv-x="1128" 
d="M780 932q227 0 317.5 -134t57.5 -337q-31 -201 -194.5 -348.5t-374.5 -147.5q-227 0 -330.5 176t-58.5 455q29 176 101.5 322.5t171.5 247t222 170t251 101t259 31.5l2 -55q-133 0 -255 -33.5t-240.5 -105.5t-213 -205t-145.5 -313h10q78 80 193.5 128t226.5 48z
M1026 461q29 178 -32.5 289.5t-225.5 111.5q-117 0 -246 -70.5t-205 -179.5q0 -2 -1 -8t-1 -10q-41 -256 23.5 -409.5t257.5 -153.5q164 0 282.5 124t147.5 306z" />
    <glyph glyph-name="seven" unicode="7" horiz-adv-x="1175" 
d="M440 1434h842l-6 -37q-664 -707 -768 -1352q-6 -39 -32.5 -61.5t-61.5 -22.5q-31 0 -52.5 24.5t-15.5 59.5q45 281 268.5 618.5t509.5 649.5v6h-299q-104 0 -193 -21.5t-141.5 -52.5t-89 -61.5t-51.5 -53.5l-14 -20l-43 16z" />
    <glyph glyph-name="eight" unicode="8" horiz-adv-x="1110" 
d="M559 -39q-221 0 -335.5 119t-94.5 252q25 154 127 248t266 159v11q-117 63 -173 147t-32 227q8 51 38 105.5t84.5 113t153.5 95.5t226 37q193 0 286 -96.5t73 -231.5q-23 -137 -114 -224t-237 -149l-2 -12q76 -31 125 -60.5t96.5 -75.5t63.5 -114t2 -156
q-25 -164 -178.5 -279.5t-374.5 -115.5zM729 803q160 61 253 136t112 196q20 123 -49.5 198.5t-235.5 75.5q-162 0 -258 -68.5t-117 -193.5q-10 -70 7.5 -125t66.5 -95t96 -65.5t125 -58.5zM569 27q186 0 297 95t127 202q12 78 -9 137t-76.5 101t-109 67.5t-136.5 60.5
q-31 12 -48 19q-168 -61 -269 -144.5t-124 -220.5q-18 -121 71 -219t277 -98z" />
    <glyph glyph-name="nine" unicode="9" horiz-adv-x="1118" 
d="M774 1468q227 0 330.5 -176t58.5 -454q-35 -219 -137 -391.5t-243.5 -274.5t-300 -155.5t-324.5 -53.5v53q131 0 254 34t241.5 107.5t213 207t145.5 313.5h-13q-78 -80 -193.5 -128t-225.5 -48q-225 0 -315.5 134t-57.5 337q31 197 194.5 346t372.5 149zM594 571
q113 0 244 72t206 182q0 4 1.5 8.5t1.5 6.5q20 162 8.5 286.5t-86 200.5t-205.5 76q-164 0 -283 -126t-145 -304q-31 -178 31.5 -290t226.5 -112z" />
    <glyph glyph-name="colon" unicode=":" horiz-adv-x="544" 
d="M403 735q-43 0 -69.5 30t-18.5 79q6 47 41 75.5t80 28.5q43 0 69.5 -28.5t20.5 -75.5q-8 -49 -43 -79t-80 -30zM287 -37q-43 0 -70 30t-18 79q6 47 40.5 75.5t79.5 28.5q43 0 70 -29.5t21 -74.5q-8 -49 -43 -79t-80 -30z" />
    <glyph glyph-name="semicolon" unicode=";" horiz-adv-x="624" 
d="M516 948q43 0 69.5 -28.5t20.5 -75.5q-8 -49 -43 -79t-80 -30q-43 0 -69.5 30t-18.5 79q6 47 41 75.5t80 28.5zM401 176q55 0 79 -43t16 -102q-14 -100 -87 -229.5t-173 -211.5l-56 54q57 45 124 134t89 181l-4 6q-6 -2 -20 -2q-43 0 -70 30t-18 79q6 47 40.5 75.5
t79.5 28.5z" />
    <glyph glyph-name="less" unicode="&#x3c;" horiz-adv-x="1261" 
d="M1092 262l-930 410l16 98l1059 410l-16 -97l-924 -360v-6l809 -359z" />
    <glyph glyph-name="equal" unicode="=" horiz-adv-x="1341" 
d="M248 877l12 88h1071l-14 -88h-1069zM186 471l13 88h1071l-15 -88h-1069z" />
    <glyph glyph-name="greater" unicode="&#x3e;" horiz-adv-x="1259" 
d="M190 262l15 96l923 359v6l-809 360l17 97l928 -410l-17 -98z" />
    <glyph glyph-name="question" unicode="?" horiz-adv-x="931" 
d="M342 332l55 377h68q94 0 164.5 7t150.5 26.5t124 67.5t44 120q-2 150 -118.5 304.5t-241.5 154.5q-55 0 -88 -27t-45.5 -57.5t-41 -57t-75.5 -26.5q-31 0 -54.5 24.5t-23.5 61.5q0 80 74 120.5t184 40.5q152 0 281 -99t194.5 -232t67.5 -256q0 -90 -48 -152.5
t-139.5 -94.5t-192.5 -46.5t-235 -16.5l-36 -239h-68zM326 -37q-45 0 -72 30t-18 79q6 45 41.5 74.5t78.5 29.5q45 0 72 -28.5t18 -75.5q-8 -49 -42.5 -79t-77.5 -30z" />
    <glyph glyph-name="at" unicode="@" horiz-adv-x="1951" 
d="M991 -354q-387 0 -608 236.5t-160 649.5q35 231 192.5 434t398.5 326t499 123q340 0 531.5 -187.5t142.5 -514.5q-39 -264 -226.5 -446.5t-412.5 -182.5q-135 0 -136 119h-8q-135 -119 -301 -119q-121 0 -187.5 70.5t-65.5 179t48 237.5q68 170 225.5 292t338.5 122
q147 0 196 -92h12l39 92h121l-272 -678q-31 -57 -25 -108.5t78 -51.5q160 0 320.5 167t195.5 399q25 162 -15 287.5t-130 201.5t-211 115t-264 39q-354 0 -658.5 -245t-355.5 -579q-57 -379 144.5 -603t563.5 -224q195 0 394 76l16 -55q-199 -80 -420 -80zM938 143
q164 0 297 158l197 496q-16 129 -179 129q-266 0 -424 -391q-153 -392 109 -392z" />
    <glyph glyph-name="A" unicode="A" horiz-adv-x="1208" 
d="M1120 137q16 -90 109 -104l-6 -33h-318l6 33q96 18 82 104l-57 307h-569l-166 -307q-45 -86 45 -104l-6 -33h-271l6 33q98 16 146 104l616 1151q-37 20 -75 25l6 35q106 59 196 112h13zM418 543h502l-119 643q-2 20 -13 39h-4z" />
    <glyph glyph-name="B" unicode="B" horiz-adv-x="1343" 
d="M1370 1085q-16 -98 -93 -179t-198 -126l-2 -10q135 -47 200.5 -148.5t45.5 -226.5q-35 -193 -186.5 -305.5t-415.5 -112.5q-111 0 -274.5 11.5t-221.5 11.5h-162l7 33q102 18 118 106l203 1153q16 88 -80 107l6 35h613q229 0 347 -101t93 -248zM918 1366q-264 0 -392 -16
l-96 -543h428q156 0 261.5 81t125.5 195q20 123 -63.5 203t-263.5 80zM1198 395q25 147 -72.5 245.5t-283.5 98.5h-424l-117 -657q61 -4 152.5 -12.5t156 -13.5t121.5 -5q199 0 318.5 91t148.5 253z" />
    <glyph glyph-name="C" unicode="C" horiz-adv-x="1288" 
d="M727 -37q-293 0 -430 220t-78 548q55 311 272.5 524t524.5 213q193 0 305.5 -93t91.5 -204q-6 -39 -32.5 -70.5t-61.5 -31.5q-41 0 -59.5 24.5t-18.5 61.5t-7 81t-23.5 81t-73 61.5t-150.5 24.5t-190.5 -41t-185.5 -121t-157.5 -213t-97.5 -299q-61 -346 64 -523
t352 -177q291 0 498 360l47 -35q-205 -391 -590 -391z" />
    <glyph glyph-name="D" unicode="D" horiz-adv-x="1384" 
d="M813 1434q322 0 501 -212t122 -530q-51 -297 -269.5 -494.5t-513.5 -197.5h-590l7 33q102 18 118 106l203 1153q16 88 -82 107l6 35h498zM1307 664q55 322 -86.5 513t-436.5 191q-158 0 -258 -14l-221 -1252q139 -35 346 -34q262 0 437.5 176t218.5 420z" />
    <glyph glyph-name="E" unicode="E" horiz-adv-x="1228" 
d="M831 1366q-172 0 -305 -18l-90 -504l4 -4q68 51 142 51q80 0 220 -68.5t197 -68.5q66 0 106 20.5t95 71.5l23 -25q-53 -70 -123 -112.5t-131 -42.5q-84 0 -219.5 67.5t-212.5 67.5q-61 0 -115 -35l-119 -676q150 -23 393 -22q106 0 198.5 21.5t147 53t92 63.5t54.5 52
l14 23l43 -15l-121 -295h-12q-72 29 -248 29h-801l7 33q102 18 118 106l203 1153q16 88 -82 107l6 35h934l74 -224l-47 -14q-2 6 -9 18.5t-40 41t-77 51t-129.5 41t-189.5 18.5z" />
    <glyph glyph-name="F" unicode="F" horiz-adv-x="1087" 
d="M1245 1434l74 -224l-47 -14q-2 6 -9.5 18.5t-40 41t-76.5 51t-129 41t-190 18.5q-190 0 -301 -18l-100 -564l6 -4q63 49 133 49q80 0 220.5 -68.5t197.5 -68.5q66 0 105.5 20.5t95.5 71.5l22 -24q-53 -70 -122.5 -113t-131.5 -43q-84 0 -219 67.5t-213 67.5
q-57 0 -108 -30l-101 -570q-6 -47 18.5 -72.5t63.5 -33.5l-6 -33h-324l7 33q102 18 118 106l203 1153q16 88 -80 107l4 35h930z" />
    <glyph glyph-name="G" unicode="G" horiz-adv-x="1392" 
d="M1147 717h334l-6 -35q-102 -14 -119 -107l-103 -575h-63l-19 164h-6q-176 -201 -438 -201q-293 0 -430 220t-78 548q55 311 272.5 524t524.5 213q193 0 305.5 -93t91.5 -204q-6 -39 -32.5 -70.5t-61.5 -31.5q-41 0 -59.5 24.5t-18.5 61.5t-7 81t-23.5 81t-72 61.5
t-149.5 24.5t-191.5 -41t-186.5 -121t-157.5 -213t-97.5 -299q-61 -346 64 -523t352 -177q238 0 410 260l51 286q8 47 -21.5 74t-70.5 33z" />
    <glyph glyph-name="H" unicode="H" horiz-adv-x="1419" 
d="M1255 1434h324l-6 -35q-102 -18 -119 -107l-203 -1153q-8 -47 17.5 -72.5t64.5 -33.5l-6 -33h-326l7 33q102 18 118 106l107 596h-815l-105 -596q-8 -47 17.5 -72.5t64.5 -33.5l-6 -33h-326l7 33q102 18 118 106l205 1153q16 88 -82 107l6 35h324l-6 -35
q-102 -18 -119 -107l-80 -458h813l82 458q8 47 -17.5 73t-64.5 34z" />
    <glyph glyph-name="I" unicode="I" horiz-adv-x="473" 
d="M63 0l7 33q102 18 118 106l203 1153q16 88 -80 107l4 35h326l-6 -35q-102 -18 -119 -107l-205 -1153q-6 -47 18.5 -72.5t63.5 -33.5l-6 -33h-324z" />
    <glyph glyph-name="J" unicode="J" horiz-adv-x="432" 
d="M-150 -377q-123 0 -177 53.5t-44 106.5q8 41 35 65.5t60 24.5q39 0 58 -28.5t24.5 -61.5t27 -61.5t62.5 -28.5q102 0 166.5 82t101.5 297l215 1220q16 88 -80 107l4 35h326l-6 -35q-102 -18 -119 -107l-215 -1220q-81 -449 -439 -449z" />
    <glyph glyph-name="K" unicode="K" horiz-adv-x="1361" 
d="M1366 1468q117 0 174 -46t47 -122q-4 -35 -31.5 -57t-60.5 -22q-43 0 -64.5 28.5t-27.5 62.5t-31.5 62.5t-75.5 28.5q-160 0 -559 -506l469 -758q51 -88 158 -106l-2 -33h-344l2 33q37 8 50 31.5t-11 74.5l-406 643h-6q-98 -125 -287 -379l-47 -264q-8 -47 16.5 -72.5
t63.5 -33.5l-6 -33h-324l7 33q102 18 118 106l203 1153q16 88 -80 107l6 35h324l-6 -35q-102 -18 -119 -107l-117 -661h7q139 193 239 317.5t229.5 256.5t251 197.5t240.5 65.5z" />
    <glyph glyph-name="L" unicode="L" horiz-adv-x="1058" 
d="M1151 281l43 -15l-121 -295h-10q-72 29 -250 29h-750l7 33q102 18 118 106l203 1153q16 88 -82 107l6 35h326l-6 -35q-102 -18 -119 -107l-215 -1210q115 -14 344 -14q109 0 200 21.5t145 53t93 63.5t54 52z" />
    <glyph glyph-name="M" unicode="M" horiz-adv-x="1593" 
d="M831 -37q-84 0 -125.5 58.5t-41.5 136.5q0 219 268 563q-86 344 -270 594h-7l-379 -1176q-27 -90 64 -106l-6 -33h-277l6 33q109 18 138 106l370 1153q29 90 -61 107l6 35h197q113 -145 193.5 -309t111.5 -283h6q31 37 139.5 172t199.5 232t202 188h204l-6 -35
q-98 -18 -100 -107l-35 -1153q0 -47 30 -72.5t71 -33.5l-7 -33h-323l6 33q98 18 100 106l35 1168h-8q-78 -72 -153.5 -154t-122 -136t-117 -140t-101.5 -123q45 -160 45 -334q0 -106 -26.5 -207.5t-86 -175.5t-139.5 -74zM831 29q53 0 94.5 82t41.5 223q0 166 -17 282h-6
q-182 -260 -182 -458q0 -57 19 -93t50 -36z" />
    <glyph glyph-name="N" unicode="N" horiz-adv-x="1302" 
d="M1225 1434h268l-6 -35q-102 -18 -119 -107l-227 -1292h-94q-29 145 -94.5 282.5t-139.5 246t-147.5 215t-133 231.5t-81.5 254h-9l-192 -1090q-8 -47 17.5 -72.5t64.5 -33.5l-6 -33h-269l6 33q102 18 119 106l203 1153q16 88 -82 107l6 35h201q31 -164 125 -345.5
t189.5 -313.5t178 -291.5t97.5 -288.5h6l194 1097q16 88 -81 107z" />
    <glyph glyph-name="O" unicode="O" horiz-adv-x="1505" 
d="M768 -37q-195 0 -335 108.5t-197.5 281.5t-22.5 370q57 324 277.5 534.5t525.5 210.5q285 0 437.5 -221t96.5 -536q-53 -307 -273 -527.5t-509 -220.5zM776 31q233 0 415.5 199.5t231.5 480.5q49 287 -69.5 489.5t-347.5 202.5q-250 0 -431.5 -192.5t-232.5 -489.5
q-31 -178 11 -336t153.5 -256t269.5 -98z" />
    <glyph glyph-name="P" unicode="P" horiz-adv-x="1292" 
d="M932 1434q264 0 399 -141.5t99 -348.5q-39 -217 -222.5 -358.5t-459.5 -141.5q-193 0 -367 82l-68 -387q-8 -47 17.5 -72.5t64.5 -33.5l-6 -33h-326l7 33q102 18 118 106l205 1153q16 88 -82 107l6 35h615zM1305 946q31 180 -85 300t-333 120q-227 0 -365 -33l-125 -721
q176 -100 357 -100q225 0 371.5 122t179.5 312z" />
    <glyph glyph-name="Q" unicode="Q" horiz-adv-x="1617" 
d="M1343 -377q-90 0 -168.5 30t-146 90t-111 108.5t-104.5 128.5q-18 23 -27 34q-205 -51 -352 -51q-127 0 -208 55.5t-81 153.5q0 100 82 154.5t183 54.5q137 0 242.5 -69.5t213.5 -192.5q127 49 232.5 113.5t200 156.5t146.5 219t52 277q0 225 -140 371.5t-374 146.5
q-266 0 -432 -160t-166 -389q0 -158 87 -258t257 -100q147 0 244.5 81.5t97.5 186.5q0 53 -26.5 80.5t-57.5 34t-57.5 29t-26.5 65.5q0 35 27.5 62.5t75.5 27.5q70 0 115.5 -58.5t45.5 -158.5q0 -182 -122.5 -301t-315.5 -119q-195 0 -309.5 121t-114.5 307q0 256 195.5 435
t482.5 179q305 0 474 -166.5t169 -427.5q0 -553 -708 -817v-4q18 -23 64 -81t68.5 -85.5t64.5 -72.5t74 -65.5t73 -38t81 -17.5q70 0 114 24.5t64.5 59.5t35 69.5t37 59t59.5 24.5q41 0 66.5 -23.5t25.5 -64.5q0 -96 -127.5 -157.5t-274.5 -61.5zM434 33q133 0 301 41v6
q-182 231 -325 231q-82 0 -135.5 -37.5t-53.5 -101t57.5 -101.5t155.5 -38z" />
    <glyph glyph-name="R" unicode="R" horiz-adv-x="1318" 
d="M1221 305q4 -152 37.5 -205t140.5 -55l2 -35q-61 -27 -111 -26q-41 0 -69.5 7t-60.5 30.5t-48 79t-14 139.5q2 240 -59.5 316.5t-268.5 76.5l-371 2l-86 -496q-8 -47 16.5 -72.5t63.5 -33.5l-6 -33h-324l7 33q102 18 118 106l203 1153q16 88 -80 107l6 35h584
q264 0 397.5 -103.5t98.5 -296.5q-25 -141 -125.5 -234t-263.5 -130l-2 -6q59 0 99 -19.5t61.5 -43t33.5 -81t14.5 -94.5t6.5 -121zM874 1366q-236 0 -350 -25l-112 -636h370q209 0 335 88t155 243q27 154 -82 242t-316 88z" />
    <glyph glyph-name="S" unicode="S" horiz-adv-x="1302" 
d="M684 -35q-276 0 -416.5 116t-117.5 243q14 80 92 79q43 0 68.5 -27.5t33.5 -69.5t27.5 -90t49.5 -90t101.5 -69.5t177.5 -27.5q168 0 275.5 71.5t132.5 202.5q27 156 -67.5 248t-290.5 158q-84 29 -141.5 52t-121 62t-98.5 82t-52.5 106.5t-2.5 139.5q23 133 169 225
t345 92q236 0 373 -120.5t116 -233.5q-12 -74 -67 -74q-45 0 -67.5 28t-28 68t-21.5 88t-42 88t-97.5 67.5t-179.5 27.5q-154 0 -260.5 -72.5t-124.5 -191.5q-10 -66 11 -117t74.5 -90t112 -64.5t148.5 -54.5q102 -33 179 -71.5t146.5 -96t98 -140.5t10.5 -185
q-31 -170 -179.5 -264.5t-365.5 -94.5z" />
    <glyph glyph-name="T" unicode="T" horiz-adv-x="1097" 
d="M1294 1468l39 -301l-47 -16q-2 8 -7 22.5t-33.5 52.5t-69.5 65.5t-123 51t-187 23.5h-41l-215 -1225q-8 -47 16.5 -73.5t63.5 -32.5l-6 -35h-324l7 35q102 14 118 106l217 1225h-40q-104 0 -194.5 -22.5t-144 -54.5t-91 -62.5t-52.5 -52.5l-14 -23l-43 16l147 301h11
q70 -35 211 -34h569q139 0 221 34h12z" />
    <glyph glyph-name="U" unicode="U" horiz-adv-x="1341" 
d="M731 -35q-571 0 -446 647l121 680q8 47 -16.5 74t-63.5 33l6 35h332l-7 -35q-41 -6 -75.5 -33t-44.5 -74l-119 -680q-51 -264 21.5 -422.5t303.5 -158.5q127 0 220.5 45t150.5 130t90 181t53 225l115 672q8 41 -19.5 75t-68.5 40l6 35h281l-6 -37q-43 -6 -79 -38t-44 -75
l-115 -674q-23 -143 -61.5 -251.5t-106 -202t-175.5 -142.5t-253 -49z" />
    <glyph glyph-name="V" unicode="V" horiz-adv-x="1243" 
d="M1227 1434h272l-6 -35q-96 -10 -145 -103l-658 -1230q16 -18 41 -29l-8 -37q-74 0 -160 -27h-10l-246 1323q-10 49 -42 74t-66 29l6 35h317l-6 -35q-33 -4 -61.5 -30t-20.5 -73l203 -1101q4 -25 8 -37h12l609 1138q20 55 3.5 77t-48.5 26z" />
    <glyph glyph-name="W" unicode="W" horiz-adv-x="1912" 
d="M1898 1434h271l-6 -35q-96 -10 -140 -103l-596 -1233q12 -16 39 -26l-10 -37q-74 0 -162 -27h-10l-149 1133h-11l-503 -1043q18 -16 38 -26l-8 -37q-74 0 -162 -27h-12l-174 1323q-6 49 -38 74t-66 29l6 35h317l-6 -35q-33 -4 -62.5 -30t-23.5 -73l145 -1101l7 -37h4
l526 1089q-16 78 -74 105l9 37l153 79h10l170 -1273l6 -37h7l549 1138q23 47 3 73t-53 30z" />
    <glyph glyph-name="X" unicode="X" horiz-adv-x="1277" 
d="M1192 1434h301l-8 -35q-88 -10 -172 -107l-473 -538l321 -613q51 -96 135 -106l-6 -35h-352l6 35q41 6 64.5 32.5t1.5 73.5l-283 537h-8l-473 -537q-37 -53 -23.5 -76.5t51.5 -29.5l-6 -35h-299l6 35q88 10 172 106l539 615l-283 536q-47 96 -135 107l6 35h353l-4 -35
q-41 -6 -66 -33t0 -74l242 -461h10l405 461q37 53 24 77t-52 30z" />
    <glyph glyph-name="Y" unicode="Y" horiz-adv-x="1179" 
d="M420 0l6 35q102 14 119 106l98 564l-307 587q-51 96 -137 107l6 35h352l-4 -35q-41 -6 -65.5 -33t-0.5 -74l256 -487h13l430 487q37 53 23.5 77t-52.5 30l8 35h299l-8 -35q-88 -10 -172 -107l-516 -587l-100 -564q-8 -47 17.5 -73.5t64.5 -32.5l-7 -35h-323z" />
    <glyph glyph-name="Z" unicode="Z" horiz-adv-x="1230" 
d="M1006 -231q-109 0 -248.5 35.5t-249 79.5t-241.5 80t-230 36l6 33l1212 1333h-391q-111 0 -206 -27.5t-151 -66.5t-97 -78t-58 -68l-14 -26l-43 14l117 354h10q70 -35 215 -34h809l-6 -33l-1192 -1313q127 -27 399.5 -143.5t364.5 -116.5q90 0 140 26.5t50 71.5
q0 14 -20.5 48t-20.5 65q0 45 24.5 70.5t63.5 25.5q41 0 67.5 -28.5t26.5 -77.5q0 -109 -93.5 -184.5t-243.5 -75.5z" />
    <glyph glyph-name="bracketleft" unicode="[" horiz-adv-x="663" 
d="M135 -418l283 1886h411l-10 -67h-289l-262 -1751h289l-10 -68h-412z" />
    <glyph glyph-name="backslash" unicode="\" horiz-adv-x="942" 
d="M735 -440l-542 1935h67l543 -1935h-68z" />
    <glyph glyph-name="bracketright" unicode="]" horiz-adv-x="665" 
d="M51 -418l10 68h289l262 1751h-288l10 67h411l-282 -1886h-412z" />
    <glyph glyph-name="asciicircum" unicode="^" horiz-adv-x="1042" 
d="M219 860l455 574h63l283 -574h-59l-285 377l-400 -377h-57z" />
    <glyph glyph-name="underscore" unicode="_" horiz-adv-x="1169" 
d="M20 -176l15 67h1114l-14 -67h-1115z" />
    <glyph glyph-name="grave" unicode="`" horiz-adv-x="579" 
d="M584 1161l-162 176q-33 45 -27 74q4 25 24.5 42t49.5 17q43 0 63 -43l103 -231z" />
    <glyph glyph-name="a" unicode="a" horiz-adv-x="1204" 
d="M1124 35q39 0 93 49l28 -27q-78 -94 -196 -94q-59 0 -97.5 48t-11.5 177l6 35h-8q-74 -119 -178.5 -189.5t-212.5 -70.5q-180 0 -286.5 115t-106.5 311q0 176 71.5 337t217 269.5t331.5 108.5q182 0 297 -121h8l15 86h155q-59 -119 -96 -334l-94 -532q-37 -168 65 -168z
M977 397l82 477q-43 78 -118 119t-153 41q-244 0 -382 -194.5t-138 -464.5q0 -174 84 -258t211 -84t243 112.5t171 251.5z" />
    <glyph glyph-name="b" unicode="b" horiz-adv-x="1230" 
d="M860 1104q184 0 288.5 -124t104.5 -310q0 -289 -167.5 -498t-419.5 -209q-225 0 -332 178h-6l-90 -139h-37l225 1278q6 47 -19.5 73.5t-64.5 32.5l6 35q14 2 38 7.5t83 39t100 84.5l19 -6l-109 -620h10q57 76 155.5 127t215.5 51zM651 33q141 0 255 95t174.5 241.5
t60.5 306.5q0 166 -84 262t-213 96q-121 0 -228.5 -74.5t-162.5 -181.5l-93 -526q35 -86 113 -152.5t178 -66.5z" />
    <glyph glyph-name="c" unicode="c" horiz-adv-x="1130" 
d="M612 -37q-227 0 -361 158t-85 432q43 250 227.5 400.5t419.5 150.5q184 0 290.5 -92t90.5 -181q-4 -31 -24.5 -52t-51.5 -21q-70 0 -69 71q0 4 1 14.5t1 16.5q0 70 -65.5 126t-213.5 56q-160 0 -304 -146t-179 -337q-45 -258 57.5 -394t323.5 -136q119 0 237.5 90
t186.5 203l34 -19q-57 -135 -195.5 -237.5t-320.5 -102.5z" />
    <glyph glyph-name="d" unicode="d" horiz-adv-x="1204" 
d="M1122 35q43 0 92 49l29 -27q-78 -94 -196 -94q-59 0 -96.5 48t-10.5 177l6 35h-10q-74 -119 -178.5 -189.5t-212.5 -70.5q-180 0 -285.5 115t-105.5 311q0 176 71.5 337t217 269.5t331.5 108.5q180 0 295 -121h10l51 293q8 47 -18.5 73.5t-64.5 32.5l6 35q14 2 37.5 7.5
t83 39t100.5 84.5l22 -6l-237 -1339q-37 -168 63 -168zM977 399l82 471q-41 80 -117 122t-154 42q-166 0 -286.5 -95t-178 -242.5t-57.5 -321.5t85 -258t210 -84q127 0 244 113.5t172 252.5z" />
    <glyph glyph-name="e" unicode="e" horiz-adv-x="1136" 
d="M590 29q262 0 502 252l28 -29q-233 -289 -557 -289q-190 0 -304 111.5t-114 312.5q0 283 197 500t496 217q133 0 237.5 -61.5t104.5 -188.5q0 -104 -75 -178t-214 -117t-283.5 -65.5t-337.5 -34.5q-6 -43 -6 -90q0 -170 101.5 -255t224.5 -85zM813 1038
q-195 0 -343 -147.5t-191 -366.5q780 49 780 332q0 84 -67.5 133t-178.5 49z" />
    <glyph glyph-name="f" unicode="f" horiz-adv-x="616" 
d="M690 1548q55 0 108.5 -20.5t53.5 -61.5q0 -23 -17.5 -36t-39.5 -13q-39 0 -73 34t-71 34q-78 0 -108 -137l-47 -279h297l-11 -61l-297 -2l-182 -1096q-35 -203 -104.5 -284t-231.5 -81q-57 0 -114.5 23.5t-57.5 73.5q0 53 60 53q43 0 81.5 -42t81.5 -42q47 0 88 36
t54 105l209 1254h-166l12 63h164l22 135q56 344 289 344z" />
    <glyph glyph-name="g" unicode="g" horiz-adv-x="1236" 
d="M1325 1188q55 0 90 -27.5t35 -73.5q0 -33 -19.5 -57t-60.5 -24q-31 0 -73 31.5t-70 31.5q-49 0 -88 -63q129 -119 92 -334q-35 -193 -174 -303.5t-330 -110.5q-180 0 -285 94q-68 2 -109.5 -22.5t-49.5 -67.5q-14 -74 74.5 -116t371.5 -85q258 -41 352.5 -106.5
t94.5 -157.5q0 -117 -138.5 -184.5t-339.5 -67.5q-57 0 -122.5 6.5t-153.5 28t-153.5 55t-106.5 99t-29 149.5q10 66 57.5 114t110.5 66v9q-117 70 -94 190q12 63 61 102t113 48v10q-70 113 -43 274q33 188 177 298t339 110q145 0 242 -66q98 150 229 150zM1126 674
q27 168 -56 266t-232 98q-147 0 -259 -92t-137 -252q-27 -166 57.5 -269t239.5 -103q147 0 254.5 94t132.5 258zM397 29q-66 -12 -104.5 -55.5t-48.5 -98.5q-12 -74 37 -129t133 -83t158.5 -40t134.5 -12q164 0 275.5 51t111.5 121q0 61 -76 98t-305 74q-179 27 -316 74z
" />
    <glyph glyph-name="h" unicode="h" horiz-adv-x="1161" 
d="M1255 84l27 -27q-84 -94 -203 -94q-57 0 -92 48t0 177l105 445q47 186 -10.5 295.5t-209.5 109.5q-143 0 -286.5 -149.5t-188.5 -364.5l-8 -47q-16 -100 -26.5 -186t-13.5 -137.5t-4 -88t-1 -51.5l2 -14h-145l211 1276q14 47 -10.5 73.5t-65.5 32.5l6 35q14 2 36.5 7.5
t80 39t98.5 84.5l21 -8l-123 -696h20q86 129 197.5 194.5t226.5 65.5q197 0 280 -126t29 -347l-102 -428q-47 -168 53 -168q43 0 96 49z" />
    <glyph glyph-name="i" unicode="i" horiz-adv-x="483" 
d="M483 1307q-43 0 -71.5 29.5t-28.5 70.5q0 43 28.5 71.5t71.5 28.5t73 -28.5t30 -71.5q0 -41 -30 -70.5t-73 -29.5zM317 -37q-57 0 -95 48t-11 177l113 652q8 47 -18.5 72.5t-65.5 31.5l6 35q14 2 37.5 7t83 39t100.5 87l22 -8l-157 -901q-37 -168 61 -168q43 0 92 49
l31 -27q-80 -94 -199 -94z" />
    <glyph glyph-name="j" unicode="j" horiz-adv-x="405" 
d="M412 1307q-43 0 -72 29.5t-29 70.5q0 43 29 71.5t72 28.5t72.5 -28.5t29.5 -71.5q0 -41 -29.5 -70.5t-72.5 -29.5zM-125 -455q-57 0 -114.5 23.5t-57.5 73.5q0 53 59 53q41 0 81 -42t83 -42q47 0 88 36t54 105l184 1088q8 47 -18.5 72.5t-65.5 31.5l6 35q14 2 38 7t83 39
t100 87l23 -8l-205 -1194q-37 -203 -105.5 -284t-232.5 -81z" />
    <glyph glyph-name="k" unicode="k" horiz-adv-x="1079" 
d="M1145 84l31 -27q-63 -94 -179 -94q-106 0 -215.5 92t-182.5 206t-122 237q-53 -4 -78 -4q-59 -213 -53 -494h-145l211 1278q14 47 -10.5 73.5t-65.5 32.5l6 35q14 2 36.5 7.5t81 39t99.5 84.5l19 -8l-121 -686h20q188 250 461 250q61 0 113.5 -33t52.5 -112
q0 -121 -151.5 -248t-348.5 -187q229 -485 457 -485q45 0 84 43zM885 1008q-147 0 -272.5 -121t-196.5 -338q131 2 265 65.5t217 150.5t83 159q0 35 -23.5 59.5t-72.5 24.5z" />
    <glyph glyph-name="l" unicode="l" horiz-adv-x="485" 
d="M344 -37q-59 0 -97 48t-11 177l190 1088q8 47 -18.5 73.5t-65.5 32.5l6 35q14 2 39 7.5t84 39t100 84.5l21 -6l-236 -1339q-37 -168 64 -168q41 0 90 49l31 -27q-80 -94 -197 -94z" />
    <glyph glyph-name="m" unicode="m" horiz-adv-x="1726" 
d="M1800 84l29 -27q-88 -94 -205 -94q-57 0 -92 48t0 177l104 445q104 406 -157 405q-129 0 -254 -160.5t-166 -394.5q-25 -154 -38 -275.5t-13 -166.5v-43h-148l107 635q10 61 16 100t9 86t0 77t-12 59.5t-28.5 46t-49.5 26.5t-71 10q-129 0 -260 -158.5t-170 -381.5
q-27 -166 -40 -291t-13 -166v-43h-147l141 842q8 47 -18.5 72.5t-65.5 31.5l6 35q14 2 38 7t83 39t100 87l23 -8l-45 -260h12q172 260 383 260q137 0 193.5 -68.5t52.5 -208.5h12q164 276 389 277q362 0 250 -473l-104 -428q-47 -168 53 -168q43 0 96 49z" />
    <glyph glyph-name="n" unicode="n" horiz-adv-x="1181" 
d="M1255 84l29 -27q-88 -94 -205 -94q-57 0 -92 48t0 177l105 445q47 186 -10.5 295.5t-209.5 109.5q-145 0 -292.5 -157.5t-184.5 -380.5q-29 -166 -40 -291t-9 -168l2 -43h-147l141 842q8 47 -18.5 72.5t-65.5 31.5l6 35q14 2 38 7t83 39t100 87l23 -8l-49 -260h16
q86 129 198.5 194.5t225.5 65.5q197 0 280 -126t31 -347l-104 -428q-47 -168 55 -168q41 0 94 49z" />
    <glyph glyph-name="o" unicode="o" horiz-adv-x="1216" 
d="M627 -37q-244 0 -375 173t-88 417q41 236 223 393.5t414 157.5q238 0 365.5 -168t82.5 -414q-41 -242 -217 -400.5t-405 -158.5zM645 29q180 0 316.5 140t171.5 353q35 219 -66.5 367.5t-286.5 148.5q-182 0 -323.5 -139t-173.5 -348q-35 -215 67 -368.5t295 -153.5z" />
    <glyph glyph-name="p" unicode="p" horiz-adv-x="1193" 
d="M821 1104q184 0 288.5 -126t104.5 -312q0 -289 -168.5 -496t-420.5 -207q-227 0 -332 174h-4l-76 -416q-8 -47 16.5 -73.5t63.5 -32.5l-4 -35h-318l6 35q102 14 119 106l197 1119q8 47 -18.5 72.5t-65.5 31.5l6 35q14 2 40 7t86 39t101 87l21 -8l-33 -182h6
q57 74 161.5 128t223.5 54zM612 29q141 0 255 95t173.5 241.5t59.5 306.5q0 166 -83 262t-212 96q-119 0 -229.5 -72.5t-169.5 -175.5l-93 -510q29 -92 109.5 -167.5t189.5 -75.5z" />
    <glyph glyph-name="q" unicode="q" horiz-adv-x="1181" 
d="M973 -279q-8 -47 17.5 -73.5t64.5 -32.5l-6 -35h-316l6 35q102 14 119 106l90 504l-2 -2h-8q-74 -119 -178.5 -189.5t-212.5 -70.5q-180 0 -286.5 115t-106.5 311q0 176 71.5 337t217 269.5t331.5 108.5q100 0 185 -45t139 -111h4l72 119h36zM563 33q129 0 245 115.5
t171 257.5l84 475q-49 70 -124 111.5t-153 41.5q-164 0 -284.5 -96t-177 -242.5t-56.5 -320.5t84 -258t211 -84z" />
    <glyph glyph-name="r" unicode="r" horiz-adv-x="880" 
d="M850 1104q98 0 137 -37t33 -90q-4 -35 -35 -60.5t-76 -25.5q-49 0 -83.5 55t-86.5 55q-92 0 -194.5 -136t-149.5 -365q-25 -117 -36 -243t-11 -191v-68h-147l141 842q8 47 -18.5 72.5t-65.5 31.5l6 35q14 2 39 7t84 39t100 87l21 -8l-41 -219v2h12q90 104 188.5 160.5
t182.5 56.5z" />
    <glyph glyph-name="s" unicode="s" horiz-adv-x="1097" 
d="M600 -37q-209 0 -334 91t-110 184q12 76 80 75q41 0 60 -29.5t29.5 -71.5t30 -83t78 -70.5t156.5 -29.5q135 0 240.5 61.5t121.5 163.5q10 63 -10 107.5t-73.5 73t-98.5 41.5t-125 32q-406 84 -366 323q18 113 138 193t292 80q178 0 285.5 -80t95.5 -170q-14 -78 -72 -78
q-45 0 -60.5 26.5t-17.5 65.5t-14.5 78t-66.5 65.5t-154 26.5q-119 0 -210.5 -57t-105.5 -150q-8 -53 12.5 -91t65.5 -60.5t93 -36.5t108 -27q14 -2 22 -4q84 -18 148.5 -42.5t127 -65.5t90 -104.5t13.5 -145.5q-20 -117 -149.5 -204t-319.5 -87z" />
    <glyph glyph-name="t" unicode="t" horiz-adv-x="659" 
d="M418 -37q-104 0 -151.5 57.5t-20.5 200.5l137 783h-174l6 34q141 47 197.5 111.5t105.5 224.5h45l-53 -307l293 2l-10 -63l-293 -2l-142 -801q-16 -86 9.5 -127t101.5 -41q74 0 139 22l10 -47q-89 -47 -200 -47z" />
    <glyph glyph-name="u" unicode="u" horiz-adv-x="1177" 
d="M1249 84l31 -27q-80 -94 -199 -94q-57 0 -95 48t-11 177l6 35h-14q-86 -131 -199 -195.5t-223 -64.5q-211 0 -286 122t-5 351l131 428q57 168 -45 168q-41 0 -96 -51l-29 29q94 94 199 94q25 0 46 -8.5t43.5 -32t21.5 -68.5t-21 -118l-133 -443q-61 -193 -8 -299
t215 -106q143 0 283 157.5t177 380.5q29 166 40.5 291t8.5 166l-2 43h148l-137 -864q-37 -168 61 -168q43 0 92 49z" />
    <glyph glyph-name="v" unicode="v" horiz-adv-x="1218" 
d="M1171 1104q53 0 83 -41t30 -102q0 -109 -47 -283t-129 -316q-94 -164 -231.5 -281.5t-301.5 -117.5q-100 0 -183 76t-83 211q0 262 350 694l-6 12h-247q-174 4 -195 -90q-10 -47 31 -86l-33 -26q-86 59 -64 159q10 57 74 107.5t197 46.5h397l6 -12q-2 -4 -39 -54.5
t-52 -72t-55 -78.5t-60.5 -92t-54.5 -91.5t-53.5 -99.5t-40 -93t-29.5 -95t-9 -84q0 -248 221 -248q92 0 205 98.5t199 241.5q117 201 116 391q0 53 -46 111.5t-46 116.5q0 39 23.5 68.5t72.5 29.5z" />
    <glyph glyph-name="w" unicode="w" horiz-adv-x="1775" 
d="M1772 961q20 -86 0.5 -271.5t-76.5 -327.5q-66 -166 -179.5 -282.5t-277.5 -116.5q-90 0 -167 63.5t-91 176.5h-14q-178 -240 -392 -240q-100 0 -184 76t-84 211q0 264 352 694l-6 12h-239q-182 4 -203 -90q-10 -47 31 -86l-33 -26q-86 59 -64 159q10 57 74 107.5
t197 46.5h397l6 -12q-2 -4 -39 -54.5t-52 -72t-55 -78.5t-60.5 -92t-54.5 -91.5t-53.5 -99.5t-40 -93t-29.5 -95t-9 -84q0 -248 221 -248q98 0 212 120t187.5 277.5t73.5 268.5q0 53 -19.5 139t-19.5 143q0 41 24.5 75t74.5 34q43 0 68.5 -38t25.5 -95q0 -59 -43 -167
t-86 -243t-43 -266q0 -145 57.5 -196.5t145.5 -51.5q92 0 190 99.5t147 242.5q72 211 41 389q-8 51 -68.5 107.5t-64.5 115.5q-2 41 20.5 72t74.5 31q100 0 127 -143z" />
    <glyph glyph-name="x" unicode="x" horiz-adv-x="1218" 
d="M1210 1104q72 0 118 -39t46 -88q0 -35 -23.5 -60.5t-60.5 -25.5q-43 0 -65.5 27.5t-44 55t-58.5 27.5q-80 0 -192 -170q-98 -150 -164 -282l188 -346q82 -168 187 -168q63 0 98 49l31 -27q-51 -94 -166 -94q-182 0 -299 225l-125 232h-12q-47 -84 -138 -217
q-100 -145 -168.5 -192.5t-158.5 -47.5q-70 0 -117 39t-45 86q0 37 22.5 62.5t59.5 25.5q51 0 88 -56.5t80 -56.5q78 0 192 173q86 129 154 264l-184 340q-53 90 -160 104l-19 35q6 0 16.5 2t38 11t49 21.5t40 39t20.5 59.5l27 -8l256 -471h12q27 47 150 231
q98 145 168.5 192.5t158.5 47.5z" />
    <glyph glyph-name="y" unicode="y" horiz-adv-x="1271" 
d="M1159 1104q59 0 87 -42t22 -101q-18 -147 -149.5 -424t-248.5 -461l-51 -82q-135 -227 -246.5 -339t-230.5 -112q-55 0 -89 28t-34 71t28.5 67.5t65.5 24.5q27 0 66 -17.5t55 -17.5q98 0 153.5 56.5t157.5 226.5q10 18 17 26q-72 547 -179.5 776.5t-256.5 229.5
q-23 0 -59 -12.5t-52 -30.5l-29 26q63 94 191 95q178 0 303 -227.5t176 -684.5h12q78 131 122 211t92 199t61 217q6 49 -42 106.5t-42 108.5q4 37 32.5 59.5t67.5 22.5z" />
    <glyph glyph-name="z" unicode="z" horiz-adv-x="1337" 
d="M129 -37q-31 0 -31 31q0 45 48.5 95t113.5 75l873 680v12q-78 14 -229.5 98t-268.5 84q-57 0 -91 -25.5t-46.5 -61.5t-22.5 -71.5t-34.5 -61t-67.5 -25.5q-47 0 -80 25.5t-33 70.5q0 96 107.5 155.5t220.5 59.5q137 0 309 -51.5t291 -51.5q78 0 172 103h12l29 -33
q-59 -106 -115.5 -168.5t-142.5 -130.5l-760 -592v-12q135 -4 332.5 -70.5t292.5 -66.5q174 0 174 96q0 18 -23.5 57t-23.5 74q0 51 28.5 77.5t73.5 26.5t75.5 -30.5t30.5 -85.5q0 -121 -99 -202t-247 -81q-154 0 -332 44t-313 44q-76 0 -120 -22.5t-65.5 -44t-37.5 -21.5z
" />
    <glyph glyph-name="braceleft" unicode="{" horiz-adv-x="757" 
d="M637 -440q-197 0 -269.5 108.5t-11.5 311.5l97 311q29 92 -25.5 141t-177.5 49l14 94q123 0 191.5 49.5t68.5 141.5l-2 313q-4 201 101.5 310.5t302.5 109.5l-4 -39q-106 0 -188.5 -64.5t-80.5 -185.5l4 -344q0 -145 -78.5 -225t-187.5 -106l-2 -11q100 -29 155.5 -107.5
t10.5 -223.5l-106 -345q-37 -121 24.5 -185t167.5 -64z" />
    <glyph glyph-name="bar" unicode="|" horiz-adv-x="1427" 
d="M602 -446l291 1935h68l-291 -1935h-68z" />
    <glyph glyph-name="braceright" unicode="}" horiz-adv-x="798" 
d="M27 -440l4 39q106 0 188 64.5t80 184.5l-4 345q0 147 79 226t187 105l2 11q-100 29 -155.5 107.5t-10.5 223.5l107 344q37 121 -24.5 185.5t-168.5 64.5l4 39q197 0 269.5 -108.5t11.5 -311.5l-96 -311q-29 -92 25.5 -141t176.5 -49l-14 -95q-123 0 -191.5 -49
t-68.5 -141l2 -313q4 -201 -101 -310.5t-302 -109.5z" />
    <glyph glyph-name="asciitilde" unicode="~" horiz-adv-x="1015" 
d="M748 567q-66 0 -120.5 33t-85 72t-71.5 71.5t-82 32.5q-123 0 -147 -172h-56q39 262 258 262q66 0 121.5 -32.5t86 -70.5t71.5 -71t82 -33q125 0 149 170h52q-39 -262 -258 -262z" />
    <glyph glyph-name="uni00A0" unicode="&#xa0;" horiz-adv-x="614" 
 />
    <glyph glyph-name="exclamdown" unicode="&#xa1;" horiz-adv-x="583" 
d="M422 1251q-45 0 -71.5 29t-20.5 76q8 49 44 78.5t79 29.5t70.5 -29.5t19.5 -78.5q-8 -47 -43 -76t-78 -29zM227.5 -37q-96.5 0 -71.5 156q12 84 82.5 356.5t123.5 620.5h68q-53 -350 -61.5 -624.5t-20.5 -352.5q-24 -156 -120.5 -156z" />
    <glyph glyph-name="cent" unicode="&#xa2;" horiz-adv-x="1380" 
d="M946 1217q184 -2 289.5 -94.5t93.5 -180.5q-4 -29 -24.5 -50.5t-51.5 -21.5q-33 0 -47 30t-23 72t-29.5 83t-83 70.5t-167.5 29.5q-160 0 -302 -125t-169 -297q-35 -217 69.5 -329.5t301.5 -112.5q139 0 263 79t183 187l39 -14q-51 -125 -191.5 -228.5t-310.5 -111.5
l-32 -203h-97l33 207q-197 20 -304 147t-75 338q33 209 183.5 349.5t355.5 168.5l35 224h94z" />
    <glyph glyph-name="sterling" unicode="&#xa3;" 
d="M1153 1122q4 25 28.5 62t26.5 57q12 66 -58.5 115t-197.5 49q-143 0 -251.5 -96.5t-131.5 -235.5q-12 -94 23 -235h424l-15 -97h-385q59 -225 43 -338q-14 -82 -38 -143q41 -18 151.5 -74.5t171 -79t109.5 -22.5q80 0 137 43t70 117q14 94 -66 135l29 39q49 -23 75.5 -76
t18.5 -111q-20 -119 -96 -193.5t-207 -74.5q-43 0 -87 10.5t-96.5 38t-81 44t-93 59.5t-83.5 55q-131 -205 -358 -205q-98 0 -158.5 48t-44.5 145q14 90 93 141t176 51q117 0 266 -59q12 37 2 116.5t-17.5 112.5t-28 110t-28.5 111h-301l14 97h267q-14 102 0 192
q33 205 179 321.5t345 116.5q172 0 269.5 -92t78.5 -213q-6 -49 -33.5 -85t-72.5 -36q-31 0 -52.5 22.5t-15.5 57.5zM240 29q78 0 156.5 52t119.5 122q-129 74 -233 73q-76 0 -130.5 -32.5t-64.5 -93.5q-8 -55 35 -88t117 -33z" />
    <glyph glyph-name="currency" unicode="&#xa4;" horiz-adv-x="1517" 
d="M1247 299l-186 219q-129 -90 -287 -90t-258 90l-252 -217l-59 74l252 217q-74 113 -49 272q25 156 135 271l-185 219l84 71l185 -219q133 94 286 94q152 0 256 -94l256 221l62 -71l-258 -221q76 -115 51 -271q-25 -158 -137 -272l188 -219zM790.5 528q139.5 0 254 98.5
t135.5 237.5q23 139 -60.5 237.5t-222.5 98.5t-254 -99.5t-135 -236.5q-23 -139 60 -237.5t222.5 -98.5z" />
    <glyph glyph-name="yen" unicode="&#xa5;" horiz-adv-x="1173" 
d="M1110 1434h299l-6 -35q-90 -10 -172 -107l-430 -499h340l-15 -86h-399l-2 -2l-35 -222h402l-15 -86h-399l-41 -256q-8 -47 17.5 -73.5t64.5 -32.5l-4 -35h-324l4 35q102 14 117 106l41 256h-399l12 86h401l35 222l-2 2h-399l14 86h340l-272 499q-53 96 -138 107l5 35h352
l-4 -35q-39 -6 -63.5 -33t-0.5 -74l266 -487h13l420 487q27 33 26.5 57.5t-17 35t-38.5 14.5z" />
    <glyph glyph-name="brokenbar" unicode="&#xa6;" horiz-adv-x="1427" 
d="M772 686l121 803h68l-121 -803h-68zM602 -446l121 800h68l-121 -800h-68z" />
    <glyph glyph-name="section" unicode="&#xa7;" horiz-adv-x="970" 
d="M643 1403q-115 0 -210 -64.5t-111 -158.5q-10 -61 38 -104.5t92 -56.5t146 -36q16 -4 25 -6q201 -45 272 -90q135 -84 102 -269q-18 -98 -104 -184q70 -70 49 -182q-18 -113 -145 -201t-299 -88q-209 0 -320.5 78t-97.5 172q4 29 26.5 53.5t51.5 24.5q33 0 51 -19.5
t23.5 -48t20.5 -63.5t38.5 -63.5t83 -48t149.5 -19.5q113 0 199 63.5t102 159.5q8 47 -13 82t-64 55.5t-92.5 34.5t-108.5 27q-14 2 -23 4q-205 45 -278 92q-127 86 -96 266q14 96 96 193q-61 70 -41 174q18 113 144 200.5t298 87.5q168 0 271.5 -75.5t87.5 -163.5
q-12 -86 -82 -86q-43 0 -55.5 26.5t-12.5 65.5t-8 77t-58.5 64.5t-146.5 26.5zM575 868q-219 47 -296 107q-37 -61 -48 -121q-14 -82 40.5 -145.5t127 -93t170.5 -52.5q213 -49 283 -96q55 72 66 131q10 63 -15.5 110.5t-84 78t-113 48t-130.5 33.5z" />
    <glyph glyph-name="dieresis" unicode="&#xa8;" horiz-adv-x="798" 
d="M459 1294q-41 0 -63.5 27t-14.5 65q8 41 42 69t75 28t62.5 -28t12.5 -69q-8 -39 -40.5 -65.5t-73.5 -26.5zM776 1294q-41 0 -63.5 27t-14.5 65q10 41 43 69t74 28t62.5 -28t13.5 -69q-8 -39 -41 -65.5t-74 -26.5z" />
    <glyph glyph-name="copyright" unicode="&#xa9;" horiz-adv-x="1599" 
d="M819 -31q-309 0 -495.5 219.5t-141.5 528.5q31 203 157 375t313.5 272t389.5 100q309 0 496.5 -219t140.5 -528q-31 -203 -156.5 -375t-313 -272.5t-390.5 -100.5zM827.5 29q284.5 0 517 201.5t275.5 486t-129 486.5t-456.5 202t-517 -202t-275.5 -486
q-41 -285 130 -486.5t455.5 -201.5zM864 272q-180 0 -276 126t-67.5 323t163.5 322.5t315 125.5q45 0 112 -9t122 -9h35l18 -240l-29 -10q-39 111 -95 163t-165 52q-141 0 -228 -107.5t-113.5 -287.5t27.5 -287.5t196 -107.5q104 0 194 54t133 148l54 -18
q-124 -238 -396 -238z" />
    <glyph glyph-name="ordfeminine" unicode="&#xaa;" horiz-adv-x="630" 
d="M725 1022q16 0 33 16l12 -16q-39 -39 -96 -39q-76 0 -60 96v4h-2q-63 -100 -157 -100q-76 0 -121 48t-45 134q0 117 73.5 210t188.5 93q80 0 121 -51h4l10 51h94q-29 -57 -49 -178l-35 -196q-16 -72 29 -72zM477 1030q47 0 90 41t64 96l35 199q-33 57 -101 57
q-92 0 -145 -78.5t-53 -183.5q0 -66 31.5 -98.5t78.5 -32.5zM266 834l13 57h442l-12 -57h-443z" />
    <glyph glyph-name="guillemotleft" unicode="&#xab;" horiz-adv-x="978" 
d="M471 39l-328 397l15 84l444 398l29 -21l-320 -420l195 -418zM846 39l-326 397l12 84l447 398l27 -21l-318 -420l193 -418z" />
    <glyph glyph-name="logicalnot" unicode="&#xac;" horiz-adv-x="1290" 
d="M1090 489l84 394h-988l19 88h1075l-102 -482h-88z" />
    <glyph glyph-name="uni00AD" unicode="&#xad;" horiz-adv-x="561" 
d="M160 451l20 90h414l-21 -90h-413z" />
    <glyph glyph-name="registered" unicode="&#xae;" horiz-adv-x="899" 
d="M641 1466q166 0 266.5 -117.5t75.5 -283.5q-25 -164 -161 -281.5t-302 -117.5t-266 117.5t-76 281.5q27 166 162 283.5t301 117.5zM923.5 1065q20.5 143 -63.5 242.5t-227.5 99.5t-258 -99.5t-136.5 -242.5q-20 -143 64.5 -241.5t228 -98.5t258 98.5t135 241.5zM756 946
q2 -29 5 -41t13 -21.5t33 -9.5l-2 -20q-31 -10 -62 -10q-80 0 -81 84q-2 68 -23 88t-80 20h-57l-19 -118q-4 -41 27 -48l-6 -18h-146v18q33 8 39 48l45 305q6 39 -24 47l6 20h219q84 0 127 -31.5t35 -91.5q-12 -92 -125 -116l-2 -7q43 -2 58.5 -25.5t19.5 -72.5zM610 1253
q-49 0 -75 -6l-27 -168h82q113 0 127 84q6 43 -23 66.5t-84 23.5z" />
    <glyph glyph-name="macron" unicode="&#xaf;" horiz-adv-x="798" 
d="M365 1319l20 92h504l-21 -92h-503z" />
    <glyph glyph-name="degree" unicode="&#xb0;" horiz-adv-x="628" 
d="M414 1059q-86 0 -132 60.5t-30 142.5q18 86 91 146t159 60q84 0 132 -60t30 -146q-16 -82 -91 -142.5t-159 -60.5zM428 1118q61 0 111.5 41t62.5 103q14 63 -19.5 105t-93 42t-109.5 -42t-65 -105q-12 -61 21 -102.5t92 -41.5z" />
    <glyph glyph-name="plusminus" unicode="&#xb1;" horiz-adv-x="1433" 
d="M719 184l104 494h-493l18 90h494l104 492h88l-104 -492h493l-18 -90h-494l-104 -494h-88zM186 0l15 74h1075l-14 -74h-1076z" />
    <glyph glyph-name="uni00B2" unicode="&#xb2;" horiz-adv-x="423" 
d="M559 1278q-18 -111 -104 -188.5t-219 -149.5v-2h94q45 0 88 16.5t63 32.5l21 17l16 -9l-55 -123h-324l4 35q16 12 68.5 50t75 55.5t64.5 54.5t61.5 64.5t40 66.5t26.5 80q10 61 -15.5 95t-80.5 34q-53 0 -100 -35t-60 -96l-26 6q16 74 74.5 117t131.5 43q80 0 123 -45
t33 -119z" />
    <glyph glyph-name="uni00B3" unicode="&#xb3;" horiz-adv-x="409" 
d="M291 858q-63 0 -109.5 24.5t-40.5 63.5q8 43 47 43q18 0 28.5 -14t15 -32.5t20.5 -33t45 -14.5q127 0 152 135q10 66 -22 105t-99 39h-19l6 32h21q55 0 89 30t40 73q6 41 -14.5 69.5t-73.5 28.5q-47 0 -85 -32t-50 -87l-29 6q16 68 68.5 108t124.5 40q76 0 110.5 -37
t28.5 -86q-14 -90 -111 -123v-4q49 -10 77 -50t19 -93q-14 -82 -78.5 -136.5t-160.5 -54.5z" />
    <glyph glyph-name="acute" unicode="&#xb4;" horiz-adv-x="587" 
d="M461 1161l-35 37l201 229q39 43 80 43q29 0 41 -18t8 -41q-6 -33 -60 -74z" />
    <glyph glyph-name="mu" unicode="&#xb5;" horiz-adv-x="1234" 
d="M1176 39q37 0 88 27l8 -60q-70 -41 -162 -41q-135 0 -100 176l2 9h-8q-53 -57 -94.5 -91t-112 -64t-150.5 -30q-170 0 -248 72l-8 -6q-2 -76 6.5 -183.5t-0.5 -142.5q-10 -49 -45 -80t-75.5 -31t-61 31t-10.5 80l139 649q0 8 4 25l119 565h115l-119 -567
q-41 -186 11 -266t200 -80q127 0 231.5 81t141.5 207l59 275v2l74 348h114l-164 -778q-28 -127 46 -127z" />
    <glyph glyph-name="paragraph" unicode="&#xb6;" 
d="M516 -391q-129 0 -212 52t-73 120q6 39 31 62.5t57 23.5q35 0 61 -25.5t40 -57.5t53 -57.5t100 -25.5q309 0 371 416l92 610q-193 0 -288 98.5t-70 253.5q25 158 144.5 256.5t279.5 98.5h262l-4 -35q-104 -18 -117 -107l-176 -1175q-39 -250 -189.5 -379t-361.5 -129z
" />
    <glyph glyph-name="periodcentered" unicode="&#xb7;" horiz-adv-x="557" 
d="M369 737q-45 0 -70 30t-14 79q10 45 47 73.5t82 28.5q43 0 67.5 -28.5t14.5 -73.5q-10 -49 -47 -79t-80 -30z" />
    <glyph glyph-name="cedilla" unicode="&#xb8;" horiz-adv-x="763" 
d="M289 -469q-96 0 -150.5 31.5t-44.5 75.5q4 27 24.5 44t47.5 17q31 0 43 -17.5t14 -39t22.5 -39t65.5 -17.5q135 0 162 107q8 37 -13.5 60.5t-66.5 23.5q-63 0 -106 -37l-39 20l170 271l57 -23l-96 -151q37 12 70 12q80 0 120.5 -39t24.5 -111q-14 -74 -98 -131t-207 -57z
" />
    <glyph glyph-name="uni00B9" unicode="&#xb9;" horiz-adv-x="221" 
d="M139 872v19q55 10 62 51l63 404h-55v18l125 70h24l-77 -492q-6 -41 41 -51l-5 -19h-178z" />
    <glyph glyph-name="ordmasculine" unicode="&#xba;" horiz-adv-x="702" 
d="M543 981q-106 0 -161.5 71.5t-39.5 178.5q16 102 93 168.5t179 66.5q104 0 158.5 -70.5t38.5 -175t-91 -172t-177 -67.5zM551 1020q68 0 118 57.5t62 143.5q14 88 -21.5 147t-103 59t-120 -56t-64.5 -142q-14 -88 21.5 -148.5t107.5 -60.5zM285 834l12 57h442l-12 -57
h-442z" />
    <glyph glyph-name="guillemotright" unicode="&#xbb;" horiz-adv-x="978" 
d="M150 39l-27 20l317 420l-192 418l35 21l325 -398l-12 -84zM526 39l-28 20l319 420l-194 418l34 21l328 -398l-14 -84z" />
    <glyph glyph-name="onequarter" unicode="&#xbc;" horiz-adv-x="933" 
d="M692 893l-4 -19h-180l4 19q55 10 61 49l86 404h-55l2 18l127 70h25l-105 -492q-6 -39 39 -49zM260 754h619l-17 -70h-618zM623 555l-78 -375h92l-19 -37h-81l-17 -75q-10 -39 39 -50l-2 -18h-182l2 18q53 10 63 50l17 75h-250l6 29l350 383h60zM264 180h201l57 275h-2
l-256 -273v-2z" />
    <glyph glyph-name="onehalf" unicode="&#xbd;" horiz-adv-x="880" 
d="M664 893l-5 -19h-180l4 19q55 10 62 49l86 404h-56l3 18l127 70h24l-104 -492q-6 -39 39 -49zM231 754h619l-16 -70h-619zM502 569q80 0 121 -46t24 -120q-23 -111 -114 -189.5t-228 -147.5v-3h103q45 0 89 16.5t64 33.5l23 16l16 -6l-70 -137h-6q-37 14 -90 14h-227
l6 35q12 8 61.5 42t67.5 47t58 45t59.5 53.5t45 52t40 62.5t22.5 66q14 61 -8 96.5t-78 35.5q-53 0 -102 -36t-66 -96l-26 5q18 74 80.5 117.5t134.5 43.5z" />
    <glyph glyph-name="threequarters" unicode="&#xbe;" horiz-adv-x="950" 
d="M600 866q-66 0 -110 23.5t-35 62.5q10 43 51 43q18 0 27.5 -14t12.5 -31.5t18.5 -32t43.5 -14.5q61 0 103.5 37t54.5 98q14 66 -15.5 104t-97.5 38h-16l8 34h21q53 0 89 30t44 73q8 39 -11.5 67.5t-72.5 28.5q-47 0 -86 -30.5t-56 -86.5l-28 4q23 70 77 110t126 40
q76 0 108.5 -37t22.5 -88q-18 -88 -117 -121v-4q49 -10 73.5 -51t14.5 -94q-18 -80 -86 -134.5t-164 -54.5zM276 754h619l-16 -70h-619zM639 555l-78 -375h92l-18 -37h-82l-16 -75q-10 -39 38 -50l-2 -18h-182l2 18q53 10 64 50l16 75h-250l6 29l351 383h59zM281 180h200
l58 275h-2l-256 -273v-2z" />
    <glyph glyph-name="questiondown" unicode="&#xbf;" horiz-adv-x="972" 
d="M723 1255q-45 0 -71.5 29t-18.5 76q8 49 43 78.5t78 29.5q45 0 71.5 -29.5t18.5 -78.5q-6 -45 -42 -75t-79 -30zM561 -37q-152 0 -280.5 99.5t-194.5 232.5t-68 256q0 90 48.5 152.5t139.5 94t192.5 46t234.5 16.5l37 240h67l-55 -377h-68q-94 0 -164.5 -7t-150.5 -26.5
t-124 -68t-44 -119.5q2 -150 119 -304.5t242 -154.5q55 0 87.5 26.5t45 57.5t41 57.5t75.5 26.5q31 0 54.5 -24.5t23.5 -61.5q0 -80 -73.5 -121t-184.5 -41z" />
    <glyph glyph-name="Agrave" unicode="&#xc0;" horiz-adv-x="1208" 
d="M768 1526l-162 176q-33 45 -26 74q4 25 24.5 42t48.5 17q43 0 64 -43l102 -231zM1120 137q16 -90 109 -104l-6 -33h-318l6 33q96 18 82 104l-57 307h-569l-166 -307q-45 -86 45 -104l-6 -33h-271l6 33q98 16 146 104l616 1151q-37 20 -75 25l6 35q106 59 196 112h13z
M418 543h502l-119 643q-2 20 -13 39h-4z" />
    <glyph glyph-name="Aacute" unicode="&#xc1;" horiz-adv-x="1208" 
d="M993 1702l-235 -176l-35 37l201 229q39 43 80 43q29 0 41 -18.5t8 -40.5q-7 -33 -60 -74zM1120 137q16 -90 109 -104l-6 -33h-318l6 33q96 18 82 104l-57 307h-569l-166 -307q-45 -86 45 -104l-6 -33h-271l6 33q98 16 146 104l616 1151q-37 20 -75 25l6 35
q106 59 196 112h13zM418 543h502l-119 643q-2 20 -13 39h-4z" />
    <glyph glyph-name="Acircumflex" unicode="&#xc2;" horiz-adv-x="1208" 
d="M811 1665l-303 -152l-31 50l357 243l278 -243l-47 -50zM1120 137q16 -90 109 -104l-6 -33h-318l6 33q96 18 82 104l-57 307h-569l-166 -307q-45 -86 45 -104l-6 -33h-271l6 33q98 16 146 104l616 1151q-37 20 -75 25l6 35q106 59 196 112h13zM418 543h502l-119 643
q-2 20 -13 39h-4z" />
    <glyph glyph-name="Atilde" unicode="&#xc3;" horiz-adv-x="1208" 
d="M668 1759q-63 0 -95 -90l-45 19q51 166 189 165q51 0 123.5 -60t107.5 -60q63 0 96 90l43 -17q-51 -170 -188 -170q-51 0 -123.5 61.5t-107.5 61.5zM1120 137q16 -90 109 -104l-6 -33h-318l6 33q96 18 82 104l-57 307h-569l-166 -307q-45 -86 45 -104l-6 -33h-271l6 33
q98 16 146 104l616 1151q-37 20 -75 25l6 35q106 59 196 112h13zM418 543h502l-119 643q-2 20 -13 39h-4z" />
    <glyph glyph-name="Adieresis" unicode="&#xc4;" horiz-adv-x="1208" 
d="M698 1659q-41 0 -63.5 26.5t-13.5 65.5q8 41 41.5 68.5t74.5 27.5t62.5 -27.5t13.5 -68.5q-8 -39 -41 -65.5t-74 -26.5zM1016 1659q-41 0 -63.5 26.5t-14.5 65.5q10 41 43 68.5t74 27.5t62.5 -27.5t12.5 -68.5q-8 -39 -40.5 -65.5t-73.5 -26.5zM1120 137q16 -90 109 -104
l-6 -33h-318l6 33q96 18 82 104l-57 307h-569l-166 -307q-45 -86 45 -104l-6 -33h-271l6 33q98 16 146 104l616 1151q-37 20 -75 25l6 35q106 59 196 112h13zM418 543h502l-119 643q-2 20 -13 39h-4z" />
    <glyph glyph-name="Aring" unicode="&#xc5;" horiz-adv-x="1208" 
d="M805 1538q-90 0 -143.5 63.5t-38.5 151.5q14 90 86.5 153.5t164.5 63.5q90 0 143.5 -63.5t39.5 -153.5q-14 -86 -89 -150.5t-163 -64.5zM705 1753q-10 -57 22.5 -96t89.5 -39t104.5 39t55.5 96t-24.5 98t-90 41t-102.5 -40t-55 -99zM1120 137q16 -90 109 -104l-6 -33
h-318l6 33q96 18 82 104l-57 307h-569l-166 -307q-45 -86 45 -104l-6 -33h-271l6 33q98 16 146 104l616 1151q-37 20 -75 25l6 35q106 59 196 112h13zM418 543h502l-119 643q-2 20 -13 39h-4z" />
    <glyph glyph-name="AE" unicode="&#xc6;" horiz-adv-x="2437" 
d="M1890 1366q-186 0 -305 -16l-80 -506l4 -4q68 51 142 51q80 0 220 -68.5t197 -68.5q66 0 106 20.5t95 71.5l23 -25q-53 -70 -123 -112.5t-131 -42.5q-84 0 -219.5 67.5t-212.5 67.5q-59 0 -113 -35l-109 -676q150 -23 394 -22q109 0 199.5 22.5t144 54t92.5 62.5t53 53
l14 23l43 -17l-137 -293h-10q-68 27 -250 27h-780l6 35q39 6 74 32.5t43 73.5l49 305h-651v3l-285 -312q-37 -33 -43 -57.5t5 -33.5t30 -11l-6 -35h-291l6 35q104 16 186 102l1151 1225q-35 27 -94 37l6 35h994l57 -222l-45 -16q-4 6 -11.5 18.5t-40 41t-77.5 51t-130.5 41
t-189.5 18.5zM756 543h577l119 747h-10z" />
    <glyph glyph-name="Ccedilla" unicode="&#xc7;" horiz-adv-x="1384" 
d="M1016 1468q193 0 305.5 -93t91.5 -204q-6 -39 -32.5 -70.5t-61.5 -31.5q-41 0 -59.5 24.5t-18.5 61.5t-7 81t-23.5 81t-73 61.5t-150.5 24.5t-190.5 -41t-185.5 -121t-157.5 -213t-97.5 -299q-29 -182 -11.5 -313t79 -216t145.5 -127t189 -44l2 2l4 -2h8q291 0 498 360
l47 -35q-186 -358 -526 -389l-70 -108q37 12 70 12q80 0 120.5 -39t24.5 -111q-14 -74 -98 -131t-207 -57q-96 0 -150.5 31.5t-44.5 75.5q4 27 24.5 44t47.5 17q31 0 43 -17.5t14 -39t22.5 -39t65.5 -17.5q135 0 162 107q8 37 -13.5 60.5t-66.5 23.5q-63 0 -106 -37l-39 20
l127 203q-287 4 -422 224.5t-76 543.5q55 311 272.5 524t524.5 213z" />
    <glyph glyph-name="Egrave" unicode="&#xc8;" horiz-adv-x="1228" 
d="M862 1526l-162 176q-33 45 -26 74q4 25 24.5 42t49.5 17q43 0 63 -43l102 -231zM831 1366q-172 0 -305 -18l-90 -504l4 -4q68 51 142 51q80 0 220 -68.5t197 -68.5q66 0 106 20.5t95 71.5l23 -25q-53 -70 -123 -112.5t-131 -42.5q-84 0 -219.5 67.5t-212.5 67.5
q-61 0 -115 -35l-119 -676q150 -23 393 -22q106 0 198.5 21.5t147 53t92 63.5t54.5 52l14 23l43 -15l-121 -295h-12q-72 29 -248 29h-801l7 33q102 18 118 106l203 1153q16 88 -82 107l6 35h934l74 -224l-47 -14q-2 6 -9 18.5t-40 41t-77 51t-129.5 41t-189.5 18.5z" />
    <glyph glyph-name="Eacute" unicode="&#xc9;" horiz-adv-x="1228" 
d="M717 1702l-236 -176l-35 37l201 229q39 43 80 43q29 0 41 -18.5t8 -40.5q-6 -33 -59 -74zM831 1366q-172 0 -305 -18l-90 -504l4 -4q68 51 142 51q80 0 220 -68.5t197 -68.5q66 0 106 20.5t95 71.5l23 -25q-53 -70 -123 -112.5t-131 -42.5q-84 0 -219.5 67.5t-212.5 67.5
q-61 0 -115 -35l-119 -676q150 -23 393 -22q106 0 198.5 21.5t147 53t92 63.5t54.5 52l14 23l43 -15l-121 -295h-12q-72 29 -248 29h-801l7 33q102 18 118 106l203 1153q16 88 -82 107l6 35h934l74 -224l-47 -14q-2 6 -9 18.5t-40 41t-77 51t-129.5 41t-189.5 18.5z" />
    <glyph glyph-name="Ecircumflex" unicode="&#xca;" horiz-adv-x="1228" 
d="M631 1665l-303 -152l-31 50l356 243l279 -243l-47 -50zM831 1366q-172 0 -305 -18l-90 -504l4 -4q68 51 142 51q80 0 220 -68.5t197 -68.5q66 0 106 20.5t95 71.5l23 -25q-53 -70 -123 -112.5t-131 -42.5q-84 0 -219.5 67.5t-212.5 67.5q-61 0 -115 -35l-119 -676
q150 -23 393 -22q106 0 198.5 21.5t147 53t92 63.5t54.5 52l14 23l43 -15l-121 -295h-12q-72 29 -248 29h-801l7 33q102 18 118 106l203 1153q16 88 -82 107l6 35h934l74 -224l-47 -14q-2 6 -9 18.5t-40 41t-77 51t-129.5 41t-189.5 18.5z" />
    <glyph glyph-name="Edieresis" unicode="&#xcb;" horiz-adv-x="1228" 
d="M625 1659q-41 0 -63.5 26.5t-14.5 65.5q8 41 42 68.5t75 27.5t62.5 -27.5t12.5 -68.5q-8 -39 -40.5 -65.5t-73.5 -26.5zM942 1659q-41 0 -63.5 26.5t-14.5 65.5q10 41 43 68.5t74 27.5t62.5 -27.5t13.5 -68.5q-8 -39 -41 -65.5t-74 -26.5zM831 1366q-172 0 -305 -18
l-90 -504l4 -4q68 51 142 51q80 0 220 -68.5t197 -68.5q66 0 106 20.5t95 71.5l23 -25q-53 -70 -123 -112.5t-131 -42.5q-84 0 -219.5 67.5t-212.5 67.5q-61 0 -115 -35l-119 -676q150 -23 393 -22q106 0 198.5 21.5t147 53t92 63.5t54.5 52l14 23l43 -15l-121 -295h-12
q-72 29 -248 29h-801l7 33q102 18 118 106l203 1153q16 88 -82 107l6 35h934l74 -224l-47 -14q-2 6 -9 18.5t-40 41t-77 51t-129.5 41t-189.5 18.5z" />
    <glyph glyph-name="Igrave" unicode="&#xcc;" horiz-adv-x="473" 
d="M465 1526l-162 176q-33 45 -27 74q4 25 25 42t49 17q43 0 64 -43l102 -231zM63 0l7 33q102 18 118 106l203 1153q16 88 -80 107l4 35h326l-6 -35q-102 -18 -119 -107l-205 -1153q-6 -47 18.5 -72.5t63.5 -33.5l-6 -33h-324z" />
    <glyph glyph-name="Iacute" unicode="&#xcd;" horiz-adv-x="473" 
d="M463 1526l-35 37l201 229q39 43 80 43q29 0 41 -18.5t8 -40.5q-6 -33 -60 -74zM63 0l7 33q102 18 118 106l203 1153q16 88 -80 107l4 35h326l-6 -35q-102 -18 -119 -107l-205 -1153q-6 -47 18.5 -72.5t63.5 -33.5l-6 -33h-324z" />
    <glyph glyph-name="Icircumflex" unicode="&#xce;" horiz-adv-x="473" 
d="M193 1513l-31 50l356 243l279 -243l-47 -50l-254 152zM63 0l7 33q102 18 118 106l203 1153q16 88 -80 107l4 35h326l-6 -35q-102 -18 -119 -107l-205 -1153q-6 -47 18.5 -72.5t63.5 -33.5l-6 -33h-324z" />
    <glyph glyph-name="Idieresis" unicode="&#xcf;" horiz-adv-x="473" 
d="M336 1659q-41 0 -63.5 26.5t-14.5 65.5q8 41 42 68.5t75 27.5t62.5 -27.5t13.5 -68.5q-8 -39 -41 -65.5t-74 -26.5zM653 1659q-41 0 -63.5 26.5t-14.5 65.5q10 41 43 68.5t74 27.5t62.5 -27.5t13.5 -68.5q-8 -39 -41 -65.5t-74 -26.5zM63 0l7 33q102 18 118 106l203 1153
q16 88 -80 107l4 35h326l-6 -35q-102 -18 -119 -107l-205 -1153q-6 -47 18.5 -72.5t63.5 -33.5l-6 -33h-324z" />
    <glyph glyph-name="Eth" unicode="&#xd0;" horiz-adv-x="1384" 
d="M805 1434q322 0 504 -212t131 -530q-47 -297 -262 -494.5t-508 -197.5h-590l6 35q39 6 74 32.5t43 73.5l86 541h-289l10 70h289l86 542q6 47 -19.5 73t-64.5 32l6 35h498zM1311 666q51 319 -94.5 511.5t-440.5 192.5q-162 0 -258 -14l-96 -604h299l-10 -70h-299l-90 -578
q139 -35 344 -34q264 0 435 176t210 420z" />
    <glyph glyph-name="Ntilde" unicode="&#xd1;" horiz-adv-x="1302" 
d="M801 1759q-63 0 -94 -90l-45 19q51 166 188 165q51 0 124 -60t107 -60q61 0 97 90l43 -17q-51 -170 -189 -170q-51 0 -123.5 61.5t-107.5 61.5zM1225 1434h268l-6 -35q-102 -18 -119 -107l-227 -1292h-94q-29 145 -94.5 282.5t-139.5 246t-147.5 215t-133 231.5
t-81.5 254h-9l-192 -1090q-8 -47 17.5 -72.5t64.5 -33.5l-6 -33h-269l6 33q102 18 119 106l203 1153q16 88 -82 107l6 35h201q31 -164 125 -345.5t189.5 -313.5t178 -291.5t97.5 -288.5h6l194 1097q16 88 -81 107z" />
    <glyph glyph-name="Ograve" unicode="&#xd2;" horiz-adv-x="1505" 
d="M1024 1526l-162 176q-33 45 -26 74q4 25 24.5 42t48.5 17q41 0 64 -43l102 -231zM768 -37q-195 0 -335 108.5t-197.5 281.5t-22.5 370q57 324 277.5 534.5t525.5 210.5q285 0 437.5 -221t96.5 -536q-53 -307 -273 -527.5t-509 -220.5zM776 31q233 0 415.5 199.5
t231.5 480.5q49 287 -69.5 489.5t-347.5 202.5q-250 0 -431.5 -192.5t-232.5 -489.5q-31 -178 11 -336t153.5 -256t269.5 -98z" />
    <glyph glyph-name="Oacute" unicode="&#xd3;" horiz-adv-x="1505" 
d="M1001 1526l-34 37l200 229q39 43 80 43q29 0 41 -18.5t8 -40.5q-6 -33 -59 -74zM768 -37q-195 0 -335 108.5t-197.5 281.5t-22.5 370q57 324 277.5 534.5t525.5 210.5q285 0 437.5 -221t96.5 -536q-53 -307 -273 -527.5t-509 -220.5zM776 31q233 0 415.5 199.5
t231.5 480.5q49 287 -69.5 489.5t-347.5 202.5q-250 0 -431.5 -192.5t-232.5 -489.5q-31 -178 11 -336t153.5 -256t269.5 -98z" />
    <glyph glyph-name="Ocircumflex" unicode="&#xd4;" horiz-adv-x="1505" 
d="M772 1513l-31 50l357 243l278 -243l-47 -50l-254 152zM768 -37q-195 0 -335 108.5t-197.5 281.5t-22.5 370q57 324 277.5 534.5t525.5 210.5q285 0 437.5 -221t96.5 -536q-53 -307 -273 -527.5t-509 -220.5zM776 31q233 0 415.5 199.5t231.5 480.5q49 287 -69.5 489.5
t-347.5 202.5q-250 0 -431.5 -192.5t-232.5 -489.5q-31 -178 11 -336t153.5 -256t269.5 -98z" />
    <glyph glyph-name="Otilde" unicode="&#xd5;" horiz-adv-x="1505" 
d="M1174 1636q-51 0 -124 61.5t-108 61.5q-63 0 -94 -90l-45 19q51 166 188 165q51 0 124 -60t108 -60q63 0 96 90l43 -17q-51 -170 -188 -170zM768 -37q-195 0 -335 108.5t-197.5 281.5t-22.5 370q57 324 277.5 534.5t525.5 210.5q285 0 437.5 -221t96.5 -536
q-53 -307 -273 -527.5t-509 -220.5zM776 31q233 0 415.5 199.5t231.5 480.5q49 287 -69.5 489.5t-347.5 202.5q-250 0 -431.5 -192.5t-232.5 -489.5q-31 -178 11 -336t153.5 -256t269.5 -98z" />
    <glyph glyph-name="Odieresis" unicode="&#xd6;" horiz-adv-x="1505" 
d="M905 1659q-41 0 -63.5 26.5t-14.5 65.5q8 41 42 68.5t75 27.5t62.5 -27.5t13.5 -68.5q-8 -39 -41 -65.5t-74 -26.5zM1223 1659q-41 0 -63.5 26.5t-14.5 65.5q10 41 43 68.5t74 27.5t62.5 -27.5t12.5 -68.5q-8 -39 -40.5 -65.5t-73.5 -26.5zM768 -37q-195 0 -335 108.5
t-197.5 281.5t-22.5 370q57 324 277.5 534.5t525.5 210.5q285 0 437.5 -221t96.5 -536q-53 -307 -273 -527.5t-509 -220.5zM776 31q233 0 415.5 199.5t231.5 480.5q49 287 -69.5 489.5t-347.5 202.5q-250 0 -431.5 -192.5t-232.5 -489.5q-31 -178 11 -336t153.5 -256
t269.5 -98z" />
    <glyph glyph-name="multiply" unicode="&#xd7;" horiz-adv-x="1116" 
d="M244 297l-51 61l413 359l-301 356l72 62l301 -357l416 359l53 -62l-418 -358l303 -359l-71 -63l-304 360z" />
    <glyph glyph-name="Oslash" unicode="&#xd8;" horiz-adv-x="1505" 
d="M1356 1354q125 -102 177 -272.5t17 -370.5q-53 -307 -273 -527.5t-509 -220.5q-174 0 -307 88l-90 -131l-58 33l95 137q-123 106 -175.5 275.5t-19.5 357.5q57 324 277.5 534.5t525.5 210.5q160 0 287 -77l94 137l59 -29zM342 721q-29 -160 4 -305.5t119 -243.5l788 1147
q-106 84 -247 84q-250 0 -431.5 -192.5t-232.5 -489.5zM1423 711q29 172 -4 319.5t-119 243.5l-788 -1149q111 -94 264 -94q233 0 415.5 199.5t231.5 480.5z" />
    <glyph glyph-name="Ugrave" unicode="&#xd9;" horiz-adv-x="1341" 
d="M1014 1526l-162 176q-33 45 -27 74q4 25 24.5 42t49.5 17q43 0 64 -43l102 -231zM731 -35q-571 0 -446 647l121 680q8 47 -16.5 74t-63.5 33l6 35h332l-7 -35q-41 -6 -75.5 -33t-44.5 -74l-119 -680q-51 -264 21.5 -422.5t303.5 -158.5q127 0 220.5 45t150.5 130t90 181
t53 225l115 672q8 41 -19.5 75t-68.5 40l6 35h281l-6 -37q-43 -6 -79 -38t-44 -75l-115 -674q-23 -143 -61.5 -251.5t-106 -202t-175.5 -142.5t-253 -49z" />
    <glyph glyph-name="Uacute" unicode="&#xda;" horiz-adv-x="1341" 
d="M977 1526l-35 37l201 229q39 43 80 43q29 0 41 -18.5t8 -40.5q-6 -33 -60 -74zM731 -35q-571 0 -446 647l121 680q8 47 -16.5 74t-63.5 33l6 35h332l-7 -35q-41 -6 -75.5 -33t-44.5 -74l-119 -680q-51 -264 21.5 -422.5t303.5 -158.5q127 0 220.5 45t150.5 130t90 181
t53 225l115 672q8 41 -19.5 75t-68.5 40l6 35h281l-6 -37q-43 -6 -79 -38t-44 -75l-115 -674q-23 -143 -61.5 -251.5t-106 -202t-175.5 -142.5t-253 -49z" />
    <glyph glyph-name="Ucircumflex" unicode="&#xdb;" horiz-adv-x="1341" 
d="M684 1513l-31 50l357 243l278 -243l-47 -50l-254 152zM731 -35q-571 0 -446 647l121 680q8 47 -16.5 74t-63.5 33l6 35h332l-7 -35q-41 -6 -75.5 -33t-44.5 -74l-119 -680q-51 -264 21.5 -422.5t303.5 -158.5q127 0 220.5 45t150.5 130t90 181t53 225l115 672
q8 41 -19.5 75t-68.5 40l6 35h281l-6 -37q-43 -6 -79 -38t-44 -75l-115 -674q-23 -143 -61.5 -251.5t-106 -202t-175.5 -142.5t-253 -49z" />
    <glyph glyph-name="Udieresis" unicode="&#xdc;" horiz-adv-x="1341" 
d="M827 1659q-41 0 -63.5 26.5t-13.5 65.5q8 41 41.5 68.5t74.5 27.5t62.5 -27.5t13.5 -68.5q-8 -39 -41 -65.5t-74 -26.5zM1145 1659q-41 0 -63.5 26.5t-14.5 65.5q10 41 43 68.5t74 27.5t62.5 -27.5t13.5 -68.5q-8 -39 -41 -65.5t-74 -26.5zM731 -35q-571 0 -446 647
l121 680q8 47 -16.5 74t-63.5 33l6 35h332l-7 -35q-41 -6 -75.5 -33t-44.5 -74l-119 -680q-51 -264 21.5 -422.5t303.5 -158.5q127 0 220.5 45t150.5 130t90 181t53 225l115 672q8 41 -19.5 75t-68.5 40l6 35h281l-6 -37q-43 -6 -79 -38t-44 -75l-115 -674
q-23 -143 -61.5 -251.5t-106 -202t-175.5 -142.5t-253 -49z" />
    <glyph glyph-name="Yacute" unicode="&#xdd;" horiz-adv-x="1179" 
d="M856 1526l-35 37l201 229q39 43 80 43q29 0 41 -18.5t8 -40.5q-6 -33 -59 -74zM420 0l6 35q102 14 119 106l98 564l-307 587q-51 96 -137 107l6 35h352l-4 -35q-41 -6 -65.5 -33t-0.5 -74l256 -487h13l430 487q37 53 23.5 77t-52.5 30l8 35h299l-8 -35q-88 -10 -172 -107
l-516 -587l-100 -564q-8 -47 17.5 -73.5t64.5 -32.5l-7 -35h-323z" />
    <glyph glyph-name="Thorn" unicode="&#xde;" horiz-adv-x="1705" 
d="M940 1143q264 0 386 -114t91 -312q-31 -197 -189.5 -311.5t-422.5 -114.5h-307l-25 -150q-6 -47 19.5 -73.5t64.5 -32.5l-6 -35h-324l6 35q39 6 74 32.5t43 73.5l182 1153q6 47 -19.5 73t-63.5 32l6 35h323l-6 -35q-102 -14 -117 -105l-24 -151h309zM1290 717
q29 170 -73.5 265t-319.5 95q-152 0 -279 -16l-108 -686q111 -18 272 -19q217 0 349 95.5t159 265.5z" />
    <glyph glyph-name="germandbls" unicode="&#xdf;" horiz-adv-x="1705" 
d="M1235 1030q-96 -10 -168 -56t-84 -130q-6 -41 9.5 -80t35 -61.5t56 -56.5t46.5 -46q49 -51 74 -83t46.5 -96.5t9.5 -135.5q-25 -152 -142 -236t-284 -84q-106 0 -168 23.5t-54 79.5q6 35 34 55t61 20q55 0 101 -56t87 -56q117 0 189.5 62.5t89.5 170.5q-2 25 2 37
t-6.5 35.5t-12.5 34t-17.5 32t-20.5 29.5t-22.5 27.5t-23.5 24.5t-22.5 21.5l-20.5 20.5l-22.5 22.5t-23.5 23t-24.5 24.5t-22.5 26.5t-20.5 28t-18.5 30.5t-15.5 33.5t-10.5 36t-3 39t3 41.5q16 100 93 164t178 80q39 53 49 117q16 109 -47.5 186.5t-167.5 77.5
q-330 0 -406 -475l-133 -840q-6 -47 19.5 -73.5t64.5 -32.5l-6 -35h-323l6 35q102 14 116 106l134 838l2 14h-244l12 78h248q51 215 182 334t338 119q166 0 259 -88t69 -238q-14 -100 -80 -168z" />
    <glyph glyph-name="agrave" unicode="&#xe0;" horiz-adv-x="1153" 
d="M649 1161l-162 176q-33 45 -26 74q4 25 24.5 42t49.5 17q43 0 63 -43l102 -231zM1124 35q39 0 93 49l28 -27q-78 -94 -196 -94q-59 0 -97.5 48t-11.5 177l6 35h-8q-74 -119 -178.5 -189.5t-212.5 -70.5q-180 0 -286.5 115t-106.5 311q0 176 71.5 337t217 269.5
t331.5 108.5q182 0 297 -121h8l21 121h155q-55 -113 -100 -369l-94 -532q-37 -168 63 -168zM977 397l82 477q-43 78 -118 119t-153 41q-244 0 -382 -194.5t-138 -464.5q0 -174 84 -258t211 -84t243 112.5t171 251.5z" />
    <glyph glyph-name="aacute" unicode="&#xe1;" horiz-adv-x="1153" 
d="M973 1337l-236 -176l-35 37l201 229q39 43 80 43q29 0 41 -18t8 -41q-6 -33 -59 -74zM1124 35q39 0 93 49l28 -27q-78 -94 -196 -94q-59 0 -97.5 48t-11.5 177l6 35h-8q-74 -119 -178.5 -189.5t-212.5 -70.5q-180 0 -286.5 115t-106.5 311q0 176 71.5 337t217 269.5
t331.5 108.5q182 0 297 -121h8l21 121h155q-55 -113 -100 -369l-94 -532q-37 -168 63 -168zM977 397l82 477q-43 78 -118 119t-153 41q-244 0 -382 -194.5t-138 -464.5q0 -174 84 -258t211 -84t243 112.5t171 251.5z" />
    <glyph glyph-name="acircumflex" unicode="&#xe2;" horiz-adv-x="1153" 
d="M842 1300l-303 -151l-31 49l356 244l279 -244l-47 -49zM1124 35q39 0 93 49l28 -27q-78 -94 -196 -94q-59 0 -97.5 48t-11.5 177l6 35h-8q-74 -119 -178.5 -189.5t-212.5 -70.5q-180 0 -286.5 115t-106.5 311q0 176 71.5 337t217 269.5t331.5 108.5q182 0 297 -121h8
l21 121h155q-55 -113 -100 -369l-94 -532q-37 -168 63 -168zM977 397l82 477q-43 78 -118 119t-153 41q-244 0 -382 -194.5t-138 -464.5q0 -174 84 -258t211 -84t243 112.5t171 251.5z" />
    <glyph glyph-name="atilde" unicode="&#xe3;" horiz-adv-x="1153" 
d="M674 1395q-63 0 -94 -90l-45 18q51 166 188 166q51 0 124 -60.5t107 -60.5q61 0 97 90l43 -16q-51 -170 -189 -170q-51 0 -123.5 61.5t-107.5 61.5zM1124 35q39 0 93 49l28 -27q-78 -94 -196 -94q-59 0 -97.5 48t-11.5 177l6 35h-8q-74 -119 -178.5 -189.5t-212.5 -70.5
q-180 0 -286.5 115t-106.5 311q0 176 71.5 337t217 269.5t331.5 108.5q182 0 297 -121h8l21 121h155q-55 -113 -100 -369l-94 -532q-37 -168 63 -168zM977 397l82 477q-43 78 -118 119t-153 41q-244 0 -382 -194.5t-138 -464.5q0 -174 84 -258t211 -84t243 112.5t171 251.5z
" />
    <glyph glyph-name="adieresis" unicode="&#xe4;" horiz-adv-x="1153" 
d="M666 1294q-41 0 -63.5 27t-14.5 65q8 41 42 69t74.5 28t62 -28t13.5 -69q-8 -39 -40.5 -65.5t-73.5 -26.5zM983 1294q-41 0 -63.5 27t-14.5 65q10 41 43 69t74 28t62.5 -28t13.5 -69q-8 -39 -41 -65.5t-74 -26.5zM1124 35q39 0 93 49l28 -27q-78 -94 -196 -94
q-59 0 -97.5 48t-11.5 177l6 35h-8q-74 -119 -178.5 -189.5t-212.5 -70.5q-180 0 -286.5 115t-106.5 311q0 176 71.5 337t217 269.5t331.5 108.5q182 0 297 -121h8l21 121h155q-55 -113 -100 -369l-94 -532q-37 -168 63 -168zM977 397l82 477q-43 78 -118 119t-153 41
q-244 0 -382 -194.5t-138 -464.5q0 -174 84 -258t211 -84t243 112.5t171 251.5z" />
    <glyph glyph-name="aring" unicode="&#xe5;" horiz-adv-x="1153" 
d="M760 1174q-90 0 -143.5 63t-38.5 152q14 90 86.5 153.5t164.5 63.5q90 0 143.5 -63.5t39.5 -153.5q-14 -86 -89 -150.5t-163 -64.5zM659 1389q-10 -57 23 -96.5t90 -39.5t104.5 39t55.5 96.5t-25 98.5t-90 41t-102.5 -40t-55.5 -99zM1124 35q39 0 93 49l28 -27
q-78 -94 -196 -94q-59 0 -97.5 48t-11.5 177l6 35h-8q-74 -119 -178.5 -189.5t-212.5 -70.5q-180 0 -286.5 115t-106.5 311q0 176 71.5 337t217 269.5t331.5 108.5q182 0 297 -121h8l21 121h155q-55 -113 -100 -369l-94 -532q-37 -168 63 -168zM977 397l82 477
q-43 78 -118 119t-153 41q-244 0 -382 -194.5t-138 -464.5q0 -174 84 -258t211 -84t243 112.5t171 251.5z" />
    <glyph glyph-name="ae" unicode="&#xe6;" horiz-adv-x="1878" 
d="M1456 55q135 0 247 79t171 185l39 -12q-55 -137 -198.5 -239.5t-330.5 -102.5q-150 0 -265 79t-163 216h-10q-63 -121 -196.5 -208t-278.5 -87q-168 0 -257 70.5t-69 189.5q16 102 81 173t177.5 110t234.5 58.5t296 29.5l10 197q6 109 -55.5 178t-163.5 69
q-115 0 -188.5 -50t-87.5 -128q-8 -43 -32 -63.5t-50 -20.5q-33 0 -51.5 19.5t-12.5 54.5q18 94 133 174t293 80q119 0 214 -66.5t114 -185.5h8q190 252 532 252q94 0 165 -24.5t106 -62.5t50 -73t15 -67q0 -98 -57 -163t-198.5 -97.5t-234.5 -44t-306 -25.5q-55 -4 -82 -6
q-31 -225 76.5 -356.5t324.5 -131.5zM1581 1044q-205 0 -339 -122.5t-177 -317.5q430 37 592 94q168 59 168 156q0 82 -60.5 136t-183.5 54zM494 37q127 0 253.5 96t174.5 227l8 177q-141 -10 -240.5 -25.5t-194 -46.5t-148.5 -86t-66 -133q-14 -94 45 -151.5t168 -57.5z
" />
    <glyph glyph-name="ccedilla" unicode="&#xe7;" horiz-adv-x="1130" 
d="M813 1104q184 0 290.5 -92t90.5 -181q-4 -31 -24.5 -52t-51.5 -21q-70 0 -69 71q0 4 1 14.5t1 16.5q0 70 -65.5 126t-213.5 56q-160 0 -304 -146t-179 -337q-43 -248 49 -383t295 -145l2 -2h35q119 0 237.5 90t186.5 203l34 -19q-53 -125 -177 -223t-287 -115l-70 -108
q37 12 70 12q80 0 120.5 -39t24.5 -111q-14 -74 -98 -131t-207 -57q-96 0 -150.5 31.5t-44.5 75.5q4 27 24.5 44t47.5 17q31 0 43 -17.5t14 -39t22.5 -39t65.5 -17.5q135 0 162 107q8 37 -13.5 60.5t-66.5 23.5q-63 0 -106 -37l-39 20l127 203q-219 8 -345 165t-79 425
q43 250 227 400.5t420 150.5z" />
    <glyph glyph-name="egrave" unicode="&#xe8;" horiz-adv-x="1136" 
d="M641 1161l-162 176q-33 45 -26 74q4 25 24.5 42t48.5 17q43 0 64 -43l102 -231zM598 29q262 0 502 252l28 -29q-233 -289 -557 -289q-190 0 -303.5 111.5t-113.5 312.5q0 283 196.5 500t495.5 217q133 0 237.5 -61.5t104.5 -188.5q0 -104 -75 -178t-214 -117
t-283.5 -65.5t-336.5 -34.5q-6 -43 -7 -90q0 -170 101.5 -255t224.5 -85zM821 1038q-195 0 -343 -147.5t-191 -366.5q780 49 780 332q0 84 -67.5 133t-178.5 49z" />
    <glyph glyph-name="eacute" unicode="&#xe9;" horiz-adv-x="1136" 
d="M881 1337l-236 -176l-35 37l201 229q39 43 80 43q29 0 41 -18t8 -41q-6 -33 -59 -74zM598 29q262 0 502 252l28 -29q-233 -289 -557 -289q-190 0 -303.5 111.5t-113.5 312.5q0 283 196.5 500t495.5 217q133 0 237.5 -61.5t104.5 -188.5q0 -104 -75 -178t-214 -117
t-283.5 -65.5t-336.5 -34.5q-6 -43 -7 -90q0 -170 101.5 -255t224.5 -85zM821 1038q-195 0 -343 -147.5t-191 -366.5q780 49 780 332q0 84 -67.5 133t-178.5 49z" />
    <glyph glyph-name="ecircumflex" unicode="&#xea;" horiz-adv-x="1136" 
d="M811 1300l-303 -151l-31 49l357 244l278 -244l-47 -49zM598 29q262 0 502 252l28 -29q-233 -289 -557 -289q-190 0 -303.5 111.5t-113.5 312.5q0 283 196.5 500t495.5 217q133 0 237.5 -61.5t104.5 -188.5q0 -104 -75 -178t-214 -117t-283.5 -65.5t-336.5 -34.5
q-6 -43 -7 -90q0 -170 101.5 -255t224.5 -85zM821 1038q-195 0 -343 -147.5t-191 -366.5q780 49 780 332q0 84 -67.5 133t-178.5 49z" />
    <glyph glyph-name="edieresis" unicode="&#xeb;" horiz-adv-x="1136" 
d="M637 1294q-41 0 -63.5 27t-14.5 65q8 41 42 69t75 28t62.5 -28t13.5 -69q-8 -39 -41 -65.5t-74 -26.5zM954 1294q-41 0 -63.5 27t-13.5 65q10 41 42.5 69t73.5 28t62.5 -28t13.5 -69q-8 -39 -41 -65.5t-74 -26.5zM598 29q262 0 502 252l28 -29q-233 -289 -557 -289
q-190 0 -303.5 111.5t-113.5 312.5q0 283 196.5 500t495.5 217q133 0 237.5 -61.5t104.5 -188.5q0 -104 -75 -178t-214 -117t-283.5 -65.5t-336.5 -34.5q-6 -43 -7 -90q0 -170 101.5 -255t224.5 -85zM821 1038q-195 0 -343 -147.5t-191 -366.5q780 49 780 332
q0 84 -67.5 133t-178.5 49z" />
    <glyph glyph-name="igrave" unicode="&#xec;" horiz-adv-x="413" 
d="M406 1161l-162 176q-33 45 -27 74q4 25 24.5 42t49.5 17q41 0 63 -43l103 -231zM317 -37q-57 0 -95 48t-11 177l113 652q8 47 -18.5 72.5t-65.5 31.5l6 35q14 2 37.5 7t83 39t100.5 87l22 -8l-157 -901q-37 -168 61 -168q43 0 92 49l31 -27q-80 -94 -199 -94z" />
    <glyph glyph-name="iacute" unicode="&#xed;" horiz-adv-x="540" 
d="M346 1161l-35 37l201 229q39 43 80 43q29 0 41 -18t8 -41q-6 -33 -59 -74zM317 -37q-57 0 -95 48t-11 177l113 652q8 47 -18.5 72.5t-65.5 31.5l6 35q14 2 37.5 7t83 39t100.5 87l22 -8l-157 -901q-37 -168 61 -168q43 0 92 49l31 -27q-80 -94 -199 -94z" />
    <glyph glyph-name="icircumflex" unicode="&#xee;" horiz-adv-x="632" 
d="M131 1149l-31 49l357 244l278 -244l-47 -49l-254 151zM317 -37q-57 0 -95 48t-11 177l113 652q8 47 -18.5 72.5t-65.5 31.5l6 35q14 2 37.5 7t83 39t100.5 87l22 -8l-157 -901q-37 -168 61 -168q43 0 92 49l31 -27q-80 -94 -199 -94z" />
    <glyph glyph-name="idieresis" unicode="&#xef;" horiz-adv-x="577" 
d="M246 1294q-41 0 -63.5 27t-14.5 65q8 41 42 69t75 28t62.5 -28t12.5 -69q-8 -39 -40.5 -65.5t-73.5 -26.5zM563 1294q-41 0 -63.5 27t-14.5 65q10 41 43 69t74 28t62.5 -28t13.5 -69q-8 -39 -41 -65.5t-74 -26.5zM317 -37q-57 0 -95 48t-11 177l113 652q8 47 -18.5 72.5
t-65.5 31.5l6 35q14 2 37.5 7t83 39t100.5 87l22 -8l-157 -901q-37 -168 61 -168q43 0 92 49l31 -27q-80 -94 -199 -94z" />
    <glyph glyph-name="eth" unicode="&#xf0;" horiz-adv-x="1159" 
d="M561 -35q-242 0 -365.5 163t-86.5 409q39 242 213 405.5t407 163.5q190 0 311 -131l9 4q-4 141 -18.5 219t-53.5 176l-326 -121l-16 60l315 119q-35 74 -90 145l58 47q74 -72 131 -154l305 115l16 -59l-289 -111q158 -266 82 -745q-53 -334 -209.5 -519.5t-392.5 -185.5z
M573 35q360 0 459 633q12 74 17 180q-111 188 -330 188q-199 0 -328 -140t-166 -370q-33 -211 55 -351t293 -140z" />
    <glyph glyph-name="ntilde" unicode="&#xf1;" horiz-adv-x="1202" 
d="M764 1395q-63 0 -94 -90l-45 18q51 166 188 166q51 0 124 -60.5t107 -60.5q61 0 97 90l43 -16q-51 -170 -189 -170q-51 0 -123.5 61.5t-107.5 61.5zM1255 84l29 -27q-88 -94 -205 -94q-57 0 -92 48t0 177l105 445q47 186 -10.5 295.5t-209.5 109.5q-145 0 -292.5 -157.5
t-184.5 -380.5q-29 -166 -40 -291t-9 -168l2 -43h-147l141 842q8 47 -18.5 72.5t-65.5 31.5l6 35q14 2 38 7t83 39t100 87l23 -8l-49 -260h16q86 129 198.5 194.5t225.5 65.5q197 0 280 -126t31 -347l-104 -428q-47 -168 55 -168q41 0 94 49z" />
    <glyph glyph-name="ograve" unicode="&#xf2;" horiz-adv-x="1216" 
d="M680 1161l-162 176q-33 45 -26 74q4 25 24.5 42t48.5 17q41 0 64 -43l102 -231zM627 -37q-244 0 -375 173t-88 417q41 236 223 393.5t414 157.5q238 0 365.5 -168t82.5 -414q-41 -242 -217 -400.5t-405 -158.5zM645 29q180 0 316.5 140t171.5 353q35 219 -66.5 367.5
t-286.5 148.5q-182 0 -323.5 -139t-173.5 -348q-35 -215 67 -368.5t295 -153.5z" />
    <glyph glyph-name="oacute" unicode="&#xf3;" horiz-adv-x="1216" 
d="M737 1161l-35 37l201 229q39 43 80 43q29 0 41 -18t8 -41q-6 -33 -59 -74zM627 -37q-244 0 -375 173t-88 417q41 236 223 393.5t414 157.5q238 0 365.5 -168t82.5 -414q-41 -242 -217 -400.5t-405 -158.5zM645 29q180 0 316.5 140t171.5 353q35 219 -66.5 367.5
t-286.5 148.5q-182 0 -323.5 -139t-173.5 -348q-35 -215 67 -368.5t295 -153.5z" />
    <glyph glyph-name="ocircumflex" unicode="&#xf4;" horiz-adv-x="1216" 
d="M512 1149l-31 49l357 244l278 -244l-47 -49l-254 151zM627 -37q-244 0 -375 173t-88 417q41 236 223 393.5t414 157.5q238 0 365.5 -168t82.5 -414q-41 -242 -217 -400.5t-405 -158.5zM645 29q180 0 316.5 140t171.5 353q35 219 -66.5 367.5t-286.5 148.5
q-182 0 -323.5 -139t-173.5 -348q-35 -215 67 -368.5t295 -153.5z" />
    <glyph glyph-name="otilde" unicode="&#xf5;" horiz-adv-x="1216" 
d="M961 1272q-51 0 -124 61.5t-108 61.5q-63 0 -94 -90l-45 18q51 166 188 166q51 0 124 -60.5t108 -60.5q63 0 96 90l43 -16q-51 -170 -188 -170zM627 -37q-244 0 -375 173t-88 417q41 236 223 393.5t414 157.5q238 0 365.5 -168t82.5 -414q-41 -242 -217 -400.5
t-405 -158.5zM645 29q180 0 316.5 140t171.5 353q35 219 -66.5 367.5t-286.5 148.5q-182 0 -323.5 -139t-173.5 -348q-35 -215 67 -368.5t295 -153.5z" />
    <glyph glyph-name="odieresis" unicode="&#xf6;" horiz-adv-x="1216" 
d="M670 1294q-41 0 -63.5 27t-14.5 65q8 41 42 69t75 28t62.5 -28t12.5 -69q-8 -39 -40.5 -65.5t-73.5 -26.5zM987 1294q-41 0 -63.5 27t-14.5 65q10 41 43 69t74 28t62.5 -28t13.5 -69q-8 -39 -41 -65.5t-74 -26.5zM627 -37q-244 0 -375 173t-88 417q41 236 223 393.5
t414 157.5q238 0 365.5 -168t82.5 -414q-41 -242 -217 -400.5t-405 -158.5zM645 29q180 0 316.5 140t171.5 353q35 219 -66.5 367.5t-286.5 148.5q-182 0 -323.5 -139t-173.5 -348q-35 -215 67 -368.5t295 -153.5z" />
    <glyph glyph-name="divide" unicode="&#xf7;" horiz-adv-x="1114" 
d="M709 973q-39 0 -63.5 26.5t-18.5 71.5q8 41 40.5 67.5t71.5 26.5t63.5 -26.5t16.5 -67.5q-6 -45 -37.5 -71.5t-72.5 -26.5zM129 674l12 88h1069l-12 -88h-1069zM596 268q-41 0 -64.5 27t-15.5 72q6 43 38 69.5t73 26.5q39 0 63.5 -26.5t18.5 -69.5q-8 -45 -40 -72
t-73 -27z" />
    <glyph glyph-name="oslash" unicode="&#xf8;" horiz-adv-x="1216" 
d="M1073 1020q106 -76 154.5 -207t23.5 -289q-39 -242 -211 -400.5t-403 -158.5q-137 0 -248 62l-74 -107l-57 33l76 110q-102 80 -148.5 211.5t-21.5 280.5q37 236 215 393.5t412 157.5q127 0 225 -51l74 106l57 -33zM285 594q-20 -131 8.5 -249t99.5 -195l572 831
q-84 59 -205 59q-174 0 -309 -125.5t-166 -320.5zM1128 481q47 299 -112 457l-574 -834q96 -74 230 -73q166 0 295.5 127.5t160.5 322.5z" />
    <glyph glyph-name="ugrave" unicode="&#xf9;" 
d="M737 1161l-162 176q-33 45 -26 74q4 25 24.5 42t49.5 17q41 0 63 -43l102 -231zM1235 84l31 -27q-80 -94 -199 -94q-57 0 -95 48t-11 177l6 35h-15q-86 -131 -198.5 -195.5t-223.5 -64.5q-211 0 -285.5 122t-4.5 351l131 428q57 168 -45 168q-41 0 -97 -51l-28 29
q94 94 198 94q25 0 46.5 -8.5t44 -32t21.5 -68.5t-22 -118l-133 -443q-61 -193 -8 -299t215 -106q143 0 283.5 157.5t177.5 380.5q29 166 40 291t9 166l-2 43h148l-138 -864q-37 -168 62 -168q43 0 92 49z" />
    <glyph glyph-name="uacute" unicode="&#xfa;" 
d="M956 1337l-235 -176l-35 37l201 229q39 43 80 43q29 0 41 -18t8 -41q-7 -33 -60 -74zM1235 84l31 -27q-80 -94 -199 -94q-57 0 -95 48t-11 177l6 35h-15q-86 -131 -198.5 -195.5t-223.5 -64.5q-211 0 -285.5 122t-4.5 351l131 428q57 168 -45 168q-41 0 -97 -51l-28 29
q94 94 198 94q25 0 46.5 -8.5t44 -32t21.5 -68.5t-22 -118l-133 -443q-61 -193 -8 -299t215 -106q143 0 283.5 157.5t177.5 380.5q29 166 40 291t9 166l-2 43h148l-138 -864q-37 -168 62 -168q43 0 92 49z" />
    <glyph glyph-name="ucircumflex" unicode="&#xfb;" 
d="M858 1300l-303 -151l-31 49l357 244l278 -244l-47 -49zM1235 84l31 -27q-80 -94 -199 -94q-57 0 -95 48t-11 177l6 35h-15q-86 -131 -198.5 -195.5t-223.5 -64.5q-211 0 -285.5 122t-4.5 351l131 428q57 168 -45 168q-41 0 -97 -51l-28 29q94 94 198 94q25 0 46.5 -8.5
t44 -32t21.5 -68.5t-22 -118l-133 -443q-61 -193 -8 -299t215 -106q143 0 283.5 157.5t177.5 380.5q29 166 40 291t9 166l-2 43h148l-138 -864q-37 -168 62 -168q43 0 92 49z" />
    <glyph glyph-name="udieresis" unicode="&#xfc;" 
d="M678 1294q-41 0 -63.5 27t-14.5 65q8 41 42 69t75 28t62.5 -28t13.5 -69q-8 -39 -41 -65.5t-74 -26.5zM995 1294q-41 0 -63.5 27t-13.5 65q10 41 42.5 69t73.5 28t62.5 -28t13.5 -69q-8 -39 -41 -65.5t-74 -26.5zM1235 84l31 -27q-80 -94 -199 -94q-57 0 -95 48t-11 177
l6 35h-15q-86 -131 -198.5 -195.5t-223.5 -64.5q-211 0 -285.5 122t-4.5 351l131 428q57 168 -45 168q-41 0 -97 -51l-28 29q94 94 198 94q25 0 46.5 -8.5t44 -32t21.5 -68.5t-22 -118l-133 -443q-61 -193 -8 -299t215 -106q143 0 283.5 157.5t177.5 380.5q29 166 40 291
t9 166l-2 43h148l-138 -864q-37 -168 62 -168q43 0 92 49z" />
    <glyph glyph-name="yacute" unicode="&#xfd;" horiz-adv-x="1228" 
d="M1044 1337l-235 -176l-35 37l201 229q39 43 80 43q29 0 41 -18t8 -41q-7 -33 -60 -74zM1116 1104q59 0 87 -42t22 -101q-18 -147 -149.5 -424t-248.5 -461l-51 -82q-135 -227 -246.5 -339t-230.5 -112q-55 0 -89 28t-34 71t28.5 67.5t65.5 24.5q29 0 68 -17.5t53 -17.5
q98 0 153.5 56.5t157.5 226.5q10 18 17 26q-72 547 -179.5 776.5t-256.5 229.5q-23 0 -59 -12.5t-52 -30.5l-29 26q63 94 191 95q178 0 303 -227.5t176 -684.5h12q78 131 122 211t92 199t61 217q6 49 -42 106.5t-42 108.5q4 37 32.5 59.5t67.5 22.5z" />
    <glyph glyph-name="thorn" unicode="&#xfe;" horiz-adv-x="1468" 
d="M825 1106q223 0 346 -167t84 -415q-39 -242 -203.5 -400.5t-381.5 -158.5q-250 0 -371 215h-6l-72 -456q-6 -47 19.5 -74t64.5 -33l-6 -35h-315l4 35q102 14 116 107l250 1570q6 47 -19.5 73t-64.5 32l6 35q109 18 252 118l19 -8q-51 -106 -96 -370l-39 -250h10
q176 182 403 182zM1133 481q39 240 -57.5 399.5t-280.5 159.5q-160 0 -281 -124.5t-152 -321.5q-37 -233 55.5 -398t284.5 -165q154 0 277 127.5t154 322.5z" />
    <glyph glyph-name="ydieresis" unicode="&#xff;" horiz-adv-x="1228" 
d="M733 1294q-41 0 -63.5 27t-14.5 65q8 41 42 69t75 28t62.5 -28t13.5 -69q-8 -39 -41 -65.5t-74 -26.5zM1051 1294q-41 0 -63.5 27t-14.5 65q10 41 43 69t73.5 28t62.5 -28t13 -69q-8 -39 -40.5 -65.5t-73.5 -26.5zM1116 1104q59 0 87 -42t22 -101q-18 -147 -149.5 -424
t-248.5 -461l-51 -82q-135 -227 -246.5 -339t-230.5 -112q-55 0 -89 28t-34 71t28.5 67.5t65.5 24.5q29 0 68 -17.5t53 -17.5q98 0 153.5 56.5t157.5 226.5q10 18 17 26q-72 547 -179.5 776.5t-256.5 229.5q-23 0 -59 -12.5t-52 -30.5l-29 26q63 94 191 95q178 0 303 -227.5
t176 -684.5h12q78 131 122 211t92 199t61 217q6 49 -42 106.5t-42 108.5q4 37 32.5 59.5t67.5 22.5z" />
    <glyph glyph-name="Amacron" unicode="&#x100;" horiz-adv-x="1208" 
d="M1110 1776l-20 -93h-504l20 93h504zM1120 137q16 -90 109 -104l-6 -33h-318l6 33q96 18 82 104l-57 307h-569l-166 -307q-45 -86 45 -104l-6 -33h-271l6 33q98 16 146 104l616 1151q-37 20 -75 25l6 35q106 59 196 112h13zM418 543h502l-119 643q-2 20 -13 39h-4z" />
    <glyph glyph-name="amacron" unicode="&#x101;" horiz-adv-x="1153" 
d="M1075 1411l-20 -92h-504l20 92h504zM1124 35q39 0 93 49l28 -27q-78 -94 -196 -94q-59 0 -97.5 48t-11.5 177l6 35h-8q-74 -119 -178.5 -189.5t-212.5 -70.5q-180 0 -286.5 115t-106.5 311q0 176 71.5 337t217 269.5t331.5 108.5q182 0 297 -121h8l21 121h155
q-55 -113 -100 -369l-94 -532q-37 -168 63 -168zM977 397l82 477q-43 78 -118 119t-153 41q-244 0 -382 -194.5t-138 -464.5q0 -174 84 -258t211 -84t243 112.5t171 251.5z" />
    <glyph glyph-name="Abreve" unicode="&#x102;" horiz-adv-x="1208" 
d="M819 1589q-113 0 -168 58.5t-65 140.5l59 20q16 -47 66.5 -86t122.5 -39q68 0 134 40t95 85l55 -20q-102 -199 -299 -199zM1120 137q16 -90 109 -104l-6 -33h-318l6 33q96 18 82 104l-57 307h-569l-166 -307q-45 -86 45 -104l-6 -33h-271l6 33q98 16 146 104l616 1151
q-37 20 -75 25l6 35q106 59 196 112h13zM418 543h502l-119 643q-2 20 -13 39h-4z" />
    <glyph glyph-name="abreve" unicode="&#x103;" horiz-adv-x="1153" 
d="M770 1225q-113 0 -168 58t-65 140l59 21q16 -47 66.5 -86t121.5 -39q68 0 134.5 40t95.5 85l55 -21q-102 -198 -299 -198zM1124 35q39 0 93 49l28 -27q-78 -94 -196 -94q-59 0 -97.5 48t-11.5 177l6 35h-8q-74 -119 -178.5 -189.5t-212.5 -70.5q-180 0 -286.5 115
t-106.5 311q0 176 71.5 337t217 269.5t331.5 108.5q182 0 297 -121h8l21 121h155q-55 -113 -100 -369l-94 -532q-37 -168 63 -168zM977 397l82 477q-43 78 -118 119t-153 41q-244 0 -382 -194.5t-138 -464.5q0 -174 84 -258t211 -84t243 112.5t171 251.5z" />
    <glyph glyph-name="Aogonek" unicode="&#x104;" horiz-adv-x="1208" 
d="M1004 -354q104 0 176 104l49 -29q-98 -152 -275 -151q-92 0 -148 51t-44 139q10 66 64.5 131.5t131.5 108.5h-53l6 33q96 18 82 104l-57 307h-569l-166 -307q-45 -86 45 -104l-6 -33h-271l6 33q98 16 146 104l616 1151q-37 20 -75 25l6 35q106 59 196 112h13l243 -1323
q16 -90 109 -104l-6 -33h-162q-76 -33 -125 -88t-59 -117q-10 -66 29 -107.5t98 -41.5zM418 543h502l-119 643q-2 20 -13 39h-4z" />
    <glyph glyph-name="aogonek" unicode="&#x105;" horiz-adv-x="1153" 
d="M1219 -250l49 -29q-98 -152 -275 -151q-92 0 -148.5 51t-43.5 139q23 129 174 226q-66 55 -35 202l6 35h-8q-74 -119 -178.5 -189.5t-212.5 -70.5q-180 0 -286.5 115t-106.5 311q0 176 71.5 337t217 269.5t331.5 108.5q182 0 297 -121h8l21 121h155q-55 -113 -100 -369
l-94 -532q-37 -168 63 -168q39 0 93 49l28 -27q-78 -94 -196 -94h-15q-102 -68 -119 -168q-10 -66 29 -107.5t98 -41.5q105 0 177 104zM563 33q127 0 243 112.5t171 251.5l82 477q-43 78 -118 119t-153 41q-244 0 -382 -194.5t-138 -464.5q0 -174 84 -258t211 -84z" />
    <glyph glyph-name="Cacute" unicode="&#x106;" horiz-adv-x="1384" 
d="M883 1526l-35 37l201 229q39 43 79 43q29 0 41.5 -18.5t8.5 -40.5q-6 -33 -60 -74zM727 -37q-293 0 -430 220t-78 548q55 311 272.5 524t524.5 213q193 0 305.5 -93t91.5 -204q-6 -39 -32.5 -70.5t-61.5 -31.5q-41 0 -59.5 24.5t-18.5 61.5t-7 81t-23.5 81t-73 61.5
t-150.5 24.5t-190.5 -41t-185.5 -121t-157.5 -213t-97.5 -299q-61 -346 64 -523t352 -177q291 0 498 360l47 -35q-205 -391 -590 -391z" />
    <glyph glyph-name="cacute" unicode="&#x107;" horiz-adv-x="1130" 
d="M721 1161l-35 37l201 229q39 43 80 43q29 0 41 -18t8 -41q-6 -33 -60 -74zM612 -37q-227 0 -361 158t-85 432q43 250 227.5 400.5t419.5 150.5q184 0 290.5 -92t90.5 -181q-4 -31 -24.5 -52t-51.5 -21q-70 0 -69 71q0 4 1 14.5t1 16.5q0 70 -65.5 126t-213.5 56
q-160 0 -304 -146t-179 -337q-45 -258 57.5 -394t323.5 -136q119 0 237.5 90t186.5 203l34 -19q-57 -135 -195.5 -237.5t-320.5 -102.5z" />
    <glyph glyph-name="Ccircumflex" unicode="&#x108;" horiz-adv-x="1384" 
d="M696 1513l-30 50l356 243l278 -243l-47 -50l-254 152zM727 -37q-293 0 -430 220t-78 548q55 311 272.5 524t524.5 213q193 0 305.5 -93t91.5 -204q-6 -39 -32.5 -70.5t-61.5 -31.5q-41 0 -59.5 24.5t-18.5 61.5t-7 81t-23.5 81t-73 61.5t-150.5 24.5t-190.5 -41
t-185.5 -121t-157.5 -213t-97.5 -299q-61 -346 64 -523t352 -177q291 0 498 360l47 -35q-205 -391 -590 -391z" />
    <glyph glyph-name="ccircumflex" unicode="&#x109;" horiz-adv-x="1130" 
d="M516 1149l-31 49l357 244l278 -244l-47 -49l-254 151zM612 -37q-227 0 -361 158t-85 432q43 250 227.5 400.5t419.5 150.5q184 0 290.5 -92t90.5 -181q-4 -31 -24.5 -52t-51.5 -21q-70 0 -69 71q0 4 1 14.5t1 16.5q0 70 -65.5 126t-213.5 56q-160 0 -304 -146t-179 -337
q-45 -258 57.5 -394t323.5 -136q119 0 237.5 90t186.5 203l34 -19q-57 -135 -195.5 -237.5t-320.5 -102.5z" />
    <glyph glyph-name="Cdotaccent" unicode="&#x10a;" horiz-adv-x="1384" 
d="M993 1659q-39 0 -62.5 26.5t-17.5 65.5q6 41 37 68.5t72 27.5t64.5 -27.5t17.5 -68.5q-6 -39 -38 -65.5t-73 -26.5zM727 -37q-293 0 -430 220t-78 548q55 311 272.5 524t524.5 213q193 0 305.5 -93t91.5 -204q-6 -39 -32.5 -70.5t-61.5 -31.5q-41 0 -59.5 24.5
t-18.5 61.5t-7 81t-23.5 81t-73 61.5t-150.5 24.5t-190.5 -41t-185.5 -121t-157.5 -213t-97.5 -299q-61 -346 64 -523t352 -177q291 0 498 360l47 -35q-205 -391 -590 -391z" />
    <glyph glyph-name="cdotaccent" unicode="&#x10b;" horiz-adv-x="1130" 
d="M821 1294q-39 0 -62.5 27t-17.5 65q6 41 37 69t72 28t64.5 -28t17.5 -69q-6 -39 -38 -65.5t-73 -26.5zM612 -37q-227 0 -361 158t-85 432q43 250 227.5 400.5t419.5 150.5q184 0 290.5 -92t90.5 -181q-4 -31 -24.5 -52t-51.5 -21q-70 0 -69 71q0 4 1 14.5t1 16.5
q0 70 -65.5 126t-213.5 56q-160 0 -304 -146t-179 -337q-45 -258 57.5 -394t323.5 -136q119 0 237.5 90t186.5 203l34 -19q-57 -135 -195.5 -237.5t-320.5 -102.5z" />
    <glyph glyph-name="Ccaron" unicode="&#x10c;" horiz-adv-x="1384" 
d="M977 1534l-279 244l47 49l254 -152l304 152l30 -49zM727 -37q-293 0 -430 220t-78 548q55 311 272.5 524t524.5 213q193 0 305.5 -93t91.5 -204q-6 -39 -32.5 -70.5t-61.5 -31.5q-41 0 -59.5 24.5t-18.5 61.5t-7 81t-23.5 81t-73 61.5t-150.5 24.5t-190.5 -41
t-185.5 -121t-157.5 -213t-97.5 -299q-61 -346 64 -523t352 -177q291 0 498 360l47 -35q-205 -391 -590 -391z" />
    <glyph glyph-name="ccaron" unicode="&#x10d;" horiz-adv-x="1130" 
d="M764 1169l-279 244l47 49l254 -151l304 151l30 -49zM612 -37q-227 0 -361 158t-85 432q43 250 227.5 400.5t419.5 150.5q184 0 290.5 -92t90.5 -181q-4 -31 -24.5 -52t-51.5 -21q-70 0 -69 71q0 4 1 14.5t1 16.5q0 70 -65.5 126t-213.5 56q-160 0 -304 -146t-179 -337
q-45 -258 57.5 -394t323.5 -136q119 0 237.5 90t186.5 203l34 -19q-57 -135 -195.5 -237.5t-320.5 -102.5z" />
    <glyph glyph-name="Dcaron" unicode="&#x10e;" horiz-adv-x="1384" 
d="M1196 1778l-356 -244l-279 244l47 49l254 -152l303 152zM813 1434q322 0 501 -212t122 -530q-51 -297 -269.5 -494.5t-513.5 -197.5h-590l7 33q102 18 118 106l203 1153q16 88 -82 107l6 35h498zM1307 664q55 322 -86.5 513t-436.5 191q-158 0 -258 -14l-221 -1252
q139 -35 346 -34q262 0 437.5 176t218.5 420z" />
    <glyph glyph-name="dcaron" unicode="&#x10f;" horiz-adv-x="1435" 
d="M1296 1542l-237 -1339q-37 -168 63 -168q43 0 92 49l29 -27q-78 -94 -196 -94q-59 0 -96.5 48t-10.5 177l6 35h-10q-74 -119 -178.5 -189.5t-212.5 -70.5q-180 0 -285.5 115t-105.5 311q0 176 71.5 337t217 269.5t331.5 108.5q180 0 295 -121h8l2 -4l51 297
q8 47 -18.5 73.5t-64.5 32.5l6 35q14 2 37.5 7.5t83 39t100.5 84.5zM1565 1468q55 0 75.5 -42t8.5 -101q-23 -100 -103 -229t-184 -211l-53 53q61 43 132.5 133t102.5 182l-4 7q-6 -2 -20 -3q-45 0 -70 30t-14 79q10 45 47 73.5t82 28.5zM979 410l80 460q-41 80 -117 122
t-154 42q-166 0 -286.5 -95t-178 -242.5t-57.5 -321.5t85 -258t210 -84q131 0 248 118t170 259z" />
    <glyph glyph-name="Dcroat" unicode="&#x110;" horiz-adv-x="1384" 
d="M805 1434q322 0 504 -212t131 -530q-47 -297 -262 -494.5t-508 -197.5h-590l6 35q39 6 74 32.5t43 73.5l86 541h-289l10 70h289l86 542q6 47 -19.5 73t-64.5 32l6 35h498zM1311 666q51 319 -94.5 511.5t-440.5 192.5q-162 0 -258 -14l-96 -604h299l-10 -70h-299l-90 -578
q139 -35 344 -34q264 0 435 176t210 420z" />
    <glyph glyph-name="dcroat" unicode="&#x111;" horiz-adv-x="1204" 
d="M1237 1204l-178 -1001q-37 -168 63 -168q43 0 92 49l29 -27q-78 -94 -196 -94q-59 0 -96.5 48t-10.5 177l6 35h-6q-74 -119 -178.5 -189.5t-212.5 -70.5q-180 0 -285.5 115t-105.5 311q0 176 71.5 337t217 269.5t331.5 108.5q180 0 295 -121h6l39 221h-358l12 70h358v2
q8 47 -18.5 73.5t-64.5 32.5l6 35q14 2 37.5 7.5t83 39t100.5 84.5l22 -6l-47 -268h234l-10 -70h-236zM975 389l86 488q-43 76 -117 116.5t-151 40.5q-166 0 -287 -95t-178.5 -242.5t-57.5 -321.5t85 -258t210 -84t240 109.5t170 246.5z" />
    <glyph glyph-name="Emacron" unicode="&#x112;" horiz-adv-x="1228" 
d="M1112 1776l-20 -93h-504l20 93h504zM831 1366q-172 0 -305 -18l-90 -504l4 -4q68 51 142 51q80 0 220 -68.5t197 -68.5q66 0 106 20.5t95 71.5l23 -25q-53 -70 -123 -112.5t-131 -42.5q-84 0 -219.5 67.5t-212.5 67.5q-61 0 -115 -35l-119 -676q150 -23 393 -22
q106 0 198.5 21.5t147 53t92 63.5t54.5 52l14 23l43 -15l-121 -295h-12q-72 29 -248 29h-801l7 33q102 18 118 106l203 1153q16 88 -82 107l6 35h934l74 -224l-47 -14q-2 6 -9 18.5t-40 41t-77 51t-129.5 41t-189.5 18.5z" />
    <glyph glyph-name="emacron" unicode="&#x113;" horiz-adv-x="1136" 
d="M1067 1411l-20 -92h-504l20 92h504zM598 29q262 0 502 252l28 -29q-233 -289 -557 -289q-190 0 -303.5 111.5t-113.5 312.5q0 283 196.5 500t495.5 217q133 0 237.5 -61.5t104.5 -188.5q0 -104 -75 -178t-214 -117t-283.5 -65.5t-336.5 -34.5q-6 -43 -7 -90
q0 -170 101.5 -255t224.5 -85zM821 1038q-195 0 -343 -147.5t-191 -366.5q780 49 780 332q0 84 -67.5 133t-178.5 49z" />
    <glyph glyph-name="Ebreve" unicode="&#x114;" horiz-adv-x="1228" 
d="M850 1589q-113 0 -168 58.5t-66 140.5l60 20q16 -47 66.5 -86t121.5 -39q68 0 134.5 40t95.5 85l55 -20q-102 -199 -299 -199zM831 1366q-172 0 -305 -18l-90 -504l4 -4q68 51 142 51q80 0 220 -68.5t197 -68.5q66 0 106 20.5t95 71.5l23 -25q-53 -70 -123 -112.5
t-131 -42.5q-84 0 -219.5 67.5t-212.5 67.5q-61 0 -115 -35l-119 -676q150 -23 393 -22q106 0 198.5 21.5t147 53t92 63.5t54.5 52l14 23l43 -15l-121 -295h-12q-72 29 -248 29h-801l7 33q102 18 118 106l203 1153q16 88 -82 107l6 35h934l74 -224l-47 -14q-2 6 -9 18.5
t-40 41t-77 51t-129.5 41t-189.5 18.5z" />
    <glyph glyph-name="ebreve" unicode="&#x115;" horiz-adv-x="1136" 
d="M762 1225q-113 0 -168 58t-66 140l60 21q16 -47 66.5 -86t121.5 -39q68 0 134.5 40t95.5 85l55 -21q-102 -198 -299 -198zM598 29q262 0 502 252l28 -29q-233 -289 -557 -289q-190 0 -303.5 111.5t-113.5 312.5q0 283 196.5 500t495.5 217q133 0 237.5 -61.5
t104.5 -188.5q0 -104 -75 -178t-214 -117t-283.5 -65.5t-336.5 -34.5q-6 -43 -7 -90q0 -170 101.5 -255t224.5 -85zM821 1038q-195 0 -343 -147.5t-191 -366.5q780 49 780 332q0 84 -67.5 133t-178.5 49z" />
    <glyph glyph-name="Edotaccent" unicode="&#x116;" horiz-adv-x="1228" 
d="M840 1659q-39 0 -62.5 26.5t-17.5 65.5q6 41 36.5 68.5t71.5 27.5t64.5 -27.5t17.5 -68.5q-6 -39 -37.5 -65.5t-72.5 -26.5zM831 1366q-172 0 -305 -18l-90 -504l4 -4q68 51 142 51q80 0 220 -68.5t197 -68.5q66 0 106 20.5t95 71.5l23 -25q-53 -70 -123 -112.5
t-131 -42.5q-84 0 -219.5 67.5t-212.5 67.5q-61 0 -115 -35l-119 -676q150 -23 393 -22q106 0 198.5 21.5t147 53t92 63.5t54.5 52l14 23l43 -15l-121 -295h-12q-72 29 -248 29h-801l7 33q102 18 118 106l203 1153q16 88 -82 107l6 35h934l74 -224l-47 -14q-2 6 -9 18.5
t-40 41t-77 51t-129.5 41t-189.5 18.5z" />
    <glyph glyph-name="edotaccent" unicode="&#x117;" horiz-adv-x="1136" 
d="M829 1294q-39 0 -62.5 27t-16.5 65q6 41 36.5 69t71.5 28t64.5 -28t17.5 -69q-6 -39 -38 -65.5t-73 -26.5zM598 29q262 0 502 252l28 -29q-233 -289 -557 -289q-190 0 -303.5 111.5t-113.5 312.5q0 283 196.5 500t495.5 217q133 0 237.5 -61.5t104.5 -188.5
q0 -104 -75 -178t-214 -117t-283.5 -65.5t-336.5 -34.5q-6 -43 -7 -90q0 -170 101.5 -255t224.5 -85zM821 1038q-195 0 -343 -147.5t-191 -366.5q780 49 780 332q0 84 -67.5 133t-178.5 49z" />
    <glyph glyph-name="Eogonek" unicode="&#x118;" horiz-adv-x="1228" 
d="M1079 -354q104 0 176 104l50 -29q-98 -152 -275 -151q-92 0 -148.5 51t-43.5 139q10 66 64 131.5t132 108.5h-971l7 33q102 18 118 106l203 1153q16 88 -82 107l6 35h934l74 -224l-47 -14q-2 6 -9 18.5t-40 41t-77 51t-129 41t-190 18.5q-172 0 -305 -18l-90 -504l4 -4
q68 51 142 51q80 0 220 -68.5t197 -68.5q66 0 106 20.5t95 71.5l23 -25q-53 -70 -123 -112.5t-131 -42.5q-84 0 -219.5 67.5t-212.5 67.5q-61 0 -115 -35l-119 -676q150 -23 393 -22q106 0 198.5 21.5t147 53t92 63.5t54.5 52l14 23l43 -15l-108 -266q-76 -33 -125 -88
t-60 -117q-10 -66 29 -107.5t98 -41.5z" />
    <glyph glyph-name="eogonek" unicode="&#x119;" horiz-adv-x="1136" 
d="M598 29q262 0 502 252l28 -29q-209 -258 -491 -285q-106 -72 -123 -172q-10 -66 29 -107.5t98 -41.5q104 0 176 104l49 -29q-98 -152 -274 -151q-92 0 -148.5 51t-44.5 139q18 111 142 203q-178 10 -282.5 121t-104.5 303q0 283 196.5 500t495.5 217q133 0 237.5 -61.5
t104.5 -188.5q0 -104 -75 -178t-214 -117t-283.5 -65.5t-336.5 -34.5q-6 -43 -7 -90q0 -170 101.5 -255t224.5 -85zM821 1038q-195 0 -343 -147.5t-191 -366.5q780 49 780 332q0 84 -67.5 133t-178.5 49z" />
    <glyph glyph-name="Ecaron" unicode="&#x11a;" horiz-adv-x="1228" 
d="M1188 1778l-357 -244l-278 244l47 49l254 -152l303 152zM831 1366q-172 0 -305 -18l-90 -504l4 -4q68 51 142 51q80 0 220 -68.5t197 -68.5q66 0 106 20.5t95 71.5l23 -25q-53 -70 -123 -112.5t-131 -42.5q-84 0 -219.5 67.5t-212.5 67.5q-61 0 -115 -35l-119 -676
q150 -23 393 -22q106 0 198.5 21.5t147 53t92 63.5t54.5 52l14 23l43 -15l-121 -295h-12q-72 29 -248 29h-801l7 33q102 18 118 106l203 1153q16 88 -82 107l6 35h934l74 -224l-47 -14q-2 6 -9 18.5t-40 41t-77 51t-129.5 41t-189.5 18.5z" />
    <glyph glyph-name="ecaron" unicode="&#x11b;" horiz-adv-x="1136" 
d="M1096 1413l-357 -244l-278 244l47 49l254 -151l303 151zM598 29q262 0 502 252l28 -29q-233 -289 -557 -289q-190 0 -303.5 111.5t-113.5 312.5q0 283 196.5 500t495.5 217q133 0 237.5 -61.5t104.5 -188.5q0 -104 -75 -178t-214 -117t-283.5 -65.5t-336.5 -34.5
q-6 -43 -7 -90q0 -170 101.5 -255t224.5 -85zM821 1038q-195 0 -343 -147.5t-191 -366.5q780 49 780 332q0 84 -67.5 133t-178.5 49z" />
    <glyph glyph-name="Gcircumflex" unicode="&#x11c;" horiz-adv-x="1392" 
d="M993 1665l-303 -152l-31 50l357 243l278 -243l-47 -50zM1147 717h334l-6 -35q-102 -14 -119 -107l-103 -575h-63l-19 164h-6q-176 -201 -438 -201q-293 0 -430 220t-78 548q55 311 272.5 524t524.5 213q193 0 305.5 -93t91.5 -204q-6 -39 -32.5 -70.5t-61.5 -31.5
q-41 0 -59.5 24.5t-18.5 61.5t-7 81t-23.5 81t-72 61.5t-149.5 24.5t-191.5 -41t-186.5 -121t-157.5 -213t-97.5 -299q-61 -346 64 -523t352 -177q238 0 410 260l51 286q8 47 -21.5 74t-70.5 33z" />
    <glyph glyph-name="gcircumflex" unicode="&#x11d;" horiz-adv-x="1327" 
d="M733 1300l-303 -151l-31 49l357 244l278 -244l-47 -49zM1225 1188q55 0 90 -27.5t35 -73.5q0 -33 -19.5 -57t-60.5 -24q-31 0 -73 31.5t-71 31.5q-49 0 -88 -63q129 -119 92 -334q-35 -193 -174 -303.5t-329 -110.5q-180 0 -285 94q-68 2 -110 -22.5t-50 -67.5
q-14 -74 75 -116t372 -85q258 -41 352 -106.5t94 -157.5q0 -117 -138 -184.5t-339 -67.5q-57 0 -122.5 6.5t-154 28t-154 55t-106.5 99t-28 149.5q10 66 57 114t111 66v9q-117 70 -95 190q12 63 61.5 102t113.5 48v10q-70 113 -43 274q33 188 177 298t339 110q145 0 241 -66
q99 150 230 150zM1026 674q27 168 -56 266t-233 98q-147 0 -258.5 -92t-136.5 -252q-27 -166 57 -269t240 -103q147 0 254.5 94t132.5 258zM297 29q-66 -12 -104.5 -55.5t-49.5 -98.5q-12 -74 37 -129t133 -83t159 -40t134 -12q164 0 275.5 51t111.5 121q0 61 -75.5 98
t-305.5 74q-178 27 -315 74z" />
    <glyph glyph-name="Gbreve" unicode="&#x11e;" horiz-adv-x="1392" 
d="M1020 1589q-113 0 -168 58.5t-66 140.5l60 20q16 -47 66.5 -86t121.5 -39q68 0 134.5 40t95.5 85l55 -20q-102 -199 -299 -199zM1147 717h334l-6 -35q-102 -14 -119 -107l-103 -575h-63l-19 164h-6q-176 -201 -438 -201q-293 0 -430 220t-78 548q55 311 272.5 524
t524.5 213q193 0 305.5 -93t91.5 -204q-6 -39 -32.5 -70.5t-61.5 -31.5q-41 0 -59.5 24.5t-18.5 61.5t-7 81t-23.5 81t-72 61.5t-149.5 24.5t-191.5 -41t-186.5 -121t-157.5 -213t-97.5 -299q-61 -346 64 -523t352 -177q238 0 410 260l51 286q8 47 -21.5 74t-70.5 33z" />
    <glyph glyph-name="gbreve" unicode="&#x11f;" horiz-adv-x="1327" 
d="M758 1225q-113 0 -168 58t-66 140l60 21q16 -47 66 -86t122 -39q68 0 134.5 40t94.5 85l56 -21q-102 -198 -299 -198zM1225 1188q55 0 90 -27.5t35 -73.5q0 -33 -19.5 -57t-60.5 -24q-31 0 -73 31.5t-71 31.5q-49 0 -88 -63q129 -119 92 -334q-35 -193 -174 -303.5
t-329 -110.5q-180 0 -285 94q-68 2 -110 -22.5t-50 -67.5q-14 -74 75 -116t372 -85q258 -41 352 -106.5t94 -157.5q0 -117 -138 -184.5t-339 -67.5q-57 0 -122.5 6.5t-154 28t-154 55t-106.5 99t-28 149.5q10 66 57 114t111 66v9q-117 70 -95 190q12 63 61.5 102t113.5 48
v10q-70 113 -43 274q33 188 177 298t339 110q145 0 241 -66q99 150 230 150zM1026 674q27 168 -56 266t-233 98q-147 0 -258.5 -92t-136.5 -252q-27 -166 57 -269t240 -103q147 0 254.5 94t132.5 258zM297 29q-66 -12 -104.5 -55.5t-49.5 -98.5q-12 -74 37 -129t133 -83
t159 -40t134 -12q164 0 275.5 51t111.5 121q0 61 -75.5 98t-305.5 74q-178 27 -315 74z" />
    <glyph glyph-name="Gdotaccent" unicode="&#x120;" horiz-adv-x="1392" 
d="M1006 1659q-39 0 -62.5 26.5t-17.5 65.5q6 41 36.5 68.5t71.5 27.5t64.5 -27.5t17.5 -68.5q-6 -39 -37.5 -65.5t-72.5 -26.5zM1147 717h334l-6 -35q-102 -14 -119 -107l-103 -575h-63l-19 164h-6q-176 -201 -438 -201q-293 0 -430 220t-78 548q55 311 272.5 524
t524.5 213q193 0 305.5 -93t91.5 -204q-6 -39 -32.5 -70.5t-61.5 -31.5q-41 0 -59.5 24.5t-18.5 61.5t-7 81t-23.5 81t-72 61.5t-149.5 24.5t-191.5 -41t-186.5 -121t-157.5 -213t-97.5 -299q-61 -346 64 -523t352 -177q238 0 410 260l51 286q8 47 -21.5 74t-70.5 33z" />
    <glyph glyph-name="gdotaccent" unicode="&#x121;" horiz-adv-x="1327" 
d="M793 1294q-39 0 -62.5 27t-17.5 65q6 41 36.5 69t71.5 28t64.5 -28t17.5 -69q-6 -39 -37.5 -65.5t-72.5 -26.5zM1225 1188q55 0 90 -27.5t35 -73.5q0 -33 -19.5 -57t-60.5 -24q-31 0 -73 31.5t-71 31.5q-49 0 -88 -63q129 -119 92 -334q-35 -193 -174 -303.5t-329 -110.5
q-180 0 -285 94q-68 2 -110 -22.5t-50 -67.5q-14 -74 75 -116t372 -85q258 -41 352 -106.5t94 -157.5q0 -117 -138 -184.5t-339 -67.5q-57 0 -122.5 6.5t-154 28t-154 55t-106.5 99t-28 149.5q10 66 57 114t111 66v9q-117 70 -95 190q12 63 61.5 102t113.5 48v10
q-70 113 -43 274q33 188 177 298t339 110q145 0 241 -66q99 150 230 150zM1026 674q27 168 -56 266t-233 98q-147 0 -258.5 -92t-136.5 -252q-27 -166 57 -269t240 -103q147 0 254.5 94t132.5 258zM297 29q-66 -12 -104.5 -55.5t-49.5 -98.5q-12 -74 37 -129t133 -83
t159 -40t134 -12q164 0 275.5 51t111.5 121q0 61 -75.5 98t-305.5 74q-178 27 -315 74z" />
    <glyph glyph-name="uni0122" unicode="&#x122;" horiz-adv-x="1392" 
d="M1147 717h334l-6 -35q-102 -14 -119 -107l-103 -575h-63l-19 164h-6q-176 -201 -438 -201q-293 0 -430 220t-78 548q55 311 272.5 524t524.5 213q193 0 305.5 -93t91.5 -204q-6 -39 -32.5 -70.5t-61.5 -31.5q-41 0 -59.5 24.5t-18.5 61.5t-7 81t-23.5 81t-72 61.5
t-149.5 24.5t-191.5 -41t-186.5 -121t-157.5 -213t-97.5 -299q-61 -346 64 -523t352 -177q238 0 410 260l51 286q8 47 -21.5 74t-70.5 33zM672 -111q55 0 75.5 -42t8.5 -101q-23 -100 -103 -229t-184 -211l-51 53q59 45 131 134t100 181l-4 7q-6 -2 -18 -3q-45 0 -70 30
t-14 79q10 45 47 73.5t82 28.5z" />
    <glyph glyph-name="uni0123" unicode="&#x123;" horiz-adv-x="1327" 
d="M793 1292q-55 0 -76 42t-8 102q23 100 102.5 229t183.5 211l52 -53q-59 -45 -131 -134.5t-101 -181.5l4 -6q6 2 19 2q45 0 69.5 -29.5t14.5 -78.5q-10 -45 -48 -74t-81 -29zM1225 1188q55 0 90 -27.5t35 -73.5q0 -33 -19.5 -57t-60.5 -24q-31 0 -73 31.5t-71 31.5
q-49 0 -88 -63q129 -119 92 -334q-35 -193 -174 -303.5t-329 -110.5q-180 0 -285 94q-68 2 -110 -22.5t-50 -67.5q-14 -74 75 -116t372 -85q258 -41 352 -106.5t94 -157.5q0 -117 -138 -184.5t-339 -67.5q-57 0 -122.5 6.5t-154 28t-154 55t-106.5 99t-28 149.5
q10 66 57 114t111 66v9q-117 70 -95 190q12 63 61.5 102t113.5 48v10q-70 113 -43 274q33 188 177 298t339 110q145 0 241 -66q99 150 230 150zM1026 674q27 168 -56 266t-233 98q-147 0 -258.5 -92t-136.5 -252q-27 -166 57 -269t240 -103q147 0 254.5 94t132.5 258z
M297 29q-66 -12 -104.5 -55.5t-49.5 -98.5q-12 -74 37 -129t133 -83t159 -40t134 -12q164 0 275.5 51t111.5 121q0 61 -75.5 98t-305.5 74q-178 27 -315 74z" />
    <glyph glyph-name="Hcircumflex" unicode="&#x124;" horiz-adv-x="1419" 
d="M981 1665l-303 -152l-31 50l357 243l278 -243l-47 -50zM1255 1434h324l-6 -35q-102 -18 -119 -107l-203 -1153q-8 -47 17.5 -72.5t64.5 -33.5l-6 -33h-326l7 33q102 18 118 106l107 596h-815l-105 -596q-8 -47 17.5 -72.5t64.5 -33.5l-6 -33h-326l7 33q102 18 118 106
l205 1153q16 88 -82 107l6 35h324l-6 -35q-102 -18 -119 -107l-80 -458h813l82 458q8 47 -17.5 73t-64.5 34z" />
    <glyph glyph-name="hcircumflex" unicode="&#x125;" horiz-adv-x="1161" 
d="M537 1700l-304 -152l-30 49l356 244l279 -244l-47 -49zM1149 84l27 -27q-84 -94 -203 -94q-57 0 -92 48t0 177l104 445q47 186 -10 295.5t-209 109.5q-143 0 -286.5 -149.5t-188.5 -364.5l-8 -47q-16 -100 -26.5 -186t-13.5 -137.5t-4 -88t-1 -51.5l2 -14h-146l211 1276
q14 47 -10.5 73.5t-65.5 32.5l7 35q14 2 36.5 7.5t80 39t98.5 84.5l20 -8l-123 -696h21q86 129 197.5 194.5t226.5 65.5q197 0 279.5 -126t29.5 -347l-103 -428q-47 -168 54 -168q43 0 96 49z" />
    <glyph glyph-name="Hbar" unicode="&#x126;" horiz-adv-x="1419" 
d="M1556 1399q-102 -14 -116 -105l-31 -198h145l-10 -70h-147l-140 -885q-6 -47 20 -73.5t64 -32.5l-6 -35h-323l4 35q102 14 119 106l94 596h-815l-95 -596q-6 -47 20 -73.5t64 -32.5l-6 -35h-323l4 35q102 14 119 106l139 885h-148l11 70h149l31 198q6 47 -19.5 73
t-64.5 32l6 35h324l-7 -35q-102 -14 -116 -105l-31 -198h815l31 198q6 47 -19.5 73t-64.5 32l6 35h324zM1243 834l31 192h-815l-31 -192h815z" />
    <glyph glyph-name="hbar" unicode="&#x127;" horiz-adv-x="1161" 
d="M1149 84l27 -27q-84 -94 -203 -94q-57 0 -92 48t0 177l104 445q47 186 -10 295.5t-209 109.5q-143 0 -286.5 -149.5t-188.5 -364.5l-8 -47q-16 -100 -26.5 -186t-13.5 -137.5t-4 -88t-1 -51.5l2 -14h-146l199 1204h-123l12 70h123v2q14 47 -10.5 73.5t-65.5 32.5l7 35
q14 2 36.5 7.5t80 39t98.5 84.5l20 -8l-47 -266h469l-10 -70h-471l-64 -360h21q86 129 197.5 194.5t226.5 65.5q197 0 279.5 -126t29.5 -347l-103 -428q-47 -168 54 -168q43 0 96 49z" />
    <glyph glyph-name="Itilde" unicode="&#x128;" horiz-adv-x="473" 
d="M578 1636q-51 0 -124 61.5t-108 61.5q-63 0 -94 -90l-45 19q51 166 188 165q51 0 124 -60t108 -60q61 0 96 90l43 -17q-51 -170 -188 -170zM63 0l7 33q102 18 118 106l203 1153q16 88 -80 107l4 35h326l-6 -35q-102 -18 -119 -107l-205 -1153q-6 -47 18.5 -72.5
t63.5 -33.5l-6 -33h-324z" />
    <glyph glyph-name="itilde" unicode="&#x129;" horiz-adv-x="460" 
d="M543 1272q-51 0 -124 61.5t-108 61.5q-63 0 -94 -90l-45 18q51 166 188 166q51 0 124 -60.5t108 -60.5q63 0 96 90l43 -16q-51 -170 -188 -170zM317 -37q-57 0 -95 48t-11 177l113 652q8 47 -18.5 72.5t-65.5 31.5l6 35q14 2 37.5 7t83 39t100.5 87l22 -8l-157 -901
q-37 -168 61 -168q43 0 92 49l31 -27q-80 -94 -199 -94z" />
    <glyph glyph-name="Imacron" unicode="&#x12a;" horiz-adv-x="473" 
d="M279 1683l20 93h504l-21 -93h-503zM63 0l7 33q102 18 118 106l203 1153q16 88 -80 107l4 35h326l-6 -35q-102 -18 -119 -107l-205 -1153q-6 -47 18.5 -72.5t63.5 -33.5l-6 -33h-324z" />
    <glyph glyph-name="imacron" unicode="&#x12b;" horiz-adv-x="460" 
d="M197 1319l20 92h504l-21 -92h-503zM317 -37q-57 0 -95 48t-11 177l113 652q8 47 -18.5 72.5t-65.5 31.5l6 35q14 2 37.5 7t83 39t100.5 87l22 -8l-157 -901q-37 -168 61 -168q43 0 92 49l31 -27q-80 -94 -199 -94z" />
    <glyph glyph-name="Iogonek" unicode="&#x12e;" horiz-adv-x="473" 
d="M315 1434h326l-6 -35q-102 -18 -119 -107l-205 -1153q-6 -47 18.5 -72.5t63.5 -33.5l-6 -33h-106q-76 -33 -125.5 -88t-59.5 -117q-10 -66 29 -107.5t98 -41.5q104 0 176 104l50 -29q-98 -152 -275 -151q-92 0 -148.5 51t-43.5 139q10 66 64 131.5t132 108.5h-115l7 33
q102 18 118 106l203 1153q16 88 -80 107z" />
    <glyph glyph-name="iogonek" unicode="&#x12f;" horiz-adv-x="481" 
d="M483 1507q43 0 73 -28.5t30 -71.5q0 -41 -30 -70.5t-73 -29.5t-71.5 29.5t-28.5 70.5q0 43 28.5 71.5t71.5 28.5zM393 35q43 0 92 49l31 -27q-80 -94 -199 -94q-31 0 -57 14q-123 -74 -139 -182q-10 -66 28.5 -107.5t98.5 -41.5q104 0 176 104l49 -29q-98 -152 -274 -151
q-92 0 -148.5 51t-44.5 139q12 72 72.5 140.5t144.5 111.5q-37 57 -12 176l113 652q8 47 -18.5 72.5t-65.5 31.5l6 35q14 2 37.5 7t83 39t100.5 87l22 -8l-157 -901q-37 -168 61 -168z" />
    <glyph glyph-name="Idotaccent" unicode="&#x130;" horiz-adv-x="473" 
d="M500 1659q-39 0 -62.5 26.5t-17.5 65.5q6 41 36.5 68.5t71.5 27.5t64.5 -27.5t17.5 -68.5q-6 -39 -37.5 -65.5t-72.5 -26.5zM63 0l7 33q102 18 118 106l203 1153q16 88 -80 107l4 35h326l-6 -35q-102 -18 -119 -107l-205 -1153q-6 -47 18.5 -72.5t63.5 -33.5l-6 -33h-324
z" />
    <glyph glyph-name="dotlessi" unicode="&#x131;" horiz-adv-x="413" 
d="M317 -37q-57 0 -95 48t-11 177l113 652q8 47 -18.5 72.5t-65.5 31.5l6 35q14 2 37.5 7t83 39t100.5 87l22 -8l-157 -901q-37 -168 61 -168q43 0 92 49l31 -27q-80 -94 -199 -94z" />
    <glyph glyph-name="IJ" unicode="&#x132;" horiz-adv-x="954" 
d="M92 0l6 33q102 18 119 106l203 1153q16 88 -80 107l4 35h326l-6 -35q-102 -18 -119 -107l-205 -1153q-6 -47 18.5 -72.5t63.5 -33.5l-6 -33h-324zM373 -377q-123 0 -177.5 53.5t-43.5 106.5q8 41 34.5 65.5t59.5 24.5q39 0 58.5 -28.5t24.5 -61.5t26.5 -61.5t62.5 -28.5
q102 0 166.5 82t101.5 297l215 1220q16 88 -80 107l4 35h326l-6 -35q-102 -18 -119 -107l-215 -1220q-80 -449 -438 -449z" />
    <glyph glyph-name="ij" unicode="&#x133;" horiz-adv-x="780" 
d="M410 1307q-43 0 -72 29.5t-29 70.5q0 43 29 71.5t72 28.5t72.5 -28.5t29.5 -71.5q0 -41 -29.5 -70.5t-72.5 -29.5zM780 1307q-43 0 -71.5 29.5t-28.5 70.5q0 43 28.5 71.5t71.5 28.5t73 -28.5t30 -71.5q0 -41 -30 -70.5t-73 -29.5zM244 -455q-57 0 -114.5 23.5
t-57.5 73.5q0 53 59 53q41 0 82 -42t82 -42q47 0 88 36t53 105l185 1088q8 47 -19 72.5t-65 31.5l6 35q14 2 37.5 7t83 39t100.5 87l22 -8l-204 -1194q-37 -203 -105.5 -284t-232.5 -81zM244 -37q-57 0 -95 48t-12 177l113 652q8 47 -18.5 72.5t-65.5 31.5l6 35q14 2 37.5 7
t83 39t100.5 87l23 -8l-158 -901q-37 -168 61 -168q43 0 93 49l30 -27q-79 -94 -198 -94z" />
    <glyph glyph-name="Jcircumflex" unicode="&#x134;" horiz-adv-x="454" 
d="M199 1513l-31 50l356 243l279 -243l-47 -50l-254 152zM-127 -377q-123 0 -177 53.5t-44 106.5q8 41 34.5 65.5t59.5 24.5q39 0 58.5 -28.5t24.5 -61.5t26.5 -61.5t62.5 -28.5q102 0 167 82t101 297l215 1220q16 88 -79 107l4 35h325l-6 -35q-102 -18 -119 -107
l-215 -1220q-80 -449 -438 -449z" />
    <glyph glyph-name="jcircumflex" unicode="&#x135;" horiz-adv-x="516" 
d="M20 1149l-30 49l356 244l279 -244l-47 -49l-254 151zM-102 -455q-57 0 -114.5 23.5t-57.5 73.5q0 53 59 53q43 0 82 -42t82 -42q47 0 88 36t53 105l184 1088q8 47 -18.5 72.5t-65.5 31.5l7 35q14 2 37.5 7t83 39t100.5 87l22 -8l-204 -1194q-37 -203 -105.5 -284
t-232.5 -81z" />
    <glyph glyph-name="uni0136" unicode="&#x136;" horiz-adv-x="1361" 
d="M1366 1468q117 0 174 -46t47 -122q-4 -35 -31.5 -57t-60.5 -22q-43 0 -64.5 28.5t-27.5 62.5t-31.5 62.5t-75.5 28.5q-160 0 -559 -506l469 -758q51 -88 158 -106l-2 -33h-344l2 33q37 8 50 31.5t-11 74.5l-406 643h-6q-98 -125 -287 -379l-47 -264q-8 -47 16.5 -72.5
t63.5 -33.5l-6 -33h-324l7 33q102 18 118 106l203 1153q16 88 -80 107l6 35h324l-6 -35q-102 -18 -119 -107l-117 -661h7q139 193 239 317.5t229.5 256.5t251 197.5t240.5 65.5zM672 -111q55 0 75.5 -42t8.5 -101q-23 -100 -103 -229t-184 -211l-51 53q59 45 131 134
t100 181l-4 7q-6 -2 -18 -3q-45 0 -70 30t-14 79q10 45 47 73.5t82 28.5z" />
    <glyph glyph-name="uni0137" unicode="&#x137;" horiz-adv-x="1079" 
d="M1145 84l31 -27q-63 -94 -179 -94q-82 0 -164.5 52.5t-149.5 135t-118 170t-88 175.5q-53 -4 -78 -4q-59 -213 -53 -494h-145l211 1278q14 47 -10.5 73.5t-65.5 32.5l6 35q14 2 36.5 7.5t81 39t99.5 84.5l19 -8l-121 -686h20q188 250 461 250q61 0 113.5 -33t52.5 -113
q0 -121 -151.5 -247.5t-348.5 -186.5q229 -483 457 -483q45 0 84 43zM885 1006q-147 0 -272.5 -121t-196.5 -338q131 2 265 65.5t217 150.5t83 159q0 35 -23.5 59.5t-72.5 24.5zM586 -111q55 0 75.5 -42t8.5 -101q-23 -100 -103 -229t-184 -211l-51 53q59 45 131 134
t100 181l-4 7q-6 -2 -18 -3q-45 0 -70 30t-14 79q10 45 47 73.5t82 28.5z" />
    <glyph glyph-name="kgreenlandic" unicode="&#x138;" horiz-adv-x="1079" 
d="M1145 84l31 -27q-63 -94 -179 -94q-82 0 -164.5 52.5t-149.5 135t-118 170t-88 175.5q-53 -4 -78 -4q-59 -213 -53 -494h-145l137 842q14 47 -10.5 73.5t-65.5 32.5l6 35q14 2 37 7t81 39t99 85l19 -8l-45 -250h18q188 250 461 250q61 0 113.5 -33t52.5 -113
q0 -121 -151.5 -247.5t-348.5 -186.5q229 -483 457 -483q45 0 84 43zM885 1006q-147 0 -272.5 -121t-196.5 -338q131 2 265 65.5t217 150.5t83 159q0 35 -23.5 59.5t-72.5 24.5z" />
    <glyph glyph-name="Lacute" unicode="&#x139;" horiz-adv-x="1058" 
d="M727 1702l-235 -176l-35 37l200 229q39 43 80 43q29 0 41.5 -18.5t7.5 -40.5q-6 -33 -59 -74zM1151 281l43 -15l-121 -295h-10q-72 29 -250 29h-750l7 33q102 18 118 106l203 1153q16 88 -82 107l6 35h326l-6 -35q-102 -18 -119 -107l-215 -1210q115 -14 344 -14
q109 0 200 21.5t145 53t93 63.5t54 52z" />
    <glyph glyph-name="lacute" unicode="&#x13a;" horiz-adv-x="485" 
d="M500 1642l-35 37l201 230q39 43 79 43q29 0 41.5 -18.5t8.5 -41.5q-6 -33 -60 -73zM344 -37q-59 0 -97 48t-11 177l190 1088q8 47 -18.5 73.5t-65.5 32.5l6 35q14 2 39 7.5t84 39t100 84.5l21 -6l-236 -1339q-37 -168 64 -168q41 0 90 49l31 -27q-80 -94 -197 -94z" />
    <glyph glyph-name="uni013B" unicode="&#x13b;" horiz-adv-x="1058" 
d="M1151 281l43 -15l-121 -295h-10q-72 29 -250 29h-750l7 33q102 18 118 106l203 1153q16 88 -82 107l6 35h326l-6 -35q-102 -18 -119 -107l-215 -1210q115 -14 344 -14q109 0 200 21.5t145 53t93 63.5t54 52zM672 -111q55 0 75.5 -42t8.5 -101q-23 -100 -103 -229
t-184 -211l-51 53q59 45 131 134t100 181l-4 7q-6 -2 -18 -3q-45 0 -70 30t-14 79q10 45 47 73.5t82 28.5z" />
    <glyph glyph-name="uni013C" unicode="&#x13c;" horiz-adv-x="485" 
d="M420 35q41 0 90 49l31 -27q-80 -94 -197 -94q-59 0 -97 48t-11 177l190 1088q8 47 -18.5 73.5t-65.5 32.5l6 35q14 2 39 7.5t84 39t100 84.5l21 -6l-236 -1339q-36 -168 64 -168zM307 -111q55 0 75.5 -42t8.5 -101q-23 -100 -102.5 -229t-184.5 -211l-51 53
q59 45 131 134t101 181l-4 7q-6 -2 -19 -3q-45 0 -69.5 30t-14.5 79q10 45 47 73.5t82 28.5z" />
    <glyph glyph-name="Lcaron" unicode="&#x13d;" horiz-adv-x="1058" 
d="M983 1325q-23 -100 -102.5 -229t-184.5 -211l-53 53q61 43 133 133t103 182l-5 7q-6 -2 -20 -3q-45 0 -69.5 30t-14.5 79q10 45 47 73.5t82 28.5q55 0 75.5 -42t8.5 -101zM1151 281l43 -15l-121 -295h-10q-72 29 -250 29h-750l7 33q102 18 118 106l203 1153
q16 88 -82 107l6 35h326l-6 -35q-102 -18 -119 -107l-215 -1210q115 -14 344 -14q109 0 200 21.5t145 53t93 63.5t54 52z" />
    <glyph glyph-name="lcaron" unicode="&#x13e;" horiz-adv-x="841" 
d="M592 1542l-236 -1339q-37 -168 64 -168q41 0 90 49l31 -27q-80 -94 -197 -94q-59 0 -97 48t-11 177l190 1088q8 47 -18.5 73.5t-65.5 32.5l6 35q14 2 39 7.5t84 39t100 84.5zM870 1468q55 0 76 -42t8 -101q-23 -100 -102.5 -229t-183.5 -211l-54 53q61 43 133 133
t103 182l-4 7q-6 -2 -21 -3q-45 0 -69.5 30t-14.5 79q10 45 48 73.5t81 28.5z" />
    <glyph glyph-name="Ldot" unicode="&#x13f;" horiz-adv-x="1058" 
d="M1151 281l43 -15l-121 -295h-10q-72 29 -250 29h-750l7 33q102 18 118 106l203 1153q16 88 -82 107l6 35h326l-6 -35q-102 -18 -119 -107l-215 -1210q115 -14 344 -14q109 0 200 21.5t145 53t93 63.5t54 52zM735 784q-45 0 -69.5 30t-14.5 79q10 45 47 73.5t82 28.5
q43 0 67.5 -28.5t14.5 -73.5q-10 -49 -47 -79t-80 -30z" />
    <glyph glyph-name="ldot" unicode="&#x140;" horiz-adv-x="643" 
d="M344 -37q-59 0 -97 48t-11 177l190 1088q8 47 -18.5 73.5t-65.5 32.5l6 35q14 2 39 7.5t84 39t100 84.5l21 -6l-236 -1339q-37 -168 64 -168q41 0 90 49l31 -27q-80 -94 -197 -94zM690 737q-45 0 -69.5 30t-14.5 79q10 45 48 73.5t81 28.5t67.5 -28.5t14.5 -73.5
q-10 -49 -47 -79t-80 -30z" />
    <glyph glyph-name="Lslash" unicode="&#x141;" horiz-adv-x="1058" 
d="M1147 301l41 -16l-135 -312h-13q-66 27 -249 27h-717l4 35q102 14 119 106l102 643l-254 -133l10 70l254 133l70 440q6 47 -19.5 73t-64.5 32l6 35h324l-7 -35q-102 -14 -116 -105l-60 -370l277 145l-10 -70l-277 -145l-123 -772q111 -14 334 -14q106 0 198.5 23.5
t145.5 58t92 69.5t54 60z" />
    <glyph glyph-name="lslash" unicode="&#x142;" horiz-adv-x="485" 
d="M592 1542l-162 -917l154 80l-13 -70l-153 -82l-62 -350q-37 -168 64 -168q41 0 90 49l31 -27q-80 -94 -197 -94q-59 0 -97 48t-11 177l51 297l-150 -79l10 71l152 80l127 719q8 47 -18.5 73.5t-65.5 32.5l6 35q14 2 39 7.5t84 39t100 84.5z" />
    <glyph glyph-name="Nacute" unicode="&#x143;" horiz-adv-x="1302" 
d="M1167 1702l-235 -176l-35 37l201 229q39 43 80 43q29 0 41 -18.5t8 -40.5q-7 -33 -60 -74zM1225 1434h268l-6 -35q-102 -18 -119 -107l-227 -1292h-94q-29 145 -94.5 282.5t-139.5 246t-147.5 215t-133 231.5t-81.5 254h-9l-192 -1090q-8 -47 17.5 -72.5t64.5 -33.5
l-6 -33h-269l6 33q102 18 119 106l203 1153q16 88 -82 107l6 35h201q31 -164 125 -345.5t189.5 -313.5t178 -291.5t97.5 -288.5h6l194 1097q16 88 -81 107z" />
    <glyph glyph-name="nacute" unicode="&#x144;" horiz-adv-x="1202" 
d="M915 1337l-235 -176l-35 37l201 229q39 43 80 43q29 0 41 -18t8 -41q-7 -33 -60 -74zM1255 84l29 -27q-88 -94 -205 -94q-57 0 -92 48t0 177l105 445q47 186 -10.5 295.5t-209.5 109.5q-145 0 -292.5 -157.5t-184.5 -380.5q-29 -166 -40 -291t-9 -168l2 -43h-147l141 842
q8 47 -18.5 72.5t-65.5 31.5l6 35q14 2 38 7t83 39t100 87l23 -8l-49 -260h16q86 129 198.5 194.5t225.5 65.5q197 0 280 -126t31 -347l-104 -428q-47 -168 55 -168q41 0 94 49z" />
    <glyph glyph-name="uni0145" unicode="&#x145;" horiz-adv-x="1302" 
d="M1225 1434h268l-6 -35q-102 -18 -119 -107l-227 -1292h-94q-29 145 -94.5 282.5t-139.5 246t-147.5 215t-133 231.5t-81.5 254h-9l-192 -1090q-8 -47 17.5 -72.5t64.5 -33.5l-6 -33h-269l6 33q102 18 119 106l203 1153q16 88 -82 107l6 35h201q31 -164 125 -345.5
t189.5 -313.5t178 -291.5t97.5 -288.5h6l194 1097q16 88 -81 107zM672 -111q55 0 75.5 -42t8.5 -101q-23 -100 -103 -229t-184 -211l-51 53q59 45 131 134t100 181l-4 7q-6 -2 -18 -3q-45 0 -70 30t-14 79q10 45 47 73.5t82 28.5z" />
    <glyph glyph-name="uni0146" unicode="&#x146;" horiz-adv-x="1202" 
d="M1255 84l29 -27q-88 -94 -205 -94q-57 0 -92 48t0 177l105 445q47 186 -10.5 295.5t-209.5 109.5q-145 0 -292.5 -157.5t-184.5 -380.5q-29 -166 -40 -291t-9 -168l2 -43h-147l141 842q8 47 -18.5 72.5t-65.5 31.5l6 35q14 2 38 7t83 39t100 87l23 -8l-49 -260h16
q86 129 198.5 194.5t225.5 65.5q197 0 280 -126t31 -347l-104 -428q-47 -168 55 -168q41 0 94 49zM700 -111q55 0 76 -42t8 -101q-23 -100 -102.5 -229t-183.5 -211l-52 53q59 45 131 134t101 181l-4 7q-6 -2 -19 -3q-45 0 -69.5 30t-14.5 79q10 45 47 73.5t82 28.5z" />
    <glyph glyph-name="Ncaron" unicode="&#x147;" horiz-adv-x="1302" 
d="M1262 1778l-357 -244l-278 244l47 49l254 -152l303 152zM1225 1434h268l-6 -35q-102 -18 -119 -107l-227 -1292h-94q-29 145 -94.5 282.5t-139.5 246t-147.5 215t-133 231.5t-81.5 254h-9l-192 -1090q-8 -47 17.5 -72.5t64.5 -33.5l-6 -33h-269l6 33q102 18 119 106
l203 1153q16 88 -82 107l6 35h201q31 -164 125 -345.5t189.5 -313.5t178 -291.5t97.5 -288.5h6l194 1097q16 88 -81 107z" />
    <glyph glyph-name="ncaron" unicode="&#x148;" horiz-adv-x="1202" 
d="M1143 1413l-357 -244l-278 244l47 49l254 -151l303 151zM1255 84l29 -27q-88 -94 -205 -94q-57 0 -92 48t0 177l105 445q47 186 -10.5 295.5t-209.5 109.5q-145 0 -292.5 -157.5t-184.5 -380.5q-29 -166 -40 -291t-9 -168l2 -43h-147l141 842q8 47 -18.5 72.5t-65.5 31.5
l6 35q14 2 38 7t83 39t100 87l23 -8l-49 -260h16q86 129 198.5 194.5t225.5 65.5q197 0 280 -126t31 -347l-104 -428q-47 -168 55 -168q41 0 94 49z" />
    <glyph glyph-name="napostrophe" unicode="&#x149;" horiz-adv-x="1202" 
d="M315 1468q55 0 76 -42t8 -101q-23 -100 -102.5 -229t-183.5 -211l-52 53q59 45 131 134t101 181l-4 7q-6 -2 -19 -3q-45 0 -69.5 30t-14.5 79q10 45 47 73.5t82 28.5zM1255 84l29 -27q-88 -94 -205 -94q-57 0 -92 48t0 177l105 445q47 186 -10.5 295.5t-209.5 109.5
q-145 0 -292.5 -157.5t-184.5 -380.5q-29 -166 -40 -291t-9 -168l2 -43h-147l141 842q8 47 -18.5 72.5t-65.5 31.5l6 35q14 2 38 7t83 39t100 87l23 -8l-49 -260h16q86 129 198.5 194.5t225.5 65.5q197 0 280 -126t31 -347l-104 -428q-47 -168 55 -168q41 0 94 49z" />
    <glyph glyph-name="Eng" unicode="&#x14a;" horiz-adv-x="1357" 
d="M1280 1434h266l-6 -35q-102 -14 -117 -105l-192 -1222q-39 -231 -140.5 -339t-275.5 -108q-125 0 -187.5 53.5t-54.5 104.5q8 41 35 66.5t60 25.5q39 0 61.5 -28.5t30.5 -62.5t37.5 -62.5t81.5 -28.5q86 0 160.5 71.5t111.5 243.5q-33 143 -107.5 280.5t-160.5 245
t-170 214t-152.5 231.5t-93.5 252h-8l-172 -1090q-6 -47 19.5 -73.5t64.5 -32.5l-6 -35h-269l4 35q102 14 119 106l182 1153q6 47 -19.5 73t-64.5 32l7 35h196q29 -135 103.5 -271.5t161.5 -247t172 -218t148.5 -223.5t78.5 -222h8l166 1042q6 47 -19.5 73t-64.5 32z" />
    <glyph glyph-name="eng" unicode="&#x14b;" horiz-adv-x="1148" 
d="M905 1104q195 0 273.5 -124t38.5 -349l-138 -742q-29 -170 -121 -256t-200 -86q-86 0 -146.5 40t-50.5 107.5t78 67.5q33 0 47 -23.5t16.5 -51t22.5 -51t63 -23.5q131 0 170 237l140 783q74 406 -219 405q-145 0 -293 -157.5t-185 -380.5q-29 -166 -40 -291t-9 -168
l2 -43h-147l141 842q8 47 -18.5 72.5t-65.5 31.5l6 35q14 2 38 7t83.5 39t100.5 87l22 -8l-49 -260h16q86 129 198.5 194.5t225.5 65.5z" />
    <glyph glyph-name="Omacron" unicode="&#x14c;" horiz-adv-x="1505" 
d="M827 1683l21 93h504l-21 -93h-504zM768 -37q-195 0 -335 108.5t-197.5 281.5t-22.5 370q57 324 277.5 534.5t525.5 210.5q285 0 437.5 -221t96.5 -536q-53 -307 -273 -527.5t-509 -220.5zM776 31q233 0 415.5 199.5t231.5 480.5q49 287 -69.5 489.5t-347.5 202.5
q-250 0 -431.5 -192.5t-232.5 -489.5q-31 -178 11 -336t153.5 -256t269.5 -98z" />
    <glyph glyph-name="omacron" unicode="&#x14d;" horiz-adv-x="1216" 
d="M557 1319l21 92h503l-20 -92h-504zM627 -37q-244 0 -375 173t-88 417q41 236 223 393.5t414 157.5q238 0 365.5 -168t82.5 -414q-41 -242 -217 -400.5t-405 -158.5zM645 29q180 0 316.5 140t171.5 353q35 219 -66.5 367.5t-286.5 148.5q-182 0 -323.5 -139t-173.5 -348
q-35 -215 67 -368.5t295 -153.5z" />
    <glyph glyph-name="Obreve" unicode="&#x14e;" horiz-adv-x="1505" 
d="M1028 1589q-113 0 -168 58.5t-65 140.5l59 20q16 -47 66.5 -86t121.5 -39q68 0 134.5 40t95.5 85l55 -20q-102 -199 -299 -199zM768 -37q-195 0 -335 108.5t-197.5 281.5t-22.5 370q57 324 277.5 534.5t525.5 210.5q285 0 437.5 -221t96.5 -536q-53 -307 -273 -527.5
t-509 -220.5zM776 31q233 0 415.5 199.5t231.5 480.5q49 287 -69.5 489.5t-347.5 202.5q-250 0 -431.5 -192.5t-232.5 -489.5q-31 -178 11 -336t153.5 -256t269.5 -98z" />
    <glyph glyph-name="obreve" unicode="&#x14f;" horiz-adv-x="1216" 
d="M813 1225q-113 0 -168 58t-65 140l59 21q16 -47 66.5 -86t121.5 -39q68 0 134.5 40t95.5 85l55 -21q-102 -198 -299 -198zM627 -37q-244 0 -375 173t-88 417q41 236 223 393.5t414 157.5q238 0 365.5 -168t82.5 -414q-41 -242 -217 -400.5t-405 -158.5zM645 29
q180 0 316.5 140t171.5 353q35 219 -66.5 367.5t-286.5 148.5q-182 0 -323.5 -139t-173.5 -348q-35 -215 67 -368.5t295 -153.5z" />
    <glyph glyph-name="Ohungarumlaut" unicode="&#x150;" horiz-adv-x="1505" 
d="M840 1526l-54 24q88 160 125 230q31 55 84 55q27 0 40.5 -16.5t8.5 -36.5q-4 -27 -47 -80zM1079 1526l-53 24q86 160 125 230q31 55 82 55q27 0 41 -16.5t10 -36.5q-4 -27 -47 -80zM768 -37q-195 0 -335 108.5t-197.5 281.5t-22.5 370q57 324 277.5 534.5t525.5 210.5
q285 0 437.5 -221t96.5 -536q-53 -307 -273 -527.5t-509 -220.5zM776 31q233 0 415.5 199.5t231.5 480.5q49 287 -69.5 489.5t-347.5 202.5q-250 0 -431.5 -192.5t-232.5 -489.5q-31 -178 11 -336t153.5 -256t269.5 -98z" />
    <glyph glyph-name="ohungarumlaut" unicode="&#x151;" horiz-adv-x="1216" 
d="M643 1161l-53 25q88 160 125 229q31 55 84 55q27 0 40 -16t9 -37q-4 -27 -47 -80zM883 1161l-54 25q86 160 125 229q31 55 82 55q27 0 41.5 -16t9.5 -37q-4 -27 -47 -80zM627 -37q-244 0 -375 173t-88 417q41 236 223 393.5t414 157.5q238 0 365.5 -168t82.5 -414
q-41 -242 -217 -400.5t-405 -158.5zM645 29q180 0 316.5 140t171.5 353q35 219 -66.5 367.5t-286.5 148.5q-182 0 -323.5 -139t-173.5 -348q-35 -215 67 -368.5t295 -153.5z" />
    <glyph glyph-name="OE" unicode="&#x152;" horiz-adv-x="2121" 
d="M1726 1366q-174 0 -307 -18l-90 -504l4 -4q68 51 142 51q80 0 220 -68.5t197 -68.5q66 0 106 20.5t95 71.5l23 -25q-53 -70 -123 -112.5t-131 -42.5q-84 0 -219.5 67.5t-212.5 67.5q-61 0 -115 -35l-119 -672q164 -27 420 -26q106 0 197.5 22.5t145.5 54t92 62.5t52 53
l15 23l43 -17l-136 -293h-12q-68 27 -250 27h-772q-115 -29 -246 -29q-195 0 -338 108.5t-202.5 282t-28.5 369.5q51 324 267 535t524 211q131 0 247 -43h951l57 -222l-47 -16q-2 6 -10 18.5t-41 41t-78 51t-130.5 41t-189.5 18.5zM1081 139l203 1153q0 4 1 8.5t1 6.5
q-131 102 -368 102q-233 0 -398.5 -173t-206.5 -437q-31 -197 14.5 -370t165 -280.5t287.5 -107.5q162 0 279 47q16 24 22 51z" />
    <glyph glyph-name="oe" unicode="&#x153;" horiz-adv-x="2054" 
d="M1516 29q262 0 501 252l29 -29q-233 -289 -557 -289q-156 0 -263.5 78t-140.5 219h-2q-84 -135 -220 -215t-294 -80q-244 0 -378 173t-95 417q37 236 215 393.5t412 157.5q162 0 281.5 -95.5t158.5 -254.5h8q92 158 246 253t346 95q133 0 237.5 -61.5t104.5 -188.5
q0 -104 -74.5 -178t-214 -117t-283.5 -65.5t-337 -34.5q-6 -43 -6 -90q0 -170 101.5 -255t224.5 -85zM1051 522q35 219 -66.5 367.5t-286.5 148.5q-182 0 -323.5 -139t-173.5 -348q-35 -215 67.5 -368.5t294.5 -153.5q180 0 316.5 140t171.5 353zM1739 1038
q-195 0 -343.5 -147.5t-191.5 -366.5q780 49 781 332q0 84 -67.5 133t-178.5 49z" />
    <glyph glyph-name="Racute" unicode="&#x154;" horiz-adv-x="1318" 
d="M1087 1702l-235 -176l-35 37l201 229q39 43 80 43q29 0 41 -18.5t8 -40.5q-7 -33 -60 -74zM1221 305q4 -152 37.5 -205t140.5 -55l2 -35q-61 -27 -111 -26q-41 0 -69.5 7t-60.5 30.5t-48 79t-14 139.5q2 240 -59.5 316.5t-268.5 76.5l-371 2l-86 -496q-8 -47 16.5 -72.5
t63.5 -33.5l-6 -33h-324l7 33q102 18 118 106l203 1153q16 88 -80 107l6 35h584q264 0 397.5 -103.5t98.5 -296.5q-25 -141 -125.5 -234t-263.5 -130l-2 -6q59 0 99 -19.5t61.5 -43t33.5 -81t14.5 -94.5t6.5 -121zM874 1366q-236 0 -350 -25l-112 -636h370q209 0 335 88
t155 243q27 154 -82 242t-316 88z" />
    <glyph glyph-name="racute" unicode="&#x155;" horiz-adv-x="876" 
d="M758 1337l-236 -176l-35 37l201 229q39 43 80 43q29 0 41 -18t8 -41q-6 -33 -59 -74zM850 1104q98 0 137 -37t33 -90q-4 -35 -35 -60.5t-76 -25.5q-49 0 -83.5 55t-86.5 55q-92 0 -194.5 -136t-149.5 -365q-25 -117 -36 -243t-11 -191v-68h-147l141 842q8 47 -18.5 72.5
t-65.5 31.5l6 35q14 2 39 7t84 39t100 87l21 -8l-41 -219v2h12q90 104 188.5 160.5t182.5 56.5z" />
    <glyph glyph-name="uni0156" unicode="&#x156;" horiz-adv-x="1318" 
d="M1221 305q4 -152 37.5 -205t140.5 -55l2 -35q-61 -27 -111 -26q-41 0 -69.5 7t-60.5 30.5t-48 79t-14 139.5q2 240 -59.5 316.5t-268.5 76.5l-371 2l-86 -496q-8 -47 16.5 -72.5t63.5 -33.5l-6 -33h-324l7 33q102 18 118 106l203 1153q16 88 -80 107l6 35h584
q264 0 397.5 -103.5t98.5 -296.5q-25 -141 -125.5 -234t-263.5 -130l-2 -6q59 0 99 -19.5t61.5 -43t33.5 -81t14.5 -94.5t6.5 -121zM874 1366q-236 0 -350 -25l-112 -636h370q209 0 335 88t155 243q27 154 -82 242t-316 88zM700 -111q55 0 76 -42t8 -101
q-23 -100 -102.5 -229t-183.5 -211l-52 53q59 45 131 134t101 181l-4 7q-6 -2 -19 -3q-45 0 -69.5 30t-14.5 79q10 45 47 73.5t82 28.5z" />
    <glyph glyph-name="uni0157" unicode="&#x157;" horiz-adv-x="876" 
d="M850 1104q98 0 137 -37t33 -90q-4 -35 -35 -60.5t-76 -25.5q-49 0 -83.5 55t-86.5 55q-92 0 -194.5 -136t-149.5 -365q-25 -117 -36 -243t-11 -191v-68h-147l141 842q8 47 -18.5 72.5t-65.5 31.5l6 35q14 2 39 7t84 39t100 87l21 -8l-41 -219v2h12q90 104 188.5 160.5
t182.5 56.5zM293 -111q55 0 75.5 -42t8.5 -101q-23 -100 -102.5 -229t-184.5 -211l-51 53q59 45 131 134t100 181l-4 7q-6 -2 -18 -3q-45 0 -69.5 30t-14.5 79q10 45 48 73.5t81 28.5z" />
    <glyph glyph-name="Rcaron" unicode="&#x158;" horiz-adv-x="1318" 
d="M1245 1778l-356 -244l-279 244l47 49l254 -152l303 152zM1221 305q4 -152 37.5 -205t140.5 -55l2 -35q-61 -27 -111 -26q-41 0 -69.5 7t-60.5 30.5t-48 79t-14 139.5q2 240 -59.5 316.5t-268.5 76.5l-371 2l-86 -496q-8 -47 16.5 -72.5t63.5 -33.5l-6 -33h-324l7 33
q102 18 118 106l203 1153q16 88 -80 107l6 35h584q264 0 397.5 -103.5t98.5 -296.5q-25 -141 -125.5 -234t-263.5 -130l-2 -6q59 0 99 -19.5t61.5 -43t33.5 -81t14.5 -94.5t6.5 -121zM874 1366q-236 0 -350 -25l-112 -636h370q209 0 335 88t155 243q27 154 -82 242t-316 88z
" />
    <glyph glyph-name="rcaron" unicode="&#x159;" horiz-adv-x="876" 
d="M938 1413l-356 -244l-279 244l47 49l254 -151l303 151zM850 1104q98 0 137 -37t33 -90q-4 -35 -35 -60.5t-76 -25.5q-49 0 -83.5 55t-86.5 55q-92 0 -194.5 -136t-149.5 -365q-25 -117 -36 -243t-11 -191v-68h-147l141 842q8 47 -18.5 72.5t-65.5 31.5l6 35q14 2 39 7
t84 39t100 87l21 -8l-41 -219v2h12q90 104 188.5 160.5t182.5 56.5z" />
    <glyph glyph-name="Sacute" unicode="&#x15a;" horiz-adv-x="1302" 
d="M741 1526l-34 37l200 229q39 43 80 43q29 0 41 -18.5t8 -40.5q-6 -33 -59 -74zM684 -35q-276 0 -416.5 116t-117.5 243q14 80 92 79q43 0 68.5 -27.5t33.5 -69.5t27.5 -90t49.5 -90t101.5 -69.5t177.5 -27.5q168 0 275.5 71.5t132.5 202.5q27 156 -67.5 248t-290.5 158
q-84 29 -141.5 52t-121 62t-98.5 82t-52.5 106.5t-2.5 139.5q23 133 169 225t345 92q236 0 373 -120.5t116 -233.5q-12 -74 -67 -74q-45 0 -67.5 28t-28 68t-21.5 88t-42 88t-97.5 67.5t-179.5 27.5q-154 0 -260.5 -72.5t-124.5 -191.5q-10 -66 11 -117t74.5 -90t112 -64.5
t148.5 -54.5q102 -33 179 -71.5t146.5 -96t98 -140.5t10.5 -185q-31 -170 -179.5 -264.5t-365.5 -94.5z" />
    <glyph glyph-name="sacute" unicode="&#x15b;" horiz-adv-x="1097" 
d="M723 1161l-35 37l201 229q39 43 80 43q29 0 41 -18t8 -41q-6 -33 -60 -74zM600 -37q-209 0 -334 91t-110 184q12 76 80 75q41 0 60 -29.5t29.5 -71.5t30 -83t78 -70.5t156.5 -29.5q135 0 240.5 61.5t121.5 163.5q10 63 -10 107.5t-73.5 73t-98.5 41.5t-125 32
q-406 84 -366 323q18 113 138 193t292 80q178 0 285.5 -80t95.5 -170q-14 -78 -72 -78q-45 0 -60.5 26.5t-17.5 65.5t-14.5 78t-66.5 65.5t-154 26.5q-119 0 -210.5 -57t-105.5 -150q-8 -53 12.5 -91t65.5 -60.5t93 -36.5t108 -27q14 -2 22 -4q84 -18 148.5 -42.5t127 -65.5
t90 -104.5t13.5 -145.5q-20 -117 -149.5 -204t-319.5 -87z" />
    <glyph glyph-name="Scircumflex" unicode="&#x15c;" horiz-adv-x="1302" 
d="M647 1513l-31 50l357 243l278 -243l-47 -50l-254 152zM684 -35q-276 0 -416.5 116t-117.5 243q14 80 92 79q43 0 68.5 -27.5t33.5 -69.5t27.5 -90t49.5 -90t101.5 -69.5t177.5 -27.5q168 0 275.5 71.5t132.5 202.5q27 156 -67.5 248t-290.5 158q-84 29 -141.5 52t-121 62
t-98.5 82t-52.5 106.5t-2.5 139.5q23 133 169 225t345 92q236 0 373 -120.5t116 -233.5q-12 -74 -67 -74q-45 0 -67.5 28t-28 68t-21.5 88t-42 88t-97.5 67.5t-179.5 27.5q-154 0 -260.5 -72.5t-124.5 -191.5q-10 -66 11 -117t74.5 -90t112 -64.5t148.5 -54.5
q102 -33 179 -71.5t146.5 -96t98 -140.5t10.5 -185q-31 -170 -179.5 -264.5t-365.5 -94.5z" />
    <glyph glyph-name="scircumflex" unicode="&#x15d;" horiz-adv-x="1097" 
d="M461 1149l-31 49l356 244l279 -244l-47 -49l-254 151zM600 -37q-209 0 -334 91t-110 184q12 76 80 75q41 0 60 -29.5t29.5 -71.5t30 -83t78 -70.5t156.5 -29.5q135 0 240.5 61.5t121.5 163.5q10 63 -10 107.5t-73.5 73t-98.5 41.5t-125 32q-406 84 -366 323
q18 113 138 193t292 80q178 0 285.5 -80t95.5 -170q-14 -78 -72 -78q-45 0 -60.5 26.5t-17.5 65.5t-14.5 78t-66.5 65.5t-154 26.5q-119 0 -210.5 -57t-105.5 -150q-8 -53 12.5 -91t65.5 -60.5t93 -36.5t108 -27q14 -2 22 -4q84 -18 148.5 -42.5t127 -65.5t90 -104.5
t13.5 -145.5q-20 -117 -149.5 -204t-319.5 -87z" />
    <glyph glyph-name="Scedilla" unicode="&#x15e;" horiz-adv-x="1302" 
d="M842 1468q236 0 376 -120.5t119 -233.5q-12 -74 -67 -74q-45 0 -67.5 28t-29 68t-23.5 88t-44 88t-98.5 67.5t-180.5 27.5q-166 0 -263 -71.5t-115 -194.5q-20 -125 68.5 -194.5t277.5 -129.5q102 -33 179 -71.5t146.5 -96t98 -140.5t10.5 -185q-29 -156 -158 -249
t-321 -108l-70 -110q37 12 70 12q80 0 120.5 -39t24.5 -111q-14 -74 -98 -131t-207 -57q-96 0 -150.5 31.5t-44.5 75.5q4 27 24.5 44t47.5 17q31 0 43 -17.5t14 -39t22.5 -39t65.5 -17.5q135 0 162 107q8 37 -13.5 60.5t-66.5 23.5q-63 0 -106 -37l-39 20l129 205
q-274 2 -412.5 118t-115.5 241q14 80 92 79q43 0 68.5 -27.5t33.5 -69.5t27.5 -90t49.5 -90t101.5 -69.5t177.5 -27.5h17l2 2l4 -2q160 4 261 75.5t124 198.5q27 158 -68.5 251t-289.5 155q-109 37 -179.5 68.5t-137 82.5t-91.5 123t-8 166q25 137 158 228t350 91z" />
    <glyph glyph-name="scedilla" unicode="&#x15f;" horiz-adv-x="1097" 
d="M705 1038q-119 0 -210.5 -57t-105.5 -150q-8 -53 12.5 -91t65.5 -60.5t93 -36.5t108 -27q14 -2 22 -4q205 -45 277 -92q131 -86 102 -266q-16 -109 -133 -194t-291 -95l-67 -108q37 12 69 12q80 0 121 -39t25 -111q-14 -74 -98.5 -131t-207.5 -57q-96 0 -150 31.5
t-44 75.5q4 27 24.5 44t47.5 17q31 0 43 -17.5t14 -39t22.5 -39t65.5 -17.5q135 0 162 107q8 37 -13.5 60.5t-66.5 23.5q-63 0 -107 -37l-39 20l127 203q-197 6 -314.5 96.5t-102.5 178.5q12 76 80 75q41 0 60 -29.5t29.5 -71.5t30 -83t78 -70.5t156.5 -29.5h26v2l5 -2
q127 8 222 68.5t109 156.5q8 51 -7 90t-38.5 62.5t-76 44t-85 29.5t-100.5 24q-213 47 -289 102q-109 80 -86 225q18 111 141.5 192t297.5 81q178 0 285.5 -80t95.5 -170q-14 -78 -72 -78q-45 0 -60.5 26.5t-17.5 65.5t-14.5 78t-66.5 65.5t-154 26.5z" />
    <glyph glyph-name="Scaron" unicode="&#x160;" horiz-adv-x="1302" 
d="M920 1534l-279 244l47 49l254 -152l303 152l31 -49zM684 -35q-276 0 -416.5 116t-117.5 243q14 80 92 79q43 0 68.5 -27.5t33.5 -69.5t27.5 -90t49.5 -90t101.5 -69.5t177.5 -27.5q168 0 275.5 71.5t132.5 202.5q27 156 -67.5 248t-290.5 158q-84 29 -141.5 52t-121 62
t-98.5 82t-52.5 106.5t-2.5 139.5q23 133 169 225t345 92q236 0 373 -120.5t116 -233.5q-12 -74 -67 -74q-45 0 -67.5 28t-28 68t-21.5 88t-42 88t-97.5 67.5t-179.5 27.5q-154 0 -260.5 -72.5t-124.5 -191.5q-10 -66 11 -117t74.5 -90t112 -64.5t148.5 -54.5
q102 -33 179 -71.5t146.5 -96t98 -140.5t10.5 -185q-31 -170 -179.5 -264.5t-365.5 -94.5z" />
    <glyph glyph-name="scaron" unicode="&#x161;" horiz-adv-x="1097" 
d="M707 1169l-279 244l47 49l254 -151l303 151l31 -49zM600 -37q-209 0 -334 91t-110 184q12 76 80 75q41 0 60 -29.5t29.5 -71.5t30 -83t78 -70.5t156.5 -29.5q135 0 240.5 61.5t121.5 163.5q10 63 -10 107.5t-73.5 73t-98.5 41.5t-125 32q-406 84 -366 323q18 113 138 193
t292 80q178 0 285.5 -80t95.5 -170q-14 -78 -72 -78q-45 0 -60.5 26.5t-17.5 65.5t-14.5 78t-66.5 65.5t-154 26.5q-119 0 -210.5 -57t-105.5 -150q-8 -53 12.5 -91t65.5 -60.5t93 -36.5t108 -27q14 -2 22 -4q84 -18 148.5 -42.5t127 -65.5t90 -104.5t13.5 -145.5
q-20 -117 -149.5 -204t-319.5 -87z" />
    <glyph glyph-name="uni0162" unicode="&#x162;" horiz-adv-x="1097" 
d="M1286 1468l45 -301l-49 -16q-2 8 -7 22.5t-34 52.5t-71 65.5t-123.5 51t-186.5 23.5h-41l-194 -1225q-6 -47 19.5 -73.5t64.5 -32.5l-7 -35h-129l-90 -143q37 12 70 12q80 0 121 -39t24 -111q-14 -74 -98 -131t-207 -57q-96 0 -150.5 31.5t-43.5 75.5q4 27 24.5 44
t46.5 17q31 0 43.5 -17.5t14.5 -39t22.5 -39t65.5 -17.5q135 0 162 107q8 37 -13.5 60.5t-66.5 23.5q-63 0 -107 -37l-39 20l152 240h-125l6 35q41 6 76 32.5t41 73.5l194 1225h-43q-104 0 -193 -22.5t-141.5 -54.5t-89 -62.5t-51.5 -52.5l-14 -23l-43 16l141 301h10
q74 -35 211 -34h570q139 0 221 34h12z" />
    <glyph glyph-name="uni0163" unicode="&#x163;" horiz-adv-x="669" 
d="M483 1008l-125 -789q-14 -88 11.5 -129t101.5 -41t141 23l9 -60q-63 -33 -148 -43l-72 -112q37 12 70 12q80 0 121 -39t24 -111q-14 -74 -98 -131t-207 -57q-96 0 -150.5 31.5t-43.5 75.5q4 27 24.5 44t46.5 17q31 0 43.5 -17.5t14.5 -39t22.5 -39t65.5 -17.5
q135 0 162 107q8 37 -13.5 60.5t-66.5 23.5q-63 0 -107 -37l-39 20l129 205q-94 4 -136 63.5t-19 194.5l123 785h-174l6 34q141 45 194 110t103 224h45l-47 -305h292l-10 -63h-293z" />
    <glyph glyph-name="Tcaron" unicode="&#x164;" horiz-adv-x="1097" 
d="M1126 1778l-356 -244l-278 244l47 49l254 -152l303 152zM1294 1468l39 -301l-47 -16q-2 8 -7 22.5t-33.5 52.5t-69.5 65.5t-123 51t-187 23.5h-41l-215 -1225q-8 -47 16.5 -73.5t63.5 -32.5l-6 -35h-324l7 35q102 14 118 106l217 1225h-40q-104 0 -194.5 -22.5
t-144 -54.5t-91 -62.5t-52.5 -52.5l-14 -23l-43 16l147 301h11q70 -35 211 -34h569q139 0 221 34h12z" />
    <glyph glyph-name="tcaron" unicode="&#x165;" horiz-adv-x="964" 
d="M1032 1468q55 0 75.5 -42t8.5 -101q-23 -100 -102.5 -229t-184.5 -211l-53 53q61 43 133 133t103 182l-4 7q-6 -2 -21 -3q-45 0 -69.5 30t-14.5 79q10 45 47 73.5t82 28.5zM463 47q74 0 139 23l8 -60q-90 -47 -200 -47q-104 0 -151.5 57.5t-20.5 200.5l137 783h-174l6 34
q141 47 197.5 111.5t105.5 224.5h45l-53 -307l293 2l-11 -63l-292 -2l-140 -789q-16 -86 9.5 -127t101.5 -41z" />
    <glyph glyph-name="Tbar" unicode="&#x166;" horiz-adv-x="1097" 
d="M1286 1468l45 -301l-49 -16q-2 8 -7 22.5t-34 52.5t-71 65.5t-123.5 51t-186.5 23.5h-41l-100 -629h313l-8 -69h-315l-84 -527q-6 -47 19.5 -73.5t64.5 -32.5l-7 -35h-323l6 35q41 6 76 32.5t41 73.5l84 527h-316l11 69h315l100 629h-43q-104 0 -193 -22.5t-141.5 -54.5
t-89 -62.5t-51.5 -52.5l-14 -23l-43 16l141 301h10q74 -35 211 -34h570q139 0 221 34h12z" />
    <glyph glyph-name="tbar" unicode="&#x167;" horiz-adv-x="669" 
d="M776 1008h-293l-59 -375h278l-10 -70h-278l-56 -344q-14 -88 11.5 -129t101.5 -41t141 23l9 -60q-90 -47 -201 -47q-104 0 -151.5 57.5t-24.5 200.5l53 340h-174l10 68h174l60 377h-174l6 34q141 45 194 110t103 224h45l-47 -305h292z" />
    <glyph glyph-name="Utilde" unicode="&#x168;" horiz-adv-x="1341" 
d="M1122 1636q-51 0 -123.5 61.5t-107.5 61.5q-63 0 -94 -90l-45 19q51 166 188 165q51 0 124 -60t107 -60q61 0 97 90l43 -17q-52 -170 -189 -170zM731 -35q-571 0 -446 647l121 680q8 47 -16.5 74t-63.5 33l6 35h332l-7 -35q-41 -6 -75.5 -33t-44.5 -74l-119 -680
q-51 -264 21.5 -422.5t303.5 -158.5q127 0 220.5 45t150.5 130t90 181t53 225l115 672q8 41 -19.5 75t-68.5 40l6 35h281l-6 -37q-43 -6 -79 -38t-44 -75l-115 -674q-23 -143 -61.5 -251.5t-106 -202t-175.5 -142.5t-253 -49z" />
    <glyph glyph-name="utilde" unicode="&#x169;" 
d="M668 1395q-63 0 -95 -90l-45 18q51 166 189 166q51 0 123.5 -60.5t107.5 -60.5q63 0 96 90l43 -16q-51 -170 -188 -170q-51 0 -123.5 61.5t-107.5 61.5zM1235 84l31 -27q-80 -94 -199 -94q-57 0 -95 48t-11 177l6 35h-15q-86 -131 -198.5 -195.5t-223.5 -64.5
q-211 0 -285.5 122t-4.5 351l131 428q57 168 -45 168q-41 0 -97 -51l-28 29q94 94 198 94q25 0 46.5 -8.5t44 -32t21.5 -68.5t-22 -118l-133 -443q-61 -193 -8 -299t215 -106q143 0 283.5 157.5t177.5 380.5q29 166 40 291t9 166l-2 43h148l-138 -864q-37 -168 62 -168
q43 0 92 49z" />
    <glyph glyph-name="Umacron" unicode="&#x16a;" horiz-adv-x="1341" 
d="M752 1683l20 93h504l-21 -93h-503zM731 -35q-571 0 -446 647l121 680q8 47 -16.5 74t-63.5 33l6 35h332l-7 -35q-41 -6 -75.5 -33t-44.5 -74l-119 -680q-51 -264 21.5 -422.5t303.5 -158.5q127 0 220.5 45t150.5 130t90 181t53 225l115 672q8 41 -19.5 75t-68.5 40l6 35
h281l-6 -37q-43 -6 -79 -38t-44 -75l-115 -674q-23 -143 -61.5 -251.5t-106 -202t-175.5 -142.5t-253 -49z" />
    <glyph glyph-name="umacron" unicode="&#x16b;" 
d="M1055 1411l-21 -92h-504l21 92h504zM1235 84l31 -27q-80 -94 -199 -94q-57 0 -95 48t-11 177l6 35h-15q-86 -131 -198.5 -195.5t-223.5 -64.5q-211 0 -285.5 122t-4.5 351l131 428q57 168 -45 168q-41 0 -97 -51l-28 29q94 94 198 94q25 0 46.5 -8.5t44 -32t21.5 -68.5
t-22 -118l-133 -443q-61 -193 -8 -299t215 -106q143 0 283.5 157.5t177.5 380.5q29 166 40 291t9 166l-2 43h148l-138 -864q-37 -168 62 -168q43 0 92 49z" />
    <glyph glyph-name="Ubreve" unicode="&#x16c;" horiz-adv-x="1341" 
d="M991 1589q-113 0 -168 58.5t-65 140.5l59 20q16 -47 66.5 -86t122.5 -39q68 0 134 40t95 85l55 -20q-102 -199 -299 -199zM731 -35q-571 0 -446 647l121 680q8 47 -16.5 74t-63.5 33l6 35h332l-7 -35q-41 -6 -75.5 -33t-44.5 -74l-119 -680q-51 -264 21.5 -422.5
t303.5 -158.5q127 0 220.5 45t150.5 130t90 181t53 225l115 672q8 41 -19.5 75t-68.5 40l6 35h281l-6 -37q-43 -6 -79 -38t-44 -75l-115 -674q-23 -143 -61.5 -251.5t-106 -202t-175.5 -142.5t-253 -49z" />
    <glyph glyph-name="ubreve" unicode="&#x16d;" 
d="M799 1225q-113 0 -168.5 58t-65.5 140l60 21q16 -47 66 -86t122 -39q68 0 134.5 40t94.5 85l56 -21q-102 -198 -299 -198zM1235 84l31 -27q-80 -94 -199 -94q-57 0 -95 48t-11 177l6 35h-15q-86 -131 -198.5 -195.5t-223.5 -64.5q-211 0 -285.5 122t-4.5 351l131 428
q57 168 -45 168q-41 0 -97 -51l-28 29q94 94 198 94q25 0 46.5 -8.5t44 -32t21.5 -68.5t-22 -118l-133 -443q-61 -193 -8 -299t215 -106q143 0 283.5 157.5t177.5 380.5q29 166 40 291t9 166l-2 43h148l-138 -864q-37 -168 62 -168q43 0 92 49z" />
    <glyph glyph-name="Uring" unicode="&#x16e;" horiz-adv-x="1341" 
d="M973 1538q-90 0 -143.5 63.5t-38.5 151.5q14 90 86.5 153.5t164.5 63.5q90 0 143.5 -63.5t39.5 -153.5q-14 -86 -89 -150.5t-163 -64.5zM985 1618q57 0 104.5 39t55.5 96t-25 98t-90 41t-102 -40t-56 -99q-10 -57 23 -96t90 -39zM731 -35q-571 0 -446 647l121 680
q8 47 -16.5 74t-63.5 33l6 35h332l-7 -35q-41 -6 -75.5 -33t-44.5 -74l-119 -680q-51 -264 21.5 -422.5t303.5 -158.5q127 0 220.5 45t150.5 130t90 181t53 225l115 672q8 41 -19.5 75t-68.5 40l6 35h281l-6 -37q-43 -6 -79 -38t-44 -75l-115 -674q-23 -143 -61.5 -251.5
t-106 -202t-175.5 -142.5t-253 -49z" />
    <glyph glyph-name="uring" unicode="&#x16f;" 
d="M823 1174q-90 0 -143 63t-39 152q14 90 87 153.5t165 63.5q90 0 143.5 -63.5t38.5 -153.5q-14 -86 -89 -150.5t-163 -64.5zM723 1389q-10 -57 22.5 -96.5t90 -39.5t104.5 39t55.5 96.5t-24.5 98.5t-90.5 41t-102.5 -40t-55 -99zM1235 84l31 -27q-80 -94 -199 -94
q-57 0 -95 48t-11 177l6 35h-15q-86 -131 -198.5 -195.5t-223.5 -64.5q-211 0 -285.5 122t-4.5 351l131 428q57 168 -45 168q-41 0 -97 -51l-28 29q94 94 198 94q25 0 46.5 -8.5t44 -32t21.5 -68.5t-22 -118l-133 -443q-61 -193 -8 -299t215 -106q143 0 283.5 157.5
t177.5 380.5q29 166 40 291t9 166l-2 43h148l-138 -864q-37 -168 62 -168q43 0 92 49z" />
    <glyph glyph-name="Uhungarumlaut" unicode="&#x170;" horiz-adv-x="1341" 
d="M889 1526l-53 24q88 160 125 230q31 55 83 55q27 0 40.5 -16.5t9.5 -36.5q-4 -27 -47 -80zM1128 1526l-53 24q86 160 125 230q31 55 82 55q27 0 41 -16.5t10 -36.5q-4 -27 -47 -80zM731 -35q-571 0 -446 647l121 680q8 47 -16.5 74t-63.5 33l6 35h332l-7 -35
q-41 -6 -75.5 -33t-44.5 -74l-119 -680q-51 -264 21.5 -422.5t303.5 -158.5q127 0 220.5 45t150.5 130t90 181t53 225l115 672q8 41 -19.5 75t-68.5 40l6 35h281l-6 -37q-43 -6 -79 -38t-44 -75l-115 -674q-23 -143 -61.5 -251.5t-106 -202t-175.5 -142.5t-253 -49z" />
    <glyph glyph-name="uhungarumlaut" unicode="&#x171;" 
d="M821 1337l-157 -176l-54 25q88 160 125 229q31 55 84 55q27 0 40 -16t9 -37q-4 -27 -47 -80zM903 1161l-53 25q86 160 125 229q31 55 82 55q27 0 41 -16t10 -37q-4 -27 -47 -80zM1235 84l31 -27q-80 -94 -199 -94q-57 0 -95 48t-11 177l6 35h-15q-86 -131 -198.5 -195.5
t-223.5 -64.5q-211 0 -285.5 122t-4.5 351l131 428q57 168 -45 168q-41 0 -97 -51l-28 29q94 94 198 94q25 0 46.5 -8.5t44 -32t21.5 -68.5t-22 -118l-133 -443q-61 -193 -8 -299t215 -106q143 0 283.5 157.5t177.5 380.5q29 166 40 291t9 166l-2 43h148l-138 -864
q-37 -168 62 -168q43 0 92 49z" />
    <glyph glyph-name="Uogonek" unicode="&#x172;" horiz-adv-x="1341" 
d="M1290 1434h281l-6 -37q-43 -6 -79 -38t-44 -75l-115 -674q-23 -141 -60.5 -248.5t-103 -199.5t-169 -142.5t-242.5 -54.5q-104 -72 -121 -170q-10 -66 28.5 -107.5t98.5 -41.5q104 0 176 104l49 -29q-98 -152 -274 -151q-92 0 -148.5 51t-44.5 139q18 115 148 207
q-496 39 -379 645l121 680q8 47 -16.5 74t-63.5 33l6 35h332l-7 -35q-41 -6 -75.5 -33t-44.5 -74l-119 -680q-51 -264 21.5 -422.5t303.5 -158.5q127 0 220.5 45t150.5 130t90 181t53 225l115 672q8 41 -19.5 75t-68.5 40z" />
    <glyph glyph-name="uogonek" unicode="&#x173;" 
d="M1040 -354q104 0 177 104l49 -29q-98 -152 -275 -151q-92 0 -148.5 51t-43.5 139q23 135 186 234q-53 57 -24 194l6 35h-15q-86 -131 -198.5 -195.5t-223.5 -64.5q-211 0 -285.5 122t-4.5 351l131 428q57 168 -45 168q-41 0 -97 -51l-28 29q94 94 198 94q25 0 46.5 -8.5
t44 -32t21.5 -68.5t-22 -118l-133 -443q-61 -193 -8 -299t215 -106q143 0 283.5 157.5t177.5 380.5q29 166 40 291t9 166l-2 43h148l-138 -864q-37 -168 62 -168q43 0 92 49l31 -27q-80 -94 -199 -94q-20 0 -31 4q-106 -72 -123 -172q-10 -66 29 -107.5t98 -41.5z" />
    <glyph glyph-name="Wcircumflex" unicode="&#x174;" horiz-adv-x="1912" 
d="M1206 1665l-303 -152l-31 50l357 243l278 -243l-47 -50zM1898 1434h271l-6 -35q-96 -10 -140 -103l-596 -1233q12 -16 39 -26l-10 -37q-74 0 -162 -27h-10l-149 1133h-11l-503 -1043q18 -16 38 -26l-8 -37q-74 0 -162 -27h-12l-174 1323q-6 49 -38 74t-66 29l6 35h317
l-6 -35q-33 -4 -62.5 -30t-23.5 -73l145 -1101l7 -37h4l526 1089q-16 78 -74 105l9 37l153 79h10l170 -1273l6 -37h7l549 1138q23 47 3 73t-53 30z" />
    <glyph glyph-name="wcircumflex" unicode="&#x175;" horiz-adv-x="1837" 
d="M1221 1300l-303 -151l-31 49l356 244l279 -244l-47 -49zM1833 961q20 -86 1 -271.5t-77 -327.5q-66 -166 -179.5 -282.5t-277.5 -116.5q-90 0 -166.5 63.5t-91.5 176.5h-14q-178 -240 -391 -240q-100 0 -184 76t-84 211q0 264 352 694l-6 12h-240q-182 4 -203 -90
q-10 -47 31 -86l-33 -26q-86 59 -63 159q10 57 73.5 107.5t196.5 46.5h397l7 -12q-2 -4 -39 -54.5t-52.5 -72t-55.5 -78.5t-60.5 -92t-54 -91.5t-53 -99.5t-40 -93t-30 -95t-9.5 -84q0 -248 222 -248q98 0 211.5 120t187.5 277.5t74 268.5q0 53 -19.5 139t-19.5 143
q0 41 24.5 75t73.5 34q43 0 68.5 -38t25.5 -95q0 -59 -43 -167t-86 -243t-43 -266q0 -145 57.5 -196.5t145.5 -51.5q92 0 190.5 99.5t147.5 242.5q72 211 41 389q-8 51 -68.5 107.5t-64.5 115.5q-2 41 20.5 72t73.5 31q100 0 127 -143z" />
    <glyph glyph-name="Ycircumflex" unicode="&#x176;" horiz-adv-x="1179" 
d="M547 1513l-31 50l356 243l279 -243l-47 -50l-254 152zM420 0l6 35q102 14 119 106l98 564l-307 587q-51 96 -137 107l6 35h352l-4 -35q-41 -6 -65.5 -33t-0.5 -74l256 -487h13l430 487q37 53 23.5 77t-52.5 30l8 35h299l-8 -35q-88 -10 -172 -107l-516 -587l-100 -564
q-8 -47 17.5 -73.5t64.5 -32.5l-7 -35h-323z" />
    <glyph glyph-name="ycircumflex" unicode="&#x177;" horiz-adv-x="1228" 
d="M836 1300l-304 -151l-30 49l356 244l279 -244l-47 -49zM1116 1104q59 0 87 -42t22 -101q-18 -147 -149.5 -424t-248.5 -461l-51 -82q-135 -227 -246.5 -339t-230.5 -112q-55 0 -89 28t-34 71t28.5 67.5t65.5 24.5q29 0 68 -17.5t53 -17.5q98 0 153.5 56.5t157.5 226.5
q10 18 17 26q-72 547 -179.5 776.5t-256.5 229.5q-23 0 -59 -12.5t-52 -30.5l-29 26q63 94 191 95q178 0 303 -227.5t176 -684.5h12q78 131 122 211t92 199t61 217q6 49 -42 106.5t-42 108.5q4 37 32.5 59.5t67.5 22.5z" />
    <glyph glyph-name="Ydieresis" unicode="&#x178;" horiz-adv-x="1179" 
d="M676 1659q-41 0 -63.5 26.5t-14.5 65.5q8 41 42 68.5t75 27.5t62.5 -27.5t13.5 -68.5q-8 -39 -41 -65.5t-74 -26.5zM993 1659q-41 0 -63.5 26.5t-14.5 65.5q10 41 43 68.5t74 27.5t62.5 -27.5t13.5 -68.5q-8 -39 -41 -65.5t-74 -26.5zM420 0l6 35q102 14 119 106l98 564
l-307 587q-51 96 -137 107l6 35h352l-4 -35q-41 -6 -65.5 -33t-0.5 -74l256 -487h13l430 487q37 53 23.5 77t-52.5 30l8 35h299l-8 -35q-88 -10 -172 -107l-516 -587l-100 -564q-8 -47 17.5 -73.5t64.5 -32.5l-7 -35h-323z" />
    <glyph glyph-name="Zacute" unicode="&#x179;" horiz-adv-x="1230" 
d="M938 1526l-35 37l201 229q39 43 80 43q29 0 41 -18.5t8 -40.5q-6 -33 -59 -74zM1006 -231q-109 0 -248.5 35.5t-249 79.5t-241.5 80t-230 36l6 33l1212 1333h-391q-111 0 -206 -27.5t-151 -66.5t-97 -78t-58 -68l-14 -26l-43 14l117 354h10q70 -35 215 -34h809l-6 -33
l-1192 -1313q127 -27 399.5 -143.5t364.5 -116.5q90 0 140 26.5t50 71.5q0 14 -20.5 48t-20.5 65q0 45 24.5 70.5t63.5 25.5q41 0 67.5 -28.5t26.5 -77.5q0 -109 -93.5 -184.5t-243.5 -75.5z" />
    <glyph glyph-name="zacute" unicode="&#x17a;" horiz-adv-x="1337" 
d="M731 1161l-35 37l201 229q39 43 80 43q29 0 41 -18t8 -41q-6 -33 -59 -74zM129 -37q-31 0 -31 31q0 45 48.5 95t113.5 75l873 680v12q-78 14 -229.5 98t-268.5 84q-57 0 -91 -25.5t-46.5 -61.5t-22.5 -71.5t-34.5 -61t-67.5 -25.5q-47 0 -80 25.5t-33 70.5
q0 96 107.5 155.5t220.5 59.5q137 0 309 -51.5t291 -51.5q78 0 172 103h12l29 -33q-59 -106 -115.5 -168.5t-142.5 -130.5l-760 -592v-12q135 -4 332.5 -70.5t292.5 -66.5q174 0 174 96q0 18 -23.5 57t-23.5 74q0 51 28.5 77.5t73.5 26.5t75.5 -30.5t30.5 -85.5
q0 -121 -99 -202t-247 -81q-154 0 -332 44t-313 44q-76 0 -120 -22.5t-65.5 -44t-37.5 -21.5z" />
    <glyph glyph-name="Zdotaccent" unicode="&#x17b;" horiz-adv-x="1230" 
d="M926 1659q-39 0 -62.5 26.5t-17.5 65.5q6 41 36.5 68.5t71.5 27.5t64.5 -27.5t17.5 -68.5q-6 -39 -37.5 -65.5t-72.5 -26.5zM1006 -231q-109 0 -248.5 35.5t-249 79.5t-241.5 80t-230 36l6 33l1212 1333h-391q-111 0 -206 -27.5t-151 -66.5t-97 -78t-58 -68l-14 -26
l-43 14l117 354h10q70 -35 215 -34h809l-6 -33l-1192 -1313q127 -27 399.5 -143.5t364.5 -116.5q90 0 140 26.5t50 71.5q0 14 -20.5 48t-20.5 65q0 45 24.5 70.5t63.5 25.5q41 0 67.5 -28.5t26.5 -77.5q0 -109 -93.5 -184.5t-243.5 -75.5z" />
    <glyph glyph-name="zdotaccent" unicode="&#x17c;" horiz-adv-x="1337" 
d="M893 1294q-39 0 -62.5 27t-17.5 65q6 41 37 69t72 28t64.5 -28t17.5 -69q-6 -39 -38 -65.5t-73 -26.5zM129 -37q-31 0 -31 31q0 45 48.5 95t113.5 75l873 680v12q-78 14 -229.5 98t-268.5 84q-57 0 -91 -25.5t-46.5 -61.5t-22.5 -71.5t-34.5 -61t-67.5 -25.5
q-47 0 -80 25.5t-33 70.5q0 96 107.5 155.5t220.5 59.5q137 0 309 -51.5t291 -51.5q78 0 172 103h12l29 -33q-59 -106 -115.5 -168.5t-142.5 -130.5l-760 -592v-12q135 -4 332.5 -70.5t292.5 -66.5q174 0 174 96q0 18 -23.5 57t-23.5 74q0 51 28.5 77.5t73.5 26.5
t75.5 -30.5t30.5 -85.5q0 -121 -99 -202t-247 -81q-154 0 -332 44t-313 44q-76 0 -120 -22.5t-65.5 -44t-37.5 -21.5z" />
    <glyph glyph-name="Zcaron" unicode="&#x17d;" horiz-adv-x="1230" 
d="M913 1534l-278 244l47 49l254 -152l303 152l31 -49zM1006 -231q-109 0 -248.5 35.5t-249 79.5t-241.5 80t-230 36l6 33l1212 1333h-391q-111 0 -206 -27.5t-151 -66.5t-97 -78t-58 -68l-14 -26l-43 14l117 354h10q70 -35 215 -34h809l-6 -33l-1192 -1313
q127 -27 399.5 -143.5t364.5 -116.5q90 0 140 26.5t50 71.5q0 14 -20.5 48t-20.5 65q0 45 24.5 70.5t63.5 25.5q41 0 67.5 -28.5t26.5 -77.5q0 -109 -93.5 -184.5t-243.5 -75.5z" />
    <glyph glyph-name="zcaron" unicode="&#x17e;" horiz-adv-x="1337" 
d="M911 1169l-278 244l47 49l254 -151l303 151l31 -49zM129 -37q-31 0 -31 31q0 45 48.5 95t113.5 75l873 680v12q-78 14 -229.5 98t-268.5 84q-57 0 -91 -25.5t-46.5 -61.5t-22.5 -71.5t-34.5 -61t-67.5 -25.5q-47 0 -80 25.5t-33 70.5q0 96 107.5 155.5t220.5 59.5
q137 0 309 -51.5t291 -51.5q78 0 172 103h12l29 -33q-59 -106 -115.5 -168.5t-142.5 -130.5l-760 -592v-12q135 -4 332.5 -70.5t292.5 -66.5q174 0 174 96q0 18 -23.5 57t-23.5 74q0 51 28.5 77.5t73.5 26.5t75.5 -30.5t30.5 -85.5q0 -121 -99 -202t-247 -81q-154 0 -332 44
t-313 44q-76 0 -120 -22.5t-65.5 -44t-37.5 -21.5z" />
    <glyph glyph-name="longs" unicode="&#x17f;" horiz-adv-x="325" 
d="M588 1548q55 0 108.5 -20.5t53.5 -61.5q0 -23 -17.5 -36t-40.5 -13q-39 0 -72.5 34t-70.5 34q-78 0 -109 -137l-239 -1438q-35 -203 -104.5 -284t-231.5 -81q-57 0 -114.5 23.5t-57.5 73.5q0 53 59 53q43 0 82 -42t82 -42q47 0 88 36t53 105l209 1256l-166 -2l13 63h163
l23 135q56 344 289 344z" />
    <glyph glyph-name="florin" unicode="&#x192;" horiz-adv-x="1067" 
d="M1114 1468q55 0 105.5 -20.5t44.5 -61.5q-2 -23 -21.5 -37t-44.5 -14q-37 0 -65.5 34t-67.5 34q-78 0 -129 -135l-105 -316h261l-15 -96h-276l-252 -766q-68 -201 -150 -282.5t-245 -81.5q-57 0 -110.5 23.5t-47.5 72.5q8 55 70 55q41 0 74.5 -43t76.5 -43q45 0 91 37
t71 106l305 922h-262l14 96h279l57 172q113 344 342 344z" />
    <glyph glyph-name="Aringacute" unicode="&#x1fa;" horiz-adv-x="1208" 
d="M860 1538q-90 0 -143 63.5t-39 151.5q8 61 48 112.5t97 80.5l185 211q39 43 79 43q29 0 41.5 -18.5t8.5 -41.5q-6 -33 -60 -74l-129 -96q82 -8 130 -69.5t34 -147.5t-89 -150.5t-163 -64.5zM760 1753q-10 -57 22.5 -96t90 -39t104.5 39t55 96t-24.5 98t-90 41t-102.5 -40
t-55 -99zM1120 137q16 -90 109 -104l-6 -33h-318l6 33q96 18 82 104l-57 307h-569l-166 -307q-45 -86 45 -104l-6 -33h-271l6 33q98 16 146 104l616 1151q-37 20 -75 25l6 35q106 59 196 112h13zM418 543h502l-119 643q-2 20 -13 39h-4z" />
    <glyph glyph-name="aringacute" unicode="&#x1fb;" horiz-adv-x="1204" 
d="M862 1174q-90 0 -143 63t-39 152q8 61 48 112t95 78l181 207q39 43 79 43q29 0 41.5 -18.5t8.5 -41.5q-6 -33 -60 -73l-121 -90q80 -8 127 -69.5t35 -147.5q-14 -86 -89 -150.5t-163 -64.5zM762 1389q-10 -57 22.5 -96.5t90 -39.5t104.5 39t55 96.5t-24.5 98.5t-90 41
t-102.5 -40t-55 -99zM1124 35q39 0 93 49l28 -27q-78 -94 -196 -94q-59 0 -97.5 48t-11.5 177l6 35h-8q-74 -119 -178.5 -189.5t-212.5 -70.5q-180 0 -286.5 115t-106.5 311q0 176 71.5 337t217 269.5t331.5 108.5q182 0 297 -121h8l15 86h155q-59 -119 -96 -334l-94 -532
q-37 -168 65 -168zM977 397l82 477q-43 78 -118 119t-153 41q-244 0 -382 -194.5t-138 -464.5q0 -174 84 -258t211 -84t243 112.5t171 251.5z" />
    <glyph glyph-name="uni0218" unicode="&#x218;" horiz-adv-x="1302" 
d="M842 1468q236 0 376 -120.5t119 -233.5q-12 -74 -67 -74q-45 0 -67.5 28t-29 68t-23.5 88t-44 88t-98.5 67.5t-180.5 27.5q-166 0 -263 -71.5t-115 -194.5q-20 -125 68.5 -194.5t277.5 -129.5q102 -33 179 -71.5t146.5 -96t98 -140.5t10.5 -185q-31 -170 -179.5 -264.5
t-365.5 -94.5q-276 0 -416.5 116t-117.5 243q14 80 92 79q43 0 68.5 -27.5t33.5 -69.5t27.5 -90t49.5 -90t101.5 -69.5t177.5 -27.5q168 0 275.5 71.5t132.5 202.5q27 158 -68.5 251t-289.5 155q-109 37 -179.5 68.5t-137 82.5t-91.5 123t-8 166q25 137 158 228t350 91z
M700 -111q55 0 76 -42t8 -101q-23 -100 -102.5 -229t-183.5 -211l-52 53q59 45 131 134t101 181l-4 7q-6 -2 -19 -3q-45 0 -69.5 30t-14.5 79q10 45 47 73.5t82 28.5z" />
    <glyph glyph-name="uni0219" unicode="&#x219;" horiz-adv-x="1097" 
d="M705 1038q-119 0 -210.5 -57t-105.5 -150q-8 -53 12.5 -91t65.5 -60.5t93 -36.5t108 -27q14 -2 22 -4q205 -45 277 -92q131 -86 102 -266q-18 -117 -147 -204t-322 -87q-209 0 -334 91t-110 184q12 76 80 75q41 0 60 -29.5t29.5 -71.5t30 -83t78 -70.5t156.5 -29.5
q135 0 240.5 61.5t121.5 163.5q8 51 -7 90t-38.5 62.5t-76 44t-85 29.5t-100.5 24q-213 47 -289 102q-109 80 -86 225q18 111 141.5 192t297.5 81q178 0 285.5 -80t95.5 -170q-14 -78 -72 -78q-45 0 -60.5 26.5t-17.5 65.5t-14.5 78t-66.5 65.5t-154 26.5zM621 -111
q55 0 75.5 -42t8.5 -101q-23 -100 -103 -229t-184 -211l-51 53q59 45 130.5 134t100.5 181l-4 7q-6 -2 -19 -3q-45 0 -69.5 30t-13.5 79q10 45 48 73.5t81 28.5z" />
    <glyph glyph-name="uni021A" unicode="&#x21a;" horiz-adv-x="1097" 
d="M1294 1468l39 -301l-47 -16q-2 8 -7 22.5t-33.5 52.5t-69.5 65.5t-123 51t-187 23.5h-41l-215 -1225q-8 -47 16.5 -73.5t63.5 -32.5l-6 -35h-324l7 35q102 14 118 106l217 1225h-40q-104 0 -194.5 -22.5t-144 -54.5t-91 -62.5t-52.5 -52.5l-14 -23l-43 16l147 301h11
q70 -35 211 -34h569q139 0 221 34h12zM498 -111q55 0 75.5 -42t8.5 -101q-23 -100 -103 -229t-184 -211l-51 53q59 45 130.5 134t100.5 181l-4 7q-6 -2 -18 -3q-45 0 -70 30t-14 79q10 45 48 73.5t81 28.5z" />
    <glyph glyph-name="uni021B" unicode="&#x21b;" horiz-adv-x="669" 
d="M492 1004l-140 -789q-16 -86 9.5 -127t101.5 -41q74 0 139 23l8 -60q-90 -47 -200 -47q-104 0 -151.5 57.5t-20.5 200.5l137 783h-174l6 34q141 47 197.5 111.5t105.5 224.5h45l-53 -307l293 2l-11 -63zM410 -111q55 0 75.5 -42t8.5 -101q-23 -100 -103 -229t-184 -211
l-51 53q59 45 130.5 134t100.5 181l-4 7q-6 -2 -18 -3q-45 0 -70 30t-14 79q10 45 47 73.5t82 28.5z" />
    <glyph glyph-name="uni0237" unicode="&#x237;" horiz-adv-x="217" 
d="M-217 -455q-57 0 -114.5 23.5t-57.5 73.5q0 53 59 53q41 0 81 -42t83 -42q47 0 88 36t53 105l185 1088q8 47 -18.5 72.5t-65.5 31.5l6 35q14 2 37.5 7t83 39t100.5 87l23 -8l-205 -1194q-37 -203 -105.5 -284t-232.5 -81z" />
    <glyph glyph-name="uni02B0" unicode="&#x2b0;" horiz-adv-x="483" 
d="M610 893l11 -16q-39 -39 -95 -39q-80 0 -57 96l45 196q16 68 -4.5 108t-75.5 40q-53 0 -105.5 -55.5t-72.5 -135.5l-12 -71q-4 -31 -7.5 -59.5t-4.5 -47t-1 -32v-19.5v-6h-92l90 530q10 47 -34 56l6 20q80 16 121 64l10 -4l-53 -299h8q70 104 176 104q80 0 115.5 -51
t13.5 -146l-41 -178q-20 -72 24 -71q15 0 35 16z" />
    <glyph glyph-name="circumflex" unicode="&#x2c6;" horiz-adv-x="915" 
d="M391 1149l-31 49l357 244l278 -244l-47 -49l-254 151z" />
    <glyph glyph-name="caron" unicode="&#x2c7;" horiz-adv-x="915" 
d="M725 1169l-279 244l48 49l254 -151l303 151l30 -49z" />
    <glyph glyph-name="uni02C9" unicode="&#x2c9;" horiz-adv-x="794" 
d="M365 1319l16 92h504l-17 -92h-503z" />
    <glyph glyph-name="breve" unicode="&#x2d8;" horiz-adv-x="800" 
d="M625 1225q-113 0 -168.5 58t-65.5 140l60 21q16 -47 66 -86t122 -39q68 0 134.5 40t94.5 85l56 -21q-102 -198 -299 -198z" />
    <glyph glyph-name="dotaccent" unicode="&#x2d9;" horiz-adv-x="479" 
d="M469 1294q-39 0 -62.5 27t-17.5 65q6 41 37 69t72 28t64.5 -28t17.5 -69q-6 -39 -38 -65.5t-73 -26.5z" />
    <glyph glyph-name="ring" unicode="&#x2da;" horiz-adv-x="737" 
d="M551 1174q-90 0 -143.5 63t-38.5 152q14 90 86.5 153.5t165.5 63.5q90 0 143 -63.5t39 -153.5q-14 -86 -89 -150.5t-163 -64.5zM563.5 1253q57.5 0 104.5 39t55 96.5t-24.5 98.5t-90 41t-102.5 -40t-55 -99q-10 -57 22.5 -96.5t90 -39.5z" />
    <glyph glyph-name="ogonek" unicode="&#x2db;" horiz-adv-x="571" 
d="M342 -430q-92 0 -148.5 51t-43.5 139q12 76 77.5 146.5t157.5 113.5l64 -20q-76 -33 -125.5 -88t-59.5 -117q-10 -66 29 -107.5t98 -41.5q104 0 176 104l49 -29q-98 -151 -274 -151z" />
    <glyph glyph-name="tilde" unicode="&#x2dc;" horiz-adv-x="829" 
d="M739 1272q-51 0 -123.5 61.5t-107.5 61.5q-63 0 -94 -90l-45 18q51 166 188 166q51 0 124 -60.5t107 -60.5q63 0 97 90l43 -16q-52 -170 -189 -170z" />
    <glyph glyph-name="hungarumlaut" unicode="&#x2dd;" horiz-adv-x="516" 
d="M438 1161l-53 25q88 160 125 229q31 55 84 55q27 0 40 -16t9 -37q-4 -27 -47 -80zM678 1161l-53 25q86 160 125 229q31 55 81 55q27 0 41.5 -16t10.5 -37q-4 -27 -47 -80z" />
    <glyph glyph-name="uni0394" unicode="&#x394;" horiz-adv-x="1216" 
d="M31 0l848 1434h51l239 -1434h-1138zM143 68h887l-201 1163z" />
    <glyph glyph-name="uni03A9" unicode="&#x3a9;" horiz-adv-x="1560" 
d="M143 -35l-28 301l49 17q2 -6 6 -18.5t27.5 -42t58.5 -52.5t105.5 -41t160.5 -18h35l2 4q-166 184 -229.5 368.5t-18.5 397.5q55 256 270.5 421.5t510 165.5t439 -165.5t89.5 -421.5q-45 -215 -187.5 -399.5t-385.5 -366.5l2 -4h34q90 0 168 17t125 43t80 51.5t47 43.5
l13 17l40 -17l-155 -301h-12q-8 4 -25.5 14.5t-26 12.5t-33 5t-63.5 3h-367l7 37q276 229 411 419.5t185 422.5q51 244 -43.5 384t-356.5 140t-415.5 -140.5t-204.5 -383.5q-49 -231 4 -422t229 -420l-6 -37h-367q-39 0 -65.5 -3t-33.5 -5t-31.5 -13.5t-30.5 -13.5h-13z" />
    <glyph glyph-name="uni03BC" unicode="&#x3bc;" horiz-adv-x="1146" 
d="M1024 39q37 0 88 27l8 -60q-70 -41 -162 -41q-135 0 -100 176l2 9h-8q-53 -57 -94 -91t-112 -64t-150 -30q-170 0 -248 72l-8 -6q-2 -76 6 -183.5t0 -142.5q-10 -49 -45 -80t-76 -31t-61.5 31t-10.5 80l140 649q0 8 4 25l118 565h115l-119 -567q-41 -186 11.5 -266
t199.5 -80q127 0 231.5 81t141.5 207l59 275v2l74 348h115l-164 -778q-29 -127 45 -127z" />
    <glyph glyph-name="pi" unicode="&#x3c0;" horiz-adv-x="1142" 
d="M582 942h702l-2 -16q-49 -49 -107.5 -73t-179.5 -26l-139 -661q-29 -127 45 -127q37 0 88 27l6 -60q-66 -41 -159 -41q-135 0 -101 176l146 686h-250l-107 -497q-39 -182 -127 -273.5t-196 -91.5q-55 0 -98.5 27.5t-34.5 73.5q6 29 30.5 49t53.5 20q31 0 54 -41t62 -41
q55 0 104.5 44t67.5 132l129 598h-45q-78 0 -133 -44t-69 -111h-54q10 43 27.5 84t52.5 86t95.5 72.5t138.5 27.5z" />
    <glyph glyph-name="Wgrave" unicode="&#x1e80;" horiz-adv-x="1912" 
d="M1096 1526l-162 176q-33 45 -27 74q4 25 24.5 42t49.5 17q43 0 63 -43l103 -231zM1898 1434h271l-6 -35q-96 -10 -140 -103l-596 -1233q12 -16 39 -26l-10 -37q-74 0 -162 -27h-10l-149 1133h-11l-503 -1043q18 -16 38 -26l-8 -37q-74 0 -162 -27h-12l-174 1323
q-6 49 -38 74t-66 29l6 35h317l-6 -35q-33 -4 -62.5 -30t-23.5 -73l145 -1101l7 -37h4l526 1089q-16 78 -74 105l9 37l153 79h10l170 -1273l6 -37h7l549 1138q23 47 3 73t-53 30z" />
    <glyph glyph-name="wgrave" unicode="&#x1e81;" horiz-adv-x="1775" 
d="M1073 1161l-162 176q-33 45 -26 74q4 25 24.5 42t48.5 17q41 0 64 -43l102 -231zM1772 961q20 -86 0.5 -271.5t-76.5 -327.5q-66 -166 -179.5 -282.5t-277.5 -116.5q-90 0 -167 63.5t-91 176.5h-14q-178 -240 -392 -240q-100 0 -184 76t-84 211q0 264 352 694l-6 12h-239
q-182 4 -203 -90q-10 -47 31 -86l-33 -26q-86 59 -64 159q10 57 74 107.5t197 46.5h397l6 -12q-2 -4 -39 -54.5t-52 -72t-55 -78.5t-60.5 -92t-54.5 -91.5t-53.5 -99.5t-40 -93t-29.5 -95t-9 -84q0 -248 221 -248q98 0 212 120t187.5 277.5t73.5 268.5q0 53 -19.5 139
t-19.5 143q0 41 24.5 75t74.5 34q43 0 68.5 -38t25.5 -95q0 -59 -43 -167t-86 -243t-43 -266q0 -145 57.5 -196.5t145.5 -51.5q92 0 190 99.5t147 242.5q72 211 41 389q-8 51 -68.5 107.5t-64.5 115.5q-2 41 20.5 72t74.5 31q100 0 127 -143z" />
    <glyph glyph-name="Wacute" unicode="&#x1e82;" horiz-adv-x="1912" 
d="M1249 1702l-235 -176l-35 37l201 229q39 43 80 43q29 0 41 -18.5t8 -40.5q-7 -33 -60 -74zM1898 1434h271l-6 -35q-96 -10 -140 -103l-596 -1233q12 -16 39 -26l-10 -37q-74 0 -162 -27h-10l-149 1133h-11l-503 -1043q18 -16 38 -26l-8 -37q-74 0 -162 -27h-12l-174 1323
q-6 49 -38 74t-66 29l6 35h317l-6 -35q-33 -4 -62.5 -30t-23.5 -73l145 -1101l7 -37h4l526 1089q-16 78 -74 105l9 37l153 79h10l170 -1273l6 -37h7l549 1138q23 47 3 73t-53 30z" />
    <glyph glyph-name="wacute" unicode="&#x1e83;" horiz-adv-x="1775" 
d="M1397 1337l-236 -176l-35 37l201 229q39 43 80 43q29 0 41 -18t8 -41q-6 -33 -59 -74zM1772 961q20 -86 0.5 -271.5t-76.5 -327.5q-66 -166 -179.5 -282.5t-277.5 -116.5q-90 0 -167 63.5t-91 176.5h-14q-178 -240 -392 -240q-100 0 -184 76t-84 211q0 264 352 694l-6 12
h-239q-182 4 -203 -90q-10 -47 31 -86l-33 -26q-86 59 -64 159q10 57 74 107.5t197 46.5h397l6 -12q-2 -4 -39 -54.5t-52 -72t-55 -78.5t-60.5 -92t-54.5 -91.5t-53.5 -99.5t-40 -93t-29.5 -95t-9 -84q0 -248 221 -248q98 0 212 120t187.5 277.5t73.5 268.5q0 53 -19.5 139
t-19.5 143q0 41 24.5 75t74.5 34q43 0 68.5 -38t25.5 -95q0 -59 -43 -167t-86 -243t-43 -266q0 -145 57.5 -196.5t145.5 -51.5q92 0 190 99.5t147 242.5q72 211 41 389q-8 51 -68.5 107.5t-64.5 115.5q-2 41 20.5 72t74.5 31q100 0 127 -143z" />
    <glyph glyph-name="Wdieresis" unicode="&#x1e84;" horiz-adv-x="1912" 
d="M1016 1659q-41 0 -63.5 26.5t-14.5 65.5q8 41 42 68.5t75 27.5t62.5 -27.5t12.5 -68.5q-8 -39 -40.5 -65.5t-73.5 -26.5zM1333 1659q-41 0 -63.5 26.5t-14.5 65.5q10 41 43 68.5t74 27.5t62.5 -27.5t13.5 -68.5q-8 -39 -41 -65.5t-74 -26.5zM1898 1434h271l-6 -35
q-96 -10 -140 -103l-596 -1233q12 -16 39 -26l-10 -37q-74 0 -162 -27h-10l-149 1133h-11l-503 -1043q18 -16 38 -26l-8 -37q-74 0 -162 -27h-12l-174 1323q-6 49 -38 74t-66 29l6 35h317l-6 -35q-33 -4 -62.5 -30t-23.5 -73l145 -1101l7 -37h4l526 1089q-16 78 -74 105
l9 37l153 79h10l170 -1273l6 -37h7l549 1138q23 47 3 73t-53 30z" />
    <glyph glyph-name="wdieresis" unicode="&#x1e85;" horiz-adv-x="1775" 
d="M1018 1294q-41 0 -63.5 27t-14.5 65q8 41 42 69t75 28t62.5 -28t13.5 -69q-8 -39 -41 -65.5t-74 -26.5zM1335 1294q-41 0 -63.5 27t-14.5 65q10 41 43 69t74 28t62.5 -28t13.5 -69q-8 -39 -41 -65.5t-74 -26.5zM1772 961q20 -86 0.5 -271.5t-76.5 -327.5
q-66 -166 -179.5 -282.5t-277.5 -116.5q-90 0 -167 63.5t-91 176.5h-14q-178 -240 -392 -240q-100 0 -184 76t-84 211q0 264 352 694l-6 12h-239q-182 4 -203 -90q-10 -47 31 -86l-33 -26q-86 59 -64 159q10 57 74 107.5t197 46.5h397l6 -12q-2 -4 -39 -54.5t-52 -72
t-55 -78.5t-60.5 -92t-54.5 -91.5t-53.5 -99.5t-40 -93t-29.5 -95t-9 -84q0 -248 221 -248q98 0 212 120t187.5 277.5t73.5 268.5q0 53 -19.5 139t-19.5 143q0 41 24.5 75t74.5 34q43 0 68.5 -38t25.5 -95q0 -59 -43 -167t-86 -243t-43 -266q0 -145 57.5 -196.5t145.5 -51.5
q92 0 190 99.5t147 242.5q72 211 41 389q-8 51 -68.5 107.5t-64.5 115.5q-2 41 20.5 72t74.5 31q100 0 127 -143z" />
    <glyph glyph-name="endash" unicode="&#x2013;" horiz-adv-x="512" 
d="M68 451l20 90h549l-21 -90h-548z" />
    <glyph glyph-name="emdash" unicode="&#x2014;" horiz-adv-x="702" 
d="M68 451l20 90h739l-20 -90h-739z" />
    <glyph glyph-name="quoteleft" unicode="&#x2018;" horiz-adv-x="632" 
d="M735 1415q-59 -45 -131 -134t-100 -181l4 -6q6 2 20 2q43 0 68 -30t14 -79q-8 -45 -46 -73.5t-81 -28.5q-57 0 -77.5 41t-8.5 102q23 100 103 229t184 211z" />
    <glyph glyph-name="quoteright" unicode="&#x2019;" horiz-adv-x="632" 
d="M559 1468q55 0 75.5 -42t8.5 -101q-23 -100 -102.5 -229t-184.5 -211l-53 53q61 43 133 133t103 182l-4 7q-6 -2 -21 -3q-45 0 -69.5 30t-14.5 79q10 45 48 73.5t81 28.5z" />
    <glyph glyph-name="quotesinglbase" unicode="&#x201a;" horiz-adv-x="714" 
d="M432 176q55 0 75.5 -42t8.5 -101q-23 -100 -102.5 -229.5t-184.5 -211.5l-51 54q59 45 131 134t101 181l-4 6q-6 -2 -19 -2q-45 0 -69.5 30t-14.5 79q10 45 47 73.5t82 28.5z" />
    <glyph glyph-name="quotedblleft" unicode="&#x201c;" horiz-adv-x="940" 
d="M735 1415q-59 -45 -131 -134t-100 -181l4 -6q6 2 20 2q43 0 68 -30t14 -79q-8 -45 -46 -73.5t-81 -28.5q-57 0 -77.5 41t-8.5 102q23 100 103 229t184 211zM1049 1415q-61 -43 -133 -133t-101 -182l4 -6q6 2 19 2q45 0 69.5 -30t14.5 -79q-8 -45 -46 -73.5t-83 -28.5
q-55 0 -76 42t-8 101q23 100 102.5 229t183.5 211z" />
    <glyph glyph-name="quotedblright" unicode="&#x201d;" horiz-adv-x="937" 
d="M559 1468q55 0 75.5 -42t8.5 -101q-23 -100 -102.5 -229t-184.5 -211l-53 53q61 43 133 133t103 182l-4 7q-6 -2 -21 -3q-45 0 -69.5 30t-14.5 79q10 45 48 73.5t81 28.5zM868 1468q57 0 78 -42t8 -101q-23 -100 -102.5 -229t-183.5 -211l-52 53q59 45 131 134t103 181
l-4 7q-8 -2 -23 -3q-43 0 -67.5 30t-14.5 79q10 45 47 73.5t80 28.5z" />
    <glyph glyph-name="quotedblbase" unicode="&#x201e;" horiz-adv-x="1017" 
d="M432 176q55 0 75.5 -42t8.5 -101q-23 -100 -102.5 -229.5t-184.5 -211.5l-51 54q59 45 131 134t101 181l-4 6q-6 -2 -19 -2q-45 0 -69.5 30t-14.5 79q10 45 47 73.5t82 28.5zM741 176q57 0 78 -42t8 -101q-23 -100 -102.5 -229.5t-183.5 -211.5l-52 54q59 45 131 134
t101 181l-4 6q-6 -2 -21 -2q-43 0 -67.5 30t-14.5 79q10 45 47 73.5t80 28.5z" />
    <glyph glyph-name="dagger" unicode="&#x2020;" horiz-adv-x="1280" 
d="M526 0q137 668 127 909l90 150l-2 6q-90 -8 -167.5 -29.5t-108.5 -21.5q-39 0 -57.5 19.5t-12.5 53.5q16 72 101 72q33 0 104.5 -16.5t157.5 -24.5l4 4q10 82 5 154t3 100q20 92 96 92t56 -92q-8 -41 -41 -106.5t-58 -147.5l4 -4q88 8 167 24.5t112 16.5q37 0 56.5 -19.5
t11.5 -52.5q-6 -33 -34 -53t-65 -20q-31 0 -100.5 21.5t-155.5 29.5l-6 -6l29 -150q-113 -238 -260 -909h-56z" />
    <glyph glyph-name="daggerdbl" unicode="&#x2021;" horiz-adv-x="1347" 
d="M606 -35q-78 0 -57 92q6 29 40 98.5t60 161.5l-2 5q-92 -8 -171 -29t-107 -21q-84 0 -72 72q8 35 35.5 55.5t66.5 20.5q29 0 97.5 -21.5t156.5 -29.5l4 6q8 35 11.5 120t3.5 152v70q115 262 131 340l-2 6q-90 -8 -168 -28.5t-107 -20.5q-39 0 -58 19.5t-13 53.5
q16 72 102 72q31 0 101.5 -16.5t158.5 -24.5l4 4q10 84 5 156t3 98q20 92 96 92t56 -92q-8 -39 -41 -104.5t-57 -149.5l4 -4q88 8 167 24.5t111 16.5q39 0 57.5 -19.5t10.5 -52.5q-14 -74 -98 -73q-31 0 -101.5 20.5t-154.5 28.5l-7 -6q-8 -33 -10 -118t-2 -153v-69
q-117 -264 -133 -342l4 -6q88 8 167 29.5t110 21.5q39 0 57 -20.5t10 -55.5q-12 -72 -98 -72q-31 0 -101.5 20.5t-158.5 29.5l-6 -5q-10 -88 -6 -164.5t-5 -95.5q-20 -92 -94 -92z" />
    <glyph glyph-name="bullet" unicode="&#x2022;" horiz-adv-x="663" 
d="M373 268q-86 0 -133 60.5t-29 148.5q18 86 91 146.5t159 60.5t134 -60.5t30 -146.5q-18 -88 -92 -148.5t-160 -60.5z" />
    <glyph glyph-name="ellipsis" unicode="&#x2026;" horiz-adv-x="1595" 
d="M291 -35q-43 0 -67.5 30t-16.5 79q10 47 47 75.5t82 28.5q43 0 67.5 -28.5t16.5 -75.5q-10 -49 -47 -79t-82 -30zM774 -35q-43 0 -67.5 30t-16.5 79q10 47 47 75.5t82 28.5q43 0 67.5 -28.5t16.5 -75.5q-10 -49 -47 -79t-82 -30zM1257 -35q-43 0 -67.5 30t-15.5 79
q10 47 46.5 75.5t82.5 28.5q43 0 67.5 -28.5t15.5 -75.5q-10 -49 -47 -79t-82 -30z" />
    <glyph glyph-name="perthousand" unicode="&#x2030;" horiz-adv-x="2291" 
d="M410 713q-158 0 -238 114.5t-47 266.5q35 162 154.5 268t281.5 106q152 0 229.5 -111.5t43.5 -269.5q-31 -154 -151.5 -264t-272.5 -110zM264 0l993 1434h97l-996 -1434h-94zM420 772q100 0 182 92t109 219q29 133 -18.5 225.5t-145.5 92.5q-106 0 -187 -88t-110 -223
q-27 -127 20.5 -222.5t149.5 -95.5zM1067 -37q-156 0 -236.5 115t-50.5 266q35 162 155 268.5t282 106.5q152 0 230.5 -111.5t45.5 -269.5q-33 -154 -152.5 -264.5t-273.5 -110.5zM1894 -37q-156 0 -236.5 115t-49.5 266q35 162 154.5 268.5t281.5 106.5q152 0 230.5 -111.5
t45.5 -269.5q-33 -154 -152.5 -264.5t-273.5 -110.5zM1075 23q100 0 182 92t109 219q29 133 -18.5 225t-145.5 92q-104 0 -186 -88t-111 -223q-27 -127 20.5 -222t149.5 -95zM1903 23q100 0 182 92t108 219q29 133 -18 225t-145 92q-104 0 -186.5 -88t-110.5 -223
q-27 -127 20.5 -222t149.5 -95z" />
    <glyph glyph-name="guilsinglleft" unicode="&#x2039;" horiz-adv-x="612" 
d="M453 37l-299 397l16 86l471 398l29 -21l-346 -420l165 -420z" />
    <glyph glyph-name="guilsinglright" unicode="&#x203a;" horiz-adv-x="612" 
d="M172 37l-29 20l346 420l-165 420l36 21l299 -398l-16 -86z" />
    <glyph glyph-name="fraction" unicode="&#x2044;" horiz-adv-x="317" 
d="M-127 0l807 1434h68l-807 -1434h-68z" />
    <glyph glyph-name="uni2070" unicode="&#x2070;" horiz-adv-x="446" 
d="M315 858q-106 0 -147 82t-21 211q20 127 87 209t174 82q104 0 146 -82t21.5 -209t-88.5 -210t-172 -83zM322 895q133 0 174 256t-95 256q-133 0 -173.5 -256t94.5 -256z" />
    <glyph glyph-name="uni2074" unicode="&#x2074;" horiz-adv-x="430" 
d="M467 1018l-12 -78q-8 -39 41 -49l-4 -19h-179v19q53 10 62 51l12 76h-248l4 26l328 390h61l-59 -381h94l-16 -35h-84zM193 1053h198l45 282h-2l-239 -280z" />
    <glyph glyph-name="uni2075" unicode="&#x2075;" horiz-adv-x="407" 
d="M526 1362h-237l-45 -141q43 14 104 14q96 0 138 -49t30 -127q-12 -80 -78.5 -139.5t-161.5 -59.5q-61 0 -101 18.5t-34 55.5q8 41 45 41q23 0 32 -12.5t11 -27.5t16.5 -27.5t43.5 -12.5q68 0 108.5 39t51.5 102q10 57 -25 95t-100 38q-70 0 -117 -26l-19 8l84 276h273z
" />
    <glyph glyph-name="uni2076" unicode="&#x2076;" horiz-adv-x="403" 
d="M541 1415q-98 0 -180 -57.5t-121 -179.5h4q57 57 147 57q86 0 121 -52.5t23 -129.5q-12 -80 -78 -136.5t-152 -56.5q-92 0 -134 67.5t-26 178.5q27 164 139.5 250t256.5 86v-27zM367 1194q-37 0 -78 -22.5t-66 -59.5q0 -4 -1 -8t-1 -6q-31 -205 88 -205q55 0 94 44
t50 116q20 141 -86 141z" />
    <glyph glyph-name="uni2077" unicode="&#x2077;" horiz-adv-x="387" 
d="M199 1427h325l-4 -32q-242 -256 -278 -490q-6 -47 -54 -47q-18 0 -28 13.5t-8 33.5q31 199 297 455v2h-111q-47 0 -93 -19.5t-69 -37.5l-20 -19l-17 6z" />
    <glyph glyph-name="uni2078" unicode="&#x2078;" horiz-adv-x="432" 
d="M315 860q-88 0 -135 45t-39 101q18 100 144 155v4q-86 49 -72 142q10 51 62.5 95t144.5 44q80 0 117.5 -37t29.5 -90q-16 -92 -127 -141v-4q57 -27 85 -61t18 -95q-10 -68 -74 -113t-154 -45zM393 1196q111 49 123 119q14 96 -96.5 96t-126.5 -90q-13 -76 100 -125z
M317 895q63 0 100.5 31.5t45.5 70.5q4 31 -4 52.5t-35 40t-41 26.5t-55 25q-117 -45 -129 -131q-6 -45 23 -80t95 -35z" />
    <glyph glyph-name="uni2079" unicode="&#x2079;" horiz-adv-x="403" 
d="M375 1442q92 0 134 -67.5t26 -178.5q-27 -164 -139.5 -250t-256.5 -86v27q96 0 178 57t123 180h-4q-57 -57 -147 -57q-86 0 -122 52t-22 130q12 78 78 135.5t152 57.5zM313 1106q37 0 78 23.5t66 60.5l2 14q31 205 -90 205q-53 0 -92 -45t-50 -115q-25 -143 86 -143z" />
    <glyph glyph-name="uni207F" unicode="&#x207f;" horiz-adv-x="483" 
d="M612 893l9 -16q-39 -39 -97 -39q-76 0 -53 96l45 196q16 68 -5.5 108t-76.5 40t-108.5 -57.5t-71.5 -141.5l-2 -14q-6 -41 -11 -78t-6.5 -60.5t-1.5 -42v-24.5v-8h-94l58 336q8 47 -35 55l4 21q82 16 125 63l10 -4l-20 -104h6q72 104 176 104q80 0 115.5 -51t13.5 -146
l-41 -178q-16 -72 24 -71q17 0 37 16z" />
    <glyph glyph-name="uni2080" unicode="&#x2080;" horiz-adv-x="446" 
d="M315 -14q-104 0 -146 82t-22 211q20 127 88 208.5t173 81.5q106 0 147 -81.5t20 -208.5q-20 -129 -87 -211t-173 -82zM322 23q133 0 174 256t-95 256q-133 0 -173.5 -256t94.5 -256z" />
    <glyph glyph-name="uni2081" unicode="&#x2081;" horiz-adv-x="221" 
d="M139 0l2 18q53 10 60 52l63 403h-55l2 19l123 69h24l-77 -491q-6 -41 41 -52l-5 -18h-178z" />
    <glyph glyph-name="uni2082" unicode="&#x2082;" horiz-adv-x="423" 
d="M559 406q-18 -113 -104 -191t-219 -147v-2h94q45 0 88 16t63 33l21 16l18 -8l-57 -123h-324l6 35q14 10 68.5 50t75 56.5t62.5 53t61.5 64.5t40 67t26.5 80q10 61 -14.5 95t-79.5 34q-53 0 -100 -35t-60 -97l-26 7q16 74 73.5 116.5t130.5 42.5q80 0 123 -44.5t33 -118.5
z" />
    <glyph glyph-name="uni2083" unicode="&#x2083;" horiz-adv-x="407" 
d="M291 -14q-66 0 -112 24.5t-38 63.5q4 43 47 43q18 0 27.5 -14.5t13.5 -33t20.5 -32.5t45.5 -14q61 0 101 36.5t50 98.5q10 66 -21.5 104.5t-98.5 38.5h-17l4 33h23q53 0 87 29.5t40 72.5q6 41 -14.5 70t-73.5 29q-47 0 -85 -32t-50 -87l-27 6q16 68 68.5 107.5
t124.5 39.5q76 0 110.5 -36.5t26.5 -86.5q-14 -90 -109 -122l-2 -5q49 -10 77 -50t19 -93q-12 -82 -76.5 -136t-160.5 -54z" />
    <glyph glyph-name="uni2084" unicode="&#x2084;" horiz-adv-x="430" 
d="M467 145l-12 -77q-8 -39 43 -50l-6 -18h-179l2 18q55 12 60 52l12 75h-248l4 27l330 389h59l-59 -381h94l-16 -35h-84zM195 180h196l45 283h-2l-239 -281v-2z" />
    <glyph glyph-name="uni2085" unicode="&#x2085;" horiz-adv-x="409" 
d="M528 489h-239l-45 -141q43 14 106 14q94 0 136 -49t30 -127q-12 -80 -77.5 -139t-159.5 -59q-61 0 -102.5 18.5t-35.5 54.5q8 41 45 41q23 0 33 -12t11 -27.5t15.5 -27.5t45.5 -12q66 0 106.5 38.5t51.5 102.5q10 57 -24 95t-101 38q-66 0 -117 -27l-19 9l86 276h273z
" />
    <glyph glyph-name="uni2086" unicode="&#x2086;" horiz-adv-x="405" 
d="M541 543q-96 0 -178 -57.5t-121 -180.5h4q57 57 145 57q86 0 122 -52t22 -130q-12 -80 -78 -136t-152 -56q-92 0 -134 67.5t-26 177.5q27 164 140.5 250t257.5 86zM369 322q-86 0 -144 -80q0 -2 -1 -7.5t-1 -9.5q-35 -205 88 -205q53 0 92 44.5t50 115.5q25 142 -84 142z
" />
    <glyph glyph-name="uni2087" unicode="&#x2087;" horiz-adv-x="389" 
d="M201 555h325l-6 -33q-242 -262 -276 -489q-8 -47 -54 -47q-20 0 -31.5 13t-6.5 34q31 199 297 454v2h-111q-47 0 -92 -19t-66 -38l-22 -18l-19 6z" />
    <glyph glyph-name="uni2088" unicode="&#x2088;" horiz-adv-x="430" 
d="M313 -12q-88 0 -135 45t-37 100q14 98 142 156v4q-84 47 -70 141q8 51 61.5 95t143.5 44q80 0 117.5 -36.5t29.5 -90.5q-16 -94 -127 -141v-4q57 -27 85 -60.5t18 -95.5q-10 -66 -73 -111.5t-155 -45.5zM391 324q111 47 123 118q14 96 -96 97q-113 0 -125 -90
q-15 -76 98 -125zM317 23q61 0 99.5 31.5t44.5 70.5q4 31 -3 52.5t-35 41t-40 25.5t-55 24q-117 -45 -131 -131q-6 -45 24 -79.5t96 -34.5z" />
    <glyph glyph-name="uni2089" unicode="&#x2089;" horiz-adv-x="403" 
d="M375 569q92 0 134 -67.5t26 -177.5q-27 -166 -139.5 -251t-256.5 -85l2 26q96 0 178 57.5t121 180.5h-4q-57 -57 -147 -57q-86 0 -121 52t-22.5 130t78 135t151.5 57zM313 233q37 0 78 24t66 60l2 15q31 205 -88 205q-55 0 -94 -45.5t-50 -114.5q-23 -144 86 -144z" />
    <glyph glyph-name="Euro" unicode="&#x20ac;" horiz-adv-x="1394" 
d="M1151 1468q166 0 275.5 -69.5t109.5 -149.5q0 -41 -21.5 -65.5t-52.5 -24.5q-29 0 -46 25.5t-31.5 61.5t-36 71t-75.5 60.5t-136 25.5q-168 0 -329 -128t-243 -360h652l-13 -86h-665q-20 -76 -27 -122q-10 -53 -12 -101h667l-12 -86h-659q-2 -252 110.5 -371.5
t290.5 -119.5q123 0 241.5 62.5t192.5 150.5l33 -23q-84 -111 -211 -183.5t-270 -72.5q-254 0 -383 155.5t-129 401.5h-277l15 86h266q4 49 8 70q10 68 35 153h-275l15 86h291q96 242 278 397.5t424 155.5z" />
    <glyph glyph-name="uni2113" unicode="&#x2113;" horiz-adv-x="890" 
d="M457 -35q-90 0 -147.5 42t-75 103.5t-23.5 132t8 130.5l19 141l-175 -119l-34 47l221 164l24 156q55 399 130 560t243 161q94 0 144.5 -85t31.5 -222q-14 -98 -63 -190.5t-134 -174.5t-135.5 -124t-138.5 -105l-35 -238q-47 -317 146 -317q37 0 81 27.5t70.5 54t74.5 82
t59 67.5l38 -43q-70 -94 -160.5 -172t-168.5 -78zM365 676q334 262 370 520q14 98 -16.5 160.5t-104.5 62.5q-80 0 -130 -120.5t-85 -372.5z" />
    <glyph glyph-name="trademark" unicode="&#x2122;" horiz-adv-x="1042" 
d="M203 1028v16q33 8 39 43l67 314q-43 0 -81 -18.5t-54 -36.5l-16 -19l-17 8l54 99h321l12 -99l-22 -8q-2 8 -8 20.5t-36 33t-73 20.5l-67 -314q-6 -37 22 -43l-8 -16h-133zM508 1028l2 16q31 8 37 43l61 285q8 39 -20 43l8 19h109l38 -279h2l154 279h113l-2 -19
q-29 -4 -37 -43l-64 -285q-6 -37 23 -43l-6 -16h-135l2 16q31 8 36 43l52 234h-7l-161 -293h-35l-39 293h-2l-51 -234q-6 -37 20 -43l-8 -16h-90z" />
    <glyph glyph-name="Omega" unicode="&#x2126;" horiz-adv-x="1673" 
d="M131 -35l-29 301l50 17q2 -6 6 -18.5t27.5 -42t58.5 -52.5t105.5 -41t160.5 -18h35l2 4q-166 184 -229.5 368.5t-18.5 397.5q55 256 270 421.5t510 165.5t439.5 -165.5t89.5 -421.5q-45 -215 -187.5 -399.5t-386.5 -366.5l2 -4h35q90 0 168 17t125 43t80 51.5t47 43.5
l12 17l41 -17l-155 -301h-13q-8 4 -25.5 14.5t-25.5 12.5t-32.5 5t-63.5 3h-367l6 37q276 229 411.5 419.5t184.5 422.5q51 244 -43 384t-356 140t-415.5 -140.5t-205.5 -383.5q-49 -231 4.5 -422t229.5 -420l-6 -37h-367q-39 0 -65.5 -3t-33.5 -5t-31.5 -13.5t-31.5 -13.5
h-12z" />
    <glyph glyph-name="estimated" unicode="&#x212e;" horiz-adv-x="1904" 
d="M1075 -35q-315 0 -538.5 220.5t-223.5 531.5t223.5 531t538.5 220q313 0 536.5 -220t223.5 -531v-21h-1206v-510q123 -92 226 -129t222 -37q150 0 281 61.5t219 174.5h68q-212 -291 -570 -291zM629 750h882v499q-178 162 -434 162q-266 0 -448 -172v-489z" />
    <glyph glyph-name="partialdiff" unicode="&#x2202;" horiz-adv-x="1099" 
d="M682 1468q270 0 350 -250.5t-28 -646.5q-74 -283 -237 -444.5t-368 -161.5q-211 0 -305 140.5t-41 351.5q55 207 221 348t367 141q84 0 162 -29.5t117 -85.5q37 256 -4.5 407t-147.5 151q-33 0 -78 -51.5t-80 -51.5q-37 0 -57.5 20.5t-17.5 57.5q0 41 34.5 72.5
t112.5 31.5zM416 31q311 0 448 538q14 53 41 179q-39 61 -113.5 100t-162.5 39q-168 0 -278.5 -121t-160.5 -320q-27 -115 -22.5 -208t68 -150t180.5 -57z" />
    <glyph glyph-name="Delta" unicode="&#x2206;" horiz-adv-x="1216" 
d="M45 0l848 1434h51l240 -1434h-1139zM158 68h886l-200 1163z" />
    <glyph glyph-name="product" unicode="&#x220f;" horiz-adv-x="1542" 
d="M39 0l6 33q104 18 123 106l246 1153q10 47 -14.5 74t-63.5 33l6 35h1161l-6 -35q-43 -6 -78 -33t-45 -74l-246 -1153q-18 -88 78 -106l-6 -33h-326l7 33q43 6 77.5 32.5t45.5 73.5l260 1227h-713l-260 -1227q-10 -47 14.5 -72.5t63.5 -33.5l-7 -33h-323z" />
    <glyph glyph-name="summation" unicode="&#x2211;" horiz-adv-x="1445" 
d="M31 0l6 33l639 704l-318 664l7 33h1013l39 -238l-53 -27q-70 100 -172 148.5t-266 48.5h-404l277 -573l-606 -676h462q211 0 329 41t237 145l30 -39l-161 -264h-1059z" />
    <glyph glyph-name="minus" unicode="&#x2212;" horiz-adv-x="765" 
d="M186 451l21 90h549l-21 -90h-549z" />
    <glyph glyph-name="uni2215" unicode="&#x2215;" horiz-adv-x="0" 
d="M-467 692l12 51h619l-12 -51h-619z" />
    <glyph glyph-name="uni2219" unicode="&#x2219;" horiz-adv-x="557" 
d="M369 737q-45 0 -70 30t-14 79q10 45 47 73.5t82 28.5q43 0 67.5 -28.5t14.5 -73.5q-10 -49 -47 -79t-80 -30z" />
    <glyph glyph-name="radical" unicode="&#x221a;" horiz-adv-x="1290" 
d="M305 0l-94 461h-219l18 88h279l88 -430l825 1315h98l-899 -1434h-96z" />
    <glyph glyph-name="infinity" unicode="&#x221e;" horiz-adv-x="2275" 
d="M604 305q-162 0 -256 122t-57 296t183.5 296t307.5 122q88 0 153.5 -24.5t108.5 -75t68 -99.5t49 -121h6q115 152 228.5 236t275.5 84t257 -122t58.5 -296t-184 -296t-309.5 -122q-88 0 -154.5 24.5t-108.5 74t-67.5 98.5t-50.5 121h-6q-113 -152 -226.5 -235t-275.5 -83
zM1516 406q137 0 245.5 91t137 228t-41 233.5t-204.5 96.5q-100 0 -190.5 -49.5t-144.5 -108.5t-128 -160q25 -80 44 -127t55 -100t92.5 -78.5t134.5 -25.5zM623 393q100 0 190 48t144.5 106.5t127.5 159.5q-25 82 -44 127t-56 100t-92 79.5t-133 24.5q-137 0 -245.5 -90
t-137.5 -227t41 -232.5t205 -95.5z" />
    <glyph glyph-name="integral" unicode="&#x222b;" horiz-adv-x="2736" 
d="M854 -410q-47 0 -74.5 20.5t-19.5 59.5q6 29 30.5 50.5t51.5 21.5q31 0 56.5 -32t64.5 -32q53 0 96 43t61 134l342 1601q37 176 148.5 284.5t259.5 108.5q53 0 82.5 -23.5t21.5 -58.5q-8 -33 -32.5 -53t-55.5 -20q-33 0 -61.5 33.5t-71.5 33.5q-113 0 -149 -176
l-334 -1569q-45 -213 -155.5 -319.5t-260.5 -106.5z" />
    <glyph glyph-name="approxequal" unicode="&#x2248;" horiz-adv-x="1736" 
d="M1145 776q-92 0 -178 38t-158 77t-127 39q-92 0 -145 -80l-56 24q84 145 254 146q92 0 180.5 -37t161 -75t127.5 -38q72 0 125 54l49 -35q-83 -113 -233 -113zM1081 477q-92 0 -178 38t-157.5 77t-127.5 39q-94 0 -145 -80l-55 27q84 145 256 145q92 0 179 -38t159.5 -76
t128.5 -38q68 0 127 56l47 -37q-87 -113 -234 -113z" />
    <glyph glyph-name="notequal" unicode="&#x2260;" horiz-adv-x="1230" 
d="M301 184l143 291h-419l18 88h444l158 320h-534l18 88h559l143 289h93l-144 -289h426l-18 -88h-449l-159 -320h540l-18 -88h-565l-142 -291h-94z" />
    <glyph glyph-name="lessequal" unicode="&#x2264;" horiz-adv-x="1390" 
d="M1143 262l-907 410l20 98l1081 410l-20 -97l-942 -360l-2 -6l790 -359zM53 0l15 74h1075l-15 -74h-1075z" />
    <glyph glyph-name="greaterequal" unicode="&#x2265;" horiz-adv-x="1302" 
d="M150 262l20 96l942 359l2 6l-790 360l20 97l905 -410l-20 -98zM53 0l15 74h1075l-15 -74h-1075z" />
    <glyph glyph-name="lozenge" unicode="&#x25ca;" horiz-adv-x="1695" 
d="M647 0l-258 719l561 715h99l258 -715l-562 -719h-98zM711 92h8l491 627l-225 622h-8l-490 -622z" />
    <glyph glyph-name="uniF6E0" unicode="&#xf6e0;" horiz-adv-x="399" 
d="M274 793l13 77q-76 10 -117 61.5t-27 129.5q12 82 69.5 136t137.5 65l12 84h48l-13 -82q68 -2 106 -37t32 -74q-2 -14 -13.5 -25.5t-25.5 -11.5q-20 0 -29.5 17.5t-11.5 40t-23.5 40t-64.5 17.5q-53 0 -101.5 -43t-56.5 -103q-14 -82 23.5 -124.5t111.5 -42.5
q47 0 91 26.5t67 65.5l16 -6q-18 -49 -68.5 -88t-115.5 -46l-12 -77h-48z" />
    <glyph glyph-name="uniF6E4" unicode="&#xf6e4;" horiz-adv-x="456" 
d="M297 676l16 100q-86 4 -132 41t-40 78q6 39 45 39q20 0 29.5 -19.5t13.5 -42t32 -42t79 -19.5q59 0 101 29.5t51 77.5q6 41 -27 70.5t-105 49.5q-174 45 -151 172q8 59 63.5 99.5t133.5 46.5l14 96h45l-14 -94q66 -4 106.5 -34t34.5 -67q-4 -33 -35 -32q-16 0 -24.5 15
t-13.5 33.5t-29.5 34t-69.5 15.5q-51 0 -90 -27.5t-45 -66.5t23.5 -66.5t97.5 -46.5q180 -47 161 -174q-12 -72 -68.5 -116t-140.5 -50l-16 -100h-45z" />
    <glyph glyph-name="uniF6E6" unicode="&#xf6e6;" horiz-adv-x="595" 
d="M160 453l14 88h414l-15 -88h-413z" />
    <glyph glyph-name="uniF6E9" unicode="&#xf6e9;" horiz-adv-x="493" 
d="M575 877q16 0 33 16l13 -16q-39 -39 -97 -39q-76 0 -59 96v4h-2q-63 -100 -158 -100q-76 0 -121 48t-45 134q0 117 74 210t188 93q80 0 121 -51h4l11 51h94q-29 -57 -49 -178l-35 -197q-17 -71 28 -71zM328 885q47 0 90 41t63 96l35 199q-33 57 -100 57q-92 0 -145.5 -79
t-53.5 -183q0 -66 32 -98.5t79 -32.5z" />
    <glyph glyph-name="uniF6EA" unicode="&#xf6ea;" horiz-adv-x="477" 
d="M446 1323q78 0 123 -53t45 -135q0 -123 -75.5 -211t-184.5 -88q-100 0 -145 75h-2l-43 -59h-25l94 530q8 47 -36 56l6 20q82 16 123 64l10 -4l-47 -271h4q59 76 153 76zM346 877q82 0 137.5 81.5t55.5 182.5q0 63 -31 100t-80 37t-91 -34t-65 -83l-34 -200
q36 -84 108 -84z" />
    <glyph glyph-name="uniF6EB" unicode="&#xf6eb;" horiz-adv-x="512" 
d="M575 877q14 0 35 16l11 -16q-37 -39 -95 -39q-78 0 -59 96v2h-2q-63 -98 -160 -98q-76 0 -121 48t-45 134q0 117 74 210t193 93q72 0 116 -45h6l19 104q6 47 -37 56l6 20q84 18 123 64l10 -4l-102 -570q-13 -71 28 -71zM328 885q47 0 91 41t64 96l35 201q-35 55 -100 55
q-96 0 -148.5 -78t-52.5 -184q0 -66 32 -98.5t79 -32.5z" />
    <glyph glyph-name="uniF6EC" unicode="&#xf6ec;" horiz-adv-x="450" 
d="M346 881q106 0 209 106l14 -16q-92 -133 -241 -133q-82 0 -135.5 47t-53.5 137q0 119 84 210t213 91q61 0 106.5 -27.5t45.5 -81.5q0 -82 -99.5 -118.5t-271.5 -51.5v-24q0 -68 41 -103.5t88 -35.5zM424 1284q-70 0 -127 -57.5t-74 -145.5q289 25 289 136q0 31 -23.5 49
t-64.5 18z" />
    <glyph glyph-name="uniF6ED" unicode="&#xf6ed;" horiz-adv-x="184" 
d="M264.5 1393q-26.5 0 -42 16t-15.5 38.5t16.5 39t41 16.5t41 -16.5t16.5 -39t-15.5 -38.5t-42 -16zM203 838q-78 0 -60 96l43 254q8 47 -34 55l6 21q84 18 123 63l10 -4l-68 -375q-12 -72 29 -71q14 0 35 16l10 -16q-37 -39 -94 -39z" />
    <glyph glyph-name="uniF6EE" unicode="&#xf6ee;" horiz-adv-x="186" 
d="M203 838q-78 0 -60 96l78 448q8 47 -37 56l6 20q82 16 123 64l11 -4l-101 -570q-12 -72 29 -71q14 0 35 16l10 -16q-39 -39 -94 -39z" />
    <glyph glyph-name="uniF6EF" unicode="&#xf6ef;" horiz-adv-x="720" 
d="M848 893l10 -16q-39 -39 -94 -39q-80 0 -57 96l45 196q37 147 -60 148q-47 0 -92 -58.5t-65 -144.5l-7 -35q-8 -55 -12 -102t-4 -66v-20h-94l49 278q14 68 5 108t-58 40t-97.5 -61.5t-62.5 -149.5q-12 -66 -17.5 -120t-5.5 -75v-20h-92l58 336q8 47 -37 55l6 21
q84 18 123 63l10 -4l-18 -104h6q70 104 157 104q100 0 107 -104h8q72 104 162 104q154 0 108 -197l-41 -178q-20 -72 25 -71q15 0 35 16z" />
    <glyph glyph-name="uniF6F0" unicode="&#xf6f0;" horiz-adv-x="479" 
d="M344 838q-106 0 -161.5 71.5t-39.5 177.5q16 102 93 169t180 67q104 0 158.5 -70.5t38 -175t-91.5 -172t-177 -67.5zM352 877q68 0 118 57t62 143q14 88 -21.5 147.5t-103 59.5t-119.5 -56.5t-65 -142.5q-14 -88 21.5 -148t107.5 -60z" />
    <glyph glyph-name="uniF6F1" unicode="&#xf6f1;" horiz-adv-x="389" 
d="M444 1323q43 0 63.5 -19.5t16.5 -48.5q-8 -51 -61 -51q-29 0 -44.5 30t-35.5 30q-33 0 -72 -53.5t-59 -139.5l-6 -33q-8 -47 -11.5 -93t-3.5 -68v-25h-92l58 336q8 47 -37 55l6 21q84 18 123 63l10 -4l-16 -90h4q77 90 157 90z" />
    <glyph glyph-name="uniF6F2" unicode="&#xf6f2;" horiz-adv-x="432" 
d="M340 838q-88 0 -145.5 35.5t-53.5 76.5t43 41q23 0 34 -18.5t16.5 -39t31 -38.5t72.5 -18q55 0 94 23.5t45 62.5q2 23 -6 38t-33.5 27t-38 15.5t-51.5 13.5q-37 8 -59.5 15t-49 22.5t-39 41t-7.5 60.5q6 53 61 90t141 37q78 0 127 -30.5t45 -71.5q-4 -39 -37 -39
q-25 0 -33 16t-10 34.5t-24.5 35t-69.5 16.5t-83 -21.5t-40 -56.5q-2 -10 0 -18t7.5 -15.5t10.5 -12.5t15 -9l17.5 -7t20.5 -7t19.5 -5.5t20.5 -5.5t18 -4q39 -8 63.5 -15t52.5 -23.5t38 -44t6 -66.5q-6 -53 -63.5 -94t-155.5 -41z" />
    <glyph glyph-name="uniF6F3" unicode="&#xf6f3;" horiz-adv-x="284" 
d="M248 838q-109 0 -88 116l55 314h-76l4 24q61 20 94 51t60 95h27l-23 -129h121l-6 -41h-123l-55 -318q-12 -68 43 -67q39 0 61 10l2 -35q-37 -20 -96 -20z" />
    <glyph glyph-name="uniFB06" unicode="&#xfb06;" horiz-adv-x="1734" 
d="M600 -37q-211 0 -336 91t-108 184q12 76 80 75q35 0 55 -21.5t25.5 -52t20.5 -68.5t36.5 -68.5t77 -52t139.5 -21.5q135 0 239.5 61.5t120.5 163.5q8 51 -7 91t-38.5 63.5t-75 44t-86 30t-100.5 23.5q-74 16 -115 26.5t-104.5 36t-94 57t-50 85t-9.5 120.5
q18 113 141.5 193t297.5 80q111 0 198 -33q-23 143 4 256t89.5 177.5t137 97t154.5 32.5q229 0 315.5 -157.5t10.5 -407.5h293l-10 -63h-293l-140 -789q-16 -86 9.5 -128t101.5 -42q66 0 139 23l8 -60q-98 -47 -200 -47q-104 0 -151.5 57.5t-20.5 200.5l137 785h-174l6 34
q135 41 190.5 104.5t55.5 190.5q0 90 -63.5 170t-209.5 80q-150 0 -244 -109.5t-94 -258.5q0 -80 21.5 -137.5t46.5 -84t44.5 -62.5t16.5 -77q-4 -78 -69 -78q-39 0 -56.5 19.5t-18.5 48t-9 62.5t-24.5 62.5t-69 48t-138.5 19.5q-117 0 -209 -56t-106 -151
q-10 -68 38 -113.5t93 -60t146 -36.5q16 -4 24 -7q205 -45 279 -92q131 -86 102 -268q-20 -115 -149.5 -203t-319.5 -88z" />
    <glyph glyph-name="glyph422" horiz-adv-x="0" 
 />
    <glyph glyph-name="glyph423" horiz-adv-x="614" 
 />
    <glyph glyph-name="glyph424" horiz-adv-x="565" 
d="M924 -377q-104 0 -193.5 39t-154 94.5t-129 110.5t-148.5 94t-182 39l6 33q102 18 119 106l202 1153q16 88 -79 107l6 35h323l-6 -35q-102 -18 -119 -107l-215 -1212q57 -20 111.5 -69.5t99.5 -101.5t95.5 -103.5t117 -84t146.5 -32.5q63 0 106 33.5t61.5 75.5t50.5 76
t75 34q72 0 71 -80q0 -90 -115.5 -147.5t-248.5 -57.5z" />
    <glyph glyph-name="glyph425" horiz-adv-x="1990" 
d="M1354 983q86 115 167 199t181 152.5t217 94t246 5.5l-6 -35q-41 -6 -77 -32t-42 -73l-205 -1153q-8 -47 17.5 -73.5t64.5 -32.5l-6 -35h-324l6 35q102 14 119 106l12 72q-2 168 -119.5 323.5t-295.5 239.5q-27 -43 -109 -175t-127 -200q-139 -209 -276.5 -322.5
t-307.5 -113.5q-133 0 -213.5 38t-80.5 108q0 37 23.5 62.5t62.5 25.5q43 0 65.5 -26t29.5 -57.5t34.5 -57t78.5 -25.5q139 0 259 108.5t258 311.5q45 66 129 198.5t98 155.5q-104 37 -213 37q-147 0 -224 -43t-77 -94q0 -27 18.5 -64t18.5 -68q0 -39 -29 -71.5t-76 -32.5
t-79.5 36t-32.5 89q0 131 137 226.5t344 95.5q125 0 254 -48q27 39 80 113zM1757 463h12l154 883q-145 -25 -268 -131.5t-246 -284.5q-33 -47 -59 -90q135 -63 243.5 -161.5t163.5 -215.5z" />
    <glyph glyph-name="glyph426" horiz-adv-x="1978" 
d="M2122 1835q29 0 41 -18.5t8 -40.5q-6 -33 -60 -74l-235 -176l-35 37l201 229q39 43 80 43zM1354 983q86 115 167 199t181 152.5t217 94t246 5.5l-6 -35q-41 -6 -77 -32t-42 -73l-205 -1153q-8 -47 17.5 -73.5t64.5 -32.5l-6 -35h-324l6 35q102 14 119 106l12 72
q-2 168 -119.5 323.5t-295.5 239.5q-27 -43 -109 -175t-127 -200q-139 -209 -276.5 -322.5t-307.5 -113.5q-133 0 -213.5 38t-80.5 108q0 37 23.5 62.5t62.5 25.5q43 0 65.5 -26t29.5 -57.5t34.5 -57t78.5 -25.5q139 0 259 108.5t258 311.5q45 66 129 198.5t98 155.5
q-104 37 -213 37q-147 0 -224 -43t-77 -94q0 -27 18.5 -64t18.5 -68q0 -39 -29 -71.5t-76 -32.5t-79.5 36t-32.5 89q0 131 137 226.5t344 95.5q125 0 254 -48q27 39 80 113zM1757 463h12l154 883q-145 -25 -268 -131.5t-246 -284.5q-33 -47 -59 -90q135 -63 243.5 -161.5
t163.5 -215.5z" />
    <glyph glyph-name="glyph427" horiz-adv-x="1986" 
d="M2206 1808l55 -20q-102 -199 -299 -199q-113 0 -168 58.5t-65 140.5l59 20q16 -47 66.5 -86t121.5 -39q68 0 134.5 40t95.5 85zM1354 983q86 115 167 199t181 152.5t217 94t246 5.5l-6 -35q-41 -6 -77 -32t-42 -73l-205 -1153q-8 -47 17.5 -73.5t64.5 -32.5l-6 -35h-324
l6 35q102 14 119 106l12 72q-2 168 -119.5 323.5t-295.5 239.5q-27 -43 -109 -175t-127 -200q-139 -209 -276.5 -322.5t-307.5 -113.5q-133 0 -213.5 38t-80.5 108q0 37 23.5 62.5t62.5 25.5q43 0 65.5 -26t29.5 -57.5t34.5 -57t78.5 -25.5q139 0 259 108.5t258 311.5
q45 66 129 198.5t98 155.5q-104 37 -213 37q-147 0 -224 -43t-77 -94q0 -27 18.5 -64t18.5 -68q0 -39 -29 -71.5t-76 -32.5t-79.5 36t-32.5 89q0 131 137 226.5t344 95.5q125 0 254 -48q27 39 80 113zM1757 463h12l154 883q-145 -25 -268 -131.5t-246 -284.5
q-33 -47 -59 -90q135 -63 243.5 -161.5t163.5 -215.5z" />
    <glyph glyph-name="glyph428" horiz-adv-x="1980" 
d="M2003 1806l278 -243l-47 -50l-254 152l-303 -152l-30 50zM1354 983q86 115 167 199t181 152.5t217 94t246 5.5l-6 -35q-41 -6 -77 -32t-42 -73l-205 -1153q-8 -47 17.5 -73.5t64.5 -32.5l-6 -35h-324l6 35q102 14 119 106l12 72q-2 168 -119.5 323.5t-295.5 239.5
q-27 -43 -109 -175t-127 -200q-139 -209 -276.5 -322.5t-307.5 -113.5q-133 0 -213.5 38t-80.5 108q0 37 23.5 62.5t62.5 25.5q43 0 65.5 -26t29.5 -57.5t34.5 -57t78.5 -25.5q139 0 259 108.5t258 311.5q45 66 129 198.5t98 155.5q-104 37 -213 37q-147 0 -224 -43t-77 -94
q0 -27 18.5 -64t18.5 -68q0 -39 -29 -71.5t-76 -32.5t-79.5 36t-32.5 89q0 131 137 226.5t344 95.5q125 0 254 -48q27 39 80 113zM1757 463h12l154 883q-145 -25 -268 -131.5t-246 -284.5q-33 -47 -59 -90q135 -63 243.5 -161.5t163.5 -215.5z" />
    <glyph glyph-name="glyph429" horiz-adv-x="1976" 
d="M1731 1659q-41 0 -63.5 26.5t-14.5 65.5q8 41 42 68.5t74.5 27.5t62 -27.5t13.5 -68.5q-8 -39 -40.5 -65.5t-73.5 -26.5zM2048 1659q-41 0 -63.5 26.5t-14.5 65.5q10 41 43 68.5t74 27.5t62.5 -27.5t13.5 -68.5q-8 -39 -41 -65.5t-74 -26.5zM1354 983q86 115 167 199
t181 152.5t217 94t246 5.5l-6 -35q-41 -6 -77 -32t-42 -73l-205 -1153q-8 -47 17.5 -73.5t64.5 -32.5l-6 -35h-324l6 35q102 14 119 106l12 72q-2 168 -119.5 323.5t-295.5 239.5q-27 -43 -109 -175t-127 -200q-139 -209 -276.5 -322.5t-307.5 -113.5q-133 0 -213.5 38
t-80.5 108q0 37 23.5 62.5t62.5 25.5q43 0 65.5 -26t29.5 -57.5t34.5 -57t78.5 -25.5q139 0 259 108.5t258 311.5q45 66 129 198.5t98 155.5q-104 37 -213 37q-147 0 -224 -43t-77 -94q0 -27 18.5 -64t18.5 -68q0 -39 -29 -71.5t-76 -32.5t-79.5 36t-32.5 89
q0 131 137 226.5t344 95.5q125 0 254 -48q27 39 80 113zM1757 463h12l154 883q-145 -25 -268 -131.5t-246 -284.5q-33 -47 -59 -90q135 -63 243.5 -161.5t163.5 -215.5z" />
    <glyph glyph-name="glyph430" horiz-adv-x="1984" 
d="M1853 1526l-161 176q-33 45 -27 74q4 25 24.5 42t49.5 17q43 0 63 -43l103 -231zM1354 983q86 115 167 199t181 152.5t217 94t246 5.5l-6 -35q-41 -6 -77 -32t-42 -73l-205 -1153q-8 -47 17.5 -73.5t64.5 -32.5l-6 -35h-324l6 35q102 14 119 106l12 72
q-2 168 -119.5 323.5t-295.5 239.5q-27 -43 -109 -175t-127 -200q-139 -209 -276.5 -322.5t-307.5 -113.5q-133 0 -213.5 38t-80.5 108q0 37 23.5 62.5t62.5 25.5q43 0 65.5 -26t29.5 -57.5t34.5 -57t78.5 -25.5q139 0 259 108.5t258 311.5q45 66 129 198.5t98 155.5
q-104 37 -213 37q-147 0 -224 -43t-77 -94q0 -27 18.5 -64t18.5 -68q0 -39 -29 -71.5t-76 -32.5t-79.5 36t-32.5 89q0 131 137 226.5t344 95.5q125 0 254 -48q27 39 80 113zM1757 463h12l154 883q-145 -25 -268 -131.5t-246 -284.5q-33 -47 -59 -90q135 -63 243.5 -161.5
t163.5 -215.5z" />
    <glyph glyph-name="glyph431" horiz-adv-x="1961" 
d="M1741 1776h504l-21 -93h-504zM1354 983q86 115 167 199t181 152.5t217 94t246 5.5l-6 -35q-41 -6 -77 -32t-42 -73l-205 -1153q-8 -47 17.5 -73.5t64.5 -32.5l-6 -35h-324l6 35q102 14 119 106l12 72q-2 168 -119.5 323.5t-295.5 239.5q-27 -43 -109 -175t-127 -200
q-139 -209 -276.5 -322.5t-307.5 -113.5q-133 0 -213.5 38t-80.5 108q0 37 23.5 62.5t62.5 25.5q43 0 65.5 -26t29.5 -57.5t34.5 -57t78.5 -25.5q139 0 259 108.5t258 311.5q45 66 129 198.5t98 155.5q-104 37 -213 37q-147 0 -224 -43t-77 -94q0 -27 18.5 -64t18.5 -68
q0 -39 -29 -71.5t-76 -32.5t-79.5 36t-32.5 89q0 131 137 226.5t344 95.5q125 0 254 -48q27 39 80 113zM1757 463h12l154 883q-145 -25 -268 -131.5t-246 -284.5q-33 -47 -59 -90q135 -63 243.5 -161.5t163.5 -215.5z" />
    <glyph glyph-name="glyph432" horiz-adv-x="1974" 
d="M1354 983q86 115 167 199t181 152.5t217 94t246 5.5l-6 -35q-41 -6 -77 -32t-42 -73l-205 -1153q-8 -47 17.5 -73.5t64.5 -32.5l-6 -35h-101q-76 -33 -125 -88t-59 -117q-10 -66 29 -107.5t98 -41.5q104 0 176 104l49 -29q-98 -152 -274 -151q-92 0 -148.5 51t-44.5 139
q10 66 64.5 131.5t132.5 108.5h-121l6 35q102 14 119 106l12 72q-2 168 -119.5 323.5t-295.5 239.5q-27 -43 -109 -175t-127 -200q-139 -209 -276.5 -322.5t-307.5 -113.5q-133 0 -213.5 38t-80.5 108q0 37 23.5 62.5t62.5 25.5q43 0 65.5 -26t29.5 -57.5t34.5 -57
t78.5 -25.5q139 0 259 108.5t258 311.5q45 66 129 198.5t98 155.5q-104 37 -213 37q-147 0 -224 -43t-77 -94q0 -27 18.5 -64t18.5 -68q0 -39 -29 -71.5t-76 -32.5t-79.5 36t-32.5 89q0 131 137 226.5t344 95.5q125 0 254 -48q27 39 80 113zM1757 463h12l154 883
q-145 -25 -268 -131.5t-246 -284.5q-33 -47 -59 -90q135 -63 243.5 -161.5t163.5 -215.5z" />
    <glyph glyph-name="glyph433" horiz-adv-x="1972" 
d="M1872 1538q-90 0 -143.5 63.5t-38.5 151.5q14 90 86.5 153.5t165.5 63.5q90 0 143 -63.5t39 -153.5q-14 -86 -89 -150.5t-163 -64.5zM1772 1753q-10 -57 22.5 -96t90 -39t104.5 39t55 96t-24.5 98t-90 41t-102.5 -40t-55 -99zM1354 983q86 115 167 199t181 152.5t217 94
t246 5.5l-6 -35q-41 -6 -77 -32t-42 -73l-205 -1153q-8 -47 17.5 -73.5t64.5 -32.5l-6 -35h-324l6 35q102 14 119 106l12 72q-2 168 -119.5 323.5t-295.5 239.5q-27 -43 -109 -175t-127 -200q-139 -209 -276.5 -322.5t-307.5 -113.5q-133 0 -213.5 38t-80.5 108
q0 37 23.5 62.5t62.5 25.5q43 0 65.5 -26t29.5 -57.5t34.5 -57t78.5 -25.5q139 0 259 108.5t258 311.5q45 66 129 198.5t98 155.5q-104 37 -213 37q-147 0 -224 -43t-77 -94q0 -27 18.5 -64t18.5 -68q0 -39 -29 -71.5t-76 -32.5t-79.5 36t-32.5 89q0 131 137 226.5t344 95.5
q125 0 254 -48q27 39 80 113zM1757 463h12l154 883q-145 -25 -268 -131.5t-246 -284.5q-33 -47 -59 -90q135 -63 243.5 -161.5t163.5 -215.5z" />
    <glyph glyph-name="glyph434" horiz-adv-x="1972" 
d="M2382 2140q-6 -33 -60 -74l-129 -96q80 -8 127 -69.5t35 -147.5q-14 -86 -89 -150.5t-163 -64.5q-90 0 -143 63.5t-39 151.5q18 131 147 195l185 209q39 43 80 43q29 0 41 -18.5t8 -41.5zM2275.5 1753q8.5 57 -24.5 98t-90.5 41t-102.5 -40t-55 -99q-10 -57 22.5 -96
t90 -39t104.5 39t55.5 96zM1354 983q86 115 167 199t181 152.5t217 94t246 5.5l-6 -35q-41 -6 -77 -32t-42 -73l-205 -1153q-8 -47 17.5 -73.5t64.5 -32.5l-6 -35h-324l6 35q102 14 119 106l12 72q-2 168 -119.5 323.5t-295.5 239.5q-27 -43 -109 -175t-127 -200
q-139 -209 -276.5 -322.5t-307.5 -113.5q-133 0 -213.5 38t-80.5 108q0 37 23.5 62.5t62.5 25.5q43 0 65.5 -26t29.5 -57.5t34.5 -57t78.5 -25.5q139 0 259 108.5t258 311.5q45 66 129 198.5t98 155.5q-104 37 -213 37q-147 0 -224 -43t-77 -94q0 -27 18.5 -64t18.5 -68
q0 -39 -29 -71.5t-76 -32.5t-79.5 36t-32.5 89q0 131 137 226.5t344 95.5q125 0 254 -48q27 39 80 113zM1757 463h12l154 883q-145 -25 -268 -131.5t-246 -284.5q-33 -47 -59 -90q135 -63 243.5 -161.5t163.5 -215.5z" />
    <glyph glyph-name="glyph435" horiz-adv-x="2019" 
d="M1739 1759q-63 0 -94 -90l-46 19q51 166 189 165q51 0 124 -60t107 -60q61 0 97 90l43 -17q-51 -170 -189 -170q-51 0 -123.5 61.5t-107.5 61.5zM1354 983q86 115 167 199t181 152.5t217 94t246 5.5l-6 -35q-41 -6 -77 -32t-42 -73l-205 -1153q-8 -47 17.5 -73.5
t64.5 -32.5l-6 -35h-324l6 35q102 14 119 106l12 72q-2 168 -119.5 323.5t-295.5 239.5q-27 -43 -109 -175t-127 -200q-139 -209 -276.5 -322.5t-307.5 -113.5q-133 0 -213.5 38t-80.5 108q0 37 23.5 62.5t62.5 25.5q43 0 65.5 -26t29.5 -57.5t34.5 -57t78.5 -25.5
q139 0 259 108.5t258 311.5q45 66 129 198.5t98 155.5q-104 37 -213 37q-147 0 -224 -43t-77 -94q0 -27 18.5 -64t18.5 -68q0 -39 -29 -71.5t-76 -32.5t-79.5 36t-32.5 89q0 131 137 226.5t344 95.5q125 0 254 -48q27 39 80 113zM1757 463h12l154 883q-145 -25 -268 -131.5
t-246 -284.5q-33 -47 -59 -90q135 -63 243.5 -161.5t163.5 -215.5z" />
    <glyph glyph-name="glyph436" horiz-adv-x="1779" 
d="M1806 1085q-16 -98 -93 -179t-197 -126l-3 -10q135 -47 202 -148.5t44 -226.5q-35 -193 -186.5 -305.5t-415.5 -112.5q-111 0 -274.5 11.5t-220.5 11.5h-162l6 33q102 18 119 106l202 1153q10 61 -39 92q-180 20 -270 21q-201 0 -201 -123q0 -27 24 -61.5t24 -61.5
q0 -74 -76 -74q-43 0 -68.5 36t-25.5 85q4 106 84.5 184t238.5 78q96 0 274.5 -17t272.5 -17h301q229 0 347 -101t93 -248zM1354 1366q-264 0 -391 -16l-97 -543h428q156 0 262.5 81t124.5 195q20 123 -63.5 203t-263.5 80zM1634 395q25 147 -72.5 245.5t-283.5 98.5h-424
l-117 -657q61 -4 152.5 -12.5t156 -13.5t121.5 -5q201 0 320.5 92t146.5 252z" />
    <glyph glyph-name="glyph437" horiz-adv-x="1845" 
d="M1235 37q301 0 514 385l53 -21q-205 -438 -626 -438q-186 0 -313.5 110.5t-171.5 280.5t-11 363q57 315 248 516q-236 168 -391 168q-111 0 -176.5 -49t-65.5 -133q0 -31 38 -73t38 -73q0 -33 -20.5 -54.5t-55.5 -21.5q-47 0 -73.5 47.5t-26.5 120.5q0 133 95 217t249 84
q197 0 448 -176q207 176 490 176q199 0 296 -76.5t97 -207.5q0 -109 -86 -183.5t-211 -74.5q-102 0 -209 40t-175.5 84t-172.5 119q-154 -174 -199 -422q-61 -348 66 -528t352 -180zM1475 1401q-215 0 -402 -174q106 -80 163.5 -119t153 -78t183.5 -39q102 0 163.5 57.5
t61.5 133.5q1 219 -323 219z" />
    <glyph glyph-name="glyph438" horiz-adv-x="1458" 
d="M1192 1702l-236 -176l-34 37l200 229q39 43 80 43q29 0 41 -18.5t8 -40.5q-6 -33 -59 -74zM840 37q301 0 514 385l53 -21q-205 -438 -627 -438q-186 0 -313 110.5t-171 280.5t-11 363q57 315 247 516q-236 168 -391 168q-111 0 -176 -49t-65 -133q0 -31 37.5 -73
t37.5 -73q0 -33 -20.5 -54.5t-54.5 -21.5q-47 0 -74 47.5t-27 120.5q0 133 95.5 217t248.5 84q197 0 449 -176q207 176 489 176q199 0 296.5 -76.5t97.5 -207.5q0 -109 -86 -183.5t-211 -74.5q-102 0 -209 40t-175.5 84t-172.5 119q-154 -174 -199 -422q-61 -348 66 -528
t352 -180zM1079 1401q-215 0 -401 -174q106 -80 163.5 -119t153 -78t183.5 -39q102 0 163.5 57.5t61.5 133.5q0 219 -324 219z" />
    <glyph glyph-name="glyph439" horiz-adv-x="1845" 
d="M1794 1778l-356 -244l-279 244l47 49l254 -152l303 152zM1235 37q301 0 514 385l53 -21q-205 -438 -626 -438q-186 0 -313.5 110.5t-171.5 280.5t-11 363q57 315 248 516q-236 168 -391 168q-111 0 -176.5 -49t-65.5 -133q0 -31 38 -73t38 -73q0 -33 -20.5 -54.5
t-55.5 -21.5q-47 0 -73.5 47.5t-26.5 120.5q0 133 95 217t249 84q197 0 448 -176q207 176 490 176q199 0 296 -76.5t97 -207.5q0 -109 -86 -183.5t-211 -74.5q-102 0 -209 40t-175.5 84t-172.5 119q-154 -174 -199 -422q-61 -348 66 -528t352 -180zM1475 1401
q-215 0 -402 -174q106 -80 163.5 -119t153 -78t183.5 -39q102 0 163.5 57.5t61.5 133.5q1 219 -323 219z" />
    <glyph glyph-name="glyph440" horiz-adv-x="1845" 
d="M1235 37q301 0 514 385l53 -21q-188 -397 -551 -434l-69 -110q37 12 69 12q80 0 121 -39t25 -111q-14 -74 -98.5 -131t-206.5 -57q-96 0 -150.5 31.5t-44.5 75.5q4 27 24.5 44t47.5 17q31 0 43 -17.5t14 -39t22.5 -39t65.5 -17.5q135 0 162 107q8 37 -13.5 60.5
t-66.5 23.5q-63 0 -106 -37l-39 20l127 203h-2q-186 0 -313.5 110.5t-171.5 280.5t-11 363q57 315 248 516q-236 168 -391 168q-111 0 -176.5 -49t-65.5 -133q0 -31 38 -73t38 -73q0 -33 -20.5 -54.5t-55.5 -21.5q-47 0 -73.5 47.5t-26.5 120.5q0 133 95 217t249 84
q197 0 448 -176q207 176 490 176q199 0 296 -76.5t97 -207.5q0 -109 -86 -183.5t-211 -74.5q-102 0 -209 40t-175.5 84t-172.5 119q-154 -174 -199 -422q-61 -348 66 -528t352 -180zM1475 1401q-215 0 -402 -174q106 -80 163.5 -119t153 -78t183.5 -39q102 0 163.5 57.5
t61.5 133.5q1 219 -323 219z" />
    <glyph glyph-name="glyph441" horiz-adv-x="1845" 
d="M1460 1665l-303 -152l-31 50l357 243l278 -243l-47 -50zM1235 37q301 0 514 385l53 -21q-205 -438 -626 -438q-186 0 -313.5 110.5t-171.5 280.5t-11 363q57 315 248 516q-236 168 -391 168q-111 0 -176.5 -49t-65.5 -133q0 -31 38 -73t38 -73q0 -33 -20.5 -54.5
t-55.5 -21.5q-47 0 -73.5 47.5t-26.5 120.5q0 133 95 217t249 84q197 0 448 -176q207 176 490 176q199 0 296 -76.5t97 -207.5q0 -109 -86 -183.5t-211 -74.5q-102 0 -209 40t-175.5 84t-172.5 119q-154 -174 -199 -422q-61 -348 66 -528t352 -180zM1475 1401
q-215 0 -402 -174q106 -80 163.5 -119t153 -78t183.5 -39q102 0 163.5 57.5t61.5 133.5q1 219 -323 219z" />
    <glyph glyph-name="glyph442" horiz-adv-x="1845" 
d="M1454 1659q-39 0 -62.5 26.5t-17.5 65.5q6 41 37 68.5t72 27.5t64.5 -27.5t17.5 -68.5q-6 -39 -38 -65.5t-73 -26.5zM1235 37q301 0 514 385l53 -21q-205 -438 -626 -438q-186 0 -313.5 110.5t-171.5 280.5t-11 363q57 315 248 516q-236 168 -391 168q-111 0 -176.5 -49
t-65.5 -133q0 -31 38 -73t38 -73q0 -33 -20.5 -54.5t-55.5 -21.5q-47 0 -73.5 47.5t-26.5 120.5q0 133 95 217t249 84q197 0 448 -176q207 176 490 176q199 0 296 -76.5t97 -207.5q0 -109 -86 -183.5t-211 -74.5q-102 0 -209 40t-175.5 84t-172.5 119q-154 -174 -199 -422
q-61 -348 66 -528t352 -180zM1475 1401q-215 0 -402 -174q106 -80 163.5 -119t153 -78t183.5 -39q102 0 163.5 57.5t61.5 133.5q1 219 -323 219z" />
    <glyph glyph-name="glyph443" horiz-adv-x="1820" 
d="M1249 1434q324 0 502 -212t123 -530q-53 -297 -272.5 -494.5t-511.5 -197.5h-590l6 35q41 6 76.5 32.5t44.5 73.5l217 1237q-287 27 -326 27q-201 0 -201 -123q0 -27 24 -61.5t24 -61.5q0 -74 -76 -74q-43 0 -68.5 37t-23.5 84q2 104 81.5 183t239.5 79q96 0 274.5 -16
t272.5 -16v-2h184zM1743 666q55 322 -86 513t-436 191q-100 0 -168 -6h-11q-18 -2 -45.5 -5t-33.5 -3l-220 -1254q129 -33 344 -32q264 0 438.5 176t217.5 420z" />
    <glyph glyph-name="glyph444" horiz-adv-x="1820" 
d="M1632 1778l-356 -244l-279 244l47 49l254 -152l304 152zM1249 1434q324 0 502 -212t123 -530q-53 -297 -272.5 -494.5t-511.5 -197.5h-590l6 35q41 6 76.5 32.5t44.5 73.5l217 1237q-287 27 -326 27q-201 0 -201 -123q0 -27 24 -61.5t24 -61.5q0 -74 -76 -74
q-43 0 -68.5 37t-23.5 84q2 104 81.5 183t239.5 79q96 0 274.5 -16t272.5 -16v-2h184zM1743 666q55 322 -86 513t-436 191q-100 0 -168 -6h-11q-18 -2 -45.5 -5t-33.5 -3l-220 -1254q129 -33 344 -32q264 0 438.5 176t217.5 420z" />
    <glyph glyph-name="glyph445" horiz-adv-x="1820" 
d="M1249 1434q324 0 502 -212t123 -530q-53 -297 -272.5 -494.5t-511.5 -197.5h-590l6 35q41 6 76.5 32.5t44.5 73.5l94 541h-285l10 70h287l111 626q-287 27 -326 27q-201 0 -201 -123q0 -27 24 -61.5t24 -61.5q0 -74 -76 -74q-43 0 -68.5 37t-23.5 84q2 104 81.5 183
t239.5 79q96 0 274.5 -16t272.5 -16v-2h184zM1743 666q55 322 -86 513t-436 191q-100 0 -168 -6h-11q-18 -2 -45.5 -5t-33.5 -3l-107 -604h301l-10 -70h-303l-101 -580q129 -33 344 -32q264 0 438.5 176t217.5 420z" />
    <glyph glyph-name="glyph446" horiz-adv-x="1740" 
d="M1554 985q-102 0 -206.5 35t-170 72.5t-167.5 105.5q-43 -66 -43 -137q0 -121 85 -200t230 -79h154l-17 -69h-221q-201 0 -321.5 -98.5t-120.5 -258.5q0 -143 113.5 -236t347.5 -93q172 0 316 87t226 251l56 -21q-94 -190 -238.5 -285.5t-368.5 -95.5
q-260 0 -422.5 105.5t-162.5 281.5q0 164 109.5 276.5t314.5 131.5v6q-186 68 -187 291q0 111 64 198q-231 147 -387 148q-111 0 -175.5 -49t-64.5 -133q0 -31 37 -72t37 -74t-20.5 -54.5t-55.5 -21.5q-47 0 -73.5 47.5t-26.5 120.5q0 133 96 217t250 84q199 0 438 -151
q170 152 489 151q203 0 303.5 -70.5t100.5 -185.5q0 -106 -92.5 -165.5t-225.5 -59.5zM1460 1401q-113 0 -220 -38t-177 -103q102 -70 158.5 -104t150.5 -68.5t182 -34.5q111 0 177.5 42t66.5 115q0 98 -82 144.5t-256 46.5z" />
    <glyph glyph-name="glyph447" horiz-adv-x="1740" 
d="M1362 1589q-113 0 -168 58.5t-66 140.5l60 20q16 -47 66.5 -86t121.5 -39q68 0 134.5 40t95.5 85l55 -20q-102 -199 -299 -199zM1554 985q-102 0 -206.5 35t-170 72.5t-167.5 105.5q-43 -66 -43 -137q0 -121 85 -200t230 -79h154l-17 -69h-221q-201 0 -321.5 -98.5
t-120.5 -258.5q0 -143 113.5 -236t347.5 -93q172 0 316 87t226 251l56 -21q-94 -190 -238.5 -285.5t-368.5 -95.5q-260 0 -422.5 105.5t-162.5 281.5q0 164 109.5 276.5t314.5 131.5v6q-186 68 -187 291q0 111 64 198q-231 147 -387 148q-111 0 -175.5 -49t-64.5 -133
q0 -31 37 -72t37 -74t-20.5 -54.5t-55.5 -21.5q-47 0 -73.5 47.5t-26.5 120.5q0 133 96 217t250 84q199 0 438 -151q170 152 489 151q203 0 303.5 -70.5t100.5 -185.5q0 -106 -92.5 -165.5t-225.5 -59.5zM1460 1401q-113 0 -220 -38t-177 -103q102 -70 158.5 -104
t150.5 -68.5t182 -34.5q111 0 177.5 42t66.5 115q0 98 -82 144.5t-256 46.5z" />
    </font>
</defs>
</svg>
