<?xml version="1.0" standalone="no"?>
<!DOCTYPE svg PUBLIC "-//W3C//DTD SVG 1.1//EN" "http://www.w3.org/Graphics/SVG/1.1/DTD/svg11.dtd" >
<svg xmlns="http://www.w3.org/2000/svg" xmlns:xlink="http://www.w3.org/1999/xlink" version="1.1">
<metadata>
Created by FontForge 20170731 at Wed Apr 17 11:03:24 2019
 By Aleksey,,,
Copyright (c) 2019 by Studio Sun. All rights reserved. Desktop use is strictly prohibited.
</metadata>
<defs>
<font id="Tropiline-Light" horiz-adv-x="450" >
  <font-face 
    font-family="Tropiline Light"
    font-weight="300"
    font-stretch="normal"
    units-per-em="2048"
    panose-1="0 0 0 0 0 0 0 0 0 0"
    ascent="1536"
    descent="-512"
    x-height="1069"
    cap-height="1434"
    bbox="-625 -1106 2601 2224"
    underline-thickness="0"
    underline-position="0"
    unicode-range="U+0020-FB00"
  />
<missing-glyph horiz-adv-x="1378" 
d="M229 0v1434h920v-1434h-920zM346 104h688v1225h-688v-1225z" />
    <glyph glyph-name="uniFB00" unicode="ff" horiz-adv-x="1173" 
d="M825 1364q0 -59 51.5 -158.5t59.5 -136.5h264v-63h-260v-867q0 -47 29.5 -72.5t68.5 -31.5v-35h-315v35q41 6 70.5 31.5t29.5 72.5v867h-442v-867q0 -47 29.5 -72.5t68.5 -31.5v-35h-315v35q41 6 70.5 31.5t29.5 72.5v867h-203v63h201q-4 29 -38 127t-34 168
q0 86 60.5 148.5t155.5 62.5q98 0 168.5 -48t70.5 -118q0 -72 -61 -72q-33 0 -53.5 27t-27.5 59.5t-35 59t-75 26.5q-57 0 -92 -38.5t-35 -106.5q0 -59 51.5 -158.5t59.5 -136.5h444q-4 29 -37.5 127t-33.5 168q0 86 60 148.5t155 62.5q98 0 168.5 -48t70.5 -118
q0 -72 -61 -72q-33 0 -53.5 27t-27.5 59.5t-35 59t-75 26.5q-57 0 -92 -38.5t-35 -106.5z" />
    <glyph glyph-name="T_h.liga" unicode="Th" horiz-adv-x="2246" 
d="M2114 141q6 -88 106 -106v-35h-317v35q100 18 94 106l-31 512q-8 188 -91 287.5t-218 99.5t-233.5 -91t-98.5 -224v-584q0 -88 98 -106v-35h-315v35q100 18 100 106v1299q-158 -55 -391 -56q-57 0 -106 7v-1250q0 -88 98 -106v-35h-324v35q100 18 101 106v1274
q-186 41 -248 41q-199 0 -199 -125q0 -27 22.5 -60.5t22.5 -60.5q0 -74 -73 -73q-45 0 -71 36.5t-24 83.5q2 104 83 183.5t241 79.5q94 0 278.5 -34t274.5 -34q299 0 436 92l12 8l21 -8q-37 -113 -37 -370v-252h8q113 184 332 184q180 0 291.5 -114.5t126.5 -338.5z" />
    <glyph glyph-name="f_t.liga" unicode="ft" horiz-adv-x="1218" 
d="M1139 72l18 -60q-84 -47 -192 -47q-104 0 -162 57.5t-58 200.5v783h-364v-867q0 -47 29.5 -72.5t68.5 -31.5v-35h-315v35q41 6 70.5 31.5t29.5 72.5v867h-203v63h201q-4 29 -38 127t-34 168q0 86 60.5 148.5t155.5 62.5q98 0 168.5 -48t70.5 -118q0 -72 -61 -72
q-33 0 -53.5 27t-27.5 59.5t-35 59t-75 26.5q-57 0 -92 -38.5t-35 -106.5q0 -59 51.5 -158.5t59.5 -136.5h264q90 43 123 105.5t53 201.5h45v-307h293v-63h-293v-789q0 -86 33 -128t109 -42q67 0 135 25z" />
    <glyph glyph-name=".notdef" horiz-adv-x="1378" 
d="M229 0v1434h920v-1434h-920zM346 104h688v1225h-688v-1225z" />
    <glyph glyph-name="glyph1" horiz-adv-x="0" 
 />
    <glyph glyph-name="glyph2" horiz-adv-x="681" 
 />
    <glyph glyph-name="space" unicode=" " horiz-adv-x="604" 
 />
    <glyph glyph-name="exclam" unicode="!" horiz-adv-x="522" 
d="M227 330q0 350 -30.5 626.5t-30.5 356.5q0 156 96 155.5t96 -155.5q0 -82 -31.5 -357.5t-31.5 -625.5h-68zM260 -37q-43 0 -73.5 30t-30.5 79q0 45 30.5 73.5t73.5 28.5q45 0 76 -28.5t31 -73.5q0 -49 -31 -79t-76 -30z" />
    <glyph glyph-name="quotedbl" unicode="&#x22;" horiz-adv-x="790" 
d="M201 985q-8 102 -29.5 229t-21.5 162q0 41 23.5 66.5t58 25.5t58 -25.5t23.5 -66.5q0 -35 -21.5 -162t-29.5 -229h-61zM528 985q-8 102 -29.5 229t-21.5 162q0 41 23.5 66.5t58.5 25.5t58.5 -25.5t23.5 -66.5q0 -35 -21.5 -162t-29.5 -229h-62z" />
    <glyph glyph-name="numbersign" unicode="#" horiz-adv-x="1114" 
d="M123 0l121 434h-221v58h237l127 452h-268v60h284l123 430h68l-123 -430h330l123 430h67l-123 -430h224v-60h-240l-127 -452h270v-58h-286l-121 -434h-68l121 434h-330l-121 -434h-67zM328 492h329l127 452h-329z" />
    <glyph glyph-name="dollar" unicode="$" horiz-adv-x="1191" 
d="M1090 367q0 -174 -116 -282t-321 -120v-237h-96v237q-205 10 -340 102.5t-135 198.5q0 35 20.5 56.5t55.5 21.5q37 0 60.5 -32.5t43 -78t51 -91.5t105.5 -78.5t186 -32.5q172 0 279.5 87t105.5 224q0 229 -405 330q-461 111 -461 438q0 141 119.5 242.5t314.5 113.5v236
h96v-236q162 -10 271.5 -85.5t109.5 -159.5q0 -31 -15 -50.5t-40 -19.5q-29 0 -47.5 25.5t-36.5 62.5t-48 74t-96.5 62.5t-164.5 25.5q-152 0 -250 -81t-98 -192q0 -219 364 -313q246 -63 367 -170.5t121 -277.5z" />
    <glyph glyph-name="percent" unicode="%" horiz-adv-x="1675" 
d="M440 713q-158 0 -262 114.5t-104 266.5q0 162 97 268t259 106q152 0 253 -111.5t101 -269.5q0 -154 -96 -264t-248 -110zM444 0l691 1434h96l-692 -1434h-95zM436 772q100 0 163 92t63 219q0 133 -67 225.5t-165 92.5q-106 0 -168.5 -88t-62.5 -223q0 -127 67.5 -222.5
t169.5 -95.5zM1255 -37q-156 0 -261 115t-105 266q0 162 97 268.5t259 106.5q152 0 254.5 -111.5t102.5 -269.5q0 -154 -96.5 -264.5t-250.5 -110.5zM1251 23q100 0 163 92t63 219q0 133 -67 225t-165 92q-104 0 -167.5 -88t-63.5 -223q0 -127 67.5 -222t169.5 -95z" />
    <glyph glyph-name="ampersand" unicode="&#x26;" horiz-adv-x="1720" 
d="M1530 475q72 0 106.5 -62.5t34.5 -140.5q0 -152 -76.5 -229.5t-189.5 -77.5q-174 0 -313 203q-203 -203 -498 -203q-221 0 -371.5 127t-150.5 322q0 172 114.5 291.5t266.5 164.5v11q-86 41 -136.5 114.5t-50.5 159.5q0 135 96.5 224t260.5 89q152 0 253 -93t101 -226
q0 -104 -65.5 -185t-176.5 -110v-12q39 -12 75 -34t62.5 -43.5t56 -61t46 -64.5t43 -77t37 -74.5t37 -83t34.5 -76.5q113 190 113 424q0 57 -37 87.5t-82 39.5v32h307v-32q-43 -8 -77.5 -43t-34.5 -95q0 -281 -154 -491q55 -106 112.5 -163.5t137.5 -57.5q61 0 112.5 43
t51.5 110q0 51 -20.5 82t-45 42t-45 33.5t-20.5 59.5q0 33 25.5 54.5t60.5 21.5zM623 1401q-106 0 -170 -70.5t-64 -179.5q0 -100 68.5 -177t169 -77t163 73.5t62.5 176.5q0 106 -65.5 180t-163.5 74zM635 35q244 0 420 192q-33 55 -83 151.5t-86 163t-86 137.5t-108.5 113
t-128.5 54q-129 -33 -246.5 -138.5t-117.5 -258.5q0 -211 124 -312.5t312 -101.5z" />
    <glyph glyph-name="quotesingle" unicode="'" horiz-adv-x="462" 
d="M201 985q-8 102 -29.5 229t-21.5 162q0 41 23.5 66.5t58 25.5t58 -25.5t23.5 -66.5q0 -35 -21.5 -162t-29.5 -229h-61z" />
    <glyph glyph-name="parenleft" unicode="(" horiz-adv-x="610" 
d="M557 -449q-209 152 -346 417t-137 556t137 557.5t346 417.5l41 -47q-174 -127 -287.5 -391t-113.5 -536.5t113.5 -535.5t287.5 -390z" />
    <glyph glyph-name="parenright" unicode=")" horiz-adv-x="610" 
d="M53 -449l-41 48q174 127 288 390t114 535.5t-114 536.5t-288 391l41 47q209 -152 346.5 -418t137.5 -557t-137.5 -556t-346.5 -417z" />
    <glyph glyph-name="asterisk" unicode="*" horiz-adv-x="1083" 
d="M252 578q-27 18 -31 49.5t21 64.5q20 29 101 108t138 144l-6 21q-86 20 -198.5 36.5t-145.5 26.5q-37 10 -52.5 40t-5 60.5t40 44t66.5 1.5q31 -10 132.5 -62.5t181.5 -87.5l18 12q-8 82 -27.5 196t-19.5 150.5t22.5 61t53.5 24.5q33 0 55 -24.5t22 -61.5
q0 -35 -18 -147.5t-27 -198.5l17 -12q80 33 181 86t134 64q35 12 64.5 -1.5t40 -44t-5 -60.5t-52.5 -40q-33 -10 -145.5 -26.5t-198.5 -36.5l-6 -21q57 -66 138 -144.5t102 -107.5q23 -33 19.5 -64.5t-30.5 -49.5q-27 -20 -59.5 -14.5t-52.5 38.5q-23 29 -73 132.5
t-93 174.5h-23q-43 -72 -93 -175t-72 -132q-20 -33 -53 -38.5t-60 14.5z" />
    <glyph glyph-name="plus" unicode="+" horiz-adv-x="1114" 
d="M512 182v494h-489v88h489v489h88v-489h492v-88h-492v-494h-88z" />
    <glyph glyph-name="comma" unicode="," horiz-adv-x="526" 
d="M276 176q55 0 85 -42t30 -101q0 -100 -53 -229.5t-139 -211.5l-64 54q51 45 103.5 134t62.5 181l-4 6q-8 -2 -21 -2q-45 0 -75.5 30t-30.5 79q0 45 30.5 73.5t75.5 28.5z" />
    <glyph glyph-name="hyphen" unicode="-" horiz-adv-x="458" 
d="M23 451v90h413v-90h-413z" />
    <glyph glyph-name="period" unicode="." horiz-adv-x="483" 
d="M242 -35q-45 0 -76 31t-31 74q0 45 31 76.5t76 31.5t75.5 -30.5t30.5 -77.5q0 -43 -30.5 -74t-75.5 -31z" />
    <glyph glyph-name="slash" unicode="/" horiz-adv-x="610" 
d="M0 -440l543 1935h67l-542 -1935h-68z" />
    <glyph glyph-name="zero" unicode="0" horiz-adv-x="1265" 
d="M633 -35q-139 0 -245.5 63.5t-167 173t-89.5 238.5t-29 276.5t29 276.5t89.5 238.5t167 173t245.5 63.5t245.5 -63.5t167 -173t89 -238.5t28.5 -276.5t-28.5 -276.5t-89 -238.5t-167 -173t-245.5 -63.5zM632.5 31q110.5 0 193.5 59.5t128 159.5t66.5 217t21.5 250
t-21.5 249.5t-66.5 218t-128 160t-193.5 58.5t-192.5 -58.5t-127 -160t-66.5 -218t-21.5 -249.5t21.5 -250t66.5 -217t127 -159.5t192.5 -59.5z" />
    <glyph glyph-name="one" unicode="1" horiz-adv-x="876" 
d="M262 0v35q127 16 127 106v1129h-143v30l229 168h37v-1327q0 -90 119 -106v-35h-369z" />
    <glyph glyph-name="two" unicode="2" horiz-adv-x="1196" 
d="M541 111q104 0 189 17t133 43t80 51.5t44 43.5l10 17l43 -17l-92 -301h-10q-80 35 -217 35h-561v37q57 51 163.5 138t177 145.5t159 149.5t140.5 171t89 185.5t37 215.5q0 172 -84 267.5t-246 95.5q-154 0 -269.5 -89t-127.5 -241l-54 12q16 178 146.5 279.5t304.5 101.5
q203 0 328 -119.5t125 -306.5q0 -131 -45.5 -252.5t-111 -213t-168.5 -182.5t-190.5 -150.5t-203.5 -128.5v-4h211z" />
    <glyph glyph-name="three" unicode="3" horiz-adv-x="1181" 
d="M553 -35q-166 0 -287 57.5t-121 149.5q0 39 21.5 64.5t64.5 25.5q37 0 65 -36t48.5 -79t73.5 -78.5t135 -35.5q180 0 279.5 101.5t99.5 273.5q0 178 -108.5 282.5t-299.5 104.5h-39v65h56q158 0 241.5 81t83.5 192q0 109 -70.5 190.5t-222.5 81.5q-131 0 -224 -86
t-103 -234l-62 15q16 168 128 268t290 100q190 0 289.5 -97t99.5 -220q0 -236 -229 -317v-11q123 -27 207 -131t84 -239q0 -209 -136.5 -348.5t-363.5 -139.5z" />
    <glyph glyph-name="four" unicode="4" horiz-adv-x="1245" 
d="M1122 389h-231v-252q0 -47 38 -71.5t83 -30.5v-35h-373v35q43 6 85 33.5t42 70.5v250h-664v53l689 992h100v-977h252zM201 457h565v800h-6l-559 -794v-6z" />
    <glyph glyph-name="five" unicode="5" horiz-adv-x="1144" 
d="M516 934q242 0 363.5 -127t121.5 -328q0 -195 -140 -354.5t-369 -159.5q-152 0 -251.5 38t-99.5 122q0 35 23.5 58.5t54.5 23.5q39 0 62.5 -18.5t36 -45t27.5 -53.5t52 -45t95 -18q193 0 294 119.5t101 302.5q0 160 -106.5 263t-284.5 103q-176 0 -293 -57l-33 14v662
h537q145 0 182 34h10l-20 -149h-627v-418q88 33 264 33z" />
    <glyph glyph-name="six" unicode="6" horiz-adv-x="1183" 
d="M633 932q225 0 336.5 -134t111.5 -337q0 -199 -140 -347.5t-349 -148.5q-227 0 -358.5 176t-131.5 455q0 219 75 391t201 274.5t276.5 154.5t314.5 52l10 -55q-131 0 -249 -33.5t-224.5 -105.5t-179 -205t-95.5 -313h11q63 80 171.5 128t219.5 48zM592 31q164 0 262 124
t98 306q0 180 -78.5 290.5t-242.5 110.5q-117 0 -234.5 -71.5t-175.5 -182.5v-14q0 -258 88 -410.5t283 -152.5z" />
    <glyph glyph-name="seven" unicode="7" horiz-adv-x="1228" 
d="M1075 1434v-37q-553 -709 -553 -1348q0 -39 -24.5 -61.5t-59.5 -22.5q-31 0 -54.5 24.5t-23.5 59.5q0 193 95.5 438.5t214 439t266.5 386.5v6h-299q-104 0 -189.5 -21.5t-133.5 -52.5t-79.5 -61.5t-41.5 -53.5l-13 -20l-45 16l92 342h13q76 -35 217 -34h618z" />
    <glyph glyph-name="eight" unicode="8" horiz-adv-x="1185" 
d="M594 -35q-223 0 -357.5 114t-134.5 247q0 276 330 417v11q-131 63 -198.5 142t-67.5 222q0 51 20.5 105.5t66.5 113t139 95t220 36.5q195 0 302.5 -96t107.5 -231q0 -137 -76 -218t-215 -145v-12q78 -31 133.5 -61.5t109.5 -80t81.5 -118t27.5 -156.5q0 -164 -134 -274.5
t-355 -110.5zM629 807q152 61 232.5 131t80.5 190q0 123 -82 199t-248 76q-162 0 -247.5 -68.5t-85.5 -193.5q0 -70 25.5 -123t83.5 -93t105.5 -62.5t135.5 -55.5zM594 31q184 0 279.5 91t95.5 195q0 82 -33 143.5t-99.5 105.5t-127 73t-152.5 63q-18 6 -29 11
q-154 -59 -243.5 -147.5t-89.5 -227.5q0 -121 104.5 -214t294.5 -93z" />
    <glyph glyph-name="nine" unicode="9" horiz-adv-x="1183" 
d="M592 1468q227 0 358 -176t131 -454q0 -219 -74.5 -391.5t-200.5 -274.5t-276.5 -154.5t-314.5 -52.5l-10 55q104 0 199.5 19.5t188.5 68t165.5 122t125 188t70.5 260.5h-12q-63 -80 -171.5 -128t-219.5 -48q-225 0 -337 134t-112 337q0 197 141.5 346t348.5 149zM553 569
q115 0 233.5 72t178.5 182v17q0 258 -89.5 410.5t-283.5 152.5q-162 0 -261.5 -126t-99.5 -304q0 -180 79 -292t243 -112z" />
    <glyph glyph-name="colon" unicode=":" horiz-adv-x="481" 
d="M242 737q-45 0 -76 30t-31 73q0 45 31 75.5t76 30.5t75.5 -30.5t30.5 -75.5q0 -43 -30.5 -73t-75.5 -30zM242 -35q-45 0 -76 30t-31 73q0 45 31 75.5t76 30.5t75.5 -29.5t30.5 -76.5q0 -43 -30.5 -73t-75.5 -30z" />
    <glyph glyph-name="semicolon" unicode=";" horiz-adv-x="526" 
d="M264 737q-45 0 -75.5 30t-30.5 73q0 45 30.5 75.5t75.5 30.5q47 0 77 -30.5t30 -75.5q0 -43 -31 -73t-76 -30zM276 176q55 0 85 -42t30 -101q0 -100 -53 -229.5t-139 -211.5l-64 54q51 45 103.5 134t62.5 181l-4 6q-8 -2 -21 -2q-45 0 -75.5 30t-30.5 79q0 45 30.5 73.5
t75.5 28.5z" />
    <glyph glyph-name="less" unicode="&#x3c;" horiz-adv-x="1120" 
d="M1057 262l-994 410v98l994 410v-97l-867 -360v-6l867 -359v-96z" />
    <glyph glyph-name="equal" unicode="=" horiz-adv-x="1116" 
d="M23 879v88h1071v-88h-1071zM23 473v86h1071v-86h-1071z" />
    <glyph glyph-name="greater" unicode="&#x3e;" horiz-adv-x="1120" 
d="M63 262v96l867 359v6l-867 360v97l994 -410v-98z" />
    <glyph glyph-name="question" unicode="?" horiz-adv-x="946" 
d="M283 330v379h65q90 0 152.5 6t127 27.5t98.5 68.5t34 119q0 145 -121 302t-236 157q-55 0 -88.5 -27t-45 -57.5t-41 -57t-76.5 -26.5q-31 0 -54.5 24.5t-23.5 61.5q0 78 74.5 119.5t187.5 41.5q152 0 278.5 -99t192 -232t65.5 -256q0 -176 -128 -241t-394 -69v-241h-67z
M319 -35q-45 0 -75.5 30t-30.5 79q0 45 30.5 73.5t75.5 28.5q43 0 75 -28.5t32 -73.5q0 -49 -32 -79t-75 -30z" />
    <glyph glyph-name="at" unicode="@" horiz-adv-x="1941" 
d="M1001 -354q-250 0 -451.5 100t-324.5 304t-123 482q0 229 134.5 434t355.5 327t467 122q340 0 560 -187.5t220 -514.5q0 -264 -160.5 -447.5t-386.5 -183.5q-133 0 -151 121h-8q-121 -121 -285 -121q-178 0 -253 145.5t-24 343.5q41 170 180.5 292t319.5 122
q147 0 211 -92h12l25 92h123l-172 -680q-23 -59 -8.5 -109.5t86.5 -50.5q160 0 296 168t136 400q0 213 -103.5 362.5t-262.5 215t-353 65.5q-231 0 -437 -111.5t-329 -302t-123 -410.5q0 -381 234.5 -604t597.5 -223q193 0 382 74l25 -53q-191 -80 -410 -80zM874 141
q162 0 273 158l123 498q-37 129 -197 129q-268 0 -364 -391q-97 -394 165 -394z" />
    <glyph glyph-name="A" unicode="A" horiz-adv-x="1193" 
d="M1098 137q33 -92 127 -102v-35h-318v35q33 4 56.5 29.5t7.5 72.5l-113 309h-569l-111 -309q-18 -47 5.5 -72.5t56.5 -29.5v-35h-271v35q96 10 127 102l426 1180q-45 39 -110 47v37q113 18 196 59h10zM324 543h499l-245 682h-9z" />
    <glyph glyph-name="B" unicode="B" horiz-adv-x="1361" 
d="M948 772q143 -47 227.5 -148.5t84.5 -228.5q0 -193 -131.5 -305.5t-395.5 -112.5q-113 0 -277.5 11.5t-222.5 11.5h-161v35q39 6 69.5 32.5t30.5 73.5v1151q0 47 -30.5 74t-69.5 33v35h612q231 0 366.5 -100.5t135.5 -248.5q0 -96 -62.5 -178t-175.5 -125v-10zM684 1368
q-266 0 -389 -18v-543h428q156 0 247 81t91 197q0 121 -99.5 202t-277.5 81zM729 51q201 0 303.5 92.5t102.5 253.5q0 147 -116 244.5t-300 97.5h-424v-657q61 -4 153.5 -12.5t158 -13.5t122.5 -5z" />
    <glyph glyph-name="C" unicode="C" horiz-adv-x="1343" 
d="M719 -35q-281 0 -449 208t-168 503q0 203 75 381t229.5 294.5t357.5 116.5q61 0 145 -17t117 -17q86 0 143 34h15l69 -358l-51 -10q-100 303 -440 303q-90 0 -183.5 -46t-173 -128t-130 -209t-50.5 -272q0 -346 155 -514t384 -168q319 0 453 356l55 -21
q-127 -436 -553 -436z" />
    <glyph glyph-name="D" unicode="D" horiz-adv-x="1425" 
d="M569 1434q322 0 538 -212t216 -530q0 -297 -183.5 -494.5t-475.5 -197.5h-590v35q39 6 68.5 32.5t29.5 73.5v1151q0 47 -29.5 74t-68.5 33v35h495zM647 68q135 0 243.5 51t174 136t99.5 189.5t34 219.5q0 319 -175 511.5t-470 192.5q-160 0 -256 -14v-1252
q145 -34 350 -34z" />
    <glyph glyph-name="E" unicode="E" horiz-adv-x="1228" 
d="M1161 283l47 -17l-90 -295h-12q-76 29 -254 29h-780v33q100 18 100 106v1153q0 47 -29.5 74t-70.5 33v35h954l92 -224l-43 -14q-4 6 -13 18.5t-47 41t-86 51t-136 41t-193 18.5q-170 0 -303 -18v-551h545q43 0 76.5 31.5t37.5 74.5h37l-2 -282h-35q-6 43 -38.5 74.5
t-73.5 31.5h-547v-637q154 -23 397 -22q106 0 194.5 22.5t136.5 54t81 62.5t45 53z" />
    <glyph glyph-name="F" unicode="F" horiz-adv-x="1132" 
d="M1020 1434l92 -224l-43 -14q-4 6 -13 18.5t-47 41t-86.5 51t-136.5 41t-192 18.5q-193 0 -299 -18v-617h504q43 0 76.5 31t39.5 74h33v-281h-35q-6 43 -37.5 75t-74.5 32h-506v-523q0 -88 100 -106v-33h-323v33q98 18 98 106v1153q0 47 -29.5 74t-68.5 33v35h948z" />
    <glyph glyph-name="G" unicode="G" horiz-adv-x="1398" 
d="M1044 717h334v-33q-41 -8 -70.5 -33.5t-29.5 -72.5v-578h-64l-49 164h-10q-154 -199 -436 -199q-281 0 -449 208t-168 503q0 203 75 381t229.5 294.5t357.5 116.5q61 0 145 -17t117 -17q86 0 143 34h15l69 -358l-51 -10q-100 303 -440 303q-90 0 -183.5 -46t-172 -128
t-129 -209t-50.5 -272q0 -346 154 -514t383 -168q254 0 389 223v289q0 45 -34 71.5t-75 34.5v33z" />
    <glyph glyph-name="H" unicode="H" horiz-adv-x="1404" 
d="M1333 1399q-39 -6 -69.5 -33t-30.5 -74v-1153q0 -47 30.5 -72.5t69.5 -31.5v-35h-323v35q39 6 69.5 31.5t30.5 72.5v598h-815v-598q0 -47 30.5 -72.5t69.5 -31.5v-35h-323v35q39 6 69.5 31.5t30.5 72.5v1153q0 47 -30.5 74t-69.5 33v35h323v-35q-39 -6 -69.5 -33
t-30.5 -74v-458h815v458q0 47 -30.5 74t-69.5 33v35h323v-35z" />
    <glyph glyph-name="I" unicode="I" horiz-adv-x="468" 
d="M72 0v35q41 6 70.5 31.5t29.5 72.5v1153q0 47 -29.5 74t-70.5 33v35h325v-35q-41 -6 -70.5 -33t-29.5 -74v-1153q0 -47 29.5 -72.5t70.5 -31.5v-35h-325z" />
    <glyph glyph-name="J" unicode="J" 
d="M-51 -375q-125 0 -195.5 53.5t-70.5 104.5q0 41 22.5 65.5t54.5 24.5q39 0 66 -28.5t42 -61.5t49 -61.5t85 -28.5q84 0 125 81t41 298v1220q0 47 -29.5 74t-68.5 33v35h321v-35q-39 -6 -68.5 -33t-29.5 -74v-1220q0 -231 -84 -339t-260 -108z" />
    <glyph glyph-name="K" unicode="K" horiz-adv-x="1304" 
d="M1180 139q55 -92 166 -104v-35h-349v35q37 6 49.5 29.5t-14.5 74.5l-426 699h-8l-301 -275v-424q0 -47 29.5 -72.5t70.5 -31.5v-35h-325l2 35q39 6 68.5 31.5t29.5 72.5v1153q0 47 -29.5 74t-68.5 33v35h323v-35q-41 -6 -70.5 -33t-29.5 -74v-614h6l672 614q47 49 40 75
t-46 32v35h323v-35q-90 -10 -194 -107l-402 -364z" />
    <glyph glyph-name="L" unicode="L" horiz-adv-x="1163" 
d="M1098 301l45 -16l-88 -312h-11q-74 27 -253 27h-717v35q39 6 68.5 31.5t29.5 72.5v1153q0 47 -29.5 74t-68.5 33v35h323v-35q-41 -6 -70.5 -33t-29.5 -74v-1210q111 -14 334 -14q109 0 195.5 23.5t135 58t82 69.5t43.5 60z" />
    <glyph glyph-name="M" unicode="M" horiz-adv-x="1685" 
d="M10 0v35q41 6 77 31.5t42 72.5l168 1153q6 49 -18.5 75t-63.5 32v35h231l398 -1221h10l385 1221h231v-35q-35 -6 -61.5 -29.5t-22.5 -58.5l170 -1172q16 -90 119 -104v-35h-325v35q39 6 64.5 31.5t19.5 72.5l-166 1116h-4l-396 -1255h-84l-407 1255h-10l-162 -1116
q-6 -47 18.5 -72.5t63.5 -31.5v-35h-277z" />
    <glyph glyph-name="N" unicode="N" horiz-adv-x="1366" 
d="M1024 1434h270v-35q-41 -6 -71.5 -33t-30.5 -74v-1292h-92q-55 145 -148.5 283.5t-194 247t-198.5 215t-183 231.5t-130 254h-6v-1092q0 -47 29.5 -72.5t70.5 -31.5v-35h-268v35q39 6 68.5 31.5t29.5 72.5v1153q0 47 -29.5 74t-68.5 33v35h196q49 -135 145.5 -277.5
t201 -261.5t207 -234.5t184 -236.5t112.5 -229h6v1097q0 47 -29.5 74t-70.5 33v35z" />
    <glyph glyph-name="O" unicode="O" horiz-adv-x="1544" 
d="M791 -35q-293 0 -491 227.5t-198 530.5q0 324 182.5 534.5t489.5 210.5q285 0 476.5 -221t191.5 -538q0 -305 -181 -524.5t-470 -219.5zM815 33q225 0 363.5 181t138.5 427q0 322 -163 541t-419 219q-231 0 -368.5 -173t-137.5 -437q0 -199 73 -371t209 -279.5
t304 -107.5z" />
    <glyph glyph-name="P" unicode="P" horiz-adv-x="1343" 
d="M688 1434q264 0 424 -140.5t160 -347.5q0 -199 -157 -339t-410 -140q-219 0 -408 55v-383q0 -47 30.5 -72.5t69.5 -31.5v-35h-325v35q41 6 71.5 31.5t30.5 72.5v1153q0 47 -30.5 74t-71.5 33v35h616zM696 535q203 0 326 120.5t123 290.5q0 180 -137.5 300t-352.5 120
q-227 0 -358 -33v-723q190 -75 399 -75z" />
    <glyph glyph-name="Q" unicode="Q" horiz-adv-x="1544" 
d="M1106 -172q74 0 142.5 37t99.5 74l30 36l39 -30q-2 -10 -8 -25.5t-30.5 -56.5t-56.5 -72t-89 -56.5t-125 -25.5q-82 0 -158 39t-127 85t-131 85t-166 39q-47 0 -91 -15.5t-73.5 -37t-53 -42t-34.5 -34.5l-12 -16l-39 30q43 80 122 129t171 58v6q-188 90 -301 281.5
t-113 414.5q0 324 182.5 535t489.5 211q285 0 476.5 -221.5t191.5 -538.5q0 -305 -181.5 -525.5t-467.5 -220.5h-9v-6q23 -12 72 -45t77 -48t76 -29.5t97 -14.5zM229 799q0 -199 73 -372t209 -280.5t304 -107.5q225 0 364.5 182t139.5 428q0 322 -164 541t-420 219
q-231 0 -368.5 -173t-137.5 -437z" />
    <glyph glyph-name="R" unicode="R" horiz-adv-x="1351" 
d="M1376 45l6 -35q-82 -33 -108 -33q-186 0 -211 285q-18 229 -105.5 305t-306.5 76h-356v-504q0 -47 30.5 -72.5t69.5 -31.5v-35h-323v35q39 6 69.5 31.5t30.5 72.5v1153q0 47 -30.5 74t-69.5 33v35h585q264 0 415 -101.5t151 -294.5q0 -141 -86 -233t-248 -127v-12
q137 -20 198.5 -104.5t83.5 -254.5q20 -152 59.5 -206t145.5 -56zM643 1366q-215 0 -348 -25v-626h373q209 0 318.5 85t109.5 238.5t-123 240.5t-330 87z" />
    <glyph glyph-name="S" unicode="S" horiz-adv-x="1396" 
d="M768 -35q-98 0 -227 35t-199 35q-25 0 -50.5 -9.5t-37.5 -17.5l-12 -8h-13l-147 424l45 20q217 -412 641 -411q180 0 303 95t123 243q0 63 -29.5 113.5t-67.5 81t-116 60t-127 43t-149 38.5q-82 20 -116 29t-105.5 30.5t-105.5 40t-83 50.5t-71.5 65.5t-41 82
t-18.5 105.5q0 147 134 252.5t331 105.5q109 0 235.5 -32.5t163.5 -32.5q16 0 32.5 7t24.5 15l11 9h18l137 -392l-41 -18q-193 377 -581 377q-166 0 -265.5 -73t-99.5 -177q0 -35 8.5 -63.5t32 -53t40.5 -42t60.5 -37t67 -30t80.5 -27.5t80.5 -23.5t89.5 -22.5
q82 -23 120 -33t111.5 -34.5t110.5 -45t89 -56.5t76.5 -75t44 -93t19.5 -120q0 -186 -146.5 -308t-379.5 -122z" />
    <glyph glyph-name="T" unicode="T" horiz-adv-x="1292" 
d="M1159 1468l92 -301l-45 -16q-4 8 -11 22.5t-42 52.5t-81 65.5t-132 51t-190 23.5h-41v-1227q0 -47 30.5 -72.5t69.5 -31.5v-35h-324v35q39 6 70 31.5t31 72.5v1227h-41q-104 0 -190.5 -22.5t-133.5 -54.5t-79.5 -62.5t-43.5 -52.5l-10 -23l-47 16l94 301h12
q70 -35 215 -34h570q145 0 215 34h12z" />
    <glyph glyph-name="U" unicode="U" horiz-adv-x="1275" 
d="M655 -37q-307 0 -454.5 166t-122.5 461l61 702q4 47 -22.5 74t-65.5 33v35h332v-35q-41 -6 -74 -33t-37 -74l-61 -700q-23 -256 91 -408.5t353 -152.5q254 0 372 154.5t95 406.5l-59 690q-4 43 -40 77t-79 38v37h281v-37q-41 -6 -68 -38t-24 -75l59 -694
q25 -283 -111.5 -455t-425.5 -172z" />
    <glyph glyph-name="V" unicode="V" horiz-adv-x="1232" 
d="M993 1434h271v-35q-94 -14 -127 -105l-443 -1228q25 -20 47 -31v-35q-74 0 -155 -29h-11l-479 1323q-33 90 -127 105v35h318v-35q-33 -6 -57.5 -31t-6.5 -74l398 -1099q2 -6 7 -18.5t7 -18.5h12l408 1136q18 49 -5.5 74t-56.5 31v35z" />
    <glyph glyph-name="W" unicode="W" horiz-adv-x="1902" 
d="M1661 1434h272v-35q-96 -14 -123 -105l-376 -1233q16 -12 43 -26v-35q-78 0 -160 -29h-12l-351 1135h-8l-319 -1045q16 -12 43 -26v-35q-76 0 -160 -29h-10l-410 1323q-27 88 -121 105v35h318v-35q-35 -6 -58.5 -31t-9.5 -74l338 -1099l12 -37h4l336 1093
q-41 125 -108 154v37q74 0 157 26h11l393 -1273l12 -37h6l351 1136q14 49 -11.5 73t-58.5 32v35z" />
    <glyph glyph-name="X" unicode="X" horiz-adv-x="1280" 
d="M1147 139q66 -94 153 -104v-35h-352v35q39 6 56.5 29.5t-9.5 74.5l-379 539h-8l-377 -539q-27 -51 -9 -74.5t57 -29.5v-35h-299v35q86 10 153 104l430 617l-377 536q-68 96 -155 107v35h354v-35q-39 -6 -56.5 -29.5t9.5 -77.5l326 -463h8l323 463q29 53 11.5 77t-56.5 30
v35h299v-35q-88 -10 -153 -107l-379 -538z" />
    <glyph glyph-name="Y" unicode="Y" horiz-adv-x="1196" 
d="M436 0v35q39 6 70 31.5t31 72.5v566l-414 587q-66 96 -154 107v35h353v-35q-39 -6 -57.5 -29.5t9.5 -77.5l344 -487h13l342 487q29 53 11.5 77t-56.5 30v35h299v-35q-88 -10 -154 -107l-414 -587v-566q0 -47 31 -72.5t70 -31.5v-35h-324z" />
    <glyph glyph-name="Z" unicode="Z" horiz-adv-x="1320" 
d="M1090 -37q-78 37 -218 37h-800v33l977 1333h-392q-104 0 -192 -27.5t-138.5 -66.5t-86 -78t-47.5 -68l-15 -26l-45 14l115 354h12q70 -35 215 -34h752v-33l-975 -1333h438q104 0 196.5 32.5t148 79.5t96 94.5t57.5 79.5l16 33l45 -16l-149 -408h-10z" />
    <glyph glyph-name="bracketleft" unicode="[" horiz-adv-x="653" 
d="M199 -418v1886h411v-69h-288v-1749h288v-68h-411z" />
    <glyph glyph-name="backslash" unicode="\" horiz-adv-x="610" 
d="M543 -440l-543 1935h68l542 -1935h-67z" />
    <glyph glyph-name="bracketright" unicode="]" horiz-adv-x="653" 
d="M43 -418v68h289v1749h-289v69h412v-1886h-412z" />
    <glyph glyph-name="asciicircum" unicode="^" horiz-adv-x="1034" 
d="M117 858l368 576h64l366 -576h-57l-342 379l-342 -379h-57z" />
    <glyph glyph-name="underscore" unicode="_" horiz-adv-x="1114" 
d="M0 -176v67h1116v-67h-1116z" />
    <glyph glyph-name="grave" unicode="`" horiz-adv-x="956" 
d="M436 1161l-198 176q-43 43 -43 74q0 23 16 41t45 18q41 0 72 -43l151 -231z" />
    <glyph glyph-name="a" unicode="a" horiz-adv-x="1085" 
d="M1079 59l17 -28q-49 -66 -135 -66q-141 0 -166 187h-11q-53 -94 -153.5 -140.5t-204.5 -46.5q-162 0 -263.5 79t-101.5 222q0 317 674 439l-8 86q-10 111 -74.5 180t-163.5 69q-96 0 -160.5 -51t-64.5 -127q0 -43 -21.5 -64.5t-47.5 -21.5q-33 0 -53.5 20.5t-20.5 55.5
q2 92 102.5 173t259.5 81q131 0 236.5 -84t122.5 -231l67 -627q12 -133 86 -133q33 -1 84 28zM457 31q135 0 229 94t90 211l-35 311q-252 -41 -400 -135t-148 -242q0 -106 73.5 -172.5t190.5 -66.5z" />
    <glyph glyph-name="b" unicode="b" horiz-adv-x="1245" 
d="M641 1106q225 0 373.5 -168t148.5 -416q0 -240 -139 -398.5t-356 -158.5q-246 0 -406 213h-12q-51 -109 -72 -178h-37v1292q0 47 -30.5 74t-69.5 33v35q106 16 233 116l21 -6q-39 -121 -39 -370v-250h12q150 182 373 182zM690 31q154 0 256.5 128t102.5 320
q0 242 -121 401.5t-305 159.5q-162 0 -263.5 -124.5t-101.5 -321.5q0 -231 119.5 -397t312.5 -166z" />
    <glyph glyph-name="c" unicode="c" horiz-adv-x="1144" 
d="M631 -35q-225 0 -387 164t-162 414t156.5 406.5t392.5 156.5q184 0 306 -92t122 -183q0 -29 -16.5 -50t-47.5 -21q-33 0 -51 29.5t-34.5 70.5t-43 83t-94 71.5t-172.5 29.5q-162 0 -282.5 -132t-120.5 -320q0 -258 130 -398.5t351 -140.5q121 0 220 79t144 185l41 -12
q-35 -133 -155.5 -236.5t-296.5 -103.5z" />
    <glyph glyph-name="d" unicode="d" horiz-adv-x="1269" 
d="M1108 139q0 -47 30.5 -72.5t69.5 -31.5v-35q-115 -18 -192 -35h-23v193h-16q-84 -100 -167 -146.5t-208 -46.5q-223 0 -371.5 167t-148.5 415q0 240 139 399.5t357 159.5q246 0 405 -215h10v401q0 47 -30.5 74t-69.5 33v35q111 18 231 116l21 -6q-37 -115 -37 -370v-1035
zM623 31q162 0 263 125t101 319q0 233 -119.5 399t-312.5 166q-154 0 -256 -128t-102 -322q0 -240 121 -399.5t305 -159.5z" />
    <glyph glyph-name="e" unicode="e" horiz-adv-x="1214" 
d="M680 53q135 0 234.5 79t140.5 187l41 -14q-35 -137 -161 -238.5t-314 -101.5q-221 0 -380 161t-159 421q0 238 152.5 398.5t379.5 160.5q182 0 294 -83t153 -196q29 -76 63 -92l9 -55l-924 -229q29 -184 153.5 -291t317.5 -107zM606 1044q-178 0 -291.5 -141t-113.5 -344
q0 -29 2 -43l770 197q-14 133 -111.5 232t-255.5 99z" />
    <glyph glyph-name="f" unicode="f" horiz-adv-x="614" 
d="M266 1364q0 -59 51.5 -158.5t59.5 -136.5h264v-63h-260v-867q0 -47 29.5 -72.5t68.5 -31.5v-35h-315v35q41 6 70.5 31.5t29.5 72.5v867h-203v63h201q-4 29 -38 127t-34 168q0 86 60.5 148.5t155.5 62.5q98 0 168.5 -48t70.5 -118q0 -72 -61 -72q-33 0 -53.5 27
t-27.5 59.5t-35 59t-75 26.5q-57 0 -92 -38.5t-35 -106.5z" />
    <glyph glyph-name="g" unicode="g" horiz-adv-x="1206" 
d="M944 1071q-43 0 -80 -55q160 -119 160 -342q0 -193 -121 -303.5t-311 -110.5q-147 0 -260 66q-78 -8 -123 -45t-45 -80q0 -74 95 -102.5t370 -28.5q285 0 384 -48.5t99 -168.5q0 -133 -144.5 -220.5t-369.5 -87.5q-514 0 -514 250q0 63 36 119.5t91 89.5v12
q-125 51 -125 174q0 74 48 121t120 60v14q-127 121 -127 313q0 188 125 298t319 110q141 0 246 -62q96 145 225 146q55 0 90 -27.5t35 -72.5q0 -33 -19.5 -57.5t-57.5 -24.5q-33 0 -75 31.5t-71 31.5zM922 643q0 186 -103.5 291.5t-263.5 105.5q-143 0 -234.5 -81.5
t-91.5 -233.5q0 -180 106.5 -290.5t274.5 -110.5q133 0 222.5 83.5t89.5 235.5zM313 -14q-123 -45 -123 -172q0 -199 422 -199q193 0 307.5 65.5t114.5 153.5q0 82 -77.5 104.5t-325.5 22.5q-181 0 -318 25z" />
    <glyph glyph-name="h" unicode="h" horiz-adv-x="1196" 
d="M1065 139q2 -47 35 -72.5t71 -31.5v-35h-315v35q39 6 67.5 31.5t26.5 72.5l-30 514q-10 188 -93.5 287.5t-216.5 99.5q-137 0 -235.5 -92t-98.5 -225v-584q0 -47 31 -72.5t70 -31.5v-35h-316v35q39 6 70 31.5t31 72.5v1153q0 47 -31 74t-70 33v35q106 16 232 116l20 -6
q-37 -115 -37 -370v-252h11q115 184 329 184q180 0 292 -116t126 -339z" />
    <glyph glyph-name="i" unicode="i" horiz-adv-x="438" 
d="M219 1319q-43 0 -71.5 28.5t-28.5 69.5q0 45 28.5 74t71.5 29t73 -29t30 -74q0 -41 -30 -69.5t-73 -28.5zM61 0v35q39 6 70 31.5t31 72.5v709q0 47 -31 72.5t-70 31.5v35q90 27 193 119h22v-967q0 -47 31 -72.5t70 -31.5v-35h-316z" />
    <glyph glyph-name="j" unicode="j" horiz-adv-x="534" 
d="M276 1319q-43 0 -71.5 28.5t-28.5 69.5q0 45 28.5 74t71.5 29t73 -29t30 -74q0 -41 -30 -69.5t-73 -28.5zM111 -455q-98 0 -160 49.5t-62 120.5q0 31 18.5 50.5t49.5 19.5q33 0 51.5 -26.5t23.5 -59.5t29.5 -59.5t69.5 -26.5q51 0 82 39t31 100q0 47 -11.5 132t-11.5 130
v834q0 47 -30.5 72.5t-69.5 31.5v35q90 27 192 119h23v-1219q0 -172 -61.5 -257t-163.5 -85z" />
    <glyph glyph-name="k" unicode="k" horiz-adv-x="1105" 
d="M975 139q63 -92 172 -104v-35h-336v35q37 6 48 29.5t-19 74.5l-365 541h-8l-191 -201v-340q0 -47 31 -72.5t70 -31.5v-35h-316v35q39 6 70 31.5t31 72.5v1153q0 47 -31 74t-70 33v35q106 16 234 116l20 -6q-39 -121 -39 -370v-599h11l331 353q86 90 152 134t137 44
q121 0 121 -102q0 -82 -88 -82q-33 0 -72 31.5t-67 31.5q-47 0 -133 -92q-111 -119 -117 -125z" />
    <glyph glyph-name="l" unicode="l" horiz-adv-x="438" 
d="M61 0v35q39 6 69 31.5t30 72.5v1153q0 47 -30 74t-69 33v35q109 16 234 116l20 -6q-39 -121 -39 -370v-1035q0 -47 31 -72.5t70 -31.5v-35h-316z" />
    <glyph glyph-name="m" unicode="m" horiz-adv-x="1835" 
d="M1667 139q2 -47 34 -72.5t73 -31.5v-35h-318v35q41 6 68.5 31.5t25.5 72.5l-30 514q-10 197 -74 292t-197 95q-131 0 -209.5 -83t-78.5 -216v-602q0 -47 29.5 -72.5t68.5 -31.5v-35h-316v35q39 6 70 31.5t31 72.5v514q0 387 -258 387q-133 0 -221.5 -96t-88.5 -231v-574
q0 -47 31 -72.5t72 -31.5v-35h-318v35q39 6 70 31.5t31 72.5v709q0 47 -31 72.5t-70 31.5v35q92 27 195 119h20v-195h11q113 195 309 195q227 0 315 -195h11q125 195 327 195q360 0 387 -455z" />
    <glyph glyph-name="n" unicode="n" horiz-adv-x="1193" 
d="M1063 139q2 -47 33.5 -72.5t72.5 -31.5v-35h-317v35q41 6 68.5 31.5t25.5 72.5l-31 514q-10 188 -93 287.5t-216 99.5q-135 0 -233.5 -92t-98.5 -225v-584q0 -47 31 -72.5t70 -31.5v-35h-314v35q39 6 69 31.5t30 72.5v709q0 47 -30 72.5t-69 31.5v35q90 27 193 119h20
v-184h9q115 184 331 184q180 0 292 -116t126 -339z" />
    <glyph glyph-name="o" unicode="o" horiz-adv-x="1255" 
d="M649 -35q-244 0 -405.5 173t-161.5 417q0 236 153.5 393.5t387.5 157.5q238 0 394.5 -168t156.5 -416q0 -240 -147 -398.5t-378 -158.5zM674 31q164 0 274.5 128t110.5 320q0 242 -129 401.5t-330 159.5q-172 0 -286.5 -126t-114.5 -320q0 -231 134 -397t341 -166z" />
    <glyph glyph-name="p" unicode="p" horiz-adv-x="1245" 
d="M641 1106q225 0 373.5 -168t148.5 -416q0 -240 -139 -398.5t-356 -158.5q-246 0 -406 213h-4v-459q0 -47 29.5 -72.5t70.5 -31.5v-35h-317v35q41 6 70.5 31.5t29.5 72.5v1129q0 47 -29.5 72.5t-70.5 31.5v35q94 27 197 119h20v-182h10q150 182 373 182zM690 31
q154 0 256.5 128t102.5 320q0 242 -121 401.5t-305 159.5q-162 0 -263.5 -124.5t-101.5 -321.5q0 -231 119.5 -397t312.5 -166z" />
    <glyph glyph-name="q" unicode="q" horiz-adv-x="1243" 
d="M1112 -281q0 -47 31 -72.5t69 -31.5v-35h-315v35q39 6 69.5 31.5t30.5 72.5v439h-18q-84 -100 -168 -146.5t-207 -46.5q-225 0 -373.5 167t-148.5 415q0 240 139 399.5t357 159.5q246 0 405 -227h12q55 106 80 190h37v-1350zM623 31q162 0 263 125t101 319
q0 233 -119.5 399t-312.5 166q-154 0 -256 -128t-102 -322q0 -240 121 -399.5t305 -159.5z" />
    <glyph glyph-name="r" unicode="r" horiz-adv-x="831" 
d="M627 1106q98 0 141 -37t43 -90q0 -35 -27.5 -61.5t-72.5 -26.5q-51 0 -92 56.5t-91 56.5q-70 0 -161 -83t-91 -198v-584q0 -47 31 -72.5t70 -31.5v-35h-316v35q39 6 69 31.5t30 72.5v709q0 47 -30 72.5t-69 31.5v35q90 27 193 119h22v-217h11q72 104 163 160.5t177 56.5z
" />
    <glyph glyph-name="s" unicode="s" horiz-adv-x="1075" 
d="M621 -35q-86 0 -204 33t-163 33q-23 0 -43.5 -8.5t-30.5 -14.5l-10 -8h-12l-97 346l35 14q115 -178 236 -253.5t289 -75.5q121 0 209 58t88 169q0 57 -28 101t-81 72t-109.5 44.5t-134.5 30.5q-72 12 -124 24.5t-119.5 37t-109.5 55t-72.5 80t-30.5 110.5q0 119 105 206
t267 87q80 0 178.5 -33t141.5 -33q18 0 36.5 7.5t26.5 13.5l8 8h15l69 -289l-36 -16q-156 276 -439 276q-123 0 -196.5 -53t-73.5 -129q0 -70 58.5 -119t128 -70.5t186.5 -45.5q55 -12 68.5 -14.5t64.5 -14.5t67.5 -19.5t58.5 -23.5t58.5 -30.5t44 -38t38.5 -49t20.5 -59.5
t9.5 -73q0 -147 -110.5 -241.5t-282.5 -94.5z" />
    <glyph glyph-name="t" unicode="t" horiz-adv-x="688" 
d="M434 -35q-104 0 -161.5 57.5t-57.5 200.5v783h-174v34q135 47 179 112t67 224h45v-307h293v-63h-293v-789q0 -86 32.5 -128t108.5 -42q68 0 135 25l19 -60q-84 -47 -193 -47z" />
    <glyph glyph-name="u" unicode="u" horiz-adv-x="1173" 
d="M1012 139q0 -47 30.5 -72.5t69.5 -31.5v-35q-115 -18 -192 -35h-23v185h-14q-125 -184 -332 -185q-190 0 -300 115t-110 338v430q0 47 -30.5 72.5t-69.5 31.5v35q92 27 195 119h22v-690q0 -188 80 -286.5t225 -98.5q137 0 235.5 90t98.5 227v500q0 47 -30.5 73.5
t-69.5 32.5v35q92 25 194 117h21v-967z" />
    <glyph glyph-name="v" unicode="v" horiz-adv-x="1040" 
d="M881 1106q111 0 110 -143q0 -88 -92 -277l-321 -686h-119l-291 848q-35 106 -158 106v35q94 39 168 117h23l346 -1012h12l289 627q47 104 47 129q0 47 -60.5 85t-60.5 91q0 37 33 58.5t74 21.5z" />
    <glyph glyph-name="w" unicode="w" horiz-adv-x="1568" 
d="M1401 1106q57 0 88 -42t31 -101q0 -109 -72 -277l-270 -686h-134l-237 848h-8l-273 -848h-133l-231 848q-29 106 -152 106l2 35q96 39 178 117h21l276 -1012h13l307 975h63l269 -975h12l244 627q39 102 39 129q0 33 -20.5 54.5t-45.5 30.5t-45 32.5t-20 58.5
q0 37 28.5 58.5t69.5 21.5z" />
    <glyph glyph-name="x" unicode="x" horiz-adv-x="1124" 
d="M944 139q68 -92 160 -104v-35h-342v35q39 6 54 29.5t-13 74.5l-266 375h-11l-266 -375q-29 -51 -13.5 -74.5t54.5 -29.5v-35h-281v35q94 12 160 104l312 439l-252 352q-63 90 -160 106v33h342v-33q-25 -4 -40 -16t-21.5 -34.5t20.5 -55.5l213 -299h10l215 299
q27 33 21 55.5t-21.5 34.5t-40.5 16v33h281v-33q-92 -14 -160 -106l-260 -363z" />
    <glyph glyph-name="y" unicode="y" horiz-adv-x="1048" 
d="M883 1106q57 0 86.5 -41t29.5 -102q0 -150 -192 -529q-70 -135 -238 -479q-111 -223 -181.5 -316.5t-147.5 -93.5q-43 0 -78 30t-35 71q0 43 25.5 66.5t62.5 23.5q16 0 49 -13.5t51 -13.5q39 0 79 55.5t118 208.5q10 23 14 27h-41l-313 848q-37 106 -162 106v35
q92 39 166 117h25l368 -1000h11l178 363q96 199 120.5 267.5t24.5 117.5q0 41 -29.5 62.5t-58.5 43t-29 64.5q0 37 28 59.5t69 22.5z" />
    <glyph glyph-name="z" unicode="z" horiz-adv-x="1093" 
d="M870 -35q-76 35 -215 35h-594v49l734 944v11h-256q-180 0 -258 -41t-138 -164l-32 14l65 256h782v-47l-737 -946v-10h334q90 0 169 32.5t127 79.5t84 94t50 80l14 33l33 -12l-149 -408h-13z" />
    <glyph glyph-name="braceleft" unicode="{" horiz-adv-x="610" 
d="M567 -440q-197 0 -285.5 109.5t-56.5 310.5l49 311q14 92 -47 141t-184 49v94q123 0 184.5 49.5t46.5 141.5l-49 311q-33 201 56.5 311.5t285.5 110.5v-39q-106 0 -177 -65.5t-52 -186.5l55 -344q23 -145 -43.5 -224t-171.5 -108v-8q104 -29 171 -107.5t44 -223.5
l-55 -345q-18 -121 52.5 -185t176.5 -64v-39z" />
    <glyph glyph-name="bar" unicode="|" horiz-adv-x="610" 
d="M270 -446v1935h68v-1935h-68z" />
    <glyph glyph-name="braceright" unicode="}" horiz-adv-x="610" 
d="M43 -440v39q106 0 177 64.5t52 184.5l-55 345q-23 145 44 224t171 107v8q-104 29 -170.5 108t-44.5 224l55 344q18 121 -52 186.5t-177 65.5v39q197 0 286 -110.5t56 -311.5l-49 -311q-14 -92 47 -141.5t184 -49.5v-94q-123 0 -184 -49t-47 -141l49 -311
q33 -201 -56 -310.5t-286 -109.5z" />
    <glyph glyph-name="asciitilde" unicode="~" horiz-adv-x="1034" 
d="M690 565q-66 0 -125 33t-95 73t-82 72.5t-87 32.5q-123 0 -123 -172h-55q0 262 219 262q66 0 125 -32.5t97 -70.5t83 -71t86 -33q125 0 125 170h51q0 -264 -219 -264z" />
    <glyph glyph-name="uni00A0" unicode="&#xa0;" horiz-adv-x="0" 
 />
    <glyph glyph-name="exclamdown" unicode="&#xa1;" horiz-adv-x="481" 
d="M240 1257q-43 0 -74 29t-31 74q0 49 31 78.5t74 29.5q45 0 75.5 -29.5t30.5 -78.5q0 -45 -30.5 -74t-75.5 -29zM241.5 -37q-96.5 0 -96.5 156q0 82 31 356.5t31 626.5h67q0 -352 32 -626.5t32 -356.5q0 -156 -96.5 -156z" />
    <glyph glyph-name="cent" unicode="&#xa2;" horiz-adv-x="1349" 
d="M1124 541q-33 -125 -157.5 -228.5t-292.5 -111.5v-201h-96v205q-201 20 -328 148t-127 337t127 348.5t328 169.5v226h96v-220q182 0 304 -92t122 -180q0 -31 -16.5 -51.5t-47.5 -20.5q-29 0 -47 20.5t-27.5 52.5t-30 69t-49 68.5t-91 52t-150.5 20.5q-160 0 -281.5 -124
t-121.5 -296q0 -217 121.5 -330.5t318.5 -113.5q139 0 249.5 78.5t155.5 187.5z" />
    <glyph glyph-name="sterling" unicode="&#xa3;" horiz-adv-x="1392" 
d="M1221 416q53 -20 87.5 -73.5t34.5 -113.5q0 -115 -75.5 -190.5t-202.5 -75.5q-43 0 -88 10.5t-97.5 37t-84 44t-97 57.5t-88.5 54q-98 -203 -323 -203q-100 0 -168 48t-68 145q0 92 72 142t168 50q117 0 274 -59q-2 55 -17.5 119.5t-31.5 106.5t-49 117t-45 107h-301v97
h266q-31 102 -31 194q0 205 127 321.5t326 116.5q174 0 286.5 -92t112.5 -215q0 -49 -21.5 -85t-66.5 -36q-31 0 -55.5 22.5t-24.5 57.5q0 27 18.5 64t18.5 55q0 66 -78.5 115t-203.5 49q-145 0 -237.5 -95.5t-92.5 -236.5q0 -88 59 -235h424v-97h-383q96 -225 97 -338
q0 -76 -19 -143q53 -23 167 -75t180.5 -75.5t113.5 -23.5q78 0 130 42t52 116q0 92 -88 135zM299 29q78 0 147.5 51t102.5 121q-143 76 -246 75q-76 0 -125 -32.5t-49 -93.5q0 -55 47 -88t123 -33z" />
    <glyph glyph-name="currency" unicode="&#xa4;" horiz-adv-x="1214" 
d="M608 426q-158 0 -272 92l-219 -217l-72 72l217 217q-92 115 -92 272q0 156 92 271l-217 219l72 73l219 -219q115 92 272 92q154 0 271 -92l221 221l71 -73l-221 -221q94 -117 94 -271q0 -156 -94 -272l221 -219l-71 -72l-221 219q-119 -92 -271 -92zM608 526
q137 0 236.5 99.5t99.5 236.5q0 139 -98 237.5t-237.5 98.5t-239 -98.5t-99.5 -237.5t99.5 -237.5t238.5 -98.5z" />
    <glyph glyph-name="yen" unicode="&#xa5;" horiz-adv-x="1347" 
d="M1004 1434h299v-33q-90 -14 -154 -107l-352 -501h340v-86h-402v-224h402v-86h-402v-258q0 -47 30 -72.5t71 -33.5v-33h-324v33q41 8 70.5 33.5t29.5 72.5v258h-401v86h401v222l-2 2h-399v86h340l-352 501q-63 92 -154 107v33h352v-33q-39 -8 -56 -30.5t11 -76.5l342 -487
h13l342 487q29 53 11 76t-56 31v33z" />
    <glyph glyph-name="brokenbar" unicode="&#xa6;" horiz-adv-x="610" 
d="M270 686v803h68v-803h-68zM270 -446v800h68v-800h-68z" />
    <glyph glyph-name="section" unicode="&#xa7;" horiz-adv-x="1081" 
d="M102 813q2 98 68 193q-70 70 -68 174q4 113 117 200.5t285 87.5q168 0 281.5 -75.5t111.5 -165.5q-4 -86 -70 -86q-37 0 -54 19.5t-20 48t-13.5 63.5t-28 63.5t-69.5 48t-134 19.5q-115 0 -201 -64.5t-88 -158.5q0 -61 54.5 -104.5t99.5 -56.5t153 -36q16 -4 25 -6
q61 -12 89 -19.5t84 -23.5t84 -31.5t67.5 -43.5t58 -59.5t33 -78.5t12.5 -103q-2 -96 -76 -184q78 -70 76 -182q-2 -115 -114.5 -202t-284.5 -87q-211 0 -335 78t-122 170q2 31 20.5 54.5t44.5 23.5q41 0 62.5 -26.5t37 -64.5t41 -77t93 -65.5t174.5 -26.5q113 0 187.5 63.5
t78.5 159.5q0 33 -11 60.5t-43 48t-51.5 33t-74.5 25.5t-71.5 17t-80.5 17q-70 14 -103.5 23t-96 28.5t-94 43t-68.5 60.5t-52.5 88t-13.5 117zM178 854q0 -63 34 -114.5t94.5 -85t121.5 -55t133 -36.5q219 -49 297 -96q43 70 45 131q2 51 -22.5 92t-59.5 67.5t-92 50
t-101 35t-108 25.5q-225 47 -313 107q-27 -55 -29 -121z" />
    <glyph glyph-name="dieresis" unicode="&#xa8;" horiz-adv-x="608" 
d="M145 1294q-41 0 -68.5 27t-27.5 65q0 41 27.5 69t68.5 28t69 -28t28 -69q0 -39 -28 -65.5t-69 -26.5zM463 1294q-41 0 -68.5 27t-27.5 65q0 41 27.5 69t68.5 28t68.5 -28t27.5 -69q0 -39 -27.5 -65.5t-68.5 -26.5z" />
    <glyph glyph-name="copyright" unicode="&#xa9;" horiz-adv-x="1644" 
d="M823.5 -35q-309.5 0 -529.5 221.5t-220 530.5t220 530t529.5 221t528.5 -221t219 -530q0 -311 -219 -531.5t-528.5 -220.5zM823.5 25q284.5 0 486 202.5t201.5 489.5q0 285 -201.5 488.5t-486 203.5t-486.5 -204t-202 -488q0 -287 202 -489.5t486.5 -202.5zM823 272
q-180 0 -295.5 126t-115.5 323t115.5 322.5t295.5 125.5q45 0 113 -9t123 -9h35l55 -240l-27 -10q-55 111 -119.5 163t-173.5 52q-141 0 -211.5 -107.5t-70.5 -287.5q0 -182 70.5 -288.5t211.5 -106.5q102 0 185.5 54t111.5 146l56 -16q-87 -238 -359 -238z" />
    <glyph glyph-name="ordfeminine" unicode="&#xaa;" horiz-adv-x="591" 
d="M532 1014l9 -21q-29 -31 -74 -30q-74 0 -86 79h-6q-45 -80 -154 -79q-72 0 -116 34.5t-44 96.5q0 80 76 123t213 69q0 10 -2 21.5t-3 17.5t-1 8q-4 43 -27.5 68.5t-60.5 25.5t-61.5 -19t-22.5 -50q2 -47 -41 -47q-18 0 -31.5 12t-11.5 33q2 43 47 77.5t123 34.5
q66 0 115 -38.5t57 -112.5l27 -252q6 -63 43 -64q14 1 32 13zM250 1010q53 0 88 38.5t31 88.5l-15 116q-207 -37 -207 -149q0 -41 30 -67.5t73 -26.5zM78 834v57h442v-57h-442z" />
    <glyph glyph-name="guillemotleft" unicode="&#xab;" horiz-adv-x="1089" 
d="M532 37l-385 397v86l385 398l33 -21l-256 -420l256 -420zM909 37l-385 397v86l385 398l33 -21l-256 -420l256 -420z" />
    <glyph glyph-name="logicalnot" unicode="&#xac;" horiz-adv-x="1120" 
d="M1010 489v394h-987v88h1075v-482h-88z" />
    <glyph glyph-name="uni00AD" unicode="&#xad;" horiz-adv-x="458" 
d="M23 451v90h413v-90h-413z" />
    <glyph glyph-name="registered" unicode="&#xae;" horiz-adv-x="940" 
d="M471 1468q166 0 283.5 -117.5t117.5 -283.5q0 -164 -117.5 -281.5t-283.5 -117.5t-284.5 117.5t-118.5 281.5q0 166 118.5 283.5t284.5 117.5zM471 727q143 0 242.5 98.5t99.5 241.5t-99.5 242.5t-242.5 99.5t-243.5 -99.5t-100.5 -242.5t100.5 -241.5t243.5 -98.5z
M725 877l2 -21q-37 -12 -61 -12q-80 0 -95 86q-14 68 -35.5 88t-82.5 20h-58v-118q0 -39 33 -48l-4 -18h-143l-5 18q33 8 33 48v305q0 39 -33 47l5 18h217q84 0 133 -32.5t49 -92.5q0 -92 -109 -116v-2q72 -4 93 -99q8 -41 19 -57t42 -14zM471 1253q-49 0 -76 -6v-168h82
q115 0 115 84q0 43 -33 66.5t-88 23.5z" />
    <glyph glyph-name="macron" unicode="&#xaf;" horiz-adv-x="602" 
d="M49 1319v92h504v-92h-504z" />
    <glyph glyph-name="degree" unicode="&#xb0;" horiz-adv-x="559" 
d="M279 1059q-86 0 -145.5 60.5t-59.5 142.5q0 86 59.5 146t145.5 60q84 0 145 -60t61 -146q0 -82 -61 -142.5t-145 -60.5zM279 1118q61 0 103 41t42 102.5t-42 104.5t-103 43q-59 0 -100.5 -42t-41.5 -105q0 -61 41.5 -102.5t100.5 -41.5z" />
    <glyph glyph-name="plusminus" unicode="&#xb1;" horiz-adv-x="1120" 
d="M516 184v494h-493v90h493v492h88v-492h494v-90h-494v-494h-88zM23 0v74h1075v-74h-1075z" />
    <glyph glyph-name="uni00B2" unicode="&#xb2;" horiz-adv-x="577" 
d="M457 1010l18 -6l-41 -138h-6q-39 14 -94 15h-228v34q8 6 60.5 49.5t68 56.5t53.5 52t52 65.5t28.5 65.5t14.5 80q0 61 -29.5 96t-85.5 35q-53 0 -95 -36t-44 -95l-29 4q4 74 56.5 118t124.5 44q80 0 131 -46t51 -120q0 -111 -74 -189.5t-196 -148.5v-2h102q45 0 86 16.5
t57 32.5z" />
    <glyph glyph-name="uni00B3" unicode="&#xb3;" horiz-adv-x="559" 
d="M260 866q-66 0 -115 23.5t-49 62.5q0 43 41 43q25 0 50.5 -46t72.5 -46q61 0 95 36t34 99q0 66 -38 104t-105 38h-17v34h21q53 0 82.5 30t29.5 73q0 39 -25.5 67.5t-78.5 28.5q-47 0 -80 -30.5t-37 -86.5l-28 4q8 70 53 110t117 40q76 0 116.5 -37t40.5 -88
q0 -88 -90 -121v-4q51 -10 85 -51t34 -94q0 -80 -56.5 -134.5t-152.5 -54.5z" />
    <glyph glyph-name="acute" unicode="&#xb4;" horiz-adv-x="391" 
d="M100 1161l-43 37l152 229q31 43 72 43q29 0 45 -18t16 -41q0 -31 -43 -74z" />
    <glyph glyph-name="mu" unicode="&#xb5;" horiz-adv-x="1191" 
d="M1155 66l21 -60q-59 -41 -154 -41q-137 0 -137 176v9h-8q-61 -88 -131 -136.5t-187 -48.5q-174 0 -262 72l-8 -6q12 -76 44 -183.5t32 -142.5q0 -49 -28 -80t-69 -31t-68.5 31t-27.5 80v1239h115v-567q-2 -186 67.5 -266t216.5 -80q135 0 224.5 89t89.5 228v596h114v-778
q0 -127 72 -127q39 0 84 27z" />
    <glyph glyph-name="paragraph" unicode="&#xb6;" horiz-adv-x="655" 
d="M29 -391q-127 0 -218.5 53t-91.5 119q0 41 20.5 63.5t55.5 22.5t63.5 -25.5t48 -56.5t62.5 -56.5t105 -25.5q309 0 307 416v610q-193 0 -301.5 98.5t-108.5 254t105.5 254t265.5 98.5h262v-33q-41 -8 -70.5 -34t-29.5 -73v-1175q0 -252 -131 -381t-344 -129z" />
    <glyph glyph-name="periodcentered" unicode="&#xb7;" horiz-adv-x="481" 
d="M242 737q-45 0 -76 30t-31 79q0 45 31 73.5t76 28.5q43 0 73.5 -28.5t30.5 -73.5q0 -49 -30.5 -79t-73.5 -30z" />
    <glyph glyph-name="cedilla" unicode="&#xb8;" horiz-adv-x="1062" 
d="M561 -469q-96 0 -156.5 31.5t-60.5 75.5q0 27 16.5 44t42.5 17q31 0 47.5 -17.5t22.5 -39t29.5 -39t68.5 -17.5q68 0 104 30t36 77q0 37 -26 60.5t-71 23.5q-63 0 -100 -37l-43 20l113 271l63 -23l-65 -151q35 12 67 12q80 0 129 -39t49 -111q0 -74 -71.5 -131
t-194.5 -57z" />
    <glyph glyph-name="uni00B9" unicode="&#xb9;" horiz-adv-x="600" 
d="M213 874v19q51 12 51 49v404h-55l-2 18l112 70h25v-492q0 -39 49 -49v-19h-180z" />
    <glyph glyph-name="ordmasculine" unicode="&#xba;" horiz-adv-x="587" 
d="M301 963q-111 0 -181.5 75.5t-70.5 184.5q0 106 67.5 175.5t174.5 69.5q109 0 178.5 -72.5t69.5 -183.5q0 -109 -67 -179t-171 -70zM317 1006q61 0 101.5 50t40.5 124q0 94 -51.5 169.5t-131.5 75.5q-66 0 -107.5 -48t-41.5 -126q0 -92 54 -168.5t136 -76.5zM84 834v57
h442v-57h-442z" />
    <glyph glyph-name="guillemotright" unicode="&#xbb;" horiz-adv-x="1089" 
d="M180 37l-33 20l256 420l-256 420l33 21l385 -398v-86zM557 37l-33 20l256 420l-256 420l33 21l385 -398v-86z" />
    <glyph glyph-name="onequarter" unicode="&#xbc;" 
d="M190 1346h-55l-2 18l113 70h24v-492q0 -39 49 -49v-19h-180v19q51 12 51 49v404zM-84 754h619v-70h-619v70zM322 555v-375h94l-10 -37h-84v-75q0 -39 51 -50v-18h-183v18q51 12 52 50v75h-248v29l268 383h60zM43 180h199v275h-2l-197 -273v-2z" />
    <glyph glyph-name="onehalf" unicode="&#xbd;" 
d="M190 1346h-55l-2 18l113 70h24v-492q0 -39 49 -49v-19h-180v19q51 12 51 49v404zM-84 754h619v-70h-619v70zM240 63q45 0 86 16.5t59 33.5l16 16l19 -6l-41 -137h-6q-39 14 -94 14h-228v35q8 6 60.5 49t68 56.5t53 52t52 65.5t29 65.5t14.5 79.5q0 61 -30 96.5t-85 35.5
q-53 0 -95 -36t-44 -96l-29 5q4 74 56.5 117.5t123.5 43.5q80 0 131.5 -46t51.5 -120q0 -111 -74 -189.5t-197 -147.5v-3h103z" />
    <glyph glyph-name="threequarters" unicode="&#xbe;" 
d="M217 866q-66 0 -115 23.5t-49 62.5q0 43 41 43q25 0 50.5 -46t72.5 -46q61 0 95 36t34 99q0 66 -38 104t-105 38h-17v34h21q53 0 82.5 30t29.5 73q0 39 -25.5 67.5t-78.5 28.5q-47 0 -80 -30.5t-37 -86.5l-28 4q8 70 53 110t117 40q76 0 116.5 -37t40.5 -88
q0 -88 -90 -121v-4q51 -10 85 -51t34 -94q0 -80 -56.5 -134.5t-152.5 -54.5zM-84 754h619v-70h-619v70zM322 555v-375h94l-10 -37h-84v-75q0 -39 51 -50v-18h-183v18q51 12 52 50v75h-248v29l268 383h60zM43 180h199v275h-2l-197 -273v-2z" />
    <glyph glyph-name="questiondown" unicode="&#xbf;" horiz-adv-x="946" 
d="M918 1257q-43 0 -75 29t-32 74q0 49 31.5 78.5t75.5 29.5q45 0 75.5 -29.5t30.5 -78.5q0 -45 -30.5 -74t-75.5 -29zM901 -35q-152 0 -278.5 99.5t-192 232.5t-65.5 256q0 176 128 240.5t394 68.5v242h67v-379h-65q-90 0 -152.5 -6t-127 -27.5t-98.5 -69t-34 -118.5
q0 -145 121 -302t236 -157q55 0 88.5 26.5t45 57.5t41 57.5t76.5 26.5q31 0 54.5 -24.5t23.5 -61.5q0 -78 -74.5 -120t-187.5 -42z" />
    <glyph glyph-name="Agrave" unicode="&#xc0;" horiz-adv-x="1193" 
d="M328 1702q-43 43 -43 74q0 23 16 41t45 18q41 0 72 -43l151 -231l-43 -35zM1098 137q33 -92 127 -102v-35h-318v35q33 4 56.5 29.5t7.5 72.5l-113 309h-569l-111 -309q-18 -47 5.5 -72.5t56.5 -29.5v-35h-271v35q96 10 127 102l426 1180q-45 39 -110 47v37q113 18 196 59
h10zM324 543h499l-245 682h-9z" />
    <glyph glyph-name="Aacute" unicode="&#xc1;" horiz-adv-x="1193" 
d="M805 1702l-199 -176l-43 37l152 229q31 43 71 43q29 0 45.5 -18.5t16.5 -40.5q0 -31 -43 -74zM1098 137q33 -92 127 -102v-35h-318v35q33 4 56.5 29.5t7.5 72.5l-113 309h-569l-111 -309q-18 -47 5.5 -72.5t56.5 -29.5v-35h-271v35q96 10 127 102l426 1180
q-45 39 -110 47v37q113 18 196 59h10zM324 543h499l-245 682h-9z" />
    <glyph glyph-name="Acircumflex" unicode="&#xc2;" horiz-adv-x="1193" 
d="M596 1665l-279 -152l-38 50l317 243l317 -243l-39 -50zM1098 137q33 -92 127 -102v-35h-318v35q33 4 56.5 29.5t7.5 72.5l-113 309h-569l-111 -309q-18 -47 5.5 -72.5t56.5 -29.5v-35h-271v35q96 10 127 102l426 1180q-45 39 -110 47v37q113 18 196 59h10zM324 543h499
l-245 682h-9z" />
    <glyph glyph-name="Atilde" unicode="&#xc3;" horiz-adv-x="1193" 
d="M455 1759q-63 0 -80 -90l-49 19q12 80 54 122.5t107 42.5q51 0 134.5 -60t117.5 -60q61 0 82 90l45 -17q-27 -170 -161 -170q-51 0 -133 61.5t-117 61.5zM1098 137q33 -92 127 -102v-35h-318v35q33 4 56.5 29.5t7.5 72.5l-113 309h-569l-111 -309q-18 -47 5.5 -72.5
t56.5 -29.5v-35h-271v35q96 10 127 102l426 1180q-45 39 -110 47v37q113 18 196 59h10zM324 543h499l-245 682h-9z" />
    <glyph glyph-name="Adieresis" unicode="&#xc4;" horiz-adv-x="1193" 
d="M438 1659q-41 0 -68.5 26.5t-27.5 65.5q0 41 27.5 68.5t68.5 27.5t69 -27.5t28 -68.5q0 -39 -28 -65.5t-69 -26.5zM756 1659q-41 0 -69 26.5t-28 65.5q0 41 28 68.5t69 27.5t68.5 -27.5t27.5 -68.5q0 -39 -27.5 -65.5t-68.5 -26.5zM1098 137q33 -92 127 -102v-35h-318v35
q33 4 56.5 29.5t7.5 72.5l-113 309h-569l-111 -309q-18 -47 5.5 -72.5t56.5 -29.5v-35h-271v35q96 10 127 102l426 1180q-45 39 -110 47v37q113 18 196 59h10zM324 543h499l-245 682h-9z" />
    <glyph glyph-name="Aring" unicode="&#xc5;" horiz-adv-x="1193" 
d="M596 1538q-90 0 -153.5 63.5t-63.5 151.5q0 90 62.5 153.5t154.5 63.5q90 0 153.5 -63.5t63.5 -153.5q0 -86 -64.5 -150.5t-152.5 -64.5zM596 1892q-57 0 -96 -40t-39 -99q0 -57 39 -96t96 -39t97 39t40 96t-40 98t-97 41zM1098 137q33 -92 127 -102v-35h-318v35
q33 4 56.5 29.5t7.5 72.5l-113 309h-569l-111 -309q-18 -47 5.5 -72.5t56.5 -29.5v-35h-271v35q96 10 127 102l426 1180q-45 39 -110 47v37q113 18 196 59h10zM324 543h499l-245 682h-9z" />
    <glyph glyph-name="AE" unicode="&#xc6;" horiz-adv-x="2422" 
d="M2224 281l47 -15l-90 -295h-12q-76 29 -254 29h-780v33q100 18 100 106v305h-649l2 7l-240 -314q-31 -35 -32 -58.5t11.5 -32.5t30.5 -13v-33h-292l2 33q100 14 170 104l962 1235q-29 20 -65 27v35h954l92 -224l-43 -14q-4 6 -13 17.5t-47 41t-86 51t-136.5 40
t-192.5 18.5q-184 0 -303 -16v-553l545 2q43 0 76.5 30.5t37.5 73.5h37l-2 -280h-35q-6 43 -38.5 74.5t-73.5 31.5h-547v-639q139 -20 395 -20q109 0 197 21.5t136 53t81 63.5t43 52zM657 543h578v745h-10z" />
    <glyph glyph-name="Ccedilla" unicode="&#xc7;" horiz-adv-x="1343" 
d="M1272 401q-117 -406 -496 -434l-47 -110q35 12 68 12q80 0 129 -39t49 -111q0 -74 -72 -131t-194 -57q-96 0 -156.5 31.5t-60.5 75.5q0 27 16 44t43 17q31 0 47 -17.5t22.5 -39t30 -39t68.5 -17.5q68 0 103.5 30t35.5 77q0 37 -25.5 60.5t-70.5 23.5q-63 0 -100 -37
l-44 20l87 205q-274 6 -438.5 213t-164.5 498q0 203 75 381t229.5 294.5t357.5 116.5q61 0 145 -17t117 -17q86 0 143 34h15l69 -358l-51 -10q-100 303 -440 303q-90 0 -183.5 -46t-173 -128t-130 -209t-50.5 -272q0 -346 155 -514t384 -168q319 0 453 356z" />
    <glyph glyph-name="Egrave" unicode="&#xc8;" horiz-adv-x="1228" 
d="M510 1702q-43 43 -43 74q0 23 16.5 41t44.5 18q41 0 72 -43l152 -231l-43 -35zM1161 283l47 -17l-90 -295h-12q-76 29 -254 29h-780v33q100 18 100 106v1153q0 47 -29.5 74t-70.5 33v35h954l92 -224l-43 -14q-4 6 -13 18.5t-47 41t-86 51t-136 41t-193 18.5
q-170 0 -303 -18v-551h545q43 0 76.5 31.5t37.5 74.5h37l-2 -282h-35q-6 43 -38.5 74.5t-73.5 31.5h-547v-637q154 -23 397 -22q106 0 194.5 22.5t136.5 54t81 62.5t45 53z" />
    <glyph glyph-name="Eacute" unicode="&#xc9;" horiz-adv-x="1228" 
d="M717 1702l-199 -176l-43 37l152 229q31 43 71 43q29 0 45.5 -18.5t16.5 -40.5q0 -31 -43 -74zM1161 283l47 -17l-90 -295h-12q-76 29 -254 29h-780v33q100 18 100 106v1153q0 47 -29.5 74t-70.5 33v35h954l92 -224l-43 -14q-4 6 -13 18.5t-47 41t-86 51t-136 41
t-193 18.5q-170 0 -303 -18v-551h545q43 0 76.5 31.5t37.5 74.5h37l-2 -282h-35q-6 43 -38.5 74.5t-73.5 31.5h-547v-637q154 -23 397 -22q106 0 194.5 22.5t136.5 54t81 62.5t45 53z" />
    <glyph glyph-name="Ecircumflex" unicode="&#xca;" horiz-adv-x="1228" 
d="M614 1665l-278 -152l-39 50l317 243l318 -243l-39 -50zM1161 283l47 -17l-90 -295h-12q-76 29 -254 29h-780v33q100 18 100 106v1153q0 47 -29.5 74t-70.5 33v35h954l92 -224l-43 -14q-4 6 -13 18.5t-47 41t-86 51t-136 41t-193 18.5q-170 0 -303 -18v-551h545
q43 0 76.5 31.5t37.5 74.5h37l-2 -282h-35q-6 43 -38.5 74.5t-73.5 31.5h-547v-637q154 -23 397 -22q106 0 194.5 22.5t136.5 54t81 62.5t45 53z" />
    <glyph glyph-name="Edieresis" unicode="&#xcb;" horiz-adv-x="1228" 
d="M455 1659q-41 0 -69 26.5t-28 65.5q0 41 28 68.5t69 27.5t68.5 -27.5t27.5 -68.5q0 -39 -27.5 -65.5t-68.5 -26.5zM772 1659q-41 0 -68.5 26.5t-27.5 65.5q0 41 27.5 68.5t68.5 27.5t68.5 -27.5t27.5 -68.5q0 -39 -27.5 -65.5t-68.5 -26.5zM1161 283l47 -17l-90 -295h-12
q-76 29 -254 29h-780v33q100 18 100 106v1153q0 47 -29.5 74t-70.5 33v35h954l92 -224l-43 -14q-4 6 -13 18.5t-47 41t-86 51t-136 41t-193 18.5q-170 0 -303 -18v-551h545q43 0 76.5 31.5t37.5 74.5h37l-2 -282h-35q-6 43 -38.5 74.5t-73.5 31.5h-547v-637q154 -23 397 -22
q106 0 194.5 22.5t136.5 54t81 62.5t45 53z" />
    <glyph glyph-name="Igrave" unicode="&#xcc;" horiz-adv-x="468" 
d="M217 1526l-199 176q-43 43 -43 74q0 23 16.5 41t45.5 18q41 0 72 -43l151 -231zM72 0v35q41 6 70.5 31.5t29.5 72.5v1153q0 47 -29.5 74t-70.5 33v35h325v-35q-41 -6 -70.5 -33t-29.5 -74v-1153q0 -47 29.5 -72.5t70.5 -31.5v-35h-325z" />
    <glyph glyph-name="Iacute" unicode="&#xcd;" horiz-adv-x="468" 
d="M242 1526l-43 37l151 229q31 43 72 43q29 0 45 -18.5t16 -40.5q0 -31 -43 -74zM72 0v35q41 6 70.5 31.5t29.5 72.5v1153q0 47 -29.5 74t-70.5 33v35h325v-35q-41 -6 -70.5 -33t-29.5 -74v-1153q0 -47 29.5 -72.5t70.5 -31.5v-35h-325z" />
    <glyph glyph-name="Icircumflex" unicode="&#xce;" horiz-adv-x="468" 
d="M-43 1513l-39 50l318 243l317 -243l-39 -50l-278 152zM72 0v35q41 6 70.5 31.5t29.5 72.5v1153q0 47 -29.5 74t-70.5 33v35h325v-35q-41 -6 -70.5 -33t-29.5 -74v-1153q0 -47 29.5 -72.5t70.5 -31.5v-35h-325z" />
    <glyph glyph-name="Idieresis" unicode="&#xcf;" horiz-adv-x="468" 
d="M76 1659q-41 0 -68.5 26.5t-27.5 65.5q0 41 27.5 68.5t68.5 27.5t68.5 -27.5t27.5 -68.5q0 -39 -27.5 -65.5t-68.5 -26.5zM393 1659q-41 0 -68.5 26.5t-27.5 65.5q0 41 27.5 68.5t68.5 27.5t68.5 -27.5t27.5 -68.5q0 -39 -27.5 -65.5t-68.5 -26.5zM72 0v35
q41 6 70.5 31.5t29.5 72.5v1153q0 47 -29.5 74t-70.5 33v35h325v-35q-41 -6 -70.5 -33t-29.5 -74v-1153q0 -47 29.5 -72.5t70.5 -31.5v-35h-325z" />
    <glyph glyph-name="Eth" unicode="&#xd0;" horiz-adv-x="1425" 
d="M578 1434q324 0 538.5 -212t214.5 -530q0 -299 -183 -495.5t-476 -196.5h-592v33q100 18 100 106v541h-289v72h289v540q0 88 -100 107v35h498zM655 68q135 0 244 51t174.5 136t99 189.5t33.5 219.5q0 322 -175 513t-472 191q-160 0 -256 -14v-602h299l2 -72h-301v-578
q145 -34 352 -34z" />
    <glyph glyph-name="Ntilde" unicode="&#xd1;" horiz-adv-x="1345" 
d="M530 1759q-63 0 -79 -90l-50 19q12 80 54.5 122.5t107.5 42.5q51 0 134 -60t118 -60q61 0 82 90l45 -17q-27 -170 -162 -170q-51 0 -133 61.5t-117 61.5zM1024 1434h270v-35q-41 -6 -71.5 -33t-30.5 -74v-1292h-92q-55 145 -148.5 283.5t-194 247t-198.5 215t-183 231.5
t-130 254h-6v-1092q0 -47 29.5 -72.5t70.5 -31.5v-35h-268v35q39 6 68.5 31.5t29.5 72.5v1153q0 47 -29.5 74t-68.5 33v35h196q49 -135 145.5 -277.5t201 -261.5t207 -234.5t184 -236.5t112.5 -229h6v1097q0 47 -29.5 74t-70.5 33v35z" />
    <glyph glyph-name="Ograve" unicode="&#xd2;" horiz-adv-x="1544" 
d="M768 1526l-199 176q-43 43 -43 74q0 23 16.5 41t45.5 18q41 0 71 -43l152 -231zM791 -35q-293 0 -491 227.5t-198 530.5q0 324 182.5 534.5t489.5 210.5q285 0 476.5 -221t191.5 -538q0 -305 -181 -524.5t-470 -219.5zM815 33q225 0 363.5 181t138.5 427q0 322 -163 541
t-419 219q-231 0 -368.5 -173t-137.5 -437q0 -199 73 -371t209 -279.5t304 -107.5z" />
    <glyph glyph-name="Oacute" unicode="&#xd3;" horiz-adv-x="1544" 
d="M768 1526l-43 37l152 229q31 43 71 43q29 0 45.5 -18.5t16.5 -40.5q0 -31 -43 -74zM791 -35q-293 0 -491 227.5t-198 530.5q0 324 182.5 534.5t489.5 210.5q285 0 476.5 -221t191.5 -538q0 -305 -181 -524.5t-470 -219.5zM815 33q225 0 363.5 181t138.5 427
q0 322 -163 541t-419 219q-231 0 -368.5 -173t-137.5 -437q0 -199 73 -371t209 -279.5t304 -107.5z" />
    <glyph glyph-name="Ocircumflex" unicode="&#xd4;" horiz-adv-x="1544" 
d="M494 1513l-39 50l317 243l318 -243l-39 -50l-279 152zM791 -35q-293 0 -491 227.5t-198 530.5q0 324 182.5 534.5t489.5 210.5q285 0 476.5 -221t191.5 -538q0 -305 -181 -524.5t-470 -219.5zM815 33q225 0 363.5 181t138.5 427q0 322 -163 541t-419 219
q-231 0 -368.5 -173t-137.5 -437q0 -199 73 -371t209 -279.5t304 -107.5z" />
    <glyph glyph-name="Otilde" unicode="&#xd5;" horiz-adv-x="1544" 
d="M881 1636q-51 0 -133 61.5t-117 61.5q-63 0 -80 -90l-49 19q12 80 54 122.5t108 42.5q51 0 134 -60t117 -60q61 0 82 90l45 -17q-26 -170 -161 -170zM791 -35q-293 0 -491 227.5t-198 530.5q0 324 182.5 534.5t489.5 210.5q285 0 476.5 -221t191.5 -538
q0 -305 -181 -524.5t-470 -219.5zM815 33q225 0 363.5 181t138.5 427q0 322 -163 541t-419 219q-231 0 -368.5 -173t-137.5 -437q0 -199 73 -371t209 -279.5t304 -107.5z" />
    <glyph glyph-name="Odieresis" unicode="&#xd6;" horiz-adv-x="1544" 
d="M612 1659q-41 0 -68.5 26.5t-27.5 65.5q0 41 27.5 68.5t68.5 27.5t69 -27.5t28 -68.5q0 -39 -28 -65.5t-69 -26.5zM930 1659q-41 0 -68.5 26.5t-27.5 65.5q0 41 27.5 68.5t68.5 27.5t68.5 -27.5t27.5 -68.5q0 -39 -27.5 -65.5t-68.5 -26.5zM791 -35q-293 0 -491 227.5
t-198 530.5q0 324 182.5 534.5t489.5 210.5q285 0 476.5 -221t191.5 -538q0 -305 -181 -524.5t-470 -219.5zM815 33q225 0 363.5 181t138.5 427q0 322 -163 541t-419 219q-231 0 -368.5 -173t-137.5 -437q0 -199 73 -371t209 -279.5t304 -107.5z" />
    <glyph glyph-name="multiply" unicode="&#xd7;" horiz-adv-x="1116" 
d="M199 297l-62 61l357 359l-357 356l62 62l356 -357l360 359l62 -62l-361 -358l361 -359l-62 -63l-360 360z" />
    <glyph glyph-name="Oslash" unicode="&#xd8;" horiz-adv-x="1544" 
d="M1083 1346q137 -102 217 -270.5t80 -364.5q0 -305 -181 -525.5t-468 -220.5q-176 0 -332 92l-75 -143l-62 33l80 149q-139 106 -220 273.5t-81 353.5q0 324 182.5 534.5t489.5 210.5q166 0 311 -84l72 136l63 -29zM168 791q0 -174 59.5 -333t163.5 -265l588 1105
q-137 102 -305 103q-231 0 -368.5 -173t-137.5 -437zM754 33q225 0 364 182t139 428q0 184 -59 344t-166 264l-588 -1108q140 -110 310 -110z" />
    <glyph glyph-name="Ugrave" unicode="&#xd9;" horiz-adv-x="1275" 
d="M653 1526l-198 176q-43 43 -43 74q0 23 16 41t45 18q41 0 72 -43l151 -231zM655 -37q-307 0 -454.5 166t-122.5 461l61 702q4 47 -22.5 74t-65.5 33v35h332v-35q-41 -6 -74 -33t-37 -74l-61 -700q-23 -256 91 -408.5t353 -152.5q254 0 372 154.5t95 406.5l-59 690
q-4 43 -40 77t-79 38v37h281v-37q-41 -6 -68 -38t-24 -75l59 -694q25 -283 -111.5 -455t-425.5 -172z" />
    <glyph glyph-name="Uacute" unicode="&#xda;" horiz-adv-x="1275" 
d="M643 1526l-43 37l152 229q31 43 71 43q29 0 45.5 -18.5t16.5 -40.5q0 -31 -43 -74zM655 -37q-307 0 -454.5 166t-122.5 461l61 702q4 47 -22.5 74t-65.5 33v35h332v-35q-41 -6 -74 -33t-37 -74l-61 -700q-23 -256 91 -408.5t353 -152.5q254 0 372 154.5t95 406.5l-59 690
q-4 43 -40 77t-79 38v37h281v-37q-41 -6 -68 -38t-24 -75l59 -694q25 -283 -111.5 -455t-425.5 -172z" />
    <glyph glyph-name="Ucircumflex" unicode="&#xdb;" horiz-adv-x="1275" 
d="M358 1513l-39 50l318 243l317 -243l-39 -50l-278 152zM655 -37q-307 0 -454.5 166t-122.5 461l61 702q4 47 -22.5 74t-65.5 33v35h332v-35q-41 -6 -74 -33t-37 -74l-61 -700q-23 -256 91 -408.5t353 -152.5q254 0 372 154.5t95 406.5l-59 690q-4 43 -40 77t-79 38v37h281
v-37q-41 -6 -68 -38t-24 -75l59 -694q25 -283 -111.5 -455t-425.5 -172z" />
    <glyph glyph-name="Udieresis" unicode="&#xdc;" horiz-adv-x="1275" 
d="M479 1659q-41 0 -68.5 26.5t-27.5 65.5q0 41 27.5 68.5t68.5 27.5t68.5 -27.5t27.5 -68.5q0 -39 -27.5 -65.5t-68.5 -26.5zM797 1659q-41 0 -69 26.5t-28 65.5q0 41 28 68.5t69 27.5t68.5 -27.5t27.5 -68.5q0 -39 -27.5 -65.5t-68.5 -26.5zM655 -37q-307 0 -454.5 166
t-122.5 461l61 702q4 47 -22.5 74t-65.5 33v35h332v-35q-41 -6 -74 -33t-37 -74l-61 -700q-23 -256 91 -408.5t353 -152.5q254 0 372 154.5t95 406.5l-59 690q-4 43 -40 77t-79 38v37h281v-37q-41 -6 -68 -38t-24 -75l59 -694q25 -283 -111.5 -455t-425.5 -172z" />
    <glyph glyph-name="Yacute" unicode="&#xdd;" horiz-adv-x="1196" 
d="M614 1526l-43 37l152 229q31 43 72 43q29 0 45 -18.5t16 -40.5q0 -31 -43 -74zM436 0v35q39 6 70 31.5t31 72.5v566l-414 587q-66 96 -154 107v35h353v-35q-39 -6 -57.5 -29.5t9.5 -77.5l344 -487h13l342 487q29 53 11.5 77t-56.5 30v35h299v-35q-88 -10 -154 -107
l-414 -587v-566q0 -47 31 -72.5t70 -31.5v-35h-324z" />
    <glyph glyph-name="Thorn" unicode="&#xde;" horiz-adv-x="1218" 
d="M618 1143q264 0 404.5 -115t140.5 -313q0 -197 -140 -311.5t-405 -114.5h-307v-150q0 -88 99 -106v-33h-324v33q100 18 100 106v1153q0 88 -100 107v35h324v-35q-98 -18 -99 -107v-149h307zM586 356q217 0 333.5 94.5t116.5 264.5q0 172 -116.5 266t-333.5 94
q-152 0 -275 -16v-686q123 -17 275 -17z" />
    <glyph glyph-name="germandbls" unicode="&#xdf;" horiz-adv-x="1187" 
d="M954 598q57 -51 87 -82t62 -96.5t32 -136.5q0 -152 -104.5 -236t-272.5 -84q-236 0 -236 103q0 35 23.5 55t58.5 20q53 0 108.5 -56t96.5 -56q117 0 179.5 62.5t62.5 170.5q0 29 -10.5 57.5t-22.5 49t-38 48t-38 40t-42 38t-34 29.5t-31.5 26.5t-37 31t-33 31t-33.5 36
t-26.5 38t-23.5 44t-13 46t-6 52.5q0 100 66.5 165t162.5 81q31 49 31 115q0 109 -76 186.5t-180 77.5q-332 0 -332 -473l2 -842q0 -88 100 -106v-33h-325v33q100 18 100 106v840v12h-242v78h246q18 215 131 334t320 119q166 0 272 -88t106 -236q0 -98 -53 -170
q-94 -8 -158.5 -54t-64.5 -132q0 -39 21.5 -78t45 -61.5t65.5 -57.5t54 -47z" />
    <glyph glyph-name="agrave" unicode="&#xe0;" horiz-adv-x="1085" 
d="M289 1337q-43 43 -43 74q0 23 16.5 41t44.5 18q41 0 72 -43l151 -231l-43 -35zM1079 59l17 -28q-49 -66 -135 -66q-141 0 -166 187h-11q-53 -94 -153.5 -140.5t-204.5 -46.5q-162 0 -263.5 79t-101.5 222q0 317 674 439l-8 86q-10 111 -74.5 180t-163.5 69
q-96 0 -160.5 -51t-64.5 -127q0 -43 -21.5 -64.5t-47.5 -21.5q-33 0 -53.5 20.5t-20.5 55.5q2 92 102.5 173t259.5 81q131 0 236.5 -84t122.5 -231l67 -627q12 -133 86 -133q33 -1 84 28zM457 31q135 0 229 94t90 211l-35 311q-252 -41 -400 -135t-148 -242
q0 -106 73.5 -172.5t190.5 -66.5z" />
    <glyph glyph-name="aacute" unicode="&#xe1;" horiz-adv-x="1085" 
d="M662 1337l-199 -176l-43 37l151 229q31 43 72 43q29 0 45.5 -18t16.5 -41q0 -31 -43 -74zM1079 59l17 -28q-49 -66 -135 -66q-141 0 -166 187h-11q-53 -94 -153.5 -140.5t-204.5 -46.5q-162 0 -263.5 79t-101.5 222q0 317 674 439l-8 86q-10 111 -74.5 180t-163.5 69
q-96 0 -160.5 -51t-64.5 -127q0 -43 -21.5 -64.5t-47.5 -21.5q-33 0 -53.5 20.5t-20.5 55.5q2 92 102.5 173t259.5 81q131 0 236.5 -84t122.5 -231l67 -627q12 -133 86 -133q33 -1 84 28zM457 31q135 0 229 94t90 211l-35 311q-252 -41 -400 -135t-148 -242
q0 -106 73.5 -172.5t190.5 -66.5z" />
    <glyph glyph-name="acircumflex" unicode="&#xe2;" horiz-adv-x="1085" 
d="M481 1300l-278 -151l-39 49l317 244l318 -244l-39 -49zM1079 59l17 -28q-49 -66 -135 -66q-141 0 -166 187h-11q-53 -94 -153.5 -140.5t-204.5 -46.5q-162 0 -263.5 79t-101.5 222q0 317 674 439l-8 86q-10 111 -74.5 180t-163.5 69q-96 0 -160.5 -51t-64.5 -127
q0 -43 -21.5 -64.5t-47.5 -21.5q-33 0 -53.5 20.5t-20.5 55.5q2 92 102.5 173t259.5 81q131 0 236.5 -84t122.5 -231l67 -627q12 -133 86 -133q33 -1 84 28zM457 31q135 0 229 94t90 211l-35 311q-252 -41 -400 -135t-148 -242q0 -106 73.5 -172.5t190.5 -66.5z" />
    <glyph glyph-name="atilde" unicode="&#xe3;" horiz-adv-x="1085" 
d="M422 1395q-63 0 -80 -90l-49 18q12 80 54 123t108 43q51 0 134 -60.5t118 -60.5q61 0 81 90l46 -16q-27 -170 -162 -170q-51 0 -133 61.5t-117 61.5zM1079 59l17 -28q-49 -66 -135 -66q-141 0 -166 187h-11q-53 -94 -153.5 -140.5t-204.5 -46.5q-162 0 -263.5 79
t-101.5 222q0 317 674 439l-8 86q-10 111 -74.5 180t-163.5 69q-96 0 -160.5 -51t-64.5 -127q0 -43 -21.5 -64.5t-47.5 -21.5q-33 0 -53.5 20.5t-20.5 55.5q2 92 102.5 173t259.5 81q131 0 236.5 -84t122.5 -231l67 -627q12 -133 86 -133q33 -1 84 28zM457 31q135 0 229 94
t90 211l-35 311q-252 -41 -400 -135t-148 -242q0 -106 73.5 -172.5t190.5 -66.5z" />
    <glyph glyph-name="adieresis" unicode="&#xe4;" horiz-adv-x="1085" 
d="M403 1294q-41 0 -68.5 27t-27.5 65q0 41 27.5 69t68.5 28t69 -28t28 -69q0 -39 -28 -65.5t-69 -26.5zM721 1294q-41 0 -68.5 27t-27.5 65q0 41 27.5 69t68.5 28t68.5 -28t27.5 -69q0 -39 -27.5 -65.5t-68.5 -26.5zM1079 59l17 -28q-49 -66 -135 -66q-141 0 -166 187h-11
q-53 -94 -153.5 -140.5t-204.5 -46.5q-162 0 -263.5 79t-101.5 222q0 317 674 439l-8 86q-10 111 -74.5 180t-163.5 69q-96 0 -160.5 -51t-64.5 -127q0 -43 -21.5 -64.5t-47.5 -21.5q-33 0 -53.5 20.5t-20.5 55.5q2 92 102.5 173t259.5 81q131 0 236.5 -84t122.5 -231
l67 -627q12 -133 86 -133q33 -1 84 28zM457 31q135 0 229 94t90 211l-35 311q-252 -41 -400 -135t-148 -242q0 -106 73.5 -172.5t190.5 -66.5z" />
    <glyph glyph-name="aring" unicode="&#xe5;" horiz-adv-x="1085" 
d="M504 1174q-90 0 -153.5 63t-63.5 152q0 90 62.5 153.5t154.5 63.5q90 0 153.5 -63.5t63.5 -153.5q0 -86 -64.5 -150.5t-152.5 -64.5zM503.5 1528q-57.5 0 -96 -40t-38.5 -99q0 -57 38.5 -96.5t96 -39.5t97.5 39t40 96.5t-40 98.5t-97.5 41zM1079 59l17 -28
q-49 -66 -135 -66q-141 0 -166 187h-11q-53 -94 -153.5 -140.5t-204.5 -46.5q-162 0 -263.5 79t-101.5 222q0 317 674 439l-8 86q-10 111 -74.5 180t-163.5 69q-96 0 -160.5 -51t-64.5 -127q0 -43 -21.5 -64.5t-47.5 -21.5q-33 0 -53.5 20.5t-20.5 55.5q2 92 102.5 173
t259.5 81q131 0 236.5 -84t122.5 -231l67 -627q12 -133 86 -133q33 -1 84 28zM457 31q135 0 229 94t90 211l-35 311q-252 -41 -400 -135t-148 -242q0 -106 73.5 -172.5t190.5 -66.5z" />
    <glyph glyph-name="ae" unicode="&#xe6;" horiz-adv-x="1914" 
d="M1395 53q135 0 234.5 78t142.5 186l40 -12q-35 -137 -161.5 -239.5t-313.5 -102.5q-150 0 -277.5 78t-197.5 217h-10q-41 -121 -161 -208t-267 -87q-168 0 -268.5 71.5t-100.5 190.5q0 102 53.5 172t160 110t226 59.5t291.5 29.5l-20 195q-10 109 -84 179t-174 70
q-115 0 -181.5 -50t-68.5 -130q0 -43 -20.5 -63.5t-47.5 -20.5q-33 0 -54 19.5t-19 54.5q2 94 104.5 174t280.5 80q119 0 225.5 -66.5t140.5 -185.5h13q70 117 187.5 184.5t260.5 67.5q182 0 289.5 -81t153.5 -196q37 -94 67 -106l10 -55l-934 -127q6 -223 135.5 -354.5
t344.5 -131.5zM1321 1042q-166 0 -277.5 -124.5t-125.5 -309.5l770 105q-14 133 -111.5 231t-255.5 98zM434 37q127 0 238.5 97t138.5 226l-18 175q-141 -10 -238.5 -25.5t-186.5 -46.5t-134.5 -85t-45.5 -132q0 -94 68.5 -151.5t177.5 -57.5z" />
    <glyph glyph-name="ccedilla" unicode="&#xe7;" horiz-adv-x="1144" 
d="M1083 305q-33 -127 -146.5 -228.5t-277.5 -111.5l-47 -108q35 12 68 12q80 0 129 -39t49 -111q0 -74 -71.5 -131t-194.5 -57q-96 0 -156.5 31.5t-60.5 75.5q0 27 16.5 44t42.5 17q31 0 47.5 -17.5t22.5 -39t29.5 -39t68.5 -17.5q68 0 103.5 30t35.5 77q0 37 -25.5 60.5
t-70.5 23.5q-63 0 -100 -37l-43 20l86 207q-213 16 -359.5 177t-146.5 399q0 250 156.5 406.5t392.5 156.5q184 0 306 -92t122 -183q0 -29 -16.5 -50t-47.5 -21q-33 0 -51 29.5t-34.5 70.5t-43 83t-94 71.5t-172.5 29.5q-162 0 -282.5 -132t-120.5 -320q0 -258 130 -398.5
t351 -140.5q121 0 220 79t144 185z" />
    <glyph glyph-name="egrave" unicode="&#xe8;" horiz-adv-x="1214" 
d="M508 1337q-43 43 -43 74q0 23 16.5 41t44.5 18q41 0 72 -43l152 -231l-43 -35zM680 53q135 0 234.5 79t140.5 187l41 -14q-35 -137 -161 -238.5t-314 -101.5q-221 0 -380 161t-159 421q0 238 152.5 398.5t379.5 160.5q182 0 294 -83t153 -196q29 -76 63 -92l9 -55
l-924 -229q29 -184 153.5 -291t317.5 -107zM606 1044q-178 0 -291.5 -141t-113.5 -344q0 -29 2 -43l770 197q-14 133 -111.5 232t-255.5 99z" />
    <glyph glyph-name="eacute" unicode="&#xe9;" horiz-adv-x="1214" 
d="M707 1337l-199 -176l-43 37l151 229q31 43 72 43q29 0 45.5 -18t16.5 -41q0 -31 -43 -74zM680 53q135 0 234.5 79t140.5 187l41 -14q-35 -137 -161 -238.5t-314 -101.5q-221 0 -380 161t-159 421q0 238 152.5 398.5t379.5 160.5q182 0 294 -83t153 -196q29 -76 63 -92
l9 -55l-924 -229q29 -184 153.5 -291t317.5 -107zM606 1044q-178 0 -291.5 -141t-113.5 -344q0 -29 2 -43l770 197q-14 133 -111.5 232t-255.5 99z" />
    <glyph glyph-name="ecircumflex" unicode="&#xea;" horiz-adv-x="1214" 
d="M606 1300l-278 -151l-39 49l317 244l318 -244l-39 -49zM680 53q135 0 234.5 79t140.5 187l41 -14q-35 -137 -161 -238.5t-314 -101.5q-221 0 -380 161t-159 421q0 238 152.5 398.5t379.5 160.5q182 0 294 -83t153 -196q29 -76 63 -92l9 -55l-924 -229q29 -184 153.5 -291
t317.5 -107zM606 1044q-178 0 -291.5 -141t-113.5 -344q0 -29 2 -43l770 197q-14 133 -111.5 232t-255.5 99z" />
    <glyph glyph-name="edieresis" unicode="&#xeb;" horiz-adv-x="1214" 
d="M448.5 1294q-40.5 0 -68.5 27t-28 65q0 41 28 69t68.5 28t68.5 -28t28 -69q0 -39 -28 -65.5t-68.5 -26.5zM766 1294q-41 0 -68.5 27t-27.5 65q0 41 27.5 69t68.5 28t68.5 -28t27.5 -69q0 -39 -27.5 -65.5t-68.5 -26.5zM680 53q135 0 234.5 79t140.5 187l41 -14
q-35 -137 -161 -238.5t-314 -101.5q-221 0 -380 161t-159 421q0 238 152.5 398.5t379.5 160.5q182 0 294 -83t153 -196q29 -76 63 -92l9 -55l-924 -229q29 -184 153.5 -291t317.5 -107zM606 1044q-178 0 -291.5 -141t-113.5 -344q0 -29 2 -43l770 197q-14 133 -111.5 232
t-255.5 99z" />
    <glyph glyph-name="igrave" unicode="&#xec;" horiz-adv-x="438" 
d="M188 1161l-198 176q-43 43 -43 74q0 23 16.5 41t44.5 18q41 0 72 -43l151 -231zM61 0v35q39 6 70 31.5t31 72.5v709q0 47 -31 72.5t-70 31.5v35q90 27 193 119h22v-967q0 -47 31 -72.5t70 -31.5v-35h-316z" />
    <glyph glyph-name="iacute" unicode="&#xed;" horiz-adv-x="438" 
d="M162 1161l-43 37l151 229q31 43 72 43q29 0 45 -18t16 -41q0 -31 -43 -74zM61 0v35q39 6 70 31.5t31 72.5v709q0 47 -31 72.5t-70 31.5v35q90 27 193 119h22v-967q0 -47 31 -72.5t70 -31.5v-35h-316z" />
    <glyph glyph-name="icircumflex" unicode="&#xee;" horiz-adv-x="438" 
d="M-59 1149l-39 49l317 244l318 -244l-39 -49l-279 151zM61 0v35q39 6 70 31.5t31 72.5v709q0 47 -31 72.5t-70 31.5v35q90 27 193 119h22v-967q0 -47 31 -72.5t70 -31.5v-35h-316z" />
    <glyph glyph-name="idieresis" unicode="&#xef;" horiz-adv-x="438" 
d="M61 1294q-41 0 -68.5 27t-27.5 65q0 41 27.5 69t68.5 28t69 -28t28 -69q0 -39 -28 -65.5t-69 -26.5zM379 1294q-41 0 -68.5 27t-27.5 65q0 41 27.5 69t68.5 28t68.5 -28t27.5 -69q0 -39 -27.5 -65.5t-68.5 -26.5zM61 0v35q39 6 70 31.5t31 72.5v709q0 47 -31 72.5
t-70 31.5v35q90 27 193 119h22v-967q0 -47 31 -72.5t70 -31.5v-35h-316z" />
    <glyph glyph-name="eth" unicode="&#xf0;" horiz-adv-x="1163" 
d="M612 -37q-244 0 -394 163t-150 409q0 244 147 406.5t381 162.5q190 0 334 -129l8 2q-29 141 -54.5 220t-80.5 177l-305 -123l-27 60l297 121q-53 82 -115 143l52 49q92 -82 153 -156l289 115l27 -59l-273 -111q199 -264 199 -745q0 -334 -127.5 -519.5t-360.5 -185.5z
M612 33q358 0 359 633q0 92 -13 180q-143 190 -358 190q-201 0 -307.5 -140t-106.5 -372q0 -211 110.5 -351t315.5 -140z" />
    <glyph glyph-name="ntilde" unicode="&#xf1;" horiz-adv-x="1230" 
d="M473 1395q-63 0 -80 -90l-49 18q12 80 54 123t108 43q51 0 134 -60.5t118 -60.5q61 0 82 90l45 -16q-27 -170 -162 -170q-51 0 -133 61.5t-117 61.5zM1063 139q2 -47 33.5 -72.5t72.5 -31.5l-2 -35h-315v35q41 6 68.5 31.5t25.5 72.5l-31 514q-10 188 -93 287.5
t-216 99.5q-135 0 -233.5 -92t-98.5 -225v-584q0 -47 31 -72.5t70 -31.5v-35h-314v35q39 6 69 31.5t30 72.5v709q0 47 -30 72.5t-69 31.5v35q90 27 193 119h20v-184h9q115 184 331 184q180 0 292 -116t126 -339z" />
    <glyph glyph-name="ograve" unicode="&#xf2;" horiz-adv-x="1255" 
d="M643 1161l-199 176q-43 43 -43 74q0 23 16.5 41t45.5 18q41 0 72 -43l151 -231zM649 -35q-244 0 -405.5 173t-161.5 417q0 236 153.5 393.5t387.5 157.5q238 0 394.5 -168t156.5 -416q0 -240 -147 -398.5t-378 -158.5zM674 31q164 0 274.5 128t110.5 320
q0 242 -129 401.5t-330 159.5q-172 0 -286.5 -126t-114.5 -320q0 -231 134 -397t341 -166z" />
    <glyph glyph-name="oacute" unicode="&#xf3;" horiz-adv-x="1255" 
d="M590 1161l-43 37l151 229q31 43 72 43q29 0 45 -18t16 -41q0 -31 -43 -74zM649 -35q-244 0 -405.5 173t-161.5 417q0 236 153.5 393.5t387.5 157.5q238 0 394.5 -168t156.5 -416q0 -240 -147 -398.5t-378 -158.5zM674 31q164 0 274.5 128t110.5 320q0 242 -129 401.5
t-330 159.5q-172 0 -286.5 -126t-114.5 -320q0 -231 134 -397t341 -166z" />
    <glyph glyph-name="ocircumflex" unicode="&#xf4;" horiz-adv-x="1255" 
d="M348 1149l-39 49l318 244l317 -244l-39 -49l-278 151zM649 -35q-244 0 -405.5 173t-161.5 417q0 236 153.5 393.5t387.5 157.5q238 0 394.5 -168t156.5 -416q0 -240 -147 -398.5t-378 -158.5zM674 31q164 0 274.5 128t110.5 320q0 242 -129 401.5t-330 159.5
q-172 0 -286.5 -126t-114.5 -320q0 -231 134 -397t341 -166z" />
    <glyph glyph-name="otilde" unicode="&#xf5;" horiz-adv-x="1255" 
d="M735 1272q-51 0 -133 61.5t-117 61.5q-63 0 -79 -90l-50 18q12 80 54.5 123t107.5 43q51 0 134 -60.5t118 -60.5q61 0 82 90l45 -16q-27 -170 -162 -170zM649 -35q-244 0 -405.5 173t-161.5 417q0 236 153.5 393.5t387.5 157.5q238 0 394.5 -168t156.5 -416
q0 -240 -147 -398.5t-378 -158.5zM674 31q164 0 274.5 128t110.5 320q0 242 -129 401.5t-330 159.5q-172 0 -286.5 -126t-114.5 -320q0 -231 134 -397t341 -166z" />
    <glyph glyph-name="odieresis" unicode="&#xf6;" horiz-adv-x="1255" 
d="M469 1294q-41 0 -68.5 27t-27.5 65q0 41 27.5 69t68.5 28t68.5 -28t27.5 -69q0 -39 -27.5 -65.5t-68.5 -26.5zM786 1294q-41 0 -68.5 27t-27.5 65q0 41 27.5 69t68.5 28t69 -28t28 -69q0 -39 -28 -65.5t-69 -26.5zM649 -35q-244 0 -405.5 173t-161.5 417
q0 236 153.5 393.5t387.5 157.5q238 0 394.5 -168t156.5 -416q0 -240 -147 -398.5t-378 -158.5zM674 31q164 0 274.5 128t110.5 320q0 242 -129 401.5t-330 159.5q-172 0 -286.5 -126t-114.5 -320q0 -231 134 -397t341 -166z" />
    <glyph glyph-name="divide" unicode="&#xf7;" horiz-adv-x="1114" 
d="M555 973q-41 0 -68.5 26.5t-27.5 71.5q0 41 28.5 67.5t67.5 26.5t67.5 -26.5t28.5 -67.5q0 -45 -27.5 -71.5t-68.5 -26.5zM23 674v88h1069v-88h-1069zM555 268q-41 0 -68.5 27t-27.5 72q0 43 28.5 69.5t67.5 26.5t67.5 -26.5t28.5 -69.5q0 -45 -27.5 -72t-68.5 -27z" />
    <glyph glyph-name="oslash" unicode="&#xf8;" horiz-adv-x="1255" 
d="M920 1020q119 -76 188.5 -208t69.5 -290q0 -240 -147.5 -399.5t-379.5 -159.5q-137 0 -260 62l-55 -105l-62 33l58 108q-117 82 -182.5 212t-65.5 282q0 233 153.5 391t387.5 158q125 0 233 -51l57 106l62 -31zM199 592q0 -129 48 -247t132 -198l440 832q-96 59 -215 59
q-176 0 -290.5 -125.5t-114.5 -320.5zM676 29q166 0 275.5 128t109.5 322q0 297 -184 459l-443 -834q109 -75 242 -75z" />
    <glyph glyph-name="ugrave" unicode="&#xf9;" horiz-adv-x="1173" 
d="M406 1337q-43 43 -44 74q0 23 16.5 41t45.5 18q41 0 72 -43l151 -231l-43 -35zM1012 139q0 -47 30.5 -72.5t69.5 -31.5v-35q-115 -18 -192 -35h-23v185h-14q-125 -184 -332 -185q-193 0 -302.5 115t-107.5 338v430q0 47 -30.5 72.5t-69.5 31.5v35q92 27 195 119h22v-690
q0 -188 80 -286.5t225 -98.5q137 0 235.5 90t98.5 227v500q0 47 -30.5 73.5t-69.5 32.5v35q92 25 194 117h21v-967z" />
    <glyph glyph-name="uacute" unicode="&#xfa;" horiz-adv-x="1173" 
d="M774 1337l-199 -176l-43 37l152 229q31 43 72 43q29 0 45 -18t16 -41q0 -31 -43 -74zM1012 139q0 -47 30.5 -72.5t69.5 -31.5v-35q-115 -18 -192 -35h-23v185h-14q-125 -184 -332 -185q-193 0 -302.5 115t-107.5 338v430q0 47 -30.5 72.5t-69.5 31.5v35q92 27 195 119h22
v-690q0 -188 80 -286.5t225 -98.5q137 0 235.5 90t98.5 227v500q0 47 -30.5 73.5t-69.5 32.5v35q92 25 194 117h21v-967z" />
    <glyph glyph-name="ucircumflex" unicode="&#xfb;" horiz-adv-x="1173" 
d="M586 1300l-279 -151l-39 49l318 244l317 -244l-39 -49zM1012 139q0 -47 30.5 -72.5t69.5 -31.5v-35q-115 -18 -192 -35h-23v185h-14q-125 -184 -332 -185q-193 0 -302.5 115t-107.5 338v430q0 47 -30.5 72.5t-69.5 31.5v35q92 27 195 119h22v-690q0 -188 80 -286.5
t225 -98.5q137 0 235.5 90t98.5 227v500q0 47 -30.5 73.5t-69.5 32.5v35q92 25 194 117h21v-967z" />
    <glyph glyph-name="udieresis" unicode="&#xfc;" horiz-adv-x="1173" 
d="M428 1294q-41 0 -68.5 27t-27.5 65q0 41 27.5 69t68.5 28t68.5 -28t27.5 -69q0 -39 -27.5 -65.5t-68.5 -26.5zM745.5 1294q-40.5 0 -68.5 27t-28 65q0 41 28 69t68.5 28t68.5 -28t28 -69q0 -39 -28 -65.5t-68.5 -26.5zM1012 139q0 -47 30.5 -72.5t69.5 -31.5v-35
q-115 -18 -192 -35h-23v185h-14q-125 -184 -332 -185q-193 0 -302.5 115t-107.5 338v430q0 47 -30.5 72.5t-69.5 31.5v35q92 27 195 119h22v-690q0 -188 80 -286.5t225 -98.5q137 0 235.5 90t98.5 227v500q0 47 -30.5 73.5t-69.5 32.5v35q92 25 194 117h21v-967z" />
    <glyph glyph-name="yacute" unicode="&#xfd;" horiz-adv-x="1028" 
d="M700 1337l-198 -176l-43 37l151 229q31 43 72 43q29 0 45 -18t16 -41q0 -31 -43 -74zM862 1106q57 0 87 -41t30 -102q0 -150 -193 -529q-70 -135 -237 -479q-111 -223 -181.5 -316.5t-148.5 -93.5q-43 0 -78 30t-35 71q0 43 26 66.5t63 23.5q16 0 48.5 -13.5t51.5 -13.5
q39 0 79 55.5t118 208.5q12 23 14 27h-41l-313 848q-37 106 -162 106v35q92 39 166 117h24l369 -1000h10l178 363q96 199 121 267.5t25 117.5q0 41 -30 62.5t-58.5 43t-28.5 64.5q0 37 27.5 59.5t68.5 22.5z" />
    <glyph glyph-name="thorn" unicode="&#xfe;" horiz-adv-x="1212" 
d="M647 1106q225 0 373.5 -167t148.5 -415q0 -240 -139 -399.5t-356 -159.5q-246 0 -406 215h-4v-456q0 -88 98 -107v-35h-315v35q100 18 100 107v1570q0 88 -100 107v35q106 16 234 116l20 -8q-37 -113 -37 -370v-248h10q148 180 373 180zM696 31q154 0 256.5 128
t102.5 322q0 240 -121 399.5t-305 159.5q-162 0 -263.5 -124.5t-101.5 -321.5q0 -231 119.5 -397t312.5 -166z" />
    <glyph glyph-name="ydieresis" unicode="&#xff;" horiz-adv-x="1028" 
d="M354 1294q-41 0 -68.5 27t-27.5 65q0 41 27.5 69t68.5 28t69 -28t28 -69q0 -39 -28 -65.5t-69 -26.5zM672 1294q-41 0 -69 27t-28 65q0 41 28 69t69 28t68.5 -28t27.5 -69q0 -39 -27.5 -65.5t-68.5 -26.5zM862 1106q57 0 87 -41t30 -102q0 -150 -193 -529
q-70 -135 -237 -479q-111 -223 -181.5 -316.5t-148.5 -93.5q-43 0 -78 30t-35 71q0 43 26 66.5t63 23.5q16 0 48.5 -13.5t51.5 -13.5q39 0 79 55.5t118 208.5q12 23 14 27h-41l-313 848q-37 106 -162 106v35q92 39 166 117h24l369 -1000h10l178 363q96 199 121 267.5
t25 117.5q0 41 -30 62.5t-58.5 43t-28.5 64.5q0 37 27.5 59.5t68.5 22.5z" />
    <glyph glyph-name="Amacron" unicode="&#x100;" horiz-adv-x="1193" 
d="M848 1776v-93h-504v93h504zM1098 137q33 -92 127 -102v-35h-318v35q33 4 56.5 29.5t7.5 72.5l-113 309h-569l-111 -309q-18 -47 5.5 -72.5t56.5 -29.5v-35h-271v35q96 10 127 102l426 1180q-45 39 -110 47v37q113 18 196 59h10zM324 543h499l-245 682h-9z" />
    <glyph glyph-name="amacron" unicode="&#x101;" horiz-adv-x="1085" 
d="M815 1411v-92h-504v92h504zM1079 59l17 -28q-49 -66 -135 -66q-141 0 -166 187h-11q-53 -94 -153.5 -140.5t-204.5 -46.5q-162 0 -263.5 79t-101.5 222q0 317 674 439l-8 86q-10 111 -74.5 180t-163.5 69q-96 0 -160.5 -51t-64.5 -127q0 -43 -21.5 -64.5t-47.5 -21.5
q-33 0 -53.5 20.5t-20.5 55.5q2 92 102.5 173t259.5 81q131 0 236.5 -84t122.5 -231l67 -627q12 -133 86 -133q33 -1 84 28zM457 31q135 0 229 94t90 211l-35 311q-252 -41 -400 -135t-148 -242q0 -106 73.5 -172.5t190.5 -66.5z" />
    <glyph glyph-name="Abreve" unicode="&#x102;" horiz-adv-x="1193" 
d="M596 1589q-113 0 -176.5 57.5t-89.5 141.5l57 20q23 -47 80 -86t129 -39q68 0 127 39t82 86l57 -20q-65 -199 -266 -199zM1098 137q33 -92 127 -102v-35h-318v35q33 4 56.5 29.5t7.5 72.5l-113 309h-569l-111 -309q-18 -47 5.5 -72.5t56.5 -29.5v-35h-271v35
q96 10 127 102l426 1180q-45 39 -110 47v37q113 18 196 59h10zM324 543h499l-245 682h-9z" />
    <glyph glyph-name="abreve" unicode="&#x103;" horiz-adv-x="1085" 
d="M563 1225q-113 0 -176 57t-90 141l57 21q23 -47 80.5 -86t128.5 -39q68 0 127.5 39t81.5 86l57 -21q-65 -198 -266 -198zM1079 59l17 -28q-49 -66 -135 -66q-141 0 -166 187h-11q-53 -94 -153.5 -140.5t-204.5 -46.5q-162 0 -263.5 79t-101.5 222q0 317 674 439l-8 86
q-10 111 -74.5 180t-163.5 69q-96 0 -160.5 -51t-64.5 -127q0 -43 -21.5 -64.5t-47.5 -21.5q-33 0 -53.5 20.5t-20.5 55.5q2 92 102.5 173t259.5 81q131 0 236.5 -84t122.5 -231l67 -627q12 -133 86 -133q33 -1 84 28zM457 31q135 0 229 94t90 211l-35 311
q-252 -41 -400 -135t-148 -242q0 -106 73.5 -172.5t190.5 -66.5z" />
    <glyph glyph-name="Aogonek" unicode="&#x104;" horiz-adv-x="1193" 
d="M1294 -250l54 -29q-76 -152 -250 -151q-92 0 -158 51t-66 139q0 63 40 129t104 111h-111v35q33 4 56.5 29.5t7.5 72.5l-113 309h-569l-111 -309q-18 -47 5.5 -72.5t56.5 -29.5v-35h-271v35q96 10 127 102l426 1180q-45 39 -110 47v37q113 18 196 59h10l480 -1323
q33 -92 127 -102v-35h-99q-66 -33 -104.5 -89t-38.5 -116q0 -66 46 -107.5t106 -41.5q104 0 159 104zM324 543h499l-245 682h-9z" />
    <glyph glyph-name="aogonek" unicode="&#x105;" horiz-adv-x="1198" 
d="M1155 -250l53 -29q-76 -152 -250 -151q-92 0 -157.5 51t-65.5 139q0 131 142 228q-63 41 -82 164h-11q-53 -94 -153.5 -140.5t-204.5 -46.5q-162 0 -263.5 79t-101.5 222q0 317 674 439l-8 86q-10 111 -74.5 180t-163.5 69q-96 0 -160.5 -51t-64.5 -127
q0 -43 -21.5 -64.5t-47.5 -21.5q-33 0 -53.5 20.5t-20.5 55.5q2 92 102.5 173t259.5 81q131 0 236.5 -84t122.5 -231l67 -627q12 -133 86 -133q33 0 84 28l17 -28q-49 -66 -135 -66q-14 0 -21 2q-96 -74 -96 -172q0 -66 46 -107.5t105 -41.5q105 0 160 104zM457 31
q135 0 229 94t90 211l-35 311q-252 -41 -400 -135t-148 -242q0 -106 73.5 -172.5t190.5 -66.5z" />
    <glyph glyph-name="Cacute" unicode="&#x106;" horiz-adv-x="1343" 
d="M659 1526l-43 37l152 229q31 43 72 43q29 0 45 -18.5t16 -40.5q0 -31 -43 -74zM719 -35q-281 0 -449 208t-168 503q0 203 75 381t229.5 294.5t357.5 116.5q61 0 145 -17t117 -17q86 0 143 34h15l69 -358l-51 -10q-100 303 -440 303q-90 0 -183.5 -46t-173 -128t-130 -209
t-50.5 -272q0 -346 155 -514t384 -168q319 0 453 356l55 -21q-127 -436 -553 -436z" />
    <glyph glyph-name="cacute" unicode="&#x107;" horiz-adv-x="1144" 
d="M553 1161l-43 37l152 229q31 43 71 43q29 0 45.5 -18t16.5 -41q0 -31 -43 -74zM631 -35q-225 0 -387 164t-162 414t156.5 406.5t392.5 156.5q184 0 306 -92t122 -183q0 -29 -16.5 -50t-47.5 -21q-33 0 -51 29.5t-34.5 70.5t-43 83t-94 71.5t-172.5 29.5
q-162 0 -282.5 -132t-120.5 -320q0 -258 130 -398.5t351 -140.5q121 0 220 79t144 185l41 -12q-35 -133 -155.5 -236.5t-296.5 -103.5z" />
    <glyph glyph-name="Ccircumflex" unicode="&#x108;" horiz-adv-x="1343" 
d="M393 1513l-39 50l318 243l317 -243l-39 -50l-278 152zM719 -35q-281 0 -449 208t-168 503q0 203 75 381t229.5 294.5t357.5 116.5q61 0 145 -17t117 -17q86 0 143 34h15l69 -358l-51 -10q-100 303 -440 303q-90 0 -183.5 -46t-173 -128t-130 -209t-50.5 -272
q0 -346 155 -514t384 -168q319 0 453 356l55 -21q-127 -436 -553 -436z" />
    <glyph glyph-name="ccircumflex" unicode="&#x109;" horiz-adv-x="1144" 
d="M293 1149l-39 49l317 244l318 -244l-39 -49l-279 151zM631 -35q-225 0 -387 164t-162 414t156.5 406.5t392.5 156.5q184 0 306 -92t122 -183q0 -29 -16.5 -50t-47.5 -21q-33 0 -51 29.5t-34.5 70.5t-43 83t-94 71.5t-172.5 29.5q-162 0 -282.5 -132t-120.5 -320
q0 -258 130 -398.5t351 -140.5q121 0 220 79t144 185l41 -12q-35 -133 -155.5 -236.5t-296.5 -103.5z" />
    <glyph glyph-name="Cdotaccent" unicode="&#x10a;" horiz-adv-x="1343" 
d="M670 1659q-39 0 -67 26.5t-28 65.5q0 41 27 68.5t68 27.5t68.5 -27.5t27.5 -68.5q0 -39 -27.5 -65.5t-68.5 -26.5zM719 -35q-281 0 -449 208t-168 503q0 203 75 381t229.5 294.5t357.5 116.5q61 0 145 -17t117 -17q86 0 143 34h15l69 -358l-51 -10q-100 303 -440 303
q-90 0 -183.5 -46t-173 -128t-130 -209t-50.5 -272q0 -346 155 -514t384 -168q319 0 453 356l55 -21q-127 -436 -553 -436z" />
    <glyph glyph-name="cdotaccent" unicode="&#x10b;" horiz-adv-x="1144" 
d="M571 1294q-39 0 -66.5 27t-27.5 65q0 41 26.5 69t67.5 28t69 -28t28 -69q0 -39 -28 -65.5t-69 -26.5zM631 -35q-225 0 -387 164t-162 414t156.5 406.5t392.5 156.5q184 0 306 -92t122 -183q0 -29 -16.5 -50t-47.5 -21q-33 0 -51 29.5t-34.5 70.5t-43 83t-94 71.5
t-172.5 29.5q-162 0 -282.5 -132t-120.5 -320q0 -258 130 -398.5t351 -140.5q121 0 220 79t144 185l41 -12q-35 -133 -155.5 -236.5t-296.5 -103.5z" />
    <glyph glyph-name="Ccaron" unicode="&#x10c;" horiz-adv-x="1343" 
d="M672 1534l-318 244l39 49l279 -152l278 152l39 -49zM719 -35q-281 0 -449 208t-168 503q0 203 75 381t229.5 294.5t357.5 116.5q61 0 145 -17t117 -17q86 0 143 34h15l69 -358l-51 -10q-100 303 -440 303q-90 0 -183.5 -46t-173 -128t-130 -209t-50.5 -272
q0 -346 155 -514t384 -168q319 0 453 356l55 -21q-127 -436 -553 -436z" />
    <glyph glyph-name="ccaron" unicode="&#x10d;" horiz-adv-x="1144" 
d="M571 1169l-317 244l39 49l278 -151l279 151l39 -49zM631 -35q-225 0 -387 164t-162 414t156.5 406.5t392.5 156.5q184 0 306 -92t122 -183q0 -29 -16.5 -50t-47.5 -21q-33 0 -51 29.5t-34.5 70.5t-43 83t-94 71.5t-172.5 29.5q-162 0 -282.5 -132t-120.5 -320
q0 -258 130 -398.5t351 -140.5q121 0 220 79t144 185l41 -12q-35 -133 -155.5 -236.5t-296.5 -103.5z" />
    <glyph glyph-name="Dcaron" unicode="&#x10e;" horiz-adv-x="1425" 
d="M967 1778l-318 -244l-317 244l39 49l278 -152l279 152zM569 1434q322 0 538 -212t216 -530q0 -297 -183.5 -494.5t-475.5 -197.5h-590v35q39 6 68.5 32.5t29.5 73.5v1151q0 47 -29.5 74t-68.5 33v35h495zM647 68q135 0 243.5 51t174 136t99.5 189.5t34 219.5
q0 319 -175 511.5t-470 192.5q-160 0 -256 -14v-1252q145 -34 350 -34z" />
    <glyph glyph-name="dcaron" unicode="&#x10f;" horiz-adv-x="1464" 
d="M1063 139q0 -47 30.5 -72.5t69.5 -31.5v-35q-115 -18 -192 -35h-23v193h-16q-84 -100 -167 -146.5t-208 -46.5q-223 0 -371.5 167t-148.5 415q0 240 139 399.5t356 159.5q246 0 406 -215h10v401q0 47 -30.5 74t-69.5 33v35q106 16 231 116l21 -6q-37 -115 -37 -370v-1035
zM1300 1468q55 0 85 -42t30 -101q0 -100 -53 -229t-139 -211l-66 53q51 45 104.5 134t63.5 181l-4 7q-8 -2 -21 -3q-45 0 -75.5 30t-30.5 79q0 45 30.5 73.5t75.5 28.5zM578 31q162 0 263 125t101 319q0 233 -120 399t-312 166q-154 0 -256 -128t-102 -322
q0 -240 121 -399.5t305 -159.5z" />
    <glyph glyph-name="Dcroat" unicode="&#x110;" horiz-adv-x="1425" 
d="M578 1434q324 0 538.5 -212t214.5 -530q0 -299 -183 -495.5t-476 -196.5h-592v33q100 18 100 106v541h-289v72h289v540q0 88 -100 107v35h498zM655 68q135 0 244 51t174.5 136t99 189.5t33.5 219.5q0 322 -175 513t-472 191q-160 0 -256 -14v-602h299l2 -72h-301v-578
q145 -34 352 -34z" />
    <glyph glyph-name="dcroat" unicode="&#x111;" horiz-adv-x="1306" 
d="M1108 141q0 -88 100 -106v-33q-115 -20 -192 -37h-23v195h-14q-84 -102 -168 -148.5t-207 -46.5q-225 0 -373.5 167t-148.5 415q0 242 139 400.5t357 158.5q246 0 405 -213h10v311h-358v70h358v20q0 88 -100 107v35q106 16 233 116l21 -8q-33 -100 -37 -270h236l2 -70
h-238v-30zM623 31q162 0 263 125t101 321q0 231 -119.5 397t-312.5 166q-154 0 -256 -128t-102 -322q0 -240 121 -399.5t305 -159.5z" />
    <glyph glyph-name="Emacron" unicode="&#x112;" horiz-adv-x="1228" 
d="M866 1776v-93h-504v93h504zM1161 283l47 -17l-90 -295h-12q-76 29 -254 29h-780v33q100 18 100 106v1153q0 47 -29.5 74t-70.5 33v35h954l92 -224l-43 -14q-4 6 -13 18.5t-47 41t-86 51t-136 41t-193 18.5q-170 0 -303 -18v-551h545q43 0 76.5 31.5t37.5 74.5h37l-2 -282
h-35q-6 43 -38.5 74.5t-73.5 31.5h-547v-637q154 -23 397 -22q106 0 194.5 22.5t136.5 54t81 62.5t45 53z" />
    <glyph glyph-name="emacron" unicode="&#x113;" horiz-adv-x="1214" 
d="M858 1411v-92h-504v92h504zM680 53q135 0 234.5 79t140.5 187l41 -14q-35 -137 -161 -238.5t-314 -101.5q-221 0 -380 161t-159 421q0 238 152.5 398.5t379.5 160.5q182 0 294 -83t153 -196q29 -76 63 -92l9 -55l-924 -229q29 -184 153.5 -291t317.5 -107zM606 1044
q-178 0 -291.5 -141t-113.5 -344q0 -29 2 -43l770 197q-14 133 -111.5 232t-255.5 99z" />
    <glyph glyph-name="Ebreve" unicode="&#x114;" horiz-adv-x="1228" 
d="M614 1589q-113 0 -176 57.5t-90 141.5l58 20q23 -47 80 -86t128 -39q68 0 127.5 39t81.5 86l58 -20q-66 -199 -267 -199zM1161 283l47 -17l-90 -295h-12q-76 29 -254 29h-780v33q100 18 100 106v1153q0 47 -29.5 74t-70.5 33v35h954l92 -224l-43 -14q-4 6 -13 18.5
t-47 41t-86 51t-136 41t-193 18.5q-170 0 -303 -18v-551h545q43 0 76.5 31.5t37.5 74.5h37l-2 -282h-35q-6 43 -38.5 74.5t-73.5 31.5h-547v-637q154 -23 397 -22q106 0 194.5 22.5t136.5 54t81 62.5t45 53z" />
    <glyph glyph-name="ebreve" unicode="&#x115;" horiz-adv-x="1214" 
d="M606 1225q-113 0 -176 57t-90 141l57 21q23 -47 80.5 -86t128.5 -39q68 0 127.5 39t81.5 86l57 -21q-65 -198 -266 -198zM680 53q135 0 234.5 79t140.5 187l41 -14q-35 -137 -161 -238.5t-314 -101.5q-221 0 -380 161t-159 421q0 238 152.5 398.5t379.5 160.5
q182 0 294 -83t153 -196q29 -76 63 -92l9 -55l-924 -229q29 -184 153.5 -291t317.5 -107zM606 1044q-178 0 -291.5 -141t-113.5 -344q0 -29 2 -43l770 197q-14 133 -111.5 232t-255.5 99z" />
    <glyph glyph-name="Edotaccent" unicode="&#x116;" horiz-adv-x="1228" 
d="M612 1659q-39 0 -66.5 26.5t-27.5 65.5q0 41 26.5 68.5t67.5 27.5t69 -27.5t28 -68.5q0 -39 -28 -65.5t-69 -26.5zM1161 283l47 -17l-90 -295h-12q-76 29 -254 29h-780v33q100 18 100 106v1153q0 47 -29.5 74t-70.5 33v35h954l92 -224l-43 -14q-4 6 -13 18.5t-47 41
t-86 51t-136 41t-193 18.5q-170 0 -303 -18v-551h545q43 0 76.5 31.5t37.5 74.5h37l-2 -282h-35q-6 43 -38.5 74.5t-73.5 31.5h-547v-637q154 -23 397 -22q106 0 194.5 22.5t136.5 54t81 62.5t45 53z" />
    <glyph glyph-name="edotaccent" unicode="&#x117;" horiz-adv-x="1214" 
d="M606 1294q-39 0 -66.5 27t-27.5 65q0 41 26.5 69t67.5 28t68.5 -28t27.5 -69q0 -39 -27.5 -65.5t-68.5 -26.5zM680 53q135 0 234.5 79t140.5 187l41 -14q-35 -137 -161 -238.5t-314 -101.5q-221 0 -380 161t-159 421q0 238 152.5 398.5t379.5 160.5q182 0 294 -83
t153 -196q29 -76 63 -92l9 -55l-924 -229q29 -184 153.5 -291t317.5 -107zM606 1044q-178 0 -291.5 -141t-113.5 -344q0 -29 2 -43l770 197q-14 133 -111.5 232t-255.5 99z" />
    <glyph glyph-name="Eogonek" unicode="&#x118;" horiz-adv-x="1228" 
d="M1286 -250l53 -29q-76 -152 -249 -151q-92 0 -158 51t-66 139q0 66 44 131.5t114 108.5h-952v33q100 18 100 106v1153q0 47 -29.5 74t-70.5 33v35h954l92 -224l-43 -14q-4 6 -13 18.5t-47 41t-86 51t-136 41t-193 18.5q-170 0 -303 -18v-551h545q43 0 76.5 31.5
t37.5 74.5h37l-2 -282h-35q-6 43 -38.5 74.5t-73.5 31.5h-547v-637q154 -23 397 -22q106 0 194.5 22.5t136.5 54t81 62.5t45 53l10 23l47 -17l-82 -266q-70 -33 -110.5 -88t-40.5 -117q0 -66 46 -107.5t105 -41.5q105 0 160 104z" />
    <glyph glyph-name="eogonek" unicode="&#x119;" horiz-adv-x="1214" 
d="M680 53q135 0 234.5 79t140.5 187l41 -14q-31 -125 -140.5 -223t-275.5 -115q-98 -72 -98 -172q0 -66 46 -107.5t105 -41.5q104 0 160 104l53 -29q-76 -152 -250 -151q-92 0 -157.5 51t-65.5 139q0 111 113 207q-211 12 -357.5 171t-146.5 409q0 238 152.5 398.5
t379.5 160.5q182 0 294 -83t153 -196q29 -76 63 -92l9 -55l-924 -229q29 -184 153.5 -291t317.5 -107zM606 1044q-178 0 -291.5 -141t-113.5 -344q0 -29 2 -43l770 197q-14 133 -111.5 232t-255.5 99z" />
    <glyph glyph-name="Ecaron" unicode="&#x11a;" horiz-adv-x="1228" 
d="M932 1778l-318 -244l-317 244l39 49l278 -152l279 152zM1161 283l47 -17l-90 -295h-12q-76 29 -254 29h-780v33q100 18 100 106v1153q0 47 -29.5 74t-70.5 33v35h954l92 -224l-43 -14q-4 6 -13 18.5t-47 41t-86 51t-136 41t-193 18.5q-170 0 -303 -18v-551h545
q43 0 76.5 31.5t37.5 74.5h37l-2 -282h-35q-6 43 -38.5 74.5t-73.5 31.5h-547v-637q154 -23 397 -22q106 0 194.5 22.5t136.5 54t81 62.5t45 53z" />
    <glyph glyph-name="ecaron" unicode="&#x11b;" horiz-adv-x="1214" 
d="M924 1413l-318 -244l-317 244l39 49l278 -151l279 151zM680 53q135 0 234.5 79t140.5 187l41 -14q-35 -137 -161 -238.5t-314 -101.5q-221 0 -380 161t-159 421q0 238 152.5 398.5t379.5 160.5q182 0 294 -83t153 -196q29 -76 63 -92l9 -55l-924 -229q29 -184 153.5 -291
t317.5 -107zM606 1044q-178 0 -291.5 -141t-113.5 -344q0 -29 2 -43l770 197q-14 133 -111.5 232t-255.5 99z" />
    <glyph glyph-name="Gcircumflex" unicode="&#x11c;" horiz-adv-x="1398" 
d="M698 1665l-278 -152l-39 50l317 243l318 -243l-39 -50zM1044 717h334v-33q-41 -8 -70.5 -33.5t-29.5 -72.5v-578h-64l-49 164h-10q-154 -199 -436 -199q-281 0 -449 208t-168 503q0 203 75 381t229.5 294.5t357.5 116.5q61 0 145 -17t117 -17q86 0 143 34h15l69 -358
l-51 -10q-100 303 -440 303q-90 0 -183.5 -46t-172 -128t-129 -209t-50.5 -272q0 -346 154 -514t383 -168q254 0 389 223v289q0 45 -34 71.5t-75 34.5v33z" />
    <glyph glyph-name="gcircumflex" unicode="&#x11d;" horiz-adv-x="1206" 
d="M602 1300l-278 -151l-39 49l317 244l318 -244l-39 -49zM944 1071q-43 0 -80 -55q160 -119 160 -342q0 -193 -121 -303.5t-311 -110.5q-131 0 -238 53q-88 0 -139 -33.5t-51 -78.5q0 -74 95 -102.5t370 -28.5q285 0 384 -48.5t99 -168.5q0 -133 -144.5 -220.5
t-369.5 -87.5q-514 0 -514 250q0 63 36 119.5t91 89.5v12q-125 51 -125 174q0 74 48 121t120 60v14q-127 121 -127 313q0 188 125 298t319 110q141 0 246 -62q96 145 225 146q55 0 90 -27.5t35 -72.5q0 -33 -19.5 -57.5t-57.5 -24.5q-33 0 -75 31.5t-71 31.5zM922 643
q0 186 -103.5 291.5t-263.5 105.5q-143 0 -234.5 -81.5t-91.5 -233.5q0 -180 106.5 -290.5t274.5 -110.5q133 0 222.5 83.5t89.5 235.5zM313 -14q-123 -45 -123 -172q0 -199 422 -199q193 0 307.5 65.5t114.5 153.5q0 82 -77.5 104.5t-325.5 22.5q-181 0 -318 25z" />
    <glyph glyph-name="Gbreve" unicode="&#x11e;" horiz-adv-x="1398" 
d="M698 1589q-113 0 -176 57.5t-90 141.5l57 20q23 -47 80.5 -86t128.5 -39q68 0 127.5 39t81.5 86l58 -20q-66 -199 -267 -199zM1044 717h334v-33q-41 -8 -70.5 -33.5t-29.5 -72.5v-578h-64l-49 164h-10q-154 -199 -436 -199q-281 0 -449 208t-168 503q0 203 75 381
t229.5 294.5t357.5 116.5q61 0 145 -17t117 -17q86 0 143 34h15l69 -358l-51 -10q-100 303 -440 303q-90 0 -183.5 -46t-172 -128t-129 -209t-50.5 -272q0 -346 154 -514t383 -168q254 0 389 223v289q0 45 -34 71.5t-75 34.5v33z" />
    <glyph glyph-name="gbreve" unicode="&#x11f;" horiz-adv-x="1206" 
d="M602 1225q-113 0 -176.5 57t-89.5 141l57 21q23 -47 80 -86t129 -39q68 0 127 39t82 86l57 -21q-65 -198 -266 -198zM944 1071q-43 0 -80 -55q160 -119 160 -342q0 -193 -121 -303.5t-311 -110.5q-131 0 -238 53q-88 0 -139 -33.5t-51 -78.5q0 -74 95 -102.5t370 -28.5
q285 0 384 -48.5t99 -168.5q0 -133 -144.5 -220.5t-369.5 -87.5q-514 0 -514 250q0 63 36 119.5t91 89.5v12q-125 51 -125 174q0 74 48 121t120 60v14q-127 121 -127 313q0 188 125 298t319 110q141 0 246 -62q96 145 225 146q55 0 90 -27.5t35 -72.5q0 -33 -19.5 -57.5
t-57.5 -24.5q-33 0 -75 31.5t-71 31.5zM922 643q0 186 -103.5 291.5t-263.5 105.5q-143 0 -234.5 -81.5t-91.5 -233.5q0 -180 106.5 -290.5t274.5 -110.5q133 0 222.5 83.5t89.5 235.5zM313 -14q-123 -45 -123 -172q0 -199 422 -199q193 0 307.5 65.5t114.5 153.5
q0 82 -77.5 104.5t-325.5 22.5q-181 0 -318 25z" />
    <glyph glyph-name="Gdotaccent" unicode="&#x120;" horiz-adv-x="1398" 
d="M698 1659q-39 0 -66.5 26.5t-27.5 65.5q0 41 26.5 68.5t67.5 27.5t69 -27.5t28 -68.5q0 -39 -28 -65.5t-69 -26.5zM1044 717h334v-33q-41 -8 -70.5 -33.5t-29.5 -72.5v-578h-64l-49 164h-10q-154 -199 -436 -199q-281 0 -449 208t-168 503q0 203 75 381t229.5 294.5
t357.5 116.5q61 0 145 -17t117 -17q86 0 143 34h15l69 -358l-51 -10q-100 303 -440 303q-90 0 -183.5 -46t-172 -128t-129 -209t-50.5 -272q0 -346 154 -514t383 -168q254 0 389 223v289q0 45 -34 71.5t-75 34.5v33z" />
    <glyph glyph-name="gdotaccent" unicode="&#x121;" horiz-adv-x="1206" 
d="M602 1294q-39 0 -66.5 27t-27.5 65q0 41 26.5 69t67.5 28t68.5 -28t27.5 -69q0 -39 -27.5 -65.5t-68.5 -26.5zM944 1071q-43 0 -80 -55q160 -119 160 -342q0 -193 -121 -303.5t-311 -110.5q-131 0 -238 53q-88 0 -139 -33.5t-51 -78.5q0 -74 95 -102.5t370 -28.5
q285 0 384 -48.5t99 -168.5q0 -133 -144.5 -220.5t-369.5 -87.5q-514 0 -514 250q0 63 36 119.5t91 89.5v12q-125 51 -125 174q0 74 48 121t120 60v14q-127 121 -127 313q0 188 125 298t319 110q141 0 246 -62q96 145 225 146q55 0 90 -27.5t35 -72.5q0 -33 -19.5 -57.5
t-57.5 -24.5q-33 0 -75 31.5t-71 31.5zM922 643q0 186 -103.5 291.5t-263.5 105.5q-143 0 -234.5 -81.5t-91.5 -233.5q0 -180 106.5 -290.5t274.5 -110.5q133 0 222.5 83.5t89.5 235.5zM313 -14q-123 -45 -123 -172q0 -199 422 -199q193 0 307.5 65.5t114.5 153.5
q0 82 -77.5 104.5t-325.5 22.5q-181 0 -318 25z" />
    <glyph glyph-name="uni0122" unicode="&#x122;" horiz-adv-x="1411" 
d="M1044 717h334v-33q-41 -8 -70.5 -33.5t-29.5 -72.5v-578h-64l-49 164h-10q-154 -199 -436 -199q-281 0 -449 208t-168 503q0 203 75 381t229.5 294.5t357.5 116.5q61 0 145 -17t117 -17q86 0 143 34h15l69 -358l-51 -10q-100 303 -440 303q-90 0 -183.5 -46t-172 -128
t-129 -209t-50.5 -272q0 -346 154 -514t383 -168q254 0 389 223v289q0 45 -34 71.5t-75 34.5v33zM748 -117q55 0 84.5 -42t29.5 -101q0 -100 -53 -229t-139 -211l-66 53q51 45 104.5 134t63.5 181l-4 6q-8 -2 -20 -2q-45 0 -76 30t-31 79q0 45 31 73.5t76 28.5z" />
    <glyph glyph-name="uni0123" unicode="&#x123;" horiz-adv-x="1191" 
d="M571 1221q-55 0 -84.5 42t-29.5 101q0 100 53 229t139 211l66 -53q-51 -45 -104.5 -134t-63.5 -181l4 -6q8 2 20 2q45 0 76 -30t31 -79q0 -45 -31 -73.5t-76 -28.5zM944 1071q-43 0 -80 -55q160 -119 160 -342q0 -193 -121 -303.5t-311 -110.5q-131 0 -238 53
q-88 0 -139 -33.5t-51 -78.5q0 -74 95 -102.5t370 -28.5q285 0 384 -48.5t99 -168.5q0 -133 -144.5 -220.5t-369.5 -87.5q-514 0 -514 250q0 63 36 119.5t91 89.5v12q-125 51 -125 174q0 74 48 121t120 60v14q-127 121 -127 313q0 188 125 298t319 110q141 0 246 -62
q96 145 225 146q55 0 90 -27.5t35 -72.5q0 -33 -19.5 -57.5t-57.5 -24.5q-33 0 -75 31.5t-71 31.5zM922 643q0 186 -103.5 291.5t-263.5 105.5q-143 0 -234.5 -81.5t-91.5 -233.5q0 -180 106.5 -290.5t274.5 -110.5q133 0 222.5 83.5t89.5 235.5zM313 -14
q-123 -45 -123 -172q0 -199 422 -199q193 0 307.5 65.5t114.5 153.5q0 82 -77.5 104.5t-325.5 22.5q-181 0 -318 25z" />
    <glyph glyph-name="Hcircumflex" unicode="&#x124;" horiz-adv-x="1404" 
d="M702 1665l-278 -152l-39 50l317 243l318 -243l-39 -50zM1333 1399q-39 -6 -69.5 -33t-30.5 -74v-1153q0 -47 30.5 -72.5t69.5 -31.5v-35h-323v35q39 6 69.5 31.5t30.5 72.5v598h-815v-598q0 -47 30.5 -72.5t69.5 -31.5v-35h-323v35q39 6 69.5 31.5t30.5 72.5v1153
q0 47 -30.5 74t-69.5 33v35h323v-35q-39 -6 -69.5 -33t-30.5 -74v-458h815v458q0 47 -30.5 74t-69.5 33v35h323v-35z" />
    <glyph glyph-name="hcircumflex" unicode="&#x125;" horiz-adv-x="1196" 
d="M516 1530l-278 151l-279 -151l-39 49l318 244l317 -244zM1065 139q2 -47 35 -72.5t71 -31.5v-35h-315v35q39 6 67.5 31.5t26.5 72.5l-30 514q-10 188 -93.5 287.5t-216.5 99.5q-137 0 -235.5 -92t-98.5 -225v-584q0 -47 31 -72.5t70 -31.5v-35h-316v35q39 6 70 31.5
t31 72.5v1153q0 47 -31 74t-70 33v35q106 16 232 116l20 -6q-37 -115 -37 -370v-252h11q115 184 329 184q180 0 292 -116t126 -339z" />
    <glyph glyph-name="Hbar" unicode="&#x126;" horiz-adv-x="1404" 
d="M1233 139q0 -88 100 -106v-33h-323v33q100 18 100 106v596h-813v-596q0 -88 98 -106v-33h-323v33q100 18 100 106v885h-147v70h147v198q0 88 -100 107v35h323v-35q-98 -18 -98 -107v-198h813v198q0 88 -100 107v35h323v-35q-100 -18 -100 -107v-198h145l2 -70h-147v-885z
M297 834h813v190h-813v-190z" />
    <glyph glyph-name="hbar" unicode="&#x127;" horiz-adv-x="1196" 
d="M1069 139q6 -88 107 -106v-33h-316v33q100 18 94 106l-30 512q-10 188 -93 287.5t-217 99.5q-137 0 -235 -92t-98 -225v-582q0 -88 100 -106v-33h-315v33q100 18 100 106v1063h-227v70h227v20q0 88 -100 107v35q106 16 231 116l20 -8q-33 -100 -36 -270h368l2 -70h-370
v-31v-251h10q113 184 330 184q180 0 291.5 -115t125.5 -338z" />
    <glyph glyph-name="Itilde" unicode="&#x128;" horiz-adv-x="468" 
d="M344 1636q-51 0 -133 61.5t-117 61.5q-63 0 -80 -90l-49 19q12 80 54 122.5t108 42.5q51 0 134 -60t118 -60q61 0 82 90l45 -17q-27 -170 -162 -170zM72 0v35q41 6 70.5 31.5t29.5 72.5v1153q0 47 -29.5 74t-70.5 33v35h325v-35q-41 -6 -70.5 -33t-29.5 -74v-1153
q0 -47 29.5 -72.5t70.5 -31.5v-35h-325z" />
    <glyph glyph-name="itilde" unicode="&#x129;" horiz-adv-x="438" 
d="M328 1272q-51 0 -133 61.5t-117 61.5q-63 0 -80 -90l-49 18q12 80 54 123t108 43q51 0 134 -60.5t117 -60.5q61 0 82 90l45 -16q-26 -170 -161 -170zM61 0v35q39 6 70 31.5t31 72.5v709q0 47 -31 72.5t-70 31.5v35q90 27 193 119h22v-967q0 -47 31 -72.5t70 -31.5v-35
h-316z" />
    <glyph glyph-name="Imacron" unicode="&#x12a;" horiz-adv-x="468" 
d="M-16 1683v93h503v-93h-503zM72 0v35q41 6 70.5 31.5t29.5 72.5v1153q0 47 -29.5 74t-70.5 33v35h325v-35q-41 -6 -70.5 -33t-29.5 -74v-1153q0 -47 29.5 -72.5t70.5 -31.5v-35h-325z" />
    <glyph glyph-name="imacron" unicode="&#x12b;" horiz-adv-x="438" 
d="M-33 1319v92h504v-92h-504zM61 0v35q39 6 70 31.5t31 72.5v709q0 47 -31 72.5t-70 31.5v35q90 27 193 119h22v-967q0 -47 31 -72.5t70 -31.5v-35h-316z" />
    <glyph glyph-name="Iogonek" unicode="&#x12e;" horiz-adv-x="468" 
d="M444 -250l54 -29q-76 -152 -250 -151q-92 0 -157.5 51t-65.5 139q0 66 44 131.5t113 108.5h-110v35q41 6 70.5 31.5t29.5 72.5v1153q0 47 -29.5 74t-70.5 33v35h325v-35q-41 -6 -70.5 -33t-29.5 -74v-1153q0 -47 29.5 -72.5t70.5 -31.5v-35h-112q-70 -33 -111 -88
t-41 -117q0 -66 46 -107.5t106 -41.5q104 0 159 104z" />
    <glyph glyph-name="iogonek" unicode="&#x12f;" horiz-adv-x="438" 
d="M219 1319q-43 0 -71.5 28.5t-28.5 69.5q0 45 28.5 74t71.5 29t73 -29t30 -74q0 -41 -30 -69.5t-73 -28.5zM446 -250l54 -29q-76 -152 -250 -151q-92 0 -157.5 51t-65.5 139q0 66 44 131.5t113 108.5h-123v35q39 6 70 31.5t31 72.5v709q0 47 -31 72.5t-70 31.5v35
q90 27 193 119h22v-967q0 -47 31 -72.5t70 -31.5v-35h-90q-70 -33 -111 -88t-41 -117q0 -66 46 -107.5t106 -41.5q104 0 159 104z" />
    <glyph glyph-name="Idotaccent" unicode="&#x130;" horiz-adv-x="468" 
d="M233 1659q-39 0 -66.5 26.5t-27.5 65.5q0 41 27 68.5t67.5 27.5t68.5 -27.5t28 -68.5q0 -39 -28 -65.5t-69 -26.5zM72 0v35q41 6 70.5 31.5t29.5 72.5v1153q0 47 -29.5 74t-70.5 33v35h325v-35q-41 -6 -70.5 -33t-29.5 -74v-1153q0 -47 29.5 -72.5t70.5 -31.5v-35h-325z
" />
    <glyph glyph-name="dotlessi" unicode="&#x131;" horiz-adv-x="438" 
d="M61 0v35q39 6 70 31.5t31 72.5v709q0 47 -31 72.5t-70 31.5v35q90 27 193 119h22v-967q0 -47 31 -72.5t70 -31.5v-35h-316z" />
    <glyph glyph-name="IJ" unicode="&#x132;" horiz-adv-x="886" 
d="M55 0v35q41 6 71 31.5t30 72.5v1153q0 47 -30 74t-71 33v35h326v-35q-41 -6 -70.5 -33t-29.5 -74v-1153q0 -47 29.5 -72.5t70.5 -31.5v-35h-326zM385 -375q-125 0 -195.5 53.5t-70.5 104.5q0 41 22.5 65.5t55.5 24.5q39 0 65.5 -28.5t41.5 -61.5t49 -61.5t85 -28.5
q84 0 125 81t41 298v1220q0 47 -29.5 74t-68.5 33v35h321v-35q-39 -6 -68.5 -33t-29.5 -74v-1220q0 -231 -84 -339t-260 -108z" />
    <glyph glyph-name="ij" unicode="&#x133;" horiz-adv-x="835" 
d="M264 1319q-43 0 -71.5 28.5t-28.5 69.5q0 45 28.5 74t71.5 29t73 -29t30 -74q0 -41 -30 -69.5t-73 -28.5zM629 1319q-43 0 -72 28.5t-29 69.5q0 45 29 74t72 29t72.5 -29t29.5 -74q0 -41 -29.5 -69.5t-72.5 -28.5zM106 0v35q39 6 70 31.5t31 72.5v709q0 47 -31 72.5
t-70 31.5v35q90 27 193 119h23v-967q0 -47 30.5 -72.5t69.5 -31.5v-35h-316zM463 -455q-98 0 -159.5 49.5t-61.5 120.5q0 31 18.5 50.5t48.5 19.5q33 0 51.5 -26.5t23.5 -59.5t29.5 -59.5t69.5 -26.5q51 0 82 39t31 100q0 47 -11.5 132t-11.5 130v834q0 47 -30.5 72.5
t-69.5 31.5v35q90 27 193 119h22v-1219q0 -172 -61.5 -257t-163.5 -85z" />
    <glyph glyph-name="Jcircumflex" unicode="&#x134;" 
d="M-53 1513l-39 50l317 243l318 -243l-39 -50l-279 152zM-51 -375q-125 0 -195.5 53.5t-70.5 104.5q0 41 22.5 65.5t54.5 24.5q39 0 66 -28.5t42 -61.5t49 -61.5t85 -28.5q84 0 125 81t41 298v1220q0 47 -29.5 74t-68.5 33v35h321v-35q-39 -6 -68.5 -33t-29.5 -74v-1220
q0 -231 -84 -339t-260 -108z" />
    <glyph glyph-name="jcircumflex" unicode="&#x135;" horiz-adv-x="534" 
d="M-10 1149l-39 49l317 244l318 -244l-39 -49l-279 151zM111 -455q-98 0 -160 49.5t-62 120.5q0 31 18.5 50.5t49.5 19.5q33 0 51.5 -26.5t23.5 -59.5t29.5 -59.5t69.5 -26.5q51 0 82 39t31 100q0 47 -11.5 132t-11.5 130v834q0 47 -30.5 72.5t-69.5 31.5v35q90 27 192 119
h23v-1219q0 -172 -61.5 -257t-163.5 -85z" />
    <glyph glyph-name="uni0136" unicode="&#x136;" horiz-adv-x="1306" 
d="M1180 139q55 -92 166 -104v-35h-349v35q37 6 49.5 29.5t-14.5 74.5l-426 699h-8l-301 -275v-424q0 -47 29.5 -72.5t70.5 -31.5v-35h-325l2 35q39 6 68.5 31.5t29.5 72.5v1153q0 47 -29.5 74t-68.5 33l-2 35h325v-35q-41 -6 -70.5 -33t-29.5 -74v-614h6l672 614
q47 49 40 75t-46 32v35h323v-35q-90 -10 -194 -107l-402 -364zM625 -117q55 0 84.5 -42t29.5 -101q0 -100 -53 -229t-139 -211l-66 53q51 45 104.5 134t63.5 181l-4 6q-8 -2 -20 -2q-45 0 -76 30t-31 79q0 45 31 73.5t76 28.5z" />
    <glyph glyph-name="uni0137" unicode="&#x137;" horiz-adv-x="1159" 
d="M975 139q63 -92 172 -104v-35h-336v35q37 6 48 29.5t-19 74.5l-365 541h-8l-191 -201v-340q0 -47 31 -72.5t70 -31.5v-35h-316v35q39 6 70 31.5t31 72.5v1153q0 47 -31 74t-70 33v35q106 16 234 116l20 -6q-39 -121 -39 -370v-599h11l331 353q86 90 152 134t137 44
q121 0 121 -102q0 -82 -88 -82q-33 0 -72 31.5t-67 31.5q-47 0 -133 -92q-111 -119 -117 -125zM557 -117q55 0 85 -42t30 -101q0 -100 -53.5 -229t-139.5 -211l-65 53q51 45 104 134t64 181l-4 6q-8 -2 -21 -2q-45 0 -75.5 30t-30.5 79q0 45 30.5 73.5t75.5 28.5z" />
    <glyph glyph-name="kgreenlandic" unicode="&#x138;" horiz-adv-x="1105" 
d="M975 139q63 -92 172 -104v-35h-336v35q37 6 48 29.5t-19 74.5l-365 541h-8l-191 -201v-340q0 -47 31 -72.5t70 -31.5v-35h-316v35q39 6 70 31.5t31 72.5v709q0 47 -31 73.5t-70 32.5v35q68 16 195 117h20v-531h11l331 353q86 90 152 134t137 44q121 0 121 -102
q0 -82 -88 -82q-33 0 -72 31.5t-67 31.5q-47 0 -133 -92q-111 -119 -117 -125z" />
    <glyph glyph-name="Lacute" unicode="&#x139;" horiz-adv-x="1163" 
d="M459 1702l-199 -176l-43 37l152 229q31 43 71 43q29 0 45.5 -18.5t16.5 -40.5q0 -31 -43 -74zM1098 301l45 -16l-88 -312h-11q-74 27 -253 27h-717v35q39 6 68.5 31.5t29.5 72.5v1153q0 47 -29.5 74t-68.5 33v35h323v-35q-41 -6 -70.5 -33t-29.5 -74v-1210
q111 -14 334 -14q109 0 195.5 23.5t135 58t82 69.5t43.5 60z" />
    <glyph glyph-name="lacute" unicode="&#x13a;" horiz-adv-x="438" 
d="M203 1595l-43 37l151 230q31 43 72 43q29 0 45 -18.5t16 -41.5q0 -31 -43 -73zM61 0v35q39 6 69 31.5t30 72.5v1153q0 47 -30 74t-69 33v35q106 16 232 116l20 -6q-37 -115 -37 -370v-1035q0 -47 31 -72.5t70 -31.5v-35h-316z" />
    <glyph glyph-name="uni013B" unicode="&#x13b;" horiz-adv-x="1179" 
d="M1098 301l45 -16l-88 -312h-11q-74 27 -253 27h-717v35q39 6 68.5 31.5t29.5 72.5v1153q0 47 -29.5 74t-68.5 33v35h323v-35q-41 -6 -70.5 -33t-29.5 -74v-1210q111 -14 334 -14q109 0 195.5 23.5t135 58t82 69.5t43.5 60zM580 -117q55 0 84.5 -42t29.5 -101
q0 -100 -53 -229t-139 -211l-66 53q51 45 104.5 134t63.5 181l-4 6q-8 -2 -20 -2q-45 0 -76 30t-31 79q0 45 31 73.5t76 28.5z" />
    <glyph glyph-name="uni013C" unicode="&#x13c;" horiz-adv-x="436" 
d="M276 139q0 -47 31 -72.5t70 -31.5v-35h-316v35q39 6 69 31.5t30 72.5v1153q0 47 -30 74t-69 33v35q106 16 232 116l20 -6q-37 -115 -37 -370v-1035zM215 -117q55 0 85 -42t30 -101q0 -100 -53.5 -229t-139.5 -211l-65 53q51 45 104 134t64 181l-4 6q-8 -2 -21 -2
q-45 0 -75.5 30t-30.5 79q0 45 30.5 73.5t75.5 28.5z" />
    <glyph glyph-name="Lcaron" unicode="&#x13d;" horiz-adv-x="1163" 
d="M858 1325q0 -100 -53 -229t-139 -211l-66 53q51 45 104.5 134t63.5 181l-4 7q-8 -2 -21 -3q-45 0 -75.5 30t-30.5 79q0 45 30.5 73.5t75.5 28.5q55 0 85 -42t30 -101zM1098 301l45 -16l-88 -312h-11q-74 27 -253 27h-717v35q39 6 68.5 31.5t29.5 72.5v1153q0 47 -29.5 74
t-68.5 33v35h323v-35q-41 -6 -70.5 -33t-29.5 -74v-1210q111 -14 334 -14q109 0 195.5 23.5t135 58t82 69.5t43.5 60z" />
    <glyph glyph-name="lcaron" unicode="&#x13e;" horiz-adv-x="794" 
d="M297 139q0 -47 30.5 -72.5t69.5 -31.5v-35h-315v35q39 6 68.5 31.5t29.5 72.5v1153q0 47 -29.5 74t-68.5 33v35q106 16 231 116l21 -6q-37 -115 -37 -370v-1035zM586 1468q55 0 84.5 -42t29.5 -101q0 -100 -53 -229t-139 -211l-66 53q51 45 104.5 134t63.5 181l-4 7
q-8 -2 -20 -3q-45 0 -76 30t-31 79q0 45 31 73.5t76 28.5z" />
    <glyph glyph-name="Ldot" unicode="&#x13f;" horiz-adv-x="1163" 
d="M1098 301l45 -16l-88 -312h-11q-74 27 -253 27h-717v35q39 6 68.5 31.5t29.5 72.5v1153q0 47 -29.5 74t-68.5 33v35h323v-35q-41 -6 -70.5 -33t-29.5 -74v-1210q111 -14 334 -14q109 0 195.5 23.5t135 58t82 69.5t43.5 60zM719 690q-45 0 -76 30t-31 79q0 45 31 73.5
t76 28.5q43 0 73.5 -28.5t30.5 -73.5q0 -49 -30.5 -79t-73.5 -30z" />
    <glyph glyph-name="ldot" unicode="&#x140;" horiz-adv-x="759" 
d="M88 0v35q39 6 68.5 31.5t29.5 72.5v1153q0 47 -29.5 74t-68.5 33v35q106 16 231 116l21 -6q-37 -115 -37 -370v-1035q0 -47 31 -72.5t69 -31.5v-35h-315zM573 690q-45 0 -75.5 30t-30.5 79q0 45 30.5 73.5t75.5 28.5q43 0 74 -28.5t31 -73.5q0 -49 -31 -79t-74 -30z" />
    <glyph glyph-name="Lslash" unicode="&#x141;" horiz-adv-x="1163" 
d="M1100 299l45 -14l-88 -314h-13q-76 29 -253 29h-717v33q100 18 100 106v643l-231 -133v70l231 133v440q0 88 -100 107v35h323v-35q-100 -18 -100 -107v-368l254 145v-70l-254 -145v-774q115 -12 336 -12q106 0 194 23.5t136.5 58t81 68.5t45.5 56z" />
    <glyph glyph-name="lslash" unicode="&#x142;" horiz-adv-x="438" 
d="M420 633l-146 -82v-412q0 -88 101 -106v-33h-316v33q100 18 101 106v346l-140 -79v69l140 80v737q0 88 -101 107v33q106 18 234 118l20 -8q-39 -119 -39 -371v-550l146 84v-72z" />
    <glyph glyph-name="Nacute" unicode="&#x143;" horiz-adv-x="1345" 
d="M864 1702l-198 -176l-43 37l151 229q31 43 72 43q29 0 45 -18.5t16 -40.5q0 -31 -43 -74zM1024 1434h270v-35q-41 -6 -71.5 -33t-30.5 -74v-1292h-92q-55 145 -148.5 283.5t-194 247t-198.5 215t-183 231.5t-130 254h-6v-1092q0 -47 29.5 -72.5t70.5 -31.5v-35h-268v35
q39 6 68.5 31.5t29.5 72.5v1153q0 47 -29.5 74t-68.5 33v35h196q49 -135 145.5 -277.5t201 -261.5t207 -234.5t184 -236.5t112.5 -229h6v1097q0 47 -29.5 74t-70.5 33v35z" />
    <glyph glyph-name="nacute" unicode="&#x144;" horiz-adv-x="1230" 
d="M715 1337l-199 -176l-43 37l152 229q31 43 71 43q29 0 45.5 -18t16.5 -41q0 -31 -43 -74zM1063 139q2 -47 33.5 -72.5t72.5 -31.5l-2 -35h-315v35q41 6 68.5 31.5t25.5 72.5l-31 514q-10 188 -93 287.5t-216 99.5q-135 0 -233.5 -92t-98.5 -225v-584q0 -47 31 -72.5
t70 -31.5v-35h-314v35q39 6 69 31.5t30 72.5v709q0 47 -30 72.5t-69 31.5v35q90 27 193 119h20v-184h9q115 184 331 184q180 0 292 -116t126 -339z" />
    <glyph glyph-name="uni0145" unicode="&#x145;" horiz-adv-x="1361" 
d="M1024 1434h270v-35q-41 -6 -71.5 -33t-30.5 -74v-1292h-92q-55 145 -148.5 283.5t-194 247t-198.5 215t-183 231.5t-130 254h-6v-1092q0 -47 29.5 -72.5t70.5 -31.5v-35h-268v35q39 6 68.5 31.5t29.5 72.5v1153q0 47 -29.5 74t-68.5 33v35h196q49 -135 145.5 -277.5
t201 -261.5t207 -234.5t184 -236.5t112.5 -229h6v1097q0 47 -29.5 74t-70.5 33v35zM684 -117q55 0 85 -42t30 -101q0 -100 -53.5 -229t-139.5 -211l-65 53q51 45 104 134t64 181l-4 6q-8 -2 -21 -2q-45 0 -75.5 30t-30.5 79q0 45 30.5 73.5t75.5 28.5z" />
    <glyph glyph-name="uni0146" unicode="&#x146;" horiz-adv-x="1222" 
d="M1063 139q2 -47 33.5 -72.5t72.5 -31.5l-2 -35h-315v35q41 6 68.5 31.5t25.5 72.5l-31 514q-10 188 -93 287.5t-216 99.5q-135 0 -233.5 -92t-98.5 -225v-584q0 -47 31 -72.5t70 -31.5v-35h-314v35q39 6 69 31.5t30 72.5v709q0 47 -30 72.5t-69 31.5v35q90 27 193 119h20
v-184h9q115 184 331 184q180 0 292 -116t126 -339zM604 -117q55 0 85 -42t30 -101q0 -100 -53.5 -229t-139.5 -211l-65 53q51 45 104 134t64 181l-4 6q-8 -2 -21 -2q-45 0 -75.5 30t-30.5 79q0 45 30.5 73.5t75.5 28.5z" />
    <glyph glyph-name="Ncaron" unicode="&#x147;" horiz-adv-x="1345" 
d="M989 1778l-317 -244l-318 244l39 49l279 -152l278 152zM1024 1434h270v-35q-41 -6 -71.5 -33t-30.5 -74v-1292h-92q-55 145 -148.5 283.5t-194 247t-198.5 215t-183 231.5t-130 254h-6v-1092q0 -47 29.5 -72.5t70.5 -31.5v-35h-268v35q39 6 68.5 31.5t29.5 72.5v1153
q0 47 -29.5 74t-68.5 33v35h196q49 -135 145.5 -277.5t201 -261.5t207 -234.5t184 -236.5t112.5 -229h6v1097q0 47 -29.5 74t-70.5 33v35z" />
    <glyph glyph-name="ncaron" unicode="&#x148;" horiz-adv-x="1230" 
d="M932 1413l-318 -244l-317 244l39 49l278 -151l279 151zM1063 139q2 -47 33.5 -72.5t72.5 -31.5l-2 -35h-315v35q41 6 68.5 31.5t25.5 72.5l-31 514q-10 188 -93 287.5t-216 99.5q-135 0 -233.5 -92t-98.5 -225v-584q0 -47 31 -72.5t70 -31.5v-35h-314v35q39 6 69 31.5
t30 72.5v709q0 47 -30 72.5t-69 31.5v35q90 27 193 119h20v-184h9q115 184 331 184q180 0 292 -116t126 -339z" />
    <glyph glyph-name="napostrophe" unicode="&#x149;" horiz-adv-x="1437" 
d="M172 1468q55 0 85 -42t30 -101q0 -100 -53.5 -229t-139.5 -211l-65 53q51 45 104 134t64 181l-4 7q-8 -2 -21 -3q-45 0 -75.5 30t-30.5 79q0 45 30.5 73.5t75.5 28.5zM1270 139q2 -47 33.5 -72.5t72.5 -31.5l-2 -35h-315v35q41 6 68.5 31.5t25.5 72.5l-31 514
q-10 188 -93 287.5t-216 99.5q-135 0 -233.5 -92t-98.5 -225v-584q0 -47 31 -72.5t70 -31.5v-35h-314v35q39 6 69 31.5t30 72.5v709q0 47 -30 72.5t-69 31.5v35q90 27 193 119h20v-184h8q115 184 332 184q180 0 292 -116t126 -339z" />
    <glyph glyph-name="Eng" unicode="&#x14a;" horiz-adv-x="1345" 
d="M1026 1434h266v-35q-100 -18 -100 -107v-1220q0 -231 -85 -340t-259 -109q-123 0 -194.5 54.5t-71.5 105.5q0 41 23.5 65.5t56.5 24.5q39 0 65.5 -28.5t40.5 -62.5t48 -62.5t85 -28.5q86 0 149.5 72.5t73.5 242.5q-55 143 -151 280.5t-199.5 245t-205 214t-189.5 231.5
t-133 252h-10l2 -1090q0 -88 100 -106v-33h-268v33q100 18 100 106v1153q0 88 -100 107v35h198q49 -135 145.5 -271.5t201 -248t207 -219t184 -223.5t112.5 -222h8v1042q0 88 -100 107v35z" />
    <glyph glyph-name="eng" unicode="&#x14b;" horiz-adv-x="1230" 
d="M614 1104q186 0 311.5 -117t127.5 -336v-764q0 -168 -79 -255t-188 -87q-86 0 -153.5 40t-67.5 108q0 31 18.5 50t49.5 19q33 0 51 -23.5t23.5 -51t30 -51t67.5 -23.5q131 0 131 237v801q2 182 -93 284.5t-235 102.5q-137 0 -235.5 -92t-98.5 -225v-582q0 -88 101 -106
v-33h-316v33q100 18 101 106v707q0 47 -31 73.5t-70 32.5v35q92 27 195 117h20v-184h11q112 184 329 184z" />
    <glyph glyph-name="Omacron" unicode="&#x14c;" horiz-adv-x="1544" 
d="M520 1683v93h504v-93h-504zM791 -35q-293 0 -491 227.5t-198 530.5q0 324 182.5 534.5t489.5 210.5q285 0 476.5 -221t191.5 -538q0 -305 -181 -524.5t-470 -219.5zM815 33q225 0 363.5 181t138.5 427q0 322 -163 541t-419 219q-231 0 -368.5 -173t-137.5 -437
q0 -199 73 -371t209 -279.5t304 -107.5z" />
    <glyph glyph-name="omacron" unicode="&#x14d;" horiz-adv-x="1255" 
d="M375 1319v92h504v-92h-504zM649 -35q-244 0 -405.5 173t-161.5 417q0 236 153.5 393.5t387.5 157.5q238 0 394.5 -168t156.5 -416q0 -240 -147 -398.5t-378 -158.5zM674 31q164 0 274.5 128t110.5 320q0 242 -129 401.5t-330 159.5q-172 0 -286.5 -126t-114.5 -320
q0 -231 134 -397t341 -166z" />
    <glyph glyph-name="Obreve" unicode="&#x14e;" horiz-adv-x="1544" 
d="M772 1589q-113 0 -176.5 57.5t-89.5 141.5l57 20q23 -47 80 -86t129 -39q68 0 127 39t82 86l57 -20q-65 -199 -266 -199zM791 -35q-293 0 -491 227.5t-198 530.5q0 324 182.5 534.5t489.5 210.5q285 0 476.5 -221t191.5 -538q0 -305 -181 -524.5t-470 -219.5zM815 33
q225 0 363.5 181t138.5 427q0 322 -163 541t-419 219q-231 0 -368.5 -173t-137.5 -437q0 -199 73 -371t209 -279.5t304 -107.5z" />
    <glyph glyph-name="obreve" unicode="&#x14f;" horiz-adv-x="1255" 
d="M627 1225q-113 0 -176.5 57t-90.5 141l58 21q23 -47 80 -86t129 -39q68 0 127 39t82 86l57 -21q-65 -198 -266 -198zM649 -35q-244 0 -405.5 173t-161.5 417q0 236 153.5 393.5t387.5 157.5q238 0 394.5 -168t156.5 -416q0 -240 -147 -398.5t-378 -158.5zM674 31
q164 0 274.5 128t110.5 320q0 242 -129 401.5t-330 159.5q-172 0 -286.5 -126t-114.5 -320q0 -231 134 -397t341 -166z" />
    <glyph glyph-name="Ohungarumlaut" unicode="&#x150;" horiz-adv-x="1544" 
d="M678 1526l-57 24l88 230q25 55 75 55q27 0 42.5 -16.5t15.5 -36.5q0 -25 -35 -80zM918 1526l-58 24l88 230q25 55 74 55q27 0 43 -16.5t16 -36.5q0 -25 -34 -80zM791 -35q-293 0 -491 227.5t-198 530.5q0 324 182.5 534.5t489.5 210.5q285 0 476.5 -221t191.5 -538
q0 -305 -181 -524.5t-470 -219.5zM815 33q225 0 363.5 181t138.5 427q0 322 -163 541t-419 219q-231 0 -368.5 -173t-137.5 -437q0 -199 73 -371t209 -279.5t304 -107.5z" />
    <glyph glyph-name="ohungarumlaut" unicode="&#x151;" horiz-adv-x="1255" 
d="M514 1161l-57 25l88 229q25 55 76 55q27 0 42 -16t15 -37q0 -25 -35 -80zM754 1161l-58 25q59 160 88 229q25 55 74 55q27 0 43.5 -16t16.5 -37q0 -25 -35 -80zM649 -35q-244 0 -405.5 173t-161.5 417q0 236 153.5 393.5t387.5 157.5q238 0 394.5 -168t156.5 -416
q0 -240 -147 -398.5t-378 -158.5zM674 31q164 0 274.5 128t110.5 320q0 242 -129 401.5t-330 159.5q-172 0 -286.5 -126t-114.5 -320q0 -231 134 -397t341 -166z" />
    <glyph glyph-name="OE" unicode="&#x152;" horiz-adv-x="2162" 
d="M2087 281l45 -15l-90 -295h-12q-76 29 -254 29h-766q-113 -29 -246 -29q-195 0 -355.5 107.5t-247.5 280.5t-87 370q0 324 182 535t489 211q123 0 250 -41h955l92 -224l-43 -14q-4 6 -13.5 17.5t-47 41t-86 51t-136.5 40t-192 18.5q-184 0 -303 -16v-553l546 2
q43 0 76 30.5t39 73.5h35l-2 -280h-35q-6 43 -38 74.5t-75 31.5h-546v-639q141 -20 397 -20q106 0 194.5 21.5t137.5 53t81.5 63.5t45.5 52zM201 797q0 -197 72.5 -370t208.5 -280.5t304 -107.5q197 0 312 65v1199q-152 104 -391 104q-231 0 -368.5 -173t-137.5 -437z" />
    <glyph glyph-name="oe" unicode="&#x153;" horiz-adv-x="2170" 
d="M1657 53q135 0 234.5 79t140.5 185l41 -12q-35 -137 -161 -239.5t-315 -102.5q-150 0 -277.5 78t-197.5 217h-4q-63 -137 -187 -216t-282 -79q-244 0 -405.5 174t-161.5 418q0 233 153.5 391t387.5 158q160 0 289.5 -81t197.5 -220h4q66 137 193 219t284 82
q182 0 290 -82t151 -195q35 -94 69 -106l8 -55l-933 -127q6 -223 135 -354.5t346 -131.5zM1583 1042q-166 0 -278.5 -124.5t-126.5 -309.5l772 105q-14 133 -111.5 231t-255.5 98zM674 29q164 0 274.5 128t110.5 322q0 242 -129 400.5t-328 158.5q-176 0 -290.5 -126
t-114.5 -320q0 -229 135 -396t342 -167z" />
    <glyph glyph-name="Racute" unicode="&#x154;" horiz-adv-x="1351" 
d="M774 1702l-199 -176l-43 37l152 229q31 43 72 43q29 0 45 -18.5t16 -40.5q0 -31 -43 -74zM1376 45l6 -35q-82 -33 -108 -33q-186 0 -211 285q-18 229 -105.5 305t-306.5 76h-356v-504q0 -47 30.5 -72.5t69.5 -31.5v-35h-323v35q39 6 69.5 31.5t30.5 72.5v1153
q0 47 -30.5 74t-69.5 33v35h585q264 0 415 -101.5t151 -294.5q0 -141 -86 -233t-248 -127v-12q137 -20 198.5 -104.5t83.5 -254.5q20 -152 59.5 -206t145.5 -56zM643 1366q-215 0 -348 -25v-626h373q209 0 318.5 85t109.5 238.5t-123 240.5t-330 87z" />
    <glyph glyph-name="racute" unicode="&#x155;" horiz-adv-x="831" 
d="M385 1337l-199 -176l-43 37l152 229q31 43 72 43q29 0 45 -18t16 -41q0 -31 -43 -74zM627 1106q98 0 141 -37t43 -90q0 -35 -27.5 -61.5t-72.5 -26.5q-51 0 -92 56.5t-91 56.5q-70 0 -161 -83t-91 -198v-584q0 -47 31 -72.5t70 -31.5v-35h-316v35q39 6 69 31.5t30 72.5
v709q0 47 -30 72.5t-69 31.5v35q90 27 193 119h22v-217h11q72 104 163 160.5t177 56.5z" />
    <glyph glyph-name="uni0156" unicode="&#x156;" horiz-adv-x="1398" 
d="M1376 45l6 -35q-82 -33 -108 -33q-186 0 -211 285q-18 229 -104.5 301t-307.5 72h-356v-496q0 -47 30.5 -72.5t69.5 -31.5v-35h-323v35q39 6 69.5 31.5t30.5 72.5v1153q0 47 -30.5 74t-69.5 33v35h585q264 0 415 -102.5t151 -295.5q0 -150 -93.5 -245t-269.5 -125v-9
q147 0 218 -88t93 -262q20 -152 59.5 -206t145.5 -56zM643 1366q-215 0 -348 -25v-634h373q209 0 318.5 87t109.5 242q0 154 -124 242t-329 88zM625 -117q55 0 84.5 -42t29.5 -101q0 -100 -53 -229t-139 -211l-66 53q51 45 104.5 134t63.5 181l-4 6q-8 -2 -20 -2
q-45 0 -76 30t-31 79q0 45 31 73.5t76 28.5z" />
    <glyph glyph-name="uni0157" unicode="&#x157;" horiz-adv-x="839" 
d="M627 1106q98 0 141 -37t43 -90q0 -35 -27.5 -61.5t-72.5 -26.5q-51 0 -92 56.5t-91 56.5q-70 0 -161 -83t-91 -198v-584q0 -47 31 -72.5t70 -31.5v-35h-316v35q39 6 69 31.5t30 72.5v709q0 47 -30 72.5t-69 31.5v35q90 27 193 119h22v-217h11q72 104 163 160.5t177 56.5z
M223 -117q55 0 85 -42t30 -101q0 -100 -53.5 -229t-139.5 -211l-65 53q51 45 104.5 134t63.5 181l-4 6q-8 -2 -21 -2q-45 0 -75.5 30t-30.5 79q0 45 30.5 73.5t75.5 28.5z" />
    <glyph glyph-name="Rcaron" unicode="&#x158;" horiz-adv-x="1351" 
d="M993 1778l-317 -244l-318 244l39 49l279 -152l278 152zM1376 45l6 -35q-82 -33 -108 -33q-186 0 -211 285q-18 229 -105.5 305t-306.5 76h-356v-504q0 -47 30.5 -72.5t69.5 -31.5v-35h-323v35q39 6 69.5 31.5t30.5 72.5v1153q0 47 -30.5 74t-69.5 33v35h585
q264 0 415 -101.5t151 -294.5q0 -141 -86 -233t-248 -127v-12q137 -20 198.5 -104.5t83.5 -254.5q20 -152 59.5 -206t145.5 -56zM643 1366q-215 0 -348 -25v-626h373q209 0 318.5 85t109.5 238.5t-123 240.5t-330 87z" />
    <glyph glyph-name="rcaron" unicode="&#x159;" horiz-adv-x="831" 
d="M733 1413l-317 -244l-318 244l39 49l279 -151l278 151zM627 1106q98 0 141 -37t43 -90q0 -35 -27.5 -61.5t-72.5 -26.5q-51 0 -92 56.5t-91 56.5q-70 0 -161 -83t-91 -198v-584q0 -47 31 -72.5t70 -31.5v-35h-316v35q39 6 69 31.5t30 72.5v709q0 47 -30 72.5t-69 31.5v35
q90 27 193 119h22v-217h11q72 104 163 160.5t177 56.5z" />
    <glyph glyph-name="Sacute" unicode="&#x15a;" horiz-adv-x="1396" 
d="M598 1526l-43 37l152 229q31 43 71 43q29 0 45.5 -18.5t16.5 -40.5q0 -31 -43 -74zM768 -35q-98 0 -227 35t-199 35q-25 0 -50.5 -9.5t-37.5 -17.5l-12 -8h-13l-147 424l45 20q217 -412 641 -411q180 0 303 95t123 243q0 63 -29.5 113.5t-67.5 81t-116 60t-127 43
t-149 38.5q-82 20 -116 29t-105.5 30.5t-105.5 40t-83 50.5t-71.5 65.5t-41 82t-18.5 105.5q0 147 134 252.5t331 105.5q109 0 235.5 -32.5t163.5 -32.5q16 0 32.5 7t24.5 15l11 9h18l137 -392l-41 -18q-193 377 -581 377q-166 0 -265.5 -73t-99.5 -177q0 -35 8.5 -63.5
t32 -53t40.5 -42t60.5 -37t67 -30t80.5 -27.5t80.5 -23.5t89.5 -22.5q82 -23 120 -33t111.5 -34.5t110.5 -45t89 -56.5t76.5 -75t44 -93t19.5 -120q0 -186 -146.5 -308t-379.5 -122z" />
    <glyph glyph-name="sacute" unicode="&#x15b;" horiz-adv-x="1075" 
d="M438 1161l-43 37l152 229q31 43 71 43q29 0 45.5 -18t16.5 -41q0 -31 -43 -74zM621 -35q-86 0 -204 33t-163 33q-23 0 -43.5 -8.5t-30.5 -14.5l-10 -8h-12l-97 346l35 14q115 -178 236 -253.5t289 -75.5q121 0 209 58t88 169q0 57 -28 101t-81 72t-109.5 44.5
t-134.5 30.5q-72 12 -124 24.5t-119.5 37t-109.5 55t-72.5 80t-30.5 110.5q0 119 105 206t267 87q80 0 178.5 -33t141.5 -33q18 0 36.5 7.5t26.5 13.5l8 8h15l69 -289l-36 -16q-156 276 -439 276q-123 0 -196.5 -53t-73.5 -129q0 -70 58.5 -119t128 -70.5t186.5 -45.5
q55 -12 68.5 -14.5t64.5 -14.5t67.5 -19.5t58.5 -23.5t58.5 -30.5t44 -38t38.5 -49t20.5 -59.5t9.5 -73q0 -147 -110.5 -241.5t-282.5 -94.5z" />
    <glyph glyph-name="Scircumflex" unicode="&#x15c;" horiz-adv-x="1396" 
d="M420 1513l-39 50l317 243l318 -243l-39 -50l-279 152zM768 -35q-98 0 -227 35t-199 35q-25 0 -50.5 -9.5t-37.5 -17.5l-12 -8h-13l-147 424l45 20q217 -412 641 -411q180 0 303 95t123 243q0 63 -29.5 113.5t-67.5 81t-116 60t-127 43t-149 38.5q-82 20 -116 29
t-105.5 30.5t-105.5 40t-83 50.5t-71.5 65.5t-41 82t-18.5 105.5q0 147 134 252.5t331 105.5q109 0 235.5 -32.5t163.5 -32.5q16 0 32.5 7t24.5 15l11 9h18l137 -392l-41 -18q-193 377 -581 377q-166 0 -265.5 -73t-99.5 -177q0 -35 8.5 -63.5t32 -53t40.5 -42t60.5 -37
t67 -30t80.5 -27.5t80.5 -23.5t89.5 -22.5q82 -23 120 -33t111.5 -34.5t110.5 -45t89 -56.5t76.5 -75t44 -93t19.5 -120q0 -186 -146.5 -308t-379.5 -122z" />
    <glyph glyph-name="scircumflex" unicode="&#x15d;" horiz-adv-x="1075" 
d="M258 1149l-39 49l318 244l317 -244l-39 -49l-278 151zM621 -35q-86 0 -204 33t-163 33q-23 0 -43.5 -8.5t-30.5 -14.5l-10 -8h-12l-97 346l35 14q115 -178 236 -253.5t289 -75.5q121 0 209 58t88 169q0 57 -28 101t-81 72t-109.5 44.5t-134.5 30.5q-72 12 -124 24.5
t-119.5 37t-109.5 55t-72.5 80t-30.5 110.5q0 119 105 206t267 87q80 0 178.5 -33t141.5 -33q18 0 36.5 7.5t26.5 13.5l8 8h15l69 -289l-36 -16q-156 276 -439 276q-123 0 -196.5 -53t-73.5 -129q0 -70 58.5 -119t128 -70.5t186.5 -45.5q55 -12 68.5 -14.5t64.5 -14.5
t67.5 -19.5t58.5 -23.5t58.5 -30.5t44 -38t38.5 -49t20.5 -59.5t9.5 -73q0 -147 -110.5 -241.5t-282.5 -94.5z" />
    <glyph glyph-name="Scedilla" unicode="&#x15e;" horiz-adv-x="1396" 
d="M768 -35h-27l-47 -108q35 12 68 12q80 0 129 -39t49 -111q0 -74 -71.5 -131t-194.5 -57q-96 0 -156.5 31.5t-60.5 75.5q0 27 16 44t43 17q31 0 47.5 -17.5t22.5 -39t29.5 -39t68.5 -17.5q68 0 103.5 30t35.5 77q0 37 -25.5 60.5t-70.5 23.5q-63 0 -100 -37l-43 20l88 211
q-45 6 -153.5 35t-176.5 29q-25 0 -50.5 -9.5t-37.5 -17.5l-12 -8h-13l-147 424l45 20q217 -412 641 -411q180 0 303 95t123 243q0 63 -29.5 113.5t-67.5 81t-116 60t-127 43t-149 38.5q-82 20 -116 29t-105.5 30.5t-105.5 40t-83 50.5t-71.5 65.5t-41 82t-18.5 105.5
q0 147 134 252.5t331 105.5q109 0 235.5 -32.5t163.5 -32.5q16 0 32.5 7t24.5 15l11 9h18l137 -392l-41 -18q-193 377 -581 377q-166 0 -265.5 -73t-99.5 -177q0 -35 8.5 -63.5t32 -53t40.5 -42t60.5 -37t67 -30t80.5 -27.5t80.5 -23.5t89.5 -22.5q82 -23 120 -33
t111.5 -34.5t110.5 -45t89 -56.5t76.5 -75t44 -93t19.5 -120q0 -186 -146.5 -308t-379.5 -122z" />
    <glyph glyph-name="scedilla" unicode="&#x15f;" horiz-adv-x="1075" 
d="M621 -35q-27 0 -39 2l-47 -110q35 12 67 12q80 0 129 -39t49 -111q0 -74 -71.5 -131t-194.5 -57q-96 0 -156.5 31.5t-60.5 75.5q0 27 16.5 44t42.5 17q31 0 47.5 -17.5t22.5 -39t29.5 -39t68.5 -17.5q68 0 104 30t36 77q0 37 -26 60.5t-71 23.5q-63 0 -100 -37l-43 20
l90 215q-35 6 -125 31t-135 25q-23 0 -43.5 -8.5t-30.5 -14.5l-10 -8h-12l-97 346l35 14q115 -178 236 -253.5t289 -75.5q121 0 209 58t88 169q0 57 -28 101t-81 72t-109.5 44.5t-134.5 30.5q-72 12 -124 24.5t-119.5 37t-109.5 55t-72.5 80t-30.5 110.5q0 119 105 206
t267 87q80 0 178.5 -33t141.5 -33q18 0 36.5 7.5t26.5 13.5l8 8h15l69 -289l-36 -16q-156 276 -439 276q-123 0 -196.5 -53t-73.5 -129q0 -70 58.5 -119t128 -70.5t186.5 -45.5q55 -12 68.5 -14.5t64.5 -14.5t67.5 -19.5t58.5 -23.5t58.5 -30.5t44 -38t38.5 -49t20.5 -59.5
t9.5 -73q0 -147 -110.5 -241.5t-282.5 -94.5z" />
    <glyph glyph-name="Scaron" unicode="&#x160;" horiz-adv-x="1396" 
d="M698 1534l-317 244l39 49l278 -152l279 152l39 -49zM768 -35q-98 0 -227 35t-199 35q-25 0 -50.5 -9.5t-37.5 -17.5l-12 -8h-13l-147 424l45 20q217 -412 641 -411q180 0 303 95t123 243q0 63 -29.5 113.5t-67.5 81t-116 60t-127 43t-149 38.5q-82 20 -116 29
t-105.5 30.5t-105.5 40t-83 50.5t-71.5 65.5t-41 82t-18.5 105.5q0 147 134 252.5t331 105.5q109 0 235.5 -32.5t163.5 -32.5q16 0 32.5 7t24.5 15l11 9h18l137 -392l-41 -18q-193 377 -581 377q-166 0 -265.5 -73t-99.5 -177q0 -35 8.5 -63.5t32 -53t40.5 -42t60.5 -37
t67 -30t80.5 -27.5t80.5 -23.5t89.5 -22.5q82 -23 120 -33t111.5 -34.5t110.5 -45t89 -56.5t76.5 -75t44 -93t19.5 -120q0 -186 -146.5 -308t-379.5 -122z" />
    <glyph glyph-name="scaron" unicode="&#x161;" horiz-adv-x="1075" 
d="M537 1169l-318 244l39 49l279 -151l278 151l39 -49zM621 -35q-86 0 -204 33t-163 33q-23 0 -43.5 -8.5t-30.5 -14.5l-10 -8h-12l-97 346l35 14q115 -178 236 -253.5t289 -75.5q121 0 209 58t88 169q0 57 -28 101t-81 72t-109.5 44.5t-134.5 30.5q-72 12 -124 24.5
t-119.5 37t-109.5 55t-72.5 80t-30.5 110.5q0 119 105 206t267 87q80 0 178.5 -33t141.5 -33q18 0 36.5 7.5t26.5 13.5l8 8h15l69 -289l-36 -16q-156 276 -439 276q-123 0 -196.5 -53t-73.5 -129q0 -70 58.5 -119t128 -70.5t186.5 -45.5q55 -12 68.5 -14.5t64.5 -14.5
t67.5 -19.5t58.5 -23.5t58.5 -30.5t44 -38t38.5 -49t20.5 -59.5t9.5 -73q0 -147 -110.5 -241.5t-282.5 -94.5z" />
    <glyph glyph-name="uni0162" unicode="&#x162;" horiz-adv-x="1284" 
d="M1159 1468l92 -301l-45 -16q-4 8 -11 22.5t-42 52.5t-81 65.5t-132 51t-190 23.5h-41v-1227q0 -47 30.5 -72.5t69.5 -31.5v-35h-131l-62 -143q35 12 68 12q80 0 129 -39t49 -111q0 -74 -71.5 -131t-194.5 -57q-96 0 -156.5 31.5t-60.5 75.5q0 27 16.5 44t42.5 17
q31 0 47.5 -17.5t22.5 -39t29.5 -39t68.5 -17.5q68 0 103.5 30t35.5 77q0 37 -25.5 60.5t-70.5 23.5q-63 0 -100 -37l-43 20l100 240h-121v35q39 6 70 31.5t31 72.5v1227h-41q-104 0 -190.5 -22.5t-133.5 -54.5t-79.5 -62.5t-43.5 -52.5l-10 -23l-47 16l94 301h12
q70 -35 215 -34h570q145 0 215 34h12z" />
    <glyph glyph-name="uni0163" unicode="&#x163;" horiz-adv-x="655" 
d="M500 -131q80 0 129 -39t49 -111q0 -74 -71.5 -131t-194.5 -57q-96 0 -156.5 31.5t-60.5 75.5q0 27 16 44t43 17q31 0 47 -17.5t22.5 -39t30 -39t68.5 -17.5q68 0 103.5 30t35.5 77q0 37 -25.5 60.5t-70.5 23.5q-63 0 -100 -37l-43 20l86 205q-193 14 -193 258v783h-174
v34q135 47 179 112t67 224h45v-307h293v-63h-293v-789q0 -86 32.5 -128t108.5 -42q68 0 135 25l19 -60q-57 -31 -146 -45l-49 -110q35 12 68 12z" />
    <glyph glyph-name="Tcaron" unicode="&#x164;" horiz-adv-x="1292" 
d="M963 1778l-318 -244l-317 244l39 49l278 -152l279 152zM1159 1468l92 -301l-45 -16q-4 8 -11 22.5t-42 52.5t-81 65.5t-132 51t-190 23.5h-41v-1227q0 -47 30.5 -72.5t69.5 -31.5v-35h-324v35q39 6 70 31.5t31 72.5v1227h-41q-104 0 -190.5 -22.5t-133.5 -54.5
t-79.5 -62.5t-43.5 -52.5l-10 -23l-47 16l94 301h12q70 -35 215 -34h570q145 0 215 34h12z" />
    <glyph glyph-name="tcaron" unicode="&#x165;" horiz-adv-x="1044" 
d="M858 1468q55 0 85 -42t30 -101q0 -100 -53.5 -229t-139.5 -211l-65 53q51 45 104 134t64 181l-4 7q-8 -2 -21 -3q-45 0 -75.5 30t-30.5 79q0 45 30.5 73.5t75.5 28.5zM498 47q68 0 135 25l18 -60q-84 -47 -192 -47q-104 0 -161.5 57.5t-57.5 200.5v783h-174v34
q135 47 179 112t66 224h45v-307h293v-63h-293v-789q0 -86 33 -128t109 -42z" />
    <glyph glyph-name="Tbar" unicode="&#x166;" horiz-adv-x="1292" 
d="M1157 1468l94 -303l-45 -14q-4 8 -11 22.5t-42 51.5t-81 65.5t-132 51t-190 22.5h-41v-627h313v-71h-313v-527q0 -88 100 -106v-33h-326v33q100 18 101 106v527h-314v69h314v629h-41q-104 0 -189.5 -21.5t-133.5 -53.5t-79.5 -63.5t-42.5 -54.5l-12 -20l-45 14l92 303h12
q70 -35 217 -34h568q147 0 217 34h10z" />
    <glyph glyph-name="tbar" unicode="&#x167;" horiz-adv-x="688" 
d="M608 70l19 -60q-90 -47 -193 -47q-104 0 -160.5 57.5t-56.5 200.5v340h-174v70h174v375h-174v34q133 45 177 109.5t67 224.5h45v-305h293v-63h-293v-375h280v-70h-280v-344q0 -88 31.5 -129t109.5 -41q67 0 135 23z" />
    <glyph glyph-name="Utilde" unicode="&#x168;" horiz-adv-x="1275" 
d="M745 1636q-51 0 -133 61.5t-116 61.5q-63 0 -80 -90l-49 19q12 80 54 122.5t107 42.5q51 0 134 -60t118 -60q61 0 82 90l45 -17q-27 -170 -162 -170zM655 -37q-307 0 -454.5 166t-122.5 461l61 702q4 47 -22.5 74t-65.5 33v35h332v-35q-41 -6 -74 -33t-37 -74l-61 -700
q-23 -256 91 -408.5t353 -152.5q254 0 372 154.5t95 406.5l-59 690q-4 43 -40 77t-79 38v37h281v-37q-41 -6 -68 -38t-24 -75l59 -694q25 -283 -111.5 -455t-425.5 -172z" />
    <glyph glyph-name="utilde" unicode="&#x169;" horiz-adv-x="1173" 
d="M444 1395q-63 0 -79 -90l-50 18q12 80 54.5 123t107.5 43q51 0 134 -60.5t118 -60.5q61 0 82 90l45 -16q-27 -170 -162 -170q-51 0 -133 61.5t-117 61.5zM1012 139q0 -47 30.5 -72.5t69.5 -31.5v-35q-115 -18 -192 -35h-23v185h-14q-125 -184 -332 -185
q-193 0 -302.5 115t-107.5 338v430q0 47 -30.5 72.5t-69.5 31.5v35q92 27 195 119h22v-690q0 -188 80 -286.5t225 -98.5q137 0 235.5 90t98.5 227v500q0 47 -30.5 73.5t-69.5 32.5v35q92 25 194 117h21v-967z" />
    <glyph glyph-name="Umacron" unicode="&#x16a;" horiz-adv-x="1275" 
d="M385 1683v93h504v-93h-504zM655 -37q-307 0 -454.5 166t-122.5 461l61 702q4 47 -22.5 74t-65.5 33v35h332v-35q-41 -6 -74 -33t-37 -74l-61 -700q-23 -256 91 -408.5t353 -152.5q254 0 372 154.5t95 406.5l-59 690q-4 43 -40 77t-79 38v37h281v-37q-41 -6 -68 -38
t-24 -75l59 -694q25 -283 -111.5 -455t-425.5 -172z" />
    <glyph glyph-name="umacron" unicode="&#x16b;" horiz-adv-x="1173" 
d="M838 1411v-92h-504v92h504zM1012 139q0 -47 30.5 -72.5t69.5 -31.5v-35q-115 -18 -192 -35h-23v185h-14q-125 -184 -332 -185q-193 0 -302.5 115t-107.5 338v430q0 47 -30.5 72.5t-69.5 31.5v35q92 27 195 119h22v-690q0 -188 80 -286.5t225 -98.5q137 0 235.5 90
t98.5 227v500q0 47 -30.5 73.5t-69.5 32.5v35q92 25 194 117h21v-967z" />
    <glyph glyph-name="Ubreve" unicode="&#x16c;" horiz-adv-x="1275" 
d="M637 1589q-113 0 -176.5 57.5t-89.5 141.5l57 20q23 -47 80 -86t129 -39q68 0 127 39t82 86l57 -20q-65 -199 -266 -199zM655 -37q-307 0 -454.5 166t-122.5 461l61 702q4 47 -22.5 74t-65.5 33v35h332v-35q-41 -6 -74 -33t-37 -74l-61 -700q-23 -256 91 -408.5
t353 -152.5q254 0 372 154.5t95 406.5l-59 690q-4 43 -40 77t-79 38v37h281v-37q-41 -6 -68 -38t-24 -75l59 -694q25 -283 -111.5 -455t-425.5 -172z" />
    <glyph glyph-name="ubreve" unicode="&#x16d;" horiz-adv-x="1173" 
d="M586 1225q-113 0 -176.5 57t-90.5 141l58 21q23 -47 80 -86t129 -39q68 0 127 39t82 86l57 -21q-65 -198 -266 -198zM1012 139q0 -47 30.5 -72.5t69.5 -31.5v-35q-115 -18 -192 -35h-23v185h-14q-125 -184 -332 -185q-193 0 -302.5 115t-107.5 338v430q0 47 -30.5 72.5
t-69.5 31.5v35q92 27 195 119h22v-690q0 -188 80 -286.5t225 -98.5q137 0 235.5 90t98.5 227v500q0 47 -30.5 73.5t-69.5 32.5v35q92 25 194 117h21v-967z" />
    <glyph glyph-name="Uring" unicode="&#x16e;" horiz-adv-x="1275" 
d="M637 1538q-90 0 -153.5 63.5t-63.5 151.5q0 90 62.5 153.5t154.5 63.5q90 0 153.5 -63.5t63.5 -153.5q0 -86 -64.5 -150.5t-152.5 -64.5zM637 1618q57 0 97 39t40 96t-40 98t-97 41t-96 -40t-39 -99q0 -57 39 -96t96 -39zM655 -37q-307 0 -454.5 166t-122.5 461l61 702
q4 47 -22.5 74t-65.5 33v35h332v-35q-41 -6 -74 -33t-37 -74l-61 -700q-23 -256 91 -408.5t353 -152.5q254 0 372 154.5t95 406.5l-59 690q-4 43 -40 77t-79 38v37h281v-37q-41 -6 -68 -38t-24 -75l59 -694q25 -283 -111.5 -455t-425.5 -172z" />
    <glyph glyph-name="uring" unicode="&#x16f;" horiz-adv-x="1173" 
d="M586 1174q-90 0 -153.5 63t-63.5 152q0 90 62.5 153.5t154.5 63.5q90 0 153.5 -63.5t63.5 -153.5q0 -86 -64.5 -150.5t-152.5 -64.5zM585.5 1528q-57.5 0 -96 -40t-38.5 -99q0 -57 38.5 -96.5t96 -39.5t97.5 39t40 96.5t-40 98.5t-97.5 41zM1012 139q0 -47 30.5 -72.5
t69.5 -31.5v-35q-115 -18 -192 -35h-23v185h-14q-125 -184 -332 -185q-193 0 -302.5 115t-107.5 338v430q0 47 -30.5 72.5t-69.5 31.5v35q92 27 195 119h22v-690q0 -188 80 -286.5t225 -98.5q137 0 235.5 90t98.5 227v500q0 47 -30.5 73.5t-69.5 32.5v35q92 25 194 117h21
v-967z" />
    <glyph glyph-name="Uhungarumlaut" unicode="&#x170;" horiz-adv-x="1275" 
d="M571 1526l-57 24l88 230q25 55 76 55q27 0 42 -16.5t15 -36.5q0 -25 -35 -80zM811 1526l-57 24l88 230q25 55 73 55q27 0 43.5 -16.5t16.5 -36.5q0 -25 -35 -80zM655 -37q-307 0 -454.5 166t-122.5 461l61 702q4 47 -22.5 74t-65.5 33v35h332v-35q-41 -6 -74 -33t-37 -74
l-61 -700q-23 -256 91 -408.5t353 -152.5q254 0 372 154.5t95 406.5l-59 690q-4 43 -40 77t-79 38v37h281v-37q-41 -6 -68 -38t-24 -75l59 -694q25 -283 -111.5 -455t-425.5 -172z" />
    <glyph glyph-name="uhungarumlaut" unicode="&#x171;" horiz-adv-x="1173" 
d="M588 1337l-129 -176l-58 25l88 229q25 55 76 55q27 0 42.5 -16t15.5 -37q0 -25 -35 -80zM827 1337l-129 -176l-57 25q59 160 88 229q25 55 74 55q27 0 43 -16t16 -37q0 -25 -35 -80zM1012 139q0 -47 30.5 -72.5t69.5 -31.5v-35q-115 -18 -192 -35h-23v185h-14
q-125 -184 -332 -185q-193 0 -302.5 115t-107.5 338v430q0 47 -30.5 72.5t-69.5 31.5v35q92 27 195 119h22v-690q0 -188 80 -286.5t225 -98.5q137 0 235.5 90t98.5 227v500q0 47 -30.5 73.5t-69.5 32.5v35q92 25 194 117h21v-967z" />
    <glyph glyph-name="Uogonek" unicode="&#x172;" horiz-adv-x="1275" 
d="M1225 1397q-41 -6 -68 -38t-24 -75l59 -694q25 -283 -111.5 -455t-425.5 -172h-20q-92 -72 -92 -168q0 -66 46 -107.5t105 -41.5q104 0 160 104l53 -29q-76 -152 -250 -151q-92 0 -157.5 51t-65.5 139q0 111 115 209q-254 29 -374 192t-97 429l61 702q4 47 -22.5 74
t-65.5 33v35h332v-35q-41 -6 -74 -33t-37 -74l-61 -700q-23 -256 91 -408.5t353 -152.5q254 0 372 154.5t95 406.5l-59 690q-4 43 -40 77t-79 38v37h281v-37z" />
    <glyph glyph-name="uogonek" unicode="&#x173;" horiz-adv-x="1173" 
d="M1153 -250l53 -29q-76 -152 -250 -151q-92 0 -157.5 51t-65.5 139q0 68 46 133.5t118 110.5v146h-14q-125 -184 -332 -185q-193 0 -302.5 115t-107.5 338v430q0 47 -30.5 72.5t-69.5 31.5v35q92 27 195 119h22v-690q0 -188 80 -286.5t225 -98.5q137 0 235.5 90t98.5 227
v500q0 47 -30.5 73.5t-69.5 32.5v35q92 25 194 117h21v-967q0 -47 30.5 -72.5t69.5 -31.5v-35q-94 -14 -170 -31q-100 -72 -100 -174q0 -66 46 -107.5t105 -41.5q105 0 160 104z" />
    <glyph glyph-name="Wcircumflex" unicode="&#x174;" horiz-adv-x="1902" 
d="M950 1665l-278 -152l-39 50l317 243l318 -243l-39 -50zM1661 1434h272v-35q-96 -14 -123 -105l-376 -1233q16 -12 43 -26l-4 -35q-74 0 -156 -29h-12l-351 1135h-8l-319 -1045q16 -12 43 -26l-2 -35q-74 0 -158 -29h-10l-410 1323q-27 88 -121 105v35h318v-35
q-35 -6 -58.5 -31t-9.5 -74l338 -1099l12 -37h4l336 1093q-23 68 -47 103t-63 51l2 37q74 0 157 26h11l393 -1273l12 -37h6l351 1136q14 49 -10.5 74t-57.5 31z" />
    <glyph glyph-name="wcircumflex" unicode="&#x175;" horiz-adv-x="1531" 
d="M760 1300l-279 -151l-39 49l318 244l317 -244l-39 -49zM1380 1106q57 0 88 -42t31 -101q0 -109 -72 -277l-270 -686h-133l-238 848h-8l-272 -848h-133l-232 848q-29 106 -151 106l2 35q96 39 178 117h20l277 -1012h12l307 975h64l268 -975h12l244 627q39 102 39 129
q0 33 -20.5 54.5t-45 30.5t-45 32.5t-20.5 58.5q0 37 28.5 58.5t69.5 21.5z" />
    <glyph glyph-name="Ycircumflex" unicode="&#x176;" horiz-adv-x="1196" 
d="M319 1513l-38 50l317 243l317 -243l-38 -50l-279 152zM436 0v35q39 6 70 31.5t31 72.5v566l-414 587q-66 96 -154 107v35h353v-35q-39 -6 -57.5 -29.5t9.5 -77.5l344 -487h13l342 487q29 53 11.5 77t-56.5 30v35h299v-35q-88 -10 -154 -107l-414 -587v-566
q0 -47 31 -72.5t70 -31.5v-35h-324z" />
    <glyph glyph-name="ycircumflex" unicode="&#x177;" horiz-adv-x="1028" 
d="M514 1300l-278 -151l-39 49l317 244l317 -244l-38 -49zM862 1106q57 0 87 -41t30 -102q0 -150 -193 -529q-70 -135 -237 -479q-111 -223 -181.5 -316.5t-148.5 -93.5q-43 0 -78 30t-35 71q0 43 26 66.5t63 23.5q16 0 48.5 -13.5t51.5 -13.5q39 0 79 55.5t118 208.5
q12 23 14 27h-41l-313 848q-37 106 -162 106v35q92 39 166 117h24l369 -1000h10l178 363q96 199 121 267.5t25 117.5q0 41 -30 62.5t-58.5 43t-28.5 64.5q0 37 27.5 59.5t68.5 22.5z" />
    <glyph glyph-name="Ydieresis" unicode="&#x178;" horiz-adv-x="1196" 
d="M438 1659q-41 0 -68.5 26.5t-27.5 65.5q0 41 27.5 68.5t68.5 27.5t69 -27.5t28 -68.5q0 -39 -28 -65.5t-69 -26.5zM756 1659q-41 0 -69 26.5t-28 65.5q0 41 28 68.5t69 27.5t68.5 -27.5t27.5 -68.5q0 -39 -27.5 -65.5t-68.5 -26.5zM436 0v35q39 6 70 31.5t31 72.5v566
l-414 587q-66 96 -154 107v35h353v-35q-39 -6 -57.5 -29.5t9.5 -77.5l344 -487h13l342 487q29 53 11.5 77t-56.5 30v35h299v-35q-88 -10 -154 -107l-414 -587v-566q0 -47 31 -72.5t70 -31.5v-35h-324z" />
    <glyph glyph-name="Zacute" unicode="&#x179;" horiz-adv-x="1320" 
d="M561 1526l-43 37l152 229q31 43 71 43q29 0 45.5 -18.5t16.5 -40.5q0 -31 -43 -74zM1090 -37q-78 37 -218 37h-800v33l977 1333h-392q-104 0 -192 -27.5t-138.5 -66.5t-86 -78t-47.5 -68l-15 -26l-45 14l115 354h12q70 -35 215 -34h752v-33l-975 -1333h438
q104 0 196.5 32.5t148 79.5t96 94.5t57.5 79.5l16 33l45 -16l-149 -408h-10z" />
    <glyph glyph-name="zacute" unicode="&#x17a;" horiz-adv-x="1093" 
d="M446 1161l-43 37l152 229q31 43 72 43q29 0 45 -18t16 -41q0 -31 -43 -74zM870 -35q-76 35 -215 35h-594v49l734 944v11h-256q-180 0 -258 -41t-138 -164l-32 14l65 256h782v-47l-737 -946v-10h334q90 0 169 32.5t127 79.5t84 94t50 80l14 33l33 -12l-149 -408h-13z" />
    <glyph glyph-name="Zdotaccent" unicode="&#x17b;" horiz-adv-x="1320" 
d="M659 1659q-39 0 -66.5 26.5t-27.5 65.5q0 41 26.5 68.5t67.5 27.5t69 -27.5t28 -68.5q0 -39 -28 -65.5t-69 -26.5zM1090 -37q-78 37 -218 37h-800v33l977 1333h-392q-104 0 -192 -27.5t-138.5 -66.5t-86 -78t-47.5 -68l-15 -26l-45 14l115 354h12q70 -35 215 -34h752v-33
l-975 -1333h438q104 0 196.5 32.5t148 79.5t96 94.5t57.5 79.5l16 33l45 -16l-149 -408h-10z" />
    <glyph glyph-name="zdotaccent" unicode="&#x17c;" horiz-adv-x="1093" 
d="M545 1294q-39 0 -66.5 27t-27.5 65q0 41 26.5 69t67.5 28t68.5 -28t27.5 -69q0 -39 -27.5 -65.5t-68.5 -26.5zM870 -35q-76 35 -215 35h-594v49l734 944v11h-256q-180 0 -258 -41t-138 -164l-32 14l65 256h782v-47l-737 -946v-10h334q90 0 169 32.5t127 79.5t84 94t50 80
l14 33l33 -12l-149 -408h-13z" />
    <glyph glyph-name="Zcaron" unicode="&#x17d;" horiz-adv-x="1320" 
d="M659 1534l-317 244l39 49l278 -152l279 152l39 -49zM1090 -37q-78 37 -218 37h-800v33l977 1333h-392q-104 0 -192 -27.5t-138.5 -66.5t-86 -78t-47.5 -68l-15 -26l-45 14l115 354h12q70 -35 215 -34h752v-33l-975 -1333h438q104 0 196.5 32.5t148 79.5t96 94.5
t57.5 79.5l16 33l45 -16l-149 -408h-10z" />
    <glyph glyph-name="zcaron" unicode="&#x17e;" horiz-adv-x="1093" 
d="M547 1169l-318 244l39 49l279 -151l278 151l39 -49zM870 -35q-76 35 -215 35h-594v49l734 944v11h-256q-180 0 -258 -41t-138 -164l-32 14l65 256h782v-47l-737 -946v-10h334q90 0 169 32.5t127 79.5t84 94t50 80l14 33l33 -12l-149 -408h-13z" />
    <glyph glyph-name="longs" unicode="&#x17f;" horiz-adv-x="614" 
d="M406 1575q98 0 168.5 -48t70.5 -118q0 -72 -61 -72q-33 0 -53.5 27t-27.5 59.5t-35 59t-75 26.5q-57 0 -92 -38.5t-35 -106.5q0 -61 57.5 -171t57.5 -167v-887q0 -47 29.5 -72.5t68.5 -31.5v-35h-315v35q41 6 70.5 31.5t29.5 72.5v867h-203v63h199q-4 29 -37 127t-33 168
q0 86 61 148.5t155 62.5z" />
    <glyph glyph-name="florin" unicode="&#x192;" horiz-adv-x="1071" 
d="M881 1468q53 0 108 -21.5t55 -60.5q0 -23 -17 -37t-42 -14q-37 0 -70.5 34t-72.5 34q-80 0 -107 -137l-55 -316h260v-96h-276l-132 -764q-35 -203 -104.5 -284.5t-230.5 -81.5q-59 0 -116.5 23.5t-57.5 74.5q0 53 61 53q43 0 82 -43t82 -43q47 0 88 37t53 106l158 922
h-262v96h280l29 172q54 346 287 346z" />
    <glyph glyph-name="Aringacute" unicode="&#x1fa;" horiz-adv-x="1193" 
d="M596 1538q-90 0 -153.5 63.5t-63.5 151.5q0 84 53 145.5t135 69.5l142 213q31 43 71 43q29 0 45.5 -18.5t16.5 -40.5q0 -31 -43 -74l-146 -129q70 -18 115 -76.5t45 -132.5q0 -86 -64.5 -150.5t-152.5 -64.5zM596 1892q-57 0 -96 -40t-39 -99q0 -57 39 -96t96 -39t97 39
t40 96t-40 98t-97 41zM1098 137q33 -92 127 -102v-35h-318v35q33 4 56.5 29.5t7.5 72.5l-113 309h-569l-111 -309q-18 -47 5.5 -72.5t56.5 -29.5v-35h-271v35q96 10 127 102l426 1180q-45 39 -110 47v37q113 18 196 59h10zM324 543h499l-245 682h-9z" />
    <glyph glyph-name="aringacute" unicode="&#x1fb;" horiz-adv-x="1085" 
d="M563 1174q-90 0 -153.5 63t-63.5 152q0 82 53.5 143t132.5 72l142 213q31 43 71 43q29 0 45.5 -18.5t16.5 -41.5q0 -31 -43 -74l-146 -129q70 -18 116 -76.5t46 -131.5q0 -86 -64.5 -150.5t-152.5 -64.5zM563.5 1528q-57.5 0 -96.5 -40t-39 -99q0 -57 39 -96.5
t96.5 -39.5t97 39t39.5 96.5t-39.5 98.5t-97 41zM1079 59l17 -28q-49 -66 -135 -66q-141 0 -166 187h-11q-53 -94 -153.5 -140.5t-204.5 -46.5q-162 0 -263.5 79t-101.5 222q0 317 674 439l-8 86q-10 111 -74.5 180t-163.5 69q-96 0 -160.5 -51t-64.5 -127
q0 -43 -21.5 -64.5t-47.5 -21.5q-33 0 -53.5 20.5t-20.5 55.5q2 92 102.5 173t259.5 81q131 0 236.5 -84t122.5 -231l67 -627q12 -133 86 -133q33 -1 84 28zM457 31q135 0 229 94t90 211l-35 311q-252 -41 -400 -135t-148 -242q0 -106 73.5 -172.5t190.5 -66.5z" />
    <glyph glyph-name="uni0218" unicode="&#x218;" horiz-adv-x="1347" 
d="M723 852q82 -23 120 -33t111.5 -34.5t110.5 -45t89 -56.5t76.5 -75t44 -93t19.5 -120q0 -186 -146.5 -308t-379.5 -122q-98 0 -227 35t-199 35q-25 0 -50.5 -9.5t-37.5 -17.5l-12 -8h-13l-147 424l45 20q217 -412 641 -411q180 0 303 95t123 243q0 63 -29.5 113.5
t-67.5 81t-116 60t-127 43t-149 38.5q-82 20 -116 29t-105.5 30.5t-105.5 40t-83 50.5t-71.5 65.5t-41 82t-18.5 105.5q0 147 134 252.5t331 105.5q109 0 235.5 -32.5t163.5 -32.5q16 0 32.5 7t24.5 15l11 9h18l137 -392l-41 -18q-193 377 -581 377q-166 0 -265.5 -73
t-99.5 -177q0 -35 8.5 -63.5t32 -53t40.5 -42t60.5 -37t67 -30t80.5 -27.5t80.5 -23.5t89.5 -22.5zM743 -117q55 0 85 -42t30 -101q0 -100 -53 -229t-139 -211l-66 53q51 45 104.5 134t63.5 181l-4 6q-8 -2 -21 -2q-45 0 -75.5 30t-30.5 79q0 45 30.5 73.5t75.5 28.5z" />
    <glyph glyph-name="uni0219" unicode="&#x219;" horiz-adv-x="1067" 
d="M584 623q55 -12 68.5 -14.5t64.5 -14.5t67.5 -19.5t58.5 -23.5t58.5 -30.5t44 -38t38.5 -49t20.5 -59.5t9.5 -73q0 -147 -110.5 -241.5t-282.5 -94.5q-86 0 -204 33t-163 33q-23 0 -43.5 -8.5t-30.5 -14.5l-10 -8h-12l-97 346l35 14q115 -178 236 -253.5t289 -75.5
q121 0 209 58t88 169q0 57 -28 101t-81 72t-109.5 44.5t-134.5 30.5q-72 12 -124 24.5t-119.5 37t-109.5 55t-72.5 80t-30.5 110.5q0 119 105 206t267 87q80 0 178.5 -33t141.5 -33q18 0 36.5 7.5t26.5 13.5l8 8h15l69 -289l-36 -16q-156 276 -439 276q-123 0 -196.5 -53
t-73.5 -129q0 -70 58.5 -119t128 -70t186.5 -46zM575 -117q55 0 85 -42t30 -101q0 -100 -53 -229t-139 -211l-66 53q51 45 104.5 134t63.5 181l-4 6q-8 -2 -21 -2q-45 0 -75.5 30t-30.5 79q0 45 30.5 73.5t75.5 28.5z" />
    <glyph glyph-name="uni021A" unicode="&#x21a;" horiz-adv-x="1292" 
d="M1159 1468l92 -301l-45 -16q-4 8 -11 22.5t-42 52.5t-81 65.5t-132 51t-190 23.5h-41v-1227q0 -47 30.5 -72.5t69.5 -31.5v-35h-324v35q39 6 70 31.5t31 72.5v1227h-41q-104 0 -190.5 -22.5t-133.5 -54.5t-79.5 -62.5t-43.5 -52.5l-10 -23l-47 16l94 301h12
q70 -35 215 -34h570q145 0 215 34h12zM651 -117q55 0 85 -42t30 -101q0 -100 -53.5 -229t-139.5 -211l-65 53q51 45 104.5 134t63.5 181l-4 6q-8 -2 -21 -2q-45 0 -75.5 30t-30.5 79q0 45 30.5 73.5t75.5 28.5z" />
    <glyph glyph-name="uni021B" unicode="&#x21b;" horiz-adv-x="688" 
d="M627 12q-84 -47 -193 -47q-104 0 -161.5 57.5t-57.5 200.5v783h-174v34q135 47 179 112t67 224h45v-307h293v-63h-293v-789q0 -86 32.5 -128t108.5 -42q68 0 135 25zM438 -117q55 0 85 -42t30 -101q0 -100 -53.5 -229t-139.5 -211l-65 53q51 45 104.5 134t63.5 181l-4 6
q-8 -2 -21 -2q-45 0 -75.5 30t-30.5 79q0 45 30.5 73.5t75.5 28.5z" />
    <glyph glyph-name="uni0237" unicode="&#x237;" horiz-adv-x="440" 
d="M111 -455q-98 0 -160 49.5t-62 120.5q0 31 18.5 50.5t49.5 19.5q33 0 51.5 -26.5t23.5 -59.5t29.5 -59.5t69.5 -26.5q51 0 82 39t31 100q0 47 -11.5 132t-11.5 130v834q0 47 -30.5 72.5t-69.5 31.5v35q90 27 192 119h23v-1219q0 -172 -61.5 -257t-163.5 -85z" />
    <glyph glyph-name="uni02B0" unicode="&#x2b0;" horiz-adv-x="614" 
d="M516 930q2 -45 49 -58l-2 -20h-166l-4 20q47 12 41 58l-16 227q-4 70 -36 105.5t-81 35.5q-51 0 -89 -34.5t-38 -85.5v-248q0 -45 45 -58l-2 -20h-166l-2 20q45 12 45 58v479q0 47 -45 55l2 23q61 6 129 57l10 -4q-16 -51 -16 -160v-110h6q47 72 137 71q80 0 128.5 -50
t56.5 -148z" />
    <glyph glyph-name="circumflex" unicode="&#x2c6;" horiz-adv-x="733" 
d="M88 1149l-39 49l318 244l317 -244l-39 -49l-278 151z" />
    <glyph glyph-name="caron" unicode="&#x2c7;" horiz-adv-x="733" 
d="M367 1169l-318 244l39 49l279 -151l278 151l39 -49z" />
    <glyph glyph-name="uni02C9" unicode="&#x2c9;" horiz-adv-x="602" 
d="M49 1319v92h504v-92h-504z" />
    <glyph glyph-name="breve" unicode="&#x2d8;" horiz-adv-x="630" 
d="M315 1225q-113 0 -176 57t-90 141l57 21q23 -47 80.5 -86t128.5 -39q68 0 127.5 39t81.5 86l58 -21q-66 -198 -267 -198z" />
    <glyph glyph-name="dotaccent" unicode="&#x2d9;" horiz-adv-x="288" 
d="M143 1294q-39 0 -66.5 27t-27.5 65q0 41 26.5 69t67.5 28t69 -28t28 -69q0 -39 -28 -65.5t-69 -26.5z" />
    <glyph glyph-name="ring" unicode="&#x2da;" horiz-adv-x="532" 
d="M266 1174q-90 0 -153.5 63t-63.5 152q0 90 62.5 153.5t154.5 63.5q90 0 153.5 -63.5t63.5 -153.5q0 -86 -64.5 -150.5t-152.5 -64.5zM266.5 1253q57.5 0 97 39t39.5 96.5t-39.5 98.5t-97 41t-96.5 -40t-39 -99q0 -57 39 -96.5t96.5 -39.5z" />
    <glyph glyph-name="ogonek" unicode="&#x2db;" horiz-adv-x="571" 
d="M272 -430q-92 0 -157.5 51t-65.5 139q0 76 54.5 146.5t140.5 113.5l65 -20q-70 -33 -110.5 -88t-40.5 -117q0 -66 46 -107.5t105 -41.5q104 0 160 104l53 -29q-76 -151 -250 -151z" />
    <glyph glyph-name="tilde" unicode="&#x2dc;" horiz-adv-x="638" 
d="M428 1272q-51 0 -133 61.5t-117 61.5q-63 0 -80 -90l-49 18q12 80 54 123t108 43q51 0 134 -60.5t118 -60.5q61 0 82 90l45 -16q-27 -170 -162 -170z" />
    <glyph glyph-name="hungarumlaut" unicode="&#x2dd;" horiz-adv-x="559" 
d="M106 1161l-57 25l88 229q25 55 76 55q27 0 42 -16t15 -37q0 -25 -34 -80zM346 1161l-57 25l88 229q25 55 74 55q27 0 43 -16t16 -37q0 -25 -35 -80z" />
    <glyph glyph-name="uni0394" unicode="&#x394;" horiz-adv-x="1216" 
d="M31 0l544 1434h52l542 -1434h-1138zM129 68h887l-447 1163z" />
    <glyph glyph-name="uni03A9" unicode="&#x3a9;" horiz-adv-x="1560" 
d="M152 -35l-93 301l45 17q2 -6 9.5 -18.5t37 -42t69.5 -52.5t115 -41t165 -18h35l2 4q-205 184 -308.5 367.5t-103.5 398.5q0 256 180 421.5t475 165.5t474.5 -165.5t179.5 -421.5q0 -215 -102.5 -399.5t-307.5 -366.5l2 -4h35q90 0 164.5 17t115.5 43t69 51.5t36 43.5
l10 17l45 -17l-92 -301h-12q-10 4 -24.5 12.5t-22 10.5t-21.5 6t-34.5 5t-53.5 1h-367v37q227 229 321.5 419.5t94.5 422.5q0 244 -124 384t-386 140t-386 -140.5t-124 -383.5q0 -231 94.5 -422t319.5 -420v-37h-367q-39 0 -63.5 -3t-32.5 -5t-29.5 -12.5t-27.5 -14.5h-12z
" />
    <glyph glyph-name="uni03BC" unicode="&#x3bc;" horiz-adv-x="1146" 
d="M1100 66l20 -60q-59 -41 -153 -41q-137 0 -138 176v9h-8q-61 -88 -130.5 -136.5t-186.5 -48.5q-174 0 -262 72l-9 -6q12 -76 44 -183.5t32 -142.5q0 -49 -27.5 -80t-68.5 -31t-68.5 31t-27.5 80v1239h114v-567q-2 -186 68 -266t217 -80q135 0 224 89t89 228v596h115v-778
q0 -127 72 -127q39 0 84 27z" />
    <glyph glyph-name="pi" unicode="&#x3c0;" horiz-adv-x="1142" 
d="M383 942h702v-16q-37 -49 -90 -73t-174 -26v-661q0 -127 72 -127q39 0 84 27l18 -60q-57 -41 -151 -41q-137 0 -137 176v686h-252v-497q0 -182 -69 -273.5t-177 -91.5q-55 0 -104.5 27.5t-49.5 73.5q0 29 19.5 49t48.5 20q31 0 63.5 -41t71.5 -41q55 0 95 44t40 132v598
h-43q-78 0 -124 -44t-46 -111h-53q0 43 9 84t35 86t80 72.5t132 27.5z" />
    <glyph glyph-name="Wgrave" unicode="&#x1e80;" horiz-adv-x="1902" 
d="M653 1702q-43 43 -43 74q0 23 16.5 41t45.5 18q41 0 71 -43l152 -231l-43 -35zM1661 1434h272v-35q-96 -14 -123 -105l-376 -1233q16 -12 43 -26l-4 -35q-74 0 -156 -29h-12l-351 1135h-8l-319 -1045q16 -12 43 -26l-2 -35q-74 0 -158 -29h-10l-410 1323q-27 88 -121 105
v35h318v-35q-35 -6 -58.5 -31t-9.5 -74l338 -1099l12 -37h4l336 1093q-23 68 -47 103t-63 51l2 37q74 0 157 26h11l393 -1273l12 -37h6l351 1136q14 49 -10.5 74t-57.5 31z" />
    <glyph glyph-name="wgrave" unicode="&#x1e81;" horiz-adv-x="1531" 
d="M598 1337q-43 43 -43 74q0 23 16.5 41t44.5 18q41 0 72 -43l152 -231l-43 -35zM1380 1106q57 0 88 -42t31 -101q0 -109 -72 -277l-270 -686h-133l-238 848h-8l-272 -848h-133l-232 848q-29 106 -151 106l2 35q96 39 178 117h20l277 -1012h12l307 975h64l268 -975h12
l244 627q39 102 39 129q0 33 -20.5 54.5t-45 30.5t-45 32.5t-20.5 58.5q0 37 28.5 58.5t69.5 21.5z" />
    <glyph glyph-name="Wacute" unicode="&#x1e82;" horiz-adv-x="1902" 
d="M1153 1702l-199 -176l-43 37l152 229q31 43 72 43q29 0 45 -18.5t16 -40.5q0 -31 -43 -74zM1663 1434h270v-35q-96 -14 -123 -105l-376 -1233q16 -12 43 -26l-2 -35q-76 0 -158 -29h-12l-351 1135h-8l-319 -1045q16 -12 43 -26v-35q-76 0 -160 -29h-10l-410 1323
q-27 88 -121 105v35h318v-35q-35 -6 -58.5 -31t-9.5 -74l338 -1099l12 -37h4l336 1093q-23 68 -47 103t-63 51v37q76 0 159 26h11l393 -1273l12 -37h6l351 1136q14 49 -10.5 74t-57.5 31v35z" />
    <glyph glyph-name="wacute" unicode="&#x1e83;" horiz-adv-x="1531" 
d="M1012 1339l-199 -176l-43 37l152 230q31 43 71 43q29 0 45.5 -17.5t16.5 -42.5q0 -31 -43 -74zM1380 1106q57 0 88 -42t31 -101q0 -109 -72 -277l-270 -686h-133l-238 848h-8l-272 -848h-133l-232 848q-29 106 -151 106l2 35q96 39 178 117h20l277 -1012h12l307 975h64
l268 -975h12l244 627q39 102 39 129q0 33 -20.5 54.5t-45 30.5t-45 32.5t-20.5 58.5q0 37 28.5 58.5t69.5 21.5z" />
    <glyph glyph-name="Wdieresis" unicode="&#x1e84;" horiz-adv-x="1902" 
d="M793 1659q-41 0 -69 26.5t-28 65.5q0 41 28 68.5t69 27.5t68.5 -27.5t27.5 -68.5q0 -39 -27.5 -65.5t-68.5 -26.5zM1110 1659q-41 0 -68.5 26.5t-27.5 65.5q0 41 27.5 68.5t68.5 27.5t68.5 -27.5t27.5 -68.5q0 -39 -27.5 -65.5t-68.5 -26.5zM1661 1434h272v-35
q-96 -14 -123 -105l-376 -1233q16 -12 43 -26v-35q-78 0 -160 -29h-12l-351 1135h-8l-319 -1045q16 -12 43 -26v-35q-76 0 -160 -29h-10l-410 1323q-27 88 -121 105v35h318v-35q-35 -6 -58.5 -31t-9.5 -74l338 -1099l12 -37h4l336 1093q-41 125 -108 154v37q74 0 157 26h11
l393 -1273l12 -37h6l351 1136q14 49 -11.5 73t-58.5 32v35z" />
    <glyph glyph-name="wdieresis" unicode="&#x1e85;" horiz-adv-x="1531" 
d="M639 1294q-41 0 -68.5 27t-27.5 65q0 41 27.5 69t68.5 28t68.5 -28t27.5 -69q0 -39 -27.5 -65.5t-68.5 -26.5zM956 1294q-41 0 -68.5 27t-27.5 65q0 41 27.5 69t68.5 28t69 -28t28 -69q0 -39 -28 -65.5t-69 -26.5zM1380 1106q57 0 88 -42t31 -101q0 -109 -72 -277
l-270 -686h-133l-238 848h-8l-272 -848h-133l-232 848q-29 106 -151 106l2 35q96 39 178 117h20l277 -1012h12l307 975h64l268 -975h12l244 627q39 102 39 129q0 33 -20.5 54.5t-45 30.5t-45 32.5t-20.5 58.5q0 37 28.5 58.5t69.5 21.5z" />
    <glyph glyph-name="endash" unicode="&#x2013;" horiz-adv-x="647" 
d="M49 451v90h549v-90h-549z" />
    <glyph glyph-name="emdash" unicode="&#x2014;" horiz-adv-x="837" 
d="M49 451v90h739v-90h-739z" />
    <glyph glyph-name="quoteleft" unicode="&#x2018;" horiz-adv-x="354" 
d="M305 1415q-51 -45 -103 -134t-63 -181l6 -6q6 2 21 2q43 0 73.5 -30t30.5 -79q0 -45 -30.5 -73.5t-73.5 -28.5q-57 0 -87 42t-30 101q0 100 53.5 229t139.5 211z" />
    <glyph glyph-name="quoteright" unicode="&#x2019;" horiz-adv-x="356" 
d="M193 1468q55 0 84.5 -42t29.5 -101q0 -100 -53 -229t-139 -211l-66 53q51 45 104.5 134t63.5 181l-4 7q-8 -2 -20 -3q-45 0 -76 30t-31 79q0 45 31 73.5t76 28.5z" />
    <glyph glyph-name="quotesinglbase" unicode="&#x201a;" horiz-adv-x="356" 
d="M193 176q55 0 84.5 -42t29.5 -101q0 -100 -53 -229.5t-139 -211.5l-66 54q51 45 104.5 134t63.5 181l-4 6q-8 -2 -20 -2q-45 0 -76 30t-31 79q0 45 31 73.5t76 28.5z" />
    <glyph glyph-name="quotedblleft" unicode="&#x201c;" horiz-adv-x="667" 
d="M49 1028q0 100 53.5 229t139.5 211l63 -53q-51 -45 -103 -134t-63 -181l6 -6q6 2 21 2q43 0 73.5 -30t30.5 -79q0 -45 -30.5 -73.5t-73.5 -28.5q-57 0 -87 42t-30 101zM618 1415q-51 -45 -104 -134t-63 -181l4 -6q8 2 20 2q45 0 76 -30t31 -79q0 -45 -31 -73.5t-76 -28.5
q-55 0 -85 42t-30 101q0 100 53.5 229t139.5 211z" />
    <glyph glyph-name="quotedblright" unicode="&#x201d;" horiz-adv-x="667" 
d="M193 1468q55 0 84.5 -42t29.5 -101q0 -100 -53 -229t-139 -211l-66 53q51 45 104.5 134t63.5 181l-4 7q-8 -2 -20 -3q-45 0 -76 30t-31 79q0 45 31 73.5t76 28.5zM502 1468q57 0 86.5 -42t29.5 -101q0 -100 -53 -229t-139 -211l-64 53q51 45 103.5 134t62.5 181l-6 7
q-6 -2 -20 -3q-43 0 -74 30t-31 79q0 45 31 73.5t74 28.5z" />
    <glyph glyph-name="quotedblbase" unicode="&#x201e;" horiz-adv-x="667" 
d="M193 176q55 0 84.5 -42t29.5 -101q0 -100 -53 -229.5t-139 -211.5l-66 54q51 45 104.5 134t63.5 181l-4 6q-8 -2 -20 -2q-45 0 -76 30t-31 79q0 45 31 73.5t76 28.5zM502 176q57 0 86.5 -42t29.5 -101q0 -100 -53 -229.5t-139 -211.5l-64 54q51 45 103.5 134t62.5 181
l-6 6q-6 -2 -20 -2q-43 0 -74 30t-31 79q0 45 31 73.5t74 28.5z" />
    <glyph glyph-name="dagger" unicode="&#x2020;" horiz-adv-x="876" 
d="M410 0q-2 668 -66 909l59 150l-4 6q-88 -8 -161.5 -29.5t-104.5 -21.5q-39 0 -61.5 20.5t-22.5 52.5q0 72 84 72q33 0 107.5 -16.5t162.5 -24.5l5 4q-8 82 -27 148.5t-19 105.5q0 92 76 92t76 -92q0 -39 -18.5 -105.5t-26.5 -148.5l4 -4q88 8 163 24.5t107 16.5
q37 0 60.5 -19.5t23.5 -52t-23.5 -53t-60.5 -20.5q-31 0 -104.5 21.5t-161.5 29.5l-4 -6l59 -150q-61 -238 -67 -909h-55z" />
    <glyph glyph-name="daggerdbl" unicode="&#x2021;" horiz-adv-x="876" 
d="M438 -35q-76 0 -76 92q0 31 18.5 100.5t27.5 159.5l-5 5q-90 -8 -164.5 -29t-103.5 -21q-86 0 -86 72q0 35 23.5 55.5t62.5 20.5q29 0 102.5 -21.5t161.5 -29.5l4 6q0 35 -15 120t-30 152l-14 70q59 262 59 340l-4 6q-88 -8 -161.5 -28.5t-102.5 -20.5q-39 0 -62.5 19.5
t-23.5 53.5q0 72 86 72q31 0 105.5 -16.5t162.5 -24.5l5 4q-8 84 -27 150.5t-19 103.5q0 92 76 92t76 -92q0 -37 -18.5 -103.5t-26.5 -150.5l4 -4q88 8 163 24.5t107 16.5q84 0 84 -72q0 -33 -22.5 -53t-61.5 -20q-31 0 -104.5 20.5t-161.5 28.5l-4 -6q0 -33 15.5 -118
t29.5 -153l14 -69q-59 -264 -59 -342l4 -6q88 8 162 29.5t104 21.5q39 0 61.5 -20.5t22.5 -55.5q0 -72 -84 -72q-31 0 -105.5 20.5t-164.5 29.5l-4 -5q8 -90 26.5 -158.5t18.5 -101.5q0 -92 -76 -92z" />
    <glyph glyph-name="bullet" unicode="&#x2022;" horiz-adv-x="512" 
d="M256 268q-86 0 -146.5 60.5t-60.5 148.5q0 86 60.5 146.5t146.5 60.5t146.5 -60.5t60.5 -146.5q0 -88 -60.5 -148.5t-146.5 -60.5z" />
    <glyph glyph-name="ellipsis" unicode="&#x2026;" horiz-adv-x="1449" 
d="M242 -35q-43 0 -74 30t-33 79q0 47 31 75.5t76 28.5q43 0 73.5 -28.5t32.5 -75.5q0 -49 -30.5 -79t-75.5 -30zM725 -35q-43 0 -73.5 30t-33.5 79q0 47 31 75.5t76 28.5q43 0 73.5 -28.5t32.5 -75.5q0 -49 -30.5 -79t-75.5 -30zM1208 -35q-43 0 -73.5 30t-32.5 79
q0 47 30.5 75.5t75.5 28.5q43 0 74 -28.5t33 -75.5q0 -49 -31 -79t-76 -30z" />
    <glyph glyph-name="perthousand" unicode="&#x2030;" horiz-adv-x="2439" 
d="M408 713q-158 0 -262.5 114.5t-104.5 266.5q0 162 97.5 268t258.5 106q152 0 253.5 -111.5t101.5 -269.5q0 -154 -96 -264t-248 -110zM412 0l690 1434h96l-692 -1434h-94zM403 772q100 0 163 92t63 219q0 133 -66.5 225.5t-165.5 92.5q-106 0 -168.5 -88t-62.5 -223
q0 -127 67.5 -222.5t169.5 -95.5zM1223 -37q-156 0 -261.5 115t-105.5 266q0 162 97.5 268.5t258.5 106.5q152 0 254.5 -111.5t102.5 -269.5q0 -154 -96 -264.5t-250 -110.5zM2050 -37q-156 0 -261.5 115t-105.5 266q0 162 97.5 268.5t259.5 106.5q152 0 254 -111.5
t102 -269.5q0 -154 -96 -264.5t-250 -110.5zM1219 23q100 0 162.5 92t62.5 219q0 133 -66.5 225t-165.5 92q-104 0 -167.5 -88t-63.5 -223q0 -127 68 -222t170 -95zM2046 23q100 0 162.5 92t62.5 219q0 133 -66.5 225t-164.5 92q-104 0 -168 -88t-64 -223q0 -127 68 -222
t170 -95z" />
    <glyph glyph-name="guilsinglleft" unicode="&#x2039;" horiz-adv-x="516" 
d="M434 37l-385 397v86l385 398l33 -21l-256 -420l256 -420z" />
    <glyph glyph-name="guilsinglright" unicode="&#x203a;" horiz-adv-x="516" 
d="M82 37l-33 20l256 420l-256 420l33 21l385 -398v-86z" />
    <glyph glyph-name="fraction" unicode="&#x2044;" horiz-adv-x="342" 
d="M-426 0l1126 1434h68l-1126 -1434h-68z" />
    <glyph glyph-name="uni2070" unicode="&#x2070;" 
d="M225 860q-106 0 -160.5 82t-54.5 209t54.5 210t160.5 83q104 0 158.5 -83t54.5 -210t-54.5 -209t-158.5 -82zM225 895q133 0 133 256t-133 256q-135 0 -135 -256t135 -256z" />
    <glyph glyph-name="uni2074" unicode="&#x2074;" 
d="M426 1018h-84v-76q0 -39 51 -49l-2 -19h-180l-2 19q53 12 53 49v76h-248v29l269 387h59v-379h94zM63 1055h199v280h-4l-195 -278v-2z" />
    <glyph glyph-name="uni2075" unicode="&#x2075;" 
d="M207 1241q94 0 144 -49t50 -129t-56 -139.5t-150 -59.5q-61 0 -104.5 18.5t-43.5 55.5q0 18 11.5 29.5t27.5 11.5q31 0 49.5 -39t65.5 -39q68 0 102.5 39t34.5 102q0 57 -40 94.5t-108 37.5q-63 0 -112 -25l-19 6l41 279h187q68 0 82 14h8l-12 -80h-238l-23 -143
q37 16 103 16z" />
    <glyph glyph-name="uni2076" unicode="&#x2076;" 
d="M250 1237q86 0 130 -53.5t44 -131t-57.5 -135t-143.5 -57.5q-90 0 -144 68.5t-54 179.5q0 164 100 250t244 86l2 -29q-96 0 -169 -57.5t-91 -179.5h2q53 59 137 59zM223 895q55 0 87 44t32 114q0 143 -109 143q-37 0 -72.5 -21.5t-56.5 -58.5v-18q0 -203 119 -203z" />
    <glyph glyph-name="uni2077" unicode="&#x2077;" 
d="M184 1434h224v-33q-201 -252 -201 -488q0 -49 -45 -49q-18 0 -31.5 14.5t-13.5 34.5q0 197 225 455h-111q-47 -2 -89 -20.5t-60 -36.5l-21 -19l-18 6l43 150h4q28 -14 94 -14z" />
    <glyph glyph-name="uni2078" unicode="&#x2078;" 
d="M221 868q-86 0 -140 45t-54 101q0 100 116 153v4q-92 51 -92 142q0 53 45 97t137 44q78 0 123 -38t45 -91q0 -90 -104 -139v-4q61 -29 94 -62t33 -94q0 -68 -55.5 -113t-147.5 -45zM248 1204q102 45 102 119q0 43 -27.5 69.5t-82.5 26.5q-113 0 -113 -90q0 -45 32 -72.5
t89 -52.5zM219 903q63 0 96 32t33 71q0 14 -2 25t-9 22.5t-12.5 19.5t-17.5 16.5t-19 13.5t-23.5 13t-22.5 11t-25.5 11.5t-26.5 10.5q-109 -49 -108 -131q0 -47 35.5 -81t101.5 -34z" />
    <glyph glyph-name="uni2079" unicode="&#x2079;" 
d="M225 1450q90 0 144.5 -68.5t54.5 -179.5q0 -164 -100.5 -250t-243.5 -86l-2 27q96 0 168.5 58.5t91.5 181.5h-2q-53 -59 -137 -60q-86 0 -130 53.5t-44 131t57 135t143 57.5zM215 1114q35 0 73 22.5t56 57.5v18q0 203 -119 203q-55 0 -87 -45t-32 -113q0 -143 109 -143z
" />
    <glyph glyph-name="uni207F" unicode="&#x207f;" horiz-adv-x="614" 
d="M514 930q6 -45 51 -58l-4 -20h-166l-2 20q43 12 41 58l-16 217q-2 70 -34 108.5t-83 38.5t-88 -36.5t-37 -88.5v-239q0 -45 45 -58l-2 -20h-168l-2 20q45 12 45 58v276q0 45 -45 58l2 20q47 4 111 57h10l2 -77h4q51 78 141 77q80 0 127.5 -50t53.5 -148z" />
    <glyph glyph-name="uni2080" unicode="&#x2080;" 
d="M225 -14q-106 0 -160.5 82t-54.5 208.5t54.5 209.5t160.5 83q104 0 158.5 -83t54.5 -209.5t-54.5 -208.5t-158.5 -82zM225 20q133 0 133 256t-133 256q-135 0 -135 -256t135 -256z" />
    <glyph glyph-name="uni2081" unicode="&#x2081;" 
d="M137 0v18q51 12 51 50v399h-55l-2 18l115 70h22v-487q0 -39 49 -50v-18h-180z" />
    <glyph glyph-name="uni2082" unicode="&#x2082;" 
d="M389 129l21 -6l-43 -137h-5q-43 14 -94 14h-221v35q8 6 60.5 49t67.5 56.5t53 52t52.5 65.5t29 65.5t14.5 79.5q0 61 -30 96.5t-85 35.5q-53 0 -95 -36t-44 -96l-29 7q6 74 57.5 116.5t122.5 42.5q82 0 132 -46t50 -120q0 -111 -73.5 -189.5t-196.5 -147.5v-3h94
q45 0 86 16.5t60 33.5z" />
    <glyph glyph-name="uni2083" unicode="&#x2083;" 
d="M203 -14q-66 0 -115 23.5t-49 62.5q0 43 41 43q25 0 50.5 -46t72.5 -46q61 0 95 35.5t34 99.5q0 66 -38 103.5t-106 37.5h-16v35h21q53 0 82.5 29.5t29.5 72.5q0 39 -25.5 67.5t-78.5 28.5q-47 0 -80 -30.5t-37 -85.5l-29 4q8 70 53.5 109.5t116.5 39.5q76 0 117 -36.5
t41 -88.5q0 -88 -90 -120v-5q51 -10 85 -51t34 -94q0 -80 -56.5 -134t-152.5 -54z" />
    <glyph glyph-name="uni2084" unicode="&#x2084;" 
d="M426 143h-84v-75q0 -39 51 -50v-18h-182v18q51 12 51 50v75h-248v29l269 383h59v-375h94zM63 180h199v275h-2l-197 -273v-2z" />
    <glyph glyph-name="uni2085" unicode="&#x2085;" 
d="M207 362q94 0 144 -49t50 -129t-56 -139t-150 -59q-61 0 -104.5 18.5t-43.5 56.5q0 16 11.5 27.5t27.5 11.5q31 0 49.5 -38.5t65.5 -38.5q68 0 102.5 38.5t34.5 102.5q0 57 -40 94t-105.5 37t-114.5 -25l-19 6l41 279h187q68 0 82 14h8l-12 -80h-240l-21 -143
q37 16 103 16z" />
    <glyph glyph-name="uni2086" unicode="&#x2086;" 
d="M250 362q86 0 130 -53t44 -131t-57.5 -135t-143.5 -57q-90 0 -144 68.5t-54 178.5q0 164 100 250t244 86l2 -28q-96 0 -169 -57.5t-91 -180.5h2q53 59 137 59zM223 20q55 0 87 44.5t32 113.5q0 143 -109 144q-37 0 -72.5 -21.5t-56.5 -58.5v-19q0 -203 119 -203z" />
    <glyph glyph-name="uni2087" unicode="&#x2087;" 
d="M184 555h224v-35q-201 -252 -201 -487q0 -49 -45 -49q-18 0 -31.5 14t-13.5 35q0 197 225 454v2h-111q-47 -2 -89 -21t-60 -38l-21 -18l-18 8l43 149h4q24 -14 94 -14z" />
    <glyph glyph-name="uni2088" unicode="&#x2088;" 
d="M223 -12q-88 0 -142 45t-54 100q0 100 116 154v4q-92 51 -92 141q0 51 46 96t136 45q78 0 123 -37.5t45 -91.5q0 -90 -104 -139v-4q61 -27 94 -59.5t33 -96.5q0 -68 -55.5 -112.5t-145.5 -44.5zM248 324q102 45 102 118q0 96 -110 97q-113 0 -113 -90q0 -45 32 -72.5
t89 -52.5zM219 23q63 0 96 31.5t33 70.5q0 14 -2 25.5t-9 22.5t-12.5 19.5t-17.5 16.5t-19 13t-23.5 13.5t-22.5 11.5t-25.5 11t-26.5 10q-109 -49 -108 -131q0 -47 35.5 -80.5t101.5 -33.5z" />
    <glyph glyph-name="uni2089" unicode="&#x2089;" 
d="M225 569q90 0 144.5 -68.5t54.5 -178.5q0 -164 -100.5 -250t-243.5 -86l-2 28q96 0 168.5 57.5t91.5 180.5h-2q-53 -59 -137 -59q-86 0 -130 53t-44 131t57 135t143 57zM215 233q35 0 73 23t56 57v19q0 203 -119 203q-55 0 -87 -45.5t-32 -112.5q0 -144 109 -144z" />
    <glyph glyph-name="Euro" unicode="&#x20ac;" horiz-adv-x="1447" 
d="M934 33q123 0 231.5 61.5t169.5 149.5l35 -25q-66 -111 -181.5 -182.5t-258.5 -71.5q-252 0 -406.5 154.5t-193.5 400.5h-277v86h266q-2 25 -2 72q0 70 11 151h-275v86h291q55 242 215 397.5t402 155.5q59 0 139 -16t112 -16q57 0 111 34h14l49 -327l-51 -10
q-39 119 -123 195.5t-256 76.5q-168 0 -307 -129t-186 -361h651v-86h-665q-6 -59 -7 -122q0 -35 4 -101h668v-86h-659q37 -250 169 -368.5t310 -118.5z" />
    <glyph glyph-name="uni2113" unicode="&#x2113;" horiz-adv-x="890" 
d="M457 -35q-90 0 -147.5 42t-75 103.5t-23.5 132t8 130.5l19 141l-175 -119l-34 47l221 164l24 156q55 399 130 560t243 161q94 0 144.5 -85t31.5 -222q-14 -98 -63 -190.5t-134 -174.5t-135.5 -124t-138.5 -105l-35 -238q-47 -317 146 -317q37 0 81 27.5t70.5 54t74.5 82
t59 67.5l38 -43q-70 -94 -160.5 -172t-168.5 -78zM365 676q334 262 370 520q14 98 -16.5 160.5t-104.5 62.5q-80 0 -130 -120.5t-85 -372.5z" />
    <glyph glyph-name="trademark" unicode="&#x2122;" horiz-adv-x="950" 
d="M82 1434h321l33 -99l-20 -8q-4 8 -13.5 20.5t-43 33t-76.5 20.5v-314q0 -35 30 -43l-4 -16h-133l-4 16q31 8 31 43v314q-43 0 -77 -18.5t-46 -36.5l-12 -19l-19 8zM870 1087q0 -35 31 -43l-2 -16h-135l-2 16q29 8 29 43v234h-7l-98 -293h-35l-102 293h-2v-234
q0 -35 28 -43l-4 -16h-90l-2 16q29 8 29 43v285q0 39 -29 43l4 19h109l98 -279h2l94 279h113l2 -19q-29 -4 -29 -43z" />
    <glyph glyph-name="Omega" unicode="&#x2126;" horiz-adv-x="1507" 
d="M123 -35l-92 301l45 17q2 -6 9 -18.5t37 -42t69.5 -52.5t114.5 -41t165 -18h35l2 4q-205 184 -308.5 367.5t-103.5 398.5q0 256 180.5 421.5t475.5 165.5t474 -165.5t179 -421.5q0 -215 -102.5 -399.5t-307.5 -366.5l2 -4h35q90 0 165 17t116 43t68.5 51.5t35.5 43.5
l10 17l46 -17l-93 -301h-12q-10 4 -24.5 12.5t-21.5 10.5t-21.5 6t-35 5t-53.5 1h-366v37q227 229 321.5 419.5t94.5 422.5q0 244 -124 384t-386.5 140t-386 -140.5t-123.5 -383.5q0 -231 94 -422t319 -420v-37h-366q-39 0 -63.5 -3t-33 -5t-30 -12.5t-27.5 -14.5h-12z" />
    <glyph glyph-name="estimated" unicode="&#x212e;" horiz-adv-x="1628" 
d="M817 -35q-315 0 -538.5 220.5t-223.5 531.5t223.5 531t538.5 220q313 0 536.5 -220t223.5 -531v-21h-1206v-510q123 -92 226 -129t222 -37q150 0 281 61.5t219 174.5h67q-211 -291 -569 -291zM371 750h882v499q-178 162 -434 162q-266 0 -448 -172v-489z" />
    <glyph glyph-name="partialdiff" unicode="&#x2202;" horiz-adv-x="1091" 
d="M633 1468q270 0 361 -243.5t10 -653.5q-57 -283 -212 -444.5t-360 -161.5q-211 0 -313.5 140.5t-59.5 351.5q43 207 202 348t360 141q84 0 161.5 -29.5t122.5 -82.5q23 256 -26.5 405.5t-155.5 149.5q-33 0 -75 -51.5t-77 -51.5q-80 0 -79 78q-2 43 30.5 73.5t110.5 30.5
zM444 31q311 0 420 538q16 84 31 179q-45 61 -122 100t-163 39q-168 0 -271 -121t-142 -320q-37 -184 19 -299.5t228 -115.5z" />
    <glyph glyph-name="Delta" unicode="&#x2206;" horiz-adv-x="1187" 
d="M23 0l544 1434h51l543 -1434h-1138zM121 68h887l-447 1163z" />
    <glyph glyph-name="product" unicode="&#x220f;" horiz-adv-x="1306" 
d="M72 0v33q41 8 70.5 33.5t29.5 72.5v1153q0 47 -30.5 74t-69.5 33v35h1161v-35q-41 -6 -70.5 -33t-29.5 -74v-1153q0 -88 100 -106v-33h-326v33q100 18 101 106v1227h-713v-1227q0 -47 29.5 -72.5t70.5 -33.5v-33h-323z" />
    <glyph glyph-name="summation" unicode="&#x2211;" horiz-adv-x="1243" 
d="M47 0v33l490 704l-459 664v33h1014l88 -238l-47 -27q-90 100 -203 148.5t-277 48.5h-403l397 -573l-463 -676h463q211 0 320.5 41t206.5 145l38 -39l-106 -264h-1059z" />
    <glyph glyph-name="minus" unicode="&#x2212;" horiz-adv-x="647" 
d="M49 451v90h549v-90h-549z" />
    <glyph glyph-name="uni2215" unicode="&#x2215;" horiz-adv-x="716" 
d="M49 692v51h619v-51h-619z" />
    <glyph glyph-name="uni2219" unicode="&#x2219;" horiz-adv-x="309" 
d="M156 737q-45 0 -76 30t-31 79q0 45 31 73.5t76 28.5q43 0 73.5 -28.5t30.5 -73.5q0 -49 -30.5 -79t-73.5 -30z" />
    <glyph glyph-name="radical" unicode="&#x221a;" horiz-adv-x="1120" 
d="M453 0l-191 461h-219v88h279l178 -430l547 1315h98l-596 -1434h-96z" />
    <glyph glyph-name="infinity" unicode="&#x221e;" horiz-adv-x="1742" 
d="M424 305q-162 0 -283 122t-121 296t121 296t283 122q166 0 265 -84t181 -236h7q82 152 178 236t258 84t282.5 -122t120.5 -296t-120.5 -296t-282.5 -122q-166 0 -266.5 84t-182.5 234h-6q-80 -152 -176 -235t-258 -83zM1313 406q137 0 226 91t89 228t-90 233.5t-225 96.5
q-145 0 -230.5 -81t-164.5 -237q41 -80 70.5 -127t76.5 -101t108.5 -78.5t139.5 -24.5zM424 393q145 0 230 80t165 234q-43 82 -71.5 127t-76.5 100t-108.5 79.5t-138.5 24.5q-137 0 -226 -90t-89 -227t90 -232.5t225 -95.5z" />
    <glyph glyph-name="integral" unicode="&#x222b;" horiz-adv-x="815" 
d="M137 -410q-49 0 -80.5 20.5t-31.5 59.5q0 29 19 50.5t48 21.5q31 0 63.5 -32t71.5 -32q53 0 87 43t34 134v1601q0 176 89 284.5t237 108.5q53 0 87 -23.5t34 -58.5q0 -33 -20.5 -53t-51.5 -20q-33 0 -69 33.5t-79 33.5q-113 0 -112 -176v-1569q0 -213 -88 -319.5
t-238 -106.5z" />
    <glyph glyph-name="approxequal" unicode="&#x2248;" horiz-adv-x="991" 
d="M733 776q-92 0 -186 38t-174 77t-135 39q-92 0 -129 -80l-60 24q51 145 223 146q92 0 187.5 -37t176.5 -75t136 -38q72 0 115 54l55 -35q-59 -113 -209 -113zM733 477q-92 0 -186 38t-174 77t-135 39q-94 0 -129 -80l-60 27q51 145 223 145q92 0 187.5 -38t176.5 -76
t136 -38q70 0 115 56l55 -37q-62 -113 -209 -113z" />
    <glyph glyph-name="notequal" unicode="&#x2260;" horiz-adv-x="1175" 
d="M387 184l82 291h-420v88h445l90 320h-535v88h559l82 289h92l-82 -289h426v-88h-448l-92 -320h540v-88h-565l-80 -291h-94z" />
    <glyph glyph-name="lessequal" unicode="&#x2264;" horiz-adv-x="1173" 
d="M1083 262l-993 410v98l993 410v-97l-866 -360v-6l866 -359v-96zM49 0v74h1075v-74h-1075z" />
    <glyph glyph-name="greaterequal" unicode="&#x2265;" horiz-adv-x="1173" 
d="M90 262v96l866 359v6l-866 360v97l993 -410v-98zM49 0v74h1075v-74h-1075z" />
    <glyph glyph-name="lozenge" unicode="&#x25ca;" horiz-adv-x="1015" 
d="M459 0l-410 719l410 715h98l410 -715l-410 -719h-98zM504 92h8l358 627l-358 622h-8l-357 -622z" />
    <glyph glyph-name="uniF6E0" unicode="&#xf6e0;" horiz-adv-x="483" 
d="M223 819v78q-78 8 -126 59.5t-48 130.5q0 82 49 135.5t125 63.5v86h47v-82q68 -4 113 -38.5t45 -71.5q0 -14 -10 -25.5t-25 -11.5q-20 0 -31.5 18.5t-17.5 39t-30.5 38.5t-67.5 18q-53 0 -94 -44t-41 -103q0 -80 45 -124t116 -44q49 0 88 27.5t56 66.5l18 -8
q-12 -49 -56 -88t-108 -43v-78h-47z" />
    <glyph glyph-name="uniF6E4" unicode="&#xf6e4;" horiz-adv-x="516" 
d="M242 702v101q-88 4 -140.5 40t-52.5 79q0 16 11.5 26t27.5 10q20 0 33.5 -19t21 -42t38 -42t81.5 -19q59 0 97 29.5t36 76.5q0 82 -149 121q-180 47 -180 174q0 59 49 99t127 46v95h43v-95q68 -4 112.5 -32.5t44.5 -65.5q0 -35 -30 -35q-16 0 -27.5 15.5t-19 35t-34 35
t-71.5 15.5q-51 0 -86 -29t-35 -68q0 -76 140 -110q188 -51 188 -176q0 -70 -49 -114t-133 -50v-101h-43z" />
    <glyph glyph-name="uniF6E6" unicode="&#xf6e6;" horiz-adv-x="550" 
d="M31 1133v69h491v-69h-491z" />
    <glyph glyph-name="uniF6E9" unicode="&#xf6e9;" horiz-adv-x="577" 
d="M520 887l8 -21q-29 -31 -73 -30q-74 0 -86 79h-7q-45 -80 -153 -79q-72 0 -116 34.5t-44 96.5q0 80 76 123t213 69q0 10 -2 21.5t-3 17.5t-1 8q-4 43 -27.5 68.5t-60.5 25.5t-61.5 -19t-22.5 -50q2 -47 -41 -47q-18 0 -31.5 12t-11.5 33q2 43 47 77.5t123 34.5
q66 0 115 -38.5t57 -112.5l26 -252q6 -63 43 -64q15 1 33 13zM238 883q53 0 87.5 39t30.5 88l-14 116q-207 -37 -207 -149q0 -41 30 -67.5t73 -26.5z" />
    <glyph glyph-name="uniF6EA" unicode="&#xf6ea;" horiz-adv-x="610" 
d="M332 1341q98 0 163.5 -73.5t65.5 -182t-61.5 -179t-157.5 -70.5q-106 0 -174 92q-41 -53 -51 -76h-23v557q0 47 -45 55l2 23q61 6 129 57l8 -4q-14 -51 -14 -160v-110h4q62 71 154 71zM348 879q59 0 97 49t38 125q0 96 -48 170.5t-124 74.5q-61 0 -99 -48t-38 -126
q0 -94 48 -169.5t126 -75.5z" />
    <glyph glyph-name="uniF6EB" unicode="&#xf6eb;" horiz-adv-x="612" 
d="M518 930q0 -45 45 -58l-2 -20q-61 -6 -102 -16h-10l-7 77h-6q-66 -78 -157 -77q-98 0 -164 73.5t-66 182t60.5 179t159 70.5t163.5 -81h6v149q0 47 -45 55l2 23q61 6 129 57l8 -4q-14 -51 -14 -160v-450zM299 879q61 0 98 48t37 126q0 94 -47 169.5t-125 75.5
q-59 0 -97 -49t-38 -125q0 -96 48 -170.5t124 -74.5z" />
    <glyph glyph-name="uniF6EC" unicode="&#xf6ec;" horiz-adv-x="573" 
d="M332 899q53 0 95 31t60 71l21 -8q-12 -63 -69.5 -110t-143.5 -47q-102 0 -174 71.5t-72 184.5q0 109 68.5 179t173.5 70q78 0 129 -35.5t69 -86.5q14 -33 31 -37l4 -31l-385 -102q35 -150 193 -150zM285 1300q-66 0 -109 -53t-43 -131q0 -18 2 -26l289 75q-6 55 -43 95
t-96 40z" />
    <glyph glyph-name="uniF6ED" unicode="&#xf6ed;" horiz-adv-x="270" 
d="M133 1419q-25 0 -41 16.5t-16 39.5q0 25 16.5 41t40.5 16q27 0 43.5 -16.5t16.5 -40.5q0 -23 -16.5 -39.5t-43.5 -16.5zM51 852l-2 20q45 12 45 58v276q0 49 -45 58l2 22q51 6 113 55h12v-411q0 -45 45 -58l-2 -20h-168z" />
    <glyph glyph-name="uniF6EE" unicode="&#xf6ee;" horiz-adv-x="270" 
d="M51 852l-2 20q45 12 45 58v479q0 47 -45 55l2 23q59 6 129 57l10 -4q-14 -45 -14 -160v-450q0 -45 45 -58l-4 -20h-166z" />
    <glyph glyph-name="uniF6EF" unicode="&#xf6ef;" horiz-adv-x="882" 
d="M782 930q6 -45 52 -58l-5 -20h-165l-2 20q43 12 40 58l-16 217q-10 147 -102 147q-49 0 -79 -34.5t-30 -88.5v-241q0 -45 45 -58l-2 -20h-168l-2 20q45 12 45 58v217q4 147 -100 147q-51 0 -81 -34.5t-34 -90.5l-4 -84v-155q0 -45 45 -58l-2 -20h-166l-2 20q45 12 45 58
v276q0 45 -45 58l2 20q47 4 111 57h10l2 -84h4q47 84 135 84q100 0 140 -84h6q51 84 141 84q154 0 168 -198z" />
    <glyph glyph-name="uniF6F0" unicode="&#xf6f0;" horiz-adv-x="587" 
d="M301 836q-111 0 -181.5 75.5t-70.5 184.5q0 106 67.5 175.5t174.5 69.5q109 0 178.5 -72.5t69.5 -183.5q0 -109 -67 -179t-171 -70zM317 879q61 0 101.5 50t40.5 124q0 94 -51.5 169.5t-131.5 75.5q-66 0 -107.5 -48t-41.5 -126q0 -92 54 -168.5t136 -76.5z" />
    <glyph glyph-name="uniF6F1" unicode="&#xf6f1;" horiz-adv-x="460" 
d="M324 1341q43 0 65.5 -19t22.5 -48q0 -25 -15.5 -40t-42.5 -15q-31 0 -49 30.5t-39 30.5q-27 0 -59.5 -33t-32.5 -78v-239q0 -45 47 -58l-4 -20h-166l-2 20q45 12 45 58v276q0 45 -45 58l2 20q47 4 111 57h10l2 -88h4q60 88 146 88z" />
    <glyph glyph-name="uniF6F2" unicode="&#xf6f2;" horiz-adv-x="534" 
d="M299 836q-37 0 -89 15t-73 15q-10 0 -19 -3t-16 -7l-4 -4h-6l-43 158l21 8q94 -143 227 -144q47 0 80 23t33 64q0 72 -150 106q-61 16 -90 24.5t-63.5 39t-34.5 75.5q0 57 49 96t125 39q37 0 80 -14t61 -14q10 0 18.5 3t12.5 7l4 2h8l31 -135l-23 -8q-68 121 -186 121
q-47 0 -73.5 -19.5t-26.5 -50.5q0 -39 37.5 -59.5t111.5 -36.5q43 -10 66.5 -18.5t55.5 -24t47 -42t15 -61.5q0 -72 -52 -113.5t-134 -41.5z" />
    <glyph glyph-name="uniF6F3" unicode="&#xf6f3;" horiz-adv-x="385" 
d="M240 836q-113 0 -113 120v328h-78v27q59 20 88 53t45 96h27v-135h127v-41h-127v-330q0 -72 59 -71q27 0 58 10l10 -37q-45 -20 -96 -20z" />
    <glyph glyph-name="glyph417" horiz-adv-x="0" 
 />
    <glyph glyph-name="glyph418" horiz-adv-x="1024" 
 />
    <glyph glyph-name="glyph419" horiz-adv-x="1759" 
d="M1690 1399q-39 -6 -69 -33t-30 -74v-1151q0 -47 30 -73.5t69 -32.5v-35h-324v35q41 6 70.5 32.5t29.5 73.5v76q-33 174 -180 333t-340 236q-170 -369 -205 -436q-98 -184 -212.5 -284.5t-272.5 -100.5q-135 0 -215 38t-80 108q0 37 23.5 62.5t62.5 25.5q43 0 64.5 -26
t28.5 -57.5t34 -57t78 -25.5q125 0 221 91t186 259q41 76 116 236.5t91 195.5q-96 29 -188 29q-147 0 -224 -43t-77 -96q0 -25 17.5 -62t17.5 -68q0 -39 -28 -71.5t-75 -32.5t-79.5 36t-32.5 89q0 129 137 225.5t344 96.5q111 0 221 -37l49 92q139 250 312.5 375t427.5 86h2
v-35zM1456 463h10v880q-141 -25 -247.5 -129t-196.5 -276l-43 -86q143 -59 269 -162.5t208 -226.5z" />
    <glyph glyph-name="glyph420" horiz-adv-x="1759" 
d="M1642 1702l-198 -176l-43 37l151 229q31 43 72 43q29 0 45.5 -18.5t16.5 -40.5q-1 -31 -44 -74zM1690 1399q-39 -6 -69 -33t-30 -74v-1151q0 -47 30 -73.5t69 -32.5v-35h-324v35q41 6 70.5 32.5t29.5 73.5v76q-33 174 -180 333t-340 236q-170 -369 -205 -436
q-98 -184 -212.5 -284.5t-272.5 -100.5q-135 0 -215 38t-80 108q0 37 23.5 62.5t62.5 25.5q43 0 64.5 -26t28.5 -57.5t34 -57t78 -25.5q125 0 221 91t186 259q41 76 116 236.5t91 195.5q-96 29 -188 29q-147 0 -224 -43t-77 -96q0 -25 17.5 -62t17.5 -68q0 -39 -28 -71.5
t-75 -32.5t-79.5 36t-32.5 89q0 129 137 225.5t344 96.5q111 0 221 -37l49 92q66 119 134.5 204t157.5 154.5t201.5 96t246.5 6.5h2v-35zM1456 463h10v880q-141 -25 -247.5 -129t-196.5 -276l-43 -86q143 -59 269 -162.5t208 -226.5z" />
    <glyph glyph-name="glyph421" horiz-adv-x="1759" 
d="M1751 1808l57 -20q-66 -199 -266 -199q-113 0 -176 57.5t-90 141.5l57 20q23 -47 80 -86t129 -39q68 0 127 39t82 86zM948 973q139 250 312.5 375t427.5 86h2v-35q-39 -6 -69 -33t-30 -74v-1151q0 -47 30 -73.5t69 -32.5v-35h-324v35q41 6 70.5 32.5t29.5 73.5v76
q-33 174 -180 333t-340 236q-170 -369 -205 -436q-98 -184 -212.5 -284.5t-272.5 -100.5q-135 0 -215 38t-80 108q0 37 23.5 62.5t62.5 25.5q43 0 64.5 -26t28.5 -57.5t34 -57t78 -25.5q125 0 221 91t186 259q41 76 116 236.5t91 195.5q-96 29 -188 29q-147 0 -224 -43
t-77 -96q0 -25 17.5 -62t17.5 -68q0 -39 -28 -71.5t-75 -32.5t-79.5 36t-32.5 89q0 129 137 225.5t344 96.5q111 0 221 -37zM1456 463h10v880q-141 -25 -247.5 -129t-196.5 -276l-43 -86q143 -59 269 -162.5t208 -226.5z" />
    <glyph glyph-name="glyph422" horiz-adv-x="1759" 
d="M1483 1806l317 -243l-39 -50l-278 152l-279 -152l-39 50zM948 973q139 250 312.5 375t427.5 86h2v-35q-39 -6 -69 -33t-30 -74v-1151q0 -47 30 -73.5t69 -32.5v-35h-324v35q41 6 70.5 32.5t29.5 73.5v76q-33 174 -180 333t-340 236q-170 -369 -205 -436
q-98 -184 -212.5 -284.5t-272.5 -100.5q-135 0 -215 38t-80 108q0 37 23.5 62.5t62.5 25.5q43 0 64.5 -26t28.5 -57.5t34 -57t78 -25.5q125 0 221 91t186 259q41 76 116 236.5t91 195.5q-96 29 -188 29q-147 0 -224 -43t-77 -96q0 -25 17.5 -62t17.5 -68q0 -39 -28 -71.5
t-75 -32.5t-79.5 36t-32.5 89q0 129 137 225.5t344 96.5q111 0 221 -37zM1456 463h10v880q-141 -25 -247.5 -129t-196.5 -276l-43 -86q143 -59 269 -162.5t208 -226.5z" />
    <glyph glyph-name="glyph423" horiz-adv-x="1759" 
d="M1360 1659q-41 0 -68.5 26.5t-27.5 65.5q0 41 27.5 68.5t68.5 27.5t68.5 -27.5t27.5 -68.5q0 -39 -27.5 -65.5t-68.5 -26.5zM1677 1847q41 0 69 -27.5t28 -68.5q0 -39 -28 -65.5t-69 -26.5t-68.5 26.5t-27.5 65.5q0 41 27.5 68.5t68.5 27.5zM948 973q139 250 312.5 375
t427.5 86h2v-35q-39 -6 -69 -33t-30 -74v-1151q0 -47 30 -73.5t69 -32.5v-35h-324v35q41 6 70.5 32.5t29.5 73.5v76q-33 174 -180 333t-340 236q-170 -369 -205 -436q-98 -184 -212.5 -284.5t-272.5 -100.5q-135 0 -215 38t-80 108q0 37 23.5 62.5t62.5 25.5q43 0 64.5 -26
t28.5 -57.5t34 -57t78 -25.5q125 0 221 91t186 259q41 76 116 236.5t91 195.5q-96 29 -188 29q-147 0 -224 -43t-77 -96q0 -25 17.5 -62t17.5 -68q0 -39 -28 -71.5t-75 -32.5t-79.5 36t-32.5 89q0 129 137 225.5t344 96.5q111 0 221 -37zM1456 463h10v880
q-141 -25 -247.5 -129t-196.5 -276l-43 -86q143 -59 269 -162.5t208 -226.5z" />
    <glyph glyph-name="glyph424" horiz-adv-x="1759" 
d="M1300 1702q-43 43 -43 74q0 23 16.5 41t45.5 18q41 0 72 -43l151 -231l-43 -35zM1690 1399q-39 -6 -69 -33t-30 -74v-1151q0 -47 30 -73.5t69 -32.5v-35h-324v35q41 6 70.5 32.5t29.5 73.5v76q-33 174 -180 333t-340 236q-170 -369 -205 -436q-98 -184 -212.5 -284.5
t-272.5 -100.5q-135 0 -215 38t-80 108q0 37 23.5 62.5t62.5 25.5q43 0 64.5 -26t28.5 -57.5t34 -57t78 -25.5q125 0 221 91t186 259q41 76 116 236.5t91 195.5q-96 29 -188 29q-147 0 -224 -43t-77 -96q0 -25 17.5 -62t17.5 -68q0 -39 -28 -71.5t-75 -32.5t-79.5 36
t-32.5 89q0 129 137 225.5t344 96.5q111 0 221 -37l49 92q139 250 312.5 375t427.5 86h2v-35zM1456 463h10v880q-141 -25 -247.5 -129t-196.5 -276l-43 -86q143 -59 269 -162.5t208 -226.5z" />
    <glyph glyph-name="glyph425" horiz-adv-x="1759" 
d="M1194 1776h504v-93h-504v93zM948 973q139 250 312.5 375t427.5 86h2v-35q-39 -6 -69 -33t-30 -74v-1151q0 -47 30 -73.5t69 -32.5v-35h-324v35q41 6 70.5 32.5t29.5 73.5v76q-33 174 -180 333t-340 236q-170 -369 -205 -436q-98 -184 -212.5 -284.5t-272.5 -100.5
q-135 0 -215 38t-80 108q0 37 23.5 62.5t62.5 25.5q43 0 64.5 -26t28.5 -57.5t34 -57t78 -25.5q125 0 221 91t186 259q41 76 116 236.5t91 195.5q-96 29 -188 29q-147 0 -224 -43t-77 -96q0 -25 17.5 -62t17.5 -68q0 -39 -28 -71.5t-75 -32.5t-79.5 36t-32.5 89
q0 129 137 225.5t344 96.5q111 0 221 -37zM1456 463h10v880q-141 -25 -247.5 -129t-196.5 -276l-43 -86q143 -59 269 -162.5t208 -226.5z" />
    <glyph glyph-name="glyph426" horiz-adv-x="1759" 
d="M1745 -250l53 -29q-76 -152 -250 -151q-92 0 -157.5 51t-65.5 139q0 66 44 131.5t114 108.5h-117v35q41 6 70.5 32.5t29.5 73.5v76q-33 174 -180 333t-340 236q-170 -369 -205 -436q-98 -184 -212.5 -284.5t-272.5 -100.5q-135 0 -215 38t-80 108q0 37 23.5 62.5
t62.5 25.5q43 0 64.5 -26t28.5 -57.5t34 -57t78 -25.5q125 0 221 91t186 259q41 76 116 236.5t91 195.5q-96 29 -188 29q-147 0 -224 -43t-77 -96q0 -25 17.5 -62t17.5 -68q0 -39 -28 -71.5t-75 -32.5t-79.5 36t-32.5 89q0 129 137 225.5t344 96.5q111 0 221 -37l49 92
q139 250 312.5 375t427.5 86h2v-35q-39 -6 -69 -33t-30 -74v-1151q0 -47 30 -73.5t69 -32.5v-35h-105q-70 -33 -110.5 -88t-40.5 -117q0 -66 46 -107.5t105 -41.5q105 0 160 104zM1456 463h10v880q-141 -25 -247.5 -129t-196.5 -276l-43 -86q143 -59 269 -162.5t208 -226.5z
" />
    <glyph glyph-name="glyph427" horiz-adv-x="1759" 
d="M1485 1538q-90 0 -153.5 63.5t-63.5 151.5q0 90 62.5 153.5t154.5 63.5q90 0 153.5 -63.5t63.5 -153.5q0 -86 -64.5 -150.5t-152.5 -64.5zM1484.5 1892q-57.5 0 -96 -40t-38.5 -99q0 -57 38.5 -96t96 -39t97.5 39t40 96t-40 98t-97.5 41zM948 973q139 250 312.5 375
t427.5 86h2v-35q-39 -6 -69 -33t-30 -74v-1151q0 -47 30 -73.5t69 -32.5v-35h-324v35q41 6 70.5 32.5t29.5 73.5v76q-33 174 -180 333t-340 236q-170 -369 -205 -436q-98 -184 -212.5 -284.5t-272.5 -100.5q-135 0 -215 38t-80 108q0 37 23.5 62.5t62.5 25.5q43 0 64.5 -26
t28.5 -57.5t34 -57t78 -25.5q125 0 221 91t186 259q41 76 116 236.5t91 195.5q-96 29 -188 29q-147 0 -224 -43t-77 -96q0 -25 17.5 -62t17.5 -68q0 -39 -28 -71.5t-75 -32.5t-79.5 36t-32.5 89q0 129 137 225.5t344 96.5q111 0 221 -37zM1456 463h10v880
q-141 -25 -247.5 -129t-196.5 -276l-43 -86q143 -59 269 -162.5t208 -226.5z" />
    <glyph glyph-name="glyph428" horiz-adv-x="1759" 
d="M1751 2165q0 -31 -43 -74l-145 -129q70 -18 114.5 -76.5t44.5 -132.5q0 -86 -64.5 -150.5t-152.5 -64.5q-90 0 -153.5 63.5t-63.5 151.5q0 84 53.5 145.5t135.5 69.5l141 213q31 43 72 43q29 0 45 -18t16 -41zM1642 1753q0 57 -39.5 98t-97 41t-96.5 -40t-39 -99
q0 -57 39 -96t96.5 -39t97 39t39.5 96zM948 973q139 250 312.5 375t427.5 86h2v-35q-39 -6 -69 -33t-30 -74v-1151q0 -47 30 -73.5t69 -32.5v-35h-324v35q41 6 70.5 32.5t29.5 73.5v76q-33 174 -180 333t-340 236q-170 -369 -205 -436q-98 -184 -212.5 -284.5t-272.5 -100.5
q-135 0 -215 38t-80 108q0 37 23.5 62.5t62.5 25.5q43 0 64.5 -26t28.5 -57.5t34 -57t78 -25.5q125 0 221 91t186 259q41 76 116 236.5t91 195.5q-96 29 -188 29q-147 0 -224 -43t-77 -96q0 -25 17.5 -62t17.5 -68q0 -39 -28 -71.5t-75 -32.5t-79.5 36t-32.5 89
q0 129 137 225.5t344 96.5q111 0 221 -37zM1456 463h10v880q-141 -25 -247.5 -129t-196.5 -276l-43 -86q143 -59 269 -162.5t208 -226.5z" />
    <glyph glyph-name="glyph429" horiz-adv-x="1759" 
d="M1313 1759q-63 0 -80 -90l-49 19q12 80 54 122.5t108 42.5q51 0 134 -60t117 -60q61 0 82 90l45 -17q-27 -170 -161 -170q-51 0 -133 61.5t-117 61.5zM948 973q139 250 312.5 375t427.5 86h2v-35q-39 -6 -69 -33t-30 -74v-1151q0 -47 30 -73.5t69 -32.5v-35h-324v35
q41 6 70.5 32.5t29.5 73.5v76q-33 174 -180 333t-340 236q-170 -369 -205 -436q-98 -184 -212.5 -284.5t-272.5 -100.5q-135 0 -215 38t-80 108q0 37 23.5 62.5t62.5 25.5q43 0 64.5 -26t28.5 -57.5t34 -57t78 -25.5q125 0 221 91t186 259q41 76 116 236.5t91 195.5
q-96 29 -188 29q-147 0 -224 -43t-77 -96q0 -25 17.5 -62t17.5 -68q0 -39 -28 -71.5t-75 -32.5t-79.5 36t-32.5 89q0 129 137 225.5t344 96.5q111 0 221 -37zM1456 463h10v880q-141 -25 -247.5 -129t-196.5 -276l-43 -86q143 -59 269 -162.5t208 -226.5z" />
    <glyph glyph-name="glyph430" horiz-adv-x="1783" 
d="M1372 770q143 -47 226 -148.5t83 -226.5q0 -193 -131 -305.5t-395 -112.5q-113 0 -277.5 11.5t-222.5 11.5h-161v35q39 6 69.5 32.5t30.5 73.5v1237q-250 25 -309 25q-199 0 -199 -121q0 -29 23.5 -62.5t23.5 -60.5q0 -74 -76 -74q-45 0 -70.5 37t-23.5 84q2 104 83 183
t241 79q96 0 260 -17t258 -17h301q231 0 366.5 -100.5t135.5 -248.5q0 -96 -62.5 -178t-173.5 -125v-12zM1106 1368q-266 0 -389 -18v-543h428q156 0 247 81t91 197q0 121 -98.5 202t-278.5 81zM1151 51q201 0 303 92.5t102 253.5q0 147 -114.5 244.5t-300.5 97.5h-424v-657
q61 -4 153.5 -12.5t158 -13.5t122.5 -5z" />
    <glyph glyph-name="glyph431" horiz-adv-x="1779" 
d="M1653 424l55 -21q-125 -438 -553 -438q-281 0 -448.5 208t-167.5 505q0 309 182 539q-125 90 -221.5 138t-196.5 48q-111 0 -175.5 -49t-64.5 -133q0 -31 37 -72t37 -74t-19.5 -55.5t-54.5 -22.5q-47 0 -74.5 48.5t-27.5 121.5q0 133 95.5 217t248.5 84q125 0 233.5 -50
t235.5 -140q186 190 455 190q199 0 304 -77.5t105 -206.5q0 -109 -86 -183.5t-211 -74.5q-100 0 -203.5 37.5t-171 79.5t-167.5 116q-135 -176 -135 -411q0 -346 154.5 -513t383.5 -167q318 0 451 356zM1225 1403q-92 0 -192.5 -48t-182.5 -134q104 -78 160.5 -115
t150.5 -75t180 -38q102 0 163 57.5t61 133.5q0 219 -340 219z" />
    <glyph glyph-name="glyph432" horiz-adv-x="1779" 
d="M1425 1778l-317 -244l-317 244l38 49l279 -152l278 152zM1653 424l55 -21q-125 -438 -553 -438q-281 0 -448.5 208t-167.5 505q0 309 182 539q-125 90 -221.5 138t-196.5 48q-111 0 -175.5 -49t-64.5 -133q0 -31 37 -72t37 -74t-19.5 -55.5t-54.5 -22.5q-47 0 -74.5 48.5
t-27.5 121.5q0 133 95.5 217t248.5 84q125 0 233.5 -50t235.5 -140q186 190 455 190q199 0 304 -77.5t105 -206.5q0 -109 -86 -183.5t-211 -74.5q-100 0 -203.5 37.5t-171 79.5t-167.5 116q-135 -176 -135 -411q0 -346 154.5 -513t383.5 -167q318 0 451 356zM1225 1403
q-92 0 -192.5 -48t-182.5 -134q104 -78 160.5 -115t150.5 -75t180 -38q102 0 163 57.5t61 133.5q0 219 -340 219z" />
    <glyph glyph-name="glyph433" horiz-adv-x="1779" 
d="M1708 403q-117 -408 -496 -436l-47 -110q35 12 68 12q80 0 129 -39t49 -111q0 -74 -71.5 -131t-194.5 -57q-96 0 -156.5 31.5t-60.5 75.5q0 27 16.5 44t42.5 17q31 0 47.5 -17.5t22.5 -39t29.5 -39t68.5 -17.5q68 0 103.5 30t35.5 77q0 37 -25.5 60.5t-70.5 23.5
q-63 0 -100 -37l-43 20l86 205q-274 6 -438 213t-164 500q0 309 182 539q-125 90 -221.5 138t-196.5 48q-111 0 -175.5 -49t-64.5 -133q0 -31 37 -72t37 -74t-19.5 -55.5t-54.5 -22.5q-47 0 -74.5 48.5t-27.5 121.5q0 133 95.5 217t248.5 84q125 0 233.5 -50t235.5 -140
q186 190 455 190q199 0 304 -77.5t105 -206.5q0 -109 -86 -183.5t-211 -74.5q-100 0 -203.5 37.5t-171 79.5t-167.5 116q-135 -176 -135 -411q0 -346 154.5 -513t383.5 -167q317 0 451 356zM1225 1403q-92 0 -192.5 -48t-182.5 -134q104 -78 160.5 -115t150.5 -75t180 -38
q102 0 163 57.5t61 133.5q0 219 -340 219z" />
    <glyph glyph-name="glyph434" horiz-adv-x="1779" 
d="M1108 1665l-279 -152l-38 50l317 243l317 -243l-39 -50zM1653 424l55 -21q-125 -438 -553 -438q-281 0 -448.5 208t-167.5 505q0 309 182 539q-125 90 -221.5 138t-196.5 48q-111 0 -175.5 -49t-64.5 -133q0 -31 37 -72t37 -74t-19.5 -55.5t-54.5 -22.5q-47 0 -74.5 48.5
t-27.5 121.5q0 133 95.5 217t248.5 84q125 0 233.5 -50t235.5 -140q186 190 455 190q199 0 304 -77.5t105 -206.5q0 -109 -86 -183.5t-211 -74.5q-100 0 -203.5 37.5t-171 79.5t-167.5 116q-135 -176 -135 -411q0 -346 154.5 -513t383.5 -167q318 0 451 356zM1225 1403
q-92 0 -192.5 -48t-182.5 -134q104 -78 160.5 -115t150.5 -75t180 -38q102 0 163 57.5t61 133.5q0 219 -340 219z" />
    <glyph glyph-name="glyph435" horiz-adv-x="1779" 
d="M1106 1659q-39 0 -66.5 26.5t-27.5 65.5q0 41 26.5 68.5t67.5 27.5t68.5 -27.5t27.5 -68.5q0 -39 -27.5 -65.5t-68.5 -26.5zM1653 424l55 -21q-125 -438 -553 -438q-281 0 -448.5 208t-167.5 505q0 309 182 539q-125 90 -221.5 138t-196.5 48q-111 0 -175.5 -49
t-64.5 -133q0 -31 37 -72t37 -74t-19.5 -55.5t-54.5 -22.5q-47 0 -74.5 48.5t-27.5 121.5q0 133 95.5 217t248.5 84q125 0 233.5 -50t235.5 -140q186 190 455 190q199 0 304 -77.5t105 -206.5q0 -109 -86 -183.5t-211 -74.5q-100 0 -203.5 37.5t-171 79.5t-167.5 116
q-135 -176 -135 -411q0 -346 154.5 -513t383.5 -167q318 0 451 356zM1225 1403q-92 0 -192.5 -48t-182.5 -134q104 -78 160.5 -115t150.5 -75t180 -38q102 0 163 57.5t61 133.5q0 219 -340 219z" />
    <glyph glyph-name="glyph436" horiz-adv-x="1845" 
d="M989 1434q322 0 538 -212t216 -530q0 -297 -183.5 -494.5t-478.5 -197.5h-587v35q39 6 69.5 32.5t30.5 73.5v1237q-250 25 -309 25q-201 0 -201 -121q0 -29 23.5 -62.5t23.5 -60.5q0 -74 -74 -74q-45 0 -70.5 37t-23.5 84q2 104 83 183t239 79q96 0 261 -17t259 -17h184z
M1067 70q135 0 243.5 51t174 136t99.5 189.5t34 219.5q0 319 -175 510.5t-470 191.5q-160 0 -256 -14v-1252q133 -32 350 -32z" />
    <glyph glyph-name="glyph437" horiz-adv-x="1845" 
d="M1315 1778l-318 -244l-317 244l39 49l278 -152l279 152zM989 1434q322 0 538 -212t216 -530q0 -297 -183.5 -494.5t-478.5 -197.5h-587v35q39 6 69.5 32.5t30.5 73.5v1237q-250 25 -309 25q-201 0 -201 -121q0 -29 23.5 -62.5t23.5 -60.5q0 -74 -74 -74q-45 0 -70.5 37
t-23.5 84q2 104 83 183t239 79q96 0 261 -17t259 -17h184zM1067 70q135 0 243.5 51t174 136t99.5 189.5t34 219.5q0 319 -175 510.5t-470 191.5q-160 0 -256 -14v-1252q133 -32 350 -32z" />
    <glyph glyph-name="glyph438" horiz-adv-x="1845" 
d="M989 1434q322 0 538 -212t216 -530q0 -297 -183.5 -494.5t-478.5 -197.5h-587v35q39 6 69.5 32.5t30.5 73.5v539h-283v72h283v626q-250 25 -309 25q-201 0 -201 -121q0 -29 23.5 -62.5t23.5 -60.5q0 -74 -74 -74q-45 0 -70.5 37t-23.5 84q2 104 83 183t239 79
q96 0 261 -17t259 -17h184zM1067 70q135 0 243.5 51t174 136t99.5 189.5t34 219.5q0 319 -175 510.5t-470 191.5q-160 0 -256 -14v-602h305l2 -72h-307v-578q133 -32 350 -32z" />
    <glyph glyph-name="glyph439" horiz-adv-x="1722" 
d="M1657 283l45 -17l-90 -293h-13q-80 27 -253 27h-781v35q39 6 70 32.5t31 73.5v1229q-23 2 -164.5 17.5t-216.5 15.5q-201 0 -201 -121q0 -29 23.5 -62.5t23.5 -60.5q0 -74 -76 -74q-43 0 -68.5 36t-25.5 85q4 104 85 183t239 79q96 0 260 -17t258 -17h717l92 -222
l-43 -16q-4 6 -13.5 18.5t-47.5 41t-86 51t-136 41t-192 18.5q-172 0 -306 -18v-551h547q43 0 77 31.5t40 74.5h35l-2 -282h-35q-6 43 -38 74.5t-75 31.5h-549v-639q158 -20 398 -20q109 0 196.5 22.5t136 54t82 62.5t46.5 53z" />
    <glyph glyph-name="glyph440" horiz-adv-x="1722" 
d="M1108 1589q-113 0 -176.5 57.5t-89.5 141.5l57 20q23 -47 80 -86t129 -39q68 0 127 39t82 86l57 -20q-65 -199 -266 -199zM1657 283l45 -17l-90 -293h-13q-80 27 -253 27h-781v35q39 6 70 32.5t31 73.5v1229q-23 2 -164.5 17.5t-216.5 15.5q-201 0 -201 -121
q0 -29 23.5 -62.5t23.5 -60.5q0 -74 -76 -74q-43 0 -68.5 36t-25.5 85q4 104 85 183t239 79q96 0 260 -17t258 -17h717l92 -222l-43 -16q-4 6 -13.5 18.5t-47.5 41t-86 51t-136 41t-192 18.5q-172 0 -306 -18v-551h547q43 0 77 31.5t40 74.5h35l-2 -282h-35q-6 43 -38 74.5
t-75 31.5h-549v-639q158 -20 398 -20q109 0 196.5 22.5t136 54t82 62.5t46.5 53z" />
    <glyph glyph-name="glyph441" horiz-adv-x="1722" 
d="M1425 1778l-317 -244l-317 244l38 49l279 -152l278 152zM1657 283l45 -17l-90 -293h-13q-80 27 -253 27h-781v35q39 6 70 32.5t31 73.5v1229q-23 2 -164.5 17.5t-216.5 15.5q-201 0 -201 -121q0 -29 23.5 -62.5t23.5 -60.5q0 -74 -76 -74q-43 0 -68.5 36t-25.5 85
q4 104 85 183t239 79q96 0 260 -17t258 -17h717l92 -222l-43 -16q-4 6 -13.5 18.5t-47.5 41t-86 51t-136 41t-192 18.5q-172 0 -306 -18v-551h547q43 0 77 31.5t40 74.5h35l-2 -282h-35q-6 43 -38 74.5t-75 31.5h-549v-639q158 -20 398 -20q109 0 196.5 22.5t136 54t82 62.5
t46.5 53z" />
    <glyph glyph-name="glyph442" horiz-adv-x="1722" 
d="M1106 1659q-39 0 -66.5 26.5t-27.5 65.5q0 41 26.5 68.5t67.5 27.5t68.5 -27.5t27.5 -68.5q0 -39 -27.5 -65.5t-68.5 -26.5zM1657 283l45 -17l-90 -293h-13q-80 27 -253 27h-781v35q39 6 70 32.5t31 73.5v1229q-23 2 -164.5 17.5t-216.5 15.5q-201 0 -201 -121
q0 -29 23.5 -62.5t23.5 -60.5q0 -74 -76 -74q-43 0 -68.5 36t-25.5 85q4 104 85 183t239 79q96 0 260 -17t258 -17h717l92 -222l-43 -16q-4 6 -13.5 18.5t-47.5 41t-86 51t-136 41t-192 18.5q-172 0 -306 -18v-551h547q43 0 77 31.5t40 74.5h35l-2 -282h-35q-6 43 -38 74.5
t-75 31.5h-549v-639q158 -20 398 -20q109 0 196.5 22.5t136 54t82 62.5t46.5 53z" />
    <glyph glyph-name="glyph443" horiz-adv-x="1722" 
d="M1360 1776v-93h-504v93h504zM1657 283l45 -17l-90 -293h-13q-80 27 -253 27h-781v35q39 6 70 32.5t31 73.5v1229q-23 2 -164.5 17.5t-216.5 15.5q-201 0 -201 -121q0 -29 23.5 -62.5t23.5 -60.5q0 -74 -76 -74q-43 0 -68.5 36t-25.5 85q4 104 85 183t239 79q96 0 260 -17
t258 -17h717l92 -222l-43 -16q-4 6 -13.5 18.5t-47.5 41t-86 51t-136 41t-192 18.5q-172 0 -306 -18v-551h547q43 0 77 31.5t40 74.5h35l-2 -282h-35q-6 43 -38 74.5t-75 31.5h-549v-639q158 -20 398 -20q109 0 196.5 22.5t136 54t82 62.5t46.5 53z" />
    <glyph glyph-name="glyph444" horiz-adv-x="1722" 
d="M1780 -250l53 -29q-76 -152 -250 -151q-92 0 -157.5 51t-65.5 139q0 66 44 131.5t114 108.5h-953v35q39 6 70 32.5t31 73.5v1229q-23 2 -164.5 17.5t-216.5 15.5q-201 0 -201 -121q0 -29 23.5 -62.5t23.5 -60.5q0 -74 -76 -74q-43 0 -68.5 36t-25.5 85q4 104 85 183
t239 79q96 0 260 -17t258 -17h717l92 -222l-43 -16q-4 6 -13.5 18.5t-47.5 41t-86 51t-136 41t-192 18.5q-172 0 -306 -18v-551h547q43 0 77 31.5t40 74.5h35l-2 -282h-35q-6 43 -38 74.5t-75 31.5h-549v-639q158 -20 398 -20q109 0 196.5 22.5t136 54t82 62.5t46.5 53
l10 23l45 -17l-82 -266q-70 -33 -111 -88t-41 -117q0 -66 46.5 -107.5t105.5 -41.5q105 0 160 104z" />
    <glyph glyph-name="glyph445" horiz-adv-x="1634" 
d="M1522 1434l92 -224l-43 -14q-4 6 -13.5 18.5t-47 41t-86 51t-136.5 41t-192 18.5q-178 0 -308 -18v-512h508q43 0 77 31.5t38 74.5h35v-283h-37q-4 43 -36 75t-75 32h-510v-680q0 -446 -358 -446q-123 0 -186.5 52t-63.5 105q0 41 22.5 65.5t55.5 24.5q39 0 64.5 -27.5
t36 -62.5t37 -62.5t67.5 -27.5q102 0 151.5 81t49.5 298v1282q-41 4 -119 14.5t-140.5 15.5t-119.5 5q-199 0 -199 -123q0 -29 23.5 -62.5t23.5 -60.5q0 -74 -76 -74q-43 0 -69.5 37t-24.5 84q2 104 83 183t241 79q94 0 241.5 -15t196.5 -17h797z" />
    <glyph glyph-name="glyph446" horiz-adv-x="1800" 
d="M1456 719h324v-35q-41 -6 -71 -32.5t-30 -73.5v-615q0 -115 -44 -198.5t-120.5 -130t-165.5 -68t-192 -21.5q-184 0 -311 62.5t-127 146.5q0 35 22.5 59.5t53.5 24.5q39 0 58 -23.5t31.5 -56t34 -65.5t85 -56.5t165.5 -23.5q385 0 385 350v137q-154 -137 -401 -137
q-186 0 -328.5 100.5t-214 260t-71.5 350.5q0 311 180 538q-123 92 -219.5 140.5t-196.5 48.5q-111 0 -176.5 -49t-65.5 -133q0 -33 38 -74t38 -72q0 -33 -20.5 -55.5t-55.5 -22.5q-47 0 -73.5 47.5t-26.5 120.5q0 135 95.5 219t248.5 84q123 0 232.5 -50t234.5 -142
q193 193 455 192q199 0 304 -78.5t105 -205.5q0 -109 -88 -184.5t-211 -75.5q-98 0 -201.5 37.5t-171 79.5t-167.5 116q-133 -178 -133 -412q0 -178 44 -313t121.5 -213t171 -116t199.5 -38q219 0 354 150v365q0 47 -29.5 73.5t-68.5 32.5v35zM1225 1401q-92 0 -192.5 -48
t-184.5 -136q102 -76 159.5 -114t150.5 -76t179 -38q102 0 165 58.5t63 134.5q0 111 -90 165t-250 54z" />
    <glyph glyph-name="glyph447" horiz-adv-x="1800" 
d="M1223 1589q-113 0 -176.5 57.5t-90.5 141.5l58 20q23 -47 80 -86t129 -39q68 0 127 39t82 86l57 -20q-65 -199 -266 -199zM1456 719h324v-35q-41 -6 -71 -32.5t-30 -73.5v-615q0 -115 -44 -198.5t-120.5 -130t-165.5 -68t-192 -21.5q-184 0 -311 62.5t-127 146.5
q0 35 22.5 59.5t53.5 24.5q39 0 58 -23.5t31.5 -56t34 -65.5t85 -56.5t165.5 -23.5q385 0 385 350v137q-154 -137 -401 -137q-186 0 -328.5 100.5t-214 260t-71.5 350.5q0 311 180 538q-123 92 -219.5 140.5t-196.5 48.5q-111 0 -176.5 -49t-65.5 -133q0 -33 38 -74t38 -72
q0 -33 -20.5 -55.5t-55.5 -22.5q-47 0 -73.5 47.5t-26.5 120.5q0 135 95.5 219t248.5 84q123 0 232.5 -50t234.5 -142q193 193 455 192q199 0 304 -78.5t105 -205.5q0 -109 -88 -184.5t-211 -75.5q-98 0 -201.5 37.5t-171 79.5t-167.5 116q-133 -178 -133 -412
q0 -178 44 -313t121.5 -213t171 -116t199.5 -38q219 0 354 150v365q0 47 -29.5 73.5t-68.5 32.5v35zM1225 1401q-92 0 -192.5 -48t-184.5 -136q102 -76 159.5 -114t150.5 -76t179 -38q102 0 165 58.5t63 134.5q0 111 -90 165t-250 54z" />
    <glyph glyph-name="glyph448" horiz-adv-x="1800" 
d="M1202 1665l-278 -152l-39 50l317 243l318 -243l-39 -50zM1456 719h324v-35q-41 -6 -71 -32.5t-30 -73.5v-615q0 -115 -44 -198.5t-120.5 -130t-165.5 -68t-192 -21.5q-184 0 -311 62.5t-127 146.5q0 35 22.5 59.5t53.5 24.5q39 0 58 -23.5t31.5 -56t34 -65.5t85 -56.5
t165.5 -23.5q385 0 385 350v137q-154 -137 -401 -137q-186 0 -328.5 100.5t-214 260t-71.5 350.5q0 311 180 538q-123 92 -219.5 140.5t-196.5 48.5q-111 0 -176.5 -49t-65.5 -133q0 -33 38 -74t38 -72q0 -33 -20.5 -55.5t-55.5 -22.5q-47 0 -73.5 47.5t-26.5 120.5
q0 135 95.5 219t248.5 84q123 0 232.5 -50t234.5 -142q193 193 455 192q199 0 304 -78.5t105 -205.5q0 -109 -88 -184.5t-211 -75.5q-98 0 -201.5 37.5t-171 79.5t-167.5 116q-133 -178 -133 -412q0 -178 44 -313t121.5 -213t171 -116t199.5 -38q219 0 354 150v365
q0 47 -29.5 73.5t-68.5 32.5v35zM1225 1401q-92 0 -192.5 -48t-184.5 -136q102 -76 159.5 -114t150.5 -76t179 -38q102 0 165 58.5t63 134.5q0 111 -90 165t-250 54z" />
    <glyph glyph-name="glyph449" horiz-adv-x="1812" 
d="M1456 719h324v-35q-41 -6 -71 -32.5t-30 -73.5v-574q0 -115 -44 -199t-120.5 -130t-165.5 -67.5t-192 -21.5q-184 0 -311 62.5t-127 146.5q0 35 22.5 59.5t53.5 24.5q39 0 58 -23.5t31.5 -56t34 -65.5t85 -56.5t165.5 -23.5q385 0 385 350v96q-154 -137 -401 -137
q-186 0 -328.5 100.5t-214 260t-71.5 350.5q0 311 180 538q-123 92 -219.5 140.5t-196.5 48.5q-111 0 -176.5 -49t-65.5 -133q0 -33 38 -74t38 -72q0 -33 -20.5 -55.5t-55.5 -22.5q-47 0 -73.5 47.5t-26.5 120.5q0 135 95.5 219t248.5 84q123 0 232.5 -50t234.5 -142
q193 193 455 192q199 0 304 -78.5t105 -205.5q0 -109 -88 -184.5t-211 -75.5q-98 0 -201.5 37.5t-171 79.5t-167.5 116q-133 -178 -133 -412q0 -178 44 -313t121.5 -213t171 -116t199.5 -38q219 0 354 150v365q0 47 -29.5 73.5t-68.5 32.5v35zM1225 1401q-92 0 -192.5 -48
t-184.5 -136q102 -76 159.5 -114t150.5 -76t179 -38q102 0 165 58.5t63 134.5q0 111 -90 165t-250 54zM1167 -522q55 0 85 -42t30 -102q0 -100 -53 -229t-139 -211l-66 53q51 45 104.5 134.5t63.5 181.5l-4 6q-8 -2 -21 -2q-45 0 -75.5 29.5t-30.5 78.5q0 45 30.5 74
t75.5 29z" />
    <glyph glyph-name="glyph450" horiz-adv-x="1800" 
d="M1202 1659q-39 0 -66.5 26.5t-27.5 65.5q0 41 26.5 68.5t67.5 27.5t68.5 -27.5t27.5 -68.5q0 -39 -27.5 -65.5t-68.5 -26.5zM1456 719h324v-35q-41 -6 -71 -32.5t-30 -73.5v-615q0 -115 -44 -198.5t-120.5 -130t-165.5 -68t-192 -21.5q-184 0 -311 62.5t-127 146.5
q0 35 22.5 59.5t53.5 24.5q39 0 58 -23.5t31.5 -56t34 -65.5t85 -56.5t165.5 -23.5q385 0 385 350v137q-154 -137 -401 -137q-186 0 -328.5 100.5t-214 260t-71.5 350.5q0 311 180 538q-123 92 -219.5 140.5t-196.5 48.5q-111 0 -176.5 -49t-65.5 -133q0 -33 38 -74t38 -72
q0 -33 -20.5 -55.5t-55.5 -22.5q-47 0 -73.5 47.5t-26.5 120.5q0 135 95.5 219t248.5 84q123 0 232.5 -50t234.5 -142q193 193 455 192q199 0 304 -78.5t105 -205.5q0 -109 -88 -184.5t-211 -75.5q-98 0 -201.5 37.5t-171 79.5t-167.5 116q-133 -178 -133 -412
q0 -178 44 -313t121.5 -213t171 -116t199.5 -38q219 0 354 150v365q0 47 -29.5 73.5t-68.5 32.5v35zM1225 1401q-92 0 -192.5 -48t-184.5 -136q102 -76 159.5 -114t150.5 -76t179 -38q102 0 165 58.5t63 134.5q0 111 -90 165t-250 54z" />
    <glyph glyph-name="glyph451" horiz-adv-x="1898" 
d="M1827 1399q-39 -6 -70 -33t-31 -74v-1151q0 -47 31 -73.5t70 -32.5v-35h-324v35q39 6 70 32.5t31 73.5v596h-816v-596q0 -47 30 -73.5t71 -32.5v-35h-324v35q39 6 69 32.5t30 73.5v1229q-37 4 -118 13.5t-142.5 14.5t-118.5 5q-201 0 -201 -121q0 -29 23.5 -62.5
t23.5 -60.5q0 -74 -74 -74q-45 0 -70.5 37t-23.5 84q0 104 81 183t241 79q96 0 260 -17t258 -17h86v-35q-41 -6 -71 -33t-30 -74v-458h816v458q0 47 -31 74t-70 33v35h324v-35z" />
    <glyph glyph-name="glyph452" horiz-adv-x="1898" 
d="M1726 141q0 -47 31 -73.5t70 -32.5v-35h-324v35q39 6 70 32.5t31 73.5v596h-816v-596q0 -47 30 -73.5t71 -32.5v-35h-324v35q39 6 69 32.5t30 73.5v883h-146v70h146v276q-37 4 -118 13.5t-142.5 14.5t-118.5 5q-201 0 -201 -121q0 -29 23.5 -62.5t23.5 -60.5
q0 -74 -74 -74q-45 0 -70.5 37t-23.5 84q0 104 81 183t241 79q96 0 260 -17t258 -17h86v-35q-41 -6 -71 -33t-30 -74v-198h816v198q0 47 -31 74t-70 33v35h324v-35q-39 -6 -70 -33t-31 -74v-198h146l2 -70h-148v-883zM788 834h816v190h-816v-190z" />
    <glyph glyph-name="glyph453" horiz-adv-x="1898" 
d="M1196 1665l-278 -152l-39 50l317 243l317 -243l-38 -50zM1827 1399q-39 -6 -70 -33t-31 -74v-1151q0 -47 31 -73.5t70 -32.5v-35h-324v35q39 6 70 32.5t31 73.5v596h-816v-596q0 -47 30 -73.5t71 -32.5v-35h-324v35q39 6 69 32.5t30 73.5v1229q-37 4 -118 13.5
t-142.5 14.5t-118.5 5q-201 0 -201 -121q0 -29 23.5 -62.5t23.5 -60.5q0 -74 -74 -74q-45 0 -70.5 37t-23.5 84q0 104 81 183t241 79q96 0 260 -17t258 -17h86v-35q-41 -6 -71 -33t-30 -74v-458h816v458q0 47 -31 74t-70 33v35h324v-35z" />
    <glyph glyph-name="glyph454" horiz-adv-x="962" 
d="M891 1399q-41 -6 -70.5 -33t-29.5 -74v-1151q0 -47 29.5 -73.5t70.5 -32.5v-35h-326v35q41 6 71 32.5t30 73.5v1229q-37 4 -119 13.5t-143.5 14.5t-118.5 5q-199 0 -199 -121q0 -29 23.5 -62.5t23.5 -60.5q0 -74 -76 -74q-43 0 -69.5 37t-24.5 84q2 104 83 183t241 79
q96 0 260 -17t258 -17h86v-35z" />
    <glyph glyph-name="glyph455" horiz-adv-x="1398" 
d="M565 35q41 6 71 32.5t30 73.5v1229q-37 4 -119 13.5t-143.5 14.5t-118.5 5q-199 0 -199 -121q0 -29 23.5 -62.5t23.5 -60.5q0 -74 -76 -74q-43 0 -69.5 37t-24.5 84q2 104 83 183t241 79q96 0 260 -17t258 -17h86v-35q-41 -6 -70.5 -33t-29.5 -74v-1151q0 -47 29.5 -73.5
t70.5 -32.5v-35h-326v35zM1018 1434h321v-35q-39 -6 -68.5 -33t-29.5 -74v-1220q0 -231 -84 -339t-260 -108q-125 0 -195.5 53.5t-70.5 104.5q0 41 22.5 65.5t55.5 24.5q39 0 65.5 -28.5t41.5 -61.5t49 -61.5t85 -28.5q84 0 125 81t41 298v1220q0 47 -29.5 74t-68.5 33v35z
" />
    <glyph glyph-name="glyph456" horiz-adv-x="962" 
d="M727 1659q-39 0 -66.5 26.5t-27.5 65.5q0 41 26.5 68.5t67.5 27.5t68.5 -27.5t27.5 -68.5q0 -39 -27.5 -65.5t-68.5 -26.5zM891 1399q-41 -6 -70.5 -33t-29.5 -74v-1151q0 -47 29.5 -73.5t70.5 -32.5v-35h-326v35q41 6 71 32.5t30 73.5v1229q-37 4 -119 13.5t-143.5 14.5
t-118.5 5q-199 0 -199 -121q0 -29 23.5 -62.5t23.5 -60.5q0 -74 -76 -74q-43 0 -69.5 37t-24.5 84q2 104 83 183t241 79q96 0 260 -17t258 -17h86v-35z" />
    <glyph glyph-name="glyph457" horiz-adv-x="962" 
d="M477 1776h504v-93h-504v93zM287 1468q96 0 260 -17t258 -17h86v-35q-41 -6 -70.5 -33t-29.5 -74v-1151q0 -47 29.5 -73.5t70.5 -32.5v-35h-326v35q41 6 71 32.5t30 73.5v1229q-37 4 -119 13.5t-143.5 14.5t-118.5 5q-199 0 -199 -121q0 -29 23.5 -62.5t23.5 -60.5
q0 -74 -76 -74q-43 0 -69.5 37t-24.5 84q2 104 83 183t241 79z" />
    <glyph glyph-name="glyph458" horiz-adv-x="962" 
d="M938 -250l53 -29q-76 -152 -250 -151q-92 0 -157.5 51t-65.5 139q0 66 44 131.5t114 108.5h-111v35q41 6 71 32.5t30 73.5v1229q-37 4 -119 13.5t-143.5 14.5t-118.5 5q-199 0 -199 -121q0 -29 23.5 -62.5t23.5 -60.5q0 -74 -76 -74q-43 0 -69.5 37t-24.5 84
q2 104 83 183t241 79q96 0 260 -17t258 -17h86v-35q-41 -6 -70.5 -33t-29.5 -74v-1151q0 -47 29.5 -73.5t70.5 -32.5v-35h-113q-70 -33 -110.5 -88t-40.5 -117q0 -66 46 -107.5t105 -41.5q105 0 160 104z" />
    <glyph glyph-name="glyph459" horiz-adv-x="962" 
d="M954 1823l45 -17q-27 -170 -161 -170q-51 0 -133 61.5t-117 61.5q-63 0 -80 -90l-49 19q12 80 54 122.5t108 42.5q51 0 134 -60t117 -60q62 0 82 90zM287 1468q96 0 260 -17t258 -17h86v-35q-41 -6 -70.5 -33t-29.5 -74v-1151q0 -47 29.5 -73.5t70.5 -32.5v-35h-326v35
q41 6 71 32.5t30 73.5v1229q-37 4 -119 13.5t-143.5 14.5t-118.5 5q-199 0 -199 -121q0 -29 23.5 -62.5t23.5 -60.5q0 -74 -76 -74q-43 0 -69.5 37t-24.5 84q2 104 83 183t241 79z" />
    <glyph glyph-name="glyph460" horiz-adv-x="1021" 
d="M991 872v-90h-172v-708q0 -449 -358 -449q-121 0 -185.5 53.5t-64.5 106.5q0 39 23.5 64.5t54.5 25.5q39 0 64.5 -27.5t35.5 -62.5t37 -62.5t68 -27.5q102 0 152 81t50 298v708h-381v90h381v328q0 90 43 129v8q-63 6 -217.5 38t-238.5 32q-90 0 -144.5 -30.5t-54.5 -92.5
q0 -29 23.5 -62.5t23.5 -60.5q0 -74 -76 -74q-45 0 -69.5 36t-24.5 85q4 104 85 183t239 79q96 0 260 -32.5t252 -34.5q76 70 159 67l33 -61q-84 -80 -170 -82v-455h172z" />
    <glyph glyph-name="glyph461" horiz-adv-x="1099" 
d="M752 1806l317 -243l-39 -50l-278 152l-279 -152l-39 50zM819 1327v-455h172v-90h-172v-708q0 -449 -358 -449q-121 0 -185.5 53.5t-64.5 106.5q0 39 23.5 64.5t54.5 25.5q39 0 64.5 -27.5t35.5 -62.5t37 -62.5t68 -27.5q102 0 152 81t50 298v708h-381v90h381v328
q0 90 43 129v8q-63 6 -217.5 38t-238.5 32q-90 0 -144.5 -30.5t-54.5 -92.5q0 -29 23.5 -62.5t23.5 -60.5q0 -74 -76 -74q-45 0 -69.5 36t-24.5 85q4 104 85 183t239 79q96 0 260 -32.5t252 -34.5q76 70 159 67l33 -61q-84 -80 -170 -82z" />
    <glyph glyph-name="glyph462" horiz-adv-x="1796" 
d="M2396 -141q39 0 62.5 -26t23.5 -62q0 -72 -80 -109t-215 -37q-141 0 -258 58.5t-197.5 153.5t-149.5 211t-126 240t-111.5 230.5t-123 190.5t-144.5 114l-289 -264v-418q0 -47 31 -73.5t70 -32.5v-35h-326v35q41 6 72 32.5t31 73.5v1229q-27 2 -166.5 17.5t-214.5 15.5
q-201 0 -201 -121q0 -29 23.5 -62.5t23.5 -60.5q0 -74 -76 -74q-45 0 -69.5 36t-24.5 85q4 106 85 184t239 78q96 0 260 -17t258 -17h86v-35q-39 -6 -70 -33t-31 -74v-614h7l671 614q47 49 40 75t-46 32v35h324v-35q-90 -10 -195 -107l-450 -411v-7q96 -31 178 -112.5
t142.5 -188t117.5 -228.5t116.5 -236.5t127 -209t162 -151.5t206.5 -57q51 0 79 26.5t34 57t28.5 57.5t65.5 27z" />
    <glyph glyph-name="glyph463" horiz-adv-x="1798" 
d="M2396 -141q39 0 62.5 -26t23.5 -62q0 -72 -80 -109t-215 -37q-141 0 -258 58.5t-197.5 153.5t-149.5 211t-126 240t-111.5 230.5t-123 190.5t-144.5 114l-289 -264v-418q0 -47 31 -73.5t70 -32.5v-35h-326v35q41 6 72 32.5t31 73.5v1229q-27 2 -166.5 17.5t-214.5 15.5
q-201 0 -201 -121q0 -29 23.5 -62.5t23.5 -60.5q0 -74 -76 -74q-45 0 -69.5 36t-24.5 85q4 106 85 184t239 78q96 0 260 -17t258 -17h86v-35q-39 -6 -70 -33t-31 -74v-614h7l671 614q47 49 40 75t-46 32v35h324v-35q-90 -10 -195 -107l-450 -411v-7q96 -31 178 -112.5
t142.5 -188t117.5 -228.5t116.5 -236.5t127 -209t162 -151.5t206.5 -57q51 0 79 26.5t34 57t28.5 57.5t65.5 27zM1219 -117q55 0 84.5 -42t29.5 -101q0 -100 -53 -229t-139 -211l-66 53q51 45 104.5 134t63.5 181l-4 6q-8 -2 -20 -2q-45 0 -76 30t-31 79q0 45 31 73.5
t76 28.5z" />
    <glyph glyph-name="glyph464" horiz-adv-x="1296" 
d="M1589 -160q82 0 82 -80q-2 -57 -67.5 -98t-173.5 -41q-94 0 -192.5 41t-183.5 98.5t-166 115.5t-166 99t-159 41q-76 -70 -160 -69l-30 61q18 29 61 53.5t96 28.5q8 43 9 168v539q0 254 125 438q-63 53 -106.5 83t-112 55.5t-142.5 25.5q-111 0 -175.5 -49.5
t-64.5 -132.5q0 -31 38 -72t38 -74q0 -35 -21.5 -55.5t-56.5 -20.5q-47 0 -73.5 47.5t-26.5 120.5q0 133 95.5 218t248.5 85q129 0 221 -44t189 -124q154 168 391 168q164 0 245 -67.5t81 -163.5q0 -94 -86 -156.5t-191 -62.5q-215 0 -414 155q-84 -156 -84 -370v-576
q0 -86 -34 -135v-6q84 -6 199.5 -69.5t211.5 -136.5t197.5 -132t159.5 -59q43 0 69.5 23.5t36.5 53t32.5 53t59.5 23.5zM1102 1401q-195 0 -318 -160q92 -76 175 -117t196 -41q84 0 144.5 45.5t60.5 106.5q0 78 -66.5 122t-191.5 44z" />
    <glyph glyph-name="glyph465" horiz-adv-x="1296" 
d="M924 1702l-199 -176l-43 37l152 229q31 43 71 43q29 0 45.5 -18.5t16.5 -40.5q0 -31 -43 -74zM1589 -160q82 0 82 -80q-2 -57 -67.5 -98t-173.5 -41q-94 0 -192.5 41t-183.5 98.5t-166 115.5t-166 99t-159 41q-76 -70 -160 -69l-30 61q18 29 61 53.5t96 28.5q8 43 9 168
v539q0 254 125 438q-63 53 -106.5 83t-112 55.5t-142.5 25.5q-111 0 -175.5 -49.5t-64.5 -132.5q0 -31 38 -72t38 -74q0 -35 -21.5 -55.5t-56.5 -20.5q-47 0 -73.5 47.5t-26.5 120.5q0 133 95.5 218t248.5 85q129 0 221 -44t189 -124q154 168 391 168q164 0 245 -67.5
t81 -163.5q0 -94 -86 -156.5t-191 -62.5q-215 0 -414 155q-84 -156 -84 -370v-576q0 -86 -34 -135v-6q82 -6 198.5 -69.5t212.5 -136.5t197.5 -132t159.5 -59q43 0 69.5 23.5t36.5 53t32.5 53t59.5 23.5zM1102 1401q-195 0 -318 -160q92 -76 175 -117t196 -41
q84 0 144.5 45.5t60.5 106.5q0 78 -66.5 122t-191.5 44z" />
    <glyph glyph-name="glyph466" horiz-adv-x="1761" 
d="M1761 1589q0 -100 -53 -229t-139 -211l-66 53q51 45 104.5 134t63.5 182l-4 6q-8 -2 -20 -2q-45 0 -76 29.5t-31 78.5q0 45 31 74t76 29q55 0 84.5 -42.5t29.5 -101.5zM1589 -160q82 0 82 -80q-2 -57 -67.5 -98t-173.5 -41q-94 0 -192.5 41t-183.5 98.5t-166 115.5
t-166 99t-159 41q-76 -70 -160 -69l-30 61q18 29 61 53.5t96 28.5q8 43 9 168v539q0 254 125 438q-63 53 -106.5 83t-112 55.5t-142.5 25.5q-111 0 -175.5 -49.5t-64.5 -132.5q0 -31 38 -72t38 -74q0 -35 -21.5 -55.5t-56.5 -20.5q-47 0 -73.5 47.5t-26.5 120.5
q0 133 95.5 218t248.5 85q129 0 221 -44t189 -124q154 168 391 168q164 0 245 -67.5t81 -163.5q0 -94 -86 -156.5t-191 -62.5q-215 0 -414 155q-84 -156 -84 -370v-576q0 -86 -34 -135v-6q82 -6 198.5 -69.5t212.5 -136.5t197.5 -132t159.5 -59q43 0 69.5 23.5t36.5 53
t32.5 53t59.5 23.5zM1102 1401q-195 0 -318 -160q92 -76 175 -117t196 -41q84 0 144.5 45.5t60.5 106.5q0 78 -66.5 122t-191.5 44z" />
    <glyph glyph-name="glyph467" horiz-adv-x="1296" 
d="M1589 -160q82 0 82 -80q-2 -57 -67.5 -98t-173.5 -41q-94 0 -192.5 41t-183.5 98.5t-166 115.5t-166 99t-159 41q-76 -70 -160 -69l-30 61q18 29 61 53.5t96 28.5q8 43 9 168v539q0 254 125 438q-63 53 -106.5 83t-112 55.5t-142.5 25.5q-111 0 -175.5 -49.5
t-64.5 -132.5q0 -31 38 -72t38 -74q0 -35 -21.5 -55.5t-56.5 -20.5q-47 0 -73.5 47.5t-26.5 120.5q0 133 95.5 218t248.5 85q129 0 221 -44t189 -124q154 168 391 168q164 0 245 -67.5t81 -163.5q0 -94 -86 -156.5t-191 -62.5q-215 0 -414 155q-84 -156 -84 -370v-576
q0 -86 -34 -135v-6q82 -6 198.5 -69.5t212.5 -136.5t197.5 -132t159.5 -59q43 0 69.5 23.5t36.5 53t32.5 53t59.5 23.5zM1102 1401q-195 0 -318 -160q92 -76 175 -117t196 -41q84 0 144.5 45.5t60.5 106.5q0 78 -66.5 122t-191.5 44zM633 -133q55 0 85 -42t30 -101
q0 -100 -53.5 -229.5t-139.5 -211.5l-66 53q51 45 104.5 134.5t63.5 181.5l-4 6q-8 -2 -20 -2q-45 0 -76 29.5t-31 78.5q0 45 31 74t76 29z" />
    </font>
</defs>
</svg>
