<?xml version="1.0" standalone="no"?>
<!DOCTYPE svg PUBLIC "-//W3C//DTD SVG 1.1//EN" "http://www.w3.org/Graphics/SVG/1.1/DTD/svg11.dtd" >
<svg xmlns="http://www.w3.org/2000/svg" xmlns:xlink="http://www.w3.org/1999/xlink" version="1.1">
<metadata>
Created by FontForge 20170731 at Wed Apr 17 11:03:24 2019
 By Aleksey,,,
Copyright (c) 2019 by Studio Sun. All rights reserved. Desktop use is strictly prohibited.
</metadata>
<defs>
<font id="Tropiline-Italic" horiz-adv-x="1193" >
  <font-face 
    font-family="Tropiline Italic"
    font-weight="400"
    font-style="italic"
    font-stretch="normal"
    units-per-em="2048"
    panose-1="0 0 0 0 0 0 0 0 0 0"
    ascent="1536"
    descent="-512"
    x-height="1106"
    cap-height="1434"
    bbox="-596 -1151 2841 2212"
    underline-thickness="0"
    underline-position="0"
    unicode-range="U+0020-FB06"
  />
<missing-glyph horiz-adv-x="1175" 
d="M240 0v1434h936v-1434h-936zM377 117h663v1200h-663v-1200z" />
    <glyph glyph-name="uniFB00" unicode="ff" horiz-adv-x="1165" 
d="M1225 1516q74 0 133 -28t59 -79q0 -33 -22.5 -53.5t-59.5 -20.5q-49 0 -81.5 46t-71.5 46q-37 0 -69 -46t-46 -138l-29 -174h287l-14 -88h-287l-203 -1231q-39 -233 -139 -338.5t-301 -105.5q-66 0 -128.5 28.5t-62.5 83.5q0 37 24 57.5t58 20.5q47 0 92.5 -51t88.5 -51
q59 0 105 54t63 155l231 1378h-332l-155 -940q-39 -233 -139.5 -338.5t-301.5 -105.5q-63 0 -127.5 28.5t-64.5 83.5q0 37 24.5 57.5t59.5 20.5q49 0 93 -51t85 -51q61 0 107 54t63 155l184 1087h-252l15 88h251l60 352q61 385 344 385q76 0 135.5 -27.5t59.5 -78.5
q0 -33 -23 -53.5t-57 -20.5q-49 0 -83 46t-73 46q-82 0 -115 -184l-75 -465h331l11 61q35 199 121 292.5t227 93.5z" />
    <glyph glyph-name="uniFB01" unicode="fi" horiz-adv-x="1134" 
d="M895 1561q154 0 235.5 -63.5t79.5 -139.5q0 -45 -26.5 -71.5t-73.5 -26.5q-49 0 -66.5 33.5t-16.5 74.5t-32.5 75t-111.5 34q-121 0 -212 -81t-124 -268l-10 -59h290l-16 -88h-289l-160 -995q-39 -233 -138 -339t-302 -106q-63 0 -126.5 29t-63.5 84q0 37 23.5 56.5
t58.5 19.5q49 0 93 -50.5t85 -50.5q61 0 107 54.5t63 154.5l190 1143h-166l17 88h164l6 37q37 221 187.5 338t334.5 117zM1079 53q41 0 82 41l27 -39q-88 -92 -217 -92q-68 0 -114 48t-19 177l106 611q8 53 -17.5 83.5t-68.5 39.5l12 45q174 29 275 147l24 -8l-157 -885
q-29 -168 67 -168z" />
    <glyph glyph-name="uniFB02" unicode="fl" horiz-adv-x="1081" 
d="M1010 53q37 0 82 41l24 -39q-88 -92 -215 -92q-70 0 -115 48t-20 177l203 1178q-39 113 -170 113q-80 0 -145.5 -59.5t-82.5 -157.5l-30 -193h278l-14 -88h-279l-164 -995q-39 -233 -138 -339t-302 -106q-63 0 -126.5 29t-63.5 84q0 37 23.5 56.5t58.5 19.5
q49 0 94 -50.5t86 -50.5q59 0 105 54.5t63 154.5l190 1143h-166l17 88h164l14 80q35 201 155.5 309.5t294.5 108.5q141 0 220 -82q61 33 106 80l21 -6l-236 -1338q-32 -168 68 -168z" />
    <glyph glyph-name="uniFB03" unicode="ffi" horiz-adv-x="1634" 
d="M1049 1128l-11 -59h287l-16 -88h-285l-201 -1235q-39 -233 -139 -337.5t-301 -104.5q-66 0 -129.5 27.5t-63.5 82.5q2 37 26 57.5t58 20.5q49 0 93.5 -51t85.5 -51q61 0 107 55t61 154l231 1382h-332l-155 -940q-41 -233 -140.5 -338.5t-302.5 -105.5q-63 0 -126.5 28.5
t-63.5 83.5q0 37 23.5 57.5t58.5 20.5q49 0 94 -51t86 -51q59 0 105 54t63 155l184 1087h-252l17 88h249l60 352q63 385 344 385q76 0 136.5 -27.5t60.5 -78.5q0 -33 -23 -53.5t-59 -20.5q-49 0 -82 46t-74 46q-35 0 -66.5 -47t-46.5 -137l-75 -465h331l6 37q25 150 110 256
t191.5 152.5t223.5 46.5q154 0 234.5 -63.5t80.5 -139.5q0 -45 -27.5 -71.5t-74.5 -26.5t-64.5 33.5t-17.5 74.5t-34 75t-110 34q-121 0 -211.5 -81.5t-123.5 -267.5zM1579 53q43 0 84 41l27 -39q-88 -92 -217 -92q-68 0 -114 48t-20 177l105 611q10 51 -16.5 82.5
t-67.5 40.5l12 45q176 31 275 147l24 -8l-158 -885q-32 -168 66 -168z" />
    <glyph glyph-name="uniFB04" unicode="ffl" horiz-adv-x="1579" 
d="M1507 53q37 0 82 41l25 -39q-86 -92 -215 -92q-70 0 -115 48t-20 177l202 1178q-35 113 -170 113q-80 0 -145.5 -58.5t-81.5 -156.5l-33 -195h287l-16 -88h-285l-203 -1231q-37 -233 -137 -338.5t-301 -105.5q-66 0 -129.5 28.5t-63.5 83.5q0 37 24 57.5t58 20.5
q49 0 93.5 -51t87.5 -51q61 0 107 55t60 154l232 1378h-330l-155 -940q-39 -233 -139.5 -338.5t-303.5 -105.5q-63 0 -126.5 28.5t-63.5 83.5q0 37 24.5 57.5t57.5 20.5q49 0 94 -51t86 -51q61 0 106 54t62 155l184 1087h-254l17 88h251l60 352q63 385 344 385
q76 0 136.5 -27.5t60.5 -78.5q0 -33 -24 -52.5t-58 -19.5q-49 0 -82 45t-72 45q-37 0 -68.5 -46t-46.5 -138l-75 -465h329l15 80q35 201 155.5 309.5t294.5 108.5q141 0 219 -82q61 33 107 80l20 -6l-235 -1338q-33 -168 67 -168z" />
    <glyph glyph-name="T_h.liga" unicode="Th" horiz-adv-x="2230" 
d="M2316 94l25 -37q-96 -92 -219 -92q-29 0 -53.5 8.5t-52 32t-31 68.5t11.5 119l106 456q41 164 -10 261.5t-184 97.5q-131 0 -262 -141.5t-172 -342.5l-11 -61q-25 -145 -35 -261t-8 -159l2 -43h-202l237 1401q-160 -57 -375 -58q-45 0 -65 3l-207 -1176q-10 -51 13.5 -83
t64.5 -40l-12 -45h-383l4 45q43 8 78.5 40t44.5 83l213 1204q-27 6 -76 18.5t-77 18.5t-68 12.5t-74 6.5q-184 0 -185 -113q0 -29 28 -71t28 -75q0 -43 -27 -67.5t-72 -24.5q-51 0 -83.5 42t-30.5 100q2 119 95 207t267 88q111 0 309.5 -33t305.5 -33q129 0 255.5 29.5
t204.5 89.5l23 -8l-123 -703h16q170 250 416 250q190 0 273 -124t32 -343l-98 -418q-47 -170 57 -170q37 0 86 41z" />
    <glyph glyph-name="f_j.liga" unicode="fj" horiz-adv-x="1122" 
d="M860 1563q152 0 234 -64.5t82 -138.5q0 -47 -28 -73.5t-75 -26.5q-41 0 -57.5 22.5t-20.5 54t-11 63.5t-40 54.5t-96 22.5q-121 0 -212 -81t-126 -268l-10 -59h291l-17 -88h-289l-137 -850q-39 -233 -138 -338.5t-302 -105.5q-63 0 -127 28.5t-64 83.5q0 37 23.5 57.5
t58.5 20.5q49 0 93.5 -51t84.5 -51q61 0 107.5 55t62.5 154l168 997h-163l14 88h164l6 37q37 221 188.5 339t335.5 118zM836 969q170 18 276 145l23 -8l-213 -1221q-39 -203 -123 -291t-262 -88q-80 0 -144.5 33t-62.5 88q2 70 78 70q51 0 94 -51.5t90 -51.5t85 36t50 108
l182 1061q10 53 -16.5 84.5t-69.5 38.5z" />
    <glyph glyph-name="f_t.liga" unicode="ft" horiz-adv-x="1294" 
d="M1135 979l-134 -752q-31 -162 105 -161q80 0 141 22l8 -78q-98 -47 -225 -47q-119 0 -171 61.5t-25 208.5l131 750l-447 -2l-162 -993q-37 -233 -136 -338t-302 -105q-63 0 -126.5 28t-63.5 83q0 37 23.5 56.5t58.5 19.5q49 0 93 -50.5t85 -50.5q61 0 107 54.5t63 154.5
l190 1141h-170l17 88h167l19 109q63 385 346 385q76 0 135.5 -28t59.5 -79q-2 -31 -25 -50.5t-57 -19.5q-49 0 -82 45.5t-72 45.5q-37 0 -68.5 -47.5t-48.5 -137.5l-37 -223h347q106 37 158.5 101.5t107.5 203.5h57l-53 -307l289 2l-17 -88z" />
    <glyph glyph-name=".notdef" horiz-adv-x="1175" 
d="M240 0v1434h936v-1434h-936zM377 117h663v1200h-663v-1200z" />
    <glyph glyph-name="glyph1" horiz-adv-x="0" 
 />
    <glyph glyph-name="glyph2" horiz-adv-x="681" 
 />
    <glyph glyph-name="space" unicode=" " horiz-adv-x="638" 
 />
    <glyph glyph-name="exclam" unicode="!" horiz-adv-x="628" 
d="M332 375q45 315 45 573t12 342q27 176 156 176t100 -176q-14 -92 -89 -347t-126 -568h-98zM315.5 -37q-55.5 0 -88 37t-24.5 98q8 57 53 94t100.5 37t89 -36.5t25.5 -94.5q-8 -61 -54 -98t-101.5 -37z" />
    <glyph glyph-name="quotedbl" unicode="&#x22;" horiz-adv-x="837" 
d="M322 952q4 106 -4.5 234.5t-2.5 169.5q8 51 43 82.5t80 31.5q43 0 68.5 -31.5t17.5 -80.5q-6 -41 -53 -170t-76 -236h-73zM676 952q6 106 -2 234.5t-2 169.5q8 51 42 82.5t79 31.5t70.5 -31.5t17.5 -80.5q-6 -43 -54.5 -172t-76.5 -234h-74z" />
    <glyph glyph-name="numbersign" unicode="#" horiz-adv-x="1536" 
d="M272 0l187 420h-232l11 76h256l196 442h-268l10 76h293l190 420h97l-189 -420h320l186 420h96l-186 -420h234l-15 -76h-256l-198 -442h272l-12 -76h-295l-187 -420h-96l186 420h-317l-186 -420h-97zM590 496h319l197 442h-320z" />
    <glyph glyph-name="dollar" unicode="$" horiz-adv-x="1337" 
d="M950 1468q168 -10 272.5 -86.5t90.5 -169.5q-6 -37 -31 -60.5t-57 -23.5q-35 0 -52.5 27t-30 64.5t-35 75.5t-81.5 64.5t-154 26.5q-137 0 -240.5 -74.5t-119.5 -176.5q-16 -100 58.5 -174t252.5 -121q231 -63 340 -170t80 -283q-29 -182 -172 -294.5t-360 -127.5
l-41 -256h-109l39 256q-217 10 -338 104.5t-106 202.5q8 41 37.5 68t72.5 27q37 0 58.5 -24t29.5 -58.5t25.5 -76.5t44.5 -77t89 -58.5t155 -23.5q158 0 269.5 79t127.5 204q35 213 -340 315q-217 59 -319.5 166t-73.5 281q23 154 164 256t344 118l37 244h110z" />
    <glyph glyph-name="percent" unicode="%" horiz-adv-x="1576" 
d="M434 705q-162 0 -251 113.5t-64 271.5q25 166 141.5 273t284.5 107q158 0 243.5 -110.5t63.5 -274.5q-25 -160 -141.5 -270t-276.5 -110zM350 0l893 1434h107l-893 -1434h-107zM444 784q92 0 162 86t88 213q20 129 -26.5 216t-137.5 87q-96 0 -165.5 -83.5t-90.5 -217.5
q-18 -125 29 -213t141 -88zM1163 -37q-162 0 -252 112.5t-65 270.5q25 166 141.5 273.5t282.5 107.5q158 0 246 -111.5t63 -273.5q-25 -158 -140.5 -268.5t-275.5 -110.5zM1171 41q92 0 163 87t89 212q18 129 -28.5 216t-137.5 87q-96 0 -165.5 -84t-90.5 -215
q-18 -125 29 -214t141 -89z" />
    <glyph glyph-name="ampersand" unicode="&#x26;" horiz-adv-x="1703" 
d="M1753 285q2 -154 -87 -238t-224 -84q-195 0 -314 189q-238 -188 -534 -189q-238 0 -370 132t-103 323q27 170 156 293t288 170l2 12q-74 41 -109.5 110.5t-23.5 153.5q20 139 133 226t281 87q160 0 250 -90t69 -227q-16 -102 -89.5 -181t-186.5 -110l-2 -14
q55 -18 102 -60.5t75 -78t60.5 -111.5t44 -107.5t39.5 -121.5q119 168 150 372q16 113 -113 144l13 45h358l-4 -45q-49 -12 -94 -50t-56 -104q-37 -262 -217 -469q41 -102 90 -157.5t125 -55.5q59 0 107.5 41t48.5 107q0 55 -31 85.5t-61.5 57.5t-30.5 70q0 35 29.5 60.5
t70.5 25.5q78 0 118 -64.5t40 -146.5zM590 1153q-16 -96 36 -167t144 -71t158.5 68t81.5 166q16 102 -34 169.5t-140 67.5q-96 0 -163 -65.5t-83 -167.5zM662 63q231 0 423 166q-31 63 -77.5 182t-77.5 193t-91.5 144.5t-133.5 91.5q-137 -47 -254 -148.5t-138 -242.5
q-29 -186 72 -286t277 -100z" />
    <glyph glyph-name="quotesingle" unicode="'" horiz-adv-x="489" 
d="M338 952q4 106 -4 234.5t-2 169.5q8 51 43 82.5t80 31.5q43 0 68.5 -31.5t17.5 -80.5q-6 -41 -53.5 -170t-75.5 -236h-74z" />
    <glyph glyph-name="parenleft" unicode="(" horiz-adv-x="714" 
d="M573 -446q-203 150 -311 409.5t-63 562.5q47 305 234.5 565.5t434.5 409.5l35 -53q-190 -127 -341.5 -386t-194.5 -536q-41 -276 32.5 -533t227.5 -386z" />
    <glyph glyph-name="parenright" unicode=")" horiz-adv-x="714" 
d="M6 -446l-37 53q193 129 344.5 387t194.5 534q41 276 -33 534.5t-227 385.5l53 53q201 -152 310.5 -411t64.5 -562q-47 -305 -234.5 -563.5t-435.5 -410.5z" />
    <glyph glyph-name="asterisk" unicode="*" horiz-adv-x="1101" 
d="M389 580q-53 43 0 106q18 23 114.5 111t149.5 145l-6 33q-72 16 -189.5 29.5t-140.5 21.5q-70 23 -41 92q12 31 42 44.5t61 2.5q23 -6 125 -58t170 -77l28 21q4 72 -2 191.5t-2 148.5q2 35 27 57t55.5 22t49 -20t14.5 -57q-2 -25 -35 -145t-47 -195l22 -19
q72 31 187.5 90.5t142.5 67.5q35 12 60.5 0t29.5 -43q8 -29 -9 -55.5t-52 -38.5q-25 -8 -148 -32t-198 -46l-15 -31q41 -55 118 -137t89 -102q39 -61 -24 -107q-27 -18 -56.5 -15t-48.5 31q-10 16 -52 123t-77 170h-33q-51 -66 -117.5 -176t-82.5 -129q-25 -31 -57 -36.5
t-52 12.5z" />
    <glyph glyph-name="plus" unicode="+" horiz-adv-x="1298" 
d="M594 174l76 494h-492l17 100h491l74 492h102l-74 -492h492l-14 -100h-492l-76 -494h-104z" />
    <glyph glyph-name="comma" unicode="," horiz-adv-x="686" 
d="M416 219q68 0 98.5 -49t20.5 -125q-18 -117 -102.5 -250t-201.5 -213l-55 66q68 45 134.5 132t95.5 183l-5 4q-20 -4 -32 -4q-53 0 -85 36t-24 93.5t53.5 92t102.5 34.5z" />
    <glyph glyph-name="hyphen" unicode="-" horiz-adv-x="591" 
d="M137 451l21 129h460l-20 -129h-461z" />
    <glyph glyph-name="period" unicode="." horiz-adv-x="600" 
d="M301 -37q-55 0 -88 37t-23 98q8 57 52.5 94t101.5 37q53 0 87 -36.5t26 -94.5q-8 -61 -53.5 -98t-102.5 -37z" />
    <glyph glyph-name="slash" unicode="/" horiz-adv-x="1144" 
d="M168 -442l850 1937h88l-850 -1937h-88z" />
    <glyph glyph-name="zero" unicode="0" horiz-adv-x="1253" 
d="M610.5 -37q-184.5 0 -296 106.5t-135 273.5t2.5 374q33 209 114 374.5t224.5 272t327.5 106.5q139 0 238.5 -61t145.5 -164.5t60.5 -240t-14.5 -287.5q-33 -209 -115 -375t-225 -272.5t-327.5 -106.5zM625 51q186 0 301.5 186.5t160.5 479.5q25 184 20 331.5t-73.5 240.5
t-197.5 93t-226.5 -94t-153 -237.5t-85.5 -333.5q-25 -182 -20 -329.5t75 -242t199 -94.5z" />
    <glyph glyph-name="one" unicode="1" horiz-adv-x="1093" 
d="M297 0l4 47q135 23 152 123l163 1042h-143l4 48l309 176h56l-201 -1266q-16 -102 109 -123l-13 -47h-440z" />
    <glyph glyph-name="two" unicode="2" horiz-adv-x="1206" 
d="M1210 1044q-20 -125 -80.5 -240.5t-138.5 -201.5t-190.5 -173t-208.5 -144.5t-221 -124.5v-6h186q59 0 113.5 5t96.5 15t79 21.5t64.5 27t49 27.5t39 27.5t26.5 23.5t19 18l9 11l51 -23l-146 -307h-823l10 80q47 35 180.5 131t195 143t167 141.5t160.5 166t106.5 175
t67.5 207.5q27 160 -37.5 250t-212.5 90q-141 0 -263 -90t-155 -245l-69 14q41 186 191.5 296.5t336.5 110.5q207 0 316.5 -119t80.5 -307z" />
    <glyph glyph-name="three" unicode="3" horiz-adv-x="1163" 
d="M500 -37q-168 0 -285 61.5t-100 161.5q6 45 36.5 75t81.5 30q45 0 70 -37t36 -82t54 -82t119 -37q164 0 268.5 95.5t130.5 259.5q27 170 -57 271t-260 101h-45l14 82h53q145 0 233.5 77t106.5 187q16 106 -39 182t-194 76q-121 0 -221.5 -82.5t-132.5 -226.5l-72 15
q43 172 176 276t320 104q195 0 283.5 -96t68.5 -225q-37 -229 -283 -313l-2 -9q125 -31 195.5 -135t50.5 -239q-35 -211 -199.5 -350.5t-406.5 -139.5z" />
    <glyph glyph-name="four" unicode="4" horiz-adv-x="1196" 
d="M956 375l-32 -207q-8 -55 26.5 -84t83.5 -37l-10 -47h-444l2 47q49 8 97 39t56 82l33 207h-635l2 69l848 1004h145l-157 -985h246l-37 -88h-224zM258 463h524l117 745h-6l-635 -737v-8z" />
    <glyph glyph-name="five" unicode="5" horiz-adv-x="1175" 
d="M676 934q246 0 353.5 -127t74.5 -328q-31 -203 -200 -357.5t-410 -154.5q-98 0 -176 17.5t-128.5 60.5t-39.5 107q6 43 37.5 72.5t70.5 29.5q55 0 79.5 -32t30 -69.5t42 -69.5t112.5 -32q174 0 283.5 106.5t136.5 272.5q25 150 -63 247t-262.5 97t-301.5 -63l-45 16
l111 707h764l-47 -158h-643l-60 -381q99 39 281 39z" />
    <glyph glyph-name="six" unicode="6" horiz-adv-x="1175" 
d="M1208 1399q-121 0 -233.5 -33t-221 -102.5t-196.5 -193.5t-139 -292h10q72 70 178.5 113t208.5 43q223 0 314.5 -135t58.5 -338q-33 -205 -202 -351.5t-388 -146.5q-233 0 -342 177t-66 460q35 217 136.5 388t244 274.5t305 155.5t334.5 52zM764 836q-98 0 -209 -61.5
t-176 -156.5l-6 -38q-84 -532 237 -533q147 0 251 117t132 297q27 170 -27.5 272.5t-201.5 102.5z" />
    <glyph glyph-name="seven" unicode="7" horiz-adv-x="1200" 
d="M426 1434h858l-12 -78q-293 -311 -481.5 -622.5t-245.5 -655.5q-8 -57 -45 -87t-82 -30t-73 34t-19 83q29 190 162 422.5t282.5 413t323.5 354.5l2 8h-279q-53 0 -103 -5t-89 -14.5t-76 -21.5t-63.5 -25.5t-51 -30t-41 -29.5t-32 -27.5t-22.5 -23.5t-15 -18l-7 -10
l-51 23z" />
    <glyph glyph-name="eight" unicode="8" horiz-adv-x="1179" 
d="M573 -39q-225 0 -344.5 118t-97.5 259q39 260 373 399v11q-109 63 -160 145t-27 219q8 57 43 117.5t94.5 117t161 92.5t226.5 36q201 0 298 -97.5t77 -232.5q-37 -238 -330 -365l-2 -12q150 -68 222.5 -154t47.5 -247q-27 -172 -188 -289t-394 -117zM770 823
q139 59 223 131t101 183q18 113 -44.5 182.5t-209.5 69.5q-145 0 -231.5 -62.5t-104.5 -175.5q-18 -123 51.5 -194t214.5 -134zM582 47q166 0 266 85t117 185q12 74 -9.5 132.5t-75 99.5t-105.5 68.5t-132 60.5q-20 8 -31 12q-311 -119 -348 -344q-18 -119 64 -209t254 -90z
" />
    <glyph glyph-name="nine" unicode="9" horiz-adv-x="1159" 
d="M778 1470q236 0 343.5 -176t64.5 -460q-35 -217 -136.5 -388.5t-242.5 -274.5t-305 -155.5t-336 -52.5l4 70q256 0 473 150.5t318 471.5h-13q-72 -70 -177 -112.5t-208 -42.5q-223 0 -313 135t-57 338q31 201 198.5 349t386.5 148zM614 598q96 0 208 62.5t177 158.5l7 35
q80 532 -240 532q-147 0 -250.5 -117.5t-130.5 -295.5q-29 -170 26.5 -272.5t202.5 -102.5z" />
    <glyph glyph-name="colon" unicode=":" horiz-adv-x="595" 
d="M415.5 707q-55.5 0 -88 37.5t-24.5 97t52 96.5t102 37q55 0 88 -37t24.5 -96.5t-53.5 -97t-100.5 -37.5zM301 -37q-55 0 -88 37t-23 98q8 57 52.5 94t101.5 37q55 0 88 -36.5t25 -94.5q-8 -61 -53.5 -98t-102.5 -37z" />
    <glyph glyph-name="semicolon" unicode=";" horiz-adv-x="667" 
d="M526.5 975q55.5 0 89 -37t25.5 -96.5t-54 -97t-101.5 -37.5t-88 37.5t-24.5 97t53 96.5t100.5 37zM416 219q68 0 98.5 -49t20.5 -125q-18 -117 -102.5 -250t-201.5 -213l-55 66q68 45 134.5 132t95.5 183l-5 4q-20 -4 -32 -4q-53 0 -85 36t-24 93.5t53.5 92t102.5 34.5z
" />
    <glyph glyph-name="less" unicode="&#x3c;" horiz-adv-x="1277" 
d="M1100 242l-940 415l16 111l1073 416l-18 -109l-922 -360v-6l807 -359z" />
    <glyph glyph-name="equal" unicode="=" horiz-adv-x="1347" 
d="M240 870l14 101h1075l-16 -101h-1073zM178 465l15 100h1075l-17 -100h-1073z" />
    <glyph glyph-name="greater" unicode="&#x3e;" horiz-adv-x="1275" 
d="M182 242l17 108l921 359v6l-807 360l19 109l938 -416l-17 -111z" />
    <glyph glyph-name="question" unicode="?" horiz-adv-x="995" 
d="M340 377l55 375h74q92 0 162.5 6t153.5 25.5t129.5 63.5t46.5 111q-2 137 -113 275.5t-236 138.5q-57 0 -92 -28.5t-48 -62.5t-45 -62.5t-85 -28.5q-41 0 -68.5 28.5t-27.5 73.5q0 86 80 132t204 46q225 0 394.5 -185t171.5 -376q0 -96 -51.5 -162.5t-146.5 -99.5
t-194.5 -46t-230.5 -15l-33 -209h-100zM334 -37q-57 0 -90 37t-25 98q8 57 53 94t100.5 37t89.5 -36.5t25 -94.5q-8 -61 -53 -98t-100 -37z" />
    <glyph glyph-name="at" unicode="@" horiz-adv-x="1972" 
d="M997 -356q-391 0 -617 233.5t-169 648.5q51 362 374.5 625.5t717.5 263.5q344 0 539.5 -187.5t148.5 -514.5q-37 -268 -224.5 -448.5t-416.5 -180.5q-143 0 -152 129h-8q-139 -129 -309 -129q-180 0 -241.5 144.5t17.5 338.5q70 178 227.5 298t344.5 120q156 0 203 -100
h12l51 100h156l-262 -666q-57 -145 53 -145q147 0 294.5 159t178.5 380q23 158 -17 281.5t-129.5 197.5t-210 111.5t-264.5 37.5q-229 0 -447 -107.5t-368.5 -295.5t-181.5 -412q-53 -375 149.5 -592t561.5 -217q184 0 376 70l17 -70q-195 -73 -404 -73zM942 168
q158 0 275 154l182 462q-16 119 -164 119q-252 0 -395 -368q-144 -367 102 -367z" />
    <glyph glyph-name="A" unicode="A" horiz-adv-x="1265" 
d="M1161 168q23 -104 119 -123l-12 -45h-385l4 45q37 8 62.5 39t15.5 84l-47 248h-558l-135 -248q-25 -61 -12.5 -88t47.5 -35l-12 -45h-285l4 45q104 18 160 123l592 1087q-33 25 -82 35l10 47q139 59 248 127h14zM422 530h473l-121 625q0 4 -2 6h-6z" />
    <glyph glyph-name="B" unicode="B" horiz-adv-x="1376" 
d="M1399 1085q-18 -102 -97 -184t-200 -125l-2 -10q139 -45 208.5 -145.5t49.5 -229.5q-33 -190 -188.5 -303t-409.5 -113q-115 0 -281 12.5t-241 12.5h-181l4 45q43 8 78 40t45 85l193 1094q16 102 -78 122l12 48h664q219 0 334 -99.5t90 -249.5zM913 1346q-223 0 -335 -17
l-91 -514h363q141 0 239.5 77t118.5 187q18 117 -57.5 192t-237.5 75zM1169 399q25 141 -67 233.5t-262 92.5h-369l-109 -612q47 -4 123 -15.5t135.5 -17.5t116.5 -6q184 0 294.5 87.5t137.5 237.5z" />
    <glyph glyph-name="C" unicode="C" horiz-adv-x="1329" 
d="M727 -37q-201 0 -335 105.5t-182 280.5t-9 390q55 309 278 520t533 211q201 0 319.5 -97t98.5 -220q-8 -49 -41 -87t-78 -38q-57 0 -79 37t-24 88t-10 103.5t-61.5 89t-155.5 36.5q-86 0 -175 -42t-169 -119.5t-141.5 -203.5t-87.5 -280q-61 -338 50 -512t330 -174
q281 0 484 355l61 -41q-86 -178 -236.5 -290t-369.5 -112z" />
    <glyph glyph-name="D" unicode="D" horiz-adv-x="1421" 
d="M831 1434q324 0 505.5 -212t123.5 -532q-55 -311 -276 -500.5t-522 -189.5h-613l4 45q45 8 80 40t43 85l193 1094q18 102 -80 122l12 48h530zM1266 651q51 307 -77 501t-405 194q-123 0 -211 -11l-217 -1212q143 -33 306 -33q242 0 401.5 166t202.5 395z" />
    <glyph glyph-name="E" unicode="E" horiz-adv-x="1261" 
d="M846 1343q-145 0 -277 -20l-84 -471l7 -4q76 55 149 55q84 0 215 -67.5t188 -67.5q59 0 95.5 18.5t85.5 63.5l30 -35q-125 -172 -268 -172q-80 0 -211 67.5t-203 67.5q-55 0 -106 -35l-113 -630q172 -23 353 -23q104 0 195 23.5t146.5 56.5t96.5 65.5t59 55.5l17 24
l51 -20l-127 -326h-17q-68 31 -260 31h-819l4 45q45 8 80 40t43 85l193 1094q18 102 -80 122l12 48h973l69 -258l-57 -19q-2 8 -9 20.5t-39 44t-76 56.5t-128 45t-188 20z" />
    <glyph glyph-name="F" unicode="F" horiz-adv-x="1138" 
d="M844 1343q-158 0 -273 -14l-96 -541l2 7l6 -4q70 55 144 55q80 0 213 -67.5t190 -67.5q59 0 95 18.5t85 63.5l31 -35q-51 -78 -124 -125t-144 -47q-82 0 -210 67.5t-202 67.5q-51 0 -104 -33l-92 -518q-6 -53 17.5 -85t61.5 -40l-12 -45h-383l4 45q45 8 80 40t43 85
l193 1094q10 53 -13.5 83.5t-64.5 38.5l10 48h971l67 -258l-57 -19q-2 8 -9 20.5t-39 44t-76 56.5t-127 45t-187 20z" />
    <glyph glyph-name="G" unicode="G" horiz-adv-x="1419" 
d="M1100 725h395l-4 -47q-43 -6 -78 -38t-45 -87l-98 -553h-72l-31 152h-6q-168 -188 -436 -189q-299 0 -441.5 224.5t-82.5 551.5q55 309 278 520t533 211q201 0 319.5 -97t98.5 -220q-8 -49 -41 -87t-78 -38q-57 0 -79 37t-24 88t-10 103.5t-61.5 89t-155.5 36.5
q-184 0 -354 -172t-221 -473q-59 -336 53 -511t325 -175q199 0 340 189l58 313q16 104 -95 125z" />
    <glyph glyph-name="H" unicode="H" horiz-adv-x="1468" 
d="M1233 1434h385l-4 -48q-106 -20 -125 -122l-191 -1094q-10 -53 14.5 -85t65.5 -40l-12 -45h-385l4 45q43 8 78 40t45 85l94 541h-741l-94 -541q-10 -53 14.5 -85t64.5 -40l-12 -45h-385l4 45q43 8 79 40t44 85l195 1094q18 102 -80 122l12 48h383l-4 -48
q-43 -8 -78 -38.5t-45 -83.5l-76 -435h742l75 435q18 100 -79 122z" />
    <glyph glyph-name="I" unicode="I" horiz-adv-x="532" 
d="M49 0l4 45q45 8 80 40t43 85l193 1094q10 53 -13.5 83.5t-64.5 38.5l10 48h385l-4 -48q-43 -8 -78 -38.5t-45 -83.5l-194 -1094q-6 -53 17.5 -85t61.5 -40l-12 -45h-383z" />
    <glyph glyph-name="J" unicode="J" horiz-adv-x="491" 
d="M-158 -401q-135 0 -193.5 56t-45.5 120q8 47 41.5 77.5t74.5 30.5q45 0 69 -28.5t29 -64.5t24.5 -64.5t58.5 -28.5q90 0 147 78t90 276l215 1213q8 53 -15.5 83.5t-64.5 38.5l13 48h385l-4 -48q-106 -20 -125 -122l-209 -1192q-84 -473 -490 -473z" />
    <glyph glyph-name="K" unicode="K" horiz-adv-x="1441" 
d="M1393 1470q125 0 186 -50t51 -134q-4 -47 -37.5 -74.5t-72.5 -27.5q-47 0 -76 25.5t-39 57t-39 57.5t-76 26q-150 0 -485 -420l455 -760q59 -104 165 -125l-10 -45h-416v45q39 8 51.5 38t-14.5 87l-360 582h-8q-123 -166 -265 -369l-36 -213q-8 -53 15.5 -85t61.5 -40
l-12 -45h-383l4 45q45 8 80 40t43 85l193 1094q10 53 -13.5 83.5t-64.5 38.5l12 48h383l-4 -48q-43 -8 -78 -38.5t-45 -83.5l-104 -592h8q127 180 230.5 307t225 247t241.5 182t233 62z" />
    <glyph glyph-name="L" unicode="L" horiz-adv-x="1130" 
d="M1192 315l51 -20l-129 -326h-14q-68 31 -260 31h-791l4 45q45 8 80 40t43 85l193 1094q18 102 -80 122l12 48h385l-4 -48q-43 -8 -78 -38.5t-45 -83.5l-205 -1155q158 -18 324 -19q104 0 195.5 23.5t146.5 56.5t96 65.5t60 55.5z" />
    <glyph glyph-name="M" unicode="M" horiz-adv-x="1624" 
d="M805 -37q-88 0 -134 57.5t-46 141.5q0 215 258 536q-78 317 -246 547h-6l-342 -1075q-33 -104 59 -125l-12 -45h-293l4 45q111 20 143 125l347 1094q33 102 -60 122l12 48h232q106 -129 186 -287t113 -279h6q20 23 132 161t196 227.5t188 177.5h246l-4 -48
q-43 -8 -73 -38.5t-32 -83.5l-37 -1094q-2 -53 28 -85t71 -40l-12 -45h-383l4 45q102 20 104 125l37 1079h-8q-86 -82 -159 -160.5t-166 -191.5t-114 -137q39 -150 39 -314q0 -186 -76.5 -334.5t-201.5 -148.5zM803 47q47 0 83 73t36 197q0 137 -15 250h-6
q-162 -229 -162 -407q0 -49 17.5 -81t46.5 -32z" />
    <glyph glyph-name="N" unicode="N" horiz-adv-x="1349" 
d="M1237 1434h285l-4 -48q-43 -8 -79 -38.5t-44 -83.5l-224 -1264h-116q-25 135 -88.5 262t-139 228.5t-151.5 199.5t-140.5 219t-91.5 246h-8l-174 -985q-10 -53 14.5 -85t65.5 -40l-12 -45h-285l4 45q102 23 123 125l193 1094q18 102 -80 122l12 48h229
q41 -162 136.5 -332t186.5 -289t173 -263t102 -267h6l175 981q18 102 -80 122z" />
    <glyph glyph-name="O" unicode="O" horiz-adv-x="1525" 
d="M760 -37q-293 0 -456 224.5t-107 531.5q57 328 280 539.5t535 211.5q289 0 446.5 -221t102.5 -540q-55 -311 -281.5 -528.5t-519.5 -217.5zM774 51q211 0 378 192.5t216 469.5q49 283 -56.5 476t-314.5 193q-223 0 -390 -186t-216 -475q-49 -272 59.5 -471t323.5 -199z
" />
    <glyph glyph-name="P" unicode="P" horiz-adv-x="1353" 
d="M969 1434q266 0 402 -141.5t99 -350.5q-37 -217 -224 -361.5t-476 -144.5q-178 0 -344 68l-59 -334q-16 -104 79 -125l-12 -45h-385l4 45q45 8 80 40t43 85l195 1094q18 102 -80 122l12 48h666zM1280 944q29 170 -80.5 284.5t-310.5 114.5q-199 0 -322 -32l-123 -701
q154 -82 322 -82q213 0 348 118t166 298z" />
    <glyph glyph-name="Q" unicode="Q" horiz-adv-x="1628" 
d="M1321 -401q-94 0 -179 32.5t-153.5 93t-119 117t-109.5 131.5q-16 23 -25 33q-184 -43 -327 -43q-137 0 -223.5 57.5t-86.5 161.5q0 102 85 158.5t196 56.5q135 0 241.5 -67.5t210.5 -186.5q594 250 594 742q0 217 -132 357t-359 140q-252 0 -413 -150.5t-161 -367.5
q0 -150 82 -245t242 -95q129 0 213 71t84 161q0 47 -25.5 74.5t-57.5 37t-57.5 34t-25.5 69.5q0 43 34 75.5t93 32.5q76 0 127 -61.5t51 -167.5q0 -180 -123 -297t-309 -117q-195 0 -312.5 120t-117.5 308q0 254 199.5 430t494.5 176q322 0 499 -166.5t177 -431.5
q0 -547 -721 -815v-6q16 -20 62.5 -79.5t68 -86t62.5 -71.5t70.5 -65.5t68.5 -38t76 -17.5q78 0 124 38t59 82t44 81.5t82 37.5q49 0 78 -28.5t29 -71.5q0 -102 -126 -167.5t-284 -65.5zM408 51q127 0 260 35v6q-172 219 -303 219q-74 0 -122 -33.5t-48 -93.5
q0 -61 55.5 -97t157.5 -36z" />
    <glyph glyph-name="R" unicode="R" horiz-adv-x="1388" 
d="M1446 1030q-25 -141 -126 -234.5t-269 -133.5l-2 -11q59 -2 99 -20.5t61.5 -43t34.5 -77.5t16.5 -90t7.5 -115q6 -141 38.5 -194.5t137.5 -53.5l-2 -47q-76 -31 -146 -30q-45 0 -77.5 7t-70.5 30.5t-58.5 80t-20.5 142.5q-2 123 -13.5 190.5t-47 114.5t-96 62.5
t-167.5 15.5l-299 2l-79 -455q-8 -53 15.5 -85t61.5 -40l-12 -45h-383l4 45q45 8 80 40t43 85l193 1094q10 53 -13.5 83.5t-64.5 38.5l12 48h637q266 0 403.5 -105.5t102.5 -298.5zM879 1343q-186 0 -310 -24l-106 -602h330q201 0 318.5 83t143.5 228q27 147 -76 231
t-300 84z" />
    <glyph glyph-name="S" unicode="S" horiz-adv-x="1335" 
d="M686 -37q-279 0 -425 116t-124 247q16 98 115 98q57 0 87 -39t45 -93t40 -109.5t95.5 -94.5t189.5 -39q152 0 248 64.5t116 181.5q25 143 -65 227t-279 150q-102 35 -175 70.5t-138.5 89t-91 127t-9.5 167.5q27 147 179.5 245.5t367.5 98.5q242 0 384.5 -119.5
t121.5 -240.5q-8 -39 -33.5 -65.5t-64.5 -26.5q-59 0 -86 38t-38 91t-30.5 107.5t-87 92t-184.5 37.5q-139 0 -234.5 -66.5t-111.5 -174.5q-10 -63 8 -112.5t69.5 -85.5t104.5 -59.5t139 -51.5q82 -29 144.5 -55.5t130 -71.5t106.5 -94.5t58.5 -122t3.5 -156.5
q-33 -176 -191 -273.5t-385 -97.5z" />
    <glyph glyph-name="T" unicode="T" horiz-adv-x="1189" 
d="M1350 1470l41 -335l-58 -23q-2 10 -9 25.5t-37 55.5t-73 70.5t-123.5 56.5t-181.5 26h-22l-205 -1176q-10 -53 14.5 -85t63.5 -38l-12 -47h-383l4 47q43 6 77.5 38t45.5 85l206 1176h-22q-102 0 -191.5 -24t-144.5 -58.5t-95 -69.5t-57 -59l-18 -23l-51 23l162 335h16
q66 -37 229 -36h566q162 0 239 36h19z" />
    <glyph glyph-name="U" unicode="U" horiz-adv-x="1366" 
d="M721 -37q-293 0 -404.5 165t-54.5 468l119 668q10 53 -13.5 84.5t-64.5 37.5l12 48h390l-5 -48q-43 -6 -77.5 -37.5t-47.5 -84.5l-116 -668q-49 -250 21.5 -396.5t283.5 -146.5q221 0 331.5 143.5t151.5 399.5l113 659q8 49 -16.5 86t-67.5 45l12 48h295l-4 -48
q-47 -10 -83 -44.5t-44 -86.5l-115 -661q-100 -631 -616 -631z" />
    <glyph glyph-name="V" unicode="V" horiz-adv-x="1277" 
d="M1231 1434h287l-5 -48q-41 -6 -84 -35.5t-73 -84.5l-627 -1188q14 -23 43 -39l-12 -39q-102 4 -217 -29h-13l-233 1295q-10 55 -43 84.5t-70 35.5l13 48h383l-5 -48q-35 -6 -62.5 -36.5t-16.5 -83.5l188 -1055h14l559 1055q25 61 10.5 87.5t-48.5 32.5z" />
    <glyph glyph-name="W" unicode="W" horiz-adv-x="1968" 
d="M1919 1434h285l-4 -48q-98 -12 -152 -120l-571 -1192q12 -23 34 -35l-12 -39q-125 0 -223 -29h-16l-125 1045h-13l-456 -942q12 -16 36 -35l-10 -39q-104 4 -223 -29h-14l-160 1295q-6 55 -38 84.5t-69 35.5l13 48h385l-4 -48q-37 -6 -66 -36.5t-22 -83.5l131 -1055h8
l477 983q-16 92 -74 129l17 47q109 41 215 100h12l152 -1257v-2h10l506 1055q23 61 8.5 87.5t-49.5 32.5z" />
    <glyph glyph-name="X" unicode="X" horiz-adv-x="1312" 
d="M1196 1434h313l-6 -48q-88 -12 -186 -122l-440 -512l297 -582q57 -111 141 -123l-12 -47h-420l4 47q43 8 62.5 37t-1.5 86l-248 485h-10l-422 -485q-43 -57 -32.5 -86t49.5 -37l-13 -47h-311l4 47q92 12 187 123l499 584l-260 510q-53 109 -143 122l12 48h420l-2 -48
q-43 -8 -63.5 -36.5t1.5 -85.5l211 -416h15l360 416q41 57 31 85.5t-49 36.5z" />
    <glyph glyph-name="Y" unicode="Y" horiz-adv-x="1230" 
d="M401 0l5 47q43 6 77.5 38t44.5 85l93 524l-289 570q-57 111 -144 122l13 48h420l-3 -48q-43 -8 -63 -36.5t2 -85.5l227 -445h13l387 445q41 57 30.5 85.5t-49.5 36.5l15 48h311l-6 -48q-88 -12 -185 -122l-491 -570l-92 -524q-10 -53 14.5 -85t65.5 -38l-13 -47h-383z
" />
    <glyph glyph-name="Z" unicode="Z" horiz-adv-x="1300" 
d="M995 -231q-111 0 -248 35.5t-244.5 79.5t-239.5 80t-232 36l4 47l1182 1299h-359q-106 0 -199.5 -29t-151.5 -69t-101.5 -80t-61.5 -68l-16 -29l-52 21l132 378h14q68 -37 233 -36h826l-4 -48l-1166 -1280q129 -27 371 -141.5t332 -114.5q178 0 178 95q0 20 -25.5 61
t-25.5 76q0 49 30.5 81t77.5 32q49 0 84 -37t35 -95q0 -123 -103.5 -208.5t-269.5 -85.5z" />
    <glyph glyph-name="bracketleft" unicode="[" horiz-adv-x="731" 
d="M123 -418l285 1886h452l-12 -79h-291l-260 -1727h291l-13 -80h-452z" />
    <glyph glyph-name="backslash" unicode="\" horiz-adv-x="823" 
d="M647 -442l-495 1937h88l495 -1937h-88z" />
    <glyph glyph-name="bracketright" unicode="]" horiz-adv-x="733" 
d="M49 -418l12 80h291l262 1727h-290l12 79h452l-286 -1886h-453z" />
    <glyph glyph-name="asciicircum" unicode="^" horiz-adv-x="1069" 
d="M207 850l467 584h82l291 -584h-78l-287 362l-399 -362h-76z" />
    <glyph glyph-name="underscore" unicode="_" horiz-adv-x="1155" 
d="M16 -180l17 80h1106l-17 -80h-1106z" />
    <glyph glyph-name="grave" unicode="`" horiz-adv-x="595" 
d="M580 1159l-185 178q-45 45 -37 88q16 68 86 68q51 0 78 -51l119 -240z" />
    <glyph glyph-name="a" unicode="a" horiz-adv-x="1230" 
d="M1151 53q39 0 84 41l25 -39q-88 -92 -218 -92q-70 0 -114.5 48t-20.5 177l4 19h-8q-68 -111 -169 -177.5t-206 -66.5q-180 0 -285.5 112.5t-105.5 313.5q0 176 74 339t218 270.5t325 107.5q184 0 288 -121h7l18 84h207q-63 -131 -107 -373l-84 -475q-36 -168 68 -168z
M573.5 66q114.5 0 217 99t153.5 234l82 467q-39 68 -104.5 104t-137.5 36q-221 0 -349 -186.5t-128 -436.5q0 -160 76 -238.5t190.5 -78.5z" />
    <glyph glyph-name="b" unicode="b" horiz-adv-x="1263" 
d="M883 1106q186 0 289.5 -125t103.5 -315q0 -287 -175 -495t-429 -208q-227 0 -338 176h-6l-99 -137h-53l221 1251q8 51 -18.5 84t-67.5 41l13 45q176 29 276 146l21 -8l-111 -631h10q61 78 156.5 127t206.5 49zM655 53q195 0 326 194.5t131 430.5q0 152 -73.5 241
t-192.5 89q-115 0 -216.5 -78t-154.5 -191l-84 -485q35 -86 102.5 -143.5t161.5 -57.5z" />
    <glyph glyph-name="c" unicode="c" horiz-adv-x="1146" 
d="M621 -37q-223 0 -361.5 145.5t-101.5 417.5q35 264 224 422t437 158q186 0 292 -90t93 -189q-4 -43 -30.5 -73.5t-71.5 -30.5q-41 0 -64.5 24.5t-23.5 63.5q0 6 2 22.5t2 24.5q0 63 -57.5 113.5t-182.5 50.5q-150 0 -283 -146.5t-161 -340.5q-37 -229 60.5 -352.5
t295.5 -123.5q115 0 229.5 84t188.5 199l43 -25q-59 -143 -202.5 -248.5t-327.5 -105.5z" />
    <glyph glyph-name="d" unicode="d" horiz-adv-x="1245" 
d="M1161 53q41 0 82 41l25 -39q-86 -92 -215 -92q-70 0 -115 48t-18 177l2 15h-9q-70 -109 -170 -174.5t-206 -65.5q-178 0 -284 112.5t-106 313.5q0 178 72 339t218.5 269.5t332.5 108.5q168 0 281 -113h10l45 256q10 53 -16.5 86t-69.5 39l12 47q170 18 277 144l22 -6
l-237 -1338q-33 -168 67 -168zM583.5 66q114.5 0 221 103t153.5 241l80 456q-39 68 -105.5 104t-135.5 36q-154 0 -266.5 -93.5t-164 -231.5t-51.5 -298t77 -238.5t191.5 -78.5z" />
    <glyph glyph-name="e" unicode="e" horiz-adv-x="1138" 
d="M608 59q256 0 490 248l35 -35q-104 -145 -252 -227t-318 -82q-193 0 -313.5 110.5t-120.5 321.5q0 182 84 343t246 264.5t364 103.5q145 0 250 -63.5t105 -192.5q0 -102 -71 -175t-204 -117t-271 -66.5t-329 -38.5q-2 -20 -2 -64q0 -162 96 -246t211 -84zM797 1018
q-170 0 -305.5 -137.5t-176.5 -345.5q141 10 258 31.5t219.5 57t161 94t58.5 134.5t-58.5 121t-156.5 45z" />
    <glyph glyph-name="f" unicode="f" horiz-adv-x="663" 
d="M731 1563q76 0 135.5 -28t59.5 -79q0 -31 -22.5 -50.5t-57.5 -19.5q-49 0 -83 45.5t-73 45.5q-37 0 -67.5 -47.5t-47.5 -137.5l-36 -223h284l-14 -86h-285l-162 -995q-39 -233 -139 -338t-301 -105q-63 0 -126.5 28t-63.5 83q0 37 23.5 56.5t58.5 19.5q49 0 94 -49.5
t86 -49.5q61 0 106 53.5t62 153.5l190 1141h-168l17 88h166l18 109q63 385 346 385z" />
    <glyph glyph-name="g" unicode="g" horiz-adv-x="1267" 
d="M1305 1221q59 0 96 -30t37 -79q0 -39 -23.5 -65.5t-71.5 -26.5q-33 0 -75.5 31.5t-69.5 31.5q-47 0 -88 -63q147 -121 109 -342q-35 -190 -178.5 -301t-344.5 -111q-172 0 -282 82q-53 0 -87 -21.5t-40 -58.5q-12 -68 76 -104.5t364 -77.5q252 -39 346 -107.5t90 -168.5
q-6 -125 -153.5 -195t-362.5 -70q-61 0 -127.5 6.5t-150.5 28t-146.5 55t-101.5 96t-29 142.5q8 66 53 114t109 64v8q-113 72 -88 193q12 66 63.5 106.5t118.5 49.5v6q-84 115 -53 284q33 186 181.5 297t350.5 111q131 0 224 -49q111 164 254 164zM1065 680q25 158 -49 249
t-209 91q-133 0 -233.5 -88t-124.5 -236q-27 -156 47.5 -251t216.5 -95q131 0 229 89t123 241zM371 8q-57 -12 -93 -51t-45 -88q-10 -63 33 -112.5t116 -76t144.5 -40t132.5 -13.5q160 2 260.5 47t100.5 111q0 57 -67.5 89t-276.5 65q-190 30 -305 69z" />
    <glyph glyph-name="h" unicode="h" 
d="M1278 94l22 -39q-92 -92 -217 -92q-70 0 -112.5 48t-9.5 177l104 459q41 164 -11.5 261.5t-185.5 97.5q-135 0 -267 -147.5t-169 -356.5q-27 -158 -39 -283t-10 -172l2 -47h-203l211 1249q12 53 -12.5 86t-67.5 39l13 47q162 18 270 144l22 -9l-124 -700h20
q168 250 414 250q190 0 274 -123t31 -342l-98 -420q-41 -168 57 -168q41 0 86 41z" />
    <glyph glyph-name="i" unicode="i" horiz-adv-x="514" 
d="M473 1274q-55 0 -91 36t-36 87t36 88t91 37q57 0 94 -37t37 -88t-37 -87t-94 -36zM326 -37q-68 0 -114 48t-19 177l106 611q8 53 -18.5 84.5t-67.5 38.5l12 47q168 18 275 145l24 -8l-155 -885q-33 -168 65 -168q41 0 82 41l27 -39q-88 -92 -217 -92z" />
    <glyph glyph-name="j" unicode="j" horiz-adv-x="471" 
d="M436 1274q-57 0 -92 36t-35 87q0 53 35 89t92 36q55 0 92 -37t37 -88t-37 -87t-92 -36zM-113 -455q-78 0 -142 33t-62 88q2 70 77 70q51 0 94.5 -51.5t90.5 -51.5t85 36t50 108l172 1022q8 53 -18.5 84.5t-67.5 38.5l12 45q176 29 275 147l24 -8l-203 -1182
q-39 -203 -124 -291t-263 -88z" />
    <glyph glyph-name="k" unicode="k" horiz-adv-x="1144" 
d="M1190 111l35 -37q-86 -111 -224 -111q-158 0 -294 156.5t-207 357.5q-43 -4 -66 -2q-61 -213 -55 -475h-203l211 1251q12 53 -12.5 85t-67.5 40l12 45q170 29 273 146l20 -8l-129 -730h19q104 143 233 211t254 68q70 0 125 -37t55 -115q0 -127 -145 -254t-344 -188
q188 -449 414 -448q51 0 96 45zM893 965q-131 0 -248 -112t-188 -308q193 4 359.5 116.5t166.5 225.5q0 33 -22.5 55.5t-67.5 22.5z" />
    <glyph glyph-name="l" unicode="l" horiz-adv-x="530" 
d="M350 -37q-70 0 -115 48t-20 177l186 1061q10 53 -16.5 86t-69.5 39l13 47q172 18 276 144l23 -6l-236 -1338q-33 -168 68 -168q39 0 80 41l26 -39q-88 -92 -215 -92z" />
    <glyph glyph-name="m" unicode="m" horiz-adv-x="1769" 
d="M1835 94l25 -39q-98 -92 -222 -92q-70 0 -112.5 48t-9.5 177l104 459q92 358 -141 359q-119 0 -232.5 -149.5t-152.5 -367.5q-25 -147 -37.5 -270t-12.5 -172v-49h-204l110 649q39 164 16.5 261.5t-141 97.5t-234.5 -148.5t-153 -357.5q-27 -158 -40 -283t-13 -172v-47
h-203l135 801q10 53 -16.5 84.5t-67.5 38.5l13 47q168 20 274 145l25 -8l-45 -250h14q168 250 375 250q129 0 188.5 -66.5t61.5 -197.5h12q162 264 387 264q176 0 240.5 -121t11.5 -344l-98 -420q-47 -168 55 -168q43 0 88 41z" />
    <glyph glyph-name="n" unicode="n" horiz-adv-x="1212" 
d="M1278 94l25 -39q-96 -92 -224 -92q-68 0 -110.5 48t-10.5 177l107 459q41 164 -11.5 261.5t-185.5 97.5q-135 0 -267 -147.5t-169 -356.5q-27 -158 -39 -284t-10 -173l2 -47h-203l135 801q10 53 -16.5 84.5t-67.5 38.5l13 47q168 20 274 145l25 -8l-47 -250h16
q168 250 414 250q190 0 273 -123t34 -342l-100 -420q-23 -61 -9.5 -114.5t68.5 -53.5q39 0 84 41z" />
    <glyph glyph-name="o" unicode="o" horiz-adv-x="1224" 
d="M614 -37q-248 0 -379 170t-90 416q41 240 221.5 398.5t417.5 158.5q242 0 371 -166t88 -416q-41 -244 -217 -402.5t-412 -158.5zM635 51q160 0 282.5 134t153.5 339q33 211 -54 352.5t-253 141.5q-162 0 -289 -134t-158 -337q-31 -207 58.5 -351.5t259.5 -144.5z" />
    <glyph glyph-name="p" unicode="p" horiz-adv-x="1234" 
d="M852 1106q186 0 290.5 -127t104.5 -317q0 -289 -175 -494t-425 -205q-215 0 -317 154h-6l-66 -365q-10 -53 14.5 -86t63.5 -39l-10 -47h-365l4 47q43 6 78 38t45 87l184 1047q10 53 -16.5 84.5t-69.5 38.5l13 47q174 18 280 145l23 -8l-33 -180h8q63 80 162.5 130
t212.5 50zM625 51q131 0 237.5 95.5t161.5 236.5t55 291q0 152 -72.5 242t-189.5 90q-115 0 -221.5 -79t-161.5 -192l-82 -463q31 -90 103 -155.5t170 -65.5z" />
    <glyph glyph-name="q" unicode="q" horiz-adv-x="1228" 
d="M1006 -248q-10 -55 14 -87t65 -38l-12 -47h-364l4 47q45 6 79.5 38t45.5 87l80 455h-11q-68 -111 -171 -177.5t-210 -66.5q-178 0 -283.5 112.5t-105.5 313.5q0 176 74 339t219 270.5t328 107.5q209 0 336 -164h4l88 125h51zM573.5 66q114.5 0 221 102t157.5 238l82 462
q-45 63 -112.5 100.5t-137.5 37.5q-221 0 -350 -187.5t-129 -435.5q0 -160 77 -238.5t191.5 -78.5z" />
    <glyph glyph-name="r" unicode="r" horiz-adv-x="942" 
d="M883 1106q100 0 146 -45t38 -109q-8 -49 -44 -81.5t-91 -32.5q-41 0 -66.5 20.5t-34 45t-30 45t-56.5 20.5q-82 0 -178 -132t-137 -345q-25 -119 -36 -243t-9 -188v-63h-205l137 801q8 53 -18.5 84.5t-67.5 38.5l13 47q170 18 276 145l23 -8l-41 -219v2h12
q183 217 369 217z" />
    <glyph glyph-name="s" unicode="s" horiz-adv-x="1130" 
d="M592 -37q-207 0 -340 85t-123 183q10 90 96 91q43 0 65.5 -28t36 -68t34 -80t77 -67.5t148.5 -27.5q131 0 225 56.5t109 148.5q6 45 -11.5 81t-40 56.5t-75 41t-82 27.5t-95.5 23q-57 12 -103 26.5t-100.5 41.5t-89 59.5t-56 85t-13.5 113.5q14 123 141 209t320 86
q182 0 295.5 -76t103.5 -170q-4 -37 -24.5 -62.5t-59.5 -25.5q-45 0 -64.5 25.5t-24.5 61.5t-18.5 72t-64.5 61.5t-145 25.5q-115 0 -200 -52.5t-95 -134.5q-8 -61 42 -104t96 -57.5t138 -34.5l27 -6q82 -18 146.5 -42t125 -64t88 -102.5t15.5 -141.5
q-16 -125 -149.5 -220.5t-354.5 -95.5z" />
    <glyph glyph-name="t" unicode="t" horiz-adv-x="694" 
d="M426 -37q-119 0 -172 61.5t-27 208.5l131 746h-176l11 55q145 47 216.5 119t129.5 221h59l-53 -307l286 2l-14 -88l-287 -2l-135 -762q-31 -162 105 -162q80 0 139 23l10 -68q-98 -47 -223 -47z" />
    <glyph glyph-name="u" unicode="u" horiz-adv-x="1206" 
d="M1268 94l26 -39q-92 -92 -219 -92q-68 0 -112.5 48t-20.5 177l4 25h-12q-166 -250 -410 -250q-201 0 -278.5 120t-12.5 345l123 418q51 170 -51 170q-35 0 -86 -43l-26 39q100 94 219 94q70 0 114.5 -50t5.5 -179l-131 -457q-51 -170 -4 -263.5t189 -93.5
q133 0 259 146.5t163 357.5q27 158 39 283t10 170l-2 47h202l-137 -846q-37 -168 64 -168q43 0 84 41z" />
    <glyph glyph-name="v" unicode="v" horiz-adv-x="1267" 
d="M1192 1106q61 0 97 -48t34 -128q-2 -117 -51 -291t-135 -313q-94 -154 -228.5 -258.5t-298.5 -104.5q-121 0 -212 82t-89 219q4 260 334 631l-6 12h-227q-74 2 -131.5 -21.5t-65.5 -76.5q-10 -41 25 -76l-39 -26q-80 61 -60 161q6 76 78 139.5t211 59.5h422l6 -14
q-4 -6 -16 -23q-342 -467 -351 -708q-4 -139 58.5 -197.5t157.5 -58.5q88 0 189 83.5t177 212.5q109 178 113 373q2 72 -53.5 133.5t-55.5 124.5q0 45 31 79t86 34z" />
    <glyph glyph-name="w" unicode="w" horiz-adv-x="1822" 
d="M1823 930q14 -113 -12.5 -289t-92.5 -315q-164 -362 -446 -363q-90 0 -170 59.5t-101 170.5h-14q-174 -229 -389 -230q-119 0 -205 82t-84 219q2 262 334 631l-6 12h-219q-188 4 -205 -98q-10 -41 25 -76l-39 -26q-80 61 -60 161q6 76 78 139.5t211 59.5h422l6 -14
q-4 -4 -33.5 -45t-46 -64.5t-51.5 -73t-57.5 -87.5t-53 -91t-51 -99t-40 -96.5t-30 -99.5t-10.5 -92q-2 -240 211 -239q90 0 194.5 108.5t175.5 254.5t73 255q4 70 -16.5 157t-20.5 144q0 47 29.5 84t82.5 37q45 0 74 -38t29 -95q0 -63 -80 -270t-84 -371q-6 -266 197 -266
q86 0 174 85t135 209q74 186 51 375q-4 47 -26.5 81t-48 50.5t-46 48t-22.5 74.5q0 47 29.5 82t84.5 35q61 0 99.5 -48t44.5 -128z" />
    <glyph glyph-name="x" unicode="x" horiz-adv-x="1271" 
d="M1223 1106q78 0 131 -45t53 -105q-2 -47 -30.5 -76.5t-71.5 -29.5q-41 0 -68 18.5t-37 42t-29.5 42t-50.5 18.5q-76 0 -186 -174q-66 -98 -137 -236l147 -287q90 -215 207 -215q63 0 109 52l34 -37q-72 -111 -209 -111q-219 0 -340 270l-77 148l-2 -4h-15
q-39 -70 -110 -178q-96 -141 -168 -189.5t-172 -48.5q-78 0 -131.5 44t-49.5 104q0 47 29 77.5t72 30.5q41 0 66.5 -19.5t35.5 -42t29.5 -42t50.5 -19.5q76 0 189 174q66 100 122 215l-165 316q-53 104 -185 123l-6 47q29 2 70 12t94 45t65 88l27 -8l229 -442h11
q10 18 131 202q96 143 168 191.5t170 48.5z" />
    <glyph glyph-name="y" unicode="y" horiz-adv-x="1275" 
d="M1149 1106q68 0 100.5 -46t26.5 -110q-16 -152 -140 -423t-239 -453q-10 -18 -38 -60.5t-30 -44.5q-127 -207 -244.5 -316.5t-246.5 -109.5q-63 0 -104 35t-39 84q0 49 34.5 79t79.5 30q41 0 83 -28t57 -28q86 0 143 55.5t149 204.5q-43 291 -91 493t-103 314.5
t-110.5 161.5t-123.5 49q-72 0 -116 -45l-35 37q88 111 231 111q362 0 479 -893h11q217 352 239 567q4 41 -20.5 76t-50 72.5t-21.5 87.5q2 45 37 72.5t82 27.5z" />
    <glyph glyph-name="z" unicode="z" horiz-adv-x="1361" 
d="M135 -37q-37 0 -41 39q-2 51 58.5 116.5t152.5 102.5l772 598v12q-76 16 -215 101.5t-241 85.5q-61 0 -95 -38t-43.5 -83t-38 -83t-84.5 -38q-47 0 -80.5 30t-33.5 77q0 98 103.5 160.5t225.5 62.5q139 0 313.5 -51t287.5 -51q45 0 98 34.5t80 67.5h14l35 -39
q-31 -66 -82 -128t-93 -100t-110 -91q-74 -59 -237.5 -185.5t-294.5 -226.5t-137 -105v-12q121 -14 291.5 -91t267.5 -77q76 0 116.5 26.5t40.5 74.5q0 20 -26.5 60t-26.5 79q0 55 32 88t85 33q51 0 87 -37t36 -96q0 -133 -102.5 -224.5t-260.5 -91.5t-334 49t-295 49
q-70 0 -111.5 -24.5t-65 -49t-48.5 -24.5z" />
    <glyph glyph-name="braceleft" unicode="{" horiz-adv-x="782" 
d="M635 -440q-193 0 -282 105.5t-29 303.5l94 314q27 92 -25.5 143t-171.5 51l17 103q117 0 184 51t70 143l2 313q0 201 120.5 306.5t313.5 105.5l-6 -51q-102 0 -181 -59.5t-79 -176.5v-340q-2 -145 -85 -227t-198 -110l-2 -11q109 -31 167 -111.5t13 -226.5l-102 -340
q-35 -117 25.5 -176t162.5 -59z" />
    <glyph glyph-name="bar" unicode="|" horiz-adv-x="1267" 
d="M510 -446l293 1935h86l-293 -1935h-86z" />
    <glyph glyph-name="braceright" unicode="}" horiz-adv-x="815" 
d="M16 -440l7 51q102 0 180 59.5t78 175.5v340q2 145 85 226.5t199 111.5l2 11q-109 31 -167 111.5t-13 225.5l102 340q35 117 -25.5 176.5t-162.5 59.5l6 51q195 0 284 -105.5t30 -306.5l-95 -311q-27 -92 25.5 -143t171.5 -51l-16 -105q-119 0 -186.5 -50t-67.5 -142
l-2 -316q0 -199 -121 -304t-314 -105z" />
    <glyph glyph-name="asciitilde" unicode="~" horiz-adv-x="1091" 
d="M776 563q-66 0 -123 31t-90 67.5t-75 67.5t-82 31q-59 0 -95.5 -37t-48.5 -127h-74q43 299 289 299q66 0 123 -30.5t91 -67.5t76 -68t83 -31q121 0 145 162h70q-25 -150 -100.5 -223.5t-188.5 -73.5z" />
    <glyph glyph-name="uni00A0" unicode="&#xa0;" horiz-adv-x="638" 
 />
    <glyph glyph-name="exclamdown" unicode="&#xa1;" horiz-adv-x="645" 
d="M430 1200q-57 0 -90 36t-25 95q8 61 53.5 98t100.5 37t89 -36.5t26 -98.5q-8 -57 -53.5 -94t-100.5 -37zM242 -37q-127 0 -99 176q12 92 88 346t127 568h99q-45 -317 -45 -573.5t-13 -340.5q-28 -176 -157 -176z" />
    <glyph glyph-name="cent" unicode="&#xa2;" horiz-adv-x="1374" 
d="M950 1221q176 -8 277.5 -99.5t87.5 -185.5q-6 -37 -34 -63.5t-67 -26.5q-41 0 -60 30.5t-28.5 73.5t-27 86t-71.5 74t-148 31q-141 0 -269.5 -116t-152.5 -273q-35 -211 64.5 -324t289.5 -113q129 0 243.5 73t172.5 173l43 -16q-49 -125 -180.5 -227.5t-301.5 -114.5
l-30 -203h-117l31 205q-197 20 -301.5 152t-73.5 339q33 211 182.5 350.5t354.5 167.5l34 220h115z" />
    <glyph glyph-name="sterling" unicode="&#xa3;" horiz-adv-x="1206" 
d="M1133 1108q4 25 26.5 60.5t24.5 56.5q12 63 -50.5 110t-175.5 47q-131 0 -228 -92t-118 -223q-14 -88 19 -221h395l-18 -117h-346q59 -197 38 -313q-12 -72 -36 -137q35 -16 110.5 -53.5t112.5 -53.5t90 -32.5t92 -16.5q74 0 129 40t68 111q10 88 -58 125l41 45
q49 -27 76 -83t18 -117q-23 -129 -104.5 -205t-216.5 -76q-37 0 -76 9.5t-68.5 20.5t-73.5 36.5t-65.5 40t-72 49.5t-66.5 45q-141 -201 -377 -201q-113 0 -176 54.5t-47 152.5q16 96 101 151.5t188 55.5q113 0 235 -43q4 51 -2 107.5t-14 90t-28.5 104.5t-26.5 93h-291
l16 117h252q-10 100 2 182q33 209 186.5 325.5t364.5 116.5q180 0 281.5 -92t83.5 -221q-10 -59 -44 -100t-87 -41q-41 0 -65.5 26.5t-18.5 65.5zM242 55q76 0 146.5 50.5t107.5 121.5q-115 59 -211 60q-68 0 -120 -32t-63 -87q-6 -51 33 -82t107 -31z" />
    <glyph glyph-name="currency" unicode="&#xa4;" horiz-adv-x="1568" 
d="M1257 270l-180 213q-127 -86 -284 -86q-160 0 -258 86l-246 -213l-80 99l246 211q-70 113 -45 272q25 156 131 268l-181 213l113 97l180 -213q133 90 282.5 90t256.5 -90l248 215l84 -99l-252 -213q72 -115 47 -268q-25 -158 -131 -272l182 -211zM815 535q131 0 237.5 93
t127.5 224q23 129 -55 222t-209.5 93t-239 -93t-127.5 -222q-20 -131 57.5 -224t208.5 -93z" />
    <glyph glyph-name="yen" unicode="&#xa5;" horiz-adv-x="1245" 
d="M1143 1434h313l-4 -48q-92 -12 -184 -122l-396 -467h312l-17 -105h-381l-32 -205h381l-17 -104h-381l-32 -213q-8 -53 16 -85t65 -38l-10 -47h-385l2 47q45 6 79 38t42 85l35 213h-379l14 104h381l33 205h-381l16 105h312l-246 467q-59 111 -145 122l10 48h420l-2 -48
q-39 -8 -59.5 -36.5t1.5 -85.5l236 -445h14l377 445q41 57 30.5 85.5t-48.5 36.5z" />
    <glyph glyph-name="brokenbar" unicode="&#xa6;" horiz-adv-x="1267" 
d="M854 1272l-104 -692h4l-125 -809h-86l106 690h-4l123 811h86z" />
    <glyph glyph-name="section" unicode="&#xa7;" horiz-adv-x="1040" 
d="M664 1386q-106 0 -191.5 -59t-99.5 -145q-6 -35 8 -63.5t38.5 -47t66.5 -35t76 -26t81 -19.5l27 -6q76 -18 121 -31.5t103 -42t87 -61.5t44 -88t3 -127q-20 -102 -108 -189q72 -74 51 -186q-20 -119 -152.5 -208t-306.5 -89q-205 0 -316.5 79t-97.5 175q6 33 33 60.5
t62 27.5q41 0 61 -26.5t30.5 -65.5t29 -77t75.5 -64.5t154 -26.5q104 0 182 58.5t94 146.5q8 57 -40 98t-94 55.5t-140 36.5q-16 4 -25 6q-94 23 -150.5 42.5t-116.5 58.5t-81.5 100.5t-7.5 149.5q14 100 102 196q-61 72 -45 178q20 121 151.5 210t305.5 89
q172 0 276.5 -77.5t87.5 -169.5q-14 -94 -96 -95q-45 0 -60.5 27t-18.5 64.5t-12 75.5t-55 64.5t-136 26.5zM604 850q-193 43 -282 98q-29 -49 -39 -104q-12 -72 32.5 -127t111.5 -85t159 -50q195 -45 272 -90q47 68 53 112q18 102 -68.5 157.5t-238.5 88.5z" />
    <glyph glyph-name="dieresis" unicode="&#xa8;" horiz-adv-x="784" 
d="M420 1270q-47 0 -74 31.5t-18 74.5q10 47 48 80t87 33t74.5 -33t15.5 -80q-8 -43 -46 -74.5t-87 -31.5zM766 1270q-49 0 -75.5 31.5t-16.5 74.5q10 47 47 80t86 33t75.5 -33t16.5 -80q-8 -43 -46 -74.5t-87 -31.5z" />
    <glyph glyph-name="copyright" unicode="&#xa9;" horiz-adv-x="1634" 
d="M821.5 -33q-311.5 0 -500 220.5t-141.5 529.5q31 203 158 376t316.5 273t392.5 100q313 0 501.5 -220t141 -529t-302 -529.5t-566 -220.5zM831 35q283 0 515.5 199.5t275.5 482t-129 482.5t-455 200q-285 0 -516 -200t-274 -482.5t127.5 -482t455.5 -199.5zM866 264
q-188 0 -287.5 128t-68.5 333q29 193 169 323t325 130q45 0 119.5 -10.5t129.5 -10.5h33l17 -256l-37 -10q-37 111 -96.5 166t-163.5 55q-137 0 -225.5 -107.5t-114.5 -281.5q-27 -178 29.5 -283.5t193.5 -105.5q106 0 196.5 61.5t131.5 153.5l59 -19q-55 -123 -161 -194.5
t-249 -71.5z" />
    <glyph glyph-name="ordfeminine" unicode="&#xaa;" horiz-adv-x="647" 
d="M741 1028q16 0 31 14l10 -20q-45 -39 -102 -39q-84 0 -68 96h-4q-57 -96 -151 -96q-76 0 -121 47t-45 135q0 117 74.5 211t187.5 94q80 0 117 -53h4l12 51h111q-33 -66 -54 -190l-32 -178q-17 -72 30 -72zM487 1040q43 0 82 37t60 92l33 195q-29 51 -91 51
q-86 0 -135 -75.5t-49 -176.5q0 -59 28.5 -91t71.5 -32zM266 827l15 70h450l-14 -70h-451z" />
    <glyph glyph-name="guillemotleft" unicode="&#xab;" horiz-adv-x="1032" 
d="M465 23l-336 413l16 92l459 414l41 -29l-311 -432l180 -428zM862 23l-334 413l13 92l460 414l39 -29l-307 -432l178 -428z" />
    <glyph glyph-name="logicalnot" unicode="&#xac;" horiz-adv-x="1292" 
d="M1065 489l76 371h-963l23 111h1075l-98 -482h-113z" />
    <glyph glyph-name="uni00AD" unicode="&#xad;" horiz-adv-x="546" 
d="M137 442l21 107h413l-20 -107h-414z" />
    <glyph glyph-name="registered" unicode="&#xae;" horiz-adv-x="927" 
d="M643 1468q168 0 268.5 -118.5t75.5 -284.5q-25 -164 -162 -281.5t-305 -117.5t-269 117.5t-75 281.5q27 166 163 284.5t304 118.5zM922 1065q20 141 -64 239.5t-225 98.5t-256 -97.5t-137 -240.5q-20 -139 64.5 -237.5t226 -98.5t255 98.5t136.5 237.5zM645 1288
q82 0 125 -31.5t35 -91.5q-12 -88 -123 -116l-2 -5q43 -4 57.5 -26.5t20.5 -69.5q2 -29 4 -39t12 -19t31 -9l-2 -23q-29 -12 -66 -12q-82 0 -86 84q-4 66 -22.5 86t-75.5 20h-47l-17 -112q-6 -39 25 -50l-6 -18h-152l-2 18q33 10 39 50l45 293q6 41 -24 49l6 22h225z
M709 1161q6 41 -22 63.5t-81 22.5q-35 0 -67 -4l-25 -162h74q111 0 121 80z" />
    <glyph glyph-name="macron" unicode="&#xaf;" horiz-adv-x="761" 
d="M315 1303l23 108h536l-22 -108h-537z" />
    <glyph glyph-name="degree" unicode="&#xb0;" horiz-adv-x="638" 
d="M416 1049q-88 0 -137.5 61t-32.5 147q18 88 93 150.5t163 62.5t137 -62t31 -151q-16 -84 -91 -146t-163 -62zM430 1118q59 0 108.5 40t59.5 99q12 59 -19.5 100.5t-91 41.5t-107.5 -41t-61 -101q-10 -59 22 -99t89 -40z" />
    <glyph glyph-name="plusminus" unicode="&#xb1;" horiz-adv-x="1439" 
d="M711 193l98 479h-496l21 100h493l99 494h100l-98 -494h493l-18 -100h-496l-96 -479h-100zM178 0l17 88h1089l-16 -88h-1090z" />
    <glyph glyph-name="uni00B2" unicode="&#xb2;" horiz-adv-x="434" 
d="M569 1280q-18 -109 -102 -183.5t-215 -142.5v-2h84q115 0 180 66l21 -10l-62 -134h-336l6 48q8 6 41 28.5t43.5 29.5t41 29.5t42 34t36 33t35.5 35.5t28.5 36.5t27 41t17.5 42t12 48.5q10 57 -14.5 90t-75.5 33t-95 -36t-57 -97l-30 6q14 78 74.5 123t136.5 45
q82 0 126.5 -45t34.5 -119z" />
    <glyph glyph-name="uni00B3" unicode="&#xb3;" horiz-adv-x="419" 
d="M295 858q-66 0 -113 24.5t-41 67.5q8 49 54 49q20 0 30.5 -15t14.5 -33.5t19 -34t42 -15.5q55 0 93 35t48.5 96.5t-20.5 99t-94 37.5h-19l6 39h21q51 0 83 30t38 71q6 39 -14.5 66.5t-69.5 27.5q-43 0 -80 -32t-49 -85l-31 6q16 68 70.5 110t128.5 42q78 0 114.5 -37
t28.5 -88q-14 -90 -111 -121v-4q51 -10 79 -50t20 -93q-12 -82 -80 -137.5t-168 -55.5z" />
    <glyph glyph-name="acute" unicode="&#xb4;" horiz-adv-x="608" 
d="M446 1159l-45 45l215 238q51 51 99 51q33 0 48 -20.5t9 -47.5q-8 -45 -70 -88z" />
    <glyph glyph-name="mu" unicode="&#xb5;" horiz-adv-x="1243" 
d="M1188 66q39 0 84 24l8 -78q-76 -49 -184 -49q-164 0 -131 182h-7q-164 -180 -358 -180q-137 0 -213 49q2 -51 16.5 -158.5t6.5 -146.5q-10 -57 -52.5 -93t-95.5 -36q-51 0 -78.5 37t-15.5 96l127 623q4 29 8 45l113 571h168l-115 -577q-37 -164 14.5 -238t182.5 -74
q117 0 211 76t127 195l122 618h168l-153 -770q-25 -116 47 -116z" />
    <glyph glyph-name="paragraph" unicode="&#xb6;" horiz-adv-x="1189" 
d="M498 -403q-135 0 -215 53t-70 125q6 43 34.5 69.5t67.5 26.5q41 0 68 -26.5t41 -58.5t50 -58.5t93 -26.5q289 0 346 387l97 635q-201 2 -297.5 102.5t-73.5 253.5q25 158 148.5 256.5t291.5 98.5h283l-2 -41q-113 -25 -127 -125l-176 -1157q-39 -256 -191.5 -385
t-367.5 -129z" />
    <glyph glyph-name="periodcentered" unicode="&#xb7;" horiz-adv-x="606" 
d="M368.5 686q-55.5 0 -88 37t-20.5 98q12 57 58.5 94t101.5 37t87 -36.5t19 -94.5q-12 -61 -57 -98t-100.5 -37z" />
    <glyph glyph-name="cedilla" unicode="&#xb8;" horiz-adv-x="763" 
d="M285 -471q-100 0 -157.5 35t-47.5 84q4 27 26.5 46t49.5 19q33 0 48 -18.5t17 -41t23.5 -41t64.5 -18.5q129 0 154 105q6 33 -14.5 55.5t-61.5 22.5q-57 0 -96 -33l-45 23l168 272l71 -31l-94 -147q25 12 66 12q78 0 118.5 -39t26.5 -108q-14 -78 -102 -137.5t-215 -59.5
z" />
    <glyph glyph-name="uni00B9" unicode="&#xb9;" horiz-adv-x="241" 
d="M139 874v21q57 16 64 57l61 385h-55v25l141 72h29l-76 -482q-6 -43 43 -57l-6 -21h-201z" />
    <glyph glyph-name="ordmasculine" unicode="&#xba;" horiz-adv-x="706" 
d="M545 981q-106 0 -162.5 71.5t-40.5 178.5q16 104 93 170.5t181.5 66.5t159.5 -69.5t39 -176t-91 -174t-179 -67.5zM553 1028q61 0 107.5 54.5t58.5 140.5t-18.5 142t-92 56t-109.5 -54t-59 -138q-14 -84 18 -142.5t95 -58.5zM285 827l14 70h451l-15 -70h-450z" />
    <glyph glyph-name="guillemotright" unicode="&#xbb;" horiz-adv-x="1034" 
d="M158 23l-39 30l309 430l-178 430l49 29l334 -414l-15 -92zM557 23l-41 30l309 430l-178 430l49 29l334 -414l-14 -92z" />
    <glyph glyph-name="onequarter" unicode="&#xbc;" horiz-adv-x="948" 
d="M709 897l-7 -23h-202l2 23q59 10 65 55l78 385h-55l2 25l141 72h31l-96 -482q-10 -45 41 -55zM258 758h635l-16 -80h-635zM635 555l-76 -373h92l-20 -43h-80l-12 -63q-10 -43 41 -53l-5 -23h-204l2 23q55 10 65 53l13 63h-244l6 33l348 383h74zM272 182h189l51 256h-2
l-238 -254v-2z" />
    <glyph glyph-name="onehalf" unicode="&#xbd;" horiz-adv-x="897" 
d="M680 897l-6 -23h-201l2 23q57 10 64 55l79 385h-55v25l144 72h30l-98 -482q-6 -45 41 -55zM231 758h635l-18 -80h-635zM510 569q80 0 123 -46t29 -120q-23 -104 -110 -181t-222 -144v-2h90q117 0 184 67l21 -8l-74 -149h-8q-35 14 -97 14h-229l6 47q8 6 42 28.5t45.5 30
t42 30t43 32.5t38 32.5t36.5 37t29.5 37t29 41t19.5 42t13 45.5q12 59 -9.5 92t-72.5 33t-97 -35.5t-60 -97.5l-31 6q18 76 80.5 122t138.5 46z" />
    <glyph glyph-name="threequarters" unicode="&#xbe;" horiz-adv-x="964" 
d="M598 866q-68 0 -114 23.5t-38 66.5q10 47 58 48q20 0 30.5 -15.5t12.5 -33t16.5 -33t42.5 -15.5q55 0 94 35t52 96q12 63 -15.5 100.5t-91.5 37.5h-18l8 38h20q49 0 83 29t40 72q8 39 -11 65.5t-69 26.5q-43 0 -80.5 -29.5t-52.5 -85.5l-30 4q23 72 77 113t127 41
q78 0 114 -37t26 -88q-18 -88 -117 -121v-4q49 -10 75.5 -51t16.5 -94q-16 -80 -86 -134.5t-170 -54.5zM274 758h635l-16 -80h-635zM651 555l-76 -373h93l-21 -43h-80l-12 -63q-10 -43 41 -53l-4 -23h-205l2 23q55 10 66 53l12 63h-244l6 33l349 383h73zM289 182h188l51 256
h-2l-237 -254v-2z" />
    <glyph glyph-name="questiondown" unicode="&#xbf;" horiz-adv-x="1028" 
d="M743.5 1202q-55.5 0 -88 37t-24.5 96.5t53 97t100.5 37.5t88 -37.5t24.5 -97.5q-8 -57 -53 -95t-100.5 -38zM586 -37q-225 0 -394 185.5t-172 375.5q0 96 51.5 162t147.5 98.5t195.5 47t230.5 16.5l31 209h100l-55 -377h-74q-92 0 -162.5 -6t-153.5 -24.5t-128 -62.5
t-45 -112q2 -139 112.5 -276.5t235.5 -137.5q57 0 92 29t48 62.5t45 62.5t85 29q39 0 67.5 -30t28.5 -73q0 -86 -80.5 -132t-205.5 -46z" />
    <glyph glyph-name="Agrave" unicode="&#xc0;" horiz-adv-x="1265" 
d="M791 1524l-187 178q-43 47 -35 88q4 27 28 47.5t56 20.5q49 0 80 -52l119 -239zM1161 168q23 -104 119 -123l-12 -45h-385l4 45q37 8 62.5 39t15.5 84l-47 248h-558l-135 -248q-25 -61 -12.5 -88t47.5 -35l-12 -45h-285l4 45q104 18 160 123l592 1087q-33 25 -82 35
l10 47q139 59 248 127h14zM422 530h473l-121 625q0 4 -2 6h-6z" />
    <glyph glyph-name="Aacute" unicode="&#xc1;" horiz-adv-x="1265" 
d="M1018 1702l-256 -178l-43 45l215 237q51 51 98 52q33 0 48.5 -20.5t9.5 -47.5q-9 -47 -72 -88zM1161 168q23 -104 119 -123l-12 -45h-385l4 45q37 8 62.5 39t15.5 84l-47 248h-558l-135 -248q-25 -61 -12.5 -88t47.5 -35l-12 -45h-285l4 45q104 18 160 123l592 1087
q-33 25 -82 35l10 47q139 59 248 127h14zM422 530h473l-121 625q0 4 -2 6h-6z" />
    <glyph glyph-name="Acircumflex" unicode="&#xc2;" horiz-adv-x="1265" 
d="M825 1657l-303 -144l-33 58l365 256l281 -256l-52 -58zM1161 168q23 -104 119 -123l-12 -45h-385l4 45q37 8 62.5 39t15.5 84l-47 248h-558l-135 -248q-25 -61 -12.5 -88t47.5 -35l-12 -45h-285l4 45q104 18 160 123l592 1087q-33 25 -82 35l10 47q139 59 248 127h14z
M422 530h473l-121 625q0 4 -2 6h-6z" />
    <glyph glyph-name="Atilde" unicode="&#xc3;" horiz-adv-x="1265" 
d="M674 1747q-63 0 -94 -88l-60 20q27 92 80 138.5t121 46.5q55 0 130 -58.5t112 -58.5q61 0 96 86l55 -18q-53 -186 -201 -187q-55 0 -129.5 59.5t-109.5 59.5zM1161 168q23 -104 119 -123l-12 -45h-385l4 45q37 8 62.5 39t15.5 84l-47 248h-558l-135 -248
q-25 -61 -12.5 -88t47.5 -35l-12 -45h-285l4 45q104 18 160 123l592 1087q-33 25 -82 35l10 47q139 59 248 127h14zM422 530h473l-121 625q0 4 -2 6h-6z" />
    <glyph glyph-name="Adieresis" unicode="&#xc4;" horiz-adv-x="1265" 
d="M684 1634q-47 0 -73.5 32t-18.5 75q10 47 48 79.5t87 32.5t74.5 -32.5t15.5 -79.5q-8 -43 -46 -75t-87 -32zM1030 1634q-49 0 -75.5 32t-18.5 75q10 47 48 79.5t87 32.5t76 -32.5t16 -79.5q-10 -43 -47 -75t-86 -32zM1161 168q23 -104 119 -123l-12 -45h-385l4 45
q37 8 62.5 39t15.5 84l-47 248h-558l-135 -248q-25 -61 -12.5 -88t47.5 -35l-12 -45h-285l4 45q104 18 160 123l592 1087q-33 25 -82 35l10 47q139 59 248 127h14zM422 530h473l-121 625q0 4 -2 6h-6z" />
    <glyph glyph-name="Aring" unicode="&#xc5;" horiz-adv-x="1265" 
d="M813 1538q-92 0 -144.5 63.5t-37.5 151.5q14 90 87 153.5t165 63.5q90 0 143 -63.5t39 -153.5q-14 -88 -89 -151.5t-163 -63.5zM725 1753q-10 -53 19.5 -89t83 -36t96.5 37t51 88q8 53 -22.5 90t-84 37t-94.5 -37t-49 -90zM1161 168q23 -104 119 -123l-12 -45h-385l4 45
q37 8 62.5 39t15.5 84l-47 248h-558l-135 -248q-25 -61 -12.5 -88t47.5 -35l-12 -45h-285l4 45q104 18 160 123l592 1087q-33 25 -82 35l10 47q139 59 248 127h14zM422 530h473l-121 625q0 4 -2 6h-6z" />
    <glyph glyph-name="AE" unicode="&#xc6;" horiz-adv-x="2385" 
d="M1729 90q104 0 194 23.5t145.5 57.5t96.5 66.5t57 57.5l16 22l54 -20l-152 -326h-16q-68 29 -260 29h-791l4 47q41 6 76 38t45 85l39 248h-627l2 4l-231 -254q-39 -37 -48 -64.5t1 -40t28 -16.5l-12 -47h-307l4 47q113 18 205 121l1087 1178q-43 33 -92 40l13 48h1036
l49 -256l-55 -19q-2 8 -9.5 20.5t-40 44t-76.5 56.5t-129 44t-190 19q-143 0 -274 -20l-76 -471l6 -4q76 55 152 55q82 0 213 -67.5t190 -67.5q57 0 93 18.5t87 63.5l31 -35q-55 -76 -127 -124t-143 -48q-80 0 -211 67.5t-203 67.5q-51 0 -104 -33l-101 -632
q173 -23 351 -23zM711 530h544l111 711h-8z" />
    <glyph glyph-name="Ccedilla" unicode="&#xc7;" horiz-adv-x="1404" 
d="M1012 1470q201 0 319.5 -97t98.5 -220q-8 -49 -41 -87t-78 -38q-57 0 -79 37t-24 88t-10 103.5t-61.5 89t-155.5 36.5q-86 0 -175 -42t-169 -119.5t-141.5 -203.5t-87.5 -280q-61 -338 50 -512t330 -174q281 0 484 355l61 -41q-176 -362 -532 -398l-66 -106q12 12 66 12
q76 0 116.5 -39t26.5 -108q-14 -78 -102 -137.5t-215 -59.5q-100 0 -156.5 35t-46.5 84q4 27 26.5 46t49.5 19q33 0 47 -18.5t16 -41t22.5 -41t65.5 -18.5q63 0 103.5 29t50.5 76q8 33 -12.5 55.5t-61.5 22.5q-57 0 -96 -33l-47 23l123 196q-293 8 -431.5 230.5t-78.5 545.5
q55 309 278.5 520t532.5 211z" />
    <glyph glyph-name="Egrave" unicode="&#xc8;" horiz-adv-x="1261" 
d="M670 1702q-45 45 -35 88q4 27 27.5 47.5t56.5 20.5q49 0 80 -52l119 -239l-62 -43zM846 1343q-145 0 -277 -20l-84 -471l7 -4q76 55 149 55q84 0 215 -67.5t188 -67.5q59 0 95.5 18.5t85.5 63.5l30 -35q-125 -172 -268 -172q-80 0 -211 67.5t-203 67.5q-55 0 -106 -35
l-113 -630q172 -23 353 -23q104 0 195 23.5t146.5 56.5t96.5 65.5t59 55.5l17 24l51 -20l-127 -326h-17q-68 31 -260 31h-819l4 45q45 8 80 40t43 85l193 1094q18 102 -80 122l12 48h973l69 -258l-57 -19q-2 8 -9 20.5t-39 44t-76 56.5t-128 45t-188 20z" />
    <glyph glyph-name="Eacute" unicode="&#xc9;" horiz-adv-x="1261" 
d="M801 1702l-256 -178l-43 45l213 237q51 51 98 52q33 0 48.5 -20.5t10.5 -47.5q-10 -45 -71 -88zM846 1343q-145 0 -277 -20l-84 -471l7 -4q76 55 149 55q84 0 215 -67.5t188 -67.5q59 0 95.5 18.5t85.5 63.5l30 -35q-125 -172 -268 -172q-80 0 -211 67.5t-203 67.5
q-55 0 -106 -35l-113 -630q172 -23 353 -23q104 0 195 23.5t146.5 56.5t96.5 65.5t59 55.5l17 24l51 -20l-127 -326h-17q-68 31 -260 31h-819l4 45q45 8 80 40t43 85l193 1094q18 102 -80 122l12 48h973l69 -258l-57 -19q-2 8 -9 20.5t-39 44t-76 56.5t-128 45t-188 20z" />
    <glyph glyph-name="Ecircumflex" unicode="&#xca;" horiz-adv-x="1261" 
d="M682 1657l-303 -144l-33 58l365 256l280 -256l-51 -58zM846 1343q-145 0 -277 -20l-84 -471l7 -4q76 55 149 55q84 0 215 -67.5t188 -67.5q59 0 95.5 18.5t85.5 63.5l30 -35q-125 -172 -268 -172q-80 0 -211 67.5t-203 67.5q-55 0 -106 -35l-113 -630q172 -23 353 -23
q104 0 195 23.5t146.5 56.5t96.5 65.5t59 55.5l17 24l51 -20l-127 -326h-17q-68 31 -260 31h-819l4 45q45 8 80 40t43 85l193 1094q18 102 -80 122l12 48h973l69 -258l-57 -19q-2 8 -9 20.5t-39 44t-76 56.5t-128 45t-188 20z" />
    <glyph glyph-name="Edieresis" unicode="&#xcb;" horiz-adv-x="1261" 
d="M631 1634q-47 0 -74 32t-18 75q10 47 48 79.5t87 32.5t74.5 -32.5t15.5 -79.5q-8 -43 -46 -75t-87 -32zM977 1634q-49 0 -76 32t-18 75q10 47 48 79.5t87 32.5t75.5 -32.5t16.5 -79.5q-10 -43 -47 -75t-86 -32zM846 1343q-145 0 -277 -20l-84 -471l7 -4q76 55 149 55
q84 0 215 -67.5t188 -67.5q59 0 95.5 18.5t85.5 63.5l30 -35q-125 -172 -268 -172q-80 0 -211 67.5t-203 67.5q-55 0 -106 -35l-113 -630q172 -23 353 -23q104 0 195 23.5t146.5 56.5t96.5 65.5t59 55.5l17 24l51 -20l-127 -326h-17q-68 31 -260 31h-819l4 45q45 8 80 40
t43 85l193 1094q18 102 -80 122l12 48h973l69 -258l-57 -19q-2 8 -9 20.5t-39 44t-76 56.5t-128 45t-188 20z" />
    <glyph glyph-name="Igrave" unicode="&#xcc;" horiz-adv-x="532" 
d="M473 1524l-186 178q-43 47 -35 88q4 27 27.5 47.5t56.5 20.5q49 0 80 -52l119 -239zM47 0l4 45q45 8 80 40t43 85l193 1094q10 53 -13.5 83.5t-64.5 38.5l10 48h385l-4 -48q-43 -8 -78 -38.5t-45 -83.5l-195 -1094q-6 -53 17.5 -85t62.5 -40l-12 -45h-383z" />
    <glyph glyph-name="Iacute" unicode="&#xcd;" horiz-adv-x="534" 
d="M465 1524l-43 45l215 237q47 51 98 52q33 0 47.5 -19.5t10.5 -48.5q-8 -43 -72 -88zM49 0l4 45q45 8 80 40t43 85l193 1094q10 53 -13.5 83.5t-64.5 38.5l10 48h385l-4 -48q-43 -8 -78 -38.5t-45 -83.5l-194 -1094q-6 -53 17.5 -85t61.5 -40l-12 -45h-383z" />
    <glyph glyph-name="Icircumflex" unicode="&#xce;" horiz-adv-x="534" 
d="M213 1513l-33 58l363 256l280 -256l-51 -58l-256 144zM49 0l4 45q45 8 80 40t43 85l193 1094q10 53 -13.5 83.5t-64.5 38.5l10 48h385l-4 -48q-43 -8 -78 -38.5t-45 -83.5l-194 -1094q-6 -53 17.5 -85t61.5 -40l-12 -45h-383z" />
    <glyph glyph-name="Idieresis" unicode="&#xcf;" horiz-adv-x="534" 
d="M342 1634q-49 0 -75.5 32t-18.5 75q10 47 49 79.5t86 32.5q49 0 75.5 -32.5t16.5 -79.5q-10 -43 -47 -75t-86 -32zM686 1634q-49 0 -74.5 32t-17.5 75q10 47 47 79.5t86 32.5t75.5 -32.5t16.5 -79.5q-8 -43 -46 -75t-87 -32zM49 0l4 45q45 8 80 40t43 85l193 1094
q10 53 -13.5 83.5t-64.5 38.5l10 48h385l-4 -48q-43 -8 -78 -38.5t-45 -83.5l-194 -1094q-6 -53 17.5 -85t61.5 -40l-12 -45h-383z" />
    <glyph glyph-name="Eth" unicode="&#xd0;" horiz-adv-x="1421" 
d="M823 1434q322 0 506 -212t133 -532q-49 -311 -266 -500.5t-518 -189.5h-612l4 47q41 6 75.5 38t44.5 85l78 500h-270l16 94h271l77 500q8 53 -16 84.5t-65 37.5l12 48h530zM1268 653q49 305 -83 500t-411 195q-123 0 -211 -11l-90 -573h275l-15 -94h-274l-86 -545
q143 -33 303 -33q244 0 400.5 166t191.5 395z" />
    <glyph glyph-name="Ntilde" unicode="&#xd1;" horiz-adv-x="1349" 
d="M813 1747q-63 0 -94 -88l-60 20q53 184 203 185q55 0 129 -58.5t111 -58.5q61 0 96 86l55 -18q-25 -92 -78 -139.5t-122 -47.5q-53 0 -128 59.5t-112 59.5zM1237 1434h285l-4 -48q-43 -8 -79 -38.5t-44 -83.5l-224 -1264h-116q-25 135 -88.5 262t-139 228.5t-151.5 199.5
t-140.5 219t-91.5 246h-8l-174 -985q-10 -53 14.5 -85t65.5 -40l-12 -45h-285l4 45q102 23 123 125l193 1094q18 102 -80 122l12 48h229q41 -162 136.5 -332t186.5 -289t173 -263t102 -267h6l175 981q18 102 -80 122z" />
    <glyph glyph-name="Ograve" unicode="&#xd2;" horiz-adv-x="1525" 
d="M1012 1524l-185 178q-45 45 -36 88q16 68 86 68q51 0 77 -52l119 -239zM760 -37q-293 0 -456 224.5t-107 531.5q57 328 280 539.5t535 211.5q289 0 446.5 -221t102.5 -540q-55 -311 -281.5 -528.5t-519.5 -217.5zM774 51q211 0 378 192.5t216 469.5q49 283 -56.5 476
t-314.5 193q-223 0 -390 -186t-216 -475q-49 -272 59.5 -471t323.5 -199z" />
    <glyph glyph-name="Oacute" unicode="&#xd3;" horiz-adv-x="1525" 
d="M993 1524l-45 45l215 237q51 51 99 52q33 0 48 -20.5t9 -47.5q-8 -45 -70 -88zM760 -37q-293 0 -456 224.5t-107 531.5q57 328 280 539.5t535 211.5q289 0 446.5 -221t102.5 -540q-55 -311 -281.5 -528.5t-519.5 -217.5zM774 51q211 0 378 192.5t216 469.5
q49 283 -56.5 476t-314.5 193q-223 0 -390 -186t-216 -475q-49 -272 59.5 -471t323.5 -199z" />
    <glyph glyph-name="Ocircumflex" unicode="&#xd4;" horiz-adv-x="1525" 
d="M762 1513l-31 58l363 256l280 -256l-51 -58l-256 144zM760 -37q-293 0 -456 224.5t-107 531.5q57 328 280 539.5t535 211.5q289 0 446.5 -221t102.5 -540q-55 -311 -281.5 -528.5t-519.5 -217.5zM774 51q211 0 378 192.5t216 469.5q49 283 -56.5 476t-314.5 193
q-223 0 -390 -186t-216 -475q-49 -272 59.5 -471t323.5 -199z" />
    <glyph glyph-name="Otilde" unicode="&#xd5;" horiz-adv-x="1525" 
d="M1174 1628q-53 0 -128 59.5t-112 59.5q-63 0 -94 -88l-60 20q53 184 203 185q53 0 129 -58.5t111 -58.5q61 0 96 86l55 -18q-25 -92 -77.5 -139.5t-122.5 -47.5zM760 -37q-293 0 -456 224.5t-107 531.5q57 328 280 539.5t535 211.5q289 0 446.5 -221t102.5 -540
q-55 -311 -281.5 -528.5t-519.5 -217.5zM774 51q211 0 378 192.5t216 469.5q49 283 -56.5 476t-314.5 193q-223 0 -390 -186t-216 -475q-49 -272 59.5 -471t323.5 -199z" />
    <glyph glyph-name="Odieresis" unicode="&#xd6;" horiz-adv-x="1525" 
d="M874 1634q-47 0 -73.5 32t-18.5 75q10 47 48 79.5t87.5 32.5t75 -32.5t15.5 -79.5q-8 -43 -46.5 -75t-87.5 -32zM1220.5 1634q-49.5 0 -76 32t-16.5 75q10 47 47 79.5t86.5 32.5t76 -32.5t16.5 -79.5q-8 -43 -46 -75t-87.5 -32zM760 -37q-293 0 -456 224.5t-107 531.5
q57 328 280 539.5t535 211.5q289 0 446.5 -221t102.5 -540q-55 -311 -281.5 -528.5t-519.5 -217.5zM774 51q211 0 378 192.5t216 469.5q49 283 -56.5 476t-314.5 193q-223 0 -390 -186t-216 -475q-49 -272 59.5 -471t323.5 -199z" />
    <glyph glyph-name="multiply" unicode="&#xd7;" horiz-adv-x="1138" 
d="M252 289l-59 69l415 359l-305 356l84 70l303 -357l420 357l61 -70l-421 -356l307 -359l-82 -69l-307 358z" />
    <glyph glyph-name="Oslash" unicode="&#xd8;" horiz-adv-x="1525" 
d="M1364 1350q125 -102 178 -271.5t19 -369.5q-55 -311 -281.5 -528.5t-519.5 -217.5q-166 0 -303 82l-92 -133l-70 41l96 139q-123 106 -175 271t-19 356q57 328 280 539.5t535 211.5q160 0 284 -73l97 137l73 -37zM391 721q-55 -311 84 -510l752 1085q-96 86 -230 86
q-223 0 -390 -186t-216 -475zM1368 713q55 324 -84 520l-756 -1086q100 -96 246 -96q211 0 378 193t216 469z" />
    <glyph glyph-name="Ugrave" unicode="&#xd9;" horiz-adv-x="1366" 
d="M1022 1524l-186 178q-45 45 -37 88q6 29 29.5 48.5t56.5 19.5q51 0 78 -52l118 -239zM721 -37q-293 0 -404.5 165t-54.5 468l119 668q10 53 -13.5 84.5t-64.5 37.5l12 48h390l-5 -48q-43 -6 -77.5 -37.5t-47.5 -84.5l-116 -668q-49 -250 21.5 -396.5t283.5 -146.5
q221 0 331.5 143.5t151.5 399.5l113 659q8 49 -16.5 86t-67.5 45l12 48h295l-4 -48q-47 -10 -83 -44.5t-44 -86.5l-115 -661q-100 -631 -616 -631z" />
    <glyph glyph-name="Uacute" unicode="&#xda;" horiz-adv-x="1366" 
d="M995 1524l-43 45l213 237q51 51 99 52q33 0 48 -20.5t11 -47.5q-10 -45 -72 -88zM721 -37q-293 0 -404.5 165t-54.5 468l119 668q10 53 -13.5 84.5t-64.5 37.5l12 48h390l-5 -48q-43 -6 -77.5 -37.5t-47.5 -84.5l-116 -668q-49 -250 21.5 -396.5t283.5 -146.5
q221 0 331.5 143.5t151.5 399.5l113 659q8 49 -16.5 86t-67.5 45l12 48h295l-4 -48q-47 -10 -83 -44.5t-44 -86.5l-115 -661q-100 -631 -616 -631z" />
    <glyph glyph-name="Ucircumflex" unicode="&#xdb;" horiz-adv-x="1366" 
d="M707 1513l-33 58l362 256l281 -256l-51 -58l-256 144zM721 -37q-293 0 -404.5 165t-54.5 468l119 668q10 53 -13.5 84.5t-64.5 37.5l12 48h390l-5 -48q-43 -6 -77.5 -37.5t-47.5 -84.5l-116 -668q-49 -250 21.5 -396.5t283.5 -146.5q221 0 331.5 143.5t151.5 399.5
l113 659q8 49 -16.5 86t-67.5 45l12 48h295l-4 -48q-47 -10 -83 -44.5t-44 -86.5l-115 -661q-100 -631 -616 -631z" />
    <glyph glyph-name="Udieresis" unicode="&#xdc;" horiz-adv-x="1366" 
d="M837.5 1634q-49.5 0 -76 32t-16.5 75q10 47 47 79.5t86.5 32.5t76 -32.5t16.5 -79.5q-8 -43 -46 -75t-87.5 -32zM1182 1634q-49 0 -75 32t-17 75q10 47 48 79.5t87 32.5t74.5 -32.5t15.5 -79.5q-8 -43 -46 -75t-87 -32zM721 -37q-293 0 -404.5 165t-54.5 468l119 668
q10 53 -13.5 84.5t-64.5 37.5l12 48h390l-5 -48q-43 -6 -77.5 -37.5t-47.5 -84.5l-116 -668q-49 -250 21.5 -396.5t283.5 -146.5q221 0 331.5 143.5t151.5 399.5l113 659q8 49 -16.5 86t-67.5 45l12 48h295l-4 -48q-47 -10 -83 -44.5t-44 -86.5l-115 -661
q-100 -631 -616 -631z" />
    <glyph glyph-name="Yacute" unicode="&#xdd;" horiz-adv-x="1230" 
d="M891 1524l-43 45l215 237q47 51 98 52q33 0 47.5 -19.5t10.5 -48.5q-8 -43 -72 -88zM401 0l5 47q43 6 77.5 38t44.5 85l93 524l-289 570q-57 111 -144 122l13 48h420l-3 -48q-43 -8 -63 -36.5t2 -85.5l227 -445h13l387 445q41 57 30.5 85.5t-49.5 36.5l15 48h311l-6 -48
q-88 -12 -185 -122l-491 -570l-92 -524q-10 -53 14.5 -85t65.5 -38l-13 -47h-383z" />
    <glyph glyph-name="Thorn" unicode="&#xde;" horiz-adv-x="1677" 
d="M971 1141q266 0 393 -113t96 -311q-31 -197 -193.5 -310.5t-430.5 -113.5h-301l-19 -123q-8 -53 16.5 -85t65.5 -38l-12 -47h-383l4 47q41 6 75.5 38t45.5 85l172 1094q8 53 -16.5 84.5t-65.5 37.5l12 48h383l-4 -48q-43 -6 -78 -37.5t-43 -84.5l-18 -123h301zM1268 717
q27 160 -71.5 249t-299.5 89q-125 0 -244 -17l-100 -641q111 -16 238 -16q201 0 326.5 88t150.5 248z" />
    <glyph glyph-name="germandbls" unicode="&#xdf;" horiz-adv-x="1705" 
d="M1321 1022q-92 -10 -159.5 -55t-80.5 -125q-6 -37 8.5 -73t32 -56.5t52 -53t45.5 -45.5q51 -55 73.5 -83.5t46 -95t11.5 -138.5q-25 -160 -150 -247t-303 -87q-113 0 -183.5 28.5t-60.5 94.5q8 39 39 62.5t70 23.5t66.5 -19.5t40 -42t34 -42t51.5 -19.5q102 0 165 55.5
t79 151.5q-2 23 1 36t-6 34.5t-12 34t-17.5 33t-21.5 30.5t-23.5 27.5t-24 25.5t-22.5 23.5t-19 19.5q-6 8 -23.5 25.5l-27 27t-27 29t-24.5 30.5t-21.5 33.5t-17.5 37t-12 40t-6 43t3 45.5q16 100 95 165t186 77q37 53 45 113q16 104 -42.5 179t-164.5 75q-319 0 -393 -461
l-129 -809q-8 -53 16.5 -85t64.5 -38l-12 -47h-379l2 47q45 6 80 38t43 85l127 801h-235l16 100h240q55 221 199.5 342t373.5 121q176 0 285.5 -93t85.5 -249q-17 -102 -80 -170z" />
    <glyph glyph-name="agrave" unicode="&#xe0;" horiz-adv-x="1187" 
d="M496 1337q-45 45 -37 88q4 27 27.5 47.5t56.5 20.5q49 0 80 -51l118 -240l-61 -43zM1149 53q39 0 84 41l24 -39q-88 -92 -215 -92q-70 0 -115.5 48t-19.5 177l4 19h-10q-68 -111 -169 -177.5t-206 -66.5q-178 0 -283.5 112.5t-105.5 313.5q0 131 44 258t122 229.5
t195.5 166t255.5 63.5q184 0 286 -121h9l22 113h207q-63 -133 -111 -402l-84 -475q-36 -168 66 -168zM573.5 66q114.5 0 219 103t153.5 241l80 454q-39 68 -105.5 105t-138.5 37q-221 0 -349 -186.5t-128 -436.5q0 -160 77 -238.5t191.5 -78.5z" />
    <glyph glyph-name="aacute" unicode="&#xe1;" horiz-adv-x="1187" 
d="M1018 1337l-256 -178l-45 45l215 238q51 51 98 51q33 0 48.5 -20.5t8.5 -47.5q-8 -45 -69 -88zM1149 53q39 0 84 41l24 -39q-88 -92 -215 -92q-70 0 -115.5 48t-19.5 177l4 19h-10q-68 -111 -169 -177.5t-206 -66.5q-178 0 -283.5 112.5t-105.5 313.5q0 131 44 258
t122 229.5t195.5 166t255.5 63.5q184 0 286 -121h9l22 113h207q-63 -133 -111 -402l-84 -475q-36 -168 66 -168zM573.5 66q114.5 0 219 103t153.5 241l80 454q-39 68 -105.5 105t-138.5 37q-221 0 -349 -186.5t-128 -436.5q0 -160 77 -238.5t191.5 -78.5z" />
    <glyph glyph-name="acircumflex" unicode="&#xe2;" horiz-adv-x="1187" 
d="M850 1292l-303 -143l-33 57l363 256l280 -256l-51 -57zM1149 53q39 0 84 41l24 -39q-88 -92 -215 -92q-70 0 -115.5 48t-19.5 177l4 19h-10q-68 -111 -169 -177.5t-206 -66.5q-178 0 -283.5 112.5t-105.5 313.5q0 131 44 258t122 229.5t195.5 166t255.5 63.5
q184 0 286 -121h9l22 113h207q-63 -133 -111 -402l-84 -475q-36 -168 66 -168zM573.5 66q114.5 0 219 103t153.5 241l80 454q-39 68 -105.5 105t-138.5 37q-221 0 -349 -186.5t-128 -436.5q0 -160 77 -238.5t191.5 -78.5z" />
    <glyph glyph-name="atilde" unicode="&#xe3;" horiz-adv-x="1187" 
d="M696 1382q-63 0 -94 -88l-59 21q27 92 80 138t120 46q55 0 130 -58.5t112 -58.5q61 0 96 86l56 -18q-53 -186 -201 -186q-55 0 -130 59t-110 59zM1149 53q39 0 84 41l24 -39q-88 -92 -215 -92q-70 0 -115.5 48t-19.5 177l4 19h-10q-68 -111 -169 -177.5t-206 -66.5
q-178 0 -283.5 112.5t-105.5 313.5q0 131 44 258t122 229.5t195.5 166t255.5 63.5q184 0 286 -121h9l22 113h207q-63 -133 -111 -402l-84 -475q-36 -168 66 -168zM573.5 66q114.5 0 219 103t153.5 241l80 454q-39 68 -105.5 105t-138.5 37q-221 0 -349 -186.5t-128 -436.5
q0 -160 77 -238.5t191.5 -78.5z" />
    <glyph glyph-name="adieresis" unicode="&#xe4;" horiz-adv-x="1187" 
d="M659.5 1270q-49.5 0 -76 31.5t-16.5 74.5q10 47 47 80t86.5 33t76 -33t16.5 -80q-8 -43 -46 -74.5t-87.5 -31.5zM1003.5 1270q-49.5 0 -75 31.5t-17.5 74.5q10 47 48 80t87.5 33t75 -33t15.5 -80q-8 -43 -46 -74.5t-87.5 -31.5zM1149 53q39 0 84 41l24 -39
q-88 -92 -215 -92q-70 0 -115.5 48t-19.5 177l4 19h-10q-68 -111 -169 -177.5t-206 -66.5q-178 0 -283.5 112.5t-105.5 313.5q0 131 44 258t122 229.5t195.5 166t255.5 63.5q184 0 286 -121h9l22 113h207q-63 -133 -111 -402l-84 -475q-36 -168 66 -168zM573.5 66
q114.5 0 219 103t153.5 241l80 454q-39 68 -105.5 105t-138.5 37q-221 0 -349 -186.5t-128 -436.5q0 -160 77 -238.5t191.5 -78.5z" />
    <glyph glyph-name="aring" unicode="&#xe5;" horiz-adv-x="1187" 
d="M780 1174q-90 0 -143 63t-39 152q14 90 88 153.5t164 63.5t144.5 -63.5t39.5 -153.5q-14 -88 -89 -151.5t-165 -63.5zM692 1389q-10 -53 19.5 -89t83 -36t96.5 36.5t51 88.5q8 53 -22.5 90t-84 37t-94.5 -37t-49 -90zM1149 53q39 0 84 41l24 -39q-88 -92 -215 -92
q-70 0 -115.5 48t-19.5 177l4 19h-10q-68 -111 -169 -177.5t-206 -66.5q-178 0 -283.5 112.5t-105.5 313.5q0 131 44 258t122 229.5t195.5 166t255.5 63.5q184 0 286 -121h9l22 113h207q-63 -133 -111 -402l-84 -475q-36 -168 66 -168zM573.5 66q114.5 0 219 103t153.5 241
l80 454q-39 68 -105.5 105t-138.5 37q-221 0 -349 -186.5t-128 -436.5q0 -160 77 -238.5t191.5 -78.5z" />
    <glyph glyph-name="ae" unicode="&#xe6;" horiz-adv-x="1892" 
d="M1462 80q135 0 244 73.5t180 184.5l43 -21q-70 -156 -219 -255t-328 -99q-147 0 -264 75t-166 210h-10q-63 -117 -196.5 -201t-274.5 -84q-172 0 -260 73t-68 191q16 102 81 172t179.5 110t230.5 59.5t286 31.5l8 201q4 96 -51.5 156.5t-147.5 60.5q-100 0 -164.5 -45
t-77.5 -117q-20 -100 -104 -100q-41 0 -63.5 25.5t-16.5 70.5q18 96 133 176t293 80q117 0 213 -63.5t121 -174.5h6q193 238 524 238q180 0 265.5 -75t85.5 -163q0 -80 -44.5 -138t-116 -92t-178 -56.5t-214 -34.5t-240.5 -25q-37 -2 -55 -4q-20 -203 78 -321.5t288 -118.5z
M1573 1022q-176 0 -302 -118t-165 -306q82 8 138 16.5t145.5 22.5t151 32.5t122.5 44t92 60.5t31 78q0 74 -53.5 122t-159.5 48zM522 66q117 0 230.5 86t156.5 204l6 172q-123 -10 -213 -25.5t-175 -45t-135 -79.5t-62 -122q-14 -88 40 -139t152 -51z" />
    <glyph glyph-name="ccedilla" unicode="&#xe7;" horiz-adv-x="1146" 
d="M819 1106q186 0 292 -90t93 -189q-4 -43 -30.5 -73.5t-71.5 -30.5q-41 0 -64.5 24.5t-23.5 63.5q0 6 2 22.5t2 24.5q0 63 -57.5 113.5t-182.5 50.5q-150 0 -283 -146.5t-161 -340.5q-37 -229 60.5 -352.5t295.5 -123.5q115 0 229.5 84t188.5 199l43 -25
q-51 -125 -172 -225t-279 -123l-69 -108q25 12 65 12q78 0 119 -39t25 -108q-14 -78 -102.5 -137.5t-215.5 -59.5q-100 0 -156.5 35t-46.5 84q4 27 27 46t49 19q33 0 47.5 -18.5t17.5 -41t23.5 -41t65.5 -18.5q129 0 153 105q6 33 -14 55.5t-61 22.5q-57 0 -97 -33l-45 23
l121 196q-219 4 -352 149.5t-96 413.5q35 264 224 422t437 158z" />
    <glyph glyph-name="egrave" unicode="&#xe8;" horiz-adv-x="1138" 
d="M473 1337q-45 45 -37 88q16 68 86 68q51 0 78 -51l119 -240l-62 -43zM614 59q256 0 490 248l35 -35q-102 -145 -250 -227t-318 -82q-193 0 -313.5 110.5t-120.5 321.5q0 182 83 343t245 264.5t364 103.5q145 0 251 -63.5t106 -192.5q0 -102 -71 -175t-204 -116
t-273 -66.5t-329 -37.5q0 -12 -1 -34t-1 -32q0 -162 96 -246t211 -84zM803 1018q-168 0 -304.5 -137.5t-176.5 -345.5q141 10 257.5 31.5t219 57t161 94t58.5 134.5t-58.5 121t-156.5 45z" />
    <glyph glyph-name="eacute" unicode="&#xe9;" horiz-adv-x="1138" 
d="M887 1337l-256 -178l-43 45l215 238q47 51 98 51q33 0 47.5 -19.5t9.5 -48.5q-8 -43 -71 -88zM614 59q256 0 490 248l35 -35q-102 -145 -250 -227t-318 -82q-193 0 -313.5 110.5t-120.5 321.5q0 182 83 343t245 264.5t364 103.5q145 0 251 -63.5t106 -192.5
q0 -102 -71 -175t-204 -116t-273 -66.5t-329 -37.5q0 -12 -1 -34t-1 -32q0 -162 96 -246t211 -84zM803 1018q-168 0 -304.5 -137.5t-176.5 -345.5q141 10 257.5 31.5t219 57t161 94t58.5 134.5t-58.5 121t-156.5 45z" />
    <glyph glyph-name="ecircumflex" unicode="&#xea;" horiz-adv-x="1138" 
d="M795 1292l-303 -143l-33 57l362 256l281 -256l-51 -57zM614 59q256 0 490 248l35 -35q-102 -145 -250 -227t-318 -82q-193 0 -313.5 110.5t-120.5 321.5q0 182 83 343t245 264.5t364 103.5q145 0 251 -63.5t106 -192.5q0 -102 -71 -175t-204 -116t-273 -66.5t-329 -37.5
q0 -12 -1 -34t-1 -32q0 -162 96 -246t211 -84zM803 1018q-168 0 -304.5 -137.5t-176.5 -345.5q141 10 257.5 31.5t219 57t161 94t58.5 134.5t-58.5 121t-156.5 45z" />
    <glyph glyph-name="edieresis" unicode="&#xeb;" horiz-adv-x="1138" 
d="M610 1270q-47 0 -73.5 31.5t-18.5 74.5q10 47 48 80t87 33t75 -33t15 -80q-8 -43 -46 -74.5t-87 -31.5zM956.5 1270q-49.5 0 -76 31.5t-16.5 74.5q10 47 47 80t86.5 33t76 -33t16.5 -80q-8 -43 -46 -74.5t-87.5 -31.5zM614 59q256 0 490 248l35 -35q-102 -145 -250 -227
t-318 -82q-193 0 -313.5 110.5t-120.5 321.5q0 182 83 343t245 264.5t364 103.5q145 0 251 -63.5t106 -192.5q0 -102 -71 -175t-204 -116t-273 -66.5t-329 -37.5q0 -12 -1 -34t-1 -32q0 -162 96 -246t211 -84zM803 1018q-168 0 -304.5 -137.5t-176.5 -345.5
q141 10 257.5 31.5t219 57t161 94t58.5 134.5t-58.5 121t-156.5 45z" />
    <glyph glyph-name="igrave" unicode="&#xec;" horiz-adv-x="454" 
d="M406 1159l-187 178q-45 45 -35 88q4 27 28 47.5t56 20.5q49 0 80 -51l119 -240zM326 -37q-68 0 -114 48t-19 177l106 611q8 53 -18.5 84.5t-67.5 38.5l12 47q168 18 275 145l24 -8l-155 -885q-33 -168 65 -168q41 0 82 41l27 -39q-88 -92 -217 -92z" />
    <glyph glyph-name="iacute" unicode="&#xed;" horiz-adv-x="583" 
d="M346 1159l-45 45l215 238q51 51 98 51q33 0 48.5 -20.5t9.5 -47.5q-8 -45 -70 -88zM326 -37q-68 0 -114 48t-19 177l106 611q8 53 -18.5 84.5t-67.5 38.5l12 47q168 18 275 145l24 -8l-155 -885q-33 -168 65 -168q41 0 82 41l27 -39q-88 -92 -217 -92z" />
    <glyph glyph-name="icircumflex" unicode="&#xee;" horiz-adv-x="653" 
d="M133 1149l-33 57l363 256l280 -256l-51 -57l-256 143zM326 -37q-68 0 -114 48t-19 177l106 611q8 53 -18.5 84.5t-67.5 38.5l12 47q168 18 275 145l24 -8l-155 -885q-33 -168 65 -168q41 0 82 41l27 -39q-88 -92 -217 -92z" />
    <glyph glyph-name="idieresis" unicode="&#xef;" horiz-adv-x="634" 
d="M244 1270q-47 0 -74 31.5t-18 74.5q10 47 48 80t87 33t74.5 -33t15.5 -80q-8 -43 -46 -74.5t-87 -31.5zM590 1270q-49 0 -76 31.5t-16 74.5q10 47 47 80t86 33t75.5 -33t16.5 -80q-8 -43 -46 -74.5t-87 -31.5zM326 -37q-68 0 -114 48t-19 177l106 611q8 53 -18.5 84.5
t-67.5 38.5l12 47q168 18 275 145l24 -8l-155 -885q-33 -168 65 -168q41 0 82 41l27 -39q-88 -92 -217 -92z" />
    <glyph glyph-name="eth" unicode="&#xf0;" horiz-adv-x="1191" 
d="M575 -35q-252 0 -380.5 162t-90.5 410q39 244 215.5 407.5t413.5 163.5q176 0 291 -115l8 4q-8 223 -67 367l-312 -113l-16 68l303 113q-33 76 -88 155l78 49q66 -63 135 -159l293 106l16 -65l-268 -103q172 -297 98 -745q-51 -336 -216 -520.5t-413 -184.5zM590 53
q328 0 418 588q16 92 22 217q-104 162 -297 162q-182 0 -296.5 -133t-151.5 -359q-33 -211 43 -343t262 -132z" />
    <glyph glyph-name="ntilde" unicode="&#xf1;" horiz-adv-x="1224" 
d="M743 1382q-63 0 -94 -88l-59 21q27 92 80 138t121 46q55 0 129.5 -58.5t111.5 -58.5q61 0 96 86l56 -18q-53 -186 -201 -186q-55 0 -130 59t-110 59zM1278 94l25 -39q-96 -92 -224 -92q-68 0 -110.5 48t-10.5 177l107 459q41 164 -11.5 261.5t-185.5 97.5
q-135 0 -267 -147.5t-169 -356.5q-27 -158 -39 -284t-10 -173l2 -47h-203l135 801q10 53 -16.5 84.5t-67.5 38.5l13 47q168 20 274 145l25 -8l-47 -250h16q168 250 414 250q190 0 273 -123t34 -342l-100 -420q-23 -61 -9.5 -114.5t68.5 -53.5q39 0 84 41z" />
    <glyph glyph-name="ograve" unicode="&#xf2;" horiz-adv-x="1224" 
d="M688 1159l-184 178q-45 45 -37 88q16 68 86 68q51 0 78 -51l119 -240zM614 -37q-248 0 -379 170t-90 416q41 240 221.5 398.5t417.5 158.5q242 0 371 -166t88 -416q-41 -244 -217 -402.5t-412 -158.5zM635 51q160 0 282.5 134t153.5 339q33 211 -54 352.5t-253 141.5
q-162 0 -289 -134t-158 -337q-31 -207 58.5 -351.5t259.5 -144.5z" />
    <glyph glyph-name="oacute" unicode="&#xf3;" horiz-adv-x="1224" 
d="M707 1159l-43 45l215 238q47 51 98 51q33 0 47 -19.5t10 -48.5q-8 -43 -71 -88zM614 -37q-248 0 -379 170t-90 416q41 240 221.5 398.5t417.5 158.5q242 0 371 -166t88 -416q-41 -244 -217 -402.5t-412 -158.5zM635 51q160 0 282.5 134t153.5 339q33 211 -54 352.5
t-253 141.5q-162 0 -289 -134t-158 -337q-31 -207 58.5 -351.5t259.5 -144.5z" />
    <glyph glyph-name="ocircumflex" unicode="&#xf4;" horiz-adv-x="1224" 
d="M502 1149l-33 57l362 256l281 -256l-51 -57l-256 143zM614 -37q-248 0 -379 170t-90 416q41 240 221.5 398.5t417.5 158.5q242 0 371 -166t88 -416q-41 -244 -217 -402.5t-412 -158.5zM635 51q160 0 282.5 134t153.5 339q33 211 -54 352.5t-253 141.5q-162 0 -289 -134
t-158 -337q-31 -207 58.5 -351.5t259.5 -144.5z" />
    <glyph glyph-name="otilde" unicode="&#xf5;" horiz-adv-x="1224" 
d="M946 1264q-55 0 -130 59t-109 59q-63 0 -95 -88l-59 21q27 92 80 138t121 46q55 0 129.5 -58.5t111.5 -58.5q61 0 97 86l55 -18q-54 -186 -201 -186zM614 -37q-248 0 -379 170t-90 416q41 240 221.5 398.5t417.5 158.5q242 0 371 -166t88 -416q-41 -244 -217 -402.5
t-412 -158.5zM635 51q160 0 282.5 134t153.5 339q33 211 -54 352.5t-253 141.5q-162 0 -289 -134t-158 -337q-31 -207 58.5 -351.5t259.5 -144.5z" />
    <glyph glyph-name="odieresis" unicode="&#xf6;" horiz-adv-x="1224" 
d="M645 1270q-47 0 -73.5 31.5t-18.5 74.5q10 47 48 80t87 33t74.5 -33t15.5 -80q-8 -43 -46 -74.5t-87 -31.5zM991 1270q-49 0 -75.5 31.5t-16.5 74.5q10 47 47 80t86 33t76 -33t16 -80q-8 -43 -46 -74.5t-87 -31.5zM614 -37q-248 0 -379 170t-90 416q41 240 221.5 398.5
t417.5 158.5q242 0 371 -166t88 -416q-41 -244 -217 -402.5t-412 -158.5zM635 51q160 0 282.5 134t153.5 339q33 211 -54 352.5t-253 141.5q-162 0 -289 -134t-158 -337q-31 -207 58.5 -351.5t259.5 -144.5z" />
    <glyph glyph-name="divide" unicode="&#xf7;" horiz-adv-x="1146" 
d="M723 952q-55 0 -85 34t-22 89q8 51 49.5 85t96.5 34t85 -34t19 -85q-8 -53 -48 -88t-95 -35zM127 668l14 100h1106l-14 -100h-1106zM608 240q-55 0 -84.5 33.5t-19.5 86.5q8 53 48 88t95 35t85 -34.5t21.5 -88t-48.5 -87t-97 -33.5z" />
    <glyph glyph-name="oslash" unicode="&#xf8;" horiz-adv-x="1224" 
d="M1075 1016q102 -78 147.5 -206t20.5 -284q-37 -246 -210 -404.5t-410 -158.5q-133 0 -240 55l-74 -108l-71 43l75 108q-102 80 -146 209t-22 281q37 240 215.5 398.5t415.5 158.5q127 0 230 -51l75 108l70 -41zM319 582q-39 -244 78 -402l539 778q-80 61 -188 62
q-156 0 -278 -124t-151 -314zM1069 492q39 250 -74 407l-540 -780q84 -68 200 -68q150 0 267.5 125.5t146.5 315.5z" />
    <glyph glyph-name="ugrave" unicode="&#xf9;" 
d="M561 1337q-45 45 -37 88q4 27 27.5 47.5t56.5 20.5q49 0 80 -51l119 -240l-62 -43zM1255 94l27 -39q-88 -92 -217 -92q-70 0 -115 48t-18 177l4 25h-14q-166 -250 -408 -250q-203 0 -280.5 120t-12.5 345l123 418q51 170 -49 170q-37 0 -88 -43l-25 39q100 94 217 94
q72 0 116 -50t5 -179l-129 -457q-53 -170 -6 -263.5t188 -93.5q133 0 259 146.5t163 357.5q29 158 40.5 283t8.5 170l-2 47h205l-139 -846q-37 -168 66 -168q40 0 81 41z" />
    <glyph glyph-name="uacute" unicode="&#xfa;" 
d="M977 1337l-256 -178l-43 45l215 238q51 51 98 51q33 0 48.5 -20.5t9.5 -47.5q-9 -47 -72 -88zM1255 94l27 -39q-88 -92 -217 -92q-70 0 -115 48t-18 177l4 25h-14q-166 -250 -408 -250q-203 0 -280.5 120t-12.5 345l123 418q51 170 -49 170q-37 0 -88 -43l-25 39
q100 94 217 94q72 0 116 -50t5 -179l-129 -457q-53 -170 -6 -263.5t188 -93.5q133 0 259 146.5t163 357.5q29 158 40.5 283t8.5 170l-2 47h205l-139 -846q-37 -168 66 -168q40 0 81 41z" />
    <glyph glyph-name="ucircumflex" unicode="&#xfb;" 
d="M860 1292l-303 -143l-33 57l363 256l280 -256l-51 -57zM1255 94l27 -39q-88 -92 -217 -92q-70 0 -115 48t-18 177l4 25h-14q-166 -250 -408 -250q-203 0 -280.5 120t-12.5 345l123 418q51 170 -49 170q-37 0 -88 -43l-25 39q100 94 217 94q72 0 116 -50t5 -179l-129 -457
q-53 -170 -6 -263.5t188 -93.5q133 0 259 146.5t163 357.5q29 158 40.5 283t8.5 170l-2 47h205l-139 -846q-37 -168 66 -168q40 0 81 41z" />
    <glyph glyph-name="udieresis" unicode="&#xfc;" 
d="M666 1270q-47 0 -74 31.5t-19 74.5q10 47 47 80t86.5 33t76 -33t16.5 -80q-8 -43 -46 -74.5t-87 -31.5zM1010 1270q-49 0 -75 31.5t-17 74.5q10 47 48 80t87 33t74.5 -33t15.5 -80q-8 -43 -46 -74.5t-87 -31.5zM1255 94l27 -39q-88 -92 -217 -92q-70 0 -115 48t-18 177
l4 25h-14q-166 -250 -408 -250q-203 0 -280.5 120t-12.5 345l123 418q51 170 -49 170q-37 0 -88 -43l-25 39q100 94 217 94q72 0 116 -50t5 -179l-129 -457q-53 -170 -6 -263.5t188 -93.5q133 0 259 146.5t163 357.5q29 158 40.5 283t8.5 170l-2 47h205l-139 -846
q-37 -168 66 -168q40 0 81 41z" />
    <glyph glyph-name="yacute" unicode="&#xfd;" horiz-adv-x="1241" 
d="M1063 1337l-256 -178l-45 45l215 238q51 51 98 51q33 0 48.5 -20.5t9.5 -47.5q-9 -45 -70 -88zM1116 1106q66 0 98.5 -46t28.5 -110q-16 -152 -141 -422t-240 -454q-10 -18 -37.5 -60.5t-29.5 -44.5q-127 -207 -245 -316.5t-247 -109.5q-63 0 -104 35t-39 84t36.5 79
t79.5 30q39 0 80 -28t58 -28q86 0 143 55.5t150 202.5q-43 291 -91.5 494t-102.5 315.5t-110.5 161.5t-121.5 49q-72 0 -119 -45l-33 37q84 111 229 111q362 0 480 -893h12q215 356 237 567q4 41 -20.5 76t-50 72.5t-21.5 87.5q4 47 39 73.5t82 26.5z" />
    <glyph glyph-name="thorn" unicode="&#xfe;" horiz-adv-x="1445" 
d="M860 1108q221 0 343 -167t83 -415q-41 -244 -204.5 -403.5t-381.5 -159.5q-231 0 -346 195h-8l-63 -406q-8 -53 16.5 -85t65.5 -38l-13 -47h-362l2 47q43 6 77.5 38t43.5 85l239 1512q8 53 -16.5 84.5t-65.5 37.5l13 48q145 25 301 129l18 -11q-47 -102 -92 -362
l-39 -250h8q168 168 381 168zM1110 461q35 223 -49 389t-258 166q-141 0 -246.5 -112.5t-134.5 -291.5q-35 -219 47 -388t260 -169q135 0 244.5 116t136.5 290z" />
    <glyph glyph-name="ydieresis" unicode="&#xff;" horiz-adv-x="1241" 
d="M686 1270q-49 0 -75.5 31.5t-18.5 74.5q10 47 49 80t86 33q49 0 75.5 -33t16.5 -80q-10 -43 -47 -74.5t-86 -31.5zM1030 1270q-49 0 -74.5 31.5t-17.5 74.5q10 47 47 80t86 33t76 -33t16 -80q-8 -43 -46 -74.5t-87 -31.5zM1116 1106q66 0 98.5 -46t28.5 -110
q-16 -152 -141 -422t-240 -454q-10 -18 -37.5 -60.5t-29.5 -44.5q-127 -207 -245 -316.5t-247 -109.5q-63 0 -104 35t-39 84t36.5 79t79.5 30q39 0 80 -28t58 -28q86 0 143 55.5t150 202.5q-43 291 -91.5 494t-102.5 315.5t-110.5 161.5t-121.5 49q-72 0 -119 -45l-33 37
q84 111 229 111q362 0 480 -893h12q215 356 237 567q4 41 -20.5 76t-50 72.5t-21.5 87.5q4 47 39 73.5t82 26.5z" />
    <glyph glyph-name="Amacron" unicode="&#x100;" horiz-adv-x="1265" 
d="M1137 1776l-23 -109h-536l22 109h537zM1161 168q23 -104 119 -123l-12 -45h-385l4 45q37 8 62.5 39t15.5 84l-47 248h-558l-135 -248q-25 -61 -12.5 -88t47.5 -35l-12 -45h-285l4 45q104 18 160 123l592 1087q-33 25 -82 35l10 47q139 59 248 127h14zM422 530h473
l-121 625q0 4 -2 6h-6z" />
    <glyph glyph-name="amacron" unicode="&#x101;" horiz-adv-x="1187" 
d="M1092 1411l-21 -108h-536l22 108h535zM1149 53q39 0 84 41l24 -39q-88 -92 -215 -92q-70 0 -115.5 48t-19.5 177l4 19h-10q-68 -111 -169 -177.5t-206 -66.5q-178 0 -283.5 112.5t-105.5 313.5q0 131 44 258t122 229.5t195.5 166t255.5 63.5q184 0 286 -121h9l22 113h207
q-63 -133 -111 -402l-84 -475q-36 -168 66 -168zM573.5 66q114.5 0 219 103t153.5 241l80 454q-39 68 -105.5 105t-138.5 37q-221 0 -349 -186.5t-128 -436.5q0 -160 77 -238.5t191.5 -78.5z" />
    <glyph glyph-name="Abreve" unicode="&#x102;" horiz-adv-x="1265" 
d="M840 1587q-113 0 -173.5 58.5t-72.5 142.5l72 31q14 -47 66 -84t124 -37q70 0 136.5 37t94.5 84l66 -31q-104 -201 -313 -201zM1161 168q23 -104 119 -123l-12 -45h-385l4 45q37 8 62.5 39t15.5 84l-47 248h-558l-135 -248q-25 -61 -12.5 -88t47.5 -35l-12 -45h-285l4 45
q104 18 160 123l592 1087q-33 25 -82 35l10 47q139 59 248 127h14zM422 530h473l-121 625q0 4 -2 6h-6z" />
    <glyph glyph-name="abreve" unicode="&#x103;" horiz-adv-x="1187" 
d="M774 1223q-113 0 -173 58t-73 142l72 31q14 -47 66.5 -84t126.5 -37q68 0 134 37t97 84l63 -31q-104 -200 -313 -200zM1149 53q39 0 84 41l24 -39q-88 -92 -215 -92q-70 0 -115.5 48t-19.5 177l4 19h-10q-68 -111 -169 -177.5t-206 -66.5q-178 0 -283.5 112.5
t-105.5 313.5q0 131 44 258t122 229.5t195.5 166t255.5 63.5q184 0 286 -121h9l22 113h207q-63 -133 -111 -402l-84 -475q-36 -168 66 -168zM573.5 66q114.5 0 219 103t153.5 241l80 454q-39 68 -105.5 105t-138.5 37q-221 0 -349 -186.5t-128 -436.5q0 -160 77 -238.5
t191.5 -78.5z" />
    <glyph glyph-name="Aogonek" unicode="&#x104;" horiz-adv-x="1265" 
d="M1055 -344q98 0 166 98l59 -33q-104 -156 -283 -155q-98 0 -155.5 53t-42.5 143q20 137 186 238h-102l4 45q37 8 62.5 39t15.5 84l-47 248h-558l-135 -248q-25 -61 -12.5 -88t47.5 -35l-12 -45h-285l4 45q104 18 160 123l592 1087q-33 25 -82 35l10 47q139 59 248 127h14
l252 -1296q23 -104 119 -123l-12 -45h-150q-74 -35 -122 -89t-56 -116q-10 -61 25 -100t90 -39zM422 530h473l-121 625q0 4 -2 6h-6z" />
    <glyph glyph-name="aogonek" unicode="&#x105;" horiz-adv-x="1187" 
d="M1047 -344q98 0 165 98l60 -33q-104 -156 -283 -155q-98 0 -155.5 53t-42.5 143q18 129 163 224q-76 53 -47 202l4 19h-10q-68 -111 -169 -177.5t-206 -66.5q-178 0 -283.5 112.5t-105.5 313.5q0 131 44 258t122 229.5t195.5 166t255.5 63.5q184 0 286 -121h9l22 113h207
q-63 -133 -111 -402l-84 -475q-37 -168 66 -168q39 0 84 41l24 -39q-86 -88 -210 -92q-98 -70 -115 -168q-10 -61 25 -100t90 -39zM573.5 66q114.5 0 219 103t153.5 241l80 454q-39 68 -105.5 105t-138.5 37q-221 0 -349 -186.5t-128 -436.5q0 -160 77 -238.5t191.5 -78.5z
" />
    <glyph glyph-name="Cacute" unicode="&#x106;" horiz-adv-x="1404" 
d="M858 1524l-43 45l215 237q51 51 98 52q33 0 48.5 -20.5t9.5 -47.5q-8 -47 -72 -88zM727 -37q-201 0 -335 105.5t-182 280.5t-9 390q55 309 278 520t533 211q201 0 319.5 -97t98.5 -220q-8 -49 -41 -87t-78 -38q-57 0 -79 37t-24 88t-10 103.5t-61.5 89t-155.5 36.5
q-86 0 -175 -42t-169 -119.5t-141.5 -203.5t-87.5 -280q-61 -338 50 -512t330 -174q281 0 484 355l61 -41q-86 -178 -236.5 -290t-369.5 -112z" />
    <glyph glyph-name="cacute" unicode="&#x107;" horiz-adv-x="1146" 
d="M700 1159l-43 45l215 238q51 51 99 51q33 0 48 -20.5t9 -47.5q-8 -47 -72 -88zM608 -37q-223 0 -361 145.5t-102 417.5q35 264 225.5 422t436.5 158q186 0 291.5 -90t93.5 -189q-4 -43 -30.5 -73.5t-69.5 -30.5t-67 24.5t-24 63.5q0 6 3.5 22.5t3.5 24.5
q0 63 -57.5 113.5t-184.5 50.5q-150 0 -283 -146.5t-159 -340.5q-37 -231 59 -353.5t295 -122.5q115 0 229.5 84t190.5 199l41 -25q-59 -143 -202 -248.5t-329 -105.5z" />
    <glyph glyph-name="Ccircumflex" unicode="&#x108;" horiz-adv-x="1404" 
d="M682 1513l-33 58l363 256l280 -256l-49 -58l-258 144zM727 -37q-201 0 -335 105.5t-182 280.5t-9 390q55 309 278 520t533 211q201 0 319.5 -97t98.5 -220q-8 -49 -41 -87t-78 -38q-57 0 -79 37t-24 88t-10 103.5t-61.5 89t-155.5 36.5q-86 0 -175 -42t-169 -119.5
t-141.5 -203.5t-87.5 -280q-61 -338 50 -512t330 -174q281 0 484 355l61 -41q-86 -178 -236.5 -290t-369.5 -112z" />
    <glyph glyph-name="ccircumflex" unicode="&#x109;" horiz-adv-x="1146" 
d="M500 1149l-33 57l362 256l281 -256l-51 -57l-256 143zM608 -37q-223 0 -361 145.5t-102 417.5q35 264 225.5 422t436.5 158q186 0 291.5 -90t93.5 -189q-4 -43 -30.5 -73.5t-69.5 -30.5t-67 24.5t-24 63.5q0 6 3.5 22.5t3.5 24.5q0 63 -57.5 113.5t-184.5 50.5
q-150 0 -283 -146.5t-159 -340.5q-37 -231 59 -353.5t295 -122.5q115 0 229.5 84t190.5 199l41 -25q-59 -143 -202 -248.5t-329 -105.5z" />
    <glyph glyph-name="Cdotaccent" unicode="&#x10a;" horiz-adv-x="1404" 
d="M975 1645q-49 0 -76 31.5t-18 74.5q6 47 41.5 79t85 32t77 -32t19.5 -79q-6 -45 -43 -75.5t-86 -30.5zM727 -37q-201 0 -335 105.5t-182 280.5t-9 390q55 309 278 520t533 211q201 0 319.5 -97t98.5 -220q-8 -49 -41 -87t-78 -38q-57 0 -79 37t-24 88t-10 103.5t-61.5 89
t-155.5 36.5q-86 0 -175 -42t-169 -119.5t-141.5 -203.5t-87.5 -280q-61 -338 50 -512t330 -174q281 0 484 355l61 -41q-86 -178 -236.5 -290t-369.5 -112z" />
    <glyph glyph-name="cdotaccent" unicode="&#x10b;" horiz-adv-x="1146" 
d="M803 1280q-47 0 -74 30.5t-20 75.5q8 47 43.5 79t85 32t76 -31.5t20.5 -79.5q-8 -45 -44 -75.5t-87 -30.5zM608 -37q-223 0 -361 145.5t-102 417.5q35 264 225.5 422t436.5 158q186 0 291.5 -90t93.5 -189q-4 -43 -30.5 -73.5t-69.5 -30.5t-67 24.5t-24 63.5
q0 6 3.5 22.5t3.5 24.5q0 63 -57.5 113.5t-184.5 50.5q-150 0 -283 -146.5t-159 -340.5q-37 -231 59 -353.5t295 -122.5q115 0 229.5 84t190.5 199l41 -25q-59 -143 -202 -248.5t-329 -105.5z" />
    <glyph glyph-name="Ccaron" unicode="&#x10c;" horiz-adv-x="1404" 
d="M967 1530l-281 256l51 57l256 -143l303 143l33 -57zM727 -37q-201 0 -335 105.5t-182 280.5t-9 390q55 309 278 520t533 211q201 0 319.5 -97t98.5 -220q-8 -49 -41 -87t-78 -38q-57 0 -79 37t-24 88t-10 103.5t-61.5 89t-155.5 36.5q-86 0 -175 -42t-169 -119.5
t-141.5 -203.5t-87.5 -280q-61 -338 50 -512t330 -174q281 0 484 355l61 -41q-86 -178 -236.5 -290t-369.5 -112z" />
    <glyph glyph-name="ccaron" unicode="&#x10d;" horiz-adv-x="1146" 
d="M756 1165l-281 256l51 58l256 -144l303 144l33 -58zM608 -37q-223 0 -361 145.5t-102 417.5q35 264 225.5 422t436.5 158q186 0 291.5 -90t93.5 -189q-4 -43 -30.5 -73.5t-69.5 -30.5t-67 24.5t-24 63.5q0 6 3.5 22.5t3.5 24.5q0 63 -57.5 113.5t-184.5 50.5
q-150 0 -283 -146.5t-159 -340.5q-37 -231 59 -353.5t295 -122.5q115 0 229.5 84t190.5 199l41 -25q-59 -143 -202 -248.5t-329 -105.5z" />
    <glyph glyph-name="Dcaron" unicode="&#x10e;" horiz-adv-x="1421" 
d="M1208 1786l-362 -256l-281 256l49 57l258 -143l304 143zM831 1434q324 0 505.5 -212t123.5 -532q-55 -311 -276 -500.5t-522 -189.5h-613l4 45q45 8 80 40t43 85l193 1094q18 102 -80 122l12 48h530zM1266 651q51 307 -77 501t-405 194q-123 0 -211 -11l-217 -1212
q143 -33 306 -33q242 0 401.5 166t202.5 395z" />
    <glyph glyph-name="dcaron" unicode="&#x10f;" horiz-adv-x="1521" 
d="M1331 1559l-237 -1338q-33 -168 67 -168q41 0 82 41l25 -39q-86 -92 -215 -92q-70 0 -115 48t-18 177l2 15h-9q-70 -109 -170 -174.5t-206 -65.5q-178 0 -284 112.5t-106 313.5q0 178 72 339t218.5 269.5t332.5 108.5q168 0 281 -113h10l45 256q10 53 -16.5 86t-69.5 39
l12 47q170 18 277 144zM1645 1470q66 0 95 -50t13 -124q-23 -115 -113 -249t-210 -213l-54 65q70 45 141.5 133t104.5 182l-4 5q-20 -4 -33 -5q-53 0 -84 36t-20 93q12 55 59.5 91t104.5 36zM583.5 66q114.5 0 221 103t153.5 241l80 456q-39 68 -105.5 104t-135.5 36
q-154 0 -266.5 -93.5t-164 -231.5t-51.5 -298t77 -238.5t191.5 -78.5z" />
    <glyph glyph-name="Dcroat" unicode="&#x110;" horiz-adv-x="1421" 
d="M823 1434q322 0 506 -212t133 -532q-49 -311 -266 -500.5t-518 -189.5h-612l4 47q41 6 75.5 38t44.5 85l78 500h-270l16 94h271l77 500q8 53 -16 84.5t-65 37.5l12 48h530zM1268 653q49 305 -83 500t-411 195q-123 0 -211 -11l-90 -573h275l-15 -94h-274l-86 -545
q143 -33 303 -33q244 0 400.5 166t191.5 395z" />
    <glyph glyph-name="dcroat" unicode="&#x111;" horiz-adv-x="1245" 
d="M1266 1192l-172 -971q-33 -168 67 -168q41 0 82 41l25 -39q-86 -92 -215 -92q-70 0 -115 48t-18 177l2 15h-7q-70 -109 -169 -174.5t-205 -65.5q-180 0 -284.5 112.5t-104.5 313.5q0 178 71.5 339t217 269.5t331.5 108.5q172 0 281 -113h8l35 199h-338l14 80h336
q2 86 -88 102l12 47q170 18 277 144l22 -6l-51 -287h227l-12 -80h-229zM585.5 66q114.5 0 218 99t152.5 232l82 473q-39 63 -105.5 99.5t-133.5 36.5q-152 0 -264.5 -93.5t-164 -232.5t-51.5 -297q0 -160 76 -238.5t190.5 -78.5z" />
    <glyph glyph-name="Emacron" unicode="&#x112;" horiz-adv-x="1261" 
d="M1141 1776l-21 -109h-536l20 109h537zM846 1343q-145 0 -277 -20l-84 -471l7 -4q76 55 149 55q84 0 215 -67.5t188 -67.5q59 0 95.5 18.5t85.5 63.5l30 -35q-125 -172 -268 -172q-80 0 -211 67.5t-203 67.5q-55 0 -106 -35l-113 -630q172 -23 353 -23q104 0 195 23.5
t146.5 56.5t96.5 65.5t59 55.5l17 24l51 -20l-127 -326h-17q-68 31 -260 31h-819l4 45q45 8 80 40t43 85l193 1094q18 102 -80 122l12 48h973l69 -258l-57 -19q-2 8 -9 20.5t-39 44t-76 56.5t-128 45t-188 20z" />
    <glyph glyph-name="emacron" unicode="&#x113;" horiz-adv-x="1146" 
d="M1065 1411l-21 -108h-536l22 108h535zM614 59q256 0 490 248l35 -35q-102 -145 -250 -227t-318 -82q-193 0 -313.5 110.5t-120.5 321.5q0 182 83 343t245 264.5t364 103.5q145 0 251 -63.5t106 -192.5q0 -102 -71 -175t-204 -116t-273 -66.5t-329 -37.5q0 -12 -1 -34
t-1 -32q0 -162 96 -246t211 -84zM803 1018q-168 0 -304.5 -137.5t-176.5 -345.5q141 10 257.5 31.5t219 57t161 94t58.5 134.5t-58.5 121t-156.5 45z" />
    <glyph glyph-name="Ebreve" unicode="&#x114;" horiz-adv-x="1261" 
d="M852 1587q-113 0 -173.5 58.5t-72.5 142.5l72 31q14 -47 66.5 -84t123.5 -37q70 0 136.5 37t95.5 84l65 -31q-104 -201 -313 -201zM846 1343q-145 0 -277 -20l-84 -471l7 -4q76 55 149 55q84 0 215 -67.5t188 -67.5q59 0 95.5 18.5t85.5 63.5l30 -35q-125 -172 -268 -172
q-80 0 -211 67.5t-203 67.5q-55 0 -106 -35l-113 -630q172 -23 353 -23q104 0 195 23.5t146.5 56.5t96.5 65.5t59 55.5l17 24l51 -20l-127 -326h-17q-68 31 -260 31h-819l4 45q45 8 80 40t43 85l193 1094q18 102 -80 122l12 48h973l69 -258l-57 -19q-2 8 -9 20.5t-39 44
t-76 56.5t-128 45t-188 20z" />
    <glyph glyph-name="ebreve" unicode="&#x115;" horiz-adv-x="1146" 
d="M758 1223q-113 0 -173.5 58t-72.5 142l72 31q14 -47 67.5 -84t124.5 -37q70 0 136.5 38t95.5 83l63 -31q-104 -200 -313 -200zM614 59q256 0 490 248l35 -35q-102 -145 -250 -227t-318 -82q-193 0 -313.5 110.5t-120.5 321.5q0 182 83 343t245 264.5t364 103.5
q145 0 251 -63.5t106 -192.5q0 -102 -71 -175t-204 -116t-273 -66.5t-329 -37.5q0 -12 -1 -34t-1 -32q0 -162 96 -246t211 -84zM803 1018q-168 0 -304.5 -137.5t-176.5 -345.5q141 10 257.5 31.5t219 57t161 94t58.5 134.5t-58.5 121t-156.5 45z" />
    <glyph glyph-name="Edotaccent" unicode="&#x116;" horiz-adv-x="1261" 
d="M846 1645q-47 0 -74 30.5t-20 75.5q8 47 43.5 79t85 32t76 -32t20.5 -79q-8 -45 -45 -75.5t-86 -30.5zM846 1343q-145 0 -277 -20l-84 -471l7 -4q76 55 149 55q84 0 215 -67.5t188 -67.5q59 0 95.5 18.5t85.5 63.5l30 -35q-125 -172 -268 -172q-80 0 -211 67.5t-203 67.5
q-55 0 -106 -35l-113 -630q172 -23 353 -23q104 0 195 23.5t146.5 56.5t96.5 65.5t59 55.5l17 24l51 -20l-127 -326h-17q-68 31 -260 31h-819l4 45q45 8 80 40t43 85l193 1094q18 102 -80 122l12 48h973l69 -258l-57 -19q-2 8 -9 20.5t-39 44t-76 56.5t-128 45t-188 20z" />
    <glyph glyph-name="edotaccent" unicode="&#x117;" horiz-adv-x="1146" 
d="M803 1280q-49 0 -76 31.5t-18 74.5q6 47 41.5 79t85 32t77 -31.5t19.5 -79.5q-6 -45 -43 -75.5t-86 -30.5zM614 59q256 0 490 248l35 -35q-102 -145 -250 -227t-318 -82q-193 0 -313.5 110.5t-120.5 321.5q0 182 83 343t245 264.5t364 103.5q145 0 251 -63.5t106 -192.5
q0 -102 -71 -175t-204 -116t-273 -66.5t-329 -37.5q0 -12 -1 -34t-1 -32q0 -162 96 -246t211 -84zM803 1018q-168 0 -304.5 -137.5t-176.5 -345.5q141 10 257.5 31.5t219 57t161 94t58.5 134.5t-58.5 121t-156.5 45z" />
    <glyph glyph-name="Eogonek" unicode="&#x118;" horiz-adv-x="1261" 
d="M1094 -344q98 0 166 98l59 -33q-104 -156 -283 -155q-98 0 -155.5 53t-42.5 143q20 137 186 238h-975l4 45q45 8 80 40t43 85l193 1094q18 102 -80 122l12 48h973l69 -258l-57 -19q-2 8 -9 20.5t-39 44t-76 56.5t-128 45t-188 20q-145 0 -277 -20l-84 -471l7 -4
q76 55 149 55q84 0 215 -67.5t188 -67.5q59 0 95.5 18.5t85.5 63.5l30 -35q-125 -172 -268 -172q-80 0 -211 67.5t-203 67.5q-55 0 -106 -35l-113 -630q172 -23 353 -23q104 0 195 23.5t146.5 56.5t96.5 65.5t59 55.5l17 24l51 -20l-115 -295q-74 -35 -122 -89t-56 -115.5
t26 -100.5t89 -39z" />
    <glyph glyph-name="eogonek" unicode="&#x119;" horiz-adv-x="1146" 
d="M614 59q256 0 490 248l35 -35q-186 -268 -488 -305q-104 -70 -123 -172q-8 -61 27 -100t90 -39q98 0 166 98l57 -33q-104 -156 -280 -155q-100 0 -156.5 53t-42.5 143q14 113 133 203q-174 14 -279.5 124t-105.5 306q0 182 83 343t245 264.5t364 103.5q145 0 251 -63.5
t106 -192.5q0 -102 -71 -175t-204 -116t-273 -66.5t-329 -37.5q0 -12 -1 -34t-1 -32q0 -162 96 -246t211 -84zM803 1018q-168 0 -304.5 -137.5t-176.5 -345.5q141 10 257.5 31.5t219 57t161 94t58.5 134.5t-58.5 121t-156.5 45z" />
    <glyph glyph-name="Ecaron" unicode="&#x11a;" horiz-adv-x="1261" 
d="M1202 1786l-362 -256l-281 256l49 57l258 -143l303 143zM846 1343q-145 0 -277 -20l-84 -471l7 -4q76 55 149 55q84 0 215 -67.5t188 -67.5q59 0 95.5 18.5t85.5 63.5l30 -35q-125 -172 -268 -172q-80 0 -211 67.5t-203 67.5q-55 0 -106 -35l-113 -630q172 -23 353 -23
q104 0 195 23.5t146.5 56.5t96.5 65.5t59 55.5l17 24l51 -20l-127 -326h-17q-68 31 -260 31h-819l4 45q45 8 80 40t43 85l193 1094q18 102 -80 122l12 48h973l69 -258l-57 -19q-2 8 -9 20.5t-39 44t-76 56.5t-128 45t-188 20z" />
    <glyph glyph-name="ecaron" unicode="&#x11b;" horiz-adv-x="1146" 
d="M1090 1421l-363 -256l-281 256l52 58l258 -144l303 144zM614 59q256 0 490 248l35 -35q-102 -145 -250 -227t-318 -82q-193 0 -313.5 110.5t-120.5 321.5q0 182 83 343t245 264.5t364 103.5q145 0 251 -63.5t106 -192.5q0 -102 -71 -175t-204 -116t-273 -66.5t-329 -37.5
q0 -12 -1 -34t-1 -32q0 -162 96 -246t211 -84zM803 1018q-168 0 -304.5 -137.5t-176.5 -345.5q141 10 257.5 31.5t219 57t161 94t58.5 134.5t-58.5 121t-156.5 45z" />
    <glyph glyph-name="Gcircumflex" unicode="&#x11c;" horiz-adv-x="1419" 
d="M981 1657l-303 -144l-33 58l363 256l280 -256l-51 -58zM1100 725h395l-4 -47q-43 -6 -78 -38t-45 -87l-98 -553h-72l-31 152h-6q-168 -188 -436 -189q-299 0 -441.5 224.5t-82.5 551.5q55 309 278 520t533 211q201 0 319.5 -97t98.5 -220q-8 -49 -41 -87t-78 -38
q-57 0 -79 37t-24 88t-10 103.5t-61.5 89t-155.5 36.5q-184 0 -354 -172t-221 -473q-59 -336 53 -511t325 -175q199 0 340 189l58 313q16 104 -95 125z" />
    <glyph glyph-name="gcircumflex" unicode="&#x11d;" horiz-adv-x="1339" 
d="M727 1292l-305 -143l-31 57l363 256l280 -256l-51 -57zM1225 1221q57 0 95 -30t38 -79q0 -39 -23.5 -65.5t-70.5 -26.5q-35 0 -76 31.5t-70 31.5q-47 0 -88 -63q147 -121 109 -342q-35 -190 -178.5 -301t-344.5 -111q-172 0 -282 82q-113 0 -127 -80q-12 -68 76 -104.5
t364 -77.5q252 -39 346 -107.5t88 -168.5q-6 -125 -152.5 -195t-361.5 -70q-61 0 -127.5 6.5t-150.5 28t-146.5 55t-101.5 96t-29 142.5q8 66 53.5 114t108.5 64v8q-113 70 -90 193q12 66 64.5 106.5t119.5 49.5v6q-84 115 -53 284q31 186 180.5 297t352.5 111
q131 0 223 -49q109 164 254 164zM985 680q25 158 -49 249t-209 91q-133 0 -233.5 -88t-124.5 -236q-27 -156 48 -251t214 -95q133 0 231 89t123 241zM291 8q-57 -12 -93 -51t-44 -88q-10 -63 32.5 -112.5t115.5 -76t144.5 -40t133.5 -13.5q158 2 259 48t101 110
q0 57 -67.5 89t-276.5 65q-190 30 -305 69z" />
    <glyph glyph-name="Gbreve" unicode="&#x11e;" horiz-adv-x="1419" 
d="M1001 1587q-113 0 -173 58.5t-72 142.5l71 31q14 -47 66.5 -84t124.5 -37q70 0 136.5 37t94.5 84l66 -31q-105 -201 -314 -201zM1100 725h395l-4 -47q-43 -6 -78 -38t-45 -87l-98 -553h-72l-31 152h-6q-168 -188 -436 -189q-299 0 -441.5 224.5t-82.5 551.5
q55 309 278 520t533 211q201 0 319.5 -97t98.5 -220q-8 -49 -41 -87t-78 -38q-57 0 -79 37t-24 88t-10 103.5t-61.5 89t-155.5 36.5q-184 0 -354 -172t-221 -473q-59 -336 53 -511t325 -175q199 0 340 189l58 313q16 104 -95 125z" />
    <glyph glyph-name="gbreve" unicode="&#x11f;" horiz-adv-x="1339" 
d="M737 1223q-113 0 -173 58t-72 142l71 31q14 -47 66.5 -84t126.5 -37q68 0 134 37t97 84l64 -31q-105 -200 -314 -200zM1225 1221q57 0 95 -30t38 -79q0 -39 -23.5 -65.5t-70.5 -26.5q-35 0 -76 31.5t-70 31.5q-47 0 -88 -63q147 -121 109 -342q-35 -190 -178.5 -301
t-344.5 -111q-172 0 -282 82q-113 0 -127 -80q-12 -68 76 -104.5t364 -77.5q252 -39 346 -107.5t88 -168.5q-6 -125 -152.5 -195t-361.5 -70q-61 0 -127.5 6.5t-150.5 28t-146.5 55t-101.5 96t-29 142.5q8 66 53.5 114t108.5 64v8q-113 70 -90 193q12 66 64.5 106.5
t119.5 49.5v6q-84 115 -53 284q31 186 180.5 297t352.5 111q131 0 223 -49q109 164 254 164zM985 680q25 158 -49 249t-209 91q-133 0 -233.5 -88t-124.5 -236q-27 -156 48 -251t214 -95q133 0 231 89t123 241zM291 8q-57 -12 -93 -51t-44 -88q-10 -63 32.5 -112.5
t115.5 -76t144.5 -40t133.5 -13.5q158 2 259 48t101 110q0 57 -67.5 89t-276.5 65q-190 30 -305 69z" />
    <glyph glyph-name="Gdotaccent" unicode="&#x120;" horiz-adv-x="1419" 
d="M991 1645q-47 0 -73.5 30.5t-20.5 75.5q8 47 44 79t85 32t75.5 -32t20.5 -79q-8 -45 -44 -75.5t-87 -30.5zM1100 725h395l-4 -47q-43 -6 -78 -38t-45 -87l-98 -553h-72l-31 152h-6q-168 -188 -436 -189q-299 0 -441.5 224.5t-82.5 551.5q55 309 278 520t533 211
q201 0 319.5 -97t98.5 -220q-8 -49 -41 -87t-78 -38q-57 0 -79 37t-24 88t-10 103.5t-61.5 89t-155.5 36.5q-184 0 -354 -172t-221 -473q-59 -336 53 -511t325 -175q199 0 340 189l58 313q16 104 -95 125z" />
    <glyph glyph-name="gdotaccent" unicode="&#x121;" horiz-adv-x="1339" 
d="M768 1280q-49 0 -75.5 31.5t-18.5 74.5q6 47 42 79t85 32t76.5 -31.5t19.5 -79.5q-6 -45 -43 -75.5t-86 -30.5zM1225 1221q57 0 95 -30t38 -79q0 -39 -23.5 -65.5t-70.5 -26.5q-35 0 -76 31.5t-70 31.5q-47 0 -88 -63q147 -121 109 -342q-35 -190 -178.5 -301
t-344.5 -111q-172 0 -282 82q-113 0 -127 -80q-12 -68 76 -104.5t364 -77.5q252 -39 346 -107.5t88 -168.5q-6 -125 -152.5 -195t-361.5 -70q-61 0 -127.5 6.5t-150.5 28t-146.5 55t-101.5 96t-29 142.5q8 66 53.5 114t108.5 64v8q-113 70 -90 193q12 66 64.5 106.5
t119.5 49.5v6q-84 115 -53 284q31 186 180.5 297t352.5 111q131 0 223 -49q109 164 254 164zM985 680q25 158 -49 249t-209 91q-133 0 -233.5 -88t-124.5 -236q-27 -156 48 -251t214 -95q133 0 231 89t123 241zM291 8q-57 -12 -93 -51t-44 -88q-10 -63 32.5 -112.5
t115.5 -76t144.5 -40t133.5 -13.5q158 2 259 48t101 110q0 57 -67.5 89t-276.5 65q-190 30 -305 69z" />
    <glyph glyph-name="uni0122" unicode="&#x122;" horiz-adv-x="1419" 
d="M1100 725h395l-4 -47q-43 -6 -78 -38t-45 -87l-98 -553h-72l-31 152h-6q-168 -188 -436 -189q-299 0 -441.5 224.5t-82.5 551.5q55 309 278 520t533 211q201 0 319.5 -97t98.5 -220q-8 -49 -41 -87t-78 -38q-57 0 -79 37t-24 88t-10 103.5t-61.5 89t-155.5 36.5
q-184 0 -354 -172t-221 -473q-59 -336 53 -511t325 -175q199 0 340 189l58 313q16 104 -95 125zM676 -106q68 0 96.5 -49.5t13.5 -125.5q-23 -115 -113.5 -248t-211.5 -214l-51 67q68 47 139.5 134t103.5 180l-4 6q-14 -6 -31 -6q-55 0 -85.5 35.5t-20.5 95.5q12 55 59.5 90
t104.5 35z" />
    <glyph glyph-name="uni0123" unicode="&#x123;" horiz-adv-x="1339" 
d="M768 1278q-68 0 -96.5 49t-14.5 125q23 115 113 249t211 214l53 -66q-70 -49 -140.5 -135t-102.5 -180l4 -4q20 4 30 4q55 0 86 -36t19 -95q-10 -53 -57.5 -89t-104.5 -36zM1225 1221q57 0 95 -30t38 -79q0 -39 -23.5 -65.5t-70.5 -26.5q-35 0 -76 31.5t-70 31.5
q-47 0 -88 -63q147 -121 109 -342q-35 -190 -178.5 -301t-344.5 -111q-172 0 -282 82q-113 0 -127 -80q-12 -68 76 -104.5t364 -77.5q252 -39 346 -107.5t88 -168.5q-6 -125 -152.5 -195t-361.5 -70q-61 0 -127.5 6.5t-150.5 28t-146.5 55t-101.5 96t-29 142.5
q8 66 53.5 114t108.5 64v8q-113 70 -90 193q12 66 64.5 106.5t119.5 49.5v6q-84 115 -53 284q31 186 180.5 297t352.5 111q131 0 223 -49q109 164 254 164zM985 680q25 158 -49 249t-209 91q-133 0 -233.5 -88t-124.5 -236q-27 -156 48 -251t214 -95q133 0 231 89t123 241z
M291 8q-57 -12 -93 -51t-44 -88q-10 -63 32.5 -112.5t115.5 -76t144.5 -40t133.5 -13.5q158 2 259 48t101 110q0 57 -67.5 89t-276.5 65q-190 30 -305 69z" />
    <glyph glyph-name="Hcircumflex" unicode="&#x124;" horiz-adv-x="1468" 
d="M993 1657l-305 -144l-31 58l363 256l280 -256l-51 -58zM1233 1434h385l-4 -48q-106 -20 -125 -122l-191 -1094q-10 -53 14.5 -85t65.5 -40l-12 -45h-385l4 45q43 8 78 40t45 85l94 541h-741l-94 -541q-10 -53 14.5 -85t64.5 -40l-12 -45h-385l4 45q43 8 79 40t44 85
l195 1094q18 102 -80 122l12 48h383l-4 -48q-43 -8 -78 -38.5t-45 -83.5l-76 -435h742l75 435q18 100 -79 122z" />
    <glyph glyph-name="hcircumflex" unicode="&#x125;" 
d="M555 1716l-305 -145l-31 57l363 256l280 -256l-51 -57zM1194 94l23 -39q-96 -92 -220 -92q-70 0 -112.5 48t-10.5 177l105 459q41 166 -10 262.5t-184.5 96.5t-264.5 -143.5t-172 -348.5l-6 -39q-25 -150 -36 -268.5t-10 -162.5t3 -44h-203l211 1249q14 53 -11.5 86
t-68.5 39l13 47q166 18 270 144l22 -9l-122 -700h18q168 250 416 250q190 0 273 -123t30 -342l-96 -420q-47 -168 55 -168q43 0 88 41z" />
    <glyph glyph-name="Hbar" unicode="&#x126;" horiz-adv-x="1468" 
d="M1440 1014l-135 -844q-6 -53 18.5 -85t62.5 -38l-10 -47h-385l2 47q45 6 80 38t43 85l86 543h-741l-86 -543q-8 -53 16.5 -85t65.5 -38l-13 -47h-383l2 47q43 6 78 38t45 85l133 844h-155l12 80h156l26 170q8 53 -16.5 84.5t-65.5 37.5l13 48h383l-4 -48
q-43 -6 -78 -37.5t-43 -84.5l-27 -170h744l26 170q6 53 -18.5 84.5t-63.5 37.5l11 48h385l-5 -48q-45 -6 -78.5 -37.5t-41.5 -84.5l-27 -170h154l-13 -80h-153zM479 829h742l30 185h-743z" />
    <glyph glyph-name="hbar" unicode="&#x127;" 
d="M1194 94l23 -39q-96 -92 -220 -92q-70 0 -112.5 48t-10.5 177l105 459q41 166 -10 262.5t-184.5 96.5t-264.5 -143.5t-172 -348.5l-6 -39q-25 -150 -36 -268.5t-10 -162.5t3 -44h-203l201 1192h-145l14 80h145q4 45 -20.5 70.5t-63.5 31.5l13 47q166 18 270 144l22 -9
l-51 -284h420l-12 -80h-420l-59 -336h18q168 250 416 250q190 0 273 -123t30 -342l-96 -420q-47 -168 55 -168q43 0 88 41z" />
    <glyph glyph-name="Itilde" unicode="&#x128;" horiz-adv-x="538" 
d="M608 1628q-55 0 -130 59.5t-109 59.5q-63 0 -95 -88l-59 20q27 92 80 138.5t121 46.5q55 0 130 -58.5t109 -58.5q66 0 97 86l57 -18q-54 -187 -201 -187zM53 0l4 45q43 8 78 40t45 85l193 1094q10 53 -13.5 83.5t-64.5 38.5l10 48h385l-4 -48q-43 -8 -79 -38.5t-44 -83.5
l-194 -1094q-8 -53 15.5 -85t64.5 -40l-13 -45h-383z" />
    <glyph glyph-name="itilde" unicode="&#x129;" horiz-adv-x="538" 
d="M563 1264q-55 0 -130 59t-109 59q-63 0 -95 -88l-59 21q27 92 80 138t121 46q55 0 129.5 -58.5t109.5 -58.5q66 0 97 86l57 -18q-54 -186 -201 -186zM326 -37q-68 0 -114 48t-19 177l106 611q8 53 -18.5 84.5t-67.5 38.5l12 47q168 18 275 145l24 -8l-155 -885
q-33 -168 65 -168q41 0 82 41l27 -39q-88 -92 -217 -92z" />
    <glyph glyph-name="Imacron" unicode="&#x12a;" horiz-adv-x="538" 
d="M281 1667l22 109h537l-23 -109h-536zM53 0l4 45q43 8 78 40t45 85l193 1094q10 53 -13.5 83.5t-64.5 38.5l10 48h385l-4 -48q-43 -8 -79 -38.5t-44 -83.5l-194 -1094q-8 -53 15.5 -85t64.5 -40l-13 -45h-383z" />
    <glyph glyph-name="imacron" unicode="&#x12b;" horiz-adv-x="489" 
d="M186 1303l23 108h536l-22 -108h-537zM326 -37q-68 0 -114 48t-19 177l106 611q8 53 -18.5 84.5t-67.5 38.5l12 47q168 18 275 145l24 -8l-155 -885q-33 -168 65 -168q41 0 82 41l27 -39q-88 -92 -217 -92z" />
    <glyph glyph-name="Iogonek" unicode="&#x12e;" horiz-adv-x="538" 
d="M305 1434h385l-4 -48q-43 -8 -79 -38.5t-44 -83.5l-194 -1094q-8 -53 15.5 -85t64.5 -40l-13 -45h-117q-74 -33 -121.5 -88t-58.5 -117q-8 -61 27 -100t90 -39q98 0 166 98l57 -33q-104 -156 -280 -155q-100 0 -156.5 53t-42.5 143q20 137 184 238h-131l4 45q43 8 78 40
t45 85l193 1094q10 53 -13.5 83.5t-64.5 38.5z" />
    <glyph glyph-name="iogonek" unicode="&#x12f;" horiz-adv-x="512" 
d="M473 1522q57 0 94 -37t37 -88t-37 -87t-94 -36q-55 0 -91 36t-36 87t36 88t91 37zM434 53q41 0 82 41l27 -39q-88 -92 -217 -92q-23 0 -47 6q-106 -70 -125 -174q-8 -61 26.5 -100t89.5 -39q98 0 166 98l58 -33q-104 -156 -281 -155q-100 0 -156.5 53t-42.5 143
q10 72 64.5 137.5t136.5 108.5q-47 57 -22 180l106 611q8 53 -18.5 84.5t-67.5 38.5l12 47q168 18 275 145l24 -8l-155 -885q-33 -168 65 -168z" />
    <glyph glyph-name="Idotaccent" unicode="&#x130;" horiz-adv-x="534" 
d="M514 1645q-47 0 -73.5 30.5t-20.5 75.5q8 47 44 79t85 32t75.5 -32t20.5 -79q-8 -45 -45 -75.5t-86 -30.5zM49 0l4 45q45 8 80 40t43 85l193 1094q10 53 -13.5 83.5t-64.5 38.5l10 48h385l-4 -48q-43 -8 -78 -38.5t-45 -83.5l-194 -1094q-6 -53 17.5 -85t61.5 -40
l-12 -45h-383z" />
    <glyph glyph-name="dotlessi" unicode="&#x131;" horiz-adv-x="454" 
d="M326 -37q-68 0 -114 48t-19 177l106 611q8 53 -18.5 84.5t-67.5 38.5l12 47q168 18 275 145l24 -8l-155 -885q-33 -168 65 -168q41 0 82 41l27 -39q-88 -92 -217 -92z" />
    <glyph glyph-name="IJ" unicode="&#x132;" horiz-adv-x="1064" 
d="M74 0l2 45q104 20 125 125l192 1094q8 53 -15.5 83.5t-64.5 38.5l13 48h385l-4 -48q-106 -20 -125 -122l-193 -1094q-8 -53 15.5 -85t64.5 -40l-12 -45h-383zM418 -401q-135 0 -193.5 56t-48.5 120q8 47 43 77.5t76 30.5q45 0 68.5 -28.5t28.5 -64.5t24.5 -64.5
t58.5 -28.5q88 0 145.5 78t92.5 276l213 1213q10 53 -13.5 83.5t-64.5 38.5l10 48h385l-4 -48q-43 -8 -78 -38.5t-45 -83.5l-209 -1192q-86 -473 -489 -473z" />
    <glyph glyph-name="ij" unicode="&#x133;" horiz-adv-x="890" 
d="M416 1274q-57 0 -92 36t-35 87q0 53 34.5 89t92.5 36q55 0 92 -37t37 -88t-37 -87t-92 -36zM850 1274q-55 0 -91 36t-36 87t36 88t91 37q57 0 94 -37t37 -88t-37 -87t-94 -36zM303 -455q-80 0 -144.5 33t-62.5 88q2 70 80 70q49 0 92 -51.5t90 -51.5q49 0 86 36t50 108
l172 1022q10 53 -16.5 84.5t-67.5 38.5l12 45q176 31 274 147l25 -8l-205 -1182q-37 -203 -121 -291t-264 -88zM266 -37q-68 0 -112.5 48t-20.5 177l107 611q8 53 -18.5 84.5t-67.5 38.5l12 47q170 18 274 145l25 -8l-156 -885q-33 -168 66 -168q39 0 84 41l24 -39
q-88 -92 -217 -92z" />
    <glyph glyph-name="Jcircumflex" unicode="&#x134;" horiz-adv-x="503" 
d="M207 1513l-33 58l365 256l280 -256l-51 -58l-258 144zM-139 -401q-135 0 -193.5 56t-48.5 120q8 47 43 77.5t76 30.5q45 0 68.5 -28.5t28.5 -64.5t24.5 -64.5t58.5 -28.5q88 0 146.5 79t91.5 275l213 1213q10 53 -13.5 83.5t-64.5 38.5l10 48h385l-4 -48
q-43 -8 -78 -38.5t-45 -83.5l-209 -1192q-83 -473 -489 -473z" />
    <glyph glyph-name="jcircumflex" unicode="&#x135;" horiz-adv-x="577" 
d="M61 1149l-30 57l362 256l281 -256l-51 -57l-256 143zM-94 -455q-80 0 -143.5 33t-61.5 88q2 70 78 70q49 0 92 -51.5t90 -51.5q49 0 87 36t50 108l172 1022q8 53 -18.5 84.5t-67.5 38.5l13 45q174 29 274 147l25 -8l-205 -1182q-37 -203 -121 -291t-264 -88z" />
    <glyph glyph-name="uni0136" unicode="&#x136;" horiz-adv-x="1441" 
d="M1393 1470q125 0 186 -50t51 -134q-4 -47 -37.5 -74.5t-72.5 -27.5q-47 0 -76 25.5t-39 57t-39 57.5t-76 26q-150 0 -485 -420l455 -760q59 -104 165 -125l-10 -45h-416v45q39 8 51.5 38t-14.5 87l-360 582h-8q-123 -166 -265 -369l-36 -213q-8 -53 15.5 -85t61.5 -40
l-12 -45h-383l4 45q45 8 80 40t43 85l193 1094q10 53 -13.5 83.5t-64.5 38.5l12 48h383l-4 -48q-43 -8 -78 -38.5t-45 -83.5l-104 -592h8q127 180 230.5 307t225 247t241.5 182t233 62zM700 -106q68 0 96.5 -49.5t14.5 -125.5q-23 -115 -113 -248t-211 -214l-53 67
q68 47 139.5 134t104.5 180l-4 6q-14 -6 -31 -6q-53 0 -85 36.5t-19 94.5q10 55 57 90t104 35z" />
    <glyph glyph-name="uni0137" unicode="&#x137;" horiz-adv-x="1144" 
d="M1190 111l35 -37q-86 -111 -224 -111q-158 0 -295 158t-206 356q-43 -4 -66 -2q-61 -215 -55 -477h-203l211 1251q12 53 -12.5 86t-67.5 39l12 47q162 18 273 144l20 -9l-129 -729h19q104 143 233 211t254 68q72 0 126 -36t54 -116q0 -125 -146 -252t-343 -188
q186 -449 414 -448q51 0 96 45zM893 963q-131 0 -248 -111t-188 -307q193 6 359.5 116.5t166.5 223.5q0 33 -22.5 55.5t-67.5 22.5zM608 -106q68 0 96.5 -49.5t14.5 -125.5q-23 -115 -113 -248t-211 -214l-53 67q68 47 139.5 134t104.5 180l-4 6q-16 -6 -31 -6
q-53 0 -85 36.5t-20 94.5q10 55 57.5 90t104.5 35z" />
    <glyph glyph-name="kgreenlandic" unicode="&#x138;" horiz-adv-x="1144" 
d="M1190 111l35 -37q-86 -111 -224 -111q-158 0 -295 158t-206 356q-43 -4 -66 -2q-61 -215 -55 -477h-203l133 801q14 53 -11.5 84.5t-68.5 40.5l13 45q170 29 272 145l21 -8l-50 -279h17q104 143 233 211t254 68q72 0 126 -36t54 -116q0 -125 -146 -252t-343 -188
q186 -449 414 -448q51 0 96 45zM893 963q-131 0 -248 -111t-188 -307q193 6 359.5 116.5t166.5 223.5q0 33 -22.5 55.5t-67.5 22.5z" />
    <glyph glyph-name="Lacute" unicode="&#x139;" horiz-adv-x="1122" 
d="M748 1702l-256 -178l-43 45l213 237q51 51 98 52q33 0 48 -20.5t11 -47.5q-8 -43 -71 -88zM1192 315l51 -20l-129 -326h-14q-68 31 -260 31h-791l4 45q45 8 80 40t43 85l193 1094q18 102 -80 122l12 48h385l-4 -48q-43 -8 -78 -38.5t-45 -83.5l-205 -1155
q158 -18 324 -19q104 0 195.5 23.5t146.5 56.5t96 65.5t60 55.5z" />
    <glyph glyph-name="lacute" unicode="&#x13a;" horiz-adv-x="530" 
d="M496 1642l-43 46l215 237q47 51 98 51q33 0 47 -19.5t10 -47.5q-8 -43 -71 -88zM350 -37q-70 0 -115 48t-20 177l186 1061q10 53 -16.5 86t-69.5 39l13 47q172 18 276 144l23 -6l-236 -1338q-33 -168 68 -168q39 0 80 41l26 -39q-88 -92 -215 -92z" />
    <glyph glyph-name="uni013B" unicode="&#x13b;" horiz-adv-x="1122" 
d="M1192 315l51 -20l-129 -326h-14q-68 31 -260 31h-791l4 45q45 8 80 40t43 85l193 1094q18 102 -80 122l12 48h385l-4 -48q-43 -8 -78 -38.5t-45 -83.5l-205 -1155q158 -18 324 -19q104 0 195.5 23.5t146.5 56.5t96 65.5t60 55.5zM678 -106q68 0 96.5 -49.5t13.5 -125.5
q-23 -115 -113.5 -248t-211.5 -214l-51 67q68 47 139.5 134t103.5 180l-4 6q-16 -6 -30 -6q-55 0 -86 35.5t-21 95.5q12 55 59.5 90t104.5 35z" />
    <glyph glyph-name="uni013C" unicode="&#x13c;" horiz-adv-x="530" 
d="M459 53q39 0 80 41l26 -39q-88 -92 -215 -92q-70 0 -115 48t-20 177l186 1061q10 53 -16.5 86t-69.5 39l13 47q172 18 276 144l23 -6l-236 -1338q-32 -168 68 -168zM313 -106q68 0 96.5 -49.5t14.5 -125.5q-23 -115 -114 -248t-212 -214l-51 67q68 47 139.5 134
t104.5 180l-4 6q-16 -6 -31 -6q-55 0 -86 35.5t-20 95.5q12 55 59 90t104 35z" />
    <glyph glyph-name="Lcaron" unicode="&#x13d;" horiz-adv-x="1122" 
d="M1110 1296q-23 -115 -114 -249t-212 -213l-53 65q70 45 141.5 133t106.5 182l-4 5q-20 -4 -33 -5q-55 0 -86 36t-18 93q10 55 57 91t104 36q68 0 96.5 -49t14.5 -125zM1192 315l51 -20l-129 -326h-14q-68 31 -260 31h-791l4 45q45 8 80 40t43 85l193 1094q18 102 -80 122
l12 48h385l-4 -48q-43 -8 -78 -38.5t-45 -83.5l-205 -1155q158 -18 324 -19q104 0 195.5 23.5t146.5 56.5t96 65.5t60 55.5z" />
    <glyph glyph-name="lcaron" unicode="&#x13e;" horiz-adv-x="901" 
d="M627 1559l-236 -1338q-33 -168 68 -168q39 0 80 41l26 -39q-88 -92 -215 -92q-70 0 -115 48t-20 177l186 1061q10 53 -16.5 86t-69.5 39l13 47q172 18 276 144zM911 1470q68 0 96.5 -49t14.5 -125q-23 -115 -113 -249t-211 -213l-55 65q70 45 141.5 133t106.5 182l-4 5
q-20 -4 -33 -5q-55 0 -86 36t-18 93q12 55 58 91t103 36z" />
    <glyph glyph-name="Ldot" unicode="&#x13f;" horiz-adv-x="1122" 
d="M1192 315l51 -20l-129 -326h-14q-68 31 -260 31h-791l4 45q45 8 80 40t43 85l193 1094q18 102 -80 122l12 48h385l-4 -48q-43 -8 -78 -38.5t-45 -83.5l-205 -1155q158 -18 324 -19q104 0 195.5 23.5t146.5 56.5t96 65.5t60 55.5zM791 739q-57 0 -89 37t-20 98
q12 57 57 93.5t103 36.5q53 0 86 -36t20 -94q-12 -61 -57 -98t-100 -37z" />
    <glyph glyph-name="ldot" unicode="&#x140;" horiz-adv-x="739" 
d="M350 -37q-70 0 -115 48t-20 177l186 1061q10 53 -16.5 86t-69.5 39l13 47q172 18 276 144l23 -6l-236 -1338q-33 -168 68 -168q39 0 80 41l26 -39q-88 -92 -215 -92zM737.5 686q-55.5 0 -88.5 37t-20 98q12 57 58 94t101.5 37t87 -36.5t19.5 -94.5q-10 -61 -56 -98
t-101.5 -37z" />
    <glyph glyph-name="Lslash" unicode="&#x141;" horiz-adv-x="1110" 
d="M1174 340l49 -23l-154 -346h-16q-72 29 -262 29h-730l2 47q43 6 78 38t45 85l88 565l-239 -127l12 80l242 127l69 449q8 53 -16.5 84.5t-65.5 37.5l13 48h383l-4 -48q-43 -6 -78 -37.5t-43 -84.5l-53 -338l256 135l-11 -80l-258 -137l-119 -738q127 -16 295 -16
q102 0 193.5 25.5t148 62.5t98.5 74t58 63z" />
    <glyph glyph-name="lslash" unicode="&#x142;" horiz-adv-x="530" 
d="M627 1559l-160 -904l149 78l-14 -80l-149 -80l-62 -352q-33 -168 68 -168q39 0 80 41l26 -39q-88 -92 -215 -92q-70 0 -115 48t-20 177l49 285l-147 -80l12 84l152 80l120 692q10 53 -16.5 86t-69.5 39l13 47q172 18 276 144z" />
    <glyph glyph-name="Nacute" unicode="&#x143;" horiz-adv-x="1349" 
d="M1174 1702l-256 -178l-44 45l216 237q51 51 98 52q33 0 48 -20.5t9 -47.5q-8 -47 -71 -88zM1237 1434h285l-4 -48q-43 -8 -79 -38.5t-44 -83.5l-224 -1264h-116q-25 135 -88.5 262t-139 228.5t-151.5 199.5t-140.5 219t-91.5 246h-8l-174 -985q-10 -53 14.5 -85t65.5 -40
l-12 -45h-285l4 45q102 23 123 125l193 1094q18 102 -80 122l12 48h229q41 -162 136.5 -332t186.5 -289t173 -263t102 -267h6l175 981q18 102 -80 122z" />
    <glyph glyph-name="nacute" unicode="&#x144;" horiz-adv-x="1224" 
d="M928 1337l-256 -178l-43 45l215 238q51 51 98 51q33 0 48.5 -20.5t8.5 -47.5q-8 -47 -71 -88zM1278 94l25 -39q-96 -92 -224 -92q-68 0 -110.5 48t-10.5 177l107 459q41 164 -11.5 261.5t-185.5 97.5q-135 0 -267 -147.5t-169 -356.5q-27 -158 -39 -284t-10 -173l2 -47
h-203l135 801q10 53 -16.5 84.5t-67.5 38.5l13 47q168 20 274 145l25 -8l-47 -250h16q168 250 414 250q190 0 273 -123t34 -342l-100 -420q-23 -61 -9.5 -114.5t68.5 -53.5q39 0 84 41z" />
    <glyph glyph-name="uni0145" unicode="&#x145;" horiz-adv-x="1349" 
d="M1237 1434h285l-4 -48q-43 -8 -79 -38.5t-44 -83.5l-224 -1264h-116q-25 135 -88.5 262t-139 228.5t-151.5 199.5t-140.5 219t-91.5 246h-8l-174 -985q-10 -53 14.5 -85t65.5 -40l-12 -45h-285l4 45q102 23 123 125l193 1094q18 102 -80 122l12 48h229
q41 -162 136.5 -332t186.5 -289t173 -263t102 -267h6l175 981q18 102 -80 122zM676 -106q68 0 96.5 -49.5t13.5 -125.5q-23 -115 -113.5 -248t-211.5 -214l-51 67q68 47 139.5 134t103.5 180l-4 6q-14 -6 -31 -6q-55 0 -85.5 35.5t-20.5 95.5q12 55 59.5 90t104.5 35z" />
    <glyph glyph-name="uni0146" unicode="&#x146;" horiz-adv-x="1224" 
d="M1278 94l25 -39q-96 -92 -224 -92q-68 0 -110.5 48t-10.5 177l107 459q41 164 -11.5 261.5t-185.5 97.5q-135 0 -267 -147.5t-169 -356.5q-27 -158 -39 -284t-10 -173l2 -47h-203l135 801q10 53 -16.5 84.5t-67.5 38.5l13 47q168 20 274 145l25 -8l-47 -250h16
q168 250 414 250q190 0 273 -123t34 -342l-100 -420q-23 -61 -9.5 -114.5t68.5 -53.5q39 0 84 41zM700 -106q68 0 96.5 -49.5t14.5 -125.5q-23 -115 -114 -248t-212 -214l-51 67q68 47 139.5 134t104.5 180l-4 6q-14 -6 -31 -6q-55 0 -86 35.5t-20 95.5q12 55 59 90t104 35z
" />
    <glyph glyph-name="Ncaron" unicode="&#x147;" horiz-adv-x="1349" 
d="M1282 1786l-362 -256l-281 256l49 57l258 -143l303 143zM1237 1434h285l-4 -48q-43 -8 -79 -38.5t-44 -83.5l-224 -1264h-116q-25 135 -88.5 262t-139 228.5t-151.5 199.5t-140.5 219t-91.5 246h-8l-174 -985q-10 -53 14.5 -85t65.5 -40l-12 -45h-285l4 45
q102 23 123 125l193 1094q18 102 -80 122l12 48h229q41 -162 136.5 -332t186.5 -289t173 -263t102 -267h6l175 981q18 102 -80 122z" />
    <glyph glyph-name="ncaron" unicode="&#x148;" horiz-adv-x="1224" 
d="M1159 1421l-362 -256l-283 256l51 58l258 -144l303 144zM1278 94l25 -39q-96 -92 -224 -92q-68 0 -110.5 48t-10.5 177l107 459q41 164 -11.5 261.5t-185.5 97.5q-135 0 -267 -147.5t-169 -356.5q-27 -158 -39 -284t-10 -173l2 -47h-203l135 801q10 53 -16.5 84.5
t-67.5 38.5l13 47q168 20 274 145l25 -8l-47 -250h16q168 250 414 250q190 0 273 -123t34 -342l-100 -420q-23 -61 -9.5 -114.5t68.5 -53.5q39 0 84 41z" />
    <glyph glyph-name="napostrophe" unicode="&#x149;" horiz-adv-x="1282" 
d="M315 1470q68 0 96.5 -49t14.5 -125q-25 -117 -116 -250t-210 -212l-51 65q70 47 140.5 134t103.5 181l-4 5q-20 -4 -31 -5q-55 0 -86 35t-20 94q12 55 59 91t104 36zM1335 94l25 -39q-96 -92 -223 -92q-68 0 -111 48t-10 177l106 459q41 164 -11 261.5t-185 97.5
q-135 0 -267.5 -147.5t-169.5 -356.5q-27 -158 -39 -284t-10 -173l2 -47h-202l135 801q10 53 -16.5 84.5t-67.5 38.5l12 47q168 20 275 145l24 -8l-47 -250h16q168 250 414 250q190 0 273 -123t34 -342l-100 -420q-23 -61 -9.5 -114.5t68.5 -53.5q39 0 84 41z" />
    <glyph glyph-name="Eng" unicode="&#x14a;" horiz-adv-x="1404" 
d="M1290 1434h283l-4 -48q-43 -6 -78 -37.5t-43 -84.5l-193 -1219q-35 -225 -138 -334.5t-283 -109.5q-127 0 -196 54t-60 116q8 47 39.5 75.5t68.5 28.5q43 0 67.5 -28.5t33 -63.5t37 -63.5t79.5 -28.5q84 0 154.5 74.5t101.5 242.5q-29 135 -101.5 261t-158.5 226.5
t-171 199t-157.5 218t-101.5 244.5h-8l-156 -987q-8 -53 16.5 -85t65.5 -38l-12 -47h-285l2 47q43 6 78 38t45 85l172 1094q8 53 -16.5 84.5t-65.5 37.5l12 48h224q35 -133 110.5 -263.5t159.5 -231.5t166 -199.5t145.5 -204t81.5 -205.5h6l150 934q8 53 -16.5 84.5
t-65.5 37.5z" />
    <glyph glyph-name="eng" unicode="&#x14b;" horiz-adv-x="1183" 
d="M932 1106q188 0 269 -121t38 -344l-135 -739q-29 -172 -130.5 -264.5t-236.5 -92.5q-102 0 -170.5 46.5t-56.5 121.5q6 37 31.5 61.5t64.5 24.5q41 0 57.5 -27.5t16.5 -60.5t18.5 -60.5t63.5 -27.5q121 0 166 252l141 772q31 170 -16 264.5t-179 94.5q-135 0 -268 -148.5
t-168 -355.5q-29 -158 -40 -284t-9 -173l2 -47h-205l138 801q8 53 -18.5 84.5t-67.5 38.5l12 47q170 18 276 145l23 -8l-47 -250h16q168 250 414 250z" />
    <glyph glyph-name="Omacron" unicode="&#x14c;" horiz-adv-x="1525" 
d="M809 1667l22 109h535l-20 -109h-537zM760 -37q-293 0 -456 224.5t-107 531.5q57 328 280 539.5t535 211.5q289 0 446.5 -221t102.5 -540q-55 -311 -281.5 -528.5t-519.5 -217.5zM774 51q211 0 378 192.5t216 469.5q49 283 -56.5 476t-314.5 193q-223 0 -390 -186
t-216 -475q-49 -272 59.5 -471t323.5 -199z" />
    <glyph glyph-name="omacron" unicode="&#x14d;" horiz-adv-x="1224" 
d="M520 1303l23 108h534l-20 -108h-537zM614 -37q-248 0 -379 170t-90 416q41 240 221.5 398.5t417.5 158.5q242 0 371 -166t88 -416q-41 -244 -217 -402.5t-412 -158.5zM635 51q160 0 282.5 134t153.5 339q33 211 -54 352.5t-253 141.5q-162 0 -289 -134t-158 -337
q-31 -207 58.5 -351.5t259.5 -144.5z" />
    <glyph glyph-name="Obreve" unicode="&#x14e;" horiz-adv-x="1525" 
d="M1032 1587q-115 0 -174 57.5t-74 143.5l74 31q14 -47 66.5 -84t124.5 -37q70 0 136 37t95 84l66 -31q-105 -201 -314 -201zM760 -37q-293 0 -456 224.5t-107 531.5q57 328 280 539.5t535 211.5q289 0 446.5 -221t102.5 -540q-55 -311 -281.5 -528.5t-519.5 -217.5z
M774 51q211 0 378 192.5t216 469.5q49 283 -56.5 476t-314.5 193q-223 0 -390 -186t-216 -475q-49 -272 59.5 -471t323.5 -199z" />
    <glyph glyph-name="obreve" unicode="&#x14f;" horiz-adv-x="1224" 
d="M799 1223q-113 0 -173.5 58t-72.5 142l72 31q14 -47 66 -84t126 -37q68 0 134.5 37t97.5 84l63 -31q-104 -200 -313 -200zM614 -37q-248 0 -379 170t-90 416q41 240 221.5 398.5t417.5 158.5q242 0 371 -166t88 -416q-41 -244 -217 -402.5t-412 -158.5zM635 51
q160 0 282.5 134t153.5 339q33 211 -54 352.5t-253 141.5q-162 0 -289 -134t-158 -337q-31 -207 58.5 -351.5t259.5 -144.5z" />
    <glyph glyph-name="Ohungarumlaut" unicode="&#x150;" horiz-adv-x="1525" 
d="M831 1522l-63 28l131 244q37 68 98 68q33 2 47.5 -18.5t10.5 -45.5q-4 -31 -49 -86zM1090 1522l-66 28q94 174 133 244q35 68 96 68q31 2 47.5 -18.5t12.5 -45.5q-4 -29 -51 -86zM760 -37q-293 0 -456 224.5t-107 531.5q57 328 280 539.5t535 211.5q289 0 446.5 -221
t102.5 -540q-55 -311 -281.5 -528.5t-519.5 -217.5zM774 51q211 0 378 192.5t216 469.5q49 283 -56.5 476t-314.5 193q-223 0 -390 -186t-216 -475q-49 -272 59.5 -471t323.5 -199z" />
    <glyph glyph-name="ohungarumlaut" unicode="&#x151;" horiz-adv-x="1224" 
d="M623 1157l-66 29q94 174 133 244q35 68 96 67q31 2 47.5 -18.5t12.5 -44.5q-4 -29 -51 -86zM879 1157l-64 29q92 174 131 244q37 68 96 67q33 2 48.5 -18.5t11.5 -44.5q-4 -31 -49 -86zM614 -37q-248 0 -379 170t-90 416q41 240 221.5 398.5t417.5 158.5q242 0 371 -166
t88 -416q-41 -244 -217 -402.5t-412 -158.5zM635 51q160 0 282.5 134t153.5 339q33 211 -54 352.5t-253 141.5q-162 0 -289 -134t-158 -337q-31 -207 58.5 -351.5t259.5 -144.5z" />
    <glyph glyph-name="OE" unicode="&#x152;" horiz-adv-x="2170" 
d="M1757 1343q-145 0 -280 -20l-82 -473l4 -2q76 55 151 55q82 0 213 -67.5t191 -67.5q57 0 95 18.5t85 63.5l31 -35q-55 -76 -127 -124t-144 -48q-80 0 -211 67.5t-200 67.5q-55 0 -105 -33l-110 -630q168 -25 368 -25q102 0 193.5 23.5t147 57.5t96.5 66.5t57 57.5l16 22
l52 -22l-140 -324h-16q-68 29 -260 29h-793q-113 -31 -252 -31q-195 0 -339 104.5t-207.5 278.5t-32.5 375q53 328 273 539t532 211q135 0 254 -43h983l57 -256l-57 -21q-2 8 -9.5 20.5t-40 44t-76.5 56.5t-128.5 45t-188.5 20zM1090 170l186 1087q-125 129 -365 129
q-215 0 -365.5 -162.5t-189.5 -404.5q-47 -303 77 -531.5t370 -228.5q150 0 264 52q17 26 23 59z" />
    <glyph glyph-name="oe" unicode="&#x153;" horiz-adv-x="2134" 
d="M1602 59q256 0 489 248l35 -35q-104 -145 -252 -227t-318 -82q-147 0 -252.5 69.5t-146.5 203.5q-84 -127 -214 -200t-281 -73q-248 0 -381.5 171t-96.5 417q37 240 215.5 398.5t415.5 158.5q156 0 271.5 -86t156.5 -231h4q92 145 238.5 230t331.5 85q145 0 249.5 -63.5
t104.5 -192.5q0 -102 -70.5 -175t-204 -117t-271.5 -66.5t-329 -38.5q-2 -20 -2 -64q0 -162 96.5 -246t211.5 -84zM1100 524q31 211 -56.5 352.5t-251 141.5t-289.5 -134t-157 -337q-33 -207 56.5 -351.5t259.5 -144.5q160 0 282.5 134t155.5 339zM1790 1018
q-170 0 -305 -137.5t-176 -345.5q141 10 257.5 31.5t219 57t161 94t58.5 134.5t-58.5 121t-156.5 45z" />
    <glyph glyph-name="Racute" unicode="&#x154;" horiz-adv-x="1388" 
d="M1114 1702l-256 -178l-43 45l213 237q51 51 98 52q33 0 48.5 -20.5t11.5 -47.5q-9 -43 -72 -88zM1446 1030q-25 -141 -126 -234.5t-269 -133.5l-2 -11q59 -2 99 -20.5t61.5 -43t34.5 -77.5t16.5 -90t7.5 -115q6 -141 38.5 -194.5t137.5 -53.5l-2 -47q-76 -31 -146 -30
q-45 0 -77.5 7t-70.5 30.5t-58.5 80t-20.5 142.5q-2 123 -13.5 190.5t-47 114.5t-96 62.5t-167.5 15.5l-299 2l-79 -455q-8 -53 15.5 -85t61.5 -40l-12 -45h-383l4 45q45 8 80 40t43 85l193 1094q10 53 -13.5 83.5t-64.5 38.5l12 48h637q266 0 403.5 -105.5t102.5 -298.5z
M879 1343q-186 0 -310 -24l-106 -602h330q201 0 318.5 83t143.5 228q27 147 -76 231t-300 84z" />
    <glyph glyph-name="racute" unicode="&#x155;" horiz-adv-x="942" 
d="M778 1337l-256 -178l-43 45l213 238q51 51 99 51q33 0 48 -20.5t11 -47.5q-9 -43 -72 -88zM883 1106q100 0 146 -45t38 -109q-8 -49 -44 -81.5t-91 -32.5q-41 0 -66.5 20.5t-34 45t-30 45t-56.5 20.5q-82 0 -178 -132t-137 -345q-25 -119 -36 -243t-9 -188v-63h-205
l137 801q8 53 -18.5 84.5t-67.5 38.5l13 47q170 18 276 145l23 -8l-41 -219v2h12q183 217 369 217z" />
    <glyph glyph-name="uni0156" unicode="&#x156;" horiz-adv-x="1388" 
d="M1446 1030q-25 -141 -126 -234.5t-269 -133.5l-2 -11q59 -2 99 -20.5t61.5 -43t34.5 -77.5t16.5 -90t7.5 -115q6 -141 38.5 -194.5t137.5 -53.5l-2 -47q-76 -31 -146 -30q-45 0 -77.5 7t-70.5 30.5t-58.5 80t-20.5 142.5q-2 123 -13.5 190.5t-47 114.5t-96 62.5
t-167.5 15.5l-299 2l-79 -455q-8 -53 15.5 -85t61.5 -40l-12 -45h-383l4 45q45 8 80 40t43 85l193 1094q10 53 -13.5 83.5t-64.5 38.5l12 48h637q266 0 403.5 -105.5t102.5 -298.5zM879 1343q-186 0 -310 -24l-106 -602h330q201 0 318.5 83t143.5 228q27 147 -76 231
t-300 84zM715 -106q68 0 96.5 -49.5t13.5 -125.5q-23 -115 -113.5 -248t-211.5 -214l-51 67q68 47 139 134t104 180l-4 6q-16 -6 -31 -6q-53 0 -84.5 36.5t-19.5 94.5q10 55 57.5 90t104.5 35z" />
    <glyph glyph-name="uni0157" unicode="&#x157;" horiz-adv-x="942" 
d="M883 1106q100 0 146 -45t38 -109q-8 -49 -44 -81.5t-91 -32.5q-41 0 -66.5 20.5t-34 45t-30 45t-56.5 20.5q-82 0 -178 -132t-137 -345q-25 -119 -36 -243t-9 -188v-63h-205l137 801q8 53 -18.5 84.5t-67.5 38.5l13 47q170 18 276 145l23 -8l-41 -219v2h12
q183 217 369 217zM297 -106q68 0 96.5 -49.5t14.5 -125.5q-23 -115 -114 -248t-212 -214l-51 67q68 47 139.5 134t103.5 180l-4 6q-16 -6 -30 -6q-55 0 -86 35.5t-21 95.5q12 55 59.5 90t104.5 35z" />
    <glyph glyph-name="Rcaron" unicode="&#x158;" horiz-adv-x="1388" 
d="M1268 1786l-363 -256l-280 256l51 57l256 -143l303 143zM1446 1030q-25 -141 -126 -234.5t-269 -133.5l-2 -11q59 -2 99 -20.5t61.5 -43t34.5 -77.5t16.5 -90t7.5 -115q6 -141 38.5 -194.5t137.5 -53.5l-2 -47q-76 -31 -146 -30q-45 0 -77.5 7t-70.5 30.5t-58.5 80
t-20.5 142.5q-2 123 -13.5 190.5t-47 114.5t-96 62.5t-167.5 15.5l-299 2l-79 -455q-8 -53 15.5 -85t61.5 -40l-12 -45h-383l4 45q45 8 80 40t43 85l193 1094q10 53 -13.5 83.5t-64.5 38.5l12 48h637q266 0 403.5 -105.5t102.5 -298.5zM879 1343q-186 0 -310 -24l-106 -602
h330q201 0 318.5 83t143.5 228q27 147 -76 231t-300 84z" />
    <glyph glyph-name="rcaron" unicode="&#x159;" horiz-adv-x="942" 
d="M938 1421l-363 -256l-280 256l51 58l256 -144l303 144zM883 1106q100 0 146 -45t38 -109q-8 -49 -44 -81.5t-91 -32.5q-41 0 -66.5 20.5t-34 45t-30 45t-56.5 20.5q-82 0 -178 -132t-137 -345q-25 -119 -36 -243t-9 -188v-63h-205l137 801q8 53 -18.5 84.5t-67.5 38.5
l13 47q170 18 276 145l23 -8l-41 -219v2h12q183 217 369 217z" />
    <glyph glyph-name="Sacute" unicode="&#x15a;" horiz-adv-x="1335" 
d="M756 1524l-43 45l215 237q47 51 98 52q33 0 47 -19.5t10 -48.5q-8 -43 -71 -88zM686 -37q-279 0 -425 116t-124 247q16 98 115 98q57 0 87 -39t45 -93t40 -109.5t95.5 -94.5t189.5 -39q152 0 248 64.5t116 181.5q25 143 -65 227t-279 150q-102 35 -175 70.5t-138.5 89
t-91 127t-9.5 167.5q27 147 179.5 245.5t367.5 98.5q242 0 384.5 -119.5t121.5 -240.5q-8 -39 -33.5 -65.5t-64.5 -26.5q-59 0 -86 38t-38 91t-30.5 107.5t-87 92t-184.5 37.5q-139 0 -234.5 -66.5t-111.5 -174.5q-10 -63 8 -112.5t69.5 -85.5t104.5 -59.5t139 -51.5
q82 -29 144.5 -55.5t130 -71.5t106.5 -94.5t58.5 -122t3.5 -156.5q-33 -176 -191 -273.5t-385 -97.5z" />
    <glyph glyph-name="sacute" unicode="&#x15b;" horiz-adv-x="1134" 
d="M668 1159l-43 45l213 238q51 51 98 51q33 0 48 -20.5t11 -47.5q-8 -43 -71 -88zM596 -37q-207 0 -340 85t-123 183q10 90 96 91q43 0 65.5 -28t36 -68t34 -80t77 -67.5t148.5 -27.5q131 0 225 56.5t109 148.5q6 45 -11.5 81t-40 56.5t-75 41t-82 27.5t-94.5 23
q-57 12 -103.5 26.5t-101 41.5t-89 59.5t-56 85t-13.5 113.5q14 123 141 209t320 86q182 0 295.5 -76t103.5 -170q-4 -37 -24.5 -62.5t-59.5 -25.5q-45 0 -64.5 25.5t-24.5 61.5t-18.5 72t-64.5 61.5t-145 25.5q-115 0 -200 -52.5t-95 -134.5q-8 -61 42 -104t96 -57.5
t138 -34.5l27 -6q82 -18 146.5 -42t125 -64t88 -102.5t15.5 -141.5q-16 -125 -149.5 -220.5t-354.5 -95.5z" />
    <glyph glyph-name="Scircumflex" unicode="&#x15c;" horiz-adv-x="1335" 
d="M643 1513l-33 58l365 256l280 -256l-51 -58l-258 144zM686 -37q-279 0 -425 116t-124 247q16 98 115 98q57 0 87 -39t45 -93t40 -109.5t95.5 -94.5t189.5 -39q152 0 248 64.5t116 181.5q25 143 -65 227t-279 150q-102 35 -175 70.5t-138.5 89t-91 127t-9.5 167.5
q27 147 179.5 245.5t367.5 98.5q242 0 384.5 -119.5t121.5 -240.5q-8 -39 -33.5 -65.5t-64.5 -26.5q-59 0 -86 38t-38 91t-30.5 107.5t-87 92t-184.5 37.5q-139 0 -234.5 -66.5t-111.5 -174.5q-10 -63 8 -112.5t69.5 -85.5t104.5 -59.5t139 -51.5q82 -29 144.5 -55.5
t130 -71.5t106.5 -94.5t58.5 -122t3.5 -156.5q-33 -176 -191 -273.5t-385 -97.5z" />
    <glyph glyph-name="scircumflex" unicode="&#x15d;" horiz-adv-x="1134" 
d="M463 1149l-33 57l363 256l280 -256l-49 -57l-258 143zM596 -37q-207 0 -340 85t-123 183q10 90 96 91q43 0 65.5 -28t36 -68t34 -80t77 -67.5t148.5 -27.5q131 0 225 56.5t109 148.5q6 45 -11.5 81t-40 56.5t-75 41t-82 27.5t-94.5 23q-57 12 -103.5 26.5t-101 41.5
t-89 59.5t-56 85t-13.5 113.5q14 123 141 209t320 86q182 0 295.5 -76t103.5 -170q-4 -37 -24.5 -62.5t-59.5 -25.5q-45 0 -64.5 25.5t-24.5 61.5t-18.5 72t-64.5 61.5t-145 25.5q-115 0 -200 -52.5t-95 -134.5q-8 -61 42 -104t96 -57.5t138 -34.5l27 -6q82 -18 146.5 -42
t125 -64t88 -102.5t15.5 -141.5q-16 -125 -149.5 -220.5t-354.5 -95.5z" />
    <glyph glyph-name="Scedilla" unicode="&#x15e;" horiz-adv-x="1335" 
d="M858 1470q242 0 386.5 -119.5t123.5 -240.5q-8 -39 -33.5 -65.5t-64.5 -26.5q-59 0 -86 38t-39 91t-32.5 107.5t-88.5 92t-184 37.5q-150 0 -237 -65.5t-105 -177.5q-20 -121 61.5 -184.5t259.5 -122.5q82 -29 144.5 -55.5t130 -71.5t106.5 -94.5t58.5 -122t3.5 -156.5
q-31 -160 -164 -254t-330 -113l-66 -106q12 12 66 12q76 0 117 -39t26 -108q-14 -78 -102 -137.5t-215 -59.5q-100 0 -156.5 35t-46.5 84q4 27 26.5 46t49.5 19q33 0 47 -18.5t16 -41t22.5 -41t65.5 -18.5q63 0 103.5 29t50.5 76q8 33 -12.5 55.5t-61.5 22.5q-57 0 -96 -33
l-47 23l123 196q-274 2 -418.5 118t-122.5 245q16 98 115 98q57 0 87 -39t45 -93t40 -109.5t95.5 -94.5t189.5 -39q152 0 248 64.5t116 181.5q25 145 -66.5 230t-277.5 147q-104 35 -177 70.5t-138.5 89t-90 127t-8.5 167.5q27 152 171.5 248t371.5 96z" />
    <glyph glyph-name="scedilla" unicode="&#x15f;" horiz-adv-x="1134" 
d="M717 1018q-115 0 -200 -52.5t-95 -134.5q-8 -61 42 -104t96 -57.5t138 -34.5l27 -6q76 -16 119 -27.5t104.5 -38t92 -60.5t50 -91.5t9.5 -132.5q-12 -115 -127 -206t-309 -108l-66 -104q12 12 66 12q76 0 116.5 -39t26.5 -108q-14 -78 -102.5 -137.5t-215.5 -59.5
q-100 0 -157.5 35t-46.5 84q4 27 27.5 46t49.5 19q33 0 47.5 -18.5t16.5 -41t23.5 -41t64.5 -18.5q63 0 103 29t51 76q8 33 -12.5 55.5t-61.5 22.5q-57 0 -98 -33l-45 23l122 196q-199 6 -324.5 90t-115.5 178q10 90 96 91q43 0 65.5 -28t36 -68t34 -80t77 -67.5
t148.5 -27.5q131 0 225 56.5t109 148.5q4 37 -3.5 67.5t-33 53t-47 37t-68.5 29t-71.5 20.5t-79.5 18q-72 16 -112 28.5t-101.5 39t-92 58.5t-51 84t-12.5 120q14 123 143 209t324 86q182 0 295.5 -76t103.5 -170q-4 -37 -24.5 -62.5t-59.5 -25.5q-45 0 -64.5 25.5
t-24.5 61.5t-18.5 72t-64.5 61.5t-145 25.5z" />
    <glyph glyph-name="Scaron" unicode="&#x160;" horiz-adv-x="1335" 
d="M918 1530l-281 256l51 57l256 -143l303 143l33 -57zM686 -37q-279 0 -425 116t-124 247q16 98 115 98q57 0 87 -39t45 -93t40 -109.5t95.5 -94.5t189.5 -39q152 0 248 64.5t116 181.5q25 143 -65 227t-279 150q-102 35 -175 70.5t-138.5 89t-91 127t-9.5 167.5
q27 147 179.5 245.5t367.5 98.5q242 0 384.5 -119.5t121.5 -240.5q-8 -39 -33.5 -65.5t-64.5 -26.5q-59 0 -86 38t-38 91t-30.5 107.5t-87 92t-184.5 37.5q-139 0 -234.5 -66.5t-111.5 -174.5q-10 -63 8 -112.5t69.5 -85.5t104.5 -59.5t139 -51.5q82 -29 144.5 -55.5
t130 -71.5t106.5 -94.5t58.5 -122t3.5 -156.5q-33 -176 -191 -273.5t-385 -97.5z" />
    <glyph glyph-name="scaron" unicode="&#x161;" horiz-adv-x="1134" 
d="M717 1165l-281 256l51 58l258 -144l304 144l30 -58zM596 -37q-207 0 -340 85t-123 183q10 90 96 91q43 0 65.5 -28t36 -68t34 -80t77 -67.5t148.5 -27.5q131 0 225 56.5t109 148.5q6 45 -11.5 81t-40 56.5t-75 41t-82 27.5t-94.5 23q-57 12 -103.5 26.5t-101 41.5
t-89 59.5t-56 85t-13.5 113.5q14 123 141 209t320 86q182 0 295.5 -76t103.5 -170q-4 -37 -24.5 -62.5t-59.5 -25.5q-45 0 -64.5 25.5t-24.5 61.5t-18.5 72t-64.5 61.5t-145 25.5q-115 0 -200 -52.5t-95 -134.5q-8 -61 42 -104t96 -57.5t138 -34.5l27 -6q82 -18 146.5 -42
t125 -64t88 -102.5t15.5 -141.5q-16 -125 -149.5 -220.5t-354.5 -95.5z" />
    <glyph glyph-name="uni0162" unicode="&#x162;" horiz-adv-x="1183" 
d="M1339 1470l47 -335l-59 -23q-2 10 -9 25.5t-38 55.5t-73 70.5t-124 56.5t-182 26h-20l-187 -1176q-8 -53 16.5 -85t65.5 -38l-12 -47h-148l-88 -139q12 12 66 12q78 0 118 -39t25 -108q-14 -78 -102 -137.5t-215 -59.5q-100 0 -156.5 35t-46.5 84q4 27 26.5 46t49.5 19
q33 0 47 -18.5t16 -41t23.5 -41t66.5 -18.5q129 0 154 105q6 33 -14.5 55.5t-61.5 22.5q-57 0 -96 -33l-47 23l145 233h-145l4 47q41 6 77 38t44 85l186 1176h-24q-100 0 -189.5 -24t-143.5 -58.5t-94 -69.5t-57 -59l-16 -23l-51 23l155 335h15q68 -37 229 -36h565
q162 0 242 36h16z" />
    <glyph glyph-name="uni0163" unicode="&#x163;" horiz-adv-x="712" 
d="M528 983l-118 -754q-27 -164 106 -163q74 0 137 24l11 -78q-63 -31 -162 -45l-68 -106q25 12 66 12q78 0 118.5 -39t26.5 -108q-14 -78 -102 -137.5t-215 -59.5q-100 0 -157.5 35t-47.5 84q4 27 26.5 46t49.5 19q33 0 48 -18.5t17 -41t23.5 -41t64.5 -18.5q129 0 154 105
q6 33 -14.5 55.5t-61.5 22.5q-57 0 -96 -33l-45 23l123 198q-213 14 -170 271l116 747h-176l8 53q143 47 213 118t129 220h58l-47 -303h286l-12 -88h-289z" />
    <glyph glyph-name="Tcaron" unicode="&#x164;" horiz-adv-x="1183" 
d="M1165 1786l-362 -256l-281 256l51 57l256 -143l304 143zM1350 1470l41 -335l-58 -23q-2 10 -9 25.5t-37 55.5t-73 70.5t-123.5 56.5t-181.5 26h-22l-205 -1176q-10 -53 14.5 -85t63.5 -38l-12 -47h-383l4 47q43 6 77.5 38t45.5 85l206 1176h-22q-102 0 -191.5 -24
t-144.5 -58.5t-95 -69.5t-57 -59l-18 -23l-51 23l162 335h16q66 -37 229 -36h566q162 0 239 36h19z" />
    <glyph glyph-name="tcaron" unicode="&#x165;" horiz-adv-x="1087" 
d="M1122 1470q66 0 95.5 -50t13.5 -124q-23 -115 -113 -249t-211 -213l-53 65q70 45 141.5 133t104.5 182l-4 5q-20 -4 -33 -5q-53 0 -84 36t-21 93q12 55 59.5 91t104.5 36zM602 1374l-53 -307l287 2l-15 -88l-286 -2l-134 -752q-16 -84 8.5 -122.5t96.5 -38.5q80 0 139 22
l8 -78q-94 -47 -223 -47q-119 0 -171 61.5t-26 208.5l129 746h-176l11 55q145 47 216.5 119t129.5 221h59z" />
    <glyph glyph-name="Tbar" unicode="&#x166;" horiz-adv-x="1183" 
d="M1339 1470l47 -335l-59 -23q-2 10 -9 25.5t-38 55.5t-73 70.5t-124 56.5t-182 26h-20l-95 -590h293l-10 -80h-295l-80 -506q-8 -53 16.5 -85t65.5 -38l-12 -47h-383l4 47q41 6 77 38t44 85l80 506h-295l12 80h295l94 590h-24q-100 0 -189.5 -24t-143.5 -58.5t-94 -69.5
t-57 -59l-16 -23l-51 23l155 335h15q68 -37 229 -36h565q162 0 242 36h16z" />
    <glyph glyph-name="tbar" unicode="&#x167;" horiz-adv-x="712" 
d="M817 983h-289l-57 -358h277l-13 -80h-276l-49 -316q-27 -164 106 -163q74 0 137 24l11 -78q-102 -49 -221 -49t-172.5 62.5t-28.5 210.5l49 309h-178l12 78h178l55 360h-176l8 53q143 47 213 118t129 220h58l-47 -303h286z" />
    <glyph glyph-name="Utilde" unicode="&#x168;" horiz-adv-x="1366" 
d="M1143 1628q-53 0 -127 59.5t-111 59.5q-66 0 -94 -88l-59 20q53 184 200 185q55 0 129 -58.5t111 -58.5q61 0 96 86l58 -18q-53 -187 -203 -187zM721 -37q-293 0 -404.5 165t-54.5 468l119 668q10 53 -13.5 84.5t-64.5 37.5l12 48h390l-5 -48q-43 -6 -77.5 -37.5
t-47.5 -84.5l-116 -668q-49 -250 21.5 -396.5t283.5 -146.5q221 0 331.5 143.5t151.5 399.5l113 659q8 49 -16.5 86t-67.5 45l12 48h295l-4 -48q-47 -10 -83 -44.5t-44 -86.5l-115 -661q-100 -631 -616 -631z" />
    <glyph glyph-name="utilde" unicode="&#x169;" 
d="M668 1382q-63 0 -95 -88l-59 21q27 92 80 138t121 46q55 0 130 -58.5t109 -58.5q66 0 97 86l57 -18q-53 -186 -201 -186q-55 0 -129.5 59t-109.5 59zM1255 94l27 -39q-88 -92 -217 -92q-70 0 -115 48t-18 177l4 25h-14q-166 -250 -408 -250q-203 0 -280.5 120t-12.5 345
l123 418q51 170 -49 170q-37 0 -88 -43l-25 39q100 94 217 94q72 0 116 -50t5 -179l-129 -457q-53 -170 -6 -263.5t188 -93.5q133 0 259 146.5t163 357.5q29 158 40.5 283t8.5 170l-2 47h205l-139 -846q-37 -168 66 -168q40 0 81 41z" />
    <glyph glyph-name="Umacron" unicode="&#x16a;" horiz-adv-x="1366" 
d="M750 1667l20 109h537l-21 -109h-536zM721 -37q-293 0 -404.5 165t-54.5 468l119 668q10 53 -13.5 84.5t-64.5 37.5l12 48h390l-5 -48q-43 -6 -77.5 -37.5t-47.5 -84.5l-116 -668q-49 -250 21.5 -396.5t283.5 -146.5q221 0 331.5 143.5t151.5 399.5l113 659q8 49 -16.5 86
t-67.5 45l12 48h295l-4 -48q-47 -10 -83 -44.5t-44 -86.5l-115 -661q-100 -631 -616 -631z" />
    <glyph glyph-name="umacron" unicode="&#x16b;" 
d="M1077 1411l-22 -108h-535l21 108h536zM1255 94l27 -39q-88 -92 -217 -92q-70 0 -115 48t-18 177l4 25h-14q-166 -250 -408 -250q-203 0 -280.5 120t-12.5 345l123 418q51 170 -49 170q-37 0 -88 -43l-25 39q100 94 217 94q72 0 116 -50t5 -179l-129 -457
q-53 -170 -6 -263.5t188 -93.5q133 0 259 146.5t163 357.5q29 158 40.5 283t8.5 170l-2 47h205l-139 -846q-37 -168 66 -168q40 0 81 41z" />
    <glyph glyph-name="Ubreve" unicode="&#x16c;" horiz-adv-x="1366" 
d="M1006 1587q-115 0 -174.5 57.5t-73.5 143.5l73 31q14 -47 66.5 -84t124.5 -37q70 0 136.5 37t94.5 84l66 -31q-104 -201 -313 -201zM721 -37q-293 0 -404.5 165t-54.5 468l119 668q10 53 -13.5 84.5t-64.5 37.5l12 48h390l-5 -48q-43 -6 -77.5 -37.5t-47.5 -84.5
l-116 -668q-49 -250 21.5 -396.5t283.5 -146.5q221 0 331.5 143.5t151.5 399.5l113 659q8 49 -16.5 86t-67.5 45l12 48h295l-4 -48q-47 -10 -83 -44.5t-44 -86.5l-115 -661q-100 -631 -616 -631z" />
    <glyph glyph-name="ubreve" unicode="&#x16d;" 
d="M801 1223q-113 0 -173.5 58t-72.5 142l72 31q14 -47 67.5 -84t124.5 -37q70 0 136.5 38t95.5 83l63 -31q-104 -200 -313 -200zM1255 94l27 -39q-88 -92 -217 -92q-70 0 -115 48t-18 177l4 25h-14q-166 -250 -408 -250q-203 0 -280.5 120t-12.5 345l123 418
q51 170 -49 170q-37 0 -88 -43l-25 39q100 94 217 94q72 0 116 -50t5 -179l-129 -457q-53 -170 -6 -263.5t188 -93.5q133 0 259 146.5t163 357.5q29 158 40.5 283t8.5 170l-2 47h205l-139 -846q-37 -168 66 -168q40 0 81 41z" />
    <glyph glyph-name="Uring" unicode="&#x16e;" horiz-adv-x="1366" 
d="M993 1538q-92 0 -145 63.5t-39 151.5q14 90 88 153.5t166 63.5q90 0 143.5 -63.5t38.5 -153.5q-14 -88 -89 -151.5t-163 -63.5zM1006 1628q53 0 96 37t51 88q8 53 -22.5 90t-81.5 37q-53 0 -95.5 -37t-50.5 -90q-10 -53 21 -89t82 -36zM721 -37q-293 0 -404.5 165
t-54.5 468l119 668q10 53 -13.5 84.5t-64.5 37.5l12 48h390l-5 -48q-43 -6 -77.5 -37.5t-47.5 -84.5l-116 -668q-49 -250 21.5 -396.5t283.5 -146.5q221 0 331.5 143.5t151.5 399.5l113 659q8 49 -16.5 86t-67.5 45l12 48h295l-4 -48q-47 -10 -83 -44.5t-44 -86.5l-115 -661
q-100 -631 -616 -631z" />
    <glyph glyph-name="uring" unicode="&#x16f;" 
d="M821 1174q-92 0 -144 63t-38 152q14 90 87 153.5t165 63.5q90 0 143 -63.5t39 -153.5q-14 -88 -89 -151.5t-163 -63.5zM733 1389q-10 -53 19.5 -89t83 -36t96.5 36.5t51 88.5q8 53 -22.5 90t-84 37t-94.5 -37t-49 -90zM1255 94l27 -39q-88 -92 -217 -92q-70 0 -115 48
t-18 177l4 25h-14q-166 -250 -408 -250q-203 0 -280.5 120t-12.5 345l123 418q51 170 -49 170q-37 0 -88 -43l-25 39q100 94 217 94q72 0 116 -50t5 -179l-129 -457q-53 -170 -6 -263.5t188 -93.5q133 0 259 146.5t163 357.5q29 158 40.5 283t8.5 170l-2 47h205l-139 -846
q-37 -168 66 -168q40 0 81 41z" />
    <glyph glyph-name="Uhungarumlaut" unicode="&#x170;" horiz-adv-x="1366" 
d="M899 1522l-65 28q94 174 133 244q33 68 96 68q31 2 47 -18.5t12 -45.5q-4 -29 -51 -86zM1155 1522l-63 28q92 174 131 244q37 68 96 68q33 2 48 -18.5t11 -45.5q-4 -31 -49 -86zM721 -37q-293 0 -404.5 165t-54.5 468l119 668q10 53 -13.5 84.5t-64.5 37.5l12 48h390
l-5 -48q-43 -6 -77.5 -37.5t-47.5 -84.5l-116 -668q-49 -250 21.5 -396.5t283.5 -146.5q221 0 331.5 143.5t151.5 399.5l113 659q8 49 -16.5 86t-67.5 45l12 48h295l-4 -48q-47 -10 -83 -44.5t-44 -86.5l-115 -661q-100 -631 -616 -631z" />
    <glyph glyph-name="uhungarumlaut" unicode="&#x171;" 
d="M834 1348l-172 -191l-66 29q94 174 133 244q33 68 96 67q31 2 47.5 -18.5t12.5 -44.5q-4 -29 -51 -86zM918 1157l-64 29q92 174 131 244q37 68 96 67q33 2 48.5 -18.5t11.5 -44.5q-4 -31 -49 -86zM1255 94l27 -39q-88 -92 -217 -92q-70 0 -115 48t-18 177l4 25h-14
q-166 -250 -408 -250q-203 0 -280.5 120t-12.5 345l123 418q51 170 -49 170q-37 0 -88 -43l-25 39q100 94 217 94q72 0 116 -50t5 -179l-129 -457q-53 -170 -6 -263.5t188 -93.5q133 0 259 146.5t163 357.5q29 158 40.5 283t8.5 170l-2 47h205l-139 -846q-37 -168 66 -168
q40 0 81 41z" />
    <glyph glyph-name="Uogonek" unicode="&#x172;" horiz-adv-x="1366" 
d="M1288 1434h295l-4 -48q-47 -10 -83 -44.5t-44 -86.5l-115 -661q-96 -612 -585 -631q-100 -72 -117 -168q-8 -61 26.5 -100t90.5 -39q94 0 166 98l57 -33q-104 -156 -281 -155q-100 0 -157.5 53t-42.5 143q18 113 137 205q-477 51 -369 629l119 668q10 53 -13.5 84.5
t-64.5 37.5l12 48h390l-5 -48q-43 -6 -77.5 -37.5t-47.5 -84.5l-116 -668q-49 -250 21.5 -396.5t283.5 -146.5q221 0 331.5 143.5t151.5 399.5l113 659q8 49 -16.5 86t-67.5 45z" />
    <glyph glyph-name="uogonek" unicode="&#x173;" 
d="M1225 -246l59 -33q-104 -156 -283 -155q-98 0 -155.5 53t-42.5 143q23 133 170 228q-70 51 -41 198l4 25h-14q-166 -250 -408 -250q-203 0 -280.5 120t-12.5 345l123 418q51 170 -49 170q-37 0 -88 -43l-25 39q100 94 217 94q72 0 116 -50t5 -179l-129 -457
q-53 -170 -6 -263.5t188 -93.5q133 0 259 146.5t163 357.5q29 158 40.5 283t8.5 170l-2 47h205l-139 -846q-37 -168 66 -168q41 0 81 41l27 -39q-88 -92 -217 -92h-6q-100 -74 -115 -168q-8 -61 26 -100t89 -39q98 0 166 98z" />
    <glyph glyph-name="Wcircumflex" unicode="&#x174;" horiz-adv-x="1968" 
d="M1247 1657l-303 -144l-33 58l363 256l280 -256l-51 -58zM1919 1434h285l-4 -48q-98 -12 -152 -120l-571 -1192q12 -23 34 -35l-12 -39q-125 0 -223 -29h-16l-125 1045h-13l-456 -942q12 -16 36 -35l-10 -39q-104 4 -223 -29h-14l-160 1295q-6 55 -38 84.5t-69 35.5l13 48
h385l-4 -48q-37 -6 -66 -36.5t-22 -83.5l131 -1055h8l477 983q-16 92 -74 129l17 47q109 41 215 100h12l152 -1257v-2h10l506 1055q23 61 8.5 87.5t-49.5 32.5z" />
    <glyph glyph-name="wcircumflex" unicode="&#x175;" horiz-adv-x="1871" 
d="M1233 1292l-305 -143l-31 57l363 256l280 -256l-51 -57zM1872 930q14 -113 -12.5 -289t-92.5 -315q-164 -362 -446 -363q-90 0 -170 59.5t-100 170.5h-15q-174 -229 -389 -230q-119 0 -205 82t-84 219q2 262 334 631l-6 12h-219q-188 4 -205 -98q-10 -41 25 -76l-39 -26
q-80 61 -60 161q6 76 78 139.5t211 59.5h422l6 -14q-4 -4 -33.5 -45t-46 -64.5t-51.5 -73t-57.5 -87.5t-53 -91t-51 -99t-40 -96.5t-30 -99.5t-10.5 -92q-2 -240 211 -239q90 0 194.5 108.5t175.5 254.5t73 255q4 70 -16.5 157t-20.5 144q0 47 29.5 84t83.5 37
q45 0 73.5 -38t28.5 -95q0 -63 -80 -270t-84 -371q-6 -266 197 -266q86 0 174 85t135 209q74 186 51 375q-4 47 -26.5 81t-48 50.5t-46 48t-22.5 74.5q0 47 29.5 82t85.5 35q61 0 99 -48t44 -128z" />
    <glyph glyph-name="Ycircumflex" unicode="&#x176;" horiz-adv-x="1230" 
d="M586 1513l-31 58l363 256l280 -256l-51 -58l-256 144zM401 0l5 47q43 6 77.5 38t44.5 85l93 524l-289 570q-57 111 -144 122l13 48h420l-3 -48q-43 -8 -63 -36.5t2 -85.5l227 -445h13l387 445q41 57 30.5 85.5t-49.5 36.5l15 48h311l-6 -48q-88 -12 -185 -122l-491 -570
l-92 -524q-10 -53 14.5 -85t65.5 -38l-13 -47h-383z" />
    <glyph glyph-name="ycircumflex" unicode="&#x177;" horiz-adv-x="1241" 
d="M840 1292l-303 -143l-33 57l362 256l281 -256l-51 -57zM1116 1106q66 0 98.5 -46t28.5 -110q-16 -152 -141 -422t-240 -454q-10 -18 -37.5 -60.5t-29.5 -44.5q-127 -207 -245 -316.5t-247 -109.5q-63 0 -104 35t-39 84t36.5 79t79.5 30q39 0 80 -28t58 -28q86 0 143 55.5
t150 202.5q-43 291 -91.5 494t-102.5 315.5t-110.5 161.5t-121.5 49q-72 0 -119 -45l-33 37q84 111 229 111q362 0 480 -893h12q215 356 237 567q4 41 -20.5 76t-50 72.5t-21.5 87.5q4 47 39 73.5t82 26.5z" />
    <glyph glyph-name="Ydieresis" unicode="&#x178;" horiz-adv-x="1230" 
d="M708.5 1634q-49.5 0 -76 32t-16.5 75q10 47 47 79.5t86.5 32.5t76 -32.5t16.5 -79.5q-8 -43 -46 -75t-87.5 -32zM1053 1634q-49 0 -75 32t-17 75q10 47 48 79.5t87 32.5t74.5 -32.5t15.5 -79.5q-8 -43 -46 -75t-87 -32zM401 0l5 47q43 6 77.5 38t44.5 85l93 524l-289 570
q-57 111 -144 122l13 48h420l-3 -48q-43 -8 -63 -36.5t2 -85.5l227 -445h13l387 445q41 57 30.5 85.5t-49.5 36.5l15 48h311l-6 -48q-88 -12 -185 -122l-491 -570l-92 -524q-10 -53 14.5 -85t65.5 -38l-13 -47h-383z" />
    <glyph glyph-name="Zacute" unicode="&#x179;" horiz-adv-x="1300" 
d="M956 1524l-43 45l215 237q51 51 99 52q33 0 48 -20.5t9 -47.5q-8 -47 -72 -88zM995 -231q-111 0 -248 35.5t-244.5 79.5t-239.5 80t-232 36l4 47l1182 1299h-359q-106 0 -199.5 -29t-151.5 -69t-101.5 -80t-61.5 -68l-16 -29l-52 21l132 378h14q68 -37 233 -36h826
l-4 -48l-1166 -1280q129 -27 371 -141.5t332 -114.5q178 0 178 95q0 20 -25.5 61t-25.5 76q0 49 30.5 81t77.5 32q49 0 84 -37t35 -95q0 -123 -103.5 -208.5t-269.5 -85.5z" />
    <glyph glyph-name="zacute" unicode="&#x17a;" horiz-adv-x="1355" 
d="M748 1159l-43 45l213 238q51 51 98 51q33 0 48 -20.5t11 -47.5q-10 -45 -71 -88zM133 -37q-39 0 -43 39q-2 51 58.5 116.5t152.5 102.5l774 598v12q-78 16 -217 101.5t-240 85.5q-63 0 -97 -38t-43 -83t-37.5 -83t-82.5 -38q-49 0 -82.5 30t-33.5 77q0 98 103.5 160.5
t225.5 62.5q139 0 313.5 -51t286.5 -51q45 0 99.5 34.5t81.5 67.5h14l35 -39q-31 -66 -83 -128t-94 -100t-110 -91q-324 -258 -668 -517v-12q121 -14 292 -91t266 -77q76 0 117.5 26.5t41.5 74.5q0 20 -27.5 60t-27.5 79q0 55 33 88t84 33q53 0 89 -37t36 -96
q0 -133 -103.5 -224.5t-261.5 -91.5t-334 49t-295 49q-70 0 -111.5 -24.5t-64 -49t-47.5 -24.5z" />
    <glyph glyph-name="Zdotaccent" unicode="&#x17b;" horiz-adv-x="1300" 
d="M950 1645q-49 0 -75.5 30.5t-18.5 75.5q6 47 42 79t85 32t75.5 -32t20.5 -79q-8 -45 -44 -75.5t-85 -30.5zM995 -231q-111 0 -248 35.5t-244.5 79.5t-239.5 80t-232 36l4 47l1182 1299h-359q-106 0 -199.5 -29t-151.5 -69t-101.5 -80t-61.5 -68l-16 -29l-52 21l132 378
h14q68 -37 233 -36h826l-4 -48l-1166 -1280q129 -27 371 -141.5t332 -114.5q178 0 178 95q0 20 -25.5 61t-25.5 76q0 49 30.5 81t77.5 32q49 0 84 -37t35 -95q0 -123 -103.5 -208.5t-269.5 -85.5z" />
    <glyph glyph-name="zdotaccent" unicode="&#x17c;" horiz-adv-x="1355" 
d="M905 1280q-49 0 -75.5 31.5t-18.5 74.5q6 47 42 79t85 32t76.5 -31.5t19.5 -79.5q-6 -45 -43 -75.5t-86 -30.5zM133 -37q-39 0 -43 39q-2 51 58.5 116.5t152.5 102.5l774 598v12q-78 16 -217 101.5t-240 85.5q-63 0 -97 -38t-43 -83t-37.5 -83t-82.5 -38q-49 0 -82.5 30
t-33.5 77q0 98 103.5 160.5t225.5 62.5q139 0 313.5 -51t286.5 -51q45 0 99.5 34.5t81.5 67.5h14l35 -39q-31 -66 -83 -128t-94 -100t-110 -91q-324 -258 -668 -517v-12q121 -14 292 -91t266 -77q76 0 117.5 26.5t41.5 74.5q0 20 -27.5 60t-27.5 79q0 55 33 88t84 33
q53 0 89 -37t36 -96q0 -133 -103.5 -224.5t-261.5 -91.5t-334 49t-295 49q-70 0 -111.5 -24.5t-64 -49t-47.5 -24.5z" />
    <glyph glyph-name="Zcaron" unicode="&#x17d;" horiz-adv-x="1300" 
d="M940 1530l-281 256l52 57l256 -143l303 143l33 -57zM995 -231q-111 0 -248 35.5t-244.5 79.5t-239.5 80t-232 36l4 47l1182 1299h-359q-106 0 -199.5 -29t-151.5 -69t-101.5 -80t-61.5 -68l-16 -29l-52 21l132 378h14q68 -37 233 -36h826l-4 -48l-1166 -1280
q129 -27 371 -141.5t332 -114.5q178 0 178 95q0 20 -25.5 61t-25.5 76q0 49 30.5 81t77.5 32q49 0 84 -37t35 -95q0 -123 -103.5 -208.5t-269.5 -85.5z" />
    <glyph glyph-name="zcaron" unicode="&#x17e;" horiz-adv-x="1355" 
d="M907 1165l-282 256l51 58l258 -144l303 144l33 -58zM133 -37q-39 0 -43 39q-2 51 58.5 116.5t152.5 102.5l774 598v12q-78 16 -217 101.5t-240 85.5q-63 0 -97 -38t-43 -83t-37.5 -83t-82.5 -38q-49 0 -82.5 30t-33.5 77q0 98 103.5 160.5t225.5 62.5q139 0 313.5 -51
t286.5 -51q45 0 99.5 34.5t81.5 67.5h14l35 -39q-31 -66 -83 -128t-94 -100t-110 -91q-324 -258 -668 -517v-12q121 -14 292 -91t266 -77q76 0 117.5 26.5t41.5 74.5q0 20 -27.5 60t-27.5 79q0 55 33 88t84 33q53 0 89 -37t36 -96q0 -133 -103.5 -224.5t-261.5 -91.5
t-334 49t-295 49q-70 0 -111.5 -24.5t-64 -49t-47.5 -24.5z" />
    <glyph glyph-name="longs" unicode="&#x17f;" horiz-adv-x="430" 
d="M649 1563q76 0 135.5 -28t59.5 -79q0 -31 -22.5 -50.5t-57.5 -19.5q-49 0 -83 45.5t-73 45.5q-37 0 -67.5 -47.5t-46.5 -137.5l-213 -1304q-39 -233 -139.5 -338t-301.5 -105q-63 0 -126.5 28t-63.5 83q0 37 23.5 56.5t58.5 19.5q49 0 94 -49.5t86 -49.5q61 0 106 53.5
t62 153.5l190 1143l-168 -2l17 88h166l18 109q63 385 346 385z" />
    <glyph glyph-name="florin" unicode="&#x192;" horiz-adv-x="1028" 
d="M1059 1470q74 0 129 -26.5t49 -75.5q-4 -31 -29.5 -49.5t-56.5 -18.5q-49 0 -76.5 40t-64.5 40q-80 0 -131 -161l-84 -267h254l-17 -112h-272l-217 -684q-68 -227 -161 -324.5t-271 -97.5q-78 0 -136.5 30.5t-52.5 83.5q12 70 88 70q33 0 52.5 -15.5t27.5 -32.5
t25.5 -32.5t46.5 -15.5q104 0 157 170l269 848h-248l18 112h267l47 152q111 366 387 366z" />
    <glyph glyph-name="Aringacute" unicode="&#x1fa;" horiz-adv-x="1318" 
d="M885 1538q-92 0 -145.5 63.5t-39.5 151.5q18 127 140 189l196 217q49 53 99 53q33 0 48 -21.5t9 -48.5q-8 -49 -70 -86l-129 -90q74 -14 115 -73.5t29 -139.5q-14 -88 -89 -151.5t-163 -63.5zM795 1753q-8 -53 21.5 -89t82.5 -36t95 37t50 88q8 53 -21.5 90t-82.5 37
t-94 -37t-51 -90zM1214 168q23 -104 119 -123l-12 -45h-385l4 45q37 8 62.5 39t15.5 84l-47 248h-557l-135 -248q-27 -61 -13.5 -88t45.5 -35l-12 -45h-285l4 45q106 18 162 123l592 1087q-33 25 -82 35l10 47q139 59 248 127h15zM475 530h473l-121 625q0 4 -2 6h-6z" />
    <glyph glyph-name="aringacute" unicode="&#x1fb;" horiz-adv-x="1255" 
d="M844 1174q-92 0 -145.5 63t-39.5 152q8 61 47 111t95 79l188 209q51 51 98 51q33 0 48.5 -20.5t9.5 -46.5q-8 -45 -70 -89l-119 -81q72 -16 112 -76t28 -137q-14 -88 -89 -151.5t-163 -63.5zM754 1389q-8 -53 21.5 -89t82.5 -36t95 36.5t51 88.5q8 53 -22 90t-83 37
t-94 -37t-51 -90zM1176 53q37 0 81 41l27 -39q-88 -92 -217 -92q-70 0 -115 48t-20 177l4 19h-8q-68 -111 -170.5 -177.5t-206.5 -66.5q-178 0 -283.5 112.5t-105.5 313.5q0 176 73.5 339t218 270.5t324.5 107.5q184 0 289 -121h6l19 84h206q-63 -131 -106 -373l-84 -475
q-36 -168 68 -168zM598 66q115 0 217.5 99t153.5 234l82 467q-39 68 -104.5 104t-137.5 36q-152 0 -262.5 -93.5t-162.5 -231.5t-52 -298t75.5 -238.5t190.5 -78.5z" />
    <glyph glyph-name="uni0218" unicode="&#x218;" horiz-adv-x="1335" 
d="M858 1470q242 0 386.5 -119.5t123.5 -240.5q-8 -39 -33.5 -65.5t-64.5 -26.5q-59 0 -86 38t-39 91t-32.5 107.5t-88.5 92t-184 37.5q-150 0 -237 -65.5t-105 -177.5q-20 -121 61.5 -184.5t259.5 -122.5q82 -29 144.5 -55.5t130 -71.5t106.5 -94.5t58.5 -122t3.5 -156.5
q-33 -176 -191 -273.5t-385 -97.5q-279 0 -425 116t-124 247q16 98 115 98q57 0 87 -39t45 -93t40 -109.5t95.5 -94.5t189.5 -39q152 0 248 64.5t116 181.5q25 145 -66.5 230t-277.5 147q-104 35 -177 70.5t-138.5 89t-90 127t-8.5 167.5q27 152 171.5 248t371.5 96z
M692 -106q68 0 97.5 -49.5t13.5 -125.5q-23 -115 -113 -248t-211 -214l-53 67q70 45 140.5 132t103.5 182l-4 6q-14 -6 -31 -6q-53 0 -85 36.5t-20 94.5q12 55 58.5 90t103.5 35z" />
    <glyph glyph-name="uni0219" unicode="&#x219;" horiz-adv-x="1134" 
d="M717 1018q-115 0 -200 -52.5t-95 -134.5q-8 -61 42 -104t96 -57.5t138 -34.5l27 -6q76 -16 119 -27.5t104.5 -38t92 -60.5t50 -91.5t9.5 -132.5q-14 -125 -147.5 -220.5t-356.5 -95.5q-207 0 -340 85t-123 183q10 90 96 91q43 0 65.5 -28t36 -68t34 -80t77 -67.5
t148.5 -27.5q131 0 225 56.5t109 148.5q4 37 -3.5 67.5t-33 53t-47 37t-68.5 29t-71.5 20.5t-79.5 18q-72 16 -112 28.5t-101.5 39t-92 58.5t-51 84t-12.5 120q14 123 143 209t324 86q182 0 295.5 -76t103.5 -170q-4 -37 -24.5 -62.5t-59.5 -25.5q-45 0 -64.5 25.5
t-24.5 61.5t-18.5 72t-64.5 61.5t-145 25.5zM621 -106q68 0 96 -49.5t14 -125.5q-23 -115 -113 -248t-210 -214l-54 67q68 47 139.5 134t104.5 180l-4 6q-16 -6 -31 -6q-53 0 -85 36.5t-19 94.5q10 55 57.5 90t104.5 35z" />
    <glyph glyph-name="uni021A" unicode="&#x21a;" horiz-adv-x="1183" 
d="M1350 1470l41 -335l-58 -23q-2 10 -9 25.5t-37 55.5t-73 70.5t-123.5 56.5t-181.5 26h-22l-205 -1176q-10 -53 14.5 -85t63.5 -38l-12 -47h-383l4 47q43 6 77.5 38t45.5 85l206 1176h-22q-102 0 -191.5 -24t-144.5 -58.5t-95 -69.5t-57 -59l-18 -23l-51 23l162 335h16
q66 -37 229 -36h566q162 0 239 36h19zM530 -106q68 0 96.5 -49.5t14.5 -125.5q-23 -115 -113 -248t-211 -214l-53 67q68 47 139.5 134t104.5 180l-4 6q-16 -6 -31 -6q-53 0 -85 36.5t-19 94.5q10 55 57 90t104 35z" />
    <glyph glyph-name="uni021B" unicode="&#x21b;" horiz-adv-x="712" 
d="M535 979l-134 -752q-16 -84 8.5 -122.5t96.5 -38.5q80 0 139 22l8 -78q-94 -47 -223 -47q-119 0 -171 61.5t-26 208.5l129 746h-176l11 55q145 47 216.5 119t129.5 221h59l-53 -307l287 2l-15 -88zM434 -106q68 0 96.5 -49.5t14.5 -125.5q-23 -115 -113 -248t-211 -214
l-53 67q68 47 139.5 134t104.5 180l-4 6q-14 -6 -31 -6q-53 0 -85 36.5t-20 94.5q10 55 57.5 90t104.5 35z" />
    <glyph glyph-name="uni0237" unicode="&#x237;" horiz-adv-x="309" 
d="M-186 -455q-78 0 -142.5 33t-62.5 88q2 70 78 70q51 0 94 -51.5t90 -51.5t85 36t50 108l172 1022q8 53 -18.5 84.5t-67.5 38.5l12 45q176 29 275 147l24 -8l-202 -1182q-39 -203 -124 -291t-263 -88z" />
    <glyph glyph-name="uni02B0" unicode="&#x2b0;" horiz-adv-x="495" 
d="M625 895l8 -21q-43 -37 -101 -36q-88 0 -65 96l45 201q14 61 -5.5 97t-68.5 36t-98 -54.5t-66 -130.5l-12 -69q-4 -31 -7 -58.5t-4 -46t-1 -32v-19.5v-6h-111l90 522q12 51 -36 60l8 24q94 18 139 68l10 -4l-53 -299h8q70 100 172 100q80 0 116 -51t13 -144l-41 -174
q-18 -72 27 -71q13 0 33 12z" />
    <glyph glyph-name="circumflex" unicode="&#x2c6;" horiz-adv-x="954" 
d="M403 1149l-32 57l362 256l281 -256l-51 -57l-256 143z" />
    <glyph glyph-name="caron" unicode="&#x2c7;" horiz-adv-x="954" 
d="M727 1165l-281 256l52 58l256 -144l303 144l33 -58z" />
    <glyph glyph-name="uni02C9" unicode="&#x2c9;" horiz-adv-x="868" 
d="M381 1303l18 108h535l-19 -108h-534z" />
    <glyph glyph-name="breve" unicode="&#x2d8;" horiz-adv-x="866" 
d="M649 1223q-113 0 -173 58t-73 142l72 31q14 -47 67.5 -84t125.5 -37q70 0 136 38t95 83l64 -31q-105 -200 -314 -200z" />
    <glyph glyph-name="dotaccent" unicode="&#x2d9;" horiz-adv-x="608" 
d="M526 1280q-49 0 -75.5 31.5t-18.5 74.5q6 47 42 79t85 32q51 0 78 -31.5t18 -79.5q-6 -45 -43 -75.5t-86 -30.5z" />
    <glyph glyph-name="ring" unicode="&#x2da;" horiz-adv-x="817" 
d="M592 1174q-92 0 -145.5 63t-38.5 152q14 90 87.5 153.5t166.5 63.5q90 0 143 -63.5t39 -153.5q-14 -88 -89 -151.5t-163 -63.5zM604 1264q53 0 96 36.5t52 88.5q8 53 -23 90t-82 37q-53 0 -95 -37t-50 -90q-10 -53 20.5 -89t81.5 -36z" />
    <glyph glyph-name="ogonek" unicode="&#x2db;" horiz-adv-x="688" 
d="M403 -434q-98 0 -155.5 53t-42.5 143q14 82 83.5 156t170.5 117l65 -35q-74 -35 -122 -89t-56 -115.5t26 -100.5t89 -39q98 0 166 98l59 -33q-105 -155 -283 -155z" />
    <glyph glyph-name="tilde" unicode="&#x2dc;" horiz-adv-x="894" 
d="M774 1264q-55 0 -130 59t-109 59q-63 0 -95 -88l-59 21q27 92 80 138t121 46q55 0 129.5 -58.5t109.5 -58.5q66 0 97 86l57 -18q-54 -186 -201 -186z" />
    <glyph glyph-name="hungarumlaut" unicode="&#x2dd;" horiz-adv-x="628" 
d="M467 1157l-64 29l132 244q37 68 98 67q33 2 47 -18.5t10 -44.5q-4 -31 -49 -86zM725 1157l-66 29q94 174 134 244q35 68 96 67q31 2 47 -18.5t12 -44.5q-4 -29 -51 -86z" />
    <glyph glyph-name="uni0394" unicode="&#x394;" horiz-adv-x="1294" 
d="M25 0l833 1434h111l258 -1434h-1202zM166 86h842l-201 1100z" />
    <glyph glyph-name="uni03A9" unicode="&#x3a9;" horiz-adv-x="1609" 
d="M141 -39l-37 348l60 21q57 -174 342 -174h57l2 6q-172 168 -247.5 344t-32.5 383q51 256 269 418.5t527.5 162.5t461 -161.5t97.5 -419.5q-43 -209 -189 -385t-388 -342v-6h59q82 0 154 17t114 37.5t77.5 50.5t47 43t19.5 26l51 -21l-172 -348h-16q-27 16 -42.5 22.5
t-45 11.5t-78.5 5h-359l19 115q250 199 372.5 373t168.5 393q47 236 -38 370.5t-329 134.5q-469 0 -571 -505q-45 -219 6 -393.5t215 -372.5l-19 -115h-356q-104 0 -182 -39h-17z" />
    <glyph glyph-name="uni03BC" unicode="&#x3bc;" horiz-adv-x="1173" 
d="M1065 66q41 0 86 24l8 -78q-78 -49 -184 -49q-164 0 -131 182h-6q-164 -180 -359 -180q-137 0 -213 49q2 -51 16.5 -158.5t6.5 -146.5q-12 -59 -54 -94t-93.5 -35t-79 37t-17.5 96l125 604q2 16 10 64l115 571h168l-115 -577q-37 -164 14.5 -238t182.5 -74q117 0 211 76
t127 195l123 618h168l-154 -770q-25 -116 45 -116z" />
    <glyph glyph-name="pi" unicode="&#x3c0;" horiz-adv-x="1204" 
d="M625 950h706l-2 -16q-33 -41 -55.5 -63.5t-81.5 -47t-139 -24.5l-125 -621q-25 -117 45 -117q35 0 82 25l8 -74q-72 -49 -178 -49q-162 0 -125 187l129 638h-232l-94 -458q-37 -178 -125 -272.5t-207 -94.5q-68 0 -114.5 33t-38.5 88q8 35 38.5 60.5t65.5 25.5
q27 0 43.5 -15.5t22.5 -35t20.5 -34.5t38.5 -15q49 0 92 41t60 120l114 557h-47q-74 0 -125 -40.5t-63 -106.5h-68q23 119 107 214t248 95z" />
    <glyph glyph-name="Wgrave" unicode="&#x1e80;" horiz-adv-x="1968" 
d="M936 1702q-45 45 -37 88q6 29 29.5 48.5t56.5 19.5q51 0 78 -52l119 -239l-60 -43zM1919 1434h285l-4 -48q-98 -12 -152 -120l-571 -1192q12 -23 34 -35l-12 -39q-125 0 -223 -29h-16l-125 1045h-13l-456 -942q12 -16 36 -35l-10 -39q-104 4 -223 -29h-14l-160 1295
q-6 55 -38 84.5t-69 35.5l13 48h385l-4 -48q-37 -6 -66 -36.5t-22 -83.5l131 -1055h8l477 983q-16 92 -74 129l17 47q109 41 215 100h12l152 -1257v-2h10l506 1055q23 61 8.5 87.5t-49.5 32.5z" />
    <glyph glyph-name="wgrave" unicode="&#x1e81;" horiz-adv-x="1822" 
d="M1085 1159l-186 178q-43 47 -35 88q4 27 27.5 47.5t56.5 20.5q49 0 80 -51l119 -240zM1823 930q14 -113 -12.5 -289t-92.5 -315q-164 -362 -446 -363q-90 0 -170 59.5t-101 170.5h-14q-174 -229 -389 -230q-119 0 -205 82t-84 219q2 262 334 631l-6 12h-219
q-188 4 -205 -98q-10 -41 25 -76l-39 -26q-80 61 -60 161q6 76 78 139.5t211 59.5h422l6 -14q-4 -4 -33.5 -45t-46 -64.5t-51.5 -73t-57.5 -87.5t-53 -91t-51 -99t-40 -96.5t-30 -99.5t-10.5 -92q-2 -240 211 -239q90 0 194.5 108.5t175.5 254.5t73 255q4 70 -16.5 157
t-20.5 144q0 47 29.5 84t82.5 37q45 0 74 -38t29 -95q0 -63 -80 -270t-84 -371q-6 -266 197 -266q86 0 174 85t135 209q74 186 51 375q-4 47 -26.5 81t-48 50.5t-46 48t-22.5 74.5q0 47 29.5 82t84.5 35q61 0 99.5 -48t44.5 -128z" />
    <glyph glyph-name="Wacute" unicode="&#x1e82;" horiz-adv-x="1968" 
d="M1315 1702l-256 -178l-43 45l215 237q47 51 98 52q33 0 47.5 -19.5t9.5 -48.5q-8 -43 -71 -88zM1919 1434h285l-4 -48q-98 -12 -152 -120l-571 -1192q12 -23 34 -35l-12 -39q-125 0 -223 -29h-16l-125 1045h-13l-456 -942q12 -16 36 -35l-10 -39q-104 4 -223 -29h-14
l-160 1295q-6 55 -38 84.5t-69 35.5l13 48h385l-4 -48q-37 -6 -66 -36.5t-22 -83.5l131 -1055h8l477 983q-16 92 -74 129l17 47q109 41 215 100h12l152 -1257v-2h10l506 1055q23 61 8.5 87.5t-49.5 32.5z" />
    <glyph glyph-name="wacute" unicode="&#x1e83;" horiz-adv-x="1822" 
d="M1430 1337l-256 -178l-44 45l213 238q51 51 99 51q33 0 48 -20.5t11 -47.5q-8 -43 -71 -88zM1823 930q14 -113 -12.5 -289t-92.5 -315q-164 -362 -446 -363q-90 0 -170 59.5t-101 170.5h-14q-174 -229 -389 -230q-119 0 -205 82t-84 219q2 262 334 631l-6 12h-219
q-188 4 -205 -98q-10 -41 25 -76l-39 -26q-80 61 -60 161q6 76 78 139.5t211 59.5h422l6 -14q-4 -4 -33.5 -45t-46 -64.5t-51.5 -73t-57.5 -87.5t-53 -91t-51 -99t-40 -96.5t-30 -99.5t-10.5 -92q-2 -240 211 -239q90 0 194.5 108.5t175.5 254.5t73 255q4 70 -16.5 157
t-20.5 144q0 47 29.5 84t82.5 37q45 0 74 -38t29 -95q0 -63 -80 -270t-84 -371q-6 -266 197 -266q86 0 174 85t135 209q74 186 51 375q-4 47 -26.5 81t-48 50.5t-46 48t-22.5 74.5q0 47 29.5 82t84.5 35q61 0 99.5 -48t44.5 -128z" />
    <glyph glyph-name="Wdieresis" unicode="&#x1e84;" horiz-adv-x="1968" 
d="M1036 1634q-49 0 -75.5 32t-18.5 75q10 47 49 79.5t86 32.5q49 0 76 -32.5t16 -79.5q-10 -43 -47 -75t-86 -32zM1380.5 1634q-49.5 0 -75 32t-17.5 75q10 47 47 79.5t86 32.5t76 -32.5t16 -79.5q-8 -43 -45.5 -75t-87 -32zM1919 1434h285l-4 -48q-98 -12 -152 -120
l-571 -1192q12 -23 34 -35l-12 -39q-125 0 -223 -29h-16l-125 1045h-13l-456 -942q12 -16 36 -35l-10 -39q-104 4 -223 -29h-14l-160 1295q-6 55 -38 84.5t-69 35.5l13 48h385l-4 -48q-37 -6 -66 -36.5t-22 -83.5l131 -1055h8l477 983q-16 92 -74 129l17 47q109 41 215 100
h12l152 -1257v-2h10l506 1055q23 61 8.5 87.5t-49.5 32.5z" />
    <glyph glyph-name="wdieresis" unicode="&#x1e85;" horiz-adv-x="1822" 
d="M1030 1270q-47 0 -73.5 31.5t-18.5 74.5q10 47 47 80t86 33t76 -33t16 -80q-8 -43 -46 -74.5t-87 -31.5zM1374 1270q-49 0 -74.5 31.5t-17.5 74.5q10 47 48 80t87 33t75 -33t15 -80q-8 -43 -46 -74.5t-87 -31.5zM1823 930q14 -113 -12.5 -289t-92.5 -315
q-164 -362 -446 -363q-90 0 -170 59.5t-101 170.5h-14q-174 -229 -389 -230q-119 0 -205 82t-84 219q2 262 334 631l-6 12h-219q-188 4 -205 -98q-10 -41 25 -76l-39 -26q-80 61 -60 161q6 76 78 139.5t211 59.5h422l6 -14q-4 -4 -33.5 -45t-46 -64.5t-51.5 -73t-57.5 -87.5
t-53 -91t-51 -99t-40 -96.5t-30 -99.5t-10.5 -92q-2 -240 211 -239q90 0 194.5 108.5t175.5 254.5t73 255q4 70 -16.5 157t-20.5 144q0 47 29.5 84t82.5 37q45 0 74 -38t29 -95q0 -63 -80 -270t-84 -371q-6 -266 197 -266q86 0 174 85t135 209q74 186 51 375q-4 47 -26.5 81
t-48 50.5t-46 48t-22.5 74.5q0 47 29.5 82t84.5 35q61 0 99.5 -48t44.5 -128z" />
    <glyph glyph-name="endash" unicode="&#x2013;" horiz-adv-x="569" 
d="M72 449l24 131h594l-24 -131h-594z" />
    <glyph glyph-name="emdash" unicode="&#x2014;" horiz-adv-x="755" 
d="M72 449l24 131h778l-24 -131h-778z" />
    <glyph glyph-name="quoteleft" unicode="&#x2018;" horiz-adv-x="634" 
d="M735 1409q-70 -49 -140.5 -135t-102.5 -180l4 -7q14 6 32 7q53 0 84 -36t21 -95q-10 -53 -58.5 -89t-103.5 -36q-68 0 -96.5 49t-16.5 125q23 115 114 249t212 214z" />
    <glyph glyph-name="quoteright" unicode="&#x2019;" horiz-adv-x="634" 
d="M557 1470q68 0 96.5 -49t14.5 -125q-23 -115 -113 -249t-211 -213l-55 65q70 45 141.5 133t106.5 182l-5 5q-20 -4 -32 -5q-55 0 -86 36t-19 93q12 55 58.5 91t103.5 36z" />
    <glyph glyph-name="quotesinglbase" unicode="&#x201a;" horiz-adv-x="700" 
d="M422 219q68 0 96.5 -49t13.5 -125q-23 -115 -113.5 -248t-211.5 -215l-51 68q70 47 140.5 134t102.5 181l-2 4q-16 -6 -32 -6q-53 0 -85 37t-20 94q10 55 57.5 90t104.5 35z" />
    <glyph glyph-name="quotedblleft" unicode="&#x201c;" horiz-adv-x="995" 
d="M735 1409q-70 -49 -140.5 -135t-102.5 -180l4 -7q14 6 32 7q53 0 84 -36t21 -95q-10 -53 -58.5 -89t-103.5 -36q-68 0 -96.5 49t-16.5 125q23 115 114 249t212 214zM1102 1409q-70 -47 -140.5 -134t-103.5 -181l4 -4q20 4 31 4q55 0 86 -36t18 -95q-10 -53 -57 -89
t-104 -36q-68 0 -96.5 49t-14.5 125q23 115 113 249t211 214z" />
    <glyph glyph-name="quotedblright" unicode="&#x201d;" horiz-adv-x="995" 
d="M557 1470q68 0 96.5 -49t14.5 -125q-23 -115 -113 -249t-211 -213l-55 65q70 45 141.5 133t106.5 182l-5 5q-20 -4 -32 -5q-55 0 -86 36t-19 93q12 55 58.5 91t103.5 36zM922 1470q68 0 97.5 -49t14.5 -125q-25 -117 -116 -250t-209 -212l-52 65q70 47 140.5 134
t103.5 181l-4 5q-20 -4 -33 -5q-53 0 -83.5 36t-20.5 93q12 55 59.5 91t102.5 36z" />
    <glyph glyph-name="quotedblbase" unicode="&#x201e;" horiz-adv-x="1058" 
d="M422 219q68 0 96.5 -49t13.5 -125q-23 -115 -113.5 -248t-211.5 -215l-51 68q70 47 140.5 134t102.5 181l-2 4q-16 -6 -32 -6q-53 0 -85 37t-20 94q10 55 57.5 90t104.5 35zM786 219q68 0 97.5 -49t13.5 -125q-23 -115 -113 -248t-211 -215l-53 68q70 45 140.5 133
t103.5 182l-2 4q-18 -6 -35 -6q-53 0 -84 37t-18 94q12 55 58 90t103 35z" />
    <glyph glyph-name="dagger" unicode="&#x2020;" horiz-adv-x="1200" 
d="M504 0q129 670 112 911q51 76 93 148l-2 6q-84 -10 -163 -31.5t-112 -21.5q-41 0 -61.5 21.5t-14.5 56.5q16 78 107 77q33 0 105.5 -17t152.5 -28l4 4q8 78 1 145.5t-1 102.5q10 47 39 71.5t63 24.5q37 0 55.5 -24.5t8.5 -71.5q-6 -37 -41 -104.5t-59 -143.5l4 -4
q84 10 163.5 27.5t112.5 17.5q41 0 61.5 -20.5t12.5 -56.5q-6 -35 -35 -56.5t-70 -21.5q-33 0 -104.5 21.5t-149.5 31.5l-6 -6l33 -148q-117 -252 -254 -911h-55z" />
    <glyph glyph-name="daggerdbl" unicode="&#x2021;" horiz-adv-x="1255" 
d="M571 -37q-37 0 -55 24.5t-10 71.5q6 29 41 98.5t61 155.5l-2 4q-86 -10 -166 -31.5t-110 -21.5q-41 0 -61.5 21.5t-14.5 56.5q8 37 36.5 58.5t71.5 21.5q31 0 100.5 -21.5t151.5 -31.5l4 6q8 37 9.5 122t-0.5 152l-4 68q117 258 133 340l-2 6q-84 -10 -163 -30.5
t-110 -20.5q-43 0 -63.5 21.5t-14.5 56.5q16 78 109 77q33 0 104.5 -17t151.5 -28l6 4q6 78 -1 145.5t-1 102.5q20 96 105 96q82 0 61 -96q-6 -35 -40 -102.5t-58 -145.5l2 -4q84 10 163.5 27.5t112.5 17.5q41 0 61.5 -21.5t12.5 -55.5q-14 -78 -105 -78q-33 0 -103.5 20.5
t-149.5 30.5l-7 -6q-8 -35 -8 -120t4 -153l2 -67q-119 -260 -135 -342l4 -6q82 10 162 31.5t113 21.5q41 0 61.5 -22.5t11.5 -57.5q-6 -35 -34.5 -56.5t-69.5 -21.5q-33 0 -104.5 21.5t-153.5 31.5l-6 -4q-6 -82 1 -159.5t-1 -94.5q-21 -96 -103 -96z" />
    <glyph glyph-name="bullet" unicode="&#x2022;" horiz-adv-x="671" 
d="M381 295q-94 0 -148.5 66.5t-35.5 162.5q18 94 98 162t176 68t151.5 -68t34.5 -162q-18 -96 -99 -162.5t-177 -66.5z" />
    <glyph glyph-name="ellipsis" unicode="&#x2026;" horiz-adv-x="1640" 
d="M291 -37q-53 0 -86 38t-23 97q12 59 58.5 96t103.5 37q53 0 86 -37.5t23 -95.5q-12 -59 -58.5 -97t-103.5 -38zM799 -37q-53 0 -86 38t-23 97q12 59 58.5 96t103.5 37q53 0 86 -37.5t23 -95.5q-12 -59 -58.5 -97t-103.5 -38zM1307 -37q-53 0 -86 38t-23 97q12 59 58.5 96
t103.5 37q53 0 86 -37.5t22 -95.5q-12 -59 -58 -97t-103 -38z" />
    <glyph glyph-name="perthousand" unicode="&#x2030;" horiz-adv-x="2377" 
d="M438 705q-162 0 -245.5 113.5t-53.5 271.5q33 166 156 273t289 107q158 0 239.5 -110.5t48.5 -274.5q-31 -160 -153.5 -270t-280.5 -110zM317 0l963 1434h109l-965 -1434h-107zM451 784q92 0 166.5 86t99.5 211q27 131 -15.5 217t-134.5 86q-96 0 -169.5 -82.5
t-100.5 -216.5q-25 -125 17.5 -213t136.5 -88zM1128 -37q-162 0 -245.5 112.5t-53.5 270.5q33 166 155 273.5t290 107.5q158 0 240.5 -111.5t50.5 -273.5q-31 -160 -154 -269.5t-283 -109.5zM1968 -37q-162 0 -246 112.5t-53 270.5q35 166 157 273.5t288 107.5
q158 0 240.5 -111.5t49.5 -273.5q-31 -160 -153.5 -269.5t-282.5 -109.5zM1141 41q92 0 165.5 86t98.5 211q27 131 -15 217t-133 86q-96 0 -169.5 -83t-100.5 -214q-25 -125 17.5 -214t136.5 -89zM1980 41q92 0 167 86t100 211q27 131 -15.5 217t-134.5 86q-96 0 -170 -83
t-100 -214q-25 -125 17 -214t136 -89z" />
    <glyph glyph-name="guilsinglleft" unicode="&#x2039;" horiz-adv-x="620" 
d="M461 23l-314 413l19 92l479 414l41 -29l-332 -432l158 -430z" />
    <glyph glyph-name="guilsinglright" unicode="&#x203a;" horiz-adv-x="620" 
d="M166 23l-39 28l330 430l-156 432l51 29l312 -414l-17 -92z" />
    <glyph glyph-name="fraction" unicode="&#x2044;" horiz-adv-x="342" 
d="M-111 0l807 1434h76l-807 -1434h-76z" />
    <glyph glyph-name="uni2070" unicode="&#x2070;" horiz-adv-x="458" 
d="M322 858q-109 0 -152 81t-22.5 212t90 212t176 81t150.5 -82t24 -211q-18 -129 -89 -211t-177 -82zM330 903q119 0 157 248q41 250 -79 250q-119 0 -160 -250q-39 -248 82 -248z" />
    <glyph glyph-name="uni2074" unicode="&#x2074;" horiz-adv-x="444" 
d="M483 1016l-10 -66q-8 -39 41 -55l-4 -21h-201l-2 21q59 16 66 57l10 64h-244l4 31l330 387h76l-60 -377h93l-19 -41h-80zM203 1057h186l41 262h-4l-223 -260v-2z" />
    <glyph glyph-name="uni2075" unicode="&#x2075;" horiz-adv-x="421" 
d="M537 1352h-246l-41 -131q43 16 106 16q98 0 142.5 -49t31.5 -127q-12 -82 -79.5 -141.5t-167.5 -59.5q-61 0 -104.5 20.5t-37.5 61.5q8 45 52 45q25 0 35 -13t11 -28.5t16 -29t46 -13.5q61 0 100 36t48 93q10 55 -24 91t-99.5 36t-116.5 -29l-25 9l90 291h285z" />
    <glyph glyph-name="uni2076" unicode="&#x2076;" horiz-adv-x="417" 
d="M405.5 1237q83.5 0 119.5 -52t24 -130q-12 -80 -80 -136.5t-158 -56.5q-94 0 -138 67.5t-28 180.5q27 164 140.5 249t261.5 85l-2 -31q-90 0 -167 -55t-116 -172h4q56 51 139.5 51zM446 1055q20 133 -77 133q-76 0 -123 -70l-4 -22q-29 -197 75 -197q49 0 84 43t45 113z
" />
    <glyph glyph-name="uni2077" unicode="&#x2077;" horiz-adv-x="401" 
d="M205 1430h334l-7 -46q-113 -121 -180 -229t-88 -240q-8 -57 -63 -57q-23 0 -36 16.5t-9 40.5q16 106 103 222t194 211v4h-105q-113 0 -188 -76l-21 8z" />
    <glyph glyph-name="uni2078" unicode="&#x2078;" horiz-adv-x="444" 
d="M319 862q-90 0 -138 44t-40 102q18 100 138 153v4q-80 49 -66 140q8 53 65.5 97t149.5 44q82 0 121 -37t31 -90q-12 -90 -121 -139v-4q55 -27 81.5 -60t16.5 -94q-10 -70 -77 -115t-161 -45zM406 1204q100 45 112 113q10 90 -88 90q-100 0 -117 -84q-9 -74 93 -119z
M321.5 901q59.5 0 93.5 28.5t40 67.5q6 37 -14.5 65t-43 41t-69.5 34q-104 -45 -117 -125q-6 -45 22.5 -78t88 -33z" />
    <glyph glyph-name="uni2079" unicode="&#x2079;" horiz-adv-x="415" 
d="M381 1444q96 0 140 -68.5t26 -179.5q-27 -166 -139.5 -250t-262.5 -84l2 29q90 0 167 56.5t116 172.5h-4q-49 -53 -137 -53q-86 0 -122 53.5t-22 130.5q12 80 80 136.5t156 56.5zM326 1114q31 0 66.5 21.5t56.5 54.5q2 2 2 8t2 10q29 197 -78 197q-49 0 -83 -42t-44 -112
q-24 -137 78 -137z" />
    <glyph glyph-name="uni207F" unicode="&#x207f;" horiz-adv-x="495" 
d="M625 895l8 -21q-43 -37 -103 -36q-84 0 -63 96l45 201q14 61 -5.5 97t-68.5 36q-53 0 -103 -59.5t-65 -141.5q-10 -63 -15 -117.5t-5 -77.5l2 -20h-113l56 322q8 53 -35 61l6 25q94 18 141 67l10 -4l-18 -100h6q70 100 172 100q78 0 114 -51t15 -144l-41 -174
q-14 -72 27 -71q17 0 33 12z" />
    <glyph glyph-name="uni2080" unicode="&#x2080;" horiz-adv-x="458" 
d="M322 -14q-106 0 -150.5 80.5t-24.5 212.5q20 129 90 209.5t177 80.5q109 0 151.5 -79.5t22.5 -210.5q-18 -131 -87.5 -212t-178.5 -81zM330 29q119 0 157 250q43 250 -79 249q-117 0 -160 -249q-39 -250 82 -250z" />
    <glyph glyph-name="uni2081" unicode="&#x2081;" horiz-adv-x="241" 
d="M139 0l2 23q53 10 62 55l61 387h-55l2 22l139 72h29l-76 -481q-6 -45 43 -55l-6 -23h-201z" />
    <glyph glyph-name="uni2082" unicode="&#x2082;" horiz-adv-x="434" 
d="M567 406q-16 -106 -100 -181t-217 -145v-2h86q113 0 180 67l23 -10l-64 -135h-336l8 47q4 4 56.5 41t64 46t53 43t55 52.5t39 50t37 62.5t17.5 64q16 123 -90 122q-51 0 -95 -34.5t-57 -98.5l-30 6q16 78 75.5 123t135.5 45q82 0 126.5 -44.5t32.5 -118.5z" />
    <glyph glyph-name="uni2083" unicode="&#x2083;" horiz-adv-x="417" 
d="M295 -14q-66 0 -114 24.5t-40 67.5q4 47 54 47q20 0 30.5 -15.5t13.5 -33t18 -32.5t42 -15q121 0 141 129q10 63 -19.5 101t-92.5 38h-19l6 37h21q49 0 81 29.5t38 70.5q6 39 -13.5 66.5t-68.5 27.5q-45 0 -82 -30.5t-47 -83.5l-31 6q16 68 69.5 108.5t129 40.5
t113.5 -36.5t28 -86.5q-12 -88 -109 -120l-2 -7q51 -10 80 -50t21 -93q-12 -82 -79 -136t-169 -54z" />
    <glyph glyph-name="uni2084" unicode="&#x2084;" horiz-adv-x="444" 
d="M483 141l-10 -65q-10 -43 43 -53l-6 -23h-201v23q55 10 64 55l10 63h-244l4 31l332 387h74l-60 -377h93l-19 -41h-80zM203 182h186l41 262h-4l-221 -260z" />
    <glyph glyph-name="uni2085" unicode="&#x2085;" horiz-adv-x="423" 
d="M539 477h-248l-41 -131q43 16 108 16q96 0 140.5 -49t31.5 -127q-12 -82 -79.5 -140t-165.5 -58q-63 0 -106.5 20.5t-37.5 59.5q8 47 52 47q25 0 35 -13.5t11 -30t16 -29.5t48 -13q59 0 98 35.5t48 93.5q10 55 -23 91t-100.5 36t-116.5 -29l-25 10l90 289h287z" />
    <glyph glyph-name="uni2086" unicode="&#x2086;" horiz-adv-x="417" 
d="M403 365q88 0 123 -52.5t23 -130.5q-14 -82 -81 -138t-157 -56q-94 0 -138 68.5t-28 179.5q27 166 140.5 250.5t263.5 84.5l-4 -30q-88 0 -166 -56.5t-115 -171.5h4q51 52 135 52zM446 180q25 135 -75 135q-31 0 -68 -20.5t-57 -50.5q0 -2 -2 -9.5t-2 -11.5
q-29 -197 75 -196q49 0 84 41.5t45 111.5z" />
    <glyph glyph-name="uni2087" unicode="&#x2087;" horiz-adv-x="401" 
d="M205 555h334l-7 -45q-113 -121 -179 -229.5t-87 -239.5q-12 -55 -63 -55q-25 0 -38 16t-9 39q31 195 297 434v2h-105q-111 0 -186 -76l-23 9z" />
    <glyph glyph-name="uni2088" unicode="&#x2088;" horiz-adv-x="444" 
d="M319 -12q-90 0 -139 45t-39 102q14 98 138 154v4q-80 47 -66 137q6 55 63.5 99t149.5 44q82 0 122 -37.5t32 -89.5q-16 -92 -123 -139v-4q55 -27 81.5 -60.5t16.5 -95.5q-10 -68 -76 -113.5t-160 -45.5zM406 330q98 43 110 112q14 90 -88 90t-115 -81q-11 -72 93 -121z
M322 29q57 0 93 28.5t40 65.5q4 29 -3.5 50.5t-34 39.5t-37.5 24.5t-52 26.5q-102 -45 -119 -127q-6 -45 24 -76.5t89 -31.5z" />
    <glyph glyph-name="uni2089" unicode="&#x2089;" horiz-adv-x="417" 
d="M383 569q94 0 138 -67.5t28 -179.5q-27 -164 -140.5 -249t-261.5 -85l3 30q90 0 165.5 55.5t114.5 172.5h-2q-55 -51 -139 -51q-86 0 -121 52t-23 130q12 82 80 137t158 55zM326 242q31 0 66.5 20.5t56.5 50.5l4 23q31 197 -76 196q-51 0 -85 -43t-44 -112
q-20 -135 78 -135z" />
    <glyph glyph-name="Euro" unicode="&#x20ac;" horiz-adv-x="1382" 
d="M1141 1470q180 0 287.5 -74.5t107.5 -158.5q0 -49 -24.5 -76.5t-63.5 -27.5q-33 0 -54.5 25.5t-36 62t-36 73.5t-70.5 62.5t-125 25.5q-160 0 -306 -120.5t-226 -335.5h602l-14 -105h-619q-10 -37 -22 -106q-10 -53 -13 -101h619l-14 -104h-609q4 -229 110.5 -342
t274.5 -113q119 0 230.5 58.5t185.5 146.5l41 -31q-88 -115 -219 -190.5t-279 -75.5q-248 0 -385 151.5t-145 395.5h-264l16 104h252q4 49 8 70q12 68 31 137h-258l16 105h279q98 242 287.5 393t435.5 151z" />
    <glyph glyph-name="uni2113" unicode="&#x2113;" horiz-adv-x="894" 
d="M446 -37q-82 0 -138 38t-77.5 98.5t-29.5 132t6 139.5l18 131l-168 -113l-32 47l213 158l24 168q53 389 136 554t255 165q96 0 148.5 -85t34.5 -222q-14 -98 -63.5 -188.5t-140.5 -176.5t-134 -121t-142 -106l-30 -222q-47 -317 145 -317q31 0 60.5 12.5t64.5 42t52.5 46
t57 61.5t46.5 51l39 -41q-72 -98 -166.5 -175t-178.5 -77zM369 676q332 260 368 518q14 96 -16.5 158.5t-102.5 62.5q-80 0 -130 -119.5t-85 -369.5z" />
    <glyph glyph-name="trademark" unicode="&#x2122;" horiz-adv-x="1036" 
d="M205 1022v18q33 8 39 45l63 312q-41 -2 -79 -21.5t-56 -38.5l-16 -18l-19 10l58 105h331l15 -105l-25 -10q-2 8 -8 20.5t-37 34t-72 23.5l-63 -312q-6 -37 22 -45l-8 -18h-145zM518 1022l2 18q31 8 37 45l57 281q10 43 -20 47l8 21h119l41 -269h4l145 269h123l-2 -21
q-29 -4 -39 -47l-57 -281q-6 -39 22 -45l-8 -18h-145l2 18q31 8 37 45l47 220h-6l-158 -283h-37l-41 283h-4l-45 -220q-6 -39 21 -45l-9 -18h-94z" />
    <glyph glyph-name="Omega" unicode="&#x2126;" horiz-adv-x="1699" 
d="M131 -39l-37 348l60 21q4 -14 9 -25.5t29.5 -42.5t58.5 -51.5t98.5 -37.5t146.5 -17h57l4 6q-172 168 -248 343t-35 384q51 256 269.5 418.5t527.5 162.5t460.5 -161.5t100.5 -419.5q-80 -383 -579 -727l2 -6h57q82 0 153.5 16t114.5 38.5t78 50.5t47.5 43t18.5 26
l51 -21l-172 -348h-17q-27 16 -42 22.5t-44.5 11.5t-78.5 5h-359l19 115q250 199 372.5 373t167.5 393q49 236 -37 370.5t-329 134.5q-467 0 -572 -505q-45 -219 6.5 -393.5t215.5 -372.5l-17 -115h-358q-104 0 -180 -39h-19z" />
    <glyph glyph-name="estimated" unicode="&#x212e;" horiz-adv-x="1898" 
d="M1069 -37q-315 0 -538.5 221.5t-223.5 532.5t223.5 532t538.5 221q313 0 536.5 -221t225.5 -532v-21h-1200v-506q215 -164 440 -163q309 0 490 229h77q-213 -293 -569 -293zM631 756h866v491q-174 158 -426 158q-264 0 -440 -168v-481z" />
    <glyph glyph-name="partialdiff" unicode="&#x2202;" horiz-adv-x="1175" 
d="M686 1470q270 0 373.5 -243.5t3.5 -648.5q-70 -285 -242 -450t-391 -165q-223 0 -327.5 146.5t-53.5 361.5q53 209 221 344t375 135q78 0 151.5 -26.5t112.5 -71.5q27 227 -5 371.5t-124 144.5q-35 0 -84 -57.5t-92 -57.5t-68.5 25t-23.5 65q0 53 43 90t131 37zM449 45
q150 0 246 131t157 375q27 96 43 203q-37 53 -102.5 85.5t-143.5 32.5q-150 0 -250 -111.5t-145 -297.5q-25 -113 -23 -206t58 -152.5t160 -59.5z" />
    <glyph glyph-name="Delta" unicode="&#x2206;" horiz-adv-x="1294" 
d="M35 0l835 1434h111l258 -1434h-1204zM178 86h840l-199 1100z" />
    <glyph glyph-name="product" unicode="&#x220f;" horiz-adv-x="1667" 
d="M86 0l4 45q117 23 135 125l224 1094q10 55 -16.5 84.5t-70.5 37.5l11 48h1249l-2 -48q-115 -18 -137 -122l-223 -1094q-20 -102 88 -125l-13 -45h-405l4 45q117 23 135 125l238 1169h-656l-237 -1169q-10 -55 17.5 -85t70.5 -40l-13 -45h-403z" />
    <glyph glyph-name="summation" unicode="&#x2211;" horiz-adv-x="1497" 
d="M78 0l8 51l610 668l-313 663l10 52h1028l41 -269l-61 -28q-70 109 -175.5 160t-273.5 51h-327l258 -545l-580 -641h432q215 0 329 38t226 140l39 -41l-182 -299h-1069z" />
    <glyph glyph-name="minus" unicode="&#x2212;" horiz-adv-x="808" 
d="M178 449l27 131h588l-27 -131h-588z" />
    <glyph glyph-name="uni2215" unicode="&#x2215;" horiz-adv-x="92" 
d="M-373 643l19 98h624l-18 -98h-625z" />
    <glyph glyph-name="uni2219" unicode="&#x2219;" horiz-adv-x="606" 
d="M368.5 686q-55.5 0 -88 37t-20.5 98q12 57 58.5 94t101.5 37t87 -36.5t19 -94.5q-12 -61 -57 -98t-100.5 -37z" />
    <glyph glyph-name="radical" unicode="&#x221a;" horiz-adv-x="1353" 
d="M371 0l-99 457h-219l19 100h288l91 -424l802 1301h109l-883 -1434h-108z" />
    <glyph glyph-name="infinity" unicode="&#x221e;" horiz-adv-x="2217" 
d="M592 307q-162 0 -257 121t-60.5 293t179 294t306.5 122t244.5 -82t138.5 -230h6q117 150 229.5 231t270.5 81q162 0 257 -121t62 -295q-37 -172 -181.5 -293t-306 -121t-243.5 81t-141 228h-6q-115 -147 -227.5 -228t-270.5 -81zM1503 422q129 0 233.5 88t133.5 219
q27 131 -42 223t-198 92q-137 0 -236.5 -77.5t-211.5 -227.5q20 -61 35.5 -98t43 -84t58.5 -72.5t78 -44t106 -18.5zM610 399q96 0 182.5 47.5t139.5 103.5t127 152q-20 61 -35.5 97.5t-43.5 84.5t-58.5 73.5t-77.5 44t-107 18.5q-129 0 -233.5 -88t-132.5 -219
q-27 -129 41.5 -221.5t197.5 -92.5z" />
    <glyph glyph-name="integral" unicode="&#x222b;" horiz-adv-x="2549" 
d="M782 -410q-63 0 -99 29t-28 80q8 35 39 61.5t66 26.5q45 0 72.5 -45t62.5 -45q47 0 85 40t54 120l322 1575q37 188 161.5 301.5t286.5 113.5q68 0 105 -29.5t28 -74.5q-10 -41 -40.5 -67.5t-69.5 -26.5q-45 0 -74 46t-67 46q-47 0 -83 -41t-51 -119l-313 -1548
q-45 -219 -169 -331t-288 -112z" />
    <glyph glyph-name="approxequal" unicode="&#x2248;" horiz-adv-x="1632" 
d="M1096 766q-92 0 -179.5 38t-160 76t-127.5 38q-90 0 -142 -82l-59 28q84 154 258 154q92 0 181 -37t163 -74t129 -37q68 0 123 56l51 -39q-85 -121 -237 -121zM1036 467q-92 0 -179 38t-159.5 75.5t-128.5 37.5q-90 0 -143 -81l-59 30q88 154 260 154q92 0 180 -37
t161.5 -75t129.5 -38q63 0 125 58l51 -41q-93 -121 -238 -121z" />
    <glyph glyph-name="notequal" unicode="&#x2260;" horiz-adv-x="1302" 
d="M350 176l142 293h-420l18 100h449l149 308h-534l18 98h563l139 291h105l-141 -291h426l-21 -98h-450l-152 -308h541l-21 -100h-567l-139 -293h-105z" />
    <glyph glyph-name="lessequal" unicode="&#x2264;" horiz-adv-x="1454" 
d="M1202 242l-923 415l22 111l1090 416l-21 -109l-936 -360l-2 -6l793 -359zM106 0l15 88h1089l-14 -88h-1090z" />
    <glyph glyph-name="greaterequal" unicode="&#x2265;" horiz-adv-x="1370" 
d="M197 242l20 108l938 359v6l-790 360l20 109l922 -416l-21 -111zM106 0l15 88h1089l-14 -88h-1090z" />
    <glyph glyph-name="lozenge" unicode="&#x25ca;" horiz-adv-x="1640" 
d="M643 0l-272 719l559 715h110l271 -715l-559 -719h-109zM713 100h8l481 619l-231 614h-8l-482 -614z" />
    <glyph glyph-name="uniF6E0" unicode="&#xf6e0;" horiz-adv-x="399" 
d="M274 788l13 76q-76 10 -117 62.5t-27 130.5q12 84 69.5 137t137.5 63l12 84h54l-13 -81q63 -4 100.5 -39t31.5 -74q-2 -16 -15.5 -29.5t-30.5 -13.5q-25 0 -35 18.5t-11 41t-20.5 41t-57.5 18.5q-49 0 -93.5 -41t-52.5 -97q-12 -80 25 -122.5t106 -42.5q92 0 150 86
l18 -7q-18 -49 -66.5 -87t-111.5 -46l-12 -78h-54z" />
    <glyph glyph-name="uniF6E4" unicode="&#xf6e4;" horiz-adv-x="473" 
d="M301 672l16 106q-90 4 -136 40t-40 79q8 45 52 45q23 0 34 -19.5t14 -43t29.5 -43t77.5 -19.5q55 0 94 27.5t47 70.5q6 41 -26.5 69t-102.5 48q-172 47 -151 174q8 63 64.5 104.5t136.5 47.5l16 98h49l-14 -96q68 -4 110.5 -34t36.5 -68.5t-43 -38.5q-18 0 -27.5 15
t-13.5 34.5t-27.5 35t-66.5 15.5q-49 0 -85 -24.5t-42 -61.5q-6 -39 23.5 -64.5t97.5 -44.5q86 -25 129 -64.5t33 -111.5q-12 -74 -71.5 -119t-145.5 -51l-19 -106h-49z" />
    <glyph glyph-name="uniF6E6" unicode="&#xf6e6;" horiz-adv-x="624" 
d="M137 451l21 129h460l-20 -129h-461z" />
    <glyph glyph-name="uniF6E9" unicode="&#xf6e9;" horiz-adv-x="507" 
d="M590 883q14 0 31 12l10 -21q-43 -37 -103 -36q-84 0 -67 94h-4q-59 -94 -152 -94q-76 0 -121 47t-45 135q0 115 75 209t187 94q78 0 117 -51h4l13 51h110q-33 -66 -53 -190l-33 -179q-14 -71 31 -71zM336 895q43 0 82 37t59 92l33 195q-29 49 -90 49q-86 0 -135 -76
t-49 -174q0 -59 28.5 -91t71.5 -32z" />
    <glyph glyph-name="uniF6EA" unicode="&#xf6ea;" horiz-adv-x="491" 
d="M461 1323q80 0 124 -54.5t44 -135.5q0 -121 -78 -209t-186 -88q-100 0 -148 75h-2l-47 -59h-29l92 522q10 51 -36 60l8 24q94 18 139 68l12 -4l-49 -273h4q62 74 152 74zM354 883q78 0 130.5 80.5t52.5 177.5q0 57 -27 93t-74 36q-45 0 -87 -37t-62 -88l-33 -184
q28 -78 100 -78z" />
    <glyph glyph-name="uniF6EB" unicode="&#xf6eb;" horiz-adv-x="524" 
d="M590 883q14 0 31 12l10 -21q-39 -37 -101 -36q-84 0 -67 92h-4q-59 -92 -156 -92q-76 0 -120 47t-44 135q0 117 74 210t193 93q70 0 112 -43h6l17 94q6 51 -37 60l8 24q96 20 139 68l11 -4l-103 -568q-12 -71 31 -71zM336 895q43 0 83 37t60 94l35 193q-33 49 -92 49
q-88 0 -137 -76t-49 -174q0 -59 28.5 -91t71.5 -32z" />
    <glyph glyph-name="uniF6EC" unicode="&#xf6ec;" horiz-adv-x="454" 
d="M356 889q106 0 205 106l17 -18q-88 -139 -246 -139q-84 0 -138.5 47t-54.5 139q0 119 83 209t214 90q66 0 111 -27.5t45 -83.5q0 -80 -95.5 -116.5t-263.5 -53.5v-16q0 -66 39 -101.5t84 -35.5zM424 1278q-61 0 -115.5 -55.5t-68.5 -139.5q111 10 186.5 43t75.5 88
q0 29 -21.5 46.5t-56.5 17.5z" />
    <glyph glyph-name="uniF6ED" unicode="&#xf6ed;" horiz-adv-x="196" 
d="M268.5 1382q-30.5 0 -48 17.5t-17.5 44t18.5 45t47 18.5t47 -18.5t18.5 -45t-17.5 -44t-48 -17.5zM211 838q-84 0 -68 96l41 240q12 53 -34 61l8 25q94 18 139 67l12 -4l-67 -369q-12 -72 30 -71q10 0 31 12l8 -21q-37 -36 -100 -36z" />
    <glyph glyph-name="uniF6EE" unicode="&#xf6ee;" horiz-adv-x="204" 
d="M211 838q-86 0 -68 96l76 440q12 51 -37 60l8 24q94 18 140 68l12 -4l-100 -568q-14 -72 28 -71q12 0 33 12l8 -21q-39 -36 -100 -36z" />
    <glyph glyph-name="uniF6EF" unicode="&#xf6ef;" horiz-adv-x="737" 
d="M864 895l10 -21q-43 -37 -100 -36q-88 0 -67 96l45 201q33 133 -54 133q-41 0 -80.5 -49.5t-60.5 -122.5l-14 -70q-8 -49 -10.5 -93t-2.5 -63v-18h-112l49 283q14 61 5 97t-54 36q-43 0 -85 -55.5t-61 -133.5l-4 -28q-10 -59 -14 -108.5t-4 -70.5v-20h-111l56 322
q8 53 -37 61l8 25q94 18 139 67l12 -4l-18 -100h6q70 100 156 100q98 0 108 -100h6q72 100 162 100q152 0 109 -195l-39 -174q-18 -72 27 -71q14 0 30 12z" />
    <glyph glyph-name="uniF6F0" unicode="&#xf6f0;" horiz-adv-x="483" 
d="M346 838q-106 0 -162.5 70.5t-40.5 176.5q16 104 92 171t181 67q106 0 161.5 -69.5t38.5 -176.5q-16 -104 -91 -171.5t-179 -67.5zM354 883q61 0 107.5 55t56.5 139q14 84 -17.5 142.5t-93 58.5t-108.5 -55.5t-59.5 -139.5t19.5 -142t95 -58z" />
    <glyph glyph-name="uniF6F1" unicode="&#xf6f1;" horiz-adv-x="409" 
d="M461 1323q43 0 65.5 -21.5t18.5 -54.5q-4 -25 -22.5 -43t-45 -18t-39 17.5t-21.5 33.5t-26 16q-31 0 -68.5 -55t-54.5 -139q-8 -51 -13 -103.5t-5 -78.5v-25h-111l56 322q8 53 -37 61l8 25q94 18 139 67l12 -4l-16 -90h4q74 90 156 90z" />
    <glyph glyph-name="uniF6F2" unicode="&#xf6f2;" horiz-adv-x="446" 
d="M346 838q-88 0 -148.5 33.5t-56.5 76.5q4 45 47 45q23 0 36.5 -17.5t19.5 -37.5t30.5 -37.5t69.5 -17.5q53 0 89 21.5t42 58.5q2 20 -7 34.5t-32.5 24.5t-39 14t-50.5 13q-37 8 -58.5 16t-48 23.5t-38 41t-8.5 60.5q4 57 62 95t151 38q80 0 130 -29.5t48 -72.5
q-4 -41 -41 -41q-25 0 -35 15t-12 33.5t-24.5 34t-68.5 15.5q-47 0 -79.5 -19.5t-36.5 -52.5q0 -8 1 -16t7 -14.5t11 -11.5t16.5 -10t18.5 -7t20.5 -6t19.5 -5t20.5 -4.5t16.5 -3.5q51 -10 82.5 -21t56.5 -44t18 -82q-6 -57 -64.5 -100t-164.5 -43z" />
    <glyph glyph-name="uniF6F3" unicode="&#xf6f3;" horiz-adv-x="301" 
d="M258 838q-117 0 -96 120l53 302h-76l4 30q63 20 100.5 53t67.5 95h31l-23 -129h119l-6 -49h-121l-53 -306q-12 -66 41 -65q39 0 61 10l2 -41q-41 -20 -104 -20z" />
    <glyph glyph-name="uniFB06" unicode="&#xfb06;" horiz-adv-x="1832" 
d="M596 -37q-207 0 -341 86t-122 182q10 90 96 91q43 0 65.5 -28t35 -68t34 -80t78 -67.5t148.5 -27.5q131 0 224 55.5t108 149.5q6 45 -10.5 81t-40 56.5t-75 40t-82 27.5t-93.5 22q-72 16 -114 27.5t-101.5 38t-90 58.5t-51 84t-12.5 120q14 125 143 210t324 85
q98 0 178 -27q-39 264 92 413.5t334 149.5q236 0 338 -159.5t33 -413.5h286l-14 -88h-287l-133 -752q-31 -164 105 -163q70 0 141 22l6 -78q-102 -47 -223 -47q-119 0 -171 61.5t-26 208.5l131 748h-176l8 53q131 43 185.5 109.5t54.5 185.5q0 90 -66.5 167t-203.5 77
q-145 0 -237.5 -103.5t-92.5 -248.5q0 -76 22.5 -132.5t50 -81t49 -61.5t19.5 -80q-2 -41 -24.5 -66.5t-63.5 -25.5q-45 0 -64.5 25.5t-25.5 61.5t-19.5 71t-64.5 60.5t-145 25.5q-113 0 -197 -51.5t-96 -135.5q-4 -23 -1 -43t16.5 -36.5t24.5 -28.5t36.5 -24.5t39 -19.5
t47 -15.5t46 -12.5t49.5 -11t43 -9q76 -16 120 -27.5t105.5 -39t93 -60.5t51 -91.5t9.5 -133.5q-16 -125 -149.5 -220.5t-356.5 -95.5z" />
    <glyph glyph-name="glyph422" horiz-adv-x="0" 
 />
    <glyph glyph-name="glyph423" horiz-adv-x="491" 
 />
    <glyph glyph-name="glyph424" horiz-adv-x="628" 
d="M961 -401q-117 0 -214.5 41t-166 100t-136 118.5t-156.5 100.5t-192 41l4 45q43 8 78 40t45 85l193 1094q16 102 -78 122l12 48h383l-4 -48q-106 -20 -123 -122l-211 -1182q59 -23 115.5 -73t100.5 -103t91.5 -103.5t109.5 -82t136 -31.5q66 0 108 34.5t59.5 77.5t51 78
t84.5 35q90 0 90 -92q0 -98 -113 -160.5t-267 -62.5z" />
    <glyph glyph-name="glyph425" horiz-adv-x="2021" 
d="M2202 1434l-4 -4l-5 -44q-45 -6 -80.5 -37.5t-44.5 -84.5l-192 -1094q-10 -53 14.5 -85t65.5 -38l-12 -47h-383l4 47q43 6 77.5 38t45.5 85l10 55q-8 156 -119 301.5t-272 227.5q-223 -354 -244 -385q-90 -131 -161 -212t-176 -139.5t-224 -58.5q-139 0 -223 45t-84 121
q0 43 27.5 73.5t72.5 30.5q47 0 73.5 -27.5t36 -60t40 -60.5t81.5 -28q125 0 226.5 92.5t226.5 280.5q43 63 126 191t114 174q-98 37 -201 36q-135 0 -208 -41t-73 -92q0 -27 19.5 -65.5t19.5 -69.5q0 -47 -33.5 -82t-87 -35t-90.5 41t-37 101q0 139 139.5 236.5t350.5 97.5
q123 0 254 -48q6 8 31.5 46t39.5 57q92 127 176.5 213t188.5 154.5t227.5 92.5t266.5 1zM1745 500l147 831q-145 -39 -254.5 -143.5t-224.5 -274.5q-12 -18 -53 -79q266 -125 373 -334h12z" />
    <glyph glyph-name="glyph426" horiz-adv-x="2011" 
d="M2114 1702l-256 -178l-43 45l215 237q47 51 98 52q33 0 47 -19.5t10 -48.5q-8 -43 -71 -88zM2202 1434l-4 -4l-5 -44q-45 -6 -80.5 -37.5t-44.5 -84.5l-192 -1094q-10 -53 14.5 -85t65.5 -38l-12 -47h-383l4 47q43 6 77.5 38t45.5 85l10 55q-8 156 -119 301.5t-272 227.5
q-223 -354 -244 -385q-90 -131 -161 -212t-176 -139.5t-224 -58.5q-139 0 -223 45t-84 121q0 43 27.5 73.5t72.5 30.5q47 0 73.5 -27.5t36 -60t40 -60.5t81.5 -28q125 0 226.5 92.5t226.5 280.5q43 63 126 191t114 174q-98 37 -201 36q-135 0 -208 -41t-73 -92
q0 -27 19.5 -65.5t19.5 -69.5q0 -47 -33.5 -82t-87 -35t-90.5 41t-37 101q0 139 139.5 236.5t350.5 97.5q123 0 254 -48q6 8 31.5 46t39.5 57q92 127 176.5 213t188.5 154.5t227.5 92.5t266.5 1zM1745 500l147 831q-145 -39 -254.5 -143.5t-224.5 -274.5q-12 -18 -53 -79
q266 -125 373 -334h12z" />
    <glyph glyph-name="glyph427" horiz-adv-x="2019" 
d="M2214 1819l65 -31q-104 -201 -313 -201q-115 0 -174 57.5t-74 143.5l74 31q14 -47 66.5 -84t123.5 -37q70 0 136.5 37t95.5 84zM1343 973q92 127 176.5 213t188.5 154.5t227 92t267 1.5l-4 -4l-5 -44q-45 -6 -80.5 -37.5t-44.5 -84.5l-192 -1094q-10 -53 14.5 -85
t65.5 -38l-12 -47h-383l4 47q43 6 77.5 38t45.5 85l10 55q-8 156 -119 301.5t-272 227.5q-223 -354 -244 -385q-90 -131 -161 -212t-176 -139.5t-224 -58.5q-139 0 -223 45t-84 121q0 43 27.5 73.5t72.5 30.5q47 0 73.5 -27.5t36 -60t40 -60.5t81.5 -28q125 0 226.5 92.5
t226.5 280.5q43 63 126 191t114 174q-98 37 -201 36q-135 0 -208 -41t-73 -92q0 -27 19.5 -65.5t19.5 -69.5q0 -47 -33.5 -82t-87 -35t-90.5 41t-37 101q0 139 139.5 236.5t350.5 97.5q123 0 254 -48q6 8 31.5 46.5t39.5 56.5zM1745 500l147 831q-145 -39 -254.5 -143.5
t-224.5 -274.5q-12 -18 -53 -79q266 -125 373 -334h12z" />
    <glyph glyph-name="glyph428" horiz-adv-x="2013" 
d="M2001 1827l280 -256l-51 -58l-256 144l-305 -144l-31 58zM1343 973q92 127 176.5 213t188.5 154.5t227 92t267 1.5l-4 -4l-5 -44q-45 -6 -80.5 -37.5t-44.5 -84.5l-192 -1094q-10 -53 14.5 -85t65.5 -38l-12 -47h-383l4 47q43 6 77.5 38t45.5 85l10 55q-8 156 -119 301.5
t-272 227.5q-223 -354 -244 -385q-90 -131 -161 -212t-176 -139.5t-224 -58.5q-139 0 -223 45t-84 121q0 43 27.5 73.5t72.5 30.5q47 0 73.5 -27.5t36 -60t40 -60.5t81.5 -28q125 0 226.5 92.5t226.5 280.5q43 63 126 191t114 174q-98 37 -201 36q-135 0 -208 -41t-73 -92
q0 -27 19.5 -65.5t19.5 -69.5q0 -47 -33.5 -82t-87 -35t-90.5 41t-37 101q0 139 139.5 236.5t350.5 97.5q123 0 254 -48q6 8 31.5 46.5t39.5 56.5zM1745 500l147 831q-145 -39 -254.5 -143.5t-224.5 -274.5q-12 -18 -53 -79q266 -125 373 -334h12z" />
    <glyph glyph-name="glyph429" horiz-adv-x="2011" 
d="M1718 1634q-47 0 -73.5 32t-18.5 75q10 47 48 79.5t87 32.5t75 -32.5t15 -79.5q-8 -43 -46 -75t-87 -32zM2064.5 1634q-49.5 0 -76 32t-16.5 75q10 47 47 79.5t86 32.5t76 -32.5t17 -79.5q-8 -43 -46 -75t-87.5 -32zM2202 1434l-4 -4l-5 -44q-45 -6 -80.5 -37.5
t-44.5 -84.5l-192 -1094q-10 -53 14.5 -85t65.5 -38l-12 -47h-383l4 47q43 6 77.5 38t45.5 85l10 55q-8 156 -119 301.5t-272 227.5q-223 -354 -244 -385q-90 -131 -161 -212t-176 -139.5t-224 -58.5q-139 0 -223 45t-84 121q0 43 27.5 73.5t72.5 30.5q47 0 73.5 -27.5
t36 -60t40 -60.5t81.5 -28q125 0 226.5 92.5t226.5 280.5q43 63 126 191t114 174q-98 37 -201 36q-135 0 -208 -41t-73 -92q0 -27 19.5 -65.5t19.5 -69.5q0 -47 -33.5 -82t-87 -35t-90.5 41t-37 101q0 139 139.5 236.5t350.5 97.5q123 0 254 -48q6 8 31.5 46t39.5 57
q92 127 176.5 213t188.5 154.5t227.5 92.5t266.5 1zM1745 500l147 831q-145 -39 -254.5 -143.5t-224.5 -274.5q-12 -18 -53 -79q266 -125 373 -334h12z" />
    <glyph glyph-name="glyph430" horiz-adv-x="2017" 
d="M1700 1702q-45 45 -37 88q16 68 86 68q51 0 78 -52l119 -239l-62 -43zM2202 1434l-4 -4l-5 -44q-45 -6 -80.5 -37.5t-44.5 -84.5l-192 -1094q-10 -53 14.5 -85t65.5 -38l-12 -47h-383l4 47q43 6 77.5 38t45.5 85l10 55q-8 156 -119 301.5t-272 227.5q-223 -354 -244 -385
q-90 -131 -161 -212t-176 -139.5t-224 -58.5q-139 0 -223 45t-84 121q0 43 27.5 73.5t72.5 30.5q47 0 73.5 -27.5t36 -60t40 -60.5t81.5 -28q125 0 226.5 92.5t226.5 280.5q43 63 126 191t114 174q-98 37 -201 36q-135 0 -208 -41t-73 -92q0 -27 19.5 -65.5t19.5 -69.5
q0 -47 -33.5 -82t-87 -35t-90.5 41t-37 101q0 139 139.5 236.5t350.5 97.5q123 0 254 -48q6 8 31.5 46t39.5 57q92 127 176.5 213t188.5 154.5t227.5 92.5t266.5 1zM1745 500l147 831q-145 -39 -254.5 -143.5t-224.5 -274.5q-12 -18 -53 -79q266 -125 373 -334h12z" />
    <glyph glyph-name="glyph431" horiz-adv-x="1998" 
d="M1724 1776h537l-23 -109h-536zM1343 973q92 127 176.5 213t188.5 154.5t227 92t267 1.5l-4 -4l-5 -44q-45 -6 -80.5 -37.5t-44.5 -84.5l-192 -1094q-10 -53 14.5 -85t65.5 -38l-12 -47h-383l4 47q43 6 77.5 38t45.5 85l10 55q-8 156 -119 301.5t-272 227.5
q-223 -354 -244 -385q-90 -131 -161 -212t-176 -139.5t-224 -58.5q-139 0 -223 45t-84 121q0 43 27.5 73.5t72.5 30.5q47 0 73.5 -27.5t36 -60t40 -60.5t81.5 -28q125 0 226.5 92.5t226.5 280.5q43 63 126 191t114 174q-98 37 -201 36q-135 0 -208 -41t-73 -92
q0 -27 19.5 -65.5t19.5 -69.5q0 -47 -33.5 -82t-87 -35t-90.5 41t-37 101q0 139 139.5 236.5t350.5 97.5q123 0 254 -48q6 8 31.5 46.5t39.5 56.5zM1745 500l147 831q-145 -39 -254.5 -143.5t-224.5 -274.5q-12 -18 -53 -79q266 -125 373 -334h12z" />
    <glyph glyph-name="glyph432" horiz-adv-x="2009" 
d="M2202 1434l-4 -4l-5 -44q-45 -6 -80.5 -37.5t-44.5 -84.5l-192 -1094q-10 -53 14.5 -85t65.5 -38l-12 -47h-97q-74 -35 -122 -89t-56 -116q-10 -61 25 -100t90 -39q98 0 166 98l59 -33q-104 -156 -283 -155q-98 0 -155.5 53t-42.5 143q20 137 186 238h-153l4 47
q43 6 77.5 38t45.5 85l10 55q-8 156 -119 301.5t-272 227.5q-223 -354 -244 -385q-90 -131 -161 -212t-176 -139.5t-224 -58.5q-139 0 -223 45t-84 121q0 43 27.5 73.5t72.5 30.5q47 0 73.5 -27.5t36 -60t40 -60.5t81.5 -28q125 0 226.5 92.5t226.5 280.5q43 63 126 191
t114 174q-98 37 -201 36q-135 0 -208 -41t-73 -92q0 -27 19.5 -65.5t19.5 -69.5q0 -47 -33.5 -82t-87 -35t-90.5 41t-37 101q0 139 139.5 236.5t350.5 97.5q123 0 254 -48q6 8 31.5 46t39.5 57q92 127 176.5 213t188.5 154.5t227.5 92.5t266.5 1zM1745 500l147 831
q-145 -39 -254.5 -143.5t-224.5 -274.5q-12 -18 -53 -79q266 -125 373 -334h12z" />
    <glyph glyph-name="glyph433" horiz-adv-x="2007" 
d="M1894 1538q-92 0 -144 63.5t-38 151.5q14 90 87 153.5t165 63.5q90 0 143.5 -63.5t38.5 -153.5q-14 -88 -89 -151.5t-163 -63.5zM1804 1753q-8 -53 21.5 -89t83 -36t95.5 37t50 88q8 53 -21.5 90t-83 37t-94.5 -37t-51 -90zM2202 1434l-4 -4l-5 -44q-45 -6 -80.5 -37.5
t-44.5 -84.5l-192 -1094q-10 -53 14.5 -85t65.5 -38l-12 -47h-383l4 47q43 6 77.5 38t45.5 85l10 55q-8 156 -119 301.5t-272 227.5q-223 -354 -244 -385q-90 -131 -161 -212t-176 -139.5t-224 -58.5q-139 0 -223 45t-84 121q0 43 27.5 73.5t72.5 30.5q47 0 73.5 -27.5
t36 -60t40 -60.5t81.5 -28q125 0 226.5 92.5t226.5 280.5q43 63 126 191t114 174q-98 37 -201 36q-135 0 -208 -41t-73 -92q0 -27 19.5 -65.5t19.5 -69.5q0 -47 -33.5 -82t-87 -35t-90.5 41t-37 101q0 139 139.5 236.5t350.5 97.5q123 0 254 -48q6 8 31.5 46t39.5 57
q92 127 176.5 213t188.5 154.5t227.5 92.5t266.5 1zM1745 500l147 831q-145 -39 -254.5 -143.5t-224.5 -274.5q-12 -18 -53 -79q266 -125 373 -334h12z" />
    <glyph glyph-name="glyph434" horiz-adv-x="2007" 
d="M2308 2212q33 0 48.5 -21.5t8.5 -48.5q-8 -51 -71 -86l-129 -90q74 -14 114.5 -73.5t28.5 -139.5q-14 -88 -89 -151.5t-163 -63.5q-92 0 -145 63.5t-39 151.5q8 61 48 111.5t95 79.5l195 215q49 53 98 53zM2216 1753q8 53 -21.5 90t-83 37t-94.5 -37t-51 -90
q-8 -53 21.5 -89t83 -36t95.5 37t50 88zM1343 973q92 127 176.5 213t188.5 154.5t227 92t267 1.5l-4 -4l-5 -44q-45 -6 -80.5 -37.5t-44.5 -84.5l-192 -1094q-10 -53 14.5 -85t65.5 -38l-12 -47h-383l4 47q43 6 77.5 38t45.5 85l10 55q-8 156 -119 301.5t-272 227.5
q-223 -354 -244 -385q-90 -131 -161 -212t-176 -139.5t-224 -58.5q-139 0 -223 45t-84 121q0 43 27.5 73.5t72.5 30.5q47 0 73.5 -27.5t36 -60t40 -60.5t81.5 -28q125 0 226.5 92.5t226.5 280.5q43 63 126 191t114 174q-98 37 -201 36q-135 0 -208 -41t-73 -92
q0 -27 19.5 -65.5t19.5 -69.5q0 -47 -33.5 -82t-87 -35t-90.5 41t-37 101q0 139 139.5 236.5t350.5 97.5q123 0 254 -48q6 8 31.5 46.5t39.5 56.5zM1745 500l147 831q-145 -39 -254.5 -143.5t-224.5 -274.5q-12 -18 -53 -79q266 -125 373 -334h12z" />
    <glyph glyph-name="glyph435" horiz-adv-x="2043" 
d="M1745 1747q-63 0 -94 -88l-60 20q27 92 80 138.5t121 46.5q55 0 130 -58.5t110 -58.5q66 0 96 86l57 -18q-53 -186 -200 -187q-55 0 -130 59.5t-110 59.5zM2202 1434l-4 -4l-5 -44q-45 -6 -80.5 -37.5t-44.5 -84.5l-192 -1094q-10 -53 14.5 -85t65.5 -38l-12 -47h-383
l4 47q43 6 77.5 38t45.5 85l10 55q-8 156 -119 301.5t-272 227.5q-223 -354 -244 -385q-90 -131 -161 -212t-176 -139.5t-224 -58.5q-139 0 -223 45t-84 121q0 43 27.5 73.5t72.5 30.5q47 0 73.5 -27.5t36 -60t40 -60.5t81.5 -28q125 0 226.5 92.5t226.5 280.5
q43 63 126 191t114 174q-98 37 -201 36q-135 0 -208 -41t-73 -92q0 -27 19.5 -65.5t19.5 -69.5q0 -47 -33.5 -82t-87 -35t-90.5 41t-37 101q0 139 139.5 236.5t350.5 97.5q123 0 254 -48q6 8 31.5 46t39.5 57q92 127 176.5 213t188.5 154.5t227.5 92.5t266.5 1zM1745 500
l147 831q-145 -39 -254.5 -143.5t-224.5 -274.5q-12 -18 -53 -79q266 -125 373 -334h12z" />
    <glyph glyph-name="glyph436" horiz-adv-x="1841" 
d="M1864 1085q-16 -102 -95 -184t-200 -125l-4 -10q141 -45 210.5 -145.5t47.5 -229.5q-33 -190 -187.5 -303t-410.5 -113q-113 0 -279 12.5t-244 12.5h-180l4 45q45 8 80 40t43 85l193 1094q12 61 -23 92q-193 29 -274 28q-190 0 -191 -116q0 -29 28 -69t28 -73
q0 -43 -28 -68.5t-71 -25.5q-51 0 -83.5 42t-32.5 100q4 123 96 209.5t276 86.5q92 0 271.5 -18t310.5 -18h293q219 0 334 -101t88 -248zM1380 1346q-176 0 -295 -11v-2h-8q-6 0 -16 -1t-17 -3l-92 -514h365q143 0 240.5 77t115.5 187q20 117 -55.5 192t-237.5 75zM1636 399
q23 141 -69 233.5t-262 92.5h-367l-111 -612q47 -4 123 -15.5t135.5 -17.5t116.5 -6q186 0 297.5 87.5t136.5 237.5z" />
    <glyph glyph-name="glyph437" horiz-adv-x="1892" 
d="M1288 61q297 0 506 392l61 -21q-88 -209 -246.5 -339t-396.5 -130q-195 0 -327.5 108.5t-182 279.5t-14.5 370q55 305 250 510q-213 150 -365 149q-106 0 -169.5 -48t-63.5 -126q0 -31 35 -72.5t35 -74.5q0 -41 -28 -67.5t-71 -26.5q-53 0 -84.5 50t-31.5 126
q0 143 106.5 233t273.5 90q205 0 439 -166q209 170 489 170q201 0 303.5 -78.5t102.5 -213.5q0 -115 -91.5 -191t-222.5 -76q-100 0 -202.5 37t-168 79t-163.5 114q-133 -168 -172 -385q-29 -180 -11.5 -311.5t78 -215.5t144.5 -125t188 -41zM1513 1380q-205 0 -383 -168
q96 -72 150.5 -108.5t142.5 -72.5t172 -36q100 0 158.5 53.5t58.5 125.5q0 206 -299 206z" />
    <glyph glyph-name="glyph438" horiz-adv-x="1583" 
d="M1292 1702l-256 -178l-43 45l213 237q51 51 99 52q33 0 48 -20.5t11 -47.5q-9 -43 -72 -88zM971 61q297 0 506 392l63 -21q-88 -209 -247.5 -339t-397.5 -130q-195 0 -328 107.5t-181 279.5t-13 371q55 305 250 510q-213 150 -365 149q-106 0 -169.5 -48t-63.5 -126
q0 -31 33.5 -72.5t33.5 -74.5q0 -41 -26.5 -67.5t-69.5 -26.5q-55 0 -86 50t-31 126q0 143 106.5 233t272.5 90q205 0 438 -166q209 170 490 170q203 0 304 -78.5t101 -213.5q0 -115 -90 -191t-221 -76q-100 0 -203.5 38t-168 78t-163.5 114q-133 -168 -172 -385
q-61 -340 58 -516.5t340 -176.5zM1196 1380q-203 0 -383 -168q94 -72 150.5 -109.5t144.5 -72.5t172 -35q100 0 158.5 53.5t58.5 125.5q0 206 -301 206z" />
    <glyph glyph-name="glyph439" horiz-adv-x="1892" 
d="M1817 1786l-363 -256l-280 256l49 57l258 -143l303 143zM1288 61q297 0 506 392l61 -21q-88 -209 -246.5 -339t-396.5 -130q-195 0 -327.5 108.5t-182 279.5t-14.5 370q55 305 250 510q-213 150 -365 149q-106 0 -169.5 -48t-63.5 -126q0 -31 35 -72.5t35 -74.5
q0 -41 -28 -67.5t-71 -26.5q-53 0 -84.5 50t-31.5 126q0 143 106.5 233t273.5 90q205 0 439 -166q209 170 489 170q201 0 303.5 -78.5t102.5 -213.5q0 -115 -91.5 -191t-222.5 -76q-100 0 -202.5 37t-168 79t-163.5 114q-133 -168 -172 -385q-29 -180 -11.5 -311.5
t78 -215.5t144.5 -125t188 -41zM1513 1380q-205 0 -383 -168q96 -72 150.5 -108.5t142.5 -72.5t172 -36q100 0 158.5 53.5t58.5 125.5q0 206 -299 206z" />
    <glyph glyph-name="glyph440" horiz-adv-x="1892" 
d="M1288 61q297 0 506 392l61 -21q-178 -424 -567 -465l-65 -106q12 12 65 12q76 0 117 -39t27 -108q-14 -78 -102.5 -137.5t-215.5 -59.5q-100 0 -157.5 35t-47.5 84q4 27 28 46t50 19q33 0 47.5 -18.5t16.5 -41t22.5 -41t65.5 -18.5q63 0 103 29t50 76q8 33 -12 55.5
t-61 22.5q-57 0 -99 -33l-45 23l123 196q-190 4 -320 112.5t-177.5 278.5t-12.5 367q55 305 250 510q-213 150 -365 149q-106 0 -169.5 -48t-63.5 -126q0 -31 35 -72.5t35 -74.5q0 -41 -28 -67.5t-71 -26.5q-53 0 -84.5 50t-31.5 126q0 143 106.5 233t273.5 90
q205 0 439 -166q209 170 489 170q201 0 303.5 -78.5t102.5 -213.5q0 -115 -91.5 -191t-222.5 -76q-100 0 -202.5 37t-168 79t-163.5 114q-133 -168 -172 -385q-29 -180 -11.5 -311.5t78 -215.5t144.5 -125t188 -41zM1513 1380q-205 0 -383 -168q96 -72 150.5 -108.5
t142.5 -72.5t172 -36q100 0 158.5 53.5t58.5 125.5q0 206 -299 206z" />
    <glyph glyph-name="glyph441" horiz-adv-x="1892" 
d="M1473 1657l-304 -144l-32 58l362 256l281 -256l-51 -58zM1288 61q297 0 506 392l61 -21q-88 -209 -246.5 -339t-396.5 -130q-195 0 -327.5 108.5t-182 279.5t-14.5 370q55 305 250 510q-213 150 -365 149q-106 0 -169.5 -48t-63.5 -126q0 -31 35 -72.5t35 -74.5
q0 -41 -28 -67.5t-71 -26.5q-53 0 -84.5 50t-31.5 126q0 143 106.5 233t273.5 90q205 0 439 -166q209 170 489 170q201 0 303.5 -78.5t102.5 -213.5q0 -115 -91.5 -191t-222.5 -76q-100 0 -202.5 37t-168 79t-163.5 114q-133 -168 -172 -385q-29 -180 -11.5 -311.5
t78 -215.5t144.5 -125t188 -41zM1513 1380q-205 0 -383 -168q96 -72 150.5 -108.5t142.5 -72.5t172 -36q100 0 158.5 53.5t58.5 125.5q0 206 -299 206z" />
    <glyph glyph-name="glyph442" horiz-adv-x="1892" 
d="M1462 1645q-49 0 -75.5 30.5t-18.5 75.5q6 47 42 79t85 32t75.5 -32t20.5 -79q-8 -45 -44 -75.5t-85 -30.5zM1288 61q297 0 506 392l61 -21q-88 -209 -246.5 -339t-396.5 -130q-195 0 -327.5 108.5t-182 279.5t-14.5 370q55 305 250 510q-213 150 -365 149
q-106 0 -169.5 -48t-63.5 -126q0 -31 35 -72.5t35 -74.5q0 -41 -28 -67.5t-71 -26.5q-53 0 -84.5 50t-31.5 126q0 143 106.5 233t273.5 90q205 0 439 -166q209 170 489 170q201 0 303.5 -78.5t102.5 -213.5q0 -115 -91.5 -191t-222.5 -76q-100 0 -202.5 37t-168 79
t-163.5 114q-133 -168 -172 -385q-29 -180 -11.5 -311.5t78 -215.5t144.5 -125t188 -41zM1513 1380q-205 0 -383 -168q96 -72 150.5 -108.5t142.5 -72.5t172 -36q100 0 158.5 53.5t58.5 125.5q0 206 -299 206z" />
    <glyph glyph-name="glyph443" horiz-adv-x="1894" 
d="M1305 1434q326 0 506 -212t124 -532q-55 -311 -277 -500.5t-523 -189.5h-613l4 47q45 6 81 38t44 85l209 1182q-258 33 -315 32q-190 0 -191 -116q0 -29 28 -69t28 -73q0 -43 -28 -68.5t-71 -25.5q-51 0 -83.5 43t-30.5 99q2 123 94 209.5t276 86.5q92 0 271.5 -17
t310.5 -17l-2 -2h158zM1739 653q53 305 -76 500t-406 195q-98 0 -167 -7l-5 -8h-41l-213 -1210q143 -33 304 -33q244 0 402.5 166t201.5 397z" />
    <glyph glyph-name="glyph444" horiz-adv-x="1888" 
d="M1673 1786l-362 -256l-281 256l51 57l258 -143l303 143zM1298 1434q324 0 504 -212t125 -532q-55 -311 -276 -500.5t-523 -189.5h-606l4 47q45 6 81 38t44 85l209 1182q-258 33 -315 32q-190 0 -191 -116q0 -29 28 -69t28 -73q0 -43 -28 -68.5t-71 -25.5q-51 0 -83.5 43
t-30.5 99q2 123 94 209.5t276 86.5q92 0 271.5 -17t310.5 -17l-2 -2h151zM1731 653q53 305 -75 500t-407 195q-92 0 -159 -7l-5 -8h-41l-213 -1210q123 -33 297 -33q244 0 403 166t200 397z" />
    <glyph glyph-name="glyph445" horiz-adv-x="1888" 
d="M1294 1434q326 0 507 -212t126 -532q-53 -311 -274 -500.5t-523 -189.5h-608l4 47q45 6 81 38t44 85l88 500h-274l14 94h277l104 588q-258 33 -315 32q-190 0 -191 -116q0 -29 28 -69t28 -73q0 -43 -28 -68.5t-71 -25.5q-51 0 -83.5 43t-30.5 99q2 123 94 209.5t276 86.5
q92 0 271.5 -17t310.5 -17l-2 -2h147zM1731 653q53 305 -76 500t-408 195q-92 0 -155 -7l-7 -8h-41l-100 -569h270l-14 -94h-272l-97 -547q131 -31 299 -31q244 0 402 165t199 396z" />
    <glyph glyph-name="glyph446" horiz-adv-x="1783" 
d="M1569 973q-143 0 -260 51t-258 147q-29 -53 -29 -114q0 -113 80 -188.5t219 -75.5h137l-22 -91h-203q-190 0 -304 -96t-114 -246q0 -141 107.5 -227t316.5 -86q168 0 307.5 90t214.5 250l76 -29q-96 -195 -245.5 -295t-379.5 -100q-260 0 -430 104.5t-170 284.5
q0 164 109.5 272.5t316.5 133.5v8q-193 68 -192 285q0 117 72 209q-188 123 -345 122q-106 0 -168.5 -47t-62.5 -127q0 -29 34 -71.5t34 -75.5q0 -41 -27 -66.5t-72 -25.5q-53 0 -84.5 50t-31.5 126q0 141 107.5 232t272.5 91q201 0 416 -137q180 137 484 137
q213 0 318 -70.5t105 -185.5q0 -113 -96 -176t-233 -63zM1481 1384q-102 0 -201.5 -35.5t-167.5 -97.5q94 -66 146.5 -97.5t139.5 -63t171 -31.5q104 0 168.5 41t64.5 108q1 176 -321 176z" />
    <glyph glyph-name="glyph447" horiz-adv-x="1783" 
d="M1374 1587q-115 0 -174 57.5t-74 143.5l74 31q14 -47 66.5 -84t124.5 -37q70 0 136 37t95 84l66 -31q-105 -201 -314 -201zM1569 973q-143 0 -260 51t-258 147q-29 -53 -29 -114q0 -113 80 -188.5t219 -75.5h137l-22 -91h-203q-190 0 -304 -96t-114 -246
q0 -141 107.5 -227t316.5 -86q168 0 307.5 90t214.5 250l76 -29q-96 -195 -245.5 -295t-379.5 -100q-260 0 -430 104.5t-170 284.5q0 164 109.5 272.5t316.5 133.5v8q-193 68 -192 285q0 117 72 209q-188 123 -345 122q-106 0 -168.5 -47t-62.5 -127q0 -29 34 -71.5
t34 -75.5q0 -41 -27 -66.5t-72 -25.5q-53 0 -84.5 50t-31.5 126q0 141 107.5 232t272.5 91q201 0 416 -137q180 137 484 137q213 0 318 -70.5t105 -185.5q0 -113 -96 -176t-233 -63zM1481 1384q-102 0 -201.5 -35.5t-167.5 -97.5q94 -66 146.5 -97.5t139.5 -63t171 -31.5
q104 0 168.5 41t64.5 108q1 176 -321 176z" />
    <glyph glyph-name="glyph448" horiz-adv-x="1783" 
d="M1722 1786l-362 -256l-281 256l51 57l259 -143l303 143zM1569 973q-143 0 -260 51t-258 147q-29 -53 -29 -114q0 -113 80 -188.5t219 -75.5h137l-22 -91h-203q-190 0 -304 -96t-114 -246q0 -141 107.5 -227t316.5 -86q168 0 307.5 90t214.5 250l76 -29
q-96 -195 -245.5 -295t-379.5 -100q-260 0 -430 104.5t-170 284.5q0 164 109.5 272.5t316.5 133.5v8q-193 68 -192 285q0 117 72 209q-188 123 -345 122q-106 0 -168.5 -47t-62.5 -127q0 -29 34 -71.5t34 -75.5q0 -41 -27 -66.5t-72 -25.5q-53 0 -84.5 50t-31.5 126
q0 141 107.5 232t272.5 91q201 0 416 -137q180 137 484 137q213 0 318 -70.5t105 -185.5q0 -113 -96 -176t-233 -63zM1481 1384q-102 0 -201.5 -35.5t-167.5 -97.5q94 -66 146.5 -97.5t139.5 -63t171 -31.5q104 0 168.5 41t64.5 108q1 176 -321 176z" />
    </font>
</defs>
</svg>
