<?xml version="1.0" standalone="no"?>
<!DOCTYPE svg PUBLIC "-//W3C//DTD SVG 1.1//EN" "http://www.w3.org/Graphics/SVG/1.1/DTD/svg11.dtd" >
<svg xmlns="http://www.w3.org/2000/svg" xmlns:xlink="http://www.w3.org/1999/xlink" version="1.1">
<metadata>
Created by FontForge 20170731 at Wed Apr 17 11:03:24 2019
 By Aleksey,,,
Copyright (c) 2019 by Studio Sun. All rights reserved. Desktop use is strictly prohibited.
</metadata>
<defs>
<font id="Tropiline-ExtraBold" horiz-adv-x="1857" >
  <font-face 
    font-family="Tropiline ExtraBold"
    font-weight="800"
    font-stretch="normal"
    units-per-em="2048"
    panose-1="0 0 0 0 0 0 0 0 0 0"
    ascent="1536"
    descent="-512"
    x-height="1069"
    cap-height="1434"
    bbox="-596 -1399 3080 2257"
    underline-thickness="0"
    underline-position="0"
    unicode-range="U+0020-FB00"
  />
<missing-glyph horiz-adv-x="1345" 
d="M180 0v1434h985v-1434h-985zM379 154h590v1126h-590v-1126z" />
    <glyph glyph-name="uniFB00" unicode="ff" horiz-adv-x="1619" 
d="M1200 1366q0 -39 16.5 -90t49 -122t39.5 -85h321v-162h-297v-649q0 -152 105 -178l-17 -80h-506l-16 80q104 27 104 178v649h-434v-649q0 -152 105 -178l-17 -80h-506l-16 80q104 27 105 178v649h-199v162h192q-4 27 -13 70t-15 78.5t-6 70.5q0 141 99 236.5t271 95.5
q129 0 217 -70.5t88 -175.5q0 -63 -35.5 -104t-97.5 -41q-66 0 -99.5 35.5t-39.5 77.5t-27.5 78t-64.5 36q-70 0 -70 -90q0 -39 16.5 -90t49.5 -122t39 -85h452q-4 27 -13 70t-15.5 78.5t-6.5 70.5q0 141 99.5 236.5t271.5 95.5q129 0 217 -70.5t88 -175.5q0 -63 -35.5 -104
t-97.5 -41q-66 0 -99.5 35.5t-39.5 77.5t-27.5 78t-64.5 36q-70 0 -70 -90z" />
    <glyph glyph-name="T_h.liga" unicode="Th" horiz-adv-x="2652" 
d="M2517 260q14 -150 125 -180l-16 -80h-506l-17 80q100 31 86 180l-55 504q-8 86 -53 132t-107 48q-76 2 -130 -48t-54 -134v-502q0 -150 104 -180l-16 -80h-504l-16 80q104 31 104 180v995q-154 -55 -307 -55q-45 0 -65 2v-942q0 -150 104 -180l-16 -80h-564l-16 80
q106 31 107 180v1018q-199 59 -287 59q-135 0 -135 -88q0 -37 39.5 -99.5t39.5 -115.5q0 -63 -47 -108t-118 -45q-78 0 -132.5 61.5t-52.5 142.5q0 164 131 281t353 117q160 0 401.5 -30t390.5 -30q121 0 258 44t246 124l25 -10q-27 -123 -27 -346v-244h14q96 119 264 119
q178 0 286 -108.5t126 -327.5z" />
    <glyph glyph-name="f_t.liga" unicode="ft" horiz-adv-x="1492" 
d="M1479 905h-269v-643q0 -145 113 -145q70 0 119 24l33 -133q-113 -49 -269 -49q-162 0 -245.5 72.5t-83.5 236.5v637h-312v-647q0 -152 105 -178l-17 -82h-506l-16 82q104 27 105 178v647h-199v164h192q-4 27 -13 70t-15 78.5t-6 70.5q0 141 99 236.5t271 95.5
q129 0 217 -70.5t88 -175.5q0 -63 -35.5 -104t-97.5 -41q-66 0 -99.5 35.5t-39.5 77.5t-27.5 78t-64.5 36q-70 0 -70 -90q0 -39 16.5 -90t49.5 -122t39 -85h278q190 100 291 299h100v-301h269v-162z" />
    <glyph glyph-name=".notdef" horiz-adv-x="1345" 
d="M180 0v1434h985v-1434h-985zM379 154h590v1126h-590v-1126z" />
    <glyph glyph-name="glyph1" horiz-adv-x="0" 
 />
    <glyph glyph-name="glyph2" horiz-adv-x="681" 
 />
    <glyph glyph-name="space" unicode=" " horiz-adv-x="495" 
 />
    <glyph glyph-name="exclam" unicode="!" horiz-adv-x="606" 
d="M207 506q-10 213 -68.5 418.5t-58.5 308.5q0 129 65.5 184.5t157.5 55.5t157.5 -55.5t65.5 -184.5q0 -102 -58 -308t-69 -419h-192zM299 -41q-90 0 -153.5 60.5t-63.5 154.5t63.5 154.5t153.5 60.5q92 0 155.5 -60.5t63.5 -154.5t-63.5 -154.5t-155.5 -60.5z" />
    <glyph glyph-name="quotedbl" unicode="&#x22;" horiz-adv-x="985" 
d="M217 844q-23 127 -69 261t-46 193q0 80 48.5 127.5t122 47.5t122.5 -47.5t49 -127.5q0 -57 -47 -191t-67 -263h-113zM655 844q-20 129 -67 263t-47 191q0 80 48 127.5t121.5 47.5t123 -47.5t49.5 -127.5q0 -59 -46 -193t-69 -261h-113z" />
    <glyph glyph-name="numbersign" unicode="#" horiz-adv-x="1437" 
d="M150 0l129 383h-263v129h308l141 412h-272v127h317l133 383h180l-131 -383h285l131 383h182l-131 -383h264v-127h-309l-141 -412h272v-129h-319l-129 -383h-183l129 383h-284l-129 -383h-180zM506 512h287l139 412h-285z" />
    <glyph glyph-name="dollar" unicode="$" horiz-adv-x="1359" 
d="M1298 444q0 -203 -154.5 -332.5t-395.5 -148.5v-315h-156v313q-266 12 -404.5 106.5t-138.5 213.5q0 61 43 102t109 41q63 0 100 -34t56.5 -82t47 -96t92 -82t169.5 -34q113 0 187.5 56.5t74.5 142.5q0 100 -89 158.5t-268 115.5q-84 27 -141 49.5t-124.5 62.5t-108.5 86
t-70 117.5t-29 157.5q0 182 136.5 293t357.5 131v267h156v-263q197 -10 334 -85.5t137 -192.5q0 -61 -35 -98t-99 -37q-51 0 -82.5 28.5t-50 69.5t-41 82t-77 69.5t-138.5 28.5q-100 0 -169.5 -53t-69.5 -131q0 -92 83 -143.5t257 -102.5q113 -33 185.5 -61.5t153.5 -80.5
t121.5 -132.5t40.5 -186.5z" />
    <glyph glyph-name="percent" unicode="%" horiz-adv-x="1794" 
d="M444.5 682q-178.5 0 -292 110.5t-115.5 284.5q0 176 111.5 286t293.5 110q178 0 290 -111t112 -287q0 -174 -110.5 -283.5t-289 -109.5zM514 0l627 1434h143l-625 -1434h-145zM442.5 819q67.5 0 107.5 68.5t40 187.5q0 121 -41 189.5t-107 68.5q-70 0 -109.5 -66.5
t-39.5 -189.5q0 -121 41 -189.5t108.5 -68.5zM1358 -41q-178 0 -292 111.5t-114 285.5q0 176 111 285t293 109q178 0 289.5 -110t111.5 -286q0 -174 -110.5 -284.5t-288.5 -110.5zM1355.5 96q67.5 0 107.5 68.5t40 189.5t-41 189.5t-106 68.5q-70 0 -110 -67.5t-40 -190.5
q0 -119 41 -188.5t108.5 -69.5z" />
    <glyph glyph-name="ampersand" unicode="&#x26;" horiz-adv-x="1933" 
d="M1704 553q94 0 144 -65.5t50 -163.5q0 -166 -126.5 -264.5t-323.5 -98.5q-207 0 -342 105q-209 -104 -455 -105q-145 0 -263 42t-188.5 110.5t-107.5 149.5t-37 163q0 166 97.5 295t259.5 186v17q-133 82 -133 241q0 145 109.5 226.5t293.5 81.5t293.5 -82t109.5 -228
q0 -209 -213 -278v-19q72 -31 129.5 -78t102.5 -114.5t72.5 -117.5t64.5 -132q70 127 70 283q0 150 -170 192l18 80h506l21 -80q-68 -16 -119 -65.5t-51 -133.5q0 -272 -181 -464q74 -121 172 -121q53 0 93 31.5t40 84.5q0 39 -39.5 94.5t-39.5 102.5q0 55 40 90t103 35z
M682 1339q-68 0 -109 -49t-41 -135q0 -84 42 -134t108 -50q68 0 107.5 49t39.5 133q0 86 -40.5 136t-106.5 50zM424 449q0 -117 85 -207t232 -90q127 0 244 47q-51 80 -103.5 215t-102.5 237.5t-117 151.5q-238 -153 -238 -354z" />
    <glyph glyph-name="quotesingle" unicode="'" horiz-adv-x="548" 
d="M217 844q-23 127 -69 261t-46 193q0 80 48.5 127.5t122 47.5t122.5 -47.5t49 -127.5q0 -57 -47 -191t-67 -263h-113z" />
    <glyph glyph-name="parenleft" unicode="(" horiz-adv-x="741" 
d="M672 -436q-131 68 -238.5 154.5t-200 204.5t-144.5 274.5t-52 335t52 335t144.5 274.5t200 206t236.5 155l55 -67q-170 -125 -277.5 -369t-107.5 -534.5t107.5 -530.5t279.5 -371z" />
    <glyph glyph-name="parenright" unicode=")" horiz-adv-x="741" 
d="M70 -436l-56 67q172 131 279.5 371t107.5 530.5t-107.5 534.5t-277.5 369l56 67q129 -68 236.5 -155.5t199.5 -205.5t144.5 -274.5t52.5 -335t-52.5 -335t-144.5 -274.5t-199.5 -204.5t-238.5 -154.5z" />
    <glyph glyph-name="asterisk" unicode="*" horiz-adv-x="1017" 
d="M223 590q-41 29 -49 74t23 90q23 31 91 81t107 85l-14 51q-49 4 -136 5t-124 13q-51 16 -71.5 58.5t-4.5 87.5q16 47 56 68.5t92 6.5q37 -12 105.5 -63t115.5 -78l43 31q-10 49 -27.5 102t-27 87t-9.5 65q0 55 33 87t82 32t83 -32t34 -87q0 -39 -26 -121t-38 -135l41 -29
q41 25 113.5 76t109.5 63q51 16 91 -5t57 -68q16 -45 -4.5 -87t-71.5 -59q-37 -12 -126 -13t-138 -5l-15 -49q37 -33 109 -84.5t94 -83.5q31 -45 23 -90.5t-49 -73.5q-37 -31 -84 -24t-78 50q-23 31 -50.5 114t-47.5 130h-50q-23 -49 -50 -131t-50 -113q-31 -43 -78 -50
t-84 24z" />
    <glyph glyph-name="plus" unicode="+" horiz-adv-x="1167" 
d="M508 154v497h-492v133h492v498h147v-498h496v-133h-496v-497h-147z" />
    <glyph glyph-name="comma" unicode="," horiz-adv-x="616" 
d="M311 352q102 0 167 -71.5t65 -194.5q0 -162 -96.5 -307.5t-251.5 -222.5l-72 104q170 115 227 313l-6 9q-35 -20 -63 -21q-84 0 -142.5 55.5t-58.5 141.5t67.5 140t163.5 54z" />
    <glyph glyph-name="hyphen" unicode="-" horiz-adv-x="634" 
d="M16 446v246h605v-246h-605z" />
    <glyph glyph-name="period" unicode="." horiz-adv-x="581" 
d="M291 -39q-90 0 -153.5 59.5t-63.5 153.5t63.5 154.5t153.5 60.5t153.5 -60.5t63.5 -154.5t-63.5 -153.5t-153.5 -59.5z" />
    <glyph glyph-name="slash" unicode="/" horiz-adv-x="743" 
d="M0 -446l596 1941h147l-598 -1941h-145z" />
    <glyph glyph-name="zero" unicode="0" horiz-adv-x="1320" 
d="M661.5 -39q-280.5 0 -440.5 199.5t-160 558t160 556.5t440.5 198t439.5 -199t159 -555q0 -358 -159 -558t-439.5 -200zM661.5 117q108.5 0 156.5 142t48 459.5t-48 458t-156.5 140.5t-157.5 -141.5t-49 -456.5q0 -317 49 -459.5t157.5 -142.5z" />
    <glyph glyph-name="one" unicode="1" horiz-adv-x="1103" 
d="M229 0l-16 80q152 43 152 178v885h-144l-16 96l432 201h113v-1182q0 -135 149 -178l-16 -80h-654z" />
    <glyph glyph-name="two" unicode="2" horiz-adv-x="1286" 
d="M1106 469l84 -39l-141 -477h-29q-68 47 -244 47h-631v205q104 78 180 139.5t161 147.5t137.5 166.5t87 184t34.5 210.5q0 123 -62 195.5t-167 72.5q-111 0 -193.5 -93t-84.5 -257l-125 16q2 223 144 354.5t366 131.5q219 0 362 -113t143 -307q0 -129 -51 -243t-147 -207
t-200.5 -163.5t-246.5 -144.5v-8h123q123 0 215 17.5t150.5 53t80 55t54.5 56.5z" />
    <glyph glyph-name="three" unicode="3" horiz-adv-x="1226" 
d="M537 -39q-174 0 -314.5 69.5t-140.5 194.5q0 68 39 112t106.5 44t107.5 -42t53 -93t48 -93t96 -42q111 0 175.5 79.5t64.5 221.5q0 147 -77 235t-216 88h-53v129h51q98 0 155.5 71t57.5 173q0 94 -58.5 152.5t-158.5 58.5q-96 0 -163.5 -71.5t-76.5 -203.5l-112 13
q14 190 145 303t342 113q205 0 326 -92.5t121 -235.5q0 -217 -238 -303v-13q147 -31 240.5 -131t93.5 -241q0 -215 -161.5 -355.5t-452.5 -140.5z" />
    <glyph glyph-name="four" unicode="4" horiz-adv-x="1308" 
d="M1217 340h-191v-84q0 -133 152 -176l-17 -80h-655l-17 80q152 43 152 178v82h-551l-33 106l695 988h274v-949h227zM256 485h385v535h-12l-373 -526v-9z" />
    <glyph glyph-name="five" unicode="5" horiz-adv-x="1193" 
d="M571 938q256 0 399.5 -127t143.5 -330q0 -227 -155.5 -373.5t-434.5 -146.5q-170 0 -307 67.5t-137 190.5q0 68 40 111t99 43q66 0 101.5 -27t51 -64.5t32 -75.5t59.5 -64.5t117 -26.5q117 0 187.5 69.5t70.5 188.5q0 117 -92.5 196.5t-253.5 79.5q-164 0 -287 -78
l-94 25v838h671q137 0 187 51h28l-49 -340l-688 2v-268q121 59 311 59z" />
    <glyph glyph-name="six" unicode="6" horiz-adv-x="1253" 
d="M752 940q215 0 327.5 -138t112.5 -343q0 -213 -160 -355.5t-407 -142.5q-256 0 -410 178t-154 477q0 172 47.5 313.5t130.5 242t198.5 168t252.5 100.5t295 33l2 -121q-182 0 -320.5 -127t-191.5 -383h8q41 41 115 69.5t154 28.5zM625 98q178 0 178 361q0 297 -187 297
q-45 0 -92 -30t-75 -81q-2 -33 -3 -104q0 -236 40.5 -339.5t138.5 -103.5z" />
    <glyph glyph-name="seven" unicode="7" horiz-adv-x="1261" 
d="M1149 1434v-197q-115 -150 -181.5 -249t-132 -231t-93 -272.5t-27.5 -310.5q0 -111 -58.5 -162t-140.5 -51q-90 0 -144.5 60.5t-54.5 152.5q0 141 53.5 284.5t143.5 267.5t186.5 224.5t204.5 184.5v10h-215q-123 0 -215 -18.5t-149.5 -56.5t-79 -57.5t-53.5 -58.5l-87 41
l142 490h31q57 -51 290 -51h580z" />
    <glyph glyph-name="eight" unicode="8" horiz-adv-x="1261" 
d="M604 -39q-242 0 -392.5 113.5t-150.5 277.5q0 244 252 379v10q-92 63 -140 139t-48 197q0 164 147.5 280t382.5 116q225 0 352.5 -100.5t127.5 -237.5q0 -225 -215 -336v-11q135 -76 207.5 -160.5t72.5 -232.5q0 -193 -164 -313.5t-432 -120.5zM731 889q164 96 164 252
q0 84 -49 134t-146 50q-88 0 -139 -42t-51 -122q0 -155 221 -272zM584 109q109 0 170 50t61 140q0 61 -25.5 113.5t-80 94.5t-101.5 68.5t-125 63.5q-162 -102 -161 -289q0 -111 70.5 -176t191.5 -65z" />
    <glyph glyph-name="nine" unicode="9" horiz-adv-x="1253" 
d="M629 1473q256 0 409.5 -177.5t153.5 -478.5q0 -213 -71.5 -380t-198.5 -269t-292 -154.5t-362 -52.5l-2 121q182 0 320.5 127t191.5 383h-8q-41 -41 -114.5 -69.5t-153.5 -28.5q-217 0 -329 138t-112 343q0 213 160 355.5t408 142.5zM637 678q43 0 91 30.5t77 82.5
q2 33 2 102q0 236 -40 339t-138 103q-180 0 -180 -360q0 -297 188 -297z" />
    <glyph glyph-name="colon" unicode=":" horiz-adv-x="583" 
d="M293 623q-92 0 -155.5 59t-63.5 153.5t63.5 155t155.5 60.5t154.5 -60.5t62.5 -155t-63.5 -153.5t-153.5 -59zM293 -39q-92 0 -155.5 59.5t-63.5 153.5t63.5 154.5t155.5 60.5t154.5 -60.5t62.5 -154.5t-63.5 -153.5t-153.5 -59.5z" />
    <glyph glyph-name="semicolon" unicode=";" horiz-adv-x="616" 
d="M297 623q-90 0 -153.5 59t-63.5 154q-2 94 61.5 154.5t155.5 60.5q90 0 153.5 -60.5t63.5 -155t-63.5 -153.5t-153.5 -59zM311 352q102 0 167 -71.5t65 -194.5q0 -162 -96.5 -307.5t-251.5 -222.5l-72 104q170 115 227 313l-6 9q-35 -20 -63 -21q-84 0 -142.5 55.5
t-58.5 141.5t67.5 140t163.5 54z" />
    <glyph glyph-name="less" unicode="&#x3c;" horiz-adv-x="1163" 
d="M1104 184l-1045 432v146l1045 430v-143l-860 -357v-8l860 -354v-146z" />
    <glyph glyph-name="equal" unicode="=" horiz-adv-x="1118" 
d="M16 852v135h1086v-135h-1086zM16 449v131h1086v-131h-1086z" />
    <glyph glyph-name="greater" unicode="&#x3e;" horiz-adv-x="1163" 
d="M59 184v146l859 354v8l-859 357v143l1043 -430v-146z" />
    <glyph glyph-name="question" unicode="?" horiz-adv-x="1073" 
d="M281 506v377h92q90 0 150.5 4t141 17.5t122.5 48t42 87.5q0 100 -92 189.5t-215 89.5q-66 0 -105.5 -35t-57 -78t-60.5 -77.5t-111 -34.5q-66 0 -108.5 45t-42.5 106q0 106 103.5 167t269.5 61q231 0 427.5 -152t196.5 -330q0 -94 -33.5 -161.5t-84 -106.5t-129 -61.5
t-148.5 -29.5t-162 -7v-119h-196zM385 -39q-92 0 -154.5 59.5t-62.5 155.5q0 94 63.5 153.5t153.5 59.5t153.5 -60.5t63.5 -152.5q0 -96 -63.5 -155.5t-153.5 -59.5z" />
    <glyph glyph-name="at" unicode="@" horiz-adv-x="1925" 
d="M1040 -362q-193 0 -362.5 54t-304.5 159.5t-217 275.5t-93 385q-12 258 122 468t356.5 322.5t476.5 112.5q356 0 592.5 -186.5t251.5 -513.5q14 -279 -147 -454t-402 -175q-174 0 -230 156h-10q-47 -70 -131 -113t-174 -43q-184 0 -287.5 134t-60.5 337q39 199 181 313.5
t341 114.5q84 0 149.5 -33.5t96.5 -89.5h12l66 123h262l-137 -629q-8 -45 8 -74.5t59 -29.5q109 0 198 135t81 328q-6 147 -66.5 262t-159 184.5t-222.5 104t-265 34.5q-166 0 -319.5 -56t-270.5 -156.5t-183.5 -251t-57.5 -324.5q18 -367 254.5 -564.5t588.5 -197.5
q160 0 314 55l36 -110q-162 -57 -346 -57zM887 242q129 0 180 139l84 369q-10 37 -48 60.5t-87 23.5q-199 0 -262 -297q-33 -162 -1 -228.5t134 -66.5z" />
    <glyph glyph-name="A" unicode="A" horiz-adv-x="1466" 
d="M1305 258q59 -147 176 -178l-17 -80h-585l-17 80q94 31 33 178l-29 74h-522l-29 -74q-29 -74 -18.5 -119t51.5 -59l-16 -80h-330l-16 80q119 33 176 178l364 907q-37 68 -116 129l10 82q27 0 69.5 4t142 30t161.5 69h16zM410 494h391l-193 477h-8z" />
    <glyph glyph-name="B" unicode="B" horiz-adv-x="1474" 
d="M1053 758q160 -35 260 -135.5t100 -241.5q0 -193 -142.5 -303.5t-369.5 -110.5q-125 0 -299 16.5t-311 16.5h-236l-16 80q104 31 104 180v914q0 150 -104 180l16 80h822q188 0 312 -99.5t124 -251.5q0 -111 -71 -195.5t-189 -119.5v-10zM696 1282q-82 0 -168 -8v-438h170
q102 0 165 64.5t63 164.5q0 96 -60.5 156.5t-169.5 60.5zM745 143q143 0 213 77t70 196q0 125 -87 196.5t-210 71.5h-203v-510q115 -31 217 -31z" />
    <glyph glyph-name="C" unicode="C" horiz-adv-x="1437" 
d="M786 -39q-332 0 -528.5 213t-196.5 553q0 324 206 535t511 211q78 0 174.5 -19.5t134.5 -19.5q94 0 173 39h28l94 -500l-96 -19q-59 162 -180 263.5t-283 101.5q-150 0 -264.5 -126t-114.5 -337q0 -289 145.5 -468t342.5 -179q268 0 371 340l96 -25q-27 -236 -186 -399.5
t-427 -163.5z" />
    <glyph glyph-name="D" unicode="D" horiz-adv-x="1519" 
d="M682 1434q328 0 552 -214t224 -538q0 -352 -198.5 -517t-526.5 -165h-678l-16 80q104 31 104 180v914q0 150 -104 180l16 80h627zM715 154q182 0 273 134t91 324q0 123 -29.5 239t-85 213t-149.5 155.5t-211 58.5q-10 0 -34.5 -1t-39.5 -1v-1106q89 -16 185 -16z" />
    <glyph glyph-name="E" unicode="E" horiz-adv-x="1335" 
d="M1247 424l84 -39l-127 -424h-28q-31 16 -129.5 27.5t-169.5 11.5h-822l-16 80q104 31 104 178v916q0 150 -104 180l16 80h1125l82 -359l-84 -31q-4 10 -12.5 25.5t-45.5 55.5t-84 71t-133 56.5t-190 25.5q-82 0 -183 -18v-451h324q154 0 180 106l82 -16v-338l-82 -16
q-27 106 -178 106h-326v-475q143 -23 230 -22q92 0 176 27.5t138 67.5t95 80t60 68z" />
    <glyph glyph-name="F" unicode="F" horiz-adv-x="1265" 
d="M1180 1434l82 -359l-82 -31q-4 10 -12.5 25.5t-45.5 55.5t-85 71t-134 56.5t-190 25.5q-109 0 -185 -8v-504h312q150 0 180 106l80 -16v-338l-80 -16q-31 106 -180 106h-312v-350q0 -147 107 -178l-17 -80h-563l-16 80q104 31 104 178v916q0 150 -104 180l16 80h1125z
" />
    <glyph glyph-name="G" unicode="G" horiz-adv-x="1521" 
d="M1485 748l16 -80q-104 -31 -104 -179v-489h-92l-95 119h-6q-162 -158 -418 -158q-332 0 -528.5 213t-196.5 553q0 324 206 535t511 211q78 0 174.5 -19.5t134.5 -19.5q94 0 173 39h28l94 -500l-96 -19q-57 162 -178 263.5t-283 101.5q-152 0 -266.5 -136t-114.5 -352
q0 -297 137.5 -474t356.5 -177q37 0 78 10v299q0 78 -32 119t-99 60l16 80h584z" />
    <glyph glyph-name="H" unicode="H" horiz-adv-x="1581" 
d="M1436 258q0 -145 106 -178l-16 -80h-561l-17 80q104 31 105 178v381h-525v-381q0 -147 107 -178l-17 -80h-563l-16 80q104 31 104 178v916q0 150 -104 180l16 80h561l19 -80q-106 -31 -107 -180v-359h525v359q0 150 -105 180l17 80h561l16 -80q-106 -33 -106 -180v-916z
" />
    <glyph glyph-name="I" unicode="I" horiz-adv-x="673" 
d="M55 0l-16 80q104 31 104 178v916q0 150 -104 180l16 80h563l17 -80q-104 -31 -105 -180v-916q0 -147 105 -178l-17 -80h-563z" />
    <glyph glyph-name="J" unicode="J" horiz-adv-x="698" 
d="M27 -442q-172 0 -259 63.5t-87 161.5q0 70 46 115t113 45q53 0 90 -21.5t54.5 -51.5t31 -59.5t30.5 -51t44 -21.5q90 0 90 280v1156q0 150 -106 180l18 80h561l17 -80q-104 -31 -105 -180v-1074q0 -147 -43 -255.5t-120.5 -170t-170.5 -89t-204 -27.5z" />
    <glyph glyph-name="K" unicode="K" horiz-adv-x="1579" 
d="M1397 258q94 -152 198 -178l-16 -80h-635l-14 80q43 14 50 58t-34 120l-270 444h-12l-134 -120v-324q0 -147 105 -178l-17 -80h-563l-16 80q104 31 104 178v916q0 150 -104 180l16 80h563l17 -80q-104 -31 -105 -180v-355h13l387 355q51 45 60 85.5t-7 62t-43 32.5l16 80
h525l16 -80q-152 -35 -313 -180l-221 -201z" />
    <glyph glyph-name="L" unicode="L" horiz-adv-x="1298" 
d="M1210 455l84 -39l-139 -455h-31q-29 16 -127 27.5t-170 11.5h-772l-16 80q104 31 104 178v916q0 150 -104 180l16 80h563l17 -80q-104 -31 -105 -180v-1006q109 -14 179 -14q92 0 177 30.5t141 74.5t100 89t65 76z" />
    <glyph glyph-name="M" unicode="M" horiz-adv-x="1845" 
d="M43 0l-16 80q106 31 125 178l116 916q14 150 -82 180l17 80h420l303 -840h12l305 840h404l14 -80q-100 -31 -82 -176l115 -920q18 -147 125 -178l-17 -80h-555l-16 80q96 31 82 178l-82 639h-19l-325 -897h-144l-327 905h-15l-84 -647q-14 -147 82 -178l-14 -80h-342z
" />
    <glyph glyph-name="N" unicode="N" horiz-adv-x="1458" 
d="M1413 1434l14 -80q-106 -33 -106 -180v-1174h-184q-33 106 -109 201.5t-170 173.5t-191.5 155.5t-195.5 182t-162 219.5h-8v-674q0 -147 105 -178l-17 -80h-334l-16 80q104 31 104 178v916q0 150 -104 180l16 80h320q92 -156 216 -291t221 -215t195.5 -180.5
t149.5 -196.5h10v623q0 150 -106 180l16 80h336z" />
    <glyph glyph-name="O" unicode="O" horiz-adv-x="1564" 
d="M784 -39q-295 0 -509 211t-214 539q0 340 197 551t522 211q297 0 510 -217.5t213 -548.5q0 -330 -205 -538t-514 -208zM872 113q113 0 183.5 111.5t70.5 260.5q0 176 -53 364.5t-162.5 329t-244.5 140.5q-111 0 -181.5 -111.5t-70.5 -265.5q0 -193 53 -380t161.5 -318
t243.5 -131z" />
    <glyph glyph-name="P" unicode="P" horiz-adv-x="1507" 
d="M877 1434q268 0 434 -138.5t166 -343.5q0 -211 -174.5 -356t-487.5 -145q-145 0 -285 20v-213q0 -147 105 -178l-17 -80h-563l-16 80q106 31 106 178v916q0 150 -106 180l16 80h822zM743 612q170 0 257 101.5t87 236.5t-107.5 231.5t-260.5 96.5q-106 0 -189 -16v-623
q102 -27 213 -27z" />
    <glyph glyph-name="Q" unicode="Q" horiz-adv-x="1566" 
d="M1126 -121q86 0 156 30t98 58l27 29l70 -49q-2 -12 -9.5 -34t-35 -75t-63.5 -93t-102.5 -73.5t-144.5 -33.5q-94 0 -180 39.5t-143.5 87t-144.5 87t-181 39.5q-63 0 -127.5 -26.5t-95.5 -52.5l-33 -27l-65 86q35 53 105.5 105.5t168.5 72.5v8q-166 98 -265.5 268.5
t-99.5 385.5q0 342 198 553t523 211q297 0 510 -217.5t213 -548.5q0 -307 -178 -511t-457 -233v-8q143 -78 256 -78zM668 1321q-111 0 -181.5 -111.5t-70.5 -267.5q0 -193 53 -379t161.5 -317t243.5 -131q113 0 183.5 111.5t70.5 260.5q0 176 -53 364.5t-162.5 329
t-244.5 140.5z" />
    <glyph glyph-name="R" unicode="R" horiz-adv-x="1595" 
d="M1602 96l8 -90q-135 -43 -250 -43q-299 0 -371 279q-35 150 -71.5 219t-105.5 101t-198 32h-86v-336q0 -147 107 -178l-17 -80h-563l-16 80q104 31 104 178v916q0 150 -104 180l16 80h795q274 0 444 -111t170 -303q0 -293 -350 -387v-17q137 -18 193.5 -87.5t97.5 -219.5
q18 -66 27.5 -92.5t31 -63t54.5 -49t84 -8.5zM713 1278q-98 0 -185 -14v-506h207q176 0 258 67.5t82 180.5q0 127 -98 199.5t-264 72.5z" />
    <glyph glyph-name="S" unicode="S" horiz-adv-x="1378" 
d="M700 -39q-90 0 -217 35t-186 35q-29 0 -57.5 -8.5t-42.5 -14.5l-13 -8h-30l-105 461l94 33q78 -168 221.5 -283t317.5 -115q115 0 188.5 58.5t73.5 146.5q0 39 -12 72t-42 59.5t-54.5 44t-79 39t-82 30.5t-94.5 29q-90 29 -139.5 47.5t-125 59.5t-115.5 84t-71 115.5
t-31 160.5q0 203 156 317t383 114q111 0 230.5 -31t156.5 -31q25 0 49.5 5t36.5 11l10 7h35l96 -412l-92 -23q-70 154 -197.5 245t-281.5 91q-102 0 -163.5 -51t-61.5 -129q0 -41 21.5 -76t47 -55t85 -44t92 -34t112.5 -33q66 -18 103.5 -30.5t98 -36t97.5 -45t80 -57
t67.5 -76.5t41 -97.5t16.5 -121.5q0 -221 -176.5 -354.5t-440.5 -133.5z" />
    <glyph glyph-name="T" unicode="T" horiz-adv-x="1484" 
d="M1341 1473l127 -437l-84 -41q-6 10 -17 28.5t-53 65t-90 83t-126 68.5t-162 38v-1020q0 -147 106 -178l-16 -80h-563l-17 80q104 31 105 178v1022q-84 -6 -162 -37t-128 -72t-88 -80.5t-54 -66.5l-19 -29l-84 41l127 437h29q31 -16 126 -27.5t165 -11.5h557q72 0 166 11
t127 28h28z" />
    <glyph glyph-name="U" unicode="U" horiz-adv-x="1366" 
d="M684 -41q-178 0 -323.5 60.5t-234.5 194.5t-73 323l58 637q12 150 -88 180l16 80h561l16 -80q-106 -31 -118 -180l-58 -635q-16 -186 90.5 -304t262.5 -118q166 0 271 117.5t89 304.5l-53 632q-16 154 -125 181l16 82h336l16 -82q-47 -12 -70.5 -59.5t-19.5 -118.5
l58 -637q23 -260 -160.5 -419t-466.5 -159z" />
    <glyph glyph-name="V" unicode="V" horiz-adv-x="1415" 
d="M1413 1434l17 -80q-115 -31 -162 -178l-353 -1049q18 -41 56 -86l-13 -41q-188 12 -385 -39h-18l-405 1215q-53 147 -164 178l18 80h582l16 -80q-41 -14 -54 -59.5t9 -118.5l270 -807h13l274 807q25 76 11.5 119.5t-56.5 58.5l16 80h328z" />
    <glyph glyph-name="W" unicode="W" horiz-adv-x="2129" 
d="M2126 1434l18 -80q-113 -33 -157 -178l-318 -1072q16 -29 41 -61l-14 -41q-106 0 -203.5 -9t-139.5 -17.5t-57 -14.5h-32l-201 784h-12l-203 -632q14 -31 47 -72l-14 -41q-199 12 -398 -39h-18l-330 1215q-39 147 -149 178l20 80h590l12 -80q-43 -14 -59.5 -59.5
t2.5 -118.5l217 -807h10l211 657l-24 100q-2 8 -9.5 39t-9.5 39t-11 33t-18.5 38t-26 34.5t-38.5 42.5l25 82q248 -12 401 47h16l285 -1112h14l240 807q45 145 -51 178l14 80h330z" />
    <glyph glyph-name="X" unicode="X" horiz-adv-x="1427" 
d="M1237 258q94 -154 195 -178l-17 -80h-620l-17 80q43 14 50.5 58t-33.5 120l-207 328h-17l-209 -328q-41 -76 -33.5 -120t50.5 -58l-17 -80h-350l-16 80q100 25 194 178l304 479l-275 437q-94 156 -196 180l16 80h620l17 -80q-41 -16 -48 -59.5t34 -120.5l174 -277h16
l176 277q43 76 35 120.5t-51 59.5l18 80h348l17 -80q-100 -25 -195 -180l-270 -429z" />
    <glyph glyph-name="Y" unicode="Y" horiz-adv-x="1386" 
d="M410 0l-15 80q104 31 105 178v406l-320 510q-94 154 -194 180l14 80h621l16 -80q-41 -16 -48 -59.5t34 -120.5l198 -312h15l198 312q43 76 35 120.5t-51 59.5l16 80h350l17 -80q-100 -25 -195 -180l-321 -512v-404q0 -147 104 -178l-16 -80h-563z" />
    <glyph glyph-name="Z" unicode="Z" horiz-adv-x="1349" 
d="M1167 -41q-31 16 -126 28.5t-164 12.5h-811l-17 90l746 1190h-160q-92 0 -176 -30.5t-138.5 -73.5t-96.5 -86t-60 -74l-21 -31l-84 41l131 447h31q29 -16 124 -27.5t167 -11.5h743l17 -91l-746 -1191h228q92 0 176 33.5t139 81.5t98 97.5t62 81.5l20 35l86 -41l-139 -481
h-29z" />
    <glyph glyph-name="bracketleft" unicode="[" horiz-adv-x="741" 
d="M121 -414v1878h575v-110h-299v-1657h299v-111h-575z" />
    <glyph glyph-name="backslash" unicode="\" horiz-adv-x="743" 
d="M596 -446l-596 1941h145l598 -1941h-147z" />
    <glyph glyph-name="bracketright" unicode="]" horiz-adv-x="741" 
d="M45 -414v111h299v1657h-297v110h576l-2 -1878h-576z" />
    <glyph glyph-name="asciicircum" unicode="^" horiz-adv-x="1120" 
d="M80 821l414 613h135l413 -613h-135l-346 314l-346 -314h-135z" />
    <glyph glyph-name="underscore" unicode="_" horiz-adv-x="1085" 
d="M0 -193v113h1087v-113h-1087z" />
    <glyph glyph-name="grave" unicode="`" horiz-adv-x="1101" 
d="M530 1155l-286 184q-86 53 -86 129q0 39 29.5 68t72.5 29q72 0 139 -82l213 -264z" />
    <glyph glyph-name="a" unicode="a" horiz-adv-x="1181" 
d="M1212 117l29 -72q-84 -84 -240 -84q-211 0 -266 174h-12q-47 -92 -138 -133t-192 -41q-150 0 -249 79t-99 212q0 70 23.5 126t72.5 97t98.5 69.5t130.5 52.5t137 36t146 29l-24 163q-8 61 -42 95t-81 34q-45 0 -76 -29.5t-22 -74.5q16 -72 -30 -119t-118 -47
q-70 0 -109.5 43t-39.5 117q0 106 109.5 185t316.5 79q182 0 305 -100.5t149 -302.5l53 -426q20 -174 115 -175q24 1 53 13zM541 154q61 0 111 58t48 130l-32 217q-287 -63 -287 -244q0 -76 45 -118.5t115 -42.5z" />
    <glyph glyph-name="b" unicode="b" horiz-adv-x="1298" 
d="M748 1108q217 0 359 -163t142 -413q0 -254 -135 -412.5t-358 -158.5q-225 0 -359 199h-2q-104 -61 -188 -160h-86v1174q0 147 -105 178l17 80q233 37 420 157l26 -10q-31 -121 -30 -344v-252h12q109 125 287 125zM750 125q84 0 136 78t52 192q0 74 -17.5 163t-51 178
t-94 148.5t-134.5 59.5q-86 0 -137 -75.5t-51 -198.5q0 -109 27.5 -227.5t99.5 -218t170 -99.5z" />
    <glyph glyph-name="c" unicode="c" horiz-adv-x="1126" 
d="M641 -39q-260 0 -426 170t-166 406q0 262 166 416.5t412 154.5q201 0 342 -99.5t141 -238.5q0 -63 -48 -112.5t-112 -49.5q-74 0 -118 37t-62 89t-35.5 104.5t-55.5 89.5t-106 37q-78 0 -138 -79t-60 -200q0 -227 98 -348t283 -121q90 0 169 48t122 110l65 -25
q-29 -172 -141.5 -280.5t-329.5 -108.5z" />
    <glyph glyph-name="d" unicode="d" horiz-adv-x="1316" 
d="M1176 258q0 -147 104 -178l-16 -80q-186 -4 -314 -41h-26l-35 141h-15q-125 -139 -323 -139q-215 0 -358.5 162t-143.5 413.5t135 411.5t359 160q174 0 293 -129h14v195q0 147 -107 178l17 80q233 37 418 157l24 -10q-27 -113 -26 -344v-977zM657 125q86 0 137.5 75.5
t51.5 196.5q0 78 -16.5 168t-50.5 177t-93 144.5t-135 57.5q-86 0 -137.5 -79t-51.5 -193q0 -74 17.5 -162t50.5 -177t93 -148.5t134 -59.5z" />
    <glyph glyph-name="e" unicode="e" horiz-adv-x="1212" 
d="M774 217q92 0 169 50t118 112l65 -25q-14 -158 -149 -275.5t-340 -117.5q-258 0 -423 170t-165 406q0 260 165 415.5t411 155.5q162 0 280.5 -76t167.5 -201q27 -68 72 -75l18 -101l-741 -215q86 -223 352 -223zM586 950q-84 0 -142.5 -79.5t-58.5 -190.5q0 -53 6 -102
l395 114q-6 100 -58 179t-142 79z" />
    <glyph glyph-name="f" unicode="f" horiz-adv-x="856" 
d="M436 1366q0 -39 16.5 -90t49.5 -122t39 -85h321v-162h-297v-649q0 -152 105 -178l-17 -80h-506l-16 80q104 27 105 178v649h-199v162h192q-4 27 -13 70t-15 78.5t-6 70.5q0 141 99 236.5t271 95.5q129 0 217 -70.5t88 -175.5q0 -63 -35.5 -104t-97.5 -41
q-66 0 -99.5 35.5t-39.5 77.5t-27.5 78t-64.5 36q-70 0 -70 -90z" />
    <glyph glyph-name="g" unicode="g" horiz-adv-x="1185" 
d="M711 188q231 0 336.5 -64.5t105.5 -201.5q0 -182 -169 -281.5t-427 -99.5q-508 0 -508 242q0 109 109 168v8q-106 61 -107 199q0 84 46 143t122 84v10q-141 115 -141 305q0 184 135 296t362 112q78 0 160 -16q92 180 277 180q70 0 118 -33t48 -96q0 -55 -29 -93t-88 -38
q-41 0 -82 32.5t-66 32.5q-31 0 -59 -28q221 -109 221 -355q0 -184 -135 -295.5t-360 -111.5q-137 0 -246 43q-45 -16 -45 -54q0 -49 93 -68.5t329 -19.5zM543 963q-63 0 -103.5 -49.5t-40.5 -127.5q0 -115 57.5 -235.5t157.5 -120.5q61 0 100.5 49t39.5 131
q0 123 -56.5 238t-154.5 115zM559 -324q135 0 217 46.5t82 93.5t-47 60t-201 13q-158 0 -264 15q-72 -29 -72 -92q0 -59 70 -97.5t215 -38.5z" />
    <glyph glyph-name="h" unicode="h" horiz-adv-x="1286" 
d="M1198 258q14 -147 125 -178l-16 -80h-506l-17 80q100 31 86 178l-53 506q-8 86 -55 132t-115 46q-76 0 -127 -49t-51 -133v-502q0 -147 109 -178l-19 -80h-506l-16 80q104 29 104 178v916q0 152 -104 178l16 80q236 37 420 159l25 -10q-29 -123 -29 -346v-246h16
q94 121 265 121q176 0 283.5 -108.5t127.5 -329.5z" />
    <glyph glyph-name="i" unicode="i" horiz-adv-x="620" 
d="M305 1198q-92 0 -145.5 54.5t-53.5 128t53.5 130t145.5 56.5q90 0 144.5 -56.5t54.5 -130t-54.5 -128t-144.5 -54.5zM59 0l-16 80q106 31 107 178v444q0 147 -107 179l16 80q215 33 387 149h31v-852q0 -147 107 -178l-19 -80h-506z" />
    <glyph glyph-name="j" unicode="j" horiz-adv-x="604" 
d="M309 1198q-90 0 -143 54.5t-53 128t53 130t143 56.5t144.5 -56.5t54.5 -130t-54.5 -128t-144.5 -54.5zM94 -459q-145 0 -229 64.5t-84 165.5q0 57 41 99t104 42q74 0 107 -41t30.5 -90t15 -90t64.5 -41q37 0 57.5 44t20.5 103q0 53 -33.5 169t-33.5 198v538
q0 147 -105 179l17 80q215 35 387 149h28l2 -1169q0 -180 -97 -290t-292 -110z" />
    <glyph glyph-name="k" unicode="k" horiz-adv-x="1302" 
d="M1114 258q96 -147 221 -178l-16 -80h-565l-17 80q84 31 -10 178l-182 281h-15q-20 -25 -61 -70v-211q0 -147 106 -178l-16 -80h-506l-16 80q104 31 104 178v916q0 150 -104 178l16 80q233 37 418 159l27 -10q-29 -123 -29 -346v-530h14l168 194q82 100 166 155.5
t201 55.5t186.5 -55.5t69.5 -149.5q0 -88 -44 -144t-128 -56q-66 0 -106 34.5t-69.5 68.5t-70.5 34q-37 0 -88 -45z" />
    <glyph glyph-name="l" unicode="l" horiz-adv-x="614" 
d="M55 0l-18 80q106 31 106 178v916q0 152 -106 178l18 80q233 37 418 159l27 -10q-29 -115 -29 -346v-977q0 -147 107 -178l-17 -80h-506z" />
    <glyph glyph-name="m" unicode="m" horiz-adv-x="1904" 
d="M1808 258q12 -145 125 -178l-16 -80h-508l-16 80q102 31 88 178l-49 438q-10 100 -41 154.5t-103 54.5q-68 0 -107.5 -65.5t-41.5 -153.5v-14v-414q0 -147 104 -178l-16 -80h-510l-17 80q104 31 105 178v438q0 92 -42 150.5t-120 58.5t-126 -60.5t-48 -150.5v-436
q0 -145 106 -178l-16 -80h-506l-16 80q104 31 104 178v434q0 147 -104 178l16 80q180 29 371 160h29l8 -186h14q115 186 303 186q223 0 314 -186h10q104 186 299 186q328 0 368 -438z" />
    <glyph glyph-name="n" unicode="n" horiz-adv-x="1271" 
d="M1184 258q14 -147 125 -178l-17 -80h-506l-18 80q100 31 86 178l-45 438q-8 94 -51 151.5t-121 57.5q-76 0 -123 -60.5t-47 -148.5v-438q0 -145 108 -178l-16 -80h-506l-14 80q102 31 102 178v434q0 147 -104 178l16 80q178 29 369 160h29l8 -160h12q104 160 287 160
q348 0 389 -438z" />
    <glyph glyph-name="o" unicode="o" horiz-adv-x="1226" 
d="M618 -39q-258 0 -413.5 162t-155.5 416t153.5 412.5t409.5 158.5t411 -161t155 -417q0 -254 -153 -412.5t-407 -158.5zM686 125q90 0 133 75.5t43 196.5q0 61 -20.5 148.5t-57 179.5t-101.5 155.5t-140 63.5q-90 0 -134 -74.5t-44 -197.5q0 -92 32.5 -214t110.5 -227.5
t178 -105.5z" />
    <glyph glyph-name="p" unicode="p" horiz-adv-x="1306" 
d="M756 1110q217 0 359 -163t142 -414.5t-135 -411.5t-358 -160q-174 0 -293 129h-12v-252q0 -147 104 -178l-14 -80h-506l-16 80q104 31 104 178v854q0 147 -106 178l18 80q195 35 352 160h29l14 -139h13q119 139 305 139zM756 125q86 0 138 78t52 194q0 102 -28.5 222
t-99 222.5t-169.5 102.5q-86 0 -137 -75.5t-51 -196.5q0 -109 27.5 -228.5t98.5 -219t169 -99.5z" />
    <glyph glyph-name="q" unicode="q" horiz-adv-x="1298" 
d="M1180 -162q0 -147 104 -178l-16 -80h-506l-17 80q106 31 107 178v248h-16q-106 -125 -285 -125q-217 0 -359.5 162t-142.5 412q0 254 135 414.5t359 160.5q215 0 352 -205q121 68 201 164h84v-1231zM657 125q86 0 137.5 75.5t51.5 196.5q0 109 -27.5 228.5t-98.5 219
t-169 99.5q-86 0 -138.5 -79t-52.5 -193q0 -74 17.5 -162t50.5 -177t93 -148.5t136 -59.5z" />
    <glyph glyph-name="r" unicode="r" horiz-adv-x="1013" 
d="M768 1110q102 0 167.5 -64.5t65.5 -160.5q0 -84 -55 -142.5t-133 -58.5q-66 0 -105.5 30.5t-51 66.5t-32 67t-53.5 31q-41 0 -71.5 -51.5t-30.5 -120.5v-449q0 -72 29.5 -118t79.5 -60l-19 -80h-506l-16 80q104 31 104 178v432q0 152 -104 178l16 82q166 25 369 160h29
l10 -166h10q107 166 297 166z" />
    <glyph glyph-name="s" unicode="s" horiz-adv-x="1101" 
d="M592 -39q-76 0 -199 36t-160 38q-25 0 -48 -9.5t-33 -17.5l-13 -8h-26l-88 383l69 23q88 -141 223.5 -223.5t260.5 -82.5q72 0 116.5 32t44.5 89q0 115 -301 213q-154 47 -258 132t-104 210q0 150 127 242t307 92q94 0 196.5 -37t131.5 -37q55 0 94 33h26l72 -342
l-84 -25q-74 127 -181.5 200t-201.5 73q-63 0 -99 -30t-36 -75q0 -63 66.5 -103t193.5 -79q84 -27 143.5 -53.5t121 -66.5t93 -98t31.5 -130q0 -180 -136 -279.5t-349 -99.5z" />
    <glyph glyph-name="t" unicode="t" horiz-adv-x="847" 
d="M537 -39q-328 0 -328 307v637h-184v115q281 82 415 350h101v-301h268v-164h-268v-643q0 -145 112 -145q59 0 121 24l31 -133q-125 -47 -268 -47z" />
    <glyph glyph-name="u" unicode="u" horiz-adv-x="1316" 
d="M1174 258q0 -147 106 -178l-16 -82q-193 -4 -320 -39h-26l-52 195h-8q-123 -195 -358 -195q-166 0 -268.5 110.5t-102.5 327.5v303q0 150 -104 179l16 79q223 39 387 152h31v-739q0 -98 53 -152.5t139 -54.5q80 0 137.5 60.5t57.5 146.5v329q0 152 -105 179l17 82
q219 35 385 149h31v-852z" />
    <glyph glyph-name="v" unicode="v" horiz-adv-x="1110" 
d="M907 1110q178 0 178 -184q0 -84 -106 -310l-293 -616h-217l-276 690q-61 152 -183 178l15 82q221 35 329 160h31l301 -764h8l158 336q16 41 16 53q0 23 -21.5 44.5t-47 38t-47 51t-21.5 83.5q0 72 48 115t128 43z" />
    <glyph glyph-name="w" unicode="w" horiz-adv-x="1628" 
d="M1417 1110q86 0 135.5 -53t49.5 -137q0 -80 -95 -304l-268 -616h-258l-156 467h-6l-160 -467h-303l-200 690q-45 150 -162 178l16 82q236 35 357 160h28l211 -739h10l234 698h151l236 -698h10l133 313q12 33 13 49q0 23 -22.5 45.5t-49.5 39t-49.5 53t-22.5 85.5
q0 70 45 112t123 42z" />
    <glyph glyph-name="x" unicode="x" horiz-adv-x="1316" 
d="M1077 258q98 -147 219 -178l-16 -80h-567l-17 80q90 31 -8 178l-110 170h-13l-127 -170q-117 -147 -32 -178l-29 -80h-352l-5 80q123 29 244 178l211 277l-178 276q-92 145 -219 180l16 78h570l14 -78q-84 -33 8 -180l72 -106h10l80 106q117 145 33 180l28 78h353l6 -78
q-131 -35 -244 -180l-164 -213z" />
    <glyph glyph-name="y" unicode="y" horiz-adv-x="1140" 
d="M934 1110q84 0 136 -58.5t52 -140.5q0 -147 -90 -397q-145 -442 -368 -711q-104 -135 -203 -198.5t-217 -63.5q-88 0 -148.5 50.5t-60.5 127.5q0 72 48 118t118 46q43 0 76.5 -18.5t50 -41t34 -41t31.5 -18.5q63 0 158 134q39 49 72 102h-72l-322 690q-35 74 -95 119
t-124 59l17 82q260 41 350 160h29l374 -791h13q55 127 81 236q41 121 39 180q-2 25 -25.5 48.5t-52 41t-52 52t-23.5 79.5q0 70 49 112t125 42z" />
    <glyph glyph-name="z" unicode="z" horiz-adv-x="1112" 
d="M944 -39q-31 16 -127 27.5t-164 11.5h-602l-16 94l583 834v12h-133q-217 0 -319 -211l-74 31l72 309h872l17 -94l-576 -821v-11h141q78 0 151 28t119 68t82 79.5t50 66.5l16 29l72 -37l-133 -416h-31z" />
    <glyph glyph-name="braceleft" unicode="{" horiz-adv-x="735" 
d="M686 -440q-80 0 -161 19.5t-157.5 61.5t-118.5 119.5t-30 182.5l35 319q10 90 -46 144.5t-161 54.5v135q104 0 160.5 55.5t46.5 145.5l-35 317q-12 104 30 183t117.5 121t156.5 61.5t163 19.5v-90q-90 0 -152.5 -44t-50.5 -146l39 -326q16 -145 -63.5 -234.5
t-214.5 -126.5v-8q135 -37 215 -125t63 -233l-39 -328q-10 -102 51.5 -145t151.5 -43v-90z" />
    <glyph glyph-name="bar" unicode="|" horiz-adv-x="696" 
d="M276 -442v1927h142v-1927h-142z" />
    <glyph glyph-name="braceright" unicode="}" horiz-adv-x="735" 
d="M47 -440v90q92 0 153.5 43t51.5 145l-39 328q-16 145 63.5 233t215.5 125v8q-135 37 -215 126.5t-64 234.5l39 326q12 102 -50.5 146t-154.5 44v90q82 0 163 -19.5t157.5 -61.5t118.5 -120.5t30 -183.5l-37 -317q-10 -90 47.5 -145.5t159.5 -55.5v-135
q-102 0 -159.5 -54.5t-47.5 -144.5l37 -319q12 -104 -30 -182t-118.5 -120t-157.5 -61.5t-163 -19.5z" />
    <glyph glyph-name="asciitilde" unicode="~" horiz-adv-x="1130" 
d="M741 549q-68 0 -134 25.5t-110 57.5t-95.5 57.5t-90.5 25.5q-55 0 -83.5 -30t-28.5 -110h-129q0 205 89 305.5t230 100.5q84 0 168 -42t152.5 -83t117.5 -41q53 0 82 29.5t29 109.5h123q0 -207 -88.5 -306t-231.5 -99z" />
    <glyph glyph-name="uni00A0" unicode="&#xa0;" horiz-adv-x="374" 
 />
    <glyph glyph-name="exclamdown" unicode="&#xa1;" horiz-adv-x="598" 
d="M295 1044q-90 0 -153.5 59.5t-63.5 153.5q0 96 63.5 156t153.5 60q92 0 155.5 -59.5t63.5 -156.5q0 -94 -63.5 -153.5t-155.5 -59.5zM299 -41q-92 0 -157.5 56.5t-65.5 185.5q0 102 58.5 307t68.5 418h192q10 -213 68.5 -418t58.5 -307q0 -129 -65.5 -185.5t-157.5 -56.5
z" />
    <glyph glyph-name="cent" unicode="&#xa2;" horiz-adv-x="1230" 
d="M1061 553q-20 -129 -112.5 -226.5t-248.5 -125.5v-201h-176v195q-203 23 -326.5 170t-123.5 346q0 215 126 353t324 165v205h176v-205q156 -23 257.5 -109t101.5 -198q0 -59 -44 -105.5t-104 -46.5q-70 0 -109.5 34t-56 83t-33 97t-52 82t-99.5 34q-86 0 -157.5 -87
t-71.5 -202q0 -201 103.5 -310.5t269.5 -109.5q94 0 176 53.5t123 130.5z" />
    <glyph glyph-name="sterling" unicode="&#xa3;" horiz-adv-x="1523" 
d="M1358 520q55 -35 93 -100.5t38 -138.5q0 -164 -89 -243t-241 -79q-66 0 -139.5 30.5t-118.5 60.5t-131 91q-74 -94 -183.5 -138t-213.5 -44q-156 0 -242 70.5t-86 177.5q0 111 93 179.5t218 68.5q68 0 144 -11q-6 35 -19.5 72t-21.5 54.5t-33 64.5t-29 55h-272v176h205
q-16 70 -17 152q0 221 159 338t400 117q207 0 337 -94.5t130 -241.5q0 -86 -45 -142.5t-120 -56.5q-74 0 -114 36t-40 89q0 23 10 61.5t10 53.5q0 55 -43 96t-112 41q-96 0 -147.5 -80t-51.5 -188q0 -90 35 -181h309v-176h-225q63 -127 63 -235q0 -66 -12 -121
q231 -92 338 -92q57 0 100 32.5t43 94.5q0 33 -16 58.5t-29 29.5zM342 137q63 0 104 41t54 117q-78 25 -144 24q-51 0 -90 -27.5t-39 -66.5t33 -63.5t82 -24.5z" />
    <glyph glyph-name="currency" unicode="&#xa4;" horiz-adv-x="1351" 
d="M676 301q-150 0 -266 74l-195 -193l-170 170l193 193q-72 115 -72 266q0 154 74 264l-195 197l170 170l195 -195q115 74 266 74q147 0 264 -74l195 195l174 -174l-199 -191q76 -117 76 -266q0 -145 -76 -266l197 -193l-172 -172l-195 195q-119 -74 -264 -74zM676 555
q104 0 180 76t76 180q0 106 -76 182t-180 76q-106 0 -182 -75.5t-76 -182.5q0 -104 76 -180t182 -76z" />
    <glyph glyph-name="yen" unicode="&#xa5;" horiz-adv-x="1447" 
d="M1415 1434l17 -80q-98 -25 -195 -178l-229 -367h229v-156h-322v-157h322v-160h-322v-78q0 -147 105 -178l-16 -80h-562l-16 80q104 31 104 178v78h-317v160h317v157h-317v156h227l-229 367q-96 154 -195 178l17 80h620l17 -80q-43 -14 -50.5 -58.5t33.5 -119.5l201 -314
h12l199 314q43 76 35 119.5t-51 58.5l16 80h350z" />
    <glyph glyph-name="brokenbar" unicode="&#xa6;" horiz-adv-x="696" 
d="M276 649v836h142v-836h-142zM276 -442v833h142v-833h-142z" />
    <glyph glyph-name="section" unicode="&#xa7;" horiz-adv-x="1044" 
d="M61 748q0 111 91 208q-90 78 -91 195q0 135 134.5 228.5t316.5 93.5q180 0 303 -82t123 -185q0 -51 -33 -85t-90 -34q-49 0 -78.5 26t-45 61.5t-35 71.5t-60.5 61.5t-107 25.5q-80 0 -130 -41t-50 -102q0 -33 26.5 -61.5t83 -51t88.5 -33t97 -26.5q16 -4 23 -6
q184 -49 270 -127t86 -201q-2 -109 -90 -205q90 -80 90 -196q-2 -137 -135 -230.5t-316 -93.5q-190 0 -315 82t-123 186q0 49 33 84t88 35q57 0 93 -39t53.5 -85t66.5 -85t131 -39q80 0 128 40t48 106q0 35 -27.5 63.5t-84 50t-92 32.5t-97.5 26q-10 2 -16 4
q-184 51 -271.5 129t-85.5 199zM276 817q0 -133 228 -182q158 -35 246 -74q14 25 18 60q0 127 -227 178q-168 37 -250 75q-15 -28 -15 -57z" />
    <glyph glyph-name="dieresis" unicode="&#xa8;" horiz-adv-x="1046" 
d="M309 1200q-76 0 -119 44t-43 106q0 63 43 108t119 45q74 0 119 -46t45 -107q0 -59 -44 -104.5t-120 -45.5zM737.5 1200q-73.5 0 -118 44t-44.5 105.5t44.5 107.5t118 46t117.5 -46t44 -107.5t-44 -105.5t-117.5 -44z" />
    <glyph glyph-name="copyright" unicode="&#xa9;" horiz-adv-x="1622" 
d="M811 -39q-319 0 -546.5 221t-227.5 535q0 311 227.5 533.5t546.5 222.5t545.5 -222.5t226.5 -533.5q0 -313 -226.5 -534.5t-545.5 -221.5zM811 49q283 0 481.5 195.5t198.5 472.5q0 274 -198.5 469.5t-481.5 195.5t-481.5 -195.5t-198.5 -469.5q0 -276 198.5 -472
t481.5 -196zM815 242q-209 0 -339 130t-130 363q0 188 131 326.5t328 138.5q47 0 123 -12t123 -12h82l61 -304l-59 -14q-43 111 -122 174.5t-179 63.5q-123 0 -197 -104.5t-74 -258.5q0 -178 76 -275.5t201 -97.5q66 0 120 27t86.5 70t51 79.5t30.5 75.5l82 -16
q-18 -147 -125.5 -250.5t-269.5 -103.5z" />
    <glyph glyph-name="ordfeminine" unicode="&#xaa;" horiz-adv-x="595" 
d="M557 1036l12 -32q-37 -39 -108 -39q-94 0 -121 75h-4q-41 -76 -146 -75q-66 0 -109.5 34.5t-43.5 94.5q0 45 21.5 77.5t68.5 52t79 29t97 21.5q-6 53 -12 74q-6 55 -49 55q-20 0 -32.5 -12.5t-8.5 -32.5q8 -33 -13.5 -54.5t-54.5 -21.5t-51.5 22.5t-15.5 55.5q2 45 50 79
t138 34q84 0 138 -46.5t67 -136.5l20 -184q8 -76 56 -76q10 0 22 6zM258 1055q27 0 47.5 23.5t18.5 54.5l-13 94q-121 -29 -121 -103q0 -33 19.5 -51t48.5 -18zM55 809v106h475v-106h-475z" />
    <glyph glyph-name="guillemotleft" unicode="&#xab;" horiz-adv-x="1126" 
d="M506 -25l-430 463v119l430 463l84 -57l-207 -465l207 -467zM969 -25l-432 463v119l432 463l84 -57l-207 -465l207 -467z" />
    <glyph glyph-name="logicalnot" unicode="&#xac;" horiz-adv-x="1107" 
d="M905 489v306h-889v176h1076v-482h-187z" />
    <glyph glyph-name="uni00AD" unicode="&#xad;" horiz-adv-x="446" 
d="M16 418v155h414v-155h-414z" />
    <glyph glyph-name="registered" unicode="&#xae;" horiz-adv-x="903" 
d="M451 1473q172 0 294.5 -119t122.5 -287q0 -166 -122.5 -284.5t-294.5 -118.5q-170 0 -292 118.5t-122 284.5q0 168 122 287t292 119zM450.5 741q137.5 0 235.5 96.5t98 229.5q0 135 -98 231.5t-235.5 96.5t-234.5 -96.5t-97 -231.5q0 -133 97 -229.5t234.5 -96.5z
M698 897l2 -29q-33 -12 -75 -12q-92 0 -115 80q-14 61 -31.5 79.5t-68.5 18.5h-17v-88q0 -45 31 -55l-4 -25h-172l-6 25q31 10 30 55v256q0 47 -30 53l6 25h237q80 0 129.5 -31.5t49.5 -87.5q0 -86 -103 -114v-5q29 -2 46.5 -16t24.5 -27.5t15 -42.5q2 -4 3 -10t2 -9l3 -9
t3 -8t3.5 -7.5t4.5 -6.5t6 -4t7 -3t8 -2t11 0zM442 1233q-20 0 -49 -4v-144h56q94 0 94 70q0 37 -28 57.5t-73 20.5z" />
    <glyph glyph-name="macron" unicode="&#xaf;" horiz-adv-x="1048" 
d="M209 1249v158h633v-158h-633z" />
    <glyph glyph-name="degree" unicode="&#xb0;" horiz-adv-x="538" 
d="M268 1014q-94 0 -162.5 67.5t-68.5 159.5q0 96 67.5 164t164 68t164 -68t67.5 -164q0 -92 -69 -159.5t-163 -67.5zM268.5 1116q53.5 0 90 37t36.5 88q0 53 -36.5 91t-90 38t-90.5 -38t-37 -91q0 -51 37 -88t90.5 -37z" />
    <glyph glyph-name="plusminus" unicode="&#xb1;" horiz-adv-x="1163" 
d="M512 219v434h-496v135h496v496h135v-496h500v-135h-500v-434h-135zM16 0v131h1131v-131h-1131z" />
    <glyph glyph-name="uni00B2" unicode="&#xb2;" horiz-adv-x="522" 
d="M444 1065l33 -16l-55 -187h-14q-29 16 -117 17h-240v84q109 76 171.5 151.5t62.5 171.5q0 45 -24.5 74t-63.5 29q-43 0 -75 -37t-32 -101l-45 9q0 86 54.5 138t142.5 52t144 -44t56 -120q0 -94 -67.5 -161.5t-186.5 -127.5v-4h62q128 0 194 72z" />
    <glyph glyph-name="uni00B3" unicode="&#xb3;" horiz-adv-x="514" 
d="M225 862q-70 0 -126 28t-56 77q0 61 59 61q29 0 45.5 -16.5t21.5 -36t18.5 -35.5t35.5 -16q43 0 67.5 29.5t24.5 84.5q0 57 -29.5 90t-82.5 33h-21v53h19q39 0 60.5 27t21.5 66q0 37 -22.5 59.5t-61.5 22.5q-37 0 -63.5 -28t-31.5 -77l-36 4q4 74 54 117t132 43
q84 0 132 -36t48 -91q0 -80 -96 -115v-6q59 -10 97 -50t38 -95q0 -84 -65.5 -138.5t-182.5 -54.5z" />
    <glyph glyph-name="acute" unicode="&#xb4;" horiz-adv-x="987" 
d="M432 1155l-78 64l211 264q66 82 140 82q43 0 71.5 -29t28.5 -68q0 -78 -84 -129z" />
    <glyph glyph-name="mu" unicode="&#xb5;" horiz-adv-x="1345" 
d="M1298 160l33 -125q-37 -31 -108.5 -52.5t-128.5 -21.5q-113 0 -176.5 38t-75.5 132h-8q-123 -170 -338 -170q-41 0 -82 6q41 -63 57 -88.5t36.5 -73t20.5 -81.5q0 -92 -55 -139.5t-143 -47.5q-84 0 -142.5 55.5t-58.5 149.5v637v12v582h328v-606q0 -98 51 -149.5
t139 -51.5q78 0 134.5 60.5t56.5 146.5v600h325l2 -744q0 -88 66 -88q32 1 67 19z" />
    <glyph glyph-name="paragraph" unicode="&#xb6;" horiz-adv-x="886" 
d="M229 -440q-154 0 -235.5 55t-81.5 143q0 55 39 91t92 36t91 -28.5t55.5 -64.5t49 -64.5t76.5 -28.5q223 0 224 307v709q-225 2 -344 107.5t-121 258.5q0 158 118.5 255.5t311.5 97.5h344l12 -62q-57 -16 -94 -62t-37 -116v-1104q0 -276 -136.5 -403t-363.5 -127z" />
    <glyph glyph-name="periodcentered" unicode="&#xb7;" horiz-adv-x="581" 
d="M291 532q-90 0 -153.5 60.5t-63.5 155t62.5 154t154.5 59.5q90 0 153.5 -59.5t63.5 -154t-63.5 -155t-153.5 -60.5z" />
    <glyph glyph-name="cedilla" unicode="&#xb8;" horiz-adv-x="1138" 
d="M532 -481q-109 0 -182.5 47t-73.5 110q0 31 23 55.5t53 24.5q39 0 62.5 -22.5t32 -48t35 -48t69.5 -22.5q51 0 82 26.5t31 71.5q0 29 -20.5 45.5t-49.5 16.5q-37 0 -66 -23l-69 33l119 274l120 -51l-63 -135q25 8 51 8q74 0 119 -35.5t45 -97.5q0 -92 -89.5 -160.5
t-228.5 -68.5z" />
    <glyph glyph-name="uni00B9" unicode="&#xb9;" horiz-adv-x="415" 
d="M76 879l-6 30q59 20 59 70v338h-55l-8 37l176 80h49v-455q0 -51 57 -70l-6 -30h-266z" />
    <glyph glyph-name="ordmasculine" unicode="&#xba;" horiz-adv-x="542" 
d="M272.5 965q-114.5 0 -183.5 71.5t-69 184.5q0 111 69 181.5t181 70.5q115 0 183.5 -71t68.5 -183.5t-67.5 -183t-182 -70.5zM305 1040q72 0 72 115q0 66 -38 154t-99 88q-74 0 -74 -117q0 -39 14.5 -91t48 -100.5t76.5 -48.5zM35 809v106h475v-106h-475z" />
    <glyph glyph-name="guillemotright" unicode="&#xbb;" horiz-adv-x="1126" 
d="M160 -25l-84 56l207 467l-207 465l84 57l430 -463v-119zM621 -25l-84 56l206 467l-206 465l84 57l432 -463v-119z" />
    <glyph glyph-name="onequarter" unicode="&#xbc;" horiz-adv-x="700" 
d="M268 1317h-55l-8 37l176 80h49v-455q0 -51 57 -70l-6 -30h-266l-6 30q59 20 59 70v338zM8 774h684v-110h-684v110zM463 555v-367h88l-14 -57h-74v-29q0 -53 59 -71l-6 -31h-268l-6 31q61 18 61 71v29h-231v43l276 381h115zM154 188h149v199h-6l-143 -194v-5z" />
    <glyph glyph-name="onehalf" unicode="&#xbd;" horiz-adv-x="700" 
d="M268 1317h-55l-8 37l176 80h49v-455q0 -51 57 -70l-6 -30h-266l-6 30q59 20 59 70v338zM8 774h684v-110h-684v110zM352 115q135 0 195 71l33 -16l-56 -186h-12q-29 16 -117 16h-241v84q111 76 173 151.5t62 172.5q0 45 -24.5 73.5t-65.5 28.5t-72.5 -37t-33.5 -100l-46 6
q2 88 56.5 140t140.5 52q88 0 145.5 -44t57.5 -119q0 -94 -67.5 -162t-186.5 -127v-4h59z" />
    <glyph glyph-name="threequarters" unicode="&#xbe;" horiz-adv-x="700" 
d="M313 862q-70 0 -126 28t-56 77q0 61 59 61q29 0 45.5 -16.5t21.5 -36t18.5 -35.5t35.5 -16q43 0 67.5 29.5t24.5 84.5q0 57 -29.5 90t-82.5 33h-21v53h19q39 0 60.5 27t21.5 66q0 37 -22.5 59.5t-61.5 22.5q-37 0 -63.5 -28t-30.5 -77l-37 4q4 74 54 117t132 43
q84 0 132 -36t48 -91q0 -80 -96 -115v-6q59 -10 97 -50t38 -95q0 -84 -65.5 -138.5t-182.5 -54.5zM8 774h684v-110h-684v110zM463 555v-367h88l-14 -57h-74v-29q0 -53 59 -71l-6 -31h-268l-6 31q61 18 61 71v29h-231v43l276 381h115zM154 188h149v199h-6l-143 -194v-5z" />
    <glyph glyph-name="questiondown" unicode="&#xbf;" horiz-adv-x="1073" 
d="M745.5 1044q-90.5 0 -154 60.5t-63.5 152.5q0 96 63.5 156t153.5 60q92 0 155 -59.5t63 -156.5q0 -94 -63.5 -153.5t-154 -59.5zM721 -39q-231 0 -428 151.5t-197 329.5q0 94 34 162t84 107t129 61.5t148.5 29.5t161.5 7v119h197v-377h-92q-90 0 -150.5 -4t-141.5 -17.5
t-123 -48.5t-42 -88q0 -100 92 -189t215 -89q66 0 106 34.5t57 77.5t60 78t111 35q66 0 109 -45t43 -107q0 -106 -103.5 -166.5t-269.5 -60.5z" />
    <glyph glyph-name="Agrave" unicode="&#xc0;" horiz-adv-x="1466" 
d="M397 1704q-84 51 -84 129q0 39 31 67.5t76 28.5q43 0 70.5 -19.5t62.5 -62.5l213 -264l-80 -63zM1305 258q59 -147 176 -178l-17 -80h-585l-17 80q94 31 33 178l-29 74h-522l-29 -74q-29 -74 -18.5 -119t51.5 -59l-16 -80h-330l-16 80q119 33 176 178l364 907
q-37 68 -116 129l10 82q27 0 69.5 4t142 30t161.5 69h16zM410 494h391l-193 477h-8z" />
    <glyph glyph-name="Aacute" unicode="&#xc1;" horiz-adv-x="1466" 
d="M895 1704l-287 -184l-80 63l211 264q37 43 66 63.5t72 20.5t73.5 -29.5t30.5 -68.5q0 -76 -86 -129zM1305 258q59 -147 176 -178l-17 -80h-585l-17 80q94 31 33 178l-29 74h-522l-29 -74q-29 -74 -18.5 -119t51.5 -59l-16 -80h-330l-16 80q119 33 176 178l364 907
q-37 68 -116 129l10 82q27 0 69.5 4t142 30t161.5 69h16zM410 494h391l-193 477h-8z" />
    <glyph glyph-name="Acircumflex" unicode="&#xc2;" horiz-adv-x="1466" 
d="M733 1630l-284 -121l-52 82l336 293l334 -293l-49 -82zM1305 258q59 -147 176 -178l-17 -80h-585l-17 80q94 31 33 178l-29 74h-522l-29 -74q-29 -74 -18.5 -119t51.5 -59l-16 -80h-330l-16 80q119 33 176 178l364 907q-37 68 -116 129l10 82q27 0 69.5 4t142 30
t161.5 69h16zM410 494h391l-193 477h-8z" />
    <glyph glyph-name="Atilde" unicode="&#xc3;" horiz-adv-x="1466" 
d="M588 1708q-68 0 -84 -78l-107 27q14 125 71.5 179t131.5 54q66 0 155 -49t128 -49q66 0 82 76l102 -25q-12 -127 -69.5 -181t-133.5 -54q-63 0 -150 50t-126 50zM1305 258q59 -147 176 -178l-17 -80h-585l-17 80q94 31 33 178l-29 74h-522l-29 -74q-29 -74 -18.5 -119
t51.5 -59l-16 -80h-330l-16 80q119 33 176 178l364 907q-37 68 -116 129l10 82q27 0 69.5 4t142 30t161.5 69h16zM410 494h391l-193 477h-8z" />
    <glyph glyph-name="Adieresis" unicode="&#xc4;" horiz-adv-x="1466" 
d="M518 1565q-74 0 -118 44t-44 105.5t44 107.5t118 46t119 -46t45 -108q0 -59 -44 -104t-120 -45zM946 1565q-74 0 -118 44t-44 105.5t44 107.5t118 46t119 -46t45 -108q0 -59 -45 -104t-119 -45zM1305 258q59 -147 176 -178l-17 -80h-585l-17 80q94 31 33 178l-29 74h-522
l-29 -74q-29 -74 -18.5 -119t51.5 -59l-16 -80h-330l-16 80q119 33 176 178l364 907q-37 68 -116 129l10 82q27 0 69.5 4t142 30t161.5 69h16zM410 494h391l-193 477h-8z" />
    <glyph glyph-name="Aring" unicode="&#xc5;" horiz-adv-x="1466" 
d="M692 1536q-90 0 -154.5 63.5t-64.5 153.5q0 88 64.5 152.5t154.5 64.5t154.5 -64.5t64.5 -152.5q0 -90 -64.5 -153.5t-154.5 -63.5zM692 1843q-39 0 -64.5 -26.5t-25.5 -63.5q0 -41 25.5 -67.5t64.5 -26.5t65.5 27.5t26.5 66.5q0 37 -26.5 63.5t-65.5 26.5zM1305 258
q59 -147 176 -178l-17 -80h-585l-17 80q94 31 33 178l-29 74h-522l-29 -74q-29 -74 -18.5 -119t51.5 -59l-16 -80h-330l-16 80q119 33 176 178l364 907q-37 68 -116 129l10 82q27 0 69.5 4t142 30t161.5 69h16zM410 494h391l-193 477h-8z" />
    <glyph glyph-name="AE" unicode="&#xc6;" horiz-adv-x="2238" 
d="M2124 424l86 -39l-127 -424h-31q-31 16 -130 27.5t-167 11.5h-823l-17 80q104 31 105 178v74h-551l-53 -74q-104 -147 -21 -178l-16 -80h-359l-14 80q121 31 227 178l748 1051q-23 33 -66 45l17 80h1126l78 -359l-82 -31q-4 10 -12 25.5t-45 55.5t-84 71t-133 56.5
t-189 25.5q-84 0 -186 -18v-453l326 2q74 0 120.5 27.5t59.5 76.5l82 -16v-336l-82 -16q-31 106 -180 106h-326v-475q156 -20 231 -20q92 0 176 27.5t138.5 67.5t95.5 79t59 67zM584 496h436v598h-10z" />
    <glyph glyph-name="Ccedilla" unicode="&#xc7;" horiz-adv-x="1437" 
d="M1399 524q-25 -221 -168.5 -381.5t-386.5 -179.5l-41 -90q25 8 51 8q74 0 119 -35.5t45 -97.5q0 -92 -89 -160.5t-229 -68.5q-109 0 -182.5 47t-73.5 110q0 31 22.5 55.5t53.5 24.5q39 0 62.5 -22.5t32 -48t34 -48t70.5 -22.5q49 0 79.5 26.5t30.5 71.5q0 29 -19 45.5
t-50 16.5q-39 0 -64 -23l-71 33l77 180q-297 27 -469 236t-172 526q0 324 206 535t511 211q78 0 174.5 -19.5t134.5 -19.5q94 0 173 39h28l94 -500l-96 -19q-59 162 -180 263.5t-283 101.5q-150 0 -264.5 -126t-114.5 -337q0 -289 145.5 -468t342.5 -179q268 0 371 340z" />
    <glyph glyph-name="Egrave" unicode="&#xc8;" horiz-adv-x="1335" 
d="M524 1704q-86 53 -86 129q0 39 30 67.5t73 28.5q72 0 139 -82l213 -264l-82 -63zM1247 424l84 -39l-127 -424h-28q-31 16 -129.5 27.5t-169.5 11.5h-822l-16 80q104 31 104 178v916q0 150 -104 180l16 80h1125l82 -359l-84 -31q-4 10 -12.5 25.5t-45.5 55.5t-84 71
t-133 56.5t-190 25.5q-82 0 -183 -18v-451h324q154 0 180 106l82 -16v-338l-82 -16q-27 106 -178 106h-326v-475q143 -23 230 -22q92 0 176 27.5t138 67.5t95 80t60 68z" />
    <glyph glyph-name="Eacute" unicode="&#xc9;" horiz-adv-x="1335" 
d="M809 1704l-287 -184l-80 63l211 264q68 82 140 82q43 0 72.5 -28.5t29.5 -67.5q0 -76 -86 -129zM1247 424l84 -39l-127 -424h-28q-31 16 -129.5 27.5t-169.5 11.5h-822l-16 80q104 31 104 178v916q0 150 -104 180l16 80h1125l82 -359l-84 -31q-4 10 -12.5 25.5
t-45.5 55.5t-84 71t-133 56.5t-190 25.5q-82 0 -183 -18v-451h324q154 0 180 106l82 -16v-338l-82 -16q-27 106 -178 106h-326v-475q143 -23 230 -22q92 0 176 27.5t138 67.5t95 80t60 68z" />
    <glyph glyph-name="Ecircumflex" unicode="&#xca;" horiz-adv-x="1335" 
d="M668 1630l-285 -121l-49 82l334 293l333 -293l-47 -82zM1247 424l84 -39l-127 -424h-28q-31 16 -129.5 27.5t-169.5 11.5h-822l-16 80q104 31 104 178v916q0 150 -104 180l16 80h1125l82 -359l-84 -31q-4 10 -12.5 25.5t-45.5 55.5t-84 71t-133 56.5t-190 25.5
q-82 0 -183 -18v-451h324q154 0 180 106l82 -16v-338l-82 -16q-27 106 -178 106h-326v-475q143 -23 230 -22q92 0 176 27.5t138 67.5t95 80t60 68z" />
    <glyph glyph-name="Edieresis" unicode="&#xcb;" horiz-adv-x="1335" 
d="M453 1565q-74 0 -118 44t-44 105.5t44 107.5t117.5 46t118.5 -46t45 -108q0 -59 -43.5 -104t-119.5 -45zM880.5 1565q-73.5 0 -117.5 44t-44 105.5t44 107.5t117.5 46t118.5 -46t45 -108q0 -59 -45 -104t-118.5 -45zM1247 424l84 -39l-127 -424h-28q-31 16 -129.5 27.5
t-169.5 11.5h-822l-16 80q104 31 104 178v916q0 150 -104 180l16 80h1125l82 -359l-84 -31q-4 10 -12.5 25.5t-45.5 55.5t-84 71t-133 56.5t-190 25.5q-82 0 -183 -18v-451h324q154 0 180 106l82 -16v-338l-82 -16q-27 106 -178 106h-326v-475q143 -23 230 -22
q92 0 176 27.5t138 67.5t95 80t60 68z" />
    <glyph glyph-name="Igrave" unicode="&#xcc;" horiz-adv-x="673" 
d="M410 1520l-287 184q-86 53 -86 129q0 39 29.5 67.5t72.5 28.5q72 0 140 -82l213 -264zM55 0l-16 80q104 31 104 178v916q0 150 -104 180l16 80h563l17 -80q-104 -31 -105 -180v-916q0 -147 105 -178l-17 -80h-563z" />
    <glyph glyph-name="Iacute" unicode="&#xcd;" horiz-adv-x="673" 
d="M279 1520l-80 63l211 264q68 82 139 82q43 0 72.5 -28.5t29.5 -67.5q0 -76 -86 -129zM55 0l-16 80q104 31 104 178v916q0 150 -104 180l16 80h563l17 -80q-104 -31 -105 -180v-916q0 -147 105 -178l-17 -80h-563z" />
    <glyph glyph-name="Icircumflex" unicode="&#xce;" horiz-adv-x="673" 
d="M53 1509l-49 82l334 293l334 -293l-47 -82l-287 121zM55 0l-16 80q104 31 104 178v916q0 150 -104 180l16 80h563l17 -80q-104 -31 -105 -180v-916q0 -147 105 -178l-17 -80h-563z" />
    <glyph glyph-name="Idieresis" unicode="&#xcf;" horiz-adv-x="673" 
d="M123 1565q-74 0 -118 44t-44 105.5t44 107.5t118 46t119 -46t45 -108q0 -59 -45 -104t-119 -45zM551 1565q-74 0 -118 44t-44 105.5t44 107.5t118 46t119 -46t45 -108q0 -59 -44 -104t-120 -45zM55 0l-16 80q104 31 104 178v916q0 150 -104 180l16 80h563l17 -80
q-104 -31 -105 -180v-916q0 -147 105 -178l-17 -80h-563z" />
    <glyph glyph-name="Eth" unicode="&#xd0;" horiz-adv-x="1593" 
d="M756 1434q330 0 553 -214t223 -538q0 -180 -55.5 -314.5t-155.5 -213t-228 -116.5t-286 -38h-678l-16 80q104 31 104 178v371h-215v176h215v369q0 150 -104 180l16 80h627zM788 154q182 0 273.5 134t91.5 324q0 123 -29.5 239t-85 213t-149.5 155.5t-211 58.5
q-23 0 -76 -4v-469h209l2 -176h-211v-459q88 -16 186 -16z" />
    <glyph glyph-name="Ntilde" unicode="&#xd1;" horiz-adv-x="1454" 
d="M582 1708q-68 0 -84 -78l-107 27q14 125 71.5 179t131.5 54q66 0 155 -49t128 -49q66 0 81 76l103 -25q-12 -127 -69.5 -181t-133.5 -54q-63 0 -150 50t-126 50zM1413 1434l14 -80q-106 -33 -106 -180v-1174h-184q-33 106 -109 201.5t-170 173.5t-191.5 155.5t-195.5 182
t-162 219.5h-8v-674q0 -147 105 -178l-17 -80h-334l-16 80q104 31 104 178v916q0 150 -104 180l16 80h320q92 -156 216 -291t221 -215t195.5 -180.5t149.5 -196.5h10v623q0 150 -106 180l16 80h336z" />
    <glyph glyph-name="Ograve" unicode="&#xd2;" horiz-adv-x="1564" 
d="M774 1520l-287 184q-86 53 -86 129q0 39 30 67.5t73 28.5q72 0 139 -82l213 -264zM784 -39q-295 0 -509 211t-214 539q0 340 197 551t522 211q297 0 510 -217.5t213 -548.5q0 -330 -205 -538t-514 -208zM872 113q113 0 183.5 111.5t70.5 260.5q0 176 -53 364.5
t-162.5 329t-244.5 140.5q-111 0 -181.5 -111.5t-70.5 -265.5q0 -193 53 -380t161.5 -318t243.5 -131z" />
    <glyph glyph-name="Oacute" unicode="&#xd3;" horiz-adv-x="1564" 
d="M762 1520l-80 63l211 264q68 82 141 82q43 0 72 -28.5t29 -67.5q0 -76 -86 -129zM784 -39q-295 0 -509 211t-214 539q0 340 197 551t522 211q297 0 510 -217.5t213 -548.5q0 -330 -205 -538t-514 -208zM872 113q113 0 183.5 111.5t70.5 260.5q0 176 -53 364.5t-162.5 329
t-244.5 140.5q-111 0 -181.5 -111.5t-70.5 -265.5q0 -193 53 -380t161.5 -318t243.5 -131z" />
    <glyph glyph-name="Ocircumflex" unicode="&#xd4;" horiz-adv-x="1564" 
d="M498 1509l-49 82l335 293l334 -293l-49 -82l-285 121zM784 -39q-295 0 -509 211t-214 539q0 340 197 551t522 211q297 0 510 -217.5t213 -548.5q0 -330 -205 -538t-514 -208zM872 113q113 0 183.5 111.5t70.5 260.5q0 176 -53 364.5t-162.5 329t-244.5 140.5
q-111 0 -181.5 -111.5t-70.5 -265.5q0 -193 53 -380t161.5 -318t243.5 -131z" />
    <glyph glyph-name="Otilde" unicode="&#xd5;" horiz-adv-x="1564" 
d="M915 1608q-66 0 -152.5 50t-125.5 50q-66 0 -82 -78l-106 27q12 127 69 180t133 53q63 0 152.5 -49t128.5 -49q68 0 84 76l102 -25q-14 -127 -71.5 -181t-131.5 -54zM784 -39q-295 0 -509 211t-214 539q0 340 197 551t522 211q297 0 510 -217.5t213 -548.5
q0 -330 -205 -538t-514 -208zM872 113q113 0 183.5 111.5t70.5 260.5q0 176 -53 364.5t-162.5 329t-244.5 140.5q-111 0 -181.5 -111.5t-70.5 -265.5q0 -193 53 -380t161.5 -318t243.5 -131z" />
    <glyph glyph-name="Odieresis" unicode="&#xd6;" horiz-adv-x="1564" 
d="M567 1565q-74 0 -117.5 44t-43.5 105.5t44 107.5t117.5 46t118.5 -46t45 -108q0 -59 -44 -104t-120 -45zM995.5 1565q-73.5 0 -117.5 44t-44 105.5t44 107.5t117.5 46t118.5 -46t45 -108q0 -59 -45 -104t-118.5 -45zM784 -39q-295 0 -509 211t-214 539q0 340 197 551
t522 211q297 0 510 -217.5t213 -548.5q0 -330 -205 -538t-514 -208zM872 113q113 0 183.5 111.5t70.5 260.5q0 176 -53 364.5t-162.5 329t-244.5 140.5q-111 0 -181.5 -111.5t-70.5 -265.5q0 -193 53 -380t161.5 -318t243.5 -131z" />
    <glyph glyph-name="multiply" unicode="&#xd7;" horiz-adv-x="1208" 
d="M231 268l-98 94l371 355l-371 352l98 94l371 -352l375 354l98 -94l-373 -354l373 -355l-98 -96l-375 357z" />
    <glyph glyph-name="Oslash" unicode="&#xd8;" horiz-adv-x="1564" 
d="M1190 1333q139 -104 220 -267t81 -359q0 -330 -205 -538t-514 -208q-158 0 -305 68l-82 -146l-119 68l82 147q-139 102 -219 260t-80 353q0 340 196.5 551t522.5 211q160 0 305 -70l82 147l121 -63zM401 942q0 -295 115 -541l412 740q-123 180 -275 180
q-111 0 -181.5 -112.5t-70.5 -266.5zM860 113q113 0 183.5 112.5t70.5 261.5q0 260 -108 512l-408 -733q112 -153 262 -153z" />
    <glyph glyph-name="Ugrave" unicode="&#xd9;" horiz-adv-x="1376" 
d="M752 1520l-287 184q-86 53 -86 129q0 39 29.5 67.5t72.5 28.5q72 0 140 -82l210 -264zM690 -41q-178 0 -323.5 60.5t-235.5 194.5t-74 323l58 637q14 147 -88 180l16 80h563l17 -80q-104 -29 -121 -180l-58 -635q-14 -186 92.5 -304t262.5 -118q164 0 269.5 117.5
t90.5 304.5l-55 632q-16 154 -123 181l16 82h336l17 -82q-102 -27 -90 -178l55 -637q23 -260 -160.5 -419t-464.5 -159z" />
    <glyph glyph-name="Uacute" unicode="&#xda;" horiz-adv-x="1376" 
d="M713 1520l-78 63l211 264q66 82 139 82q43 0 71.5 -28.5t28.5 -67.5q0 -78 -84 -129zM690 -41q-178 0 -323.5 60.5t-235.5 194.5t-74 323l58 637q14 147 -88 180l16 80h563l17 -80q-104 -29 -121 -180l-58 -635q-14 -186 92.5 -304t262.5 -118q164 0 269.5 117.5
t90.5 304.5l-55 632q-16 154 -123 181l16 82h336l17 -82q-102 -27 -90 -178l55 -637q23 -260 -160.5 -419t-464.5 -159z" />
    <glyph glyph-name="Ucircumflex" unicode="&#xdb;" horiz-adv-x="1376" 
d="M403 1509l-51 82l336 293l334 -293l-49 -82l-285 121zM690 -41q-178 0 -323.5 60.5t-235.5 194.5t-74 323l58 637q14 147 -88 180l16 80h563l17 -80q-104 -29 -121 -180l-58 -635q-14 -186 92.5 -304t262.5 -118q164 0 269.5 117.5t90.5 304.5l-55 632q-16 154 -123 181
l16 82h336l17 -82q-102 -27 -90 -178l55 -637q23 -260 -160.5 -419t-464.5 -159z" />
    <glyph glyph-name="Udieresis" unicode="&#xdc;" horiz-adv-x="1376" 
d="M473 1565q-76 0 -119 44t-43 105q0 63 43 108.5t119 45.5q74 0 119 -46t45 -108q0 -59 -44 -104t-120 -45zM899 1565q-74 0 -118 44t-44 105.5t44 107.5t118 46t119 -46t45 -108q0 -59 -44 -104t-120 -45zM690 -41q-178 0 -323.5 60.5t-235.5 194.5t-74 323l58 637
q14 147 -88 180l16 80h563l17 -80q-104 -29 -121 -180l-58 -635q-14 -186 92.5 -304t262.5 -118q164 0 269.5 117.5t90.5 304.5l-55 632q-16 154 -123 181l16 82h336l17 -82q-102 -27 -90 -178l55 -637q23 -260 -160.5 -419t-464.5 -159z" />
    <glyph glyph-name="Yacute" unicode="&#xdd;" horiz-adv-x="1386" 
d="M778 1520l-80 63l211 264q68 82 142 82q43 0 71.5 -28.5t28.5 -67.5q0 -76 -86 -129zM410 0l-15 80q104 31 105 178v406l-320 510q-94 154 -194 180l14 80h621l16 -80q-41 -16 -48 -59.5t34 -120.5l198 -312h15l198 312q43 76 35 120.5t-51 59.5l16 80h350l17 -80
q-100 -25 -195 -180l-321 -512v-404q0 -147 104 -178l-16 -80h-563z" />
    <glyph glyph-name="Thorn" unicode="&#xde;" horiz-adv-x="1433" 
d="M813 1139q274 0 433 -113t159 -309.5t-159 -309t-433 -112.5h-283v-37q0 -147 107 -178l-16 -80h-564l-16 80q106 31 106 178v916q0 150 -106 180l16 80h561l19 -80q-106 -31 -107 -180v-35h283zM672 451q154 0 249 69.5t95 196.5q0 129 -93.5 196.5t-250.5 67.5
q-63 0 -142 -8v-510q62 -12 142 -12z" />
    <glyph glyph-name="germandbls" unicode="&#xdf;" horiz-adv-x="1587" 
d="M1354 659q10 -12 47 -48t54.5 -57.5t42 -58t35.5 -77.5t11 -88q0 -186 -129 -278.5t-346 -92.5q-129 0 -231.5 44t-102.5 134q0 55 38 89t91 34q55 0 89 -24.5t46.5 -55t36 -55.5t60.5 -25q119 0 118 133q0 18 -6 38t-15 37.5t-25.5 39t-28 35.5t-33 36.5t-30.5 32
t-30.5 30t-23.5 22.5q-2 4 -28.5 29.5t-35 35t-32 36t-33.5 42t-26.5 42t-24.5 47t-14.5 47t-6.5 51.5q0 92 71 161.5t200 71.5q20 41 20 102q0 92 -54 156t-163 64q-297 0 -297 -420v-711q0 -147 104 -178l-16 -80h-551l-16 80q104 31 104 178v645h-205v166h213
q33 242 199 370t461 128q207 0 383 -112t176 -279q0 -106 -53 -181q-84 -10 -131 -51t-47 -106q0 -20 7 -40t24.5 -40.5t29.5 -32.5t39 -35t35 -31z" />
    <glyph glyph-name="agrave" unicode="&#xe0;" horiz-adv-x="1181" 
d="M301 1339q-86 53 -86 129q0 39 29.5 68t72.5 29q72 0 140 -82l211 -264l-80 -64zM1212 117l29 -72q-84 -84 -240 -84q-211 0 -266 174h-12q-47 -92 -138 -133t-192 -41q-150 0 -249 79t-99 212q0 70 23.5 126t72.5 97t98.5 69.5t130.5 52.5t137 36t146 29l-24 163
q-8 61 -42 95t-81 34q-45 0 -76 -29.5t-22 -74.5q16 -72 -30 -119t-118 -47q-70 0 -109.5 43t-39.5 117q0 106 109.5 185t316.5 79q182 0 305 -100.5t149 -302.5l53 -426q20 -174 115 -175q24 1 53 13zM541 154q61 0 111 58t48 130l-32 217q-287 -63 -287 -244
q0 -76 45 -118.5t115 -42.5z" />
    <glyph glyph-name="aacute" unicode="&#xe1;" horiz-adv-x="1181" 
d="M817 1339l-287 -184l-79 64l211 264q68 82 141 82q43 0 71.5 -29t28.5 -68q0 -76 -86 -129zM1212 117l29 -72q-84 -84 -240 -84q-211 0 -266 174h-12q-47 -92 -138 -133t-192 -41q-150 0 -249 79t-99 212q0 70 23.5 126t72.5 97t98.5 69.5t130.5 52.5t137 36t146 29
l-24 163q-8 61 -42 95t-81 34q-45 0 -76 -29.5t-22 -74.5q16 -72 -30 -119t-118 -47q-70 0 -109.5 43t-39.5 117q0 106 109.5 185t316.5 79q182 0 305 -100.5t149 -302.5l53 -426q20 -174 115 -175q24 1 53 13zM541 154q61 0 111 58t48 130l-32 217q-287 -63 -287 -244
q0 -76 45 -118.5t115 -42.5z" />
    <glyph glyph-name="acircumflex" unicode="&#xe2;" horiz-adv-x="1181" 
d="M571 1266l-284 -121l-51 82l335 293l334 -293l-49 -82zM1212 117l29 -72q-84 -84 -240 -84q-211 0 -266 174h-12q-47 -92 -138 -133t-192 -41q-150 0 -249 79t-99 212q0 70 23.5 126t72.5 97t98.5 69.5t130.5 52.5t137 36t146 29l-24 163q-8 61 -42 95t-81 34
q-45 0 -76 -29.5t-22 -74.5q16 -72 -30 -119t-118 -47q-70 0 -109.5 43t-39.5 117q0 106 109.5 185t316.5 79q182 0 305 -100.5t149 -302.5l53 -426q20 -174 115 -175q24 1 53 13zM541 154q61 0 111 58t48 130l-32 217q-287 -63 -287 -244q0 -76 45 -118.5t115 -42.5z" />
    <glyph glyph-name="atilde" unicode="&#xe3;" horiz-adv-x="1181" 
d="M442 1343q-68 0 -84 -77l-106 26q14 127 71.5 180.5t131.5 53.5q63 0 153 -49.5t127 -49.5q68 0 84 76l103 -24q-12 -127 -69.5 -181.5t-133.5 -54.5q-63 0 -151.5 50t-125.5 50zM1212 117l29 -72q-84 -84 -240 -84q-211 0 -266 174h-12q-47 -92 -138 -133t-192 -41
q-150 0 -249 79t-99 212q0 70 23.5 126t72.5 97t98.5 69.5t130.5 52.5t137 36t146 29l-24 163q-8 61 -42 95t-81 34q-45 0 -76 -29.5t-22 -74.5q16 -72 -30 -119t-118 -47q-70 0 -109.5 43t-39.5 117q0 106 109.5 185t316.5 79q182 0 305 -100.5t149 -302.5l53 -426
q20 -174 115 -175q24 1 53 13zM541 154q61 0 111 58t48 130l-32 217q-287 -63 -287 -244q0 -76 45 -118.5t115 -42.5z" />
    <glyph glyph-name="adieresis" unicode="&#xe4;" horiz-adv-x="1181" 
d="M373 1200q-76 0 -119 44t-43 106q0 63 43 108t119 45q74 0 119 -46t45 -107q0 -59 -45 -104.5t-119 -45.5zM798.5 1200q-73.5 0 -117.5 44t-44 105.5t44 107.5t117.5 46t119 -46t45.5 -107q0 -59 -45.5 -104.5t-119 -45.5zM1212 117l29 -72q-84 -84 -240 -84
q-211 0 -266 174h-12q-47 -92 -138 -133t-192 -41q-150 0 -249 79t-99 212q0 70 23.5 126t72.5 97t98.5 69.5t130.5 52.5t137 36t146 29l-24 163q-8 61 -42 95t-81 34q-45 0 -76 -29.5t-22 -74.5q16 -72 -30 -119t-118 -47q-70 0 -109.5 43t-39.5 117q0 106 109.5 185
t316.5 79q182 0 305 -100.5t149 -302.5l53 -426q20 -174 115 -175q24 1 53 13zM541 154q61 0 111 58t48 130l-32 217q-287 -63 -287 -244q0 -76 45 -118.5t115 -42.5z" />
    <glyph glyph-name="aring" unicode="&#xe5;" horiz-adv-x="1181" 
d="M575.5 1171q-90.5 0 -155 63.5t-64.5 154.5q0 88 64.5 152.5t155 64.5t155 -64.5t64.5 -152.5q0 -90 -64.5 -154t-155 -64zM575.5 1479q-38.5 0 -64.5 -27t-26 -63q0 -41 26 -68t64.5 -27t65.5 28t27 67q0 37 -27 63.5t-65.5 26.5zM1212 117l29 -72q-84 -84 -240 -84
q-211 0 -266 174h-12q-47 -92 -138 -133t-192 -41q-150 0 -249 79t-99 212q0 70 23.5 126t72.5 97t98.5 69.5t130.5 52.5t137 36t146 29l-24 163q-8 61 -42 95t-81 34q-45 0 -76 -29.5t-22 -74.5q16 -72 -30 -119t-118 -47q-70 0 -109.5 43t-39.5 117q0 106 109.5 185
t316.5 79q182 0 305 -100.5t149 -302.5l53 -426q20 -174 115 -175q24 1 53 13zM541 154q61 0 111 58t48 130l-32 217q-287 -63 -287 -244q0 -76 45 -118.5t115 -42.5z" />
    <glyph glyph-name="ae" unicode="&#xe6;" 
d="M1430 219q92 0 168.5 49t119.5 111l66 -25q-14 -158 -150.5 -275.5t-341.5 -117.5q-127 0 -246.5 66.5t-195.5 181.5h-10q-49 -102 -169 -176t-247 -74q-184 0 -282.5 76t-98.5 201q0 68 24.5 121t80 90.5t106.5 62.5t144.5 46.5t149.5 30.5t165 25l-31 213q-8 61 -52 95
t-104 34q-55 0 -87.5 -32.5t-32.5 -87.5q0 -150 -148 -150q-70 0 -109.5 47t-39.5 121q0 100 99 178t281 78q111 0 214.5 -48t168.5 -140h9q154 188 397 188q164 2 280.5 -72.5t170.5 -204.5q29 -70 71 -77l21 -101l-764 -143q66 -291 373 -291zM1243 950
q-86 0 -144.5 -79.5t-58.5 -188.5v-27l402 76q-8 92 -59.5 155.5t-139.5 63.5zM535 156q70 0 133 47t88 114l-27 181q-158 -27 -253 -75t-95 -140q0 -61 45.5 -94t108.5 -33z" />
    <glyph glyph-name="ccedilla" unicode="&#xe7;" horiz-adv-x="1126" 
d="M1112 350q-27 -162 -130 -268.5t-298 -118.5l-41 -90q25 8 51 8q74 0 119 -35.5t45 -97.5q0 -92 -89 -160.5t-228 -68.5q-109 0 -182.5 47t-73.5 110q0 31 22.5 55.5t52.5 24.5q39 0 62.5 -22.5t32 -48t34 -48t70.5 -22.5q51 0 82 26.5t31 71.5q0 29 -20.5 45.5
t-51.5 16.5q-35 0 -63 -23l-72 33l80 182q-223 33 -359.5 196t-136.5 374q0 262 166 416.5t412 154.5q201 0 342 -99.5t141 -238.5q0 -63 -48 -112.5t-112 -49.5q-74 0 -118 37t-62 89t-35.5 104.5t-55.5 89.5t-106 37q-78 0 -138 -79t-60 -200q0 -227 98 -348t283 -121
q90 0 169 48t122 110z" />
    <glyph glyph-name="egrave" unicode="&#xe8;" horiz-adv-x="1212" 
d="M369 1339q-86 53 -86 129q0 39 29.5 68t72.5 29q72 0 139 -82l213 -264l-82 -64zM774 217q92 0 169 50t118 112l65 -25q-14 -158 -149 -275.5t-340 -117.5q-258 0 -423 170t-165 406q0 260 165 415.5t411 155.5q162 0 280.5 -76t167.5 -201q27 -68 72 -75l18 -101
l-741 -215q86 -223 352 -223zM586 950q-84 0 -142.5 -79.5t-58.5 -190.5q0 -53 6 -102l395 114q-6 100 -58 179t-142 79z" />
    <glyph glyph-name="eacute" unicode="&#xe9;" horiz-adv-x="1212" 
d="M799 1339l-287 -184l-80 64l211 264q68 82 139 82q43 0 73 -29t30 -68q0 -76 -86 -129zM774 217q92 0 169 50t118 112l65 -25q-14 -158 -149 -275.5t-340 -117.5q-258 0 -423 170t-165 406q0 260 165 415.5t411 155.5q162 0 280.5 -76t167.5 -201q27 -68 72 -75l18 -101
l-741 -215q86 -223 352 -223zM586 950q-84 0 -142.5 -79.5t-58.5 -190.5q0 -53 6 -102l395 114q-6 100 -58 179t-142 79z" />
    <glyph glyph-name="ecircumflex" unicode="&#xea;" horiz-adv-x="1212" 
d="M602 1266l-285 -121l-49 82l334 293l334 -293l-47 -82zM774 217q92 0 169 50t118 112l65 -25q-14 -158 -149 -275.5t-340 -117.5q-258 0 -423 170t-165 406q0 260 165 415.5t411 155.5q162 0 280.5 -76t167.5 -201q27 -68 72 -75l18 -101l-741 -215q86 -223 352 -223z
M586 950q-84 0 -142.5 -79.5t-58.5 -190.5q0 -53 6 -102l395 114q-6 100 -58 179t-142 79z" />
    <glyph glyph-name="edieresis" unicode="&#xeb;" horiz-adv-x="1212" 
d="M387 1200q-74 0 -118 44t-44 105.5t44 107.5t118 46t119 -46t45 -107q0 -59 -44 -104.5t-120 -45.5zM815 1200q-74 0 -118 44t-44 105.5t44 107.5t118 46t119 -46t45 -107q0 -59 -45 -104.5t-119 -45.5zM774 217q92 0 169 50t118 112l65 -25q-14 -158 -149 -275.5
t-340 -117.5q-258 0 -423 170t-165 406q0 260 165 415.5t411 155.5q162 0 280.5 -76t167.5 -201q27 -68 72 -75l18 -101l-741 -215q86 -223 352 -223zM586 950q-84 0 -142.5 -79.5t-58.5 -190.5q0 -53 6 -102l395 114q-6 100 -58 179t-142 79z" />
    <glyph glyph-name="igrave" unicode="&#xec;" horiz-adv-x="614" 
d="M332 1155l-287 184q-86 53 -86 129q0 39 29.5 68t72.5 29q72 0 140 -82l213 -264zM53 0l-16 80q104 31 104 178v444q0 147 -104 179l16 80q215 33 387 149h29v-852q0 -147 109 -178l-19 -80h-506z" />
    <glyph glyph-name="iacute" unicode="&#xed;" horiz-adv-x="614" 
d="M207 1155l-80 64l211 264q68 82 139 82q43 0 73 -29t30 -68q0 -76 -86 -129zM53 0l-16 80q104 31 104 178v444q0 147 -104 179l16 80q215 33 387 149h29v-852q0 -147 109 -178l-19 -80h-506z" />
    <glyph glyph-name="icircumflex" unicode="&#xee;" horiz-adv-x="614" 
d="M23 1145l-52 82l336 293l334 -293l-49 -82l-285 121zM53 0l-16 80q104 31 104 178v444q0 147 -104 179l16 80q215 33 387 149h29v-852q0 -147 109 -178l-19 -80h-506z" />
    <glyph glyph-name="idieresis" unicode="&#xef;" horiz-adv-x="614" 
d="M92 1200q-74 0 -118 44t-44 105.5t44 107.5t118 46t119 -46t45 -107q0 -59 -44 -104.5t-120 -45.5zM520 1200q-74 0 -118 44t-44 105.5t44 107.5t118 46t119 -46t45 -107q0 -59 -45 -104.5t-119 -45.5zM53 0l-16 80q104 31 104 178v444q0 147 -104 179l16 80
q215 33 387 149h29v-852q0 -147 109 -178l-19 -80h-506z" />
    <glyph glyph-name="eth" unicode="&#xf0;" horiz-adv-x="1302" 
d="M663.5 -41q-282.5 0 -449.5 160t-167 413q0 252 159 414t404 162q131 0 236 -61l6 4q-23 156 -96 282l-252 -90l-33 90l250 94q-35 80 -94 160l102 92q57 -47 189 -190l241 86l35 -88l-199 -74q268 -387 269 -743q0 -344 -159 -527.5t-441.5 -183.5zM664 102
q123 0 172 113t49 344q0 176 -13 324q-92 82 -210 82q-129 0 -185.5 -107.5t-56.5 -327.5q0 -213 57.5 -320.5t186.5 -107.5z" />
    <glyph glyph-name="ntilde" unicode="&#xf1;" horiz-adv-x="1345" 
d="M526 1343q-66 0 -82 -77l-106 26q12 127 69.5 180.5t133.5 53.5q63 0 152 -49.5t128 -49.5q68 0 84 76l103 -24q-14 -127 -71.5 -181.5t-131.5 -54.5q-63 0 -151.5 50t-127.5 50zM1184 258q14 -147 125 -178l-17 -80h-506l-18 80q100 31 86 178l-45 438q-8 94 -51 151.5
t-121 57.5q-76 0 -123 -60.5t-47 -148.5v-438q0 -145 108 -178l-16 -80h-506l-14 80q102 31 102 178v434q0 147 -104 178l16 80q178 29 369 160h29l8 -160h12q104 160 287 160q348 0 389 -438z" />
    <glyph glyph-name="ograve" unicode="&#xf2;" horiz-adv-x="1226" 
d="M659 1155l-286 184q-86 53 -86 129q0 39 29.5 68t72.5 29q72 0 139 -82l211 -264zM618 -39q-258 0 -413.5 162t-155.5 416t153.5 412.5t409.5 158.5t411 -161t155 -417q0 -254 -153 -412.5t-407 -158.5zM686 125q90 0 133 75.5t43 196.5q0 61 -20.5 148.5t-57 179.5
t-101.5 155.5t-140 63.5q-90 0 -134 -74.5t-44 -197.5q0 -92 32.5 -214t110.5 -227.5t178 -105.5z" />
    <glyph glyph-name="oacute" unicode="&#xf3;" horiz-adv-x="1226" 
d="M528 1155l-79 64l210 264q68 82 140 82q43 0 72.5 -29t29.5 -68q0 -76 -86 -129zM618 -39q-258 0 -413.5 162t-155.5 416t153.5 412.5t409.5 158.5t411 -161t155 -417q0 -254 -153 -412.5t-407 -158.5zM686 125q90 0 133 75.5t43 196.5q0 61 -20.5 148.5t-57 179.5
t-101.5 155.5t-140 63.5q-90 0 -134 -74.5t-44 -197.5q0 -92 32.5 -214t110.5 -227.5t178 -105.5z" />
    <glyph glyph-name="ocircumflex" unicode="&#xf4;" horiz-adv-x="1226" 
d="M328 1145l-49 82l335 293l334 -293l-49 -82l-285 121zM618 -39q-258 0 -413.5 162t-155.5 416t153.5 412.5t409.5 158.5t411 -161t155 -417q0 -254 -153 -412.5t-407 -158.5zM686 125q90 0 133 75.5t43 196.5q0 61 -20.5 148.5t-57 179.5t-101.5 155.5t-140 63.5
q-90 0 -134 -74.5t-44 -197.5q0 -92 32.5 -214t110.5 -227.5t178 -105.5z" />
    <glyph glyph-name="otilde" unicode="&#xf5;" horiz-adv-x="1226" 
d="M745 1243q-66 0 -152.5 50t-125.5 50q-66 0 -82 -77l-106 26q12 127 69.5 180.5t132.5 53.5q63 0 152.5 -49.5t128.5 -49.5q68 0 84 76l102 -24q-14 -127 -71.5 -181.5t-131.5 -54.5zM618 -39q-258 0 -413.5 162t-155.5 416t153.5 412.5t409.5 158.5t411 -161t155 -417
q0 -254 -153 -412.5t-407 -158.5zM686 125q90 0 133 75.5t43 196.5q0 61 -20.5 148.5t-57 179.5t-101.5 155.5t-140 63.5q-90 0 -134 -74.5t-44 -197.5q0 -92 32.5 -214t110.5 -227.5t178 -105.5z" />
    <glyph glyph-name="odieresis" unicode="&#xf6;" horiz-adv-x="1226" 
d="M399 1200q-76 0 -118.5 44t-42.5 106q0 63 43 108t118 45q74 0 118 -46t44 -107.5t-44 -105.5t-118 -44zM825 1200q-74 0 -117.5 44t-43.5 105.5t44 107.5t117.5 46t118.5 -46t45 -107q0 -59 -44 -104.5t-120 -45.5zM618 -39q-258 0 -413.5 162t-155.5 416t153.5 412.5
t409.5 158.5t411 -161t155 -417q0 -254 -153 -412.5t-407 -158.5zM686 125q90 0 133 75.5t43 196.5q0 61 -20.5 148.5t-57 179.5t-101.5 155.5t-140 63.5q-90 0 -134 -74.5t-44 -197.5q0 -92 32.5 -214t110.5 -227.5t178 -105.5z" />
    <glyph glyph-name="divide" unicode="&#xf7;" horiz-adv-x="1249" 
d="M625 889q-104 0 -158.5 57.5t-54.5 139t54 140t159 58.5q100 0 155.5 -59.5t55.5 -139t-55.5 -138t-155.5 -58.5zM16 649v133h1217v-133h-1217zM625 150q-104 0 -158.5 57t-54.5 139t54 139.5t159 57.5q100 0 155.5 -58.5t55.5 -138.5t-55.5 -138t-155.5 -58z" />
    <glyph glyph-name="oslash" unicode="&#xf8;" horiz-adv-x="1226" 
d="M967 999q213 -162 213 -467q0 -254 -153 -413.5t-409 -159.5q-113 0 -210 35l-62 -113l-119 68l60 106q-113 76 -175.5 202t-62.5 282q0 252 154.5 410.5t408.5 158.5q131 0 236 -43l59 109l121 -66zM367 670q0 -156 77 -330l277 498q-80 106 -176 106q-178 0 -178 -274z
M686 125q90 0 134 77t44 195q0 129 -65 297l-273 -487q76 -82 160 -82z" />
    <glyph glyph-name="ugrave" unicode="&#xf9;" horiz-adv-x="1316" 
d="M418 1339q-86 53 -86 129q0 39 29.5 68t72.5 29q72 0 139 -82l211 -264l-79 -64zM1174 258q0 -147 106 -178l-16 -82q-193 -4 -320 -39h-26l-48 195h-12q-123 -195 -358 -195q-168 0 -270.5 110.5t-100.5 327.5v303q0 150 -104 179l16 79q223 39 387 152h31v-739
q0 -98 53 -152.5t139 -54.5q80 0 137.5 60.5t57.5 146.5v329q0 152 -105 179l17 82q219 35 385 149h31v-852z" />
    <glyph glyph-name="uacute" unicode="&#xfa;" horiz-adv-x="1316" 
d="M952 1339l-286 -184l-80 64l211 264q68 82 141 82q43 0 71.5 -29t28.5 -68q0 -76 -86 -129zM1174 258q0 -147 106 -178l-16 -82q-193 -4 -320 -39h-26l-48 195h-12q-123 -195 -358 -195q-168 0 -270.5 110.5t-100.5 327.5v303q0 150 -104 179l16 79q223 39 387 152h31
v-739q0 -98 53 -152.5t139 -54.5q80 0 137.5 60.5t57.5 146.5v329q0 152 -105 179l17 82q219 35 385 149h31v-852z" />
    <glyph glyph-name="ucircumflex" unicode="&#xfb;" horiz-adv-x="1316" 
d="M657 1266l-284 -121l-51 82l335 293l334 -293l-49 -82zM1174 258q0 -147 106 -178l-16 -82q-193 -4 -320 -39h-26l-48 195h-12q-123 -195 -358 -195q-168 0 -270.5 110.5t-100.5 327.5v303q0 150 -104 179l16 79q223 39 387 152h31v-739q0 -98 53 -152.5t139 -54.5
q80 0 137.5 60.5t57.5 146.5v329q0 152 -105 179l17 82q219 35 385 149h31v-852z" />
    <glyph glyph-name="udieresis" unicode="&#xfc;" horiz-adv-x="1316" 
d="M442.5 1200q-73.5 0 -117.5 44t-44 105.5t44 107.5t117.5 46t118.5 -46t45 -107q0 -59 -45 -104.5t-118.5 -45.5zM870 1200q-74 0 -117.5 44t-43.5 105.5t44 107.5t117.5 46t118.5 -46t45 -107q0 -59 -44 -104.5t-120 -45.5zM1174 258q0 -147 106 -178l-16 -82
q-193 -4 -320 -39h-26l-48 195h-12q-123 -195 -358 -195q-168 0 -270.5 110.5t-100.5 327.5v303q0 150 -104 179l16 79q223 39 387 152h31v-739q0 -98 53 -152.5t139 -54.5q80 0 137.5 60.5t57.5 146.5v329q0 152 -105 179l17 82q219 35 385 149h31v-852z" />
    <glyph glyph-name="yacute" unicode="&#xfd;" horiz-adv-x="1097" 
d="M856 1339l-287 -184l-80 64l211 264q68 82 142 82q43 0 71.5 -29t28.5 -68q0 -76 -86 -129zM913 1110q84 0 136.5 -58.5t52.5 -140.5q0 -147 -90 -397q-145 -442 -369 -711q-104 -135 -202.5 -198.5t-217.5 -63.5q-88 0 -148.5 50.5t-60.5 127.5q0 72 48.5 118t117.5 46
q43 0 77 -18.5t50.5 -41t33.5 -41t32 -18.5q63 0 157 134q39 49 72 102h-72l-321 690q-35 74 -95.5 119t-123.5 59l16 82q260 41 350 160h29l375 -791h12q55 127 82 236q41 121 39 180q-2 25 -25.5 48.5t-52.5 41t-52.5 52t-23.5 79.5q0 70 49 112t125 42z" />
    <glyph glyph-name="thorn" unicode="&#xfe;" horiz-adv-x="1298" 
d="M758 1110q215 0 357 -163t142 -414.5t-135 -411.5t-356 -160q-180 0 -295 129h-12v-250q0 -150 104 -178l-16 -82h-504l-16 82q104 29 104 178v1336q0 147 -104 178l16 80q231 37 420 157l24 -10q-29 -123 -28 -346v-248h8q117 123 291 123zM758 125q84 0 136 78t52 194
q0 74 -17.5 162t-50 178t-93 149.5t-136.5 59.5q-84 0 -135 -76.5t-51 -197.5q0 -78 16.5 -167t50 -177t93 -145.5t135.5 -57.5z" />
    <glyph glyph-name="ydieresis" unicode="&#xff;" horiz-adv-x="1097" 
d="M334 1200q-74 0 -118 44t-44 105.5t44 107.5t118 46t119 -46t45 -107q0 -59 -44 -104.5t-120 -45.5zM762 1200q-74 0 -118 44t-44 105.5t44 107.5t118 46t119 -46t45 -107q0 -59 -45 -104.5t-119 -45.5zM913 1110q84 0 136.5 -58.5t52.5 -140.5q0 -147 -90 -397
q-145 -442 -369 -711q-104 -135 -202.5 -198.5t-217.5 -63.5q-88 0 -148.5 50.5t-60.5 127.5q0 72 48.5 118t117.5 46q43 0 77 -18.5t50.5 -41t33.5 -41t32 -18.5q63 0 157 134q39 49 72 102h-72l-321 690q-35 74 -95.5 119t-123.5 59l16 82q260 41 350 160h29l375 -791h12
q55 127 82 236q41 121 39 180q-2 25 -25.5 48.5t-52.5 41t-52.5 52t-23.5 79.5q0 70 49 112t125 42z" />
    <glyph glyph-name="Amacron" unicode="&#x100;" horiz-adv-x="1466" 
d="M1049 1772v-158h-633v158h633zM1305 258q59 -147 176 -178l-17 -80h-585l-17 80q94 31 33 178l-29 74h-522l-29 -74q-29 -74 -18.5 -119t51.5 -59l-16 -80h-330l-16 80q119 33 176 178l364 907q-37 68 -116 129l10 82q27 0 69.5 4t142 30t161.5 69h16zM410 494h391
l-193 477h-8z" />
    <glyph glyph-name="amacron" unicode="&#x101;" horiz-adv-x="1181" 
d="M903 1407v-158h-633v158h633zM1212 117l29 -72q-84 -84 -240 -84q-211 0 -266 174h-12q-47 -92 -138 -133t-192 -41q-150 0 -249 79t-99 212q0 70 23.5 126t72.5 97t98.5 69.5t130.5 52.5t137 36t146 29l-24 163q-8 61 -42 95t-81 34q-45 0 -76 -29.5t-22 -74.5
q16 -72 -30 -119t-118 -47q-70 0 -109.5 43t-39.5 117q0 106 109.5 185t316.5 79q182 0 305 -100.5t149 -302.5l53 -426q20 -174 115 -175q24 1 53 13zM541 154q61 0 111 58t48 130l-32 217q-287 -63 -287 -244q0 -76 45 -118.5t115 -42.5z" />
    <glyph glyph-name="Abreve" unicode="&#x102;" horiz-adv-x="1466" 
d="M731 1581q-119 0 -202 58.5t-117 150.5l102 59q20 -49 81.5 -78.5t135.5 -29.5q78 0 139.5 28.5t81.5 75.5l103 -55q-37 -92 -119 -150.5t-205 -58.5zM1305 258q59 -147 176 -178l-17 -80h-585l-17 80q94 31 33 178l-29 74h-522l-29 -74q-29 -74 -18.5 -119t51.5 -59
l-16 -80h-330l-16 80q119 33 176 178l364 907q-37 68 -116 129l10 82q27 0 69.5 4t142 30t161.5 69h16zM410 494h391l-193 477h-8z" />
    <glyph glyph-name="abreve" unicode="&#x103;" horiz-adv-x="1181" 
d="M586 1217q-119 0 -202 58t-118 150l103 60q20 -49 80.5 -79t136.5 -30q78 0 139 29t82 76l100 -56q-35 -92 -117.5 -150t-203.5 -58zM1212 117l29 -72q-84 -84 -240 -84q-211 0 -266 174h-12q-47 -92 -138 -133t-192 -41q-150 0 -249 79t-99 212q0 70 23.5 126t72.5 97
t98.5 69.5t130.5 52.5t137 36t146 29l-24 163q-8 61 -42 95t-81 34q-45 0 -76 -29.5t-22 -74.5q16 -72 -30 -119t-118 -47q-70 0 -109.5 43t-39.5 117q0 106 109.5 185t316.5 79q182 0 305 -100.5t149 -302.5l53 -426q20 -174 115 -175q24 1 53 13zM541 154q61 0 111 58
t48 130l-32 217q-287 -63 -287 -244q0 -76 45 -118.5t115 -42.5z" />
    <glyph glyph-name="Aogonek" unicode="&#x104;" horiz-adv-x="1466" 
d="M1413 -231l92 -50q-98 -170 -276 -170q-117 0 -185.5 62.5t-68.5 157.5q0 133 115 231h-211l-17 80q94 31 33 178l-29 74h-522l-29 -74q-29 -74 -18.5 -119t51.5 -59l-16 -80h-330l-16 80q119 33 176 178l364 907q-37 68 -116 129l10 82q27 0 69.5 4t142 30t161.5 69h16
l496 -1221q59 -147 176 -178l-17 -80h-151q-121 -88 -121 -205q0 -45 27.5 -74.5t68.5 -29.5q80 0 125 78zM410 494h391l-193 477h-8z" />
    <glyph glyph-name="aogonek" unicode="&#x105;" horiz-adv-x="1204" 
d="M1169 -231l95 -50q-96 -170 -277 -170q-117 0 -185.5 62.5t-68.5 157.5q0 133 113 227q-84 47 -111 139h-12q-47 -92 -138 -133t-192 -41q-150 0 -249 79t-99 212q0 70 23.5 126t72.5 97t98.5 69.5t130.5 52.5t137 36t146 29l-24 163q-8 61 -42 95t-81 34
q-45 0 -76 -29.5t-22 -74.5q16 -72 -30 -119t-118 -47q-70 0 -109.5 43t-39.5 117q0 106 109.5 185t316.5 79q182 0 305 -100.5t149 -302.5l53 -426q20 -174 115 -175q25 0 53 13l29 -72q-72 -72 -211 -84q-80 -76 -80 -170q0 -43 29 -71.5t70 -28.5q75 0 120 78zM541 154
q61 0 111 58t48 130l-32 217q-287 -63 -287 -244q0 -76 45 -118.5t115 -42.5z" />
    <glyph glyph-name="Cacute" unicode="&#x106;" horiz-adv-x="1437" 
d="M590 1520l-80 63l211 264q68 82 139 82q43 0 73 -28.5t30 -67.5q0 -76 -86 -129zM786 -39q-332 0 -528.5 213t-196.5 553q0 324 206 535t511 211q78 0 174.5 -19.5t134.5 -19.5q94 0 173 39h28l94 -500l-96 -19q-59 162 -180 263.5t-283 101.5q-150 0 -264.5 -126
t-114.5 -337q0 -289 145.5 -468t342.5 -179q268 0 371 340l96 -25q-27 -236 -186 -399.5t-427 -163.5z" />
    <glyph glyph-name="cacute" unicode="&#x107;" horiz-adv-x="1126" 
d="M434 1155l-80 64l211 264q68 82 140 82q43 0 72.5 -29t29.5 -68q0 -76 -86 -129zM641 -39q-260 0 -426 170t-166 406q0 262 166 416.5t412 154.5q201 0 342 -99.5t141 -238.5q0 -63 -48 -112.5t-112 -49.5q-74 0 -118 37t-62 89t-35.5 104.5t-55.5 89.5t-106 37
q-78 0 -138 -79t-60 -200q0 -227 98 -348t283 -121q90 0 169 48t122 110l65 -25q-29 -172 -141.5 -280.5t-329.5 -108.5z" />
    <glyph glyph-name="Ccircumflex" unicode="&#x108;" horiz-adv-x="1437" 
d="M434 1509l-51 82l336 293l334 -293l-49 -82l-285 121zM786 -39q-332 0 -528.5 213t-196.5 553q0 324 206 535t511 211q78 0 174.5 -19.5t134.5 -19.5q94 0 173 39h28l94 -500l-96 -19q-59 162 -180 263.5t-283 101.5q-150 0 -264.5 -126t-114.5 -337q0 -289 145.5 -468
t342.5 -179q268 0 371 340l96 -25q-27 -236 -186 -399.5t-427 -163.5z" />
    <glyph glyph-name="ccircumflex" unicode="&#x109;" horiz-adv-x="1126" 
d="M279 1145l-52 82l336 293l334 -293l-49 -82l-285 121zM641 -39q-260 0 -426 170t-166 406q0 262 166 416.5t412 154.5q201 0 342 -99.5t141 -238.5q0 -63 -48 -112.5t-112 -49.5q-74 0 -118 37t-62 89t-35.5 104.5t-55.5 89.5t-106 37q-78 0 -138 -79t-60 -200
q0 -227 98 -348t283 -121q90 0 169 48t122 110l65 -25q-29 -172 -141.5 -280.5t-329.5 -108.5z" />
    <glyph glyph-name="Cdotaccent" unicode="&#x10a;" horiz-adv-x="1437" 
d="M717 1599q-74 0 -118 45.5t-44 104.5q0 63 44 109.5t118 46.5q76 0 120 -46.5t44 -109.5q0 -59 -44 -104.5t-120 -45.5zM786 -39q-332 0 -528.5 213t-196.5 553q0 324 206 535t511 211q78 0 174.5 -19.5t134.5 -19.5q94 0 173 39h28l94 -500l-96 -19q-59 162 -180 263.5
t-283 101.5q-150 0 -264.5 -126t-114.5 -337q0 -289 145.5 -468t342.5 -179q268 0 371 340l96 -25q-27 -236 -186 -399.5t-427 -163.5z" />
    <glyph glyph-name="cdotaccent" unicode="&#x10b;" horiz-adv-x="1126" 
d="M563 1235q-74 0 -118 45t-44 104q0 63 44 109.5t118 46.5q76 0 120 -46t44 -110q0 -59 -44 -104t-120 -45zM641 -39q-260 0 -426 170t-166 406q0 262 166 416.5t412 154.5q201 0 342 -99.5t141 -238.5q0 -63 -48 -112.5t-112 -49.5q-74 0 -118 37t-62 89t-35.5 104.5
t-55.5 89.5t-106 37q-78 0 -138 -79t-60 -200q0 -227 98 -348t283 -121q90 0 169 48t122 110l65 -25q-29 -172 -141.5 -280.5t-329.5 -108.5z" />
    <glyph glyph-name="Ccaron" unicode="&#x10c;" horiz-adv-x="1437" 
d="M719 1513l-336 293l49 82l287 -119l285 119l49 -82zM786 -39q-332 0 -528.5 213t-196.5 553q0 324 206 535t511 211q78 0 174.5 -19.5t134.5 -19.5q94 0 173 39h28l94 -500l-96 -19q-59 162 -180 263.5t-283 101.5q-150 0 -264.5 -126t-114.5 -337q0 -289 145.5 -468
t342.5 -179q268 0 371 340l96 -25q-27 -236 -186 -399.5t-427 -163.5z" />
    <glyph glyph-name="ccaron" unicode="&#x10d;" horiz-adv-x="1126" 
d="M563 1149l-336 293l49 82l287 -119l283 119l51 -82zM641 -39q-260 0 -426 170t-166 406q0 262 166 416.5t412 154.5q201 0 342 -99.5t141 -238.5q0 -63 -48 -112.5t-112 -49.5q-74 0 -118 37t-62 89t-35.5 104.5t-55.5 89.5t-106 37q-78 0 -138 -79t-60 -200
q0 -227 98 -348t283 -121q90 0 169 48t122 110l65 -25q-29 -172 -141.5 -280.5t-329.5 -108.5z" />
    <glyph glyph-name="Dcaron" unicode="&#x10e;" horiz-adv-x="1519" 
d="M1010 1806l-334 -293l-336 293l49 82l287 -119l282 119zM682 1434q328 0 552 -214t224 -538q0 -352 -198.5 -517t-526.5 -165h-678l-16 80q104 31 104 180v914q0 150 -104 180l16 80h627zM715 154q182 0 273 134t91 324q0 123 -29.5 239t-85 213t-149.5 155.5t-211 58.5
q-10 0 -34.5 -1t-39.5 -1v-1106q89 -16 185 -16z" />
    <glyph glyph-name="dcaron" unicode="&#x10f;" horiz-adv-x="1757" 
d="M1165 258q0 -147 107 -178l-17 -80q-186 -4 -313 -41h-29l-34 141h-15q-123 -139 -321 -139q-217 0 -359.5 162t-142.5 413.5t135 411.5t359 160q174 0 292 -129h13v195q0 147 -105 178l17 80q229 37 415 157l27 -10q-29 -121 -29 -344v-977zM1483 1473q102 0 166.5 -72
t64.5 -195q0 -160 -96 -305t-252 -225l-74 106q172 113 230 314l-6 6q-41 -20 -64 -21q-84 0 -142.5 55.5t-58.5 143.5q0 86 68 139.5t164 53.5zM647 125q88 0 139.5 75.5t51.5 196.5q0 109 -28 228.5t-99.5 219t-169.5 99.5q-84 0 -136.5 -79t-52.5 -193q0 -72 17.5 -161
t51.5 -178t93 -148.5t133 -59.5z" />
    <glyph glyph-name="Dcroat" unicode="&#x110;" horiz-adv-x="1593" 
d="M756 1434q330 0 553 -214t223 -538q0 -180 -55.5 -314.5t-155.5 -213t-228 -116.5t-286 -38h-678l-16 80q104 31 104 178v371h-215v176h215v369q0 150 -104 180l16 80h627zM788 154q182 0 273.5 134t91.5 324q0 123 -29.5 239t-85 213t-149.5 155.5t-211 58.5
q-23 0 -76 -4v-469h209l2 -176h-211v-459q88 -16 186 -16z" />
    <glyph glyph-name="dcroat" unicode="&#x111;" horiz-adv-x="1398" 
d="M1382 1153h-204l-2 -893q0 -147 104 -178l-16 -82q-186 -4 -314 -39h-28l-35 141h-15q-123 -141 -321 -141q-217 0 -359.5 163t-142.5 413q0 254 135 413.5t357 159.5q178 0 293 -129h16v172h-277v115h261q-27 66 -91 86l17 80q231 37 420 157l24 -10q-27 -119 -26 -313
h204v-115zM657 125q86 0 136.5 75.5t50.5 198.5q0 78 -16.5 168t-50.5 177t-93 144.5t-133 57.5q-86 0 -138.5 -79t-52.5 -193q0 -74 17.5 -162t50.5 -178t93 -149.5t136 -59.5z" />
    <glyph glyph-name="Emacron" unicode="&#x112;" horiz-adv-x="1335" 
d="M985 1772v-158h-635v158h635zM1247 424l84 -39l-127 -424h-28q-31 16 -129.5 27.5t-169.5 11.5h-822l-16 80q104 31 104 178v916q0 150 -104 180l16 80h1125l82 -359l-84 -31q-4 10 -12.5 25.5t-45.5 55.5t-84 71t-133 56.5t-190 25.5q-82 0 -183 -18v-451h324
q154 0 180 106l82 -16v-338l-82 -16q-27 106 -178 106h-326v-475q143 -23 230 -22q92 0 176 27.5t138 67.5t95 80t60 68z" />
    <glyph glyph-name="emacron" unicode="&#x113;" horiz-adv-x="1212" 
d="M920 1407v-158h-635v158h635zM774 217q92 0 169 50t118 112l65 -25q-14 -158 -149 -275.5t-340 -117.5q-258 0 -423 170t-165 406q0 260 165 415.5t411 155.5q162 0 280.5 -76t167.5 -201q27 -68 72 -75l18 -101l-741 -215q86 -223 352 -223zM586 950q-84 0 -142.5 -79.5
t-58.5 -190.5q0 -53 6 -102l395 114q-6 100 -58 179t-142 79z" />
    <glyph glyph-name="Ebreve" unicode="&#x114;" horiz-adv-x="1335" 
d="M667.5 1581q-120.5 0 -203.5 58.5t-118 150.5l105 59q20 -49 80.5 -78.5t136 -29.5t137 28.5t82.5 75.5l102 -55q-37 -92 -119 -150.5t-202.5 -58.5zM1247 424l84 -39l-127 -424h-28q-31 16 -129.5 27.5t-169.5 11.5h-822l-16 80q104 31 104 178v916q0 150 -104 180
l16 80h1125l82 -359l-84 -31q-4 10 -12.5 25.5t-45.5 55.5t-84 71t-133 56.5t-190 25.5q-82 0 -183 -18v-451h324q154 0 180 106l82 -16v-338l-82 -16q-27 106 -178 106h-326v-475q143 -23 230 -22q92 0 176 27.5t138 67.5t95 80t60 68z" />
    <glyph glyph-name="ebreve" unicode="&#x115;" horiz-adv-x="1212" 
d="M602 1217q-121 0 -204 58t-117 150l104 60q20 -49 80.5 -79t136.5 -30t137.5 29t81.5 76l103 -56q-37 -92 -119 -150t-203 -58zM774 217q92 0 169 50t118 112l65 -25q-14 -158 -149 -275.5t-340 -117.5q-258 0 -423 170t-165 406q0 260 165 415.5t411 155.5
q162 0 280.5 -76t167.5 -201q27 -68 72 -75l18 -101l-741 -215q86 -223 352 -223zM586 950q-84 0 -142.5 -79.5t-58.5 -190.5q0 -53 6 -102l395 114q-6 100 -58 179t-142 79z" />
    <glyph glyph-name="Edotaccent" unicode="&#x116;" horiz-adv-x="1335" 
d="M666 1599q-74 0 -117 45.5t-43 104.5q0 61 43 108.5t117 47.5q76 0 119.5 -46.5t43.5 -109.5q0 -59 -43.5 -104.5t-119.5 -45.5zM1247 424l84 -39l-127 -424h-28q-31 16 -129.5 27.5t-169.5 11.5h-822l-16 80q104 31 104 178v916q0 150 -104 180l16 80h1125l82 -359
l-84 -31q-4 10 -12.5 25.5t-45.5 55.5t-84 71t-133 56.5t-190 25.5q-82 0 -183 -18v-451h324q154 0 180 106l82 -16v-338l-82 -16q-27 106 -178 106h-326v-475q143 -23 230 -22q92 0 176 27.5t138 67.5t95 80t60 68z" />
    <glyph glyph-name="edotaccent" unicode="&#x117;" horiz-adv-x="1212" 
d="M602 1235q-74 0 -118 45t-44 104q0 63 44 109.5t118 46.5t118 -46t44 -110q0 -59 -44 -104t-118 -45zM774 217q92 0 169 50t118 112l65 -25q-14 -158 -149 -275.5t-340 -117.5q-258 0 -423 170t-165 406q0 260 165 415.5t411 155.5q162 0 280.5 -76t167.5 -201
q27 -68 72 -75l18 -101l-741 -215q86 -223 352 -223zM586 950q-84 0 -142.5 -79.5t-58.5 -190.5q0 -53 6 -102l395 114q-6 100 -58 179t-142 79z" />
    <glyph glyph-name="Eogonek" unicode="&#x118;" horiz-adv-x="1335" 
d="M1311 -231l94 -50q-98 -170 -277 -170q-117 0 -185.5 62.5t-68.5 157.5q0 137 117 231h-936l-16 80q104 31 104 178v916q0 150 -104 180l16 80h1125l82 -359l-84 -31q-4 10 -12.5 25.5t-45.5 55.5t-84 71t-133 56.5t-190 25.5q-82 0 -183 -18v-451h324q154 0 180 106
l82 -16v-338l-82 -16q-27 106 -178 106h-326v-481q119 -16 230 -16q92 0 176 27.5t138 67.5t95 80t60 68l18 27l84 -39l-112 -385q-127 -86 -127 -209q0 -43 27.5 -71.5t68.5 -28.5q78 0 123 78z" />
    <glyph glyph-name="eogonek" unicode="&#x119;" horiz-adv-x="1212" 
d="M774 217q92 0 169 50t118 112l65 -25q-12 -137 -119.5 -247.5t-275.5 -137.5q-86 -80 -86 -178q0 -43 28.5 -71.5t69.5 -28.5q76 0 121 78l94 -50q-96 -170 -274 -170q-119 0 -187.5 62.5t-68.5 157.5q0 117 86 202q-209 41 -337 201t-128 365q0 260 165 415.5t411 155.5
q162 0 280.5 -76t167.5 -201q27 -68 72 -75l18 -101l-741 -215q86 -223 352 -223zM586 950q-84 0 -142.5 -79.5t-58.5 -190.5q0 -53 6 -102l395 114q-6 100 -58 179t-142 79z" />
    <glyph glyph-name="Ecaron" unicode="&#x11a;" horiz-adv-x="1335" 
d="M1001 1806l-333 -293l-334 293l47 82l287 -119l284 119zM1247 424l84 -39l-127 -424h-28q-31 16 -129.5 27.5t-169.5 11.5h-822l-16 80q104 31 104 178v916q0 150 -104 180l16 80h1125l82 -359l-84 -31q-4 10 -12.5 25.5t-45.5 55.5t-84 71t-133 56.5t-190 25.5
q-82 0 -183 -18v-451h324q154 0 180 106l82 -16v-338l-82 -16q-27 106 -178 106h-326v-475q143 -23 230 -22q92 0 176 27.5t138 67.5t95 80t60 68z" />
    <glyph glyph-name="ecaron" unicode="&#x11b;" horiz-adv-x="1212" 
d="M936 1442l-334 -293l-334 293l47 82l287 -119l285 119zM774 217q92 0 169 50t118 112l65 -25q-14 -158 -149 -275.5t-340 -117.5q-258 0 -423 170t-165 406q0 260 165 415.5t411 155.5q162 0 280.5 -76t167.5 -201q27 -68 72 -75l18 -101l-741 -215q86 -223 352 -223z
M586 950q-84 0 -142.5 -79.5t-58.5 -190.5q0 -53 6 -102l395 114q-6 100 -58 179t-142 79z" />
    <glyph glyph-name="Gcircumflex" unicode="&#x11c;" horiz-adv-x="1521" 
d="M760 1630l-285 -121l-49 82l334 293l334 -293l-47 -82zM1485 748l16 -80q-104 -31 -104 -179v-489h-92l-95 119h-6q-162 -158 -418 -158q-332 0 -528.5 213t-196.5 553q0 324 206 535t511 211q78 0 174.5 -19.5t134.5 -19.5q94 0 173 39h28l94 -500l-96 -19
q-57 162 -178 263.5t-283 101.5q-152 0 -266.5 -136t-114.5 -352q0 -297 137.5 -474t356.5 -177q37 0 78 10v299q0 78 -32 119t-99 60l16 80h584z" />
    <glyph glyph-name="gcircumflex" unicode="&#x11d;" horiz-adv-x="1185" 
d="M711 188q231 0 336.5 -64.5t105.5 -201.5q0 -182 -169 -281.5t-427 -99.5q-508 0 -508 242q0 109 109 168v8q-106 61 -107 199q0 84 46 143t122 84v10q-141 115 -141 305q0 184 135 296t362 112q78 0 160 -16q29 55 60 88l-203 86l-285 -121l-51 82l336 293l305 -269
q49 20 115 21q70 0 118 -33t48 -96q0 -55 -29 -93t-88 -38q-41 0 -82 32.5t-66 32.5q-31 0 -59 -28q221 -109 221 -355q0 -184 -135 -295.5t-360 -111.5q-137 0 -244 43q-47 -16 -47 -54q0 -49 93 -68.5t329 -19.5zM543 963q-63 0 -103.5 -49.5t-40.5 -127.5
q0 -115 57.5 -235.5t157.5 -120.5q61 0 100.5 49t39.5 131q0 123 -56.5 238t-154.5 115zM559 -324q135 0 217 46.5t82 93.5t-47 60t-201 13q-158 0 -264 15q-72 -29 -72 -92q0 -59 70 -97.5t215 -38.5z" />
    <glyph glyph-name="Gbreve" unicode="&#x11e;" horiz-adv-x="1521" 
d="M760 1581q-121 0 -204 58.5t-118 150.5l105 59q20 -49 80.5 -78.5t136.5 -29.5t137 28.5t82 75.5l102 -55q-37 -92 -118.5 -150.5t-202.5 -58.5zM1485 748l16 -80q-104 -31 -104 -179v-489h-92l-95 119h-6q-162 -158 -418 -158q-332 0 -528.5 213t-196.5 553
q0 324 206 535t511 211q78 0 174.5 -19.5t134.5 -19.5q94 0 173 39h28l94 -500l-96 -19q-57 162 -178 263.5t-283 101.5q-152 0 -266.5 -136t-114.5 -352q0 -297 137.5 -474t356.5 -177q37 0 78 10v299q0 78 -32 119t-99 60l16 80h584z" />
    <glyph glyph-name="gbreve" unicode="&#x11f;" horiz-adv-x="1185" 
d="M590 1217q-119 0 -202 58t-118 150l103 60q20 -49 81.5 -79t135.5 -30q78 0 139.5 29t81.5 76l102 -56q-37 -92 -118.5 -150t-204.5 -58zM711 188q231 0 336.5 -64.5t105.5 -201.5q0 -182 -169 -281.5t-427 -99.5q-508 0 -508 242q0 109 109 168v8q-106 61 -107 199
q0 84 46 143t122 84v10q-141 115 -141 305q0 184 135 296t362 112q78 0 160 -16q92 180 277 180q70 0 118 -33t48 -96q0 -55 -29 -93t-88 -38q-41 0 -82 32.5t-66 32.5q-31 0 -59 -28q221 -109 221 -355q0 -184 -135 -295.5t-360 -111.5q-137 0 -244 43q-47 -16 -47 -54
q0 -49 93 -68.5t329 -19.5zM543 963q-63 0 -103.5 -49.5t-40.5 -127.5q0 -115 57.5 -235.5t157.5 -120.5q61 0 100.5 49t39.5 131q0 123 -56.5 238t-154.5 115zM559 -324q135 0 217 46.5t82 93.5t-47 60t-201 13q-158 0 -264 15q-72 -29 -72 -92q0 -59 70 -97.5t215 -38.5z
" />
    <glyph glyph-name="Gdotaccent" unicode="&#x120;" horiz-adv-x="1521" 
d="M760 1599q-74 0 -118 45.5t-44 104.5q0 63 44 109.5t118 46.5t118 -46.5t44 -109.5q0 -59 -44 -104.5t-118 -45.5zM1485 748l16 -80q-104 -31 -104 -179v-489h-92l-95 119h-6q-162 -158 -418 -158q-332 0 -528.5 213t-196.5 553q0 324 206 535t511 211q78 0 174.5 -19.5
t134.5 -19.5q94 0 173 39h28l94 -500l-96 -19q-57 162 -178 263.5t-283 101.5q-152 0 -266.5 -136t-114.5 -352q0 -297 137.5 -474t356.5 -177q37 0 78 10v299q0 78 -32 119t-99 60l16 80h584z" />
    <glyph glyph-name="gdotaccent" unicode="&#x121;" horiz-adv-x="1185" 
d="M590 1235q-74 0 -117 45t-43 104q0 61 43 108.5t117 47.5q76 0 120 -46t44 -110q0 -59 -44 -104t-120 -45zM711 188q231 0 336.5 -64.5t105.5 -201.5q0 -182 -169 -281.5t-427 -99.5q-508 0 -508 242q0 109 109 168v8q-106 61 -107 199q0 84 46 143t122 84v10
q-141 115 -141 305q0 184 135 296t362 112q78 0 160 -16q92 180 277 180q70 0 118 -33t48 -96q0 -55 -29 -93t-88 -38q-41 0 -82 32.5t-66 32.5q-31 0 -59 -28q221 -109 221 -355q0 -184 -135 -295.5t-360 -111.5q-137 0 -244 43q-47 -16 -47 -54q0 -49 93 -68.5t329 -19.5z
M543 963q-63 0 -103.5 -49.5t-40.5 -127.5q0 -115 57.5 -235.5t157.5 -120.5q61 0 100.5 49t39.5 131q0 123 -56.5 238t-154.5 115zM559 -324q135 0 217 46.5t82 93.5t-47 60t-201 13q-158 0 -264 15q-72 -29 -72 -92q0 -59 70 -97.5t215 -38.5z" />
    <glyph glyph-name="uni0122" unicode="&#x122;" horiz-adv-x="1523" 
d="M1485 748l16 -80q-104 -31 -104 -179v-489h-92l-95 119h-6q-162 -158 -418 -158q-332 0 -528.5 213t-196.5 553q0 324 206 535t511 211q78 0 174.5 -19.5t134.5 -19.5q94 0 173 39h28l94 -500l-96 -19q-57 162 -178 263.5t-283 101.5q-152 0 -266.5 -136t-114.5 -352
q0 -297 137.5 -474t356.5 -177q37 0 78 10v299q0 78 -32 119t-99 60l16 80h584zM788 -117q102 0 168 -71.5t66 -194.5q0 -162 -97.5 -307.5t-250.5 -222.5l-74 106q168 111 227 313l-6 7q-31 -20 -63 -21q-84 0 -142.5 55.5t-58.5 141.5t67.5 140t163.5 54z" />
    <glyph glyph-name="uni0123" unicode="&#x123;" horiz-adv-x="1181" 
d="M584 1225q-104 0 -169 71.5t-65 194.5q0 160 97.5 305.5t250.5 224.5l74 -106q-168 -113 -229 -313l6 -9q37 23 65 23q84 0 141.5 -55.5t57.5 -143.5q0 -86 -67.5 -139t-161.5 -53zM711 188q231 0 336.5 -64.5t105.5 -201.5q0 -182 -169 -281.5t-427 -99.5
q-508 0 -508 242q0 109 109 168v8q-106 61 -107 199q0 84 46 143t122 84v10q-141 115 -141 305q0 184 135 296t362 112q78 0 160 -16q92 180 277 180q70 0 118 -33t48 -96q0 -55 -29 -93t-88 -38q-41 0 -82 32.5t-66 32.5q-31 0 -59 -28q221 -109 221 -355
q0 -184 -135 -295.5t-360 -111.5q-137 0 -244 43q-47 -16 -47 -54q0 -49 93 -68.5t329 -19.5zM543 963q-63 0 -103.5 -49.5t-40.5 -127.5q0 -115 57.5 -235.5t157.5 -120.5q61 0 100.5 49t39.5 131q0 123 -56.5 238t-154.5 115zM559 -324q135 0 217 46.5t82 93.5t-47 60
t-201 13q-158 0 -264 15q-72 -29 -72 -92q0 -59 70 -97.5t215 -38.5z" />
    <glyph glyph-name="Hcircumflex" unicode="&#x124;" horiz-adv-x="1581" 
d="M791 1630l-285 -121l-51 82l336 293l333 -293l-49 -82zM1436 258q0 -145 106 -178l-16 -80h-561l-17 80q104 31 105 178v381h-525v-381q0 -147 107 -178l-17 -80h-563l-16 80q104 31 104 178v916q0 150 -104 180l16 80h561l19 -80q-106 -31 -107 -180v-359h525v359
q0 150 -105 180l17 80h561l16 -80q-106 -33 -106 -180v-916z" />
    <glyph glyph-name="hcircumflex" unicode="&#x125;" horiz-adv-x="1351" 
d="M592 1599l-285 121l-287 -121l-49 82l336 293l334 -293zM1198 258q14 -147 125 -178l-16 -80h-506l-17 80q100 31 86 178l-53 506q-8 86 -55 132t-115 46q-76 0 -127 -49t-51 -133v-502q0 -147 109 -178l-19 -80h-506l-16 80q104 29 104 178v916q0 152 -104 178l16 80
q236 37 420 159l25 -10q-29 -123 -29 -346v-246h16q94 121 265 121q176 0 283.5 -108.5t127.5 -329.5z" />
    <glyph glyph-name="Hbar" unicode="&#x126;" horiz-adv-x="1697" 
d="M1495 258q0 -147 104 -178l-16 -80h-561l-16 80q104 31 104 178v381h-522v-381q0 -147 104 -178l-16 -80h-563l-17 80q104 31 105 178v715h-178v114h178v87q0 150 -105 180l17 80h563l16 -80q-104 -31 -104 -180v-87h522v87q0 150 -104 180l16 80h561l16 -80
q-104 -31 -104 -180v-87h176l4 -114h-180v-715zM588 815h522v158h-522v-158z" />
    <glyph glyph-name="hbar" unicode="&#x127;" horiz-adv-x="1445" 
d="M1294 258q8 -72 41 -118t82 -60l-16 -80h-504l-18 80q100 31 88 178l-56 504q-8 88 -53 134t-108 48q-76 0 -130.5 -50t-54.5 -132v-504q0 -145 107 -178l-17 -80h-505l-17 80q104 31 105 178v895h-226v115h209q-25 68 -88 86l17 80q227 33 419 157l25 -12
q-29 -125 -29 -311h256v-115h-256v-164h17q92 119 264 119q176 0 282.5 -108.5t126.5 -327.5z" />
    <glyph glyph-name="Itilde" unicode="&#x128;" horiz-adv-x="673" 
d="M471 1608q-66 0 -153 50t-125 50q-68 0 -84 -78l-107 27q14 125 71.5 179t131.5 54q66 0 155 -49t127 -49q63 0 84 76l103 -25q-14 -127 -71.5 -181t-131.5 -54zM55 0l-16 80q104 31 104 178v916q0 150 -104 180l16 80h563l17 -80q-104 -31 -105 -180v-916
q0 -147 105 -178l-17 -80h-563z" />
    <glyph glyph-name="itilde" unicode="&#x129;" horiz-adv-x="614" 
d="M438 1243q-63 0 -150 50t-126 50q-68 0 -84 -77l-107 26q14 125 71.5 179.5t131.5 54.5q66 0 155 -49.5t128 -49.5q66 0 82 76l102 -24q-12 -127 -69.5 -181.5t-133.5 -54.5zM53 0l-16 80q104 31 104 178v444q0 147 -104 179l16 80q215 33 387 149h29v-852
q0 -147 109 -178l-19 -80h-506z" />
    <glyph glyph-name="Imacron" unicode="&#x12a;" horiz-adv-x="673" 
d="M20 1614v158h635v-158h-635zM55 0l-16 80q104 31 104 178v916q0 150 -104 180l16 80h563l17 -80q-104 -31 -105 -180v-916q0 -147 105 -178l-17 -80h-563z" />
    <glyph glyph-name="imacron" unicode="&#x12b;" horiz-adv-x="614" 
d="M-10 1249v158h633v-158h-633zM53 0l-16 80q104 31 104 178v444q0 147 -104 179l16 80q215 33 387 149h29v-852q0 -147 109 -178l-19 -80h-506z" />
    <glyph glyph-name="Iogonek" unicode="&#x12e;" horiz-adv-x="673" 
d="M561 -231l94 -50q-98 -170 -276 -170q-117 0 -185.5 62.5t-68.5 157.5q0 137 117 231h-187l-16 80q104 31 104 178v916q0 150 -104 180l16 80h563l17 -80q-104 -31 -105 -180v-916q0 -147 105 -178l-17 -80h-149q-127 -86 -127 -209q0 -43 27.5 -71.5t68.5 -28.5
q74 0 123 78z" />
    <glyph glyph-name="iogonek" unicode="&#x12f;" horiz-adv-x="620" 
d="M305 1198q-92 0 -145.5 54.5t-53.5 128t53.5 130t145.5 56.5q90 0 144.5 -56.5t54.5 -130t-54.5 -128t-144.5 -54.5zM492 -231l94 -50q-98 -170 -277 -170q-117 0 -185.5 62.5t-68.5 157.5q0 137 117 231h-113l-16 80q106 31 107 178v444q0 147 -107 179l16 80
q215 33 387 149h31v-852q0 -147 107 -178l-19 -80h-168q-127 -90 -127 -209q0 -43 29 -71.5t70 -28.5q74 0 123 78z" />
    <glyph glyph-name="Idotaccent" unicode="&#x130;" horiz-adv-x="673" 
d="M336 1599q-74 0 -117 45.5t-43 104.5q0 61 43 108.5t117 47.5q76 0 120 -46.5t44 -109.5q0 -59 -44 -104.5t-120 -45.5zM55 0l-16 80q104 31 104 178v916q0 150 -104 180l16 80h563l17 -80q-104 -31 -105 -180v-916q0 -147 105 -178l-17 -80h-563z" />
    <glyph glyph-name="dotlessi" unicode="&#x131;" horiz-adv-x="614" 
d="M53 0l-16 80q104 31 104 178v444q0 147 -104 179l16 80q215 33 387 149h29v-852q0 -147 109 -178l-19 -80h-506z" />
    <glyph glyph-name="IJ" unicode="&#x132;" horiz-adv-x="1366" 
d="M51 0l-16 80q106 31 106 178v916q0 150 -106 180l16 80h563l17 -80q-104 -31 -105 -180v-916q0 -147 105 -178l-17 -80h-563zM692 -471q-172 0 -258 63.5t-86 161.5q0 70 46 114t114 44q66 0 107.5 -32t55 -69.5t35 -69.5t52.5 -32q49 0 68.5 66.5t19.5 214.5v1184
q0 150 -105 180l19 80h561l16 -80q-104 -31 -104 -180v-1102q0 -147 -43 -256t-121 -170.5t-171 -89t-206 -27.5z" />
    <glyph glyph-name="ij" unicode="&#x133;" horiz-adv-x="1179" 
d="M313 1198q-90 0 -143 54.5t-53 128t53 130t143 56.5t144.5 -56.5t54.5 -130t-54.5 -128t-144.5 -54.5zM895 1198q-92 0 -145.5 54.5t-53.5 128t53.5 130t145.5 56.5q90 0 144.5 -56.5t54.5 -130t-54.5 -128t-144.5 -54.5zM70 0l-17 80q104 31 105 178v444q0 147 -105 179
l17 80q215 35 387 149h28v-852q0 -147 107 -178l-19 -80h-503zM680 -459q-145 0 -229 64.5t-84 165.5q0 57 39.5 99t103.5 42q76 0 107.5 -41t30.5 -90t15.5 -90t63.5 -41q37 0 57.5 43t20.5 104q0 53 -33 169t-33 198v538q0 147 -106 179l16 80q217 35 389 149h29l2 -1169
q0 -180 -98 -290t-291 -110z" />
    <glyph glyph-name="Jcircumflex" unicode="&#x134;" horiz-adv-x="698" 
d="M66 1509l-52 82l336 293l334 -293l-49 -82l-285 121zM27 -442q-172 0 -259 63.5t-87 161.5q0 70 46 115t113 45q53 0 90 -21.5t54.5 -51.5t31 -59.5t30.5 -51t44 -21.5q90 0 90 280v1156q0 150 -106 180l18 80h561l17 -80q-104 -31 -105 -180v-1074q0 -147 -43 -255.5
t-120.5 -170t-170.5 -89t-204 -27.5z" />
    <glyph glyph-name="jcircumflex" unicode="&#x135;" horiz-adv-x="587" 
d="M10 1145l-51 82l336 293l334 -293l-49 -82l-285 121zM76 -459q-145 0 -229.5 64.5t-84.5 165.5q0 57 41 99t105 42q74 0 106.5 -41t30.5 -90t15.5 -90t64.5 -41q37 0 57.5 43t20.5 104q0 53 -34 169t-34 198v538q0 147 -104 179l16 80q215 33 387 149h29l2 -1169
q0 -180 -97 -290t-292 -110z" />
    <glyph glyph-name="uni0136" unicode="&#x136;" horiz-adv-x="1581" 
d="M1397 258q94 -152 198 -178l-16 -80h-635l-14 80q43 14 50 58t-34 120l-270 444h-12l-134 -120v-324q0 -147 105 -178l-17 -80h-563l-16 80q104 31 104 178v916q0 150 -104 180l16 80h563l17 -80q-104 -31 -105 -180v-355h13l387 355q51 45 60 85.5t-7 62t-43 32.5l16 80
h525l16 -80q-152 -35 -313 -180l-221 -201zM727 -117q104 0 169 -71.5t65 -194.5q0 -162 -97.5 -307.5t-251.5 -222.5l-73 106q166 109 229 313l-6 7q-41 -20 -66 -21q-84 0 -141 54.5t-57 142.5q0 86 67.5 140t161.5 54z" />
    <glyph glyph-name="uni0137" unicode="&#x137;" horiz-adv-x="1312" 
d="M1114 258q96 -147 221 -178l-16 -80h-565l-17 80q84 31 -10 178l-182 281h-15q-20 -25 -61 -70v-211q0 -147 106 -178l-16 -80h-506l-16 80q104 31 104 178v916q0 150 -104 178l16 80q233 37 418 159l27 -10q-29 -123 -29 -346v-530h14l168 194q82 100 166 155.5
t201 55.5t186.5 -55.5t69.5 -149.5q0 -88 -44 -144t-128 -56q-66 0 -106 34.5t-69.5 68.5t-70.5 34q-37 0 -88 -45zM651 -117q104 0 169 -71.5t65 -194.5q0 -162 -97.5 -307.5t-250.5 -222.5l-74 106q166 109 229 313l-6 7q-41 -20 -65 -21q-84 0 -141.5 54.5t-57.5 142.5
q0 86 67.5 140t161.5 54z" />
    <glyph glyph-name="kgreenlandic" unicode="&#x138;" horiz-adv-x="1302" 
d="M1114 258q96 -147 221 -178l-16 -80h-565l-17 80q84 31 -10 178l-182 281h-15q-20 -25 -61 -70v-211q0 -147 106 -178l-16 -80h-506l-16 80q104 31 104 178v444q0 147 -104 177l16 82q203 33 375 149h43v-405h12l168 194q82 100 166 155.5t201 55.5t186.5 -55.5
t69.5 -149.5q0 -88 -44 -144t-128 -56q-66 0 -106 34.5t-69.5 68.5t-70.5 34q-37 0 -88 -45z" />
    <glyph glyph-name="Lacute" unicode="&#x139;" horiz-adv-x="1298" 
d="M616 1704l-286 -184l-80 63l211 264q68 82 139 82q43 0 72.5 -28.5t29.5 -67.5q0 -76 -86 -129zM1210 455l84 -39l-139 -455h-31q-29 16 -127 27.5t-170 11.5h-772l-16 80q104 31 104 178v916q0 150 -104 180l16 80h563l17 -80q-104 -31 -105 -180v-1006q109 -14 179 -14
q92 0 177 30.5t141 74.5t100 89t65 76z" />
    <glyph glyph-name="lacute" unicode="&#x13a;" horiz-adv-x="614" 
d="M248 1589l-80 64l211 264q68 82 139 82q43 0 73 -28.5t30 -67.5q0 -76 -86 -129zM55 0l-18 80q106 31 106 178v916q0 152 -106 178l18 80q233 37 418 159l25 -10q-27 -115 -27 -346v-977q0 -147 107 -178l-17 -80h-506z" />
    <glyph glyph-name="uni013B" unicode="&#x13b;" horiz-adv-x="1302" 
d="M1210 455l84 -39l-139 -455h-31q-29 16 -127 27.5t-170 11.5h-772l-16 80q104 31 104 178v916q0 150 -104 180l16 80h563l17 -80q-104 -31 -105 -180v-1006q109 -14 179 -14q92 0 177 30.5t141 74.5t100 89t65 76zM657 -117q102 0 167 -71.5t65 -194.5
q0 -162 -97.5 -307.5t-250.5 -222.5l-74 106q170 111 229 313l-6 7q-35 -20 -65 -21q-82 0 -140.5 55.5t-58.5 141.5t67.5 140t163.5 54z" />
    <glyph glyph-name="uni013C" unicode="&#x13c;" horiz-adv-x="612" 
d="M578 80l-17 -80h-506l-18 80q106 31 106 178v916q0 152 -106 178l18 80q233 37 418 159l25 -10q-27 -115 -27 -346v-977q1 -147 107 -178zM330 -117q102 0 167.5 -71.5t65.5 -194.5q0 -162 -97 -307.5t-251 -222.5l-74 106q168 111 228 313l-7 7q-31 -20 -63 -21
q-84 0 -142.5 55.5t-58.5 141.5t68 140t164 54z" />
    <glyph glyph-name="Lcaron" unicode="&#x13d;" horiz-adv-x="1298" 
d="M915 1081q-84 0 -142 55.5t-58 143.5q0 86 67.5 139.5t163.5 53.5q102 0 168 -72t66 -195q0 -160 -97.5 -305t-251.5 -225l-73 106q170 115 227 314l-6 8q-33 -23 -64 -23zM1210 455l84 -39l-139 -455h-31q-29 16 -127 27.5t-170 11.5h-772l-16 80q104 31 104 178v916
q0 150 -104 180l16 80h563l17 -80q-104 -31 -105 -180v-1006q109 -14 179 -14q92 0 177 30.5t141 74.5t100 89t65 76z" />
    <glyph glyph-name="lcaron" unicode="&#x13e;" horiz-adv-x="1093" 
d="M475 258q0 -147 107 -178l-17 -80h-506l-18 80q106 31 106 178v916q0 152 -106 178l18 80q233 37 418 159l25 -10q-27 -115 -27 -346v-977zM786 1473q104 0 169 -72t65 -195q0 -160 -97.5 -305t-250.5 -225l-74 106q168 113 229 314l-6 8q-37 -23 -65 -23
q-84 0 -141.5 55.5t-57.5 143.5q0 86 67.5 139.5t161.5 53.5z" />
    <glyph glyph-name="Ldot" unicode="&#x13f;" horiz-adv-x="1298" 
d="M1210 455l84 -39l-139 -455h-31q-29 16 -127 27.5t-170 11.5h-772l-16 80q104 31 104 178v916q0 150 -104 180l16 80h563l17 -80q-104 -31 -105 -180v-1006q109 -14 179 -14q92 0 177 30.5t141 74.5t100 89t65 76zM889 522q-90 0 -153.5 60.5t-63.5 154.5t63.5 154.5
t153.5 60.5t153.5 -60.5t63.5 -154.5t-63.5 -154.5t-153.5 -60.5z" />
    <glyph glyph-name="ldot" unicode="&#x140;" horiz-adv-x="968" 
d="M59 0l-16 80q106 33 107 178v916q0 150 -107 178l16 80q233 37 420 159l25 -10q-27 -115 -27 -346v-977q0 -147 105 -178l-17 -80h-506zM776 522q-90 0 -153.5 60.5t-63.5 154.5t63.5 154.5t153.5 60.5q92 0 154.5 -60.5t62.5 -154.5t-62.5 -154.5t-154.5 -60.5z" />
    <glyph glyph-name="Lslash" unicode="&#x141;" horiz-adv-x="1353" 
d="M1266 457l84 -41l-142 -455h-28q-31 16 -130.5 27.5t-168.5 11.5h-770l-17 80q104 31 105 178v328l-187 -111v115l187 110v474q0 150 -105 180l17 80h561l16 -80q-104 -31 -104 -180v-246l184 108l2 -114l-186 -111v-641q106 -14 180 -14q92 0 177 30.5t141.5 75.5
t99.5 89t63 75z" />
    <glyph glyph-name="lslash" unicode="&#x142;" horiz-adv-x="638" 
d="M612 705l-129 -76v-371q0 -147 105 -178l-17 -80h-505l-17 80q106 31 107 178v178l-127 -76v113l127 76v625q0 150 -107 180l17 80q227 33 419 157l27 -12q-29 -113 -29 -344v-492l129 76v-114z" />
    <glyph glyph-name="Nacute" unicode="&#x143;" horiz-adv-x="1454" 
d="M995 1704l-286 -184l-80 63l211 264q68 82 141 82q43 0 71.5 -28.5t28.5 -67.5q0 -76 -86 -129zM1413 1434l14 -80q-106 -33 -106 -180v-1174h-184q-33 106 -109 201.5t-170 173.5t-191.5 155.5t-195.5 182t-162 219.5h-8v-674q0 -147 105 -178l-17 -80h-334l-16 80
q104 31 104 178v916q0 150 -104 180l16 80h320q92 -156 216 -291t221 -215t195.5 -180.5t149.5 -196.5h10v623q0 150 -106 180l16 80h336z" />
    <glyph glyph-name="nacute" unicode="&#x144;" horiz-adv-x="1345" 
d="M883 1339l-289 -184l-78 64l211 264q66 82 139 82q43 0 72 -29t29 -68q0 -78 -84 -129zM1184 258q14 -147 125 -178l-17 -80h-506l-18 80q100 31 86 178l-45 438q-8 94 -51 151.5t-121 57.5q-76 0 -123 -60.5t-47 -148.5v-438q0 -145 108 -178l-16 -80h-506l-14 80
q102 31 102 178v434q0 147 -104 178l16 80q178 29 369 160h29l8 -160h12q104 160 287 160q348 0 389 -438z" />
    <glyph glyph-name="uni0145" unicode="&#x145;" horiz-adv-x="1456" 
d="M1413 1434l14 -80q-106 -33 -106 -180v-1174h-184q-33 106 -109 201.5t-170 173.5t-191.5 155.5t-195.5 182t-162 219.5h-8v-674q0 -147 105 -178l-17 -80h-334l-16 80q104 31 104 178v916q0 150 -104 180l16 80h320q92 -156 216 -291t221 -215t195.5 -180.5
t149.5 -196.5h10v623q0 150 -106 180l16 80h336zM750 -117q102 0 167.5 -71.5t65.5 -194.5q0 -162 -97.5 -307.5t-250.5 -222.5l-74 106q168 111 227 313l-6 7q-31 -20 -63 -21q-84 0 -142.5 55.5t-58.5 141.5t68 140t164 54z" />
    <glyph glyph-name="uni0146" unicode="&#x146;" horiz-adv-x="1343" 
d="M1184 258q14 -147 125 -178l-17 -80h-506l-18 80q100 31 86 178l-45 438q-8 94 -51 151.5t-121 57.5q-76 0 -123 -60.5t-47 -148.5v-438q0 -145 108 -178l-16 -80h-506l-14 80q102 31 102 178v434q0 147 -104 178l16 80q178 29 369 160h29l8 -160h12q104 160 287 160
q348 0 389 -438zM670 -117q102 0 167.5 -71.5t65.5 -194.5q0 -162 -97 -307.5t-251 -222.5l-74 106q168 111 228 313l-7 7q-31 -20 -63 -21q-84 0 -142.5 55.5t-58.5 141.5t68 140t164 54z" />
    <glyph glyph-name="Ncaron" unicode="&#x147;" horiz-adv-x="1454" 
d="M1061 1806l-334 -293l-336 293l49 82l287 -119l285 119zM1413 1434l14 -80q-106 -33 -106 -180v-1174h-184q-33 106 -109 201.5t-170 173.5t-191.5 155.5t-195.5 182t-162 219.5h-8v-674q0 -147 105 -178l-17 -80h-334l-16 80q104 31 104 178v916q0 150 -104 180l16 80
h320q92 -156 216 -291t221 -215t195.5 -180.5t149.5 -196.5h10v623q0 150 -106 180l16 80h336z" />
    <glyph glyph-name="ncaron" unicode="&#x148;" horiz-adv-x="1345" 
d="M1008 1442l-334 -293l-336 293l49 82l287 -119l282 119zM1184 258q14 -147 125 -178l-17 -80h-506l-18 80q100 31 86 178l-45 438q-8 94 -51 151.5t-121 57.5q-76 0 -123 -60.5t-47 -148.5v-438q0 -145 108 -178l-16 -80h-506l-14 80q102 31 102 178v434q0 147 -104 178
l16 80q178 29 369 160h29l8 -160h12q104 160 287 160q348 0 389 -438z" />
    <glyph glyph-name="napostrophe" unicode="&#x149;" horiz-adv-x="1777" 
d="M266 1473q104 0 169 -72t65 -195q0 -160 -97.5 -305t-250.5 -225l-74 106q168 113 229 314l-6 8q-37 -23 -65 -23q-84 0 -141.5 55.5t-57.5 143.5q0 86 67.5 139.5t161.5 53.5zM1616 258q12 -145 125 -178l-19 -80h-503l-19 80q100 31 86 178l-45 438q-23 209 -172 209
q-76 0 -123 -60.5t-47 -148.5v-438q0 -147 109 -178l-19 -80h-504l-16 80q104 31 104 178v434q0 147 -104 178l16 80q178 29 369 160h29l8 -160h12q104 160 287 160q348 0 389 -438z" />
    <glyph glyph-name="Eng" unicode="&#x14a;" horiz-adv-x="1454" 
d="M1411 1434l16 -80q-106 -31 -106 -180v-1211q0 -434 -377 -434q-139 0 -232.5 57.5t-93.5 151.5q0 59 37 98t93 39q57 0 91.5 -30.5t46 -66.5t42 -66.5t82.5 -30.5q74 0 113.5 73.5t39.5 208.5v49q-35 102 -114.5 196.5t-178 171.5t-199 153.5t-200.5 181t-164 217.5h-8
v-674q0 -147 107 -178l-17 -80h-334l-16 80q104 31 104 178v916q0 150 -104 180l16 80h305q92 -156 218.5 -290t226.5 -211t200.5 -176.5t151.5 -195.5h6v613q0 150 -106 180l18 80h336z" />
    <glyph glyph-name="eng" unicode="&#x14b;" horiz-adv-x="1292" 
d="M799 1108q367 0 364 -436v-731q0 -182 -109.5 -291t-326.5 -109q-145 0 -249.5 63.5t-104.5 162.5q0 57 35.5 98t99.5 41q61 0 89 -40t30 -88t22.5 -88t69.5 -40q109 0 108 301l2 745q0 94 -42 151.5t-119 57.5q-80 0 -139.5 -61.5t-59.5 -145.5v-440q0 -147 106 -178
l-16 -80h-506l-16 80q104 31 104 178v434q0 147 -104 178l16 80q170 27 369 158h29l8 -160h16q43 68 133.5 114t190.5 46z" />
    <glyph glyph-name="Omacron" unicode="&#x14c;" horiz-adv-x="1564" 
d="M467 1614v158h633v-158h-633zM784 -39q-295 0 -509 211t-214 539q0 340 197 551t522 211q297 0 510 -217.5t213 -548.5q0 -330 -205 -538t-514 -208zM872 113q113 0 183.5 111.5t70.5 260.5q0 176 -53 364.5t-162.5 329t-244.5 140.5q-111 0 -181.5 -111.5t-70.5 -265.5
q0 -193 53 -380t161.5 -318t243.5 -131z" />
    <glyph glyph-name="omacron" unicode="&#x14d;" horiz-adv-x="1226" 
d="M297 1249v158h633v-158h-633zM618 -39q-258 0 -413.5 162t-155.5 416t153.5 412.5t409.5 158.5t411 -161t155 -417q0 -254 -153 -412.5t-407 -158.5zM686 125q90 0 133 75.5t43 196.5q0 61 -20.5 148.5t-57 179.5t-101.5 155.5t-140 63.5q-90 0 -134 -74.5t-44 -197.5
q0 -92 32.5 -214t110.5 -227.5t178 -105.5z" />
    <glyph glyph-name="Obreve" unicode="&#x14e;" horiz-adv-x="1564" 
d="M782 1581q-119 0 -201.5 58.5t-119.5 150.5l104 59q20 -49 81 -78.5t136.5 -29.5t137 28.5t81.5 75.5l103 -55q-35 -92 -118 -150.5t-204 -58.5zM784 -39q-295 0 -509 211t-214 539q0 340 197 551t522 211q297 0 510 -217.5t213 -548.5q0 -330 -205 -538t-514 -208z
M872 113q113 0 183.5 111.5t70.5 260.5q0 176 -53 364.5t-162.5 329t-244.5 140.5q-111 0 -181.5 -111.5t-70.5 -265.5q0 -193 53 -380t161.5 -318t243.5 -131z" />
    <glyph glyph-name="obreve" unicode="&#x14f;" horiz-adv-x="1226" 
d="M612 1217q-119 0 -201.5 58t-119.5 150l104 60q20 -49 81 -79t136.5 -30t137 29t81.5 76l103 -56q-35 -92 -118 -150t-204 -58zM618 -39q-258 0 -413.5 162t-155.5 416t153.5 412.5t409.5 158.5t411 -161t155 -417q0 -254 -153 -412.5t-407 -158.5zM686 125
q90 0 133 75.5t43 196.5q0 61 -20.5 148.5t-57 179.5t-101.5 155.5t-140 63.5q-90 0 -134 -74.5t-44 -197.5q0 -92 32.5 -214t110.5 -227.5t178 -105.5z" />
    <glyph glyph-name="Ohungarumlaut" unicode="&#x150;" horiz-adv-x="1564" 
d="M584 1505l-107 45l107 289q37 106 123 107q47 0 74.5 -31t27.5 -72t-47 -104zM895 1505l-107 45l107 289q37 106 121 107q47 0 74.5 -31t27.5 -72q0 -43 -45 -104zM784 -39q-295 0 -509 211t-214 539q0 340 197 551t522 211q297 0 510 -217.5t213 -548.5
q0 -330 -205 -538t-514 -208zM872 113q113 0 183.5 111.5t70.5 260.5q0 176 -53 364.5t-162.5 329t-244.5 140.5q-111 0 -181.5 -111.5t-70.5 -265.5q0 -193 53 -380t161.5 -318t243.5 -131z" />
    <glyph glyph-name="ohungarumlaut" unicode="&#x151;" horiz-adv-x="1226" 
d="M412 1141l-107 45q78 213 105 289q37 106 122 106q47 0 75 -30.5t28 -71.5q0 -43 -45 -105zM721 1141l-107 45q80 213 107 289q37 106 121 106q47 0 75.5 -30.5t28.5 -71.5t-47 -105zM618 -39q-258 0 -413.5 162t-155.5 416t153.5 412.5t409.5 158.5t411 -161t155 -417
q0 -254 -153 -412.5t-407 -158.5zM686 125q90 0 133 75.5t43 196.5q0 61 -20.5 148.5t-57 179.5t-101.5 155.5t-140 63.5q-90 0 -134 -74.5t-44 -197.5q0 -92 32.5 -214t110.5 -227.5t178 -105.5z" />
    <glyph glyph-name="OE" unicode="&#x152;" horiz-adv-x="2330" 
d="M2241 424l83 -39l-126 -424h-29q-31 16 -130.5 27.5t-168.5 11.5h-809q-129 -39 -283 -39q-295 0 -509 212t-214 538q0 340 197 552t522 212q139 0 281 -41h1118l80 -359l-82 -31q-4 10 -12.5 25.5t-45 55.5t-84 71t-134.5 56.5t-189 25.5q-82 0 -184 -18v-453l325 2
q150 0 181 104l81 -16l-2 -336l-79 -16q-31 106 -181 106h-325v-475q156 -20 231 -20q92 0 175 27.5t137.5 67.5t96.5 79t60 67zM410 877q0 -190 58 -362.5t176 -286t269 -113.5q57 0 119 24.5t101 65.5q4 29 4 45v854q-123 217 -389 217q-158 0 -248 -132t-90 -312z" />
    <glyph glyph-name="oe" unicode="&#x153;" horiz-adv-x="1945" 
d="M1536 219q94 0 170 49t117 111l65 -25q-12 -156 -148 -274.5t-341 -118.5q-233 0 -398 186q-145 -188 -407 -188q-246 0 -395.5 163t-149.5 417q0 252 147.5 410.5t391.5 158.5q258 0 405 -180q152 180 391 180q164 2 281 -72.5t170 -204.5q29 -70 72 -77l18 -101
l-762 -143q68 -291 373 -291zM1350 950q-86 0 -144.5 -79.5t-58.5 -188.5v-27l401 76q-8 92 -59 155.5t-139 63.5zM686 125q90 0 134 77t44 195q0 61 -20.5 148.5t-57 179.5t-101 155.5t-140.5 63.5q-92 0 -136 -74.5t-44 -199.5q0 -92 32.5 -213t110.5 -226.5t178 -105.5z
" />
    <glyph glyph-name="Racute" unicode="&#x154;" horiz-adv-x="1595" 
d="M938 1704l-287 -184l-80 63l211 264q68 82 142 82q43 0 71.5 -28.5t28.5 -67.5q0 -76 -86 -129zM1602 96l8 -90q-135 -43 -250 -43q-299 0 -371 279q-35 150 -71.5 219t-105.5 101t-198 32h-86v-336q0 -147 107 -178l-17 -80h-563l-16 80q104 31 104 178v916
q0 150 -104 180l16 80h795q274 0 444 -111t170 -303q0 -293 -350 -387v-17q137 -18 193.5 -87.5t97.5 -219.5q18 -66 27.5 -92.5t31 -63t54.5 -49t84 -8.5zM713 1278q-98 0 -185 -14v-506h207q176 0 258 67.5t82 180.5q0 127 -98 199.5t-264 72.5z" />
    <glyph glyph-name="racute" unicode="&#x155;" horiz-adv-x="1013" 
d="M621 1339l-287 -184l-80 64l211 264q68 82 141 82q43 0 72 -29t29 -68q0 -76 -86 -129zM768 1110q102 0 167.5 -64.5t65.5 -160.5q0 -84 -55 -142.5t-133 -58.5q-66 0 -105.5 30.5t-51 66.5t-32 67t-53.5 31q-41 0 -71.5 -51.5t-30.5 -120.5v-449q0 -72 29.5 -118
t79.5 -60l-19 -80h-506l-16 80q104 31 104 178v432q0 152 -104 178l16 82q166 25 369 160h29l10 -166h10q107 166 297 166z" />
    <glyph glyph-name="uni0156" unicode="&#x156;" horiz-adv-x="1605" 
d="M1602 96l8 -90q-135 -43 -250 -43q-299 0 -371 279q-35 150 -71.5 219t-105.5 100t-198 31h-86v-334q0 -147 107 -178l-17 -80h-563l-16 80q104 31 104 178v916q0 150 -104 180l16 80h795q274 0 444 -111t170 -303q0 -145 -91 -244.5t-265 -144.5v-17
q139 -14 197.5 -85.5t99.5 -219.5q18 -66 27.5 -92.5t31 -63t54.5 -49t84 -8.5zM713 1278q-98 0 -185 -14v-508h207q176 0 258 67.5t82 182.5q0 127 -98 199.5t-264 72.5zM793 -117q104 0 168.5 -71.5t64.5 -194.5q0 -162 -97.5 -307.5t-250.5 -222.5l-74 106
q166 109 230 313l-7 7q-41 -20 -65 -21q-84 0 -141.5 54.5t-57.5 142.5q0 86 68 140t162 54z" />
    <glyph glyph-name="uni0157" unicode="&#x157;" horiz-adv-x="1015" 
d="M768 1110q102 0 167.5 -64.5t65.5 -160.5q0 -84 -55 -142.5t-133 -58.5q-66 0 -105.5 30.5t-51 66.5t-32 67t-53.5 31q-41 0 -71.5 -51.5t-30.5 -120.5v-449q0 -72 29.5 -118t79.5 -60l-19 -80h-506l-16 80q104 31 104 178v432q0 152 -104 178l16 82q166 25 369 160h29
l10 -166h10q107 166 297 166zM297 -117q102 0 167.5 -71.5t65.5 -194.5q0 -162 -97 -307.5t-251 -222.5l-73 106q168 111 227 313l-6 7q-31 -20 -64 -21q-84 0 -142 55.5t-58 141.5t67.5 140t163.5 54z" />
    <glyph glyph-name="Rcaron" unicode="&#x158;" horiz-adv-x="1595" 
d="M1133 1806l-334 -293l-336 293l49 82l287 -119l282 119zM1602 96l8 -90q-135 -43 -250 -43q-299 0 -371 279q-35 150 -71.5 219t-105.5 101t-198 32h-86v-336q0 -147 107 -178l-17 -80h-563l-16 80q104 31 104 178v916q0 150 -104 180l16 80h795q274 0 444 -111t170 -303
q0 -293 -350 -387v-17q137 -18 193.5 -87.5t97.5 -219.5q18 -66 27.5 -92.5t31 -63t54.5 -49t84 -8.5zM713 1278q-98 0 -185 -14v-506h207q176 0 258 67.5t82 180.5q0 127 -98 199.5t-264 72.5z" />
    <glyph glyph-name="rcaron" unicode="&#x159;" horiz-adv-x="1013" 
d="M842 1442l-334 -293l-336 293l49 82l287 -119l283 119zM768 1110q102 0 167.5 -64.5t65.5 -160.5q0 -84 -55 -142.5t-133 -58.5q-66 0 -105.5 30.5t-51 66.5t-32 67t-53.5 31q-41 0 -71.5 -51.5t-30.5 -120.5v-449q0 -72 29.5 -118t79.5 -60l-19 -80h-506l-16 80
q104 31 104 178v432q0 152 -104 178l16 82q166 25 369 160h29l10 -166h10q107 166 297 166z" />
    <glyph glyph-name="Sacute" unicode="&#x15a;" horiz-adv-x="1378" 
d="M543 1520l-80 63l211 264q68 82 141 82q43 0 71.5 -28.5t28.5 -67.5q0 -76 -86 -129zM700 -39q-90 0 -217 35t-186 35q-29 0 -57.5 -8.5t-42.5 -14.5l-13 -8h-30l-105 461l94 33q78 -168 221.5 -283t317.5 -115q115 0 188.5 58.5t73.5 146.5q0 39 -12 72t-42 59.5
t-54.5 44t-79 39t-82 30.5t-94.5 29q-90 29 -139.5 47.5t-125 59.5t-115.5 84t-71 115.5t-31 160.5q0 203 156 317t383 114q111 0 230.5 -31t156.5 -31q25 0 49.5 5t36.5 11l10 7h35l96 -412l-92 -23q-70 154 -197.5 245t-281.5 91q-102 0 -163.5 -51t-61.5 -129
q0 -41 21.5 -76t47 -55t85 -44t92 -34t112.5 -33q66 -18 103.5 -30.5t98 -36t97.5 -45t80 -57t67.5 -76.5t41 -97.5t16.5 -121.5q0 -221 -176.5 -354.5t-440.5 -133.5z" />
    <glyph glyph-name="sacute" unicode="&#x15b;" horiz-adv-x="1128" 
d="M418 1155l-80 64l211 264q68 82 139 82q43 0 73 -29t30 -68q0 -76 -86 -129zM604 -39q-76 0 -198.5 36t-159.5 38q-25 0 -48.5 -9.5t-33.5 -17.5l-12 -8h-27l-88 383l72 23q88 -141 223 -223.5t260 -82.5q72 0 116 32t44 89q0 68 -80 117t-219 96q-154 47 -259.5 132
t-105.5 210q0 150 127 242t309 92q92 0 194.5 -37t133.5 -37q53 0 92 33h29l69 -342l-84 -25q-74 127 -180 200t-203 73q-63 0 -99 -30t-36 -75q0 -63 66.5 -103t195.5 -79q84 -27 143.5 -53.5t121 -66.5t93.5 -98t32 -130q0 -180 -137.5 -279.5t-350.5 -99.5z" />
    <glyph glyph-name="Scircumflex" unicode="&#x15c;" horiz-adv-x="1378" 
d="M406 1509l-52 82l336 293l334 -293l-49 -82l-285 121zM700 -39q-90 0 -217 35t-186 35q-29 0 -57.5 -8.5t-42.5 -14.5l-13 -8h-30l-105 461l94 33q78 -168 221.5 -283t317.5 -115q115 0 188.5 58.5t73.5 146.5q0 39 -12 72t-42 59.5t-54.5 44t-79 39t-82 30.5t-94.5 29
q-90 29 -139.5 47.5t-125 59.5t-115.5 84t-71 115.5t-31 160.5q0 203 156 317t383 114q111 0 230.5 -31t156.5 -31q25 0 49.5 5t36.5 11l10 7h35l96 -412l-92 -23q-70 154 -197.5 245t-281.5 91q-102 0 -163.5 -51t-61.5 -129q0 -41 21.5 -76t47 -55t85 -44t92 -34
t112.5 -33q66 -18 103.5 -30.5t98 -36t97.5 -45t80 -57t67.5 -76.5t41 -97.5t16.5 -121.5q0 -221 -176.5 -354.5t-440.5 -133.5z" />
    <glyph glyph-name="scircumflex" unicode="&#x15d;" horiz-adv-x="1128" 
d="M279 1145l-50 82l336 293l334 -293l-49 -82l-285 121zM604 -39q-76 0 -198.5 36t-159.5 38q-25 0 -48.5 -9.5t-33.5 -17.5l-12 -8h-27l-88 383l72 23q88 -141 223 -223.5t260 -82.5q72 0 116 32t44 89q0 68 -80 117t-219 96q-154 47 -259.5 132t-105.5 210q0 150 127 242
t309 92q92 0 194.5 -37t133.5 -37q53 0 92 33h29l69 -342l-84 -25q-74 127 -180 200t-203 73q-63 0 -99 -30t-36 -75q0 -63 66.5 -103t195.5 -79q84 -27 143.5 -53.5t121 -66.5t93.5 -98t32 -130q0 -180 -137.5 -279.5t-350.5 -99.5z" />
    <glyph glyph-name="Scedilla" unicode="&#x15e;" horiz-adv-x="1378" 
d="M1317 449q0 -197 -143.5 -326t-368.5 -156l-43 -94q20 8 51 8q74 0 119 -35.5t45 -97.5q0 -92 -89 -160.5t-229 -68.5q-109 0 -182.5 47t-73.5 110q0 31 23 55.5t53 24.5q39 0 61.5 -22.5t32 -48t35 -48t70.5 -22.5q49 0 79.5 26.5t30.5 71.5q0 29 -19 45.5t-50 16.5
q-39 0 -64 -23l-71 33l78 178q-74 4 -191 36t-174 32q-29 0 -57.5 -8.5t-42.5 -14.5l-13 -8h-30l-105 461l94 33q78 -168 221.5 -283t317.5 -115q115 0 188.5 58.5t73.5 146.5q0 39 -12 72t-42 59.5t-54.5 44t-79 39t-82 30.5t-94.5 29q-90 29 -139.5 47.5t-125 59.5
t-115.5 84t-71 115.5t-31 160.5q0 203 156 317t383 114q111 0 230.5 -31t156.5 -31q25 0 49.5 5t36.5 11l10 7h35l96 -412l-92 -23q-70 154 -197.5 245t-281.5 91q-102 0 -163.5 -51t-61.5 -129q0 -41 21.5 -76t47 -55t85 -44t92 -34t112.5 -33q66 -18 103.5 -30.5t98 -36
t97.5 -45t80 -57t67.5 -76.5t41 -97t16.5 -122z" />
    <glyph glyph-name="scedilla" unicode="&#x15f;" horiz-adv-x="1128" 
d="M1092 340q0 -164 -114 -261t-300 -114l-41 -92q20 8 51 8q74 0 118 -35.5t44 -97.5q0 -92 -88 -160.5t-227 -68.5q-109 0 -184 47t-75 110q0 31 23 55.5t53 24.5q39 0 62.5 -22.5t33 -48t35 -48t70.5 -22.5q49 0 80 26.5t31 71.5q0 29 -19.5 45.5t-50.5 16.5
q-37 0 -66 -23l-69 33l78 180q-53 8 -152.5 38t-138.5 32q-25 0 -48.5 -9.5t-33.5 -17.5l-12 -8h-27l-88 383l72 23q88 -141 223 -223.5t260 -82.5q72 0 116 32t44 89q0 68 -80 117t-219 96q-154 47 -259.5 132t-105.5 210q0 150 127 242t309 92q92 0 194.5 -37t133.5 -37
q53 0 92 33h29l69 -342l-84 -25q-74 127 -180 200t-203 73q-63 0 -99 -30t-36 -75q0 -63 66.5 -103t195.5 -79q84 -27 143.5 -53.5t121 -66.5t93.5 -98t32 -130z" />
    <glyph glyph-name="Scaron" unicode="&#x160;" horiz-adv-x="1378" 
d="M690 1513l-336 293l49 82l287 -119l283 119l51 -82zM700 -39q-90 0 -217 35t-186 35q-29 0 -57.5 -8.5t-42.5 -14.5l-13 -8h-30l-105 461l94 33q78 -168 221.5 -283t317.5 -115q115 0 188.5 58.5t73.5 146.5q0 39 -12 72t-42 59.5t-54.5 44t-79 39t-82 30.5t-94.5 29
q-90 29 -139.5 47.5t-125 59.5t-115.5 84t-71 115.5t-31 160.5q0 203 156 317t383 114q111 0 230.5 -31t156.5 -31q25 0 49.5 5t36.5 11l10 7h35l96 -412l-92 -23q-70 154 -197.5 245t-281.5 91q-102 0 -163.5 -51t-61.5 -129q0 -41 21.5 -76t47 -55t85 -44t92 -34
t112.5 -33q66 -18 103.5 -30.5t98 -36t97.5 -45t80 -57t67.5 -76.5t41 -97.5t16.5 -121.5q0 -221 -176.5 -354.5t-440.5 -133.5z" />
    <glyph glyph-name="scaron" unicode="&#x161;" horiz-adv-x="1128" 
d="M565 1149l-336 293l50 82l286 -119l283 119l51 -82zM604 -39q-76 0 -198.5 36t-159.5 38q-25 0 -48.5 -9.5t-33.5 -17.5l-12 -8h-27l-88 383l72 23q88 -141 223 -223.5t260 -82.5q72 0 116 32t44 89q0 68 -80 117t-219 96q-154 47 -259.5 132t-105.5 210q0 150 127 242
t309 92q92 0 194.5 -37t133.5 -37q53 0 92 33h29l69 -342l-84 -25q-74 127 -180 200t-203 73q-63 0 -99 -30t-36 -75q0 -63 66.5 -103t195.5 -79q84 -27 143.5 -53.5t121 -66.5t93.5 -98t32 -130q0 -180 -137.5 -279.5t-350.5 -99.5z" />
    <glyph glyph-name="uni0162" unicode="&#x162;" horiz-adv-x="1482" 
d="M1341 1473l127 -437l-84 -41q-6 10 -17 28.5t-53 65t-90 83t-126 68.5t-162 38v-1020q0 -147 106 -178l-16 -80h-197l-59 -127q25 8 51 8q74 0 119 -35.5t45 -97.5q0 -92 -89 -160.5t-228 -68.5q-109 0 -182.5 47t-73.5 110q0 31 22.5 55.5t52.5 24.5q39 0 62.5 -22.5
t32 -48t34 -48t70.5 -22.5q51 0 82 26.5t31 71.5q0 29 -20.5 45.5t-51.5 16.5q-35 0 -63 -23l-72 33l94 215h-223l-17 80q104 31 105 178v1022q-84 -6 -162 -37t-128 -72t-88 -80.5t-54 -66.5l-19 -29l-84 41l127 437h29q31 -16 126 -27.5t165 -11.5h557q72 0 166 11t127 28
h28z" />
    <glyph glyph-name="uni0163" unicode="&#x163;" horiz-adv-x="841" 
d="M809 907h-268v-645q0 -145 112 -145q63 0 121 24l31 -133q-78 -31 -215 -45l-41 -90q20 8 51 8q74 0 119 -35.5t45 -97.5q0 -92 -89 -160.5t-229 -68.5q-109 0 -182.5 47t-73.5 110q0 31 23 55.5t53 24.5q39 0 61.5 -22.5t32 -48t35 -48t70.5 -22.5q49 0 79.5 26.5
t30.5 71.5q0 29 -19 45.5t-50 16.5q-39 0 -64 -23l-71 33l80 182q-242 35 -242 301v639h-184v113q285 86 415 352h101v-301h268v-164z" />
    <glyph glyph-name="Tcaron" unicode="&#x164;" horiz-adv-x="1484" 
d="M1075 1806l-334 -293l-335 293l49 82l286 -119l285 119zM1341 1473l127 -437l-84 -41q-6 10 -17 28.5t-53 65t-90 83t-126 68.5t-162 38v-1020q0 -147 106 -178l-16 -80h-563l-17 80q104 31 105 178v1022q-84 -6 -162 -37t-128 -72t-88 -80.5t-54 -66.5l-19 -29l-84 41
l127 437h29q31 -16 126 -27.5t165 -11.5h557q72 0 166 11t127 28h28z" />
    <glyph glyph-name="tcaron" unicode="&#x165;" horiz-adv-x="1380" 
d="M1087 1473q102 0 168 -72t66 -195q0 -160 -97.5 -305t-250.5 -225l-74 106q170 115 227 314l-6 6q-41 -20 -63 -21q-84 0 -142.5 55.5t-58.5 143.5q0 86 67.5 139.5t163.5 53.5zM545 1370v-301h270v-164h-270v-643q0 -145 112 -145q59 0 121 24l33 -133
q-129 -47 -268 -47q-330 0 -330 307v637h-184v115q281 82 417 350h99z" />
    <glyph glyph-name="Tbar" unicode="&#x166;" horiz-adv-x="1484" 
d="M1341 1473l127 -437l-84 -41q-6 10 -17 28.5t-53 65t-90 83t-126 68.5t-162 38v-465h238v-115h-238v-440q0 -147 106 -178l-16 -80h-563l-17 80q106 31 107 178v440h-238v115h238v467q-84 -6 -163 -37t-129 -72t-89 -80.5t-57 -66.5l-17 -29l-82 41l127 437h29
q31 -16 125 -27.5t168 -11.5h557q70 0 165 11t126 28h28z" />
    <glyph glyph-name="tbar" unicode="&#x167;" horiz-adv-x="847" 
d="M809 907h-268v-305h266l2 -115h-268v-225q0 -145 112 -145q63 0 121 24l31 -133q-129 -49 -268 -49q-328 0 -328 309v219h-184v115h184v305h-184v113q283 82 415 350h101v-299h268v-164z" />
    <glyph glyph-name="Utilde" unicode="&#x168;" horiz-adv-x="1376" 
d="M819 1608q-63 0 -151 50t-127 50q-66 0 -82 -78l-107 27q12 127 69.5 180t133.5 53q63 0 152.5 -49t128.5 -49q68 0 84 76l102 -25q-14 -127 -71.5 -181t-131.5 -54zM690 -41q-178 0 -323.5 60.5t-235.5 194.5t-74 323l58 637q14 147 -88 180l16 80h563l17 -80
q-104 -29 -121 -180l-58 -635q-14 -186 92.5 -304t262.5 -118q164 0 269.5 117.5t90.5 304.5l-55 632q-16 154 -123 181l16 82h336l17 -82q-102 -27 -90 -178l55 -637q23 -260 -160.5 -419t-464.5 -159z" />
    <glyph glyph-name="utilde" unicode="&#x169;" horiz-adv-x="1316" 
d="M512 1343q-68 0 -84 -77l-106 26q14 125 71.5 179.5t130.5 54.5q66 0 155 -49.5t128 -49.5q66 0 82 76l102 -24q-12 -127 -69.5 -181.5t-133.5 -54.5q-63 0 -150 50t-126 50zM1174 258q0 -147 106 -178l-16 -82q-193 -4 -320 -39h-26l-48 195h-12q-123 -195 -358 -195
q-168 0 -270.5 110.5t-100.5 327.5v303q0 150 -104 179l16 79q223 39 387 152h31v-739q0 -98 53 -152.5t139 -54.5q80 0 137.5 60.5t57.5 146.5v329q0 152 -105 179l17 82q219 35 385 149h31v-852z" />
    <glyph glyph-name="Umacron" unicode="&#x16a;" horiz-adv-x="1376" 
d="M371 1614v158h633v-158h-633zM690 -41q-178 0 -323.5 60.5t-235.5 194.5t-74 323l58 637q14 147 -88 180l16 80h563l17 -80q-104 -29 -121 -180l-58 -635q-14 -186 92.5 -304t262.5 -118q164 0 269.5 117.5t90.5 304.5l-55 632q-16 154 -123 181l16 82h336l17 -82
q-102 -27 -90 -178l55 -637q23 -260 -160.5 -419t-464.5 -159z" />
    <glyph glyph-name="umacron" unicode="&#x16b;" horiz-adv-x="1316" 
d="M973 1407v-158h-633v158h633zM1174 258q0 -147 106 -178l-16 -82q-193 -4 -320 -39h-26l-48 195h-12q-123 -195 -358 -195q-168 0 -270.5 110.5t-100.5 327.5v303q0 150 -104 179l16 79q223 39 387 152h31v-739q0 -98 53 -152.5t139 -54.5q80 0 137.5 60.5t57.5 146.5
v329q0 152 -105 179l17 82q219 35 385 149h31v-852z" />
    <glyph glyph-name="Ubreve" unicode="&#x16c;" horiz-adv-x="1376" 
d="M686 1581q-121 0 -203 58.5t-116 150.5l102 59q20 -49 80.5 -78.5t136.5 -29.5t138.5 28.5t82.5 75.5l101 -55q-35 -92 -118 -150.5t-204 -58.5zM690 -41q-178 0 -323.5 60.5t-235.5 194.5t-74 323l58 637q14 147 -88 180l16 80h563l17 -80q-104 -29 -121 -180l-58 -635
q-14 -186 92.5 -304t262.5 -118q164 0 269.5 117.5t90.5 304.5l-55 632q-16 154 -123 181l16 82h336l17 -82q-102 -27 -90 -178l55 -637q23 -260 -160.5 -419t-464.5 -159z" />
    <glyph glyph-name="ubreve" unicode="&#x16d;" horiz-adv-x="1316" 
d="M655 1217q-119 0 -201.5 58t-117.5 150l102 60q20 -49 82 -79t135 -30q78 0 139.5 29t82.5 76l102 -56q-37 -92 -119 -150t-205 -58zM1174 258q0 -147 106 -178l-16 -82q-193 -4 -320 -39h-26l-48 195h-12q-123 -195 -358 -195q-168 0 -270.5 110.5t-100.5 327.5v303
q0 150 -104 179l16 79q223 39 387 152h31v-739q0 -98 53 -152.5t139 -54.5q80 0 137.5 60.5t57.5 146.5v329q0 152 -105 179l17 82q219 35 385 149h31v-852z" />
    <glyph glyph-name="Uring" unicode="&#x16e;" horiz-adv-x="1376" 
d="M688 1536q-90 0 -155.5 64.5t-65.5 152.5t65.5 152.5t155.5 64.5t154.5 -64.5t64.5 -152.5q0 -90 -64.5 -153.5t-154.5 -63.5zM688 1659q39 0 64.5 26.5t25.5 67.5q0 37 -25.5 63.5t-64.5 26.5t-65.5 -26.5t-26.5 -63.5q0 -39 26.5 -66.5t65.5 -27.5zM690 -41
q-178 0 -323.5 60.5t-235.5 194.5t-74 323l58 637q14 147 -88 180l16 80h563l17 -80q-104 -29 -121 -180l-58 -635q-14 -186 92.5 -304t262.5 -118q164 0 269.5 117.5t90.5 304.5l-55 632q-16 154 -123 181l16 82h336l17 -82q-102 -27 -90 -178l55 -637q23 -260 -160.5 -419
t-464.5 -159z" />
    <glyph glyph-name="uring" unicode="&#x16f;" horiz-adv-x="1316" 
d="M657.5 1171q-90.5 0 -155 63.5t-64.5 154.5q0 88 64.5 152.5t155 64.5t155 -64.5t64.5 -152.5q0 -90 -64.5 -154t-155 -64zM657 1479q-39 0 -64.5 -27t-25.5 -63q0 -41 25.5 -68t64.5 -27t66 28t27 67q0 37 -27 63.5t-66 26.5zM1174 258q0 -147 106 -178l-16 -82
q-193 -4 -320 -39h-26l-48 195h-12q-123 -195 -358 -195q-168 0 -270.5 110.5t-100.5 327.5v303q0 150 -104 179l16 79q223 39 387 152h31v-739q0 -98 53 -152.5t139 -54.5q80 0 137.5 60.5t57.5 146.5v329q0 152 -105 179l17 82q219 35 385 149h31v-852z" />
    <glyph glyph-name="Uhungarumlaut" unicode="&#x170;" horiz-adv-x="1376" 
d="M631 1505l-107 45l107 289q37 106 121 107q47 0 74.5 -31t27.5 -72q0 -43 -45 -104zM940 1505l-106 45l106 289q37 106 121 107q47 0 75.5 -31t28.5 -72t-47 -104zM690 -41q-178 0 -323.5 60.5t-235.5 194.5t-74 323l58 637q14 147 -88 180l16 80h563l17 -80
q-104 -29 -121 -180l-58 -635q-14 -186 92.5 -304t262.5 -118q164 0 269.5 117.5t90.5 304.5l-55 632q-16 154 -123 181l16 82h336l17 -82q-102 -27 -90 -178l55 -637q23 -260 -160.5 -419t-464.5 -159z" />
    <glyph glyph-name="uhungarumlaut" unicode="&#x171;" horiz-adv-x="1316" 
d="M772 1374l-178 -233l-107 45q80 213 107 289q37 106 123 106q47 0 74.5 -30.5t27.5 -72t-47 -104.5zM905 1141l-106 45q78 213 106 289q37 106 121 106q47 0 74.5 -30.5t27.5 -71.5q0 -43 -45 -105zM1174 258q0 -147 106 -178l-16 -82q-193 -4 -320 -39h-26l-48 195h-12
q-123 -195 -358 -195q-168 0 -270.5 110.5t-100.5 327.5v303q0 150 -104 179l16 79q223 39 387 152h31v-739q0 -98 53 -152.5t139 -54.5q80 0 137.5 60.5t57.5 146.5v329q0 152 -105 179l17 82q219 35 385 149h31v-852z" />
    <glyph glyph-name="Uogonek" unicode="&#x172;" horiz-adv-x="1376" 
d="M1260 1174l55 -637q18 -223 -117 -375t-362 -191q-90 -80 -91 -180q0 -43 29 -71.5t70 -28.5q76 0 121 78l94 -50q-96 -170 -275 -170q-119 0 -187.5 62.5t-68.5 157.5q0 106 78 194q-119 10 -221 51t-180 111t-118 175.5t-30 236.5l58 637q14 147 -88 180l16 80h563
l17 -80q-104 -29 -121 -180l-58 -635q-14 -186 92.5 -304t262.5 -118q164 0 269.5 117.5t90.5 304.5l-55 632q-16 154 -123 181l16 82h336l17 -82q-102 -26 -90 -178z" />
    <glyph glyph-name="uogonek" unicode="&#x173;" horiz-adv-x="1316" 
d="M1212 -231l95 -50q-98 -170 -277 -170q-117 0 -185.5 62.5t-68.5 157.5q0 145 129 239l-35 146h-12q-123 -195 -358 -195q-168 0 -270.5 110.5t-100.5 327.5v303q0 150 -104 179l16 79q223 39 387 152h31v-739q0 -98 53 -152.5t139 -54.5q80 0 137.5 60.5t57.5 146.5v329
q0 152 -105 179l17 82q219 35 385 149h31v-852q0 -147 106 -178l-16 -82q-74 -2 -162 -10q-109 -86 -109 -197q0 -43 28 -71.5t69 -28.5q73 0 122 78z" />
    <glyph glyph-name="Wcircumflex" unicode="&#x174;" horiz-adv-x="2129" 
d="M1065 1630l-285 -121l-51 82l336 293l334 -293l-49 -82zM2126 1434l18 -80q-113 -33 -157 -178l-318 -1072q16 -29 41 -61l-14 -41q-106 0 -203.5 -9t-139.5 -17.5t-57 -14.5h-32l-201 784h-12l-203 -632q14 -31 47 -72l-14 -41q-199 12 -398 -39h-18l-330 1215
q-39 147 -149 178l20 80h590l12 -80q-43 -14 -59.5 -59.5t2.5 -118.5l217 -807h10l211 657l-24 100q-2 8 -9.5 39t-9.5 39t-11 33t-18.5 38t-26 34.5t-38.5 42.5l25 82q248 -12 401 47h16l285 -1112h14l240 807q45 145 -51 178l14 80h330z" />
    <glyph glyph-name="wcircumflex" unicode="&#x175;" horiz-adv-x="1619" 
d="M795 1266l-285 -121l-51 82l336 293l333 -293l-49 -82zM1413 1110q86 0 135 -53t49 -137q0 -80 -94 -304l-268 -616h-258l-156 467h-6l-160 -467h-303l-200 690q-45 150 -162 178l16 82q236 35 356 160h29l211 -739h10l234 698h151l236 -698h10l133 313q12 33 13 49
q0 23 -23 45.5t-49.5 39t-49 53t-22.5 85.5q0 70 45 112t123 42z" />
    <glyph glyph-name="Ycircumflex" unicode="&#x176;" horiz-adv-x="1386" 
d="M408 1509l-50 82l334 293l334 -293l-47 -82l-287 121zM410 0l-15 80q104 31 105 178v406l-320 510q-94 154 -194 180l14 80h621l16 -80q-41 -16 -48 -59.5t34 -120.5l198 -312h15l198 312q43 76 35 120.5t-51 59.5l16 80h350l17 -80q-100 -25 -195 -180l-321 -512v-404
q0 -147 104 -178l-16 -80h-563z" />
    <glyph glyph-name="ycircumflex" unicode="&#x177;" horiz-adv-x="1097" 
d="M551 1266l-287 -121l-49 82l336 293l334 -293l-49 -82zM913 1110q84 0 136.5 -58.5t52.5 -140.5q0 -147 -90 -397q-145 -442 -369 -711q-104 -135 -202.5 -198.5t-217.5 -63.5q-88 0 -148.5 50.5t-60.5 127.5q0 72 48.5 118t117.5 46q43 0 77 -18.5t50.5 -41t33.5 -41
t32 -18.5q63 0 157 134q39 49 72 102h-72l-321 690q-35 74 -95.5 119t-123.5 59l16 82q260 41 350 160h29l375 -791h12q55 127 82 236q41 121 39 180q-2 25 -25.5 48.5t-52.5 41t-52.5 52t-23.5 79.5q0 70 49 112t125 42z" />
    <glyph glyph-name="Ydieresis" unicode="&#x178;" horiz-adv-x="1386" 
d="M477 1565q-74 0 -118 44t-44 105.5t44 107.5t118 46t119 -46t45 -108q0 -59 -44 -104t-120 -45zM905 1565q-74 0 -118 44t-44 105.5t44 107.5t118 46t119 -46t45 -108q0 -59 -45 -104t-119 -45zM410 0l-15 80q104 31 105 178v406l-320 510q-94 154 -194 180l14 80h621
l16 -80q-41 -16 -48 -59.5t34 -120.5l198 -312h15l198 312q43 76 35 120.5t-51 59.5l16 80h350l17 -80q-100 -25 -195 -180l-321 -512v-404q0 -147 104 -178l-16 -80h-563z" />
    <glyph glyph-name="Zacute" unicode="&#x179;" horiz-adv-x="1349" 
d="M608 1520l-78 63l209 264q68 82 142 82q43 0 71.5 -28.5t28.5 -67.5q0 -76 -86 -129zM1167 -41q-31 16 -126 28.5t-164 12.5h-811l-17 90l746 1190h-160q-92 0 -176 -30.5t-138.5 -73.5t-96.5 -86t-60 -74l-21 -31l-84 41l131 447h31q29 -16 124 -27.5t167 -11.5h743
l17 -91l-746 -1191h228q92 0 176 33.5t139 81.5t98 97.5t62 81.5l20 35l86 -41l-139 -481h-29z" />
    <glyph glyph-name="zacute" unicode="&#x17a;" horiz-adv-x="1112" 
d="M539 1155l-80 64l211 264q68 82 141 82q43 0 71.5 -29t28.5 -68q0 -76 -86 -129zM944 -39q-31 16 -127 27.5t-164 11.5h-602l-16 94l583 834v12h-133q-217 0 -319 -211l-74 31l72 309h872l17 -94l-576 -821v-11h141q78 0 151 28t119 68t82 79.5t50 66.5l16 29l72 -37
l-133 -416h-31z" />
    <glyph glyph-name="Zdotaccent" unicode="&#x17b;" horiz-adv-x="1349" 
d="M672 1599q-74 0 -117 45.5t-43 104.5q0 61 43 108.5t117 47.5q76 0 120 -46.5t44 -109.5q0 -59 -44 -104.5t-120 -45.5zM1167 -41q-31 16 -126 28.5t-164 12.5h-811l-17 90l746 1190h-160q-92 0 -176 -30.5t-138.5 -73.5t-96.5 -86t-60 -74l-21 -31l-84 41l131 447h31
q29 -16 124 -27.5t167 -11.5h743l17 -91l-746 -1191h228q92 0 176 33.5t139 81.5t98 97.5t62 81.5l20 35l86 -41l-139 -481h-29z" />
    <glyph glyph-name="zdotaccent" unicode="&#x17c;" horiz-adv-x="1112" 
d="M555 1235q-74 0 -118 45t-44 104q0 63 44 109.5t118 46.5q76 0 120 -46t44 -110q0 -59 -44 -104t-120 -45zM944 -39q-31 16 -127 27.5t-164 11.5h-602l-16 94l583 834v12h-133q-217 0 -319 -211l-74 31l72 309h872l17 -94l-576 -821v-11h141q78 0 151 28t119 68t82 79.5
t50 66.5l16 29l72 -37l-133 -416h-31z" />
    <glyph glyph-name="Zcaron" unicode="&#x17d;" horiz-adv-x="1349" 
d="M674 1513l-336 293l49 82l287 -119l284 119l50 -82zM1167 -41q-31 16 -126 28.5t-164 12.5h-811l-17 90l746 1190h-160q-92 0 -176 -30.5t-138.5 -73.5t-96.5 -86t-60 -74l-21 -31l-84 41l131 447h31q29 -16 124 -27.5t167 -11.5h743l17 -91l-746 -1191h228
q92 0 176 33.5t139 81.5t98 97.5t62 81.5l20 35l86 -41l-139 -481h-29z" />
    <glyph glyph-name="zcaron" unicode="&#x17e;" horiz-adv-x="1112" 
d="M557 1149l-336 293l49 82l287 -119l283 119l51 -82zM944 -39q-31 16 -127 27.5t-164 11.5h-602l-16 94l583 834v12h-133q-217 0 -319 -211l-74 31l72 309h872l17 -94l-576 -821v-11h141q78 0 151 28t119 68t82 79.5t50 66.5l16 29l72 -37l-133 -416h-31z" />
    <glyph glyph-name="longs" unicode="&#x17f;" horiz-adv-x="757" 
d="M565 1620q129 0 217 -70.5t88 -175.5q0 -63 -35.5 -104t-97.5 -41q-66 0 -99.5 35.5t-39.5 77.5t-27.5 78t-64.5 36q-70 0 -70 -90q0 -45 64.5 -175t64.5 -192v-741q0 -152 105 -178l-17 -80h-506l-16 80q104 27 105 178v649h-199v162h194q-4 25 -20 99.5t-16 119.5
q0 141 99 236.5t271 95.5z" />
    <glyph glyph-name="florin" unicode="&#x192;" horiz-adv-x="911" 
d="M659 1473q135 0 211 -42t76 -114q0 -57 -33.5 -90t-89.5 -33q-49 0 -79.5 19.5t-39 42t-24.5 42t-41 19.5q-39 0 -63.5 -50t-36.5 -194l-13 -123h246v-164h-260l-41 -432q-23 -303 -123 -449.5t-330 -146.5q-143 0 -224 49.5t-81 118.5q0 49 32 82t89 33q47 0 73.5 -19.5
t35 -43t25 -43t42.5 -19.5q43 0 67.5 52t37.5 198l61 620h-205v164h222l10 94q20 213 136.5 321t319.5 108z" />
    <glyph glyph-name="Aringacute" unicode="&#x1fa;" horiz-adv-x="1466" 
d="M733 1536q-90 0 -154.5 63.5t-64.5 153.5q0 61 33 112.5t86 80.5l184 231q70 80 139 80q43 0 73 -27.5t30 -68.5q0 -76 -86 -129l-137 -88q53 -29 84.5 -80.5t31.5 -110.5q0 -90 -64.5 -153.5t-154.5 -63.5zM733 1659q39 0 65.5 27.5t26.5 66.5q0 37 -26.5 63.5
t-65.5 26.5t-64.5 -26.5t-25.5 -63.5q0 -41 25.5 -67.5t64.5 -26.5zM1305 258q59 -147 176 -178l-17 -80h-585l-17 80q94 31 33 178l-29 74h-522l-29 -74q-29 -74 -18.5 -119t51.5 -59l-16 -80h-330l-16 80q119 33 176 178l364 907q-37 68 -116 129l10 82q27 0 69.5 4
t142 30t161.5 69h16zM410 494h391l-193 477h-8z" />
    <glyph glyph-name="aringacute" unicode="&#x1fb;" horiz-adv-x="1181" 
d="M588 1171q-90 0 -155.5 64.5t-65.5 153.5q0 57 30.5 107t79.5 79l168 211q66 80 139 80q43 0 72 -28t29 -66q0 -76 -84 -132l-103 -65q109 -63 109 -186q0 -90 -64.5 -154t-154.5 -64zM588 1294q39 0 65.5 28t26.5 67q0 37 -26.5 63.5t-65.5 26.5t-64.5 -27t-25.5 -63
q0 -41 25.5 -68t64.5 -27zM1212 117l29 -72q-84 -84 -240 -84q-211 0 -266 174h-12q-47 -92 -138 -133t-192 -41q-150 0 -249 79t-99 212q0 70 23.5 126t72.5 97t98.5 69.5t130.5 52.5t137 36t146 29l-24 163q-8 61 -42 95t-81 34q-45 0 -76 -29.5t-22 -74.5
q16 -72 -30 -119t-118 -47q-70 0 -109.5 43t-39.5 117q0 106 109.5 185t316.5 79q182 0 305 -100.5t149 -302.5l53 -426q20 -174 115 -175q24 1 53 13zM541 154q61 0 111 58t48 130l-32 217q-287 -63 -287 -244q0 -76 45 -118.5t115 -42.5z" />
    <glyph glyph-name="uni0218" unicode="&#x218;" horiz-adv-x="1368" 
d="M813 913q66 -18 103.5 -30.5t98 -36t97.5 -45t80 -57t67.5 -76.5t41 -97.5t16.5 -121.5q0 -221 -176 -354.5t-441 -133.5q-90 0 -217 35t-186 35q-29 0 -57.5 -8.5t-42.5 -14.5l-13 -8h-30l-105 461l94 33q78 -168 221.5 -283t317.5 -115q115 0 188.5 58.5t73.5 146.5
q0 39 -12 72t-42 59.5t-54.5 44t-79 39t-82 30.5t-94.5 29q-90 29 -139.5 47.5t-125 59.5t-115.5 84t-71 115.5t-31 160.5q0 203 156 317t383 114q111 0 230.5 -31t156.5 -31q25 0 49.5 5t36.5 11l10 7h35l96 -412l-92 -23q-70 154 -197.5 245t-281.5 91q-102 0 -163.5 -51
t-61.5 -129q0 -41 21.5 -76t47 -55t85 -44t92 -34t112.5 -33zM739 -117q104 0 169 -71.5t65 -194.5q0 -162 -97.5 -307.5t-250.5 -222.5l-74 106q166 109 229 313l-6 7q-41 -20 -65 -21q-84 0 -141.5 54.5t-57.5 142.5q0 86 67.5 140t161.5 54z" />
    <glyph glyph-name="uni0219" unicode="&#x219;" horiz-adv-x="1126" 
d="M702 688q84 -27 143.5 -53.5t121 -66.5t93.5 -98t32 -130q0 -180 -137.5 -279.5t-350.5 -99.5q-76 0 -198.5 36t-159.5 38q-25 0 -48.5 -9.5t-33.5 -17.5l-12 -8h-27l-88 383l72 23q88 -141 223 -223.5t260 -82.5q72 0 116 32t44 89q0 68 -80 117t-219 96
q-154 47 -259.5 132t-105.5 210q0 150 127 242t309 92q92 0 194.5 -37t133.5 -37q53 0 92 33h29l69 -342l-84 -25q-74 127 -180 200t-203 73q-63 0 -99 -30t-36 -75q0 -63 66.5 -103t195.5 -79zM592 -117q102 0 167.5 -71.5t65.5 -194.5q0 -162 -97 -307.5t-251 -222.5
l-74 106q168 111 228 313l-6 7q-31 -20 -64 -21q-84 0 -142.5 55.5t-58.5 141.5t68 140t164 54z" />
    <glyph glyph-name="uni021A" unicode="&#x21a;" horiz-adv-x="1484" 
d="M1341 1473l127 -437l-84 -41q-6 10 -17 28.5t-53 65t-90 83t-126 68.5t-162 38v-1020q0 -147 106 -178l-16 -80h-563l-17 80q104 31 105 178v1022q-84 -6 -162 -37t-128 -72t-88 -80.5t-54 -66.5l-19 -29l-84 41l127 437h29q31 -16 126 -27.5t165 -11.5h557q72 0 166 11
t127 28h28zM737 -117q104 0 169 -71.5t65 -194.5q0 -162 -97.5 -307.5t-250.5 -222.5l-74 106q166 109 229 313l-6 7q-41 -20 -65 -21q-84 0 -141.5 54.5t-57.5 142.5q0 86 67.5 140t161.5 54z" />
    <glyph glyph-name="uni021B" unicode="&#x21b;" horiz-adv-x="847" 
d="M809 905h-268v-643q0 -145 112 -145q59 0 121 24l31 -133q-125 -47 -268 -47q-328 0 -328 307v637h-184v115q281 82 415 350h101v-301h268v-164zM498 -117q102 0 166.5 -71.5t64.5 -194.5q0 -162 -96 -307.5t-252 -222.5l-74 106q170 111 230 313l-7 7q-31 -20 -63 -21
q-84 0 -142.5 55.5t-58.5 141.5t68 140t164 54z" />
    <glyph glyph-name="uni0237" unicode="&#x237;" horiz-adv-x="512" 
d="M37 -459q-143 0 -228 64.5t-85 165.5q0 57 40.5 99t104.5 42q74 0 106.5 -41t30.5 -90t15.5 -90t64.5 -41q37 0 57.5 44t20.5 103q0 53 -34 169t-34 198v538q0 147 -104 179l16 80q215 35 387 149h29l2 -1169q0 -180 -97 -290t-292 -110z" />
    <glyph glyph-name="uni02B0" unicode="&#x2b0;" horiz-adv-x="610" 
d="M537 971q6 -68 57 -82l-10 -37h-228l-8 37q45 14 37 82l-23 223q-4 35 -23.5 54.5t-43.5 19.5q-33 0 -55.5 -21.5t-22.5 -56.5v-219q0 -70 47 -82l-8 -37h-229l-9 37q47 14 48 82v399q0 66 -48 80l9 37q102 16 190 72l10 -7q-10 -49 -10 -151v-109h6q41 51 115 51
q164 0 182 -192z" />
    <glyph glyph-name="circumflex" unicode="&#x2c6;" horiz-adv-x="1036" 
d="M233 1145l-49 82l334 293l334 -293l-47 -82l-287 121z" />
    <glyph glyph-name="caron" unicode="&#x2c7;" horiz-adv-x="1036" 
d="M518 1149l-334 293l47 82l287 -119l285 119l49 -82z" />
    <glyph glyph-name="uni02C9" unicode="&#x2c9;" horiz-adv-x="1048" 
d="M209 1249v158h633v-158h-633z" />
    <glyph glyph-name="breve" unicode="&#x2d8;" horiz-adv-x="1026" 
d="M512 1217q-121 0 -203 58t-116 150l102 60q20 -49 80.5 -79t136.5 -30t138.5 29t82.5 76l101 -56q-35 -92 -118 -150t-204 -58z" />
    <glyph glyph-name="dotaccent" unicode="&#x2d9;" horiz-adv-x="960" 
d="M479 1235q-74 0 -118 45t-44 104q0 63 44.5 109.5t117.5 46.5q76 0 120 -46t44 -110q0 -59 -44 -104t-120 -45z" />
    <glyph glyph-name="ring" unicode="&#x2da;" horiz-adv-x="1013" 
d="M508 1171q-92 0 -156.5 63.5t-64.5 154.5q0 88 64.5 152.5t156.5 64.5q88 0 152.5 -64.5t64.5 -152.5q0 -90 -63.5 -154t-153.5 -64zM508 1294q39 0 64.5 27t25.5 68q0 37 -25.5 63.5t-64.5 26.5t-65.5 -27t-26.5 -63q0 -41 26.5 -68t65.5 -27z" />
    <glyph glyph-name="ogonek" unicode="&#x2db;" horiz-adv-x="1038" 
d="M637 -451q-119 0 -187.5 62.5t-68.5 157.5q0 104 69.5 185t190.5 126l84 -80q-127 -86 -127 -209q0 -43 28.5 -71.5t69.5 -28.5q76 0 121 78l94 -50q-96 -170 -274 -170z" />
    <glyph glyph-name="tilde" unicode="&#x2dc;" horiz-adv-x="1052" 
d="M659 1243q-66 0 -152.5 50t-125.5 50q-66 0 -82 -77l-106 26q12 127 69 180.5t133 53.5q63 0 152.5 -49.5t128.5 -49.5q68 0 84 76l102 -24q-14 -127 -71.5 -181.5t-131.5 -54.5z" />
    <glyph glyph-name="hungarumlaut" unicode="&#x2dd;" horiz-adv-x="976" 
d="M348 1141l-106 45l104 289q37 106 123 106q47 0 74.5 -30.5t27.5 -71.5q0 -43 -45 -105zM657 1141l-106 45l106 289q37 106 121 106q47 0 76 -30.5t29 -71.5t-47 -105z" />
    <glyph glyph-name="uni0394" unicode="&#x394;" horiz-adv-x="1482" 
d="M43 0l553 1434h289l555 -1434h-1397zM254 145h700l-350 902z" />
    <glyph glyph-name="uni03A9" unicode="&#x3a9;" horiz-adv-x="1699" 
d="M195 -47l-142 481l84 41q90 -186 324 -186h127v14q-207 102 -348.5 256t-141.5 352q0 260 200 411t552 151t552 -151t200 -411q0 -199 -141.5 -352t-350.5 -256l2 -14h127q233 0 324 186l84 -41l-142 -481h-30q-61 47 -230 47h-332v348q147 98 215 224t68 317
q0 215 -77 331.5t-269.5 116.5t-269 -116.5t-76.5 -331.5q0 -190 67.5 -316.5t212.5 -224.5l2 -348h-333q-166 0 -228 -47h-30z" />
    <glyph glyph-name="uni03BC" unicode="&#x3bc;" horiz-adv-x="1337" 
d="M1288 160l33 -125q-37 -31 -108.5 -52.5t-129.5 -21.5q-113 0 -177 38t-77 132h-6q-123 -170 -340 -170q-41 0 -82 6q41 -57 59.5 -87t38 -76t19.5 -80q0 -92 -56 -139.5t-145 -47.5q-84 0 -141 55.5t-57 149.5v637v12v582h327v-606q0 -98 51.5 -149.5t137.5 -51.5
q80 0 135 60.5t55 146.5v600h328v-744q0 -88 66 -88q34 1 69 19z" />
    <glyph glyph-name="pi" unicode="&#x3c0;" horiz-adv-x="1290" 
d="M1266 961q-35 -240 -207 -250l2 -500q0 -82 61 -82q33 0 64 16l31 -118q-35 -29 -101.5 -47.5t-120.5 -18.5q-119 0 -178 47t-59 164v504h-178v-348q2 -164 -71 -265.5t-226 -101.5q-102 0 -171 47t-69 133q0 51 43 91t98 40q45 0 73 -23.5t38 -53t25.5 -53t35.5 -23.5
q33 0 53.5 31.5t20.5 82.5v443h-55q-61 0 -94 -35t-33 -92h-113q0 80 19.5 149.5t63.5 134t127 102.5t198 38h723v-12z" />
    <glyph glyph-name="Wgrave" unicode="&#x1e80;" horiz-adv-x="2129" 
d="M885 1704q-86 53 -86 129q0 39 29.5 67.5t72.5 28.5q72 0 139 -82l211 -264l-80 -63zM2126 1434l18 -80q-113 -33 -157 -178l-318 -1072q16 -29 41 -61l-14 -41q-106 0 -203.5 -9t-139.5 -17.5t-57 -14.5h-32l-201 784h-12l-203 -632q14 -31 47 -72l-14 -41
q-199 12 -398 -39h-18l-330 1215q-39 147 -149 178l20 80h590l12 -80q-43 -14 -59.5 -59.5t2.5 -118.5l217 -807h10l211 657l-24 100q-2 8 -9.5 39t-9.5 39t-11 33t-18.5 38t-26 34.5t-38.5 42.5l25 82q248 -12 401 47h16l285 -1112h14l240 807q45 145 -51 178l14 80h330z
" />
    <glyph glyph-name="wgrave" unicode="&#x1e81;" horiz-adv-x="1619" 
d="M641 1339q-86 53 -86 129q0 39 29.5 68t72.5 29q72 0 140 -82l211 -264l-80 -64zM1413 1110q86 0 135 -53t49 -137q0 -80 -94 -304l-268 -616h-258l-156 467h-6l-160 -467h-303l-200 690q-45 150 -162 178l16 82q236 35 356 160h29l211 -739h10l234 698h151l236 -698h10
l133 313q12 33 13 49q0 23 -23 45.5t-49.5 39t-49 53t-22.5 85.5q0 70 45 112t123 42z" />
    <glyph glyph-name="Wacute" unicode="&#x1e82;" horiz-adv-x="2129" 
d="M1323 1704l-287 -184l-80 63l211 264q68 82 142 82q43 0 71.5 -28.5t28.5 -67.5q0 -76 -86 -129zM2126 1434l18 -80q-113 -33 -157 -178l-318 -1072q16 -29 41 -61l-14 -41q-106 0 -203.5 -9t-139.5 -17.5t-57 -14.5h-32l-201 784h-12l-203 -632q14 -31 47 -72l-14 -41
q-199 12 -398 -39h-18l-330 1215q-39 147 -149 178l20 80h590l12 -80q-43 -14 -59.5 -59.5t2.5 -118.5l217 -807h10l211 657l-24 100q-2 8 -9.5 39t-9.5 39t-11 33t-18.5 38t-26 34.5t-38.5 42.5l25 82q248 -12 401 47h16l285 -1112h14l240 807q45 145 -51 178l14 80h330z
" />
    <glyph glyph-name="wacute" unicode="&#x1e83;" horiz-adv-x="1619" 
d="M1130 1339l-286 -184l-78 66l209 262q68 82 141 82q43 0 72 -29t29 -68q-1 -76 -87 -129zM1413 1110q86 0 135 -53t49 -137q0 -80 -94 -304l-268 -616h-258l-156 467h-6l-160 -467h-303l-200 690q-45 150 -162 178l16 82q236 35 356 160h29l211 -739h10l234 698h151
l236 -698h10l133 313q12 33 13 49q0 23 -23 45.5t-49.5 39t-49 53t-22.5 85.5q0 70 45 112t123 42z" />
    <glyph glyph-name="Wdieresis" unicode="&#x1e84;" horiz-adv-x="2129" 
d="M850 1565q-76 0 -119 44t-43 105q0 63 43 108.5t119 45.5q74 0 119 -46t45 -108q0 -59 -44 -104t-120 -45zM1278 1565q-74 0 -118 44t-44 105.5t44 107.5t118 46t118 -46t44 -107.5t-44 -105.5t-118 -44zM2126 1434l18 -80q-113 -33 -157 -178l-318 -1072q16 -29 41 -61
l-14 -41q-106 0 -203.5 -9t-139.5 -17.5t-57 -14.5h-32l-201 784h-12l-203 -632q14 -31 47 -72l-14 -41q-199 12 -398 -39h-18l-330 1215q-39 147 -149 178l20 80h590l12 -80q-43 -14 -59.5 -59.5t2.5 -118.5l217 -807h10l211 657l-24 100q-2 8 -9.5 39t-9.5 39t-11 33
t-18.5 38t-26 34.5t-38.5 42.5l25 82q248 -12 401 47h16l285 -1112h14l240 807q45 145 -51 178l14 80h330z" />
    <glyph glyph-name="wdieresis" unicode="&#x1e85;" horiz-adv-x="1619" 
d="M585.5 1200q-73.5 0 -117.5 44t-44 105.5t44 107.5t117.5 46t119 -46t45.5 -107q0 -59 -45.5 -104.5t-119 -45.5zM1014 1200q-74 0 -118 44t-44 105.5t44 107.5t117.5 46t119 -46t45.5 -107q0 -59 -44 -104.5t-120 -45.5zM1413 1110q86 0 135 -53t49 -137q0 -80 -94 -304
l-268 -616h-258l-156 467h-6l-160 -467h-303l-200 690q-45 150 -162 178l16 82q236 35 356 160h29l211 -739h10l234 698h151l236 -698h10l133 313q12 33 13 49q0 23 -23 45.5t-49.5 39t-49 53t-22.5 85.5q0 70 45 112t123 42z" />
    <glyph glyph-name="endash" unicode="&#x2013;" horiz-adv-x="772" 
d="M20 446v246h730v-246h-730z" />
    <glyph glyph-name="emdash" unicode="&#x2014;" horiz-adv-x="940" 
d="M20 446v246h900v-246h-900z" />
    <glyph glyph-name="quoteleft" unicode="&#x2018;" horiz-adv-x="581" 
d="M319 1090q84 0 142.5 -55.5t58.5 -141.5t-67.5 -140.5t-163.5 -54.5q-102 0 -168 72t-66 195q0 160 97.5 305t250.5 225l74 -106q-168 -111 -227 -314l6 -6q36 21 63 21z" />
    <glyph glyph-name="quoteright" unicode="&#x2019;" horiz-adv-x="581" 
d="M295 1473q102 0 166.5 -72t64.5 -195q0 -160 -97 -305t-251 -225l-74 106q172 113 230 314l-6 6q-41 -20 -66 -21q-82 0 -140.5 56.5t-58.5 142.5t68 139.5t164 53.5z" />
    <glyph glyph-name="quotesinglbase" unicode="&#x201a;" horiz-adv-x="581" 
d="M295 352q102 0 166.5 -71.5t64.5 -194.5q0 -162 -97 -307.5t-251 -222.5l-74 104q172 113 230 313l-6 9q-35 -20 -66 -21q-82 0 -140.5 55.5t-58.5 141.5t68 140t164 54z" />
    <glyph glyph-name="quotedblleft" unicode="&#x201c;" horiz-adv-x="1110" 
d="M319 1090q84 0 142.5 -55.5t58.5 -141.5t-67.5 -140.5t-163.5 -54.5q-102 0 -168 72t-66 195q0 160 97.5 305t250.5 225l74 -106q-168 -111 -227 -314l6 -6q36 21 63 21zM848 1090q82 0 140.5 -55.5t58.5 -141.5t-68 -140.5t-164 -54.5q-102 0 -166.5 72t-64.5 195
q0 160 97 305t251 225l74 -106q-170 -111 -230 -314l6 -6q35 21 66 21z" />
    <glyph glyph-name="quotedblright" unicode="&#x201d;" horiz-adv-x="1110" 
d="M295 1473q102 0 166.5 -72t64.5 -195q0 -160 -97 -305t-251 -225l-74 106q172 113 230 314l-6 6q-41 -20 -66 -21q-82 0 -140.5 56.5t-58.5 142.5t68 139.5t164 53.5zM821 1473q102 0 168 -72t66 -195q0 -160 -97.5 -305t-250.5 -225l-74 106q170 115 227 314l-6 8
q-35 -23 -63 -23q-84 0 -142.5 55.5t-58.5 143.5q0 86 67.5 139.5t163.5 53.5z" />
    <glyph glyph-name="quotedblbase" unicode="&#x201e;" horiz-adv-x="1110" 
d="M295 352q102 0 166.5 -71.5t64.5 -194.5q0 -162 -97 -307.5t-251 -222.5l-74 104q172 113 230 313l-6 9q-35 -20 -66 -21q-82 0 -140.5 55.5t-58.5 141.5t68 140t164 54zM821 352q102 0 168 -71.5t66 -194.5q0 -162 -97.5 -307.5t-250.5 -222.5l-74 104q170 115 227 313
l-6 9q-35 -20 -63 -21q-84 0 -142.5 55.5t-58.5 141.5t67.5 140t163.5 54z" />
    <glyph glyph-name="dagger" unicode="&#x2020;" horiz-adv-x="882" 
d="M412 0q-2 645 -80 913q41 55 69 148l-4 6q-61 -12 -141 -37.5t-115 -25.5q-49 0 -78.5 26.5t-29.5 69.5q0 41 29.5 68.5t76.5 27.5q37 0 119 -25.5t141 -37.5l4 4q-12 59 -40.5 129.5t-28.5 105.5q0 47 30.5 74t77.5 27q45 0 75 -27t30 -74q0 -33 -26.5 -104.5
t-39.5 -130.5l4 -4q61 12 140.5 37.5t115.5 25.5q49 0 79 -27.5t30 -68.5q0 -43 -29.5 -69.5t-81.5 -26.5q-33 0 -110.5 25.5t-143.5 37.5l-4 -6q12 -41 29.5 -78t30.5 -53l10 -17q-78 -268 -80 -913h-59z" />
    <glyph glyph-name="daggerdbl" unicode="&#x2021;" horiz-adv-x="882" 
d="M442 -39q-47 0 -76.5 26.5t-29.5 73.5q0 33 27.5 105t39.5 131l-4 4q-63 -12 -143 -37.5t-117 -25.5q-49 0 -77.5 26.5t-28.5 69.5t29.5 70.5t78.5 27.5q35 0 115 -25.5t141 -37.5l4 4q0 43 -20.5 129t-40.5 149l-23 66q84 244 84 342l-4 6q-61 -12 -141 -38t-115 -26
q-49 0 -78.5 27t-29.5 70t28.5 69.5t77.5 26.5q37 0 119 -25.5t141 -38.5l4 5q-12 59 -40.5 131.5t-28.5 105.5q0 47 30.5 74t77.5 27t76 -27t29 -74q0 -33 -26.5 -104.5t-39.5 -132.5l4 -5q61 12 140.5 38t115.5 26q49 0 79 -26.5t30 -69.5t-29.5 -70t-81.5 -27
q-33 0 -110.5 26t-143.5 38l-4 -6q0 -43 20.5 -129t43.5 -150l20 -63q-84 -246 -84 -344l4 -4q63 12 142.5 37.5t113.5 25.5q49 0 79 -27.5t30 -70.5t-28.5 -69.5t-78.5 -26.5q-37 0 -115.5 25.5t-142.5 37.5l-4 -4q12 -61 40 -132t28 -104q0 -47 -30 -73.5t-77 -26.5z" />
    <glyph glyph-name="bullet" unicode="&#x2022;" horiz-adv-x="669" 
d="M334 371q-125 0 -213 87t-88 212q0 121 88 208t213 87t214 -87t89 -208q0 -125 -88 -212t-215 -87z" />
    <glyph glyph-name="ellipsis" unicode="&#x2026;" horiz-adv-x="1744" 
d="M291 -39q-90 0 -153.5 59.5t-63.5 155.5q0 94 62.5 153.5t154.5 59.5q90 0 153.5 -59.5t63.5 -153.5q0 -96 -62.5 -155.5t-154.5 -59.5zM872 -39q-90 0 -153.5 59.5t-63.5 155.5q0 94 62.5 153.5t154.5 59.5q90 0 154 -59.5t64 -153.5q0 -96 -63 -155.5t-155 -59.5z
M1454 -39q-90 0 -153.5 59.5t-63.5 155.5q0 94 62.5 153.5t154.5 59.5q90 0 153.5 -59.5t63.5 -153.5q0 -96 -62.5 -155.5t-154.5 -59.5z" />
    <glyph glyph-name="perthousand" unicode="&#x2030;" horiz-adv-x="2662" 
d="M436 682q-178 0 -290.5 110.5t-114.5 284.5q0 176 111.5 286t291.5 110q178 0 291 -111t113 -287q0 -174 -112 -283.5t-290 -109.5zM508 0l627 1434h143l-625 -1434h-145zM436.5 819q67.5 0 107.5 68.5t40 187.5q0 123 -41 190.5t-108.5 67.5t-107.5 -66.5t-40 -189.5
q0 -121 41 -189.5t108.5 -68.5zM1349.5 -41q-178.5 0 -291 111.5t-112.5 285.5q0 176 110.5 285t291.5 109q178 0 290.5 -111t112.5 -285t-111.5 -284.5t-290 -110.5zM2230 -41q-178 0 -290.5 111.5t-112.5 285.5q0 176 110.5 285t290.5 109q178 0 290 -110t112 -286
q0 -174 -111 -284.5t-289 -110.5zM1349.5 96q67.5 0 107.5 68.5t40 189.5t-41 189.5t-108.5 68.5t-107.5 -67.5t-40 -190.5q0 -119 41 -188.5t108.5 -69.5zM2230.5 96q67.5 0 106.5 68.5t39 189.5t-40 189.5t-107.5 68.5t-107.5 -67.5t-40 -190.5q0 -121 41 -189.5
t108.5 -68.5z" />
    <glyph glyph-name="guilsinglleft" unicode="&#x2039;" horiz-adv-x="626" 
d="M487 -25l-432 463v119l432 463l82 -57l-207 -465l207 -467z" />
    <glyph glyph-name="guilsinglright" unicode="&#x203a;" horiz-adv-x="626" 
d="M139 -25l-84 56l207 467l-207 465l84 57l430 -463v-119z" />
    <glyph glyph-name="fraction" unicode="&#x2044;" horiz-adv-x="317" 
d="M-444 0l1073 1434h133l-1073 -1434h-133z" />
    <glyph glyph-name="uni2070" unicode="&#x2070;" horiz-adv-x="532" 
d="M266 862q-111 0 -175 76t-64 217q0 139 64.5 216t174.5 77q113 0 176.5 -77t63.5 -216q0 -141 -63.5 -217t-176.5 -76zM266 924q78 0 78 231t-78 231q-76 0 -76 -231t76 -231z" />
    <glyph glyph-name="uni2074" unicode="&#x2074;" horiz-adv-x="532" 
d="M492 1008h-74v-29q0 -51 59 -70l-6 -30h-268l-6 30q61 18 61 70v29h-231v43l276 383h115v-367h88zM109 1067h149v199h-6l-143 -197v-2z" />
    <glyph glyph-name="uni2075" unicode="&#x2075;" horiz-adv-x="483" 
d="M233 1241q100 0 158 -49t58 -127q0 -88 -62.5 -145.5t-173.5 -57.5q-68 0 -123 28t-55 77q0 25 16.5 42t38.5 17q33 0 49.5 -15.5t20.5 -35t22.5 -34.5t55.5 -15q45 0 70.5 25.5t25.5 70.5q0 43 -36 73.5t-99 30.5q-59 0 -115 -30l-37 8l49 330h215q76 0 103 16h10
l-18 -131h-267l-14 -98q40 20 108 20z" />
    <glyph glyph-name="uni2076" unicode="&#x2076;" horiz-adv-x="512" 
d="M309 1245q84 0 129 -52t45 -132q0 -86 -64.5 -141.5t-164.5 -55.5t-162.5 70t-62.5 186q0 162 102 245t266 83l2 -41q-70 0 -123 -50t-73 -149h2q36 37 104 37zM254 920q68 0 68 137q0 113 -70 112q-37 0 -59 -34q-2 -16 -3 -48q0 -90 13.5 -128.5t50.5 -38.5z" />
    <glyph glyph-name="uni2077" unicode="&#x2077;" horiz-adv-x="479" 
d="M221 1434h223v-80q-90 -115 -129 -199t-39 -207q0 -43 -24.5 -64.5t-56.5 -21.5q-37 0 -59.5 24.5t-22.5 61.5q0 102 69.5 199.5t163.5 167.5v4h-84q-129 0 -196 -74l-33 17l57 188h12q27 -16 119 -16z" />
    <glyph glyph-name="uni2078" unicode="&#x2078;" horiz-adv-x="514" 
d="M246 866q-96 0 -155.5 44t-59.5 108q0 96 96 145v4q-72 49 -72 131q0 63 59.5 107.5t153.5 44.5q90 0 140.5 -39t50.5 -90q0 -88 -84 -131v-4q53 -27 81.5 -60.5t28.5 -91.5q0 -76 -66.5 -122t-172.5 -46zM301 1227q59 37 59 94q0 72 -73 72q-72 0 -72 -62q0 -59 86 -104
zM238 924q88 0 88 73q0 23 -10.5 41.5t-32 36t-38 26.5t-48.5 25q-59 -41 -60 -110q0 -41 28 -66.5t73 -25.5z" />
    <glyph glyph-name="uni2079" unicode="&#x2079;" horiz-adv-x="512" 
d="M258 1450q102 0 163.5 -68.5t61.5 -185.5q0 -164 -102 -247t-266 -83v41q72 0 125 50.5t73 148.5h-6q-33 -37 -102 -37q-86 0 -131 54.5t-45 131.5q0 84 64.5 139.5t164.5 55.5zM262 1143q39 0 60 43q2 12 2 39q0 90 -14.5 130t-51.5 40q-66 0 -65 -140q-1 -112 69 -112z
" />
    <glyph glyph-name="uni207F" unicode="&#x207f;" horiz-adv-x="606" 
d="M532 971q8 -70 56 -82l-8 -37h-230l-8 37q45 12 39 82l-21 190q-10 88 -71 88q-33 0 -52.5 -24.5t-19.5 -63.5v-190q0 -68 47 -82l-8 -37h-229l-9 37q47 14 48 82v182q0 72 -48 82l9 37q76 12 168 71h14l4 -69h4q51 70 127 69q154 0 172 -192z" />
    <glyph glyph-name="uni2080" unicode="&#x2080;" horiz-adv-x="532" 
d="M266 -16q-111 0 -175 76.5t-64 216t64.5 217t174.5 77.5q113 0 176.5 -77.5t63.5 -217t-63.5 -216t-176.5 -76.5zM266 47q78 0 78 229q0 231 -78 232q-76 0 -76 -232q0 -229 76 -229z" />
    <glyph glyph-name="uni2081" unicode="&#x2081;" horiz-adv-x="385" 
d="M59 0l-6 31q61 20 62 71v336h-58l-6 37l176 80h47v-453q0 -51 60 -71l-6 -31h-269z" />
    <glyph glyph-name="uni2082" unicode="&#x2082;" horiz-adv-x="495" 
d="M430 186l33 -16l-55 -186h-13q-33 16 -116 16h-240v84q109 76 171 151.5t62 172.5q0 47 -24.5 74.5t-63.5 27.5q-43 0 -74.5 -37t-31.5 -100l-45 8q2 86 56 138t140 52q88 0 145.5 -44t57.5 -119q0 -94 -67.5 -162t-186.5 -127v-4h58q135 -1 194 71z" />
    <glyph glyph-name="uni2083" unicode="&#x2083;" horiz-adv-x="493" 
d="M215 -14q-70 0 -126 27.5t-56 76.5q0 27 16.5 44.5t42.5 17.5q43 0 64.5 -53.5t56.5 -53.5q41 0 65.5 30.5t24.5 86t-28.5 89.5t-81.5 34h-23v53h18q39 0 60.5 25.5t21.5 66.5q0 37 -21.5 59.5t-60 22.5t-65.5 -27.5t-29 -78.5l-39 4q4 76 54.5 118.5t134.5 42.5
q82 0 130 -35.5t48 -91.5q0 -84 -94 -116v-4q57 -10 95 -50.5t38 -95.5q0 -84 -64.5 -138t-181.5 -54z" />
    <glyph glyph-name="uni2084" unicode="&#x2084;" horiz-adv-x="532" 
d="M492 131h-74v-29q0 -53 59 -71l-6 -31h-268l-6 31q61 18 61 71v29h-231v43l276 381h115v-367h88zM109 188h149v199h-6l-143 -194v-5z" />
    <glyph glyph-name="uni2085" unicode="&#x2085;" horiz-adv-x="483" 
d="M233 362q100 0 158 -49t58 -127q0 -88 -62.5 -145t-173.5 -57q-68 0 -123 27.5t-55 76.5q0 25 16.5 42t38.5 17q33 0 49.5 -15t20.5 -34.5t22.5 -35t55.5 -15.5q45 0 70.5 25.5t25.5 70.5q0 43 -36 74t-99 31q-59 0 -115 -31l-37 8l49 330h215q76 0 103 16h10l-18 -131
h-267l-14 -98q40 20 108 20z" />
    <glyph glyph-name="uni2086" unicode="&#x2086;" horiz-adv-x="512" 
d="M309 371q84 0 129 -52.5t45 -132.5q0 -88 -63.5 -142t-165.5 -54q-100 0 -162.5 69.5t-62.5 186.5q0 162 102 244.5t266 82.5l2 -41q-70 0 -123 -50t-73 -148h2q36 37 104 37zM254 45q68 0 68 137q0 113 -70 113q-37 0 -59 -35q-2 -16 -3 -47q0 -90 13.5 -129t50.5 -39z
" />
    <glyph glyph-name="uni2087" unicode="&#x2087;" horiz-adv-x="479" 
d="M221 555h223v-80q-90 -115 -129 -198.5t-39 -206.5q0 -43 -24.5 -64.5t-56.5 -21.5q-37 0 -59.5 24.5t-22.5 61.5q0 102 69.5 199.5t163.5 164.5v6h-84q-129 0 -196 -73l-33 16l57 188h12q27 -16 119 -16z" />
    <glyph glyph-name="uni2088" unicode="&#x2088;" horiz-adv-x="514" 
d="M246 -10q-96 0 -155.5 43t-59.5 106q0 96 96 146v4q-72 51 -72 131q0 63 59.5 108t153.5 45q90 0 140.5 -39.5t50.5 -91.5q0 -90 -84 -129v-4q55 -31 82.5 -62.5t27.5 -88.5q0 -76 -66.5 -122t-172.5 -46zM301 350q59 33 59 94q0 72 -73 72q-72 0 -72 -63q0 -62 86 -103z
M238 45q88 0 88 76q0 29 -21.5 54.5t-42 37.5t-65.5 35q-59 -39 -60 -109q0 -41 28 -67.5t73 -26.5z" />
    <glyph glyph-name="uni2089" unicode="&#x2089;" horiz-adv-x="512" 
d="M258 571q102 0 163.5 -68.5t61.5 -185.5q0 -164 -102 -246.5t-266 -82.5v41q70 0 123 50t73 148h-4q-37 -37 -104 -37q-84 0 -129 52.5t-45 132.5q0 88 63.5 142t165.5 54zM260 266q39 0 62 41q2 12 2 41q0 90 -14.5 129t-51.5 39q-68 0 -68 -137q0 -113 70 -113z" />
    <glyph glyph-name="Euro" unicode="&#x20ac;" horiz-adv-x="1460" 
d="M1028 139q197 0 330 180l74 -57q-158 -301 -498 -301q-268 0 -440 136t-226 386h-229v160h209q-2 23 -2 70q0 31 4 88h-211v153h235q63 242 241.5 381.5t410.5 139.5q55 0 147 -16.5t144 -16.5q25 0 44 3t31.5 7t20.5 8t14 10l6 5h29l74 -402l-80 -22
q-63 135 -145.5 203.5t-206.5 68.5q-131 0 -228.5 -99.5t-138.5 -269.5h450v-153h-471q-2 -20 -2 -64q0 -33 4 -94h469v-160h-446q43 -168 143.5 -256t243.5 -88z" />
    <glyph glyph-name="uni2113" unicode="&#x2113;" horiz-adv-x="905" 
d="M412 -39q-125 0 -193.5 112.5t-44.5 295.5l12 100l-149 -102l-21 55l183 137l30 199q51 371 158 545t285 174q102 0 161.5 -85t40.5 -223q-6 -45 -21 -89t-41 -86t-49.5 -75.5t-64.5 -73.5t-65.5 -64.5t-71.5 -61.5t-66.5 -52.5t-66.5 -49t-55 -39.5l-25 -168
q-45 -319 146 -320q123 0 274 164l39 -43q-184 -250 -395 -250zM385 672q322 252 358 518q12 92 -16.5 150.5t-91.5 58.5q-80 0 -130 -115t-85 -360z" />
    <glyph glyph-name="trademark" unicode="&#x2122;" horiz-adv-x="993" 
d="M51 1434h373l35 -127l-27 -13q-47 80 -133 88v-299q0 -47 33 -57l-6 -27h-181l-6 27q33 10 33 57v299q-39 -2 -72.5 -24.5t-48.5 -42.5l-14 -21l-27 13zM932 1083q0 -47 33 -57l-4 -27h-179l-6 27q33 10 33 57l-2 174h-2l-98 -258h-45l-95 258h-4v-174q0 -47 33 -57
l-8 -27h-105l-6 27q33 10 33 57v267q-4 49 -33 57l4 27h152l88 -240h4l88 240h148l4 -27q-31 -10 -31 -57z" />
    <glyph glyph-name="Omega" unicode="&#x2126;" horiz-adv-x="1689" 
d="M188 -47l-141 481l84 41q90 -186 324 -186h127v14q-207 102 -348.5 256t-141.5 352q0 260 200 411t552 151t551.5 -151t199.5 -411q0 -199 -141 -352t-348 -256l2 -14h125q133 0 211 56t112 130l84 -41l-141 -481h-29q-66 47 -229 47h-334v348q147 98 215 224t68 317
q0 215 -77 331.5t-269.5 116.5t-269 -117.5t-74.5 -330.5q0 -190 66.5 -316.5t211.5 -224.5l2 -348h-331q-168 0 -230 -47h-31z" />
    <glyph glyph-name="estimated" unicode="&#x212e;" horiz-adv-x="1652" 
d="M827 -39q-317 0 -541.5 221t-224.5 535q0 315 223.5 535.5t541 220.5t540.5 -220.5t225 -535.5v-19h-1181v-499q197 -152 421 -152q152 0 262.5 47t196.5 160h109q-210 -293 -572 -293zM414 778h817v461q-168 152 -402 152q-244 0 -415 -162v-451z" />
    <glyph glyph-name="partialdiff" unicode="&#x2202;" horiz-adv-x="1310" 
d="M694 1473q127 0 243 -55.5t204 -166t118.5 -275.5t-12.5 -382q-59 -287 -253.5 -460t-463.5 -173q-264 0 -398 162t-85 389q45 213 217 329.5t393 116.5q127 0 226 -55q37 399 -74 400q-33 0 -60.5 -23t-45 -50.5t-49 -50t-70.5 -22.5q-63 0 -104.5 37t-41.5 92
q-2 84 64.5 135.5t191.5 51.5zM559 90q96 0 156.5 101.5t103.5 306.5q27 119 47 278q-59 55 -153.5 55t-161 -83.5t-96.5 -237.5q-16 -78 -22.5 -148.5t1.5 -133t40 -100.5t85 -38z" />
    <glyph glyph-name="Delta" unicode="&#x2206;" horiz-adv-x="1478" 
d="M43 0l553 1434h289l553 -1434h-1395zM252 145h702l-352 902z" />
    <glyph glyph-name="product" unicode="&#x220f;" horiz-adv-x="1624" 
d="M57 0l-16 80q145 43 145 178l-2 916q0 137 -145 180l16 80h1514l16 -80q-145 -43 -145 -180v-916q0 -135 145 -178l-16 -80h-645l-17 80q145 43 146 178v1004h-484l2 -1004q0 -135 148 -178l-17 -80h-645z" />
    <glyph glyph-name="summation" unicode="&#x2211;" horiz-adv-x="1323" 
d="M35 0v106l428 553l-412 668v107h1075l107 -359l-82 -37q-98 133 -219 191.5t-305 58.5h-95l275 -450l-401 -543h335q227 0 323.5 27.5t174.5 126.5l78 -50l-180 -399h-1102z" />
    <glyph glyph-name="minus" unicode="&#x2212;" horiz-adv-x="747" 
d="M20 446v246h705v-246h-705z" />
    <glyph glyph-name="uni2215" unicode="&#x2215;" horiz-adv-x="509" 
d="M-45 494v239h645v-239h-645z" />
    <glyph glyph-name="uni2219" unicode="&#x2219;" horiz-adv-x="520" 
d="M260 532q-90 0 -153.5 60.5t-63.5 155t63.5 154t153.5 59.5q92 0 154.5 -59.5t62.5 -154t-62.5 -155t-154.5 -60.5z" />
    <glyph glyph-name="radical" unicode="&#x221a;" horiz-adv-x="1163" 
d="M430 0l-186 449h-224v133h314l168 -406l520 1258h145l-592 -1434h-145z" />
    <glyph glyph-name="infinity" unicode="&#x221e;" horiz-adv-x="1740" 
d="M428 313q-166 0 -283.5 118t-117.5 286t117.5 285.5t283.5 117.5q143 0 243.5 -74.5t194.5 -207.5h6q98 135 197.5 208.5t241.5 73.5q164 0 282.5 -117.5t118.5 -285.5q0 -166 -117.5 -285t-281.5 -119q-143 0 -243.5 74t-199.5 209h-6q-92 -133 -193.5 -208t-242.5 -75z
M1313 473q109 0 187.5 79t78.5 189q0 113 -79 193t-189 80q-109 0 -189 -68.5t-170 -202.5q92 -133 171 -201.5t190 -68.5zM428 422q111 0 190.5 67.5t169.5 198.5q-90 133 -169.5 203t-190.5 70t-188.5 -78t-77.5 -190.5t77.5 -191.5t188.5 -79z" />
    <glyph glyph-name="integral" unicode="&#x222b;" horiz-adv-x="651" 
d="M-4 -406q-117 0 -187.5 48.5t-70.5 140.5q0 57 45 100t104 43q49 0 83 -27.5t48.5 -60.5t34 -60.5t39.5 -27.5q33 0 51.5 31t18.5 82v1491q0 225 141 354t350 129q109 0 178.5 -45t69.5 -123q0 -68 -41 -110.5t-108 -42.5q-49 0 -82 25.5t-45.5 56t-29.5 56t-38 25.5
q-68 0 -68 -112v-1485q0 -231 -141 -359.5t-352 -128.5z" />
    <glyph glyph-name="approxequal" unicode="&#x2248;" horiz-adv-x="970" 
d="M723 733q-119 0 -281.5 73t-224.5 73q-78 0 -119 -88l-78 40q29 80 92.5 130.5t149.5 50.5q119 0 284 -72t224 -72q57 0 107 62l71 -53q-33 -59 -94 -101.5t-131 -42.5zM723 434q-119 0 -281.5 73t-222.5 73q-82 0 -121 -88l-78 40q29 80 92.5 130.5t149.5 50.5
q119 0 284 -72t224 -72q55 0 107 64l71 -53q-33 -61 -94 -103.5t-131 -42.5z" />
    <glyph glyph-name="notequal" unicode="&#x2260;" horiz-adv-x="1173" 
d="M358 154l82 297h-420v133h459l76 272h-535v135h574l84 293h137l-86 -293h424v-135h-459l-78 -272h537v-133h-573l-84 -297h-138z" />
    <glyph glyph-name="lessequal" unicode="&#x2264;" horiz-adv-x="1175" 
d="M1112 184l-1046 432v146l1044 430v-143l-858 -357v-8l860 -354v-146zM20 0v131h1133v-131h-1133z" />
    <glyph glyph-name="greaterequal" unicode="&#x2265;" horiz-adv-x="1175" 
d="M63 184v146l861 354v8l-858 357v143l1044 -430v-146zM20 0v131h1133v-131h-1133z" />
    <glyph glyph-name="lozenge" unicode="&#x25ca;" horiz-adv-x="1142" 
d="M500 0l-432 717l432 717h145l432 -717l-432 -717h-145zM567 127h8l357 590l-357 592h-8l-354 -592z" />
    <glyph glyph-name="uniF6E0" unicode="&#xf6e0;" horiz-adv-x="491" 
d="M240 809v76q-78 8 -126 65.5t-48 132.5q0 84 49 137.5t125 63.5v78h69v-78q59 -10 98 -43t39 -76q0 -25 -17 -42t-40 -17q-35 0 -52.5 19.5t-21.5 44t-18 44t-43 19.5q-31 0 -57.5 -34t-26.5 -77q0 -76 39 -117.5t102 -41.5q76 0 113 69l22 -8q-18 -113 -137 -137v-78
h-69z" />
    <glyph glyph-name="uniF6E4" unicode="&#xf6e4;" horiz-adv-x="552" 
d="M244 694v123q-104 6 -157.5 42t-53.5 83q0 23 16.5 39t42.5 16q31 0 47.5 -19.5t23.5 -43t34.5 -43t76.5 -19.5q43 0 70 20.5t27 53.5q0 37 -34 59.5t-101 45.5q-55 18 -89 34.5t-64 54.5t-30 93q0 72 52.5 114t138.5 52v104h61v-102q78 -4 131 -34t53 -77q0 -23 -14 -38
t-38.5 -15t-39 17.5t-20.5 37t-28.5 37t-63.5 17.5q-37 0 -62.5 -19.5t-25.5 -50.5q0 -35 32.5 -54.5t98.5 -35.5q45 -14 70.5 -24.5t58 -31t48 -51t15.5 -73.5q0 -78 -60.5 -128.5t-154.5 -60.5v-123h-61z" />
    <glyph glyph-name="uniF6E6" unicode="&#xf6e6;" horiz-adv-x="526" 
d="M18 1104v127h492v-127h-492z" />
    <glyph glyph-name="uniF6E9" unicode="&#xf6e9;" horiz-adv-x="593" 
d="M555 907l12 -35q-37 -39 -108 -38q-96 0 -121 77h-4q-43 -78 -146 -77q-66 0 -109.5 34.5t-43.5 94.5q0 45 21.5 77.5t68.5 53t80 30t96 21.5q-8 41 -12 74q-6 53 -49 53q-20 0 -32.5 -12.5t-10.5 -32.5q8 -31 -12.5 -52.5t-53.5 -21.5t-52.5 21.5t-15.5 54.5
q2 45 50.5 79.5t138.5 34.5q84 0 138 -46t67 -136q4 -25 10 -89t10 -97q10 -74 55 -74q15 0 23 6zM256 924q29 0 48.5 27.5t14.5 60.5l3 -2q-2 10 -7.5 39.5t-7.5 46.5q-119 -31 -119 -103q0 -33 19.5 -51t48.5 -18z" />
    <glyph glyph-name="uniF6EA" unicode="&#xf6ea;" horiz-adv-x="589" 
d="M344 1343q96 0 159.5 -71.5t63.5 -181.5q0 -115 -60.5 -185.5t-158.5 -70.5t-158 90q-51 -31 -86 -72h-38v518q0 66 -48 80l9 37q102 16 190 72l10 -7q-10 -49 -10 -151v-111h4q47 53 123 53zM344 909q35 0 57.5 34t22.5 81q0 76 -34 160t-93 84q-37 0 -57.5 -32
t-20.5 -85q0 -80 32 -161t93 -81z" />
    <glyph glyph-name="uniF6EB" unicode="&#xf6eb;" horiz-adv-x="587" 
d="M522 971q0 -63 47 -82l-6 -37q-84 -2 -141 -18h-14l-17 61h-6q-53 -61 -141 -61q-94 0 -159 72.5t-65 183.5q0 113 60.5 183t159.5 70q76 0 127 -55h6v82q0 66 -47 80l8 37q104 16 192 72l11 -7q-12 -49 -13 -151zM295 909q35 0 56.5 33t21.5 84q0 80 -34 161t-95 81
q-35 0 -57.5 -33t-22.5 -82q0 -76 34 -160t97 -84z" />
    <glyph glyph-name="uniF6EC" unicode="&#xf6ec;" horiz-adv-x="520" 
d="M346 952q80 0 125 70l31 -12q-6 -70 -66.5 -123t-152.5 -53q-117 0 -190 75.5t-73 180.5q0 117 74 185t185 68q70 2 122 -31.5t76 -90.5q14 -31 31 -33l10 -45l-323 -96q38 -95 151 -95zM260 1272q-35 0 -58.5 -34t-23.5 -81q0 -33 2 -47l166 49q-14 113 -86 113z" />
    <glyph glyph-name="uniF6ED" unicode="&#xf6ed;" horiz-adv-x="282" 
d="M137 1380q-43 0 -66.5 25t-23.5 57q0 35 23.5 60.5t66.5 25.5q41 0 65.5 -25.5t24.5 -60.5q0 -33 -24.5 -57.5t-65.5 -24.5zM25 852l-7 37q47 14 48 82v188q0 66 -48 82l7 37q102 16 178 65h14v-372q0 -68 47 -82l-8 -37h-231z" />
    <glyph glyph-name="uniF6EE" unicode="&#xf6ee;" horiz-adv-x="282" 
d="M27 852l-9 37q47 14 48 82v399q0 66 -48 80l9 37q102 16 190 72l10 -7q-10 -49 -10 -151v-430q0 -68 47 -82l-10 -37h-227z" />
    <glyph glyph-name="uniF6EF" unicode="&#xf6ef;" horiz-adv-x="880" 
d="M807 971q6 -70 55 -82l-8 -37h-229l-9 37q45 12 39 82l-22 190q-6 88 -60 88q-29 0 -45 -29.5t-16 -68.5v-180q0 -70 45 -82l-8 -37h-230l-8 37q45 12 45 82v190q2 39 -16 63.5t-51 24.5t-52.5 -24.5t-21.5 -63.5v-190q0 -68 47 -82l-8 -37h-229l-7 37q47 14 48 82v182
q0 72 -48 82l7 37q80 12 168 71h14l4 -81h6q51 82 133 81q100 0 139 -81h7q45 82 133 81q141 0 159 -192z" />
    <glyph glyph-name="uniF6F0" unicode="&#xf6f0;" horiz-adv-x="542" 
d="M272.5 834q-114.5 0 -183.5 71.5t-69 186.5q0 111 69 181t181 70q115 0 183.5 -70.5t68.5 -182.5q0 -115 -67.5 -185.5t-182 -70.5zM305 909q72 0 72 115q0 66 -38 155t-99 89q-74 0 -74 -117q0 -39 14.5 -92t48 -101.5t76.5 -48.5z" />
    <glyph glyph-name="uniF6F1" unicode="&#xf6f1;" horiz-adv-x="471" 
d="M346 1343q45 0 75 -28.5t30 -71.5q0 -39 -26 -66.5t-60 -27.5q-31 0 -48.5 14.5t-22.5 30.5t-14.5 30.5t-23.5 14.5q-18 0 -29.5 -21.5t-11.5 -52.5v-194q0 -68 47 -82l-8 -37h-229l-7 37q47 14 48 82v182q0 72 -48 82l7 37q76 12 168 71h14l4 -69h4q47 69 131 69z" />
    <glyph glyph-name="uniF6F2" unicode="&#xf6f2;" horiz-adv-x="505" 
d="M268 834q-33 0 -87 16t-72 16q-10 0 -20.5 -3t-15.5 -7t-3 -4h-15l-39 170l33 10q39 -61 98.5 -97t112.5 -36q70 0 70 49q0 51 -131 94q-158 51 -158 152q0 68 56.5 108.5t135.5 40.5q41 0 86.5 -15t59.5 -15q12 0 22.5 4t16.5 6l4 2h12l31 -151l-39 -13q-31 57 -78 89
t-90 32q-55 0 -55 -45q0 -43 110 -78q82 -27 128 -60.5t46 -94.5q0 -82 -61.5 -126t-157.5 -44z" />
    <glyph glyph-name="uniF6F3" unicode="&#xf6f3;" horiz-adv-x="397" 
d="M248 834q-150 0 -150 139v278h-80v54q119 33 189 153h45v-131h119v-76h-119v-282q0 -63 49 -64q29 0 53 13l15 -62q-60 -22 -121 -22z" />
    <glyph glyph-name="glyph417" horiz-adv-x="0" 
 />
    <glyph glyph-name="glyph418" horiz-adv-x="1024" 
 />
    <glyph glyph-name="glyph419" horiz-adv-x="1935" 
d="M1862 1343q-80 -43 -80 -169v-914q0 -150 104 -180l-16 -80h-563l-17 80q106 31 107 178q-41 133 -144.5 251t-234.5 189q-29 -59 -102.5 -210.5t-112.5 -229.5q-80 -156 -189.5 -234.5t-296.5 -78.5q-164 0 -260 69.5t-96 161.5q0 66 35 107t102 41q61 0 102.5 -33
t58.5 -72t53 -71.5t91 -32.5q86 0 141.5 50t119.5 165q39 76 114.5 227.5t100.5 198.5q-63 18 -121 18q-104 0 -161.5 -33.5t-57.5 -87.5q0 -25 20.5 -68.5t20.5 -78.5q0 -68 -47.5 -111t-121 -43t-121.5 57.5t-48 135.5q0 166 147.5 271.5t368.5 105.5q86 0 190 -29
q4 6 11.5 21.5t11.5 23.5q55 104 103 178t110.5 141.5t128 103.5t153.5 63.5t189.5 24.5t234.5 -15l-12 -39l8 -41q-8 -3 -24 -11zM1087 840q174 -82 297 -228h13v648q-29 -18 -56.5 -41t-47 -41.5t-43 -51t-35 -48t-33 -55.5t-27.5 -51t-27.5 -55.5t-25.5 -50.5
q-11 -22 -15 -26z" />
    <glyph glyph-name="glyph420" horiz-adv-x="1935" 
d="M1835 1704l-287 -184l-78 63l209 264q68 82 142 82q43 0 71.5 -28.5t28.5 -67.5q0 -76 -86 -129zM971 938q47 90 89 156.5t92 127t103.5 100.5t119 70.5t142 44t169 12.5t204.5 -15l-12 -39l8 -41q-8 -2 -24 -11q-80 -43 -80 -169v-914q0 -150 104 -180l-16 -80h-563
l-17 80q106 31 107 178q-41 133 -144.5 251t-234.5 187q-135 -279 -215 -438q-80 -156 -189.5 -234.5t-296.5 -78.5q-164 0 -260 69.5t-96 161.5q0 66 35 107t102 41q61 0 102.5 -33t58.5 -72t53 -71.5t91 -32.5q86 0 141.5 50t119.5 165q33 63 105.5 209.5t109.5 216.5
q-63 18 -121 18q-104 0 -161.5 -33.5t-57.5 -87.5q0 -25 20.5 -68.5t20.5 -78.5q0 -68 -47.5 -111t-121 -43t-121.5 57.5t-48 135.5q0 166 147.5 271.5t368.5 105.5q86 0 190 -29zM1090 840q174 -82 294 -228h13v645q-33 -20 -62.5 -43.5t-55.5 -53.5t-43 -53.5t-39.5 -62
t-33 -57t-33 -63.5t-28.5 -58z" />
    <glyph glyph-name="glyph421" horiz-adv-x="1935" 
d="M1894 1845l101 -55q-35 -92 -118 -150.5t-204 -58.5t-202.5 58.5t-116.5 150.5l102 59q20 -49 80.5 -78.5t136.5 -29.5t138.5 28.5t82.5 75.5zM971 938q47 90 89 156.5t92 127t103.5 100.5t119 70.5t142 44t169 12.5t204.5 -15l-12 -39l8 -41q-8 -2 -24 -11
q-80 -43 -80 -169v-914q0 -150 104 -180l-16 -80h-563l-17 80q106 31 107 178q-41 133 -144.5 251t-234.5 187q-135 -279 -215 -438q-80 -156 -189.5 -234.5t-296.5 -78.5q-164 0 -260 69.5t-96 161.5q0 66 35 107t102 41q61 0 102.5 -33t58.5 -72t53 -71.5t91 -32.5
q86 0 141.5 50t119.5 165q33 63 105.5 209.5t109.5 216.5q-63 18 -121 18q-104 0 -161.5 -33.5t-57.5 -87.5q0 -25 20.5 -68.5t20.5 -78.5q0 -68 -47.5 -111t-121 -43t-121.5 57.5t-48 135.5q0 166 147.5 271.5t368.5 105.5q86 0 190 -29zM1090 840q174 -82 294 -228h13v645
q-33 -20 -62.5 -43.5t-55.5 -53.5t-43 -53.5t-39.5 -62t-33 -57t-33 -63.5t-28.5 -58z" />
    <glyph glyph-name="glyph422" horiz-adv-x="1935" 
d="M1569 1630l-287 -121l-49 82l336 293l334 -293l-50 -82zM971 938q47 90 89 156.5t92 127t103.5 100.5t119 70.5t142 44t169 12.5t204.5 -15l-12 -39l8 -41q-8 -2 -24 -11q-80 -43 -80 -169v-914q0 -150 104 -180l-16 -80h-563l-17 80q106 31 107 178q-41 133 -144.5 251
t-234.5 187q-135 -279 -215 -438q-80 -156 -189.5 -234.5t-296.5 -78.5q-164 0 -260 69.5t-96 161.5q0 66 35 107t102 41q61 0 102.5 -33t58.5 -72t53 -71.5t91 -32.5q86 0 141.5 50t119.5 165q33 63 105.5 209.5t109.5 216.5q-63 18 -121 18q-104 0 -161.5 -33.5
t-57.5 -87.5q0 -25 20.5 -68.5t20.5 -78.5q0 -68 -47.5 -111t-121 -43t-121.5 57.5t-48 135.5q0 166 147.5 271.5t368.5 105.5q86 0 190 -29zM1090 840q174 -82 294 -228h13v645q-33 -20 -62.5 -43.5t-55.5 -53.5t-43 -53.5t-39.5 -62t-33 -57t-33 -63.5t-28.5 -58z" />
    <glyph glyph-name="glyph423" horiz-adv-x="1935" 
d="M1352 1565q-76 0 -119 44t-43 105q0 63 43 108.5t119 45.5q74 0 119 -46t45 -108q0 -59 -45 -104t-119 -45zM1779.5 1868q73.5 0 118 -46t44.5 -107.5t-44.5 -105.5t-118 -44t-117.5 44t-44 105.5t44 107.5t117.5 46zM971 938q47 90 89 156.5t92 127t103.5 100.5
t119 70.5t142 44t169 12.5t204.5 -15l-12 -39l8 -41q-8 -2 -24 -11q-80 -43 -80 -169v-914q0 -150 104 -180l-16 -80h-563l-17 80q106 31 107 178q-41 133 -144.5 251t-234.5 187q-135 -279 -215 -438q-80 -156 -189.5 -234.5t-296.5 -78.5q-164 0 -260 69.5t-96 161.5
q0 66 35 107t102 41q61 0 102.5 -33t58.5 -72t53 -71.5t91 -32.5q86 0 141.5 50t119.5 165q33 63 105.5 209.5t109.5 216.5q-63 18 -121 18q-104 0 -161.5 -33.5t-57.5 -87.5q0 -25 20.5 -68.5t20.5 -78.5q0 -68 -47.5 -111t-121 -43t-121.5 57.5t-48 135.5
q0 166 147.5 271.5t368.5 105.5q86 0 190 -29zM1090 840q174 -82 294 -228h13v645q-33 -20 -62.5 -43.5t-55.5 -53.5t-43 -53.5t-39.5 -62t-33 -57t-33 -63.5t-28.5 -58z" />
    <glyph glyph-name="glyph424" horiz-adv-x="1935" 
d="M1264 1704q-86 53 -86 129q0 39 29.5 67.5t72.5 28.5q72 0 139 -82l211 -264l-80 -63zM1862 1343q-80 -43 -80 -169v-914q0 -150 104 -180l-16 -80h-563l-17 80q106 31 107 178q-41 133 -144.5 251t-234.5 187q-135 -279 -215 -438q-80 -156 -189.5 -234.5t-296.5 -78.5
q-164 0 -260 69.5t-96 161.5q0 66 35 107t102 41q61 0 102.5 -33t58.5 -72t53 -71.5t91 -32.5q86 0 141.5 50t119.5 165q33 63 105.5 209.5t109.5 216.5q-63 18 -121 18q-104 0 -161.5 -33.5t-57.5 -87.5q0 -25 20.5 -68.5t20.5 -78.5q0 -68 -47.5 -111t-121 -43
t-121.5 57.5t-48 135.5q0 166 147.5 271.5t368.5 105.5q86 0 190 -29l23 45q47 90 89 156.5t92 127t103.5 100.5t119 70.5t142 44t169 12.5t204.5 -15l-12 -39l8 -41q-8 -3 -24 -11zM1090 840q174 -82 294 -228h13v645q-33 -20 -62.5 -43.5t-55.5 -53.5t-43 -53.5t-39.5 -62
t-33 -57t-33 -63.5t-28.5 -58z" />
    <glyph glyph-name="glyph425" horiz-adv-x="1935" 
d="M1303 1772h632v-158h-632v158zM971 938q47 90 89 156.5t92 127t103.5 100.5t119 70.5t142 44t169 12.5t204.5 -15l-12 -39l8 -41q-8 -2 -24 -11q-80 -43 -80 -169v-914q0 -150 104 -180l-16 -80h-563l-17 80q106 31 107 178q-41 133 -144.5 251t-234.5 187
q-135 -279 -215 -438q-80 -156 -189.5 -234.5t-296.5 -78.5q-164 0 -260 69.5t-96 161.5q0 66 35 107t102 41q61 0 102.5 -33t58.5 -72t53 -71.5t91 -32.5q86 0 141.5 50t119.5 165q33 63 105.5 209.5t109.5 216.5q-63 18 -121 18q-104 0 -161.5 -33.5t-57.5 -87.5
q0 -25 20.5 -68.5t20.5 -78.5q0 -68 -47.5 -111t-121 -43t-121.5 57.5t-48 135.5q0 166 147.5 271.5t368.5 105.5q86 0 190 -29zM1090 840q174 -82 294 -228h13v645q-33 -20 -62.5 -43.5t-55.5 -53.5t-43 -53.5t-39.5 -62t-33 -57t-33 -63.5t-28.5 -58z" />
    <glyph glyph-name="glyph426" horiz-adv-x="1935" 
d="M1858 -231l94 -50q-96 -170 -277 -170q-117 0 -185.5 62.5t-68.5 157.5q0 137 117 231h-231l-17 80q106 31 107 178q-41 133 -144.5 251t-234.5 187q-135 -279 -215 -438q-80 -156 -189.5 -234.5t-296.5 -78.5q-164 0 -260 69.5t-96 161.5q0 66 35 107t102 41
q61 0 102.5 -33t58.5 -72t53 -71.5t91 -32.5q86 0 141.5 50t119.5 165q33 63 105.5 209.5t109.5 216.5q-63 18 -121 18q-104 0 -161.5 -33.5t-57.5 -87.5q0 -25 20.5 -68.5t20.5 -78.5q0 -68 -47.5 -111t-121 -43t-121.5 57.5t-48 135.5q0 166 147.5 271.5t368.5 105.5
q86 0 190 -29l23 45q47 90 89 156.5t92 127t103.5 100.5t119 70.5t142 44t169 12.5t204.5 -15l-12 -39l8 -41q-8 -2 -24 -11q-80 -43 -80 -169v-914q0 -150 104 -180l-16 -80h-105q-127 -86 -127 -209q0 -43 29 -71.5t70 -28.5q76 0 121 78zM1090 840q174 -82 294 -228h13
v645q-33 -20 -62.5 -43.5t-55.5 -53.5t-43 -53.5t-39.5 -62t-33 -57t-33 -63.5t-28.5 -58z" />
    <glyph glyph-name="glyph427" horiz-adv-x="1935" 
d="M1595 1536q-92 0 -156.5 63.5t-64.5 153.5q0 88 64.5 152.5t156.5 64.5q88 0 152.5 -64.5t64.5 -152.5q0 -90 -64.5 -153.5t-152.5 -63.5zM1595 1843q-39 0 -65.5 -26.5t-26.5 -63.5q0 -41 26.5 -67.5t65.5 -26.5t65 26.5t26 67.5q0 37 -26 63.5t-65 26.5zM1862 1343
q-80 -43 -80 -169v-914q0 -150 104 -180l-16 -80h-563l-17 80q106 31 107 178q-41 133 -144.5 251t-234.5 187q-135 -279 -215 -438q-80 -156 -189.5 -234.5t-296.5 -78.5q-164 0 -260 69.5t-96 161.5q0 66 35 107t102 41q61 0 102.5 -33t58.5 -72t53 -71.5t91 -32.5
q86 0 141.5 50t119.5 165q33 63 105.5 209.5t109.5 216.5q-63 18 -121 18q-104 0 -161.5 -33.5t-57.5 -87.5q0 -25 20.5 -68.5t20.5 -78.5q0 -68 -47.5 -111t-121 -43t-121.5 57.5t-48 135.5q0 166 147.5 271.5t368.5 105.5q86 0 190 -29l23 45q47 90 89 156.5t92 127
t103.5 100.5t119 70.5t142 44t169 12.5t204.5 -15l-12 -39l8 -41q-8 -3 -24 -11zM1090 840q174 -82 294 -228h13v645q-33 -20 -62.5 -43.5t-55.5 -53.5t-43 -53.5t-39.5 -62t-33 -57t-33 -63.5t-28.5 -58z" />
    <glyph glyph-name="glyph428" horiz-adv-x="1935" 
d="M1866 2257q43 0 71.5 -27.5t28.5 -68.5q0 -76 -86 -129l-137 -88q53 -29 85 -80.5t32 -110.5q0 -90 -64.5 -153.5t-155 -63.5t-155 63.5t-64.5 153.5q0 61 33 112.5t86 80.5l184 231q70 80 142 80zM1640.5 1659q38.5 0 65.5 27.5t27 66.5q0 37 -27 63.5t-65.5 26.5
t-64.5 -26.5t-26 -63.5q0 -41 26 -67.5t64.5 -26.5zM971 938q47 90 89 156.5t92 127t103.5 100.5t119 70.5t142 44t169 12.5t204.5 -15l-12 -39l8 -41q-8 -2 -24 -11q-80 -43 -80 -169v-914q0 -150 104 -180l-16 -80h-563l-17 80q106 31 107 178q-41 133 -144.5 251
t-234.5 187q-135 -279 -215 -438q-80 -156 -189.5 -234.5t-296.5 -78.5q-164 0 -260 69.5t-96 161.5q0 66 35 107t102 41q61 0 102.5 -33t58.5 -72t53 -71.5t91 -32.5q86 0 141.5 50t119.5 165q33 63 105.5 209.5t109.5 216.5q-63 18 -121 18q-104 0 -161.5 -33.5
t-57.5 -87.5q0 -25 20.5 -68.5t20.5 -78.5q0 -68 -47.5 -111t-121 -43t-121.5 57.5t-48 135.5q0 166 147.5 271.5t368.5 105.5q86 0 190 -29zM1090 840q174 -82 294 -228h13v645q-33 -20 -62.5 -43.5t-55.5 -53.5t-43 -53.5t-39.5 -62t-33 -57t-33 -63.5t-28.5 -58z" />
    <glyph glyph-name="glyph429" horiz-adv-x="1935" 
d="M1417 1708q-66 0 -82 -78l-106 27q12 127 69.5 180t133.5 53q63 0 152 -49t128 -49q68 0 84 76l102 -25q-14 -127 -71.5 -181t-130.5 -54q-66 0 -153 50t-126 50zM971 938q47 90 89 156.5t92 127t103.5 100.5t119 70.5t142 44t169 12.5t204.5 -15l-12 -39l8 -41
q-8 -2 -24 -11q-80 -43 -80 -169v-914q0 -150 104 -180l-16 -80h-563l-17 80q106 31 107 178q-41 133 -144.5 251t-234.5 187q-135 -279 -215 -438q-80 -156 -189.5 -234.5t-296.5 -78.5q-164 0 -260 69.5t-96 161.5q0 66 35 107t102 41q61 0 102.5 -33t58.5 -72t53 -71.5
t91 -32.5q86 0 141.5 50t119.5 165q33 63 105.5 209.5t109.5 216.5q-63 18 -121 18q-104 0 -161.5 -33.5t-57.5 -87.5q0 -25 20.5 -68.5t20.5 -78.5q0 -68 -47.5 -111t-121 -43t-121.5 57.5t-48 135.5q0 166 147.5 271.5t368.5 105.5q86 0 190 -29zM1090 840
q174 -82 294 -228h13v645q-33 -20 -62.5 -43.5t-55.5 -53.5t-43 -53.5t-39.5 -62t-33 -57t-33 -63.5t-28.5 -58z" />
    <glyph glyph-name="glyph430" horiz-adv-x="1986" 
d="M1565 758q160 -35 259 -135.5t99 -241.5q0 -190 -141.5 -302t-368.5 -112q-125 0 -299 16.5t-311 16.5h-236l-16 80q104 31 104 180v1020q-213 45 -266 45q-74 0 -116 -27.5t-42 -72.5q0 -37 40 -92.5t40 -108.5q0 -63 -46 -107.5t-118 -44.5q-78 0 -132 61.5t-54 143.5
q0 170 129 283t389 113q78 0 239 -19.5t402 -19.5h269q188 0 311 -99.5t123 -249.5q0 -113 -71 -197.5t-187 -119.5v-10zM1208 1282q-82 0 -168 -8v-438h168q102 0 166 64.5t64 164.5q0 96 -60.5 156.5t-169.5 60.5zM1257 145q145 0 214 77t69 196q0 125 -87 195.5
t-210 70.5h-203v-508q119 -31 217 -31z" />
    <glyph glyph-name="glyph431" horiz-adv-x="1923" 
d="M1796 549l96 -25q-12 -111 -57 -210t-119 -179t-186.5 -127t-249.5 -47q-332 0 -528.5 213t-196.5 553q0 285 182 494q-143 96 -288 96q-94 0 -150.5 -44t-56.5 -106q0 -27 23.5 -70.5t23.5 -80.5q0 -68 -45 -108t-117 -40q-74 0 -120 58.5t-46 142.5q0 168 140.5 280.5
t347.5 112.5q219 0 409 -133q197 143 453 144q215 0 347 -84t132 -228q0 -135 -105.5 -214t-257.5 -79q-227 0 -466 183q-39 -88 -39 -193q0 -307 150.5 -477t354.5 -170q265 0 369 338zM1354 1323q-76 0 -160 -38t-147 -105q104 -86 189 -130t191 -44q92 0 143.5 42
t51.5 105q0 74 -64.5 122t-203.5 48z" />
    <glyph glyph-name="glyph432" horiz-adv-x="1923" 
d="M1538 1806l-334 -293l-336 293l50 82l286 -119l285 119zM1796 549l96 -25q-12 -111 -57 -210t-119 -179t-186.5 -127t-249.5 -47q-332 0 -528.5 213t-196.5 553q0 285 182 494q-143 96 -288 96q-94 0 -150.5 -44t-56.5 -106q0 -27 23.5 -70.5t23.5 -80.5q0 -68 -45 -108
t-117 -40q-74 0 -120 58.5t-46 142.5q0 168 140.5 280.5t347.5 112.5q219 0 409 -133q197 143 453 144q215 0 347 -84t132 -228q0 -135 -105.5 -214t-257.5 -79q-227 0 -466 183q-39 -88 -39 -193q0 -307 150.5 -477t354.5 -170q265 0 369 338zM1354 1323q-76 0 -160 -38
t-147 -105q104 -86 189 -130t191 -44q92 0 143.5 42t51.5 105q0 74 -64.5 122t-203.5 48z" />
    <glyph glyph-name="glyph433" horiz-adv-x="1923" 
d="M1892 524q-25 -223 -171 -383.5t-392 -177.5l-41 -90q25 8 51 8q74 0 119 -35.5t45 -97.5q0 -92 -89 -160.5t-228 -68.5q-109 0 -182.5 47t-73.5 110q0 31 22.5 55.5t53.5 24.5q39 0 62.5 -22.5t31.5 -48t33.5 -48t70.5 -22.5q49 0 80 26.5t31 71.5q0 29 -19.5 45.5
t-50.5 16.5q-39 0 -63 -23l-72 33l78 180q-293 31 -463 239t-170 523q0 285 182 494q-143 96 -288 96q-94 0 -150.5 -44t-56.5 -106q0 -27 23.5 -70.5t23.5 -80.5q0 -68 -45 -108t-117 -40q-74 0 -120 58.5t-46 142.5q0 168 140.5 280.5t347.5 112.5q219 0 409 -133
q197 143 453 144q215 0 347 -84t132 -228q0 -135 -105.5 -214t-257.5 -79q-227 0 -466 183q-39 -88 -39 -193q0 -307 150.5 -477t354.5 -170q264 0 369 338zM1354 1323q-76 0 -160 -38t-147 -105q104 -86 189 -130t191 -44q92 0 143.5 42t51.5 105q0 74 -64.5 122t-203.5 48
z" />
    <glyph glyph-name="glyph434" horiz-adv-x="1923" 
d="M1204 1630l-284 -121l-52 82l336 293l334 -293l-49 -82zM1796 549l96 -25q-12 -111 -57 -210t-119 -179t-186.5 -127t-249.5 -47q-332 0 -528.5 213t-196.5 553q0 285 182 494q-143 96 -288 96q-94 0 -150.5 -44t-56.5 -106q0 -27 23.5 -70.5t23.5 -80.5q0 -68 -45 -108
t-117 -40q-74 0 -120 58.5t-46 142.5q0 168 140.5 280.5t347.5 112.5q219 0 409 -133q197 143 453 144q215 0 347 -84t132 -228q0 -135 -105.5 -214t-257.5 -79q-227 0 -466 183q-39 -88 -39 -193q0 -307 150.5 -477t354.5 -170q265 0 369 338zM1354 1323q-76 0 -160 -38
t-147 -105q104 -86 189 -130t191 -44q92 0 143.5 42t51.5 105q0 74 -64.5 122t-203.5 48z" />
    <glyph glyph-name="glyph435" horiz-adv-x="1923" 
d="M1202 1599q-74 0 -118 45.5t-44 104.5q0 63 44 109.5t118 46.5q76 0 120 -46.5t44 -109.5q0 -59 -44 -104.5t-120 -45.5zM1796 549l96 -25q-12 -111 -57 -210t-119 -179t-186.5 -127t-249.5 -47q-332 0 -528.5 213t-196.5 553q0 285 182 494q-143 96 -288 96
q-94 0 -150.5 -44t-56.5 -106q0 -27 23.5 -70.5t23.5 -80.5q0 -68 -45 -108t-117 -40q-74 0 -120 58.5t-46 142.5q0 168 140.5 280.5t347.5 112.5q219 0 409 -133q197 143 453 144q215 0 347 -84t132 -228q0 -135 -105.5 -214t-257.5 -79q-227 0 -466 183q-39 -88 -39 -193
q0 -307 150.5 -477t354.5 -170q265 0 369 338zM1354 1323q-76 0 -160 -38t-147 -105q104 -86 189 -130t191 -44q92 0 143.5 42t51.5 105q0 74 -64.5 122t-203.5 48z" />
    <glyph glyph-name="glyph436" horiz-adv-x="1996" 
d="M1157 1434q336 0 557 -191.5t221 -511.5q0 -356 -202.5 -543.5t-524.5 -187.5h-678l-16 80q106 31 107 180v1028q-184 37 -232 37q-74 0 -116 -27.5t-42 -72.5q0 -37 40 -92.5t40 -108.5q0 -63 -46 -107.5t-118 -44.5q-78 0 -132 61.5t-54 143.5q0 170 129 283t389 113
q76 0 238 -19.5t403 -19.5h37zM1190 156q121 0 207 80.5t121.5 191.5t35.5 234q0 260 -122.5 438t-354.5 178q-10 0 -34.5 -1t-36.5 -1v-1104q88 -16 184 -16z" />
    <glyph glyph-name="glyph437" horiz-adv-x="1996" 
d="M1473 1806l-334 -293l-336 293l49 82l287 -119l282 119zM1157 1434q336 0 557 -191.5t221 -511.5q0 -356 -202.5 -543.5t-524.5 -187.5h-678l-16 80q106 31 107 180v1028q-184 37 -232 37q-74 0 -116 -27.5t-42 -72.5q0 -37 40 -92.5t40 -108.5q0 -63 -46 -107.5
t-118 -44.5q-78 0 -132 61.5t-54 143.5q0 170 129 283t389 113q76 0 238 -19.5t403 -19.5h37zM1190 156q121 0 207 80.5t121.5 191.5t35.5 234q0 260 -122.5 438t-354.5 178q-10 0 -34.5 -1t-36.5 -1v-1104q88 -16 184 -16z" />
    <glyph glyph-name="glyph438" horiz-adv-x="2070" 
d="M1157 1434q336 0 557 -191.5t221 -511.5q0 -356 -202.5 -543.5t-524.5 -187.5h-678l-16 80q106 31 107 180v369h-201v176h201v483q-184 37 -232 37q-74 0 -116 -27.5t-42 -72.5q0 -37 40 -92.5t40 -108.5q0 -63 -46 -107.5t-118 -44.5q-78 0 -132 61.5t-54 143.5
q0 170 129 283t389 113q76 0 238 -19.5t403 -19.5h37zM1190 156q121 0 207 80.5t121.5 191.5t35.5 234q0 260 -122.5 438t-354.5 178q-10 0 -34.5 -1t-36.5 -1v-471h223l2 -176h-225v-457q88 -16 184 -16z" />
    <glyph glyph-name="glyph439" 
d="M1769 426l84 -41l-127 -424h-28q-31 16 -130.5 27.5t-168.5 11.5h-821l-17 80q104 31 105 180v1028q-217 37 -275 37q-74 0 -116 -27.5t-42 -72.5q0 -37 40 -92.5t40 -108.5q0 -63 -46 -107.5t-117 -44.5q-78 0 -133.5 61.5t-55.5 143.5q0 170 129 283t389 113
q78 0 240 -19.5t403 -19.5h580l80 -359l-84 -31q-4 10 -12.5 25.5t-45 55.5t-84 71t-133.5 56.5t-188 25.5q-88 0 -184 -10v-459h325q152 0 178 106l84 -16l-2 -338l-82 -16q-27 106 -178 106h-325v-475q156 -20 229 -20q92 0 176 27.5t138.5 67.5t96.5 80t60 66z" />
    <glyph glyph-name="glyph440" 
d="M1188 1581q-119 0 -202 58.5t-118 150.5l103 59q20 -49 80.5 -78.5t136.5 -29.5q78 0 139.5 28.5t81.5 75.5l100 -55q-35 -92 -117.5 -150.5t-203.5 -58.5zM1769 426l84 -41l-127 -424h-28q-31 16 -130.5 27.5t-168.5 11.5h-821l-17 80q104 31 105 180v1028
q-195 37 -275 37q-74 0 -116 -27.5t-42 -72.5q0 -37 40 -92.5t40 -108.5q0 -63 -46 -107.5t-117 -44.5q-78 0 -133.5 61.5t-55.5 143.5q0 170 129 283t389 113q78 0 240 -19.5t403 -19.5h580l80 -359l-84 -31q-4 10 -12.5 25.5t-45 55.5t-84 71t-133.5 56.5t-188 25.5
q-88 0 -184 -10v-459h325q152 0 178 106l84 -16l-2 -338l-82 -16q-27 106 -178 106h-325v-475q156 -20 229 -20q92 0 176 27.5t138.5 67.5t96.5 80t60 66z" />
    <glyph glyph-name="glyph441" 
d="M1524 1806l-334 -293l-336 293l49 82l287 -119l283 119zM1769 426l84 -41l-127 -424h-28q-31 16 -130.5 27.5t-168.5 11.5h-821l-17 80q104 31 105 180v1028q-217 37 -275 37q-74 0 -116 -27.5t-42 -72.5q0 -37 40 -92.5t40 -108.5q0 -63 -46 -107.5t-117 -44.5
q-78 0 -133.5 61.5t-55.5 143.5q0 170 129 283t389 113q78 0 240 -19.5t403 -19.5h580l80 -359l-84 -31q-4 10 -12.5 25.5t-45 55.5t-84 71t-133.5 56.5t-188 25.5q-88 0 -184 -10v-459h325q152 0 178 106l84 -16l-2 -338l-82 -16q-27 106 -178 106h-325v-475
q156 -20 229 -20q92 0 176 27.5t138.5 67.5t96.5 80t60 66z" />
    <glyph glyph-name="glyph442" 
d="M1171 1599q-74 0 -117.5 45.5t-43.5 104.5q0 63 44 109.5t117 46.5q76 0 120 -46.5t44 -109.5q0 -59 -44 -104.5t-120 -45.5zM1769 426l84 -41l-127 -424h-28q-31 16 -130.5 27.5t-168.5 11.5h-821l-17 80q104 31 105 180v1028q-217 37 -275 37q-74 0 -116 -27.5
t-42 -72.5q0 -37 40 -92.5t40 -108.5q0 -63 -46 -107.5t-117 -44.5q-78 0 -133.5 61.5t-55.5 143.5q0 170 129 283t389 113q78 0 240 -19.5t403 -19.5h580l80 -359l-84 -31q-4 10 -12.5 25.5t-45 55.5t-84 71t-133.5 56.5t-188 25.5q-88 0 -184 -10v-459h325q152 0 178 106
l84 -16l-2 -338l-82 -16q-27 106 -178 106h-325v-475q156 -20 229 -20q92 0 176 27.5t138.5 67.5t96.5 80t60 66z" />
    <glyph glyph-name="glyph443" 
d="M1505 1772v-158h-633v158h633zM1769 426l84 -41l-127 -424h-28q-31 16 -130.5 27.5t-168.5 11.5h-821l-17 80q104 31 105 180v1028q-217 37 -275 37q-74 0 -116 -27.5t-42 -72.5q0 -37 40 -92.5t40 -108.5q0 -63 -46 -107.5t-117 -44.5q-78 0 -133.5 61.5t-55.5 143.5
q0 170 129 283t389 113q78 0 240 -19.5t403 -19.5h580l80 -359l-84 -31q-4 10 -12.5 25.5t-45 55.5t-84 71t-133.5 56.5t-188 25.5q-88 0 -184 -10v-459h325q152 0 178 106l84 -16l-2 -338l-82 -16q-27 106 -178 106h-325v-475q156 -20 229 -20q92 0 176 27.5t138.5 67.5
t96.5 80t60 66z" />
    <glyph glyph-name="glyph444" 
d="M1833 -231l94 -50q-98 -170 -276 -170q-117 0 -185.5 62.5t-68.5 157.5q0 137 116 231h-935l-17 80q104 31 105 180v1028q-217 37 -275 37q-74 0 -116 -27.5t-42 -72.5q0 -37 40 -92.5t40 -108.5q0 -63 -46 -107.5t-117 -44.5q-78 0 -133.5 61.5t-55.5 143.5
q0 170 129 283t389 113q78 0 240 -19.5t403 -19.5h580l80 -359l-84 -31q-4 10 -12.5 25.5t-45 55.5t-84 71t-133.5 56.5t-188 25.5q-88 0 -184 -10v-459h325q152 0 178 106l84 -16l-2 -338l-82 -16q-27 106 -178 106h-325v-475q143 -23 229 -22q92 0 176 27.5t138.5 67.5
t96.5 80t60 68l18 27l84 -39l-114 -385q-127 -90 -127 -209q0 -43 28.5 -71.5t69.5 -28.5q74 0 123 78z" />
    <glyph glyph-name="glyph445" horiz-adv-x="1785" 
d="M1702 1434l80 -359l-84 -31q-4 10 -12.5 25.5t-45 55.5t-83 71t-133.5 56.5t-189 25.5q-111 0 -203 -12v-480h240q150 0 180 107l80 -16v-336l-80 -17q-31 106 -180 107h-240v-557q0 -147 -44 -256t-122 -170.5t-171 -89t-206 -27.5q-172 0 -257 63.5t-85 161.5
q0 70 47.5 115t114.5 45q66 0 107 -31.5t53 -70.5t31.5 -71t48.5 -32q100 0 100 281l-2 1290q-215 43 -256 43q-74 0 -116 -27.5t-42 -72.5q0 -37 40 -92.5t40 -108.5q0 -63 -46 -107.5t-120 -44.5q-78 0 -132 61.5t-54 143.5q0 170 129 283t389 113q78 0 240 -19.5
t401 -19.5h582z" />
    <glyph glyph-name="glyph446" horiz-adv-x="2009" 
d="M1970 748l17 -82q-49 -12 -78 -59.5t-29 -119.5v-409q0 -147 -55.5 -256t-149.5 -168.5t-198.5 -86t-221.5 -26.5q-219 0 -344 73t-125 185q0 47 32 90t106 43q51 0 80.5 -24.5t45 -59t36 -68.5t68.5 -58.5t126 -24.5q92 0 152.5 80t60.5 219v10q-119 -47 -262 -47
q-303 0 -489.5 203t-186.5 532q0 309 188 525q-152 98 -292 98q-96 0 -152.5 -45t-56.5 -107q0 -27 23.5 -70.5t23.5 -78.5q0 -68 -45 -108t-115 -40q-76 0 -122 58.5t-46 142.5q0 168 141.5 280.5t348.5 112.5q215 0 411 -135q193 145 449 146q215 0 346 -84t131 -228
q0 -135 -104.5 -214t-253.5 -79q-133 0 -241 47.5t-222 131.5q-45 -100 -45 -224q0 -293 141 -453.5t315 -160.5q59 0 115 16l2 262q0 152 -104 179l16 82h563zM1356 1323q-168 0 -303 -147q102 -84 187 -127t190 -43q92 0 143 40.5t51 106.5q0 74 -64.5 122t-203.5 48z" />
    <glyph glyph-name="glyph447" horiz-adv-x="2009" 
d="M1270 1581q-119 0 -202 58.5t-118 150.5l103 59q20 -49 80.5 -78.5t136.5 -29.5q78 0 139 28.5t82 75.5l100 -55q-35 -92 -117.5 -150.5t-203.5 -58.5zM1970 748l17 -82q-49 -12 -78 -59.5t-29 -119.5v-409q0 -147 -55.5 -256t-149.5 -168.5t-198.5 -86t-221.5 -26.5
q-219 0 -344 73t-125 185q0 47 32 90t106 43q51 0 80.5 -24.5t45 -59t36 -68.5t68.5 -58.5t126 -24.5q92 0 152.5 80t60.5 219v10q-119 -47 -262 -47q-303 0 -489.5 203t-186.5 532q0 309 188 525q-152 98 -292 98q-96 0 -152.5 -45t-56.5 -107q0 -27 23.5 -70.5t23.5 -78.5
q0 -68 -45 -108t-115 -40q-76 0 -122 58.5t-46 142.5q0 168 141.5 280.5t348.5 112.5q215 0 411 -135q193 145 449 146q215 0 346 -84t131 -228q0 -135 -104.5 -214t-253.5 -79q-133 0 -241 47.5t-222 131.5q-45 -100 -45 -224q0 -293 141 -453.5t315 -160.5q59 0 115 16
l2 262q0 152 -104 179l16 82h563zM1356 1323q-168 0 -303 -147q102 -84 187 -127t190 -43q92 0 143 40.5t51 106.5q0 74 -64.5 122t-203.5 48z" />
    <glyph glyph-name="glyph448" horiz-adv-x="2009" 
d="M1268 1630l-285 -121l-51 82l336 293l334 -293l-50 -82zM1970 748l17 -82q-49 -12 -78 -59.5t-29 -119.5v-409q0 -147 -55.5 -256t-149.5 -168.5t-198.5 -86t-221.5 -26.5q-219 0 -344 73t-125 185q0 47 32 90t106 43q51 0 80.5 -24.5t45 -59t36 -68.5t68.5 -58.5
t126 -24.5q92 0 152.5 80t60.5 219v10q-119 -47 -262 -47q-303 0 -489.5 203t-186.5 532q0 309 188 525q-152 98 -292 98q-96 0 -152.5 -45t-56.5 -107q0 -27 23.5 -70.5t23.5 -78.5q0 -68 -45 -108t-115 -40q-76 0 -122 58.5t-46 142.5q0 168 141.5 280.5t348.5 112.5
q215 0 411 -135q193 145 449 146q215 0 346 -84t131 -228q0 -135 -104.5 -214t-253.5 -79q-133 0 -241 47.5t-222 131.5q-45 -100 -45 -224q0 -293 141 -453.5t315 -160.5q59 0 115 16l2 262q0 152 -104 179l16 82h563zM1356 1323q-168 0 -303 -147q102 -84 187 -127
t190 -43q92 0 143 40.5t51 106.5q0 74 -64.5 122t-203.5 48z" />
    <glyph glyph-name="glyph449" horiz-adv-x="2011" 
d="M1970 748l17 -82q-49 -12 -78 -59.5t-29 -119.5v-401q0 -147 -55.5 -256t-149.5 -168t-198.5 -86t-221.5 -27q-219 0 -344 73t-125 185q0 47 32 90.5t106 43.5q51 0 80.5 -25t45 -59.5t36 -68.5t68.5 -58.5t126 -24.5q92 0 152.5 80t60.5 219v2q-119 -47 -262 -47
q-303 0 -489.5 203t-186.5 532q0 309 188 525q-152 98 -292 98q-96 0 -152.5 -45t-56.5 -107q0 -27 23.5 -70.5t23.5 -78.5q0 -68 -45 -108t-115 -40q-76 0 -122 58.5t-46 142.5q0 168 141.5 280.5t348.5 112.5q215 0 411 -135q193 145 449 146q215 0 346 -84t131 -228
q0 -135 -104.5 -214t-253.5 -79q-133 0 -241 47.5t-222 131.5q-45 -100 -45 -224q0 -293 141 -453.5t315 -160.5q59 0 115 16l2 262q0 152 -104 179l16 82h563zM1356 1323q-168 0 -303 -147q102 -84 187 -127t190 -43q92 0 143 40.5t51 106.5q0 74 -64.5 122t-203.5 48z
M1278 -535q102 0 167.5 -71.5t65.5 -194.5q0 -162 -97 -307t-251 -223l-73 104q168 113 229 314l-6 8q-35 -20 -66 -21q-84 0 -141 54.5t-57 142.5q0 86 67.5 140t161.5 54z" />
    <glyph glyph-name="glyph450" horiz-adv-x="2009" 
d="M1266 1599q-74 0 -118 45.5t-44 104.5q0 63 44 109.5t118 46.5q76 0 120 -46.5t44 -109.5q0 -59 -44 -104.5t-120 -45.5zM1970 748l17 -82q-49 -12 -78 -59.5t-29 -119.5v-409q0 -147 -55.5 -256t-149.5 -168.5t-198.5 -86t-221.5 -26.5q-219 0 -344 73t-125 185
q0 47 32 90t106 43q51 0 80.5 -24.5t45 -59t36 -68.5t68.5 -58.5t126 -24.5q92 0 152.5 80t60.5 219v10q-119 -47 -262 -47q-303 0 -489.5 203t-186.5 532q0 309 188 525q-152 98 -292 98q-96 0 -152.5 -45t-56.5 -107q0 -27 23.5 -70.5t23.5 -78.5q0 -68 -45 -108t-115 -40
q-76 0 -122 58.5t-46 142.5q0 168 141.5 280.5t348.5 112.5q215 0 411 -135q193 145 449 146q215 0 346 -84t131 -228q0 -135 -104.5 -214t-253.5 -79q-133 0 -241 47.5t-222 131.5q-45 -100 -45 -224q0 -293 141 -453.5t315 -160.5q59 0 115 16l2 262q0 152 -104 179l16 82
h563zM1356 1323q-168 0 -303 -147q102 -84 187 -127t190 -43q92 0 143 40.5t51 106.5q0 74 -64.5 122t-203.5 48z" />
    <glyph glyph-name="glyph451" horiz-adv-x="2101" 
d="M1960 260q0 -150 104 -180l-16 -80h-563l-17 80q106 31 107 180v379h-524v-379q0 -150 104 -180l-16 -80h-561l-17 80q104 31 105 180v1018q-231 47 -275 47q-74 0 -116 -27.5t-42 -72.5q0 -37 40 -92.5t40 -108.5q0 -63 -46 -107.5t-117 -44.5q-78 0 -133.5 61.5
t-55.5 143.5q0 170 129 283t389 113q78 0 239 -19.5t402 -19.5h19l16 -80q-104 -31 -104 -180v-359h524v359q0 150 -107 180l17 80h561l18 -80q-104 -31 -104 -180v-914z" />
    <glyph glyph-name="glyph452" horiz-adv-x="2154" 
d="M1960 260q0 -150 104 -180l-16 -80h-563l-17 80q106 31 107 180v379h-524v-379q0 -150 104 -180l-16 -80h-561l-17 80q104 31 105 180v713h-187v114h187v191q-231 47 -275 47q-74 0 -116 -27.5t-42 -72.5q0 -37 40 -92.5t40 -108.5q0 -63 -46 -107.5t-117 -44.5
q-78 0 -133.5 61.5t-55.5 143.5q0 170 129 283t389 113q78 0 239 -19.5t402 -19.5h19l16 -80q-104 -31 -104 -180v-87h524v87q0 150 -107 180l17 80h561l18 -80q-104 -31 -104 -180v-87h168l4 -114h-172v-713zM1051 815h524v158h-524v-158z" />
    <glyph glyph-name="glyph453" horiz-adv-x="2101" 
d="M1313 1630l-285 -121l-51 82l336 293l334 -293l-50 -82zM1960 260q0 -150 104 -180l-16 -80h-563l-17 80q106 31 107 180v379h-524v-379q0 -150 104 -180l-16 -80h-561l-17 80q104 31 105 180v1018q-231 47 -275 47q-74 0 -116 -27.5t-42 -72.5q0 -37 40 -92.5t40 -108.5
q0 -63 -46 -107.5t-117 -44.5q-78 0 -133.5 61.5t-55.5 143.5q0 170 129 283t389 113q78 0 239 -19.5t402 -19.5h19l16 -80q-104 -31 -104 -180v-359h524v359q0 150 -107 180l17 80h561l18 -80q-104 -31 -104 -180v-914z" />
    <glyph glyph-name="glyph454" horiz-adv-x="1191" 
d="M1049 260q0 -150 106 -180l-16 -80h-564l-16 80q104 31 105 180v1018q-227 47 -275 47q-72 0 -115 -28.5t-43 -71.5q0 -37 41 -92.5t41 -108.5q0 -63 -47 -107.5t-119 -44.5q-78 0 -132 61.5t-54 143.5q0 170 129 283t389 113q78 0 239 -19.5t402 -19.5h19l16 -80
q-106 -31 -106 -180v-914z" />
    <glyph glyph-name="glyph455" horiz-adv-x="1888" 
d="M1155 80l-16 -80h-564l-16 80q104 31 105 180v1018q-227 47 -275 47q-72 0 -115 -28.5t-43 -71.5q0 -37 41 -92.5t41 -108.5q0 -63 -47 -107.5t-119 -44.5q-78 0 -132 61.5t-54 143.5q0 170 129 283t389 113q78 0 239 -19.5t402 -19.5h19l16 -80q-106 -31 -106 -180v-914
q0 -149 106 -180zM1843 1434l17 -80q-104 -31 -105 -180v-1102q0 -147 -43 -256t-119.5 -170.5t-170 -89t-205.5 -27.5q-172 0 -258.5 63.5t-86.5 161.5q0 70 46.5 114t113.5 44q66 0 107 -32t55 -69.5t35.5 -69.5t52.5 -32q88 0 88 281v1184q0 150 -104 180l18 80h559z" />
    <glyph glyph-name="glyph456" horiz-adv-x="1193" 
d="M856 1599q-74 0 -118 45.5t-44 104.5q0 63 44 109.5t118 46.5q76 0 120 -46.5t44 -109.5q0 -59 -44 -104.5t-120 -45.5zM1049 260q0 -150 106 -180l-16 -80h-564l-16 80q104 31 105 180v1018q-227 47 -275 47q-72 0 -115 -28.5t-43 -71.5q0 -37 41 -92.5t41 -108.5
q0 -63 -47 -107.5t-119 -44.5q-78 0 -132 61.5t-54 143.5q0 170 129 283t389 113q78 0 239 -19.5t402 -19.5h19l16 -80q-106 -31 -106 -180v-914z" />
    <glyph glyph-name="glyph457" horiz-adv-x="1193" 
d="M541 1772h633v-158h-633v158zM1155 1354q-106 -31 -106 -180v-914q0 -150 106 -180l-16 -80h-564l-16 80q104 31 105 180v1018q-227 47 -275 47q-72 0 -115 -28.5t-43 -71.5q0 -37 41 -92.5t41 -108.5q0 -63 -47 -107.5t-119 -44.5q-78 0 -132 61.5t-54 143.5
q0 170 129 283t389 113q78 0 239 -19.5t402 -19.5h19z" />
    <glyph glyph-name="glyph458" horiz-adv-x="1193" 
d="M1081 -231l95 -50q-98 -170 -277 -170q-117 0 -185.5 62.5t-68.5 157.5q0 137 117 231h-187l-16 80q104 31 105 180v1018q-227 47 -275 47q-72 0 -115 -28.5t-43 -71.5q0 -37 41 -92.5t41 -108.5q0 -63 -47 -107.5t-119 -44.5q-78 0 -132 61.5t-54 143.5q0 170 129 283
t389 113q78 0 239 -19.5t402 -19.5h19l16 -80q-106 -31 -106 -180v-914q0 -150 106 -180l-16 -80h-152q-127 -90 -127 -209q0 -43 29 -71.5t69 -28.5q74 0 123 78z" />
    <glyph glyph-name="glyph459" horiz-adv-x="1193" 
d="M713 1708q-68 0 -84 -78l-107 27q14 125 71.5 179t131.5 54q66 0 155 -49t128 -49q66 0 82 76l102 -25q-12 -127 -69.5 -181t-133.5 -54q-63 0 -150 50t-126 50zM1155 1354q-106 -31 -106 -180v-914q0 -150 106 -180l-16 -80h-564l-16 80q104 31 105 180v1018
q-227 47 -275 47q-72 0 -115 -28.5t-43 -71.5q0 -37 41 -92.5t41 -108.5q0 -63 -47 -107.5t-119 -44.5q-78 0 -132 61.5t-54 143.5q0 170 129 283t389 113q78 0 239 -19.5t402 -19.5h19z" />
    <glyph glyph-name="glyph460" horiz-adv-x="1335" 
d="M1128 1298v-446h189v-176h-189v-576q0 -147 -44 -256.5t-121.5 -170t-171 -89t-203.5 -28.5q-174 0 -259 64.5t-85 160.5q0 72 46 117t116 45q66 0 106.5 -32t53 -71t31.5 -70.5t48 -31.5q53 0 75.5 67.5t22.5 212.5v658h-335v176h335v102q0 186 86 295v8
q-82 10 -230 53.5t-220 43.5q-66 0 -107 -36t-41 -81q0 -37 41 -100.5t41 -116.5q0 -63 -47 -107.5t-119 -44.5q-78 0 -132 61.5t-54 143.5q0 176 129 302t387 126q102 0 300 -55t274 -55q96 94 262 110l53 -112q-37 -29 -108 -60t-130 -31z" />
    <glyph glyph-name="glyph461" horiz-adv-x="1343" 
d="M913 1647l-284 -121l-51 82l335 293l334 -293l-49 -82zM1128 1298v-446h189v-176h-189v-576q0 -147 -44 -256.5t-121.5 -170t-171 -89t-203.5 -28.5q-174 0 -259 64.5t-85 160.5q0 72 46 117t116 45q66 0 106.5 -32t53 -71t31.5 -70.5t48 -31.5q53 0 75.5 67.5
t22.5 212.5v658h-335v176h335v102q0 186 86 295v8q-82 10 -230 53.5t-220 43.5q-66 0 -107 -36t-41 -81q0 -37 41 -100.5t41 -116.5q0 -63 -47 -107.5t-119 -44.5q-78 0 -132 61.5t-54 143.5q0 176 129 302t387 126q102 0 300 -55t274 -55q96 94 262 110l53 -112
q-37 -29 -108 -60t-130 -31z" />
    <glyph glyph-name="glyph462" horiz-adv-x="2099" 
d="M2720 -119q66 0 108.5 -38t42.5 -99q0 -102 -101 -166.5t-316 -64.5q-199 0 -363 69.5t-266.5 176t-195.5 245.5t-154.5 265t-139.5 248t-153 183l-133 -120v-320q0 -150 106 -180l-16 -80h-564l-16 80q104 31 105 180v1018q-227 47 -275 47q-74 0 -116 -27.5t-42 -72.5
q0 -37 41 -92.5t41 -108.5q0 -63 -47 -107.5t-119 -44.5q-78 0 -132 61.5t-54 143.5q0 172 128 284t390 112q76 0 238 -19.5t403 -19.5h19l16 -80q-106 -31 -106 -180v-353h12l391 353q49 45 58.5 85.5t-7 62t-43.5 32.5l17 80h524l16 -80q-152 -33 -313 -180l-336 -306v-14
q154 -31 285 -164t221 -299t172 -328.5t174 -273.5t188 -111q45 0 77 15.5t48.5 38t34 48t32.5 48t46 38t74 15.5z" />
    <glyph glyph-name="glyph463" horiz-adv-x="2099" 
d="M2720 -119q66 0 108.5 -38t42.5 -99q0 -102 -101 -166.5t-316 -64.5q-199 0 -363 69.5t-266.5 176t-195.5 245.5t-154.5 265t-139.5 248t-153 183l-133 -120v-320q0 -150 106 -180l-16 -80h-564l-16 80q104 31 105 180v1018q-227 47 -275 47q-74 0 -116 -27.5t-42 -72.5
q0 -37 41 -92.5t41 -108.5q0 -63 -47 -107.5t-119 -44.5q-78 0 -132 61.5t-54 143.5q0 172 128 284t390 112q76 0 238 -19.5t403 -19.5h19l16 -80q-106 -31 -106 -180v-353h12l391 353q49 45 58.5 85.5t-7 62t-43.5 32.5l17 80h524l16 -80q-152 -33 -313 -180l-338 -308l2 2
v-14q154 -31 285 -164t221 -299t172 -328.5t174 -273.5t188 -111q45 0 77 15.5t48.5 38t34 48t32.5 48t46 38t74 15.5zM1268 -117q102 0 167.5 -71.5t65.5 -194.5q0 -162 -97 -307.5t-251 -222.5l-74 106q168 111 228 313l-7 7q-31 -20 -63 -21q-84 0 -142.5 55.5
t-58.5 141.5t68 140t164 54z" />
    <glyph glyph-name="glyph464" horiz-adv-x="1472" 
d="M1860 -109q68 0 105.5 -37.5t37.5 -101.5q-2 -111 -118 -176t-320 -65q-147 0 -262 47t-191 118.5t-142.5 145.5t-150.5 138.5t-180 86.5q-102 -80 -240 -90l-53 113q70 90 193 110q12 55 12 127v381q0 313 197 537q-137 104 -297 104q-96 0 -152.5 -45t-56.5 -106
q0 -27 24.5 -71t24.5 -81q0 -66 -46 -106.5t-116 -40.5q-76 0 -122 59t-46 141q0 168 140.5 281t349.5 113q236 0 413 -140q186 139 408 140q160 0 260 -68t100 -182q0 -121 -96 -187.5t-242 -66.5q-186 0 -325 84q-37 -104 -37 -240l2 -340q0 -166 -84 -272v-17
q127 -12 227.5 -69.5t160.5 -131t110.5 -145t105.5 -121t117 -49.5q53 0 85 22.5t45 55.5t26.5 66.5t45.5 56t87 22.5zM1286 1323q-152 0 -248 -135q115 -84 256 -84q86 0 130 30.5t44 79.5q0 47 -48 78t-134 31z" />
    <glyph glyph-name="glyph465" horiz-adv-x="1472" 
d="M1124 1704l-286 -184l-78 63l209 264q68 82 141 82q43 0 71.5 -28.5t28.5 -67.5q0 -76 -86 -129zM1860 -109q68 0 105.5 -37.5t37.5 -101.5q-2 -111 -118 -176t-320 -65q-147 0 -262 47t-191 118.5t-142.5 145.5t-150.5 138.5t-180 86.5q-102 -80 -240 -90l-53 113
q70 90 193 110q12 55 12 127v381q0 313 197 537q-137 104 -297 104q-96 0 -152.5 -45t-56.5 -106q0 -27 24.5 -71t24.5 -81q0 -66 -46 -106.5t-116 -40.5q-76 0 -122 59t-46 141q0 168 140.5 281t349.5 113q236 0 413 -140q186 139 408 140q160 0 260 -68t100 -182
q0 -121 -96 -187.5t-242 -66.5q-186 0 -325 84q-37 -104 -37 -240l2 -340q0 -166 -84 -272v-17q127 -12 227.5 -69.5t160.5 -131t110.5 -145t105.5 -121t117 -49.5q53 0 85 22.5t45 55.5t26.5 66.5t45.5 56t87 22.5zM1286 1323q-152 0 -248 -135q115 -84 256 -84
q86 0 130 30.5t44 79.5q0 47 -48 78t-134 31z" />
    <glyph glyph-name="glyph466" horiz-adv-x="1753" 
d="M1823 1427q-84 0 -142.5 55.5t-58.5 143.5q0 86 67.5 139.5t163.5 53.5q102 0 167 -72t65 -195q0 -160 -96.5 -305t-251.5 -225l-74 106q172 113 229 314l-6 6q-40 -21 -63 -21zM1860 -109q68 0 105.5 -37.5t37.5 -101.5q-2 -111 -118 -176t-320 -65q-147 0 -262 47
t-191 118.5t-142.5 145.5t-150.5 138.5t-180 86.5q-102 -80 -240 -90l-53 113q70 90 193 110q12 55 12 127v381q0 313 197 537q-137 104 -297 104q-96 0 -152.5 -45t-56.5 -106q0 -27 24.5 -71t24.5 -81q0 -66 -46 -106.5t-116 -40.5q-76 0 -122 59t-46 141q0 168 140.5 281
t349.5 113q236 0 413 -140q186 139 408 140q160 0 260 -68t100 -182q0 -121 -96 -187.5t-242 -66.5q-186 0 -325 84q-37 -104 -37 -240l2 -340q0 -166 -84 -272v-17q127 -12 227.5 -69.5t160.5 -131t110.5 -145t105.5 -121t117 -49.5q53 0 85 22.5t45 55.5t26.5 66.5
t45.5 56t87 22.5zM1286 1323q-152 0 -248 -135q115 -84 256 -84q86 0 130 30.5t44 79.5q0 47 -48 78t-134 31z" />
    </font>
</defs>
</svg>
