<?xml version="1.0" standalone="no"?>
<!DOCTYPE svg PUBLIC "-//W3C//DTD SVG 1.1//EN" "http://www.w3.org/Graphics/SVG/1.1/DTD/svg11.dtd" >
<svg xmlns="http://www.w3.org/2000/svg" xmlns:xlink="http://www.w3.org/1999/xlink" version="1.1">
<metadata>
Created by FontForge 20170731 at Wed Apr 17 11:03:25 2019
 By Aleksey,,,
Copyright (c) 2019 by Studio Sun. All rights reserved. Desktop use is strictly prohibited.
</metadata>
<defs>
<font id="Tropiline-BlackItalic" horiz-adv-x="1462" >
  <font-face 
    font-family="Tropiline Black Italic"
    font-weight="900"
    font-style="italic"
    font-stretch="normal"
    units-per-em="2048"
    panose-1="0 0 0 0 0 0 0 0 0 0"
    ascent="1536"
    descent="-512"
    x-height="1112"
    cap-height="1434"
    bbox="-750 -1468 3252 2259"
    underline-thickness="0"
    underline-position="0"
    unicode-range="U+0020-FB06"
  />
<missing-glyph horiz-adv-x="1212" 
d="M211 0v1434h1001v-1434h-1001zM430 166h565v1102h-565v-1102z" />
    <glyph glyph-name="uniFB00" unicode="ff" horiz-adv-x="1488" 
d="M1540 1614q158 0 241 -56.5t81 -148.5q0 -70 -45 -115t-127 -45q-55 0 -86 29t-38 64.5t-24.5 64.5t-50.5 29q-39 0 -83 -103.5t-62 -263.5h241l-31 -188h-239l-146 -936q-49 -371 -272 -565.5t-577 -194.5q-94 0 -180.5 48t-86.5 128q2 70 51.5 117t122.5 47
q47 0 83 -25.5t54.5 -56.5t44 -56.5t54.5 -25.5q121 0 186.5 121t98.5 350l180 1049h-238l-94 -613q-49 -369 -273.5 -564.5t-578.5 -195.5q-94 0 -180 49.5t-84 129.5q0 70 49 116.5t123 46.5q49 0 85 -25.5t54.5 -56t44 -56t53.5 -25.5q121 0 185.5 119.5t97.5 349.5
l125 725h-231l34 188h230l55 315q47 256 182.5 404.5t395.5 148.5q158 0 240.5 -55t82.5 -147q-2 -72 -47 -117t-125 -45q-57 0 -88 29.5t-38 64.5t-23.5 64.5t-48.5 29.5q-39 0 -84.5 -107.5t-63.5 -269.5l-49 -315h242q108 545 577 545z" />
    <glyph glyph-name="uniFB01" unicode="fi" horiz-adv-x="1466" 
d="M993 1446q-45 0 -86 -15.5t-85 -53.5t-75.5 -116.5t-44.5 -191.5h246l-33 -188h-239l-80 -580q-49 -371 -272.5 -565.5t-577.5 -194.5q-94 0 -180 48.5t-86 127.5q2 72 50 118t122 46q49 0 85 -25.5t54.5 -56t44 -56.5t53.5 -26q121 0 186.5 121t98.5 350l115 693h-183
l35 188h178q20 104 65.5 190.5t107 144.5t132 102t148.5 68.5t148.5 36t140.5 11.5q223 0 336.5 -86t111.5 -190q0 -82 -52 -128.5t-130 -46.5q-74 0 -119 43t-62.5 94.5t-55.5 94.5t-97 43zM1460 123q25 0 49 8l9 -82q-119 -90 -295 -90q-49 0 -90 9t-81 33t-58.5 73
t-8.5 119l78 440q12 78 -14.5 129t-77.5 67l37 93q322 51 491 196l29 -8l-146 -813q-14 -86 7.5 -130t70.5 -44z" />
    <glyph glyph-name="uniFB02" unicode="fl" horiz-adv-x="1470" 
d="M1366 123q25 0 49 8l8 -82q-121 -90 -295 -90q-49 0 -90 9t-80.5 33t-58 73t-8.5 119l196 1112q8 72 -16 117.5t-90 45.5q-90 0 -174 -106.5t-105 -292.5h205l-33 -188h-198l-80 -580q-49 -371 -272.5 -565.5t-577.5 -194.5q-94 0 -180 48.5t-86 127.5q2 72 50 118
t122 46q49 0 85 -25.5t54.5 -56t44 -56.5t53.5 -26q121 0 186.5 121t98.5 350l113 693h-181l35 188h176q53 266 234.5 421t478.5 155q203 0 303 -119q86 41 162 104l31 -8l-238 -1325q-14 -86 7.5 -130t70.5 -44z" />
    <glyph glyph-name="uniFB03" unicode="ffi" horiz-adv-x="2105" 
d="M1630 1446q-100 0 -183 -83t-106 -294h246l-33 -188h-241l-142 -936q-49 -371 -272 -565.5t-577 -194.5q-94 0 -180.5 48t-86.5 128q2 70 50.5 117t121.5 47q49 0 85 -25.5t54.5 -56.5t44 -56.5t54.5 -25.5q121 0 186.5 121t96.5 348l176 1051h-232l-94 -613
q-51 -369 -274.5 -564.5t-577.5 -195.5q-94 0 -180 49.5t-84 129.5q0 70 49 116.5t123 46.5q49 0 85 -25.5t53.5 -56t43 -56t55.5 -25.5q119 0 184.5 119.5t98.5 349.5l125 725h-233l34 188h232l53 315q49 256 184.5 404.5t395.5 148.5q158 0 240.5 -56t80.5 -146
q0 -72 -45 -117t-127 -45q-55 0 -86 29.5t-38 64.5t-24.5 64.5t-50.5 29.5q-39 0 -83 -107.5t-62 -269.5l-49 -315h235q25 123 85.5 222.5t137 159.5t171 100t180.5 55.5t170 15.5q223 0 335.5 -86t112.5 -190q-2 -82 -53 -128.5t-129 -46.5q-59 0 -99 29t-61.5 69t-41 80
t-52.5 68.5t-82 28.5zM2099 123q25 0 49 8l9 -82q-119 -90 -295 -90q-49 0 -90 9t-81 33t-58.5 73t-8.5 119l78 440q12 76 -14.5 128t-77.5 68l37 93q322 51 491 196l29 -8l-146 -813q-14 -86 7.5 -130t70.5 -44z" />
    <glyph glyph-name="uniFB04" unicode="ffl" horiz-adv-x="2107" 
d="M2005 123q25 0 47 8l8 -82q-119 -90 -295 -90q-49 0 -90 9t-81 33t-58 73t-8 119l201 1132q8 143 -111 143q-90 0 -174 -106.5t-105 -290.5h242l-33 -188h-237l-140 -936q-49 -371 -272 -565.5t-577 -194.5q-94 0 -180.5 48t-86.5 128q2 70 50.5 117t121.5 47
q49 0 85 -25.5t54.5 -56.5t44 -56.5t54.5 -25.5q121 0 186.5 121t98.5 348l176 1051h-234l-94 -613q-49 -369 -273.5 -564t-578.5 -195q-94 0 -180 49t-84 129q0 70 49 117t123 47q49 0 85 -26t54.5 -56.5t44 -56t53.5 -25.5q121 0 185.5 119.5t97.5 349.5l125 725h-238
l35 188h236l55 315q47 256 182.5 404.5t395.5 148.5q158 0 240.5 -55t82.5 -147q-2 -72 -47 -117t-125 -45q-57 0 -88 29.5t-38 64.5t-23.5 64.5t-48.5 29.5q-39 0 -84.5 -107.5t-63.5 -269.5l-49 -315h235q51 266 232.5 420t478.5 154q201 0 303 -117q88 39 164 102l29 -8
l-238 -1325q-31 -174 80 -174z" />
    <glyph glyph-name="T_h.liga" unicode="Th" horiz-adv-x="2658" 
d="M2707 131l7 -82q-119 -88 -277 -88q-49 0 -93 9.5t-86 32t-62.5 71.5t-8.5 119l107 516q16 78 -11.5 120.5t-89.5 42.5q-90 0 -164.5 -105t-105.5 -255q-25 -125 -37 -252t-12 -192v-66h-428l221 1217q-127 -35 -244 -35q-41 0 -61 2l-158 -897q-29 -164 72 -197l-37 -92
h-621l-4 92q111 33 140 197l174 981q-209 66 -305 65q-121 0 -121 -78q0 -39 45 -108.5t45 -128.5q0 -72 -53.5 -123t-135.5 -51q-86 0 -147 67.5t-61 157.5q0 180 144 305t380 125q178 0 432 -28.5t420 -28.5q119 0 258 50t260 138l31 -10l-129 -719h14q145 209 377 209
q164 0 249 -110.5t38 -323.5l-80 -379q-39 -176 71 -176q14 0 47 8z" />
    <glyph glyph-name="f_j.liga" unicode="fj" horiz-adv-x="1601" 
d="M676 883l-80 -580q-49 -371 -272.5 -565.5t-577.5 -194.5q-96 0 -181 47.5t-85 128.5q0 70 49 117t123 47q49 0 85 -25.5t54.5 -56t44 -56.5t53.5 -26q121 0 186.5 121t98.5 350l115 693h-183l35 188h178q20 104 65.5 190.5t107 144.5t132 102t148.5 69t148.5 36
t140.5 11q223 0 336.5 -86t111.5 -190q0 -82 -52 -128t-130 -46q-74 0 -119 43t-62.5 94t-55 94t-97.5 43q-45 0 -86 -15.5t-85 -53.5t-75.5 -116.5t-44.5 -191.5h246l-33 -188h-239zM1509 1120l29 -8l-250 -1321q-39 -213 -187.5 -324.5t-387.5 -111.5q-178 0 -264.5 66.5
t-77.5 152.5q12 135 151 135q55 0 91 -27.5t51.5 -61.5t46 -61.5t75.5 -27.5q86 0 111 154l176 950q12 76 -14.5 128t-77.5 68l37 93q321 51 491 196z" />
    <glyph glyph-name="f_t.liga" unicode="ft" horiz-adv-x="1814" 
d="M1554 883l-108 -609q-25 -139 82 -139q76 0 141 25l8 -152q-51 -16 -152.5 -32.5t-162.5 -16.5q-358 0 -301 322l106 600h-393l-80 -580q-49 -371 -272 -565.5t-578 -194.5q-94 0 -180 48.5t-86 127.5q2 72 50 118t122 46q49 0 85 -25.5t54.5 -56t44 -56.5t54.5 -26
q121 0 186.5 121t97.5 350l115 693h-180l33 188h178q47 256 182 404.5t395 148.5q158 0 241 -55.5t83 -147.5q-2 -72 -47 -115.5t-125 -43.5q-57 0 -88 28.5t-38 64.5t-23.5 64.5t-49.5 28.5q-39 0 -84 -107.5t-63 -269.5h194q47 0 89 5t75 9t68 21.5t54 23t52 33t42 32.5
t41 42t36 41t39 48t37 46h112l-53 -301h264l-32 -186h-265z" />
    <glyph glyph-name=".notdef" horiz-adv-x="1212" 
d="M211 0v1434h1001v-1434h-1001zM430 166h565v1102h-565v-1102z" />
    <glyph glyph-name="glyph1" horiz-adv-x="0" 
 />
    <glyph glyph-name="glyph2" horiz-adv-x="681" 
 />
    <glyph glyph-name="space" unicode=" " horiz-adv-x="741" 
 />
    <glyph glyph-name="exclam" unicode="!" horiz-adv-x="897" 
d="M356 551q16 178 -19.5 366.5t-19.5 294.5q20 139 106.5 201t190.5 62q102 0 169 -61.5t44 -201.5q-16 -106 -111 -294.5t-136 -366.5h-224zM368.5 -41q-102.5 0 -163 67.5t-44 174t98.5 174t186 67.5q102 0 163 -67.5t44.5 -174t-99.5 -174t-185.5 -67.5z" />
    <glyph glyph-name="quotedbl" unicode="&#x22;" horiz-adv-x="1323" 
d="M399 809q-4 135 -34.5 271.5t-22.5 197.5q14 90 78.5 143.5t146.5 53.5t129 -53.5t33 -141.5q-8 -63 -84 -200.5t-121 -270.5h-125zM866 809q-4 135 -34.5 271.5t-22.5 197.5q14 90 78.5 143.5t146.5 53.5q84 0 130 -53.5t32 -141.5q-8 -63 -84 -200.5t-121 -270.5h-125z
" />
    <glyph glyph-name="numbersign" unicode="#" horiz-adv-x="1998" 
d="M344 0l188 371h-272l23 145h325l209 402h-274l24 145h326l192 371h209l-190 -371h274l191 371h211l-193 -371h275l-25 -145h-326l-208 -402h274l-23 -145h-329l-189 -371h-209l189 371h-275l-188 -371h-209zM819 516h275l206 402h-274z" />
    <glyph glyph-name="dollar" unicode="$" horiz-adv-x="1607" 
d="M979 1319q-88 0 -156.5 -46t-79.5 -116q-6 -47 11.5 -82t62.5 -60.5t87 -42t116 -38.5q14 -4 20 -6q88 -27 136.5 -44.5t121 -56.5t108.5 -83t57.5 -116.5t6.5 -164.5q-33 -209 -217 -343t-438 -157l-53 -336h-172l53 334q-281 12 -404.5 106.5t-103.5 217.5
q10 68 65.5 113.5t129.5 45.5q70 0 104.5 -33.5t47 -82.5t30.5 -98.5t75.5 -83t160.5 -33.5q96 0 170.5 48t85.5 122q8 51 -7.5 90t-66.5 70.5t-84 46t-115 45.5q-18 6 -26 10q-104 37 -162 63.5t-132.5 81.5t-100 139t-7.5 197q29 193 187.5 305.5t390.5 136.5l43 273h172
l-43 -268q207 -8 338 -85t110 -204q-10 -68 -58 -109t-120 -41q-57 0 -87 30t-41 71t-26.5 83t-61.5 71.5t-128 29.5z" />
    <glyph glyph-name="percent" unicode="%" horiz-adv-x="1810" 
d="M463 674q-184 0 -282.5 109.5t-71.5 289.5q29 180 161.5 291t319.5 111q184 0 280.5 -111t67.5 -291q-27 -180 -159 -289.5t-316 -109.5zM444 0l836 1434h156l-834 -1434h-158zM487.5 831q59.5 0 102.5 61.5t61.5 180.5t-5 181.5t-83 62.5t-102.5 -62.5t-64 -181.5
q-18 -119 6.5 -180.5t84 -61.5zM1286 -41q-184 0 -280.5 109.5t-69.5 289.5q29 180 160 290t317 110q184 0 281.5 -110.5t68.5 -289.5q-27 -178 -160 -288.5t-317 -110.5zM1311 115q59 0 103 62.5t62.5 181t-5 181t-82.5 62.5q-57 0 -101.5 -62.5t-64.5 -181.5
q-18 -119 6.5 -181t81.5 -62z" />
    <glyph glyph-name="ampersand" unicode="&#x26;" horiz-adv-x="1912" 
d="M1931 338q2 -170 -137 -274.5t-356 -104.5q-223 0 -357 100q-231 -100 -483 -100q-156 0 -272.5 45t-177 117t-85 151.5t-12.5 159.5q27 166 138.5 296t287.5 192l2 16q-109 82 -84 233q23 150 146 228t315 78q190 0 290.5 -78t78.5 -228q-31 -207 -250 -276h2l-2 -19
q119 -57 185.5 -161.5t119.5 -253.5q70 100 90 239q23 160 -151 207l36 92h557l9 -92q-76 -18 -137.5 -70.5t-75.5 -142.5q-39 -262 -244 -450q59 -106 147 -107q49 0 86 31t37 80q0 29 -34.5 88t-34.5 104q-2 59 42 98t115 39q100 0 154.5 -67.5t54.5 -169.5zM680 1157
q-12 -80 15.5 -123t87 -43t99.5 43t52 123q14 80 -13.5 123t-87 43t-99.5 -42t-54 -124zM485 451q-14 -96 46.5 -183.5t199.5 -87.5q109 0 223 35q-43 82 -97 292t-116 277q-229 -149 -256 -333z" />
    <glyph glyph-name="quotesingle" unicode="'" horiz-adv-x="856" 
d="M399 809q-4 135 -34.5 271.5t-22.5 197.5q14 90 78.5 143.5t146.5 53.5t129 -53.5t33 -141.5q-8 -63 -84 -200.5t-121 -270.5h-125z" />
    <glyph glyph-name="parenleft" unicode="(" horiz-adv-x="917" 
d="M670 -434q-621 324 -518 969q102 647 823 970l47 -73q-188 -125 -332.5 -364t-189.5 -533q-47 -295 21.5 -529.5t219.5 -365.5z" />
    <glyph glyph-name="parenright" unicode=")" horiz-adv-x="917" 
d="M-39 -434l-45 74q190 131 332.5 365.5t189.5 529.5q47 297 -21.5 534.5t-217.5 362.5l71 73q618 -326 516 -970.5t-825 -968.5z" />
    <glyph glyph-name="asterisk" unicode="*" horiz-adv-x="1155" 
d="M307 592q-39 31 -40 79t40 97q23 25 51.5 44t74.5 46t85 55l-8 60q-43 2 -95.5 -1t-84 -3t-58.5 10q-51 18 -66.5 63t9.5 95q25 51 72 74.5t100 7.5q29 -10 51.5 -29t56 -51.5t68.5 -57.5l55 35q-4 41 -20 117t-10 115q8 57 50 92t95 35t84 -35t23 -92q-6 -39 -46 -113
t-61 -121l41 -35q43 25 88 57.5t75 52t60 28.5q57 18 96.5 -5.5t49.5 -74.5q8 -51 -20.5 -95.5t-86.5 -62.5q-31 -10 -62.5 -10t-83.5 3t-97 1l-27 -58q31 -29 69.5 -56.5t62.5 -46.5t38 -44q27 -49 9.5 -96t-66.5 -80q-45 -33 -94.5 -26t-75.5 55q-16 31 -25.5 106.5
t-19.5 120.5l-60 -2q-25 -43 -57.5 -119t-59.5 -106q-41 -47 -93 -54.5t-87 25.5z" />
    <glyph glyph-name="plus" unicode="+" horiz-adv-x="1368" 
d="M563 145l78 500h-494l25 146h494l77 497h162l-78 -497h496l-25 -146h-495l-78 -500h-162z" />
    <glyph glyph-name="comma" unicode="," horiz-adv-x="835" 
d="M477 395q115 0 176.5 -78.5t38.5 -218.5q-27 -176 -159 -325.5t-316 -227.5l-55 119q111 66 175 138.5t118 174.5l-6 9q-45 -27 -80 -27q-92 0 -147.5 61.5t-41 157.5t101 156.5t195.5 60.5z" />
    <glyph glyph-name="hyphen" unicode="-" horiz-adv-x="741" 
d="M45 444l45 287h651l-45 -287h-651z" />
    <glyph glyph-name="period" unicode="." horiz-adv-x="786" 
d="M360.5 -41q-102.5 0 -163 67.5t-44 174t99.5 174t185.5 67.5t163 -67.5t44 -174t-99.5 -174t-185.5 -67.5z" />
    <glyph glyph-name="slash" unicode="/" horiz-adv-x="956" 
d="M-8 -449l915 1944h166l-917 -1944h-164z" />
    <glyph glyph-name="zero" unicode="0" horiz-adv-x="1382" 
d="M627 -41q-283 0 -418 194.5t-78 565.5q57 369 255 562.5t482 193.5q283 0 418 -194t78 -562q-57 -371 -254.5 -565.5t-482.5 -194.5zM655 139q82 0 139.5 128t108.5 452q49 334 34 455.5t-97 121.5t-139.5 -128t-108.5 -449q-35 -219 -38 -347t22.5 -180.5t78.5 -52.5z
" />
    <glyph glyph-name="one" unicode="1" horiz-adv-x="1316" 
d="M223 0l-6 92q164 49 189 195l131 825h-144l-4 113l516 209h131l-180 -1147q-25 -147 127 -195l-35 -92h-725z" />
    <glyph glyph-name="two" unicode="2" horiz-adv-x="1390" 
d="M1309 1055q-18 -121 -84 -227.5t-172.5 -193.5t-219 -154.5t-264.5 -139.5l-2 -10h101q160 0 277.5 33.5t162.5 66.5t98 86l88 -45l-215 -471h-944l39 248q289 180 468 373.5t218 433.5q16 111 -30 178t-136 67q-100 0 -188 -94t-115 -262l-141 19q37 233 204 372.5
t402 139.5q225 0 354.5 -111.5t98.5 -308.5z" />
    <glyph glyph-name="three" unicode="3" horiz-adv-x="1351" 
d="M532 -41q-176 0 -309 72.5t-112 208.5q12 76 61 123t125 47q63 0 98 -29t45.5 -70t17.5 -82t29.5 -69.5t69.5 -28.5q92 0 158.5 74t87.5 209q23 139 -32.5 223t-180.5 84h-58l23 145h49q86 0 146.5 67.5t76.5 168.5q14 92 -31.5 144t-134 52t-161 -68.5t-101.5 -195.5
l-123 13q47 197 202 312.5t374 115.5q209 0 319.5 -91.5t88.5 -240.5q-16 -98 -89 -177t-198 -122l-2 -13q147 -31 227 -131t57 -243q-35 -215 -226.5 -356.5t-496.5 -141.5z" />
    <glyph glyph-name="four" unicode="4" horiz-adv-x="1323" 
d="M1073 328l-6 -41q-25 -147 127 -195l-35 -92h-725l-6 92q164 49 188 195l7 41h-525l-22 121l852 985h319l-147 -942h219l-68 -164h-178zM309 492h340l74 469h-14l-400 -459v-10z" />
    <glyph glyph-name="five" unicode="5" horiz-adv-x="1409" 
d="M795 938q258 0 387 -126t98 -331q-39 -236 -221 -379t-473 -143q-176 0 -309.5 75t-112.5 210q12 74 63.5 122t116.5 48q72 0 106.5 -29t44 -70t20.5 -80.5t51 -68.5t118 -29q98 0 170 56.5t88 161t-61.5 179t-233.5 74.5q-162 0 -299 -84l-104 27l139 883h917l-98 -332
l-704 2l-37 -232q139 66 334 66z" />
    <glyph glyph-name="six" unicode="6" horiz-adv-x="1359" 
d="M950 942q213 0 304.5 -139t60.5 -344q-35 -217 -222.5 -358.5t-445.5 -141.5q-262 0 -393 178t-84 484q68 420 359.5 637t715.5 217l-22 -138q-162 0 -301.5 -118.5t-229.5 -354.5h10q39 31 107.5 54.5t140.5 23.5zM860 459q23 139 -3 204.5t-107 65.5q-68 0 -119 -76
q-16 -63 -25 -127q-37 -225 -22.5 -318t88 -93t116.5 82t72 262z" />
    <glyph glyph-name="seven" unicode="7" horiz-adv-x="1294" 
d="M1296 1434l-36 -238q-113 -121 -172.5 -189.5t-135 -169t-116.5 -184.5t-79 -198.5t-61 -249.5q-20 -127 -96 -186.5t-170 -59.5q-102 0 -153.5 69.5t-34.5 176.5q29 182 153.5 362.5t269 302t308.5 220.5l2 12h-193q-160 0 -277.5 -34t-163.5 -66.5t-99 -86.5l-86 48
l213 471h927z" />
    <glyph glyph-name="eight" unicode="8" horiz-adv-x="1458" 
d="M629 -41q-248 0 -383 113.5t-109 285.5q39 240 291 369l2 10q-74 63 -104.5 138t-12.5 192q27 176 204 292t413 116q233 0 349 -102.5t93 -239.5q-35 -223 -248 -330l-2 -8q117 -80 170.5 -163t30.5 -226q-33 -201 -224 -324t-470 -123zM932 909q135 84 162 234
q10 76 -24 120t-109 44q-72 0 -120 -36t-59 -106q-24 -145 150 -256zM631 127q195 0 221 168q18 106 -49.5 178t-202.5 148q-137 -96 -162 -269q-18 -106 36.5 -165.5t156.5 -59.5z" />
    <glyph glyph-name="nine" unicode="9" horiz-adv-x="1323" 
d="M797 1475q264 0 394 -178.5t81 -483.5q-68 -420 -358.5 -637t-714.5 -217l22 137q162 0 301.5 119t229.5 354h-9q-98 -78 -249 -77q-213 0 -304.5 140t-58.5 343q35 217 221.5 358.5t444.5 141.5zM694 705q66 0 119 77q14 55 25 125q37 227 22.5 319.5t-90.5 92.5
q-74 0 -116 -81t-70 -263q-23 -139 2.5 -204.5t107.5 -65.5z" />
    <glyph glyph-name="colon" unicode=":" horiz-adv-x="802" 
d="M460.5 594q-102.5 0 -162.5 67.5t-44 174.5q14 106 97 173.5t188 67.5q102 0 162.5 -67.5t44 -174t-99.5 -174t-185.5 -67.5zM360.5 -41q-102.5 0 -163 67.5t-43.5 174.5q14 106 97 173.5t187 67.5q102 0 163 -67.5t44.5 -174t-99.5 -174t-185.5 -67.5z" />
    <glyph glyph-name="semicolon" unicode=";" horiz-adv-x="835" 
d="M571 1077q102 0 163 -67.5t44.5 -174t-99.5 -174t-185.5 -67.5t-163 67.5t-43.5 174.5q14 106 97 173.5t187 67.5zM477 395q115 0 176.5 -78.5t38.5 -218.5q-27 -176 -159 -325.5t-316 -227.5l-55 119q111 66 175 138.5t118 174.5l-6 9q-45 -27 -80 -27
q-92 0 -147.5 61.5t-41 157.5t101 156.5t195.5 60.5z" />
    <glyph glyph-name="less" unicode="&#x3c;" horiz-adv-x="1343" 
d="M1135 164l-988 438l25 158l1126 436l-24 -156l-916 -356v-8l801 -354z" />
    <glyph glyph-name="equal" unicode="=" horiz-adv-x="1368" 
d="M211 846l22 145h1090l-23 -145h-1089zM147 442l23 144h1090l-23 -144h-1090z" />
    <glyph glyph-name="greater" unicode="&#x3e;" horiz-adv-x="1343" 
d="M147 164l25 158l915 354v8l-800 356l24 156l987 -436l-24 -158z" />
    <glyph glyph-name="question" unicode="?" horiz-adv-x="1247" 
d="M332 553l57 375h98q61 0 99.5 1t110 4t117.5 12t95 24.5t74 40t25 59.5q-2 90 -88 163t-211 73q-55 0 -92 -25t-57.5 -60.5t-41 -70.5t-61.5 -59.5t-103 -24.5q-72 0 -120 50t-48 118q-2 115 109 179.5t289 64.5q233 0 441 -140.5t210 -316.5q0 -82 -29.5 -145.5
t-85 -103.5t-119 -67.5t-143.5 -40t-144.5 -17.5t-138.5 -5l-12 -88h-231zM365 -39q-102 0 -164 67.5t-45 174.5q14 106 97 173.5t185.5 67.5t164 -67.5t44.5 -173.5q-14 -106 -96 -174t-186 -68z" />
    <glyph glyph-name="at" unicode="@" horiz-adv-x="2050" 
d="M1022 -365q-195 0 -357.5 53.5t-284.5 158t-180.5 273.5t-35.5 386q27 264 194.5 476t407.5 322.5t496 110.5q360 0 571 -185.5t178 -514.5q-29 -281 -216 -454t-435 -173q-180 0 -221 164h-11q-57 -72 -151 -118t-186 -46q-186 0 -276.5 130t-16.5 335
q74 207 233.5 319.5t364.5 112.5q84 0 148.5 -37t84.5 -94h12l99 131h297l-228 -616q-12 -37 1.5 -63.5t50.5 -26.5q94 0 192 128t117 308q29 283 -148.5 427t-474.5 144q-221 0 -423.5 -90t-346 -272.5t-168.5 -417.5q-25 -244 67.5 -415t262.5 -250t397 -79q152 0 303 50
l21 -125q-164 -52 -338 -52zM963 266q117 0 178 135l127 336q-4 31 -36 52.5t-73 21.5q-180 0 -278 -274q-53 -162 -32.5 -216.5t114.5 -54.5z" />
    <glyph glyph-name="A" unicode="A" horiz-adv-x="1499" 
d="M1329 289q37 -164 154 -197l-37 -92h-651l-4 92q100 33 59 197l-4 14h-514l-8 -14q-98 -164 -11 -197l-37 -92h-342l-4 92q127 33 222 197l489 827q-31 55 -104 88l30 92q31 6 81 19.5t171 61.5t201 106h20zM438 481h367l-103 426h-12z" />
    <glyph glyph-name="B" unicode="B" horiz-adv-x="1503" 
d="M1511 1083q-20 -115 -107 -200.5t-212 -118.5l-2 -10q158 -33 244 -131.5t61 -245.5q-33 -193 -197.5 -303.5t-384.5 -110.5q-127 0 -300 18.5t-330 18.5h-252l-6 92q113 33 141 197l151 856q29 164 -71 196l37 93h872q178 0 280.5 -99.5t75.5 -251.5zM899 1260
q-63 0 -113 -7l-71 -409h102q88 0 156.5 60.5t85.5 154.5q16 88 -26 144.5t-134 56.5zM1055 420q23 121 -47 185.5t-179 64.5h-145l-86 -486q82 -18 160 -18q131 0 205 72.5t92 181.5z" />
    <glyph glyph-name="C" unicode="C" horiz-adv-x="1488" 
d="M723 -41q-217 0 -367.5 111.5t-207 295t-17.5 402.5q55 311 299 509t567 198q233 0 380 -115t118 -285q-16 -88 -73.5 -149.5t-143.5 -61.5q-94 0 -137 45t-47 108.5t-6.5 127t-32 108.5t-103.5 45q-111 0 -208 -154.5t-136 -371.5q-59 -303 -0.5 -469t250.5 -166
q231 0 422 334l119 -68q-76 -205 -246 -324.5t-430 -119.5z" />
    <glyph glyph-name="D" unicode="D" horiz-adv-x="1568" 
d="M907 1434q328 0 517.5 -215t131.5 -539q-119 -680 -860 -680h-702l-4 92q113 33 141 197l152 856q29 164 -72 196l37 93h659zM1098 600q25 109 15.5 225.5t-39.5 212t-106.5 156.5t-187.5 61h-28l-187 -1069q72 -10 140 -10q162 0 262 124t131 300z" />
    <glyph glyph-name="E" unicode="E" horiz-adv-x="1396" 
d="M723 688q-43 0 -76 -31l-82 -462q121 -18 187 -19q88 0 176 28.5t151.5 70.5t113.5 84t77 71l24 29l84 -45l-153 -455h-33q-27 16 -131.5 28.5t-171.5 12.5h-895l-4 92q113 33 141 197l152 856q29 164 -72 196l37 93h1126l49 -396l-98 -32q-2 10 -8 26.5t-34 59.5
t-70 76.5t-122.5 60t-183.5 26.5q-76 0 -157 -16l-62 -356l6 -2q96 74 189 73q88 0 186 -65.5t160 -65.5q51 0 98 43l64 -71q-137 -238 -334 -238q-63 0 -174 65.5t-160 65.5z" />
    <glyph glyph-name="F" unicode="F" horiz-adv-x="1345" 
d="M1221 782q51 0 94 43l61 -71q-82 -238 -321 -238q-74 0 -172.5 65.5t-161.5 65.5q-43 0 -82 -39l-57 -319q-29 -164 71 -197l-37 -92h-620l-6 92q113 33 141 197l152 856q29 164 -72 196l37 93h1128l49 -396l-98 -32q-2 10 -8 26.5t-34 59.5t-69.5 76.5t-122.5 60
t-184 26.5q-78 0 -155 -6l-74 -411l8 -4q86 80 184 79q82 0 187 -65.5t162 -65.5z" />
    <glyph glyph-name="G" unicode="G" horiz-adv-x="1525" 
d="M1554 756l5 -92q-113 -33 -142 -197l-82 -467h-100l-86 104h-6q-152 -145 -422 -145q-217 0 -367.5 117t-206 300t-18.5 392q55 311 298 509t566 198q233 0 381 -115t117 -285q-14 -88 -71.5 -149.5t-145.5 -61.5q-92 0 -135 45t-47.5 108.5t-6.5 127t-32.5 108.5
t-104.5 45q-111 0 -208 -154.5t-136 -371.5q-53 -299 9.5 -467t222.5 -168q41 0 82 13l55 317q16 88 -7.5 132t-95.5 65l37 92h647z" />
    <glyph glyph-name="H" unicode="H" horiz-adv-x="1667" 
d="M1769 1434l5 -93q-113 -33 -142 -196l-149 -856q-31 -164 71 -197l-36 -92h-623l-4 92q113 33 141 197l58 323h-451l-57 -323q-31 -164 71 -197l-37 -92h-622l-4 92q113 33 141 197l150 856q31 164 -72 196l37 93h622l4 -93q-113 -33 -141 -196l-57 -334h450l58 334
q31 164 -72 196l37 93h622z" />
    <glyph glyph-name="I" unicode="I" horiz-adv-x="768" 
d="M-4 0l-6 92q113 33 141 197l152 856q29 164 -72 196l37 93h622l4 -93q-113 -33 -141 -196l-151 -856q-29 -164 71 -197l-37 -92h-620z" />
    <glyph glyph-name="J" unicode="J" horiz-adv-x="727" 
d="M-186 -496q-184 0 -263 67t-59 175q14 78 74.5 127t138.5 49q72 0 111 -32.5t45 -71.5t18 -72t39 -33q41 0 67.5 62.5t49.5 193.5l207 1176q29 164 -72 196l37 93h622l5 -93q-113 -33 -142 -196l-188 -1073q-29 -156 -98.5 -270.5t-166 -177t-201.5 -91.5t-224 -29z" />
    <glyph glyph-name="K" unicode="K" horiz-adv-x="1759" 
d="M1499 1475q158 0 235.5 -63.5t67.5 -178.5q-6 -92 -63.5 -142.5t-124.5 -50.5q-100 0 -197.5 49.5t-150.5 49.5q-74 0 -183 -92l394 -758q92 -172 190 -197l-37 -92h-704l-4 92q45 16 55 65.5t-29 131.5l-180 344h-10q-90 -150 -166 -289l-10 -55q-29 -164 71 -197
l-37 -92h-620l-6 92q113 33 141 197l152 856q29 164 -72 196l37 93h622l4 -93q-113 -33 -141 -196l-55 -311h10q201 299 412 470t399 171z" />
    <glyph glyph-name="L" unicode="L" horiz-adv-x="1413" 
d="M1352 459l84 -45l-154 -455h-33q-27 16 -131 28.5t-172 12.5h-950l-6 92q113 33 141 197l152 856q29 164 -72 196l37 93h622l4 -93q-113 -33 -141 -196l-166 -940q143 -29 242 -29q88 0 176 28.5t151.5 70.5t113.5 84t77 71z" />
    <glyph glyph-name="M" unicode="M" horiz-adv-x="1744" 
d="M700 -41q-106 0 -166.5 55.5t-60.5 159.5q0 188 211 438q-61 221 -143 351h-9l-198 -674q-51 -164 47 -197l-37 -92h-358l-4 92q113 31 163 197l252 856q47 164 -47 196l37 93h369q78 -63 157.5 -199.5t114.5 -259.5h8q201 246 420 459h402l4 -93q-106 -33 -117 -196
l-49 -856q-10 -164 94 -197l-37 -92h-616l-4 92q106 33 116 197l43 735h-8q-43 -47 -213 -242q16 -121 16 -231q0 -250 -116.5 -421t-270.5 -171zM688 121q55 0 55 135q0 43 -10 115h-8q-72 -115 -72 -199q0 -51 35 -51z" />
    <glyph glyph-name="N" unicode="N" horiz-adv-x="1536" 
d="M1636 1434l4 -93q-113 -33 -141 -196l-203 -1145h-206q-10 82 -52.5 155.5t-100.5 129t-132 121t-143.5 125t-136 146.5t-107.5 181h-10l-101 -569q-29 -164 74 -197l-37 -92h-350l-4 92q113 33 141 197l152 856q29 164 -74 196l37 93h350q61 -127 137 -230.5t145.5 -171
t134 -127t121 -126t89.5 -140.5h10l88 506q29 164 -72 196l37 93h350z" />
    <glyph glyph-name="O" unicode="O" horiz-adv-x="1611" 
d="M729 -41q-141 0 -263 52t-208 146.5t-123 237t-6 310.5q59 346 299 558t569 212q299 0 479.5 -216.5t121 -554t-306.5 -541.5t-562 -204zM762 135q115 0 226.5 166t156.5 422q47 258 -6.5 415.5t-171.5 157.5q-113 0 -223.5 -158.5t-155.5 -414.5q-47 -262 1 -425
t173 -163z" />
    <glyph glyph-name="P" unicode="P" horiz-adv-x="1603" 
d="M1118 1434q268 0 412.5 -144.5t107.5 -355.5q-39 -219 -243.5 -373.5t-532.5 -154.5q-139 0 -256 20l-24 -137q-29 -164 71 -197l-37 -92h-622l-4 92q113 33 141 197l152 856q29 164 -72 196l37 93h870zM1184 932q23 129 -63.5 226t-221.5 97q-78 0 -149 -10l-111 -633
q86 -20 172 -20q162 0 256 103.5t117 236.5z" />
    <glyph glyph-name="Q" unicode="Q" horiz-adv-x="1669" 
d="M1229 -496q-96 0 -189.5 34t-156 73t-141 119t-112.5 118.5t-104 126.5q-119 -16 -223 -16q-180 0 -285.5 66.5t-105.5 193.5q0 117 100.5 180.5t243.5 63.5q129 0 232.5 -56.5t207.5 -162.5q94 59 164 116.5t137.5 135t103.5 176t36 211.5q0 182 -102.5 298.5
t-301.5 116.5q-186 0 -327.5 -111.5t-141.5 -279.5q0 -123 63.5 -197.5t178.5 -74.5q55 0 83.5 23.5t28.5 60.5q0 29 -23.5 54.5t-53 45t-53 57t-23.5 87.5q0 74 57.5 128t163.5 54q102 0 174 -79t72 -204q0 -170 -126 -276.5t-286 -106.5q-195 0 -323.5 115t-128.5 313
q0 242 218 405t541 163q395 0 601 -162t206 -447q0 -522 -772 -813v-10q20 -29 69.5 -94.5t76 -100t64.5 -77.5t68.5 -62.5t57.5 -19.5q45 0 72.5 25.5t42 62.5t33 73.5t59.5 62.5t108 26q74 0 115 -47.5t41 -104.5q0 -131 -122.5 -207t-317.5 -76zM303 121q41 0 98 10v8
q-66 86 -115.5 130t-99.5 44q-45 0 -71.5 -22.5t-26.5 -61.5q0 -108 215 -108z" />
    <glyph glyph-name="R" unicode="R" horiz-adv-x="1662" 
d="M1647 1016q-53 -297 -424 -393l-4 -19q72 -8 116.5 -31.5t69.5 -69.5t34 -82t21 -112q18 -125 39 -155q35 -53 121 -45l-10 -103q-156 -47 -293 -47q-61 0 -108.5 7t-108 33t-98 86t-48.5 153q-23 213 -75 278.5t-228 65.5h-18l-51 -293q-29 -164 71 -197l-37 -92h-622
l-4 92q113 33 141 197l152 856q29 164 -72 196l37 93h846q279 0 432.5 -112.5t120.5 -305.5zM895 1255q-76 0 -143 -10l-86 -477h163q317 0 359 229q20 121 -58.5 189.5t-234.5 68.5z" />
    <glyph glyph-name="S" unicode="S" horiz-adv-x="1470" 
d="M690 -41q-287 0 -460 113.5t-144 265.5q31 168 207 168q82 0 132 -38t71.5 -93.5t43 -109.5t72 -92t131.5 -38q170 0 195 131q10 49 -7.5 88t-66.5 70t-94 50.5t-125 47.5q-197 68 -316.5 201t-88.5 309q39 205 223 324t461 119q264 0 429 -115t136 -266
q-35 -170 -219 -170q-88 0 -136.5 37.5t-64.5 93t-29.5 111t-49.5 93t-105 37.5q-82 0 -129 -42t-60 -109q-10 -53 -2 -90t44 -65.5t62.5 -42t94.5 -40.5q16 -6 25 -10q227 -90 305 -143q211 -141 166 -379q-37 -201 -236 -308.5t-465 -107.5z" />
    <glyph glyph-name="T" unicode="T" horiz-adv-x="1554" 
d="M1567 1475l51 -471l-100 -46q-4 10 -13.5 29t-43.5 67t-74.5 86t-108.5 73.5t-143 43.5l-170 -968q-29 -164 71 -197l-37 -92h-622l-4 92q113 33 141 197l170 971q-80 -8 -161 -43t-138 -77t-103 -84t-69 -69l-23 -29l-84 46l218 471h34q27 -16 130.5 -28.5t173.5 -12.5
h555q68 0 175 12t140 29h35z" />
    <glyph glyph-name="U" unicode="U" 
d="M676 -41q-127 0 -226.5 29.5t-175 93t-103.5 176.5t-1 268l113 619q29 164 -72 196l37 93h620l6 -93q-113 -33 -143 -196l-110 -617q-35 -197 27.5 -293t195.5 -96q293 0 362 389l109 617q29 164 -72 196l39 93h348l4 -93q-113 -33 -141 -196l-111 -619
q-51 -283 -240.5 -425t-465.5 -142z" />
    <glyph glyph-name="V" unicode="V" horiz-adv-x="1413" 
d="M1593 1434l4 -93q-123 -33 -204 -196l-500 -995q10 -51 39 -105l-23 -45q-215 16 -448 -41h-21l-182 1186q-25 164 -135 196l37 93h651l4 -93q-102 -33 -78 -196l111 -721h10l363 721q82 164 -9 196l37 93h344z" />
    <glyph glyph-name="W" unicode="W" horiz-adv-x="2185" 
d="M2341 1434l6 -93q-119 -33 -199 -196l-481 -1028q10 -33 29 -70l-27 -45q-131 0 -247.5 -11t-168.5 -22l-51 -10h-39l-45 696h-6l-266 -526q8 -33 31 -84l-25 -45q-227 16 -465 -41h-20l-101 1186q-12 164 -123 196l45 93h656l-2 -93q-102 -33 -90 -196l61 -721h8
l277 545q0 12 -2 45t-4 47t-8.5 40.5t-20.5 51.5t-37 53l47 92q279 61 463 185h20l70 -1059h12l338 721q80 164 -12 196l33 93h344z" />
    <glyph glyph-name="X" unicode="X" horiz-adv-x="1454" 
d="M1577 1341q-104 -27 -240 -196l-311 -402l195 -454q72 -170 170 -197l-37 -92h-688l-4 92q47 16 60 66.5t-17 130.5l-117 274h-17l-215 -274q-59 -76 -63 -130.5t37 -66.5l-37 -92h-361l-6 92q109 27 240 197l348 444l-176 412q-72 170 -170 196l37 93h688l4 -93
q-47 -16 -60.5 -66t17.5 -130l98 -230h17l180 230q59 76 63.5 130t-36.5 66l36 93h361z" />
    <glyph glyph-name="Y" unicode="Y" horiz-adv-x="1439" 
d="M326 0l-4 92q113 33 141 197l63 364l-209 492q-72 170 -170 196l37 93h688l5 -93q-47 -16 -60.5 -66t17.5 -130l114 -268h15l211 268q59 76 63 130t-37 66l37 93h360l5 -93q-106 -27 -238 -196l-387 -494l-64 -362q-29 -164 72 -197l-37 -92h-622z" />
    <glyph glyph-name="Z" unicode="Z" horiz-adv-x="1583" 
d="M950 -227q-113 0 -242.5 35.5t-230 77.5t-231.5 78t-244 36l-2 104l1057 1158h-228q-88 0 -176 -31t-152.5 -76t-115.5 -90t-78 -76l-24 -31l-84 46l190 471h35q27 -16 130 -28.5t173 -12.5h891l2 -105l-1053 -1151q82 -16 149.5 -57t105.5 -80t91.5 -69.5t112.5 -30.5
q125 0 125 75q0 39 -46 110t-46 130q0 72 54 123t138 51q88 0 151.5 -68.5t63.5 -158.5q0 -178 -143.5 -304t-372.5 -126z" />
    <glyph glyph-name="bracketleft" unicode="[" horiz-adv-x="1001" 
d="M76 -414l295 1878h616l-20 -123h-301l-258 -1632h303l-19 -123h-616z" />
    <glyph glyph-name="backslash" unicode="\" horiz-adv-x="344" 
d="M295 -449l-303 1944h166l303 -1944h-166z" />
    <glyph glyph-name="bracketright" unicode="]" horiz-adv-x="1003" 
d="M45 -414l18 123h302l258 1632h-301l20 123h616l-299 -1878h-614z" />
    <glyph glyph-name="asciicircum" unicode="^" horiz-adv-x="1177" 
d="M156 811l522 623h153l326 -623h-153l-302 299l-393 -299h-153z" />
    <glyph glyph-name="underscore" unicode="_" horiz-adv-x="1097" 
d="M0 -197l20 125h1078l-21 -125h-1077z" />
    <glyph glyph-name="grave" unicode="`" horiz-adv-x="663" 
d="M567 1153l-280 186q-86 57 -74 144q8 43 45 73.5t84 30.5q82 0 141 -90l185 -272z" />
    <glyph glyph-name="a" unicode="a" horiz-adv-x="1335" 
d="M1257 123q25 0 48 8l10 -82q-121 -90 -295 -90q-231 0 -242 178h-14q-47 -88 -134 -133t-179 -45q-174 0 -275.5 107.5t-101.5 326.5q0 174 79.5 339t220 272.5t302.5 107.5q76 0 146.5 -31.5t103.5 -91.5h12l25 80h413q-96 -209 -153 -528l-43 -244q-34 -174 77 -174z
M618 197q137 0 203 225l72 409q-47 61 -127 62q-137 0 -221 -156.5t-84 -322.5q0 -96 42.5 -156.5t114.5 -60.5z" />
    <glyph glyph-name="b" unicode="b" horiz-adv-x="1394" 
d="M973 1110q188 0 292.5 -127t104.5 -334q0 -283 -204.5 -486.5t-469.5 -203.5q-137 0 -219 41t-145 133h-15l-124 -133h-115l205 1145q12 76 -14.5 128t-78.5 68l37 93q317 47 492 196l31 -8l-121 -676h10q144 164 334 164zM668 137q92 0 171 92.5t118.5 217t39.5 239.5
q0 219 -139 219q-96 0 -178 -102.5t-123 -251.5l-57 -311q55 -103 168 -103z" />
    <glyph glyph-name="c" unicode="c" horiz-adv-x="1208" 
d="M655 -41q-96 0 -179 18.5t-167 64.5t-133 143.5t-49 238.5q0 162 61.5 296t164 218t228.5 129t261 45q190 0 296.5 -82t106.5 -223q0 -94 -54 -157.5t-151 -63.5q-76 0 -123 38t-47 111q0 12 10.5 57.5t10.5 61.5q0 39 -25.5 60.5t-64.5 21.5q-113 0 -198 -147.5
t-85 -348.5q0 -119 72 -190.5t178 -71.5q190 0 401 250l68 -55q-68 -178 -225.5 -296t-356.5 -118z" />
    <glyph glyph-name="d" unicode="d" horiz-adv-x="1406" 
d="M1315 123q23 0 47 8l8 -82q-119 -90 -295 -90q-219 0 -239 160h-15q-53 -76 -138 -118t-179 -42q-174 0 -275.5 107.5t-101.5 326.5q0 178 71.5 340t218 270.5t335.5 108.5q127 0 223 -76h14l19 109q12 76 -14.5 128t-78.5 68l37 93q317 47 492 196l29 -8l-238 -1325
q-31 -174 80 -174zM672 197q61 0 119.5 53t87.5 174l75 424q-55 45 -127 45q-106 0 -181 -85t-103.5 -188.5t-28.5 -205.5q0 -94 43 -155.5t115 -61.5z" />
    <glyph glyph-name="e" unicode="e" horiz-adv-x="1142" 
d="M1120 414l60 -58q-207 -397 -613 -397q-94 0 -176 22.5t-157.5 72.5t-120.5 146.5t-45 229.5q0 276 187 479t509 203q195 0 302.5 -71.5t107.5 -202.5q0 -90 -53.5 -160t-156 -116t-224.5 -76.5t-287 -53.5q10 -117 78.5 -185.5t148.5 -68.5q133 0 229 55.5t211 180.5z
M731 936q-72 0 -159 -99.5t-113 -261.5q152 25 258 104t106 161q0 41 -24.5 68.5t-67.5 27.5z" />
    <glyph glyph-name="f" unicode="f" horiz-adv-x="847" 
d="M899 1622q158 0 241 -56.5t81 -146.5q0 -70 -46.5 -114.5t-125.5 -44.5q-55 0 -87 28.5t-38 64.5t-23.5 64.5t-50.5 28.5q-39 0 -85 -108.5t-63 -268.5h246l-33 -188h-239l-80 -580q-49 -371 -272.5 -565.5t-577.5 -194.5q-94 0 -180 48.5t-84 127.5q0 72 48 119t124 47
q49 0 85 -25.5t53.5 -56t43 -56.5t55.5 -26q119 0 184.5 120t98.5 349l115 693h-183l35 188h178q23 121 63 216t106.5 174t171 121t239.5 42z" />
    <glyph glyph-name="g" unicode="g" horiz-adv-x="1386" 
d="M1225 1352q72 0 116.5 -34t44.5 -104q0 -63 -38.5 -102t-108.5 -39q-43 0 -86 32t-70 32q-49 0 -98 -74q231 -104 184 -361q-33 -182 -195.5 -294.5t-402.5 -112.5q-125 0 -221 33q-39 -8 -43 -33q-4 -20 10.5 -34.5t51.5 -24t93 -17.5t138 -18q74 -8 117 -15
q227 -31 323.5 -110.5t69.5 -216.5q-29 -156 -215 -234t-455 -80q-129 -2 -237.5 22.5t-190.5 92.5t-82 172q0 57 38 103.5t98 68.5v8q-90 74 -68 199q14 74 75.5 123t141.5 59v6q-127 111 -94 303q33 182 195.5 296t402.5 114q72 0 137 -12q86 141 172 196.5t197 55.5z
M817 702q23 115 -15 177.5t-114 62.5q-80 0 -138 -66.5t-77 -173.5q-20 -113 16.5 -175t112.5 -62q80 0 138.5 65.5t76.5 171.5zM526 -127q-203 35 -258 49q-31 0 -52 -23.5t-21 -58.5q0 -53 67.5 -99t208.5 -44q131 2 193.5 27.5t62.5 64.5q0 37 -34 51.5t-167 32.5z" />
    <glyph glyph-name="h" unicode="h" horiz-adv-x="1320" 
d="M1370 131l6 -82q-121 -90 -276 -90q-49 0 -93 9t-86 33t-62.5 73t-8.5 119l106 514q16 78 -12.5 121.5t-89.5 43.5q-90 0 -165 -105t-105 -255q-25 -125 -37 -253t-10 -193v-66h-428l206 1145q12 76 -14.5 128t-77.5 68l37 93q317 47 492 196l28 -8l-129 -719h17
q145 207 376 207q164 0 249 -110.5t38 -321.5l-80 -381q-39 -174 72 -174q24 0 47 8z" />
    <glyph glyph-name="i" unicode="i" horiz-adv-x="632" 
d="M436.5 1143q-108.5 0 -171 65.5t-62.5 151.5t62.5 152.5t171 66.5t173 -66.5t64.5 -152.5t-64.5 -151.5t-173 -65.5zM356 -41q-49 0 -90 9t-81 33t-58 73t-8 119l78 440q12 78 -14.5 130t-78.5 66l37 95q319 47 492 196l29 -10l-146 -813q-14 -86 7.5 -130t70.5 -44
q25 0 49 8l8 -82q-119 -90 -295 -90z" />
    <glyph glyph-name="j" unicode="j" horiz-adv-x="729" 
d="M532.5 1143q-108.5 0 -171 65.5t-62.5 151.5t62.5 152.5t171 66.5t173 -66.5t64.5 -152.5t-64.5 -151.5t-173 -65.5zM-59 -455q-178 0 -264.5 66.5t-77.5 152.5q16 135 153 136q53 0 89 -28t51.5 -60.5t46 -60t75.5 -27.5q90 0 113 151l123 758q12 78 -14.5 130t-77.5 66
l37 93q322 51 491 196l31 -8l-201 -1126q-37 -215 -186 -327t-389 -112z" />
    <glyph glyph-name="k" unicode="k" horiz-adv-x="1402" 
d="M1225 160q70 0 149 57l43 -82q-168 -176 -395 -176q-174 0 -284.5 114.5t-145.5 329.5h-10q-70 -199 -68 -403h-436l207 1145q12 76 -14.5 128t-77.5 68l36 93q317 47 492 196l31 -8l-162 -901h12q133 203 293 298t303 95q106 0 167.5 -48t61.5 -126q0 -141 -126.5 -272
t-325.5 -203q47 -188 106.5 -246.5t143.5 -58.5zM930 795q-74 0 -153 -72t-140 -193q156 2 253 56.5t97 154.5q0 20 -15 37t-42 17z" />
    <glyph glyph-name="l" unicode="l" horiz-adv-x="714" 
d="M373 -41q-49 0 -90 9t-81 33t-58.5 73t-8.5 119l168 952q14 76 -12.5 128t-79.5 68l37 93q317 47 491 196l31 -8l-238 -1325q-33 -174 78 -174q25 0 47 8l11 -82q-121 -90 -295 -90z" />
    <glyph glyph-name="m" unicode="m" horiz-adv-x="1939" 
d="M1972 131l6 -82q-123 -90 -278 -90q-49 0 -93 9t-86 33t-62.5 73t-8.5 119l109 514q35 166 -80 165q-78 0 -145.5 -105t-98.5 -255q-25 -125 -37 -253t-10 -193v-66h-426l127 707q29 166 -84 165q-150 0 -223 -360q-25 -125 -37.5 -253t-12.5 -193l3 -66h-426l86 475
l28 158q12 78 -14.5 130t-77.5 66l37 95q319 47 491 196l31 -10l-41 -209l2 2h15q84 115 159.5 161t188.5 46q102 0 169.5 -52t88.5 -157l2 2h14q145 207 379 207q152 0 232.5 -110.5t33.5 -321.5l-82 -381q-18 -86 2.5 -130t69.5 -44q24 0 49 8z" />
    <glyph glyph-name="n" unicode="n" horiz-adv-x="1335" 
d="M1370 131l4 -82q-121 -90 -297 -90q-49 0 -90 9t-79 33t-55 73t-5 119l106 514q16 78 -11.5 121.5t-88.5 43.5q-90 0 -166 -106.5t-106 -253.5q-25 -125 -37.5 -253t-12.5 -193l3 -66h-426l86 475l28 158q12 78 -14.5 130t-77.5 66l37 95q324 47 494 196l28 -10l-39 -207
h15q80 113 170 160t206 47q164 0 250 -109.5t39 -322.5l-82 -381q-18 -86 2.5 -130t69.5 -44q24 0 49 8z" />
    <glyph glyph-name="o" unicode="o" horiz-adv-x="1257" 
d="M565 -41q-260 0 -392 160t-97 416q35 258 211 417.5t436 159.5t393 -159.5t98 -417.5q-35 -256 -212 -416t-437 -160zM590 137q84 0 149.5 110.5t87.5 287.5q25 178 -9 289.5t-118 111.5t-149.5 -110.5t-89.5 -290.5q-25 -178 10 -288t119 -110z" />
    <glyph glyph-name="p" unicode="p" horiz-adv-x="1398" 
d="M977 1112q193 0 295 -127t102 -336q0 -147 -57 -279t-148.5 -220.5t-206 -139.5t-229.5 -51q-170 0 -254 76h-14l-29 -164q-29 -164 74 -197l-37 -92h-555l-4 92q113 33 141 197l138 762q12 78 -14.5 130t-78.5 66l37 95q319 47 492 196l28 -10l-28 -164h14
q148 166 334 166zM674 137q92 0 170 93.5t117.5 217t39.5 238.5q0 221 -139 221q-106 0 -196.5 -129t-118.5 -297h-2l-43 -237q57 -107 172 -107z" />
    <glyph glyph-name="q" unicode="q" horiz-adv-x="1417" 
d="M1133 -129q-29 -164 71 -197l-37 -92h-553l-4 92q113 33 142 197l47 266h-13q-47 -86 -145 -132t-195 -46q-174 0 -276 107.5t-102 326.5q0 270 187 494.5t439 224.5q145 0 240.5 -58.5t138.5 -135.5h12l146 151h115zM614 197q63 0 133 55t105 178l70 393q-61 70 -146 70
q-94 0 -171 -84t-112.5 -191.5t-35.5 -203.5q0 -94 42.5 -155.5t114.5 -61.5z" />
    <glyph glyph-name="r" unicode="r" horiz-adv-x="1187" 
d="M1014 1110q111 0 185.5 -73.5t55.5 -180.5q-18 -98 -81.5 -166.5t-151.5 -68.5q-76 0 -119 34.5t-51 75.5t-26.5 76t-53.5 35q-51 0 -116.5 -116t-90.5 -263q-20 -127 -29.5 -243t-7.5 -167v-53h-428l115 633q12 78 -14.5 130t-77.5 66l37 95q319 47 491 196l31 -10
l-41 -209h14q88 115 162 162t197 47z" />
    <glyph glyph-name="s" unicode="s" horiz-adv-x="1261" 
d="M561 -41q-135 0 -253 25.5t-200.5 85t-82.5 141.5q0 66 43 103.5t114 37.5q51 0 87 -22.5t60.5 -54t51.5 -62.5t74 -53.5t112 -22.5q113 0 165 35t52 88q0 23 -17 42.5t-51 32.5t-64.5 22.5t-78 20.5t-69.5 17q-74 20 -126 43t-107.5 61t-84 97t-28.5 135
q0 166 153.5 273.5t427.5 107.5q207 0 340 -62.5t133 -168.5q0 -57 -33.5 -91t-101.5 -34q-51 0 -83.5 18.5t-50 44t-37 52t-59.5 45t-104 18.5q-98 0 -153 -28.5t-55 -76.5q0 -27 24.5 -49t68.5 -35.5t80.5 -21.5t84 -15.5t53.5 -9.5q172 -33 266 -102.5t94 -222.5
q0 -70 -29.5 -135.5t-97 -132t-202 -106.5t-316.5 -40z" />
    <glyph glyph-name="t" unicode="t" horiz-adv-x="829" 
d="M457 -41q-356 0 -299 322l104 602h-184l22 133q147 39 286.5 135t236.5 219h112l-53 -301h264l-33 -186h-264l-106 -609q-25 -139 80 -139q80 0 141 25l8 -152q-51 -16 -152.5 -32.5t-162.5 -16.5z" />
    <glyph glyph-name="u" unicode="u" horiz-adv-x="1316" 
d="M1292 123q25 0 47 8l11 -82q-121 -90 -297 -90q-106 0 -177 45t-65 164h-10q-82 -117 -162 -163t-193 -46q-166 0 -256 110.5t-38 323.5l88 381q37 174 -72 174q-25 0 -47 -8l-17 82q123 90 299 90q113 0 188 -50t52 -181l-117 -519q-18 -78 6.5 -120.5t85.5 -42.5
q92 0 162 104.5t105 267.5q25 125 36 249t9 188v61h428l-144 -772q-33 -174 78 -174z" />
    <glyph glyph-name="v" unicode="v" horiz-adv-x="1464" 
d="M1270 1112q96 0 157.5 -72.5t53.5 -236.5q-10 -154 -64.5 -326t-165.5 -299q-188 -219 -499 -219q-209 0 -328 107.5t-111 255.5q14 256 267 374l-5 11l-145 2q-90 0 -151.5 -37t-61.5 -94q0 -16 8 -33l-71 -25q-43 76 -43 172q-2 147 101 262t263 115h520l11 -20
q-25 -33 -63 -91.5t-110.5 -221.5t-93.5 -308q-18 -125 35 -208t156 -83q139 0 227 125q82 117 92 303q4 76 -13 125t-45 71.5t-56.5 42t-47 52.5t-16.5 86q4 74 62.5 122t136.5 48z" />
    <glyph glyph-name="w" unicode="w" horiz-adv-x="2007" 
d="M1819 1112q96 0 157.5 -72.5t53.5 -236.5q-8 -139 -64.5 -318.5t-159.5 -310.5q-166 -215 -407 -215q-88 0 -180.5 47t-135.5 141h-12q-63 -76 -165.5 -132t-217.5 -56q-195 0 -289 105.5t-86 257.5q14 258 265 374l-3 11l-145 2q-90 0 -151.5 -37t-61.5 -94q0 -16 8 -33
l-71 -25q-43 76 -43 172q-2 147 101 262t263 115h520l11 -20q-10 -12 -29 -37t-67 -100.5t-86 -153.5t-70.5 -191.5t-38.5 -220.5q-6 -113 47 -161t117 -48q86 0 193.5 139.5t127.5 288.5q20 137 -7.5 227.5t-23.5 149.5q4 76 53.5 123t125.5 47q51 0 92 -40t39 -87
q-4 -86 -59.5 -226.5t-71.5 -275.5q-8 -90 -1 -166.5t52 -128t121 -51.5q123 0 194 109q80 119 88 319q4 74 -14.5 122t-47 70.5t-57 43t-47 54.5t-16.5 87q4 74 62.5 122t136.5 48z" />
    <glyph glyph-name="x" unicode="x" horiz-adv-x="1482" 
d="M1274 1112q104 0 184 -65.5t76 -169.5q-4 -90 -56.5 -142.5t-119.5 -52.5q-70 0 -111 25.5t-51 55.5t-29.5 55.5t-52.5 25.5q-74 0 -166 -182q-6 -8 -47 -97l2 -6q139 -399 293 -399q68 0 143 57l52 -82q-145 -176 -375 -176q-137 0 -237.5 52t-180.5 190h-12l-8 -15
q-78 -133 -162 -183t-219 -50q-106 0 -186.5 65.5t-76.5 169.5q4 90 56.5 142.5t120.5 52.5q70 0 110.5 -25.5t52 -55.5t31 -55.5t49.5 -25.5q72 0 160 168q0 4 -3 12.5t-5 12.5l-74 219q-29 86 -110.5 136t-167.5 60l34 95q135 12 277.5 65t218.5 131l31 -10l112 -328h13
q25 51 51 97q80 133 163 183t220 50z" />
    <glyph glyph-name="y" unicode="y" horiz-adv-x="1288" 
d="M1112 1112q94 0 149.5 -58.5t51.5 -146.5q-12 -174 -107.5 -417.5t-204.5 -421.5q-57 -98 -133 -197q-262 -326 -544 -326q-98 0 -166 58.5t-64 138.5q4 78 62.5 128t140.5 50q53 0 90 -21.5t52.5 -47t32.5 -47t34 -21.5q53 0 143 90q-63 324 -117.5 536t-100.5 318.5
t-83 146t-80 39.5q-68 0 -149 -55l-51 80q168 174 393 174q119 0 197.5 -68.5t145 -245.5t132.5 -503h10q96 188 96 332q0 37 -31.5 81t-63.5 103t-32 133q0 76 57.5 122t139.5 46z" />
    <glyph glyph-name="z" unicode="z" horiz-adv-x="1464" 
d="M164 -41q-31 0 -56.5 21.5t-29.5 54.5q-10 80 97.5 205t305.5 206l377 275v12q-59 23 -115.5 75t-99.5 90t-78 38q-33 0 -57.5 -35t-40.5 -76t-55 -75.5t-99 -34.5q-53 0 -89 43t-36 104q0 106 85 178t251 72q145 0 330.5 -52t271.5 -52q57 0 119 30.5t86 73.5h25l59 -63
q4 -31 -31.5 -79t-109.5 -112.5t-125 -104.5t-133 -104q-135 -102 -301 -213v-12q61 -39 102 -94.5t56.5 -95t47 -68.5t85.5 -29q47 0 71.5 34t24.5 75q0 27 -41 73t-41 105q0 72 47 128t127 56q84 0 139.5 -59.5t55.5 -142.5q0 -184 -115 -315.5t-322 -131.5
q-135 0 -243.5 37t-185.5 73.5t-130 36.5q-39 0 -67.5 -22.5t-44 -51t-45 -51t-72.5 -22.5z" />
    <glyph glyph-name="braceleft" unicode="{" horiz-adv-x="876" 
d="M631 -440q-49 0 -100.5 7t-111 23.5t-105.5 44t-85 68.5t-47 98.5t8 130.5l84 322q23 90 -23 146.5t-145 56.5l23 143q98 0 162.5 56.5t70.5 148.5l17 319q6 106 67.5 184t152.5 117t176 56.5t163 17.5l-14 -102q-217 0 -226 -176l-16 -322q-8 -145 -106.5 -237.5
t-245.5 -129.5l-2 -8q135 -37 204.5 -128t32.5 -236l-86 -324q-25 -98 27.5 -136t140.5 -38z" />
    <glyph glyph-name="bar" unicode="|" horiz-adv-x="632" 
d="M137 -442l305 1927h160l-305 -1927h-160z" />
    <glyph glyph-name="braceright" unicode="}" horiz-adv-x="876" 
d="M-29 -440l17 102q213 0 223 174l16 324q8 145 106.5 236t246.5 128l2 8q-135 37 -205 128.5t-33 238.5l86 322q27 98 -26.5 137t-141.5 39l14 102q59 0 123 -10t134.5 -34.5t115.5 -68t70.5 -108t-2.5 -154.5l-82 -319q-25 -90 21 -147.5t147 -57.5l-23 -143
q-100 0 -164.5 -56.5t-68.5 -146.5l-19 -322q-4 -104 -66.5 -183t-153.5 -117t-176 -55t-161 -17z" />
    <glyph glyph-name="asciitilde" unicode="~" horiz-adv-x="1390" 
d="M887 545q-86 0 -165 39t-141.5 76.5t-109.5 37.5q-53 0 -86 -26.5t-45 -104.5h-147q37 225 151.5 334t263.5 109q86 0 166 -39t144.5 -78t113.5 -39q53 0 85 27.5t44 103.5h139q-37 -225 -149 -332.5t-264 -107.5z" />
    <glyph glyph-name="uni00A0" unicode="&#xa0;" horiz-adv-x="741" 
 />
    <glyph glyph-name="exclamdown" unicode="&#xa1;" horiz-adv-x="886" 
d="M461 991q-104 0 -163.5 67.5t-43.5 174t99 174.5t185.5 68t163 -68t44 -174.5t-99.5 -174t-185 -67.5zM301.5 -41q-104.5 0 -170 61.5t-41.5 200.5q16 109 111.5 296.5t136.5 365.5h223q-16 -180 19.5 -368.5t19.5 -293.5q-23 -139 -108.5 -200.5t-190 -61.5z" />
    <glyph glyph-name="cent" unicode="&#xa2;" horiz-adv-x="1351" 
d="M965 1229q145 -25 229 -111t63 -203q-10 -66 -69.5 -118t-124.5 -52q-78 0 -118 35t-49 85t-14 101.5t-28 86t-76 34.5q-68 0 -139.5 -78.5t-85.5 -179.5q-31 -195 50 -303t239 -108q84 0 166 46t131 118l59 -25q-41 -131 -141.5 -227.5t-253.5 -128.5l-31 -201h-197
l29 193q-199 23 -298 175t-66 347q35 217 181 355t349 163l31 201h196z" />
    <glyph glyph-name="sterling" unicode="&#xa3;" horiz-adv-x="1374" 
d="M1354 547q49 -39 76.5 -107.5t15.5 -146.5q-53 -334 -395 -334q-63 0 -130 28.5t-106 57.5t-113 88q-94 -92 -215.5 -133t-226.5 -41q-170 0 -248 76t-61 184q18 117 130 189.5t243 72.5q57 0 108 -6q-4 76 -57 203h-266l30 196h189q0 76 10 142q25 152 123 258
t235.5 153.5t300.5 47.5q217 0 335 -95.5t93 -249.5q-16 -96 -76.5 -156.5t-144.5 -60.5t-122 39t-27 97q4 20 17 59t15 53q10 53 -18.5 92t-83.5 39q-84 0 -136 -74.5t-69 -177.5q-14 -90 2 -166h281l-31 -196h-184q35 -102 20 -209q-8 -57 -28 -115q182 -74 295 -73
q51 0 97 30.5t56 89.5q2 18 -3 38t-11 28l-8 10zM252 164q117 0 158 149q-55 16 -113 17q-45 0 -86 -25.5t-47 -60.5q-4 -35 21.5 -57.5t66.5 -22.5z" />
    <glyph glyph-name="currency" unicode="&#xa4;" horiz-adv-x="1773" 
d="M1294 152l-155 188q-129 -70 -276.5 -70t-252.5 70l-219 -188l-164 196l217 187q-49 113 -26 264q27 152 112 262l-159 190l225 195l160 -189q129 70 274 70q143 0 252 -70l217 189l170 -199l-221 -184q51 -121 27 -264q-20 -143 -111 -264l158 -187zM909.5 561
q96.5 0 177 70.5t97 167t-43 167t-155.5 70.5t-179 -70.5t-97.5 -167t45 -167t156 -70.5z" />
    <glyph glyph-name="yen" unicode="&#xa5;" horiz-adv-x="1531" 
d="M1640 1434l7 -93q-104 -27 -236 -196l-254 -332h203l-27 -174h-301l-22 -139h301l-29 -178h-299l-6 -33q-25 -166 76 -197l-35 -92h-623l-6 92q113 33 137 197l6 33h-299l29 178h297l23 139h-297l26 174h203l-147 332q-80 172 -177 196l35 93h688l7 -93
q-45 -16 -58.5 -65t19.5 -131l120 -268h15l205 268q59 76 62 130t-40 66l35 93h362z" />
    <glyph glyph-name="brokenbar" unicode="&#xa6;" horiz-adv-x="632" 
d="M309 639l133 846h160l-133 -846h-160zM137 -442l135 843h160l-135 -843h-160z" />
    <glyph glyph-name="section" unicode="&#xa7;" horiz-adv-x="1318" 
d="M748 1317q-72 0 -119 -36t-54 -89q-2 -18 6.5 -36.5t30 -34t41 -27t54 -24.5t54 -19.5t55.5 -17.5t44 -13q174 -51 239.5 -131t49.5 -189q-18 -109 -127 -208q80 -80 61 -201q-23 -143 -176 -237.5t-340 -94.5q-184 0 -295.5 83t-95.5 189q10 55 52 92t103.5 37
t94.5 -38.5t41 -83.5t46 -84t108 -39q74 0 119.5 34.5t56.5 92.5q6 39 -43 73.5t-103.5 53t-118.5 37.5l-24 6q-172 53 -237.5 132t-49.5 187q18 111 129 213q-82 82 -63 199q23 143 177 237.5t338.5 94.5t296 -84t93.5 -191q-8 -53 -51 -90t-105 -37q-51 0 -79.5 25.5
t-42 61.5t-28 71t-48 60.5t-90.5 25.5zM723 780q-133 31 -223 70q-14 -20 -17 -43q-8 -49 26 -89t138 -65q133 -31 223 -69q14 20 17 43q8 47 -26 87.5t-138 65.5z" />
    <glyph glyph-name="dieresis" unicode="&#xa8;" horiz-adv-x="724" 
d="M268 1176q-84 0 -123 49t-28 114q12 70 66.5 120t138.5 50t124.5 -51t28.5 -119q-10 -66 -67.5 -114.5t-139.5 -48.5zM723 1176q-82 0 -122 49t-30 114q12 68 67.5 119t137.5 51q84 0 125 -51t29 -119q-10 -66 -67.5 -114.5t-139.5 -48.5z" />
    <glyph glyph-name="copyright" unicode="&#xa9;" horiz-adv-x="1771" 
d="M827.5 -41q-321.5 0 -515 222t-144.5 536q49 311 313 534.5t586 223.5t515.5 -223.5t143.5 -534.5q-49 -313 -313 -535.5t-585.5 -222.5zM844 55q281 0 510 193.5t272 468t-125 467t-450 192.5q-281 0 -510.5 -193.5t-272.5 -465.5q-43 -274 125 -468t451 -194zM877 233
q-217 0 -330 132.5t-74 373.5q29 186 186.5 327.5t358.5 141.5q47 0 153.5 -12t161.5 -12h23l12 -322l-70 -14q-25 111 -95 177.5t-169 66.5q-119 0 -210 -104.5t-115 -252.5q-29 -178 34.5 -272t182.5 -94q217 0 327 264l86 -17q-35 -154 -165.5 -268.5t-296.5 -114.5z" />
    <glyph glyph-name="ordfeminine" unicode="&#xaa;" horiz-adv-x="710" 
d="M805 1053q12 0 20 4l2 -37q-49 -37 -125 -37q-102 0 -102 78v-2h-6q-41 -76 -133 -76q-74 0 -118 46t-44 138q0 117 77 212.5t181 95.5q78 0 107 -54h4l16 52h176q-47 -106 -72 -242l-18 -105q-12 -73 35 -73zM532 1083q59 0 89 103l28 168q-23 27 -55 26
q-59 0 -94 -66.5t-35 -137.5q0 -41 18 -67t49 -26zM266 803l19 119h483l-18 -119h-484z" />
    <glyph glyph-name="guillemotleft" unicode="&#xab;" horiz-adv-x="1241" 
d="M440 -39l-364 479l18 125l518 479l86 -65l-270 -477l119 -477zM924 -39l-365 479l19 125l518 479l86 -65l-271 -477l119 -477z" />
    <glyph glyph-name="logicalnot" unicode="&#xac;" horiz-adv-x="1300" 
d="M967 489l45 283h-865l33 199h1075l-77 -482h-211z" />
    <glyph glyph-name="uni00AD" unicode="&#xad;" horiz-adv-x="485" 
d="M45 410l27 172h413l-26 -172h-414z" />
    <glyph glyph-name="registered" unicode="&#xae;" horiz-adv-x="1042" 
d="M647 1475q174 0 277.5 -120t76.5 -288q-27 -166 -168 -285.5t-315 -119.5q-172 0 -276.5 119.5t-77.5 285.5q27 168 169 288t314 120zM913 1067q20 133 -61.5 228.5t-218.5 95.5q-135 0 -248 -95.5t-133 -228.5q-20 -131 61.5 -226.5t216.5 -95.5q137 0 248.5 94.5
t134.5 227.5zM649 1278q80 0 124 -32t36 -87q-12 -86 -117 -110l-2 -7q27 -4 42.5 -17t20.5 -26.5t9 -40.5q0 -4 1 -15t2 -15t3 -11.5t6 -10.5t10.5 -4t16.5 -1l-2 -31q-41 -12 -82 -12q-96 0 -107 80q-6 61 -19 78.5t-63 17.5h-6l-12 -82q-6 -49 22 -57l-10 -27h-178l-2 27
q33 10 39 57l39 244q6 49 -23 55l11 27h241zM594 1227q-8 0 -21.5 -1t-19.5 -1l-23 -138h50q88 0 100 66q4 35 -19.5 54.5t-66.5 19.5z" />
    <glyph glyph-name="macron" unicode="&#xaf;" horiz-adv-x="614" 
d="M123 1233l27 174h665l-27 -174h-665z" />
    <glyph glyph-name="degree" unicode="&#xb0;" horiz-adv-x="675" 
d="M424 1004q-98 0 -157.5 68.5t-43.5 164.5q14 98 96 168t180.5 70t157 -70t41.5 -168q-16 -96 -96 -164.5t-178 -68.5zM442.5 1116q51.5 0 92 35t49 86t-21.5 87t-81 36t-93 -36t-50 -87t22.5 -86t82 -35z" />
    <glyph glyph-name="plusminus" unicode="&#xb1;" 
d="M680 227l68 420h-498l22 146h498l78 497h145l-78 -497h502l-22 -146h-502l-68 -420h-145zM147 0l23 145h1145l-23 -145h-1145z" />
    <glyph glyph-name="uni00B2" unicode="&#xb2;" horiz-adv-x="473" 
d="M575 1079l35 -18l-90 -182h-381l17 96q248 150 272 311q6 43 -13.5 69.5t-54.5 26.5q-39 0 -73.5 -36.5t-44.5 -102.5l-49 8q14 90 78.5 144.5t154.5 54.5t141 -43t39 -121q-14 -88 -90 -152.5t-203 -123.5v-4h47q141 -1 215 73z" />
    <glyph glyph-name="uni00B3" unicode="&#xb3;" horiz-adv-x="462" 
d="M309 862q-70 0 -123 28t-45 81q10 66 74 65q31 0 45 -17.5t15 -36.5t10.5 -36.5t31.5 -17.5q37 0 65 28.5t36 82t-14.5 86t-71.5 32.5h-23l8 57h19q35 0 59.5 26t28.5 65q6 37 -12.5 57t-53 20t-63.5 -26.5t-41 -75.5l-39 4q16 76 74.5 120t142.5 44t130 -35t36 -92
q-14 -82 -115 -115l-2 -6q59 -10 91 -50t24 -95q-12 -84 -88 -138.5t-199 -54.5z" />
    <glyph glyph-name="acute" unicode="&#xb4;" horiz-adv-x="688" 
d="M385 1153l-78 72l268 272q49 47 86 68.5t87 21.5q47 0 74.5 -30.5t19.5 -73.5q-12 -86 -119 -144z" />
    <glyph glyph-name="mu" unicode="&#xb5;" horiz-adv-x="1275" 
d="M1303 184l12 -143q-45 -33 -129 -57.5t-144 -24.5q-123 0 -187 37t-67 131h-8q-147 -166 -370 -166h-31l-4 -6q102 -137 88 -227q-16 -102 -86 -153.5t-170 -51.5q-94 0 -150.5 61.5t-40.5 165.5l101 637q2 2 2 6l92 588h381l-96 -616q-12 -76 27.5 -121t111.5 -45
q61 0 115.5 50t70.5 120l10 61l5 31l82 520h378l-112 -735q-14 -78 49 -78q39 0 70 16z" />
    <glyph glyph-name="paragraph" unicode="&#xb6;" horiz-adv-x="1300" 
d="M424 -453q-160 0 -230.5 56.5t-56.5 148.5q10 61 59.5 99t106.5 38t92 -29.5t47.5 -65.5t37 -65.5t65.5 -29.5q201 0 246 278l114 734q-231 2 -335.5 110.5t-82.5 259.5q25 158 162 255.5t338 97.5h365l4 -68q-63 -20 -109.5 -70.5t-58.5 -126.5l-172 -1085
q-45 -283 -204 -410t-388 -127z" />
    <glyph glyph-name="periodcentered" unicode="&#xb7;" horiz-adv-x="798" 
d="M368.5 481q-102.5 0 -164 67.5t-44.5 174.5q18 106 100 174t184.5 68t164 -68t42.5 -174q-16 -106 -98 -174t-184.5 -68z" />
    <glyph glyph-name="cedilla" unicode="&#xb8;" horiz-adv-x="765" 
d="M264 -483q-113 0 -181.5 50t-57.5 120q4 31 32.5 57.5t61.5 26.5q41 0 62.5 -22.5t25.5 -51.5t26.5 -51.5t67.5 -22.5t79 25.5t42 70.5q2 25 -13.5 40.5t-41.5 15.5q-31 0 -58 -19l-73 35l165 277l125 -60l-82 -131q18 8 50 8q72 0 109.5 -35.5t27.5 -95.5
q-14 -96 -119 -166.5t-248 -70.5z" />
    <glyph glyph-name="uni00B9" unicode="&#xb9;" horiz-adv-x="327" 
d="M141 879l-2 34q66 18 76 76l51 320h-57l-2 43l205 82h53l-70 -445q-10 -55 49 -76l-14 -34h-289z" />
    <glyph glyph-name="ordmasculine" unicode="&#xba;" horiz-adv-x="722" 
d="M555 985q-111 0 -167 67.5t-42 178.5q16 109 91 176.5t186 67.5q113 0 169 -68t39 -176q-14 -111 -89.5 -178.5t-186.5 -67.5zM565 1061q37 0 64.5 47t38 123t-4 123t-51.5 47q-35 0 -62.5 -48t-37.5 -122q-10 -76 4 -123t49 -47zM285 803l18 119h483l-18 -119h-483z" />
    <glyph glyph-name="guillemotright" unicode="&#xbb;" horiz-adv-x="1257" 
d="M193 -39l-87 64l271 477l-119 477l107 65l366 -479l-18 -125zM676 -39l-86 64l270 477l-119 477l107 65l366 -479l-18 -125z" />
    <glyph glyph-name="onequarter" unicode="&#xbc;" horiz-adv-x="1005" 
d="M756 879h-289l-2 34q66 18 76 76l51 320h-57l-3 43l205 82h54l-70 -445q-10 -55 49 -76zM250 778h700l-20 -121h-701zM680 555l-57 -365h86l-25 -63h-72l-2 -16q-10 -55 49 -76l-10 -35h-291l-4 35q66 18 76 76l2 16h-225l8 47l338 381h127zM307 190h135l29 181h-6
l-156 -176z" />
    <glyph glyph-name="onehalf" unicode="&#xbd;" horiz-adv-x="958" 
d="M733 879h-289l-2 34q66 18 76 76l51 320h-57l-2 43l205 82h53l-70 -445q-10 -55 50 -76zM227 778h701l-21 -121h-700zM473 127q141 0 215 74l35 -19l-92 -198h-15q-27 16 -118 16h-244l14 96q248 150 273 312q6 43 -13.5 69.5t-54.5 26.5q-39 0 -73.5 -37t-45.5 -102
l-49 8q14 90 79 144t155 54t141 -43t39 -120q-14 -88 -90 -153t-203 -124v-4h47z" />
    <glyph glyph-name="threequarters" unicode="&#xbe;" horiz-adv-x="1021" 
d="M586 862q-70 0 -123 28t-45 81q10 66 74 65q31 0 45 -17.5t15 -36.5t10 -36.5t32 -17.5q37 0 64.5 28.5t35.5 82t-14.5 86t-71.5 32.5h-22l8 57h18q35 0 59.5 26t28.5 65q6 37 -12 57t-53 20t-63.5 -26.5t-41.5 -75.5l-38 4q16 76 74.5 120t142.5 44t130 -35t35 -92
q-14 -82 -116 -115v-6q59 -10 91 -50t23 -95q-12 -84 -87.5 -138.5t-198.5 -54.5zM266 778h701l-21 -121h-700zM696 555l-57 -365h86l-25 -63h-71l-2 -16q-10 -55 49 -76l-10 -35h-291l-4 35q66 18 75 76l3 16h-226l8 47l338 381h127zM324 190h135l28 181h-6l-155 -176z" />
    <glyph glyph-name="questiondown" unicode="&#xbf;" horiz-adv-x="1247" 
d="M829.5 993q-102.5 0 -164 67.5t-44.5 174.5q14 106 96 174t186 68q102 0 163.5 -68t45.5 -174q-14 -106 -97 -174t-185.5 -68zM684 -39q-233 0 -441 140.5t-210 316.5q0 82 29.5 145.5t85 103.5t119 67.5t143 39.5t144 17.5t138.5 5.5l13 88h231l-57 -375h-99
q-61 0 -99 -1t-109.5 -4t-117.5 -12.5t-95.5 -24.5t-74 -40t-24.5 -59q2 -90 88 -163t211 -73q55 0 92 24.5t57.5 59.5t41 71t61.5 60.5t102 24.5q72 0 120 -50.5t48 -117.5q2 -115 -108.5 -179.5t-288.5 -64.5z" />
    <glyph glyph-name="Agrave" unicode="&#xc0;" horiz-adv-x="1499" 
d="M600 1704q-86 57 -74 143q8 43 45 74t84 31q82 0 142 -90l184 -273l-100 -71zM1329 289q37 -164 154 -197l-37 -92h-651l-4 92q100 33 59 197l-4 14h-514l-8 -14q-98 -164 -11 -197l-37 -92h-342l-4 92q127 33 222 197l489 827q-31 55 -104 88l30 92q31 6 81 19.5
t171 61.5t201 106h20zM438 481h367l-103 426h-12z" />
    <glyph glyph-name="Aacute" unicode="&#xc1;" horiz-adv-x="1499" 
d="M1120 1704l-338 -186l-77 71l268 273q49 47 86 68.5t86 21.5q47 0 74.5 -31t19.5 -74q-13 -86 -119 -143zM1329 289q37 -164 154 -197l-37 -92h-651l-4 92q100 33 59 197l-4 14h-514l-8 -14q-98 -164 -11 -197l-37 -92h-342l-4 92q127 33 222 197l489 827q-31 55 -104 88
l30 92q31 6 81 19.5t171 61.5t201 106h20zM438 481h367l-103 426h-12z" />
    <glyph glyph-name="Acircumflex" unicode="&#xc2;" horiz-adv-x="1499" 
d="M887 1622l-305 -113l-39 90l389 306l289 -306l-66 -90zM1329 289q37 -164 154 -197l-37 -92h-651l-4 92q100 33 59 197l-4 14h-514l-8 -14q-98 -164 -11 -197l-37 -92h-342l-4 92q127 33 222 197l489 827q-31 55 -104 88l30 92q31 6 81 19.5t171 61.5t201 106h20z
M438 481h367l-103 426h-12z" />
    <glyph glyph-name="Atilde" unicode="&#xc3;" horiz-adv-x="1499" 
d="M700 1696q-66 0 -94 -76l-117 29q37 139 107 195.5t145 56.5q68 0 152 -47.5t123 -47.5q68 0 96 72l111 -27q-35 -139 -105.5 -195.5t-146.5 -56.5q-68 0 -150 48.5t-121 48.5zM1329 289q37 -164 154 -197l-37 -92h-651l-4 92q100 33 59 197l-4 14h-514l-8 -14
q-98 -164 -11 -197l-37 -92h-342l-4 92q127 33 222 197l489 827q-31 55 -104 88l30 92q31 6 81 19.5t171 61.5t201 106h20zM438 481h367l-103 426h-12z" />
    <glyph glyph-name="Adieresis" unicode="&#xc4;" horiz-adv-x="1499" 
d="M629 1540q-84 0 -123 49t-29 115q12 70 66.5 120t138.5 50t125 -51t29 -119q-10 -66 -67.5 -115t-139.5 -49zM1083 1540q-82 0 -121.5 49t-29.5 115q12 68 67.5 119t137.5 51q84 0 125 -51t28 -119q-10 -66 -67.5 -115t-139.5 -49zM1329 289q37 -164 154 -197l-37 -92
h-651l-4 92q100 33 59 197l-4 14h-514l-8 -14q-98 -164 -11 -197l-37 -92h-342l-4 92q127 33 222 197l489 827q-31 55 -104 88l30 92q31 6 81 19.5t171 61.5t201 106h20zM438 481h367l-103 426h-12z" />
    <glyph glyph-name="Aring" unicode="&#xc5;" horiz-adv-x="1499" 
d="M848 1536q-90 0 -145.5 63.5t-40.5 153.5q14 88 89.5 152.5t166 64.5t144.5 -64.5t40 -152.5q-14 -90 -89 -153.5t-165 -63.5zM803 1753q-6 -35 13.5 -59.5t52 -24.5t60 24.5t34.5 59.5q4 33 -15.5 55.5t-52.5 22.5t-60.5 -22.5t-31.5 -55.5zM1329 289q37 -164 154 -197
l-37 -92h-651l-4 92q100 33 59 197l-4 14h-514l-8 -14q-98 -164 -11 -197l-37 -92h-342l-4 92q127 33 222 197l489 827q-31 55 -104 88l30 92q31 6 81 19.5t171 61.5t201 106h20zM438 481h367l-103 426h-12z" />
    <glyph glyph-name="AE" unicode="&#xc6;" horiz-adv-x="2183" 
d="M1497 688q-45 0 -78 -33l-73 -458q119 -18 186 -19q88 0 176 29t150.5 70.5t112.5 83.5t75 71l25 29l86 -45l-209 -457h-33q-27 16 -131.5 28.5t-171.5 12.5h-834l-4 92q109 33 137 197l2 14h-524l-12 -14q-141 -164 -62 -197l-34 -92h-373l-6 92q135 33 274 197l840 989
q-33 45 -86 63l35 93h1210l14 -394l-98 -32q-2 10 -8 26.5t-36 59.5t-71 76.5t-122.5 60t-184.5 26.5q-74 0 -156 -16l-57 -356l12 -4q96 74 189 73q88 0 186.5 -65.5t159.5 -65.5q51 0 98 43l64 -71q-137 -238 -334 -238q-63 0 -174 65.5t-160 65.5zM543 483h399l88 561
h-10z" />
    <glyph glyph-name="Ccedilla" unicode="&#xc7;" horiz-adv-x="1488" 
d="M997 1475q233 0 380 -115t118 -285q-16 -88 -73.5 -149.5t-143.5 -61.5q-94 0 -137 45t-47 108.5t-6.5 127t-32 108.5t-103.5 45q-111 0 -208 -154.5t-136 -371.5q-59 -303 -0.5 -469t250.5 -166q231 0 422 334l119 -68q-66 -178 -205 -293.5t-348 -142.5l-55 -90
q18 8 49 8q72 0 109.5 -35.5t27.5 -95.5q-14 -96 -118.5 -166.5t-248.5 -70.5q-113 0 -181.5 50t-57.5 120q4 31 32.5 57.5t61.5 26.5q41 0 62.5 -22.5t25.5 -51.5t26.5 -51.5t67.5 -22.5t79 25.5t42 70.5q2 25 -13.5 40.5t-41.5 15.5q-31 0 -58 -19l-73 35l100 168
q-307 16 -457.5 249.5t-93.5 559.5q55 311 298.5 509t567.5 198z" />
    <glyph glyph-name="Egrave" unicode="&#xc8;" horiz-adv-x="1396" 
d="M549 1704q-86 57 -74 143q8 43 45 74t84 31q82 0 141 -90l185 -273l-101 -71zM723 688q-43 0 -76 -31l-82 -462q121 -18 187 -19q88 0 176 28.5t151.5 70.5t113.5 84t77 71l24 29l84 -45l-153 -455h-33q-27 16 -131.5 28.5t-171.5 12.5h-895l-4 92q113 33 141 197
l152 856q29 164 -72 196l37 93h1126l49 -396l-98 -32q-2 10 -8 26.5t-34 59.5t-70 76.5t-122.5 60t-183.5 26.5q-76 0 -157 -16l-62 -356l6 -2q96 74 189 73q88 0 186 -65.5t160 -65.5q51 0 98 43l64 -71q-137 -238 -334 -238q-63 0 -174 65.5t-160 65.5z" />
    <glyph glyph-name="Eacute" unicode="&#xc9;" horiz-adv-x="1396" 
d="M1135 1704l-338 -186l-78 71l268 273q49 47 86 68.5t86 21.5q47 0 75 -31t19 -74q-12 -86 -118 -143zM723 688q-43 0 -76 -31l-82 -462q121 -18 187 -19q88 0 176 28.5t151.5 70.5t113.5 84t77 71l24 29l84 -45l-153 -455h-33q-27 16 -131.5 28.5t-171.5 12.5h-895l-4 92
q113 33 141 197l152 856q29 164 -72 196l37 93h1126l49 -396l-98 -32q-2 10 -8 26.5t-34 59.5t-70 76.5t-122.5 60t-183.5 26.5q-76 0 -157 -16l-62 -356l6 -2q96 74 189 73q88 0 186 -65.5t160 -65.5q51 0 98 43l64 -71q-137 -238 -334 -238q-63 0 -174 65.5t-160 65.5z
" />
    <glyph glyph-name="Ecircumflex" unicode="&#xca;" horiz-adv-x="1396" 
d="M891 1622l-305 -113l-39 90l389 306l289 -306l-66 -90zM723 688q-43 0 -76 -31l-82 -462q121 -18 187 -19q88 0 176 28.5t151.5 70.5t113.5 84t77 71l24 29l84 -45l-153 -455h-33q-27 16 -131.5 28.5t-171.5 12.5h-895l-4 92q113 33 141 197l152 856q29 164 -72 196
l37 93h1126l49 -396l-98 -32q-2 10 -8 26.5t-34 59.5t-70 76.5t-122.5 60t-183.5 26.5q-76 0 -157 -16l-62 -356l6 -2q96 74 189 73q88 0 186 -65.5t160 -65.5q51 0 98 43l64 -71q-137 -238 -334 -238q-63 0 -174 65.5t-160 65.5z" />
    <glyph glyph-name="Edieresis" unicode="&#xcb;" horiz-adv-x="1396" 
d="M657 1540q-84 0 -122.5 49t-28.5 115q12 70 66.5 120t138.5 50t125 -51t28 -119q-10 -66 -67.5 -115t-139.5 -49zM1112 1540q-82 0 -122 49t-29 115q12 68 67 119t137 51q84 0 125 -51t29 -119q-10 -66 -67.5 -115t-139.5 -49zM723 688q-43 0 -76 -31l-82 -462
q121 -18 187 -19q88 0 176 28.5t151.5 70.5t113.5 84t77 71l24 29l84 -45l-153 -455h-33q-27 16 -131.5 28.5t-171.5 12.5h-895l-4 92q113 33 141 197l152 856q29 164 -72 196l37 93h1126l49 -396l-98 -32q-2 10 -8 26.5t-34 59.5t-70 76.5t-122.5 60t-183.5 26.5
q-76 0 -157 -16l-62 -356l6 -2q96 74 189 73q88 0 186 -65.5t160 -65.5q51 0 98 43l64 -71q-137 -238 -334 -238q-63 0 -174 65.5t-160 65.5z" />
    <glyph glyph-name="Igrave" unicode="&#xcc;" horiz-adv-x="774" 
d="M506 1518l-281 186q-86 57 -73 143q8 43 44.5 74t84.5 31q82 0 141 -90l184 -273zM-14 0l-6 92q113 33 141 197l151 856q29 164 -71 196l37 93h622l4 -93q-113 -33 -141 -196l-152 -856q-29 -164 72 -197l-37 -92h-620z" />
    <glyph glyph-name="Iacute" unicode="&#xcd;" horiz-adv-x="784" 
d="M475 1518l-78 71l269 273q49 47 85.5 68.5t86.5 21.5q47 0 74.5 -31t19.5 -74q-12 -86 -119 -143zM-4 0l-6 92q113 33 141 197l152 856q29 164 -72 196l37 93h622l4 -93q-113 -33 -141 -196l-151 -856q-29 -164 71 -197l-37 -92h-620z" />
    <glyph glyph-name="Icircumflex" unicode="&#xce;" horiz-adv-x="784" 
d="M293 1509l-39 90l389 306l289 -306l-66 -90l-268 113zM-4 0l-6 92q113 33 141 197l152 856q29 164 -72 196l37 93h622l4 -93q-113 -33 -141 -196l-151 -856q-29 -164 71 -197l-37 -92h-620z" />
    <glyph glyph-name="Idieresis" unicode="&#xcf;" horiz-adv-x="784" 
d="M362 1540q-84 0 -122.5 49t-28.5 115q12 70 66.5 120t138.5 50t125 -51t28 -119q-10 -66 -67.5 -115t-139.5 -49zM817 1540q-82 0 -122 49t-29 115q12 68 67 119t137 51q84 0 125 -51t29 -119q-10 -66 -67.5 -115t-139.5 -49zM-4 0l-6 92q113 33 141 197l152 856
q29 164 -72 196l37 93h622l4 -93q-113 -33 -141 -196l-151 -856q-29 -164 71 -197l-37 -92h-620z" />
    <glyph glyph-name="Eth" unicode="&#xd0;" horiz-adv-x="1568" 
d="M893 1434q330 0 522.5 -215t140.5 -539q-109 -680 -849 -680h-701l-6 92q113 33 137 197l53 327h-196l33 201h194l53 328q25 164 -75 196l34 93h660zM1100 602q23 109 11.5 224.5t-43.5 212t-109.5 157.5t-188.5 61h-29l-69 -440h186l-31 -199h-186l-70 -430
q76 -10 142 -10q162 0 260 123t127 301z" />
    <glyph glyph-name="Ntilde" unicode="&#xd1;" horiz-adv-x="1536" 
d="M866 1696q-66 0 -94 -76l-117 29q37 139 106.5 195.5t145.5 56.5q68 0 152 -47.5t123 -47.5q68 0 96 72l111 -27q-35 -139 -106 -195.5t-146 -56.5q-68 0 -150 48.5t-121 48.5zM1636 1434l4 -93q-113 -33 -141 -196l-203 -1145h-206q-10 82 -52.5 155.5t-100.5 129
t-132 121t-143.5 125t-136 146.5t-107.5 181h-10l-101 -569q-29 -164 74 -197l-37 -92h-350l-4 92q113 33 141 197l152 856q29 164 -74 196l37 93h350q61 -127 137 -230.5t145.5 -171t134 -127t121 -126t89.5 -140.5h10l88 506q29 164 -72 196l37 93h350z" />
    <glyph glyph-name="Ograve" unicode="&#xd2;" horiz-adv-x="1611" 
d="M967 1518l-281 186q-86 57 -74 143q8 43 45 74t84 31q82 0 142 -90l184 -273zM729 -41q-141 0 -263 52t-208 146.5t-123 237t-6 310.5q59 346 299 558t569 212q299 0 479.5 -216.5t121 -554t-306.5 -541.5t-562 -204zM762 135q115 0 226.5 166t156.5 422
q47 258 -6.5 415.5t-171.5 157.5q-113 0 -223.5 -158.5t-155.5 -414.5q-47 -262 1 -425t173 -163z" />
    <glyph glyph-name="Oacute" unicode="&#xd3;" horiz-adv-x="1611" 
d="M956 1518l-77 71l268 273q49 47 86 68.5t86 21.5q47 0 74.5 -31t19.5 -74q-12 -86 -119 -143zM729 -41q-141 0 -263 52t-208 146.5t-123 237t-6 310.5q59 346 299 558t569 212q299 0 479.5 -216.5t121 -554t-306.5 -541.5t-562 -204zM762 135q115 0 226.5 166t156.5 422
q47 258 -6.5 415.5t-171.5 157.5q-113 0 -223.5 -158.5t-155.5 -414.5q-47 -262 1 -425t173 -163z" />
    <glyph glyph-name="Ocircumflex" unicode="&#xd4;" horiz-adv-x="1611" 
d="M725 1509l-39 90l389 306l289 -306l-66 -90l-268 113zM729 -41q-141 0 -263 52t-208 146.5t-123 237t-6 310.5q59 346 299 558t569 212q299 0 479.5 -216.5t121 -554t-306.5 -541.5t-562 -204zM762 135q115 0 226.5 166t156.5 422q47 258 -6.5 415.5t-171.5 157.5
q-113 0 -223.5 -158.5t-155.5 -414.5q-47 -262 1 -425t173 -163z" />
    <glyph glyph-name="Otilde" unicode="&#xd5;" horiz-adv-x="1611" 
d="M1176 1599q-68 0 -150 48.5t-121 48.5q-66 0 -94 -76l-117 29q37 139 106.5 195.5t145.5 56.5q68 0 152 -47.5t123 -47.5q68 0 96 72l110 -27q-35 -139 -105 -195.5t-146 -56.5zM729 -41q-141 0 -263 52t-208 146.5t-123 237t-6 310.5q59 346 299 558t569 212
q299 0 479.5 -216.5t121 -554t-306.5 -541.5t-562 -204zM762 135q115 0 226.5 166t156.5 422q47 258 -6.5 415.5t-171.5 157.5q-113 0 -223.5 -158.5t-155.5 -414.5q-47 -262 1 -425t173 -163z" />
    <glyph glyph-name="Odieresis" unicode="&#xd6;" horiz-adv-x="1611" 
d="M756 1540q-84 0 -123 49t-29 115q12 70 66.5 120t138.5 50t125 -51t29 -119q-10 -66 -67.5 -115t-139.5 -49zM1210 1540q-82 0 -121.5 49t-29.5 115q12 68 67.5 119t137.5 51q84 0 125 -51t28 -119q-10 -66 -67.5 -115t-139.5 -49zM729 -41q-141 0 -263 52t-208 146.5
t-123 237t-6 310.5q59 346 299 558t569 212q299 0 479.5 -216.5t121 -554t-306.5 -541.5t-562 -204zM762 135q115 0 226.5 166t156.5 422q47 258 -6.5 415.5t-171.5 157.5q-113 0 -223.5 -158.5t-155.5 -414.5q-47 -262 1 -425t173 -163z" />
    <glyph glyph-name="multiply" unicode="&#xd7;" horiz-adv-x="1230" 
d="M281 260l-93 102l430 355l-319 352l125 102l319 -352l433 352l92 -102l-432 -352l321 -355l-125 -102l-321 354z" />
    <glyph glyph-name="Oslash" unicode="&#xd8;" horiz-adv-x="1611" 
d="M1397 1337q125 -104 180 -267t20 -365q-59 -338 -306 -542t-562 -204q-154 0 -283 59l-104 -143l-121 78l103 143q-123 100 -176.5 256t-18.5 353q59 346 299 558t569 212q150 0 279 -60l104 146l123 -76zM588 723q-27 -158 -21 -291l549 762q-55 102 -149 102
q-113 0 -223.5 -158.5t-155.5 -414.5zM1145 723q29 156 18 289l-555 -766q53 -111 154 -111q115 0 226.5 166t156.5 422z" />
    <glyph glyph-name="Ugrave" unicode="&#xd9;" 
d="M1051 1518l-281 186q-86 57 -74 143q8 43 45 74t84 31q82 0 142 -90l184 -273zM676 -41q-127 0 -226.5 29.5t-175 93t-103.5 176.5t-1 268l113 619q29 164 -72 196l37 93h620l6 -93q-113 -33 -143 -196l-110 -617q-35 -197 27.5 -293t195.5 -96q293 0 362 389l109 617
q29 164 -72 196l39 93h348l4 -93q-113 -33 -141 -196l-111 -619q-51 -283 -240.5 -425t-465.5 -142z" />
    <glyph glyph-name="Uacute" unicode="&#xda;" 
d="M1067 1518l-78 71l268 273q49 47 86 68.5t87 21.5q47 0 74.5 -31t19.5 -74q-12 -86 -119 -143zM676 -41q-127 0 -226.5 29.5t-175 93t-103.5 176.5t-1 268l113 619q29 164 -72 196l37 93h620l6 -93q-113 -33 -143 -196l-110 -617q-35 -197 27.5 -293t195.5 -96
q293 0 362 389l109 617q29 164 -72 196l39 93h348l4 -93q-113 -33 -141 -196l-111 -619q-51 -283 -240.5 -425t-465.5 -142z" />
    <glyph glyph-name="Ucircumflex" unicode="&#xdb;" 
d="M793 1509l-39 90l389 306l289 -306l-66 -90l-268 113zM676 -41q-127 0 -226.5 29.5t-175 93t-103.5 176.5t-1 268l113 619q29 164 -72 196l37 93h620l6 -93q-113 -33 -143 -196l-110 -617q-35 -197 27.5 -293t195.5 -96q293 0 362 389l109 617q29 164 -72 196l39 93h348
l4 -93q-113 -33 -141 -196l-111 -619q-51 -283 -240.5 -425t-465.5 -142z" />
    <glyph glyph-name="Udieresis" unicode="&#xdc;" 
d="M877 1540q-84 0 -123 49t-29 115q12 70 66.5 120t138.5 50t125 -51t28 -119q-10 -66 -67 -115t-139 -49zM1331 1540q-82 0 -122 49t-29 115q12 68 67.5 119t136.5 51q84 0 125 -51t29 -119q-10 -66 -67.5 -115t-139.5 -49zM676 -41q-127 0 -226.5 29.5t-175 93
t-103.5 176.5t-1 268l113 619q29 164 -72 196l37 93h620l6 -93q-113 -33 -143 -196l-110 -617q-35 -197 27.5 -293t195.5 -96q293 0 362 389l109 617q29 164 -72 196l39 93h348l4 -93q-113 -33 -141 -196l-111 -619q-51 -283 -240.5 -425t-465.5 -142z" />
    <glyph glyph-name="Yacute" unicode="&#xdd;" horiz-adv-x="1439" 
d="M1032 1518l-78 71l269 273q49 47 86 68.5t86 21.5q47 0 74.5 -31t19.5 -74q-12 -86 -119 -143zM326 0l-4 92q113 33 141 197l63 364l-209 492q-72 170 -170 196l37 93h688l5 -93q-47 -16 -60.5 -66t17.5 -130l114 -268h15l211 268q59 76 63 130t-37 66l37 93h360l5 -93
q-106 -27 -238 -196l-387 -494l-64 -362q-29 -164 72 -197l-37 -92h-622z" />
    <glyph glyph-name="Thorn" unicode="&#xde;" horiz-adv-x="1564" 
d="M1092 1137q279 0 425 -112t115 -308q-33 -197 -214 -308.5t-460 -111.5h-272l-2 -8q-25 -166 76 -197l-35 -92h-623l-6 92q113 33 137 197l136 856q25 166 -76 196l37 93h620l6 -93q-113 -33 -137 -196l-2 -8h275zM1178 717q18 119 -60 181.5t-221 62.5q-59 0 -109 -7
l-73 -473q45 -6 106 -6q135 0 237 62.5t120 179.5z" />
    <glyph glyph-name="germandbls" unicode="&#xdf;" horiz-adv-x="1705" 
d="M1661 989q-80 -10 -130 -51t-61 -100q-4 -23 5.5 -46.5t19.5 -37t37 -42t35 -38.5q2 -2 48 -57.5t59.5 -79t28.5 -80t5 -113.5q-31 -197 -181.5 -291t-379.5 -94q-84 0 -158 17.5t-128 64.5t-42 117q8 57 56.5 94t105.5 37q59 0 91 -26.5t37 -57.5t24.5 -57.5t58.5 -26.5
q88 0 106 106q4 20 -3 48t-18 50.5t-32.5 52.5t-35 46t-36 44t-26.5 32q-102 125 -129 192q-31 74 -21 142q14 90 97.5 160.5t222.5 70.5q16 27 33 98q14 92 -25 150.5t-149 58.5q-289 0 -353 -405l-108 -678q-25 -164 76 -197l-35 -92h-609l-6 92q111 31 140 197l94 596
h-199l31 186h207q156 506 788 506q217 0 391 -117t148 -291q-19 -114 -80 -180z" />
    <glyph glyph-name="agrave" unicode="&#xe0;" horiz-adv-x="1329" 
d="M524 1339q-86 57 -73 144q8 43 44.5 73.5t84.5 30.5q82 0 141 -90l184 -272l-100 -72zM1251 123q25 0 47 8l11 -82q-121 -90 -295 -90q-231 0 -242 178h-14q-47 -88 -134 -133t-180 -45q-174 0 -275 107.5t-101 326.5q0 174 79.5 339t220 272.5t302.5 107.5
q76 0 146.5 -31.5t103.5 -91.5h12l24 80h414q-96 -209 -153 -528l-43 -244q-34 -174 77 -174zM612 197q137 0 203 225l72 409q-47 61 -127 62q-137 0 -221 -156.5t-84 -322.5q0 -96 42.5 -156.5t114.5 -60.5z" />
    <glyph glyph-name="aacute" unicode="&#xe1;" horiz-adv-x="1329" 
d="M1194 1339l-338 -186l-78 72l269 272q49 47 85.5 68.5t86.5 21.5q47 0 74.5 -30.5t19.5 -73.5q-13 -87 -119 -144zM1251 123q25 0 47 8l11 -82q-121 -90 -295 -90q-231 0 -242 178h-14q-47 -88 -134 -133t-180 -45q-174 0 -275 107.5t-101 326.5q0 174 79.5 339
t220 272.5t302.5 107.5q76 0 146.5 -31.5t103.5 -91.5h12l24 80h414q-96 -209 -153 -528l-43 -244q-34 -174 77 -174zM612 197q137 0 203 225l72 409q-47 61 -127 62q-137 0 -221 -156.5t-84 -322.5q0 -96 42.5 -156.5t114.5 -60.5z" />
    <glyph glyph-name="acircumflex" unicode="&#xe2;" horiz-adv-x="1329" 
d="M883 1257l-305 -112l-39 90l389 305l289 -305l-66 -90zM1251 123q25 0 47 8l11 -82q-121 -90 -295 -90q-231 0 -242 178h-14q-47 -88 -134 -133t-180 -45q-174 0 -275 107.5t-101 326.5q0 174 79.5 339t220 272.5t302.5 107.5q76 0 146.5 -31.5t103.5 -91.5h12l24 80h414
q-96 -209 -153 -528l-43 -244q-34 -174 77 -174zM612 197q137 0 203 225l72 409q-47 61 -127 62q-137 0 -221 -156.5t-84 -322.5q0 -96 42.5 -156.5t114.5 -60.5z" />
    <glyph glyph-name="atilde" unicode="&#xe3;" horiz-adv-x="1329" 
d="M788 1331q-66 0 -94 -76l-116 29q37 139 106.5 195.5t144.5 56.5q68 0 152 -47t123 -47q68 0 96 71l111 -26q-35 -139 -105.5 -195.5t-146.5 -56.5q-68 0 -150 48t-121 48zM1251 123q25 0 47 8l11 -82q-121 -90 -295 -90q-231 0 -242 178h-14q-47 -88 -134 -133t-180 -45
q-174 0 -275 107.5t-101 326.5q0 174 79.5 339t220 272.5t302.5 107.5q76 0 146.5 -31.5t103.5 -91.5h12l24 80h414q-96 -209 -153 -528l-43 -244q-34 -174 77 -174zM612 197q137 0 203 225l72 409q-47 61 -127 62q-137 0 -221 -156.5t-84 -322.5q0 -96 42.5 -156.5
t114.5 -60.5z" />
    <glyph glyph-name="adieresis" unicode="&#xe4;" horiz-adv-x="1329" 
d="M633 1176q-84 0 -123 49t-29 114q12 70 66.5 120t138.5 50t125 -51t29 -119q-10 -66 -67.5 -114.5t-139.5 -48.5zM1087.5 1176q-81.5 0 -121.5 49t-30 114q12 68 67.5 119t137.5 51q84 0 125 -51t28 -119q-10 -66 -67.5 -114.5t-139 -48.5zM1251 123q25 0 47 8l11 -82
q-121 -90 -295 -90q-231 0 -242 178h-14q-47 -88 -134 -133t-180 -45q-174 0 -275 107.5t-101 326.5q0 174 79.5 339t220 272.5t302.5 107.5q76 0 146.5 -31.5t103.5 -91.5h12l24 80h414q-96 -209 -153 -528l-43 -244q-34 -174 77 -174zM612 197q137 0 203 225l72 409
q-47 61 -127 62q-137 0 -221 -156.5t-84 -322.5q0 -96 42.5 -156.5t114.5 -60.5z" />
    <glyph glyph-name="aring" unicode="&#xe5;" horiz-adv-x="1329" 
d="M866 1171q-90 0 -145 63.5t-41 154.5q14 88 90 152.5t166 64.5t144.5 -64.5t39.5 -152.5q-14 -90 -89 -154t-165 -64zM821 1389q-6 -35 13.5 -59.5t52.5 -24.5t60.5 24.5t33.5 59.5q4 33 -15.5 55t-52 22t-60.5 -22t-32 -55zM1251 123q25 0 47 8l11 -82
q-121 -90 -295 -90q-231 0 -242 178h-14q-47 -88 -134 -133t-180 -45q-174 0 -275 107.5t-101 326.5q0 174 79.5 339t220 272.5t302.5 107.5q76 0 146.5 -31.5t103.5 -91.5h12l24 80h414q-96 -209 -153 -528l-43 -244q-34 -174 77 -174zM612 197q137 0 203 225l72 409
q-47 61 -127 62q-137 0 -221 -156.5t-84 -322.5q0 -96 42.5 -156.5t114.5 -60.5z" />
    <glyph glyph-name="ae" unicode="&#xe6;" horiz-adv-x="1953" 
d="M1931 414l60 -58q-207 -397 -613 -397q-340 0 -452 240h-4q-68 -100 -197 -170t-254 -70q-190 0 -274 76t-66 203q12 78 64.5 139t106.5 96t167 65.5t171 42t194 31.5q16 2 24 4v218q0 49 -32.5 73.5t-82.5 24.5q-37 0 -66.5 -26.5t-37.5 -76.5q-27 -168 -193 -167
q-78 0 -114.5 54t-24.5 136q16 102 127 181t295 79q109 0 205 -45t153 -131h7q190 176 481 176q197 0 303.5 -71.5t106.5 -202.5q0 -90 -53.5 -160t-156 -116t-224 -76.5t-287.5 -53.5q10 -117 78.5 -185.5t148.5 -68.5q133 0 229 55.5t211 180.5zM1542 936
q-72 0 -159 -99.5t-113 -261.5q152 25 258 104t106 161q0 41 -24.5 68.5t-67.5 27.5zM641 184q66 0 127 44t88 108v151q-307 -55 -328 -194q-8 -55 26 -82t87 -27z" />
    <glyph glyph-name="ccedilla" unicode="&#xe7;" horiz-adv-x="1208" 
d="M768 178q190 0 401 250l68 -55q-49 -131 -150.5 -232.5t-234.5 -148.5l-72 -115q18 8 49 8q72 0 110 -35.5t28 -95.5q-14 -96 -119 -166.5t-248 -70.5q-113 0 -181.5 50t-58.5 120q4 31 33 57.5t62 26.5q41 0 62.5 -22.5t25.5 -51.5t26.5 -51.5t67.5 -22.5t79 25.5
t42 70.5q2 25 -13.5 40.5t-42.5 15.5q-31 0 -57 -19l-74 35l101 168h-17q-96 0 -179 18.5t-167 64.5t-133 143.5t-49 238.5q0 162 61.5 296t164 218t228.5 129t261 45q190 0 296.5 -82t106.5 -223q0 -94 -54 -157.5t-151 -63.5q-76 0 -123 38t-47 111q0 12 10.5 57.5
t10.5 61.5q0 39 -25.5 60.5t-64.5 21.5q-113 0 -198 -147.5t-85 -348.5q0 -119 72 -190.5t178 -71.5z" />
    <glyph glyph-name="egrave" unicode="&#xe8;" horiz-adv-x="1142" 
d="M446 1339q-86 57 -73 144q8 43 45 73.5t84 30.5q82 0 141 -90l184 -272l-100 -72zM1120 414l60 -58q-207 -397 -613 -397q-94 0 -176 22.5t-157.5 72.5t-120.5 146.5t-45 229.5q0 276 187 479t509 203q195 0 302.5 -71.5t107.5 -202.5q0 -90 -53.5 -160t-156 -116
t-224.5 -76.5t-287 -53.5q10 -117 78.5 -185.5t148.5 -68.5q133 0 229 55.5t211 180.5zM731 936q-72 0 -159 -99.5t-113 -261.5q152 25 258 104t106 161q0 41 -24.5 68.5t-67.5 27.5z" />
    <glyph glyph-name="eacute" unicode="&#xe9;" horiz-adv-x="1142" 
d="M913 1339l-338 -186l-77 72l268 272q49 47 86 68.5t86 21.5q47 0 74.5 -30.5t19.5 -73.5q-13 -87 -119 -144zM1120 414l60 -58q-207 -397 -613 -397q-94 0 -176 22.5t-157.5 72.5t-120.5 146.5t-45 229.5q0 276 187 479t509 203q195 0 302.5 -71.5t107.5 -202.5
q0 -90 -53.5 -160t-156 -116t-224.5 -76.5t-287 -53.5q10 -117 78.5 -185.5t148.5 -68.5q133 0 229 55.5t211 180.5zM731 936q-72 0 -159 -99.5t-113 -261.5q152 25 258 104t106 161q0 41 -24.5 68.5t-67.5 27.5z" />
    <glyph glyph-name="ecircumflex" unicode="&#xea;" horiz-adv-x="1142" 
d="M727 1257l-305 -112l-39 90l389 305l289 -305l-66 -90zM1120 414l60 -58q-207 -397 -613 -397q-94 0 -176 22.5t-157.5 72.5t-120.5 146.5t-45 229.5q0 276 187 479t509 203q195 0 302.5 -71.5t107.5 -202.5q0 -90 -53.5 -160t-156 -116t-224.5 -76.5t-287 -53.5
q10 -117 78.5 -185.5t148.5 -68.5q133 0 229 55.5t211 180.5zM731 936q-72 0 -159 -99.5t-113 -261.5q152 25 258 104t106 161q0 41 -24.5 68.5t-67.5 27.5z" />
    <glyph glyph-name="edieresis" unicode="&#xeb;" horiz-adv-x="1142" 
d="M508 1176q-84 0 -123 49t-29 114q12 70 66.5 120t138.5 50t125 -51t29 -119q-10 -66 -67.5 -114.5t-139.5 -48.5zM962.5 1176q-81.5 0 -121.5 49t-30 114q12 68 67.5 119t137.5 51q84 0 125 -51t28 -119q-10 -66 -67.5 -114.5t-139 -48.5zM1120 414l60 -58
q-207 -397 -613 -397q-94 0 -176 22.5t-157.5 72.5t-120.5 146.5t-45 229.5q0 276 187 479t509 203q195 0 302.5 -71.5t107.5 -202.5q0 -90 -53.5 -160t-156 -116t-224.5 -76.5t-287 -53.5q10 -117 78.5 -185.5t148.5 -68.5q133 0 229 55.5t211 180.5zM731 936
q-72 0 -159 -99.5t-113 -261.5q152 25 258 104t106 161q0 41 -24.5 68.5t-67.5 27.5z" />
    <glyph glyph-name="igrave" unicode="&#xec;" horiz-adv-x="620" 
d="M403 1153l-280 186q-86 57 -74 144q8 43 45 73.5t84 30.5q82 0 141 -90l185 -272zM356 -41q-49 0 -90 9t-81 33t-58 73t-8 119l78 440q12 78 -14.5 130t-78.5 66l37 95q319 47 492 196l29 -10l-146 -813q-14 -86 7.5 -130t70.5 -44q25 0 49 8l8 -82q-119 -90 -295 -90z
" />
    <glyph glyph-name="iacute" unicode="&#xed;" horiz-adv-x="759" 
d="M342 1153l-78 72l268 272q49 47 86 68.5t87 21.5q47 0 74.5 -30.5t19.5 -73.5q-12 -86 -119 -144zM356 -41q-49 0 -90 9t-81 33t-58 73t-8 119l78 440q12 78 -14.5 130t-78.5 66l37 95q319 47 492 196l29 -10l-146 -813q-14 -86 7.5 -130t70.5 -44q25 0 49 8l8 -82
q-119 -90 -295 -90z" />
    <glyph glyph-name="icircumflex" unicode="&#xee;" horiz-adv-x="735" 
d="M137 1145l-39 90l389 305l289 -305l-65 -90l-269 112zM356 -41q-49 0 -90 9t-81 33t-58 73t-8 119l78 440q12 78 -14.5 130t-78.5 66l37 95q319 47 492 196l29 -10l-146 -813q-14 -86 7.5 -130t70.5 -44q25 0 49 8l8 -82q-119 -90 -295 -90z" />
    <glyph glyph-name="idieresis" unicode="&#xef;" horiz-adv-x="862" 
d="M240 1176q-84 0 -123 49t-29 114q12 70 66.5 120t138.5 50t125 -51t28 -119q-10 -66 -67 -114.5t-139 -48.5zM694 1176q-82 0 -122 49t-29 114q12 68 67.5 119t137.5 51q84 0 124.5 -51t28.5 -119q-10 -66 -67.5 -114.5t-139.5 -48.5zM356 -41q-49 0 -90 9t-81 33t-58 73
t-8 119l78 440q12 78 -14.5 130t-78.5 66l37 95q319 47 492 196l29 -10l-146 -813q-14 -86 7.5 -130t70.5 -44q25 0 49 8l8 -82q-119 -90 -295 -90z" />
    <glyph glyph-name="eth" unicode="&#xf0;" horiz-adv-x="1323" 
d="M631 -37q-291 0 -438.5 159t-104.5 415q39 256 226.5 416.5t437.5 160.5q121 0 204 -45l7 4q4 135 -48 254l-251 -80l-19 96l250 87q-14 76 -72 194l160 59q18 -18 45 -51t59.5 -76t42.5 -57l242 80l23 -98l-191 -64q219 -414 168 -743q-55 -344 -250.5 -527.5
t-490.5 -183.5zM655.5 125q108.5 0 166 98.5t89.5 313.5q31 199 43 360q-63 53 -168 53q-111 0 -169 -97t-91 -316q-37 -205 -8 -308.5t137.5 -103.5z" />
    <glyph glyph-name="ntilde" unicode="&#xf1;" horiz-adv-x="1318" 
d="M664 1331q-66 0 -95 -76l-116 29q37 139 106.5 195.5t145.5 56.5q68 0 151.5 -47t122.5 -47q68 0 96 71l111 -26q-35 -139 -105.5 -195.5t-146.5 -56.5q-68 0 -149.5 48t-120.5 48zM1370 131l4 -82q-121 -90 -297 -90q-49 0 -90 9t-79 33t-55 73t-5 119l106 514
q16 78 -11.5 121.5t-88.5 43.5q-90 0 -166 -106.5t-106 -253.5q-25 -125 -37.5 -253t-12.5 -193l3 -66h-426l86 475l28 158q12 78 -14.5 130t-77.5 66l37 95q324 47 494 196l28 -10l-39 -207h15q80 113 170 160t206 47q164 0 250 -109.5t39 -322.5l-82 -381
q-18 -86 2.5 -130t69.5 -44q24 0 49 8z" />
    <glyph glyph-name="ograve" unicode="&#xf2;" horiz-adv-x="1257" 
d="M725 1153l-281 186q-86 57 -73 144q8 43 45 73.5t84 30.5q82 0 141 -90l184 -272zM565 -41q-260 0 -392 160t-97 416q35 258 211 417.5t436 159.5t393 -159.5t98 -417.5q-35 -256 -212 -416t-437 -160zM590 137q84 0 149.5 110.5t87.5 287.5q25 178 -9 289.5t-118 111.5
t-149.5 -110.5t-89.5 -290.5q-25 -178 10 -288t119 -110z" />
    <glyph glyph-name="oacute" unicode="&#xf3;" horiz-adv-x="1257" 
d="M586 1153l-78 72l268 272q49 47 86 68.5t86 21.5q47 0 75 -30.5t19 -73.5q-12 -86 -118 -144zM565 -41q-260 0 -392 160t-97 416q35 258 211 417.5t436 159.5t393 -159.5t98 -417.5q-35 -256 -212 -416t-437 -160zM590 137q84 0 149.5 110.5t87.5 287.5q25 178 -9 289.5
t-118 111.5t-149.5 -110.5t-89.5 -290.5q-25 -178 10 -288t119 -110z" />
    <glyph glyph-name="ocircumflex" unicode="&#xf4;" horiz-adv-x="1257" 
d="M459 1145l-39 90l389 305l289 -305l-66 -90l-268 112zM565 -41q-260 0 -392 160t-97 416q35 258 211 417.5t436 159.5t393 -159.5t98 -417.5q-35 -256 -212 -416t-437 -160zM590 137q84 0 149.5 110.5t87.5 287.5q25 178 -9 289.5t-118 111.5t-149.5 -110.5t-89.5 -290.5
q-25 -178 10 -288t119 -110z" />
    <glyph glyph-name="otilde" unicode="&#xf5;" horiz-adv-x="1257" 
d="M889 1235q-68 0 -150 48t-121 48q-66 0 -94 -76l-116 29q37 139 106.5 195.5t144.5 56.5q68 0 152 -47t123 -47q68 0 96 71l111 -26q-35 -139 -105.5 -195.5t-146.5 -56.5zM565 -41q-260 0 -392 160t-97 416q35 258 211 417.5t436 159.5t393 -159.5t98 -417.5
q-35 -256 -212 -416t-437 -160zM590 137q84 0 149.5 110.5t87.5 287.5q25 178 -9 289.5t-118 111.5t-149.5 -110.5t-89.5 -290.5q-25 -178 10 -288t119 -110z" />
    <glyph glyph-name="odieresis" unicode="&#xf6;" horiz-adv-x="1257" 
d="M551 1176q-84 0 -123 49t-29 114q12 70 66.5 120t138.5 50t125 -51t29 -119q-10 -66 -67.5 -114.5t-139.5 -48.5zM1005.5 1176q-81.5 0 -121.5 49t-30 114q12 68 67.5 119t137.5 51q84 0 125 -51t28 -119q-10 -66 -67.5 -114.5t-139 -48.5zM565 -41q-260 0 -392 160
t-97 416q35 258 211 417.5t436 159.5t393 -159.5t98 -417.5q-35 -256 -212 -416t-437 -160zM590 137q84 0 149.5 110.5t87.5 287.5q25 178 -9 289.5t-118 111.5t-149.5 -110.5t-89.5 -290.5q-25 -178 10 -288t119 -110z" />
    <glyph glyph-name="divide" unicode="&#xf7;" horiz-adv-x="1282" 
d="M778 868q-121 0 -172 65.5t-35 156.5q14 90 85 156.5t192 66.5q117 0 169 -66.5t37.5 -157t-87 -156t-189.5 -65.5zM115 643l22 145h1254l-23 -145h-1253zM659 121q-119 0 -170 64.5t-36.5 154.5t85 156.5t191.5 66.5q117 0 169 -66.5t38 -156.5q-14 -88 -87 -153.5
t-190 -65.5z" />
    <glyph glyph-name="oslash" unicode="&#xf8;" horiz-adv-x="1257" 
d="M1083 987q168 -160 131 -452q-35 -256 -212 -416t-437 -160q-111 0 -200 31l-84 -117l-121 76l78 108q-98 74 -140.5 198t-21.5 280q35 258 211 417.5t436 159.5q133 0 240 -45l81 113l123 -76zM461 535q-14 -94 -8 -181l356 498q-39 84 -109 84q-84 0 -149 -110.5
t-90 -290.5zM590 137q84 0 149.5 110.5t87.5 287.5q6 37 11 110l-334 -463q33 -45 86 -45z" />
    <glyph glyph-name="ugrave" unicode="&#xf9;" horiz-adv-x="1316" 
d="M500 1339q-86 57 -74 144q8 43 45 73.5t84 30.5q82 0 141 -90l185 -272l-101 -72zM1292 123q25 0 47 8l11 -82q-121 -90 -297 -90q-106 0 -177 45t-65 164h-10q-82 -117 -162 -163t-193 -46q-166 0 -256 110.5t-38 323.5l88 381q37 174 -72 174q-25 0 -47 -8l-17 82
q123 90 299 90q113 0 188 -50t52 -181l-117 -519q-18 -78 6.5 -120.5t85.5 -42.5q92 0 162 104.5t105 267.5q25 125 36 249t9 188v61h428l-144 -772q-33 -174 78 -174z" />
    <glyph glyph-name="uacute" unicode="&#xfa;" horiz-adv-x="1316" 
d="M1063 1339l-338 -186l-78 72l268 272q49 47 86 68.5t86 21.5q47 0 75 -30.5t20 -73.5q-13 -87 -119 -144zM1292 123q25 0 47 8l11 -82q-121 -90 -297 -90q-106 0 -177 45t-65 164h-10q-82 -117 -162 -163t-193 -46q-166 0 -256 110.5t-38 323.5l88 381q37 174 -72 174
q-25 0 -47 -8l-17 82q123 90 299 90q113 0 188 -50t52 -181l-117 -519q-18 -78 6.5 -120.5t85.5 -42.5q92 0 162 104.5t105 267.5q25 125 36 249t9 188v61h428l-144 -772q-33 -174 78 -174z" />
    <glyph glyph-name="ucircumflex" unicode="&#xfb;" horiz-adv-x="1316" 
d="M868 1257l-305 -112l-39 90l389 305l289 -305l-65 -90zM1292 123q25 0 47 8l11 -82q-121 -90 -297 -90q-106 0 -177 45t-65 164h-10q-82 -117 -162 -163t-193 -46q-166 0 -256 110.5t-38 323.5l88 381q37 174 -72 174q-25 0 -47 -8l-17 82q123 90 299 90q113 0 188 -50
t52 -181l-117 -519q-18 -78 6.5 -120.5t85.5 -42.5q92 0 162 104.5t105 267.5q25 125 36 249t9 188v61h428l-144 -772q-33 -174 78 -174z" />
    <glyph glyph-name="udieresis" unicode="&#xfc;" horiz-adv-x="1316" 
d="M616 1176q-84 0 -122.5 49t-28.5 114q12 70 66.5 120t138.5 50t125 -51t28 -119q-10 -66 -67.5 -114.5t-139.5 -48.5zM1071 1176q-82 0 -122 49t-29 114q12 68 67 119t137 51q84 0 125 -51t29 -119q-10 -66 -67.5 -114.5t-139.5 -48.5zM1292 123q25 0 47 8l11 -82
q-121 -90 -297 -90q-106 0 -177 45t-65 164h-10q-82 -117 -162 -163t-193 -46q-166 0 -256 110.5t-38 323.5l88 381q37 174 -72 174q-25 0 -47 -8l-17 82q123 90 299 90q113 0 188 -50t52 -181l-117 -519q-18 -78 6.5 -120.5t85.5 -42.5q92 0 162 104.5t105 267.5
q25 125 36 249t9 188v61h428l-144 -772q-33 -174 78 -174z" />
    <glyph glyph-name="yacute" unicode="&#xfd;" horiz-adv-x="1288" 
d="M1133 1339l-338 -186l-78 72l268 272q49 47 86 68.5t86 21.5q47 0 75 -30.5t19 -73.5q-12 -87 -118 -144zM1112 1112q94 0 149.5 -58.5t51.5 -146.5q-12 -174 -107.5 -417.5t-204.5 -421.5q-57 -98 -133 -197q-262 -326 -544 -326q-98 0 -166 58.5t-64 138.5
q4 78 62.5 128t140.5 50q53 0 90 -21.5t52.5 -47t32.5 -47t34 -21.5q53 0 143 90q-63 324 -117.5 536t-100.5 318.5t-83 146t-80 39.5q-68 0 -149 -55l-51 80q168 174 393 174q119 0 197.5 -68.5t145 -245.5t132.5 -503h10q96 188 96 332q0 37 -31.5 81t-63.5 103t-32 133
q0 76 57.5 122t139.5 46z" />
    <glyph glyph-name="thorn" unicode="&#xfe;" horiz-adv-x="1357" 
d="M999 1112q213 0 329 -162t77 -415q-41 -256 -202 -416t-384 -160q-160 0 -248 109h-14l-31 -197q-25 -164 76 -197l-35 -92h-553l-6 92q113 33 137 197l203 1274q25 164 -76 196l35 93q270 43 494 168l24 -13q-39 -106 -80 -338l-38 -250h4q126 111 288 111zM1018 377
q10 63 10 147t-13.5 177.5t-58.5 157t-116 63.5q-66 0 -115 -63.5t-66 -168.5q-12 -70 -12 -154.5t14.5 -175t59.5 -150.5t115 -60q68 0 117 65.5t65 161.5z" />
    <glyph glyph-name="ydieresis" unicode="&#xff;" horiz-adv-x="1288" 
d="M494 1176q-84 0 -123 49t-29 114q12 70 66.5 120t138.5 50t125 -51t28 -119q-10 -66 -67 -114.5t-139 -48.5zM948 1176q-82 0 -122 49t-29 114q12 68 67.5 119t136.5 51q84 0 125 -51t29 -119q-10 -66 -67.5 -114.5t-139.5 -48.5zM1112 1112q94 0 149.5 -58.5
t51.5 -146.5q-12 -174 -107.5 -417.5t-204.5 -421.5q-57 -98 -133 -197q-262 -326 -544 -326q-98 0 -166 58.5t-64 138.5q4 78 62.5 128t140.5 50q53 0 90 -21.5t52.5 -47t32.5 -47t34 -21.5q53 0 143 90q-63 324 -117.5 536t-100.5 318.5t-83 146t-80 39.5q-68 0 -149 -55
l-51 80q168 174 393 174q119 0 197.5 -68.5t145 -245.5t132.5 -503h10q96 188 96 332q0 37 -31.5 81t-63.5 103t-32 133q0 76 57.5 122t139.5 46z" />
    <glyph glyph-name="Amacron" unicode="&#x100;" horiz-adv-x="1499" 
d="M1239 1772l-27 -175h-665l26 175h666zM1329 289q37 -164 154 -197l-37 -92h-651l-4 92q100 33 59 197l-4 14h-514l-8 -14q-98 -164 -11 -197l-37 -92h-342l-4 92q127 33 222 197l489 827q-31 55 -104 88l30 92q31 6 81 19.5t171 61.5t201 106h20zM438 481h367l-103 426
h-12z" />
    <glyph glyph-name="amacron" unicode="&#x101;" horiz-adv-x="1329" 
d="M1161 1407l-26 -174h-666l27 174h665zM1251 123q25 0 47 8l11 -82q-121 -90 -295 -90q-231 0 -242 178h-14q-47 -88 -134 -133t-180 -45q-174 0 -275 107.5t-101 326.5q0 174 79.5 339t220 272.5t302.5 107.5q76 0 146.5 -31.5t103.5 -91.5h12l24 80h414
q-96 -209 -153 -528l-43 -244q-34 -174 77 -174zM612 197q137 0 203 225l72 409q-47 61 -127 62q-137 0 -221 -156.5t-84 -322.5q0 -96 42.5 -156.5t114.5 -60.5z" />
    <glyph glyph-name="Abreve" unicode="&#x102;" horiz-adv-x="1499" 
d="M922 1579q-123 0 -201 58.5t-98 152.5l125 70q12 -49 69 -77t133 -28q80 0 146.5 26.5t93.5 73.5l102 -65q-53 -94 -149 -152.5t-221 -58.5zM1329 289q37 -164 154 -197l-37 -92h-651l-4 92q100 33 59 197l-4 14h-514l-8 -14q-98 -164 -11 -197l-37 -92h-342l-4 92
q127 33 222 197l489 827q-31 55 -104 88l30 92q31 6 81 19.5t171 61.5t201 106h20zM438 481h367l-103 426h-12z" />
    <glyph glyph-name="abreve" unicode="&#x103;" horiz-adv-x="1329" 
d="M793 1214q-123 0 -201 58.5t-98 152.5l124 70q12 -49 69.5 -76.5t133.5 -27.5q80 0 146.5 26.5t93.5 73.5l102 -66q-53 -94 -149 -152.5t-221 -58.5zM1251 123q25 0 47 8l11 -82q-121 -90 -295 -90q-231 0 -242 178h-14q-47 -88 -134 -133t-180 -45q-174 0 -275 107.5
t-101 326.5q0 174 79.5 339t220 272.5t302.5 107.5q76 0 146.5 -31.5t103.5 -91.5h12l24 80h414q-96 -209 -153 -528l-43 -244q-34 -174 77 -174zM612 197q137 0 203 225l72 409q-47 61 -127 62q-137 0 -221 -156.5t-84 -322.5q0 -96 42.5 -156.5t114.5 -60.5z" />
    <glyph glyph-name="Aogonek" unicode="&#x104;" horiz-adv-x="1499" 
d="M1262 -299q68 0 124 72l97 -54q-131 -174 -312 -174q-123 0 -182 64.5t-43 161.5q20 135 144 229h-295l-4 92q100 33 59 197l-4 14h-514l-8 -14q-98 -164 -11 -197l-37 -92h-342l-4 92q127 33 222 197l489 827q-31 55 -104 88l30 92q31 6 81 19.5t171 61.5t201 106h20
l289 -1194q37 -164 154 -197l-37 -92h-98q-135 -88 -156 -209q-6 -39 13.5 -64.5t56.5 -25.5zM438 481h367l-103 426h-12z" />
    <glyph glyph-name="aogonek" unicode="&#x105;" horiz-adv-x="1329" 
d="M1104 -33q-92 -76 -111 -176q-6 -39 13.5 -64.5t56.5 -25.5q68 0 125 72l96 -54q-131 -174 -311 -174q-123 0 -182.5 64.5t-42.5 161.5q18 121 124 215q-94 39 -100 151h-14q-47 -88 -134 -133t-180 -45q-174 0 -275 107.5t-101 326.5q0 174 79.5 339t220 272.5
t302.5 107.5q76 0 146.5 -31.5t103.5 -91.5h12l24 80h414q-96 -209 -153 -528l-43 -244q-33 -174 77 -174q25 0 47 8l11 -82q-86 -64 -205 -82zM612 197q137 0 203 225l72 409q-47 61 -127 62q-137 0 -221 -156.5t-84 -322.5q0 -96 42.5 -156.5t114.5 -60.5z" />
    <glyph glyph-name="Cacute" unicode="&#x106;" horiz-adv-x="1488" 
d="M764 1518l-78 71l268 273q49 47 86 68.5t86 21.5q47 0 75 -31t20 -74q-12 -86 -119 -143zM723 -41q-217 0 -367.5 111.5t-207 295t-17.5 402.5q55 311 299 509t567 198q233 0 380 -115t118 -285q-16 -88 -73.5 -149.5t-143.5 -61.5q-94 0 -137 45t-47 108.5t-6.5 127
t-32 108.5t-103.5 45q-111 0 -208 -154.5t-136 -371.5q-59 -303 -0.5 -469t250.5 -166q231 0 422 334l119 -68q-76 -205 -246 -324.5t-430 -119.5z" />
    <glyph glyph-name="cacute" unicode="&#x107;" horiz-adv-x="1208" 
d="M623 1153l-78 72l268 272q49 47 86 68.5t86 21.5q47 0 74.5 -30.5t19.5 -73.5q-12 -86 -118 -144zM596 -41q-96 0 -179 18.5t-167 64.5t-133 143.5t-49 238.5q0 162 61 296t163.5 218t228.5 129t261 45q190 0 297 -82t107 -223q0 -94 -54.5 -157.5t-150.5 -63.5
q-76 0 -123 38t-47 111q0 12 10 57.5t10 61.5q0 39 -25.5 60.5t-64.5 21.5q-113 0 -197.5 -147.5t-84.5 -348.5q0 -119 71.5 -190.5t178.5 -71.5q190 0 401 250l68 -55q-68 -178 -225.5 -296t-356.5 -118z" />
    <glyph glyph-name="Ccircumflex" unicode="&#x108;" horiz-adv-x="1488" 
d="M625 1509l-39 90l389 306l289 -306l-66 -90l-268 113zM723 -41q-217 0 -367.5 111.5t-207 295t-17.5 402.5q55 311 299 509t567 198q233 0 380 -115t118 -285q-16 -88 -73.5 -149.5t-143.5 -61.5q-94 0 -137 45t-47 108.5t-6.5 127t-32 108.5t-103.5 45
q-111 0 -208 -154.5t-136 -371.5q-59 -303 -0.5 -469t250.5 -166q231 0 422 334l119 -68q-76 -205 -246 -324.5t-430 -119.5z" />
    <glyph glyph-name="ccircumflex" unicode="&#x109;" horiz-adv-x="1208" 
d="M432 1145l-39 90l389 305l289 -305l-65 -90l-269 112zM596 -41q-96 0 -179 18.5t-167 64.5t-133 143.5t-49 238.5q0 162 61 296t163.5 218t228.5 129t261 45q190 0 297 -82t107 -223q0 -94 -54.5 -157.5t-150.5 -63.5q-76 0 -123 38t-47 111q0 12 10 57.5t10 61.5
q0 39 -25.5 60.5t-64.5 21.5q-113 0 -197.5 -147.5t-84.5 -348.5q0 -119 71.5 -190.5t178.5 -71.5q190 0 401 250l68 -55q-68 -178 -225.5 -296t-356.5 -118z" />
    <glyph glyph-name="Cdotaccent" unicode="&#x10a;" horiz-adv-x="1488" 
d="M899 1585q-82 0 -123 49t-28 115q10 68 66 119t138 51q84 0 124 -51t30 -119q-12 -66 -67.5 -115t-139.5 -49zM723 -41q-217 0 -367.5 111.5t-207 295t-17.5 402.5q55 311 299 509t567 198q233 0 380 -115t118 -285q-16 -88 -73.5 -149.5t-143.5 -61.5q-94 0 -137 45
t-47 108.5t-6.5 127t-32 108.5t-103.5 45q-111 0 -208 -154.5t-136 -371.5q-59 -303 -0.5 -469t250.5 -166q231 0 422 334l119 -68q-76 -205 -246 -324.5t-430 -119.5z" />
    <glyph glyph-name="cdotaccent" unicode="&#x10b;" horiz-adv-x="1208" 
d="M733 1221q-82 0 -123 49t-28 114q10 68 66.5 119t137.5 51q84 0 124 -51t30 -119q-12 -66 -67.5 -114.5t-139.5 -48.5zM596 -41q-96 0 -179 18.5t-167 64.5t-133 143.5t-49 238.5q0 162 61 296t163.5 218t228.5 129t261 45q190 0 297 -82t107 -223q0 -94 -54.5 -157.5
t-150.5 -63.5q-76 0 -123 38t-47 111q0 12 10 57.5t10 61.5q0 39 -25.5 60.5t-64.5 21.5q-113 0 -197.5 -147.5t-84.5 -348.5q0 -119 71.5 -190.5t178.5 -71.5q190 0 401 250l68 -55q-68 -178 -225.5 -296t-356.5 -118z" />
    <glyph glyph-name="Ccaron" unicode="&#x10c;" horiz-adv-x="1488" 
d="M926 1509l-291 306l65 90l271 -111l303 111l39 -90zM723 -41q-217 0 -367.5 111.5t-207 295t-17.5 402.5q55 311 299 509t567 198q233 0 380 -115t118 -285q-16 -88 -73.5 -149.5t-143.5 -61.5q-94 0 -137 45t-47 108.5t-6.5 127t-32 108.5t-103.5 45q-111 0 -208 -154.5
t-136 -371.5q-59 -303 -0.5 -469t250.5 -166q231 0 422 334l119 -68q-76 -205 -246 -324.5t-430 -119.5z" />
    <glyph glyph-name="ccaron" unicode="&#x10d;" horiz-adv-x="1208" 
d="M723 1145l-291 305l66 90l270 -110l303 110l39 -90zM596 -41q-96 0 -179 18.5t-167 64.5t-133 143.5t-49 238.5q0 162 61 296t163.5 218t228.5 129t261 45q190 0 297 -82t107 -223q0 -94 -54.5 -157.5t-150.5 -63.5q-76 0 -123 38t-47 111q0 12 10 57.5t10 61.5
q0 39 -25.5 60.5t-64.5 21.5q-113 0 -197.5 -147.5t-84.5 -348.5q0 -119 71.5 -190.5t178.5 -71.5q190 0 401 250l68 -55q-68 -178 -225.5 -296t-356.5 -118z" />
    <glyph glyph-name="Dcaron" unicode="&#x10e;" horiz-adv-x="1568" 
d="M1255 1815l-387 -306l-290 306l65 90l270 -111l304 111zM907 1434q328 0 517.5 -215t131.5 -539q-119 -680 -860 -680h-702l-4 92q113 33 141 197l152 856q29 164 -72 196l37 93h659zM1098 600q25 109 15.5 225.5t-39.5 212t-106.5 156.5t-187.5 61h-28l-187 -1069
q72 -10 140 -10q162 0 262 124t131 300z" />
    <glyph glyph-name="dcaron" unicode="&#x10f;" horiz-adv-x="1869" 
d="M1473 1622l-238 -1325q-31 -174 80 -174q23 0 47 8l8 -82q-119 -90 -295 -90q-219 0 -239 160h-15q-53 -76 -138 -118t-179 -42q-174 0 -275.5 107.5t-101.5 326.5q0 178 71.5 340t218 270.5t335.5 108.5q127 0 223 -76h14l19 109q12 76 -14.5 128t-78.5 68l37 93
q317 47 492 196zM1960 1475q115 0 175 -79t40 -218q-29 -176 -160 -326t-315 -227l-58 118q113 66 178.5 138.5t114.5 175.5l-6 8q-45 -27 -78 -27q-92 0 -147 61.5t-41 158t101 157t196 60.5zM672 197q57 0 114.5 47t87.5 155l80 449q-55 45 -127 45q-106 0 -181 -85
t-103.5 -188.5t-28.5 -205.5q0 -94 43 -155.5t115 -61.5z" />
    <glyph glyph-name="Dcroat" unicode="&#x110;" horiz-adv-x="1568" 
d="M893 1434q330 0 522.5 -215t140.5 -539q-109 -680 -849 -680h-701l-6 92q113 33 137 197l53 327h-196l33 201h194l53 328q25 164 -75 196l34 93h660zM1100 602q23 109 11.5 224.5t-43.5 212t-109.5 157.5t-188.5 61h-29l-69 -440h186l-31 -199h-186l-70 -430
q76 -10 142 -10q162 0 260 123t127 301z" />
    <glyph glyph-name="dcroat" unicode="&#x111;" horiz-adv-x="1406" 
d="M1386 1141l-151 -844q-31 -174 80 -174q23 0 47 8l8 -82q-119 -90 -295 -90q-219 0 -239 160h-15q-53 -76 -138 -118t-179 -42q-174 0 -275.5 107.5t-101.5 326.5q0 178 71.5 340t218 270.5t335.5 108.5q127 0 223 -76h14l19 105h-258l20 125h227q-25 59 -82 75l37 93
q317 47 492 196l29 -8l-64 -356h193l-17 -125h-199zM672 197q61 0 119.5 53t87.5 174l75 424q-55 45 -127 45q-106 0 -181 -85t-103.5 -188.5t-28.5 -205.5q0 -94 43 -155.5t115 -61.5z" />
    <glyph glyph-name="Emacron" unicode="&#x112;" horiz-adv-x="1396" 
d="M1257 1772l-26 -175h-666l27 175h665zM723 688q-43 0 -76 -31l-82 -462q121 -18 187 -19q88 0 176 28.5t151.5 70.5t113.5 84t77 71l24 29l84 -45l-153 -455h-33q-27 16 -131.5 28.5t-171.5 12.5h-895l-4 92q113 33 141 197l152 856q29 164 -72 196l37 93h1126l49 -396
l-98 -32q-2 10 -8 26.5t-34 59.5t-70 76.5t-122.5 60t-183.5 26.5q-76 0 -157 -16l-62 -356l6 -2q96 74 189 73q88 0 186 -65.5t160 -65.5q51 0 98 43l64 -71q-137 -238 -334 -238q-63 0 -174 65.5t-160 65.5z" />
    <glyph glyph-name="emacron" unicode="&#x113;" horiz-adv-x="1189" 
d="M1061 1407l-27 -174h-665l26 174h666zM1120 414l60 -58q-207 -397 -613 -397q-94 0 -176 22.5t-157.5 72.5t-120.5 146.5t-45 229.5q0 276 187 479t509 203q195 0 302.5 -71.5t107.5 -202.5q0 -90 -53.5 -160t-156 -116t-224.5 -76.5t-287 -53.5q10 -117 78.5 -185.5
t148.5 -68.5q133 0 229 55.5t211 180.5zM731 936q-72 0 -159 -99.5t-113 -261.5q152 25 258 104t106 161q0 41 -24.5 68.5t-67.5 27.5z" />
    <glyph glyph-name="Ebreve" unicode="&#x114;" horiz-adv-x="1396" 
d="M860 1579q-123 0 -200.5 58.5t-98.5 152.5l125 70q12 -49 69.5 -77t133.5 -28q80 0 146.5 26.5t92.5 73.5l103 -65q-53 -94 -149.5 -152.5t-221.5 -58.5zM723 688q-43 0 -76 -31l-82 -462q121 -18 187 -19q88 0 176 28.5t151.5 70.5t113.5 84t77 71l24 29l84 -45
l-153 -455h-33q-27 16 -131.5 28.5t-171.5 12.5h-895l-4 92q113 33 141 197l152 856q29 164 -72 196l37 93h1126l49 -396l-98 -32q-2 10 -8 26.5t-34 59.5t-70 76.5t-122.5 60t-183.5 26.5q-76 0 -157 -16l-62 -356l6 -2q96 74 189 73q88 0 186 -65.5t160 -65.5q51 0 98 43
l64 -71q-137 -238 -334 -238q-63 0 -174 65.5t-160 65.5z" />
    <glyph glyph-name="ebreve" unicode="&#x115;" horiz-adv-x="1189" 
d="M745 1214q-123 0 -200.5 58.5t-98.5 152.5l125 70q12 -49 69.5 -76.5t133.5 -27.5q80 0 146.5 26.5t93.5 73.5l102 -66q-53 -94 -149.5 -152.5t-221.5 -58.5zM1120 414l60 -58q-207 -397 -613 -397q-94 0 -176 22.5t-157.5 72.5t-120.5 146.5t-45 229.5q0 276 187 479
t509 203q195 0 302.5 -71.5t107.5 -202.5q0 -90 -53.5 -160t-156 -116t-224.5 -76.5t-287 -53.5q10 -117 78.5 -185.5t148.5 -68.5q133 0 229 55.5t211 180.5zM731 936q-72 0 -159 -99.5t-113 -261.5q152 25 258 104t106 161q0 41 -24.5 68.5t-67.5 27.5z" />
    <glyph glyph-name="Edotaccent" unicode="&#x116;" horiz-adv-x="1396" 
d="M872 1585q-82 0 -122.5 49t-28.5 115q10 68 66.5 119t138.5 51q84 0 124 -51t29 -119q-12 -66 -67.5 -115t-139.5 -49zM723 688q-43 0 -76 -31l-82 -462q121 -18 187 -19q88 0 176 28.5t151.5 70.5t113.5 84t77 71l24 29l84 -45l-153 -455h-33q-27 16 -131.5 28.5
t-171.5 12.5h-895l-4 92q113 33 141 197l152 856q29 164 -72 196l37 93h1126l49 -396l-98 -32q-2 10 -8 26.5t-34 59.5t-70 76.5t-122.5 60t-183.5 26.5q-76 0 -157 -16l-62 -356l6 -2q96 74 189 73q88 0 186 -65.5t160 -65.5q51 0 98 43l64 -71q-137 -238 -334 -238
q-63 0 -174 65.5t-160 65.5z" />
    <glyph glyph-name="edotaccent" unicode="&#x117;" horiz-adv-x="1189" 
d="M694 1221q-82 0 -123 49t-28 114q10 68 66.5 119t138.5 51q84 0 123.5 -51t29.5 -119q-12 -66 -67.5 -114.5t-139.5 -48.5zM1120 414l60 -58q-207 -397 -613 -397q-94 0 -176 22.5t-157.5 72.5t-120.5 146.5t-45 229.5q0 276 187 479t509 203q195 0 302.5 -71.5
t107.5 -202.5q0 -90 -53.5 -160t-156 -116t-224.5 -76.5t-287 -53.5q10 -117 78.5 -185.5t148.5 -68.5q133 0 229 55.5t211 180.5zM731 936q-72 0 -159 -99.5t-113 -261.5q152 25 258 104t106 161q0 41 -24.5 68.5t-67.5 27.5z" />
    <glyph glyph-name="Eogonek" unicode="&#x118;" horiz-adv-x="1396" 
d="M723 688q-43 0 -76 -31l-82 -462q121 -18 187 -19q88 0 176 28.5t151.5 70.5t113.5 84t77 71l24 29l84 -45l-137 -414q-135 -88 -156 -209q-6 -39 13.5 -64.5t56.5 -25.5q68 0 125 72l96 -54q-131 -174 -311 -174q-123 0 -182.5 64.5t-42.5 161.5q20 135 143 229h-989
l-4 92q113 33 141 197l152 856q29 164 -72 196l37 93h1126l49 -396l-98 -32q-2 10 -8 26.5t-34 59.5t-70 76.5t-122.5 60t-183.5 26.5q-76 0 -157 -16l-62 -356l6 -2q96 74 189 73q88 0 186 -65.5t160 -65.5q51 0 98 43l64 -71q-137 -238 -334 -238q-63 0 -174 65.5
t-160 65.5z" />
    <glyph glyph-name="eogonek" unicode="&#x119;" horiz-adv-x="1189" 
d="M707 -27q-98 -82 -117 -182q-6 -39 13.5 -64.5t55.5 -25.5q68 0 125 72l97 -54q-131 -174 -312 -174q-123 0 -182 64.5t-43 161.5q18 115 107 198q-166 27 -274.5 136.5t-108.5 324.5q0 276 187 479t509 203q195 0 302.5 -71.5t107.5 -202.5q0 -90 -53.5 -160t-156 -116
t-224.5 -76.5t-287 -53.5q10 -117 78.5 -185.5t148.5 -68.5q133 0 229.5 55.5t210.5 180.5l60 -58q-168 -324 -473 -383zM731 936q-72 0 -159 -99.5t-113 -261.5q152 25 258 104t106 161q0 41 -24.5 68.5t-67.5 27.5z" />
    <glyph glyph-name="Ecaron" unicode="&#x11a;" horiz-adv-x="1396" 
d="M1257 1815l-387 -306l-290 306l65 90l270 -111l304 111zM723 688q-43 0 -76 -31l-82 -462q121 -18 187 -19q88 0 176 28.5t151.5 70.5t113.5 84t77 71l24 29l84 -45l-153 -455h-33q-27 16 -131.5 28.5t-171.5 12.5h-895l-4 92q113 33 141 197l152 856q29 164 -72 196
l37 93h1126l49 -396l-98 -32q-2 10 -8 26.5t-34 59.5t-70 76.5t-122.5 60t-183.5 26.5q-76 0 -157 -16l-62 -356l6 -2q96 74 189 73q88 0 186 -65.5t160 -65.5q51 0 98 43l64 -71q-137 -238 -334 -238q-63 0 -174 65.5t-160 65.5z" />
    <glyph glyph-name="ecaron" unicode="&#x11b;" horiz-adv-x="1189" 
d="M1069 1450l-387 -305l-291 305l66 90l270 -110l303 110zM1120 414l60 -58q-207 -397 -613 -397q-94 0 -176 22.5t-157.5 72.5t-120.5 146.5t-45 229.5q0 276 187 479t509 203q195 0 302.5 -71.5t107.5 -202.5q0 -90 -53.5 -160t-156 -116t-224.5 -76.5t-287 -53.5
q10 -117 78.5 -185.5t148.5 -68.5q133 0 229 55.5t211 180.5zM731 936q-72 0 -159 -99.5t-113 -261.5q152 25 258 104t106 161q0 41 -24.5 68.5t-67.5 27.5z" />
    <glyph glyph-name="Gcircumflex" unicode="&#x11c;" horiz-adv-x="1525" 
d="M932 1622l-305 -113l-39 90l389 306l289 -306l-66 -90zM1554 756l5 -92q-113 -33 -142 -197l-82 -467h-100l-86 104h-6q-152 -145 -422 -145q-217 0 -367.5 117t-206 300t-18.5 392q55 311 298 509t566 198q233 0 381 -115t117 -285q-14 -88 -71.5 -149.5t-145.5 -61.5
q-92 0 -135 45t-47.5 108.5t-6.5 127t-32.5 108.5t-104.5 45q-111 0 -208 -154.5t-136 -371.5q-53 -299 9.5 -467t222.5 -168q41 0 82 13l55 317q16 88 -7.5 132t-95.5 65l37 92h647z" />
    <glyph glyph-name="gcircumflex" unicode="&#x11d;" horiz-adv-x="1386" 
d="M1225 1352q72 0 116.5 -34t44.5 -104q0 -63 -38.5 -102t-108.5 -39q-43 0 -86 32t-70 32q-49 0 -98 -74q231 -104 184 -361q-33 -182 -195.5 -294.5t-402.5 -112.5q-125 0 -221 33q-39 -8 -43 -33q-4 -20 10.5 -34.5t51.5 -24t93 -17.5t138 -18q74 -8 117 -15
q227 -31 323.5 -110.5t69.5 -216.5q-29 -156 -215 -234t-455 -80q-129 -2 -237.5 22.5t-190.5 92.5t-82 172q0 57 38 103.5t98 68.5v8q-90 74 -68 199q14 74 75.5 123t141.5 59v6q-127 111 -94 303q33 182 195.5 296t402.5 114q72 0 137 -12q35 55 47 71l-205 86l-305 -112
l-39 90l389 305l254 -268q97 80 228 80zM817 702q23 115 -15 177.5t-114 62.5q-80 0 -138 -66.5t-77 -173.5q-20 -113 16.5 -175t112.5 -62q80 0 138.5 65.5t76.5 171.5zM526 -127q-203 35 -258 49q-31 0 -52 -23.5t-21 -58.5q0 -53 67.5 -99t208.5 -44q131 2 193.5 27.5
t62.5 64.5q0 37 -34 51.5t-167 32.5z" />
    <glyph glyph-name="Gbreve" unicode="&#x11e;" horiz-adv-x="1525" 
d="M928 1579q-123 0 -201 58.5t-98 152.5l125 70q12 -49 69.5 -77t132.5 -28q80 0 146.5 26.5t93.5 73.5l102 -65q-53 -94 -149 -152.5t-221 -58.5zM1554 756l5 -92q-113 -33 -142 -197l-82 -467h-100l-86 104h-6q-152 -145 -422 -145q-217 0 -367.5 117t-206 300t-18.5 392
q55 311 298 509t566 198q233 0 381 -115t117 -285q-14 -88 -71.5 -149.5t-145.5 -61.5q-92 0 -135 45t-47.5 108.5t-6.5 127t-32.5 108.5t-104.5 45q-111 0 -208 -154.5t-136 -371.5q-53 -299 9.5 -467t222.5 -168q41 0 82 13l55 317q16 88 -7.5 132t-95.5 65l37 92h647z
" />
    <glyph glyph-name="gbreve" unicode="&#x11f;" horiz-adv-x="1386" 
d="M657 1214q-123 0 -200.5 58.5t-98.5 152.5l125 70q12 -49 69.5 -76.5t133.5 -27.5q80 0 146.5 26.5t93.5 73.5l102 -66q-53 -94 -149.5 -152.5t-221.5 -58.5zM1225 1352q72 0 116.5 -34t44.5 -104q0 -63 -38.5 -102t-108.5 -39q-43 0 -86 32t-70 32q-49 0 -98 -74
q231 -104 184 -361q-33 -182 -195.5 -294.5t-402.5 -112.5q-125 0 -221 33q-39 -8 -43 -33q-4 -20 10.5 -34.5t51.5 -24t93 -17.5t138 -18q74 -8 117 -15q227 -31 323.5 -110.5t69.5 -216.5q-29 -156 -215 -234t-455 -80q-129 -2 -237.5 22.5t-190.5 92.5t-82 172
q0 57 38 103.5t98 68.5v8q-90 74 -68 199q14 74 75.5 123t141.5 59v6q-127 111 -94 303q33 182 195.5 296t402.5 114q72 0 137 -12q86 141 172 196.5t197 55.5zM817 702q23 115 -15 177.5t-114 62.5q-80 0 -138 -66.5t-77 -173.5q-20 -113 16.5 -175t112.5 -62
q80 0 138.5 65.5t76.5 171.5zM526 -127q-203 35 -258 49q-31 0 -52 -23.5t-21 -58.5q0 -53 67.5 -99t208.5 -44q131 2 193.5 27.5t62.5 64.5q0 37 -34 51.5t-167 32.5z" />
    <glyph glyph-name="Gdotaccent" unicode="&#x120;" horiz-adv-x="1525" 
d="M938 1585q-82 0 -123 49t-29 115q10 68 66.5 119t138.5 51q84 0 124 -51t30 -119q-12 -66 -67.5 -115t-139.5 -49zM1554 756l5 -92q-113 -33 -142 -197l-82 -467h-100l-86 104h-6q-152 -145 -422 -145q-217 0 -367.5 117t-206 300t-18.5 392q55 311 298 509t566 198
q233 0 381 -115t117 -285q-14 -88 -71.5 -149.5t-145.5 -61.5q-92 0 -135 45t-47.5 108.5t-6.5 127t-32.5 108.5t-104.5 45q-111 0 -208 -154.5t-136 -371.5q-53 -299 9.5 -467t222.5 -168q41 0 82 13l55 317q16 88 -7.5 132t-95.5 65l37 92h647z" />
    <glyph glyph-name="gdotaccent" unicode="&#x121;" horiz-adv-x="1386" 
d="M668 1221q-82 0 -123 49t-29 114q10 68 66.5 119t138.5 51q84 0 124 -51t29 -119q-12 -66 -67 -114.5t-139 -48.5zM1225 1352q72 0 116.5 -34t44.5 -104q0 -63 -38.5 -102t-108.5 -39q-43 0 -86 32t-70 32q-49 0 -98 -74q231 -104 184 -361q-33 -182 -195.5 -294.5
t-402.5 -112.5q-125 0 -221 33q-39 -8 -43 -33q-4 -20 10.5 -34.5t51.5 -24t93 -17.5t138 -18q74 -8 117 -15q227 -31 323.5 -110.5t69.5 -216.5q-29 -156 -215 -234t-455 -80q-129 -2 -237.5 22.5t-190.5 92.5t-82 172q0 57 38 103.5t98 68.5v8q-90 74 -68 199
q14 74 75.5 123t141.5 59v6q-127 111 -94 303q33 182 195.5 296t402.5 114q72 0 137 -12q86 141 172 196.5t197 55.5zM817 702q23 115 -15 177.5t-114 62.5q-80 0 -138 -66.5t-77 -173.5q-20 -113 16.5 -175t112.5 -62q80 0 138.5 65.5t76.5 171.5zM526 -127
q-203 35 -258 49q-31 0 -52 -23.5t-21 -58.5q0 -53 67.5 -99t208.5 -44q131 2 193.5 27.5t62.5 64.5q0 37 -34 51.5t-167 32.5z" />
    <glyph glyph-name="uni0122" unicode="&#x122;" horiz-adv-x="1525" 
d="M1554 756l5 -92q-113 -33 -142 -197l-82 -467h-100l-86 104h-6q-152 -145 -422 -145q-217 0 -367.5 117t-206 300t-18.5 392q55 311 298 509t566 198q233 0 381 -115t117 -285q-14 -88 -71.5 -149.5t-145.5 -61.5q-92 0 -135 45t-47.5 108.5t-6.5 127t-32.5 108.5
t-104.5 45q-111 0 -208 -154.5t-136 -371.5q-53 -299 9.5 -467t222.5 -168q41 0 82 13l55 317q16 88 -7.5 132t-95.5 65l37 92h647zM690 -88q115 0 176.5 -79t38.5 -218q-27 -176 -159 -325.5t-316 -227.5l-55 119q111 66 175 138.5t118 174.5l-6 8q-45 -27 -80 -26
q-92 0 -147.5 61.5t-41 157.5t101 156.5t195.5 60.5z" />
    <glyph glyph-name="uni0123" unicode="&#x123;" horiz-adv-x="1386" 
d="M668 1223q-115 0 -176.5 78.5t-38.5 218.5q27 176 158.5 325.5t316.5 227.5l55 -119q-111 -66 -175.5 -138.5t-117.5 -175.5l6 -8q45 27 80 27q92 0 147.5 -61.5t41 -158t-101 -156.5t-195.5 -60zM1225 1352q72 0 116.5 -34t44.5 -104q0 -63 -38.5 -102t-108.5 -39
q-43 0 -86 32t-70 32q-49 0 -98 -74q231 -104 184 -361q-33 -182 -195.5 -294.5t-402.5 -112.5q-125 0 -221 33q-39 -8 -43 -33q-4 -20 10.5 -34.5t51.5 -24t93 -17.5t138 -18q74 -8 117 -15q227 -31 323.5 -110.5t69.5 -216.5q-29 -156 -215 -234t-455 -80
q-129 -2 -237.5 22.5t-190.5 92.5t-82 172q0 57 38 103.5t98 68.5v8q-90 74 -68 199q14 74 75.5 123t141.5 59v6q-127 111 -94 303q33 182 195.5 296t402.5 114q72 0 137 -12q86 141 172 196.5t197 55.5zM817 702q23 115 -15 177.5t-114 62.5q-80 0 -138 -66.5t-77 -173.5
q-20 -113 16.5 -175t112.5 -62q80 0 138.5 65.5t76.5 171.5zM526 -127q-203 35 -258 49q-31 0 -52 -23.5t-21 -58.5q0 -53 67.5 -99t208.5 -44q131 2 193.5 27.5t62.5 64.5q0 37 -34 51.5t-167 32.5z" />
    <glyph glyph-name="Hcircumflex" unicode="&#x124;" horiz-adv-x="1667" 
d="M1038 1622l-305 -113l-39 90l389 306l289 -306l-65 -90zM1769 1434l5 -93q-113 -33 -142 -196l-149 -856q-31 -164 71 -197l-36 -92h-623l-4 92q113 33 141 197l58 323h-451l-57 -323q-31 -164 71 -197l-37 -92h-622l-4 92q113 33 141 197l150 856q31 164 -72 196l37 93
h622l4 -93q-113 -33 -141 -196l-57 -334h450l58 334q31 164 -72 196l37 93h622z" />
    <glyph glyph-name="hcircumflex" unicode="&#x125;" horiz-adv-x="1320" 
d="M625 1778l-306 -113l-38 90l389 305l288 -305l-65 -90zM1370 131l6 -82q-121 -90 -276 -90q-49 0 -93 9t-86 33t-62.5 73t-8.5 119l106 514q16 78 -12.5 121.5t-89.5 43.5q-90 0 -165 -105t-105 -255q-25 -125 -37 -253t-10 -193v-66h-428l206 1145q12 76 -14.5 128
t-77.5 68l37 93q317 47 492 196l28 -8l-129 -719h17q145 207 376 207q164 0 249 -110.5t38 -321.5l-80 -381q-39 -174 72 -174q24 0 47 8z" />
    <glyph glyph-name="Hbar" unicode="&#x126;" horiz-adv-x="1667" 
d="M1604 961l-109 -672q-25 -164 76 -197l-35 -92h-623l-6 92q111 31 140 197l51 325h-453l-51 -325q-25 -164 76 -197l-35 -92h-623l-6 92q111 31 139 197l107 672h-189l19 124h188l11 60q25 164 -76 196l35 93h622l6 -93q-113 -33 -137 -196l-10 -60h450l11 60
q25 164 -76 196l35 93h622l6 -93q-113 -33 -137 -196l-10 -60h184l-16 -124h-186zM678 811h450l25 150h-451z" />
    <glyph glyph-name="hbar" unicode="&#x127;" horiz-adv-x="1320" 
d="M1370 131l6 -82q-121 -90 -276 -90q-49 0 -93 9t-86 33t-62.5 73t-8.5 119l106 514q16 78 -12.5 121.5t-89.5 43.5q-90 0 -165 -105t-105 -255q-25 -125 -37 -253t-10 -193v-66h-428l206 1141h-233l18 125h205q-25 59 -82 75l37 93q317 47 492 196l28 -8l-63 -356h217
l-19 -125h-221l-43 -238h17q145 207 376 207q164 0 249 -110.5t38 -321.5l-80 -381q-39 -174 72 -174q24 0 47 8z" />
    <glyph glyph-name="Itilde" unicode="&#x128;" horiz-adv-x="800" 
d="M729 1599q-68 0 -149.5 48.5t-120.5 48.5q-66 0 -94 -76l-117 29q37 139 106.5 195.5t145.5 56.5q68 0 151.5 -47.5t122.5 -47.5q68 0 96 72l111 -27q-35 -139 -105.5 -195.5t-146.5 -56.5zM12 0l-6 92q113 33 141 197l152 856q29 164 -72 196l37 93h623l4 -93
q-113 -33 -141 -196l-152 -856q-29 -164 72 -197l-37 -92h-621z" />
    <glyph glyph-name="itilde" unicode="&#x129;" horiz-adv-x="851" 
d="M641 1235q-68 0 -149.5 48t-120.5 48q-66 0 -95 -76l-116 29q37 139 106.5 195.5t145.5 56.5q68 0 151.5 -47t122.5 -47q68 0 96 71l111 -26q-35 -139 -105.5 -195.5t-146.5 -56.5zM356 -41q-49 0 -90 9t-81 33t-58 73t-8 119l78 440q12 78 -14.5 130t-78.5 66l37 95
q319 47 492 196l29 -10l-146 -813q-14 -86 7.5 -130t70.5 -44q25 0 49 8l8 -82q-119 -90 -295 -90z" />
    <glyph glyph-name="Imacron" unicode="&#x12a;" horiz-adv-x="800" 
d="M291 1597l26 175h666l-27 -175h-665zM12 0l-6 92q113 33 141 197l152 856q29 164 -72 196l37 93h623l4 -93q-113 -33 -141 -196l-152 -856q-29 -164 72 -197l-37 -92h-621z" />
    <glyph glyph-name="imacron" unicode="&#x12b;" horiz-adv-x="600" 
d="M147 1233l27 174h666l-27 -174h-666zM356 -41q-49 0 -90 9t-81 33t-58 73t-8 119l78 440q12 78 -14.5 130t-78.5 66l37 95q319 47 492 196l29 -10l-146 -813q-14 -86 7.5 -130t70.5 -44q25 0 49 8l8 -82q-119 -90 -295 -90z" />
    <glyph glyph-name="Iogonek" unicode="&#x12e;" horiz-adv-x="800" 
d="M887 1434l4 -93q-113 -33 -141 -196l-152 -856q-29 -164 72 -197l-37 -92h-162q-135 -88 -156 -209q-6 -39 13.5 -64.5t56.5 -25.5q68 0 125 72l96 -54q-131 -174 -311 -174q-123 0 -182.5 64.5t-42.5 161.5q20 135 143 229h-201l-6 92q113 33 141 197l152 856
q29 164 -72 196l37 93h623z" />
    <glyph glyph-name="iogonek" unicode="&#x12f;" horiz-adv-x="632" 
d="M436.5 1143q-108.5 0 -171 65.5t-62.5 151.5t62.5 152.5t171 66.5t173 -66.5t64.5 -152.5t-64.5 -151.5t-173 -65.5zM662 1110l-146 -813q-14 -86 7.5 -130t70.5 -44q25 0 49 8l8 -82q-104 -80 -260 -88q-88 -78 -102 -170q-6 -39 13.5 -64.5t55.5 -25.5q68 0 125 72
l97 -54q-131 -174 -312 -174q-123 0 -182 64.5t-43 161.5q20 135 143 229q-86 61 -67 193l78 440q12 78 -14.5 130t-78.5 66l37 95q319 47 492 196z" />
    <glyph glyph-name="Idotaccent" unicode="&#x130;" horiz-adv-x="784" 
d="M573 1585q-82 0 -122.5 49t-28.5 115q10 68 66.5 119t138.5 51q84 0 124 -51t29 -119q-12 -66 -67.5 -115t-139.5 -49zM-4 0l-6 92q113 33 141 197l152 856q29 164 -72 196l37 93h622l4 -93q-113 -33 -141 -196l-151 -856q-29 -164 71 -197l-37 -92h-620z" />
    <glyph glyph-name="dotlessi" unicode="&#x131;" horiz-adv-x="620" 
d="M356 -41q-49 0 -90 9t-81 33t-58 73t-8 119l78 440q12 78 -14.5 130t-78.5 66l37 95q319 47 492 196l29 -10l-146 -813q-14 -86 7.5 -130t70.5 -44q25 0 49 8l8 -82q-119 -90 -295 -90z" />
    <glyph glyph-name="IJ" unicode="&#x132;" horiz-adv-x="1511" 
d="M-4 0l-6 92q113 33 141 197l152 856q29 164 -72 196l37 93h622l4 -93q-113 -33 -141 -196l-151 -856q-29 -164 71 -197l-37 -92h-620zM598 -496q-184 0 -263 67t-59 175q14 78 75 127t138 49q72 0 111 -32.5t45 -71.5t18.5 -72t38.5 -33q41 0 68 62.5t49 193.5l207 1176
q29 164 -72 196l37 93h623l4 -93q-113 -33 -141 -196l-189 -1073q-29 -156 -98.5 -270.5t-165.5 -177t-201.5 -91.5t-224.5 -29z" />
    <glyph glyph-name="ij" unicode="&#x133;" horiz-adv-x="1329" 
d="M436.5 1143q-108.5 0 -171 65.5t-62.5 151.5t62.5 152.5t171 66.5t173 -66.5t64.5 -152.5t-64.5 -151.5t-173 -65.5zM1132.5 1143q-108.5 0 -171 65.5t-62.5 151.5t62.5 152.5t171 66.5t173 -66.5t64.5 -152.5t-64.5 -151.5t-173 -65.5zM356 -41q-49 0 -90 9t-81 33
t-58 73t-8 119l78 440q12 78 -14.5 130t-78.5 66l37 95q319 47 492 196l29 -10l-146 -813q-14 -86 7.5 -130t70.5 -44q25 0 49 8l8 -82q-119 -90 -295 -90zM541 -455q-178 0 -264.5 66.5t-77.5 152.5q14 135 153 136q53 0 89 -28t51.5 -60.5t46 -60t75.5 -27.5q90 0 113 151
l123 758q12 78 -14.5 130t-77.5 66l37 93q322 51 491 196l31 -8l-201 -1126q-37 -215 -186 -327t-389 -112z" />
    <glyph glyph-name="Jcircumflex" unicode="&#x134;" horiz-adv-x="700" 
d="M242 1509l-39 90l389 306l289 -306l-66 -90l-268 113zM-186 -496q-184 0 -263 67t-59 175q14 78 74.5 127t138.5 49q72 0 111 -32.5t45 -71.5t18 -72t39 -33q41 0 67.5 62.5t49.5 193.5l207 1176q29 164 -72 196l37 93h622l5 -93q-113 -33 -142 -196l-188 -1073
q-29 -156 -98.5 -270.5t-166 -177t-201.5 -91.5t-224 -29z" />
    <glyph glyph-name="jcircumflex" unicode="&#x135;" horiz-adv-x="827" 
d="M229 1145l-39 90l390 305l288 -305l-65 -90l-268 112zM-59 -455q-178 0 -264.5 66.5t-77.5 152.5q16 135 153 136q53 0 89 -28t51.5 -60.5t46 -60t75.5 -27.5q90 0 113 151l123 758q12 78 -14.5 130t-77.5 66l37 93q322 51 491 196l31 -8l-201 -1126q-37 -215 -186 -327
t-389 -112z" />
    <glyph glyph-name="uni0136" unicode="&#x136;" horiz-adv-x="1759" 
d="M1499 1475q158 0 235.5 -63.5t67.5 -178.5q-6 -92 -63.5 -142.5t-124.5 -50.5q-100 0 -197.5 49.5t-150.5 49.5q-74 0 -183 -92l394 -758q92 -172 190 -197l-37 -92h-704l-4 92q45 16 55 65.5t-29 131.5l-180 344h-10q-90 -150 -166 -289l-10 -55q-29 -164 71 -197
l-37 -92h-620l-6 92q113 33 141 197l152 856q29 164 -72 196l37 93h622l4 -93q-113 -33 -141 -196l-55 -311h10q201 299 412 470t399 171zM817 -88q115 0 176.5 -79t38.5 -218q-27 -176 -159 -325.5t-316 -227.5l-55 119q111 66 175 138.5t118 174.5l-7 8q-45 -27 -79 -26
q-92 0 -147.5 61.5t-41 157.5t101 156.5t195.5 60.5z" />
    <glyph glyph-name="uni0137" unicode="&#x137;" horiz-adv-x="1402" 
d="M1225 160q70 0 149 57l43 -82q-168 -176 -395 -176q-174 0 -284.5 114.5t-145.5 329.5h-10q-70 -199 -68 -403h-436l207 1145q12 76 -14.5 128t-77.5 68l36 93q317 47 492 196l31 -8l-162 -901h12q133 203 293 298t303 95q106 0 167.5 -48t61.5 -126q0 -141 -126.5 -272
t-325.5 -203q47 -188 106.5 -246.5t143.5 -58.5zM930 795q-74 0 -153 -72t-140 -193q156 2 253 56.5t97 154.5q0 20 -15 37t-42 17zM700 -88q115 0 176.5 -79t38.5 -218q-27 -176 -158.5 -325.5t-316.5 -227.5l-55 119q111 66 175.5 138.5t117.5 174.5l-6 8q-45 -27 -80 -26
q-92 0 -147.5 61.5t-41 157.5t101 156.5t195.5 60.5z" />
    <glyph glyph-name="kgreenlandic" unicode="&#x138;" horiz-adv-x="1402" 
d="M1225 160q70 0 149 57l43 -82q-168 -176 -395 -176q-174 0 -284.5 114.5t-145.5 329.5h-10q-70 -199 -68 -403h-436l115 635q12 76 -14.5 128t-78.5 68l37 93q317 47 492 196l30 -8l-69 -391h12q133 203 293 298t303 95q106 0 167.5 -48t61.5 -126q0 -141 -126.5 -272
t-325.5 -203q47 -188 106.5 -246.5t143.5 -58.5zM930 795q-74 0 -153 -72t-140 -193q156 2 253 56.5t97 154.5q0 20 -15 37t-42 17z" />
    <glyph glyph-name="Lacute" unicode="&#x139;" horiz-adv-x="1372" 
d="M829 1704l-337 -186l-78 71l268 273q49 47 86 68.5t86 21.5q47 0 74.5 -31t19.5 -74q-13 -86 -119 -143zM1352 459l84 -45l-154 -455h-33q-27 16 -131 28.5t-172 12.5h-950l-6 92q113 33 141 197l152 856q29 164 -72 196l37 93h622l4 -93q-113 -33 -141 -196l-166 -940
q143 -29 242 -29q88 0 176 28.5t151.5 70.5t113.5 84t77 71z" />
    <glyph glyph-name="lacute" unicode="&#x13a;" horiz-adv-x="714" 
d="M481 1645l-78 71l269 273q49 47 86 68.5t86 21.5q47 0 74.5 -31t19.5 -74q-12 -86 -119 -143zM373 -41q-49 0 -90 9t-81 33t-58.5 73t-8.5 119l168 952q14 76 -12.5 128t-79.5 68l37 93q317 47 491 196l31 -8l-238 -1325q-33 -174 78 -174q25 0 47 8l11 -82
q-121 -90 -295 -90z" />
    <glyph glyph-name="uni013B" unicode="&#x13b;" horiz-adv-x="1372" 
d="M1352 459l84 -45l-154 -455h-33q-27 16 -131 28.5t-172 12.5h-950l-6 92q113 33 141 197l152 856q29 164 -72 196l37 93h622l4 -93q-113 -33 -141 -196l-166 -940q143 -29 242 -29q88 0 176 28.5t151.5 70.5t113.5 84t77 71zM700 -88q115 0 176.5 -79t38.5 -218
q-27 -176 -158.5 -325.5t-316.5 -227.5l-55 119q111 66 175.5 138.5t117.5 174.5l-6 8q-45 -27 -80 -26q-92 0 -147.5 61.5t-41 157.5t101 156.5t195.5 60.5z" />
    <glyph glyph-name="uni013C" unicode="&#x13c;" horiz-adv-x="714" 
d="M610 123q25 0 47 8l11 -82q-121 -90 -295 -90q-49 0 -90 9t-81 33t-58.5 73t-8.5 119l168 952q14 76 -12.5 128t-79.5 68l37 93q317 47 491 196l31 -8l-238 -1325q-33 -174 78 -174zM336 -88q115 0 176 -79t39 -218q-27 -176 -159 -325.5t-316 -227.5l-56 119
q111 66 175.5 138.5t117.5 174.5l-6 8q-45 -27 -80 -26q-92 0 -147 61.5t-41 157.5t101 156.5t196 60.5z" />
    <glyph glyph-name="Lcaron" unicode="&#x13d;" horiz-adv-x="1372" 
d="M1401 1475q115 0 175 -79t40 -218q-29 -176 -160 -326t-315 -227l-58 118q113 66 178.5 138.5t114.5 175.5l-6 8q-45 -27 -78 -27q-92 0 -147 61.5t-41 158t101 157t196 60.5zM809 176q88 0 176 28.5t151.5 70.5t113.5 84t77 71l25 29l84 -45l-154 -455h-33
q-27 16 -131 28.5t-172 12.5h-950l-6 92q113 33 141 197l152 856q29 164 -72 196l37 93h622l4 -93q-113 -33 -141 -196l-166 -940q144 -29 242 -29z" />
    <glyph glyph-name="lcaron" unicode="&#x13e;" horiz-adv-x="1142" 
d="M610 123q25 0 47 8l11 -82q-121 -90 -295 -90q-49 0 -90 9t-81 33t-58.5 73t-8.5 119l168 952q14 76 -12.5 128t-79.5 68l37 93q317 47 491 196l31 -8l-238 -1325q-33 -174 78 -174zM1079 1475q115 0 175.5 -79t39.5 -218q-29 -176 -159.5 -326t-315.5 -227l-57 118
q113 66 178.5 138.5t114.5 175.5l-6 8q-45 -27 -78 -27q-92 0 -147.5 61.5t-41 158t101 157t195.5 60.5z" />
    <glyph glyph-name="Ldot" unicode="&#x13f;" horiz-adv-x="1372" 
d="M1352 459l84 -45l-154 -455h-33q-27 16 -131 28.5t-172 12.5h-950l-6 92q113 33 141 197l152 856q29 164 -72 196l37 93h622l4 -93q-113 -33 -141 -196l-166 -940q143 -29 242 -29q88 0 176 28.5t151.5 70.5t113.5 84t77 71zM1009.5 555q-102.5 0 -164 67.5t-44.5 174.5
q18 106 100 173.5t184.5 67.5t164 -67.5t42.5 -173.5q-16 -106 -98 -174t-184.5 -68z" />
    <glyph glyph-name="ldot" unicode="&#x140;" horiz-adv-x="1124" 
d="M373 -41q-49 0 -90 9t-81 33t-58.5 73t-8.5 119l168 952q14 76 -12.5 128t-79.5 68l37 93q317 47 491 196l31 -8l-238 -1325q-33 -174 78 -174q25 0 47 8l11 -82q-121 -90 -295 -90zM927.5 481q-102.5 0 -164 67.5t-44.5 174.5q18 106 100 174t184.5 68t164 -68
t42.5 -174q-16 -106 -98 -174t-184.5 -68z" />
    <glyph glyph-name="Lslash" unicode="&#x141;" horiz-adv-x="1312" 
d="M1276 496l86 -45l-232 -492h-32q-27 16 -131.5 28.5t-171.5 12.5h-785l-6 92q111 31 139 197l39 248l-190 -105l18 125l193 105l76 483q25 164 -76 196l35 93h622l6 -93q-113 -33 -137 -196l-35 -215l183 98l-19 -125l-184 -100l-96 -615q82 -10 137 -10q88 0 178 33
t155.5 79t119 93t81.5 80z" />
    <glyph glyph-name="lslash" unicode="&#x142;" horiz-adv-x="714" 
d="M770 1622l-152 -846l132 72l-21 -125l-133 -72l-64 -354q-33 -174 78 -174q25 0 47 8l11 -82q-121 -90 -295 -90q-49 0 -90 9t-81 33t-58.5 73t-8.5 119l41 229l-137 -74l20 125l140 76l104 596q14 76 -12.5 128t-79.5 68l37 93q317 47 491 196z" />
    <glyph glyph-name="Nacute" unicode="&#x143;" horiz-adv-x="1536" 
d="M1202 1704l-338 -186l-78 71l269 273q49 47 86 68.5t86 21.5q47 0 74.5 -31t19.5 -74q-13 -86 -119 -143zM1636 1434l4 -93q-113 -33 -141 -196l-203 -1145h-206q-10 82 -52.5 155.5t-100.5 129t-132 121t-143.5 125t-136 146.5t-107.5 181h-10l-101 -569
q-29 -164 74 -197l-37 -92h-350l-4 92q113 33 141 197l152 856q29 164 -74 196l37 93h350q61 -127 137 -230.5t145.5 -171t134 -127t121 -126t89.5 -140.5h10l88 506q29 164 -72 196l37 93h350z" />
    <glyph glyph-name="nacute" unicode="&#x144;" horiz-adv-x="1318" 
d="M981 1339l-338 -186l-78 72l269 272q49 47 85.5 68.5t86.5 21.5q47 0 74.5 -30.5t19.5 -73.5q-13 -87 -119 -144zM1370 131l4 -82q-121 -90 -297 -90q-49 0 -90 9t-79 33t-55 73t-5 119l106 514q16 78 -11.5 121.5t-88.5 43.5q-90 0 -166 -106.5t-106 -253.5
q-25 -125 -37.5 -253t-12.5 -193l3 -66h-426l86 475l28 158q12 78 -14.5 130t-77.5 66l37 95q324 47 494 196l28 -10l-39 -207h15q80 113 170 160t206 47q164 0 250 -109.5t39 -322.5l-82 -381q-18 -86 2.5 -130t69.5 -44q24 0 49 8z" />
    <glyph glyph-name="uni0145" unicode="&#x145;" horiz-adv-x="1536" 
d="M1636 1434l4 -93q-113 -33 -141 -196l-203 -1145h-206q-10 82 -52.5 155.5t-100.5 129t-132 121t-143.5 125t-136 146.5t-107.5 181h-10l-101 -569q-29 -164 74 -197l-37 -92h-350l-4 92q113 33 141 197l152 856q29 164 -74 196l37 93h350q61 -127 137 -230.5t145.5 -171
t134 -127t121 -126t89.5 -140.5h10l88 506q29 164 -72 196l37 93h350zM690 -88q115 0 176.5 -79t38.5 -218q-27 -176 -159 -325.5t-316 -227.5l-55 119q111 66 175 138.5t118 174.5l-6 8q-45 -27 -80 -26q-92 0 -147.5 61.5t-41 157.5t101 156.5t195.5 60.5z" />
    <glyph glyph-name="uni0146" unicode="&#x146;" horiz-adv-x="1318" 
d="M1370 131l4 -82q-121 -90 -297 -90q-49 0 -90 9t-79 33t-55 73t-5 119l106 514q16 78 -11.5 121.5t-88.5 43.5q-90 0 -166 -106.5t-106 -253.5q-25 -125 -37.5 -253t-12.5 -193l3 -66h-426l86 475l28 158q12 78 -14.5 130t-77.5 66l37 95q324 47 494 196l28 -10l-39 -207
h15q80 113 170 160t206 47q164 0 250 -109.5t39 -322.5l-82 -381q-18 -86 2.5 -130t69.5 -44q24 0 49 8zM698 -88q115 0 176.5 -79t38.5 -218q-27 -176 -158.5 -325.5t-316.5 -227.5l-55 119q111 66 175.5 138.5t117.5 174.5l-6 8q-45 -27 -80 -26q-92 0 -147.5 61.5
t-41 157.5t101 156.5t195.5 60.5z" />
    <glyph glyph-name="Ncaron" unicode="&#x147;" horiz-adv-x="1536" 
d="M1362 1815l-387 -306l-291 306l66 90l270 -111l303 111zM1636 1434l4 -93q-113 -33 -141 -196l-203 -1145h-206q-10 82 -52.5 155.5t-100.5 129t-132 121t-143.5 125t-136 146.5t-107.5 181h-10l-101 -569q-29 -164 74 -197l-37 -92h-350l-4 92q113 33 141 197l152 856
q29 164 -74 196l37 93h350q61 -127 137 -230.5t145.5 -171t134 -127t121 -126t89.5 -140.5h10l88 506q29 164 -72 196l37 93h350z" />
    <glyph glyph-name="ncaron" unicode="&#x148;" horiz-adv-x="1318" 
d="M1221 1450l-387 -305l-291 305l65 90l271 -110l303 110zM1370 131l4 -82q-121 -90 -297 -90q-49 0 -90 9t-79 33t-55 73t-5 119l106 514q16 78 -11.5 121.5t-88.5 43.5q-90 0 -166 -106.5t-106 -253.5q-25 -125 -37.5 -253t-12.5 -193l3 -66h-426l86 475l28 158
q12 78 -14.5 130t-77.5 66l37 95q324 47 494 196l28 -10l-39 -207h15q80 113 170 160t206 47q164 0 250 -109.5t39 -322.5l-82 -381q-18 -86 2.5 -130t69.5 -44q24 0 49 8z" />
    <glyph glyph-name="napostrophe" unicode="&#x149;" horiz-adv-x="1605" 
d="M313 1475q115 0 175.5 -79t39.5 -218q-29 -176 -159.5 -326t-315.5 -227l-57 118q113 66 178.5 138.5t114.5 175.5l-6 8q-45 -27 -78 -27q-92 0 -147.5 61.5t-41 158t101 157t195.5 60.5zM1657 131l4 -82q-121 -90 -297 -90q-49 0 -90 9t-79 33t-55.5 73t-4.5 119
l106 514q16 78 -11.5 121.5t-88.5 43.5q-90 0 -166 -106.5t-107 -253.5q-25 -125 -37 -253t-12 -193l2 -66h-426l86 475l29 158q12 78 -14.5 130t-77.5 66l37 95q324 47 493 196l29 -10l-39 -207h14q80 113 170 160t207 47q164 0 250 -109.5t39 -322.5l-82 -381
q-18 -86 2.5 -130t69.5 -44q24 0 49 8z" />
    <glyph glyph-name="Eng" unicode="&#x14a;" horiz-adv-x="1595" 
d="M1681 1434l7 -93q-113 -33 -138 -196l-192 -1208q-31 -195 -139.5 -314t-313.5 -119q-145 0 -235 58.5t-72 163.5q8 66 56 107.5t110 41.5q63 0 95 -30.5t36 -67.5t28.5 -68t75.5 -31q137 0 177 259l12 83q-16 92 -78.5 174t-149 151t-174.5 139.5t-175 168t-136 205.5
h-10l-90 -569q-25 -166 76 -197l-35 -92h-350l-7 92q113 33 138 197l137 856q25 164 -76 196l35 93h330q63 -125 144 -229.5t153.5 -171t141 -126t127 -127t93.5 -141.5h6l80 506q25 166 -76 196l35 93h354z" />
    <glyph glyph-name="eng" unicode="&#x14b;" horiz-adv-x="1318" 
d="M1042 1110q164 0 250 -109.5t39 -322.5l-133 -723q-33 -184 -167 -299t-378 -115q-162 0 -263 71t-85 175q10 66 57.5 112t116.5 46q57 0 82 -30t26 -71t-1 -83t13 -71.5t56 -29.5q53 0 88 83t66 234l145 730q16 78 -11.5 121.5t-88.5 43.5q-90 0 -166 -106.5
t-106 -253.5q-25 -125 -37.5 -253t-12.5 -193l3 -66h-426l86 475l28 158q12 78 -14.5 130t-77.5 66l37 95q324 47 494 196l28 -10l-39 -207h15q80 113 169.5 160t206.5 47z" />
    <glyph glyph-name="Omacron" unicode="&#x14c;" horiz-adv-x="1611" 
d="M735 1597l27 175h665l-26 -175h-666zM729 -41q-141 0 -263 52t-208 146.5t-123 237t-6 310.5q59 346 299 558t569 212q299 0 479.5 -216.5t121 -554t-306.5 -541.5t-562 -204zM762 135q115 0 226.5 166t156.5 422q47 258 -6.5 415.5t-171.5 157.5q-113 0 -223.5 -158.5
t-155.5 -414.5q-47 -262 1 -425t173 -163z" />
    <glyph glyph-name="omacron" unicode="&#x14d;" horiz-adv-x="1257" 
d="M373 1233l26 174h666l-27 -174h-665zM565 -41q-260 0 -392 160t-97 416q35 258 211 417.5t436 159.5t393 -159.5t98 -417.5q-35 -256 -212 -416t-437 -160zM590 137q84 0 149.5 110.5t87.5 287.5q25 178 -9 289.5t-118 111.5t-149.5 -110.5t-89.5 -290.5
q-25 -178 10 -288t119 -110z" />
    <glyph glyph-name="Obreve" unicode="&#x14e;" horiz-adv-x="1611" 
d="M1047 1579q-123 0 -201 58.5t-98 152.5l124 70q12 -49 69.5 -77t133.5 -28q80 0 146.5 26.5t93.5 73.5l102 -65q-53 -94 -149 -152.5t-221 -58.5zM729 -41q-141 0 -263 52t-208 146.5t-123 237t-6 310.5q59 346 299 558t569 212q299 0 479.5 -216.5t121 -554
t-306.5 -541.5t-562 -204zM762 135q115 0 226.5 166t156.5 422q47 258 -6.5 415.5t-171.5 157.5q-113 0 -223.5 -158.5t-155.5 -414.5q-47 -262 1 -425t173 -163z" />
    <glyph glyph-name="obreve" unicode="&#x14f;" horiz-adv-x="1257" 
d="M743 1214q-123 0 -200.5 58.5t-98.5 152.5l125 70q12 -49 69.5 -76.5t133.5 -27.5q80 0 146.5 26.5t93.5 73.5l102 -66q-53 -94 -149.5 -152.5t-221.5 -58.5zM565 -41q-260 0 -392 160t-97 416q35 258 211 417.5t436 159.5t393 -159.5t98 -417.5q-35 -256 -212 -416
t-437 -160zM590 137q84 0 149.5 110.5t87.5 287.5q25 178 -9 289.5t-118 111.5t-149.5 -110.5t-89.5 -290.5q-25 -178 10 -288t119 -110z" />
    <glyph glyph-name="Ohungarumlaut" unicode="&#x150;" horiz-adv-x="1611" 
d="M803 1501l-111 49q121 227 160 303q55 119 152 119q53 2 77.5 -32.5t18.5 -79.5q-6 -43 -66 -111zM1130 1501l-110 49q121 227 160 303q55 119 151 119q53 2 78 -32.5t18 -79.5q-6 -43 -65 -111zM729 -41q-141 0 -263 52t-208 146.5t-123 237t-6 310.5q59 346 299 558
t569 212q299 0 479.5 -216.5t121 -554t-306.5 -541.5t-562 -204zM762 135q115 0 226.5 166t156.5 422q47 258 -6.5 415.5t-171.5 157.5q-113 0 -223.5 -158.5t-155.5 -414.5q-47 -262 1 -425t173 -163z" />
    <glyph glyph-name="ohungarumlaut" unicode="&#x151;" horiz-adv-x="1257" 
d="M539 1137l-111 49q121 227 160 303q55 119 151 119q53 2 78 -33t19 -80q-6 -43 -66 -111zM866 1137l-110 49q121 227 159 303q55 119 152 119q53 2 77.5 -33t18.5 -80q-6 -43 -65 -111zM565 -41q-260 0 -392 160t-97 416q35 258 211 417.5t436 159.5t393 -159.5
t98 -417.5q-35 -256 -212 -416t-437 -160zM590 137q84 0 149.5 110.5t87.5 287.5q25 178 -9 289.5t-118 111.5t-149.5 -110.5t-89.5 -290.5q-25 -178 10 -288t119 -110z" />
    <glyph glyph-name="OE" unicode="&#x152;" horiz-adv-x="2365" 
d="M1692 688q-35 0 -64 -20l-74 -478q104 -14 166 -14q88 0 176.5 28.5t151.5 70.5t113.5 84t74.5 71l27 29l84 -45l-154 -455h-32q-27 16 -131.5 28.5t-171.5 12.5h-859q-147 -41 -297 -41q-295 0 -480 208t-134 540q55 344 290.5 556t563.5 212q143 0 283 -41h1118
l49 -396l-98 -32q-2 10 -8.5 26.5t-34 59.5t-69.5 76.5t-123 60t-183 26.5q-74 0 -156 -16l-57 -358q96 74 188 73q88 0 186.5 -65.5t160.5 -65.5q51 0 98 43l63 -71q-137 -238 -334 -238q-63 0 -173.5 65.5t-159.5 65.5zM1120 289l121 766q-33 109 -120 177t-232 68
q-139 0 -236.5 -122.5t-122.5 -280.5q-27 -139 -11 -275.5t55.5 -245t123.5 -176t193 -67.5q51 0 113.5 28.5t103.5 74.5z" />
    <glyph glyph-name="oe" unicode="&#x153;" horiz-adv-x="2453" 
d="M2384 414l59 -58q-207 -397 -612 -397q-248 0 -365 174h-18q-162 -174 -418 -174q-260 0 -392 160t-97 416q35 258 211 417.5t436 159.5q258 0 373 -178h16q174 178 451 178q197 0 303 -71.5t106 -202.5q0 -90 -53 -160t-155.5 -116t-224.5 -76.5t-288 -53.5
q10 -117 79 -185.5t149 -68.5q133 0 229 55.5t211 180.5zM1292 535q25 178 -9 289.5t-118 111.5t-149.5 -110.5t-89.5 -290.5q-25 -178 10 -288t119 -110t149 111t88 287zM1995 936q-72 0 -159 -99.5t-114 -261.5q152 25 258.5 104t106.5 161q0 41 -24.5 68.5t-67.5 27.5z
" />
    <glyph glyph-name="Racute" unicode="&#x154;" horiz-adv-x="1662" 
d="M1221 1704l-338 -186l-78 71l268 273q49 47 86 68.5t86 21.5q47 0 75 -31t19 -74q-12 -86 -118 -143zM1647 1016q-53 -297 -424 -393l-4 -19q72 -8 116.5 -31.5t69.5 -69.5t34 -82t21 -112q18 -125 39 -155q35 -53 121 -45l-10 -103q-156 -47 -293 -47q-61 0 -108.5 7
t-108 33t-98 86t-48.5 153q-23 213 -75 278.5t-228 65.5h-18l-51 -293q-29 -164 71 -197l-37 -92h-622l-4 92q113 33 141 197l152 856q29 164 -72 196l37 93h846q279 0 432.5 -112.5t120.5 -305.5zM895 1255q-76 0 -143 -10l-86 -477h163q317 0 359 229q20 121 -58.5 189.5
t-234.5 68.5z" />
    <glyph glyph-name="racute" unicode="&#x155;" horiz-adv-x="1200" 
d="M860 1339l-338 -186l-78 72l269 272q49 47 86 68.5t86 21.5q47 0 74.5 -30.5t19.5 -73.5q-13 -87 -119 -144zM1014 1110q111 0 185.5 -73.5t55.5 -180.5q-18 -98 -81.5 -166.5t-151.5 -68.5q-76 0 -119 34.5t-51 75.5t-26.5 76t-53.5 35q-51 0 -116.5 -116t-90.5 -263
q-20 -127 -29.5 -243t-7.5 -167v-53h-428l115 633q12 78 -14.5 130t-77.5 66l37 95q319 47 491 196l31 -10l-41 -209h14q88 115 162 162t197 47z" />
    <glyph glyph-name="uni0156" unicode="&#x156;" horiz-adv-x="1662" 
d="M1647 1016q-53 -297 -424 -393l-4 -19q72 -8 116.5 -31.5t69.5 -69.5t34 -82t21 -112q18 -125 39 -155q35 -53 121 -45l-10 -103q-156 -47 -293 -47q-61 0 -108.5 7t-108 33t-98 86t-48.5 153q-23 213 -75 278.5t-228 65.5h-18l-51 -293q-29 -164 71 -197l-37 -92h-622
l-4 92q113 33 141 197l152 856q29 164 -72 196l37 93h846q279 0 432.5 -112.5t120.5 -305.5zM895 1255q-76 0 -143 -10l-86 -477h163q317 0 359 229q20 121 -58.5 189.5t-234.5 68.5zM772 -88q115 0 176.5 -79t38.5 -218q-27 -176 -159 -325.5t-316 -227.5l-55 119
q111 66 175 138.5t118 174.5l-7 8q-45 -27 -79 -26q-92 0 -147.5 61.5t-41.5 157.5t101 156.5t196 60.5z" />
    <glyph glyph-name="uni0157" unicode="&#x157;" horiz-adv-x="1200" 
d="M1014 1110q111 0 185.5 -73.5t55.5 -180.5q-18 -98 -81.5 -166.5t-151.5 -68.5q-76 0 -119 34.5t-51 75.5t-26.5 76t-53.5 35q-51 0 -116.5 -116t-90.5 -263q-20 -127 -29.5 -243t-7.5 -167v-53h-428l115 633q12 78 -14.5 130t-77.5 66l37 95q319 47 491 196l31 -10
l-41 -209h14q88 115 162 162t197 47zM311 -88q115 0 176.5 -79t38.5 -218q-27 -176 -158.5 -325.5t-316.5 -227.5l-55 119q111 66 175.5 138.5t117.5 174.5l-6 8q-45 -27 -80 -26q-92 0 -147.5 61.5t-41 157.5t101 156.5t195.5 60.5z" />
    <glyph glyph-name="Rcaron" unicode="&#x158;" horiz-adv-x="1662" 
d="M1360 1815l-387 -306l-291 306l66 90l270 -111l303 111zM1647 1016q-53 -297 -424 -393l-4 -19q72 -8 116.5 -31.5t69.5 -69.5t34 -82t21 -112q18 -125 39 -155q35 -53 121 -45l-10 -103q-156 -47 -293 -47q-61 0 -108.5 7t-108 33t-98 86t-48.5 153q-23 213 -75 278.5
t-228 65.5h-18l-51 -293q-29 -164 71 -197l-37 -92h-622l-4 92q113 33 141 197l152 856q29 164 -72 196l37 93h846q279 0 432.5 -112.5t120.5 -305.5zM895 1255q-76 0 -143 -10l-86 -477h163q317 0 359 229q20 121 -58.5 189.5t-234.5 68.5z" />
    <glyph glyph-name="rcaron" unicode="&#x159;" horiz-adv-x="1200" 
d="M940 1450l-387 -305l-291 305l66 90l270 -110l303 110zM1014 1110q111 0 185.5 -73.5t55.5 -180.5q-18 -98 -81.5 -166.5t-151.5 -68.5q-76 0 -119 34.5t-51 75.5t-26.5 76t-53.5 35q-51 0 -116.5 -116t-90.5 -263q-20 -127 -29.5 -243t-7.5 -167v-53h-428l115 633
q12 78 -14.5 130t-77.5 66l37 95q319 47 491 196l31 -10l-41 -209h14q88 115 162 162t197 47z" />
    <glyph glyph-name="Sacute" unicode="&#x15a;" horiz-adv-x="1470" 
d="M815 1518l-78 71l269 273q49 47 85.5 68.5t86.5 21.5q47 0 74.5 -31t19.5 -74q-12 -86 -119 -143zM690 -41q-287 0 -460 113.5t-144 265.5q31 168 207 168q82 0 132 -38t71.5 -93.5t43 -109.5t72 -92t131.5 -38q170 0 195 131q10 49 -7.5 88t-66.5 70t-94 50.5t-125 47.5
q-197 68 -316.5 201t-88.5 309q39 205 223 324t461 119q264 0 429 -115t136 -266q-35 -170 -219 -170q-88 0 -136.5 37.5t-64.5 93t-29.5 111t-49.5 93t-105 37.5q-82 0 -129 -42t-60 -109q-10 -53 -2 -90t44 -65.5t62.5 -42t94.5 -40.5q16 -6 25 -10q227 -90 305 -143
q211 -141 166 -379q-37 -201 -236 -308.5t-465 -107.5z" />
    <glyph glyph-name="sacute" unicode="&#x15b;" horiz-adv-x="1282" 
d="M446 1153l-77 72l268 272q49 47 86 68.5t86 21.5q47 0 74.5 -30.5t19.5 -73.5q-12 -86 -119 -144zM582 -41q-135 0 -253 25.5t-201 85t-83 141.5q0 66 43 103.5t115 37.5q51 0 87 -22.5t60.5 -54t51 -62.5t73.5 -53.5t113 -22.5q113 0 165 35t52 88q0 23 -17.5 42.5
t-51.5 32.5t-64.5 22.5t-77.5 20.5t-70 17q-74 20 -126 43t-107 61t-84 97t-29 135q0 166 153.5 273.5t428.5 107.5q207 0 340 -62.5t133 -168.5q0 -57 -34 -91t-101 -34q-51 0 -84 18.5t-50.5 44t-37 52t-59.5 45t-103 18.5q-98 0 -153.5 -28.5t-55.5 -76.5q0 -27 24.5 -49
t68.5 -35.5t81 -21.5t84 -15.5t53 -9.5q172 -33 266.5 -102.5t94.5 -222.5q0 -70 -30 -135.5t-97.5 -132t-201.5 -106.5t-316 -40z" />
    <glyph glyph-name="Scircumflex" unicode="&#x15c;" horiz-adv-x="1470" 
d="M629 1509l-39 90l389 306l289 -306l-66 -90l-268 113zM690 -41q-287 0 -460 113.5t-144 265.5q31 168 207 168q82 0 132 -38t71.5 -93.5t43 -109.5t72 -92t131.5 -38q170 0 195 131q10 49 -7.5 88t-66.5 70t-94 50.5t-125 47.5q-197 68 -316.5 201t-88.5 309
q39 205 223 324t461 119q264 0 429 -115t136 -266q-35 -170 -219 -170q-88 0 -136.5 37.5t-64.5 93t-29.5 111t-49.5 93t-105 37.5q-82 0 -129 -42t-60 -109q-10 -53 -2 -90t44 -65.5t62.5 -42t94.5 -40.5q16 -6 25 -10q227 -90 305 -143q211 -141 166 -379
q-37 -201 -236 -308.5t-465 -107.5z" />
    <glyph glyph-name="scircumflex" unicode="&#x15d;" horiz-adv-x="1282" 
d="M471 1145l-39 90l389 305l289 -305l-66 -90l-268 112zM582 -41q-135 0 -253 25.5t-201 85t-83 141.5q0 66 43 103.5t115 37.5q51 0 87 -22.5t60.5 -54t51 -62.5t73.5 -53.5t113 -22.5q113 0 165 35t52 88q0 23 -17.5 42.5t-51.5 32.5t-64.5 22.5t-77.5 20.5t-70 17
q-74 20 -126 43t-107 61t-84 97t-29 135q0 166 153.5 273.5t428.5 107.5q207 0 340 -62.5t133 -168.5q0 -57 -34 -91t-101 -34q-51 0 -84 18.5t-50.5 44t-37 52t-59.5 45t-103 18.5q-98 0 -153.5 -28.5t-55.5 -76.5q0 -27 24.5 -49t68.5 -35.5t81 -21.5t84 -15.5t53 -9.5
q172 -33 266.5 -102.5t94.5 -222.5q0 -70 -30 -135.5t-97.5 -132t-201.5 -106.5t-316 -40z" />
    <glyph glyph-name="Scedilla" unicode="&#x15e;" horiz-adv-x="1470" 
d="M924 1475q264 0 429 -115t136 -266q-35 -170 -219 -170q-88 0 -136.5 37.5t-64.5 93t-29.5 111t-49.5 93t-105 37.5q-82 0 -129 -42t-60 -109q-10 -53 -2 -90t44 -65.5t62.5 -42t94.5 -40.5q16 -6 25 -10q227 -90 305 -143q211 -141 166 -379q-31 -168 -179.5 -272.5
t-363.5 -133.5l-57 -92q18 8 49 8q72 0 109.5 -35.5t27.5 -95.5q-14 -96 -118.5 -166.5t-248.5 -70.5q-113 0 -181.5 50t-57.5 120q4 31 32.5 57.5t61.5 26.5q41 0 62.5 -22.5t25.5 -51.5t26.5 -51.5t67.5 -22.5t79 25.5t42 70.5q2 25 -13.5 40.5t-41.5 15.5q-31 0 -58 -19
l-73 35l100 168q-283 2 -454 114.5t-142 264.5q31 168 207 168q82 0 132 -38t71.5 -93.5t43 -109.5t72 -92t131.5 -38q170 0 195 131q10 49 -7.5 88t-66.5 70t-94 50.5t-125 47.5q-197 68 -316.5 201t-88.5 309q39 205 223.5 324t460.5 119z" />
    <glyph glyph-name="scedilla" unicode="&#x15f;" horiz-adv-x="1282" 
d="M866 698q172 -33 266.5 -102.5t94.5 -222.5q0 -61 -23.5 -120.5t-76 -120t-155 -105.5t-241.5 -60l-55 -90q18 8 49 8q72 0 109.5 -35.5t27.5 -95.5q-14 -96 -118.5 -166.5t-247.5 -70.5q-113 0 -181.5 50t-58.5 120q4 31 32.5 57.5t61.5 26.5q41 0 62.5 -22.5
t25.5 -51.5t26.5 -51.5t68 -22.5t79 25.5t41.5 70.5q2 25 -13 40.5t-42 15.5q-31 0 -57 -19l-74 35l100 168q-131 2 -246.5 28.5t-195.5 85t-80 138.5q0 66 43 103.5t115 37.5q51 0 87 -22.5t60.5 -54t51 -62.5t73.5 -53.5t113 -22.5q113 0 165 35t52 88q0 23 -17.5 42.5
t-51.5 32.5t-64.5 22.5t-77.5 20.5t-70 17q-74 20 -126 43t-107 61t-84 97t-29 135q0 166 153.5 273.5t428.5 107.5q207 0 340 -62.5t133 -168.5q0 -57 -34 -91t-101 -34q-51 0 -84 18.5t-50.5 44t-37 52t-59.5 45t-103 18.5q-98 0 -153.5 -28.5t-55.5 -76.5q0 -27 24.5 -49
t68.5 -35.5t81 -21.5t84 -15.5t53 -9.5z" />
    <glyph glyph-name="Scaron" unicode="&#x160;" horiz-adv-x="1470" 
d="M909 1509l-291 306l66 90l270 -111l303 111l39 -90zM690 -41q-287 0 -460 113.5t-144 265.5q31 168 207 168q82 0 132 -38t71.5 -93.5t43 -109.5t72 -92t131.5 -38q170 0 195 131q10 49 -7.5 88t-66.5 70t-94 50.5t-125 47.5q-197 68 -316.5 201t-88.5 309
q39 205 223 324t461 119q264 0 429 -115t136 -266q-35 -170 -219 -170q-88 0 -136.5 37.5t-64.5 93t-29.5 111t-49.5 93t-105 37.5q-82 0 -129 -42t-60 -109q-10 -53 -2 -90t44 -65.5t62.5 -42t94.5 -40.5q16 -6 25 -10q227 -90 305 -143q211 -141 166 -379
q-37 -201 -236 -308.5t-465 -107.5z" />
    <glyph glyph-name="scaron" unicode="&#x161;" horiz-adv-x="1282" 
d="M762 1145l-291 305l66 90l270 -110l303 110l39 -90zM582 -41q-135 0 -253 25.5t-201 85t-83 141.5q0 66 43 103.5t115 37.5q51 0 87 -22.5t60.5 -54t51 -62.5t73.5 -53.5t113 -22.5q113 0 165 35t52 88q0 23 -17.5 42.5t-51.5 32.5t-64.5 22.5t-77.5 20.5t-70 17
q-74 20 -126 43t-107 61t-84 97t-29 135q0 166 153.5 273.5t428.5 107.5q207 0 340 -62.5t133 -168.5q0 -57 -34 -91t-101 -34q-51 0 -84 18.5t-50.5 44t-37 52t-59.5 45t-103 18.5q-98 0 -153.5 -28.5t-55.5 -76.5q0 -27 24.5 -49t68.5 -35.5t81 -21.5t84 -15.5t53 -9.5
q172 -33 266.5 -102.5t94.5 -222.5q0 -70 -30 -135.5t-97.5 -132t-201.5 -106.5t-316 -40z" />
    <glyph glyph-name="uni0162" unicode="&#x162;" horiz-adv-x="1531" 
d="M1550 1475l62 -471l-101 -46q-4 10 -13 29t-44 67t-76 86t-109.5 73.5t-146.5 43.5l-151 -968q-29 -164 76 -197l-37 -92h-224l-77 -123q18 8 49 8q72 0 109.5 -35.5t27.5 -95.5q-14 -96 -118.5 -166.5t-248.5 -70.5q-113 0 -181 50t-58 120q4 31 32.5 57.5t61.5 26.5
q41 0 62.5 -22.5t25.5 -51.5t26.5 -51.5t67.5 -22.5t79 25.5t42 70.5q2 25 -13.5 40.5t-41.5 15.5q-31 0 -58 -19l-73 35l125 209h-236l-6 92q113 33 137 197l154 971q-80 -8 -160 -43t-136 -77t-102.5 -84t-68.5 -69l-23 -29l-84 46l209 471h33q29 -16 132.5 -28.5
t172.5 -12.5h553q70 0 177.5 12t140.5 29h32z" />
    <glyph glyph-name="uni0163" unicode="&#x163;" horiz-adv-x="888" 
d="M713 885l-97 -611q-23 -139 84 -139q66 0 119 25l12 -152q-74 -25 -206 -43l-56 -88q18 8 49 8q72 0 110 -35.5t28 -95.5q-14 -96 -119 -166.5t-248 -70.5q-113 0 -181.5 50t-57.5 120q4 31 32.5 57.5t61.5 26.5q41 0 62.5 -22.5t25.5 -51.5t26.5 -51.5t67.5 -22.5
t79 25.5t42 70.5q2 25 -13.5 40.5t-41.5 15.5q-31 0 -58 -19l-74 35l103 172q-279 29 -234 318l97 604h-187l21 131q145 41 282.5 136t233.5 218h112l-47 -299h265l-29 -186h-264z" />
    <glyph glyph-name="Tcaron" unicode="&#x164;" horiz-adv-x="1531" 
d="M1321 1815l-387 -306l-291 306l66 90l270 -111l303 111zM1567 1475l51 -471l-100 -46q-4 10 -13.5 29t-43.5 67t-74.5 86t-108.5 73.5t-143 43.5l-170 -968q-29 -164 71 -197l-37 -92h-622l-4 92q113 33 141 197l170 971q-80 -8 -161 -43t-138 -77t-103 -84t-69 -69
l-23 -29l-84 46l218 471h34q27 -16 130.5 -28.5t173.5 -12.5h555q68 0 175 12t140 29h35z" />
    <glyph glyph-name="tcaron" unicode="&#x165;" horiz-adv-x="1581" 
d="M1479 1475q115 0 175 -79t40 -218q-29 -176 -160 -326t-315 -227l-58 118q113 66 178.5 138.5t114.5 175.5l-6 8q-45 -27 -78 -27q-92 0 -147.5 61.5t-41 158t101.5 157t196 60.5zM791 1370l-54 -301h264l-32 -186h-264l-107 -609q-25 -139 80 -139q80 0 141 25l8 -152
q-51 -16 -152.5 -32.5t-162.5 -16.5q-356 0 -299 322l104 602h-184l23 133q147 39 286.5 135t235.5 219h113z" />
    <glyph glyph-name="Tbar" unicode="&#x166;" horiz-adv-x="1531" 
d="M1550 1475l62 -471l-101 -46q-4 10 -13 29t-44 67t-76 86t-109.5 73.5t-146.5 43.5l-65 -426h215l-19 -124h-217l-65 -418q-29 -164 76 -197l-37 -92h-621l-6 92q113 33 137 197l66 418h-217l20 124h217l68 429q-80 -8 -160 -43t-136 -77t-102.5 -84t-68.5 -69l-23 -29
l-84 46l209 471h33q29 -16 132.5 -28.5t172.5 -12.5h553q70 0 177.5 12t140.5 29h32z" />
    <glyph glyph-name="tbar" unicode="&#x167;" horiz-adv-x="888" 
d="M977 885h-264l-45 -291h262l-19 -125h-264l-31 -195q-23 -139 84 -139q66 0 119 25l12 -152q-152 -49 -294 -49q-356 0 -308 322l31 188h-184l18 125h185l47 291h-187l21 131q145 41 282.5 136t233.5 218h112l-47 -299h265z" />
    <glyph glyph-name="Utilde" unicode="&#x168;" 
d="M1229 1599q-68 0 -150 48.5t-121 48.5q-66 0 -94 -76l-116 29q37 139 106.5 195.5t144.5 56.5q68 0 152 -47.5t123 -47.5q68 0 96 72l111 -27q-35 -139 -105.5 -195.5t-146.5 -56.5zM676 -41q-127 0 -226.5 29.5t-175 93t-103.5 176.5t-1 268l113 619q29 164 -72 196
l37 93h620l6 -93q-113 -33 -143 -196l-110 -617q-35 -197 27.5 -293t195.5 -96q293 0 362 389l109 617q29 164 -72 196l39 93h348l4 -93q-113 -33 -141 -196l-111 -619q-51 -283 -240.5 -425t-465.5 -142z" />
    <glyph glyph-name="utilde" unicode="&#x169;" horiz-adv-x="1316" 
d="M666 1331q-66 0 -95 -76l-116 29q37 139 106.5 195.5t145.5 56.5q68 0 151.5 -47t122.5 -47q68 0 96 71l111 -26q-35 -139 -105.5 -195.5t-146.5 -56.5q-68 0 -149.5 48t-120.5 48zM1292 123q25 0 47 8l11 -82q-121 -90 -297 -90q-106 0 -177 45t-65 164h-10
q-82 -117 -162 -163t-193 -46q-166 0 -256 110.5t-38 323.5l88 381q37 174 -72 174q-25 0 -47 -8l-17 82q123 90 299 90q113 0 188 -50t52 -181l-117 -519q-18 -78 6.5 -120.5t85.5 -42.5q92 0 162 104.5t105 267.5q25 125 36 249t9 188v61h428l-144 -772q-33 -174 78 -174z
" />
    <glyph glyph-name="Umacron" unicode="&#x16a;" 
d="M739 1597l27 175h666l-27 -175h-666zM676 -41q-127 0 -226.5 29.5t-175 93t-103.5 176.5t-1 268l113 619q29 164 -72 196l37 93h620l6 -93q-113 -33 -143 -196l-110 -617q-35 -197 27.5 -293t195.5 -96q293 0 362 389l109 617q29 164 -72 196l39 93h348l4 -93
q-113 -33 -141 -196l-111 -619q-51 -283 -240.5 -425t-465.5 -142z" />
    <glyph glyph-name="umacron" unicode="&#x16b;" horiz-adv-x="1316" 
d="M1167 1407l-26 -174h-666l27 174h665zM1292 123q25 0 47 8l11 -82q-121 -90 -297 -90q-106 0 -177 45t-65 164h-10q-82 -117 -162 -163t-193 -46q-166 0 -256 110.5t-38 323.5l88 381q37 174 -72 174q-25 0 -47 -8l-17 82q123 90 299 90q113 0 188 -50t52 -181l-117 -519
q-18 -78 6.5 -120.5t85.5 -42.5q92 0 162 104.5t105 267.5q25 125 36 249t9 188v61h428l-144 -772q-33 -174 78 -174z" />
    <glyph glyph-name="Ubreve" unicode="&#x16c;" 
d="M1059 1579q-123 0 -201 58.5t-98 152.5l125 70q12 -49 69.5 -77t132.5 -28q80 0 146.5 26.5t93.5 73.5l103 -65q-53 -94 -149.5 -152.5t-221.5 -58.5zM676 -41q-127 0 -226.5 29.5t-175 93t-103.5 176.5t-1 268l113 619q29 164 -72 196l37 93h620l6 -93
q-113 -33 -143 -196l-110 -617q-35 -197 27.5 -293t195.5 -96q293 0 362 389l109 617q29 164 -72 196l39 93h348l4 -93q-113 -33 -141 -196l-111 -619q-51 -283 -240.5 -425t-465.5 -142z" />
    <glyph glyph-name="ubreve" unicode="&#x16d;" horiz-adv-x="1316" 
d="M813 1214q-123 0 -200.5 58.5t-98.5 152.5l125 70q12 -49 69.5 -76.5t133.5 -27.5q80 0 146.5 26.5t92.5 73.5l103 -66q-53 -94 -149.5 -152.5t-221.5 -58.5zM1292 123q25 0 47 8l11 -82q-121 -90 -297 -90q-106 0 -177 45t-65 164h-10q-82 -117 -162 -163t-193 -46
q-166 0 -256 110.5t-38 323.5l88 381q37 174 -72 174q-25 0 -47 -8l-17 82q123 90 299 90q113 0 188 -50t52 -181l-117 -519q-18 -78 6.5 -120.5t85.5 -42.5q92 0 162 104.5t105 267.5q25 125 36 249t9 188v61h428l-144 -772q-33 -174 78 -174z" />
    <glyph glyph-name="Uring" unicode="&#x16e;" 
d="M1071 1536q-90 0 -145.5 63.5t-40.5 153.5q14 88 90 152.5t166 64.5t144 -64.5t40 -152.5q-14 -90 -89 -153.5t-165 -63.5zM1091.5 1669q32.5 0 60.5 24.5t34 59.5q4 33 -15.5 55.5t-52.5 22.5t-60.5 -22.5t-31.5 -55.5q-6 -35 13.5 -59.5t52 -24.5zM676 -41
q-127 0 -226.5 29.5t-175 93t-103.5 176.5t-1 268l113 619q29 164 -72 196l37 93h620l6 -93q-113 -33 -143 -196l-110 -617q-35 -197 27.5 -293t195.5 -96q293 0 362 389l109 617q29 164 -72 196l39 93h348l4 -93q-113 -33 -141 -196l-111 -619q-51 -283 -240.5 -425
t-465.5 -142z" />
    <glyph glyph-name="uring" unicode="&#x16f;" horiz-adv-x="1316" 
d="M815 1171q-90 0 -145.5 63.5t-40.5 154.5q14 88 90 152.5t166 64.5t144 -64.5t40 -152.5q-14 -90 -89 -154t-165 -64zM770 1389q-6 -35 13.5 -59.5t52 -24.5t60.5 24.5t34 59.5q4 33 -15.5 55t-52.5 22t-60.5 -22t-31.5 -55zM1292 123q25 0 47 8l11 -82
q-121 -90 -297 -90q-106 0 -177 45t-65 164h-10q-82 -117 -162 -163t-193 -46q-166 0 -256 110.5t-38 323.5l88 381q37 174 -72 174q-25 0 -47 -8l-17 82q123 90 299 90q113 0 188 -50t52 -181l-117 -519q-18 -78 6.5 -120.5t85.5 -42.5q92 0 162 104.5t105 267.5
q25 125 36 249t9 188v61h428l-144 -772q-33 -174 78 -174z" />
    <glyph glyph-name="Uhungarumlaut" unicode="&#x170;" 
d="M938 1501l-111 49q121 227 160 303q55 119 152 119q53 2 77.5 -32.5t18.5 -79.5q-6 -43 -66 -111zM1266 1501l-111 49q121 227 160 303q55 119 151 119q53 2 78 -32.5t19 -79.5q-6 -43 -66 -111zM676 -41q-127 0 -226.5 29.5t-175 93t-103.5 176.5t-1 268l113 619
q29 164 -72 196l37 93h620l6 -93q-113 -33 -143 -196l-110 -617q-35 -197 27.5 -293t195.5 -96q293 0 362 389l109 617q29 164 -72 196l39 93h348l4 -93q-113 -33 -141 -196l-111 -619q-51 -283 -240.5 -425t-465.5 -142z" />
    <glyph glyph-name="uhungarumlaut" unicode="&#x171;" horiz-adv-x="1316" 
d="M883 1384l-232 -247l-110 49q121 227 159 303q55 119 152 119q53 2 77.5 -33t18.5 -80q-6 -43 -65 -111zM979 1137l-111 49q121 227 160 303q55 119 152 119q53 2 77.5 -33t18.5 -80q-6 -43 -66 -111zM1292 123q25 0 47 8l11 -82q-121 -90 -297 -90q-106 0 -177 45
t-65 164h-10q-82 -117 -162 -163t-193 -46q-166 0 -256 110.5t-38 323.5l88 381q37 174 -72 174q-25 0 -47 -8l-17 82q123 90 299 90q113 0 188 -50t52 -181l-117 -519q-18 -78 6.5 -120.5t85.5 -42.5q92 0 162 104.5t105 267.5q25 125 36 249t9 188v61h428l-144 -772
q-33 -174 78 -174z" />
    <glyph glyph-name="Uogonek" unicode="&#x172;" 
d="M1630 1434l4 -93q-113 -33 -141 -196l-111 -619q-45 -260 -211.5 -402t-412.5 -161q-90 -80 -105 -172q-6 -39 13.5 -64.5t56.5 -25.5q68 0 125 72l96 -54q-131 -174 -311 -174q-123 0 -182.5 64.5t-42.5 161.5q18 115 110 200q-199 35 -296 170t-52 385l113 619
q29 164 -72 196l37 93h620l6 -93q-113 -33 -143 -196l-110 -617q-35 -197 27.5 -293t195.5 -96q293 0 362 389l109 617q29 164 -72 196l39 93h348z" />
    <glyph glyph-name="uogonek" unicode="&#x173;" horiz-adv-x="1316" 
d="M1137 -299q68 0 125 72l96 -54q-131 -174 -311 -174q-123 0 -182.5 64.5t-43.5 161.5q18 121 113 204q-131 41 -123 193h-10q-82 -117 -162 -163t-193 -46q-166 0 -256 110.5t-38 323.5l88 381q37 174 -72 174q-25 0 -47 -8l-17 82q123 90 299 90q113 0 188 -50t52 -181
l-117 -519q-18 -78 6.5 -120.5t85.5 -42.5q92 0 162 104.5t105 267.5q25 125 36 249t9 188v61h428l-144 -772q-33 -174 78 -174q25 0 47 8l11 -82q-63 -47 -160 -74q-104 -78 -123 -184q-6 -39 13.5 -64.5t56.5 -25.5z" />
    <glyph glyph-name="Wcircumflex" unicode="&#x174;" horiz-adv-x="2185" 
d="M1409 1622l-305 -113l-39 90l389 306l289 -306l-66 -90zM2341 1434l6 -93q-119 -33 -199 -196l-481 -1028q10 -33 29 -70l-27 -45q-131 0 -247.5 -11t-168.5 -22l-51 -10h-39l-45 696h-6l-266 -526q8 -33 31 -84l-25 -45q-227 16 -465 -41h-20l-101 1186
q-12 164 -123 196l45 93h656l-2 -93q-102 -33 -90 -196l61 -721h8l277 545q0 12 -2 45t-4 47t-8.5 40.5t-20.5 51.5t-37 53l47 92q279 61 463 185h20l70 -1059h12l338 721q80 164 -12 196l33 93h344z" />
    <glyph glyph-name="wcircumflex" unicode="&#x175;" horiz-adv-x="2007" 
d="M1278 1257l-305 -112l-39 90l389 305l289 -305l-66 -90zM1819 1112q96 0 157.5 -72.5t53.5 -236.5q-8 -139 -64.5 -318.5t-159.5 -310.5q-166 -215 -407 -215q-88 0 -180.5 47t-135.5 141h-12q-63 -76 -165.5 -132t-217.5 -56q-195 0 -289 105.5t-86 257.5
q14 258 265 374l-3 11l-145 2q-90 0 -151.5 -37t-61.5 -94q0 -16 8 -33l-71 -25q-43 76 -43 172q-2 147 101 262t263 115h520l11 -20q-10 -12 -29 -37t-67 -100.5t-86 -153.5t-70.5 -191.5t-38.5 -220.5q-6 -113 47 -161t117 -48q86 0 193.5 139.5t127.5 288.5
q20 137 -7.5 227.5t-23.5 149.5q4 76 53.5 123t125.5 47q51 0 92 -40t39 -87q-4 -86 -59.5 -226.5t-71.5 -275.5q-8 -90 -1 -166.5t52 -128t121 -51.5q123 0 194 109q80 119 88 319q4 74 -14.5 122t-47 70.5t-57 43t-47 54.5t-16.5 87q4 74 62.5 122t136.5 48z" />
    <glyph glyph-name="Ycircumflex" unicode="&#x176;" horiz-adv-x="1439" 
d="M745 1509l-38 90l389 306l288 -306l-65 -90l-268 113zM326 0l-4 92q113 33 141 197l63 364l-209 492q-72 170 -170 196l37 93h688l5 -93q-47 -16 -60.5 -66t17.5 -130l114 -268h15l211 268q59 76 63 130t-37 66l37 93h360l5 -93q-106 -27 -238 -196l-387 -494l-64 -362
q-29 -164 72 -197l-37 -92h-622z" />
    <glyph glyph-name="ycircumflex" unicode="&#x177;" horiz-adv-x="1288" 
d="M856 1257l-305 -112l-39 90l389 305l289 -305l-66 -90zM1112 1112q94 0 149.5 -58.5t51.5 -146.5q-12 -174 -107.5 -417.5t-204.5 -421.5q-57 -98 -133 -197q-262 -326 -544 -326q-98 0 -166 58.5t-64 138.5q4 78 62.5 128t140.5 50q53 0 90 -21.5t52.5 -47t32.5 -47
t34 -21.5q53 0 143 90q-63 324 -117.5 536t-100.5 318.5t-83 146t-80 39.5q-68 0 -149 -55l-51 80q168 174 393 174q119 0 197.5 -68.5t145 -245.5t132.5 -503h10q96 188 96 332q0 37 -31.5 81t-63.5 103t-32 133q0 76 57.5 122t139.5 46z" />
    <glyph glyph-name="Ydieresis" unicode="&#x178;" horiz-adv-x="1439" 
d="M838 1540q-84 0 -123 49t-29 115q12 70 66.5 120t138.5 50t125 -51t28 -119q-10 -66 -67 -115t-139 -49zM1292 1540q-82 0 -122 49t-29 115q12 68 67.5 119t137.5 51q84 0 124.5 -51t28.5 -119q-10 -66 -67.5 -115t-139.5 -49zM326 0l-4 92q113 33 141 197l63 364
l-209 492q-72 170 -170 196l37 93h688l5 -93q-47 -16 -60.5 -66t17.5 -130l114 -268h15l211 268q59 76 63 130t-37 66l37 93h360l5 -93q-106 -27 -238 -196l-387 -494l-64 -362q-29 -164 72 -197l-37 -92h-622z" />
    <glyph glyph-name="Zacute" unicode="&#x179;" horiz-adv-x="1583" 
d="M1034 1518l-78 71l269 273q49 47 86 68.5t86 21.5q47 0 74.5 -31t19.5 -74q-12 -86 -119 -143zM950 -227q-113 0 -242.5 35.5t-230 77.5t-231.5 78t-244 36l-2 104l1057 1158h-228q-88 0 -176 -31t-152.5 -76t-115.5 -90t-78 -76l-24 -31l-84 46l190 471h35
q27 -16 130 -28.5t173 -12.5h891l2 -105l-1053 -1151q82 -16 149.5 -57t105.5 -80t91.5 -69.5t112.5 -30.5q125 0 125 75q0 39 -46 110t-46 130q0 72 54 123t138 51q88 0 151.5 -68.5t63.5 -158.5q0 -178 -143.5 -304t-372.5 -126z" />
    <glyph glyph-name="zacute" unicode="&#x17a;" horiz-adv-x="1431" 
d="M811 1153l-78 72l268 272q49 47 86 68.5t87 21.5q47 0 74.5 -30.5t19.5 -73.5q-12 -86 -119 -144zM147 -41q-31 0 -56 21.5t-30 54.5q-10 80 97.5 205t306.5 206l377 275v12q-59 23 -115.5 75t-99.5 90t-78 38q-33 0 -57.5 -35t-41 -76t-55.5 -75.5t-98 -34.5
q-53 0 -89 43t-36 104q0 106 85 178t251 72q145 0 330.5 -52t271.5 -52q57 0 118.5 30.5t86.5 73.5h24l60 -63q4 -31 -32 -79t-109.5 -112.5t-125 -104.5t-133.5 -104q-135 -102 -301 -213v-12q61 -39 102.5 -94.5t56.5 -95t47 -68.5t85 -29q47 0 71.5 34t24.5 75
q0 27 -40.5 73t-40.5 105q0 72 47 128t127 56q84 0 139 -59.5t55 -142.5q0 -184 -114.5 -315.5t-321.5 -131.5q-135 0 -243.5 37t-185.5 73.5t-130 36.5q-39 0 -67.5 -22.5t-44 -51t-45.5 -51t-73 -22.5z" />
    <glyph glyph-name="Zdotaccent" unicode="&#x17b;" horiz-adv-x="1583" 
d="M1044 1585q-82 0 -122.5 49t-28.5 115q10 68 66.5 119t138.5 51q84 0 124 -51t29 -119q-12 -66 -67.5 -115t-139.5 -49zM950 -227q-113 0 -242.5 35.5t-230 77.5t-231.5 78t-244 36l-2 104l1057 1158h-228q-88 0 -176 -31t-152.5 -76t-115.5 -90t-78 -76l-24 -31l-84 46
l190 471h35q27 -16 130 -28.5t173 -12.5h891l2 -105l-1053 -1151q82 -16 149.5 -57t105.5 -80t91.5 -69.5t112.5 -30.5q125 0 125 75q0 39 -46 110t-46 130q0 72 54 123t138 51q88 0 151.5 -68.5t63.5 -158.5q0 -178 -143.5 -304t-372.5 -126z" />
    <glyph glyph-name="zdotaccent" unicode="&#x17c;" horiz-adv-x="1431" 
d="M952 1221q-82 0 -123 49t-28 114q10 68 66.5 119t138.5 51q84 0 123.5 -51t29.5 -119q-12 -66 -67.5 -114.5t-139.5 -48.5zM147 -41q-31 0 -56 21.5t-30 54.5q-10 80 97.5 205t306.5 206l377 275v12q-59 23 -115.5 75t-99.5 90t-78 38q-33 0 -57.5 -35t-41 -76
t-55.5 -75.5t-98 -34.5q-53 0 -89 43t-36 104q0 106 85 178t251 72q145 0 330.5 -52t271.5 -52q57 0 118.5 30.5t86.5 73.5h24l60 -63q4 -31 -32 -79t-109.5 -112.5t-125 -104.5t-133.5 -104q-135 -102 -301 -213v-12q61 -39 102.5 -94.5t56.5 -95t47 -68.5t85 -29
q47 0 71.5 34t24.5 75q0 27 -40.5 73t-40.5 105q0 72 47 128t127 56q84 0 139 -59.5t55 -142.5q0 -184 -114.5 -315.5t-321.5 -131.5q-135 0 -243.5 37t-185.5 73.5t-130 36.5q-39 0 -67.5 -22.5t-44 -51t-45.5 -51t-73 -22.5z" />
    <glyph glyph-name="Zcaron" unicode="&#x17d;" horiz-adv-x="1583" 
d="M1049 1509l-291 306l65 90l271 -111l303 111l39 -90zM950 -227q-113 0 -242.5 35.5t-230 77.5t-231.5 78t-244 36l-2 104l1057 1158h-228q-88 0 -176 -31t-152.5 -76t-115.5 -90t-78 -76l-24 -31l-84 46l190 471h35q27 -16 130 -28.5t173 -12.5h891l2 -105l-1053 -1151
q82 -16 149.5 -57t105.5 -80t91.5 -69.5t112.5 -30.5q125 0 125 75q0 39 -46 110t-46 130q0 72 54 123t138 51q88 0 151.5 -68.5t63.5 -158.5q0 -178 -143.5 -304t-372.5 -126z" />
    <glyph glyph-name="zcaron" unicode="&#x17e;" horiz-adv-x="1431" 
d="M887 1145l-291 305l66 90l270 -110l303 110l39 -90zM147 -41q-31 0 -56 21.5t-30 54.5q-10 80 97.5 205t306.5 206l377 275v12q-59 23 -115.5 75t-99.5 90t-78 38q-33 0 -57.5 -35t-41 -76t-55.5 -75.5t-98 -34.5q-53 0 -89 43t-36 104q0 106 85 178t251 72
q145 0 330.5 -52t271.5 -52q57 0 118.5 30.5t86.5 73.5h24l60 -63q4 -31 -32 -79t-109.5 -112.5t-125 -104.5t-133.5 -104q-135 -102 -301 -213v-12q61 -39 102.5 -94.5t56.5 -95t47 -68.5t85 -29q47 0 71.5 34t24.5 75q0 27 -40.5 73t-40.5 105q0 72 47 128t127 56
q84 0 139 -59.5t55 -142.5q0 -184 -114.5 -315.5t-321.5 -131.5q-135 0 -243.5 37t-185.5 73.5t-130 36.5q-39 0 -67.5 -22.5t-44 -51t-45.5 -51t-73 -22.5z" />
    <glyph glyph-name="longs" unicode="&#x17f;" horiz-adv-x="847" 
d="M899 1622q158 0 241 -56.5t81 -146.5q0 -70 -46.5 -114.5t-125.5 -44.5q-55 0 -87 28.5t-38 64.5t-23.5 64.5t-50.5 28.5q-39 0 -85 -108.5t-63 -268.5l-106 -768q-49 -371 -272.5 -565.5t-577.5 -194.5q-94 0 -180 48.5t-84 127.5q0 72 48 119t124 47q49 0 85 -25.5
t53.5 -56t43 -56.5t55.5 -26q119 0 184.5 120t98.5 349l115 693h-183l35 188h178q23 121 63 216t106.5 174t171 121t239.5 42z" />
    <glyph glyph-name="florin" unicode="&#x192;" horiz-adv-x="870" 
d="M838 1475q156 0 228.5 -47.5t59.5 -129.5q-10 -66 -54 -102.5t-107 -36.5q-55 0 -85 21.5t-34 46t-16.5 46t-36.5 21.5q-39 0 -73 -54t-69 -214l-16 -76h244l-29 -180h-254l-76 -350q-72 -326 -205 -489.5t-378 -163.5q-168 0 -244 55t-64 131q8 55 49 92t109 37
q51 0 75.5 -21.5t26.5 -46t14.5 -46t39.5 -21.5q43 0 70.5 55t66.5 223l127 545h-193l29 180h205l18 76q51 219 198 334t374 115z" />
    <glyph glyph-name="Aringacute" unicode="&#x1fa;" horiz-adv-x="1763" 
d="M981 1536q-90 0 -145.5 63.5t-40.5 153.5q14 104 116 174l240 242q49 47 86 68.5t86 21.5q47 0 74.5 -30.5t19.5 -74.5q-12 -86 -119 -143l-137 -76q92 -66 74 -182q-14 -90 -89 -153.5t-165 -63.5zM1096 1753q4 33 -15.5 55.5t-52.5 22.5t-60.5 -22.5t-31.5 -55.5
q-6 -35 13.5 -59.5t52 -24.5t60.5 24.5t34 59.5zM1593 289q37 -164 154 -197l-37 -92h-651l-4 92q100 33 59 197l-4 14h-514l-8 -14q-98 -164 -10 -197l-37 -92h-342l-4 92q127 33 221 197l489 827q-31 55 -104 88l30 92q31 6 81.5 19.5t171 61.5t200.5 106h21zM702 481h367
l-102 426h-13z" />
    <glyph glyph-name="aringacute" unicode="&#x1fb;" horiz-adv-x="1456" 
d="M768 1171q-90 0 -145.5 63.5t-40.5 154.5q18 117 133 182l217 221q49 47 86 68.5t86 21.5q47 0 74.5 -30.5t19.5 -73.5q-12 -86 -119 -144l-123 -67q84 -70 66 -178q-14 -90 -89 -154t-165 -64zM883 1389q4 33 -15.5 55t-52.5 22t-60.5 -22.5t-31.5 -54.5
q-6 -35 13.5 -59.5t52 -24.5t60.5 24.5t34 59.5zM1378 123q25 0 47 8l11 -82q-121 -90 -295 -90q-231 0 -242 178h-14q-47 -88 -134 -133t-180 -45q-174 0 -275 107.5t-101 326.5q0 174 79.5 339t220 272.5t302.5 107.5q76 0 146.5 -31.5t103.5 -91.5h12l24 80h414
q-96 -209 -154 -528l-43 -244q-33 -174 78 -174zM739 197q137 0 203 225l72 409q-47 61 -127 62q-137 0 -221 -156.5t-84 -322.5q0 -96 42.5 -156.5t114.5 -60.5z" />
    <glyph glyph-name="uni0218" unicode="&#x218;" horiz-adv-x="1470" 
d="M924 1475q264 0 429 -115t136 -266q-35 -170 -219 -170q-88 0 -136.5 37.5t-64.5 93t-29.5 111t-49.5 93t-105 37.5q-82 0 -129 -42t-60 -109q-10 -53 -2 -90t44 -65.5t62.5 -42t94.5 -40.5q16 -6 25 -10q227 -90 305 -143q211 -141 166 -379q-37 -201 -236 -308.5
t-465 -107.5q-287 0 -460 113.5t-144 265.5q31 168 207 168q82 0 132 -38t71.5 -93.5t43 -109.5t72 -92t131.5 -38q170 0 195 131q10 49 -7.5 88t-66.5 70t-94 50.5t-125 47.5q-197 68 -316.5 201t-88.5 309q39 205 223.5 324t460.5 119zM664 -88q115 0 176 -79t39 -218
q-27 -176 -159 -325.5t-317 -227.5l-55 119q111 66 175.5 138.5t117.5 174.5l-6 8q-45 -27 -80 -26q-92 0 -147.5 61.5t-41 157.5t101.5 156.5t196 60.5z" />
    <glyph glyph-name="uni0219" unicode="&#x219;" horiz-adv-x="1282" 
d="M866 698q172 -33 266.5 -102.5t94.5 -222.5q0 -70 -30 -135.5t-97.5 -132t-201.5 -106.5t-316 -40q-135 0 -253 25.5t-201 85t-83 141.5q0 66 43 103.5t115 37.5q51 0 87 -22.5t60.5 -54t51 -62.5t73.5 -53.5t113 -22.5q113 0 165 35t52 88q0 23 -17.5 42.5t-51.5 32.5
t-64.5 22.5t-77.5 20.5t-70 17q-74 20 -126 43t-107 61t-84 97t-29 135q0 166 153.5 273.5t428.5 107.5q207 0 340 -62.5t133 -168.5q0 -57 -34 -91t-101 -34q-51 0 -84 18.5t-50.5 44t-37 52t-59.5 45t-103 18.5q-98 0 -153.5 -28.5t-55.5 -76.5q0 -27 24.5 -49t68.5 -35.5
t81 -21.5t84 -15.5t53 -9.5zM623 -88q115 0 176 -79t39 -218q-27 -176 -159 -325.5t-317 -227.5l-55 119q111 66 175.5 138.5t117.5 174.5l-6 8q-45 -27 -80 -26q-92 0 -147.5 61.5t-41 157.5t101.5 156.5t196 60.5z" />
    <glyph glyph-name="uni021A" unicode="&#x21a;" horiz-adv-x="1531" 
d="M1567 1475l51 -471l-100 -46q-4 10 -13.5 29t-43.5 67t-74.5 86t-108.5 73.5t-143 43.5l-170 -968q-29 -164 71 -197l-37 -92h-622l-4 92q113 33 141 197l170 971q-80 -8 -161 -43t-138 -77t-103 -84t-69 -69l-23 -29l-84 46l218 471h34q27 -16 130.5 -28.5t173.5 -12.5
h555q68 0 175 12t140 29h35zM664 -88q115 0 176 -79t39 -218q-27 -176 -159 -325.5t-317 -227.5l-55 119q111 66 175.5 138.5t117.5 174.5l-6 8q-45 -27 -80 -26q-92 0 -147.5 61.5t-41 157.5t101.5 156.5t196 60.5z" />
    <glyph glyph-name="uni021B" unicode="&#x21b;" horiz-adv-x="884" 
d="M705 883l-107 -609q-25 -139 80 -139q80 0 141 25l8 -152q-51 -16 -152.5 -32.5t-162.5 -16.5q-356 0 -299 322l104 602h-184l23 133q147 39 286.5 135t235.5 219h113l-54 -301h264l-32 -186h-264zM535 -88q115 0 176 -79t39 -218q-27 -176 -159 -325.5t-317 -227.5
l-55 119q111 66 175.5 138.5t117.5 174.5l-6 8q-45 -27 -80 -26q-92 0 -147.5 61.5t-41 157.5t101.5 156.5t196 60.5z" />
    <glyph glyph-name="uni0237" unicode="&#x237;" horiz-adv-x="675" 
d="M-59 -455q-178 0 -264.5 66.5t-77.5 152.5q16 135 153 136q53 0 89 -28t51.5 -60.5t46 -60t75.5 -27.5q90 0 113 151l123 758q12 78 -14.5 130t-77.5 66l37 93q322 51 491 196l31 -8l-201 -1126q-37 -215 -186 -327t-389 -112z" />
    <glyph glyph-name="uni02B0" unicode="&#x2b0;" horiz-adv-x="542" 
d="M678 907l2 -37q-53 -37 -119 -36q-49 0 -83 21.5t-23 76.5l47 219q12 72 -43 72q-39 0 -72 -45t-45 -109q-10 -53 -15 -108.5t-5 -83.5v-27h-183l88 489q12 66 -39 82l17 41q135 18 209 84l12 -4l-55 -307h8q61 88 160 88q70 0 106.5 -46t16.5 -138l-35 -162
q-14 -74 30 -74q13 0 21 4z" />
    <glyph glyph-name="circumflex" unicode="&#x2c6;" horiz-adv-x="1112" 
d="M451 1145l-39 90l389 305l289 -305l-66 -90l-268 112z" />
    <glyph glyph-name="caron" unicode="&#x2c7;" horiz-adv-x="1112" 
d="M737 1145l-291 305l66 90l270 -110l303 110l39 -90z" />
    <glyph glyph-name="uni02C9" unicode="&#x2c9;" horiz-adv-x="1161" 
d="M442 1233l27 174h666l-27 -174h-666z" />
    <glyph glyph-name="breve" unicode="&#x2d8;" horiz-adv-x="1124" 
d="M752 1214q-123 0 -201 58.5t-98 152.5l125 70q12 -49 69.5 -76.5t132.5 -27.5q80 0 146.5 26.5t93.5 73.5l102 -66q-53 -94 -149 -152.5t-221 -58.5z" />
    <glyph glyph-name="dotaccent" unicode="&#x2d9;" horiz-adv-x="1128" 
d="M756 1221q-82 0 -123 49t-29 114q10 68 66.5 119t138.5 51q84 0 124 -51t30 -119q-12 -66 -67.5 -114.5t-139.5 -48.5z" />
    <glyph glyph-name="ring" unicode="&#x2da;" horiz-adv-x="1134" 
d="M752 1171q-90 0 -145.5 63.5t-41.5 154.5q14 88 90 152.5t166 64.5t144.5 -64.5t40.5 -152.5q-14 -90 -89 -154t-165 -64zM772 1305q33 0 60.5 24.5t33.5 59.5q4 33 -15.5 55t-52 22t-60 -22.5t-31.5 -54.5q-6 -35 13 -59.5t52 -24.5z" />
    <glyph glyph-name="ogonek" unicode="&#x2db;" horiz-adv-x="1155" 
d="M653 -455q-123 0 -182 64.5t-43 161.5q16 111 103 194.5t225 128.5l73 -94q-135 -88 -155 -209q-6 -39 13.5 -64.5t55.5 -25.5q68 0 125 72l97 -54q-132 -174 -312 -174z" />
    <glyph glyph-name="tilde" unicode="&#x2dc;" horiz-adv-x="1157" 
d="M911 1235q-68 0 -149.5 48t-120.5 48q-66 0 -94 -76l-117 29q37 139 106.5 195.5t145.5 56.5q68 0 152 -47t122 -47q68 0 97 71l110 -26q-35 -139 -105.5 -195.5t-146.5 -56.5z" />
    <glyph glyph-name="hungarumlaut" unicode="&#x2dd;" horiz-adv-x="1081" 
d="M586 1137l-111 49q121 227 160 303q55 119 151 119q53 2 78 -33t19 -80q-6 -43 -66 -111zM913 1137l-110 49q121 227 160 303q55 119 151 119q53 2 78 -33t18 -80q-6 -43 -65 -111z" />
    <glyph glyph-name="uni0394" unicode="&#x394;" horiz-adv-x="1609" 
d="M-2 0l780 1434h348l332 -1434h-1460zM260 164h655l-194 837z" />
    <glyph glyph-name="uni03A9" unicode="&#x3a9;" horiz-adv-x="1810" 
d="M135 -51l-72 528l103 45q61 -188 274 -188h150l4 16q-88 35 -165 87t-142.5 122t-96 164t-14.5 197q41 260 269.5 407.5t592.5 147.5q367 0 548 -147.5t140 -407.5q-23 -135 -124 -255t-220.5 -193t-255.5 -122l-2 -16h150q217 0 336 188l86 -45l-236 -528h-35
q-53 51 -239 51h-324l66 426q137 66 216 176.5t105 288.5q35 207 -13 318.5t-222 111.5t-257 -110.5t-116 -319.5q-27 -178 16 -288.5t156 -176.5l-63 -426h-324q-190 0 -256 -51h-35z" />
    <glyph glyph-name="uni03BC" unicode="&#x3bc;" horiz-adv-x="1275" 
d="M1303 184l12 -143q-45 -33 -129 -57.5t-144 -24.5q-123 0 -187 37t-67 131h-8q-147 -166 -370 -166h-31l-4 -6q102 -137 88 -227q-16 -102 -86 -153.5t-170 -51.5q-94 0 -150.5 61.5t-40.5 165.5l101 637q2 2 2 6l92 588h381l-96 -616q-12 -76 27.5 -121t111.5 -45
q61 0 115.5 50t70.5 120l10 61l5 31l82 520h378l-112 -735q-14 -78 49 -78q39 0 70 16z" />
    <glyph glyph-name="pi" unicode="&#x3c0;" horiz-adv-x="1445" 
d="M795 981h727l-2 -18q-6 -35 -18.5 -71t-39 -87t-73 -85t-105.5 -38l-72 -459q-10 -72 48 -71q31 0 61 14l12 -133q-41 -31 -117.5 -52.5t-132.5 -21.5q-133 0 -190 48t-39 173l74 457h-162l-47 -309q-25 -160 -115 -264.5t-254 -104.5q-115 0 -178 52t-49 149
q8 57 63.5 102t116.5 45q51 0 79 -26.5t32 -59.5t14 -59.5t31 -26.5q57 0 76 101l61 401h-57q-117 0 -136 -119h-127q31 193 157 328t362 135z" />
    <glyph glyph-name="Wgrave" unicode="&#x1e80;" horiz-adv-x="2185" 
d="M944 1704q-86 57 -74 143q8 43 45 74t84 31q82 0 142 -90l184 -273l-100 -71zM2341 1434l6 -93q-119 -33 -199 -196l-481 -1028q10 -33 29 -70l-27 -45q-131 0 -247.5 -11t-168.5 -22l-51 -10h-39l-45 696h-6l-266 -526q8 -33 31 -84l-25 -45q-227 16 -465 -41h-20
l-101 1186q-12 164 -123 196l45 93h656l-2 -93q-102 -33 -90 -196l61 -721h8l277 545q0 12 -2 45t-4 47t-8.5 40.5t-20.5 51.5t-37 53l47 92q279 61 463 185h20l70 -1059h12l338 721q80 164 -12 196l33 93h344z" />
    <glyph glyph-name="wgrave" unicode="&#x1e81;" horiz-adv-x="2007" 
d="M854 1339q-86 57 -74 144q8 43 45 73.5t84 30.5q82 0 142 -90l184 -272l-100 -72zM1819 1112q96 0 157.5 -72.5t53.5 -236.5q-8 -139 -64.5 -318.5t-159.5 -310.5q-166 -215 -407 -215q-88 0 -180.5 47t-135.5 141h-12q-63 -76 -165.5 -132t-217.5 -56q-195 0 -289 105.5
t-86 257.5q14 258 265 374l-3 11l-145 2q-90 0 -151.5 -37t-61.5 -94q0 -16 8 -33l-71 -25q-43 76 -43 172q-2 147 101 262t263 115h520l11 -20q-10 -12 -29 -37t-67 -100.5t-86 -153.5t-70.5 -191.5t-38.5 -220.5q-6 -113 47 -161t117 -48q86 0 193.5 139.5t127.5 288.5
q20 137 -7.5 227.5t-23.5 149.5q4 76 53.5 123t125.5 47q51 0 92 -40t39 -87q-4 -86 -59.5 -226.5t-71.5 -275.5q-8 -90 -1 -166.5t52 -128t121 -51.5q123 0 194 109q80 119 88 319q4 74 -14.5 122t-47 70.5t-57 43t-47 54.5t-16.5 87q4 74 62.5 122t136.5 48z" />
    <glyph glyph-name="Wacute" unicode="&#x1e82;" horiz-adv-x="2185" 
d="M1579 1704l-338 -186l-78 71l269 273q49 47 85.5 68.5t86.5 21.5q47 0 74.5 -31t19.5 -74q-13 -86 -119 -143zM2341 1434l6 -93q-119 -33 -199 -196l-481 -1028q10 -33 29 -70l-27 -45q-131 0 -247.5 -11t-168.5 -22l-51 -10h-39l-45 696h-6l-266 -526q8 -33 31 -84
l-25 -45q-227 16 -465 -41h-20l-101 1186q-12 164 -123 196l45 93h656l-2 -93q-102 -33 -90 -196l61 -721h8l277 545q0 12 -2 45t-4 47t-8.5 40.5t-20.5 51.5t-37 53l47 92q279 61 463 185h20l70 -1059h12l338 721q80 164 -12 196l33 93h344z" />
    <glyph glyph-name="wacute" unicode="&#x1e83;" horiz-adv-x="2007" 
d="M1561 1339l-338 -186l-78 72l268 272q49 47 86 68.5t86 21.5q47 0 75 -30.5t19 -73.5q-12 -87 -118 -144zM1819 1112q96 0 157.5 -72.5t53.5 -236.5q-8 -139 -64.5 -318.5t-159.5 -310.5q-166 -215 -407 -215q-88 0 -180.5 47t-135.5 141h-12q-63 -76 -165.5 -132
t-217.5 -56q-195 0 -289 105.5t-86 257.5q14 258 265 374l-3 11l-145 2q-90 0 -151.5 -37t-61.5 -94q0 -16 8 -33l-71 -25q-43 76 -43 172q-2 147 101 262t263 115h520l11 -20q-10 -12 -29 -37t-67 -100.5t-86 -153.5t-70.5 -191.5t-38.5 -220.5q-6 -113 47 -161t117 -48
q86 0 193.5 139.5t127.5 288.5q20 137 -7.5 227.5t-23.5 149.5q4 76 53.5 123t125.5 47q51 0 92 -40t39 -87q-4 -86 -59.5 -226.5t-71.5 -275.5q-8 -90 -1 -166.5t52 -128t121 -51.5q123 0 194 109q80 119 88 319q4 74 -14.5 122t-47 70.5t-57 43t-47 54.5t-16.5 87
q4 74 62.5 122t136.5 48z" />
    <glyph glyph-name="Wdieresis" unicode="&#x1e84;" horiz-adv-x="2185" 
d="M1114 1540q-84 0 -123 49t-28 115q12 70 66 120t138 50t125 -51t29 -119q-10 -66 -67.5 -115t-139.5 -49zM1569 1540q-82 0 -122 49t-30 115q12 68 67.5 119t137.5 51q84 0 125 -51t29 -119q-10 -66 -67.5 -115t-139.5 -49zM2341 1434l6 -93q-119 -33 -199 -196
l-481 -1028q10 -33 29 -70l-27 -45q-131 0 -247.5 -11t-168.5 -22l-51 -10h-39l-45 696h-6l-266 -526q8 -33 31 -84l-25 -45q-227 16 -465 -41h-20l-101 1186q-12 164 -123 196l45 93h656l-2 -93q-102 -33 -90 -196l61 -721h8l277 545q0 12 -2 45t-4 47t-8.5 40.5
t-20.5 51.5t-37 53l47 92q279 61 463 185h20l70 -1059h12l338 721q80 164 -12 196l33 93h344z" />
    <glyph glyph-name="wdieresis" unicode="&#x1e85;" horiz-adv-x="2007" 
d="M1079 1176q-84 0 -122.5 49t-28.5 114q12 70 66.5 120t138.5 50t124.5 -51t28.5 -119q-10 -66 -67.5 -114.5t-139.5 -48.5zM1534 1176q-82 0 -122 49t-30 114q12 68 67.5 119t137.5 51q84 0 125 -51t29 -119q-10 -66 -67.5 -114.5t-139.5 -48.5zM1819 1112
q96 0 157.5 -72.5t53.5 -236.5q-8 -139 -64.5 -318.5t-159.5 -310.5q-166 -215 -407 -215q-88 0 -180.5 47t-135.5 141h-12q-63 -76 -165.5 -132t-217.5 -56q-195 0 -289 105.5t-86 257.5q14 258 265 374l-3 11l-145 2q-90 0 -151.5 -37t-61.5 -94q0 -16 8 -33l-71 -25
q-43 76 -43 172q-2 147 101 262t263 115h520l11 -20q-10 -12 -29 -37t-67 -100.5t-86 -153.5t-70.5 -191.5t-38.5 -220.5q-6 -113 47 -161t117 -48q86 0 193.5 139.5t127.5 288.5q20 137 -7.5 227.5t-23.5 149.5q4 76 53.5 123t125.5 47q51 0 92 -40t39 -87
q-4 -86 -59.5 -226.5t-71.5 -275.5q-8 -90 -1 -166.5t52 -128t121 -51.5q123 0 194 109q80 119 88 319q4 74 -14.5 122t-47 70.5t-57 43t-47 54.5t-16.5 87q4 74 62.5 122t136.5 48z" />
    <glyph glyph-name="endash" unicode="&#x2013;" horiz-adv-x="802" 
d="M84 444l45 287h774l-45 -287h-774z" />
    <glyph glyph-name="emdash" unicode="&#x2014;" horiz-adv-x="966" 
d="M84 444l45 287h938l-45 -287h-938z" />
    <glyph glyph-name="quoteleft" unicode="&#x2018;" horiz-adv-x="638" 
d="M530 1087q92 0 147.5 -61t41.5 -157.5t-101.5 -157t-195.5 -60.5q-115 0 -176.5 79t-38.5 218q27 176 159 325.5t316 227.5l55 -119q-111 -66 -175 -138.5t-118 -174.5l7 -8q44 26 79 26z" />
    <glyph glyph-name="quoteright" unicode="&#x2019;" horiz-adv-x="638" 
d="M553 1475q115 0 175 -79t40 -218q-29 -176 -160 -326t-315 -227l-57 118q113 66 178 138.5t114 175.5l-6 8q-45 -27 -78 -27q-92 0 -147 61.5t-41 158t101 157t196 60.5z" />
    <glyph glyph-name="quotesinglbase" unicode="&#x201a;" horiz-adv-x="638" 
d="M381 395q115 0 176 -78.5t39 -218.5q-27 -176 -159 -325.5t-316 -227.5l-55 119q111 66 175 138.5t117 174.5l-6 9q-45 -27 -80 -27q-92 0 -147 61.5t-41 157.5t101 156.5t196 60.5z" />
    <glyph glyph-name="quotedblleft" unicode="&#x201c;" horiz-adv-x="1220" 
d="M737 1382q-111 -66 -175 -138.5t-118 -174.5l7 -8q45 27 79 26q92 0 147.5 -61t41.5 -157.5t-101.5 -157t-195.5 -60.5q-115 0 -176.5 79t-38.5 218q27 176 159 325.5t316 227.5zM1112 1087q92 0 147.5 -61t41 -157.5t-101.5 -157t-195 -60.5q-115 0 -176.5 79t-39.5 218
q27 176 159 325.5t317 227.5l55 -119q-111 -66 -175.5 -138.5t-117.5 -174.5l6 -8q45 26 80 26z" />
    <glyph glyph-name="quotedblright" unicode="&#x201d;" horiz-adv-x="1220" 
d="M553 1475q115 0 175 -79t40 -218q-29 -176 -160 -326t-315 -227l-57 118q113 66 178 138.5t114 175.5l-6 8q-45 -27 -78 -27q-92 0 -147 61.5t-41 158t101 157t196 60.5zM1135 1475q115 0 175 -79t40 -218q-29 -176 -160 -326t-316 -227l-57 118q113 66 178.5 138.5
t114.5 175.5l-6 8q-45 -27 -78 -27q-92 0 -147.5 61.5t-41 158t101.5 157t196 60.5z" />
    <glyph glyph-name="quotedblbase" unicode="&#x201e;" horiz-adv-x="1220" 
d="M381 395q115 0 176 -78.5t39 -218.5q-27 -176 -159 -325.5t-316 -227.5l-55 119q111 66 175 138.5t117 174.5l-6 9q-45 -27 -80 -27q-92 0 -147 61.5t-41 157.5t101 156.5t196 60.5zM963 395q115 0 176 -78.5t39 -218.5q-27 -176 -159 -325.5t-317 -227.5l-55 119
q111 66 175.5 138.5t117.5 174.5l-6 9q-45 -27 -80 -27q-92 0 -147.5 61.5t-41 157.5t101.5 156.5t196 60.5z" />
    <glyph glyph-name="dagger" unicode="&#x2020;" horiz-adv-x="884" 
d="M412 0q100 647 59 915q53 47 98 146l-4 6q-55 -12 -141 -39t-123 -27q-53 0 -79.5 29t-18.5 72q6 43 42 72.5t87 29.5q39 0 117.5 -27.5t125.5 -39.5l7 4q-4 55 -23.5 126.5t-15.5 102.5q8 47 46 76t87 29t75.5 -29t18.5 -76q-4 -33 -45 -106.5t-61 -122.5l2 -4
q55 12 142 39.5t124 27.5q53 0 78.5 -28.5t19.5 -73.5q-8 -45 -44 -73t-89 -28q-35 0 -111.5 27t-130.5 39l-4 -6q6 -43 17.5 -80t19.5 -51l10 -15q-123 -285 -225 -915h-61z" />
    <glyph glyph-name="daggerdbl" unicode="&#x2021;" horiz-adv-x="884" 
d="M434 -41q-49 0 -76.5 28.5t-19.5 75.5q6 31 46 104t62 126l-4 4q-57 -12 -143 -40t-123 -28q-51 0 -76.5 29t-19.5 74q8 45 43 73.5t88 28.5q37 0 113.5 -26.5t130.5 -38.5l4 4q8 45 -1 131t-22 149l-12 64q127 240 143 342l-2 6q-55 -12 -141 -39t-123 -27
q-53 0 -79.5 29t-18.5 72q6 45 41 73.5t86 28.5q39 0 117.5 -27.5t127.5 -39.5l7 4q-6 51 -24.5 125.5t-14.5 105.5q8 47 46 76t87 29t75.5 -29t18.5 -76q-4 -31 -45 -104.5t-61 -126.5l2 -4q53 12 140 39.5t124 27.5q53 0 79.5 -28.5t20.5 -73.5q-8 -45 -44 -73t-89 -28
q-35 0 -111.5 27t-130.5 39l-6 -6q-8 -45 1 -131t22 -150l14 -61q-129 -242 -145 -344l4 -4q55 12 141 38.5t123 26.5q53 0 79.5 -29.5t18.5 -72.5q-6 -43 -42 -73t-87 -30q-37 0 -114.5 28t-131.5 40l-4 -4q4 -53 23.5 -126t13.5 -104q-8 -47 -45 -75.5t-86 -28.5z" />
    <glyph glyph-name="bullet" unicode="&#x2022;" horiz-adv-x="708" 
d="M416 397q-135 0 -216 93.5t-59 226.5q20 131 130 224t245 93t216 -93t61 -224q-23 -133 -132.5 -226.5t-244.5 -93.5z" />
    <glyph glyph-name="ellipsis" unicode="&#x2026;" horiz-adv-x="1818" 
d="M295 -41q-102 0 -162.5 67.5t-44.5 174t99 174t185.5 67.5t163 -67.5t44 -174t-99.5 -174t-185 -67.5zM901.5 -41q-102.5 0 -163 67.5t-44 174t99.5 174t185 67.5t162.5 -67.5t44 -174t-99 -174t-185 -67.5zM1507.5 -41q-102.5 0 -163 67.5t-44 174t99.5 174t185.5 67.5
t162.5 -67.5t44 -174t-99 -174t-185.5 -67.5z" />
    <glyph glyph-name="perthousand" unicode="&#x2030;" horiz-adv-x="2717" 
d="M551 674q-184 0 -282.5 109.5t-71.5 289.5q29 180 162 291t319 111q184 0 280.5 -111t67.5 -291q-27 -180 -159 -289.5t-316 -109.5zM532 0l836 1434h156l-834 -1434h-158zM575.5 831q59.5 0 102.5 61.5t61.5 180.5t-5 181.5t-83 62.5t-102.5 -62.5t-64 -181.5
q-18 -119 6.5 -180.5t84 -61.5zM1374.5 -41q-184.5 0 -281 109.5t-69.5 289.5q29 180 160 290t317 110q184 0 281.5 -110.5t68.5 -289.5q-27 -178 -159.5 -288.5t-317 -110.5zM2267 -41q-184 0 -280.5 109.5t-69.5 289.5q29 180 160 290t317 110q184 0 281.5 -110.5
t68.5 -289.5q-27 -178 -160 -288.5t-317 -110.5zM1399 115q59 0 103 62.5t62.5 181t-5 181t-82.5 62.5q-57 0 -101.5 -62.5t-64.5 -181.5q-18 -119 6.5 -181t81.5 -62zM2292 115q59 0 103 62.5t62.5 181t-5 181t-82.5 62.5q-57 0 -101.5 -62.5t-64.5 -181.5
q-18 -119 6.5 -181t81.5 -62z" />
    <glyph glyph-name="guilsinglleft" unicode="&#x2039;" horiz-adv-x="653" 
d="M492 -39l-365 479l18 125l519 479l86 -65l-271 -477l119 -477z" />
    <glyph glyph-name="guilsinglright" unicode="&#x203a;" horiz-adv-x="653" 
d="M145 -39l-86 64l271 477l-119 477l106 65l367 -479l-18 -125z" />
    <glyph glyph-name="fraction" unicode="&#x2044;" horiz-adv-x="440" 
d="M-43 0l807 1434h106l-807 -1434h-106z" />
    <glyph glyph-name="uni2070" unicode="&#x2070;" horiz-adv-x="509" 
d="M346 862q-113 0 -167 75t-31.5 218t101.5 219t191.5 76t167 -76t31.5 -219t-100.5 -218t-192.5 -75zM358 932q33 0 56.5 49t42.5 174q18 129 11 177t-40 48q-61 0 -96 -225q-35 -223 26 -223z" />
    <glyph glyph-name="uni2074" unicode="&#x2074;" horiz-adv-x="503" 
d="M545 1006l-2 -17q-10 -55 49 -76l-12 -34h-291l-2 34q66 18 75 76l3 17h-226l8 47l338 381h127l-57 -365h86l-25 -63h-71zM240 1069h135l28 180h-6l-157 -176v-4z" />
    <glyph glyph-name="uni2075" unicode="&#x2075;" horiz-adv-x="481" 
d="M391 1241q102 0 154.5 -48t40.5 -128q-14 -92 -87 -147.5t-190 -55.5q-70 0 -123 29t-45 82q4 29 25.5 47t46.5 18q35 0 49 -16t15.5 -36.5t17.5 -37t55 -16.5q88 0 101 84q6 41 -24 69.5t-93 28.5q-61 0 -121 -33l-41 11l107 342h339l-38 -127h-275l-26 -88
q44 22 112 22z" />
    <glyph glyph-name="uni2076" unicode="&#x2076;" horiz-adv-x="471" 
d="M459 1247q84 0 120.5 -52t24.5 -132q-14 -88 -89 -142.5t-179.5 -54.5t-156.5 69t-34 187q27 162 142.5 245t285.5 83l-8 -45q-137 0 -211 -188h4q40 30 101 30zM422 1059q18 104 -45 104q-29 0 -47 -28q-8 -33 -11 -50q-14 -88 -8 -123.5t35 -35.5q56 0 76 133z" />
    <glyph glyph-name="uni2077" unicode="&#x2077;" horiz-adv-x="454" 
d="M225 1434h367l-14 -93q-76 -78 -110 -120.5t-66.5 -110.5t-47.5 -154q-14 -94 -104 -94q-41 0 -61.5 26.5t-14.5 67.5q16 102 101 192.5t190 151.5l2 7h-78q-141 0 -215 -74l-35 18z" />
    <glyph glyph-name="uni2078" unicode="&#x2078;" horiz-adv-x="495" 
d="M338 866q-98 0 -152.5 42t-44.5 110q16 94 115 143l2 4q-61 51 -47 129q10 68 80.5 112t165.5 44q92 0 137 -39t37 -92q-12 -86 -96 -127l-3 -4q96 -61 82 -152q-12 -76 -88.5 -123t-187.5 -47zM459 1233q53 33 63 88q10 66 -53 65.5t-72 -55.5q-8 -57 62 -98zM338 928
q80 0 88 67q6 41 -19.5 68t-80.5 57q-51 -35 -64 -104q-6 -41 15.5 -64.5t60.5 -23.5z" />
    <glyph glyph-name="uni2079" unicode="&#x2079;" horiz-adv-x="468" 
d="M409.5 1450q104.5 0 156.5 -69.5t34 -186.5q-27 -164 -142.5 -246t-285.5 -82l8 45q139 0 213 189h-4q-39 -31 -100 -31q-86 0 -122 54.5t-24 131.5q12 84 87 139.5t179.5 55.5zM371 1151q27 0 45 29q8 33 10 49q14 88 8 124t-35 36q-53 0 -73 -134q-18 -104 45 -104z
" />
    <glyph glyph-name="uni207F" unicode="&#x207f;" horiz-adv-x="542" 
d="M678 907l2 -37q-55 -37 -127 -36q-115 0 -98 98l45 219q8 33 -4.5 52.5t-38.5 19.5q-39 0 -71 -45t-44 -109q-10 -53 -15 -108.5t-5 -83.5v-27h-183l49 270q12 68 -38 84l16 39q137 23 209 84l12 -4l-16 -88h6q63 88 160 88q72 0 107.5 -46t14.5 -138l-32 -162
q-18 -74 30 -74q13 0 21 4z" />
    <glyph glyph-name="uni2080" unicode="&#x2080;" horiz-adv-x="509" 
d="M346 -16q-113 0 -167 74.5t-31.5 218t101.5 219t191.5 75.5t167 -75.5t31.5 -219t-100.5 -218t-192.5 -74.5zM358 53q33 0 56.5 49.5t42.5 173.5q18 129 11 177.5t-40 48.5q-61 0 -96 -226q-35 -223 26 -223z" />
    <glyph glyph-name="uni2081" unicode="&#x2081;" horiz-adv-x="327" 
d="M143 0l-4 35q66 18 76 76l51 319h-57l-2 43l205 82h53l-70 -444q-10 -55 49 -76l-12 -35h-289z" />
    <glyph glyph-name="uni2082" unicode="&#x2082;" horiz-adv-x="471" 
d="M573 201l35 -19l-84 -182h-385l15 96q248 150 272 312q6 43 -13.5 69.5t-54.5 26.5q-39 0 -73.5 -37t-44.5 -102l-50 8q14 90 79 144t155 54t141 -43t39 -120q-14 -88 -90 -153t-203 -124v-4h47q141 0 215 74z" />
    <glyph glyph-name="uni2083" unicode="&#x2083;" horiz-adv-x="462" 
d="M309 -14q-70 0 -123 27.5t-45 80.5q10 66 74 66q31 0 45 -17.5t15 -37t10.5 -37t31.5 -17.5q37 0 65 29t36 82t-14.5 86t-71.5 33h-23l10 57h19q35 0 58.5 25.5t29.5 64.5q4 37 -13.5 57.5t-52 20.5t-64.5 -26.5t-40 -76.5l-41 5q16 76 75.5 119.5t143.5 43.5t129 -34.5
t35 -92.5q-14 -82 -115 -114v-6q57 -10 89 -50.5t24 -95.5q-12 -84 -88 -138t-199 -54z" />
    <glyph glyph-name="uni2084" unicode="&#x2084;" horiz-adv-x="503" 
d="M545 127l-2 -16q-10 -55 49 -76l-10 -35h-291l-4 35q66 18 75 76l3 16h-226l8 47l338 381h127l-57 -365h86l-25 -63h-71zM240 190h135l28 181h-6l-155 -176z" />
    <glyph glyph-name="uni2085" unicode="&#x2085;" horiz-adv-x="479" 
d="M393 362q102 0 153.5 -48t39.5 -128q-14 -92 -87 -147t-190 -55q-70 0 -123 28.5t-45 81.5q4 29 25.5 47.5t46.5 18.5q35 0 49 -16.5t15.5 -37t17.5 -37t55 -16.5q88 0 101 84q6 41 -24 70t-93 29q-61 0 -121 -33l-41 10l107 342h337l-36 -127h-275l-26 -88q44 22 114 22
z" />
    <glyph glyph-name="uni2086" unicode="&#x2086;" horiz-adv-x="468" 
d="M457 373q84 0 120.5 -53.5t24.5 -131.5q-14 -90 -87 -143t-179 -53q-104 0 -157.5 68.5t-33.5 187.5q25 162 140.5 244.5t285.5 82.5l-6 -45q-139 0 -213 -188h4q40 31 101 31zM422 184q14 104 -45 105q-27 0 -47 -27q-8 -33 -11 -51q-14 -88 -9 -124t34 -36q58 0 78 133
z" />
    <glyph glyph-name="uni2087" unicode="&#x2087;" horiz-adv-x="454" 
d="M225 555h367l-14 -92q-76 -78 -110 -121t-66.5 -110.5t-45.5 -153.5q-8 -49 -38.5 -71.5t-67.5 -22.5q-41 0 -61.5 26.5t-12.5 67.5q14 102 99 192t190 152l2 6h-78q-141 0 -215 -74l-35 19z" />
    <glyph glyph-name="uni2088" unicode="&#x2088;" horiz-adv-x="497" 
d="M340 -10q-98 0 -153.5 42t-45.5 109q16 94 117 144v4q-59 49 -47 129q10 68 80.5 111.5t165.5 43.5q92 0 138 -39.5t38 -91.5q-14 -88 -98 -127v-4q94 -61 79 -151q-12 -76 -87.5 -123t-186.5 -47zM459 356q53 33 63 88q10 66 -53 66q-59 0 -70 -55q-10 -58 60 -99z
M338 51q78 0 90 68q6 41 -20.5 67.5t-81.5 57.5q-51 -37 -64 -105q-6 -41 15.5 -64.5t60.5 -23.5z" />
    <glyph glyph-name="uni2089" unicode="&#x2089;" horiz-adv-x="471" 
d="M412 571q104 0 156.5 -68.5t33.5 -187.5q-27 -162 -141.5 -244.5t-284.5 -82.5l6 45q137 0 211 188h-2q-43 -31 -102 -31q-84 0 -121 52.5t-25 132.5q14 90 88.5 143t180.5 53zM371 274q27 0 47 27q8 33 10 51q14 88 8 124t-35 36q-55 0 -75 -133q-18 -105 45 -105z" />
    <glyph glyph-name="Euro" unicode="&#x20ac;" horiz-adv-x="1335" 
d="M1096 1475q127 0 219 -29t136 -76t62.5 -92t18.5 -92q0 -78 -37 -120t-100 -42q-51 0 -86 28.5t-54.5 69.5t-39 81t-52.5 68.5t-80 28.5q-121 0 -217 -90t-155 -247h405l-26 -172h-426l-9 -46q-4 -33 -12 -94h424l-29 -180h-391q39 -307 311 -307q186 0 342 174l70 -66
q-94 -133 -243.5 -222t-311.5 -89q-236 0 -399.5 137.5t-196.5 372.5h-229l28 180h197q4 45 8 68q8 49 15 72h-197l27 172h225q104 246 320.5 379t482.5 133z" />
    <glyph glyph-name="uni2113" unicode="&#x2113;" horiz-adv-x="909" 
d="M401 -41q-117 0 -191.5 108.5t-47.5 299.5l12 90l-143 -97l-19 56l174 131l31 211q98 717 461 717q104 0 165.5 -85t43.5 -223q-8 -57 -30.5 -112.5t-63.5 -108.5t-73 -91t-93.5 -88t-86 -70.5t-91 -67.5t-72.5 -51l-21 -152q-45 -319 146 -320q135 0 270 146l39 -41
q-185 -252 -410 -252zM389 672q319 250 356 516q12 92 -16.5 149.5t-89.5 57.5q-82 0 -131 -113t-84 -358z" />
    <glyph glyph-name="trademark" unicode="&#x2122;" horiz-adv-x="1013" 
d="M213 993v29q35 10 41 59l47 297q-39 -4 -77 -26.5t-56 -44.5l-16 -21l-27 14l65 134h381l19 -134l-31 -14q-4 8 -12 22.5t-39 40t-68 29.5l-47 -297q-6 -49 25 -59l-12 -29h-193zM559 993v29q35 10 41 59l41 262q6 53 -23 62l9 29h161l52 -230h4l121 230h157v-29
q-33 -10 -43 -62l-41 -262q-6 -49 25 -59l-12 -29h-189v29q35 10 41 59l25 160h-4l-136 -248h-49l-53 248h-4l-25 -160q-6 -49 25 -59l-14 -29h-109z" />
    <glyph glyph-name="Omega" unicode="&#x2126;" horiz-adv-x="1810" 
d="M135 -51l-72 528l103 45q61 -188 274 -188h150l4 16q-88 35 -165 87t-142.5 122t-96 164t-14.5 197q41 260 269.5 407.5t592.5 147.5q367 0 548 -147.5t140 -407.5q-23 -135 -124 -255t-220.5 -193t-255.5 -122l-2 -16h150q217 0 336 188l86 -45l-236 -528h-35
q-53 51 -239 51h-324l66 426q137 66 216 176.5t105 288.5q35 207 -13 318.5t-222 111.5t-257 -110.5t-116 -319.5q-27 -178 16 -288.5t156 -176.5l-63 -426h-324q-190 0 -256 -51h-35z" />
    <glyph glyph-name="estimated" unicode="&#x212e;" horiz-adv-x="1878" 
d="M1044 -41q-317 0 -541 222t-224 536q0 315 223 536.5t540.5 221.5t541.5 -221.5t226 -536.5v-19h-1175v-495q190 -150 414 -150q154 0 258 45t190 156h121q-212 -295 -574 -295zM639 784h801v453q-164 147 -393 147q-240 0 -408 -157v-443z" />
    <glyph glyph-name="partialdiff" unicode="&#x2202;" horiz-adv-x="1476" 
d="M705 1475q125 0 245.5 -53.5t221 -162t137.5 -273.5t-6 -386q-61 -289 -266.5 -465t-487.5 -176q-279 0 -420 168t-92 399q47 215 221 326t404 111q117 0 215 -48q47 367 -52 367q-35 0 -65.5 -24.5t-49 -54t-53 -54.5t-77.5 -25q-70 0 -116 41t-46 101q0 96 74 152.5
t213 56.5zM582 104q78 0 127 90.5t92 284.5q31 139 57 297q-49 41 -125 41t-133 -73.5t-88 -217.5q-39 -141 -27.5 -281.5t97.5 -140.5z" />
    <glyph glyph-name="Delta" unicode="&#x2206;" horiz-adv-x="1609" 
d="M-2 0l780 1434h348l332 -1434h-1460zM260 164h655l-194 837z" />
    <glyph glyph-name="product" unicode="&#x220f;" horiz-adv-x="2170" 
d="M276 0l-6 92q166 49 189 197l133 856q25 150 -127 196l35 93h1601l6 -93q-166 -49 -188 -196l-135 -856q-25 -150 127 -197l-35 -92h-725l-6 92q166 49 188 197l150 946h-426l-148 -946q-25 -150 127 -197l-35 -92h-725z" />
    <glyph glyph-name="summation" unicode="&#x2211;" horiz-adv-x="1699" 
d="M264 0l19 125l495 516l-293 668l19 125h1089l49 -390l-96 -38q-76 141 -189.5 202.5t-301.5 61.5h-17l176 -422l-466 -508h303q236 0 331 23.5t183 121.5l80 -51l-267 -434h-1114z" />
    <glyph glyph-name="minus" unicode="&#x2212;" horiz-adv-x="980" 
d="M147 444l46 287h743l-45 -287h-744z" />
    <glyph glyph-name="uni2215" unicode="&#x2215;" horiz-adv-x="458" 
d="M2 444l45 287h651l-45 -287h-651z" />
    <glyph glyph-name="uni2219" unicode="&#x2219;" horiz-adv-x="798" 
d="M368.5 481q-102.5 0 -164 67.5t-44.5 174.5q18 106 100 174t184.5 68t164 -68t42.5 -174q-16 -106 -98 -174t-184.5 -68z" />
    <glyph glyph-name="radical" unicode="&#x221a;" horiz-adv-x="1607" 
d="M637 0l-115 444h-225l22 146h324l100 -400l711 1244h158l-817 -1434h-158z" />
    <glyph glyph-name="infinity" unicode="&#x221e;" horiz-adv-x="1988" 
d="M547 315q-166 0 -265.5 118t-72.5 282q27 166 163 283.5t302 117.5q135 0 225 -72.5t168 -201.5h6q123 131 233.5 202.5t247.5 71.5q166 0 265.5 -117.5t72.5 -283.5q-27 -164 -163 -282t-299 -118q-137 0 -226.5 72t-171.5 203h-6q-117 -129 -230.5 -202t-248.5 -73z
M1456 489q102 0 190.5 76t104.5 180q16 106 -47.5 182.5t-167.5 76.5q-100 0 -187 -65t-204 -194q76 -127 143.5 -191.5t167.5 -64.5zM565 428q100 0 190.5 65.5t198.5 190.5q-72 125 -140.5 191.5t-168.5 66.5q-104 0 -192 -75.5t-105 -182.5q-16 -104 48.5 -180t168.5 -76
z" />
    <glyph glyph-name="integral" unicode="&#x222b;" horiz-adv-x="1802" 
d="M500 -406q-133 0 -205 55.5t-55 162.5q8 63 68.5 111t125.5 48q55 0 89 -31.5t44.5 -69.5t23.5 -69.5t32 -31.5q57 0 71 96l232 1464q39 238 214 372t400 134q123 0 193.5 -50t56.5 -140q-12 -76 -67.5 -125.5t-131.5 -49.5q-55 0 -86.5 30t-38 64.5t-18.5 64.5t-31 30
q-29 0 -48 -27.5t-26 -68.5l-231 -1465q-39 -238 -214 -371t-398 -133z" />
    <glyph glyph-name="approxequal" unicode="&#x2248;" horiz-adv-x="1216" 
d="M903 723q-119 0 -271.5 71.5t-213.5 71.5q-76 0 -129 -90l-76 45q43 80 116.5 134.5t159.5 54.5q119 0 274 -71t214 -71q51 0 115 64l65 -58q-43 -61 -114.5 -106t-139.5 -45zM856 424q-92 0 -183 36t-168 71.5t-132 35.5q-80 0 -133 -90l-74 45q43 82 115.5 135.5
t158.5 53.5q119 0 274.5 -71t215.5 -71q49 0 114 66l66 -57q-43 -61 -114.5 -107.5t-139.5 -46.5z" />
    <glyph glyph-name="notequal" unicode="&#x2260;" horiz-adv-x="1591" 
d="M547 145l131 299h-420l23 146h460l115 260h-534l22 145h576l131 295h149l-133 -295h422l-23 -145h-460l-115 -260h534l-22 -146h-576l-131 -299h-149z" />
    <glyph glyph-name="lessequal" unicode="&#x2264;" horiz-adv-x="1708" 
d="M1444 164l-989 438l24 158l1127 436l-25 -156l-913 -356v-8l800 -354zM315 0l23 145h1147l-23 -145h-1147z" />
    <glyph glyph-name="greaterequal" unicode="&#x2265;" horiz-adv-x="1638" 
d="M383 164l25 158l915 354v8l-799 356l25 156l987 -436l-25 -158zM315 0l23 145h1147l-23 -145h-1147z" />
    <glyph glyph-name="lozenge" unicode="&#x25ca;" horiz-adv-x="1417" 
d="M623 0l-326 717l551 717h158l325 -717l-551 -717h-157zM717 135h8l449 582l-265 583h-8l-446 -583z" />
    <glyph glyph-name="uniF6E0" unicode="&#xf6e0;" horiz-adv-x="403" 
d="M274 770l13 74q-78 8 -116 66.5t-28 133.5q14 84 71.5 137.5t135.5 63.5l12 78h76l-12 -78q55 -10 87 -44t26 -79q-4 -25 -28 -45t-48 -20q-37 0 -52.5 20.5t-15.5 46t-9 46t-33.5 20.5t-52.5 -31t-36 -69q-12 -74 19.5 -116t93.5 -42q72 0 115 61l22 -8
q-33 -115 -152 -137l-12 -78h-76z" />
    <glyph glyph-name="uniF6E4" unicode="&#xf6e4;" horiz-adv-x="534" 
d="M317 655l21 129q-106 4 -154.5 40t-42.5 85q4 25 26.5 43.5t51.5 18.5q33 0 47.5 -20.5t16.5 -44t24.5 -44t71.5 -20.5q37 0 66.5 19.5t31.5 45.5q4 29 -14.5 49.5t-36.5 27.5t-64 24q-41 14 -62 24t-50 31.5t-39 54.5t-4 76q12 74 73.5 118t149.5 52l16 106h68l-16 -104
q78 -4 129 -32.5t43 -78.5q-6 -57 -68 -57q-27 0 -39 17.5t-15 37t-21.5 37t-57.5 17.5q-35 0 -61.5 -17.5t-30.5 -44.5q-4 -23 12.5 -40t32.5 -24t59 -20q8 -2 13 -4q41 -12 64.5 -22.5t54 -30t42 -52t4.5 -75.5q-14 -82 -84.5 -133t-168.5 -60l-21 -129h-68z" />
    <glyph glyph-name="uniF6E6" unicode="&#xf6e6;" horiz-adv-x="741" 
d="M45 444l45 287h651l-45 -287h-651z" />
    <glyph glyph-name="uniF6E9" unicode="&#xf6e9;" horiz-adv-x="563" 
d="M645 903q12 0 21 4l2 -37q-49 -37 -125 -36q-102 0 -103 77v-2h-6q-41 -76 -133 -75q-74 0 -118 46t-44 138q0 117 77 212t181 95q78 0 107 -53h4l16 51h176q-47 -106 -71 -242l-19 -104q-12 -74 35 -74zM373 934q59 0 88 102l28 168q-23 27 -55 27q-59 0 -94 -66.5
t-35 -138.5q0 -41 18.5 -66.5t49.5 -25.5z" />
    <glyph glyph-name="uniF6EA" unicode="&#xf6ea;" horiz-adv-x="552" 
d="M520 1323q82 0 126 -54.5t44 -142.5q0 -119 -87 -205.5t-200 -86.5q-104 0 -155 73h-6l-54 -57h-49l88 489q12 68 -41 82l17 41q135 18 209 84l14 -4l-53 -289h6q61 70 141 70zM391 909q59 0 99 78t40 156q0 94 -59 94q-39 0 -74 -42t-53 -103l-25 -140q23 -43 72 -43z
" />
    <glyph glyph-name="uniF6EB" unicode="&#xf6eb;" horiz-adv-x="575" 
d="M645 903q12 0 21 4l4 -37q-53 -37 -127 -36q-96 0 -101 67h-6q-49 -68 -137 -67q-160 0 -160 184q0 121 74 214t193 93q53 0 96 -33h4l8 47q12 66 -39 82l17 41q135 18 208 84l13 -4l-101 -565q-14 -74 33 -74zM371 934q68 0 90 104l31 174q-20 18 -54 19
q-66 0 -99.5 -65.5t-33.5 -139.5q0 -39 17.5 -65.5t48.5 -26.5z" />
    <glyph glyph-name="uniF6EC" unicode="&#xf6ec;" horiz-adv-x="475" 
d="M588 1028l24 -24q-88 -170 -262 -170q-86 0 -148.5 46t-62.5 154q0 117 79 203t216 86q84 0 130 -29.5t46 -85.5q0 -74 -79.5 -112.5t-229.5 -61.5q4 -49 34 -78.5t64 -29.5q55 0 96.5 24.5t92.5 77.5zM422 1249q-31 0 -69 -42t-48 -111q66 10 111 44t45 68q0 41 -39 41z
" />
    <glyph glyph-name="uniF6ED" unicode="&#xf6ed;" horiz-adv-x="245" 
d="M283 1337q-47 0 -74 28t-27 64.5t27 65.5t74 29q45 0 72.5 -29t27.5 -65.5t-27.5 -64.5t-72.5 -28zM248 834q-47 0 -78 21.5t-23 76.5l33 188q12 70 -41 84l17 39q135 20 209 84l14 -4l-64 -346q-12 -74 35 -74q12 0 21 4l2 -37q-49 -36 -125 -36z" />
    <glyph glyph-name="uniF6EE" unicode="&#xf6ee;" horiz-adv-x="276" 
d="M244 834q-47 0 -78 20t-25 78l74 407q12 68 -41 82l16 41q135 18 209 84l15 -4l-103 -565q-12 -74 33 -74q14 0 21 4l4 -37q-53 -36 -125 -36z" />
    <glyph glyph-name="uniF6EF" unicode="&#xf6ef;" horiz-adv-x="798" 
d="M934 907l2 -37q-53 -37 -119 -36q-49 0 -83 21.5t-23 76.5l45 219q16 72 -33 72q-33 0 -62.5 -45t-42.5 -109q-10 -53 -15 -108.5t-5 -83.5l2 -27h-182l53 301q12 72 -35 72q-57 0 -92 -131l-6 -39l-2 -2q-8 -49 -12.5 -99.5t-4.5 -74.5l3 -27h-183l49 270q12 68 -38 84
l14 39q135 20 211 84l12 -4l-16 -88h6q35 49 67.5 68.5t79.5 19.5q92 0 111 -88h6q63 88 162 88q66 0 99.5 -46t12.5 -138l-32 -162q-18 -74 30 -74q13 0 21 4z" />
    <glyph glyph-name="uniF6F0" unicode="&#xf6f0;" horiz-adv-x="495" 
d="M352.5 834q-110.5 0 -167 67.5t-42.5 177.5q16 109 91 176.5t186 67.5q113 0 169 -67.5t40 -176.5q-14 -111 -90 -178t-186.5 -67zM362 909q37 0 65 47.5t38 123t-4.5 122.5t-50.5 47q-35 0 -63 -48t-38 -122q-10 -76 4 -123t49 -47z" />
    <glyph glyph-name="uniF6F1" unicode="&#xf6f1;" horiz-adv-x="495" 
d="M528 1323q47 0 79 -30.5t24 -78.5q-6 -41 -34 -70.5t-67 -29.5q-33 0 -50 14.5t-20 33t-11.5 32.5t-22.5 14q-23 0 -50.5 -49t-37.5 -110q-8 -55 -12 -104.5t-4 -72.5v-22h-183l49 270q12 70 -41 84l17 39q135 20 209 84l14 -4l-16 -88h4q37 49 68.5 68.5t84.5 19.5z" />
    <glyph glyph-name="uniF6F2" unicode="&#xf6f2;" horiz-adv-x="507" 
d="M367 834q-90 0 -159 27.5t-69 78.5q0 27 18.5 44t47.5 17q37 0 74.5 -46t91.5 -46q92 0 92 52q0 10 -7 18t-22.5 14t-27 9.5t-35 8.5t-29.5 7q-147 43 -147 143q0 72 65.5 118t183.5 46q88 0 144.5 -26.5t56.5 -73.5q0 -53 -57 -54q-39 0 -65.5 39t-78.5 39
q-88 0 -88 -45q0 -8 6.5 -15t16.5 -12.5t21.5 -9.5t25.5 -7t24.5 -5t22.5 -4t14 -2q76 -14 116 -44t40 -95q0 -68 -64.5 -122t-211.5 -54z" />
    <glyph glyph-name="uniF6F3" unicode="&#xf6f3;" horiz-adv-x="370" 
d="M301 834q-152 0 -129 137l45 256h-78l8 55q129 37 224 152h47l-23 -127h113l-14 -80h-111l-47 -260q-10 -57 35 -58q39 0 59 11l4 -66q-57 -20 -133 -20z" />
    <glyph glyph-name="uniFB06" unicode="&#xfb06;" horiz-adv-x="2228" 
d="M582 -41q-135 0 -253 25.5t-201 85t-83 141.5q0 66 43 103.5t115 37.5q51 0 87 -22.5t60.5 -54t51 -62.5t74.5 -53.5t114 -22.5q111 0 163 35t52 88q0 23 -17.5 42.5t-51.5 32.5t-63.5 21.5t-76.5 20.5t-70 18q-74 20 -127 43t-108 61t-84 96t-29 134q0 166 153.5 274.5
t430.5 108.5q35 0 96 -4q-8 100 22.5 197.5t98.5 181.5t189.5 135t277.5 51q123 0 232.5 -39t190.5 -111.5t117.5 -190.5t12.5 -263h264l-33 -186h-264l-106 -609q-25 -139 82 -139q76 0 141 25l6 -152q-51 -16 -151.5 -32.5t-161.5 -16.5q-358 0 -301 322l106 602h-186
l22 131q213 90 213 289q0 96 -76.5 160.5t-185.5 64.5q-123 0 -210 -82t-87 -207q0 -53 19.5 -93t48 -64.5t57.5 -47t48.5 -55.5t19.5 -76q0 -61 -47.5 -104t-116.5 -45q-51 0 -85 18.5t-51.5 45t-37 53t-59.5 45t-103 18.5q-98 0 -152.5 -28.5t-54.5 -76.5q0 -27 24.5 -49
t68.5 -35.5t80 -21.5t83 -15.5t53 -9.5q174 -33 268.5 -102.5t94.5 -222.5q0 -53 -16.5 -106.5t-62.5 -110t-115.5 -99.5t-186 -70.5t-266.5 -27.5z" />
    <glyph glyph-name="glyph422" horiz-adv-x="0" 
 />
    <glyph glyph-name="glyph423" horiz-adv-x="0" 
 />
    <glyph glyph-name="glyph424" horiz-adv-x="882" 
d="M1104 -496q-162 0 -291 51.5t-216 124t-167 145.5t-186.5 124t-233.5 51l-4 92q113 33 141 197l152 856q29 164 -72 196l37 93h621l4 -93q-111 -33 -139 -196l-187 -1057q86 -43 159 -116.5t112.5 -134t95 -106.5t114.5 -46q61 0 97.5 26.5t50.5 63.5t30.5 73.5
t57.5 63.5t111 27q72 0 116.5 -41t44.5 -105q1 -289 -448 -289z" />
    <glyph glyph-name="glyph425" horiz-adv-x="2146" 
d="M1298 930q68 96 123.5 165.5t119 132t124.5 102.5t135 71t157 42t180 9t216 -18l-24 -93q-113 -33 -142 -196l-149 -856q-31 -164 71 -197l-36 -92h-623l-4 92q100 29 135 172q-20 113 -98 215.5t-185 173.5l-280 -417q-63 -92 -91 -128t-85.5 -85.5t-126 -66.5
t-166.5 -17q-172 0 -263 74.5t-91 172.5q0 70 43 119t118 49q47 0 81 -16t52.5 -41t38 -52.5t35 -52t44 -41t67.5 -16.5q31 0 52.5 5t39.5 23.5t29.5 33t36 53.5t45.5 67q129 184 282 410q-76 31 -147 31q-94 0 -146.5 -31t-52.5 -86q0 -27 20.5 -71t20.5 -78
q0 -76 -52 -122t-132 -46q-82 0 -132.5 61t-50.5 147q0 174 149.5 282t375.5 108q119 0 254 -41zM1413 825q147 -70 225 -176h13l100 576q-45 -31 -83 -65t-76 -81t-56 -72.5t-58 -86t-48 -72.5q-1 -3 -17 -23z" />
    <glyph glyph-name="glyph426" horiz-adv-x="2146" 
d="M2124 1704l-338 -186l-78 71l268 273q49 47 86 68.5t86 21.5q47 0 75 -31t20 -74q-13 -86 -119 -143zM1298 930q68 96 123.5 165.5t119 132t124.5 102.5t135 71t157 42t180 9t216 -18l-24 -93q-113 -33 -142 -196l-149 -856q-31 -164 71 -197l-36 -92h-623l-4 92
q100 29 135 172q-20 113 -98 215.5t-185 173.5l-280 -417q-63 -92 -91 -128t-85.5 -85.5t-126 -66.5t-166.5 -17q-172 0 -263 74.5t-91 172.5q0 70 43 119t118 49q47 0 81 -16t52.5 -41t38 -52.5t35 -52t44 -41t67.5 -16.5q31 0 52.5 5t39.5 23.5t29.5 33t36 53.5t45.5 67
q129 184 282 410q-76 31 -147 31q-94 0 -146.5 -31t-52.5 -86q0 -27 20.5 -71t20.5 -78q0 -76 -52 -122t-132 -46q-82 0 -132.5 61t-50.5 147q0 174 149.5 282t375.5 108q119 0 254 -41zM1413 825q147 -70 225 -176h13l100 576q-45 -31 -83 -65t-76 -81t-56 -72.5t-58 -86
t-48 -72.5q-1 -3 -17 -23z" />
    <glyph glyph-name="glyph427" horiz-adv-x="2146" 
d="M1980 1579q-123 0 -200.5 58.5t-98.5 152.5l125 70q12 -49 69.5 -77t133.5 -28q80 0 146.5 26.5t93.5 73.5l102 -65q-53 -94 -149.5 -152.5t-221.5 -58.5zM1298 930q68 96 123.5 165.5t119 132t124.5 102.5t135 71t157 42t180 9t216 -18l-24 -93q-113 -33 -142 -196
l-149 -856q-31 -164 71 -197l-36 -92h-623l-4 92q100 29 135 172q-20 113 -98 215.5t-185 173.5l-280 -417q-63 -92 -91 -128t-85.5 -85.5t-126 -66.5t-166.5 -17q-172 0 -263 74.5t-91 172.5q0 70 43 119t118 49q47 0 81 -16t52.5 -41t38 -52.5t35 -52t44 -41t67.5 -16.5
q31 0 52.5 5t39.5 23.5t29.5 33t36 53.5t45.5 67q129 184 282 410q-76 31 -147 31q-94 0 -146.5 -31t-52.5 -86q0 -27 20.5 -71t20.5 -78q0 -76 -52 -122t-132 -46q-82 0 -132.5 61t-50.5 147q0 174 149.5 282t375.5 108q119 0 254 -41zM1413 825q147 -70 225 -176h13
l100 576q-45 -31 -83 -65t-76 -81t-56 -72.5t-58 -86t-48 -72.5q-1 -3 -17 -23z" />
    <glyph glyph-name="glyph428" horiz-adv-x="2146" 
d="M1946 1622l-306 -113l-38 90l389 306l288 -306l-65 -90zM1298 930q68 96 123.5 165.5t119 132t124.5 102.5t135 71t157 42t180 9t216 -18l-24 -93q-113 -33 -142 -196l-149 -856q-31 -164 71 -197l-36 -92h-623l-4 92q100 29 135 172q-20 113 -98 215.5t-185 173.5
l-280 -417q-63 -92 -91 -128t-85.5 -85.5t-126 -66.5t-166.5 -17q-172 0 -263 74.5t-91 172.5q0 70 43 119t118 49q47 0 81 -16t52.5 -41t38 -52.5t35 -52t44 -41t67.5 -16.5q31 0 52.5 5t39.5 23.5t29.5 33t36 53.5t45.5 67q129 184 282 410q-76 31 -147 31
q-94 0 -146.5 -31t-52.5 -86q0 -27 20.5 -71t20.5 -78q0 -76 -52 -122t-132 -46q-82 0 -132.5 61t-50.5 147q0 174 149.5 282t375.5 108q119 0 254 -41zM1413 825q147 -70 225 -176h13l100 576q-45 -31 -83 -65t-76 -81t-56 -72.5t-58 -86t-48 -72.5q-1 -3 -17 -23z" />
    <glyph glyph-name="glyph429" horiz-adv-x="2146" 
d="M1673 1540q-84 0 -123 49t-28 115q12 70 66 120t138 50t125 -51t29 -119q-10 -66 -67.5 -115t-139.5 -49zM2128 1540q-82 0 -122 49t-30 115q12 68 67.5 119t137.5 51q84 0 125 -51t29 -119q-10 -66 -67.5 -115t-139.5 -49zM1298 930q68 96 123.5 165.5t119 132
t124.5 102.5t135 71t157 42t180 9t216 -18l-24 -93q-113 -33 -142 -196l-149 -856q-31 -164 71 -197l-36 -92h-623l-4 92q100 29 135 172q-20 113 -98 215.5t-185 173.5l-280 -417q-63 -92 -91 -128t-85.5 -85.5t-126 -66.5t-166.5 -17q-172 0 -263 74.5t-91 172.5
q0 70 43 119t118 49q47 0 81 -16t52.5 -41t38 -52.5t35 -52t44 -41t67.5 -16.5q31 0 52.5 5t39.5 23.5t29.5 33t36 53.5t45.5 67q129 184 282 410q-76 31 -147 31q-94 0 -146.5 -31t-52.5 -86q0 -27 20.5 -71t20.5 -78q0 -76 -52 -122t-132 -46q-82 0 -132.5 61t-50.5 147
q0 174 149.5 282t375.5 108q119 0 254 -41zM1413 825q147 -70 225 -176h13l100 576q-45 -31 -83 -65t-76 -81t-56 -72.5t-58 -86t-48 -72.5q-1 -3 -17 -23z" />
    <glyph glyph-name="glyph430" horiz-adv-x="2146" 
d="M1731 1704q-86 57 -74 143q8 43 45 74t84 31q82 0 141 -90l184 -273l-100 -71zM1298 930q68 96 123.5 165.5t119 132t124.5 102.5t135 71t157 42t180 9t216 -18l-24 -93q-113 -33 -142 -196l-149 -856q-31 -164 71 -197l-36 -92h-623l-4 92q100 29 135 172
q-20 113 -98 215.5t-185 173.5l-280 -417q-63 -92 -91 -128t-85.5 -85.5t-126 -66.5t-166.5 -17q-172 0 -263 74.5t-91 172.5q0 70 43 119t118 49q47 0 81 -16t52.5 -41t38 -52.5t35 -52t44 -41t67.5 -16.5q31 0 52.5 5t39.5 23.5t29.5 33t36 53.5t45.5 67q129 184 282 410
q-76 31 -147 31q-94 0 -146.5 -31t-52.5 -86q0 -27 20.5 -71t20.5 -78q0 -76 -52 -122t-132 -46q-82 0 -132.5 61t-50.5 147q0 174 149.5 282t375.5 108q119 0 254 -41zM1413 825q147 -70 225 -176h13l100 576q-45 -31 -83 -65t-76 -81t-56 -72.5t-58 -86t-48 -72.5
q-1 -3 -17 -23z" />
    <glyph glyph-name="glyph431" horiz-adv-x="2146" 
d="M2324 1772l-26 -175h-666l27 175h665zM1298 930q68 96 123.5 165.5t119 132t124.5 102.5t135 71t157 42t180 9t216 -18l-24 -93q-113 -33 -142 -196l-149 -856q-31 -164 71 -197l-36 -92h-623l-4 92q100 29 135 172q-20 113 -98 215.5t-185 173.5l-280 -417
q-63 -92 -91 -128t-85.5 -85.5t-126 -66.5t-166.5 -17q-172 0 -263 74.5t-91 172.5q0 70 43 119t118 49q47 0 81 -16t52.5 -41t38 -52.5t35 -52t44 -41t67.5 -16.5q31 0 52.5 5t39.5 23.5t29.5 33t36 53.5t45.5 67q129 184 282 410q-76 31 -147 31q-94 0 -146.5 -31
t-52.5 -86q0 -27 20.5 -71t20.5 -78q0 -76 -52 -122t-132 -46q-82 0 -132.5 61t-50.5 147q0 174 149.5 282t375.5 108q119 0 254 -41zM1413 825q147 -70 225 -176h13l100 576q-45 -31 -83 -65t-76 -81t-56 -72.5t-58 -86t-48 -72.5q-1 -3 -17 -23z" />
    <glyph glyph-name="glyph432" horiz-adv-x="2146" 
d="M1298 930q68 96 123.5 165.5t119 132t124.5 102.5t135 71t157 42t180 9t216 -18l-24 -93q-113 -33 -142 -196l-149 -856q-31 -164 71 -197l-36 -92h-78q-135 -88 -156 -209q-6 -39 13.5 -64.5t56.5 -25.5q68 0 125 72l96 -54q-131 -174 -311 -174q-123 0 -182.5 64.5
t-43.5 161.5q20 135 144 229h-287l-4 92q100 29 135 172q-20 113 -98 215.5t-185 173.5l-280 -417q-63 -92 -91 -128t-85.5 -85.5t-126 -66.5t-166.5 -17q-172 0 -263 74.5t-91 172.5q0 70 43 119t118 49q47 0 81 -16t52.5 -41t38 -52.5t35 -52t44 -41t67.5 -16.5
q31 0 52.5 5t39.5 23.5t29.5 33t36 53.5t45.5 67q129 184 282 410q-76 31 -147 31q-94 0 -146.5 -31t-52.5 -86q0 -27 20.5 -71t20.5 -78q0 -76 -52 -122t-132 -46q-82 0 -132.5 61t-50.5 147q0 174 149.5 282t375.5 108q119 0 254 -41zM1413 825q147 -70 225 -176h13
l100 576q-45 -31 -83 -65t-76 -81t-56 -72.5t-58 -86t-48 -72.5q-1 -3 -17 -23z" />
    <glyph glyph-name="glyph433" horiz-adv-x="2146" 
d="M1984.5 1536q-90.5 0 -145.5 63.5t-41 153.5q14 88 90 152.5t166 64.5t144.5 -64.5t39.5 -152.5q-14 -90 -88.5 -153.5t-165 -63.5zM1939 1753q-6 -35 13.5 -59.5t52.5 -24.5t60.5 24.5t33.5 59.5q4 33 -15.5 55.5t-52 22.5t-60.5 -22.5t-32 -55.5zM1298 930
q68 96 123.5 165.5t119 132t124.5 102.5t135 71t157 42t180 9t216 -18l-24 -93q-113 -33 -142 -196l-149 -856q-31 -164 71 -197l-36 -92h-623l-4 92q100 29 135 172q-20 113 -98 215.5t-185 173.5l-280 -417q-63 -92 -91 -128t-85.5 -85.5t-126 -66.5t-166.5 -17
q-172 0 -263 74.5t-91 172.5q0 70 43 119t118 49q47 0 81 -16t52.5 -41t38 -52.5t35 -52t44 -41t67.5 -16.5q31 0 52.5 5t39.5 23.5t29.5 33t36 53.5t45.5 67q129 184 282 410q-76 31 -147 31q-94 0 -146.5 -31t-52.5 -86q0 -27 20.5 -71t20.5 -78q0 -76 -52 -122t-132 -46
q-82 0 -132.5 61t-50.5 147q0 174 149.5 282t375.5 108q119 0 254 -41zM1413 825q147 -70 225 -176h13l100 576q-45 -31 -83 -65t-76 -81t-56 -72.5t-58 -86t-48 -72.5q-1 -3 -17 -23z" />
    <glyph glyph-name="glyph434" horiz-adv-x="2146" 
d="M1866 1536q-90 0 -145.5 63.5t-41.5 153.5q14 104 117 174l240 242q49 47 86 68.5t86 21.5q47 0 74.5 -30.5t19.5 -74.5q-12 -86 -119 -143l-137 -76q92 -66 74 -182q-14 -90 -89 -153.5t-165 -63.5zM1980 1753q4 33 -15 55.5t-52 22.5t-60.5 -22.5t-31.5 -55.5
q-6 -35 13 -59.5t52 -24.5t60.5 24.5t33.5 59.5zM1298 930q68 96 123.5 165.5t119 132t124.5 102.5t135 71t157 42t180 9t216 -18l-24 -93q-113 -33 -142 -196l-149 -856q-31 -164 71 -197l-36 -92h-623l-4 92q100 29 135 172q-20 113 -98 215.5t-185 173.5l-280 -417
q-63 -92 -91 -128t-85.5 -85.5t-126 -66.5t-166.5 -17q-172 0 -263 74.5t-91 172.5q0 70 43 119t118 49q47 0 81 -16t52.5 -41t38 -52.5t35 -52t44 -41t67.5 -16.5q31 0 52.5 5t39.5 23.5t29.5 33t36 53.5t45.5 67q129 184 282 410q-76 31 -147 31q-94 0 -146.5 -31
t-52.5 -86q0 -27 20.5 -71t20.5 -78q0 -76 -52 -122t-132 -46q-82 0 -132.5 61t-50.5 147q0 174 149.5 282t375.5 108q119 0 254 -41zM1413 825q147 -70 225 -176h13l100 576q-45 -31 -83 -65t-76 -81t-56 -72.5t-58 -86t-48 -72.5q-1 -3 -17 -23z" />
    <glyph glyph-name="glyph435" horiz-adv-x="2146" 
d="M1769 1696q-66 0 -94 -76l-116 29q37 139 106.5 195.5t144.5 56.5q68 0 152 -47.5t123 -47.5q68 0 96 72l111 -27q-35 -139 -105.5 -195.5t-146.5 -56.5q-68 0 -150 48.5t-121 48.5zM1298 930q68 96 123.5 165.5t119 132t124.5 102.5t135 71t157 42t180 9t216 -18
l-24 -93q-113 -33 -142 -196l-149 -856q-31 -164 71 -197l-36 -92h-623l-4 92q100 29 135 172q-20 113 -98 215.5t-185 173.5l-280 -417q-63 -92 -91 -128t-85.5 -85.5t-126 -66.5t-166.5 -17q-172 0 -263 74.5t-91 172.5q0 70 43 119t118 49q47 0 81 -16t52.5 -41t38 -52.5
t35 -52t44 -41t67.5 -16.5q31 0 52.5 5t39.5 23.5t29.5 33t36 53.5t45.5 67q129 184 282 410q-76 31 -147 31q-94 0 -146.5 -31t-52.5 -86q0 -27 20.5 -71t20.5 -78q0 -76 -52 -122t-132 -46q-82 0 -132.5 61t-50.5 147q0 174 149.5 282t375.5 108q119 0 254 -41zM1413 825
q147 -70 225 -176h13l100 576q-45 -31 -83 -65t-76 -81t-56 -72.5t-58 -86t-48 -72.5q-1 -3 -17 -23z" />
    <glyph glyph-name="glyph436" horiz-adv-x="2088" 
d="M2097 1083q-20 -115 -107 -200.5t-212 -118.5l-2 -10q158 -33 243.5 -131.5t61.5 -245.5q-33 -193 -198 -303.5t-384 -110.5q-127 0 -300 18.5t-331 18.5h-252l-6 92q113 33 142 197l151 856q12 68 0 115q-223 47 -254 47q-70 0 -108.5 -28t-38.5 -69q0 -39 44 -99
t44 -120q0 -72 -52.5 -122t-134.5 -50q-86 0 -147 67.5t-61 157.5q0 188 140 309.5t425 121.5q72 0 258 -20.5t465 -20.5h258q176 0 279.5 -99.5t76.5 -251.5zM1485 1260q-63 0 -113 -7l-72 -409h103q88 0 156.5 60.5t85.5 154.5q16 88 -26 144.5t-134 56.5zM1640 420
q23 121 -46.5 185.5t-178.5 64.5h-145l-86 -486q82 -18 159 -18q131 0 205 72.5t92 181.5z" />
    <glyph glyph-name="glyph437" horiz-adv-x="2080" 
d="M1972 580l96 -25q-63 -248 -249.5 -422t-462.5 -174q-346 0 -520 216t-115 564q51 281 258 482q-127 76 -258 75q-90 0 -145.5 -43t-55.5 -100q0 -27 21.5 -71t21.5 -78q0 -76 -52 -122t-132 -46q-82 0 -133 62.5t-51 145.5q0 176 152.5 296t373.5 120q219 0 405 -125
q221 139 482 140q215 0 333.5 -84t118.5 -236q0 -143 -108.5 -222t-265.5 -79q-221 0 -433 158q-55 -104 -77 -230q-53 -305 35.5 -461.5t287.5 -156.5q80 0 162 48t143.5 119.5t103 134.5t64.5 114zM1665 1303q-174 0 -313 -150q172 -143 334 -143q88 0 137 36.5t49 98.5
q0 35 -5 56.5t-23.5 48t-63.5 40t-115 13.5z" />
    <glyph glyph-name="glyph438" horiz-adv-x="2080" 
d="M1694 1704l-338 -186l-78 71l268 273q49 47 86 68.5t86 21.5q47 0 75 -31t19 -74q-12 -86 -118 -143zM1972 580l96 -25q-63 -248 -249.5 -422t-462.5 -174q-346 0 -520 216t-115 564q51 281 258 482q-127 76 -258 75q-90 0 -145.5 -43t-55.5 -100q0 -27 21.5 -71
t21.5 -78q0 -76 -52 -122t-132 -46q-82 0 -133 62.5t-51 145.5q0 176 152.5 296t373.5 120q219 0 405 -125q221 139 482 140q215 0 333.5 -84t118.5 -236q0 -143 -108.5 -222t-265.5 -79q-221 0 -433 158q-55 -104 -77 -230q-53 -305 35.5 -461.5t287.5 -156.5q80 0 162 48
t143.5 119.5t103 134.5t64.5 114zM1665 1303q-174 0 -313 -150q172 -143 334 -143q88 0 137 36.5t49 98.5q0 35 -5 56.5t-23.5 48t-63.5 40t-115 13.5z" />
    <glyph glyph-name="glyph439" horiz-adv-x="2080" 
d="M1905 1815l-387 -306l-291 306l65 90l271 -111l303 111zM1972 580l96 -25q-63 -248 -249.5 -422t-462.5 -174q-346 0 -520 216t-115 564q51 281 258 482q-127 76 -258 75q-90 0 -145.5 -43t-55.5 -100q0 -27 21.5 -71t21.5 -78q0 -76 -52 -122t-132 -46q-82 0 -133 62.5
t-51 145.5q0 176 152.5 296t373.5 120q219 0 405 -125q221 139 482 140q215 0 333.5 -84t118.5 -236q0 -143 -108.5 -222t-265.5 -79q-221 0 -433 158q-55 -104 -77 -230q-53 -305 35.5 -461.5t287.5 -156.5q80 0 162 48t143.5 119.5t103 134.5t64.5 114zM1665 1303
q-174 0 -313 -150q172 -143 334 -143q88 0 137 36.5t49 98.5q0 35 -5 56.5t-23.5 48t-63.5 40t-115 13.5z" />
    <glyph glyph-name="glyph440" horiz-adv-x="2080" 
d="M2068 555q-59 -229 -224 -397t-408 -195l-54 -86q18 8 50 8q72 0 109.5 -35.5t27.5 -95.5q-14 -96 -118.5 -166.5t-248.5 -70.5q-113 0 -181.5 50t-57.5 120q4 31 32.5 57.5t61.5 26.5q41 0 62.5 -22.5t25.5 -51.5t26.5 -51.5t67.5 -22.5t79 25.5t42 70.5
q2 25 -13.5 40.5t-41.5 15.5q-31 0 -58 -19l-73 35l102 172q-309 27 -460.5 238t-94.5 538q51 281 258 482q-127 76 -258 75q-90 0 -145.5 -43t-55.5 -100q0 -27 21.5 -71t21.5 -78q0 -76 -52 -122t-132 -46q-82 0 -133 62.5t-51 145.5q0 176 152.5 296t373.5 120
q219 0 405 -125q221 139 482 140q215 0 333.5 -84t118.5 -236q0 -143 -108.5 -222t-265.5 -79q-221 0 -433 158q-55 -104 -77 -230q-53 -305 35.5 -461.5t287.5 -156.5q80 0 162 48t143.5 119.5t103.5 134t64 114.5zM1665 1303q-174 0 -313 -150q172 -143 334 -143
q88 0 137 36.5t49 98.5q0 35 -5 56.5t-23.5 48t-63.5 40t-115 13.5z" />
    <glyph glyph-name="glyph441" horiz-adv-x="2080" 
d="M1522 1622l-305 -113l-39 90l389 306l288 -306l-65 -90zM1972 580l96 -25q-63 -248 -249.5 -422t-462.5 -174q-346 0 -520 216t-115 564q51 281 258 482q-127 76 -258 75q-90 0 -145.5 -43t-55.5 -100q0 -27 21.5 -71t21.5 -78q0 -76 -52 -122t-132 -46q-82 0 -133 62.5
t-51 145.5q0 176 152.5 296t373.5 120q219 0 405 -125q221 139 482 140q215 0 333.5 -84t118.5 -236q0 -143 -108.5 -222t-265.5 -79q-221 0 -433 158q-55 -104 -77 -230q-53 -305 35.5 -461.5t287.5 -156.5q80 0 162 48t143.5 119.5t103 134.5t64.5 114zM1665 1303
q-174 0 -313 -150q172 -143 334 -143q88 0 137 36.5t49 98.5q0 35 -5 56.5t-23.5 48t-63.5 40t-115 13.5z" />
    <glyph glyph-name="glyph442" horiz-adv-x="2080" 
d="M1491 1585q-82 0 -123 49t-29 115q10 68 66.5 119t138.5 51q84 0 124 -51t30 -119q-12 -66 -67.5 -115t-139.5 -49zM1972 580l96 -25q-63 -248 -249.5 -422t-462.5 -174q-346 0 -520 216t-115 564q51 281 258 482q-127 76 -258 75q-90 0 -145.5 -43t-55.5 -100
q0 -27 21.5 -71t21.5 -78q0 -76 -52 -122t-132 -46q-82 0 -133 62.5t-51 145.5q0 176 152.5 296t373.5 120q219 0 405 -125q221 139 482 140q215 0 333.5 -84t118.5 -236q0 -143 -108.5 -222t-265.5 -79q-221 0 -433 158q-55 -104 -77 -230q-53 -305 35.5 -461.5
t287.5 -156.5q80 0 162 48t143.5 119.5t103 134.5t64.5 114zM1665 1303q-174 0 -313 -150q172 -143 334 -143q88 0 137 36.5t49 98.5q0 35 -5 56.5t-23.5 48t-63.5 40t-115 13.5z" />
    <glyph glyph-name="glyph443" horiz-adv-x="2191" 
d="M1530 1434q328 0 517 -215t132 -539q-119 -680 -860 -680h-703l-4 92q113 33 142 197l170 964q-229 53 -275 54q-70 0 -108.5 -28t-38.5 -69q0 -39 44 -99t44 -120q0 -72 -52.5 -122t-134.5 -50q-86 0 -147 67.5t-61 157.5q0 188 140 309.5t425 121.5q72 0 258 -20.5
t465 -20.5h47zM1720 600q25 109 15.5 225.5t-39 212t-106.5 156.5t-187 61h-31l-186 -1069q72 -10 141 -10q162 0 262 124t131 300z" />
    <glyph glyph-name="glyph444" horiz-adv-x="2154" 
d="M1841 1815l-387 -306l-291 306l66 90l270 -111l303 111zM1493 1434q328 0 517.5 -215t131.5 -539q-119 -680 -860 -680h-666l-4 92q113 33 142 197l170 964q-229 53 -275 54q-70 0 -108.5 -28t-38.5 -69q0 -39 44 -99t44 -120q0 -72 -52.5 -122t-134.5 -50
q-86 0 -147 67.5t-61 157.5q0 188 140 309.5t425 121.5q72 0 258 -20.5t465 -20.5h10zM1683 600q25 109 16 223.5t-38 209.5t-103.5 157.5t-183.5 64.5l-190 -1073q53 -6 106 -6q162 0 262 124t131 300z" />
    <glyph glyph-name="glyph445" horiz-adv-x="2154" 
d="M1491 1434q326 -4 514 -218.5t137 -535.5q-109 -680 -850 -680h-676l-4 92q113 33 142 197l57 327h-231l32 201h236l76 436q-229 53 -275 54q-70 0 -108.5 -28t-38.5 -69q0 -39 44 -99t44 -120q0 -72 -52.5 -122t-134.5 -50q-86 0 -147 67.5t-61 157.5q0 188 140 309.5
t425 121.5q72 0 258 -20.5t465 -20.5h8zM1686 602q23 106 12.5 220t-41.5 208t-104.5 157.5t-178.5 69.5l-78 -440h148l-31 -199h-151l-78 -434q55 -6 114 -6q162 0 260.5 123t127.5 301z" />
    <glyph glyph-name="glyph446" horiz-adv-x="1955" 
d="M1622 926q-205 0 -383 118v-8q0 -82 59.5 -142t178.5 -60h67l-43 -172h-127q-158 0 -240.5 -86.5t-82.5 -200.5q0 -131 78.5 -190.5t195.5 -59.5q158 0 275.5 105.5t173.5 246.5l151 -57q-104 -221 -270 -341t-422 -120q-162 0 -305.5 37t-250 132t-106.5 232
q0 319 435 400l2 12q-221 76 -222 266q0 141 103 244q-76 29 -170 29q-90 0 -144.5 -44t-54.5 -100q0 -27 20.5 -70.5t20.5 -80.5q0 -76 -51 -121t-133 -45t-132 61.5t-50 147.5q0 176 151.5 296t372.5 120q188 0 342 -82q190 82 440 82q260 0 384 -70t124 -186
q0 -137 -113.5 -215t-273.5 -78zM1567 1319q-68 0 -142.5 -26.5t-121.5 -82.5q158 -129 319 -129q88 0 143.5 36t55.5 87q0 115 -254 115z" />
    </font>
</defs>
</svg>
